<?xml version="1.0" encoding="UTF-8" standalone="no"?>
<!DOCTYPE svg PUBLIC "-//W3C//DTD SVG 1.1//EN"
 "http://www.w3.org/Graphics/SVG/1.1/DTD/svg11.dtd">
<!-- Generated by graphviz version 2.43.0 (0)
 -->
<!-- Title: JKQTMathTextPhantomNode Pages: 1 -->
<svg width="436pt" height="232pt"
 viewBox="0.00 0.00 435.50 232.00" xmlns="http://www.w3.org/2000/svg" xmlns:xlink="http://www.w3.org/1999/xlink">
<g id="graph0" class="graph" transform="scale(1 1) rotate(0) translate(4 228)">
<title>JKQTMathTextPhantomNode</title>
<!-- Node1 -->
<g id="node1" class="node">
<title>Node1</title>
<g id="a_node1"><a xlink:title="generates whitespace with the size of the contained node">
<polygon fill="#bfbfbf" stroke="black" points="8.5,-0.5 8.5,-21.5 193.5,-21.5 193.5,-0.5 8.5,-0.5"/>
<text text-anchor="middle" x="101" y="-7.9" font-family="Helvetica,sans-Serif" font-size="12.00">JKQTMathTextPhantomNode</text>
</a>
</g>
</g>
<!-- Node2 -->
<g id="node2" class="node">
<title>Node2</title>
<g id="a_node2"><a xlink:href="class_j_k_q_t_math_text_instruction1_node.html" target="_top" xlink:title="subclass representing an instruction node with exactly one argument and possibly additional parameter...">
<polygon fill="none" stroke="black" points="0,-59.5 0,-80.5 202,-80.5 202,-59.5 0,-59.5"/>
<text text-anchor="middle" x="101" y="-66.9" font-family="Helvetica,sans-Serif" font-size="12.00">JKQTMathTextInstruction1Node</text>
</a>
</g>
</g>
<!-- Node2&#45;&gt;Node1 -->
<g id="edge1" class="edge">
<title>Node2&#45;&gt;Node1</title>
<path fill="none" stroke="midnightblue" d="M101,-49.23C101,-39.85 101,-29.07 101,-21.53"/>
<polygon fill="midnightblue" stroke="midnightblue" points="97.5,-49.33 101,-59.33 104.5,-49.33 97.5,-49.33"/>
</g>
<!-- Node3 -->
<g id="node3" class="node">
<title>Node3</title>
<g id="a_node3"><a xlink:href="class_j_k_q_t_math_text_single_child_node.html" target="_top" xlink:title="subclass representing a node in the syntax tree, that has one child">
<polygon fill="none" stroke="black" points="3,-118.5 3,-139.5 199,-139.5 199,-118.5 3,-118.5"/>
<text text-anchor="middle" x="101" y="-125.9" font-family="Helvetica,sans-Serif" font-size="12.00">JKQTMathTextSingleChildNode</text>
</a>
</g>
</g>
<!-- Node3&#45;&gt;Node2 -->
<g id="edge2" class="edge">
<title>Node3&#45;&gt;Node2</title>
<path fill="none" stroke="midnightblue" d="M101,-108.23C101,-98.85 101,-88.07 101,-80.53"/>
<polygon fill="midnightblue" stroke="midnightblue" points="97.5,-108.33 101,-118.33 104.5,-108.33 97.5,-108.33"/>
</g>
<!-- Node4 -->
<g id="node4" class="node">
<title>Node4</title>
<g id="a_node4"><a xlink:href="class_j_k_q_t_math_text_node.html" target="_top" xlink:title="subclass representing one node in the syntax tree">
<polygon fill="none" stroke="black" points="79.5,-202.5 79.5,-223.5 210.5,-223.5 210.5,-202.5 79.5,-202.5"/>
<text text-anchor="middle" x="145" y="-209.9" font-family="Helvetica,sans-Serif" font-size="12.00">JKQTMathTextNode</text>
</a>
</g>
</g>
<!-- Node4&#45;&gt;Node3 -->
<g id="edge3" class="edge">
<title>Node4&#45;&gt;Node3</title>
<path fill="none" stroke="midnightblue" d="M110.13,-197.09C105.27,-193.51 100.95,-189.18 98,-184 90.21,-170.29 93.93,-151.32 97.42,-139.89"/>
<polygon fill="midnightblue" stroke="midnightblue" points="108.31,-200.08 118.64,-202.42 112.03,-194.14 108.31,-200.08"/>
</g>
<!-- Node4&#45;&gt;Node3 -->
<g id="edge8" class="edge">
<title>Node4&#45;&gt;Node3</title>
<path fill="none" stroke="#9a32cd" stroke-dasharray="5,2" d="M126.27,-195.01C123.21,-191.59 120.29,-187.85 118,-184 109.57,-169.8 104.88,-150.98 102.66,-139.72"/>
<polygon fill="#9a32cd" stroke="#9a32cd" points="123.96,-197.66 133.47,-202.33 128.96,-192.75 123.96,-197.66"/>
<text text-anchor="middle" x="134" y="-167.9" font-family="Helvetica,sans-Serif" font-size="12.00"> child</text>
</g>
<!-- Node4&#45;&gt;Node4 -->
<g id="edge7" class="edge">
<title>Node4&#45;&gt;Node4</title>
<path fill="none" stroke="#9a32cd" stroke-dasharray="5,2" d="M220.67,-218.58C225.55,-217.28 228.5,-215.42 228.5,-213 228.5,-209.23 221.31,-206.81 210.81,-205.75"/>
<polygon fill="#9a32cd" stroke="#9a32cd" points="220.08,-215.13 210.81,-220.25 221.25,-222.03 220.08,-215.13"/>
<text text-anchor="middle" x="266" y="-209.9" font-family="Helvetica,sans-Serif" font-size="12.00"> parentNode</text>
</g>
<!-- Node5 -->
<g id="node5" class="node">
<title>Node5</title>
<g id="a_node5"><a xlink:href="class_j_k_q_t_math_text.html" target="_top" xlink:title="this class parses a LaTeX string and can then draw the contained text/equation onto a QPainter">
<polygon fill="none" stroke="black" points="233.5,-118.5 233.5,-139.5 332.5,-139.5 332.5,-118.5 233.5,-118.5"/>
<text text-anchor="middle" x="283" y="-125.9" font-family="Helvetica,sans-Serif" font-size="12.00">JKQTMathText</text>
</a>
</g>
</g>
<!-- Node4&#45;&gt;Node5 -->
<g id="edge6" class="edge">
<title>Node4&#45;&gt;Node5</title>
<path fill="none" stroke="#9a32cd" stroke-dasharray="5,2" d="M149.03,-192.7C152.45,-181.04 158.52,-166.77 169,-158 178.96,-149.66 207.28,-142.68 233.2,-137.78"/>
<polygon fill="#9a32cd" stroke="#9a32cd" points="145.62,-191.9 146.6,-202.45 152.42,-193.6 145.62,-191.9"/>
<text text-anchor="middle" x="213" y="-174.4" font-family="Helvetica,sans-Serif" font-size="12.00"> parsedNode</text>
<text text-anchor="middle" x="213" y="-161.4" font-family="Helvetica,sans-Serif" font-size="12.00">unparsedNode</text>
</g>
<!-- Node5&#45;&gt;Node4 -->
<g id="edge4" class="edge">
<title>Node5&#45;&gt;Node4</title>
<path fill="none" stroke="#9a32cd" stroke-dasharray="5,2" d="M279.64,-149.64C276.65,-161.23 271.12,-175.3 261,-184 246.94,-196.09 228.54,-203.15 210.54,-207.22"/>
<polygon fill="#9a32cd" stroke="#9a32cd" points="283.13,-150.05 281.78,-139.54 276.28,-148.59 283.13,-150.05"/>
<text text-anchor="middle" x="325.5" y="-167.9" font-family="Helvetica,sans-Serif" font-size="12.00"> parentMathText</text>
</g>
<!-- Node6 -->
<g id="node6" class="node">
<title>Node6</title>
<g id="a_node6"><a xlink:title=" ">
<polygon fill="none" stroke="black" points="362.5,-202.5 362.5,-223.5 427.5,-223.5 427.5,-202.5 362.5,-202.5"/>
<text text-anchor="middle" x="395" y="-209.9" font-family="Helvetica,sans-Serif" font-size="12.00">QObject</text>
</a>
</g>
</g>
<!-- Node6&#45;&gt;Node5 -->
<g id="edge5" class="edge">
<title>Node6&#45;&gt;Node5</title>
<path fill="none" stroke="midnightblue" d="M394.52,-191.92C393.21,-180.58 389.72,-166.94 381,-158 368.27,-144.95 349.92,-137.87 332.53,-134.07"/>
<polygon fill="midnightblue" stroke="midnightblue" points="391.05,-192.49 395.22,-202.22 398.04,-192.01 391.05,-192.49"/>
</g>
</g>
</svg>
