<?xml version="1.0" encoding="UTF-8" standalone="no"?>
<!DOCTYPE svg PUBLIC "-//W3C//DTD SVG 1.1//EN"
 "http://www.w3.org/Graphics/SVG/1.1/DTD/svg11.dtd">
<!-- Generated by graphviz version 2.43.0 (0)
 -->
<!-- Title: JKQTMathTextDualChildNode Pages: 1 -->
<svg width="487pt" height="164pt"
 viewBox="0.00 0.00 487.00 164.00" xmlns="http://www.w3.org/2000/svg" xmlns:xlink="http://www.w3.org/1999/xlink">
<g id="graph0" class="graph" transform="scale(1 1) rotate(0) translate(4 160)">
<title>JKQTMathTextDualChildNode</title>
<!-- Node1 -->
<g id="node1" class="node">
<title>Node1</title>
<g id="a_node1"><a xlink:title="subclass representing a node in the syntax tree, that has two children">
<polygon fill="#bfbfbf" stroke="black" points="0,-0.5 0,-21.5 187,-21.5 187,-0.5 0,-0.5"/>
<text text-anchor="middle" x="93.5" y="-7.9" font-family="Helvetica,sans-Serif" font-size="12.00">JKQTMathTextDualChildNode</text>
</a>
</g>
</g>
<!-- Node2 -->
<g id="node2" class="node">
<title>Node2</title>
<g id="a_node2"><a xlink:href="class_j_k_q_t_math_text_multi_child_node.html" target="_top" xlink:title="subclass representing a node in the syntax tree, that has two children">
<polygon fill="none" stroke="black" points="107.5,-61.5 107.5,-82.5 295.5,-82.5 295.5,-61.5 107.5,-61.5"/>
<text text-anchor="middle" x="201.5" y="-68.9" font-family="Helvetica,sans-Serif" font-size="12.00">JKQTMathTextMultiChildNode</text>
</a>
</g>
</g>
<!-- Node2&#45;&gt;Node1 -->
<g id="edge1" class="edge">
<title>Node2&#45;&gt;Node1</title>
<path fill="none" stroke="midnightblue" d="M174.78,-56.4C154.87,-45.53 128.26,-30.99 111,-21.56"/>
<polygon fill="midnightblue" stroke="midnightblue" points="173.21,-59.53 183.67,-61.26 176.57,-53.39 173.21,-59.53"/>
</g>
<!-- Node3 -->
<g id="node3" class="node">
<title>Node3</title>
<g id="a_node3"><a xlink:href="class_j_k_q_t_math_text_node.html" target="_top" xlink:title="subclass representing one node in the syntax tree">
<polygon fill="none" stroke="black" points="153,-134.5 153,-155.5 284,-155.5 284,-134.5 153,-134.5"/>
<text text-anchor="middle" x="218.5" y="-141.9" font-family="Helvetica,sans-Serif" font-size="12.00">JKQTMathTextNode</text>
</a>
</g>
</g>
<!-- Node3&#45;&gt;Node1 -->
<g id="edge7" class="edge">
<title>Node3&#45;&gt;Node1</title>
<path fill="none" stroke="#9a32cd" stroke-dasharray="5,2" d="M142.61,-135.08C111.19,-127.22 77.67,-112.5 58.5,-85 43.87,-64.02 67.73,-35.97 82.75,-21.51"/>
<polygon fill="#9a32cd" stroke="#9a32cd" points="142.19,-138.57 152.72,-137.4 143.76,-131.75 142.19,-138.57"/>
<text text-anchor="middle" x="78.5" y="-75.4" font-family="Helvetica,sans-Serif" font-size="12.00"> child1</text>
<text text-anchor="middle" x="78.5" y="-62.4" font-family="Helvetica,sans-Serif" font-size="12.00">child2</text>
</g>
<!-- Node3&#45;&gt;Node2 -->
<g id="edge2" class="edge">
<title>Node3&#45;&gt;Node2</title>
<path fill="none" stroke="midnightblue" d="M213.86,-124.64C210.63,-111.12 206.44,-93.64 203.87,-82.88"/>
<polygon fill="midnightblue" stroke="midnightblue" points="210.47,-125.51 216.21,-134.42 217.28,-123.88 210.47,-125.51"/>
</g>
<!-- Node3&#45;&gt;Node3 -->
<g id="edge6" class="edge">
<title>Node3&#45;&gt;Node3</title>
<path fill="none" stroke="#9a32cd" stroke-dasharray="5,2" d="M294.52,-149.44C299.19,-148.39 302,-146.91 302,-145 302,-141.95 294.81,-139.99 284.31,-139.13"/>
<polygon fill="#9a32cd" stroke="#9a32cd" points="293.73,-146.02 284.31,-150.87 294.7,-152.95 293.73,-146.02"/>
<text text-anchor="middle" x="339.5" y="-141.9" font-family="Helvetica,sans-Serif" font-size="12.00"> parentNode</text>
</g>
<!-- Node4 -->
<g id="node4" class="node">
<title>Node4</title>
<g id="a_node4"><a xlink:href="class_j_k_q_t_math_text.html" target="_top" xlink:title="this class parses a LaTeX string and can then draw the contained text/equation onto a QPainter">
<polygon fill="none" stroke="black" points="314,-61.5 314,-82.5 413,-82.5 413,-61.5 314,-61.5"/>
<text text-anchor="middle" x="363.5" y="-68.9" font-family="Helvetica,sans-Serif" font-size="12.00">JKQTMathText</text>
</a>
</g>
</g>
<!-- Node3&#45;&gt;Node4 -->
<g id="edge5" class="edge">
<title>Node3&#45;&gt;Node4</title>
<path fill="none" stroke="#9a32cd" stroke-dasharray="5,2" d="M220.52,-124.37C222.28,-116.72 225.52,-108.5 231.5,-103 234.75,-100.01 279.8,-90.16 316.38,-82.56"/>
<polygon fill="#9a32cd" stroke="#9a32cd" points="217.04,-124.01 218.9,-134.44 223.95,-125.12 217.04,-124.01"/>
<text text-anchor="middle" x="270" y="-106.4" font-family="Helvetica,sans-Serif" font-size="12.00"> parsedNode</text>
</g>
<!-- Node4&#45;&gt;Node3 -->
<g id="edge3" class="edge">
<title>Node4&#45;&gt;Node3</title>
<path fill="none" stroke="#9a32cd" stroke-dasharray="5,2" d="M345.5,-89.54C333.83,-99.98 319.54,-112.2 312.5,-116 297.52,-124.09 279.89,-130.13 263.98,-134.49"/>
<polygon fill="#9a32cd" stroke="#9a32cd" points="347.97,-92.02 353.03,-82.71 343.27,-86.83 347.97,-92.02"/>
<text text-anchor="middle" x="378" y="-106.4" font-family="Helvetica,sans-Serif" font-size="12.00"> parentMathText</text>
</g>
<!-- Node5 -->
<g id="node5" class="node">
<title>Node5</title>
<g id="a_node5"><a xlink:title=" ">
<polygon fill="none" stroke="black" points="414,-134.5 414,-155.5 479,-155.5 479,-134.5 414,-134.5"/>
<text text-anchor="middle" x="446.5" y="-141.9" font-family="Helvetica,sans-Serif" font-size="12.00">QObject</text>
</a>
</g>
</g>
<!-- Node5&#45;&gt;Node4 -->
<g id="edge4" class="edge">
<title>Node5&#45;&gt;Node4</title>
<path fill="none" stroke="midnightblue" d="M443.36,-124.6C441.32,-117.11 437.98,-108.94 432.5,-103 423.91,-93.68 411.92,-87.12 400.35,-82.56"/>
<polygon fill="midnightblue" stroke="midnightblue" points="439.95,-125.37 445.46,-134.42 446.79,-123.91 439.95,-125.37"/>
</g>
</g>
</svg>
