<?xml version="1.0" encoding="UTF-8" standalone="no"?>
<!DOCTYPE svg PUBLIC "-//W3C//DTD SVG 1.1//EN"
 "http://www.w3.org/Graphics/SVG/1.1/DTD/svg11.dtd">
<!-- Generated by graphviz version 2.43.0 (0)
 -->
<!-- Title: JKQTMathTextSuperscriptNode Pages: 1 -->
<svg width="359pt" height="114pt"
 viewBox="0.00 0.00 359.00 114.00" xmlns="http://www.w3.org/2000/svg" xmlns:xlink="http://www.w3.org/1999/xlink">
<g id="graph0" class="graph" transform="scale(1 1) rotate(0) translate(4 110)">
<title>JKQTMathTextSuperscriptNode</title>
<!-- Node1 -->
<g id="node1" class="node">
<title>Node1</title>
<g id="a_node1"><a xlink:title="subclass representing an superscript node with exactly one argument in the syntax tree">
<polygon fill="#bfbfbf" stroke="black" points="0,-0.5 0,-21.5 188,-21.5 188,-0.5 0,-0.5"/>
<text text-anchor="middle" x="94" y="-7.9" font-family="FreeSans" font-size="12.00">JKQTMathTextSuperscriptNode</text>
</a>
</g>
</g>
<!-- Node2 -->
<g id="node2" class="node">
<title>Node2</title>
<g id="a_node2"><a xlink:href="class_j_k_q_t_math_text_node.html" target="_top" xlink:title="subclass representing one node in the syntax tree">
<polygon fill="none" stroke="black" points="75,-84.5 75,-105.5 203,-105.5 203,-84.5 75,-84.5"/>
<text text-anchor="middle" x="139" y="-91.9" font-family="FreeSans" font-size="12.00">JKQTMathTextNode</text>
</a>
</g>
</g>
<!-- Node2&#45;&gt;Node1 -->
<g id="edge1" class="edge">
<title>Node2&#45;&gt;Node1</title>
<path fill="none" stroke="midnightblue" d="M106.33,-78.65C101.81,-75.13 97.77,-70.94 95,-66 87.29,-52.26 89.27,-33.3 91.54,-21.89"/>
<polygon fill="midnightblue" stroke="midnightblue" points="104.56,-81.68 114.83,-84.28 108.43,-75.84 104.56,-81.68"/>
</g>
<!-- Node2&#45;&gt;Node1 -->
<g id="edge5" class="edge">
<title>Node2&#45;&gt;Node1</title>
<path fill="none" stroke="#9a32cd" stroke-dasharray="5,2" d="M122.51,-76.56C119.79,-73.2 117.16,-69.6 115,-66 106.32,-51.5 99.99,-32.78 96.66,-21.62"/>
<polygon fill="#9a32cd" stroke="#9a32cd" points="120.01,-79.02 129.22,-84.27 125.29,-74.43 120.01,-79.02"/>
<text text-anchor="middle" x="129" y="-49.9" font-family="FreeSans" font-size="12.00"> child</text>
</g>
<!-- Node3 -->
<g id="node3" class="node">
<title>Node3</title>
<g id="a_node3"><a xlink:href="class_j_k_q_t_math_text.html" target="_top" xlink:title="this class parses a LaTeX string and can then draw the contained text/equation onto a QPainter">
<polygon fill="none" stroke="black" points="219,-0.5 219,-21.5 317,-21.5 317,-0.5 219,-0.5"/>
<text text-anchor="middle" x="268" y="-7.9" font-family="FreeSans" font-size="12.00">JKQTMathText</text>
</a>
</g>
</g>
<!-- Node2&#45;&gt;Node3 -->
<g id="edge4" class="edge">
<title>Node2&#45;&gt;Node3</title>
<path fill="none" stroke="#9a32cd" stroke-dasharray="5,2" d="M142.81,-74.42C146.04,-62.85 151.84,-48.79 162,-40 170.82,-32.37 195.47,-25.63 218.78,-20.68"/>
<polygon fill="#9a32cd" stroke="#9a32cd" points="139.32,-73.96 140.44,-84.5 146.14,-75.57 139.32,-73.96"/>
<text text-anchor="middle" x="202" y="-56.4" font-family="FreeSans" font-size="12.00"> parsedNode</text>
<text text-anchor="middle" x="202" y="-43.4" font-family="FreeSans" font-size="12.00">unparsedNode</text>
</g>
<!-- Node3&#45;&gt;Node2 -->
<g id="edge2" class="edge">
<title>Node3&#45;&gt;Node2</title>
<path fill="none" stroke="#9a32cd" stroke-dasharray="5,2" d="M264.47,-31.97C261.44,-43.46 255.92,-57.3 246,-66 234.02,-76.51 218.56,-83.15 203.13,-87.32"/>
<polygon fill="#9a32cd" stroke="#9a32cd" points="267.95,-32.44 266.68,-21.92 261.12,-30.94 267.95,-32.44"/>
<text text-anchor="middle" x="279.5" y="-49.9" font-family="FreeSans" font-size="12.00"> parent</text>
</g>
<!-- Node4 -->
<g id="node4" class="node">
<title>Node4</title>
<g id="a_node4"><a xlink:title=" ">
<polygon fill="none" stroke="black" points="289,-84.5 289,-105.5 351,-105.5 351,-84.5 289,-84.5"/>
<text text-anchor="middle" x="320" y="-91.9" font-family="FreeSans" font-size="12.00">QObject</text>
</a>
</g>
</g>
<!-- Node4&#45;&gt;Node3 -->
<g id="edge3" class="edge">
<title>Node4&#45;&gt;Node3</title>
<path fill="none" stroke="midnightblue" d="M318.13,-74.23C316.34,-63.38 312.85,-50.12 306,-40 300.95,-32.53 293.22,-26.31 286.05,-21.65"/>
<polygon fill="midnightblue" stroke="midnightblue" points="314.7,-74.96 319.44,-84.43 321.64,-74.06 314.7,-74.96"/>
</g>
</g>
</svg>
