<?xml version="1.0" encoding="UTF-8" standalone="no"?>
<!DOCTYPE svg PUBLIC "-//W3C//DTD SVG 1.1//EN"
 "http://www.w3.org/Graphics/SVG/1.1/DTD/svg11.dtd">
<!-- Generated by graphviz version 2.43.0 (0)
 -->
<!-- Title: JKQTPGraphSymbolStyleMixin Pages: 1 -->
<!--zoomable 286 -->
<svg id="main" version="1.1" xmlns="http://www.w3.org/2000/svg" xmlns:xlink="http://www.w3.org/1999/xlink" xml:space="preserve" onload="init(evt)">
<style type="text/css"><![CDATA[
.edge:hover path { stroke: red; }
.edge:hover polygon { stroke: red; fill: red; }
]]></style>
<script type="text/javascript"><![CDATA[
var edges = document.getElementsByTagName('g');
if (edges && edges.length) {
  for (var i=0;i<edges.length;i++) {
    if (edges[i].id.substr(0,4)=='edge') {
      edges[i].setAttribute('class','edge');
    }
  }
}
]]></script>
        <defs>
                <circle id="rim" cx="0" cy="0" r="7"/>
                <circle id="rim2" cx="0" cy="0" r="3.5"/>
                <g id="zoomPlus">
                        <use xlink:href="#rim" fill="#404040">
                                <set attributeName="fill" to="#808080" begin="zoomplus.mouseover" end="zoomplus.mouseout"/>
                        </use>
                        <path d="M-4,0h8M0,-4v8" fill="none" stroke="white" stroke-width="1.5" pointer-events="none"/>
                </g>
                <g id="zoomMin">
                        <use xlink:href="#rim" fill="#404040">
                                <set attributeName="fill" to="#808080" begin="zoomminus.mouseover" end="zoomminus.mouseout"/>
                        </use>
                        <path d="M-4,0h8" fill="none" stroke="white" stroke-width="1.5" pointer-events="none"/>
                </g>
                <g id="dirArrow">
                        <path fill="none" stroke="white" stroke-width="1.5" d="M0,-3.0v7 M-2.5,-0.5L0,-3.0L2.5,-0.5"/>
                </g>
               <g id="resetDef">
                       <use xlink:href="#rim2" fill="#404040">
                               <set attributeName="fill" to="#808080" begin="reset.mouseover" end="reset.mouseout"/>
                       </use>
               </g>
        </defs>

<script type="text/javascript">
var viewWidth = 895;
var viewHeight = 286;
var sectionId = 'dynsection-0';
</script>
<script xlink:href="svgpan.js"/>
<svg id="graph" class="graph">
<g id="viewport">
<title>JKQTPGraphSymbolStyleMixin</title>
<!-- Node1 -->
<g id="node1" class="node">
<title>Node1</title>
<g id="a_node1"><a xlink:title="This Mix&#45;In class provides setter/getter methods, storage and other facilities for the graph symbols ...">
<polygon fill="#bfbfbf" stroke="black" points="0,-154 0,-175 194,-175 194,-154 0,-154"/>
<text text-anchor="middle" x="97" y="-161.4" font-family="Helvetica,sans-Serif" font-size="12.00">JKQTPGraphSymbolStyleMixin</text>
</a>
</g>
</g>
<!-- Node2 -->
<g id="node2" class="node">
<title>Node2</title>
<g id="a_node2"><a xlink:href="class_j_k_q_t_p_geo_symbol.html" target="_top" xlink:title="This virtual JKQTPPlotAnnotationElement descendent may be used to display a single symbol (marker).">
<polygon fill="none" stroke="black" points="262.5,-241 262.5,-262 383.5,-262 383.5,-241 262.5,-241"/>
<text text-anchor="middle" x="323" y="-248.4" font-family="Helvetica,sans-Serif" font-size="12.00">JKQTPGeoSymbol</text>
</a>
</g>
</g>
<!-- Node1&#45;&gt;Node2 -->
<g id="edge1" class="edge">
<title>Node1&#45;&gt;Node2</title>
<path fill="none" stroke="midnightblue" d="M124.14,-180.3C150.15,-195.41 191.62,-217.84 230,-231.5 240.32,-235.17 251.54,-238.29 262.48,-240.9"/>
<polygon fill="midnightblue" stroke="midnightblue" points="125.69,-177.15 115.29,-175.1 122.14,-183.18 125.69,-177.15"/>
</g>
<!-- Node3 -->
<g id="node3" class="node">
<title>Node3</title>
<g id="a_node3"><a xlink:href="class_j_k_q_t_p_impulses_graph_base.html" target="_top" xlink:title="This is a base class for all impulse graphs.">
<polygon fill="none" stroke="black" points="237,-201 237,-222 409,-222 409,-201 237,-201"/>
<text text-anchor="middle" x="323" y="-208.4" font-family="Helvetica,sans-Serif" font-size="12.00">JKQTPImpulsesGraphBase</text>
</a>
</g>
</g>
<!-- Node1&#45;&gt;Node3 -->
<g id="edge2" class="edge">
<title>Node1&#45;&gt;Node3</title>
<path fill="none" stroke="midnightblue" d="M158.51,-177.2C194.02,-184.65 238.36,-193.95 271.9,-200.99"/>
<polygon fill="midnightblue" stroke="midnightblue" points="158.78,-173.68 148.27,-175.05 157.34,-180.53 158.78,-173.68"/>
</g>
<!-- Node8 -->
<g id="node8" class="node">
<title>Node8</title>
<g id="a_node8"><a xlink:href="class_j_k_q_t_p_single_column_symbols_graph.html" target="_top" xlink:title="plots a 1&#45;column set of data&#45;values with symbols onto a JKQtPlotter/JKQtBasePlotter....">
<polygon fill="none" stroke="black" points="230.5,-147.5 230.5,-181.5 415.5,-181.5 415.5,-147.5 230.5,-147.5"/>
<text text-anchor="start" x="238.5" y="-167.9" font-family="Helvetica,sans-Serif" font-size="12.00">JKQTPSingleColumnSymbols</text>
<text text-anchor="middle" x="323" y="-154.9" font-family="Helvetica,sans-Serif" font-size="12.00">Graph</text>
</a>
</g>
</g>
<!-- Node1&#45;&gt;Node8 -->
<g id="edge7" class="edge">
<title>Node1&#45;&gt;Node8</title>
<path fill="none" stroke="midnightblue" d="M204.45,-164.5C213.12,-164.5 221.84,-164.5 230.4,-164.5"/>
<polygon fill="midnightblue" stroke="midnightblue" points="204.3,-161 194.3,-164.5 204.3,-168 204.3,-161"/>
</g>
<!-- Node9 -->
<g id="node9" class="node">
<title>Node9</title>
<g id="a_node9"><a xlink:href="class_j_k_q_t_p_special_line_graph_base.html" target="_top" xlink:title="a Base class for special line graphs (steps ...) like e.g. JKQTPSpecialLineHorizontalGraph">
<polygon fill="none" stroke="black" points="230,-107 230,-128 416,-128 416,-107 230,-107"/>
<text text-anchor="middle" x="323" y="-114.4" font-family="Helvetica,sans-Serif" font-size="12.00">JKQTPSpecialLineGraphBase</text>
</a>
</g>
</g>
<!-- Node1&#45;&gt;Node9 -->
<g id="edge8" class="edge">
<title>Node1&#45;&gt;Node9</title>
<path fill="none" stroke="midnightblue" d="M158.51,-151.8C194.02,-144.35 238.36,-135.05 271.9,-128.01"/>
<polygon fill="midnightblue" stroke="midnightblue" points="157.34,-148.47 148.27,-153.95 158.78,-155.32 157.34,-148.47"/>
</g>
<!-- Node12 -->
<g id="node12" class="node">
<title>Node12</title>
<g id="a_node12"><a xlink:href="class_j_k_q_t_p_x_y_line_graph.html" target="_top" xlink:title="This implements xy line plots. This also alows to draw symbols at the data points.">
<polygon fill="none" stroke="black" points="258,-54 258,-75 388,-75 388,-54 258,-54"/>
<text text-anchor="middle" x="323" y="-61.4" font-family="Helvetica,sans-Serif" font-size="12.00">JKQTPXYLineGraph</text>
</a>
</g>
</g>
<!-- Node1&#45;&gt;Node12 -->
<g id="edge11" class="edge">
<title>Node1&#45;&gt;Node12</title>
<path fill="none" stroke="midnightblue" d="M125.91,-149.04C152.29,-134.74 193.22,-113.36 230,-97.5 249.32,-89.17 271.51,-81.17 289.26,-75.13"/>
<polygon fill="midnightblue" stroke="midnightblue" points="123.98,-146.11 116.88,-153.97 127.33,-152.25 123.98,-146.11"/>
</g>
<!-- Node4 -->
<g id="node4" class="node">
<title>Node4</title>
<g id="a_node4"><a xlink:href="class_j_k_q_t_p_impulses_horizontal_graph.html" target="_top" xlink:title="This implements an impulse plot with impulses in direction of the X axis (i.e. from y=0 to y=f(x) )">
<polygon fill="none" stroke="black" points="452,-247 452,-268 655,-268 655,-247 452,-247"/>
<text text-anchor="middle" x="553.5" y="-254.4" font-family="Helvetica,sans-Serif" font-size="12.00">JKQTPImpulsesHorizontalGraph</text>
</a>
</g>
</g>
<!-- Node3&#45;&gt;Node4 -->
<g id="edge3" class="edge">
<title>Node3&#45;&gt;Node4</title>
<path fill="none" stroke="midnightblue" d="M386.26,-224.03C422.02,-231.23 466.41,-240.17 500.32,-247"/>
<polygon fill="midnightblue" stroke="midnightblue" points="386.92,-220.6 376.42,-222.05 385.54,-227.46 386.92,-220.6"/>
</g>
<!-- Node6 -->
<g id="node6" class="node">
<title>Node6</title>
<g id="a_node6"><a xlink:href="class_j_k_q_t_p_impulses_vertical_graph.html" target="_top" xlink:title="This implements an impulse plot with impulses in direction of the Y axis (i.e. from y=0 to y=f(x) )">
<polygon fill="none" stroke="black" points="459.5,-201 459.5,-222 647.5,-222 647.5,-201 459.5,-201"/>
<text text-anchor="middle" x="553.5" y="-208.4" font-family="Helvetica,sans-Serif" font-size="12.00">JKQTPImpulsesVerticalGraph</text>
</a>
</g>
</g>
<!-- Node3&#45;&gt;Node6 -->
<g id="edge5" class="edge">
<title>Node3&#45;&gt;Node6</title>
<path fill="none" stroke="midnightblue" d="M419.15,-211.5C432.43,-211.5 446.05,-211.5 459.29,-211.5"/>
<polygon fill="midnightblue" stroke="midnightblue" points="419.09,-208 409.08,-211.5 419.08,-215 419.09,-208"/>
</g>
<!-- Node5 -->
<g id="node5" class="node">
<title>Node5</title>
<g id="a_node5"><a xlink:href="class_j_k_q_t_p_impulses_horizontal_error_graph.html" target="_top" xlink:title="This implements an impulse plot with impulses in direction of the X axis (i.e. from x=0 to x=f(y) )">
<polygon fill="none" stroke="black" points="691,-243.5 691,-277.5 887,-277.5 887,-243.5 691,-243.5"/>
<text text-anchor="start" x="699" y="-263.9" font-family="Helvetica,sans-Serif" font-size="12.00">JKQTPImpulsesHorizontalError</text>
<text text-anchor="middle" x="789" y="-250.9" font-family="Helvetica,sans-Serif" font-size="12.00">Graph</text>
</a>
</g>
</g>
<!-- Node4&#45;&gt;Node5 -->
<g id="edge4" class="edge">
<title>Node4&#45;&gt;Node5</title>
<path fill="none" stroke="midnightblue" d="M665.26,-258.92C673.84,-259.03 682.46,-259.14 690.94,-259.25"/>
<polygon fill="midnightblue" stroke="midnightblue" points="665.26,-255.42 655.22,-258.79 665.17,-262.42 665.26,-255.42"/>
</g>
<!-- Node7 -->
<g id="node7" class="node">
<title>Node7</title>
<g id="a_node7"><a xlink:href="class_j_k_q_t_p_impulses_vertical_error_graph.html" target="_top" xlink:title="This implements an impulse plot with impulses in direction of the X axis (i.e. from x=0 to x=f(y) )">
<polygon fill="none" stroke="black" points="699,-190.5 699,-224.5 879,-224.5 879,-190.5 699,-190.5"/>
<text text-anchor="start" x="707" y="-210.9" font-family="Helvetica,sans-Serif" font-size="12.00">JKQTPImpulsesVerticalError</text>
<text text-anchor="middle" x="789" y="-197.9" font-family="Helvetica,sans-Serif" font-size="12.00">Graph</text>
</a>
</g>
</g>
<!-- Node6&#45;&gt;Node7 -->
<g id="edge6" class="edge">
<title>Node6&#45;&gt;Node7</title>
<path fill="none" stroke="midnightblue" d="M658.08,-209.73C671.61,-209.49 685.38,-209.26 698.65,-209.03"/>
<polygon fill="midnightblue" stroke="midnightblue" points="657.73,-206.23 647.79,-209.9 657.85,-213.23 657.73,-206.23"/>
</g>
<!-- Node10 -->
<g id="node10" class="node">
<title>Node10</title>
<g id="a_node10"><a xlink:href="class_j_k_q_t_p_special_line_horizontal_graph.html" target="_top" xlink:title="This implements a step plot with values .">
<polygon fill="none" stroke="black" points="463,-147.5 463,-181.5 644,-181.5 644,-147.5 463,-147.5"/>
<text text-anchor="start" x="471" y="-167.9" font-family="Helvetica,sans-Serif" font-size="12.00">JKQTPSpecialLineHorizontal</text>
<text text-anchor="middle" x="553.5" y="-154.9" font-family="Helvetica,sans-Serif" font-size="12.00">Graph</text>
</a>
</g>
</g>
<!-- Node9&#45;&gt;Node10 -->
<g id="edge9" class="edge">
<title>Node9&#45;&gt;Node10</title>
<path fill="none" stroke="midnightblue" d="M385.32,-130.11C411.19,-135.43 441.72,-141.71 469.55,-147.44"/>
<polygon fill="midnightblue" stroke="midnightblue" points="385.78,-126.63 375.28,-128.05 384.37,-133.49 385.78,-126.63"/>
</g>
<!-- Node11 -->
<g id="node11" class="node">
<title>Node11</title>
<g id="a_node11"><a xlink:href="class_j_k_q_t_p_special_line_vertical_graph.html" target="_top" xlink:title="This implements a step plot with values .">
<polygon fill="none" stroke="black" points="471,-94.5 471,-128.5 636,-128.5 636,-94.5 471,-94.5"/>
<text text-anchor="start" x="479" y="-114.9" font-family="Helvetica,sans-Serif" font-size="12.00">JKQTPSpecialLineVertical</text>
<text text-anchor="middle" x="553.5" y="-101.9" font-family="Helvetica,sans-Serif" font-size="12.00">Graph</text>
</a>
</g>
</g>
<!-- Node9&#45;&gt;Node11 -->
<g id="edge10" class="edge">
<title>Node9&#45;&gt;Node11</title>
<path fill="none" stroke="midnightblue" d="M426.52,-114.81C441.39,-114.42 456.53,-114.02 470.92,-113.64"/>
<polygon fill="midnightblue" stroke="midnightblue" points="426.19,-111.32 416.28,-115.08 426.37,-118.31 426.19,-111.32"/>
</g>
<!-- Node13 -->
<g id="node13" class="node">
<title>Node13</title>
<g id="a_node13"><a xlink:href="class_j_k_q_t_p_x_y_line_error_graph.html" target="_top" xlink:title="This implements xy line plots with x and y error indicators.">
<polygon fill="none" stroke="black" points="474,-54 474,-75 633,-75 633,-54 474,-54"/>
<text text-anchor="middle" x="553.5" y="-61.4" font-family="Helvetica,sans-Serif" font-size="12.00">JKQTPXYLineErrorGraph</text>
</a>
</g>
</g>
<!-- Node12&#45;&gt;Node13 -->
<g id="edge12" class="edge">
<title>Node12&#45;&gt;Node13</title>
<path fill="none" stroke="midnightblue" d="M398.4,-64.5C422.49,-64.5 449.29,-64.5 473.69,-64.5"/>
<polygon fill="midnightblue" stroke="midnightblue" points="398.26,-61 388.26,-64.5 398.26,-68 398.26,-61"/>
</g>
<!-- Node14 -->
<g id="node14" class="node">
<title>Node14</title>
<g id="a_node14"><a xlink:href="class_j_k_q_t_p_x_y_parametrized_scatter_graph.html" target="_top" xlink:title="This implements xy scatter plots (like JKQTPXYLineGraph), but the color and size of the symbols may b...">
<polygon fill="none" stroke="black" points="457.5,-0.5 457.5,-34.5 649.5,-34.5 649.5,-0.5 457.5,-0.5"/>
<text text-anchor="start" x="465.5" y="-20.9" font-family="Helvetica,sans-Serif" font-size="12.00">JKQTPXYParametrizedScatter</text>
<text text-anchor="middle" x="553.5" y="-7.9" font-family="Helvetica,sans-Serif" font-size="12.00">Graph</text>
</a>
</g>
</g>
<!-- Node12&#45;&gt;Node14 -->
<g id="edge13" class="edge">
<title>Node12&#45;&gt;Node14</title>
<path fill="none" stroke="midnightblue" d="M385.32,-51.89C411.19,-46.57 441.72,-40.29 469.55,-34.56"/>
<polygon fill="midnightblue" stroke="midnightblue" points="384.37,-48.51 375.28,-53.95 385.78,-55.37 384.37,-48.51"/>
</g>
<!-- Node15 -->
<g id="node15" class="node">
<title>Node15</title>
<g id="a_node15"><a xlink:href="class_j_k_q_t_p_x_y_parametrized_error_scatter_graph.html" target="_top" xlink:title="This implements xy scatter plots (like JKQTPXYLineGraph), but the color and size of the symbols may b...">
<polygon fill="none" stroke="black" points="700,-0.5 700,-34.5 878,-34.5 878,-0.5 700,-0.5"/>
<text text-anchor="start" x="708" y="-20.9" font-family="Helvetica,sans-Serif" font-size="12.00">JKQTPXYParametrizedError</text>
<text text-anchor="middle" x="789" y="-7.9" font-family="Helvetica,sans-Serif" font-size="12.00">ScatterGraph</text>
</a>
</g>
</g>
<!-- Node14&#45;&gt;Node15 -->
<g id="edge14" class="edge">
<title>Node14&#45;&gt;Node15</title>
<path fill="none" stroke="midnightblue" d="M659.94,-17.5C673.25,-17.5 686.76,-17.5 699.76,-17.5"/>
<polygon fill="midnightblue" stroke="midnightblue" points="659.81,-14 649.81,-17.5 659.81,-21 659.81,-14"/>
</g>
</g>
</svg>
        <g id="navigator" transform="translate(0 0)" fill="#404254">
                <rect fill="#f2f5e9" fill-opacity="0.5" stroke="#606060" stroke-width=".5" x="0" y="0" width="60" height="60"/>
                <use id="zoomplus" xlink:href="#zoomPlus" x="17" y="9" onmousedown="handleZoom(evt,'in')"/>
                <use id="zoomminus" xlink:href="#zoomMin" x="42" y="9" onmousedown="handleZoom(evt,'out')"/>
                <use id="reset" xlink:href="#resetDef" x="30" y="36" onmousedown="handleReset()"/>
                <g id="arrowUp" xlink:href="#dirArrow" transform="translate(30 24)" onmousedown="handlePan(0,-1)">
                  <use xlink:href="#rim" fill="#404040">
                        <set attributeName="fill" to="#808080" begin="arrowUp.mouseover" end="arrowUp.mouseout"/>
                  </use>
                  <path fill="none" stroke="white" stroke-width="1.5" d="M0,-3.0v7 M-2.5,-0.5L0,-3.0L2.5,-0.5"/>
                </g>
                <g id="arrowRight" xlink:href="#dirArrow" transform="rotate(90) translate(36 -43)" onmousedown="handlePan(1,0)">
                  <use xlink:href="#rim" fill="#404040">
                        <set attributeName="fill" to="#808080" begin="arrowRight.mouseover" end="arrowRight.mouseout"/>
                  </use>
                  <path fill="none" stroke="white" stroke-width="1.5" d="M0,-3.0v7 M-2.5,-0.5L0,-3.0L2.5,-0.5"/>
                </g>
                <g id="arrowDown" xlink:href="#dirArrow" transform="rotate(180) translate(-30 -48)" onmousedown="handlePan(0,1)">
                  <use xlink:href="#rim" fill="#404040">
                        <set attributeName="fill" to="#808080" begin="arrowDown.mouseover" end="arrowDown.mouseout"/>
                  </use>
                  <path fill="none" stroke="white" stroke-width="1.5" d="M0,-3.0v7 M-2.5,-0.5L0,-3.0L2.5,-0.5"/>
                </g>
                <g id="arrowLeft" xlink:href="#dirArrow" transform="rotate(270) translate(-36 17)" onmousedown="handlePan(-1,0)">
                  <use xlink:href="#rim" fill="#404040">
                        <set attributeName="fill" to="#808080" begin="arrowLeft.mouseover" end="arrowLeft.mouseout"/>
                  </use>
                  <path fill="none" stroke="white" stroke-width="1.5" d="M0,-3.0v7 M-2.5,-0.5L0,-3.0L2.5,-0.5"/>
                </g>
        </g>
        <svg viewBox="0 0 15 15" width="100%" height="30px" preserveAspectRatio="xMaxYMin meet">
         <g id="arrow_out" transform="scale(0.3 0.3)">
          <a xlink:href="class_j_k_q_t_p_graph_symbol_style_mixin__inherit__graph_org.svg" target="_base">
           <rect id="button" ry="5" rx="5" y="6" x="6" height="38" width="38"
                fill="#f2f5e9" fill-opacity="0.5" stroke="#606060" stroke-width="1.0"/>
           <path id="arrow"
             d="M 11.500037,31.436501 C 11.940474,20.09759 22.043105,11.32322 32.158766,21.979434 L 37.068811,17.246167 C 37.068811,17.246167 37.088388,32 37.088388,32 L 22.160133,31.978069 C 22.160133,31.978069 26.997745,27.140456 26.997745,27.140456 C 18.528582,18.264221 13.291696,25.230495 11.500037,31.436501 z"
             style="fill:#404040;"/>
          </a>
         </g>
        </svg>
</svg>
