<?xml version="1.0" encoding="UTF-8" standalone="no"?>
<!DOCTYPE svg PUBLIC "-//W3C//DTD SVG 1.1//EN"
 "http://www.w3.org/Graphics/SVG/1.1/DTD/svg11.dtd">
<!-- Generated by graphviz version 2.43.0 (0)
 -->
<!-- Title: JKQTMathText Pages: 1 -->
<svg width="233pt" height="160pt"
 viewBox="0.00 0.00 232.53 160.00" xmlns="http://www.w3.org/2000/svg" xmlns:xlink="http://www.w3.org/1999/xlink">
<g id="graph0" class="graph" transform="scale(1 1) rotate(0) translate(4 156)">
<title>JKQTMathText</title>
<!-- Node1 -->
<g id="node1" class="node">
<title>Node1</title>
<g id="a_node1"><a xlink:title="this class parses a mathematical markup string and can then draw the contained text/equation onto a Q...">
<polygon fill="#bfbfbf" stroke="black" points="16.53,-71.5 16.53,-92.5 115.53,-92.5 115.53,-71.5 16.53,-71.5"/>
<text text-anchor="middle" x="66.03" y="-78.9" font-family="Helvetica,sans-Serif" font-size="12.00">JKQTMathText</text>
</a>
</g>
</g>
<!-- Node3 -->
<g id="node3" class="node">
<title>Node3</title>
<g id="a_node3"><a xlink:href="class_j_k_q_t_math_text_node.html" target="_top" xlink:title="subclass representing one node in the syntax tree">
<polygon fill="none" stroke="black" points="0.53,-0.5 0.53,-21.5 131.53,-21.5 131.53,-0.5 0.53,-0.5"/>
<text text-anchor="middle" x="66.03" y="-7.9" font-family="Helvetica,sans-Serif" font-size="12.00">JKQTMathTextNode</text>
</a>
</g>
</g>
<!-- Node1&#45;&gt;Node3 -->
<g id="edge3" class="edge">
<title>Node1&#45;&gt;Node3</title>
<path fill="none" stroke="#9a32cd" stroke-dasharray="5,2" d="M17.18,-66.55C11.59,-62.98 6.63,-58.53 3.03,-53 -6.28,-38.67 10.43,-28.27 28.98,-21.53"/>
<polygon fill="#9a32cd" stroke="#9a32cd" points="15.88,-69.83 26.35,-71.48 19.2,-63.67 15.88,-69.83"/>
<text text-anchor="middle" x="51.53" y="-43.4" font-family="Helvetica,sans-Serif" font-size="12.00"> parentMathText</text>
</g>
<!-- Node2 -->
<g id="node2" class="node">
<title>Node2</title>
<g id="a_node2"><a xlink:title=" ">
<polygon fill="none" stroke="black" points="33.53,-130.5 33.53,-151.5 98.53,-151.5 98.53,-130.5 33.53,-130.5"/>
<text text-anchor="middle" x="66.03" y="-137.9" font-family="Helvetica,sans-Serif" font-size="12.00">QObject</text>
</a>
</g>
</g>
<!-- Node2&#45;&gt;Node1 -->
<g id="edge1" class="edge">
<title>Node2&#45;&gt;Node1</title>
<path fill="none" stroke="midnightblue" d="M66.03,-120.23C66.03,-110.85 66.03,-100.07 66.03,-92.53"/>
<polygon fill="midnightblue" stroke="midnightblue" points="62.53,-120.33 66.03,-130.33 69.53,-120.33 62.53,-120.33"/>
</g>
<!-- Node3&#45;&gt;Node1 -->
<g id="edge2" class="edge">
<title>Node3&#45;&gt;Node1</title>
<path fill="none" stroke="#9a32cd" stroke-dasharray="5,2" d="M93.38,-27.23C102.35,-34.34 108.91,-43.35 104.03,-53 100.11,-60.75 92.92,-66.89 85.85,-71.41"/>
<polygon fill="#9a32cd" stroke="#9a32cd" points="95.32,-24.32 85.11,-21.51 91.34,-30.08 95.32,-24.32"/>
<text text-anchor="middle" x="143.53" y="-43.4" font-family="Helvetica,sans-Serif" font-size="12.00"> parsedNode</text>
</g>
<!-- Node3&#45;&gt;Node3 -->
<g id="edge4" class="edge">
<title>Node3&#45;&gt;Node3</title>
<path fill="none" stroke="#9a32cd" stroke-dasharray="5,2" d="M142.05,-15.44C146.72,-14.39 149.53,-12.91 149.53,-11 149.53,-7.95 142.34,-5.99 131.84,-5.13"/>
<polygon fill="#9a32cd" stroke="#9a32cd" points="141.26,-12.02 131.84,-16.87 142.23,-18.95 141.26,-12.02"/>
<text text-anchor="middle" x="187.03" y="-7.9" font-family="Helvetica,sans-Serif" font-size="12.00"> parentNode</text>
</g>
</g>
</svg>
