<?xml version="1.0" encoding="UTF-8" standalone="no"?>
<!DOCTYPE svg PUBLIC "-//W3C//DTD SVG 1.1//EN"
 "http://www.w3.org/Graphics/SVG/1.1/DTD/svg11.dtd">
<!-- Generated by graphviz version 2.43.0 (0)
 -->
<!-- Title: JKQTMathTextHorizontalListNode Pages: 1 -->
<svg width="546pt" height="170pt"
 viewBox="0.00 0.00 546.00 170.00" xmlns="http://www.w3.org/2000/svg" xmlns:xlink="http://www.w3.org/1999/xlink">
<g id="graph0" class="graph" transform="scale(1 1) rotate(0) translate(4 166)">
<title>JKQTMathTextHorizontalListNode</title>
<!-- Node1 -->
<g id="Node000001" class="node">
<title>Node1</title>
<g id="a_Node000001"><a xlink:title="subclass representing a list of nodes in the syntax tree, layed out horizontally">
<polygon fill="#999999" stroke="#666666" points="368,-21 156,-21 156,0 368,0 368,-21"/>
<text text-anchor="middle" x="262" y="-7.4" font-family="Helvetica,sans-Serif" font-size="12.00">JKQTMathTextHorizontalListNode</text>
</a>
</g>
</g>
<!-- Node2 -->
<g id="Node000002" class="node">
<title>Node2</title>
<g id="a_Node000002"><a xlink:href="class_j_k_q_t_math_text_multi_child_node.html" target="_top" xlink:title="subclass representing a node in the syntax tree, that has two children">
<polygon fill="white" stroke="#666666" points="188,-85.5 0,-85.5 0,-64.5 188,-64.5 188,-85.5"/>
<text text-anchor="middle" x="94" y="-71.9" font-family="Helvetica,sans-Serif" font-size="12.00">JKQTMathTextMultiChildNode</text>
</a>
</g>
</g>
<!-- Node2&#45;&gt;Node1 -->
<g id="edge1_Node000001_Node000002" class="edge">
<title>Node2&#45;&gt;Node1</title>
<g id="a_edge1_Node000001_Node000002"><a xlink:title=" ">
<path fill="none" stroke="#63b8ff" d="M129.32,-60.86C161.34,-48.95 207.77,-31.67 236.36,-21.04"/>
<polygon fill="#63b8ff" stroke="#63b8ff" points="128.03,-57.6 119.88,-64.37 130.47,-64.16 128.03,-57.6"/>
</a>
</g>
</g>
<!-- Node3 -->
<g id="Node000003" class="node">
<title>Node3</title>
<g id="a_Node000003"><a xlink:href="class_j_k_q_t_math_text_node.html" target="_top" xlink:title="subclass representing one node in the syntax tree">
<polygon fill="white" stroke="#666666" points="192.5,-162 61.5,-162 61.5,-141 192.5,-141 192.5,-162"/>
<text text-anchor="middle" x="127" y="-148.4" font-family="Helvetica,sans-Serif" font-size="12.00">JKQTMathTextNode</text>
</a>
</g>
</g>
<!-- Node3&#45;&gt;Node2 -->
<g id="edge2_Node000002_Node000003" class="edge">
<title>Node3&#45;&gt;Node2</title>
<g id="a_edge2_Node000002_Node000003"><a xlink:title=" ">
<path fill="none" stroke="#63b8ff" d="M113.29,-132.34C111.35,-129.32 109.51,-126.14 108,-123 102.11,-110.72 98.11,-95.43 95.95,-85.69"/>
<polygon fill="#63b8ff" stroke="#63b8ff" points="110.57,-134.57 119.16,-140.78 116.32,-130.57 110.57,-134.57"/>
</a>
</g>
</g>
<!-- Node3&#45;&gt;Node3 -->
<g id="edge7_Node000003_Node000003" class="edge">
<title>Node3&#45;&gt;Node3</title>
<g id="a_edge7_Node000003_Node000003"><a xlink:title=" ">
<path fill="none" stroke="#9a32cd" stroke-dasharray="5,2" d="M203.02,-155.94C207.69,-154.89 210.5,-153.41 210.5,-151.5 210.5,-148.45 203.31,-146.49 192.81,-145.63"/>
<polygon fill="#9a32cd" stroke="#9a32cd" points="202.23,-152.52 192.81,-157.37 203.2,-159.45 202.23,-152.52"/>
</a>
</g>
<text text-anchor="middle" x="248" y="-148.4" font-family="Helvetica,sans-Serif" font-size="12.00" fill="grey"> parentNode</text>
</g>
<!-- Node4 -->
<g id="Node000004" class="node">
<title>Node4</title>
<g id="a_Node000004"><a xlink:href="class_j_k_q_t_math_text.html" target="_top" xlink:title="this class parses a mathematical markup string and can then draw the contained text/equation onto a Q...">
<polygon fill="white" stroke="#666666" points="305.5,-85.5 206.5,-85.5 206.5,-64.5 305.5,-64.5 305.5,-85.5"/>
<text text-anchor="middle" x="256" y="-71.9" font-family="Helvetica,sans-Serif" font-size="12.00">JKQTMathText</text>
</a>
</g>
</g>
<!-- Node3&#45;&gt;Node4 -->
<g id="edge5_Node000004_Node000003" class="edge">
<title>Node3&#45;&gt;Node4</title>
<g id="a_edge5_Node000004_Node000003"><a xlink:title=" ">
<path fill="none" stroke="#9a32cd" stroke-dasharray="5,2" d="M120.33,-130.89C119.12,-123.66 119.44,-115.82 124,-110 144.61,-83.69 164.65,-100.37 197,-92 204.91,-89.95 213.4,-87.69 221.41,-85.52"/>
<polygon fill="#9a32cd" stroke="#9a32cd" points="116.99,-131.95 122.88,-140.75 123.76,-130.19 116.99,-131.95"/>
</a>
</g>
<text text-anchor="middle" x="162.5" y="-113.4" font-family="Helvetica,sans-Serif" font-size="12.00" fill="grey"> parsedNode</text>
</g>
<!-- Node4&#45;&gt;Node3 -->
<g id="edge3_Node000003_Node000004" class="edge">
<title>Node4&#45;&gt;Node3</title>
<g id="a_edge3_Node000003_Node000004"><a xlink:title=" ">
<path fill="none" stroke="#9a32cd" stroke-dasharray="5,2" d="M241.06,-92.86C231.55,-102.75 218.51,-114.87 205,-123 192.33,-130.63 177.23,-136.57 163.7,-140.95"/>
<polygon fill="#9a32cd" stroke="#9a32cd" points="243.63,-95.23 247.87,-85.52 238.5,-90.47 243.63,-95.23"/>
</a>
</g>
<text text-anchor="middle" x="270.5" y="-113.4" font-family="Helvetica,sans-Serif" font-size="12.00" fill="grey"> parentMathText</text>
</g>
<!-- Node5 -->
<g id="Node000005" class="node">
<title>Node5</title>
<g id="a_Node000005"><a xlink:title=" ">
<polygon fill="white" stroke="#666666" points="371.5,-162 306.5,-162 306.5,-141 371.5,-141 371.5,-162"/>
<text text-anchor="middle" x="339" y="-148.4" font-family="Helvetica,sans-Serif" font-size="12.00">QObject</text>
</a>
</g>
</g>
<!-- Node5&#45;&gt;Node4 -->
<g id="edge4_Node000004_Node000005" class="edge">
<title>Node5&#45;&gt;Node4</title>
<g id="a_edge4_Node000004_Node000005"><a xlink:title=" ">
<path fill="none" stroke="#63b8ff" d="M335.52,-130.93C333.44,-123.7 330.16,-115.85 325,-110 315.11,-98.78 300.66,-90.87 287.54,-85.52"/>
<polygon fill="#63b8ff" stroke="#63b8ff" points="332.13,-131.81 337.77,-140.77 338.95,-130.24 332.13,-131.81"/>
</a>
</g>
</g>
<!-- Node6 -->
<g id="Node000006" class="node">
<title>Node6</title>
<g id="a_Node000006"><a xlink:title=" ">
<polygon fill="white" stroke="#666666" points="470,-162 390,-162 390,-141 470,-141 470,-162"/>
<text text-anchor="middle" x="430" y="-148.4" font-family="Helvetica,sans-Serif" font-size="12.00">std::mutex</text>
</a>
</g>
</g>
<!-- Node6&#45;&gt;Node4 -->
<g id="edge6_Node000004_Node000006" class="edge">
<title>Node6&#45;&gt;Node4</title>
<g id="a_edge6_Node000004_Node000006"><a xlink:title=" ">
<path fill="none" stroke="#9a32cd" stroke-dasharray="5,2" d="M401.17,-136.52C384.32,-128.49 362.59,-118.38 343,-110 322.57,-101.26 299.09,-92.14 281.68,-85.55"/>
<polygon fill="#9a32cd" stroke="#9a32cd" points="399.93,-139.81 410.46,-140.97 402.96,-133.5 399.93,-139.81"/>
</a>
</g>
<text text-anchor="middle" x="399.5" y="-113.4" font-family="Helvetica,sans-Serif" font-size="12.00" fill="grey"> s_mutex</text>
</g>
<!-- Node7 -->
<g id="Node000007" class="node">
<title>Node7</title>
<g id="a_Node000007"><a xlink:href="class_j_k_q_t_math_text_modify_environment_node_mix_in.html" target="_top" xlink:title="mixin extending a node that does not produce any output, but provides a function modifyEnvironment() ...">
<polygon fill="white" stroke="#666666" points="538,-92 324,-92 324,-58 538,-58 538,-92"/>
<text text-anchor="start" x="332" y="-78.4" font-family="Helvetica,sans-Serif" font-size="12.00">JKQTMathTextModifyEnvironment</text>
<text text-anchor="middle" x="431" y="-65.4" font-family="Helvetica,sans-Serif" font-size="12.00">NodeMixIn</text>
</a>
</g>
</g>
<!-- Node7&#45;&gt;Node1 -->
<g id="edge8_Node000001_Node000007" class="edge">
<title>Node7&#45;&gt;Node1</title>
<g id="a_edge8_Node000001_Node000007"><a xlink:title=" ">
<path fill="none" stroke="#63b8ff" d="M377.99,-54.4C348.02,-43.31 311.89,-29.95 288,-21.12"/>
<polygon fill="#63b8ff" stroke="#63b8ff" points="376.89,-57.72 387.48,-57.9 379.31,-51.15 376.89,-57.72"/>
</a>
</g>
</g>
</g>
</svg>
