<?xml version="1.0" encoding="UTF-8" standalone="no"?>
<!DOCTYPE svg PUBLIC "-//W3C//DTD SVG 1.1//EN"
 "http://www.w3.org/Graphics/SVG/1.1/DTD/svg11.dtd">
<!-- Generated by graphviz version 2.43.0 (0)
 -->
<!-- Title: JKQTPBarHorizontalStackableGraph Pages: 1 -->
<!--zoomable 580 -->
<svg id="main" version="1.1" xmlns="http://www.w3.org/2000/svg" xmlns:xlink="http://www.w3.org/1999/xlink" xml:space="preserve" onload="init(evt)">
<style type="text/css"><![CDATA[
.edge:hover path { stroke: red; }
.edge:hover polygon { stroke: red; fill: red; }
]]></style>
<script type="text/javascript"><![CDATA[
var edges = document.getElementsByTagName('g');
if (edges && edges.length) {
  for (var i=0;i<edges.length;i++) {
    if (edges[i].id.substr(0,4)=='edge') {
      edges[i].setAttribute('class','edge');
    }
  }
}
]]></script>
        <defs>
                <circle id="rim" cx="0" cy="0" r="7"/>
                <circle id="rim2" cx="0" cy="0" r="3.5"/>
                <g id="zoomPlus">
                        <use xlink:href="#rim" fill="#404040">
                                <set attributeName="fill" to="#808080" begin="zoomplus.mouseover" end="zoomplus.mouseout"/>
                        </use>
                        <path d="M-4,0h8M0,-4v8" fill="none" stroke="white" stroke-width="1.5" pointer-events="none"/>
                </g>
                <g id="zoomMin">
                        <use xlink:href="#rim" fill="#404040">
                                <set attributeName="fill" to="#808080" begin="zoomminus.mouseover" end="zoomminus.mouseout"/>
                        </use>
                        <path d="M-4,0h8" fill="none" stroke="white" stroke-width="1.5" pointer-events="none"/>
                </g>
                <g id="dirArrow">
                        <path fill="none" stroke="white" stroke-width="1.5" d="M0,-3.0v7 M-2.5,-0.5L0,-3.0L2.5,-0.5"/>
                </g>
               <g id="resetDef">
                       <use xlink:href="#rim2" fill="#404040">
                               <set attributeName="fill" to="#808080" begin="reset.mouseover" end="reset.mouseout"/>
                       </use>
               </g>
        </defs>

<script type="text/javascript">
var viewWidth = 3522;
var viewHeight = 580;
var sectionId = 'dynsection-1';
</script>
<script xlink:href="svgpan.js"/>
<svg id="graph" class="graph">
<g id="viewport">
<title>JKQTPBarHorizontalStackableGraph</title>
<!-- Node1 -->
<g id="node1" class="node">
<title>Node1</title>
<g id="a_node1"><a xlink:title="This implements a bar graph with bars starting at &#160;to &#160;Optionally several graphs of this type may be ...">
<polygon fill="#bfbfbf" stroke="black" points="3333,-504.14 3333,-538.14 3514,-538.14 3514,-504.14 3333,-504.14"/>
<text text-anchor="start" x="3341" y="-524.54" font-family="FreeSans" font-size="12.00">JKQTPBarHorizontalStackable</text>
<text text-anchor="middle" x="3423.5" y="-511.54" font-family="FreeSans" font-size="12.00">Graph</text>
</a>
</g>
</g>
<!-- Node1&#45;&gt;Node1 -->
<g id="edge47" class="edge">
<title>Node1&#45;&gt;Node1</title>
<path fill="none" stroke="#9a32cd" stroke-dasharray="5,2" d="M3404.59,-548.67C3407.17,-553.37 3413.47,-556.64 3423.5,-556.64 3439.95,-556.64 3446.38,-547.85 3442.78,-538.31"/>
<polygon fill="#9a32cd" stroke="#9a32cd" points="3408.08,-548.17 3404.22,-538.31 3401.08,-548.43 3408.08,-548.17"/>
<text text-anchor="middle" x="3423.5" y="-560.04" font-family="FreeSans" font-size="12.00"> stackParent</text>
</g>
<!-- Node2 -->
<g id="node2" class="node">
<title>Node2</title>
<g id="a_node2"><a xlink:href="class_j_k_q_t_p_bar_horizontal_graph.html" target="_top" xlink:title="This implements a bar graph with bars starting at &#160;to .">
<polygon fill="none" stroke="black" points="3135,-510.64 3135,-531.64 3296,-531.64 3296,-510.64 3135,-510.64"/>
<text text-anchor="middle" x="3215.5" y="-518.04" font-family="FreeSans" font-size="12.00">JKQTPBarHorizontalGraph</text>
</a>
</g>
</g>
<!-- Node2&#45;&gt;Node1 -->
<g id="edge1" class="edge">
<title>Node2&#45;&gt;Node1</title>
<path fill="none" stroke="midnightblue" d="M3306.36,-521.14C3315.13,-521.14 3324.02,-521.14 3332.79,-521.14"/>
<polygon fill="midnightblue" stroke="midnightblue" points="3306.15,-517.64 3296.14,-521.14 3306.14,-524.64 3306.15,-517.64"/>
</g>
<!-- Node3 -->
<g id="node3" class="node">
<title>Node3</title>
<g id="a_node3"><a xlink:href="class_j_k_q_t_p_bar_graph_base.html" target="_top" xlink:title="This is a base&#45;class for all bar graphs with vertical or horizontal orientation (the orientation is i...">
<polygon fill="none" stroke="black" points="2963,-510.64 2963,-531.64 3098,-531.64 3098,-510.64 2963,-510.64"/>
<text text-anchor="middle" x="3030.5" y="-518.04" font-family="FreeSans" font-size="12.00">JKQTPBarGraphBase</text>
</a>
</g>
</g>
<!-- Node3&#45;&gt;Node2 -->
<g id="edge2" class="edge">
<title>Node3&#45;&gt;Node2</title>
<path fill="none" stroke="midnightblue" d="M3108.3,-521.14C3117.09,-521.14 3126.07,-521.14 3134.89,-521.14"/>
<polygon fill="midnightblue" stroke="midnightblue" points="3108.08,-517.64 3098.08,-521.14 3108.08,-524.64 3108.08,-517.64"/>
</g>
<!-- Node4 -->
<g id="node4" class="node">
<title>Node4</title>
<g id="a_node4"><a xlink:href="class_j_k_q_t_p_x_y_baseline_graph.html" target="_top" xlink:title="This virtual JKQTPGraph descendent extends JKQTPXYGraph adds a baseline&#45;property, which is necessary,...">
<polygon fill="none" stroke="black" points="2766.5,-550.64 2766.5,-571.64 2918.5,-571.64 2918.5,-550.64 2766.5,-550.64"/>
<text text-anchor="middle" x="2842.5" y="-558.04" font-family="FreeSans" font-size="12.00">JKQTPXYBaselineGraph</text>
</a>
</g>
</g>
<!-- Node4&#45;&gt;Node3 -->
<g id="edge3" class="edge">
<title>Node4&#45;&gt;Node3</title>
<path fill="none" stroke="midnightblue" d="M2902.19,-548.52C2927.43,-543.09 2956.59,-536.82 2980.63,-531.65"/>
<polygon fill="midnightblue" stroke="midnightblue" points="2901.41,-545.1 2892.37,-550.63 2902.88,-551.95 2901.41,-545.1"/>
</g>
<!-- Node5 -->
<g id="node5" class="node">
<title>Node5</title>
<g id="a_node5"><a xlink:href="class_j_k_q_t_p_x_y_graph.html" target="_top" xlink:title="This virtual JKQTPGraph descendent may be used as base for all graphs that use at least two columns t...">
<polygon fill="none" stroke="black" points="2617,-550.64 2617,-571.64 2722,-571.64 2722,-550.64 2617,-550.64"/>
<text text-anchor="middle" x="2669.5" y="-558.04" font-family="FreeSans" font-size="12.00">JKQTPXYGraph</text>
</a>
</g>
</g>
<!-- Node5&#45;&gt;Node4 -->
<g id="edge4" class="edge">
<title>Node5&#45;&gt;Node4</title>
<path fill="none" stroke="midnightblue" d="M2732.56,-561.14C2743.5,-561.14 2755,-561.14 2766.25,-561.14"/>
<polygon fill="midnightblue" stroke="midnightblue" points="2732.27,-557.64 2722.27,-561.14 2732.27,-564.64 2732.27,-557.64"/>
</g>
<!-- Node6 -->
<g id="node6" class="node">
<title>Node6</title>
<g id="a_node6"><a xlink:href="class_j_k_q_t_p_graph.html" target="_top" xlink:title="this virtual base class of the (data&#45;column based) graphs, which are part of a JKQTPlotter plot and w...">
<polygon fill="none" stroke="black" points="2469,-550.64 2469,-571.64 2558,-571.64 2558,-550.64 2469,-550.64"/>
<text text-anchor="middle" x="2513.5" y="-558.04" font-family="FreeSans" font-size="12.00">JKQTPGraph</text>
</a>
</g>
</g>
<!-- Node6&#45;&gt;Node5 -->
<g id="edge5" class="edge">
<title>Node6&#45;&gt;Node5</title>
<path fill="none" stroke="midnightblue" d="M2568.31,-561.14C2584.03,-561.14 2601.17,-561.14 2616.76,-561.14"/>
<polygon fill="midnightblue" stroke="midnightblue" points="2568.22,-557.64 2558.22,-561.14 2568.22,-564.64 2568.22,-557.64"/>
</g>
<!-- Node7 -->
<g id="node7" class="node">
<title>Node7</title>
<g id="a_node7"><a xlink:href="class_j_k_q_t_p_plot_element.html" target="_top" xlink:title="this virtual base class of every element, which is part of a JKQTPlotter plot and may appear in its k...">
<polygon fill="none" stroke="black" points="2254,-550.64 2254,-571.64 2372,-571.64 2372,-550.64 2254,-550.64"/>
<text text-anchor="middle" x="2313" y="-558.04" font-family="FreeSans" font-size="12.00">JKQTPPlotElement</text>
</a>
</g>
</g>
<!-- Node7&#45;&gt;Node6 -->
<g id="edge6" class="edge">
<title>Node7&#45;&gt;Node6</title>
<path fill="none" stroke="midnightblue" d="M2382.56,-561.14C2411.16,-561.14 2443.53,-561.14 2468.81,-561.14"/>
<polygon fill="midnightblue" stroke="midnightblue" points="2382.22,-557.64 2372.22,-561.14 2382.22,-564.64 2382.22,-557.64"/>
</g>
<!-- Node8 -->
<g id="node8" class="node">
<title>Node8</title>
<g id="a_node8"><a xlink:title=" ">
<polygon fill="none" stroke="black" points="1414,-406.64 1414,-427.64 1476,-427.64 1476,-406.64 1414,-406.64"/>
<text text-anchor="middle" x="1445" y="-414.04" font-family="FreeSans" font-size="12.00">QObject</text>
</a>
</g>
</g>
<!-- Node8&#45;&gt;Node7 -->
<g id="edge7" class="edge">
<title>Node8&#45;&gt;Node7</title>
<path fill="none" stroke="midnightblue" d="M1486.08,-429.87C1586.97,-461.06 1860.21,-540.31 2095,-561.14 2148.66,-565.9 2210.08,-565.34 2253.85,-563.92"/>
<polygon fill="midnightblue" stroke="midnightblue" points="1486.89,-426.45 1476.3,-426.83 1484.81,-433.14 1486.89,-426.45"/>
</g>
<!-- Node9 -->
<g id="node9" class="node">
<title>Node9</title>
<g id="a_node9"><a xlink:href="class_j_k_q_t_base_plotter.html" target="_top" xlink:title="base class for 2D plotter classes (used by the plotter widget JKQTPlotter)">
<polygon fill="none" stroke="black" points="1956,-379.64 1956,-400.64 2065,-400.64 2065,-379.64 1956,-379.64"/>
<text text-anchor="middle" x="2010.5" y="-387.04" font-family="FreeSans" font-size="12.00">JKQTBasePlotter</text>
</a>
</g>
</g>
<!-- Node8&#45;&gt;Node9 -->
<g id="edge9" class="edge">
<title>Node8&#45;&gt;Node9</title>
<path fill="none" stroke="midnightblue" d="M1486.56,-415.19C1586.35,-410.41 1843.78,-398.08 1955.94,-392.7"/>
<polygon fill="midnightblue" stroke="midnightblue" points="1486.12,-411.71 1476.3,-415.69 1486.45,-418.7 1486.12,-411.71"/>
</g>
<!-- Node20 -->
<g id="node20" class="node">
<title>Node20</title>
<g id="a_node20"><a xlink:href="class_j_k_q_t_math_text.html" target="_top" xlink:title="this class parses a LaTeX string and can then draw the contained text/equation onto a QPainter">
<polygon fill="none" stroke="black" points="1711.5,-433.64 1711.5,-454.64 1809.5,-454.64 1809.5,-433.64 1711.5,-433.64"/>
<text text-anchor="middle" x="1760.5" y="-441.04" font-family="FreeSans" font-size="12.00">JKQTMathText</text>
</a>
</g>
</g>
<!-- Node8&#45;&gt;Node20 -->
<g id="edge25" class="edge">
<title>Node8&#45;&gt;Node20</title>
<path fill="none" stroke="midnightblue" d="M1486.23,-420.6C1543.8,-425.56 1649.53,-434.67 1711.24,-439.98"/>
<polygon fill="midnightblue" stroke="midnightblue" points="1486.32,-417.1 1476.06,-419.73 1485.72,-424.07 1486.32,-417.1"/>
</g>
<!-- Node25 -->
<g id="node25" class="node">
<title>Node25</title>
<g id="a_node25"><a xlink:href="class_j_k_q_t_p_coordinate_axis.html" target="_top" xlink:title="this virtual class is the base for any type of coordinate axis, to be drawn by JKQTBasePlotter.">
<polygon fill="none" stroke="black" points="2244.5,-318.64 2244.5,-339.64 2381.5,-339.64 2381.5,-318.64 2244.5,-318.64"/>
<text text-anchor="middle" x="2313" y="-326.04" font-family="FreeSans" font-size="12.00">JKQTPCoordinateAxis</text>
</a>
</g>
</g>
<!-- Node8&#45;&gt;Node25 -->
<g id="edge33" class="edge">
<title>Node8&#45;&gt;Node25</title>
<path fill="none" stroke="midnightblue" d="M1486.09,-407.61C1557.79,-391.05 1712.97,-357.36 1846,-343.14 1987.04,-328.06 2153.36,-327.07 2244.25,-327.94"/>
<polygon fill="midnightblue" stroke="midnightblue" points="1485.07,-404.26 1476.13,-409.93 1486.66,-411.07 1485.07,-404.26"/>
</g>
<!-- Node9&#45;&gt;Node7 -->
<g id="edge8" class="edge">
<title>Node9&#45;&gt;Node7</title>
<path fill="none" stroke="#9a32cd" stroke-dasharray="5,2" d="M2033.14,-407.25C2047.12,-419.2 2064.9,-436.17 2077,-454.14 2088.8,-471.66 2079.29,-484.01 2095,-498.14 2138.75,-537.49 2205.73,-552.36 2253.7,-557.92"/>
<polygon fill="#9a32cd" stroke="#9a32cd" points="2035.35,-404.53 2025.42,-400.83 2030.87,-409.91 2035.35,-404.53"/>
<text text-anchor="middle" x="2146.5" y="-550.54" font-family="FreeSans" font-size="12.00"> parent</text>
</g>
<!-- Node9&#45;&gt;Node9 -->
<g id="edge44" class="edge">
<title>Node9&#45;&gt;Node9</title>
<path fill="none" stroke="#9a32cd" stroke-dasharray="5,2" d="M1987.65,-410.56C1989.41,-415.49 1997.03,-419.14 2010.5,-419.14 2032.05,-419.14 2038.62,-409.79 2030.2,-400.85"/>
<polygon fill="#9a32cd" stroke="#9a32cd" points="1991.04,-411.44 1990.8,-400.85 1984.39,-409.28 1991.04,-411.44"/>
<text text-anchor="middle" x="2010.5" y="-435.54" font-family="FreeSans" font-size="12.00"> masterPlotterX</text>
<text text-anchor="middle" x="2010.5" y="-422.54" font-family="FreeSans" font-size="12.00">masterPlotterY</text>
</g>
<!-- Node22 -->
<g id="node22" class="node">
<title>Node22</title>
<g id="a_node22"><a xlink:href="class_j_k_q_t_p_graphs_model.html" target="_top" xlink:title="data model with all plots ina JKQTBasePlotter (+ allows to switch them visible/invisible)">
<polygon fill="none" stroke="black" points="2249,-475.64 2249,-496.64 2377,-496.64 2377,-475.64 2249,-475.64"/>
<text text-anchor="middle" x="2313" y="-483.04" font-family="FreeSans" font-size="12.00">JKQTPGraphsModel</text>
</a>
</g>
</g>
<!-- Node9&#45;&gt;Node22 -->
<g id="edge30" class="edge">
<title>Node9&#45;&gt;Node22</title>
<path fill="none" stroke="#9a32cd" stroke-dasharray="5,2" d="M2029.13,-408.14C2048.89,-427.87 2080.12,-457.62 2095,-464.14 2121.7,-475.84 2194.81,-481.43 2248.82,-484.02"/>
<polygon fill="#9a32cd" stroke="#9a32cd" points="2031.46,-405.52 2021.93,-400.88 2026.49,-410.45 2031.46,-405.52"/>
<text text-anchor="middle" x="2146.5" y="-484.54" font-family="FreeSans" font-size="12.00"> m_plotter</text>
</g>
<!-- Node9&#45;&gt;Node25 -->
<g id="edge34" class="edge">
<title>Node9&#45;&gt;Node25</title>
<path fill="none" stroke="#9a32cd" stroke-dasharray="5,2" d="M2049.98,-376.3C2064.01,-371.62 2080.09,-366.69 2095,-363.14 2144.33,-351.37 2200.98,-342.66 2244.02,-337"/>
<polygon fill="#9a32cd" stroke="#9a32cd" points="2048.51,-373.1 2040.16,-379.63 2050.76,-379.73 2048.51,-373.1"/>
<text text-anchor="middle" x="2146.5" y="-366.54" font-family="FreeSans" font-size="12.00"> parent</text>
</g>
<!-- Node10 -->
<g id="node10" class="node">
<title>Node10</title>
<g id="a_node10"><a xlink:href="class_j_k_q_t_base_plotter_style.html" target="_top" xlink:title="Support Class for JKQTBasePlotter, which summarizes all properties that define the visual styling of ...">
<polygon fill="none" stroke="black" points="1693,-284.64 1693,-305.64 1828,-305.64 1828,-284.64 1693,-284.64"/>
<text text-anchor="middle" x="1760.5" y="-292.04" font-family="FreeSans" font-size="12.00">JKQTBasePlotterStyle</text>
</a>
</g>
</g>
<!-- Node10&#45;&gt;Node9 -->
<g id="edge10" class="edge">
<title>Node10&#45;&gt;Node9</title>
<path fill="none" stroke="#9a32cd" stroke-dasharray="5,2" d="M1798.49,-309.31C1848.65,-328.52 1937.12,-362.41 1981.89,-379.56"/>
<polygon fill="#9a32cd" stroke="#9a32cd" points="1799.58,-305.98 1788.99,-305.67 1797.07,-312.51 1799.58,-305.98"/>
<text text-anchor="middle" x="1886" y="-360.54" font-family="FreeSans" font-size="12.00"> plotterStyle</text>
</g>
<!-- Node11 -->
<g id="node11" class="node">
<title>Node11</title>
<g id="a_node11"><a xlink:href="class_j_k_q_t_p_key_style.html" target="_top" xlink:title="Support Class for JKQTBasePlotter, which summarizes all properties that define the visual styling of ...">
<polygon fill="none" stroke="black" points="1393.5,-284.64 1393.5,-305.64 1496.5,-305.64 1496.5,-284.64 1393.5,-284.64"/>
<text text-anchor="middle" x="1445" y="-292.04" font-family="FreeSans" font-size="12.00">JKQTPKeyStyle</text>
</a>
</g>
</g>
<!-- Node11&#45;&gt;Node10 -->
<g id="edge11" class="edge">
<title>Node11&#45;&gt;Node10</title>
<path fill="none" stroke="#9a32cd" stroke-dasharray="5,2" d="M1506.72,-295.14C1560.09,-295.14 1637.62,-295.14 1692.73,-295.14"/>
<polygon fill="#9a32cd" stroke="#9a32cd" points="1506.72,-291.64 1496.72,-295.14 1506.72,-298.64 1506.72,-291.64"/>
<text text-anchor="middle" x="1614.5" y="-298.54" font-family="FreeSans" font-size="12.00"> keyStyle</text>
</g>
<!-- Node12 -->
<g id="node12" class="node">
<title>Node12</title>
<g id="a_node12"><a xlink:href="class_j_k_q_t_p_coordinate_axis_style.html" target="_top" xlink:title="Support Class for JKQTPCoordinateAxis, which summarizes all properties that define the visual styling...">
<polygon fill="none" stroke="black" points="1060,-175.64 1060,-196.64 1224,-196.64 1224,-175.64 1060,-175.64"/>
<text text-anchor="middle" x="1142" y="-183.04" font-family="FreeSans" font-size="12.00">JKQTPCoordinateAxisStyle</text>
</a>
</g>
</g>
<!-- Node12&#45;&gt;Node10 -->
<g id="edge12" class="edge">
<title>Node12&#45;&gt;Node10</title>
<path fill="none" stroke="#9a32cd" stroke-dasharray="5,2" d="M1234.45,-179.66C1314.69,-176.01 1434.14,-175.5 1536,-195.14 1618.65,-211.07 1707.15,-262.18 1743.01,-284.52"/>
<polygon fill="#9a32cd" stroke="#9a32cd" points="1234.19,-176.17 1224.37,-180.15 1234.53,-183.17 1234.19,-176.17"/>
<text text-anchor="middle" x="1445" y="-211.54" font-family="FreeSans" font-size="12.00"> xAxisStyle</text>
<text text-anchor="middle" x="1445" y="-198.54" font-family="FreeSans" font-size="12.00">yAxisStyle</text>
</g>
<!-- Node14 -->
<g id="node14" class="node">
<title>Node14</title>
<g id="a_node14"><a xlink:href="class_j_k_q_t_p_colorbar_coordinate_axis_style.html" target="_top" xlink:title="Support Class for JKQTPCoordinateAxis, which summarizes all properties that define the visual styling...">
<polygon fill="none" stroke="black" points="1354,-231.14 1354,-265.14 1536,-265.14 1536,-231.14 1354,-231.14"/>
<text text-anchor="start" x="1362" y="-251.54" font-family="FreeSans" font-size="12.00">JKQTPColorbarCoordinateAxis</text>
<text text-anchor="middle" x="1445" y="-238.54" font-family="FreeSans" font-size="12.00">Style</text>
</a>
</g>
</g>
<!-- Node12&#45;&gt;Node14 -->
<g id="edge15" class="edge">
<title>Node12&#45;&gt;Node14</title>
<path fill="none" stroke="midnightblue" d="M1204.04,-198.71C1249.34,-208.04 1311.63,-220.87 1361.39,-231.12"/>
<polygon fill="midnightblue" stroke="midnightblue" points="1204.56,-195.24 1194.06,-196.66 1203.15,-202.1 1204.56,-195.24"/>
</g>
<!-- Node12&#45;&gt;Node25 -->
<g id="edge35" class="edge">
<title>Node12&#45;&gt;Node25</title>
<path fill="none" stroke="#9a32cd" stroke-dasharray="5,2" d="M1195,-173.29C1254.71,-159.68 1355.8,-140.14 1444,-140.14 1444,-140.14 1444,-140.14 2011.5,-140.14 2146.47,-140.14 2270.43,-278.45 2303.44,-318.44"/>
<polygon fill="#9a32cd" stroke="#9a32cd" points="1194.02,-169.92 1185.06,-175.58 1195.59,-176.74 1194.02,-169.92"/>
<text text-anchor="middle" x="1760.5" y="-143.54" font-family="FreeSans" font-size="12.00"> axisStyle</text>
</g>
<!-- Node13 -->
<g id="node13" class="node">
<title>Node13</title>
<g id="a_node13"><a xlink:href="class_j_k_q_t_p_grid_style.html" target="_top" xlink:title="Support Class for JKQTPCoordinateAxis, and summarizes all properties that define the visual styling o...">
<polygon fill="none" stroke="black" points="783.5,-175.64 783.5,-196.64 887.5,-196.64 887.5,-175.64 783.5,-175.64"/>
<text text-anchor="middle" x="835.5" y="-183.04" font-family="FreeSans" font-size="12.00">JKQTPGridStyle</text>
</a>
</g>
</g>
<!-- Node13&#45;&gt;Node12 -->
<g id="edge13" class="edge">
<title>Node13&#45;&gt;Node12</title>
<path fill="none" stroke="#9a32cd" stroke-dasharray="5,2" d="M898.06,-186.14C944.67,-186.14 1009.11,-186.14 1059.91,-186.14"/>
<polygon fill="#9a32cd" stroke="#9a32cd" points="897.81,-182.64 887.81,-186.14 897.81,-189.64 897.81,-182.64"/>
<text text-anchor="middle" x="986.5" y="-202.54" font-family="FreeSans" font-size="12.00"> majorGridStyle</text>
<text text-anchor="middle" x="986.5" y="-189.54" font-family="FreeSans" font-size="12.00">minorGridStyle</text>
</g>
<!-- Node14&#45;&gt;Node10 -->
<g id="edge14" class="edge">
<title>Node14&#45;&gt;Node10</title>
<path fill="none" stroke="#9a32cd" stroke-dasharray="5,2" d="M1546.34,-249.79C1586.66,-251.96 1633.37,-256.37 1675,-265.14 1695.87,-269.53 1718.6,-277.82 1735.23,-284.57"/>
<polygon fill="#9a32cd" stroke="#9a32cd" points="1546.39,-246.29 1536.23,-249.29 1546.04,-253.28 1546.39,-246.29"/>
<text text-anchor="middle" x="1614.5" y="-281.54" font-family="FreeSans" font-size="12.00"> rightColorbarAxisStyle</text>
<text text-anchor="middle" x="1614.5" y="-268.54" font-family="FreeSans" font-size="12.00">topColorbarAxisStyle</text>
</g>
<!-- Node15 -->
<g id="node15" class="node">
<title>Node15</title>
<g id="a_node15"><a xlink:href="class_j_k_q_t_graphs_base_style.html" target="_top" xlink:title="Support Class for JKQTBasePlotter, which summarizes all properties that define the visual styling of ...">
<polygon fill="none" stroke="black" points="1374.5,-324.64 1374.5,-345.64 1515.5,-345.64 1515.5,-324.64 1374.5,-324.64"/>
<text text-anchor="middle" x="1445" y="-332.04" font-family="FreeSans" font-size="12.00">JKQTGraphsBaseStyle</text>
</a>
</g>
</g>
<!-- Node15&#45;&gt;Node10 -->
<g id="edge16" class="edge">
<title>Node15&#45;&gt;Node10</title>
<path fill="none" stroke="#9a32cd" stroke-dasharray="5,2" d="M1525.6,-327.11C1569.69,-322.41 1625.46,-316.05 1675,-309.14 1682.51,-308.09 1690.38,-306.9 1698.17,-305.68"/>
<polygon fill="#9a32cd" stroke="#9a32cd" points="1525.09,-323.65 1515.51,-328.18 1525.83,-330.61 1525.09,-323.65"/>
<text text-anchor="middle" x="1614.5" y="-327.54" font-family="FreeSans" font-size="12.00"> graphsStyle</text>
</g>
<!-- Node16 -->
<g id="node16" class="node">
<title>Node16</title>
<g id="a_node16"><a xlink:href="class_j_k_q_t_graphs_specific_style_properties.html" target="_top" xlink:title="Support Class for JKQTBasePlotter, which summarizes all properties that define the visual styling of ...">
<polygon fill="none" stroke="black" points="370,-324.64 370,-345.64 579,-345.64 579,-324.64 370,-324.64"/>
<text text-anchor="middle" x="474.5" y="-332.04" font-family="FreeSans" font-size="12.00">JKQTGraphsSpecificStyleProperties</text>
</a>
</g>
</g>
<!-- Node16&#45;&gt;Node15 -->
<g id="edge17" class="edge">
<title>Node16&#45;&gt;Node15</title>
<path fill="none" stroke="#9a32cd" stroke-dasharray="5,2" d="M589.21,-335.14C791.67,-335.14 1208.85,-335.14 1374.24,-335.14"/>
<polygon fill="#9a32cd" stroke="#9a32cd" points="589.15,-331.64 579.15,-335.14 589.15,-338.64 589.15,-331.64"/>
<text text-anchor="middle" x="986.5" y="-390.54" font-family="FreeSans" font-size="12.00"> barchartStyle</text>
<text text-anchor="middle" x="986.5" y="-377.54" font-family="FreeSans" font-size="12.00">boxplotStyle</text>
<text text-anchor="middle" x="986.5" y="-364.54" font-family="FreeSans" font-size="12.00">defaultGraphStyle</text>
<text text-anchor="middle" x="986.5" y="-351.54" font-family="FreeSans" font-size="12.00">filledStyle</text>
<text text-anchor="middle" x="986.5" y="-338.54" font-family="FreeSans" font-size="12.00">impulseStyle</text>
</g>
<!-- Node18 -->
<g id="node18" class="node">
<title>Node18</title>
<g id="a_node18"><a xlink:href="class_j_k_q_t_geometric_specific_style_properties.html" target="_top" xlink:title="Support Class for JKQTBasePlotter, which summarizes all properties that define the visual styling of ...">
<polygon fill="none" stroke="black" points="750,-272.14 750,-306.14 921,-306.14 921,-272.14 750,-272.14"/>
<text text-anchor="start" x="758" y="-292.54" font-family="FreeSans" font-size="12.00">JKQTGeometricSpecificStyle</text>
<text text-anchor="middle" x="835.5" y="-279.54" font-family="FreeSans" font-size="12.00">Properties</text>
</a>
</g>
</g>
<!-- Node16&#45;&gt;Node18 -->
<g id="edge20" class="edge">
<title>Node16&#45;&gt;Node18</title>
<path fill="none" stroke="midnightblue" d="M567.8,-323.31C623.91,-316.12 695.03,-307.01 749.72,-300"/>
<polygon fill="midnightblue" stroke="midnightblue" points="567.34,-319.84 557.86,-324.58 568.23,-326.79 567.34,-319.84"/>
</g>
<!-- Node17 -->
<g id="node17" class="node">
<title>Node17</title>
<g id="a_node17"><a xlink:href="struct_j_k_q_t_p_color_derivation_mode.html" target="_top" xlink:title="Specifies how a fill&#45;color is derived from a given color.">
<polygon fill="none" stroke="black" points="0,-377.64 0,-398.64 168,-398.64 168,-377.64 0,-377.64"/>
<text text-anchor="middle" x="84" y="-385.04" font-family="FreeSans" font-size="12.00">JKQTPColorDerivationMode</text>
</a>
</g>
</g>
<!-- Node17&#45;&gt;Node16 -->
<g id="edge18" class="edge">
<title>Node17&#45;&gt;Node16</title>
<path fill="none" stroke="#9a32cd" stroke-dasharray="5,2" d="M128.8,-374.68C146.42,-369.72 167.03,-364.51 186,-361.14 246.45,-350.41 314.88,-343.99 369.81,-340.22"/>
<polygon fill="#9a32cd" stroke="#9a32cd" points="127.45,-371.42 118.8,-377.55 129.38,-378.15 127.45,-371.42"/>
<text text-anchor="middle" x="269" y="-416.54" font-family="FreeSans" font-size="12.00"> errorColorDerivationMode</text>
<text text-anchor="middle" x="269" y="-403.54" font-family="FreeSans" font-size="12.00">errorFillColorDerivationMode</text>
<text text-anchor="middle" x="269" y="-390.54" font-family="FreeSans" font-size="12.00">fillColorDerivationMode</text>
<text text-anchor="middle" x="269" y="-377.54" font-family="FreeSans" font-size="12.00">graphColorDerivationMode</text>
<text text-anchor="middle" x="269" y="-364.54" font-family="FreeSans" font-size="12.00">symbolFillColorDerivationMode</text>
</g>
<!-- Node19 -->
<g id="node19" class="node">
<title>Node19</title>
<g id="a_node19"><a xlink:href="class_j_k_q_t_annotations_specific_style_properties.html" target="_top" xlink:title="Support Class for JKQTBasePlotter, which summarizes all properties that define the visual styling of ...">
<polygon fill="none" stroke="black" points="1052,-398.14 1052,-432.14 1232,-432.14 1232,-398.14 1052,-398.14"/>
<text text-anchor="start" x="1060" y="-418.54" font-family="FreeSans" font-size="12.00">JKQTAnnotationsSpecificStyle</text>
<text text-anchor="middle" x="1142" y="-405.54" font-family="FreeSans" font-size="12.00">Properties</text>
</a>
</g>
</g>
<!-- Node17&#45;&gt;Node19 -->
<g id="edge23" class="edge">
<title>Node17&#45;&gt;Node19</title>
<path fill="none" stroke="#9a32cd" stroke-dasharray="5,2" d="M115.74,-403.02C135.34,-411.66 161.56,-421.69 186,-426.14 500.03,-483.26 881.78,-448.26 1051.84,-427.38"/>
<polygon fill="#9a32cd" stroke="#9a32cd" points="116.97,-399.73 106.42,-398.79 114.08,-406.11 116.97,-399.73"/>
<text text-anchor="middle" x="664.5" y="-461.54" font-family="FreeSans" font-size="12.00"> textColorDerivationMode</text>
</g>
<!-- Node18&#45;&gt;Node15 -->
<g id="edge19" class="edge">
<title>Node18&#45;&gt;Node15</title>
<path fill="none" stroke="#9a32cd" stroke-dasharray="5,2" d="M931.19,-291.66C1011.39,-294.28 1129.38,-299.27 1232,-308.14 1278.41,-312.15 1289.79,-315.25 1336,-321.14 1348.38,-322.71 1361.55,-324.41 1374.29,-326.05"/>
<polygon fill="#9a32cd" stroke="#9a32cd" points="931.21,-288.16 921.11,-291.33 930.99,-295.15 931.21,-288.16"/>
<text text-anchor="middle" x="1142" y="-311.54" font-family="FreeSans" font-size="12.00"> geometricStyle</text>
</g>
<!-- Node18&#45;&gt;Node19 -->
<g id="edge22" class="edge">
<title>Node18&#45;&gt;Node19</title>
<path fill="none" stroke="midnightblue" d="M851.48,-314.66C868.79,-341.47 899.97,-382.31 939,-401.14 973.51,-417.79 1015.26,-422.79 1051.82,-423.06"/>
<polygon fill="midnightblue" stroke="midnightblue" points="854.43,-312.77 846.15,-306.15 848.5,-316.49 854.43,-312.77"/>
</g>
<!-- Node19&#45;&gt;Node15 -->
<g id="edge21" class="edge">
<title>Node19&#45;&gt;Node15</title>
<path fill="none" stroke="#9a32cd" stroke-dasharray="5,2" d="M1216.87,-395.5C1276.03,-379.78 1356.73,-358.33 1404.3,-345.69"/>
<polygon fill="#9a32cd" stroke="#9a32cd" points="1215.97,-392.12 1207.2,-398.07 1217.77,-398.89 1215.97,-392.12"/>
<text text-anchor="middle" x="1293" y="-388.54" font-family="FreeSans" font-size="12.00"> annotationStyle</text>
</g>
<!-- Node20&#45;&gt;Node9 -->
<g id="edge24" class="edge">
<title>Node20&#45;&gt;Node9</title>
<path fill="none" stroke="#9a32cd" stroke-dasharray="5,2" d="M1819.65,-431.48C1862.68,-422.11 1920.59,-409.5 1961.1,-400.68"/>
<polygon fill="#9a32cd" stroke="#9a32cd" points="1818.64,-428.11 1809.61,-433.66 1820.13,-434.95 1818.64,-428.11"/>
<text text-anchor="middle" x="1886" y="-428.54" font-family="FreeSans" font-size="12.00"> mathText</text>
</g>
<!-- Node21 -->
<g id="node21" class="node">
<title>Node21</title>
<g id="a_node21"><a xlink:href="class_j_k_q_t_math_text_node.html" target="_top" xlink:title="subclass representing one node in the syntax tree">
<polygon fill="none" stroke="black" points="1946.5,-463.64 1946.5,-484.64 2074.5,-484.64 2074.5,-463.64 1946.5,-463.64"/>
<text text-anchor="middle" x="2010.5" y="-471.04" font-family="FreeSans" font-size="12.00">JKQTMathTextNode</text>
</a>
</g>
</g>
<!-- Node20&#45;&gt;Node21 -->
<g id="edge27" class="edge">
<title>Node20&#45;&gt;Node21</title>
<path fill="none" stroke="#9a32cd" stroke-dasharray="5,2" d="M1786.01,-460.12C1802.29,-469.75 1824.54,-481.1 1846,-486.14 1885.35,-495.38 1931.35,-490.67 1964.52,-484.65"/>
<polygon fill="#9a32cd" stroke="#9a32cd" points="1787.52,-456.94 1777.17,-454.71 1783.87,-462.91 1787.52,-456.94"/>
<text text-anchor="middle" x="1886" y="-495.54" font-family="FreeSans" font-size="12.00"> parent</text>
</g>
<!-- Node21&#45;&gt;Node20 -->
<g id="edge26" class="edge">
<title>Node21&#45;&gt;Node20</title>
<path fill="none" stroke="#9a32cd" stroke-dasharray="5,2" d="M1939.68,-462.07C1935.06,-461.38 1930.46,-460.73 1926,-460.14 1887.03,-454.98 1842.66,-450.76 1809.83,-447.95"/>
<polygon fill="#9a32cd" stroke="#9a32cd" points="1939.41,-465.56 1949.82,-463.62 1940.47,-458.64 1939.41,-465.56"/>
<text text-anchor="middle" x="1886" y="-476.54" font-family="FreeSans" font-size="12.00"> parsedNode</text>
<text text-anchor="middle" x="1886" y="-463.54" font-family="FreeSans" font-size="12.00">unparsedNode</text>
</g>
<!-- Node22&#45;&gt;Node9 -->
<g id="edge28" class="edge">
<title>Node22&#45;&gt;Node9</title>
<path fill="none" stroke="#9a32cd" stroke-dasharray="5,2" d="M2270,-472.38C2248.56,-465.58 2222.02,-457.5 2198,-451.14 2152.66,-439.13 2139.47,-443.04 2095,-428.14 2072.65,-420.65 2048.23,-409.12 2031.61,-400.72"/>
<polygon fill="#9a32cd" stroke="#9a32cd" points="2269.17,-475.79 2279.76,-475.5 2271.3,-469.13 2269.17,-475.79"/>
<text text-anchor="middle" x="2146.5" y="-454.54" font-family="FreeSans" font-size="12.00"> m_plotsModel</text>
</g>
<!-- Node23 -->
<g id="node23" class="node">
<title>Node23</title>
<g id="a_node23"><a xlink:title=" ">
<polygon fill="none" stroke="black" points="1944,-503.64 1944,-524.64 2077,-524.64 2077,-503.64 1944,-503.64"/>
<text text-anchor="middle" x="2010.5" y="-511.04" font-family="FreeSans" font-size="12.00">QAbstractTableModel</text>
</a>
</g>
</g>
<!-- Node23&#45;&gt;Node22 -->
<g id="edge29" class="edge">
<title>Node23&#45;&gt;Node22</title>
<path fill="none" stroke="midnightblue" d="M2087.45,-509.25C2121.32,-506.86 2161.69,-503.73 2198,-500.14 2214.47,-498.51 2232.24,-496.47 2248.74,-494.45"/>
<polygon fill="midnightblue" stroke="midnightblue" points="2086.89,-505.78 2077.16,-509.97 2087.38,-512.77 2086.89,-505.78"/>
</g>
<!-- Node24 -->
<g id="node24" class="node">
<title>Node24</title>
<g id="a_node24"><a xlink:href="class_j_k_q_t_p_horizontal_axis.html" target="_top" xlink:title="implements a horizontal axis, based on JKQTPCoordinateAxis (for most of documentation: see JKQTPCoord...">
<polygon fill="none" stroke="black" points="2447,-334.64 2447,-355.64 2580,-355.64 2580,-334.64 2447,-334.64"/>
<text text-anchor="middle" x="2513.5" y="-342.04" font-family="FreeSans" font-size="12.00">JKQTPHorizontalAxis</text>
</a>
</g>
</g>
<!-- Node24&#45;&gt;Node9 -->
<g id="edge31" class="edge">
<title>Node24&#45;&gt;Node9</title>
<path fill="none" stroke="#9a32cd" stroke-dasharray="5,2" d="M2436.93,-353.09C2373.25,-359.66 2279.72,-369.04 2198,-376.14 2153.36,-380.01 2102.65,-383.78 2065.39,-386.43"/>
<polygon fill="#9a32cd" stroke="#9a32cd" points="2437.3,-356.57 2446.88,-352.06 2436.58,-349.6 2437.3,-356.57"/>
<text text-anchor="middle" x="2313" y="-378.54" font-family="FreeSans" font-size="12.00"> xAxis</text>
</g>
<!-- Node25&#45;&gt;Node24 -->
<g id="edge32" class="edge">
<title>Node25&#45;&gt;Node24</title>
<path fill="none" stroke="midnightblue" d="M2391.74,-335.4C2409.92,-336.87 2429.12,-338.42 2446.73,-339.84"/>
<polygon fill="midnightblue" stroke="midnightblue" points="2392.01,-331.91 2381.76,-334.6 2391.44,-338.89 2392.01,-331.91"/>
</g>
<!-- Node26 -->
<g id="node26" class="node">
<title>Node26</title>
<g id="a_node26"><a xlink:href="class_j_k_q_t_p_vertical_axis.html" target="_top" xlink:title="implements a vertical axis, based on JKQTPCoordinateAxis (for most of documentation: see JKQTPCoordin...">
<polygon fill="none" stroke="black" points="2454.5,-401.64 2454.5,-422.64 2572.5,-422.64 2572.5,-401.64 2454.5,-401.64"/>
<text text-anchor="middle" x="2513.5" y="-409.04" font-family="FreeSans" font-size="12.00">JKQTPVerticalAxis</text>
</a>
</g>
</g>
<!-- Node25&#45;&gt;Node26 -->
<g id="edge37" class="edge">
<title>Node25&#45;&gt;Node26</title>
<path fill="none" stroke="midnightblue" d="M2374.54,-342.34C2386.48,-345.66 2398.78,-349.59 2410,-354.14 2442.41,-367.26 2477.25,-388.73 2496.82,-401.54"/>
<polygon fill="midnightblue" stroke="midnightblue" points="2375.19,-338.89 2364.62,-339.7 2373.39,-345.66 2375.19,-338.89"/>
</g>
<!-- Node26&#45;&gt;Node9 -->
<g id="edge36" class="edge">
<title>Node26&#45;&gt;Node9</title>
<path fill="none" stroke="#9a32cd" stroke-dasharray="5,2" d="M2444.25,-413.44C2361.45,-414.38 2217.71,-413.96 2095,-403.14 2085.35,-402.29 2075.13,-401.01 2065.27,-399.59"/>
<polygon fill="#9a32cd" stroke="#9a32cd" points="2444.33,-416.94 2454.28,-413.32 2444.24,-409.94 2444.33,-416.94"/>
<text text-anchor="middle" x="2313" y="-417.54" font-family="FreeSans" font-size="12.00"> yAxis</text>
</g>
<!-- Node27 -->
<g id="node27" class="node">
<title>Node27</title>
<g id="a_node27"><a xlink:href="class_j_k_q_t_p_datastore.html" target="_top" xlink:title="This class manages data columns (with entries of type double ), used by JKQTPlotter/JKQTBasePlotter t...">
<polygon fill="none" stroke="black" points="1707,-25.64 1707,-46.64 1814,-46.64 1814,-25.64 1707,-25.64"/>
<text text-anchor="middle" x="1760.5" y="-33.04" font-family="FreeSans" font-size="12.00">JKQTPDatastore</text>
</a>
</g>
</g>
<!-- Node27&#45;&gt;Node9 -->
<g id="edge38" class="edge">
<title>Node27&#45;&gt;Node9</title>
<path fill="none" stroke="#9a32cd" stroke-dasharray="5,2" d="M1821.51,-51.52C1823.79,-52.93 1825.96,-54.46 1828,-56.14 1841.21,-67 1837.91,-75.08 1846,-90.14 1907.05,-203.79 1982.38,-340.87 2003.66,-379.53"/>
<polygon fill="#9a32cd" stroke="#9a32cd" points="1822.82,-48.25 1812.33,-46.71 1819.57,-54.45 1822.82,-48.25"/>
<text text-anchor="middle" x="1886" y="-233.54" font-family="FreeSans" font-size="12.00"> datastore</text>
</g>
<!-- Node29 -->
<g id="node29" class="node">
<title>Node29</title>
<g id="a_node29"><a xlink:href="class_j_k_q_t_p_column.html" target="_top" xlink:title="internally stores information about one data column. See JKQTPDatastore for more information.">
<polygon fill="none" stroke="black" points="1962.5,-25.64 1962.5,-46.64 2058.5,-46.64 2058.5,-25.64 1962.5,-25.64"/>
<text text-anchor="middle" x="2010.5" y="-33.04" font-family="FreeSans" font-size="12.00">JKQTPColumn</text>
</a>
</g>
</g>
<!-- Node27&#45;&gt;Node29 -->
<g id="edge41" class="edge">
<title>Node27&#45;&gt;Node29</title>
<path fill="none" stroke="#9a32cd" stroke-dasharray="5,2" d="M1824.16,-36.14C1867.13,-36.14 1923.25,-36.14 1962.42,-36.14"/>
<polygon fill="#9a32cd" stroke="#9a32cd" points="1824.09,-32.64 1814.09,-36.14 1824.09,-39.64 1824.09,-32.64"/>
<text text-anchor="middle" x="1886" y="-39.54" font-family="FreeSans" font-size="12.00"> datastore</text>
</g>
<!-- Node28 -->
<g id="node28" class="node">
<title>Node28</title>
<g id="a_node28"><a xlink:title=" ">
<polygon fill="none" stroke="black" points="2216,-25.64 2216,-46.64 2410,-46.64 2410,-25.64 2216,-25.64"/>
<text text-anchor="middle" x="2313" y="-33.04" font-family="FreeSans" font-size="12.00">std::unique_ptr&lt; JKQTPColumn &gt;</text>
</a>
</g>
</g>
<!-- Node28&#45;&gt;Node27 -->
<g id="edge39" class="edge">
<title>Node28&#45;&gt;Node27</title>
<path fill="none" stroke="#9a32cd" stroke-dasharray="5,2" d="M2249.93,-23.79C2176.77,-10.8 2051.55,6.51 1944,-3.14 1896.86,-7.37 1843.68,-17.62 1806.94,-25.58"/>
<polygon fill="#9a32cd" stroke="#9a32cd" points="2249.43,-27.25 2259.89,-25.59 2250.68,-20.36 2249.43,-27.25"/>
<text text-anchor="middle" x="2010.5" y="-6.54" font-family="FreeSans" font-size="12.00"> m_invalidColumn</text>
</g>
<!-- Node29&#45;&gt;Node28 -->
<g id="edge40" class="edge">
<title>Node29&#45;&gt;Node28</title>
<path fill="none" stroke="#9a32cd" stroke-dasharray="5,2" d="M2068.99,-36.14C2110.49,-36.14 2167.51,-36.14 2215.89,-36.14"/>
<polygon fill="#9a32cd" stroke="#9a32cd" points="2068.78,-32.64 2058.78,-36.14 2068.78,-39.64 2068.78,-32.64"/>
<text text-anchor="middle" x="2146.5" y="-39.54" font-family="FreeSans" font-size="12.00"> ptr</text>
</g>
<!-- Node30 -->
<g id="node30" class="node">
<title>Node30</title>
<g id="a_node30"><a xlink:title=" ">
<polygon fill="none" stroke="black" points="1949.5,-65.64 1949.5,-86.64 2071.5,-86.64 2071.5,-65.64 1949.5,-65.64"/>
<text text-anchor="middle" x="2010.5" y="-73.04" font-family="FreeSans" font-size="12.00">std::unique_ptr&lt; T &gt;</text>
</a>
</g>
</g>
<!-- Node30&#45;&gt;Node28 -->
<g id="edge42" class="edge">
<title>Node30&#45;&gt;Node28</title>
<path fill="none" stroke="orange" stroke-dasharray="5,2" d="M2081.69,-67.3C2116.65,-62.85 2159.57,-57.31 2198,-52.14 2210.87,-50.41 2224.56,-48.52 2237.82,-46.68"/>
<polygon fill="orange" stroke="orange" points="2081.06,-63.85 2071.58,-68.58 2081.94,-70.8 2081.06,-63.85"/>
<text text-anchor="middle" x="2146.5" y="-69.54" font-family="FreeSans" font-size="12.00"> &lt; JKQTPColumn &gt;</text>
</g>
<!-- Node31 -->
<g id="node31" class="node">
<title>Node31</title>
<g id="a_node31"><a xlink:title=" ">
<polygon fill="none" stroke="black" points="1746,-65.64 1746,-86.64 1775,-86.64 1775,-65.64 1746,-65.64"/>
<text text-anchor="middle" x="1760.5" y="-73.04" font-family="FreeSans" font-size="12.00">T</text>
</a>
</g>
</g>
<!-- Node31&#45;&gt;Node30 -->
<g id="edge43" class="edge">
<title>Node31&#45;&gt;Node30</title>
<path fill="none" stroke="#9a32cd" stroke-dasharray="5,2" d="M1785.62,-76.14C1823.18,-76.14 1896.78,-76.14 1949.34,-76.14"/>
<polygon fill="#9a32cd" stroke="#9a32cd" points="1785.19,-72.64 1775.19,-76.14 1785.19,-79.64 1785.19,-72.64"/>
<text text-anchor="middle" x="1886" y="-79.54" font-family="FreeSans" font-size="12.00"> ptr</text>
</g>
<!-- Node32 -->
<g id="node32" class="node">
<title>Node32</title>
<g id="a_node32"><a xlink:href="class_j_k_q_t_p_graph_line_style_mixin.html" target="_top" xlink:title="This Mix&#45;In class provides setter/getter methods, storage and other facilities for the graph line sty...">
<polygon fill="none" stroke="black" points="2759,-510.64 2759,-531.64 2926,-531.64 2926,-510.64 2759,-510.64"/>
<text text-anchor="middle" x="2842.5" y="-518.04" font-family="FreeSans" font-size="12.00">JKQTPGraphLineStyleMixin</text>
</a>
</g>
</g>
<!-- Node32&#45;&gt;Node3 -->
<g id="edge45" class="edge">
<title>Node32&#45;&gt;Node3</title>
<path fill="none" stroke="midnightblue" d="M2936.31,-521.14C2945.31,-521.14 2954.32,-521.14 2962.99,-521.14"/>
<polygon fill="midnightblue" stroke="midnightblue" points="2936.17,-517.64 2926.17,-521.14 2936.17,-524.64 2936.17,-517.64"/>
</g>
<!-- Node33 -->
<g id="node33" class="node">
<title>Node33</title>
<g id="a_node33"><a xlink:href="class_j_k_q_t_p_graph_fill_style_mixin.html" target="_top" xlink:title="This Mix&#45;In class provides setter/getter methods, storage and other facilities for the graph filling ...">
<polygon fill="none" stroke="black" points="2763,-470.64 2763,-491.64 2922,-491.64 2922,-470.64 2763,-470.64"/>
<text text-anchor="middle" x="2842.5" y="-478.04" font-family="FreeSans" font-size="12.00">JKQTPGraphFillStyleMixin</text>
</a>
</g>
</g>
<!-- Node33&#45;&gt;Node3 -->
<g id="edge46" class="edge">
<title>Node33&#45;&gt;Node3</title>
<path fill="none" stroke="midnightblue" d="M2902.19,-493.76C2927.43,-499.19 2956.59,-505.46 2980.63,-510.63"/>
<polygon fill="midnightblue" stroke="midnightblue" points="2902.88,-490.33 2892.37,-491.65 2901.41,-497.17 2902.88,-490.33"/>
</g>
</g>
</svg>
        <g id="navigator" transform="translate(0 0)" fill="#404254">
                <rect fill="#f2f5e9" fill-opacity="0.5" stroke="#606060" stroke-width=".5" x="0" y="0" width="60" height="60"/>
                <use id="zoomplus" xlink:href="#zoomPlus" x="17" y="9" onmousedown="handleZoom(evt,'in')"/>
                <use id="zoomminus" xlink:href="#zoomMin" x="42" y="9" onmousedown="handleZoom(evt,'out')"/>
                <use id="reset" xlink:href="#resetDef" x="30" y="36" onmousedown="handleReset()"/>
                <g id="arrowUp" xlink:href="#dirArrow" transform="translate(30 24)" onmousedown="handlePan(0,-1)">
                  <use xlink:href="#rim" fill="#404040">
                        <set attributeName="fill" to="#808080" begin="arrowUp.mouseover" end="arrowUp.mouseout"/>
                  </use>
                  <path fill="none" stroke="white" stroke-width="1.5" d="M0,-3.0v7 M-2.5,-0.5L0,-3.0L2.5,-0.5"/>
                </g>
                <g id="arrowRight" xlink:href="#dirArrow" transform="rotate(90) translate(36 -43)" onmousedown="handlePan(1,0)">
                  <use xlink:href="#rim" fill="#404040">
                        <set attributeName="fill" to="#808080" begin="arrowRight.mouseover" end="arrowRight.mouseout"/>
                  </use>
                  <path fill="none" stroke="white" stroke-width="1.5" d="M0,-3.0v7 M-2.5,-0.5L0,-3.0L2.5,-0.5"/>
                </g>
                <g id="arrowDown" xlink:href="#dirArrow" transform="rotate(180) translate(-30 -48)" onmousedown="handlePan(0,1)">
                  <use xlink:href="#rim" fill="#404040">
                        <set attributeName="fill" to="#808080" begin="arrowDown.mouseover" end="arrowDown.mouseout"/>
                  </use>
                  <path fill="none" stroke="white" stroke-width="1.5" d="M0,-3.0v7 M-2.5,-0.5L0,-3.0L2.5,-0.5"/>
                </g>
                <g id="arrowLeft" xlink:href="#dirArrow" transform="rotate(270) translate(-36 17)" onmousedown="handlePan(-1,0)">
                  <use xlink:href="#rim" fill="#404040">
                        <set attributeName="fill" to="#808080" begin="arrowLeft.mouseover" end="arrowLeft.mouseout"/>
                  </use>
                  <path fill="none" stroke="white" stroke-width="1.5" d="M0,-3.0v7 M-2.5,-0.5L0,-3.0L2.5,-0.5"/>
                </g>
        </g>
        <svg viewBox="0 0 15 15" width="100%" height="30px" preserveAspectRatio="xMaxYMin meet">
         <g id="arrow_out" transform="scale(0.3 0.3)">
          <a xlink:href="class_j_k_q_t_p_bar_horizontal_stackable_graph__coll__graph_org.svg" target="_base">
           <rect id="button" ry="5" rx="5" y="6" x="6" height="38" width="38"
                fill="#f2f5e9" fill-opacity="0.5" stroke="#606060" stroke-width="1.0"/>
           <path id="arrow"
             d="M 11.500037,31.436501 C 11.940474,20.09759 22.043105,11.32322 32.158766,21.979434 L 37.068811,17.246167 C 37.068811,17.246167 37.088388,32 37.088388,32 L 22.160133,31.978069 C 22.160133,31.978069 26.997745,27.140456 26.997745,27.140456 C 18.528582,18.264221 13.291696,25.230495 11.500037,31.436501 z"
             style="fill:#404040;"/>
          </a>
         </g>
        </svg>
</svg>
