<?xml version="1.0" encoding="UTF-8" standalone="no"?>
<!DOCTYPE svg PUBLIC "-//W3C//DTD SVG 1.1//EN"
 "http://www.w3.org/Graphics/SVG/1.1/DTD/svg11.dtd">
<!-- Generated by graphviz version 2.43.0 (0)
 -->
<!-- Title: JKQTMathTextBraceNode Pages: 1 -->
<svg width="341pt" height="114pt"
 viewBox="0.00 0.00 340.50 114.00" xmlns="http://www.w3.org/2000/svg" xmlns:xlink="http://www.w3.org/1999/xlink">
<g id="graph0" class="graph" transform="scale(1 1) rotate(0) translate(4 110)">
<title>JKQTMathTextBraceNode</title>
<!-- Node1 -->
<g id="node1" class="node">
<title>Node1</title>
<g id="a_node1"><a xlink:title="subclass representing a brace node">
<polygon fill="#bfbfbf" stroke="black" points="0,-0.5 0,-21.5 159,-21.5 159,-0.5 0,-0.5"/>
<text text-anchor="middle" x="79.5" y="-7.9" font-family="FreeSans" font-size="12.00">JKQTMathTextBraceNode</text>
</a>
</g>
</g>
<!-- Node2 -->
<g id="node2" class="node">
<title>Node2</title>
<g id="a_node2"><a xlink:href="class_j_k_q_t_math_text_node.html" target="_top" xlink:title="subclass representing one node in the syntax tree">
<polygon fill="none" stroke="black" points="56.5,-84.5 56.5,-105.5 184.5,-105.5 184.5,-84.5 56.5,-84.5"/>
<text text-anchor="middle" x="120.5" y="-91.9" font-family="FreeSans" font-size="12.00">JKQTMathTextNode</text>
</a>
</g>
</g>
<!-- Node2&#45;&gt;Node1 -->
<g id="edge1" class="edge">
<title>Node2&#45;&gt;Node1</title>
<path fill="none" stroke="midnightblue" d="M87.75,-78.69C83.24,-75.17 79.22,-70.96 76.5,-66 68.91,-52.17 72.57,-33.24 75.99,-21.85"/>
<polygon fill="midnightblue" stroke="midnightblue" points="85.98,-81.72 96.25,-84.32 89.85,-75.88 85.98,-81.72"/>
</g>
<!-- Node2&#45;&gt;Node1 -->
<g id="edge5" class="edge">
<title>Node2&#45;&gt;Node1</title>
<path fill="none" stroke="#9a32cd" stroke-dasharray="5,2" d="M103.81,-76.67C101.11,-73.3 98.54,-69.67 96.5,-66 88.49,-51.56 83.67,-32.82 81.3,-21.64"/>
<polygon fill="#9a32cd" stroke="#9a32cd" points="101.32,-79.15 110.53,-84.38 106.59,-74.54 101.32,-79.15"/>
<text text-anchor="middle" x="110.5" y="-49.9" font-family="FreeSans" font-size="12.00"> child</text>
</g>
<!-- Node3 -->
<g id="node3" class="node">
<title>Node3</title>
<g id="a_node3"><a xlink:href="class_j_k_q_t_math_text.html" target="_top" xlink:title="this class parses a LaTeX string and can then draw the contained text/equation onto a QPainter">
<polygon fill="none" stroke="black" points="200.5,-0.5 200.5,-21.5 298.5,-21.5 298.5,-0.5 200.5,-0.5"/>
<text text-anchor="middle" x="249.5" y="-7.9" font-family="FreeSans" font-size="12.00">JKQTMathText</text>
</a>
</g>
</g>
<!-- Node2&#45;&gt;Node3 -->
<g id="edge4" class="edge">
<title>Node2&#45;&gt;Node3</title>
<path fill="none" stroke="#9a32cd" stroke-dasharray="5,2" d="M124.31,-74.42C127.54,-62.85 133.34,-48.79 143.5,-40 159.19,-26.43 180.74,-19.34 200.31,-15.67"/>
<polygon fill="#9a32cd" stroke="#9a32cd" points="120.82,-73.96 121.94,-84.5 127.64,-75.57 120.82,-73.96"/>
<text text-anchor="middle" x="183.5" y="-56.4" font-family="FreeSans" font-size="12.00"> parsedNode</text>
<text text-anchor="middle" x="183.5" y="-43.4" font-family="FreeSans" font-size="12.00">unparsedNode</text>
</g>
<!-- Node3&#45;&gt;Node2 -->
<g id="edge2" class="edge">
<title>Node3&#45;&gt;Node2</title>
<path fill="none" stroke="#9a32cd" stroke-dasharray="5,2" d="M245.97,-31.97C242.94,-43.46 237.42,-57.3 227.5,-66 215.52,-76.51 200.06,-83.15 184.63,-87.32"/>
<polygon fill="#9a32cd" stroke="#9a32cd" points="249.45,-32.44 248.18,-21.92 242.62,-30.94 249.45,-32.44"/>
<text text-anchor="middle" x="261" y="-49.9" font-family="FreeSans" font-size="12.00"> parent</text>
</g>
<!-- Node4 -->
<g id="node4" class="node">
<title>Node4</title>
<g id="a_node4"><a xlink:title=" ">
<polygon fill="none" stroke="black" points="270.5,-84.5 270.5,-105.5 332.5,-105.5 332.5,-84.5 270.5,-84.5"/>
<text text-anchor="middle" x="301.5" y="-91.9" font-family="FreeSans" font-size="12.00">QObject</text>
</a>
</g>
</g>
<!-- Node4&#45;&gt;Node3 -->
<g id="edge3" class="edge">
<title>Node4&#45;&gt;Node3</title>
<path fill="none" stroke="midnightblue" d="M299.63,-74.23C297.84,-63.38 294.35,-50.12 287.5,-40 282.45,-32.53 274.72,-26.31 267.55,-21.65"/>
<polygon fill="midnightblue" stroke="midnightblue" points="296.2,-74.96 300.94,-84.43 303.14,-74.06 296.2,-74.96"/>
</g>
</g>
</svg>
