<?xml version="1.0" encoding="UTF-8" standalone="no"?>
<!DOCTYPE svg PUBLIC "-//W3C//DTD SVG 1.1//EN"
 "http://www.w3.org/Graphics/SVG/1.1/DTD/svg11.dtd">
<!-- Generated by graphviz version 2.43.0 (0)
 -->
<!-- Title: JKQTMathTextTextNode Pages: 1 -->
<svg width="374pt" height="114pt"
 viewBox="0.00 0.00 374.00 114.00" xmlns="http://www.w3.org/2000/svg" xmlns:xlink="http://www.w3.org/1999/xlink">
<g id="graph0" class="graph" transform="scale(1 1) rotate(0) translate(4 110)">
<title>JKQTMathTextTextNode</title>
<!-- Node1 -->
<g id="node1" class="node">
<title>Node1</title>
<g id="a_node1"><a xlink:title="subclass representing one text node in the syntax tree">
<polygon fill="#bfbfbf" stroke="black" points="0,-0.5 0,-21.5 155,-21.5 155,-0.5 0,-0.5"/>
<text text-anchor="middle" x="77.5" y="-7.9" font-family="Helvetica,sans-Serif" font-size="12.00">JKQTMathTextTextNode</text>
</a>
</g>
</g>
<!-- Node2 -->
<g id="node2" class="node">
<title>Node2</title>
<g id="a_node2"><a xlink:href="class_j_k_q_t_math_text_node.html" target="_top" xlink:title="subclass representing one node in the syntax tree">
<polygon fill="none" stroke="black" points="45,-84.5 45,-105.5 176,-105.5 176,-84.5 45,-84.5"/>
<text text-anchor="middle" x="110.5" y="-91.9" font-family="Helvetica,sans-Serif" font-size="12.00">JKQTMathTextNode</text>
</a>
</g>
</g>
<!-- Node2&#45;&gt;Node1 -->
<g id="edge1" class="edge">
<title>Node2&#45;&gt;Node1</title>
<path fill="none" stroke="midnightblue" d="M96.98,-75.99C94.95,-72.77 93.02,-69.37 91.5,-66 84.79,-51.18 80.86,-32.55 78.95,-21.5"/>
<polygon fill="midnightblue" stroke="midnightblue" points="94.21,-78.13 102.76,-84.38 99.97,-74.16 94.21,-78.13"/>
</g>
<!-- Node2&#45;&gt;Node2 -->
<g id="edge5" class="edge">
<title>Node2&#45;&gt;Node2</title>
<path fill="none" stroke="#9a32cd" stroke-dasharray="5,2" d="M186.17,-100.58C191.05,-99.28 194,-97.42 194,-95 194,-91.23 186.81,-88.81 176.31,-87.75"/>
<polygon fill="#9a32cd" stroke="#9a32cd" points="185.58,-97.13 176.31,-102.25 186.75,-104.03 185.58,-97.13"/>
<text text-anchor="middle" x="231.5" y="-91.9" font-family="Helvetica,sans-Serif" font-size="12.00"> parentNode</text>
</g>
<!-- Node3 -->
<g id="node3" class="node">
<title>Node3</title>
<g id="a_node3"><a xlink:href="class_j_k_q_t_math_text.html" target="_top" xlink:title="this class parses a LaTeX string and can then draw the contained text/equation onto a QPainter">
<polygon fill="none" stroke="black" points="173,-0.5 173,-21.5 272,-21.5 272,-0.5 173,-0.5"/>
<text text-anchor="middle" x="222.5" y="-7.9" font-family="Helvetica,sans-Serif" font-size="12.00">JKQTMathText</text>
</a>
</g>
</g>
<!-- Node2&#45;&gt;Node3 -->
<g id="edge4" class="edge">
<title>Node2&#45;&gt;Node3</title>
<path fill="none" stroke="#9a32cd" stroke-dasharray="5,2" d="M103.58,-74.7C100.85,-63.45 99.94,-49.62 107.5,-40 111.8,-34.53 143.77,-27 172.91,-21.13"/>
<polygon fill="#9a32cd" stroke="#9a32cd" points="100.29,-75.91 106.52,-84.48 106.99,-73.89 100.29,-75.91"/>
<text text-anchor="middle" x="151.5" y="-56.4" font-family="Helvetica,sans-Serif" font-size="12.00"> parsedNode</text>
<text text-anchor="middle" x="151.5" y="-43.4" font-family="Helvetica,sans-Serif" font-size="12.00">unparsedNode</text>
</g>
<!-- Node3&#45;&gt;Node2 -->
<g id="edge2" class="edge">
<title>Node3&#45;&gt;Node2</title>
<path fill="none" stroke="#9a32cd" stroke-dasharray="5,2" d="M218.43,-31.81C215.12,-43.24 209.34,-57.08 199.5,-66 190.26,-74.38 178.53,-80.25 166.64,-84.36"/>
<polygon fill="#9a32cd" stroke="#9a32cd" points="221.89,-32.37 220.89,-21.82 215.1,-30.7 221.89,-32.37"/>
<text text-anchor="middle" x="263" y="-49.9" font-family="Helvetica,sans-Serif" font-size="12.00"> parentMathText</text>
</g>
<!-- Node4 -->
<g id="node4" class="node">
<title>Node4</title>
<g id="a_node4"><a xlink:title=" ">
<polygon fill="none" stroke="black" points="301,-84.5 301,-105.5 366,-105.5 366,-84.5 301,-84.5"/>
<text text-anchor="middle" x="333.5" y="-91.9" font-family="Helvetica,sans-Serif" font-size="12.00">QObject</text>
</a>
</g>
</g>
<!-- Node4&#45;&gt;Node3 -->
<g id="edge3" class="edge">
<title>Node4&#45;&gt;Node3</title>
<path fill="none" stroke="midnightblue" d="M333.01,-73.93C331.7,-62.6 328.21,-48.95 319.5,-40 307.03,-27.19 289.1,-20.14 272.04,-16.3"/>
<polygon fill="midnightblue" stroke="midnightblue" points="329.55,-74.49 333.72,-84.23 336.53,-74.01 329.55,-74.49"/>
</g>
</g>
</svg>
