<?xml version="1.0" encoding="UTF-8" standalone="no"?>
<!DOCTYPE svg PUBLIC "-//W3C//DTD SVG 1.1//EN"
 "http://www.w3.org/Graphics/SVG/1.1/DTD/svg11.dtd">
<!-- Generated by graphviz version 2.43.0 (0)
 -->
<!-- Title: JKQTPColumnMathImage Pages: 1 -->
<!--zoomable 519 -->
<svg id="main" version="1.1" xmlns="http://www.w3.org/2000/svg" xmlns:xlink="http://www.w3.org/1999/xlink" xml:space="preserve" onload="init(evt)">
<style type="text/css"><![CDATA[
.edge:hover path { stroke: red; }
.edge:hover polygon { stroke: red; fill: red; }
]]></style>
<script type="text/javascript"><![CDATA[
var edges = document.getElementsByTagName('g');
if (edges && edges.length) {
  for (var i=0;i<edges.length;i++) {
    if (edges[i].id.substr(0,4)=='edge') {
      edges[i].setAttribute('class','edge');
    }
  }
}
]]></script>
        <defs>
                <circle id="rim" cx="0" cy="0" r="7"/>
                <circle id="rim2" cx="0" cy="0" r="3.5"/>
                <g id="zoomPlus">
                        <use xlink:href="#rim" fill="#404040">
                                <set attributeName="fill" to="#808080" begin="zoomplus.mouseover" end="zoomplus.mouseout"/>
                        </use>
                        <path d="M-4,0h8M0,-4v8" fill="none" stroke="white" stroke-width="1.5" pointer-events="none"/>
                </g>
                <g id="zoomMin">
                        <use xlink:href="#rim" fill="#404040">
                                <set attributeName="fill" to="#808080" begin="zoomminus.mouseover" end="zoomminus.mouseout"/>
                        </use>
                        <path d="M-4,0h8" fill="none" stroke="white" stroke-width="1.5" pointer-events="none"/>
                </g>
                <g id="dirArrow">
                        <path fill="none" stroke="white" stroke-width="1.5" d="M0,-3.0v7 M-2.5,-0.5L0,-3.0L2.5,-0.5"/>
                </g>
               <g id="resetDef">
                       <use xlink:href="#rim2" fill="#404040">
                               <set attributeName="fill" to="#808080" begin="reset.mouseover" end="reset.mouseout"/>
                       </use>
               </g>
        </defs>

<script type="text/javascript">
var viewWidth = 3838;
var viewHeight = 519;
var sectionId = 'dynsection-1';
</script>
<script xlink:href="svgpan.js"/>
<svg id="graph" class="graph">
<g id="viewport">
<title>JKQTPColumnMathImage</title>
<!-- Node1 -->
<g id="node1" class="node">
<title>Node1</title>
<g id="a_node1"><a xlink:title="class to plot an image from an 2&#45;dimensional array of values stored in a column of the datastore">
<polygon fill="#bfbfbf" stroke="black" points="3674,-290.5 3674,-311.5 3830,-311.5 3830,-290.5 3674,-290.5"/>
<text text-anchor="middle" x="3752" y="-297.9" font-family="FreeSans" font-size="12.00">JKQTPColumnMathImage</text>
</a>
</g>
</g>
<!-- Node2 -->
<g id="node2" class="node">
<title>Node2</title>
<g id="a_node2"><a xlink:href="class_j_k_q_t_p_math_image.html" target="_top" xlink:title="class to plot an image from an 2&#45;dimensional array of values">
<polygon fill="none" stroke="black" points="3521,-290.5 3521,-311.5 3637,-311.5 3637,-290.5 3521,-290.5"/>
<text text-anchor="middle" x="3579" y="-297.9" font-family="FreeSans" font-size="12.00">JKQTPMathImage</text>
</a>
</g>
</g>
<!-- Node2&#45;&gt;Node1 -->
<g id="edge1" class="edge">
<title>Node2&#45;&gt;Node1</title>
<path fill="none" stroke="midnightblue" d="M3647.49,-301C3656.19,-301 3665.15,-301 3673.99,-301"/>
<polygon fill="midnightblue" stroke="midnightblue" points="3647.42,-297.5 3637.42,-301 3647.42,-304.5 3647.42,-297.5"/>
</g>
<!-- Node3 -->
<g id="node3" class="node">
<title>Node3</title>
<g id="a_node3"><a xlink:href="class_j_k_q_t_p_math_image_base.html" target="_top" xlink:title="base class to hold an image from an 2&#45;dimensional array of values">
<polygon fill="none" stroke="black" points="3137,-264.5 3137,-285.5 3280,-285.5 3280,-264.5 3137,-264.5"/>
<text text-anchor="middle" x="3208.5" y="-271.9" font-family="FreeSans" font-size="12.00">JKQTPMathImageBase</text>
</a>
</g>
</g>
<!-- Node3&#45;&gt;Node2 -->
<g id="edge2" class="edge">
<title>Node3&#45;&gt;Node2</title>
<path fill="none" stroke="midnightblue" d="M3290.19,-280.69C3359.96,-285.62 3459.09,-292.61 3520.91,-296.97"/>
<polygon fill="midnightblue" stroke="midnightblue" points="3290.34,-277.19 3280.11,-279.98 3289.84,-284.18 3290.34,-277.19"/>
</g>
<!-- Node4 -->
<g id="node4" class="node">
<title>Node4</title>
<g id="a_node4"><a xlink:href="class_j_k_q_t_p_image_base.html" target="_top" xlink:title="base class for plotting an image">
<polygon fill="none" stroke="black" points="2659,-264.5 2659,-285.5 2775,-285.5 2775,-264.5 2659,-264.5"/>
<text text-anchor="middle" x="2717" y="-271.9" font-family="FreeSans" font-size="12.00">JKQTPImageBase</text>
</a>
</g>
</g>
<!-- Node4&#45;&gt;Node3 -->
<g id="edge3" class="edge">
<title>Node4&#45;&gt;Node3</title>
<path fill="none" stroke="midnightblue" d="M2785.18,-275C2877.52,-275 3042.88,-275 3136.95,-275"/>
<polygon fill="midnightblue" stroke="midnightblue" points="2785.11,-271.5 2775.11,-275 2785.11,-278.5 2785.11,-271.5"/>
</g>
<!-- Node5 -->
<g id="node5" class="node">
<title>Node5</title>
<g id="a_node5"><a xlink:href="class_j_k_q_t_p_graph.html" target="_top" xlink:title="this virtual base class of the (data&#45;column based) graphs, which are part of a JKQTPlotter plot and w...">
<polygon fill="none" stroke="black" points="2469,-284.5 2469,-305.5 2558,-305.5 2558,-284.5 2469,-284.5"/>
<text text-anchor="middle" x="2513.5" y="-291.9" font-family="FreeSans" font-size="12.00">JKQTPGraph</text>
</a>
</g>
</g>
<!-- Node5&#45;&gt;Node4 -->
<g id="edge4" class="edge">
<title>Node5&#45;&gt;Node4</title>
<path fill="none" stroke="midnightblue" d="M2568.23,-289.67C2596.24,-286.89 2630.49,-283.49 2658.96,-280.66"/>
<polygon fill="midnightblue" stroke="midnightblue" points="2567.83,-286.19 2558.22,-290.66 2568.52,-293.16 2567.83,-286.19"/>
</g>
<!-- Node6 -->
<g id="node6" class="node">
<title>Node6</title>
<g id="a_node6"><a xlink:href="class_j_k_q_t_p_plot_element.html" target="_top" xlink:title="this virtual base class of every element, which is part of a JKQTPlotter plot and may appear in its k...">
<polygon fill="none" stroke="black" points="2254,-303.5 2254,-324.5 2372,-324.5 2372,-303.5 2254,-303.5"/>
<text text-anchor="middle" x="2313" y="-310.9" font-family="FreeSans" font-size="12.00">JKQTPPlotElement</text>
</a>
</g>
</g>
<!-- Node6&#45;&gt;Node5 -->
<g id="edge5" class="edge">
<title>Node6&#45;&gt;Node5</title>
<path fill="none" stroke="midnightblue" d="M2382.18,-307.47C2410.88,-304.73 2443.42,-301.61 2468.81,-299.18"/>
<polygon fill="midnightblue" stroke="midnightblue" points="2381.84,-303.99 2372.22,-308.43 2382.5,-310.96 2381.84,-303.99"/>
</g>
<!-- Node7 -->
<g id="node7" class="node">
<title>Node7</title>
<g id="a_node7"><a xlink:title=" ">
<polygon fill="none" stroke="black" points="1414,-382.5 1414,-403.5 1476,-403.5 1476,-382.5 1414,-382.5"/>
<text text-anchor="middle" x="1445" y="-389.9" font-family="FreeSans" font-size="12.00">QObject</text>
</a>
</g>
</g>
<!-- Node7&#45;&gt;Node6 -->
<g id="edge6" class="edge">
<title>Node7&#45;&gt;Node6</title>
<path fill="none" stroke="midnightblue" d="M1486.24,-400.65C1506.49,-404.17 1531.46,-407.99 1554,-410 1615.55,-415.48 1631.22,-411.73 1693,-413 1917.45,-417.62 2021.71,-540.99 2198,-402 2220.2,-384.5 2195.89,-360.86 2216,-341 2226.23,-330.9 2239.91,-324.52 2253.74,-320.49"/>
<polygon fill="midnightblue" stroke="midnightblue" points="1486.58,-397.16 1476.12,-398.86 1485.36,-404.05 1486.58,-397.16"/>
</g>
<!-- Node8 -->
<g id="node8" class="node">
<title>Node8</title>
<g id="a_node8"><a xlink:href="class_j_k_q_t_base_plotter.html" target="_top" xlink:title="base class for 2D plotter classes (used by the plotter widget JKQTPlotter)">
<polygon fill="none" stroke="black" points="1956,-257.5 1956,-278.5 2065,-278.5 2065,-257.5 1956,-257.5"/>
<text text-anchor="middle" x="2010.5" y="-264.9" font-family="FreeSans" font-size="12.00">JKQTBasePlotter</text>
</a>
</g>
</g>
<!-- Node7&#45;&gt;Node8 -->
<g id="edge8" class="edge">
<title>Node7&#45;&gt;Node8</title>
<path fill="none" stroke="midnightblue" d="M1486.03,-381.15C1506.35,-375.23 1531.44,-368.06 1554,-362 1683.2,-327.32 1714.54,-313.79 1846,-289 1882.42,-282.13 1923.83,-276.84 1955.87,-273.29"/>
<polygon fill="midnightblue" stroke="midnightblue" points="1484.8,-377.87 1476.18,-384.03 1486.76,-384.59 1484.8,-377.87"/>
</g>
<!-- Node19 -->
<g id="node19" class="node">
<title>Node19</title>
<g id="a_node19"><a xlink:href="class_j_k_q_t_math_text.html" target="_top" xlink:title="this class parses a LaTeX string and can then draw the contained text/equation onto a QPainter">
<polygon fill="none" stroke="black" points="1711.5,-344.5 1711.5,-365.5 1809.5,-365.5 1809.5,-344.5 1711.5,-344.5"/>
<text text-anchor="middle" x="1760.5" y="-351.9" font-family="FreeSans" font-size="12.00">JKQTMathText</text>
</a>
</g>
</g>
<!-- Node7&#45;&gt;Node19 -->
<g id="edge24" class="edge">
<title>Node7&#45;&gt;Node19</title>
<path fill="none" stroke="midnightblue" d="M1486.23,-388.12C1543.8,-381.15 1649.53,-368.33 1711.24,-360.85"/>
<polygon fill="midnightblue" stroke="midnightblue" points="1485.57,-384.68 1476.06,-389.36 1486.41,-391.63 1485.57,-384.68"/>
</g>
<!-- Node24 -->
<g id="node24" class="node">
<title>Node24</title>
<g id="a_node24"><a xlink:href="class_j_k_q_t_p_coordinate_axis.html" target="_top" xlink:title="this virtual class is the base for any type of coordinate axis, to be drawn by JKQTBasePlotter.">
<polygon fill="none" stroke="black" points="2244.5,-400.5 2244.5,-421.5 2381.5,-421.5 2381.5,-400.5 2244.5,-400.5"/>
<text text-anchor="middle" x="2313" y="-407.9" font-family="FreeSans" font-size="12.00">JKQTPCoordinateAxis</text>
</a>
</g>
</g>
<!-- Node7&#45;&gt;Node24 -->
<g id="edge32" class="edge">
<title>Node7&#45;&gt;Node24</title>
<path fill="none" stroke="midnightblue" d="M1486.11,-393.83C1622.99,-396.68 2072.68,-406.03 2244.47,-409.6"/>
<polygon fill="midnightblue" stroke="midnightblue" points="1486.13,-390.33 1476.06,-393.62 1485.99,-397.33 1486.13,-390.33"/>
</g>
<!-- Node8&#45;&gt;Node6 -->
<g id="edge7" class="edge">
<title>Node8&#45;&gt;Node6</title>
<path fill="none" stroke="#9a32cd" stroke-dasharray="5,2" d="M2066.88,-280.62C2076.24,-282.56 2085.88,-284.43 2095,-286 2148.53,-295.21 2209.97,-302.86 2253.78,-307.83"/>
<polygon fill="#9a32cd" stroke="#9a32cd" points="2067.38,-277.15 2056.87,-278.5 2065.93,-284 2067.38,-277.15"/>
<text text-anchor="middle" x="2146.5" y="-303.4" font-family="FreeSans" font-size="12.00"> parent</text>
</g>
<!-- Node8&#45;&gt;Node8 -->
<g id="edge43" class="edge">
<title>Node8&#45;&gt;Node8</title>
<path fill="none" stroke="#9a32cd" stroke-dasharray="5,2" d="M1987.65,-288.43C1989.41,-293.35 1997.03,-297 2010.5,-297 2032.05,-297 2038.62,-287.65 2030.2,-278.71"/>
<polygon fill="#9a32cd" stroke="#9a32cd" points="1991.04,-289.3 1990.8,-278.71 1984.39,-287.14 1991.04,-289.3"/>
<text text-anchor="middle" x="2010.5" y="-313.4" font-family="FreeSans" font-size="12.00"> masterPlotterX</text>
<text text-anchor="middle" x="2010.5" y="-300.4" font-family="FreeSans" font-size="12.00">masterPlotterY</text>
</g>
<!-- Node21 -->
<g id="node21" class="node">
<title>Node21</title>
<g id="a_node21"><a xlink:href="class_j_k_q_t_p_graphs_model.html" target="_top" xlink:title="data model with all plots ina JKQTBasePlotter (+ allows to switch them visible/invisible)">
<polygon fill="none" stroke="black" points="2249,-162.5 2249,-183.5 2377,-183.5 2377,-162.5 2249,-162.5"/>
<text text-anchor="middle" x="2313" y="-169.9" font-family="FreeSans" font-size="12.00">JKQTPGraphsModel</text>
</a>
</g>
</g>
<!-- Node8&#45;&gt;Node21 -->
<g id="edge29" class="edge">
<title>Node8&#45;&gt;Node21</title>
<path fill="none" stroke="#9a32cd" stroke-dasharray="5,2" d="M2021.67,-248.1C2034.92,-224.63 2060.54,-186.81 2095,-171 2151.16,-145.24 2224.42,-153.31 2269.83,-162.43"/>
<polygon fill="#9a32cd" stroke="#9a32cd" points="2018.44,-246.72 2016.75,-257.18 2024.59,-250.05 2018.44,-246.72"/>
<text text-anchor="middle" x="2146.5" y="-174.4" font-family="FreeSans" font-size="12.00"> m_plotter</text>
</g>
<!-- Node8&#45;&gt;Node24 -->
<g id="edge33" class="edge">
<title>Node8&#45;&gt;Node24</title>
<path fill="none" stroke="#9a32cd" stroke-dasharray="5,2" d="M2027.56,-286.3C2040.85,-301.46 2060.2,-323.59 2077,-343 2085.04,-352.3 2084.44,-357.7 2095,-364 2096.82,-365.09 2198.99,-386.96 2262.47,-400.47"/>
<polygon fill="#9a32cd" stroke="#9a32cd" points="2030.08,-283.86 2020.86,-278.65 2024.82,-288.48 2030.08,-283.86"/>
<text text-anchor="middle" x="2146.5" y="-388.4" font-family="FreeSans" font-size="12.00"> parent</text>
</g>
<!-- Node32 -->
<g id="node32" class="node">
<title>Node32</title>
<g id="a_node32"><a xlink:href="class_j_k_q_t_p_color_palette_style_and_tools_mixin.html" target="_top" xlink:title="if a class is derived from this class, it may use color bars">
<polygon fill="none" stroke="black" points="2952,-343 2952,-377 3119,-377 3119,-343 2952,-343"/>
<text text-anchor="start" x="2960" y="-363.4" font-family="FreeSans" font-size="12.00">JKQTPColorPaletteStyleAnd</text>
<text text-anchor="middle" x="3035.5" y="-350.4" font-family="FreeSans" font-size="12.00">ToolsMixin</text>
</a>
</g>
</g>
<!-- Node8&#45;&gt;Node32 -->
<g id="edge46" class="edge">
<title>Node8&#45;&gt;Node32</title>
<path fill="none" stroke="#9a32cd" stroke-dasharray="5,2" d="M2075.35,-257.54C2156.91,-245.1 2302.55,-226 2428,-226 2428,-226 2428,-226 2718,-226 2833.3,-226 2846.07,-292.47 2952,-338 2956.09,-339.76 2960.35,-341.4 2964.69,-342.94"/>
<polygon fill="#9a32cd" stroke="#9a32cd" points="2074.59,-254.11 2065.24,-259.09 2075.66,-261.03 2074.59,-254.11"/>
<text text-anchor="middle" x="2513.5" y="-229.4" font-family="FreeSans" font-size="12.00"> cbParent</text>
</g>
<!-- Node9 -->
<g id="node9" class="node">
<title>Node9</title>
<g id="a_node9"><a xlink:href="class_j_k_q_t_base_plotter_style.html" target="_top" xlink:title="Support Class for JKQTBasePlotter, which summarizes all properties that define the visual styling of ...">
<polygon fill="none" stroke="black" points="1693,-196.5 1693,-217.5 1828,-217.5 1828,-196.5 1693,-196.5"/>
<text text-anchor="middle" x="1760.5" y="-203.9" font-family="FreeSans" font-size="12.00">JKQTBasePlotterStyle</text>
</a>
</g>
</g>
<!-- Node9&#45;&gt;Node8 -->
<g id="edge9" class="edge">
<title>Node9&#45;&gt;Node8</title>
<path fill="none" stroke="#9a32cd" stroke-dasharray="5,2" d="M1829.95,-219.42C1859.65,-225.25 1894.72,-232.74 1926,-241 1943.97,-245.75 1963.78,-252.1 1979.59,-257.45"/>
<polygon fill="#9a32cd" stroke="#9a32cd" points="1830.58,-215.97 1820.1,-217.5 1829.25,-222.85 1830.58,-215.97"/>
<text text-anchor="middle" x="1886" y="-244.4" font-family="FreeSans" font-size="12.00"> plotterStyle</text>
</g>
<!-- Node10 -->
<g id="node10" class="node">
<title>Node10</title>
<g id="a_node10"><a xlink:href="class_j_k_q_t_p_key_style.html" target="_top" xlink:title="Support Class for JKQTBasePlotter, which summarizes all properties that define the visual styling of ...">
<polygon fill="none" stroke="black" points="1393.5,-251.5 1393.5,-272.5 1496.5,-272.5 1496.5,-251.5 1393.5,-251.5"/>
<text text-anchor="middle" x="1445" y="-258.9" font-family="FreeSans" font-size="12.00">JKQTPKeyStyle</text>
</a>
</g>
</g>
<!-- Node10&#45;&gt;Node9 -->
<g id="edge10" class="edge">
<title>Node10&#45;&gt;Node9</title>
<path fill="none" stroke="#9a32cd" stroke-dasharray="5,2" d="M1506.71,-249.89C1522.12,-246.9 1538.66,-243.76 1554,-241 1600.27,-232.68 1652.54,-224.04 1692.78,-217.55"/>
<polygon fill="#9a32cd" stroke="#9a32cd" points="1505.91,-246.47 1496.77,-251.82 1507.25,-253.35 1505.91,-246.47"/>
<text text-anchor="middle" x="1614.5" y="-244.4" font-family="FreeSans" font-size="12.00"> keyStyle</text>
</g>
<!-- Node11 -->
<g id="node11" class="node">
<title>Node11</title>
<g id="a_node11"><a xlink:href="class_j_k_q_t_p_coordinate_axis_style.html" target="_top" xlink:title="Support Class for JKQTPCoordinateAxis, which summarizes all properties that define the visual styling...">
<polygon fill="none" stroke="black" points="1060,-200.5 1060,-221.5 1224,-221.5 1224,-200.5 1060,-200.5"/>
<text text-anchor="middle" x="1142" y="-207.9" font-family="FreeSans" font-size="12.00">JKQTPCoordinateAxisStyle</text>
</a>
</g>
</g>
<!-- Node11&#45;&gt;Node9 -->
<g id="edge11" class="edge">
<title>Node11&#45;&gt;Node9</title>
<path fill="none" stroke="#9a32cd" stroke-dasharray="5,2" d="M1234.57,-210.41C1359.91,-209.59 1581.95,-208.15 1692.74,-207.43"/>
<polygon fill="#9a32cd" stroke="#9a32cd" points="1234.21,-206.91 1224.23,-210.47 1234.25,-213.91 1234.21,-206.91"/>
<text text-anchor="middle" x="1445" y="-225.4" font-family="FreeSans" font-size="12.00"> xAxisStyle</text>
<text text-anchor="middle" x="1445" y="-212.4" font-family="FreeSans" font-size="12.00">yAxisStyle</text>
</g>
<!-- Node13 -->
<g id="node13" class="node">
<title>Node13</title>
<g id="a_node13"><a xlink:href="class_j_k_q_t_p_colorbar_coordinate_axis_style.html" target="_top" xlink:title="Support Class for JKQTPCoordinateAxis, which summarizes all properties that define the visual styling...">
<polygon fill="none" stroke="black" points="1354,-136 1354,-170 1536,-170 1536,-136 1354,-136"/>
<text text-anchor="start" x="1362" y="-156.4" font-family="FreeSans" font-size="12.00">JKQTPColorbarCoordinateAxis</text>
<text text-anchor="middle" x="1445" y="-143.4" font-family="FreeSans" font-size="12.00">Style</text>
</a>
</g>
</g>
<!-- Node11&#45;&gt;Node13 -->
<g id="edge14" class="edge">
<title>Node11&#45;&gt;Node13</title>
<path fill="none" stroke="midnightblue" d="M1207.34,-198.6C1250.58,-190.27 1308.13,-179.18 1355.65,-170.02"/>
<polygon fill="midnightblue" stroke="midnightblue" points="1206.67,-195.17 1197.51,-200.5 1207.99,-202.04 1206.67,-195.17"/>
</g>
<!-- Node11&#45;&gt;Node24 -->
<g id="edge34" class="edge">
<title>Node11&#45;&gt;Node24</title>
<path fill="none" stroke="#9a32cd" stroke-dasharray="5,2" d="M1151.74,-230.73C1181.97,-295.57 1288.76,-498 1444,-498 1444,-498 1444,-498 2011.5,-498 2120.13,-498 2242.43,-444.9 2290.75,-421.67"/>
<polygon fill="#9a32cd" stroke="#9a32cd" points="1154.89,-229.2 1147.55,-221.55 1148.53,-232.11 1154.89,-229.2"/>
<text text-anchor="middle" x="1760.5" y="-501.4" font-family="FreeSans" font-size="12.00"> axisStyle</text>
</g>
<!-- Node12 -->
<g id="node12" class="node">
<title>Node12</title>
<g id="a_node12"><a xlink:href="class_j_k_q_t_p_grid_style.html" target="_top" xlink:title="Support Class for JKQTPCoordinateAxis, and summarizes all properties that define the visual styling o...">
<polygon fill="none" stroke="black" points="783.5,-203.5 783.5,-224.5 887.5,-224.5 887.5,-203.5 783.5,-203.5"/>
<text text-anchor="middle" x="835.5" y="-210.9" font-family="FreeSans" font-size="12.00">JKQTPGridStyle</text>
</a>
</g>
</g>
<!-- Node12&#45;&gt;Node11 -->
<g id="edge12" class="edge">
<title>Node12&#45;&gt;Node11</title>
<path fill="none" stroke="#9a32cd" stroke-dasharray="5,2" d="M898.06,-213.39C944.67,-212.93 1009.11,-212.3 1059.91,-211.8"/>
<polygon fill="#9a32cd" stroke="#9a32cd" points="897.77,-209.9 887.81,-213.49 897.84,-216.9 897.77,-209.9"/>
<text text-anchor="middle" x="986.5" y="-228.4" font-family="FreeSans" font-size="12.00"> majorGridStyle</text>
<text text-anchor="middle" x="986.5" y="-215.4" font-family="FreeSans" font-size="12.00">minorGridStyle</text>
</g>
<!-- Node13&#45;&gt;Node9 -->
<g id="edge13" class="edge">
<title>Node13&#45;&gt;Node9</title>
<path fill="none" stroke="#9a32cd" stroke-dasharray="5,2" d="M1546.28,-150.92C1586.8,-152.19 1633.66,-156.37 1675,-167 1699.52,-173.3 1725.54,-186.78 1742.12,-196.34"/>
<polygon fill="#9a32cd" stroke="#9a32cd" points="1546.22,-147.42 1536.13,-150.66 1546.03,-154.41 1546.22,-147.42"/>
<text text-anchor="middle" x="1614.5" y="-183.4" font-family="FreeSans" font-size="12.00"> rightColorbarAxisStyle</text>
<text text-anchor="middle" x="1614.5" y="-170.4" font-family="FreeSans" font-size="12.00">topColorbarAxisStyle</text>
</g>
<!-- Node14 -->
<g id="node14" class="node">
<title>Node14</title>
<g id="a_node14"><a xlink:href="class_j_k_q_t_graphs_base_style.html" target="_top" xlink:title="Support Class for JKQTBasePlotter, which summarizes all properties that define the visual styling of ...">
<polygon fill="none" stroke="black" points="1374.5,-88.5 1374.5,-109.5 1515.5,-109.5 1515.5,-88.5 1374.5,-88.5"/>
<text text-anchor="middle" x="1445" y="-95.9" font-family="FreeSans" font-size="12.00">JKQTGraphsBaseStyle</text>
</a>
</g>
</g>
<!-- Node14&#45;&gt;Node9 -->
<g id="edge15" class="edge">
<title>Node14&#45;&gt;Node9</title>
<path fill="none" stroke="#9a32cd" stroke-dasharray="5,2" d="M1525.87,-100.36C1571.36,-103.75 1628.4,-112.51 1675,-134 1707.39,-148.94 1736.87,-180.11 1750.89,-196.47"/>
<polygon fill="#9a32cd" stroke="#9a32cd" points="1525.96,-96.86 1515.75,-99.68 1525.5,-103.85 1525.96,-96.86"/>
<text text-anchor="middle" x="1614.5" y="-137.4" font-family="FreeSans" font-size="12.00"> graphsStyle</text>
</g>
<!-- Node15 -->
<g id="node15" class="node">
<title>Node15</title>
<g id="a_node15"><a xlink:href="class_j_k_q_t_graphs_specific_style_properties.html" target="_top" xlink:title="Support Class for JKQTBasePlotter, which summarizes all properties that define the visual styling of ...">
<polygon fill="none" stroke="black" points="370,-68.5 370,-89.5 579,-89.5 579,-68.5 370,-68.5"/>
<text text-anchor="middle" x="474.5" y="-75.9" font-family="FreeSans" font-size="12.00">JKQTGraphsSpecificStyleProperties</text>
</a>
</g>
</g>
<!-- Node15&#45;&gt;Node14 -->
<g id="edge16" class="edge">
<title>Node15&#45;&gt;Node14</title>
<path fill="none" stroke="#9a32cd" stroke-dasharray="5,2" d="M569.18,-90.67C622.16,-96.65 689.67,-103.24 750,-106 1010.17,-117.9 1075.78,-118.82 1336,-108 1348.41,-107.48 1361.6,-106.64 1374.34,-105.66"/>
<polygon fill="#9a32cd" stroke="#9a32cd" points="569.46,-87.18 559.13,-89.52 568.67,-94.13 569.46,-87.18"/>
<text text-anchor="middle" x="986.5" y="-170.4" font-family="FreeSans" font-size="12.00"> barchartStyle</text>
<text text-anchor="middle" x="986.5" y="-157.4" font-family="FreeSans" font-size="12.00">boxplotStyle</text>
<text text-anchor="middle" x="986.5" y="-144.4" font-family="FreeSans" font-size="12.00">defaultGraphStyle</text>
<text text-anchor="middle" x="986.5" y="-131.4" font-family="FreeSans" font-size="12.00">filledStyle</text>
<text text-anchor="middle" x="986.5" y="-118.4" font-family="FreeSans" font-size="12.00">impulseStyle</text>
</g>
<!-- Node17 -->
<g id="node17" class="node">
<title>Node17</title>
<g id="a_node17"><a xlink:href="class_j_k_q_t_geometric_specific_style_properties.html" target="_top" xlink:title="Support Class for JKQTBasePlotter, which summarizes all properties that define the visual styling of ...">
<polygon fill="none" stroke="black" points="750,-62 750,-96 921,-96 921,-62 750,-62"/>
<text text-anchor="start" x="758" y="-82.4" font-family="FreeSans" font-size="12.00">JKQTGeometricSpecificStyle</text>
<text text-anchor="middle" x="835.5" y="-69.4" font-family="FreeSans" font-size="12.00">Properties</text>
</a>
</g>
</g>
<!-- Node15&#45;&gt;Node17 -->
<g id="edge19" class="edge">
<title>Node15&#45;&gt;Node17</title>
<path fill="none" stroke="midnightblue" d="M589.62,-79C641.61,-79 702.08,-79 749.92,-79"/>
<polygon fill="midnightblue" stroke="midnightblue" points="589.34,-75.5 579.34,-79 589.34,-82.5 589.34,-75.5"/>
</g>
<!-- Node16 -->
<g id="node16" class="node">
<title>Node16</title>
<g id="a_node16"><a xlink:href="struct_j_k_q_t_p_color_derivation_mode.html" target="_top" xlink:title="Specifies how a fill&#45;color is derived from a given color.">
<polygon fill="none" stroke="black" points="0,-37.5 0,-58.5 168,-58.5 168,-37.5 0,-37.5"/>
<text text-anchor="middle" x="84" y="-44.9" font-family="FreeSans" font-size="12.00">JKQTPColorDerivationMode</text>
</a>
</g>
</g>
<!-- Node16&#45;&gt;Node15 -->
<g id="edge17" class="edge">
<title>Node16&#45;&gt;Node15</title>
<path fill="none" stroke="#9a32cd" stroke-dasharray="5,2" d="M178.55,-55.47C236.27,-60.07 310.37,-65.98 369.86,-70.73"/>
<polygon fill="#9a32cd" stroke="#9a32cd" points="178.59,-51.96 168.34,-54.65 178.03,-58.93 178.59,-51.96"/>
<text text-anchor="middle" x="269" y="-123.4" font-family="FreeSans" font-size="12.00"> errorColorDerivationMode</text>
<text text-anchor="middle" x="269" y="-110.4" font-family="FreeSans" font-size="12.00">errorFillColorDerivationMode</text>
<text text-anchor="middle" x="269" y="-97.4" font-family="FreeSans" font-size="12.00">fillColorDerivationMode</text>
<text text-anchor="middle" x="269" y="-84.4" font-family="FreeSans" font-size="12.00">graphColorDerivationMode</text>
<text text-anchor="middle" x="269" y="-71.4" font-family="FreeSans" font-size="12.00">symbolFillColorDerivationMode</text>
</g>
<!-- Node18 -->
<g id="node18" class="node">
<title>Node18</title>
<g id="a_node18"><a xlink:href="class_j_k_q_t_annotations_specific_style_properties.html" target="_top" xlink:title="Support Class for JKQTBasePlotter, which summarizes all properties that define the visual styling of ...">
<polygon fill="none" stroke="black" points="1052,-14 1052,-48 1232,-48 1232,-14 1052,-14"/>
<text text-anchor="start" x="1060" y="-34.4" font-family="FreeSans" font-size="12.00">JKQTAnnotationsSpecificStyle</text>
<text text-anchor="middle" x="1142" y="-21.4" font-family="FreeSans" font-size="12.00">Properties</text>
</a>
</g>
</g>
<!-- Node16&#45;&gt;Node18 -->
<g id="edge22" class="edge">
<title>Node16&#45;&gt;Node18</title>
<path fill="none" stroke="#9a32cd" stroke-dasharray="5,2" d="M178.58,-46.49C380.4,-43.24 854.29,-35.62 1051.96,-32.43"/>
<polygon fill="#9a32cd" stroke="#9a32cd" points="178.25,-43 168.3,-46.66 178.36,-50 178.25,-43"/>
<text text-anchor="middle" x="664.5" y="-42.4" font-family="FreeSans" font-size="12.00"> textColorDerivationMode</text>
</g>
<!-- Node17&#45;&gt;Node14 -->
<g id="edge18" class="edge">
<title>Node17&#45;&gt;Node14</title>
<path fill="none" stroke="#9a32cd" stroke-dasharray="5,2" d="M931.44,-82.13C1054.3,-86.17 1265.48,-93.12 1374.45,-96.71"/>
<polygon fill="#9a32cd" stroke="#9a32cd" points="931.4,-78.62 921.29,-81.79 931.17,-85.62 931.4,-78.62"/>
<text text-anchor="middle" x="1142" y="-94.4" font-family="FreeSans" font-size="12.00"> geometricStyle</text>
</g>
<!-- Node17&#45;&gt;Node18 -->
<g id="edge21" class="edge">
<title>Node17&#45;&gt;Node18</title>
<path fill="none" stroke="midnightblue" d="M931.48,-64.03C969.91,-57.97 1014.04,-51.01 1051.85,-45.05"/>
<polygon fill="midnightblue" stroke="midnightblue" points="930.65,-60.61 921.32,-65.63 931.74,-67.53 930.65,-60.61"/>
</g>
<!-- Node18&#45;&gt;Node14 -->
<g id="edge20" class="edge">
<title>Node18&#45;&gt;Node14</title>
<path fill="none" stroke="#9a32cd" stroke-dasharray="5,2" d="M1242.37,-40.58C1272.7,-44.66 1305.97,-50.3 1336,-58 1366.11,-65.72 1399.35,-79.12 1420.89,-88.49"/>
<polygon fill="#9a32cd" stroke="#9a32cd" points="1242.57,-37.08 1232.21,-39.25 1241.67,-44.02 1242.57,-37.08"/>
<text text-anchor="middle" x="1293" y="-61.4" font-family="FreeSans" font-size="12.00"> annotationStyle</text>
</g>
<!-- Node19&#45;&gt;Node8 -->
<g id="edge23" class="edge">
<title>Node19&#45;&gt;Node8</title>
<path fill="none" stroke="#9a32cd" stroke-dasharray="5,2" d="M1794.95,-340.38C1810.37,-333.84 1828.99,-326.21 1846,-320 1889.23,-304.21 1939.83,-288.54 1973.16,-278.59"/>
<polygon fill="#9a32cd" stroke="#9a32cd" points="1793.14,-337.34 1785.33,-344.5 1795.9,-343.78 1793.14,-337.34"/>
<text text-anchor="middle" x="1886" y="-323.4" font-family="FreeSans" font-size="12.00"> mathText</text>
</g>
<!-- Node20 -->
<g id="node20" class="node">
<title>Node20</title>
<g id="a_node20"><a xlink:href="class_j_k_q_t_math_text_node.html" target="_top" xlink:title="subclass representing one node in the syntax tree">
<polygon fill="none" stroke="black" points="1946.5,-352.5 1946.5,-373.5 2074.5,-373.5 2074.5,-352.5 1946.5,-352.5"/>
<text text-anchor="middle" x="2010.5" y="-359.9" font-family="FreeSans" font-size="12.00">JKQTMathTextNode</text>
</a>
</g>
</g>
<!-- Node19&#45;&gt;Node20 -->
<g id="edge26" class="edge">
<title>Node19&#45;&gt;Node20</title>
<path fill="none" stroke="#9a32cd" stroke-dasharray="5,2" d="M1819.79,-343.3C1851.31,-338.59 1890.87,-335.25 1926,-340 1943.88,-342.42 1963.35,-347.62 1978.98,-352.47"/>
<polygon fill="#9a32cd" stroke="#9a32cd" points="1819.18,-339.86 1809.85,-344.88 1820.28,-346.77 1819.18,-339.86"/>
<text text-anchor="middle" x="1886" y="-343.4" font-family="FreeSans" font-size="12.00"> parent</text>
</g>
<!-- Node20&#45;&gt;Node19 -->
<g id="edge25" class="edge">
<title>Node20&#45;&gt;Node19</title>
<path fill="none" stroke="#9a32cd" stroke-dasharray="5,2" d="M1936.29,-360.64C1895.39,-359.32 1845.58,-357.71 1809.61,-356.55"/>
<polygon fill="#9a32cd" stroke="#9a32cd" points="1936.38,-364.14 1946.49,-360.97 1936.6,-357.15 1936.38,-364.14"/>
<text text-anchor="middle" x="1886" y="-376.4" font-family="FreeSans" font-size="12.00"> parsedNode</text>
<text text-anchor="middle" x="1886" y="-363.4" font-family="FreeSans" font-size="12.00">unparsedNode</text>
</g>
<!-- Node21&#45;&gt;Node8 -->
<g id="edge27" class="edge">
<title>Node21&#45;&gt;Node8</title>
<path fill="none" stroke="#9a32cd" stroke-dasharray="5,2" d="M2238.84,-182.01C2186.35,-189.12 2120.55,-199.56 2095,-210 2066.73,-221.55 2038.54,-243.98 2023.23,-257.31"/>
<polygon fill="#9a32cd" stroke="#9a32cd" points="2239.37,-185.47 2248.81,-180.67 2238.44,-178.53 2239.37,-185.47"/>
<text text-anchor="middle" x="2146.5" y="-213.4" font-family="FreeSans" font-size="12.00"> m_plotsModel</text>
</g>
<!-- Node22 -->
<g id="node22" class="node">
<title>Node22</title>
<g id="a_node22"><a xlink:title=" ">
<polygon fill="none" stroke="black" points="1944,-129.5 1944,-150.5 2077,-150.5 2077,-129.5 1944,-129.5"/>
<text text-anchor="middle" x="2010.5" y="-136.9" font-family="FreeSans" font-size="12.00">QAbstractTableModel</text>
</a>
</g>
</g>
<!-- Node22&#45;&gt;Node21 -->
<g id="edge28" class="edge">
<title>Node22&#45;&gt;Node21</title>
<path fill="none" stroke="midnightblue" d="M2087.53,-144.15C2121.42,-146.4 2161.77,-149.63 2198,-154 2216.63,-156.25 2236.85,-159.39 2255.03,-162.47"/>
<polygon fill="midnightblue" stroke="midnightblue" points="2087.44,-140.64 2077.24,-143.48 2086.99,-147.62 2087.44,-140.64"/>
</g>
<!-- Node23 -->
<g id="node23" class="node">
<title>Node23</title>
<g id="a_node23"><a xlink:href="class_j_k_q_t_p_horizontal_axis.html" target="_top" xlink:title="implements a horizontal axis, based on JKQTPCoordinateAxis (for most of documentation: see JKQTPCoord...">
<polygon fill="none" stroke="black" points="2447,-380.5 2447,-401.5 2580,-401.5 2580,-380.5 2447,-380.5"/>
<text text-anchor="middle" x="2513.5" y="-387.9" font-family="FreeSans" font-size="12.00">JKQTPHorizontalAxis</text>
</a>
</g>
</g>
<!-- Node23&#45;&gt;Node8 -->
<g id="edge30" class="edge">
<title>Node23&#45;&gt;Node8</title>
<path fill="none" stroke="#9a32cd" stroke-dasharray="5,2" d="M2436.67,-380.84C2333.96,-366.53 2156.41,-339.63 2095,-317 2068.98,-307.41 2041.81,-289.83 2025.79,-278.54"/>
<polygon fill="#9a32cd" stroke="#9a32cd" points="2436.28,-384.32 2446.67,-382.23 2437.25,-377.39 2436.28,-384.32"/>
<text text-anchor="middle" x="2313" y="-380.4" font-family="FreeSans" font-size="12.00"> xAxis</text>
</g>
<!-- Node34 -->
<g id="node34" class="node">
<title>Node34</title>
<g id="a_node34"><a xlink:href="class_j_k_q_t_p_horizontal_independent_axis.html" target="_top" xlink:title="implements a position&#45;indipendent horizontal axis, based on JKQTPCoordinateAxis (for most of document...">
<polygon fill="none" stroke="black" points="2617,-380.5 2617,-401.5 2817,-401.5 2817,-380.5 2617,-380.5"/>
<text text-anchor="middle" x="2717" y="-387.9" font-family="FreeSans" font-size="12.00">JKQTPHorizontalIndependentAxis</text>
</a>
</g>
</g>
<!-- Node23&#45;&gt;Node34 -->
<g id="edge50" class="edge">
<title>Node23&#45;&gt;Node34</title>
<path fill="none" stroke="midnightblue" d="M2590.24,-391C2598.91,-391 2607.84,-391 2616.76,-391"/>
<polygon fill="midnightblue" stroke="midnightblue" points="2590.2,-387.5 2580.2,-391 2590.2,-394.5 2590.2,-387.5"/>
</g>
<!-- Node24&#45;&gt;Node23 -->
<g id="edge31" class="edge">
<title>Node24&#45;&gt;Node23</title>
<path fill="none" stroke="midnightblue" d="M2391.74,-403.17C2409.92,-401.34 2429.12,-399.4 2446.73,-397.63"/>
<polygon fill="midnightblue" stroke="midnightblue" points="2391.36,-399.69 2381.76,-404.17 2392.06,-406.65 2391.36,-399.69"/>
</g>
<!-- Node25 -->
<g id="node25" class="node">
<title>Node25</title>
<g id="a_node25"><a xlink:href="class_j_k_q_t_p_vertical_axis.html" target="_top" xlink:title="implements a vertical axis, based on JKQTPCoordinateAxis (for most of documentation: see JKQTPCoordin...">
<polygon fill="none" stroke="black" points="2454.5,-329.5 2454.5,-350.5 2572.5,-350.5 2572.5,-329.5 2454.5,-329.5"/>
<text text-anchor="middle" x="2513.5" y="-336.9" font-family="FreeSans" font-size="12.00">JKQTPVerticalAxis</text>
</a>
</g>
</g>
<!-- Node24&#45;&gt;Node25 -->
<g id="edge36" class="edge">
<title>Node24&#45;&gt;Node25</title>
<path fill="none" stroke="midnightblue" d="M2354.87,-397.19C2371.94,-391.36 2391.96,-384.44 2410,-378 2435.38,-368.93 2464.14,-358.23 2484.72,-350.5"/>
<polygon fill="midnightblue" stroke="midnightblue" points="2353.53,-393.95 2345.19,-400.49 2355.79,-400.58 2353.53,-393.95"/>
</g>
<!-- Node25&#45;&gt;Node8 -->
<g id="edge35" class="edge">
<title>Node25&#45;&gt;Node8</title>
<path fill="none" stroke="#9a32cd" stroke-dasharray="5,2" d="M2467.92,-325.61C2460.7,-322.55 2453.48,-319.01 2447,-315 2428.01,-303.25 2430.67,-289.45 2410,-281 2349.13,-256.13 2159.1,-261.01 2065.17,-265.19"/>
<polygon fill="#9a32cd" stroke="#9a32cd" points="2467.1,-329.05 2477.69,-329.49 2469.68,-322.55 2467.1,-329.05"/>
<text text-anchor="middle" x="2313" y="-284.4" font-family="FreeSans" font-size="12.00"> yAxis</text>
</g>
<!-- Node33 -->
<g id="node33" class="node">
<title>Node33</title>
<g id="a_node33"><a xlink:href="class_j_k_q_t_p_vertical_independent_axis.html" target="_top" xlink:title="implements a position&#45;indipendent vertical axis, based on JKQTPCoordinateAxis (for most of documentat...">
<polygon fill="none" stroke="black" points="2624.5,-329.5 2624.5,-350.5 2809.5,-350.5 2809.5,-329.5 2624.5,-329.5"/>
<text text-anchor="middle" x="2717" y="-336.9" font-family="FreeSans" font-size="12.00">JKQTPVerticalIndependentAxis</text>
</a>
</g>
</g>
<!-- Node25&#45;&gt;Node33 -->
<g id="edge48" class="edge">
<title>Node25&#45;&gt;Node33</title>
<path fill="none" stroke="midnightblue" d="M2582.56,-340C2595.95,-340 2610.21,-340 2624.23,-340"/>
<polygon fill="midnightblue" stroke="midnightblue" points="2582.51,-336.5 2572.51,-340 2582.51,-343.5 2582.51,-336.5"/>
</g>
<!-- Node26 -->
<g id="node26" class="node">
<title>Node26</title>
<g id="a_node26"><a xlink:href="class_j_k_q_t_p_datastore.html" target="_top" xlink:title="This class manages data columns (with entries of type double ), used by JKQTPlotter/JKQTBasePlotter t...">
<polygon fill="none" stroke="black" points="1707,-89.5 1707,-110.5 1814,-110.5 1814,-89.5 1707,-89.5"/>
<text text-anchor="middle" x="1760.5" y="-96.9" font-family="FreeSans" font-size="12.00">JKQTPDatastore</text>
</a>
</g>
</g>
<!-- Node26&#45;&gt;Node8 -->
<g id="edge37" class="edge">
<title>Node26&#45;&gt;Node8</title>
<path fill="none" stroke="#9a32cd" stroke-dasharray="5,2" d="M1787.58,-116.06C1820.32,-136.39 1878,-172.77 1926,-206 1951.09,-223.37 1979.44,-244.83 1995.82,-257.4"/>
<polygon fill="#9a32cd" stroke="#9a32cd" points="1789.38,-113.06 1779.04,-110.77 1785.7,-119.01 1789.38,-113.06"/>
<text text-anchor="middle" x="1886" y="-209.4" font-family="FreeSans" font-size="12.00"> datastore</text>
</g>
<!-- Node28 -->
<g id="node28" class="node">
<title>Node28</title>
<g id="a_node28"><a xlink:href="class_j_k_q_t_p_column.html" target="_top" xlink:title="internally stores information about one data column. See JKQTPDatastore for more information.">
<polygon fill="none" stroke="black" points="1962.5,-89.5 1962.5,-110.5 2058.5,-110.5 2058.5,-89.5 1962.5,-89.5"/>
<text text-anchor="middle" x="2010.5" y="-96.9" font-family="FreeSans" font-size="12.00">JKQTPColumn</text>
</a>
</g>
</g>
<!-- Node26&#45;&gt;Node28 -->
<g id="edge40" class="edge">
<title>Node26&#45;&gt;Node28</title>
<path fill="none" stroke="#9a32cd" stroke-dasharray="5,2" d="M1824.16,-100C1867.13,-100 1923.25,-100 1962.42,-100"/>
<polygon fill="#9a32cd" stroke="#9a32cd" points="1824.09,-96.5 1814.09,-100 1824.09,-103.5 1824.09,-96.5"/>
<text text-anchor="middle" x="1886" y="-103.4" font-family="FreeSans" font-size="12.00"> datastore</text>
</g>
<!-- Node27 -->
<g id="node27" class="node">
<title>Node27</title>
<g id="a_node27"><a xlink:title=" ">
<polygon fill="none" stroke="black" points="2216,-47.5 2216,-68.5 2410,-68.5 2410,-47.5 2216,-47.5"/>
<text text-anchor="middle" x="2313" y="-54.9" font-family="FreeSans" font-size="12.00">std::unique_ptr&lt; JKQTPColumn &gt;</text>
</a>
</g>
</g>
<!-- Node27&#45;&gt;Node26 -->
<g id="edge38" class="edge">
<title>Node27&#45;&gt;Node26</title>
<path fill="none" stroke="#9a32cd" stroke-dasharray="5,2" d="M2205.46,-56.27C2131.83,-56.13 2031.74,-58.05 1944,-67 1897.55,-71.74 1845.17,-81.7 1808.48,-89.44"/>
<polygon fill="#9a32cd" stroke="#9a32cd" points="2205.65,-59.77 2215.66,-56.3 2205.68,-52.77 2205.65,-59.77"/>
<text text-anchor="middle" x="2010.5" y="-70.4" font-family="FreeSans" font-size="12.00"> m_invalidColumn</text>
</g>
<!-- Node28&#45;&gt;Node27 -->
<g id="edge39" class="edge">
<title>Node28&#45;&gt;Node27</title>
<path fill="none" stroke="#9a32cd" stroke-dasharray="5,2" d="M2068.92,-91.97C2116.55,-85.32 2184.63,-75.8 2236.63,-68.53"/>
<polygon fill="#9a32cd" stroke="#9a32cd" points="2068.2,-88.54 2058.78,-93.39 2069.17,-95.47 2068.2,-88.54"/>
<text text-anchor="middle" x="2146.5" y="-90.4" font-family="FreeSans" font-size="12.00"> ptr</text>
</g>
<!-- Node29 -->
<g id="node29" class="node">
<title>Node29</title>
<g id="a_node29"><a xlink:title=" ">
<polygon fill="none" stroke="black" points="1949.5,-0.5 1949.5,-21.5 2071.5,-21.5 2071.5,-0.5 1949.5,-0.5"/>
<text text-anchor="middle" x="2010.5" y="-7.9" font-family="FreeSans" font-size="12.00">std::unique_ptr&lt; T &gt;</text>
</a>
</g>
</g>
<!-- Node29&#45;&gt;Node27 -->
<g id="edge41" class="edge">
<title>Node29&#45;&gt;Node27</title>
<path fill="none" stroke="orange" stroke-dasharray="5,2" d="M2081.95,-16.45C2116.98,-19.69 2159.88,-24.47 2198,-31 2223.16,-35.31 2251.05,-41.88 2272.94,-47.47"/>
<polygon fill="orange" stroke="orange" points="2082.09,-12.95 2071.82,-15.53 2081.46,-19.92 2082.09,-12.95"/>
<text text-anchor="middle" x="2146.5" y="-34.4" font-family="FreeSans" font-size="12.00"> &lt; JKQTPColumn &gt;</text>
</g>
<!-- Node30 -->
<g id="node30" class="node">
<title>Node30</title>
<g id="a_node30"><a xlink:title=" ">
<polygon fill="none" stroke="black" points="1746,-0.5 1746,-21.5 1775,-21.5 1775,-0.5 1746,-0.5"/>
<text text-anchor="middle" x="1760.5" y="-7.9" font-family="FreeSans" font-size="12.00">T</text>
</a>
</g>
</g>
<!-- Node30&#45;&gt;Node29 -->
<g id="edge42" class="edge">
<title>Node30&#45;&gt;Node29</title>
<path fill="none" stroke="#9a32cd" stroke-dasharray="5,2" d="M1785.62,-11C1823.18,-11 1896.78,-11 1949.34,-11"/>
<polygon fill="#9a32cd" stroke="#9a32cd" points="1785.19,-7.5 1775.19,-11 1785.19,-14.5 1785.19,-7.5"/>
<text text-anchor="middle" x="1886" y="-14.4" font-family="FreeSans" font-size="12.00"> ptr</text>
</g>
<!-- Node31 -->
<g id="node31" class="node">
<title>Node31</title>
<g id="a_node31"><a xlink:href="class_j_k_q_t_p_color_palette_with_modifier_style_and_tools_mixin.html" target="_top" xlink:title="if a class is derived from this class, it may use color bars that have 2 axes (one &quot;data&quot;/color axis ...">
<polygon fill="none" stroke="black" points="3298,-324 3298,-358 3484,-358 3484,-324 3298,-324"/>
<text text-anchor="start" x="3306" y="-344.4" font-family="FreeSans" font-size="12.00">JKQTPColorPaletteWithModifier</text>
<text text-anchor="middle" x="3391" y="-331.4" font-family="FreeSans" font-size="12.00">StyleAndToolsMixin</text>
</a>
</g>
</g>
<!-- Node31&#45;&gt;Node2 -->
<g id="edge44" class="edge">
<title>Node31&#45;&gt;Node2</title>
<path fill="none" stroke="midnightblue" d="M3481.35,-321.78C3497.8,-318.25 3514.4,-314.68 3529.09,-311.52"/>
<polygon fill="midnightblue" stroke="midnightblue" points="3480.19,-318.45 3471.15,-323.98 3481.66,-325.3 3480.19,-318.45"/>
</g>
<!-- Node32&#45;&gt;Node31 -->
<g id="edge45" class="edge">
<title>Node32&#45;&gt;Node31</title>
<path fill="none" stroke="midnightblue" d="M3129.59,-355C3181.49,-352.21 3245.91,-348.74 3297.69,-345.96"/>
<polygon fill="midnightblue" stroke="midnightblue" points="3129.18,-351.51 3119.38,-355.55 3129.55,-358.5 3129.18,-351.51"/>
</g>
<!-- Node33&#45;&gt;Node31 -->
<g id="edge51" class="edge">
<title>Node33&#45;&gt;Node31</title>
<path fill="none" stroke="#9a32cd" stroke-dasharray="5,2" d="M2819.59,-329.95C2860.66,-326.36 2908.55,-322.76 2952,-321 3026.16,-317.99 3044.83,-318.27 3119,-321 3178.64,-323.2 3245.51,-328.11 3297.9,-332.51"/>
<polygon fill="#9a32cd" stroke="#9a32cd" points="2819.23,-326.47 2809.58,-330.84 2819.85,-333.44 2819.23,-326.47"/>
<text text-anchor="middle" x="3035.5" y="-324.4" font-family="FreeSans" font-size="12.00"> modifierColorBarTopAxis</text>
</g>
<!-- Node33&#45;&gt;Node32 -->
<g id="edge47" class="edge">
<title>Node33&#45;&gt;Node32</title>
<path fill="none" stroke="#9a32cd" stroke-dasharray="5,2" d="M2819.58,-342.82C2855.73,-344.2 2896.71,-346.19 2934,-349 2939.86,-349.44 2945.91,-349.96 2952,-350.52"/>
<polygon fill="#9a32cd" stroke="#9a32cd" points="2819.64,-339.32 2809.52,-342.45 2819.38,-346.32 2819.64,-339.32"/>
<text text-anchor="middle" x="2884.5" y="-352.4" font-family="FreeSans" font-size="12.00"> colorBarRightAxis</text>
</g>
<!-- Node34&#45;&gt;Node31 -->
<g id="edge52" class="edge">
<title>Node34&#45;&gt;Node31</title>
<path fill="none" stroke="#9a32cd" stroke-dasharray="5,2" d="M2827.31,-395.82C2829.9,-395.89 2832.47,-395.95 2835,-396 3033.24,-400.23 3084.71,-398.33 3280,-364 3290.28,-362.19 3301.07,-360.14 3311.7,-358.01"/>
<polygon fill="#9a32cd" stroke="#9a32cd" points="2827.34,-392.32 2817.25,-395.53 2827.15,-399.32 2827.34,-392.32"/>
<text text-anchor="middle" x="3035.5" y="-400.4" font-family="FreeSans" font-size="12.00"> modifierColorBarRightAxis</text>
</g>
<!-- Node34&#45;&gt;Node32 -->
<g id="edge49" class="edge">
<title>Node34&#45;&gt;Node32</title>
<path fill="none" stroke="#9a32cd" stroke-dasharray="5,2" d="M2827.27,-380.3C2868.09,-376.3 2913.74,-371.83 2951.78,-368.1"/>
<polygon fill="#9a32cd" stroke="#9a32cd" points="2826.89,-376.82 2817.27,-381.28 2827.57,-383.78 2826.89,-376.82"/>
<text text-anchor="middle" x="2884.5" y="-382.4" font-family="FreeSans" font-size="12.00"> colorBarTopAxis</text>
</g>
</g>
</svg>
        <g id="navigator" transform="translate(0 0)" fill="#404254">
                <rect fill="#f2f5e9" fill-opacity="0.5" stroke="#606060" stroke-width=".5" x="0" y="0" width="60" height="60"/>
                <use id="zoomplus" xlink:href="#zoomPlus" x="17" y="9" onmousedown="handleZoom(evt,'in')"/>
                <use id="zoomminus" xlink:href="#zoomMin" x="42" y="9" onmousedown="handleZoom(evt,'out')"/>
                <use id="reset" xlink:href="#resetDef" x="30" y="36" onmousedown="handleReset()"/>
                <g id="arrowUp" xlink:href="#dirArrow" transform="translate(30 24)" onmousedown="handlePan(0,-1)">
                  <use xlink:href="#rim" fill="#404040">
                        <set attributeName="fill" to="#808080" begin="arrowUp.mouseover" end="arrowUp.mouseout"/>
                  </use>
                  <path fill="none" stroke="white" stroke-width="1.5" d="M0,-3.0v7 M-2.5,-0.5L0,-3.0L2.5,-0.5"/>
                </g>
                <g id="arrowRight" xlink:href="#dirArrow" transform="rotate(90) translate(36 -43)" onmousedown="handlePan(1,0)">
                  <use xlink:href="#rim" fill="#404040">
                        <set attributeName="fill" to="#808080" begin="arrowRight.mouseover" end="arrowRight.mouseout"/>
                  </use>
                  <path fill="none" stroke="white" stroke-width="1.5" d="M0,-3.0v7 M-2.5,-0.5L0,-3.0L2.5,-0.5"/>
                </g>
                <g id="arrowDown" xlink:href="#dirArrow" transform="rotate(180) translate(-30 -48)" onmousedown="handlePan(0,1)">
                  <use xlink:href="#rim" fill="#404040">
                        <set attributeName="fill" to="#808080" begin="arrowDown.mouseover" end="arrowDown.mouseout"/>
                  </use>
                  <path fill="none" stroke="white" stroke-width="1.5" d="M0,-3.0v7 M-2.5,-0.5L0,-3.0L2.5,-0.5"/>
                </g>
                <g id="arrowLeft" xlink:href="#dirArrow" transform="rotate(270) translate(-36 17)" onmousedown="handlePan(-1,0)">
                  <use xlink:href="#rim" fill="#404040">
                        <set attributeName="fill" to="#808080" begin="arrowLeft.mouseover" end="arrowLeft.mouseout"/>
                  </use>
                  <path fill="none" stroke="white" stroke-width="1.5" d="M0,-3.0v7 M-2.5,-0.5L0,-3.0L2.5,-0.5"/>
                </g>
        </g>
        <svg viewBox="0 0 15 15" width="100%" height="30px" preserveAspectRatio="xMaxYMin meet">
         <g id="arrow_out" transform="scale(0.3 0.3)">
          <a xlink:href="class_j_k_q_t_p_column_math_image__coll__graph_org.svg" target="_base">
           <rect id="button" ry="5" rx="5" y="6" x="6" height="38" width="38"
                fill="#f2f5e9" fill-opacity="0.5" stroke="#606060" stroke-width="1.0"/>
           <path id="arrow"
             d="M 11.500037,31.436501 C 11.940474,20.09759 22.043105,11.32322 32.158766,21.979434 L 37.068811,17.246167 C 37.068811,17.246167 37.088388,32 37.088388,32 L 22.160133,31.978069 C 22.160133,31.978069 26.997745,27.140456 26.997745,27.140456 C 18.528582,18.264221 13.291696,25.230495 11.500037,31.436501 z"
             style="fill:#404040;"/>
          </a>
         </g>
        </svg>
</svg>
