<?xml version="1.0" encoding="UTF-8" standalone="no"?>
<!DOCTYPE svg PUBLIC "-//W3C//DTD SVG 1.1//EN"
 "http://www.w3.org/Graphics/SVG/1.1/DTD/svg11.dtd">
<!-- Generated by graphviz version 2.43.0 (0)
 -->
<!-- Title: JKQTMathTextEmptyBoxNode Pages: 1 -->
<svg width="480pt" height="99pt"
 viewBox="0.00 0.00 479.50 99.00" xmlns="http://www.w3.org/2000/svg" xmlns:xlink="http://www.w3.org/1999/xlink">

<svg id="main" version="1.1" xmlns="http://www.w3.org/2000/svg" xmlns:xlink="http://www.w3.org/1999/xlink" xml:space="preserve" onload="init(evt)">
<style type="text/css"><![CDATA[
.node, .edge {opacity: 0.7;}
.node.selected, .edge.selected {opacity: 1;}
.edge:hover path { stroke: red; }
.edge:hover polygon { stroke: red; fill: red; }
]]></style>
<script type="application/ecmascript" xlink:href="svg.min.js"/>
<svg id="graph" class="graph">
<g id="graph0" class="graph" transform="scale(1 1) rotate(0) translate(4 95)">
<title>JKQTMathTextEmptyBoxNode</title>
<!-- Node1 -->
<g id="Node000001" class="node">
<title>Node1</title>
<g id="a_Node000001"><a xlink:title="subclass representing an empty bbox with defined width/height in the syntax tree">
<polygon fill="#999999" stroke="#666666" points="191,-21 0,-21 0,0 191,0 191,-21"/>
<text text-anchor="middle" x="95.5" y="-7.4" font-family="Helvetica,sans-Serif" font-size="12.00">JKQTMathTextEmptyBoxNode</text>
</a>
</g>
</g>
<!-- Node2 -->
<g id="Node000002" class="node">
<title>Node2</title>
<g id="a_Node000002"><a xlink:href="class_j_k_q_t_math_text_node.html" target="_top" xlink:title="subclass representing one node in the syntax tree">
<polygon fill="white" stroke="#666666" points="194,-91 63,-91 63,-70 194,-70 194,-91"/>
<text text-anchor="middle" x="128.5" y="-77.4" font-family="Helvetica,sans-Serif" font-size="12.00">JKQTMathTextNode</text>
</a>
</g>
</g>
<!-- Node2&#45;&gt;Node1 -->
<g id="edge1_Node000001_Node000002" class="edge">
<title>Node2&#45;&gt;Node1</title>
<g id="a_edge1_Node000001_Node000002"><a xlink:title=" ">
<path fill="none" stroke="#63b8ff" d="M115.19,-61.72C113.13,-58.57 111.15,-55.26 109.5,-52 104.39,-41.91 100.41,-29.53 98.03,-21.13"/>
<polygon fill="#63b8ff" stroke="#63b8ff" points="112.36,-63.79 120.96,-69.98 118.1,-59.77 112.36,-63.79"/>
</a>
</g>
</g>
<!-- Node2&#45;&gt;Node2 -->
<g id="edge6_Node000002_Node000002" class="edge">
<title>Node2&#45;&gt;Node2</title>
<g id="a_edge6_Node000002_Node000002"><a xlink:title=" ">
<path fill="none" stroke="#9a32cd" stroke-dasharray="5,2" d="M204.52,-84.94C209.19,-83.89 212,-82.41 212,-80.5 212,-77.45 204.81,-75.49 194.31,-74.63"/>
<polygon fill="#9a32cd" stroke="#9a32cd" points="203.73,-81.52 194.31,-86.37 204.7,-88.45 203.73,-81.52"/>
</a>
</g>
<text text-anchor="middle" x="249.5" y="-77.4" font-family="Helvetica,sans-Serif" font-size="12.00" fill="grey"> parentNode</text>
</g>
<!-- Node3 -->
<g id="Node000003" class="node">
<title>Node3</title>
<g id="a_Node000003"><a xlink:href="class_j_k_q_t_math_text.html" target="_top" xlink:title="this class parses a mathematical markup string and can then draw the contained text/equation onto a Q...">
<polygon fill="white" stroke="#666666" points="349,-21 250,-21 250,0 349,0 349,-21"/>
<text text-anchor="middle" x="299.5" y="-7.4" font-family="Helvetica,sans-Serif" font-size="12.00">JKQTMathText</text>
</a>
</g>
</g>
<!-- Node2&#45;&gt;Node3 -->
<g id="edge4_Node000003_Node000002" class="edge">
<title>Node2&#45;&gt;Node3</title>
<g id="a_edge4_Node000003_Node000002"><a xlink:title=" ">
<path fill="none" stroke="#9a32cd" stroke-dasharray="5,2" d="M121.67,-60.22C120.32,-52.81 120.58,-44.76 125.5,-39 133.55,-29.58 201.09,-21.07 249.6,-16.09"/>
<polygon fill="#9a32cd" stroke="#9a32cd" points="118.32,-61.24 124.34,-69.96 125.07,-59.39 118.32,-61.24"/>
</a>
</g>
<text text-anchor="middle" x="164" y="-42.4" font-family="Helvetica,sans-Serif" font-size="12.00" fill="grey"> parsedNode</text>
</g>
<!-- Node3&#45;&gt;Node2 -->
<g id="edge2_Node000002_Node000003" class="edge">
<title>Node3&#45;&gt;Node2</title>
<g id="a_edge2_Node000002_Node000003"><a xlink:title=" ">
<path fill="none" stroke="#9a32cd" stroke-dasharray="5,2" d="M259.03,-24.51C247.92,-28.63 236.04,-33.54 225.5,-39 216.41,-43.71 215.62,-47.37 206.5,-52 192.29,-59.21 175.73,-65.34 161.54,-69.97"/>
<polygon fill="#9a32cd" stroke="#9a32cd" points="260.3,-27.78 268.54,-21.11 257.94,-21.19 260.3,-27.78"/>
</a>
</g>
<text text-anchor="middle" x="274" y="-42.4" font-family="Helvetica,sans-Serif" font-size="12.00" fill="grey"> parentMathText</text>
</g>
<!-- Node4 -->
<g id="Node000004" class="node">
<title>Node4</title>
<g id="a_Node000004"><a xlink:title=" ">
<polygon fill="white" stroke="#666666" points="373,-91 308,-91 308,-70 373,-70 373,-91"/>
<text text-anchor="middle" x="340.5" y="-77.4" font-family="Helvetica,sans-Serif" font-size="12.00">QObject</text>
</a>
</g>
</g>
<!-- Node4&#45;&gt;Node3 -->
<g id="edge3_Node000003_Node000004" class="edge">
<title>Node4&#45;&gt;Node3</title>
<g id="a_edge3_Node000003_Node000004"><a xlink:title=" ">
<path fill="none" stroke="#63b8ff" d="M335.67,-59.98C333.47,-53.05 330.46,-45.39 326.5,-39 322.34,-32.29 316.28,-25.92 310.95,-21.01"/>
<polygon fill="#63b8ff" stroke="#63b8ff" points="332.41,-61.29 338.48,-69.97 339.15,-59.4 332.41,-61.29"/>
</a>
</g>
</g>
<!-- Node5 -->
<g id="Node000005" class="node">
<title>Node5</title>
<g id="a_Node000005"><a xlink:title=" ">
<polygon fill="white" stroke="#666666" points="471.5,-91 391.5,-91 391.5,-70 471.5,-70 471.5,-91"/>
<text text-anchor="middle" x="431.5" y="-77.4" font-family="Helvetica,sans-Serif" font-size="12.00">std::mutex</text>
</a>
</g>
</g>
<!-- Node5&#45;&gt;Node3 -->
<g id="edge5_Node000003_Node000005" class="edge">
<title>Node5&#45;&gt;Node3</title>
<g id="a_edge5_Node000003_Node000005"><a xlink:title=" ">
<path fill="none" stroke="#9a32cd" stroke-dasharray="5,2" d="M403.97,-65.32C378.19,-52.04 340.4,-32.57 318.04,-21.05"/>
<polygon fill="#9a32cd" stroke="#9a32cd" points="402.37,-68.43 412.87,-69.9 405.58,-62.21 402.37,-68.43"/>
</a>
</g>
<text text-anchor="middle" x="404" y="-42.4" font-family="Helvetica,sans-Serif" font-size="12.00" fill="grey"> s_mutex</text>
</g>
</g>
</svg>
</svg>

<style type='text/css'>
<![CDATA[
[data-mouse-over-selected='false'] { opacity: 0.7; }
[data-mouse-over-selected='true']  { opacity: 1.0; }
]]>
</style>
<script type="application/ecmascript"><![CDATA[
document.addEventListener('DOMContentLoaded', (event) => {
  highlightEdges();
  highlightAdjacentNodes();
});
]]></script>
</svg>
