<?xml version="1.0" encoding="UTF-8" standalone="no"?>
<!DOCTYPE svg PUBLIC "-//W3C//DTD SVG 1.1//EN"
 "http://www.w3.org/Graphics/SVG/1.1/DTD/svg11.dtd">
<!-- Generated by graphviz version 2.43.0 (0)
 -->
<!-- Title: JKQTMathTextMultiChildNode Pages: 1 -->
<svg width="478pt" height="99pt"
 viewBox="0.00 0.00 478.00 99.00" xmlns="http://www.w3.org/2000/svg" xmlns:xlink="http://www.w3.org/1999/xlink">
<g id="graph0" class="graph" transform="scale(1 1) rotate(0) translate(4 95)">
<title>JKQTMathTextMultiChildNode</title>
<!-- Node1 -->
<g id="node1" class="node">
<title>Node1</title>
<g id="a_node1"><a xlink:title="subclass representing a node in the syntax tree, that has two children">
<polygon fill="#999999" stroke="#666666" points="188,-21 0,-21 0,0 188,0 188,-21"/>
<text text-anchor="middle" x="94" y="-7.4" font-family="Helvetica,sans-Serif" font-size="12.00">JKQTMathTextMultiChildNode</text>
</a>
</g>
</g>
<!-- Node2 -->
<g id="node2" class="node">
<title>Node2</title>
<g id="a_node2"><a xlink:href="class_j_k_q_t_math_text_node.html" target="_top" xlink:title="subclass representing one node in the syntax tree">
<polygon fill="white" stroke="#666666" points="192.5,-91 61.5,-91 61.5,-70 192.5,-70 192.5,-91"/>
<text text-anchor="middle" x="127" y="-77.4" font-family="Helvetica,sans-Serif" font-size="12.00">JKQTMathTextNode</text>
</a>
</g>
</g>
<!-- Node2&#45;&gt;Node1 -->
<g id="edge1" class="edge">
<title>Node2&#45;&gt;Node1</title>
<path fill="none" stroke="#63b8ff" d="M113.69,-61.72C111.63,-58.57 109.65,-55.26 108,-52 102.89,-41.91 98.91,-29.53 96.53,-21.13"/>
<polygon fill="#63b8ff" stroke="#63b8ff" points="110.86,-63.79 119.46,-69.98 116.6,-59.77 110.86,-63.79"/>
</g>
<!-- Node2&#45;&gt;Node2 -->
<g id="edge6" class="edge">
<title>Node2&#45;&gt;Node2</title>
<path fill="none" stroke="#9a32cd" stroke-dasharray="5,2" d="M203.02,-84.94C207.69,-83.89 210.5,-82.41 210.5,-80.5 210.5,-77.45 203.31,-75.49 192.81,-74.63"/>
<polygon fill="#9a32cd" stroke="#9a32cd" points="202.23,-81.52 192.81,-86.37 203.2,-88.45 202.23,-81.52"/>
<text text-anchor="middle" x="248" y="-77.4" font-family="Helvetica,sans-Serif" font-size="12.00"> parentNode</text>
</g>
<!-- Node3 -->
<g id="node3" class="node">
<title>Node3</title>
<g id="a_node3"><a xlink:href="class_j_k_q_t_math_text.html" target="_top" xlink:title="this class parses a mathematical markup string and can then draw the contained text/equation onto a Q...">
<polygon fill="white" stroke="#666666" points="346.5,-21 247.5,-21 247.5,0 346.5,0 346.5,-21"/>
<text text-anchor="middle" x="297" y="-7.4" font-family="Helvetica,sans-Serif" font-size="12.00">JKQTMathText</text>
</a>
</g>
</g>
<!-- Node2&#45;&gt;Node3 -->
<g id="edge4" class="edge">
<title>Node2&#45;&gt;Node3</title>
<path fill="none" stroke="#9a32cd" stroke-dasharray="5,2" d="M120.17,-60.22C118.82,-52.81 119.08,-44.76 124,-39 132,-29.63 199.15,-21.11 247.39,-16.11"/>
<polygon fill="#9a32cd" stroke="#9a32cd" points="116.82,-61.24 122.84,-69.96 123.57,-59.39 116.82,-61.24"/>
<text text-anchor="middle" x="162.5" y="-42.4" font-family="Helvetica,sans-Serif" font-size="12.00"> parsedNode</text>
</g>
<!-- Node3&#45;&gt;Node2 -->
<g id="edge2" class="edge">
<title>Node3&#45;&gt;Node2</title>
<path fill="none" stroke="#9a32cd" stroke-dasharray="5,2" d="M257.38,-24.46C246.34,-28.59 234.5,-33.53 224,-39 214.93,-43.73 214.12,-47.37 205,-52 190.79,-59.21 174.23,-65.34 160.04,-69.97"/>
<polygon fill="#9a32cd" stroke="#9a32cd" points="258.61,-27.73 266.82,-21.04 256.22,-21.15 258.61,-27.73"/>
<text text-anchor="middle" x="272.5" y="-42.4" font-family="Helvetica,sans-Serif" font-size="12.00"> parentMathText</text>
</g>
<!-- Node4 -->
<g id="node4" class="node">
<title>Node4</title>
<g id="a_node4"><a xlink:title=" ">
<polygon fill="white" stroke="#666666" points="371.5,-91 306.5,-91 306.5,-70 371.5,-70 371.5,-91"/>
<text text-anchor="middle" x="339" y="-77.4" font-family="Helvetica,sans-Serif" font-size="12.00">QObject</text>
</a>
</g>
</g>
<!-- Node4&#45;&gt;Node3 -->
<g id="edge3" class="edge">
<title>Node4&#45;&gt;Node3</title>
<path fill="none" stroke="#63b8ff" d="M334.24,-59.94C332.04,-53.01 329.02,-45.36 325,-39 320.78,-32.32 314.63,-26.05 309.17,-21.18"/>
<polygon fill="#63b8ff" stroke="#63b8ff" points="330.97,-61.25 337.02,-69.95 337.71,-59.38 330.97,-61.25"/>
</g>
<!-- Node5 -->
<g id="node5" class="node">
<title>Node5</title>
<g id="a_node5"><a xlink:title=" ">
<polygon fill="white" stroke="#666666" points="470,-91 390,-91 390,-70 470,-70 470,-91"/>
<text text-anchor="middle" x="430" y="-77.4" font-family="Helvetica,sans-Serif" font-size="12.00">std::mutex</text>
</a>
</g>
</g>
<!-- Node5&#45;&gt;Node3 -->
<g id="edge5" class="edge">
<title>Node5&#45;&gt;Node3</title>
<path fill="none" stroke="#9a32cd" stroke-dasharray="5,2" d="M402.26,-65.32C376.29,-52.04 338.21,-32.57 315.68,-21.05"/>
<polygon fill="#9a32cd" stroke="#9a32cd" points="400.73,-68.47 411.23,-69.9 403.92,-62.23 400.73,-68.47"/>
<text text-anchor="middle" x="402.5" y="-42.4" font-family="Helvetica,sans-Serif" font-size="12.00"> s_mutex</text>
</g>
</g>
</svg>
