<?xml version="1.0" encoding="UTF-8" standalone="no"?>
<!DOCTYPE svg PUBLIC "-//W3C//DTD SVG 1.1//EN"
 "http://www.w3.org/Graphics/SVG/1.1/DTD/svg11.dtd">
<!-- Generated by graphviz version 2.43.0 (0)
 -->
<!-- Title: JKQTPGeoBaseDecoratedHeadLine Pages: 1 -->
<svg width="3044pt" height="546pt"
 viewBox="0.00 0.00 3044.00 545.96" xmlns="http://www.w3.org/2000/svg" xmlns:xlink="http://www.w3.org/1999/xlink">
<g id="graph0" class="graph" transform="scale(1 1) rotate(0) translate(4 541.96)">
<title>JKQTPGeoBaseDecoratedHeadLine</title>
<!-- Node1 -->
<g id="node1" class="node">
<title>Node1</title>
<g id="a_node1"><a xlink:title="This JKQTPGeometricPlotElement is used as base class for geometric drawing elements that consist of l...">
<polygon fill="#bfbfbf" stroke="black" points="2811,-211.86 2811,-232.86 3036,-232.86 3036,-211.86 2811,-211.86"/>
<text text-anchor="middle" x="2923.5" y="-219.26" font-family="Helvetica,sans-Serif" font-size="12.00">JKQTPGeoBaseDecoratedHeadLine</text>
</a>
</g>
</g>
<!-- Node2 -->
<g id="node2" class="node">
<title>Node2</title>
<g id="a_node2"><a xlink:href="class_j_k_q_t_p_geometric_plot_element.html" target="_top" xlink:title="this is the virtual base class of all JKQTPPlotElement&#39;s in a JKQTPlotter plot that represent geometr...">
<polygon fill="none" stroke="black" points="2575.5,-413.86 2575.5,-434.86 2763.5,-434.86 2763.5,-413.86 2575.5,-413.86"/>
<text text-anchor="middle" x="2669.5" y="-421.26" font-family="Helvetica,sans-Serif" font-size="12.00">JKQTPGeometricPlotElement</text>
</a>
</g>
</g>
<!-- Node2&#45;&gt;Node1 -->
<g id="edge1" class="edge">
<title>Node2&#45;&gt;Node1</title>
<path fill="none" stroke="midnightblue" d="M2750.59,-410.54C2758.8,-407.52 2766.77,-403.84 2774,-399.36 2845.6,-354.99 2899.66,-264.31 2916.77,-233.16"/>
<polygon fill="midnightblue" stroke="midnightblue" points="2749.23,-407.3 2740.86,-413.79 2751.45,-413.94 2749.23,-407.3"/>
</g>
<!-- Node3 -->
<g id="node3" class="node">
<title>Node3</title>
<g id="a_node3"><a xlink:href="class_j_k_q_t_p_plot_element.html" target="_top" xlink:title="this virtual base class of every element, which is part of a JKQTPlotter plot and may appear in its k...">
<polygon fill="none" stroke="black" points="2358,-511.86 2358,-532.86 2483,-532.86 2483,-511.86 2358,-511.86"/>
<text text-anchor="middle" x="2420.5" y="-519.26" font-family="Helvetica,sans-Serif" font-size="12.00">JKQTPPlotElement</text>
</a>
</g>
</g>
<!-- Node3&#45;&gt;Node2 -->
<g id="edge2" class="edge">
<title>Node3&#45;&gt;Node2</title>
<path fill="none" stroke="midnightblue" d="M2459.15,-508.06C2479.56,-500.26 2505.2,-490.38 2528,-481.36 2568.27,-465.45 2614.8,-446.45 2642.92,-434.9"/>
<polygon fill="midnightblue" stroke="midnightblue" points="2457.68,-504.87 2449.58,-511.71 2460.17,-511.41 2457.68,-504.87"/>
</g>
<!-- Node4 -->
<g id="node4" class="node">
<title>Node4</title>
<g id="a_node4"><a xlink:title=" ">
<polygon fill="none" stroke="black" points="1442.5,-383.86 1442.5,-404.86 1507.5,-404.86 1507.5,-383.86 1442.5,-383.86"/>
<text text-anchor="middle" x="1475" y="-391.26" font-family="Helvetica,sans-Serif" font-size="12.00">QObject</text>
</a>
</g>
</g>
<!-- Node4&#45;&gt;Node3 -->
<g id="edge3" class="edge">
<title>Node4&#45;&gt;Node3</title>
<path fill="none" stroke="midnightblue" d="M1517.36,-408.02C1607.58,-437.1 1829.38,-504.62 2021,-531.36 2091.9,-541.26 2110.42,-535.25 2182,-536.36 2232.22,-537.14 2244.86,-539.17 2295,-536.36 2315.52,-535.21 2337.86,-533 2357.87,-530.68"/>
<polygon fill="midnightblue" stroke="midnightblue" points="1518.36,-404.67 1507.77,-404.92 1516.21,-411.33 1518.36,-404.67"/>
</g>
<!-- Node5 -->
<g id="node5" class="node">
<title>Node5</title>
<g id="a_node5"><a xlink:href="class_j_k_q_t_base_plotter.html" target="_top" xlink:title="base class for 2D plotter classes (used by the plotter widget JKQTPlotter)">
<polygon fill="none" stroke="black" points="2035.5,-345.86 2035.5,-366.86 2149.5,-366.86 2149.5,-345.86 2035.5,-345.86"/>
<text text-anchor="middle" x="2092.5" y="-353.26" font-family="Helvetica,sans-Serif" font-size="12.00">JKQTBasePlotter</text>
</a>
</g>
</g>
<!-- Node4&#45;&gt;Node5 -->
<g id="edge5" class="edge">
<title>Node4&#45;&gt;Node5</title>
<path fill="none" stroke="midnightblue" d="M1517.97,-391.77C1625.96,-385.11 1913.46,-367.36 2035.48,-359.82"/>
<polygon fill="midnightblue" stroke="midnightblue" points="1517.56,-388.29 1507.8,-392.4 1517.99,-395.28 1517.56,-388.29"/>
</g>
<!-- Node18 -->
<g id="node18" class="node">
<title>Node18</title>
<g id="a_node18"><a xlink:href="class_j_k_q_t_math_text.html" target="_top" xlink:title="this class parses a mathematical markup string and can then draw the contained text/equation onto a Q...">
<polygon fill="none" stroke="black" points="1767,-405.86 1767,-426.86 1866,-426.86 1866,-405.86 1767,-405.86"/>
<text text-anchor="middle" x="1816.5" y="-413.26" font-family="Helvetica,sans-Serif" font-size="12.00">JKQTMathText</text>
</a>
</g>
</g>
<!-- Node4&#45;&gt;Node18 -->
<g id="edge24" class="edge">
<title>Node4&#45;&gt;Node18</title>
<path fill="none" stroke="midnightblue" d="M1518,-397.09C1581.07,-401.17 1699.96,-408.88 1766.76,-413.21"/>
<polygon fill="midnightblue" stroke="midnightblue" points="1517.84,-393.57 1507.63,-396.41 1517.39,-400.55 1517.84,-393.57"/>
</g>
<!-- Node23 -->
<g id="node23" class="node">
<title>Node23</title>
<g id="a_node23"><a xlink:href="class_j_k_q_t_p_coordinate_axis.html" target="_top" xlink:title="this virtual class is the base for any type of coordinate axis, to be drawn by JKQTBasePlotter.">
<polygon fill="none" stroke="black" points="2349.5,-285.86 2349.5,-306.86 2491.5,-306.86 2491.5,-285.86 2349.5,-285.86"/>
<text text-anchor="middle" x="2420.5" y="-293.26" font-family="Helvetica,sans-Serif" font-size="12.00">JKQTPCoordinateAxis</text>
</a>
</g>
</g>
<!-- Node4&#45;&gt;Node23 -->
<g id="edge33" class="edge">
<title>Node4&#45;&gt;Node23</title>
<path fill="none" stroke="midnightblue" d="M1517.7,-383.66C1594.09,-364.61 1761.89,-325.31 1906,-309.36 2063.77,-291.9 2250.4,-292.44 2349.48,-294.39"/>
<polygon fill="midnightblue" stroke="midnightblue" points="1516.39,-380.38 1507.54,-386.21 1518.09,-387.17 1516.39,-380.38"/>
</g>
<!-- Node5&#45;&gt;Node3 -->
<g id="edge4" class="edge">
<title>Node5&#45;&gt;Node3</title>
<path fill="none" stroke="#9a32cd" stroke-dasharray="5,2" d="M2117.83,-373.32C2132.99,-385 2151.85,-401.73 2164,-420.36 2177.82,-441.56 2163.05,-457.6 2182,-474.36 2230.05,-516.87 2305.13,-525.77 2357.99,-526.01"/>
<polygon fill="#9a32cd" stroke="#9a32cd" points="2119.53,-370.22 2109.42,-367.05 2115.35,-375.83 2119.53,-370.22"/>
<text text-anchor="middle" x="2238.5" y="-523.76" font-family="Helvetica,sans-Serif" font-size="12.00"> parent</text>
</g>
<!-- Node5&#45;&gt;Node5 -->
<g id="edge44" class="edge">
<title>Node5&#45;&gt;Node5</title>
<path fill="none" stroke="#9a32cd" stroke-dasharray="5,2" d="M2066.93,-376.42C2068.61,-381.53 2077.13,-385.36 2092.5,-385.36 2116.49,-385.36 2123.8,-376.02 2114.43,-367.07"/>
<polygon fill="#9a32cd" stroke="#9a32cd" points="2070.21,-377.66 2070.57,-367.07 2063.68,-375.12 2070.21,-377.66"/>
<text text-anchor="middle" x="2092.5" y="-401.76" font-family="Helvetica,sans-Serif" font-size="12.00"> masterPlotterX</text>
<text text-anchor="middle" x="2092.5" y="-388.76" font-family="Helvetica,sans-Serif" font-size="12.00">masterPlotterY</text>
</g>
<!-- Node20 -->
<g id="node20" class="node">
<title>Node20</title>
<g id="a_node20"><a xlink:href="class_j_k_q_t_p_graphs_model.html" target="_top" xlink:title="data model with all plots ina JKQTBasePlotter (+ allows to switch them visible/invisible)">
<polygon fill="none" stroke="black" points="2355,-450.86 2355,-471.86 2486,-471.86 2486,-450.86 2355,-450.86"/>
<text text-anchor="middle" x="2420.5" y="-458.26" font-family="Helvetica,sans-Serif" font-size="12.00">JKQTPGraphsModel</text>
</a>
</g>
</g>
<!-- Node5&#45;&gt;Node20 -->
<g id="edge30" class="edge">
<title>Node5&#45;&gt;Node20</title>
<path fill="none" stroke="#9a32cd" stroke-dasharray="5,2" d="M2113.49,-373.79C2127.81,-386.44 2147.41,-404.12 2164,-420.36 2172.31,-428.5 2171.54,-434.28 2182,-439.36 2211.47,-453.69 2295.26,-458.71 2354.95,-460.46"/>
<polygon fill="#9a32cd" stroke="#9a32cd" points="2115.55,-370.94 2105.73,-366.97 2110.93,-376.2 2115.55,-370.94"/>
<text text-anchor="middle" x="2238.5" y="-460.76" font-family="Helvetica,sans-Serif" font-size="12.00"> m_plotter</text>
</g>
<!-- Node5&#45;&gt;Node23 -->
<g id="edge34" class="edge">
<title>Node5&#45;&gt;Node23</title>
<path fill="none" stroke="#9a32cd" stroke-dasharray="5,2" d="M2133.44,-342.71C2148.52,-337.95 2165.92,-332.91 2182,-329.36 2237.69,-317.08 2301.8,-308.49 2349.36,-303.16"/>
<polygon fill="#9a32cd" stroke="#9a32cd" points="2132.35,-339.39 2123.9,-345.79 2134.49,-346.05 2132.35,-339.39"/>
<text text-anchor="middle" x="2238.5" y="-332.76" font-family="Helvetica,sans-Serif" font-size="12.00"> parent</text>
</g>
<!-- Node6 -->
<g id="node6" class="node">
<title>Node6</title>
<g id="a_node6"><a xlink:href="class_j_k_q_t_base_plotter_style.html" target="_top" xlink:title="Support Class for JKQTBasePlotter, which summarizes all properties that define the visual styling of ...">
<polygon fill="none" stroke="black" points="1745,-256.86 1745,-277.86 1888,-277.86 1888,-256.86 1745,-256.86"/>
<text text-anchor="middle" x="1816.5" y="-264.26" font-family="Helvetica,sans-Serif" font-size="12.00">JKQTBasePlotterStyle</text>
</a>
</g>
</g>
<!-- Node6&#45;&gt;Node5 -->
<g id="edge6" class="edge">
<title>Node6&#45;&gt;Node5</title>
<path fill="none" stroke="#9a32cd" stroke-dasharray="5,2" d="M1859.78,-281.1C1914.71,-298.94 2009.42,-329.7 2059.03,-345.82"/>
<polygon fill="#9a32cd" stroke="#9a32cd" points="1860.6,-277.68 1850.01,-277.92 1858.44,-284.34 1860.6,-277.68"/>
<text text-anchor="middle" x="1954.5" y="-330.76" font-family="Helvetica,sans-Serif" font-size="12.00"> plotterStyle</text>
</g>
<!-- Node7 -->
<g id="node7" class="node">
<title>Node7</title>
<g id="a_node7"><a xlink:href="class_j_k_q_t_p_key_style.html" target="_top" xlink:title="Support Class for JKQTBasePlotter, which summarizes all properties that define the visual styling of ...">
<polygon fill="none" stroke="black" points="1423,-278.86 1423,-299.86 1527,-299.86 1527,-278.86 1423,-278.86"/>
<text text-anchor="middle" x="1475" y="-286.26" font-family="Helvetica,sans-Serif" font-size="12.00">JKQTPKeyStyle</text>
</a>
</g>
</g>
<!-- Node7&#45;&gt;Node6 -->
<g id="edge7" class="edge">
<title>Node7&#45;&gt;Node6</title>
<path fill="none" stroke="#9a32cd" stroke-dasharray="5,2" d="M1532.5,-276.9C1550.76,-273.43 1571.15,-270.13 1590,-268.36 1641.65,-263.53 1700.24,-263.43 1744.75,-264.46"/>
<polygon fill="#9a32cd" stroke="#9a32cd" points="1531.75,-273.49 1522.61,-278.84 1533.09,-280.36 1531.75,-273.49"/>
<text text-anchor="middle" x="1658.5" y="-271.76" font-family="Helvetica,sans-Serif" font-size="12.00"> keyStyle</text>
</g>
<!-- Node8 -->
<g id="node8" class="node">
<title>Node8</title>
<g id="a_node8"><a xlink:href="class_j_k_q_t_p_coordinate_axis_style.html" target="_top" xlink:title="Support Class for JKQTPCoordinateAxis, which summarizes all properties that define the visual styling...">
<polygon fill="none" stroke="black" points="1063,-169.86 1063,-190.86 1234,-190.86 1234,-169.86 1063,-169.86"/>
<text text-anchor="middle" x="1148.5" y="-177.26" font-family="Helvetica,sans-Serif" font-size="12.00">JKQTPCoordinateAxisStyle</text>
</a>
</g>
</g>
<!-- Node8&#45;&gt;Node6 -->
<g id="edge8" class="edge">
<title>Node8&#45;&gt;Node6</title>
<path fill="none" stroke="#9a32cd" stroke-dasharray="5,2" d="M1240.42,-192.24C1374.62,-209.77 1622.94,-242.21 1744.59,-258.1"/>
<polygon fill="#9a32cd" stroke="#9a32cd" points="1240.54,-188.73 1230.17,-190.9 1239.63,-195.67 1240.54,-188.73"/>
<text text-anchor="middle" x="1475" y="-250.76" font-family="Helvetica,sans-Serif" font-size="12.00"> xAxisStyle</text>
<text text-anchor="middle" x="1475" y="-237.76" font-family="Helvetica,sans-Serif" font-size="12.00">yAxisStyle</text>
</g>
<!-- Node10 -->
<g id="node10" class="node">
<title>Node10</title>
<g id="a_node10"><a xlink:href="class_j_k_q_t_p_colorbar_coordinate_axis_style.html" target="_top" xlink:title="Support Class for JKQTPCoordinateAxis, which summarizes all properties that define the visual styling...">
<polygon fill="none" stroke="black" points="1378,-163.36 1378,-197.36 1572,-197.36 1572,-163.36 1378,-163.36"/>
<text text-anchor="start" x="1386" y="-183.76" font-family="Helvetica,sans-Serif" font-size="12.00">JKQTPColorbarCoordinateAxis</text>
<text text-anchor="middle" x="1475" y="-170.76" font-family="Helvetica,sans-Serif" font-size="12.00">Style</text>
</a>
</g>
</g>
<!-- Node8&#45;&gt;Node10 -->
<g id="edge11" class="edge">
<title>Node8&#45;&gt;Node10</title>
<path fill="none" stroke="midnightblue" d="M1244.56,-180.36C1286.54,-180.36 1335.81,-180.36 1377.91,-180.36"/>
<polygon fill="midnightblue" stroke="midnightblue" points="1244.33,-176.86 1234.33,-180.36 1244.33,-183.86 1244.33,-176.86"/>
</g>
<!-- Node8&#45;&gt;Node23 -->
<g id="edge35" class="edge">
<title>Node8&#45;&gt;Node23</title>
<path fill="none" stroke="#9a32cd" stroke-dasharray="5,2" d="M1204.82,-167.68C1269.14,-154.07 1378.67,-134.36 1474,-134.36 1474,-134.36 1474,-134.36 2093.5,-134.36 2230.01,-134.36 2368.24,-249.69 2408.11,-285.73"/>
<polygon fill="#9a32cd" stroke="#9a32cd" points="1203.93,-164.29 1194.89,-169.81 1205.4,-171.14 1203.93,-164.29"/>
<text text-anchor="middle" x="1816.5" y="-137.76" font-family="Helvetica,sans-Serif" font-size="12.00"> axisStyle</text>
</g>
<!-- Node9 -->
<g id="node9" class="node">
<title>Node9</title>
<g id="a_node9"><a xlink:href="class_j_k_q_t_p_grid_style.html" target="_top" xlink:title="Support Class for JKQTPCoordinateAxis, and summarizes all properties that define the visual styling o...">
<polygon fill="none" stroke="black" points="698.5,-169.86 698.5,-190.86 805.5,-190.86 805.5,-169.86 698.5,-169.86"/>
<text text-anchor="middle" x="752" y="-177.26" font-family="Helvetica,sans-Serif" font-size="12.00">JKQTPGridStyle</text>
</a>
</g>
</g>
<!-- Node9&#45;&gt;Node8 -->
<g id="edge9" class="edge">
<title>Node9&#45;&gt;Node8</title>
<path fill="none" stroke="#9a32cd" stroke-dasharray="5,2" d="M816.18,-180.36C883.03,-180.36 988.9,-180.36 1062.92,-180.36"/>
<polygon fill="#9a32cd" stroke="#9a32cd" points="815.79,-176.86 805.79,-180.36 815.79,-183.86 815.79,-176.86"/>
<text text-anchor="middle" x="948.5" y="-196.76" font-family="Helvetica,sans-Serif" font-size="12.00"> majorGridStyle</text>
<text text-anchor="middle" x="948.5" y="-183.76" font-family="Helvetica,sans-Serif" font-size="12.00">minorGridStyle</text>
</g>
<!-- Node10&#45;&gt;Node6 -->
<g id="edge10" class="edge">
<title>Node10&#45;&gt;Node6</title>
<path fill="none" stroke="#9a32cd" stroke-dasharray="5,2" d="M1582.52,-171.77C1628.38,-171.72 1681.75,-176.67 1727,-194.36 1761.32,-207.78 1792.25,-239.93 1806.77,-256.73"/>
<polygon fill="#9a32cd" stroke="#9a32cd" points="1582.22,-168.27 1572.25,-171.87 1582.28,-175.27 1582.22,-168.27"/>
<text text-anchor="middle" x="1658.5" y="-210.76" font-family="Helvetica,sans-Serif" font-size="12.00"> rightColorbarAxisStyle</text>
<text text-anchor="middle" x="1658.5" y="-197.76" font-family="Helvetica,sans-Serif" font-size="12.00">topColorbarAxisStyle</text>
</g>
<!-- Node11 -->
<g id="node11" class="node">
<title>Node11</title>
<g id="a_node11"><a xlink:href="class_j_k_q_t_graphs_base_style.html" target="_top" xlink:title="Support Class for JKQTBasePlotter, which summarizes all properties that define the visual styling of ...">
<polygon fill="none" stroke="black" points="1402,-328.86 1402,-349.86 1548,-349.86 1548,-328.86 1402,-328.86"/>
<text text-anchor="middle" x="1475" y="-336.26" font-family="Helvetica,sans-Serif" font-size="12.00">JKQTGraphsBaseStyle</text>
</a>
</g>
</g>
<!-- Node11&#45;&gt;Node6 -->
<g id="edge12" class="edge">
<title>Node11&#45;&gt;Node6</title>
<path fill="none" stroke="#9a32cd" stroke-dasharray="5,2" d="M1519.18,-325.8C1548.36,-316.69 1582.82,-306.05 1590,-304.36 1597.83,-302.53 1686.32,-288.16 1750.08,-277.88"/>
<polygon fill="#9a32cd" stroke="#9a32cd" points="1518.04,-322.49 1509.54,-328.82 1520.13,-329.17 1518.04,-322.49"/>
<text text-anchor="middle" x="1658.5" y="-307.76" font-family="Helvetica,sans-Serif" font-size="12.00"> graphsStyle</text>
</g>
<!-- Node12 -->
<g id="node12" class="node">
<title>Node12</title>
<g id="a_node12"><a xlink:href="class_j_k_q_t_graphs_specific_style_properties.html" target="_top" xlink:title="Support Class for JKQTBasePlotter, which summarizes all properties that define the visual styling of ...">
<polygon fill="none" stroke="black" points="399,-318.86 399,-339.86 623,-339.86 623,-318.86 399,-318.86"/>
<text text-anchor="middle" x="511" y="-326.26" font-family="Helvetica,sans-Serif" font-size="12.00">JKQTGraphsSpecificStyleProperties</text>
</a>
</g>
</g>
<!-- Node12&#45;&gt;Node11 -->
<g id="edge13" class="edge">
<title>Node12&#45;&gt;Node11</title>
<path fill="none" stroke="#9a32cd" stroke-dasharray="5,2" d="M633.27,-335.15C635.87,-335.23 638.45,-335.3 641,-335.36 922.37,-342.58 1257.38,-341.14 1401.84,-340.03"/>
<polygon fill="#9a32cd" stroke="#9a32cd" points="633.27,-331.65 623.17,-334.83 633.05,-338.65 633.27,-331.65"/>
<text text-anchor="middle" x="948.5" y="-369.76" font-family="Helvetica,sans-Serif" font-size="12.00"> boxplotStyle</text>
<text text-anchor="middle" x="948.5" y="-356.76" font-family="Helvetica,sans-Serif" font-size="12.00">defaultGraphStyle</text>
<text text-anchor="middle" x="948.5" y="-343.76" font-family="Helvetica,sans-Serif" font-size="12.00">filledStyle</text>
</g>
<!-- Node14 -->
<g id="node14" class="node">
<title>Node14</title>
<g id="a_node14"><a xlink:href="class_j_k_q_t_barchart_specific_style_properties.html" target="_top" xlink:title="Support Class for JKQTBasePlotter, which summarizes all properties that define the visual styling of ...">
<polygon fill="none" stroke="black" points="862,-291.36 862,-325.36 1035,-325.36 1035,-291.36 862,-291.36"/>
<text text-anchor="start" x="870" y="-311.76" font-family="Helvetica,sans-Serif" font-size="12.00">JKQTBarchartSpecificStyle</text>
<text text-anchor="middle" x="948.5" y="-298.76" font-family="Helvetica,sans-Serif" font-size="12.00">Properties</text>
</a>
</g>
</g>
<!-- Node12&#45;&gt;Node14 -->
<g id="edge16" class="edge">
<title>Node12&#45;&gt;Node14</title>
<path fill="none" stroke="midnightblue" d="M633.15,-323.52C705.82,-320.02 796.5,-315.65 861.76,-312.5"/>
<polygon fill="midnightblue" stroke="midnightblue" points="632.84,-320.03 623.02,-324.01 633.18,-327.02 632.84,-320.03"/>
</g>
<!-- Node15 -->
<g id="node15" class="node">
<title>Node15</title>
<g id="a_node15"><a xlink:href="class_j_k_q_t_impulse_specific_style_properties.html" target="_top" xlink:title="Support Class for JKQTBasePlotter, which summarizes all properties that define the visual styling of ...">
<polygon fill="none" stroke="black" points="864.5,-247.36 864.5,-281.36 1032.5,-281.36 1032.5,-247.36 864.5,-247.36"/>
<text text-anchor="start" x="872.5" y="-267.76" font-family="Helvetica,sans-Serif" font-size="12.00">JKQTImpulseSpecificStyle</text>
<text text-anchor="middle" x="948.5" y="-254.76" font-family="Helvetica,sans-Serif" font-size="12.00">Properties</text>
</a>
</g>
</g>
<!-- Node12&#45;&gt;Node15 -->
<g id="edge18" class="edge">
<title>Node12&#45;&gt;Node15</title>
<path fill="none" stroke="midnightblue" d="M592.63,-317.33C670.01,-305.78 786.34,-288.42 864.5,-276.75"/>
<polygon fill="midnightblue" stroke="midnightblue" points="591.83,-313.91 582.45,-318.85 592.86,-320.83 591.83,-313.91"/>
</g>
<!-- Node16 -->
<g id="node16" class="node">
<title>Node16</title>
<g id="a_node16"><a xlink:href="class_j_k_q_t_geometric_specific_style_properties.html" target="_top" xlink:title="Support Class for JKQTBasePlotter, which summarizes all properties that define the visual styling of ...">
<polygon fill="none" stroke="black" points="660,-386.36 660,-420.36 844,-420.36 844,-386.36 660,-386.36"/>
<text text-anchor="start" x="668" y="-406.76" font-family="Helvetica,sans-Serif" font-size="12.00">JKQTGeometricSpecificStyle</text>
<text text-anchor="middle" x="752" y="-393.76" font-family="Helvetica,sans-Serif" font-size="12.00">Properties</text>
</a>
</g>
</g>
<!-- Node12&#45;&gt;Node16 -->
<g id="edge20" class="edge">
<title>Node12&#45;&gt;Node16</title>
<path fill="none" stroke="midnightblue" d="M555.59,-342.86C595.02,-355.07 653.28,-373.11 695.93,-386.31"/>
<polygon fill="midnightblue" stroke="midnightblue" points="556.58,-339.5 545.99,-339.89 554.51,-346.19 556.58,-339.5"/>
</g>
<!-- Node13 -->
<g id="node13" class="node">
<title>Node13</title>
<g id="a_node13"><a xlink:href="struct_j_k_q_t_p_color_derivation_mode.html" target="_top" xlink:title="Specifies how a fill&#45;color is derived from a given color.">
<polygon fill="none" stroke="black" points="0,-318.86 0,-339.86 179,-339.86 179,-318.86 0,-318.86"/>
<text text-anchor="middle" x="89.5" y="-326.26" font-family="Helvetica,sans-Serif" font-size="12.00">JKQTPColorDerivationMode</text>
</a>
</g>
</g>
<!-- Node13&#45;&gt;Node12 -->
<g id="edge14" class="edge">
<title>Node13&#45;&gt;Node12</title>
<path fill="none" stroke="#9a32cd" stroke-dasharray="5,2" d="M189.53,-329.36C252.41,-329.36 333.9,-329.36 398.97,-329.36"/>
<polygon fill="#9a32cd" stroke="#9a32cd" points="189.21,-325.86 179.21,-329.36 189.21,-332.86 189.21,-325.86"/>
<text text-anchor="middle" x="289" y="-384.76" font-family="Helvetica,sans-Serif" font-size="12.00"> errorColorDerivationMode</text>
<text text-anchor="middle" x="289" y="-371.76" font-family="Helvetica,sans-Serif" font-size="12.00">errorFillColorDerivationMode</text>
<text text-anchor="middle" x="289" y="-358.76" font-family="Helvetica,sans-Serif" font-size="12.00">fillColorDerivationMode</text>
<text text-anchor="middle" x="289" y="-345.76" font-family="Helvetica,sans-Serif" font-size="12.00">graphColorDerivationMode</text>
<text text-anchor="middle" x="289" y="-332.76" font-family="Helvetica,sans-Serif" font-size="12.00">symbolFillColorDerivationMode</text>
</g>
<!-- Node14&#45;&gt;Node11 -->
<g id="edge15" class="edge">
<title>Node14&#45;&gt;Node11</title>
<path fill="none" stroke="#9a32cd" stroke-dasharray="5,2" d="M1045.41,-312.29C1103.01,-314.8 1177.73,-318.34 1244,-322.36 1296.85,-325.57 1356.48,-330 1401.78,-333.54"/>
<polygon fill="#9a32cd" stroke="#9a32cd" points="1045.37,-308.78 1035.23,-311.84 1045.07,-315.77 1045.37,-308.78"/>
<text text-anchor="middle" x="1148.5" y="-325.76" font-family="Helvetica,sans-Serif" font-size="12.00"> barchartStyle</text>
</g>
<!-- Node15&#45;&gt;Node11 -->
<g id="edge17" class="edge">
<title>Node15&#45;&gt;Node11</title>
<path fill="none" stroke="#9a32cd" stroke-dasharray="5,2" d="M1042.82,-272.16C1100.86,-277.52 1176.95,-285.44 1244,-295.36 1306.94,-304.68 1378.88,-319.05 1425.3,-328.81"/>
<polygon fill="#9a32cd" stroke="#9a32cd" points="1042.84,-268.65 1032.56,-271.23 1042.2,-275.62 1042.84,-268.65"/>
<text text-anchor="middle" x="1148.5" y="-298.76" font-family="Helvetica,sans-Serif" font-size="12.00"> impulseStyle</text>
</g>
<!-- Node16&#45;&gt;Node11 -->
<g id="edge19" class="edge">
<title>Node16&#45;&gt;Node11</title>
<path fill="none" stroke="#9a32cd" stroke-dasharray="5,2" d="M854.28,-416.04C953.78,-426.44 1109.77,-437.22 1244,-422.36 1296.51,-416.55 1315.03,-424.11 1360,-396.36 1370.75,-389.73 1367.7,-381.68 1378,-374.36 1393.48,-363.38 1412.79,-355.46 1430.02,-349.97"/>
<polygon fill="#9a32cd" stroke="#9a32cd" points="854.55,-412.55 844.24,-414.97 853.81,-419.51 854.55,-412.55"/>
<text text-anchor="middle" x="1148.5" y="-432.76" font-family="Helvetica,sans-Serif" font-size="12.00"> geometricStyle</text>
</g>
<!-- Node17 -->
<g id="node17" class="node">
<title>Node17</title>
<g id="a_node17"><a xlink:href="class_j_k_q_t_annotations_specific_style_properties.html" target="_top" xlink:title="Support Class for JKQTBasePlotter, which summarizes all properties that define the visual styling of ...">
<polygon fill="none" stroke="black" points="1053,-378.36 1053,-412.36 1244,-412.36 1244,-378.36 1053,-378.36"/>
<text text-anchor="start" x="1061" y="-398.76" font-family="Helvetica,sans-Serif" font-size="12.00">JKQTAnnotationsSpecificStyle</text>
<text text-anchor="middle" x="1148.5" y="-385.76" font-family="Helvetica,sans-Serif" font-size="12.00">Properties</text>
</a>
</g>
</g>
<!-- Node16&#45;&gt;Node17 -->
<g id="edge22" class="edge">
<title>Node16&#45;&gt;Node17</title>
<path fill="none" stroke="midnightblue" d="M854.07,-401.31C915.27,-400.07 992.83,-398.5 1052.84,-397.28"/>
<polygon fill="midnightblue" stroke="midnightblue" points="853.93,-397.82 844,-401.52 854.07,-404.81 853.93,-397.82"/>
</g>
<!-- Node17&#45;&gt;Node11 -->
<g id="edge21" class="edge">
<title>Node17&#45;&gt;Node11</title>
<path fill="none" stroke="#9a32cd" stroke-dasharray="5,2" d="M1254.16,-380.65C1288,-375.57 1325.65,-369.58 1360,-363.36 1382.09,-359.36 1406.46,-354.32 1426.97,-349.89"/>
<polygon fill="#9a32cd" stroke="#9a32cd" points="1253.63,-377.19 1244.26,-382.12 1254.67,-384.11 1253.63,-377.19"/>
<text text-anchor="middle" x="1311" y="-382.76" font-family="Helvetica,sans-Serif" font-size="12.00"> annotationStyle</text>
</g>
<!-- Node18&#45;&gt;Node5 -->
<g id="edge23" class="edge">
<title>Node18&#45;&gt;Node5</title>
<path fill="none" stroke="#9a32cd" stroke-dasharray="5,2" d="M1875.55,-403.65C1925.5,-392.71 1996.72,-377.12 2043.51,-366.87"/>
<polygon fill="#9a32cd" stroke="#9a32cd" points="1874.56,-400.29 1865.54,-405.84 1876.06,-407.12 1874.56,-400.29"/>
<text text-anchor="middle" x="1954.5" y="-399.76" font-family="Helvetica,sans-Serif" font-size="12.00"> mathText</text>
</g>
<!-- Node19 -->
<g id="node19" class="node">
<title>Node19</title>
<g id="a_node19"><a xlink:href="class_j_k_q_t_math_text_node.html" target="_top" xlink:title="subclass representing one node in the syntax tree">
<polygon fill="none" stroke="black" points="2027,-429.86 2027,-450.86 2158,-450.86 2158,-429.86 2027,-429.86"/>
<text text-anchor="middle" x="2092.5" y="-437.26" font-family="Helvetica,sans-Serif" font-size="12.00">JKQTMathTextNode</text>
</a>
</g>
</g>
<!-- Node18&#45;&gt;Node19 -->
<g id="edge26" class="edge">
<title>Node18&#45;&gt;Node19</title>
<path fill="none" stroke="#9a32cd" stroke-dasharray="5,2" d="M1859.98,-429.69C1874.43,-433.61 1890.78,-437.38 1906,-439.36 1945.92,-444.58 1991.08,-444.94 2026.85,-443.94"/>
<polygon fill="#9a32cd" stroke="#9a32cd" points="1860.89,-426.31 1850.31,-426.97 1858.99,-433.05 1860.89,-426.31"/>
<text text-anchor="middle" x="1954.5" y="-447.76" font-family="Helvetica,sans-Serif" font-size="12.00"> parentMathText</text>
</g>
<!-- Node19&#45;&gt;Node18 -->
<g id="edge25" class="edge">
<title>Node19&#45;&gt;Node18</title>
<path fill="none" stroke="#9a32cd" stroke-dasharray="5,2" d="M2019.92,-428.4C2014.2,-427.64 2008.51,-426.95 2003,-426.36 1956.65,-421.46 1903.53,-418.91 1866.04,-417.61"/>
<polygon fill="#9a32cd" stroke="#9a32cd" points="2019.81,-431.92 2030.19,-429.83 2020.77,-424.98 2019.81,-431.92"/>
<text text-anchor="middle" x="1954.5" y="-429.76" font-family="Helvetica,sans-Serif" font-size="12.00"> parsedNode</text>
</g>
<!-- Node19&#45;&gt;Node19 -->
<g id="edge27" class="edge">
<title>Node19&#45;&gt;Node19</title>
<path fill="none" stroke="#9a32cd" stroke-dasharray="5,2" d="M2066.93,-460.42C2068.61,-465.53 2077.13,-469.36 2092.5,-469.36 2116.49,-469.36 2123.8,-460.02 2114.43,-451.07"/>
<polygon fill="#9a32cd" stroke="#9a32cd" points="2070.21,-461.66 2070.57,-451.07 2063.68,-459.12 2070.21,-461.66"/>
<text text-anchor="middle" x="2092.5" y="-472.76" font-family="Helvetica,sans-Serif" font-size="12.00"> parentNode</text>
</g>
<!-- Node20&#45;&gt;Node5 -->
<g id="edge28" class="edge">
<title>Node20&#45;&gt;Node5</title>
<path fill="none" stroke="#9a32cd" stroke-dasharray="5,2" d="M2374.8,-447.94C2351.18,-441.07 2321.64,-432.81 2295,-426.36 2245.19,-414.31 2230.24,-420.67 2182,-403.36 2155.47,-393.85 2127.08,-377.55 2109.8,-366.87"/>
<polygon fill="#9a32cd" stroke="#9a32cd" points="2373.95,-451.34 2384.53,-450.79 2375.92,-444.62 2373.95,-451.34"/>
<text text-anchor="middle" x="2238.5" y="-429.76" font-family="Helvetica,sans-Serif" font-size="12.00"> m_plotsModel</text>
</g>
<!-- Node21 -->
<g id="node21" class="node">
<title>Node21</title>
<g id="a_node21"><a xlink:title=" ">
<polygon fill="none" stroke="black" points="2021,-500.86 2021,-521.86 2164,-521.86 2164,-500.86 2021,-500.86"/>
<text text-anchor="middle" x="2092.5" y="-508.26" font-family="Helvetica,sans-Serif" font-size="12.00">QAbstractTableModel</text>
</a>
</g>
</g>
<!-- Node21&#45;&gt;Node20 -->
<g id="edge29" class="edge">
<title>Node21&#45;&gt;Node20</title>
<path fill="none" stroke="midnightblue" d="M2172.45,-499.25C2228.32,-490.69 2302.34,-479.33 2354.74,-471.3"/>
<polygon fill="midnightblue" stroke="midnightblue" points="2171.59,-495.85 2162.24,-500.82 2172.65,-502.76 2171.59,-495.85"/>
</g>
<!-- Node22 -->
<g id="node22" class="node">
<title>Node22</title>
<g id="a_node22"><a xlink:href="class_j_k_q_t_p_horizontal_axis.html" target="_top" xlink:title="implements a horizontal axis, based on JKQTPCoordinateAxis (for most of documentation: see JKQTPCoord...">
<polygon fill="none" stroke="black" points="2601,-368.86 2601,-389.86 2738,-389.86 2738,-368.86 2601,-368.86"/>
<text text-anchor="middle" x="2669.5" y="-376.26" font-family="Helvetica,sans-Serif" font-size="12.00">JKQTPHorizontalAxis</text>
</a>
</g>
</g>
<!-- Node22&#45;&gt;Node5 -->
<g id="edge31" class="edge">
<title>Node22&#45;&gt;Node5</title>
<path fill="none" stroke="#9a32cd" stroke-dasharray="5,2" d="M2590.43,-381.24C2494.19,-382.78 2325.71,-383 2182,-370.36 2171.46,-369.44 2160.28,-368.02 2149.54,-366.43"/>
<polygon fill="#9a32cd" stroke="#9a32cd" points="2590.72,-384.73 2600.66,-381.06 2590.6,-377.73 2590.72,-384.73"/>
<text text-anchor="middle" x="2420.5" y="-384.76" font-family="Helvetica,sans-Serif" font-size="12.00"> xAxis</text>
</g>
<!-- Node23&#45;&gt;Node22 -->
<g id="edge32" class="edge">
<title>Node23&#45;&gt;Node22</title>
<path fill="none" stroke="midnightblue" d="M2491.57,-309.37C2503.93,-312.63 2516.51,-316.6 2528,-321.36 2545.88,-328.79 2547.49,-336.1 2565,-344.36 2585.93,-354.24 2610.41,-362.66 2630.31,-368.76"/>
<polygon fill="midnightblue" stroke="midnightblue" points="2492.28,-305.94 2481.73,-306.91 2490.58,-312.73 2492.28,-305.94"/>
</g>
<!-- Node24 -->
<g id="node24" class="node">
<title>Node24</title>
<g id="a_node24"><a xlink:href="class_j_k_q_t_p_vertical_axis.html" target="_top" xlink:title="implements a vertical axis, based on JKQTPCoordinateAxis (for most of documentation: see JKQTPCoordin...">
<polygon fill="none" stroke="black" points="2608.5,-313.86 2608.5,-334.86 2730.5,-334.86 2730.5,-313.86 2608.5,-313.86"/>
<text text-anchor="middle" x="2669.5" y="-321.26" font-family="Helvetica,sans-Serif" font-size="12.00">JKQTPVerticalAxis</text>
</a>
</g>
</g>
<!-- Node23&#45;&gt;Node24 -->
<g id="edge37" class="edge">
<title>Node23&#45;&gt;Node24</title>
<path fill="none" stroke="midnightblue" d="M2501.71,-305.46C2536.36,-309.38 2576.21,-313.9 2608.26,-317.54"/>
<polygon fill="midnightblue" stroke="midnightblue" points="2501.95,-301.96 2491.62,-304.31 2501.16,-308.92 2501.95,-301.96"/>
</g>
<!-- Node24&#45;&gt;Node5 -->
<g id="edge36" class="edge">
<title>Node24&#45;&gt;Node5</title>
<path fill="none" stroke="#9a32cd" stroke-dasharray="5,2" d="M2598.07,-328.28C2482.55,-334.71 2255.15,-347.37 2149.68,-353.24"/>
<polygon fill="#9a32cd" stroke="#9a32cd" points="2598.43,-331.77 2608.22,-327.72 2598.04,-324.78 2598.43,-331.77"/>
<text text-anchor="middle" x="2420.5" y="-346.76" font-family="Helvetica,sans-Serif" font-size="12.00"> yAxis</text>
</g>
<!-- Node25 -->
<g id="node25" class="node">
<title>Node25</title>
<g id="a_node25"><a xlink:href="class_j_k_q_t_p_datastore.html" target="_top" xlink:title="This class manages data columns (with entries of type double ), used by JKQTPlotter/JKQTBasePlotter t...">
<polygon fill="none" stroke="black" points="1761,-19.86 1761,-40.86 1872,-40.86 1872,-19.86 1761,-19.86"/>
<text text-anchor="middle" x="1816.5" y="-27.26" font-family="Helvetica,sans-Serif" font-size="12.00">JKQTPDatastore</text>
</a>
</g>
</g>
<!-- Node25&#45;&gt;Node5 -->
<g id="edge38" class="edge">
<title>Node25&#45;&gt;Node5</title>
<path fill="none" stroke="#9a32cd" stroke-dasharray="5,2" d="M1881.4,-45.73C1883.71,-47.14 1885.92,-48.68 1888,-50.36 1901.29,-61.12 1897.17,-69.72 1906,-84.36 1969.47,-189.6 2057.17,-309.92 2083.63,-345.77"/>
<polygon fill="#9a32cd" stroke="#9a32cd" points="1882.58,-42.4 1872.09,-40.91 1879.36,-48.62 1882.58,-42.4"/>
<text text-anchor="middle" x="1954.5" y="-229.76" font-family="Helvetica,sans-Serif" font-size="12.00"> datastore</text>
</g>
<!-- Node27 -->
<g id="node27" class="node">
<title>Node27</title>
<g id="a_node27"><a xlink:href="class_j_k_q_t_p_column.html" target="_top" xlink:title="internally stores information about one data column. See JKQTPDatastore for more information.">
<polygon fill="none" stroke="black" points="2043.5,-26.86 2043.5,-47.86 2141.5,-47.86 2141.5,-26.86 2043.5,-26.86"/>
<text text-anchor="middle" x="2092.5" y="-34.26" font-family="Helvetica,sans-Serif" font-size="12.00">JKQTPColumn</text>
</a>
</g>
</g>
<!-- Node25&#45;&gt;Node27 -->
<g id="edge41" class="edge">
<title>Node25&#45;&gt;Node27</title>
<path fill="none" stroke="#9a32cd" stroke-dasharray="5,2" d="M1882.54,-32.03C1931.87,-33.29 1998.58,-34.99 2043.22,-36.13"/>
<polygon fill="#9a32cd" stroke="#9a32cd" points="1882.38,-28.52 1872.29,-31.76 1882.2,-35.52 1882.38,-28.52"/>
<text text-anchor="middle" x="1954.5" y="-38.76" font-family="Helvetica,sans-Serif" font-size="12.00"> datastore</text>
</g>
<!-- Node26 -->
<g id="node26" class="node">
<title>Node26</title>
<g id="a_node26"><a xlink:title=" ">
<polygon fill="none" stroke="black" points="2313,-45.86 2313,-66.86 2528,-66.86 2528,-45.86 2313,-45.86"/>
<text text-anchor="middle" x="2420.5" y="-53.26" font-family="Helvetica,sans-Serif" font-size="12.00">std::unique_ptr&lt; JKQTPColumn &gt;</text>
</a>
</g>
</g>
<!-- Node26&#45;&gt;Node25 -->
<g id="edge39" class="edge">
<title>Node26&#45;&gt;Node25</title>
<path fill="none" stroke="#9a32cd" stroke-dasharray="5,2" d="M2351.76,-43.92C2338.88,-41.47 2325.52,-38.88 2313,-36.36 2246.6,-23 2231.35,-11.52 2164,-4.36 2100.8,2.35 2084.43,-0.33 2021,-4.36 1970.35,-7.59 1913.03,-15.28 1872.16,-21.46"/>
<polygon fill="#9a32cd" stroke="#9a32cd" points="2351.49,-47.43 2361.96,-45.84 2352.79,-40.55 2351.49,-47.43"/>
<text text-anchor="middle" x="2092.5" y="-7.76" font-family="Helvetica,sans-Serif" font-size="12.00"> m_invalidColumn</text>
</g>
<!-- Node27&#45;&gt;Node26 -->
<g id="edge40" class="edge">
<title>Node27&#45;&gt;Node26</title>
<path fill="none" stroke="#9a32cd" stroke-dasharray="5,2" d="M2151.78,-36.49C2192.06,-36.32 2246.85,-36.92 2295,-40.36 2312.39,-41.61 2331.07,-43.64 2348.53,-45.84"/>
<polygon fill="#9a32cd" stroke="#9a32cd" points="2151.59,-33 2141.61,-36.56 2151.63,-40 2151.59,-33"/>
<text text-anchor="middle" x="2238.5" y="-43.76" font-family="Helvetica,sans-Serif" font-size="12.00"> ptr</text>
</g>
<!-- Node28 -->
<g id="node28" class="node">
<title>Node28</title>
<g id="a_node28"><a xlink:title=" ">
<polygon fill="none" stroke="black" points="2022.5,-66.86 2022.5,-87.86 2162.5,-87.86 2162.5,-66.86 2022.5,-66.86"/>
<text text-anchor="middle" x="2092.5" y="-74.26" font-family="Helvetica,sans-Serif" font-size="12.00">std::unique_ptr&lt; T &gt;</text>
</a>
</g>
</g>
<!-- Node28&#45;&gt;Node26 -->
<g id="edge42" class="edge">
<title>Node28&#45;&gt;Node26</title>
<path fill="none" stroke="orange" stroke-dasharray="5,2" d="M2172.84,-72.25C2214.96,-69.54 2267.3,-66.17 2312.92,-63.23"/>
<polygon fill="orange" stroke="orange" points="2172.39,-68.77 2162.64,-72.91 2172.84,-75.76 2172.39,-68.77"/>
<text text-anchor="middle" x="2238.5" y="-74.76" font-family="Helvetica,sans-Serif" font-size="12.00"> &lt; JKQTPColumn &gt;</text>
</g>
<!-- Node29 -->
<g id="node29" class="node">
<title>Node29</title>
<g id="a_node29"><a xlink:title=" ">
<polygon fill="none" stroke="black" points="1802,-59.86 1802,-80.86 1831,-80.86 1831,-59.86 1802,-59.86"/>
<text text-anchor="middle" x="1816.5" y="-67.26" font-family="Helvetica,sans-Serif" font-size="12.00">T</text>
</a>
</g>
</g>
<!-- Node29&#45;&gt;Node28 -->
<g id="edge43" class="edge">
<title>Node29&#45;&gt;Node28</title>
<path fill="none" stroke="#9a32cd" stroke-dasharray="5,2" d="M1841.25,-70.02C1876.54,-69.61 1944.92,-69.24 2003,-71.36 2009.31,-71.59 2015.87,-71.91 2022.43,-72.26"/>
<polygon fill="#9a32cd" stroke="#9a32cd" points="1840.96,-66.52 1831.01,-70.15 1841.05,-73.52 1840.96,-66.52"/>
<text text-anchor="middle" x="1954.5" y="-74.76" font-family="Helvetica,sans-Serif" font-size="12.00"> ptr</text>
</g>
<!-- Node30 -->
<g id="node30" class="node">
<title>Node30</title>
<g id="a_node30"><a xlink:href="class_j_k_q_t_p_graph_decorated_head_line_style_mixin.html" target="_top" xlink:title="This Mix&#45;In class provides setter/getter methods, storage and other facilities for the graph line sty...">
<polygon fill="none" stroke="black" points="2565,-142.36 2565,-176.36 2774,-176.36 2774,-142.36 2565,-142.36"/>
<text text-anchor="start" x="2573" y="-162.76" font-family="Helvetica,sans-Serif" font-size="12.00">JKQTPGraphDecoratedHeadLine</text>
<text text-anchor="middle" x="2669.5" y="-149.76" font-family="Helvetica,sans-Serif" font-size="12.00">StyleMixin</text>
</a>
</g>
</g>
<!-- Node30&#45;&gt;Node1 -->
<g id="edge45" class="edge">
<title>Node30&#45;&gt;Node1</title>
<path fill="none" stroke="midnightblue" d="M2748.4,-178.84C2791.92,-189.72 2844.45,-202.85 2880.35,-211.83"/>
<polygon fill="midnightblue" stroke="midnightblue" points="2749.25,-175.44 2738.69,-176.41 2747.55,-182.23 2749.25,-175.44"/>
</g>
<!-- Node31 -->
<g id="node31" class="node">
<title>Node31</title>
<g id="a_node31"><a xlink:href="class_j_k_q_t_p_graph_line_style_mixin.html" target="_top" xlink:title="This Mix&#45;In class provides setter/getter methods, storage and other facilities for the graph line sty...">
<polygon fill="none" stroke="black" points="2333.5,-5.86 2333.5,-26.86 2507.5,-26.86 2507.5,-5.86 2333.5,-5.86"/>
<text text-anchor="middle" x="2420.5" y="-13.26" font-family="Helvetica,sans-Serif" font-size="12.00">JKQTPGraphLineStyleMixin</text>
</a>
</g>
</g>
<!-- Node31&#45;&gt;Node30 -->
<g id="edge46" class="edge">
<title>Node31&#45;&gt;Node30</title>
<path fill="none" stroke="midnightblue" d="M2512.6,-30.02C2517.91,-31.87 2523.08,-33.97 2528,-36.36 2581.94,-62.58 2631.29,-115.14 2654.52,-142.28"/>
<polygon fill="midnightblue" stroke="midnightblue" points="2513.52,-26.63 2502.93,-26.94 2511.4,-33.31 2513.52,-26.63"/>
</g>
</g>
</svg>
