<?xml version="1.0" encoding="UTF-8" standalone="no"?>
<!DOCTYPE svg PUBLIC "-//W3C//DTD SVG 1.1//EN"
 "http://www.w3.org/Graphics/SVG/1.1/DTD/svg11.dtd">
<!-- Generated by graphviz version 2.43.0 (0)
 -->
<!-- Title: JKQTPXYParametrizedScatterGraph Pages: 1 -->
<svg width="3405pt" height="512pt"
 viewBox="0.00 0.00 3405.00 512.49" xmlns="http://www.w3.org/2000/svg" xmlns:xlink="http://www.w3.org/1999/xlink">
<g id="graph0" class="graph" transform="scale(1 1) rotate(0) translate(4 508.49)">
<title>JKQTPXYParametrizedScatterGraph</title>
<!-- Node1 -->
<g id="node1" class="node">
<title>Node1</title>
<g id="a_node1"><a xlink:title="This implements xy scatter plots (like JKQTPXYLineGraph), but the color and size of the symbols may b...">
<polygon fill="#bfbfbf" stroke="black" points="3217,-325.49 3217,-359.49 3397,-359.49 3397,-325.49 3217,-325.49"/>
<text text-anchor="start" x="3225" y="-345.89" font-family="FreeSans" font-size="12.00">JKQTPXYParametrizedScatter</text>
<text text-anchor="middle" x="3307" y="-332.89" font-family="FreeSans" font-size="12.00">Graph</text>
</a>
</g>
</g>
<!-- Node2 -->
<g id="node2" class="node">
<title>Node2</title>
<g id="a_node2"><a xlink:href="class_j_k_q_t_p_x_y_line_graph.html" target="_top" xlink:title="This implements xy line plots. This also alows to draw symbols at the data points.">
<polygon fill="none" stroke="black" points="3032.5,-232.99 3032.5,-253.99 3160.5,-253.99 3160.5,-232.99 3032.5,-232.99"/>
<text text-anchor="middle" x="3096.5" y="-240.39" font-family="FreeSans" font-size="12.00">JKQTPXYLineGraph</text>
</a>
</g>
</g>
<!-- Node2&#45;&gt;Node1 -->
<g id="edge1" class="edge">
<title>Node2&#45;&gt;Node1</title>
<path fill="none" stroke="midnightblue" d="M3129.33,-258.6C3167.2,-276.59 3230.29,-306.54 3269.93,-325.37"/>
<polygon fill="midnightblue" stroke="midnightblue" points="3130.35,-255.21 3119.81,-254.08 3127.35,-261.54 3130.35,-255.21"/>
</g>
<!-- Node3 -->
<g id="node3" class="node">
<title>Node3</title>
<g id="a_node3"><a xlink:href="class_j_k_q_t_p_x_y_graph.html" target="_top" xlink:title="This virtual JKQTPGraph descendent may be used as base for all graphs that use at least two columns t...">
<polygon fill="none" stroke="black" points="2725.5,-172.99 2725.5,-193.99 2830.5,-193.99 2830.5,-172.99 2725.5,-172.99"/>
<text text-anchor="middle" x="2778" y="-180.39" font-family="FreeSans" font-size="12.00">JKQTPXYGraph</text>
</a>
</g>
</g>
<!-- Node3&#45;&gt;Node2 -->
<g id="edge2" class="edge">
<title>Node3&#45;&gt;Node2</title>
<path fill="none" stroke="midnightblue" d="M2840.66,-195.18C2898.5,-206.14 2984.21,-222.39 3039.97,-232.96"/>
<polygon fill="midnightblue" stroke="midnightblue" points="2841.03,-191.69 2830.56,-193.26 2839.73,-198.57 2841.03,-191.69"/>
</g>
<!-- Node4 -->
<g id="node4" class="node">
<title>Node4</title>
<g id="a_node4"><a xlink:href="class_j_k_q_t_p_graph.html" target="_top" xlink:title="this virtual base class of the (data&#45;column based) graphs, which are part of a JKQTPlotter plot and w...">
<polygon fill="none" stroke="black" points="2530,-218.99 2530,-239.99 2619,-239.99 2619,-218.99 2530,-218.99"/>
<text text-anchor="middle" x="2574.5" y="-226.39" font-family="FreeSans" font-size="12.00">JKQTPGraph</text>
</a>
</g>
</g>
<!-- Node4&#45;&gt;Node3 -->
<g id="edge3" class="edge">
<title>Node4&#45;&gt;Node3</title>
<path fill="none" stroke="midnightblue" d="M2625.4,-216.31C2642.08,-212.04 2660.8,-207.41 2678,-203.49 2693.3,-200.01 2710,-196.51 2725.26,-193.44"/>
<polygon fill="midnightblue" stroke="midnightblue" points="2624.12,-213.03 2615.31,-218.91 2625.86,-219.8 2624.12,-213.03"/>
</g>
<!-- Node5 -->
<g id="node5" class="node">
<title>Node5</title>
<g id="a_node5"><a xlink:href="class_j_k_q_t_p_plot_element.html" target="_top" xlink:title="this virtual base class of every element, which is part of a JKQTPlotter plot and may appear in its k...">
<polygon fill="none" stroke="black" points="2315,-230.99 2315,-251.99 2433,-251.99 2433,-230.99 2315,-230.99"/>
<text text-anchor="middle" x="2374" y="-238.39" font-family="FreeSans" font-size="12.00">JKQTPPlotElement</text>
</a>
</g>
</g>
<!-- Node5&#45;&gt;Node4 -->
<g id="edge4" class="edge">
<title>Node5&#45;&gt;Node4</title>
<path fill="none" stroke="midnightblue" d="M2443.56,-237.35C2472.16,-235.62 2504.53,-233.66 2529.81,-232.13"/>
<polygon fill="midnightblue" stroke="midnightblue" points="2442.99,-233.87 2433.22,-237.97 2443.41,-240.86 2442.99,-233.87"/>
</g>
<!-- Node6 -->
<g id="node6" class="node">
<title>Node6</title>
<g id="a_node6"><a xlink:title=" ">
<polygon fill="none" stroke="black" points="1414,-276.99 1414,-297.99 1476,-297.99 1476,-276.99 1414,-276.99"/>
<text text-anchor="middle" x="1445" y="-284.39" font-family="FreeSans" font-size="12.00">QObject</text>
</a>
</g>
</g>
<!-- Node6&#45;&gt;Node5 -->
<g id="edge5" class="edge">
<title>Node6&#45;&gt;Node5</title>
<path fill="none" stroke="midnightblue" d="M1486.09,-277.54C1557.8,-260.15 1712.98,-224.38 1846,-206.49 1982.86,-188.08 2017.99,-190.16 2156,-185.49 2201.75,-183.94 2220.06,-161.42 2259,-185.49 2274.22,-194.89 2262.83,-210.58 2277,-221.49 2287.86,-229.85 2301.38,-234.93 2314.82,-237.97"/>
<polygon fill="midnightblue" stroke="midnightblue" points="1485.01,-274.2 1476.13,-279.97 1486.67,-281 1485.01,-274.2"/>
</g>
<!-- Node7 -->
<g id="node7" class="node">
<title>Node7</title>
<g id="a_node7"><a xlink:href="class_j_k_q_t_base_plotter.html" target="_top" xlink:title="base class for 2D plotter classes (used by the plotter widget JKQTPlotter)">
<polygon fill="none" stroke="black" points="2017,-247.99 2017,-268.99 2126,-268.99 2126,-247.99 2017,-247.99"/>
<text text-anchor="middle" x="2071.5" y="-255.39" font-family="FreeSans" font-size="12.00">JKQTBasePlotter</text>
</a>
</g>
</g>
<!-- Node6&#45;&gt;Node7 -->
<g id="edge7" class="edge">
<title>Node6&#45;&gt;Node7</title>
<path fill="none" stroke="midnightblue" d="M1486.33,-285.62C1595.03,-280.57 1894.13,-266.68 2016.87,-260.98"/>
<polygon fill="midnightblue" stroke="midnightblue" points="1485.95,-282.13 1476.12,-286.09 1486.27,-289.12 1485.95,-282.13"/>
</g>
<!-- Node18 -->
<g id="node18" class="node">
<title>Node18</title>
<g id="a_node18"><a xlink:href="class_j_k_q_t_math_text.html" target="_top" xlink:title="this class parses a LaTeX string and can then draw the contained text/equation onto a QPainter">
<polygon fill="none" stroke="black" points="1711.5,-298.99 1711.5,-319.99 1809.5,-319.99 1809.5,-298.99 1711.5,-298.99"/>
<text text-anchor="middle" x="1760.5" y="-306.39" font-family="FreeSans" font-size="12.00">JKQTMathText</text>
</a>
</g>
</g>
<!-- Node6&#45;&gt;Node18 -->
<g id="edge23" class="edge">
<title>Node6&#45;&gt;Node18</title>
<path fill="none" stroke="midnightblue" d="M1486.23,-290.31C1543.8,-294.35 1649.53,-301.77 1711.24,-306.1"/>
<polygon fill="midnightblue" stroke="midnightblue" points="1486.28,-286.81 1476.06,-289.6 1485.79,-293.79 1486.28,-286.81"/>
</g>
<!-- Node23 -->
<g id="node23" class="node">
<title>Node23</title>
<g id="a_node23"><a xlink:href="class_j_k_q_t_p_coordinate_axis.html" target="_top" xlink:title="this virtual class is the base for any type of coordinate axis, to be drawn by JKQTBasePlotter.">
<polygon fill="none" stroke="black" points="2305.5,-361.99 2305.5,-382.99 2442.5,-382.99 2442.5,-361.99 2305.5,-361.99"/>
<text text-anchor="middle" x="2374" y="-369.39" font-family="FreeSans" font-size="12.00">JKQTPCoordinateAxis</text>
</a>
</g>
</g>
<!-- Node6&#45;&gt;Node23 -->
<g id="edge32" class="edge">
<title>Node6&#45;&gt;Node23</title>
<path fill="none" stroke="midnightblue" d="M1486.1,-296.89C1506.43,-301.63 1531.51,-307.42 1554,-312.49 1809.63,-370.09 1876.22,-405.16 2138,-393.49 2194.57,-390.97 2258.58,-385.04 2305.49,-380.13"/>
<polygon fill="midnightblue" stroke="midnightblue" points="1486.77,-293.45 1476.24,-294.59 1485.18,-300.27 1486.77,-293.45"/>
</g>
<!-- Node7&#45;&gt;Node5 -->
<g id="edge6" class="edge">
<title>Node7&#45;&gt;Node5</title>
<path fill="none" stroke="#9a32cd" stroke-dasharray="5,2" d="M2136.39,-258.57C2172.43,-258.26 2218.27,-257.24 2259,-254.49 2277.19,-253.26 2296.93,-251.25 2314.81,-249.17"/>
<polygon fill="#9a32cd" stroke="#9a32cd" points="2135.99,-255.08 2126.02,-258.65 2136.04,-262.08 2135.99,-255.08"/>
<text text-anchor="middle" x="2207.5" y="-260.89" font-family="FreeSans" font-size="12.00"> parent</text>
</g>
<!-- Node7&#45;&gt;Node7 -->
<g id="edge43" class="edge">
<title>Node7&#45;&gt;Node7</title>
<path fill="none" stroke="#9a32cd" stroke-dasharray="5,2" d="M2046.3,-278.55C2047.96,-283.65 2056.36,-287.49 2071.5,-287.49 2095.14,-287.49 2102.34,-278.14 2093.11,-269.2"/>
<polygon fill="#9a32cd" stroke="#9a32cd" points="2049.58,-279.79 2049.89,-269.2 2043.04,-277.28 2049.58,-279.79"/>
<text text-anchor="middle" x="2071.5" y="-303.89" font-family="FreeSans" font-size="12.00"> masterPlotterX</text>
<text text-anchor="middle" x="2071.5" y="-290.89" font-family="FreeSans" font-size="12.00">masterPlotterY</text>
</g>
<!-- Node20 -->
<g id="node20" class="node">
<title>Node20</title>
<g id="a_node20"><a xlink:href="class_j_k_q_t_p_graphs_model.html" target="_top" xlink:title="data model with all plots ina JKQTBasePlotter (+ allows to switch them visible/invisible)">
<polygon fill="none" stroke="black" points="2310,-190.99 2310,-211.99 2438,-211.99 2438,-190.99 2310,-190.99"/>
<text text-anchor="middle" x="2374" y="-198.39" font-family="FreeSans" font-size="12.00">JKQTPGraphsModel</text>
</a>
</g>
</g>
<!-- Node7&#45;&gt;Node20 -->
<g id="edge29" class="edge">
<title>Node7&#45;&gt;Node20</title>
<path fill="none" stroke="#9a32cd" stroke-dasharray="5,2" d="M2090.69,-241.23C2106.54,-227.46 2130.86,-209.25 2156,-201.49 2206.04,-186.04 2265.71,-187.37 2309.81,-191.81"/>
<polygon fill="#9a32cd" stroke="#9a32cd" points="2088.32,-238.65 2083.22,-247.94 2093,-243.86 2088.32,-238.65"/>
<text text-anchor="middle" x="2207.5" y="-204.89" font-family="FreeSans" font-size="12.00"> m_plotter</text>
</g>
<!-- Node7&#45;&gt;Node23 -->
<g id="edge33" class="edge">
<title>Node7&#45;&gt;Node23</title>
<path fill="none" stroke="#9a32cd" stroke-dasharray="5,2" d="M2091.65,-276.13C2105.02,-288.69 2123.06,-306.18 2138,-322.49 2146.53,-331.81 2144.95,-338.36 2156,-344.49 2180.95,-358.34 2251.36,-365.58 2305.28,-369.19"/>
<polygon fill="#9a32cd" stroke="#9a32cd" points="2093.7,-273.26 2084,-268.99 2088.93,-278.38 2093.7,-273.26"/>
<text text-anchor="middle" x="2207.5" y="-367.89" font-family="FreeSans" font-size="12.00"> parent</text>
</g>
<!-- Node32 -->
<g id="node32" class="node">
<title>Node32</title>
<g id="a_node32"><a xlink:href="class_j_k_q_t_p_color_palette_style_and_tools_mixin.html" target="_top" xlink:title="if a class is derived from this class, it may use color bars">
<polygon fill="none" stroke="black" points="3013,-325.49 3013,-359.49 3180,-359.49 3180,-325.49 3013,-325.49"/>
<text text-anchor="start" x="3021" y="-345.89" font-family="FreeSans" font-size="12.00">JKQTPColorPaletteStyleAnd</text>
<text text-anchor="middle" x="3096.5" y="-332.89" font-family="FreeSans" font-size="12.00">ToolsMixin</text>
</a>
</g>
</g>
<!-- Node7&#45;&gt;Node32 -->
<g id="edge47" class="edge">
<title>Node7&#45;&gt;Node32</title>
<path fill="none" stroke="#9a32cd" stroke-dasharray="5,2" d="M2103.88,-273.35C2119.28,-280.1 2138.29,-287.64 2156,-292.49 2208.44,-306.84 2222.87,-305.42 2277,-310.49 2545.31,-335.62 2864.89,-341.08 3012.82,-342.22"/>
<polygon fill="#9a32cd" stroke="#9a32cd" points="2104.88,-269.96 2094.33,-269.06 2102.02,-276.35 2104.88,-269.96"/>
<text text-anchor="middle" x="2574.5" y="-335.89" font-family="FreeSans" font-size="12.00"> cbParent</text>
</g>
<!-- Node8 -->
<g id="node8" class="node">
<title>Node8</title>
<g id="a_node8"><a xlink:href="class_j_k_q_t_base_plotter_style.html" target="_top" xlink:title="Support Class for JKQTBasePlotter, which summarizes all properties that define the visual styling of ...">
<polygon fill="none" stroke="black" points="1693,-139.99 1693,-160.99 1828,-160.99 1828,-139.99 1693,-139.99"/>
<text text-anchor="middle" x="1760.5" y="-147.39" font-family="FreeSans" font-size="12.00">JKQTBasePlotterStyle</text>
</a>
</g>
</g>
<!-- Node8&#45;&gt;Node7 -->
<g id="edge8" class="edge">
<title>Node8&#45;&gt;Node7</title>
<path fill="none" stroke="#9a32cd" stroke-dasharray="5,2" d="M1802.27,-164.43C1847.48,-179.92 1922.53,-205.76 1987,-228.49 2005.01,-234.84 2025.17,-242.08 2041.16,-247.85"/>
<polygon fill="#9a32cd" stroke="#9a32cd" points="1803.14,-161.03 1792.55,-161.1 1800.87,-167.65 1803.14,-161.03"/>
<text text-anchor="middle" x="1916.5" y="-231.89" font-family="FreeSans" font-size="12.00"> plotterStyle</text>
</g>
<!-- Node9 -->
<g id="node9" class="node">
<title>Node9</title>
<g id="a_node9"><a xlink:href="class_j_k_q_t_p_key_style.html" target="_top" xlink:title="Support Class for JKQTBasePlotter, which summarizes all properties that define the visual styling of ...">
<polygon fill="none" stroke="black" points="1393.5,-215.99 1393.5,-236.99 1496.5,-236.99 1496.5,-215.99 1393.5,-215.99"/>
<text text-anchor="middle" x="1445" y="-223.39" font-family="FreeSans" font-size="12.00">JKQTPKeyStyle</text>
</a>
</g>
</g>
<!-- Node9&#45;&gt;Node8 -->
<g id="edge9" class="edge">
<title>Node9&#45;&gt;Node8</title>
<path fill="none" stroke="#9a32cd" stroke-dasharray="5,2" d="M1506.48,-213.95C1516.39,-211.64 1526.51,-209.12 1536,-206.49 1544.13,-204.24 1545.84,-202.62 1554,-200.49 1606.97,-186.69 1621.94,-190.96 1675,-177.49 1693.36,-172.83 1713.58,-166.41 1729.64,-161.01"/>
<polygon fill="#9a32cd" stroke="#9a32cd" points="1505.65,-210.55 1496.68,-216.19 1507.21,-217.37 1505.65,-210.55"/>
<text text-anchor="middle" x="1614.5" y="-203.89" font-family="FreeSans" font-size="12.00"> keyStyle</text>
</g>
<!-- Node10 -->
<g id="node10" class="node">
<title>Node10</title>
<g id="a_node10"><a xlink:href="class_j_k_q_t_p_coordinate_axis_style.html" target="_top" xlink:title="Support Class for JKQTPCoordinateAxis, which summarizes all properties that define the visual styling...">
<polygon fill="none" stroke="black" points="1060,-169.99 1060,-190.99 1224,-190.99 1224,-169.99 1060,-169.99"/>
<text text-anchor="middle" x="1142" y="-177.39" font-family="FreeSans" font-size="12.00">JKQTPCoordinateAxisStyle</text>
</a>
</g>
</g>
<!-- Node10&#45;&gt;Node8 -->
<g id="edge10" class="edge">
<title>Node10&#45;&gt;Node8</title>
<path fill="none" stroke="#9a32cd" stroke-dasharray="5,2" d="M1183.58,-166.86C1225.64,-153.51 1293.57,-134.1 1354,-126.49 1475.75,-111.16 1619.33,-127.76 1698.81,-139.96"/>
<polygon fill="#9a32cd" stroke="#9a32cd" points="1182.43,-163.56 1173.98,-169.95 1184.58,-170.22 1182.43,-163.56"/>
<text text-anchor="middle" x="1445" y="-142.89" font-family="FreeSans" font-size="12.00"> xAxisStyle</text>
<text text-anchor="middle" x="1445" y="-129.89" font-family="FreeSans" font-size="12.00">yAxisStyle</text>
</g>
<!-- Node12 -->
<g id="node12" class="node">
<title>Node12</title>
<g id="a_node12"><a xlink:href="class_j_k_q_t_p_colorbar_coordinate_axis_style.html" target="_top" xlink:title="Support Class for JKQTPCoordinateAxis, which summarizes all properties that define the visual styling...">
<polygon fill="none" stroke="black" points="1354,-162.49 1354,-196.49 1536,-196.49 1536,-162.49 1354,-162.49"/>
<text text-anchor="start" x="1362" y="-182.89" font-family="FreeSans" font-size="12.00">JKQTPColorbarCoordinateAxis</text>
<text text-anchor="middle" x="1445" y="-169.89" font-family="FreeSans" font-size="12.00">Style</text>
</a>
</g>
</g>
<!-- Node10&#45;&gt;Node12 -->
<g id="edge13" class="edge">
<title>Node10&#45;&gt;Node12</title>
<path fill="none" stroke="midnightblue" d="M1234.08,-180.19C1272.01,-180.06 1315.94,-179.92 1353.78,-179.79"/>
<polygon fill="midnightblue" stroke="midnightblue" points="1234.05,-176.69 1224.06,-180.22 1234.07,-183.69 1234.05,-176.69"/>
</g>
<!-- Node10&#45;&gt;Node23 -->
<g id="edge34" class="edge">
<title>Node10&#45;&gt;Node23</title>
<path fill="none" stroke="#9a32cd" stroke-dasharray="5,2" d="M1152.69,-200.25C1184.77,-262.51 1294.05,-450.49 1444,-450.49 1444,-450.49 1444,-450.49 2072.5,-450.49 2178.68,-450.49 2299.39,-404.3 2349.39,-383.01"/>
<polygon fill="#9a32cd" stroke="#9a32cd" points="1155.69,-198.42 1148.06,-191.07 1149.44,-201.58 1155.69,-198.42"/>
<text text-anchor="middle" x="1760.5" y="-453.89" font-family="FreeSans" font-size="12.00"> axisStyle</text>
</g>
<!-- Node11 -->
<g id="node11" class="node">
<title>Node11</title>
<g id="a_node11"><a xlink:href="class_j_k_q_t_p_grid_style.html" target="_top" xlink:title="Support Class for JKQTPCoordinateAxis, and summarizes all properties that define the visual styling o...">
<polygon fill="none" stroke="black" points="783.5,-169.99 783.5,-190.99 887.5,-190.99 887.5,-169.99 783.5,-169.99"/>
<text text-anchor="middle" x="835.5" y="-177.39" font-family="FreeSans" font-size="12.00">JKQTPGridStyle</text>
</a>
</g>
</g>
<!-- Node11&#45;&gt;Node10 -->
<g id="edge11" class="edge">
<title>Node11&#45;&gt;Node10</title>
<path fill="none" stroke="#9a32cd" stroke-dasharray="5,2" d="M898.06,-180.49C944.67,-180.49 1009.11,-180.49 1059.91,-180.49"/>
<polygon fill="#9a32cd" stroke="#9a32cd" points="897.81,-176.99 887.81,-180.49 897.81,-183.99 897.81,-176.99"/>
<text text-anchor="middle" x="986.5" y="-196.89" font-family="FreeSans" font-size="12.00"> majorGridStyle</text>
<text text-anchor="middle" x="986.5" y="-183.89" font-family="FreeSans" font-size="12.00">minorGridStyle</text>
</g>
<!-- Node12&#45;&gt;Node8 -->
<g id="edge12" class="edge">
<title>Node12&#45;&gt;Node8</title>
<path fill="none" stroke="#9a32cd" stroke-dasharray="5,2" d="M1511.04,-159.85C1525.08,-156.39 1539.93,-153.32 1554,-151.49 1599.99,-145.51 1652.27,-145.35 1692.58,-146.63"/>
<polygon fill="#9a32cd" stroke="#9a32cd" points="1509.8,-156.55 1500.98,-162.42 1511.53,-163.33 1509.8,-156.55"/>
<text text-anchor="middle" x="1614.5" y="-167.89" font-family="FreeSans" font-size="12.00"> rightColorbarAxisStyle</text>
<text text-anchor="middle" x="1614.5" y="-154.89" font-family="FreeSans" font-size="12.00">topColorbarAxisStyle</text>
</g>
<!-- Node13 -->
<g id="node13" class="node">
<title>Node13</title>
<g id="a_node13"><a xlink:href="class_j_k_q_t_graphs_base_style.html" target="_top" xlink:title="Support Class for JKQTBasePlotter, which summarizes all properties that define the visual styling of ...">
<polygon fill="none" stroke="black" points="1374.5,-47.99 1374.5,-68.99 1515.5,-68.99 1515.5,-47.99 1374.5,-47.99"/>
<text text-anchor="middle" x="1445" y="-55.39" font-family="FreeSans" font-size="12.00">JKQTGraphsBaseStyle</text>
</a>
</g>
</g>
<!-- Node13&#45;&gt;Node8 -->
<g id="edge14" class="edge">
<title>Node13&#45;&gt;Node8</title>
<path fill="none" stroke="#9a32cd" stroke-dasharray="5,2" d="M1525.79,-51.98C1573.21,-52.13 1632.25,-59.78 1675,-90.49 1689.53,-100.93 1679.63,-114.6 1693,-126.49 1699.42,-132.2 1707.3,-136.58 1715.37,-139.93"/>
<polygon fill="#9a32cd" stroke="#9a32cd" points="1525.52,-48.48 1515.55,-52.06 1525.58,-55.48 1525.52,-48.48"/>
<text text-anchor="middle" x="1614.5" y="-93.89" font-family="FreeSans" font-size="12.00"> graphsStyle</text>
</g>
<!-- Node14 -->
<g id="node14" class="node">
<title>Node14</title>
<g id="a_node14"><a xlink:href="class_j_k_q_t_graphs_specific_style_properties.html" target="_top" xlink:title="Support Class for JKQTBasePlotter, which summarizes all properties that define the visual styling of ...">
<polygon fill="none" stroke="black" points="370,-58.99 370,-79.99 579,-79.99 579,-58.99 370,-58.99"/>
<text text-anchor="middle" x="474.5" y="-66.39" font-family="FreeSans" font-size="12.00">JKQTGraphsSpecificStyleProperties</text>
</a>
</g>
</g>
<!-- Node14&#45;&gt;Node13 -->
<g id="edge15" class="edge">
<title>Node14&#45;&gt;Node13</title>
<path fill="none" stroke="#9a32cd" stroke-dasharray="5,2" d="M589.3,-71.4C591.89,-71.43 594.46,-71.46 597,-71.49 879.2,-74.73 949.78,-73.85 1232,-72.49 1278.22,-72.27 1289.87,-74.48 1336,-71.49 1348.44,-70.68 1361.64,-69.43 1374.39,-68.01"/>
<polygon fill="#9a32cd" stroke="#9a32cd" points="589.27,-67.9 579.23,-71.27 589.18,-74.9 589.27,-67.9"/>
<text text-anchor="middle" x="986.5" y="-129.89" font-family="FreeSans" font-size="12.00"> barchartStyle</text>
<text text-anchor="middle" x="986.5" y="-116.89" font-family="FreeSans" font-size="12.00">boxplotStyle</text>
<text text-anchor="middle" x="986.5" y="-103.89" font-family="FreeSans" font-size="12.00">defaultGraphStyle</text>
<text text-anchor="middle" x="986.5" y="-90.89" font-family="FreeSans" font-size="12.00">filledStyle</text>
<text text-anchor="middle" x="986.5" y="-77.89" font-family="FreeSans" font-size="12.00">impulseStyle</text>
</g>
<!-- Node16 -->
<g id="node16" class="node">
<title>Node16</title>
<g id="a_node16"><a xlink:href="class_j_k_q_t_geometric_specific_style_properties.html" target="_top" xlink:title="Support Class for JKQTBasePlotter, which summarizes all properties that define the visual styling of ...">
<polygon fill="none" stroke="black" points="750,-29.49 750,-63.49 921,-63.49 921,-29.49 750,-29.49"/>
<text text-anchor="start" x="758" y="-49.89" font-family="FreeSans" font-size="12.00">JKQTGeometricSpecificStyle</text>
<text text-anchor="middle" x="835.5" y="-36.89" font-family="FreeSans" font-size="12.00">Properties</text>
</a>
</g>
</g>
<!-- Node14&#45;&gt;Node16 -->
<g id="edge18" class="edge">
<title>Node14&#45;&gt;Node16</title>
<path fill="none" stroke="midnightblue" d="M589.62,-62.18C641.61,-58.85 702.08,-54.97 749.92,-51.91"/>
<polygon fill="midnightblue" stroke="midnightblue" points="589.09,-58.71 579.34,-62.84 589.54,-65.69 589.09,-58.71"/>
</g>
<!-- Node15 -->
<g id="node15" class="node">
<title>Node15</title>
<g id="a_node15"><a xlink:href="struct_j_k_q_t_p_color_derivation_mode.html" target="_top" xlink:title="Specifies how a fill&#45;color is derived from a given color.">
<polygon fill="none" stroke="black" points="0,-58.99 0,-79.99 168,-79.99 168,-58.99 0,-58.99"/>
<text text-anchor="middle" x="84" y="-66.39" font-family="FreeSans" font-size="12.00">JKQTPColorDerivationMode</text>
</a>
</g>
</g>
<!-- Node15&#45;&gt;Node1 -->
<g id="edge52" class="edge">
<title>Node15&#45;&gt;Node1</title>
<path fill="none" stroke="#9a32cd" stroke-dasharray="5,2" d="M92.04,-89.84C122.61,-174.13 252.42,-491.49 473.5,-491.49 473.5,-491.49 473.5,-491.49 3097.5,-491.49 3187.37,-491.49 3265.23,-398.72 3294.08,-359.58"/>
<polygon fill="#9a32cd" stroke="#9a32cd" points="95.31,-88.59 88.66,-80.35 88.71,-90.94 95.31,-88.59"/>
<text text-anchor="middle" x="1916.5" y="-494.89" font-family="FreeSans" font-size="12.00"> symbolFillDerivationMode</text>
</g>
<!-- Node15&#45;&gt;Node14 -->
<g id="edge16" class="edge">
<title>Node15&#45;&gt;Node14</title>
<path fill="none" stroke="#9a32cd" stroke-dasharray="5,2" d="M178.55,-69.49C236.27,-69.49 310.37,-69.49 369.86,-69.49"/>
<polygon fill="#9a32cd" stroke="#9a32cd" points="178.34,-65.99 168.34,-69.49 178.34,-72.99 178.34,-65.99"/>
<text text-anchor="middle" x="269" y="-124.89" font-family="FreeSans" font-size="12.00"> errorColorDerivationMode</text>
<text text-anchor="middle" x="269" y="-111.89" font-family="FreeSans" font-size="12.00">errorFillColorDerivationMode</text>
<text text-anchor="middle" x="269" y="-98.89" font-family="FreeSans" font-size="12.00">fillColorDerivationMode</text>
<text text-anchor="middle" x="269" y="-85.89" font-family="FreeSans" font-size="12.00">graphColorDerivationMode</text>
<text text-anchor="middle" x="269" y="-72.89" font-family="FreeSans" font-size="12.00">symbolFillColorDerivationMode</text>
</g>
<!-- Node17 -->
<g id="node17" class="node">
<title>Node17</title>
<g id="a_node17"><a xlink:href="class_j_k_q_t_annotations_specific_style_properties.html" target="_top" xlink:title="Support Class for JKQTBasePlotter, which summarizes all properties that define the visual styling of ...">
<polygon fill="none" stroke="black" points="1052,-29.49 1052,-63.49 1232,-63.49 1232,-29.49 1052,-29.49"/>
<text text-anchor="start" x="1060" y="-49.89" font-family="FreeSans" font-size="12.00">JKQTAnnotationsSpecificStyle</text>
<text text-anchor="middle" x="1142" y="-36.89" font-family="FreeSans" font-size="12.00">Properties</text>
</a>
</g>
</g>
<!-- Node15&#45;&gt;Node17 -->
<g id="edge21" class="edge">
<title>Node15&#45;&gt;Node17</title>
<path fill="none" stroke="#9a32cd" stroke-dasharray="5,2" d="M169.79,-57.65C320.81,-38.07 646.31,-2.7 921,-19.49 964.21,-22.13 1011.93,-27.67 1051.85,-33.04"/>
<polygon fill="#9a32cd" stroke="#9a32cd" points="169.12,-54.21 159.66,-58.97 170.03,-61.15 169.12,-54.21"/>
<text text-anchor="middle" x="664.5" y="-22.89" font-family="FreeSans" font-size="12.00"> textColorDerivationMode</text>
</g>
<!-- Node16&#45;&gt;Node13 -->
<g id="edge17" class="edge">
<title>Node16&#45;&gt;Node13</title>
<path fill="none" stroke="#9a32cd" stroke-dasharray="5,2" d="M919.76,-27.35C959.55,-19.15 1007.99,-10.54 1052,-6.49 1131.66,0.84 1152.58,3.11 1232,-6.49 1296.71,-14.31 1370.17,-35.1 1411.41,-47.89"/>
<polygon fill="#9a32cd" stroke="#9a32cd" points="918.91,-23.95 909.84,-29.42 920.34,-30.8 918.91,-23.95"/>
<text text-anchor="middle" x="1142" y="-9.89" font-family="FreeSans" font-size="12.00"> geometricStyle</text>
</g>
<!-- Node16&#45;&gt;Node17 -->
<g id="edge20" class="edge">
<title>Node16&#45;&gt;Node17</title>
<path fill="none" stroke="midnightblue" d="M931.48,-46.49C969.91,-46.49 1014.04,-46.49 1051.85,-46.49"/>
<polygon fill="midnightblue" stroke="midnightblue" points="931.32,-42.99 921.32,-46.49 931.32,-49.99 931.32,-42.99"/>
</g>
<!-- Node17&#45;&gt;Node13 -->
<g id="edge19" class="edge">
<title>Node17&#45;&gt;Node13</title>
<path fill="none" stroke="#9a32cd" stroke-dasharray="5,2" d="M1242.34,-50.45C1285.52,-52.17 1335.07,-54.15 1374.25,-55.71"/>
<polygon fill="#9a32cd" stroke="#9a32cd" points="1242.22,-46.94 1232.09,-50.04 1241.94,-53.94 1242.22,-46.94"/>
<text text-anchor="middle" x="1293" y="-57.89" font-family="FreeSans" font-size="12.00"> annotationStyle</text>
</g>
<!-- Node18&#45;&gt;Node7 -->
<g id="edge22" class="edge">
<title>Node18&#45;&gt;Node7</title>
<path fill="none" stroke="#9a32cd" stroke-dasharray="5,2" d="M1819.63,-299.85C1828.46,-298.39 1837.47,-296.9 1846,-295.49 1904.46,-285.83 1971.49,-274.79 2016.97,-267.3"/>
<polygon fill="#9a32cd" stroke="#9a32cd" points="1819.05,-296.4 1809.76,-301.49 1820.2,-303.31 1819.05,-296.4"/>
<text text-anchor="middle" x="1916.5" y="-298.89" font-family="FreeSans" font-size="12.00"> mathText</text>
</g>
<!-- Node19 -->
<g id="node19" class="node">
<title>Node19</title>
<g id="a_node19"><a xlink:href="class_j_k_q_t_math_text_node.html" target="_top" xlink:title="subclass representing one node in the syntax tree">
<polygon fill="none" stroke="black" points="2007.5,-331.99 2007.5,-352.99 2135.5,-352.99 2135.5,-331.99 2007.5,-331.99"/>
<text text-anchor="middle" x="2071.5" y="-339.39" font-family="FreeSans" font-size="12.00">JKQTMathTextNode</text>
</a>
</g>
</g>
<!-- Node18&#45;&gt;Node19 -->
<g id="edge25" class="edge">
<title>Node18&#45;&gt;Node19</title>
<path fill="none" stroke="#9a32cd" stroke-dasharray="5,2" d="M1786.01,-325.47C1802.29,-335.1 1824.54,-346.45 1846,-351.49 1902.2,-364.69 1968.45,-359.62 2014.35,-352.99"/>
<polygon fill="#9a32cd" stroke="#9a32cd" points="1787.52,-322.29 1777.17,-320.06 1783.87,-328.26 1787.52,-322.29"/>
<text text-anchor="middle" x="1916.5" y="-362.89" font-family="FreeSans" font-size="12.00"> parentMathText</text>
</g>
<!-- Node19&#45;&gt;Node18 -->
<g id="edge24" class="edge">
<title>Node19&#45;&gt;Node18</title>
<path fill="none" stroke="#9a32cd" stroke-dasharray="5,2" d="M2014.21,-329.99C2005.15,-328.28 1995.84,-326.7 1987,-325.49 1926.14,-317.17 1855.42,-313.04 1809.64,-311.09"/>
<polygon fill="#9a32cd" stroke="#9a32cd" points="2013.82,-333.48 2024.31,-331.97 2015.17,-326.61 2013.82,-333.48"/>
<text text-anchor="middle" x="1916.5" y="-341.89" font-family="FreeSans" font-size="12.00"> parsedNode</text>
<text text-anchor="middle" x="1916.5" y="-328.89" font-family="FreeSans" font-size="12.00">unparsedNode</text>
</g>
<!-- Node19&#45;&gt;Node19 -->
<g id="edge26" class="edge">
<title>Node19&#45;&gt;Node19</title>
<path fill="none" stroke="#9a32cd" stroke-dasharray="5,2" d="M2046.3,-362.55C2047.96,-367.65 2056.36,-371.49 2071.5,-371.49 2095.14,-371.49 2102.34,-362.14 2093.11,-353.2"/>
<polygon fill="#9a32cd" stroke="#9a32cd" points="2049.58,-363.79 2049.89,-353.2 2043.04,-361.28 2049.58,-363.79"/>
<text text-anchor="middle" x="2071.5" y="-374.89" font-family="FreeSans" font-size="12.00"> parentNode</text>
</g>
<!-- Node20&#45;&gt;Node7 -->
<g id="edge27" class="edge">
<title>Node20&#45;&gt;Node7</title>
<path fill="none" stroke="#9a32cd" stroke-dasharray="5,2" d="M2299.69,-212.12C2257.51,-218.62 2203.59,-227.58 2156,-237.49 2141.51,-240.51 2125.74,-244.33 2111.85,-247.89"/>
<polygon fill="#9a32cd" stroke="#9a32cd" points="2300.24,-215.58 2309.6,-210.61 2299.19,-208.66 2300.24,-215.58"/>
<text text-anchor="middle" x="2207.5" y="-240.89" font-family="FreeSans" font-size="12.00"> m_plotsModel</text>
</g>
<!-- Node21 -->
<g id="node21" class="node">
<title>Node21</title>
<g id="a_node21"><a xlink:title=" ">
<polygon fill="none" stroke="black" points="2005,-135.99 2005,-156.99 2138,-156.99 2138,-135.99 2005,-135.99"/>
<text text-anchor="middle" x="2071.5" y="-143.39" font-family="FreeSans" font-size="12.00">QAbstractTableModel</text>
</a>
</g>
</g>
<!-- Node21&#45;&gt;Node20 -->
<g id="edge28" class="edge">
<title>Node21&#45;&gt;Node20</title>
<path fill="none" stroke="midnightblue" d="M2148.63,-147.56C2182.7,-149.23 2223.17,-152.85 2259,-160.49 2291.3,-167.38 2326.86,-181.24 2349.53,-190.93"/>
<polygon fill="midnightblue" stroke="midnightblue" points="2148.42,-144.05 2138.28,-147.1 2148.11,-151.04 2148.42,-144.05"/>
</g>
<!-- Node22 -->
<g id="node22" class="node">
<title>Node22</title>
<g id="a_node22"><a xlink:href="class_j_k_q_t_p_horizontal_axis.html" target="_top" xlink:title="implements a horizontal axis, based on JKQTPCoordinateAxis (for most of documentation: see JKQTPCoord...">
<polygon fill="none" stroke="black" points="2508,-373.99 2508,-394.99 2641,-394.99 2641,-373.99 2508,-373.99"/>
<text text-anchor="middle" x="2574.5" y="-381.39" font-family="FreeSans" font-size="12.00">JKQTPHorizontalAxis</text>
</a>
</g>
</g>
<!-- Node22&#45;&gt;Node7 -->
<g id="edge30" class="edge">
<title>Node22&#45;&gt;Node7</title>
<path fill="none" stroke="#9a32cd" stroke-dasharray="5,2" d="M2534.91,-398.31C2454.37,-424.44 2266.68,-470.8 2156,-380.49 2135.09,-363.43 2152.08,-345.52 2138,-322.49 2124.56,-300.52 2101.9,-280.73 2087.07,-269.15"/>
<polygon fill="#9a32cd" stroke="#9a32cd" points="2536.26,-401.55 2544.64,-395.08 2534.05,-394.91 2536.26,-401.55"/>
<text text-anchor="middle" x="2374" y="-436.89" font-family="FreeSans" font-size="12.00"> xAxis</text>
</g>
<!-- Node34 -->
<g id="node34" class="node">
<title>Node34</title>
<g id="a_node34"><a xlink:href="class_j_k_q_t_p_horizontal_independent_axis.html" target="_top" xlink:title="implements a position&#45;indipendent horizontal axis, based on JKQTPCoordinateAxis (for most of document...">
<polygon fill="none" stroke="black" points="2678,-371.99 2678,-392.99 2878,-392.99 2878,-371.99 2678,-371.99"/>
<text text-anchor="middle" x="2778" y="-379.39" font-family="FreeSans" font-size="12.00">JKQTPHorizontalIndependentAxis</text>
</a>
</g>
</g>
<!-- Node22&#45;&gt;Node34 -->
<g id="edge51" class="edge">
<title>Node22&#45;&gt;Node34</title>
<path fill="none" stroke="midnightblue" d="M2651.24,-383.74C2659.91,-383.65 2668.84,-383.56 2677.76,-383.48"/>
<polygon fill="midnightblue" stroke="midnightblue" points="2651.16,-380.24 2641.2,-383.84 2651.23,-387.24 2651.16,-380.24"/>
</g>
<!-- Node23&#45;&gt;Node22 -->
<g id="edge31" class="edge">
<title>Node23&#45;&gt;Node22</title>
<path fill="none" stroke="midnightblue" d="M2452.74,-377.19C2470.92,-378.29 2490.12,-379.45 2507.73,-380.51"/>
<polygon fill="midnightblue" stroke="midnightblue" points="2452.95,-373.7 2442.76,-376.59 2452.53,-380.68 2452.95,-373.7"/>
</g>
<!-- Node24 -->
<g id="node24" class="node">
<title>Node24</title>
<g id="a_node24"><a xlink:href="class_j_k_q_t_p_vertical_axis.html" target="_top" xlink:title="implements a vertical axis, based on JKQTPCoordinateAxis (for most of documentation: see JKQTPCoordin...">
<polygon fill="none" stroke="black" points="2515.5,-284.99 2515.5,-305.99 2633.5,-305.99 2633.5,-284.99 2515.5,-284.99"/>
<text text-anchor="middle" x="2574.5" y="-292.39" font-family="FreeSans" font-size="12.00">JKQTPVerticalAxis</text>
</a>
</g>
</g>
<!-- Node23&#45;&gt;Node24 -->
<g id="edge36" class="edge">
<title>Node23&#45;&gt;Node24</title>
<path fill="none" stroke="midnightblue" d="M2411.07,-358.3C2437.8,-347.8 2475.15,-333.18 2508,-320.49 2520.38,-315.71 2534.09,-310.47 2545.75,-306.02"/>
<polygon fill="midnightblue" stroke="midnightblue" points="2409.75,-355.05 2401.72,-361.97 2412.31,-361.57 2409.75,-355.05"/>
</g>
<!-- Node24&#45;&gt;Node7 -->
<g id="edge35" class="edge">
<title>Node24&#45;&gt;Node7</title>
<path fill="none" stroke="#9a32cd" stroke-dasharray="5,2" d="M2505.15,-294.96C2422.26,-293.65 2278.43,-289.23 2156,-274.49 2144.72,-273.13 2132.67,-271.14 2121.33,-269.03"/>
<polygon fill="#9a32cd" stroke="#9a32cd" points="2505.15,-298.46 2515.2,-295.11 2505.25,-291.46 2505.15,-298.46"/>
<text text-anchor="middle" x="2374" y="-296.89" font-family="FreeSans" font-size="12.00"> yAxis</text>
</g>
<!-- Node33 -->
<g id="node33" class="node">
<title>Node33</title>
<g id="a_node33"><a xlink:href="class_j_k_q_t_p_vertical_independent_axis.html" target="_top" xlink:title="implements a position&#45;indipendent vertical axis, based on JKQTPCoordinateAxis (for most of documentat...">
<polygon fill="none" stroke="black" points="2685.5,-292.99 2685.5,-313.99 2870.5,-313.99 2870.5,-292.99 2685.5,-292.99"/>
<text text-anchor="middle" x="2778" y="-300.39" font-family="FreeSans" font-size="12.00">JKQTPVerticalIndependentAxis</text>
</a>
</g>
</g>
<!-- Node24&#45;&gt;Node33 -->
<g id="edge49" class="edge">
<title>Node24&#45;&gt;Node33</title>
<path fill="none" stroke="midnightblue" d="M2643.56,-298.19C2656.95,-298.72 2671.21,-299.29 2685.23,-299.85"/>
<polygon fill="midnightblue" stroke="midnightblue" points="2643.64,-294.69 2633.51,-297.79 2643.37,-301.69 2643.64,-294.69"/>
</g>
<!-- Node25 -->
<g id="node25" class="node">
<title>Node25</title>
<g id="a_node25"><a xlink:href="class_j_k_q_t_p_datastore.html" target="_top" xlink:title="This class manages data columns (with entries of type double ), used by JKQTPlotter/JKQTBasePlotter t...">
<polygon fill="none" stroke="black" points="1707,-95.99 1707,-116.99 1814,-116.99 1814,-95.99 1707,-95.99"/>
<text text-anchor="middle" x="1760.5" y="-103.39" font-family="FreeSans" font-size="12.00">JKQTPDatastore</text>
</a>
</g>
</g>
<!-- Node25&#45;&gt;Node7 -->
<g id="edge37" class="edge">
<title>Node25&#45;&gt;Node7</title>
<path fill="none" stroke="#9a32cd" stroke-dasharray="5,2" d="M1820.48,-119.2C1882.39,-132.86 1972.74,-153.76 1987,-162.49 2023.36,-184.74 2052.36,-228.01 2064.42,-247.95"/>
<polygon fill="#9a32cd" stroke="#9a32cd" points="1820.94,-115.72 1810.42,-116.99 1819.44,-122.56 1820.94,-115.72"/>
<text text-anchor="middle" x="1916.5" y="-165.89" font-family="FreeSans" font-size="12.00"> datastore</text>
</g>
<!-- Node27 -->
<g id="node27" class="node">
<title>Node27</title>
<g id="a_node27"><a xlink:href="class_j_k_q_t_p_column.html" target="_top" xlink:title="internally stores information about one data column. See JKQTPDatastore for more information.">
<polygon fill="none" stroke="black" points="2023.5,-95.99 2023.5,-116.99 2119.5,-116.99 2119.5,-95.99 2023.5,-95.99"/>
<text text-anchor="middle" x="2071.5" y="-103.39" font-family="FreeSans" font-size="12.00">JKQTPColumn</text>
</a>
</g>
</g>
<!-- Node25&#45;&gt;Node27 -->
<g id="edge40" class="edge">
<title>Node25&#45;&gt;Node27</title>
<path fill="none" stroke="#9a32cd" stroke-dasharray="5,2" d="M1824.55,-106.49C1883.38,-106.49 1969.83,-106.49 2023.02,-106.49"/>
<polygon fill="#9a32cd" stroke="#9a32cd" points="1824.27,-102.99 1814.27,-106.49 1824.27,-109.99 1824.27,-102.99"/>
<text text-anchor="middle" x="1916.5" y="-109.89" font-family="FreeSans" font-size="12.00"> datastore</text>
</g>
<!-- Node26 -->
<g id="node26" class="node">
<title>Node26</title>
<g id="a_node26"><a xlink:title=" ">
<polygon fill="none" stroke="black" points="2277,-53.99 2277,-74.99 2471,-74.99 2471,-53.99 2277,-53.99"/>
<text text-anchor="middle" x="2374" y="-61.39" font-family="FreeSans" font-size="12.00">std::unique_ptr&lt; JKQTPColumn &gt;</text>
</a>
</g>
</g>
<!-- Node26&#45;&gt;Node25 -->
<g id="edge38" class="edge">
<title>Node26&#45;&gt;Node25</title>
<path fill="none" stroke="#9a32cd" stroke-dasharray="5,2" d="M2266.57,-64C2192.99,-64.41 2092.92,-66.48 2005,-73.49 1938.87,-78.76 1863.24,-89.81 1814.04,-97.66"/>
<polygon fill="#9a32cd" stroke="#9a32cd" points="2266.79,-67.49 2276.77,-63.95 2266.75,-60.49 2266.79,-67.49"/>
<text text-anchor="middle" x="2071.5" y="-76.89" font-family="FreeSans" font-size="12.00"> m_invalidColumn</text>
</g>
<!-- Node27&#45;&gt;Node26 -->
<g id="edge39" class="edge">
<title>Node27&#45;&gt;Node26</title>
<path fill="none" stroke="#9a32cd" stroke-dasharray="5,2" d="M2129.92,-98.46C2177.55,-91.81 2245.63,-82.29 2297.63,-75.02"/>
<polygon fill="#9a32cd" stroke="#9a32cd" points="2129.2,-95.03 2119.78,-99.88 2130.17,-101.96 2129.2,-95.03"/>
<text text-anchor="middle" x="2207.5" y="-97.89" font-family="FreeSans" font-size="12.00"> ptr</text>
</g>
<!-- Node28 -->
<g id="node28" class="node">
<title>Node28</title>
<g id="a_node28"><a xlink:title=" ">
<polygon fill="none" stroke="black" points="2010.5,-6.99 2010.5,-27.99 2132.5,-27.99 2132.5,-6.99 2010.5,-6.99"/>
<text text-anchor="middle" x="2071.5" y="-14.39" font-family="FreeSans" font-size="12.00">std::unique_ptr&lt; T &gt;</text>
</a>
</g>
</g>
<!-- Node28&#45;&gt;Node26 -->
<g id="edge41" class="edge">
<title>Node28&#45;&gt;Node26</title>
<path fill="none" stroke="orange" stroke-dasharray="5,2" d="M2142.95,-22.94C2177.98,-26.18 2220.88,-30.96 2259,-37.49 2284.16,-41.8 2312.05,-48.37 2333.94,-53.96"/>
<polygon fill="orange" stroke="orange" points="2143.09,-19.44 2132.82,-22.02 2142.46,-26.41 2143.09,-19.44"/>
<text text-anchor="middle" x="2207.5" y="-40.89" font-family="FreeSans" font-size="12.00"> &lt; JKQTPColumn &gt;</text>
</g>
<!-- Node29 -->
<g id="node29" class="node">
<title>Node29</title>
<g id="a_node29"><a xlink:title=" ">
<polygon fill="none" stroke="black" points="1746,-6.99 1746,-27.99 1775,-27.99 1775,-6.99 1746,-6.99"/>
<text text-anchor="middle" x="1760.5" y="-14.39" font-family="FreeSans" font-size="12.00">T</text>
</a>
</g>
</g>
<!-- Node29&#45;&gt;Node28 -->
<g id="edge42" class="edge">
<title>Node29&#45;&gt;Node28</title>
<path fill="none" stroke="#9a32cd" stroke-dasharray="5,2" d="M1785.45,-17.49C1833.24,-17.49 1941.74,-17.49 2010.24,-17.49"/>
<polygon fill="#9a32cd" stroke="#9a32cd" points="1785.18,-13.99 1775.18,-17.49 1785.18,-20.99 1785.18,-13.99"/>
<text text-anchor="middle" x="1916.5" y="-20.89" font-family="FreeSans" font-size="12.00"> ptr</text>
</g>
<!-- Node30 -->
<g id="node30" class="node">
<title>Node30</title>
<g id="a_node30"><a xlink:href="class_j_k_q_t_p_graph_line_style_mixin.html" target="_top" xlink:title="This Mix&#45;In class provides setter/getter methods, storage and other facilities for the graph line sty...">
<polygon fill="none" stroke="black" points="2694.5,-212.99 2694.5,-233.99 2861.5,-233.99 2861.5,-212.99 2694.5,-212.99"/>
<text text-anchor="middle" x="2778" y="-220.39" font-family="FreeSans" font-size="12.00">JKQTPGraphLineStyleMixin</text>
</a>
</g>
</g>
<!-- Node30&#45;&gt;Node2 -->
<g id="edge44" class="edge">
<title>Node30&#45;&gt;Node2</title>
<path fill="none" stroke="midnightblue" d="M2871.92,-229.36C2923.6,-232.63 2986.56,-236.61 3032.48,-239.51"/>
<polygon fill="midnightblue" stroke="midnightblue" points="2871.94,-225.86 2861.74,-228.72 2871.5,-232.84 2871.94,-225.86"/>
</g>
<!-- Node31 -->
<g id="node31" class="node">
<title>Node31</title>
<g id="a_node31"><a xlink:href="class_j_k_q_t_p_graph_symbol_style_mixin.html" target="_top" xlink:title="This Mix&#45;In class provides setter/getter methods, storage and other facilities for the graph symbols ...">
<polygon fill="none" stroke="black" points="2686,-252.99 2686,-273.99 2870,-273.99 2870,-252.99 2686,-252.99"/>
<text text-anchor="middle" x="2778" y="-260.39" font-family="FreeSans" font-size="12.00">JKQTPGraphSymbolStyleMixin</text>
</a>
</g>
</g>
<!-- Node31&#45;&gt;Node2 -->
<g id="edge45" class="edge">
<title>Node31&#45;&gt;Node2</title>
<path fill="none" stroke="midnightblue" d="M2880.29,-257.09C2930.12,-253.94 2988.65,-250.24 3032.08,-247.5"/>
<polygon fill="midnightblue" stroke="midnightblue" points="2879.88,-253.61 2870.12,-257.73 2880.32,-260.59 2879.88,-253.61"/>
</g>
<!-- Node32&#45;&gt;Node1 -->
<g id="edge46" class="edge">
<title>Node32&#45;&gt;Node1</title>
<path fill="none" stroke="midnightblue" d="M3190.45,-342.49C3199.24,-342.49 3208.13,-342.49 3216.88,-342.49"/>
<polygon fill="midnightblue" stroke="midnightblue" points="3190.2,-338.99 3180.2,-342.49 3190.2,-345.99 3190.2,-338.99"/>
</g>
<!-- Node33&#45;&gt;Node32 -->
<g id="edge48" class="edge">
<title>Node33&#45;&gt;Node32</title>
<path fill="none" stroke="#9a32cd" stroke-dasharray="5,2" d="M2880.71,-304.81C2916.96,-306.42 2957.97,-309.55 2995,-315.49 3009.9,-317.88 3025.77,-321.58 3040.39,-325.49"/>
<polygon fill="#9a32cd" stroke="#9a32cd" points="2880.76,-301.31 2870.62,-304.4 2880.47,-308.3 2880.76,-301.31"/>
<text text-anchor="middle" x="2945.5" y="-318.89" font-family="FreeSans" font-size="12.00"> colorBarRightAxis</text>
</g>
<!-- Node34&#45;&gt;Node32 -->
<g id="edge50" class="edge">
<title>Node34&#45;&gt;Node32</title>
<path fill="none" stroke="#9a32cd" stroke-dasharray="5,2" d="M2879.55,-370.78C2915.94,-366.44 2957.34,-361.38 2995,-356.49 3000.85,-355.73 3006.89,-354.93 3012.98,-354.11"/>
<polygon fill="#9a32cd" stroke="#9a32cd" points="2878.94,-367.33 2869.43,-371.99 2879.77,-374.28 2878.94,-367.33"/>
<text text-anchor="middle" x="2945.5" y="-370.89" font-family="FreeSans" font-size="12.00"> colorBarTopAxis</text>
</g>
</g>
</svg>
