<?xml version="1.0" encoding="UTF-8" standalone="no"?>
<!DOCTYPE svg PUBLIC "-//W3C//DTD SVG 1.1//EN"
 "http://www.w3.org/Graphics/SVG/1.1/DTD/svg11.dtd">
<!-- Generated by graphviz version 2.43.0 (0)
 -->
<!-- Title: JKQTMathTextVerbatimNode Pages: 1 -->
<svg width="398pt" height="160pt"
 viewBox="0.00 0.00 398.00 160.00" xmlns="http://www.w3.org/2000/svg" xmlns:xlink="http://www.w3.org/1999/xlink">
<g id="graph0" class="graph" transform="scale(1 1) rotate(0) translate(4 156)">
<title>JKQTMathTextVerbatimNode</title>
<!-- Node1 -->
<g id="node1" class="node">
<title>Node1</title>
<g id="a_node1"><a xlink:title="subclass representing a verbatim (plain&#45;text) node with support for line&#45;breaks in the syntax tree">
<polygon fill="#bfbfbf" stroke="black" points="0,-0.5 0,-21.5 185,-21.5 185,-0.5 0,-0.5"/>
<text text-anchor="middle" x="92.5" y="-7.9" font-family="Helvetica,sans-Serif" font-size="12.00">JKQTMathTextVerbatimNode</text>
</a>
</g>
</g>
<!-- Node2 -->
<g id="node2" class="node">
<title>Node2</title>
<g id="a_node2"><a xlink:href="class_j_k_q_t_math_text_text_base_node.html" target="_top" xlink:title="base class for nodes representing text in the syntax tree">
<polygon fill="none" stroke="black" points="0.5,-59.5 0.5,-80.5 184.5,-80.5 184.5,-59.5 0.5,-59.5"/>
<text text-anchor="middle" x="92.5" y="-66.9" font-family="Helvetica,sans-Serif" font-size="12.00">JKQTMathTextTextBaseNode</text>
</a>
</g>
</g>
<!-- Node2&#45;&gt;Node1 -->
<g id="edge1" class="edge">
<title>Node2&#45;&gt;Node1</title>
<path fill="none" stroke="midnightblue" d="M92.5,-49.23C92.5,-39.85 92.5,-29.07 92.5,-21.53"/>
<polygon fill="midnightblue" stroke="midnightblue" points="89,-49.33 92.5,-59.33 96,-49.33 89,-49.33"/>
</g>
<!-- Node3 -->
<g id="node3" class="node">
<title>Node3</title>
<g id="a_node3"><a xlink:href="class_j_k_q_t_math_text_node.html" target="_top" xlink:title="subclass representing one node in the syntax tree">
<polygon fill="none" stroke="black" points="80,-130.5 80,-151.5 211,-151.5 211,-130.5 80,-130.5"/>
<text text-anchor="middle" x="145.5" y="-137.9" font-family="Helvetica,sans-Serif" font-size="12.00">JKQTMathTextNode</text>
</a>
</g>
</g>
<!-- Node3&#45;&gt;Node2 -->
<g id="edge2" class="edge">
<title>Node3&#45;&gt;Node2</title>
<path fill="none" stroke="midnightblue" d="M131.59,-122.4C128.9,-118.96 126.1,-115.37 123.5,-112 115.33,-101.4 106.09,-89.14 99.84,-80.81"/>
<polygon fill="midnightblue" stroke="midnightblue" points="128.99,-124.75 137.92,-130.44 134.49,-120.42 128.99,-124.75"/>
</g>
<!-- Node3&#45;&gt;Node3 -->
<g id="edge6" class="edge">
<title>Node3&#45;&gt;Node3</title>
<path fill="none" stroke="#9a32cd" stroke-dasharray="5,2" d="M221.52,-145.44C226.19,-144.39 229,-142.91 229,-141 229,-137.95 221.81,-135.99 211.31,-135.13"/>
<polygon fill="#9a32cd" stroke="#9a32cd" points="220.73,-142.02 211.31,-146.87 221.7,-148.95 220.73,-142.02"/>
<text text-anchor="middle" x="266.5" y="-137.9" font-family="Helvetica,sans-Serif" font-size="12.00"> parentNode</text>
</g>
<!-- Node4 -->
<g id="node4" class="node">
<title>Node4</title>
<g id="a_node4"><a xlink:href="class_j_k_q_t_math_text.html" target="_top" xlink:title="this class parses a LaTeX string and can then draw the contained text/equation onto a QPainter">
<polygon fill="none" stroke="black" points="203,-59.5 203,-80.5 302,-80.5 302,-59.5 203,-59.5"/>
<text text-anchor="middle" x="252.5" y="-66.9" font-family="Helvetica,sans-Serif" font-size="12.00">JKQTMathText</text>
</a>
</g>
</g>
<!-- Node3&#45;&gt;Node4 -->
<g id="edge5" class="edge">
<title>Node3&#45;&gt;Node4</title>
<path fill="none" stroke="#9a32cd" stroke-dasharray="5,2" d="M138.89,-120.71C137.57,-113.24 137.8,-105.05 142.5,-99 146.54,-93.81 176.28,-86.42 203.82,-80.53"/>
<polygon fill="#9a32cd" stroke="#9a32cd" points="135.53,-121.72 141.48,-130.49 142.3,-119.93 135.53,-121.72"/>
<text text-anchor="middle" x="181" y="-102.4" font-family="Helvetica,sans-Serif" font-size="12.00"> parsedNode</text>
</g>
<!-- Node4&#45;&gt;Node3 -->
<g id="edge3" class="edge">
<title>Node4&#45;&gt;Node3</title>
<path fill="none" stroke="#9a32cd" stroke-dasharray="5,2" d="M242.72,-89.65C237.83,-97.45 231.3,-106.07 223.5,-112 212.73,-120.18 199.36,-126.13 186.74,-130.38"/>
<polygon fill="#9a32cd" stroke="#9a32cd" points="245.88,-91.17 247.83,-80.76 239.81,-87.69 245.88,-91.17"/>
<text text-anchor="middle" x="285" y="-102.4" font-family="Helvetica,sans-Serif" font-size="12.00"> parentMathText</text>
</g>
<!-- Node5 -->
<g id="node5" class="node">
<title>Node5</title>
<g id="a_node5"><a xlink:title=" ">
<polygon fill="none" stroke="black" points="325,-130.5 325,-151.5 390,-151.5 390,-130.5 325,-130.5"/>
<text text-anchor="middle" x="357.5" y="-137.9" font-family="Helvetica,sans-Serif" font-size="12.00">QObject</text>
</a>
</g>
</g>
<!-- Node5&#45;&gt;Node4 -->
<g id="edge4" class="edge">
<title>Node5&#45;&gt;Node4</title>
<path fill="none" stroke="midnightblue" d="M354.69,-120.28C352.7,-112.74 349.3,-104.62 343.5,-99 332.35,-88.18 317.11,-81.53 302.3,-77.45"/>
<polygon fill="midnightblue" stroke="midnightblue" points="351.28,-121.09 356.67,-130.21 358.14,-119.72 351.28,-121.09"/>
</g>
</g>
</svg>
