<?xml version="1.0" encoding="UTF-8" standalone="no"?>
<!DOCTYPE svg PUBLIC "-//W3C//DTD SVG 1.1//EN"
 "http://www.w3.org/Graphics/SVG/1.1/DTD/svg11.dtd">
<!-- Generated by graphviz version 2.43.0 (0)
 -->
<!-- Title: JKQTMathTextNode Pages: 1 -->
<!--zoomable 390 -->
<svg id="main" version="1.1" xmlns="http://www.w3.org/2000/svg" xmlns:xlink="http://www.w3.org/1999/xlink" xml:space="preserve" onload="init(evt)">
<style type="text/css"><![CDATA[
.edge:hover path { stroke: red; }
.edge:hover polygon { stroke: red; fill: red; }
]]></style>
<script type="text/javascript"><![CDATA[
var edges = document.getElementsByTagName('g');
if (edges && edges.length) {
  for (var i=0;i<edges.length;i++) {
    if (edges[i].id.substr(0,4)=='edge') {
      edges[i].setAttribute('class','edge');
    }
  }
}
]]></script>
        <defs>
                <circle id="rim" cx="0" cy="0" r="7"/>
                <circle id="rim2" cx="0" cy="0" r="3.5"/>
                <g id="zoomPlus">
                        <use xlink:href="#rim" fill="#404040">
                                <set attributeName="fill" to="#808080" begin="zoomplus.mouseover" end="zoomplus.mouseout"/>
                        </use>
                        <path d="M-4,0h8M0,-4v8" fill="none" stroke="white" stroke-width="1.5" pointer-events="none"/>
                </g>
                <g id="zoomMin">
                        <use xlink:href="#rim" fill="#404040">
                                <set attributeName="fill" to="#808080" begin="zoomminus.mouseover" end="zoomminus.mouseout"/>
                        </use>
                        <path d="M-4,0h8" fill="none" stroke="white" stroke-width="1.5" pointer-events="none"/>
                </g>
                <g id="dirArrow">
                        <path fill="none" stroke="white" stroke-width="1.5" d="M0,-3.0v7 M-2.5,-0.5L0,-3.0L2.5,-0.5"/>
                </g>
               <g id="resetDef">
                       <use xlink:href="#rim2" fill="#404040">
                               <set attributeName="fill" to="#808080" begin="reset.mouseover" end="reset.mouseout"/>
                       </use>
               </g>
        </defs>

<script type="text/javascript">
var viewWidth = 775;
var viewHeight = 390;
var sectionId = 'dynsection-0';
</script>
<script xlink:href="svgpan.js"/>
<svg id="graph" class="graph">
<g id="viewport">
<title>JKQTMathTextNode</title>
<!-- Node1 -->
<g id="node1" class="node">
<title>Node1</title>
<g id="a_node1"><a xlink:title="subclass representing one node in the syntax tree">
<polygon fill="#bfbfbf" stroke="black" points="0,-180.5 0,-201.5 128,-201.5 128,-180.5 0,-180.5"/>
<text text-anchor="middle" x="64" y="-187.9" font-family="FreeSans" font-size="12.00">JKQTMathTextNode</text>
</a>
</g>
</g>
<!-- Node2 -->
<g id="node2" class="node">
<title>Node2</title>
<g id="a_node2"><a xlink:href="class_j_k_q_t_math_text_matrix_node.html" target="_top" xlink:title="subclass representing a \begin{matrix} node">
<polygon fill="none" stroke="black" points="177.5,-320.5 177.5,-341.5 338.5,-341.5 338.5,-320.5 177.5,-320.5"/>
<text text-anchor="middle" x="258" y="-327.9" font-family="FreeSans" font-size="12.00">JKQTMathTextMatrixNode</text>
</a>
</g>
</g>
<!-- Node1&#45;&gt;Node2 -->
<g id="edge1" class="edge">
<title>Node1&#45;&gt;Node2</title>
<path fill="none" stroke="midnightblue" d="M75.5,-210.62C91.06,-237.69 122.9,-286 164,-311 170.21,-314.78 177.03,-317.84 184.07,-320.34"/>
<polygon fill="midnightblue" stroke="midnightblue" points="78.44,-208.71 70.51,-201.69 72.33,-212.12 78.44,-208.71"/>
</g>
<!-- Node3 -->
<g id="node3" class="node">
<title>Node3</title>
<g id="a_node3"><a xlink:href="class_j_k_q_t_math_text_multi_child_node.html" target="_top" xlink:title="subclass representing a node in the syntax tree, that has two children">
<polygon fill="none" stroke="black" points="168,-280.5 168,-301.5 348,-301.5 348,-280.5 168,-280.5"/>
<text text-anchor="middle" x="258" y="-287.9" font-family="FreeSans" font-size="12.00">JKQTMathTextMultiChildNode</text>
</a>
</g>
</g>
<!-- Node1&#45;&gt;Node3 -->
<g id="edge2" class="edge">
<title>Node1&#45;&gt;Node3</title>
<path fill="none" stroke="midnightblue" d="M94.54,-206.38C133.97,-226.92 202.79,-262.77 236.8,-280.48"/>
<polygon fill="midnightblue" stroke="midnightblue" points="95.67,-203.03 85.18,-201.51 92.44,-209.24 95.67,-203.03"/>
</g>
<!-- Node8 -->
<g id="node8" class="node">
<title>Node8</title>
<g id="a_node8"><a xlink:href="class_j_k_q_t_math_text_single_child_node.html" target="_top" xlink:title="subclass representing a node in the syntax tree, that has one child">
<polygon fill="none" stroke="black" points="164,-180.5 164,-201.5 352,-201.5 352,-180.5 164,-180.5"/>
<text text-anchor="middle" x="258" y="-187.9" font-family="FreeSans" font-size="12.00">JKQTMathTextSingleChildNode</text>
</a>
</g>
</g>
<!-- Node1&#45;&gt;Node8 -->
<g id="edge7" class="edge">
<title>Node1&#45;&gt;Node8</title>
<path fill="none" stroke="midnightblue" d="M138.25,-191C146.65,-191 155.3,-191 163.93,-191"/>
<polygon fill="midnightblue" stroke="midnightblue" points="138.13,-187.5 128.13,-191 138.13,-194.5 138.13,-187.5"/>
</g>
<!-- Node14 -->
<g id="node14" class="node">
<title>Node14</title>
<g id="a_node14"><a xlink:href="class_j_k_q_t_math_text_symbol_node.html" target="_top" xlink:title="subclass representing one symbol (e.g. \alpha , \cdot ...) node in the syntax tree">
<polygon fill="none" stroke="black" points="174.5,-140.5 174.5,-161.5 341.5,-161.5 341.5,-140.5 174.5,-140.5"/>
<text text-anchor="middle" x="258" y="-147.9" font-family="FreeSans" font-size="12.00">JKQTMathTextSymbolNode</text>
</a>
</g>
</g>
<!-- Node1&#45;&gt;Node14 -->
<g id="edge13" class="edge">
<title>Node1&#45;&gt;Node14</title>
<path fill="none" stroke="midnightblue" d="M125.24,-178.45C151.37,-173.01 181.63,-166.7 206.56,-161.51"/>
<polygon fill="midnightblue" stroke="midnightblue" points="124.52,-175.02 115.45,-180.49 125.95,-181.88 124.52,-175.02"/>
</g>
<!-- Node15 -->
<g id="node15" class="node">
<title>Node15</title>
<g id="a_node15"><a xlink:href="class_j_k_q_t_math_text_text_node.html" target="_top" xlink:title="subclass representing one text node in the syntax tree">
<polygon fill="none" stroke="black" points="182.5,-40.5 182.5,-61.5 333.5,-61.5 333.5,-40.5 182.5,-40.5"/>
<text text-anchor="middle" x="258" y="-47.9" font-family="FreeSans" font-size="12.00">JKQTMathTextTextNode</text>
</a>
</g>
</g>
<!-- Node1&#45;&gt;Node15 -->
<g id="edge14" class="edge">
<title>Node1&#45;&gt;Node15</title>
<path fill="none" stroke="midnightblue" d="M87.73,-174.43C127.62,-145.34 209.16,-85.88 242.4,-61.64"/>
<polygon fill="midnightblue" stroke="midnightblue" points="85.45,-171.76 79.43,-180.48 89.57,-177.41 85.45,-171.76"/>
</g>
<!-- Node4 -->
<g id="node4" class="node">
<title>Node4</title>
<g id="a_node4"><a xlink:href="class_j_k_q_t_math_text_dual_child_node.html" target="_top" xlink:title="subclass representing a node in the syntax tree, that has two children">
<polygon fill="none" stroke="black" points="394,-360.5 394,-381.5 573,-381.5 573,-360.5 394,-360.5"/>
<text text-anchor="middle" x="483.5" y="-367.9" font-family="FreeSans" font-size="12.00">JKQTMathTextDualChildNode</text>
</a>
</g>
</g>
<!-- Node3&#45;&gt;Node4 -->
<g id="edge3" class="edge">
<title>Node3&#45;&gt;Node4</title>
<path fill="none" stroke="midnightblue" d="M340.38,-305.24C344.4,-306.95 348.3,-308.86 352,-311 372.7,-322.99 367.28,-339.05 388,-351 394.68,-354.85 402.01,-357.97 409.55,-360.49"/>
<polygon fill="midnightblue" stroke="midnightblue" points="341.39,-301.88 330.8,-301.61 338.91,-308.42 341.39,-301.88"/>
</g>
<!-- Node6 -->
<g id="node6" class="node">
<title>Node6</title>
<g id="a_node6"><a xlink:href="class_j_k_q_t_math_text_list_node.html" target="_top" xlink:title="subclass representing a list of nodes in the syntax tree">
<polygon fill="none" stroke="black" points="410.5,-320.5 410.5,-341.5 556.5,-341.5 556.5,-320.5 410.5,-320.5"/>
<text text-anchor="middle" x="483.5" y="-327.9" font-family="FreeSans" font-size="12.00">JKQTMathTextListNode</text>
</a>
</g>
</g>
<!-- Node3&#45;&gt;Node6 -->
<g id="edge5" class="edge">
<title>Node3&#45;&gt;Node6</title>
<path fill="none" stroke="midnightblue" d="M327.92,-303.33C358.61,-308.83 394.38,-315.23 423.78,-320.49"/>
<polygon fill="midnightblue" stroke="midnightblue" points="328.18,-299.83 317.72,-301.51 326.95,-306.72 328.18,-299.83"/>
</g>
<!-- Node7 -->
<g id="node7" class="node">
<title>Node7</title>
<g id="a_node7"><a xlink:href="class_j_k_q_t_math_text_sqrt_node.html" target="_top" xlink:title="subclass representing a sqrt node">
<polygon fill="none" stroke="black" points="409,-280.5 409,-301.5 558,-301.5 558,-280.5 409,-280.5"/>
<text text-anchor="middle" x="483.5" y="-287.9" font-family="FreeSans" font-size="12.00">JKQTMathTextSqrtNode</text>
</a>
</g>
</g>
<!-- Node3&#45;&gt;Node7 -->
<g id="edge6" class="edge">
<title>Node3&#45;&gt;Node7</title>
<path fill="none" stroke="midnightblue" d="M358.72,-291C375.55,-291 392.75,-291 408.77,-291"/>
<polygon fill="midnightblue" stroke="midnightblue" points="358.3,-287.5 348.3,-291 358.3,-294.5 358.3,-287.5"/>
</g>
<!-- Node5 -->
<g id="node5" class="node">
<title>Node5</title>
<g id="a_node5"><a xlink:href="class_j_k_q_t_math_text_frac_node.html" target="_top" xlink:title="subclass representing a \frac node">
<polygon fill="none" stroke="black" points="615,-360.5 615,-381.5 767,-381.5 767,-360.5 615,-360.5"/>
<text text-anchor="middle" x="691" y="-367.9" font-family="FreeSans" font-size="12.00">JKQTMathTextFracNode</text>
</a>
</g>
</g>
<!-- Node4&#45;&gt;Node5 -->
<g id="edge4" class="edge">
<title>Node4&#45;&gt;Node5</title>
<path fill="none" stroke="midnightblue" d="M583.29,-371C593.91,-371 604.59,-371 614.86,-371"/>
<polygon fill="midnightblue" stroke="midnightblue" points="583.14,-367.5 573.14,-371 583.14,-374.5 583.14,-367.5"/>
</g>
<!-- Node9 -->
<g id="node9" class="node">
<title>Node9</title>
<g id="a_node9"><a xlink:href="class_j_k_q_t_math_text_brace_node.html" target="_top" xlink:title="subclass representing a brace node">
<polygon fill="none" stroke="black" points="404,-240.5 404,-261.5 563,-261.5 563,-240.5 404,-240.5"/>
<text text-anchor="middle" x="483.5" y="-247.9" font-family="FreeSans" font-size="12.00">JKQTMathTextBraceNode</text>
</a>
</g>
</g>
<!-- Node8&#45;&gt;Node9 -->
<g id="edge8" class="edge">
<title>Node8&#45;&gt;Node9</title>
<path fill="none" stroke="midnightblue" d="M299.66,-204.66C324.92,-212.89 358.15,-223.23 388,-231 400.98,-234.38 415.08,-237.6 428.33,-240.43"/>
<polygon fill="midnightblue" stroke="midnightblue" points="300.64,-201.3 290.05,-201.51 298.46,-207.95 300.64,-201.3"/>
</g>
<!-- Node10 -->
<g id="node10" class="node">
<title>Node10</title>
<g id="a_node10"><a xlink:href="class_j_k_q_t_math_text_decorated_node.html" target="_top" xlink:title="subclass representing a decorated text m (e.g. \vec \hat ...) node">
<polygon fill="none" stroke="black" points="392.5,-200.5 392.5,-221.5 574.5,-221.5 574.5,-200.5 392.5,-200.5"/>
<text text-anchor="middle" x="483.5" y="-207.9" font-family="FreeSans" font-size="12.00">JKQTMathTextDecoratedNode</text>
</a>
</g>
</g>
<!-- Node8&#45;&gt;Node10 -->
<g id="edge9" class="edge">
<title>Node8&#45;&gt;Node10</title>
<path fill="none" stroke="midnightblue" d="M362.19,-200.23C372.26,-201.14 382.43,-202.04 392.35,-202.93"/>
<polygon fill="midnightblue" stroke="midnightblue" points="362.44,-196.74 352.17,-199.34 361.81,-203.71 362.44,-196.74"/>
</g>
<!-- Node11 -->
<g id="node11" class="node">
<title>Node11</title>
<g id="a_node11"><a xlink:href="class_j_k_q_t_math_text_instruction1_node.html" target="_top" xlink:title="subclass representing an instruction node with exactly one argument in the syntax tree">
<polygon fill="none" stroke="black" points="389,-160.5 389,-181.5 578,-181.5 578,-160.5 389,-160.5"/>
<text text-anchor="middle" x="483.5" y="-167.9" font-family="FreeSans" font-size="12.00">JKQTMathTextInstruction1Node</text>
</a>
</g>
</g>
<!-- Node8&#45;&gt;Node11 -->
<g id="edge10" class="edge">
<title>Node8&#45;&gt;Node11</title>
<path fill="none" stroke="midnightblue" d="M362.14,-181.77C371.02,-180.98 379.97,-180.17 388.77,-179.39"/>
<polygon fill="midnightblue" stroke="midnightblue" points="361.81,-178.29 352.17,-182.66 362.44,-185.26 361.81,-178.29"/>
</g>
<!-- Node12 -->
<g id="node12" class="node">
<title>Node12</title>
<g id="a_node12"><a xlink:href="class_j_k_q_t_math_text_subscript_node.html" target="_top" xlink:title="subclass representing an subscript node with exactly one argument in the syntax tree">
<polygon fill="none" stroke="black" points="394.5,-120.5 394.5,-141.5 572.5,-141.5 572.5,-120.5 394.5,-120.5"/>
<text text-anchor="middle" x="483.5" y="-127.9" font-family="FreeSans" font-size="12.00">JKQTMathTextSubscriptNode</text>
</a>
</g>
</g>
<!-- Node8&#45;&gt;Node12 -->
<g id="edge11" class="edge">
<title>Node8&#45;&gt;Node12</title>
<path fill="none" stroke="midnightblue" d="M330.71,-177.83C337.99,-175.82 345.2,-173.56 352,-171 369.13,-164.56 370.86,-157.41 388,-151 398.05,-147.24 408.99,-144.11 419.73,-141.53"/>
<polygon fill="midnightblue" stroke="midnightblue" points="329.58,-174.51 320.77,-180.4 331.33,-181.28 329.58,-174.51"/>
</g>
<!-- Node13 -->
<g id="node13" class="node">
<title>Node13</title>
<g id="a_node13"><a xlink:href="class_j_k_q_t_math_text_superscript_node.html" target="_top" xlink:title="subclass representing an superscript node with exactly one argument in the syntax tree">
<polygon fill="none" stroke="black" points="389.5,-80.5 389.5,-101.5 577.5,-101.5 577.5,-80.5 389.5,-80.5"/>
<text text-anchor="middle" x="483.5" y="-87.9" font-family="FreeSans" font-size="12.00">JKQTMathTextSuperscriptNode</text>
</a>
</g>
</g>
<!-- Node8&#45;&gt;Node13 -->
<g id="edge12" class="edge">
<title>Node8&#45;&gt;Node13</title>
<path fill="none" stroke="midnightblue" d="M344.03,-175.98C346.79,-174.47 349.46,-172.82 352,-171 377.29,-152.9 362.68,-129.06 388,-111 393.32,-107.2 399.22,-104.1 405.39,-101.56"/>
<polygon fill="midnightblue" stroke="midnightblue" points="342.42,-172.87 334.89,-180.33 345.43,-179.19 342.42,-172.87"/>
</g>
<!-- Node16 -->
<g id="node16" class="node">
<title>Node16</title>
<g id="a_node16"><a xlink:href="class_j_k_q_t_math_text_whitespace_node.html" target="_top" xlink:title="subclass representing one whitepsace node in the syntax tree">
<polygon fill="none" stroke="black" points="388,-40.5 388,-61.5 579,-61.5 579,-40.5 388,-40.5"/>
<text text-anchor="middle" x="483.5" y="-47.9" font-family="FreeSans" font-size="12.00">JKQTMathTextWhitespaceNode</text>
</a>
</g>
</g>
<!-- Node15&#45;&gt;Node16 -->
<g id="edge15" class="edge">
<title>Node15&#45;&gt;Node16</title>
<path fill="none" stroke="midnightblue" d="M344.06,-51C358.41,-51 373.39,-51 387.97,-51"/>
<polygon fill="midnightblue" stroke="midnightblue" points="343.73,-47.5 333.73,-51 343.73,-54.5 343.73,-47.5"/>
</g>
<!-- Node17 -->
<g id="node17" class="node">
<title>Node17</title>
<g id="a_node17"><a xlink:href="class_m_tplain_text_node.html" target="_top" xlink:title="subclass representing one text node in the syntax tree">
<polygon fill="none" stroke="black" points="427,-0.5 427,-21.5 540,-21.5 540,-0.5 427,-0.5"/>
<text text-anchor="middle" x="483.5" y="-7.9" font-family="FreeSans" font-size="12.00">MTplainTextNode</text>
</a>
</g>
</g>
<!-- Node15&#45;&gt;Node17 -->
<g id="edge16" class="edge">
<title>Node15&#45;&gt;Node17</title>
<path fill="none" stroke="midnightblue" d="M327.84,-38.68C359.63,-32.99 396.88,-26.32 426.86,-20.96"/>
<polygon fill="midnightblue" stroke="midnightblue" points="326.95,-35.28 317.72,-40.49 328.18,-42.17 326.95,-35.28"/>
</g>
</g>
</svg>
        <g id="navigator" transform="translate(0 0)" fill="#404254">
                <rect fill="#f2f5e9" fill-opacity="0.5" stroke="#606060" stroke-width=".5" x="0" y="0" width="60" height="60"/>
                <use id="zoomplus" xlink:href="#zoomPlus" x="17" y="9" onmousedown="handleZoom(evt,'in')"/>
                <use id="zoomminus" xlink:href="#zoomMin" x="42" y="9" onmousedown="handleZoom(evt,'out')"/>
                <use id="reset" xlink:href="#resetDef" x="30" y="36" onmousedown="handleReset()"/>
                <g id="arrowUp" xlink:href="#dirArrow" transform="translate(30 24)" onmousedown="handlePan(0,-1)">
                  <use xlink:href="#rim" fill="#404040">
                        <set attributeName="fill" to="#808080" begin="arrowUp.mouseover" end="arrowUp.mouseout"/>
                  </use>
                  <path fill="none" stroke="white" stroke-width="1.5" d="M0,-3.0v7 M-2.5,-0.5L0,-3.0L2.5,-0.5"/>
                </g>
                <g id="arrowRight" xlink:href="#dirArrow" transform="rotate(90) translate(36 -43)" onmousedown="handlePan(1,0)">
                  <use xlink:href="#rim" fill="#404040">
                        <set attributeName="fill" to="#808080" begin="arrowRight.mouseover" end="arrowRight.mouseout"/>
                  </use>
                  <path fill="none" stroke="white" stroke-width="1.5" d="M0,-3.0v7 M-2.5,-0.5L0,-3.0L2.5,-0.5"/>
                </g>
                <g id="arrowDown" xlink:href="#dirArrow" transform="rotate(180) translate(-30 -48)" onmousedown="handlePan(0,1)">
                  <use xlink:href="#rim" fill="#404040">
                        <set attributeName="fill" to="#808080" begin="arrowDown.mouseover" end="arrowDown.mouseout"/>
                  </use>
                  <path fill="none" stroke="white" stroke-width="1.5" d="M0,-3.0v7 M-2.5,-0.5L0,-3.0L2.5,-0.5"/>
                </g>
                <g id="arrowLeft" xlink:href="#dirArrow" transform="rotate(270) translate(-36 17)" onmousedown="handlePan(-1,0)">
                  <use xlink:href="#rim" fill="#404040">
                        <set attributeName="fill" to="#808080" begin="arrowLeft.mouseover" end="arrowLeft.mouseout"/>
                  </use>
                  <path fill="none" stroke="white" stroke-width="1.5" d="M0,-3.0v7 M-2.5,-0.5L0,-3.0L2.5,-0.5"/>
                </g>
        </g>
        <svg viewBox="0 0 15 15" width="100%" height="30px" preserveAspectRatio="xMaxYMin meet">
         <g id="arrow_out" transform="scale(0.3 0.3)">
          <a xlink:href="class_j_k_q_t_math_text_node__inherit__graph_org.svg" target="_base">
           <rect id="button" ry="5" rx="5" y="6" x="6" height="38" width="38"
                fill="#f2f5e9" fill-opacity="0.5" stroke="#606060" stroke-width="1.0"/>
           <path id="arrow"
             d="M 11.500037,31.436501 C 11.940474,20.09759 22.043105,11.32322 32.158766,21.979434 L 37.068811,17.246167 C 37.068811,17.246167 37.088388,32 37.088388,32 L 22.160133,31.978069 C 22.160133,31.978069 26.997745,27.140456 26.997745,27.140456 C 18.528582,18.264221 13.291696,25.230495 11.500037,31.436501 z"
             style="fill:#404040;"/>
          </a>
         </g>
        </svg>
</svg>
