<?xml version="1.0" encoding="UTF-8" standalone="no"?>
<!DOCTYPE svg PUBLIC "-//W3C//DTD SVG 1.1//EN"
 "http://www.w3.org/Graphics/SVG/1.1/DTD/svg11.dtd">
<!-- Generated by graphviz version 2.43.0 (0)
 -->
<!-- Title: JKQTPFilledVerticalRangeGraph Pages: 1 -->
<svg width="3343pt" height="573pt"
 viewBox="0.00 0.00 3343.00 572.53" xmlns="http://www.w3.org/2000/svg" xmlns:xlink="http://www.w3.org/1999/xlink">
<g id="graph0" class="graph" transform="scale(1 1) rotate(0) translate(4 568.53)">
<title>JKQTPFilledVerticalRangeGraph</title>
<!-- Node1 -->
<g id="node1" class="node">
<title>Node1</title>
<g id="a_node1"><a xlink:title="This implements filled curve plots where the area is filled between two data columns for each x&#45;value...">
<polygon fill="#999999" stroke="#666666" points="3335,-547.03 3169,-547.03 3169,-513.03 3335,-513.03 3335,-547.03"/>
<text text-anchor="start" x="3177" y="-533.43" font-family="Helvetica,sans-Serif" font-size="12.00">JKQTPFilledVerticalRange</text>
<text text-anchor="middle" x="3252" y="-520.43" font-family="Helvetica,sans-Serif" font-size="12.00">Graph</text>
</a>
</g>
</g>
<!-- Node2 -->
<g id="node2" class="node">
<title>Node2</title>
<g id="a_node2"><a xlink:href="class_j_k_q_t_p_x_y_y_graph.html" target="_top" xlink:title="This virtual JKQTPGraph descendent extends JKQTPXYGraph to two columns for y&#45;values (e....">
<polygon fill="white" stroke="#666666" points="3097.5,-564.53 2984.5,-564.53 2984.5,-543.53 3097.5,-543.53 3097.5,-564.53"/>
<text text-anchor="middle" x="3041" y="-550.93" font-family="Helvetica,sans-Serif" font-size="12.00">JKQTPXYYGraph</text>
</a>
</g>
</g>
<!-- Node2&#45;&gt;Node1 -->
<g id="edge1" class="edge">
<title>Node2&#45;&gt;Node1</title>
<path fill="none" stroke="#63b8ff" d="M3107.92,-546.46C3127.2,-544.25 3148.53,-541.8 3168.7,-539.48"/>
<polygon fill="#63b8ff" stroke="#63b8ff" points="3107.27,-543.01 3097.73,-547.63 3108.07,-549.97 3107.27,-543.01"/>
</g>
<!-- Node3 -->
<g id="node3" class="node">
<title>Node3</title>
<g id="a_node3"><a xlink:href="class_j_k_q_t_p_x_y_graph.html" target="_top" xlink:title="This virtual JKQTPGraph descendent may be used as base for all graphs that use at least two columns t...">
<polygon fill="white" stroke="#666666" points="2878.5,-564.53 2773.5,-564.53 2773.5,-543.53 2878.5,-543.53 2878.5,-564.53"/>
<text text-anchor="middle" x="2826" y="-550.93" font-family="Helvetica,sans-Serif" font-size="12.00">JKQTPXYGraph</text>
</a>
</g>
</g>
<!-- Node3&#45;&gt;Node2 -->
<g id="edge2" class="edge">
<title>Node3&#45;&gt;Node2</title>
<path fill="none" stroke="#63b8ff" d="M2888.58,-554.03C2918.84,-554.03 2955.03,-554.03 2984.44,-554.03"/>
<polygon fill="#63b8ff" stroke="#63b8ff" points="2888.56,-550.53 2878.56,-554.03 2888.56,-557.53 2888.56,-550.53"/>
</g>
<!-- Node4 -->
<g id="node4" class="node">
<title>Node4</title>
<g id="a_node4"><a xlink:href="class_j_k_q_t_p_graph.html" target="_top" xlink:title="this virtual base class of the (data&#45;column based) graphs, which are part of a JKQTPlotter plot and w...">
<polygon fill="white" stroke="#666666" points="2678,-564.53 2589,-564.53 2589,-543.53 2678,-543.53 2678,-564.53"/>
<text text-anchor="middle" x="2633.5" y="-550.93" font-family="Helvetica,sans-Serif" font-size="12.00">JKQTPGraph</text>
</a>
</g>
</g>
<!-- Node4&#45;&gt;Node3 -->
<g id="edge3" class="edge">
<title>Node4&#45;&gt;Node3</title>
<path fill="none" stroke="#63b8ff" d="M2688.5,-554.03C2715.13,-554.03 2747.09,-554.03 2773.39,-554.03"/>
<polygon fill="#63b8ff" stroke="#63b8ff" points="2688.2,-550.53 2678.2,-554.03 2688.2,-557.53 2688.2,-550.53"/>
</g>
<!-- Node5 -->
<g id="node5" class="node">
<title>Node5</title>
<g id="a_node5"><a xlink:href="class_j_k_q_t_p_plot_element.html" target="_top" xlink:title="this virtual base class of every element, which is part of a JKQTPlotter plot and may appear in its k...">
<polygon fill="white" stroke="#666666" points="2483,-564.53 2358,-564.53 2358,-543.53 2483,-543.53 2483,-564.53"/>
<text text-anchor="middle" x="2420.5" y="-550.93" font-family="Helvetica,sans-Serif" font-size="12.00">JKQTPPlotElement</text>
</a>
</g>
</g>
<!-- Node5&#45;&gt;Node4 -->
<g id="edge4" class="edge">
<title>Node5&#45;&gt;Node4</title>
<path fill="none" stroke="#63b8ff" d="M2493.23,-554.03C2525,-554.03 2561.34,-554.03 2588.92,-554.03"/>
<polygon fill="#63b8ff" stroke="#63b8ff" points="2493.1,-550.53 2483.1,-554.03 2493.1,-557.53 2493.1,-550.53"/>
</g>
<!-- Node6 -->
<g id="node6" class="node">
<title>Node6</title>
<g id="a_node6"><a xlink:title=" ">
<polygon fill="white" stroke="#666666" points="1507.5,-399.53 1442.5,-399.53 1442.5,-378.53 1507.5,-378.53 1507.5,-399.53"/>
<text text-anchor="middle" x="1475" y="-385.93" font-family="Helvetica,sans-Serif" font-size="12.00">QObject</text>
</a>
</g>
</g>
<!-- Node6&#45;&gt;Node5 -->
<g id="edge5" class="edge">
<title>Node6&#45;&gt;Node5</title>
<path fill="none" stroke="#63b8ff" d="M1517.76,-400.77C1539.33,-406.83 1566.07,-414.34 1590,-421.03 1781.5,-474.57 1824.72,-509.23 2021,-541.03 2091.72,-552.49 2110.4,-546.5 2182,-549.03 2241.76,-551.14 2310.02,-552.47 2357.98,-553.22"/>
<polygon fill="#63b8ff" stroke="#63b8ff" points="1518.51,-397.35 1507.94,-398.01 1516.62,-404.09 1518.51,-397.35"/>
</g>
<!-- Node7 -->
<g id="node7" class="node">
<title>Node7</title>
<g id="a_node7"><a xlink:href="class_j_k_q_t_base_plotter.html" target="_top" xlink:title="base class for 2D plotter classes (used by the plotter widget JKQTPlotter)">
<polygon fill="white" stroke="#666666" points="2149.5,-378.53 2035.5,-378.53 2035.5,-357.53 2149.5,-357.53 2149.5,-378.53"/>
<text text-anchor="middle" x="2092.5" y="-364.93" font-family="Helvetica,sans-Serif" font-size="12.00">JKQTBasePlotter</text>
</a>
</g>
</g>
<!-- Node6&#45;&gt;Node7 -->
<g id="edge7" class="edge">
<title>Node6&#45;&gt;Node7</title>
<path fill="none" stroke="#63b8ff" d="M1517.97,-387.6C1625.96,-383.91 1913.46,-374.1 2035.48,-369.94"/>
<polygon fill="#63b8ff" stroke="#63b8ff" points="1517.67,-384.11 1507.8,-387.94 1517.91,-391.1 1517.67,-384.11"/>
</g>
<!-- Node20 -->
<g id="node20" class="node">
<title>Node20</title>
<g id="a_node20"><a xlink:href="class_j_k_q_t_math_text.html" target="_top" xlink:title="this class parses a mathematical markup string and can then draw the contained text/equation onto a Q...">
<polygon fill="white" stroke="#666666" points="1866,-432.53 1767,-432.53 1767,-411.53 1866,-411.53 1866,-432.53"/>
<text text-anchor="middle" x="1816.5" y="-418.93" font-family="Helvetica,sans-Serif" font-size="12.00">JKQTMathText</text>
</a>
</g>
</g>
<!-- Node6&#45;&gt;Node20 -->
<g id="edge26" class="edge">
<title>Node6&#45;&gt;Node20</title>
<path fill="none" stroke="#63b8ff" d="M1517.61,-393.07C1580.58,-399.19 1699.82,-410.79 1766.76,-417.29"/>
<polygon fill="#63b8ff" stroke="#63b8ff" points="1517.93,-389.59 1507.63,-392.1 1517.25,-396.56 1517.93,-389.59"/>
</g>
<!-- Node25 -->
<g id="node25" class="node">
<title>Node25</title>
<g id="a_node25"><a xlink:href="class_j_k_q_t_p_coordinate_axis.html" target="_top" xlink:title="this virtual class is the base for any type of coordinate axis, to be drawn by JKQTBasePlotter.">
<polygon fill="white" stroke="#666666" points="2491.5,-324.53 2349.5,-324.53 2349.5,-303.53 2491.5,-303.53 2491.5,-324.53"/>
<text text-anchor="middle" x="2420.5" y="-310.93" font-family="Helvetica,sans-Serif" font-size="12.00">JKQTPCoordinateAxis</text>
</a>
</g>
</g>
<!-- Node6&#45;&gt;Node25 -->
<g id="edge35" class="edge">
<title>Node6&#45;&gt;Node25</title>
<path fill="none" stroke="#63b8ff" d="M1517.82,-380.37C1594.41,-364.97 1762.51,-333.29 1906,-321.03 2063.9,-307.54 2250.09,-309.41 2349.16,-311.81"/>
<polygon fill="#63b8ff" stroke="#63b8ff" points="1516.74,-377.02 1507.64,-382.43 1518.13,-383.88 1516.74,-377.02"/>
</g>
<!-- Node7&#45;&gt;Node5 -->
<g id="edge6" class="edge">
<title>Node7&#45;&gt;Node5</title>
<path fill="none" stroke="#9a32cd" stroke-dasharray="5,2" d="M2118.4,-384.68C2133.62,-396.07 2152.34,-412.43 2164,-431.03 2179.47,-455.7 2161.09,-473.76 2182,-494.03 2206.85,-518.12 2296.09,-535.83 2357.81,-545.54"/>
<polygon fill="#9a32cd" stroke="#9a32cd" points="2120.08,-381.58 2109.92,-378.58 2115.99,-387.26 2120.08,-381.58"/>
<text text-anchor="middle" x="2238.5" y="-535.43" font-family="Helvetica,sans-Serif" font-size="12.00"> parent</text>
</g>
<!-- Node7&#45;&gt;Node7 -->
<g id="edge46" class="edge">
<title>Node7&#45;&gt;Node7</title>
<path fill="none" stroke="#9a32cd" stroke-dasharray="5,2" d="M2067.07,-388.1C2069.03,-392.94 2077.51,-396.53 2092.5,-396.53 2116.49,-396.53 2123.8,-387.34 2114.43,-378.55"/>
<polygon fill="#9a32cd" stroke="#9a32cd" points="2070.41,-389.15 2070.57,-378.55 2063.84,-386.73 2070.41,-389.15"/>
<text text-anchor="middle" x="2092.5" y="-412.93" font-family="Helvetica,sans-Serif" font-size="12.00"> masterPlotterX</text>
<text text-anchor="middle" x="2092.5" y="-399.93" font-family="Helvetica,sans-Serif" font-size="12.00">masterPlotterY</text>
</g>
<!-- Node22 -->
<g id="node22" class="node">
<title>Node22</title>
<g id="a_node22"><a xlink:href="class_j_k_q_t_p_graphs_model.html" target="_top" xlink:title="data model with all plots ina JKQTBasePlotter (+ allows to switch them visible/invisible)">
<polygon fill="white" stroke="#666666" points="2486,-489.53 2355,-489.53 2355,-468.53 2486,-468.53 2486,-489.53"/>
<text text-anchor="middle" x="2420.5" y="-475.93" font-family="Helvetica,sans-Serif" font-size="12.00">JKQTPGraphsModel</text>
</a>
</g>
</g>
<!-- Node7&#45;&gt;Node22 -->
<g id="edge32" class="edge">
<title>Node7&#45;&gt;Node22</title>
<path fill="none" stroke="#9a32cd" stroke-dasharray="5,2" d="M2115.09,-385.04C2129.71,-397.09 2149.01,-414.06 2164,-431.03 2173.3,-441.56 2169.87,-449.94 2182,-457.03 2210.33,-473.59 2294.62,-478.07 2354.72,-479.09"/>
<polygon fill="#9a32cd" stroke="#9a32cd" points="2117.07,-382.14 2107.09,-378.56 2112.66,-387.57 2117.07,-382.14"/>
<text text-anchor="middle" x="2238.5" y="-480.43" font-family="Helvetica,sans-Serif" font-size="12.00"> m_plotter</text>
</g>
<!-- Node7&#45;&gt;Node25 -->
<g id="edge36" class="edge">
<title>Node7&#45;&gt;Node25</title>
<path fill="none" stroke="#9a32cd" stroke-dasharray="5,2" d="M2133.03,-354.28C2148.19,-349.45 2165.74,-344.4 2182,-341.03 2237.67,-329.48 2301.77,-322.56 2349.34,-318.62"/>
<polygon fill="#9a32cd" stroke="#9a32cd" points="2131.88,-350.97 2123.46,-357.4 2134.05,-357.63 2131.88,-350.97"/>
<text text-anchor="middle" x="2238.5" y="-344.43" font-family="Helvetica,sans-Serif" font-size="12.00"> parent</text>
</g>
<!-- Node8 -->
<g id="node8" class="node">
<title>Node8</title>
<g id="a_node8"><a xlink:href="class_j_k_q_t_base_plotter_style.html" target="_top" xlink:title="Support Class for JKQTBasePlotter, which summarizes all properties that define the visual styling of ...">
<polygon fill="white" stroke="#666666" points="1888,-280.53 1745,-280.53 1745,-259.53 1888,-259.53 1888,-280.53"/>
<text text-anchor="middle" x="1816.5" y="-266.93" font-family="Helvetica,sans-Serif" font-size="12.00">JKQTBasePlotterStyle</text>
</a>
</g>
</g>
<!-- Node8&#45;&gt;Node7 -->
<g id="edge8" class="edge">
<title>Node8&#45;&gt;Node7</title>
<path fill="none" stroke="#9a32cd" stroke-dasharray="5,2" d="M1856.57,-284C1912.04,-303.84 2012.39,-339.73 2062.04,-357.49"/>
<polygon fill="#9a32cd" stroke="#9a32cd" points="1857.68,-280.68 1847.08,-280.61 1855.32,-287.27 1857.68,-280.68"/>
<text text-anchor="middle" x="1954.5" y="-340.43" font-family="Helvetica,sans-Serif" font-size="12.00"> plotterStyle</text>
</g>
<!-- Node9 -->
<g id="node9" class="node">
<title>Node9</title>
<g id="a_node9"><a xlink:href="class_j_k_q_t_p_key_style.html" target="_top" xlink:title="Support Class for JKQTBasePlotter, which summarizes all properties that define the visual styling of ...">
<polygon fill="white" stroke="#666666" points="1527,-302.53 1423,-302.53 1423,-281.53 1527,-281.53 1527,-302.53"/>
<text text-anchor="middle" x="1475" y="-288.93" font-family="Helvetica,sans-Serif" font-size="12.00">JKQTPKeyStyle</text>
</a>
</g>
</g>
<!-- Node9&#45;&gt;Node8 -->
<g id="edge9" class="edge">
<title>Node9&#45;&gt;Node8</title>
<path fill="none" stroke="#9a32cd" stroke-dasharray="5,2" d="M1532.5,-279.57C1550.76,-276.1 1571.15,-272.79 1590,-271.03 1641.65,-266.2 1700.24,-266.1 1744.75,-267.13"/>
<polygon fill="#9a32cd" stroke="#9a32cd" points="1531.75,-276.15 1522.61,-281.51 1533.09,-283.02 1531.75,-276.15"/>
<text text-anchor="middle" x="1658.5" y="-274.43" font-family="Helvetica,sans-Serif" font-size="12.00"> keyStyle</text>
</g>
<!-- Node10 -->
<g id="node10" class="node">
<title>Node10</title>
<g id="a_node10"><a xlink:href="class_j_k_q_t_p_coordinate_axis_style.html" target="_top" xlink:title="Support Class for JKQTPCoordinateAxis, which summarizes all properties that define the visual styling...">
<polygon fill="white" stroke="#666666" points="1234,-194.53 1063,-194.53 1063,-173.53 1234,-173.53 1234,-194.53"/>
<text text-anchor="middle" x="1148.5" y="-180.93" font-family="Helvetica,sans-Serif" font-size="12.00">JKQTPCoordinateAxisStyle</text>
</a>
</g>
</g>
<!-- Node10&#45;&gt;Node8 -->
<g id="edge10" class="edge">
<title>Node10&#45;&gt;Node8</title>
<path fill="none" stroke="#9a32cd" stroke-dasharray="5,2" d="M1241.1,-195.86C1375.52,-213.22 1623.37,-245.22 1744.76,-260.89"/>
<polygon fill="#9a32cd" stroke="#9a32cd" points="1241.2,-192.34 1230.83,-194.53 1240.3,-199.28 1241.2,-192.34"/>
<text text-anchor="middle" x="1475" y="-255.43" font-family="Helvetica,sans-Serif" font-size="12.00"> xAxisStyle</text>
<text text-anchor="middle" x="1475" y="-242.43" font-family="Helvetica,sans-Serif" font-size="12.00">yAxisStyle</text>
</g>
<!-- Node12 -->
<g id="node12" class="node">
<title>Node12</title>
<g id="a_node12"><a xlink:href="class_j_k_q_t_p_colorbar_coordinate_axis_style.html" target="_top" xlink:title="Support Class for JKQTPCoordinateAxis, which summarizes all properties that define the visual styling...">
<polygon fill="white" stroke="#666666" points="1572,-201.03 1378,-201.03 1378,-167.03 1572,-167.03 1572,-201.03"/>
<text text-anchor="start" x="1386" y="-187.43" font-family="Helvetica,sans-Serif" font-size="12.00">JKQTPColorbarCoordinateAxis</text>
<text text-anchor="middle" x="1475" y="-174.43" font-family="Helvetica,sans-Serif" font-size="12.00">Style</text>
</a>
</g>
</g>
<!-- Node10&#45;&gt;Node12 -->
<g id="edge13" class="edge">
<title>Node10&#45;&gt;Node12</title>
<path fill="none" stroke="#63b8ff" d="M1244.56,-184.03C1286.54,-184.03 1335.81,-184.03 1377.91,-184.03"/>
<polygon fill="#63b8ff" stroke="#63b8ff" points="1244.33,-180.53 1234.33,-184.03 1244.33,-187.53 1244.33,-180.53"/>
</g>
<!-- Node10&#45;&gt;Node25 -->
<g id="edge37" class="edge">
<title>Node10&#45;&gt;Node25</title>
<path fill="none" stroke="#9a32cd" stroke-dasharray="5,2" d="M1205.93,-171.4C1270.4,-158.08 1379.25,-139.03 1474,-139.03 1474,-139.03 1474,-139.03 2093.5,-139.03 2233.21,-139.03 2370.84,-265.35 2409.08,-303.35"/>
<polygon fill="#9a32cd" stroke="#9a32cd" points="1205.04,-168.01 1195.97,-173.48 1206.48,-174.86 1205.04,-168.01"/>
<text text-anchor="middle" x="1816.5" y="-142.43" font-family="Helvetica,sans-Serif" font-size="12.00"> axisStyle</text>
</g>
<!-- Node11 -->
<g id="node11" class="node">
<title>Node11</title>
<g id="a_node11"><a xlink:href="class_j_k_q_t_p_grid_style.html" target="_top" xlink:title="Support Class for JKQTPCoordinateAxis, and summarizes all properties that define the visual styling o...">
<polygon fill="white" stroke="#666666" points="805.5,-194.53 698.5,-194.53 698.5,-173.53 805.5,-173.53 805.5,-194.53"/>
<text text-anchor="middle" x="752" y="-180.93" font-family="Helvetica,sans-Serif" font-size="12.00">JKQTPGridStyle</text>
</a>
</g>
</g>
<!-- Node11&#45;&gt;Node10 -->
<g id="edge11" class="edge">
<title>Node11&#45;&gt;Node10</title>
<path fill="none" stroke="#9a32cd" stroke-dasharray="5,2" d="M816.18,-184.03C883.03,-184.03 988.9,-184.03 1062.92,-184.03"/>
<polygon fill="#9a32cd" stroke="#9a32cd" points="815.79,-180.53 805.79,-184.03 815.79,-187.53 815.79,-180.53"/>
<text text-anchor="middle" x="948.5" y="-200.43" font-family="Helvetica,sans-Serif" font-size="12.00"> majorGridStyle</text>
<text text-anchor="middle" x="948.5" y="-187.43" font-family="Helvetica,sans-Serif" font-size="12.00">minorGridStyle</text>
</g>
<!-- Node12&#45;&gt;Node8 -->
<g id="edge12" class="edge">
<title>Node12&#45;&gt;Node8</title>
<path fill="none" stroke="#9a32cd" stroke-dasharray="5,2" d="M1582.5,-174.93C1628.35,-174.68 1681.72,-179.43 1727,-197.03 1761.34,-210.38 1792.27,-242.56 1806.78,-259.38"/>
<polygon fill="#9a32cd" stroke="#9a32cd" points="1582.18,-171.43 1572.23,-175.07 1582.28,-178.43 1582.18,-171.43"/>
<text text-anchor="middle" x="1658.5" y="-213.43" font-family="Helvetica,sans-Serif" font-size="12.00"> rightColorbarAxisStyle</text>
<text text-anchor="middle" x="1658.5" y="-200.43" font-family="Helvetica,sans-Serif" font-size="12.00">topColorbarAxisStyle</text>
</g>
<!-- Node13 -->
<g id="node13" class="node">
<title>Node13</title>
<g id="a_node13"><a xlink:href="class_j_k_q_t_graphs_base_style.html" target="_top" xlink:title="Support Class for JKQTBasePlotter, which summarizes all properties that define the visual styling of ...">
<polygon fill="white" stroke="#666666" points="1548,-352.53 1402,-352.53 1402,-331.53 1548,-331.53 1548,-352.53"/>
<text text-anchor="middle" x="1475" y="-338.93" font-family="Helvetica,sans-Serif" font-size="12.00">JKQTGraphsBaseStyle</text>
</a>
</g>
</g>
<!-- Node13&#45;&gt;Node8 -->
<g id="edge14" class="edge">
<title>Node13&#45;&gt;Node8</title>
<path fill="none" stroke="#9a32cd" stroke-dasharray="5,2" d="M1516.19,-328.23C1537.86,-321.17 1565.18,-312.85 1590,-307.03 1597.83,-305.19 1686.32,-290.82 1750.08,-280.54"/>
<polygon fill="#9a32cd" stroke="#9a32cd" points="1515.06,-324.92 1506.66,-331.38 1517.25,-331.57 1515.06,-324.92"/>
<text text-anchor="middle" x="1658.5" y="-310.43" font-family="Helvetica,sans-Serif" font-size="12.00"> graphsStyle</text>
</g>
<!-- Node14 -->
<g id="node14" class="node">
<title>Node14</title>
<g id="a_node14"><a xlink:href="class_j_k_q_t_graphs_specific_style_properties.html" target="_top" xlink:title="Support Class for JKQTBasePlotter, which summarizes all properties that define the visual styling of ...">
<polygon fill="white" stroke="#666666" points="623,-342.53 399,-342.53 399,-321.53 623,-321.53 623,-342.53"/>
<text text-anchor="middle" x="511" y="-328.93" font-family="Helvetica,sans-Serif" font-size="12.00">JKQTGraphsSpecificStyleProperties</text>
</a>
</g>
</g>
<!-- Node14&#45;&gt;Node13 -->
<g id="edge15" class="edge">
<title>Node14&#45;&gt;Node13</title>
<path fill="none" stroke="#9a32cd" stroke-dasharray="5,2" d="M633.27,-337.82C635.87,-337.89 638.45,-337.96 641,-338.03 922.37,-345.25 1257.38,-343.8 1401.84,-342.69"/>
<polygon fill="#9a32cd" stroke="#9a32cd" points="633.27,-334.31 623.17,-337.49 633.05,-341.31 633.27,-334.31"/>
<text text-anchor="middle" x="948.5" y="-373.43" font-family="Helvetica,sans-Serif" font-size="12.00"> boxplotStyle</text>
<text text-anchor="middle" x="948.5" y="-360.43" font-family="Helvetica,sans-Serif" font-size="12.00">defaultGraphStyle</text>
<text text-anchor="middle" x="948.5" y="-347.43" font-family="Helvetica,sans-Serif" font-size="12.00">filledStyle</text>
</g>
<!-- Node16 -->
<g id="node16" class="node">
<title>Node16</title>
<g id="a_node16"><a xlink:href="class_j_k_q_t_barchart_specific_style_properties.html" target="_top" xlink:title="Support Class for JKQTBasePlotter, which summarizes all properties that define the visual styling of ...">
<polygon fill="white" stroke="#666666" points="1035,-329.03 862,-329.03 862,-295.03 1035,-295.03 1035,-329.03"/>
<text text-anchor="start" x="870" y="-315.43" font-family="Helvetica,sans-Serif" font-size="12.00">JKQTBarchartSpecificStyle</text>
<text text-anchor="middle" x="948.5" y="-302.43" font-family="Helvetica,sans-Serif" font-size="12.00">Properties</text>
</a>
</g>
</g>
<!-- Node14&#45;&gt;Node16 -->
<g id="edge18" class="edge">
<title>Node14&#45;&gt;Node16</title>
<path fill="none" stroke="#63b8ff" d="M633.15,-326.47C705.82,-323.13 796.5,-318.96 861.76,-315.97"/>
<polygon fill="#63b8ff" stroke="#63b8ff" points="632.85,-322.98 623.02,-326.93 633.17,-329.97 632.85,-322.98"/>
</g>
<!-- Node17 -->
<g id="node17" class="node">
<title>Node17</title>
<g id="a_node17"><a xlink:href="class_j_k_q_t_impulse_specific_style_properties.html" target="_top" xlink:title="Support Class for JKQTBasePlotter, which summarizes all properties that define the visual styling of ...">
<polygon fill="white" stroke="#666666" points="1032.5,-285.03 864.5,-285.03 864.5,-251.03 1032.5,-251.03 1032.5,-285.03"/>
<text text-anchor="start" x="872.5" y="-271.43" font-family="Helvetica,sans-Serif" font-size="12.00">JKQTImpulseSpecificStyle</text>
<text text-anchor="middle" x="948.5" y="-258.43" font-family="Helvetica,sans-Serif" font-size="12.00">Properties</text>
</a>
</g>
</g>
<!-- Node14&#45;&gt;Node17 -->
<g id="edge20" class="edge">
<title>Node14&#45;&gt;Node17</title>
<path fill="none" stroke="#63b8ff" d="M594.09,-319.97C671.4,-308.6 786.64,-291.67 864.31,-280.25"/>
<polygon fill="#63b8ff" stroke="#63b8ff" points="593.3,-316.54 583.91,-321.46 594.32,-323.47 593.3,-316.54"/>
</g>
<!-- Node18 -->
<g id="node18" class="node">
<title>Node18</title>
<g id="a_node18"><a xlink:href="class_j_k_q_t_geometric_specific_style_properties.html" target="_top" xlink:title="Support Class for JKQTBasePlotter, which summarizes all properties that define the visual styling of ...">
<polygon fill="white" stroke="#666666" points="844,-423.03 660,-423.03 660,-389.03 844,-389.03 844,-423.03"/>
<text text-anchor="start" x="668" y="-409.43" font-family="Helvetica,sans-Serif" font-size="12.00">JKQTGeometricSpecificStyle</text>
<text text-anchor="middle" x="752" y="-396.43" font-family="Helvetica,sans-Serif" font-size="12.00">Properties</text>
</a>
</g>
</g>
<!-- Node14&#45;&gt;Node18 -->
<g id="edge22" class="edge">
<title>Node14&#45;&gt;Node18</title>
<path fill="none" stroke="#63b8ff" d="M555.59,-345.53C595.02,-357.74 653.28,-375.77 695.93,-388.98"/>
<polygon fill="#63b8ff" stroke="#63b8ff" points="556.58,-342.17 545.99,-342.55 554.51,-348.85 556.58,-342.17"/>
</g>
<!-- Node15 -->
<g id="node15" class="node">
<title>Node15</title>
<g id="a_node15"><a xlink:href="struct_j_k_q_t_p_color_derivation_mode.html" target="_top" xlink:title="Specifies how a fill&#45;color is derived from a given color.">
<polygon fill="white" stroke="#666666" points="179,-342.53 0,-342.53 0,-321.53 179,-321.53 179,-342.53"/>
<text text-anchor="middle" x="89.5" y="-328.93" font-family="Helvetica,sans-Serif" font-size="12.00">JKQTPColorDerivationMode</text>
</a>
</g>
</g>
<!-- Node15&#45;&gt;Node14 -->
<g id="edge16" class="edge">
<title>Node15&#45;&gt;Node14</title>
<path fill="none" stroke="#9a32cd" stroke-dasharray="5,2" d="M189.53,-332.03C252.41,-332.03 333.9,-332.03 398.97,-332.03"/>
<polygon fill="#9a32cd" stroke="#9a32cd" points="189.21,-328.53 179.21,-332.03 189.21,-335.53 189.21,-328.53"/>
<text text-anchor="middle" x="289" y="-387.43" font-family="Helvetica,sans-Serif" font-size="12.00"> errorColorDerivationMode</text>
<text text-anchor="middle" x="289" y="-374.43" font-family="Helvetica,sans-Serif" font-size="12.00">errorFillColorDerivationMode</text>
<text text-anchor="middle" x="289" y="-361.43" font-family="Helvetica,sans-Serif" font-size="12.00">fillColorDerivationMode</text>
<text text-anchor="middle" x="289" y="-348.43" font-family="Helvetica,sans-Serif" font-size="12.00">graphColorDerivationMode</text>
<text text-anchor="middle" x="289" y="-335.43" font-family="Helvetica,sans-Serif" font-size="12.00">symbolFillColorDerivationMode</text>
</g>
<!-- Node16&#45;&gt;Node13 -->
<g id="edge17" class="edge">
<title>Node16&#45;&gt;Node13</title>
<path fill="none" stroke="#9a32cd" stroke-dasharray="5,2" d="M1045.41,-315.54C1103.01,-317.83 1177.73,-321.12 1244,-325.03 1296.86,-328.15 1356.49,-332.58 1401.78,-336.14"/>
<polygon fill="#9a32cd" stroke="#9a32cd" points="1045.36,-312.04 1035.23,-315.14 1045.09,-319.03 1045.36,-312.04"/>
<text text-anchor="middle" x="1148.5" y="-328.43" font-family="Helvetica,sans-Serif" font-size="12.00"> barchartStyle</text>
</g>
<!-- Node17&#45;&gt;Node13 -->
<g id="edge19" class="edge">
<title>Node17&#45;&gt;Node13</title>
<path fill="none" stroke="#9a32cd" stroke-dasharray="5,2" d="M1042.78,-276.42C1100.81,-282.08 1176.9,-290.27 1244,-300.03 1305.46,-308.97 1375.61,-322.22 1422.11,-331.44"/>
<polygon fill="#9a32cd" stroke="#9a32cd" points="1042.82,-272.91 1032.53,-275.43 1042.15,-279.88 1042.82,-272.91"/>
<text text-anchor="middle" x="1148.5" y="-303.43" font-family="Helvetica,sans-Serif" font-size="12.00"> impulseStyle</text>
</g>
<!-- Node18&#45;&gt;Node13 -->
<g id="edge21" class="edge">
<title>Node18&#45;&gt;Node13</title>
<path fill="none" stroke="#9a32cd" stroke-dasharray="5,2" d="M854.24,-417.57C953.71,-427.02 1109.67,-436.78 1244,-423.03 1296.37,-417.67 1317.07,-429.5 1360,-399.03 1372.68,-390.03 1365.64,-378.47 1378,-369.03 1387.49,-361.78 1398.84,-356.47 1410.36,-352.59"/>
<polygon fill="#9a32cd" stroke="#9a32cd" points="854.49,-414.08 844.2,-416.6 853.81,-421.05 854.49,-414.08"/>
<text text-anchor="middle" x="1148.5" y="-433.43" font-family="Helvetica,sans-Serif" font-size="12.00"> geometricStyle</text>
</g>
<!-- Node19 -->
<g id="node19" class="node">
<title>Node19</title>
<g id="a_node19"><a xlink:href="class_j_k_q_t_annotations_specific_style_properties.html" target="_top" xlink:title="Support Class for JKQTBasePlotter, which summarizes all properties that define the visual styling of ...">
<polygon fill="white" stroke="#666666" points="1244,-414.03 1053,-414.03 1053,-380.03 1244,-380.03 1244,-414.03"/>
<text text-anchor="start" x="1061" y="-400.43" font-family="Helvetica,sans-Serif" font-size="12.00">JKQTAnnotationsSpecificStyle</text>
<text text-anchor="middle" x="1148.5" y="-387.43" font-family="Helvetica,sans-Serif" font-size="12.00">Properties</text>
</a>
</g>
</g>
<!-- Node18&#45;&gt;Node19 -->
<g id="edge24" class="edge">
<title>Node18&#45;&gt;Node19</title>
<path fill="none" stroke="#63b8ff" d="M854.07,-403.72C915.27,-402.33 992.83,-400.56 1052.84,-399.19"/>
<polygon fill="#63b8ff" stroke="#63b8ff" points="853.92,-400.23 844,-403.95 854.08,-407.22 853.92,-400.23"/>
</g>
<!-- Node19&#45;&gt;Node13 -->
<g id="edge23" class="edge">
<title>Node19&#45;&gt;Node13</title>
<path fill="none" stroke="#9a32cd" stroke-dasharray="5,2" d="M1253.93,-382.94C1287.84,-378.02 1325.58,-372.18 1360,-366.03 1382.2,-362.06 1406.69,-357 1427.26,-352.54"/>
<polygon fill="#9a32cd" stroke="#9a32cd" points="1253.41,-379.48 1244.01,-384.37 1254.4,-386.41 1253.41,-379.48"/>
<text text-anchor="middle" x="1311" y="-385.43" font-family="Helvetica,sans-Serif" font-size="12.00"> annotationStyle</text>
</g>
<!-- Node20&#45;&gt;Node7 -->
<g id="edge25" class="edge">
<title>Node20&#45;&gt;Node7</title>
<path fill="none" stroke="#9a32cd" stroke-dasharray="5,2" d="M1876.11,-410.48C1924.15,-401.01 1991.58,-387.72 2038.13,-378.55"/>
<polygon fill="#9a32cd" stroke="#9a32cd" points="1875.3,-407.07 1866.17,-412.44 1876.66,-413.94 1875.3,-407.07"/>
<text text-anchor="middle" x="1954.5" y="-408.43" font-family="Helvetica,sans-Serif" font-size="12.00"> mathText</text>
</g>
<!-- Node21 -->
<g id="node21" class="node">
<title>Node21</title>
<g id="a_node21"><a xlink:href="class_j_k_q_t_math_text_node.html" target="_top" xlink:title="subclass representing one node in the syntax tree">
<polygon fill="white" stroke="#666666" points="2158,-461.53 2027,-461.53 2027,-440.53 2158,-440.53 2158,-461.53"/>
<text text-anchor="middle" x="2092.5" y="-447.93" font-family="Helvetica,sans-Serif" font-size="12.00">JKQTMathTextNode</text>
</a>
</g>
</g>
<!-- Node20&#45;&gt;Node21 -->
<g id="edge28" class="edge">
<title>Node20&#45;&gt;Node21</title>
<path fill="none" stroke="#9a32cd" stroke-dasharray="5,2" d="M1852.06,-436.17C1868.16,-442.02 1887.75,-448.12 1906,-451.03 1945.75,-457.38 1990.91,-457.53 2026.72,-456.02"/>
<polygon fill="#9a32cd" stroke="#9a32cd" points="1853.12,-432.83 1842.53,-432.59 1850.66,-439.39 1853.12,-432.83"/>
<text text-anchor="middle" x="1954.5" y="-460.43" font-family="Helvetica,sans-Serif" font-size="12.00"> parentMathText</text>
</g>
<!-- Node21&#45;&gt;Node20 -->
<g id="edge27" class="edge">
<title>Node21&#45;&gt;Node20</title>
<path fill="none" stroke="#9a32cd" stroke-dasharray="5,2" d="M2016.66,-439.72C2012.04,-439.12 2007.46,-438.55 2003,-438.03 1956.6,-432.63 1903.48,-428.22 1866.01,-425.42"/>
<polygon fill="#9a32cd" stroke="#9a32cd" points="2016.42,-443.21 2026.79,-441.07 2017.34,-436.28 2016.42,-443.21"/>
<text text-anchor="middle" x="1954.5" y="-441.43" font-family="Helvetica,sans-Serif" font-size="12.00"> parsedNode</text>
</g>
<!-- Node21&#45;&gt;Node21 -->
<g id="edge29" class="edge">
<title>Node21&#45;&gt;Node21</title>
<path fill="none" stroke="#9a32cd" stroke-dasharray="5,2" d="M2067.07,-471.1C2069.03,-475.94 2077.51,-479.53 2092.5,-479.53 2116.49,-479.53 2123.8,-470.34 2114.43,-461.55"/>
<polygon fill="#9a32cd" stroke="#9a32cd" points="2070.41,-472.15 2070.57,-461.55 2063.84,-469.73 2070.41,-472.15"/>
<text text-anchor="middle" x="2092.5" y="-482.93" font-family="Helvetica,sans-Serif" font-size="12.00"> parentNode</text>
</g>
<!-- Node22&#45;&gt;Node7 -->
<g id="edge30" class="edge">
<title>Node22&#45;&gt;Node7</title>
<path fill="none" stroke="#9a32cd" stroke-dasharray="5,2" d="M2374.8,-465.61C2351.18,-458.73 2321.64,-450.48 2295,-444.03 2245.19,-431.97 2229.78,-439.57 2182,-421.03 2153.95,-410.14 2124.6,-390.72 2107.74,-378.65"/>
<polygon fill="#9a32cd" stroke="#9a32cd" points="2373.95,-469 2384.53,-468.46 2375.92,-462.29 2373.95,-469"/>
<text text-anchor="middle" x="2238.5" y="-447.43" font-family="Helvetica,sans-Serif" font-size="12.00"> m_plotsModel</text>
</g>
<!-- Node23 -->
<g id="node23" class="node">
<title>Node23</title>
<g id="a_node23"><a xlink:title=" ">
<polygon fill="white" stroke="#666666" points="2164,-531.53 2021,-531.53 2021,-510.53 2164,-510.53 2164,-531.53"/>
<text text-anchor="middle" x="2092.5" y="-517.93" font-family="Helvetica,sans-Serif" font-size="12.00">QAbstractTableModel</text>
</a>
</g>
</g>
<!-- Node23&#45;&gt;Node22 -->
<g id="edge31" class="edge">
<title>Node23&#45;&gt;Node22</title>
<path fill="none" stroke="#63b8ff" d="M2174.43,-510.6C2230.15,-503.42 2303.18,-494.01 2354.99,-487.34"/>
<polygon fill="#63b8ff" stroke="#63b8ff" points="2173.71,-507.17 2164.24,-511.92 2174.6,-514.11 2173.71,-507.17"/>
</g>
<!-- Node24 -->
<g id="node24" class="node">
<title>Node24</title>
<g id="a_node24"><a xlink:href="class_j_k_q_t_p_horizontal_axis.html" target="_top" xlink:title="implements a horizontal axis, based on JKQTPCoordinateAxis (for most of documentation: see JKQTPCoord...">
<polygon fill="white" stroke="#666666" points="2702,-340.53 2565,-340.53 2565,-319.53 2702,-319.53 2702,-340.53"/>
<text text-anchor="middle" x="2633.5" y="-326.93" font-family="Helvetica,sans-Serif" font-size="12.00">JKQTPHorizontalAxis</text>
</a>
</g>
</g>
<!-- Node24&#45;&gt;Node7 -->
<g id="edge33" class="edge">
<title>Node24&#45;&gt;Node7</title>
<path fill="none" stroke="#9a32cd" stroke-dasharray="5,2" d="M2554.72,-337.4C2552.11,-337.62 2549.54,-337.83 2547,-338.03 2404.05,-349.44 2235.49,-359.77 2149.74,-364.8"/>
<polygon fill="#9a32cd" stroke="#9a32cd" points="2555.18,-340.87 2564.84,-336.53 2554.58,-333.9 2555.18,-340.87"/>
<text text-anchor="middle" x="2420.5" y="-358.43" font-family="Helvetica,sans-Serif" font-size="12.00"> xAxis</text>
</g>
<!-- Node25&#45;&gt;Node24 -->
<g id="edge34" class="edge">
<title>Node25&#45;&gt;Node24</title>
<path fill="none" stroke="#63b8ff" d="M2501.81,-320.12C2522.55,-321.69 2544.67,-323.37 2564.7,-324.89"/>
<polygon fill="#63b8ff" stroke="#63b8ff" points="2502,-316.62 2491.76,-319.36 2501.47,-323.6 2502,-316.62"/>
</g>
<!-- Node26 -->
<g id="node26" class="node">
<title>Node26</title>
<g id="a_node26"><a xlink:href="class_j_k_q_t_p_vertical_axis.html" target="_top" xlink:title="implements a vertical axis, based on JKQTPCoordinateAxis (for most of documentation: see JKQTPCoordin...">
<polygon fill="white" stroke="#666666" points="2694.5,-407.53 2572.5,-407.53 2572.5,-386.53 2694.5,-386.53 2694.5,-407.53"/>
<text text-anchor="middle" x="2633.5" y="-393.93" font-family="Helvetica,sans-Serif" font-size="12.00">JKQTPVerticalAxis</text>
</a>
</g>
</g>
<!-- Node25&#45;&gt;Node26 -->
<g id="edge39" class="edge">
<title>Node25&#45;&gt;Node26</title>
<path fill="none" stroke="#63b8ff" d="M2489.21,-326.95C2502.28,-330.28 2515.72,-334.28 2528,-339.03 2561.1,-351.81 2596.61,-373.4 2616.54,-386.32"/>
<polygon fill="#63b8ff" stroke="#63b8ff" points="2489.85,-323.51 2479.31,-324.55 2488.2,-330.31 2489.85,-323.51"/>
</g>
<!-- Node26&#45;&gt;Node7 -->
<g id="edge38" class="edge">
<title>Node26&#45;&gt;Node7</title>
<path fill="none" stroke="#9a32cd" stroke-dasharray="5,2" d="M2562.01,-397.37C2473.19,-397.19 2315.95,-394.8 2182,-382.03 2171.47,-381.03 2160.29,-379.57 2149.55,-377.97"/>
<polygon fill="#9a32cd" stroke="#9a32cd" points="2562.23,-400.87 2572.23,-397.38 2562.24,-393.87 2562.23,-400.87"/>
<text text-anchor="middle" x="2420.5" y="-401.43" font-family="Helvetica,sans-Serif" font-size="12.00"> yAxis</text>
</g>
<!-- Node27 -->
<g id="node27" class="node">
<title>Node27</title>
<g id="a_node27"><a xlink:href="class_j_k_q_t_p_datastore.html" target="_top" xlink:title="This class manages data columns (with entries of type double ), used by JKQTPlotter/JKQTBasePlotter t...">
<polygon fill="white" stroke="#666666" points="1872,-46.53 1761,-46.53 1761,-25.53 1872,-25.53 1872,-46.53"/>
<text text-anchor="middle" x="1816.5" y="-32.93" font-family="Helvetica,sans-Serif" font-size="12.00">JKQTPDatastore</text>
</a>
</g>
</g>
<!-- Node27&#45;&gt;Node7 -->
<g id="edge40" class="edge">
<title>Node27&#45;&gt;Node7</title>
<path fill="none" stroke="#9a32cd" stroke-dasharray="5,2" d="M1881.39,-50.47C1883.71,-51.85 1885.92,-53.37 1888,-55.03 1901.36,-65.69 1897.26,-74.34 1906,-89.03 1970.11,-196.75 2057.73,-320.82 2083.85,-357.38"/>
<polygon fill="#9a32cd" stroke="#9a32cd" points="1882.58,-47.15 1872.08,-45.76 1879.42,-53.39 1882.58,-47.15"/>
<text text-anchor="middle" x="1954.5" y="-239.43" font-family="Helvetica,sans-Serif" font-size="12.00"> datastore</text>
</g>
<!-- Node29 -->
<g id="node29" class="node">
<title>Node29</title>
<g id="a_node29"><a xlink:href="class_j_k_q_t_p_column.html" target="_top" xlink:title="internally stores information about one data column. See JKQTPDatastore for more information.">
<polygon fill="white" stroke="#666666" points="2141.5,-46.53 2043.5,-46.53 2043.5,-25.53 2141.5,-25.53 2141.5,-46.53"/>
<text text-anchor="middle" x="2092.5" y="-32.93" font-family="Helvetica,sans-Serif" font-size="12.00">JKQTPColumn</text>
</a>
</g>
</g>
<!-- Node27&#45;&gt;Node29 -->
<g id="edge43" class="edge">
<title>Node27&#45;&gt;Node29</title>
<path fill="none" stroke="#9a32cd" stroke-dasharray="5,2" d="M1882.54,-36.03C1931.87,-36.03 1998.58,-36.03 2043.22,-36.03"/>
<polygon fill="#9a32cd" stroke="#9a32cd" points="1882.29,-32.53 1872.29,-36.03 1882.29,-39.53 1882.29,-32.53"/>
<text text-anchor="middle" x="1954.5" y="-39.43" font-family="Helvetica,sans-Serif" font-size="12.00"> datastore</text>
</g>
<!-- Node28 -->
<g id="node28" class="node">
<title>Node28</title>
<g id="a_node28"><a xlink:title=" ">
<polygon fill="white" stroke="#666666" points="2528,-46.53 2313,-46.53 2313,-25.53 2528,-25.53 2528,-46.53"/>
<text text-anchor="middle" x="2420.5" y="-32.93" font-family="Helvetica,sans-Serif" font-size="12.00">std::unique_ptr&lt; JKQTPColumn &gt;</text>
</a>
</g>
</g>
<!-- Node28&#45;&gt;Node27 -->
<g id="edge41" class="edge">
<title>Node28&#45;&gt;Node27</title>
<path fill="none" stroke="#9a32cd" stroke-dasharray="5,2" d="M2352.44,-23.79C2273.25,-10.89 2137.55,6.36 2021,-3.03 1968.56,-7.25 1909.24,-17.51 1868.24,-25.47"/>
<polygon fill="#9a32cd" stroke="#9a32cd" points="2352.32,-27.32 2362.75,-25.5 2353.46,-20.41 2352.32,-27.32"/>
<text text-anchor="middle" x="2092.5" y="-6.43" font-family="Helvetica,sans-Serif" font-size="12.00"> m_invalidColumn</text>
</g>
<!-- Node29&#45;&gt;Node28 -->
<g id="edge42" class="edge">
<title>Node29&#45;&gt;Node28</title>
<path fill="none" stroke="#9a32cd" stroke-dasharray="5,2" d="M2151.69,-36.03C2196.35,-36.03 2259.24,-36.03 2312.85,-36.03"/>
<polygon fill="#9a32cd" stroke="#9a32cd" points="2151.6,-32.53 2141.6,-36.03 2151.6,-39.53 2151.6,-32.53"/>
<text text-anchor="middle" x="2238.5" y="-39.43" font-family="Helvetica,sans-Serif" font-size="12.00"> ptr</text>
</g>
<!-- Node30 -->
<g id="node30" class="node">
<title>Node30</title>
<g id="a_node30"><a xlink:title=" ">
<polygon fill="white" stroke="#666666" points="2162.5,-85.53 2022.5,-85.53 2022.5,-64.53 2162.5,-64.53 2162.5,-85.53"/>
<text text-anchor="middle" x="2092.5" y="-71.93" font-family="Helvetica,sans-Serif" font-size="12.00">std::unique_ptr&lt; T &gt;</text>
</a>
</g>
</g>
<!-- Node30&#45;&gt;Node28 -->
<g id="edge44" class="edge">
<title>Node30&#45;&gt;Node28</title>
<path fill="none" stroke="orange" stroke-dasharray="5,2" d="M2172.77,-65.61C2209.89,-61.2 2254.71,-55.86 2295,-51.03 2307.11,-49.58 2319.87,-48.05 2332.43,-46.53"/>
<polygon fill="orange" stroke="orange" points="2172.03,-62.18 2162.51,-66.83 2172.86,-69.13 2172.03,-62.18"/>
<text text-anchor="middle" x="2238.5" y="-68.43" font-family="Helvetica,sans-Serif" font-size="12.00"> &lt; JKQTPColumn &gt;</text>
</g>
<!-- Node31 -->
<g id="node31" class="node">
<title>Node31</title>
<g id="a_node31"><a xlink:title=" ">
<polygon fill="white" stroke="#666666" points="1831,-85.53 1802,-85.53 1802,-64.53 1831,-64.53 1831,-85.53"/>
<text text-anchor="middle" x="1816.5" y="-71.93" font-family="Helvetica,sans-Serif" font-size="12.00">T</text>
</a>
</g>
</g>
<!-- Node31&#45;&gt;Node30 -->
<g id="edge45" class="edge">
<title>Node31&#45;&gt;Node30</title>
<path fill="none" stroke="#9a32cd" stroke-dasharray="5,2" d="M1841.17,-75.03C1881.06,-75.03 1963.14,-75.03 2022.46,-75.03"/>
<polygon fill="#9a32cd" stroke="#9a32cd" points="1841.09,-71.53 1831.09,-75.03 1841.09,-78.53 1841.09,-71.53"/>
<text text-anchor="middle" x="1954.5" y="-78.43" font-family="Helvetica,sans-Serif" font-size="12.00"> ptr</text>
</g>
<!-- Node32 -->
<g id="node32" class="node">
<title>Node32</title>
<g id="a_node32"><a xlink:href="class_j_k_q_t_p_graph_line_and_fill_style_mixin.html" target="_top" xlink:title="This Mix&#45;In class provides setter/getter methods, storage and other facilities for the graph line and...">
<polygon fill="white" stroke="#666666" points="3132,-525.03 2950,-525.03 2950,-491.03 3132,-491.03 3132,-525.03"/>
<text text-anchor="start" x="2958" y="-511.43" font-family="Helvetica,sans-Serif" font-size="12.00">JKQTPGraphLineAndFillStyle</text>
<text text-anchor="middle" x="3041" y="-498.43" font-family="Helvetica,sans-Serif" font-size="12.00">Mixin</text>
</a>
</g>
</g>
<!-- Node32&#45;&gt;Node1 -->
<g id="edge47" class="edge">
<title>Node32&#45;&gt;Node1</title>
<path fill="none" stroke="#63b8ff" d="M3142.17,-518.57C3151.06,-519.51 3160,-520.45 3168.73,-521.37"/>
<polygon fill="#63b8ff" stroke="#63b8ff" points="3142.46,-515.09 3132.15,-517.52 3141.73,-522.05 3142.46,-515.09"/>
</g>
<!-- Node33 -->
<g id="node33" class="node">
<title>Node33</title>
<g id="a_node33"><a xlink:href="class_j_k_q_t_p_graph_fill_style_mixin.html" target="_top" xlink:title="This Mix&#45;In class provides setter/getter methods, storage and other facilities for the graph filling ...">
<polygon fill="white" stroke="#666666" points="2908,-483.53 2744,-483.53 2744,-462.53 2908,-462.53 2908,-483.53"/>
<text text-anchor="middle" x="2826" y="-469.93" font-family="Helvetica,sans-Serif" font-size="12.00">JKQTPGraphFillStyleMixin</text>
</a>
</g>
</g>
<!-- Node33&#45;&gt;Node32 -->
<g id="edge48" class="edge">
<title>Node33&#45;&gt;Node32</title>
<path fill="none" stroke="#63b8ff" d="M2901.06,-485.2C2916.77,-487.78 2933.52,-490.53 2949.76,-493.2"/>
<polygon fill="#63b8ff" stroke="#63b8ff" points="2901.34,-481.7 2890.91,-483.53 2900.21,-488.61 2901.34,-481.7"/>
</g>
<!-- Node34 -->
<g id="node34" class="node">
<title>Node34</title>
<g id="a_node34"><a xlink:href="class_j_k_q_t_p_graph_line_style_mixin.html" target="_top" xlink:title="This Mix&#45;In class provides setter/getter methods, storage and other facilities for the graph line sty...">
<polygon fill="white" stroke="#666666" points="2913,-522.53 2739,-522.53 2739,-501.53 2913,-501.53 2913,-522.53"/>
<text text-anchor="middle" x="2826" y="-508.93" font-family="Helvetica,sans-Serif" font-size="12.00">JKQTPGraphLineStyleMixin</text>
</a>
</g>
</g>
<!-- Node34&#45;&gt;Node32 -->
<g id="edge49" class="edge">
<title>Node34&#45;&gt;Node32</title>
<path fill="none" stroke="#63b8ff" d="M2923.04,-510.23C2931.95,-510.06 2940.97,-509.89 2949.83,-509.72"/>
<polygon fill="#63b8ff" stroke="#63b8ff" points="2922.95,-506.73 2913.02,-510.41 2923.09,-513.73 2922.95,-506.73"/>
</g>
</g>
</svg>
