<?xml version="1.0" encoding="UTF-8" standalone="no"?>
<!DOCTYPE svg PUBLIC "-//W3C//DTD SVG 1.1//EN"
 "http://www.w3.org/Graphics/SVG/1.1/DTD/svg11.dtd">
<!-- Generated by graphviz version 2.43.0 (0)
 -->
<!-- Title: JKQTPHorizontalIndependentAxis Pages: 1 -->
<svg width="3240pt" height="734pt"
 viewBox="0.00 0.00 3240.00 734.00" xmlns="http://www.w3.org/2000/svg" xmlns:xlink="http://www.w3.org/1999/xlink">
<g id="graph0" class="graph" transform="scale(1 1) rotate(0) translate(4 730)">
<title>JKQTPHorizontalIndependentAxis</title>
<!-- Node1 -->
<g id="Node000001" class="node">
<title>Node1</title>
<g id="a_Node000001"><a xlink:title="implements a position&#45;indipendent horizontal axis, based on JKQTPCoordinateAxis (for most of document...">
<polygon fill="#999999" stroke="#666666" points="2471,-726 2258,-726 2258,-705 2471,-705 2471,-726"/>
<text text-anchor="middle" x="2364.5" y="-712.4" font-family="Helvetica,sans-Serif" font-size="12.00">JKQTPHorizontalIndependentAxis</text>
</a>
</g>
</g>
<!-- Node2 -->
<g id="Node000002" class="node">
<title>Node2</title>
<g id="a_Node000002"><a xlink:href="class_j_k_q_t_p_horizontal_axis.html" target="_top" xlink:title="implements a horizontal axis, based on JKQTPCoordinateAxis (for most of documentation: see JKQTPCoord...">
<polygon fill="white" stroke="#666666" points="2006.5,-691 1869.5,-691 1869.5,-670 2006.5,-670 2006.5,-691"/>
<text text-anchor="middle" x="1938" y="-677.4" font-family="Helvetica,sans-Serif" font-size="12.00">JKQTPHorizontalAxis</text>
</a>
</g>
</g>
<!-- Node2&#45;&gt;Node1 -->
<g id="edge1_Node000001_Node000002" class="edge">
<title>Node2&#45;&gt;Node1</title>
<g id="a_edge1_Node000001_Node000002"><a xlink:title=" ">
<path fill="none" stroke="#63b8ff" d="M2016.9,-686.92C2084.57,-692.5 2183.17,-700.63 2257.92,-706.79"/>
<polygon fill="#63b8ff" stroke="#63b8ff" points="2016.99,-683.42 2006.73,-686.08 2016.41,-690.39 2016.99,-683.42"/>
</a>
</g>
</g>
<!-- Node6 -->
<g id="Node000006" class="node">
<title>Node6</title>
<g id="a_Node000006"><a xlink:href="class_j_k_q_t_base_plotter.html" target="_top" xlink:title="base class for 2D plotter classes (used by the plotter widget JKQTPlotter)">
<polygon fill="white" stroke="#666666" points="2421.5,-429 2307.5,-429 2307.5,-408 2421.5,-408 2421.5,-429"/>
<text text-anchor="middle" x="2364.5" y="-415.4" font-family="Helvetica,sans-Serif" font-size="12.00">JKQTBasePlotter</text>
</a>
</g>
</g>
<!-- Node2&#45;&gt;Node6 -->
<g id="edge33_Node000006_Node000002" class="edge">
<title>Node2&#45;&gt;Node6</title>
<g id="a_edge33_Node000006_Node000002"><a xlink:title=" ">
<path fill="none" stroke="#9a32cd" stroke-dasharray="5,2" d="M2016.82,-670.66C2033.16,-667.06 2049.97,-662.16 2065,-655.5 2153.57,-616.22 2178.91,-600.71 2240,-525.5 2252.04,-510.68 2245.48,-500.91 2258,-486.5 2280.72,-460.35 2315.92,-440.45 2339.33,-429.12"/>
<polygon fill="#9a32cd" stroke="#9a32cd" points="2015.83,-667.29 2006.74,-672.74 2017.24,-674.15 2015.83,-667.29"/>
</a>
</g>
<text text-anchor="middle" x="2161.5" y="-648.9" font-family="Helvetica,sans-Serif" font-size="12.00" fill="grey"> xAxis</text>
</g>
<!-- Node3 -->
<g id="Node000003" class="node">
<title>Node3</title>
<g id="a_Node000003"><a xlink:href="class_j_k_q_t_p_horizontal_axis_base.html" target="_top" xlink:title="base class for horizontal axes, based on JKQTPCoordinateAxis (for most of documentation: see JKQTPCoo...">
<polygon fill="white" stroke="#666666" points="3073,-648 2906,-648 2906,-627 3073,-627 3073,-648"/>
<text text-anchor="middle" x="2989.5" y="-634.4" font-family="Helvetica,sans-Serif" font-size="12.00">JKQTPHorizontalAxisBase</text>
</a>
</g>
</g>
<!-- Node3&#45;&gt;Node2 -->
<g id="edge2_Node000002_Node000003" class="edge">
<title>Node3&#45;&gt;Node2</title>
<g id="a_edge2_Node000002_Node000003"><a xlink:title=" ">
<path fill="none" stroke="#63b8ff" d="M2895.67,-641.3C2687.69,-649.82 2188.42,-670.28 2006.65,-677.73"/>
<polygon fill="#63b8ff" stroke="#63b8ff" points="2896.1,-644.79 2905.95,-640.88 2895.81,-637.79 2896.1,-644.79"/>
</a>
</g>
</g>
<!-- Node4 -->
<g id="Node000004" class="node">
<title>Node4</title>
<g id="a_Node000004"><a xlink:href="class_j_k_q_t_p_coordinate_axis.html" target="_top" xlink:title="this virtual class is the base for any type of coordinate axis, to be drawn by JKQTBasePlotter.">
<polygon fill="white" stroke="#666666" points="2798.5,-588 2656.5,-588 2656.5,-567 2798.5,-567 2798.5,-588"/>
<text text-anchor="middle" x="2727.5" y="-574.4" font-family="Helvetica,sans-Serif" font-size="12.00">JKQTPCoordinateAxis</text>
</a>
</g>
</g>
<!-- Node4&#45;&gt;Node3 -->
<g id="edge3_Node000003_Node000004" class="edge">
<title>Node4&#45;&gt;Node3</title>
<g id="a_edge3_Node000003_Node000004"><a xlink:title=" ">
<path fill="none" stroke="#63b8ff" d="M2783.88,-590.28C2831.27,-601.22 2898.66,-616.77 2942.97,-626.99"/>
<polygon fill="#63b8ff" stroke="#63b8ff" points="2784.62,-586.86 2774.09,-588.02 2783.04,-593.68 2784.62,-586.86"/>
</a>
</g>
</g>
<!-- Node25 -->
<g id="Node000025" class="node">
<title>Node25</title>
<g id="a_Node000025"><a xlink:href="class_j_k_q_t_p_vertical_axis_base.html" target="_top" xlink:title="base class for vertical axes, based on JKQTPCoordinateAxis (for most of documentation: see JKQTPCoord...">
<polygon fill="white" stroke="#666666" points="3065,-552 2914,-552 2914,-531 3065,-531 3065,-552"/>
<text text-anchor="middle" x="2989.5" y="-538.4" font-family="Helvetica,sans-Serif" font-size="12.00">JKQTPVerticalAxisBase</text>
</a>
</g>
</g>
<!-- Node4&#45;&gt;Node25 -->
<g id="edge36_Node000025_Node000004" class="edge">
<title>Node4&#45;&gt;Node25</title>
<g id="a_edge36_Node000025_Node000004"><a xlink:title=" ">
<path fill="none" stroke="#63b8ff" d="M2808.73,-566.39C2842.23,-561.75 2880.92,-556.4 2913.8,-551.84"/>
<polygon fill="#63b8ff" stroke="#63b8ff" points="2807.94,-562.97 2798.52,-567.81 2808.9,-569.9 2807.94,-562.97"/>
</a>
</g>
</g>
<!-- Node5 -->
<g id="Node000005" class="node">
<title>Node5</title>
<g id="a_Node000005"><a xlink:title=" ">
<polygon fill="white" stroke="#666666" points="1507.5,-602 1442.5,-602 1442.5,-581 1507.5,-581 1507.5,-602"/>
<text text-anchor="middle" x="1475" y="-588.4" font-family="Helvetica,sans-Serif" font-size="12.00">QObject</text>
</a>
</g>
</g>
<!-- Node5&#45;&gt;Node4 -->
<g id="edge4_Node000004_Node000005" class="edge">
<title>Node5&#45;&gt;Node4</title>
<g id="a_edge4_Node000004_Node000005"><a xlink:title=" ">
<path fill="none" stroke="#63b8ff" d="M1517.77,-591.03C1700.03,-588.99 2426.74,-580.86 2656.49,-578.28"/>
<polygon fill="#63b8ff" stroke="#63b8ff" points="1517.5,-587.54 1507.54,-591.15 1517.58,-594.53 1517.5,-587.54"/>
</a>
</g>
</g>
<!-- Node5&#45;&gt;Node6 -->
<g id="edge6_Node000006_Node000005" class="edge">
<title>Node5&#45;&gt;Node6</title>
<g id="a_edge6_Node000006_Node000005"><a xlink:title=" ">
<path fill="none" stroke="#63b8ff" d="M1517.77,-584.8C1534.81,-581.55 1554.56,-577.12 1572,-571.5 1580.33,-568.81 1581.53,-565.72 1590,-563.5 1660.18,-545.14 2173.48,-531.42 2240,-502.5 2249.82,-498.23 2249.48,-492.97 2258,-486.5 2287.33,-464.23 2323.91,-441.73 2345.39,-429"/>
<polygon fill="#63b8ff" stroke="#63b8ff" points="1516.77,-581.43 1507.57,-586.67 1518.03,-588.31 1516.77,-581.43"/>
</a>
</g>
</g>
<!-- Node19 -->
<g id="Node000019" class="node">
<title>Node19</title>
<g id="a_Node000019"><a xlink:href="class_j_k_q_t_math_text.html" target="_top" xlink:title="this class parses a mathematical markup string and can then draw the contained text/equation onto a Q...">
<polygon fill="white" stroke="#666666" points="1987.5,-500 1888.5,-500 1888.5,-479 1987.5,-479 1987.5,-500"/>
<text text-anchor="middle" x="1938" y="-486.4" font-family="Helvetica,sans-Serif" font-size="12.00">JKQTMathText</text>
</a>
</g>
</g>
<!-- Node5&#45;&gt;Node19 -->
<g id="edge25_Node000019_Node000005" class="edge">
<title>Node5&#45;&gt;Node19</title>
<g id="a_edge25_Node000019_Node000005"><a xlink:title=" ">
<path fill="none" stroke="#63b8ff" d="M1517.92,-591.28C1536.28,-589.19 1557,-583.88 1572,-571.5 1587.98,-558.31 1573.42,-540.92 1590,-528.5 1601.78,-519.67 1795.47,-501.79 1888.23,-493.67"/>
<polygon fill="#63b8ff" stroke="#63b8ff" points="1517.4,-587.81 1507.73,-592.15 1518,-594.79 1517.4,-587.81"/>
</a>
</g>
</g>
<!-- Node6&#45;&gt;Node4 -->
<g id="edge5_Node000004_Node000006" class="edge">
<title>Node6&#45;&gt;Node4</title>
<g id="a_edge5_Node000004_Node000006"><a xlink:title=" ">
<path fill="none" stroke="#9a32cd" stroke-dasharray="5,2" d="M2392.84,-433.98C2417.58,-447.72 2455.23,-467.98 2489,-483.5 2562.34,-517.19 2651.44,-550.49 2696.82,-566.92"/>
<polygon fill="#9a32cd" stroke="#9a32cd" points="2394.45,-430.87 2384.02,-429.05 2391.04,-436.98 2394.45,-430.87"/>
</a>
</g>
<text text-anchor="middle" x="2545.5" y="-532.9" font-family="Helvetica,sans-Serif" font-size="12.00" fill="grey"> parent</text>
</g>
<!-- Node6&#45;&gt;Node6 -->
<g id="edge43_Node000006_Node000006" class="edge">
<title>Node6&#45;&gt;Node6</title>
<g id="a_edge43_Node000006_Node000006"><a xlink:title=" ">
<path fill="none" stroke="#9a32cd" stroke-dasharray="5,2" d="M2331.01,-437.84C2332.8,-443.04 2343.97,-447 2364.5,-447 2395.79,-447 2405.32,-437.81 2393.1,-429.02"/>
<polygon fill="#9a32cd" stroke="#9a32cd" points="2334.11,-439.47 2335.9,-429.02 2327.99,-436.07 2334.11,-439.47"/>
</a>
</g>
<text text-anchor="middle" x="2364.5" y="-463.4" font-family="Helvetica,sans-Serif" font-size="12.00" fill="grey"> masterPlotterX</text>
<text text-anchor="middle" x="2364.5" y="-450.4" font-family="Helvetica,sans-Serif" font-size="12.00" fill="grey">masterPlotterY</text>
</g>
<!-- Node22 -->
<g id="Node000022" class="node">
<title>Node22</title>
<g id="a_Node000022"><a xlink:href="class_j_k_q_t_p_graphs_model.html" target="_top" xlink:title="data model with all plots ina JKQTBasePlotter (+ allows to switch them visible/invisible)">
<polygon fill="white" stroke="#666666" points="2793,-401 2662,-401 2662,-380 2793,-380 2793,-401"/>
<text text-anchor="middle" x="2727.5" y="-387.4" font-family="Helvetica,sans-Serif" font-size="12.00">JKQTPGraphsModel</text>
</a>
</g>
</g>
<!-- Node6&#45;&gt;Node22 -->
<g id="edge32_Node000022_Node000006" class="edge">
<title>Node6&#45;&gt;Node22</title>
<g id="a_edge32_Node000022_Node000006"><a xlink:title=" ">
<path fill="none" stroke="#9a32cd" stroke-dasharray="5,2" d="M2407.81,-405.14C2431.43,-398.37 2461.55,-390.89 2489,-387.5 2547.22,-380.31 2614.07,-382.03 2661.98,-384.99"/>
<polygon fill="#9a32cd" stroke="#9a32cd" points="2406.72,-401.81 2398.11,-407.98 2408.69,-408.53 2406.72,-401.81"/>
</a>
</g>
<text text-anchor="middle" x="2545.5" y="-390.9" font-family="Helvetica,sans-Serif" font-size="12.00" fill="grey"> m_plotter</text>
</g>
<!-- Node7 -->
<g id="Node000007" class="node">
<title>Node7</title>
<g id="a_Node000007"><a xlink:href="class_j_k_q_t_base_plotter_style.html" target="_top" xlink:title="Support Class for JKQTBasePlotter, which summarizes all properties that define the visual styling of ...">
<polygon fill="white" stroke="#666666" points="2009.5,-426 1866.5,-426 1866.5,-405 2009.5,-405 2009.5,-426"/>
<text text-anchor="middle" x="1938" y="-412.4" font-family="Helvetica,sans-Serif" font-size="12.00">JKQTBasePlotterStyle</text>
</a>
</g>
</g>
<!-- Node7&#45;&gt;Node6 -->
<g id="edge7_Node000006_Node000007" class="edge">
<title>Node7&#45;&gt;Node6</title>
<g id="a_edge7_Node000006_Node000007"><a xlink:title=" ">
<path fill="none" stroke="#9a32cd" stroke-dasharray="5,2" d="M2019.81,-416.01C2080.42,-416.39 2165.41,-416.95 2240,-417.5 2261.98,-417.66 2286.15,-417.85 2307.25,-418.03"/>
<polygon fill="#9a32cd" stroke="#9a32cd" points="2019.57,-412.5 2009.55,-415.94 2019.53,-419.5 2019.57,-412.5"/>
</a>
</g>
<text text-anchor="middle" x="2161.5" y="-420.9" font-family="Helvetica,sans-Serif" font-size="12.00" fill="grey"> plotterStyle</text>
</g>
<!-- Node8 -->
<g id="Node000008" class="node">
<title>Node8</title>
<g id="a_Node000008"><a xlink:href="class_j_k_q_t_p_key_style.html" target="_top" xlink:title="Support Class for JKQTBasePlotter, which summarizes all properties that define the visual styling of ...">
<polygon fill="white" stroke="#666666" points="1527,-359 1423,-359 1423,-338 1527,-338 1527,-359"/>
<text text-anchor="middle" x="1475" y="-345.4" font-family="Helvetica,sans-Serif" font-size="12.00">JKQTPKeyStyle</text>
</a>
</g>
</g>
<!-- Node8&#45;&gt;Node7 -->
<g id="edge8_Node000007_Node000008" class="edge">
<title>Node8&#45;&gt;Node7</title>
<g id="a_edge8_Node000007_Node000008"><a xlink:title=" ">
<path fill="none" stroke="#9a32cd" stroke-dasharray="5,2" d="M1537.21,-341.79C1601.67,-336.42 1705.7,-332.54 1793,-351.5 1841.39,-362.01 1893.34,-389.65 1919.62,-404.95"/>
<polygon fill="#9a32cd" stroke="#9a32cd" points="1536.88,-338.31 1527.22,-342.67 1537.48,-345.28 1536.88,-338.31"/>
</a>
</g>
<text text-anchor="middle" x="1691.5" y="-354.9" font-family="Helvetica,sans-Serif" font-size="12.00" fill="grey"> keyStyle</text>
</g>
<!-- Node9 -->
<g id="Node000009" class="node">
<title>Node9</title>
<g id="a_Node000009"><a xlink:href="class_j_k_q_t_p_coordinate_axis_style.html" target="_top" xlink:title="Support Class for JKQTPCoordinateAxis, which summarizes all properties that define the visual styling...">
<polygon fill="white" stroke="#666666" points="1234,-578 1063,-578 1063,-557 1234,-557 1234,-578"/>
<text text-anchor="middle" x="1148.5" y="-564.4" font-family="Helvetica,sans-Serif" font-size="12.00">JKQTPCoordinateAxisStyle</text>
</a>
</g>
</g>
<!-- Node9&#45;&gt;Node4 -->
<g id="edge52_Node000004_Node000009" class="edge">
<title>Node9&#45;&gt;Node4</title>
<g id="a_edge52_Node000004_Node000009"><a xlink:title=" ">
<path fill="none" stroke="#9a32cd" stroke-dasharray="5,2" d="M1187.58,-581.43C1247.6,-602.1 1368.29,-638.5 1474,-638.5 1474,-638.5 1474,-638.5 2365.5,-638.5 2485.16,-638.5 2624.04,-605.51 2689.17,-588.06"/>
<polygon fill="#9a32cd" stroke="#9a32cd" points="1188.72,-578.12 1178.13,-578.13 1186.42,-584.73 1188.72,-578.12"/>
</a>
</g>
<text text-anchor="middle" x="1938" y="-641.9" font-family="Helvetica,sans-Serif" font-size="12.00" fill="grey"> axisStyle</text>
</g>
<!-- Node9&#45;&gt;Node7 -->
<g id="edge9_Node000007_Node000009" class="edge">
<title>Node9&#45;&gt;Node7</title>
<g id="a_edge9_Node000007_Node000009"><a xlink:title=" ">
<path fill="none" stroke="#9a32cd" stroke-dasharray="5,2" d="M1187.65,-553.46C1232.66,-537.29 1309.98,-510.75 1378,-493.5 1463,-471.95 1499.2,-506.4 1572,-457.5 1584.28,-449.25 1577.16,-436.85 1590,-429.5 1635.39,-403.52 1778.64,-406.32 1866.26,-410.83"/>
<polygon fill="#9a32cd" stroke="#9a32cd" points="1186.22,-550.25 1178.01,-556.94 1188.6,-556.84 1186.22,-550.25"/>
</a>
</g>
<text text-anchor="middle" x="1475" y="-509.9" font-family="Helvetica,sans-Serif" font-size="12.00" fill="grey"> xAxisStyle</text>
<text text-anchor="middle" x="1475" y="-496.9" font-family="Helvetica,sans-Serif" font-size="12.00" fill="grey">yAxisStyle</text>
</g>
<!-- Node11 -->
<g id="Node000011" class="node">
<title>Node11</title>
<g id="a_Node000011"><a xlink:href="class_j_k_q_t_p_colorbar_coordinate_axis_style.html" target="_top" xlink:title="Support Class for JKQTPCoordinateAxis, which summarizes all properties that define the visual styling...">
<polygon fill="white" stroke="#666666" points="1572,-562.5 1378,-562.5 1378,-528.5 1572,-528.5 1572,-562.5"/>
<text text-anchor="start" x="1386" y="-548.9" font-family="Helvetica,sans-Serif" font-size="12.00">JKQTPColorbarCoordinateAxis</text>
<text text-anchor="middle" x="1475" y="-535.9" font-family="Helvetica,sans-Serif" font-size="12.00">Style</text>
</a>
</g>
</g>
<!-- Node9&#45;&gt;Node11 -->
<g id="edge12_Node000011_Node000009" class="edge">
<title>Node9&#45;&gt;Node11</title>
<g id="a_edge12_Node000011_Node000009"><a xlink:title=" ">
<path fill="none" stroke="#63b8ff" d="M1244.56,-561.06C1286.54,-558.21 1335.81,-554.87 1377.91,-552.01"/>
<polygon fill="#63b8ff" stroke="#63b8ff" points="1244.08,-557.58 1234.33,-561.75 1244.55,-564.56 1244.08,-557.58"/>
</a>
</g>
</g>
<!-- Node10 -->
<g id="Node000010" class="node">
<title>Node10</title>
<g id="a_Node000010"><a xlink:href="class_j_k_q_t_p_grid_style.html" target="_top" xlink:title="Support Class for JKQTPCoordinateAxis, and summarizes all properties that define the visual styling o...">
<polygon fill="white" stroke="#666666" points="805.5,-578 698.5,-578 698.5,-557 805.5,-557 805.5,-578"/>
<text text-anchor="middle" x="752" y="-564.4" font-family="Helvetica,sans-Serif" font-size="12.00">JKQTPGridStyle</text>
</a>
</g>
</g>
<!-- Node10&#45;&gt;Node9 -->
<g id="edge10_Node000009_Node000010" class="edge">
<title>Node10&#45;&gt;Node9</title>
<g id="a_edge10_Node000009_Node000010"><a xlink:title=" ">
<path fill="none" stroke="#9a32cd" stroke-dasharray="5,2" d="M816.18,-567.5C883.03,-567.5 988.9,-567.5 1062.92,-567.5"/>
<polygon fill="#9a32cd" stroke="#9a32cd" points="815.79,-564 805.79,-567.5 815.79,-571 815.79,-564"/>
</a>
</g>
<text text-anchor="middle" x="948.5" y="-583.9" font-family="Helvetica,sans-Serif" font-size="12.00" fill="grey"> majorGridStyle</text>
<text text-anchor="middle" x="948.5" y="-570.9" font-family="Helvetica,sans-Serif" font-size="12.00" fill="grey">minorGridStyle</text>
</g>
<!-- Node11&#45;&gt;Node7 -->
<g id="edge11_Node000007_Node000011" class="edge">
<title>Node11&#45;&gt;Node7</title>
<g id="a_edge11_Node000007_Node000011"><a xlink:title=" ">
<path fill="none" stroke="#9a32cd" stroke-dasharray="5,2" d="M1560.22,-523.37C1564.42,-520.74 1568.39,-517.79 1572,-514.5 1587.01,-500.82 1574.01,-485.02 1590,-472.5 1611.42,-455.73 1771.24,-434.68 1866.35,-423.44"/>
<polygon fill="#9a32cd" stroke="#9a32cd" points="1558.34,-520.41 1551.32,-528.34 1561.75,-526.52 1558.34,-520.41"/>
</a>
</g>
<text text-anchor="middle" x="1691.5" y="-488.9" font-family="Helvetica,sans-Serif" font-size="12.00" fill="grey"> rightColorbarAxisStyle</text>
<text text-anchor="middle" x="1691.5" y="-475.9" font-family="Helvetica,sans-Serif" font-size="12.00" fill="grey">topColorbarAxisStyle</text>
</g>
<!-- Node12 -->
<g id="Node000012" class="node">
<title>Node12</title>
<g id="a_Node000012"><a xlink:href="class_j_k_q_t_graphs_base_style.html" target="_top" xlink:title="Support Class for JKQTBasePlotter, which summarizes all properties that define the visual styling of ...">
<polygon fill="white" stroke="#666666" points="1548,-448 1402,-448 1402,-427 1548,-427 1548,-448"/>
<text text-anchor="middle" x="1475" y="-434.4" font-family="Helvetica,sans-Serif" font-size="12.00">JKQTGraphsBaseStyle</text>
</a>
</g>
</g>
<!-- Node12&#45;&gt;Node7 -->
<g id="edge13_Node000007_Node000012" class="edge">
<title>Node12&#45;&gt;Node7</title>
<g id="a_edge13_Node000007_Node000012"><a xlink:title=" ">
<path fill="none" stroke="#9a32cd" stroke-dasharray="5,2" d="M1550.68,-423.49C1558.2,-420.5 1565.46,-416.89 1572,-412.5 1583.07,-405.07 1578.07,-394.46 1590,-388.5 1670.7,-348.15 1703.16,-380.15 1793,-388.5 1826.68,-391.63 1864.24,-398.8 1892.54,-404.96"/>
<polygon fill="#9a32cd" stroke="#9a32cd" points="1549.29,-420.27 1541.05,-426.93 1551.65,-426.86 1549.29,-420.27"/>
</a>
</g>
<text text-anchor="middle" x="1691.5" y="-391.9" font-family="Helvetica,sans-Serif" font-size="12.00" fill="grey"> graphsStyle</text>
</g>
<!-- Node13 -->
<g id="Node000013" class="node">
<title>Node13</title>
<g id="a_Node000013"><a xlink:href="class_j_k_q_t_graphs_specific_style_properties.html" target="_top" xlink:title="Support Class for JKQTBasePlotter, which summarizes all properties that define the visual styling of ...">
<polygon fill="white" stroke="#666666" points="623,-472 399,-472 399,-451 623,-451 623,-472"/>
<text text-anchor="middle" x="511" y="-458.4" font-family="Helvetica,sans-Serif" font-size="12.00">JKQTGraphsSpecificStyleProperties</text>
</a>
</g>
</g>
<!-- Node13&#45;&gt;Node12 -->
<g id="edge14_Node000012_Node000013" class="edge">
<title>Node13&#45;&gt;Node12</title>
<g id="a_edge14_Node000012_Node000013"><a xlink:title=" ">
<path fill="none" stroke="#9a32cd" stroke-dasharray="5,2" d="M543.59,-446.71C603.85,-419.5 740.09,-362.8 862,-346.5 971.86,-331.81 1276.4,-301.73 1360,-374.5 1377.19,-389.46 1360.33,-408.11 1378,-422.5 1384.93,-428.15 1393.11,-432.1 1401.72,-434.81"/>
<polygon fill="#9a32cd" stroke="#9a32cd" points="541.89,-443.63 534.25,-450.97 544.8,-450 541.89,-443.63"/>
</a>
</g>
<text text-anchor="middle" x="948.5" y="-375.9" font-family="Helvetica,sans-Serif" font-size="12.00" fill="grey"> boxplotStyle</text>
<text text-anchor="middle" x="948.5" y="-362.9" font-family="Helvetica,sans-Serif" font-size="12.00" fill="grey">defaultGraphStyle</text>
<text text-anchor="middle" x="948.5" y="-349.9" font-family="Helvetica,sans-Serif" font-size="12.00" fill="grey">filledStyle</text>
</g>
<!-- Node15 -->
<g id="Node000015" class="node">
<title>Node15</title>
<g id="a_Node000015"><a xlink:href="class_j_k_q_t_barchart_specific_style_properties.html" target="_top" xlink:title="Support Class for JKQTBasePlotter, which summarizes all properties that define the visual styling of ...">
<polygon fill="white" stroke="#666666" points="1035,-535.5 862,-535.5 862,-501.5 1035,-501.5 1035,-535.5"/>
<text text-anchor="start" x="870" y="-521.9" font-family="Helvetica,sans-Serif" font-size="12.00">JKQTBarchartSpecificStyle</text>
<text text-anchor="middle" x="948.5" y="-508.9" font-family="Helvetica,sans-Serif" font-size="12.00">Properties</text>
</a>
</g>
</g>
<!-- Node13&#45;&gt;Node15 -->
<g id="edge17_Node000015_Node000013" class="edge">
<title>Node13&#45;&gt;Node15</title>
<g id="a_edge17_Node000015_Node000013"><a xlink:title=" ">
<path fill="none" stroke="#63b8ff" d="M594.6,-473.46C615.9,-476.48 638.79,-479.67 660,-482.5 727.81,-491.56 804.71,-501.15 861.91,-508.15"/>
<polygon fill="#63b8ff" stroke="#63b8ff" points="595,-469.99 584.61,-472.04 594.02,-476.92 595,-469.99"/>
</a>
</g>
</g>
<!-- Node16 -->
<g id="Node000016" class="node">
<title>Node16</title>
<g id="a_Node000016"><a xlink:href="class_j_k_q_t_impulse_specific_style_properties.html" target="_top" xlink:title="Support Class for JKQTBasePlotter, which summarizes all properties that define the visual styling of ...">
<polygon fill="white" stroke="#666666" points="1032.5,-492.5 864.5,-492.5 864.5,-458.5 1032.5,-458.5 1032.5,-492.5"/>
<text text-anchor="start" x="872.5" y="-478.9" font-family="Helvetica,sans-Serif" font-size="12.00">JKQTImpulseSpecificStyle</text>
<text text-anchor="middle" x="948.5" y="-465.9" font-family="Helvetica,sans-Serif" font-size="12.00">Properties</text>
</a>
</g>
</g>
<!-- Node13&#45;&gt;Node16 -->
<g id="edge19_Node000016_Node000013" class="edge">
<title>Node13&#45;&gt;Node16</title>
<g id="a_edge19_Node000016_Node000013"><a xlink:title=" ">
<path fill="none" stroke="#63b8ff" d="M633.27,-465.4C706.83,-467.76 798.8,-470.72 864.19,-472.82"/>
<polygon fill="#63b8ff" stroke="#63b8ff" points="633.13,-461.89 623.02,-465.07 632.9,-468.89 633.13,-461.89"/>
</a>
</g>
</g>
<!-- Node17 -->
<g id="Node000017" class="node">
<title>Node17</title>
<g id="a_Node000017"><a xlink:href="class_j_k_q_t_geometric_specific_style_properties.html" target="_top" xlink:title="Support Class for JKQTBasePlotter, which summarizes all properties that define the visual styling of ...">
<polygon fill="white" stroke="#666666" points="844,-444.5 660,-444.5 660,-410.5 844,-410.5 844,-444.5"/>
<text text-anchor="start" x="668" y="-430.9" font-family="Helvetica,sans-Serif" font-size="12.00">JKQTGeometricSpecificStyle</text>
<text text-anchor="middle" x="752" y="-417.9" font-family="Helvetica,sans-Serif" font-size="12.00">Properties</text>
</a>
</g>
</g>
<!-- Node13&#45;&gt;Node17 -->
<g id="edge21_Node000017_Node000013" class="edge">
<title>Node13&#45;&gt;Node17</title>
<g id="a_edge21_Node000017_Node000013"><a xlink:title=" ">
<path fill="none" stroke="#63b8ff" d="M595.97,-449.56C616.58,-446.62 638.74,-443.47 659.68,-440.49"/>
<polygon fill="#63b8ff" stroke="#63b8ff" points="595.39,-446.1 585.98,-450.98 596.38,-453.03 595.39,-446.1"/>
</a>
</g>
</g>
<!-- Node14 -->
<g id="Node000014" class="node">
<title>Node14</title>
<g id="a_Node000014"><a xlink:href="struct_j_k_q_t_p_color_derivation_mode.html" target="_top" xlink:title="Specifies how a fill&#45;color is derived from a given color.">
<polygon fill="white" stroke="#666666" points="179,-472 0,-472 0,-451 179,-451 179,-472"/>
<text text-anchor="middle" x="89.5" y="-458.4" font-family="Helvetica,sans-Serif" font-size="12.00">JKQTPColorDerivationMode</text>
</a>
</g>
</g>
<!-- Node14&#45;&gt;Node13 -->
<g id="edge15_Node000013_Node000014" class="edge">
<title>Node14&#45;&gt;Node13</title>
<g id="a_edge15_Node000013_Node000014"><a xlink:title=" ">
<path fill="none" stroke="#9a32cd" stroke-dasharray="5,2" d="M189.53,-461.5C252.41,-461.5 333.9,-461.5 398.97,-461.5"/>
<polygon fill="#9a32cd" stroke="#9a32cd" points="189.21,-458 179.21,-461.5 189.21,-465 189.21,-458"/>
</a>
</g>
<text text-anchor="middle" x="289" y="-516.9" font-family="Helvetica,sans-Serif" font-size="12.00" fill="grey"> errorColorDerivationMode</text>
<text text-anchor="middle" x="289" y="-503.9" font-family="Helvetica,sans-Serif" font-size="12.00" fill="grey">errorFillColorDerivationMode</text>
<text text-anchor="middle" x="289" y="-490.9" font-family="Helvetica,sans-Serif" font-size="12.00" fill="grey">fillColorDerivationMode</text>
<text text-anchor="middle" x="289" y="-477.9" font-family="Helvetica,sans-Serif" font-size="12.00" fill="grey">graphColorDerivationMode</text>
<text text-anchor="middle" x="289" y="-464.9" font-family="Helvetica,sans-Serif" font-size="12.00" fill="grey">symbolFillColorDerivationMode</text>
</g>
<!-- Node15&#45;&gt;Node12 -->
<g id="edge16_Node000012_Node000015" class="edge">
<title>Node15&#45;&gt;Node12</title>
<g id="a_edge16_Node000012_Node000015"><a xlink:title=" ">
<path fill="none" stroke="#9a32cd" stroke-dasharray="5,2" d="M1045.3,-509.21C1103,-503.18 1177.88,-494.57 1244,-484.5 1295.88,-476.6 1308.59,-473.01 1360,-462.5 1382.23,-457.95 1406.83,-452.6 1427.47,-448.02"/>
<polygon fill="#9a32cd" stroke="#9a32cd" points="1044.68,-505.76 1035.09,-510.27 1045.4,-512.72 1044.68,-505.76"/>
</a>
</g>
<text text-anchor="middle" x="1148.5" y="-510.9" font-family="Helvetica,sans-Serif" font-size="12.00" fill="grey"> barchartStyle</text>
</g>
<!-- Node16&#45;&gt;Node12 -->
<g id="edge18_Node000012_Node000016" class="edge">
<title>Node16&#45;&gt;Node12</title>
<g id="a_edge18_Node000012_Node000016"><a xlink:title=" ">
<path fill="none" stroke="#9a32cd" stroke-dasharray="5,2" d="M1042.66,-468.75C1145.36,-461.31 1308.38,-449.5 1401.83,-442.73"/>
<polygon fill="#9a32cd" stroke="#9a32cd" points="1042.33,-465.27 1032.61,-469.48 1042.84,-472.25 1042.33,-465.27"/>
</a>
</g>
<text text-anchor="middle" x="1148.5" y="-470.9" font-family="Helvetica,sans-Serif" font-size="12.00" fill="grey"> impulseStyle</text>
</g>
<!-- Node17&#45;&gt;Node12 -->
<g id="edge20_Node000012_Node000017" class="edge">
<title>Node17&#45;&gt;Node12</title>
<g id="a_edge20_Node000012_Node000017"><a xlink:title=" ">
<path fill="none" stroke="#9a32cd" stroke-dasharray="5,2" d="M854.74,-428.91C1002.5,-430.96 1272.9,-434.71 1401.86,-436.5"/>
<polygon fill="#9a32cd" stroke="#9a32cd" points="854.36,-425.41 844.32,-428.77 854.27,-432.4 854.36,-425.41"/>
</a>
</g>
<text text-anchor="middle" x="1148.5" y="-436.9" font-family="Helvetica,sans-Serif" font-size="12.00" fill="grey"> geometricStyle</text>
</g>
<!-- Node18 -->
<g id="Node000018" class="node">
<title>Node18</title>
<g id="a_Node000018"><a xlink:href="class_j_k_q_t_annotations_specific_style_properties.html" target="_top" xlink:title="Support Class for JKQTBasePlotter, which summarizes all properties that define the visual styling of ...">
<polygon fill="white" stroke="#666666" points="1244,-391.5 1053,-391.5 1053,-357.5 1244,-357.5 1244,-391.5"/>
<text text-anchor="start" x="1061" y="-377.9" font-family="Helvetica,sans-Serif" font-size="12.00">JKQTAnnotationsSpecificStyle</text>
<text text-anchor="middle" x="1148.5" y="-364.9" font-family="Helvetica,sans-Serif" font-size="12.00">Properties</text>
</a>
</g>
</g>
<!-- Node17&#45;&gt;Node18 -->
<g id="edge23_Node000018_Node000017" class="edge">
<title>Node17&#45;&gt;Node18</title>
<g id="a_edge23_Node000018_Node000017"><a xlink:title=" ">
<path fill="none" stroke="#63b8ff" d="M854.07,-413.92C915.27,-405.7 992.83,-395.28 1052.84,-387.22"/>
<polygon fill="#63b8ff" stroke="#63b8ff" points="853.45,-410.47 844,-415.27 854.38,-417.41 853.45,-410.47"/>
</a>
</g>
</g>
<!-- Node18&#45;&gt;Node12 -->
<g id="edge22_Node000012_Node000018" class="edge">
<title>Node18&#45;&gt;Node12</title>
<g id="a_edge22_Node000012_Node000018"><a xlink:title=" ">
<path fill="none" stroke="#9a32cd" stroke-dasharray="5,2" d="M1254.29,-377.83C1288.78,-381.43 1326.77,-388.17 1360,-400.5 1369.01,-403.85 1369.23,-408.57 1378,-412.5 1391.36,-418.49 1406.43,-423.26 1420.6,-426.95"/>
<polygon fill="#9a32cd" stroke="#9a32cd" points="1254.48,-374.33 1244.19,-376.85 1253.81,-381.3 1254.48,-374.33"/>
</a>
</g>
<text text-anchor="middle" x="1311" y="-403.9" font-family="Helvetica,sans-Serif" font-size="12.00" fill="grey"> annotationStyle</text>
</g>
<!-- Node19&#45;&gt;Node6 -->
<g id="edge24_Node000006_Node000019" class="edge">
<title>Node19&#45;&gt;Node6</title>
<g id="a_edge24_Node000006_Node000019"><a xlink:title=" ">
<path fill="none" stroke="#9a32cd" stroke-dasharray="5,2" d="M1997.58,-479.7C2079.38,-466.02 2226.83,-441.36 2307.32,-427.9"/>
<polygon fill="#9a32cd" stroke="#9a32cd" points="1996.98,-476.25 1987.7,-481.36 1998.14,-483.16 1996.98,-476.25"/>
</a>
</g>
<text text-anchor="middle" x="2161.5" y="-467.9" font-family="Helvetica,sans-Serif" font-size="12.00" fill="grey"> mathText</text>
</g>
<!-- Node20 -->
<g id="Node000020" class="node">
<title>Node20</title>
<g id="a_Node000020"><a xlink:href="class_j_k_q_t_math_text_node.html" target="_top" xlink:title="subclass representing one node in the syntax tree">
<polygon fill="white" stroke="#666666" points="2430,-516 2299,-516 2299,-495 2430,-495 2430,-516"/>
<text text-anchor="middle" x="2364.5" y="-502.4" font-family="Helvetica,sans-Serif" font-size="12.00">JKQTMathTextNode</text>
</a>
</g>
</g>
<!-- Node19&#45;&gt;Node20 -->
<g id="edge27_Node000020_Node000019" class="edge">
<title>Node19&#45;&gt;Node20</title>
<g id="a_edge27_Node000020_Node000019"><a xlink:title=" ">
<path fill="none" stroke="#9a32cd" stroke-dasharray="5,2" d="M1997.71,-486.82C2058.44,-484.63 2155.97,-482.74 2240,-488.5 2259.33,-489.82 2280.23,-492.3 2299.25,-494.96"/>
<polygon fill="#9a32cd" stroke="#9a32cd" points="1997.41,-483.33 1987.55,-487.2 1997.68,-490.32 1997.41,-483.33"/>
</a>
</g>
<text text-anchor="middle" x="2161.5" y="-491.9" font-family="Helvetica,sans-Serif" font-size="12.00" fill="grey"> parentMathText</text>
</g>
<!-- Node20&#45;&gt;Node19 -->
<g id="edge26_Node000019_Node000020" class="edge">
<title>Node20&#45;&gt;Node19</title>
<g id="a_edge26_Node000019_Node000020"><a xlink:title=" ">
<path fill="none" stroke="#9a32cd" stroke-dasharray="5,2" d="M2288.54,-507.75C2232.01,-508.9 2152.58,-509.35 2083,-505.5 2051.1,-503.73 2015.41,-499.78 1987.55,-496.25"/>
<polygon fill="#9a32cd" stroke="#9a32cd" points="2288.9,-511.24 2298.83,-507.53 2288.75,-504.24 2288.9,-511.24"/>
</a>
</g>
<text text-anchor="middle" x="2161.5" y="-511.9" font-family="Helvetica,sans-Serif" font-size="12.00" fill="grey"> parsedNode</text>
</g>
<!-- Node20&#45;&gt;Node20 -->
<g id="edge28_Node000020_Node000020" class="edge">
<title>Node20&#45;&gt;Node20</title>
<g id="a_edge28_Node000020_Node000020"><a xlink:title=" ">
<path fill="none" stroke="#9a32cd" stroke-dasharray="5,2" d="M2331.01,-524.84C2332.8,-530.04 2343.97,-534 2364.5,-534 2395.79,-534 2405.32,-524.81 2393.1,-516.02"/>
<polygon fill="#9a32cd" stroke="#9a32cd" points="2334.11,-526.47 2335.9,-516.02 2327.99,-523.07 2334.11,-526.47"/>
</a>
</g>
<text text-anchor="middle" x="2364.5" y="-537.4" font-family="Helvetica,sans-Serif" font-size="12.00" fill="grey"> parentNode</text>
</g>
<!-- Node21 -->
<g id="Node000021" class="node">
<title>Node21</title>
<g id="a_Node000021"><a xlink:title=" ">
<polygon fill="white" stroke="#666666" points="1188.5,-268 1108.5,-268 1108.5,-247 1188.5,-247 1188.5,-268"/>
<text text-anchor="middle" x="1148.5" y="-254.4" font-family="Helvetica,sans-Serif" font-size="12.00">std::mutex</text>
</a>
</g>
</g>
<!-- Node21&#45;&gt;Node6 -->
<g id="edge44_Node000006_Node000021" class="edge">
<title>Node21&#45;&gt;Node6</title>
<g id="a_edge44_Node000006_Node000021"><a xlink:title=" ">
<path fill="none" stroke="#9a32cd" stroke-dasharray="5,2" d="M1189.41,-243.78C1210.74,-236.87 1237.57,-228.84 1262,-223.5 1312.84,-212.38 1326.21,-212.65 1378,-207.5 1681.84,-177.27 1763.27,-155.71 2065,-202.5 2144.93,-214.9 2186.8,-191.57 2240,-252.5 2276.92,-294.78 2223.08,-333.56 2258,-377.5 2270.23,-392.88 2289,-402.5 2307.34,-408.52"/>
<polygon fill="#9a32cd" stroke="#9a32cd" points="1188.13,-240.51 1179.72,-246.96 1190.31,-247.16 1188.13,-240.51"/>
</a>
</g>
<text text-anchor="middle" x="1691.5" y="-187.9" font-family="Helvetica,sans-Serif" font-size="12.00" fill="grey"> globalUserSettingsMutex</text>
</g>
<!-- Node21&#45;&gt;Node19 -->
<g id="edge29_Node000019_Node000021" class="edge">
<title>Node21&#45;&gt;Node19</title>
<g id="a_edge29_Node000019_Node000021"><a xlink:title=" ">
<path fill="none" stroke="#9a32cd" stroke-dasharray="5,2" d="M1195.93,-271.15C1240.66,-285.72 1308.9,-311.78 1360,-348.5 1369.71,-355.48 1367.58,-362.63 1378,-368.5 1454.47,-411.6 1508,-345.43 1572,-405.5 1595.42,-427.49 1565.02,-455.31 1590,-475.5 1634.49,-511.46 1803.67,-501.8 1888.25,-494.4"/>
<polygon fill="#9a32cd" stroke="#9a32cd" points="1196.79,-267.75 1186.2,-268.04 1194.66,-274.42 1196.79,-267.75"/>
</a>
</g>
<text text-anchor="middle" x="1475" y="-408.9" font-family="Helvetica,sans-Serif" font-size="12.00" fill="grey"> s_mutex</text>
</g>
<!-- Node31 -->
<g id="Node000031" class="node">
<title>Node31</title>
<g id="a_Node000031"><a xlink:href="class_j_k_q_t_p_synchronized.html" target="_top" xlink:title=" ">
<polygon fill="white" stroke="#666666" points="2065,-245.5 1811,-245.5 1811,-211.5 2065,-211.5 2065,-245.5"/>
<text text-anchor="start" x="1819" y="-231.9" font-family="Helvetica,sans-Serif" font-size="12.00">JKQTPSynchronized&lt;</text>
<text text-anchor="middle" x="1938" y="-218.9" font-family="Helvetica,sans-Serif" font-size="12.00"> QList&lt; JKQTPPaintDeviceAdapter * &gt; &gt;</text>
</a>
</g>
</g>
<!-- Node21&#45;&gt;Node31 -->
<g id="edge46_Node000031_Node000021" class="edge">
<title>Node21&#45;&gt;Node31</title>
<g id="a_edge46_Node000031_Node000021"><a xlink:title=" ">
<path fill="none" stroke="#9a32cd" stroke-dasharray="5,2" d="M1198.62,-249.22C1244.78,-241.77 1315.88,-231.16 1378,-225.5 1561.73,-208.77 1608.67,-208.83 1793,-216.5 1798.89,-216.75 1804.91,-217.05 1810.99,-217.39"/>
<polygon fill="#9a32cd" stroke="#9a32cd" points="1197.89,-245.79 1188.59,-250.85 1199.02,-252.7 1197.89,-245.79"/>
</a>
</g>
<text text-anchor="middle" x="1475" y="-228.9" font-family="Helvetica,sans-Serif" font-size="12.00" fill="grey"> m_mutex</text>
</g>
<!-- Node32 -->
<g id="Node000032" class="node">
<title>Node32</title>
<g id="a_Node000032"><a xlink:href="class_j_k_q_t_p_synchronized.html" target="_top" xlink:title="template class that wraps any datatype and combines it with a mutex, exposes the lock()/unlock() inte...">
<polygon fill="white" stroke="#666666" points="1558.5,-268 1391.5,-268 1391.5,-247 1558.5,-247 1558.5,-268"/>
<text text-anchor="middle" x="1475" y="-254.4" font-family="Helvetica,sans-Serif" font-size="12.00">JKQTPSynchronized&lt; T &gt;</text>
</a>
</g>
</g>
<!-- Node21&#45;&gt;Node32 -->
<g id="edge48_Node000032_Node000021" class="edge">
<title>Node21&#45;&gt;Node32</title>
<g id="a_edge48_Node000032_Node000021"><a xlink:title=" ">
<path fill="none" stroke="#9a32cd" stroke-dasharray="5,2" d="M1198.76,-257.5C1249.85,-257.5 1330.61,-257.5 1391.46,-257.5"/>
<polygon fill="#9a32cd" stroke="#9a32cd" points="1198.64,-254 1188.64,-257.5 1198.64,-261 1198.64,-254"/>
</a>
</g>
<text text-anchor="middle" x="1311" y="-260.9" font-family="Helvetica,sans-Serif" font-size="12.00" fill="grey"> m_mutex</text>
</g>
<!-- Node33 -->
<g id="Node000033" class="node">
<title>Node33</title>
<g id="a_Node000033"><a xlink:href="class_j_k_q_t_p_synchronized.html" target="_top" xlink:title=" ">
<polygon fill="white" stroke="#666666" points="2059,-335.5 1817,-335.5 1817,-301.5 2059,-301.5 2059,-335.5"/>
<text text-anchor="start" x="1825" y="-321.9" font-family="Helvetica,sans-Serif" font-size="12.00">JKQTPSynchronized&lt;</text>
<text text-anchor="middle" x="1938" y="-308.9" font-family="Helvetica,sans-Serif" font-size="12.00"> QList&lt; JKQTPSaveDataAdapter * &gt; &gt;</text>
</a>
</g>
</g>
<!-- Node21&#45;&gt;Node33 -->
<g id="edge50_Node000033_Node000021" class="edge">
<title>Node21&#45;&gt;Node33</title>
<g id="a_edge50_Node000033_Node000021"><a xlink:title=" ">
<path fill="none" stroke="#9a32cd" stroke-dasharray="5,2" d="M1198.69,-265.57C1218.34,-268.63 1241.21,-271.98 1262,-274.5 1407.32,-292.11 1443.93,-294.88 1590,-304.5 1665.35,-309.46 1750.03,-312.92 1816.88,-315.16"/>
<polygon fill="#9a32cd" stroke="#9a32cd" points="1199.15,-262.1 1188.73,-264.01 1198.07,-269.02 1199.15,-262.1"/>
</a>
</g>
<text text-anchor="middle" x="1475" y="-305.9" font-family="Helvetica,sans-Serif" font-size="12.00" fill="grey"> m_mutex</text>
</g>
<!-- Node22&#45;&gt;Node6 -->
<g id="edge30_Node000006_Node000022" class="edge">
<title>Node22&#45;&gt;Node6</title>
<g id="a_edge30_Node000006_Node000022"><a xlink:title=" ">
<path fill="none" stroke="#9a32cd" stroke-dasharray="5,2" d="M2651.86,-399.54C2635.45,-401.35 2618.15,-403.11 2602,-404.5 2540.53,-409.77 2469.9,-413.67 2421.95,-416"/>
<polygon fill="#9a32cd" stroke="#9a32cd" points="2652.4,-403 2661.95,-398.42 2651.62,-396.05 2652.4,-403"/>
</a>
</g>
<text text-anchor="middle" x="2545.5" y="-414.9" font-family="Helvetica,sans-Serif" font-size="12.00" fill="grey"> m_plotsModel</text>
</g>
<!-- Node23 -->
<g id="Node000023" class="node">
<title>Node23</title>
<g id="a_Node000023"><a xlink:title=" ">
<polygon fill="white" stroke="#666666" points="2436,-368 2293,-368 2293,-347 2436,-347 2436,-368"/>
<text text-anchor="middle" x="2364.5" y="-354.4" font-family="Helvetica,sans-Serif" font-size="12.00">QAbstractTableModel</text>
</a>
</g>
</g>
<!-- Node23&#45;&gt;Node22 -->
<g id="edge31_Node000022_Node000023" class="edge">
<title>Node23&#45;&gt;Node22</title>
<g id="a_edge31_Node000022_Node000023"><a xlink:title=" ">
<path fill="none" stroke="#63b8ff" d="M2446.31,-363.94C2492.02,-367.68 2550.23,-372.61 2602,-377.5 2621.47,-379.34 2642.64,-381.49 2661.91,-383.51"/>
<polygon fill="#63b8ff" stroke="#63b8ff" points="2446.41,-360.43 2436.16,-363.11 2445.84,-367.41 2446.41,-360.43"/>
</a>
</g>
</g>
<!-- Node24 -->
<g id="Node000024" class="node">
<title>Node24</title>
<g id="a_Node000024"><a xlink:href="class_j_k_q_t_p_vertical_axis.html" target="_top" xlink:title="implements a vertical axis for use as primary, secondary, ... axis of a JKQTPBasePlotter,...">
<polygon fill="white" stroke="#666666" points="3232,-492 3110,-492 3110,-471 3232,-471 3232,-492"/>
<text text-anchor="middle" x="3171" y="-478.4" font-family="Helvetica,sans-Serif" font-size="12.00">JKQTPVerticalAxis</text>
</a>
</g>
</g>
<!-- Node24&#45;&gt;Node6 -->
<g id="edge34_Node000006_Node000024" class="edge">
<title>Node24&#45;&gt;Node6</title>
<g id="a_edge34_Node000006_Node000024"><a xlink:title=" ">
<path fill="none" stroke="#9a32cd" stroke-dasharray="5,2" d="M3099.79,-476.11C2976.28,-466.61 2712.07,-446.21 2489,-428.5 2467.02,-426.75 2442.84,-424.8 2421.75,-423.09"/>
<polygon fill="#9a32cd" stroke="#9a32cd" points="3099.63,-479.61 3109.87,-476.88 3100.17,-472.63 3099.63,-479.61"/>
</a>
</g>
<text text-anchor="middle" x="2870.5" y="-462.9" font-family="Helvetica,sans-Serif" font-size="12.00" fill="grey"> yAxis</text>
</g>
<!-- Node25&#45;&gt;Node24 -->
<g id="edge35_Node000024_Node000025" class="edge">
<title>Node25&#45;&gt;Node24</title>
<g id="a_edge35_Node000024_Node000025"><a xlink:title=" ">
<path fill="none" stroke="#63b8ff" d="M3031.82,-527.69C3064.24,-516.85 3108.7,-501.99 3138.34,-492.08"/>
<polygon fill="#63b8ff" stroke="#63b8ff" points="3030.55,-524.42 3022.18,-530.91 3032.77,-531.06 3030.55,-524.42"/>
</a>
</g>
</g>
<!-- Node26 -->
<g id="Node000026" class="node">
<title>Node26</title>
<g id="a_Node000026"><a xlink:href="class_j_k_q_t_p_datastore.html" target="_top" xlink:title="This class manages data columns (with entries of type double ), used by JKQTPlotter/JKQTBasePlotter t...">
<polygon fill="white" stroke="#666666" points="1993.5,-105 1882.5,-105 1882.5,-84 1993.5,-84 1993.5,-105"/>
<text text-anchor="middle" x="1938" y="-91.4" font-family="Helvetica,sans-Serif" font-size="12.00">JKQTPDatastore</text>
</a>
</g>
</g>
<!-- Node26&#45;&gt;Node6 -->
<g id="edge37_Node000006_Node000026" class="edge">
<title>Node26&#45;&gt;Node6</title>
<g id="a_edge37_Node000006_Node000026"><a xlink:title=" ">
<path fill="none" stroke="#9a32cd" stroke-dasharray="5,2" d="M2003.68,-101.42C2090.92,-110.9 2235.95,-127.24 2240,-131.5 2277.79,-171.2 2225.42,-333.42 2258,-377.5 2269.8,-393.46 2288.71,-403.21 2307.28,-409.16"/>
<polygon fill="#9a32cd" stroke="#9a32cd" points="2003.93,-97.93 1993.61,-100.33 2003.17,-104.89 2003.93,-97.93"/>
</a>
</g>
<text text-anchor="middle" x="2161.5" y="-134.9" font-family="Helvetica,sans-Serif" font-size="12.00" fill="grey"> datastore</text>
</g>
<!-- Node28 -->
<g id="Node000028" class="node">
<title>Node28</title>
<g id="a_Node000028"><a xlink:href="class_j_k_q_t_p_column.html" target="_top" xlink:title="internally stores information about one data column. See JKQTPDatastore for more information.">
<polygon fill="white" stroke="#666666" points="2413.5,-110 2315.5,-110 2315.5,-89 2413.5,-89 2413.5,-110"/>
<text text-anchor="middle" x="2364.5" y="-96.4" font-family="Helvetica,sans-Serif" font-size="12.00">JKQTPColumn</text>
</a>
</g>
</g>
<!-- Node26&#45;&gt;Node28 -->
<g id="edge40_Node000028_Node000026" class="edge">
<title>Node26&#45;&gt;Node28</title>
<g id="a_edge40_Node000028_Node000026"><a xlink:title=" ">
<path fill="none" stroke="#9a32cd" stroke-dasharray="5,2" d="M2003.9,-94.17C2064.86,-93.99 2158.63,-94.05 2240,-95.5 2264.88,-95.94 2292.57,-96.81 2315.42,-97.62"/>
<polygon fill="#9a32cd" stroke="#9a32cd" points="2003.64,-90.67 1993.66,-94.2 2003.67,-97.67 2003.64,-90.67"/>
</a>
</g>
<text text-anchor="middle" x="2161.5" y="-98.9" font-family="Helvetica,sans-Serif" font-size="12.00" fill="grey"> datastore</text>
</g>
<!-- Node27 -->
<g id="Node000027" class="node">
<title>Node27</title>
<g id="a_Node000027"><a xlink:title=" ">
<polygon fill="white" stroke="#666666" points="2835,-68 2620,-68 2620,-47 2835,-47 2835,-68"/>
<text text-anchor="middle" x="2727.5" y="-54.4" font-family="Helvetica,sans-Serif" font-size="12.00">std::unique_ptr&lt; JKQTPColumn &gt;</text>
</a>
</g>
</g>
<!-- Node27&#45;&gt;Node26 -->
<g id="edge38_Node000026_Node000027" class="edge">
<title>Node27&#45;&gt;Node26</title>
<g id="a_edge38_Node000026_Node000027"><a xlink:title=" ">
<path fill="none" stroke="#9a32cd" stroke-dasharray="5,2" d="M2609.71,-57.95C2514.88,-58.81 2377.73,-61.16 2258,-67.5 2165.03,-72.42 2057.16,-82.46 1993.68,-88.82"/>
<polygon fill="#9a32cd" stroke="#9a32cd" points="2609.93,-61.45 2619.9,-57.86 2609.87,-54.45 2609.93,-61.45"/>
</a>
</g>
<text text-anchor="middle" x="2364.5" y="-70.9" font-family="Helvetica,sans-Serif" font-size="12.00" fill="grey"> m_invalidColumn</text>
</g>
<!-- Node28&#45;&gt;Node27 -->
<g id="edge39_Node000027_Node000028" class="edge">
<title>Node28&#45;&gt;Node27</title>
<g id="a_edge39_Node000027_Node000028"><a xlink:title=" ">
<path fill="none" stroke="#9a32cd" stroke-dasharray="5,2" d="M2423.8,-92.72C2481.19,-86.04 2569.65,-75.75 2636.15,-68.01"/>
<polygon fill="#9a32cd" stroke="#9a32cd" points="2423.34,-89.25 2413.81,-93.88 2424.15,-96.2 2423.34,-89.25"/>
</a>
</g>
<text text-anchor="middle" x="2545.5" y="-87.9" font-family="Helvetica,sans-Serif" font-size="12.00" fill="grey"> ptr</text>
</g>
<!-- Node29 -->
<g id="Node000029" class="node">
<title>Node29</title>
<g id="a_Node000029"><a xlink:title=" ">
<polygon fill="white" stroke="#666666" points="2434.5,-21 2294.5,-21 2294.5,0 2434.5,0 2434.5,-21"/>
<text text-anchor="middle" x="2364.5" y="-7.4" font-family="Helvetica,sans-Serif" font-size="12.00">std::unique_ptr&lt; T &gt;</text>
</a>
</g>
</g>
<!-- Node29&#45;&gt;Node27 -->
<g id="edge41_Node000027_Node000029" class="edge">
<title>Node29&#45;&gt;Node27</title>
<g id="a_edge41_Node000027_Node000029"><a xlink:title=" ">
<path fill="none" stroke="orange" stroke-dasharray="5,2" d="M2444.81,-14.64C2490.87,-17.69 2549.91,-22.68 2602,-30.5 2629.67,-34.65 2660.39,-41.29 2684.4,-46.95"/>
<polygon fill="orange" stroke="orange" points="2444.8,-11.13 2434.59,-13.98 2444.35,-18.12 2444.8,-11.13"/>
</a>
</g>
<text text-anchor="middle" x="2545.5" y="-33.9" font-family="Helvetica,sans-Serif" font-size="12.00" fill="grey"> &lt; JKQTPColumn &gt;</text>
</g>
<!-- Node30 -->
<g id="Node000030" class="node">
<title>Node30</title>
<g id="a_Node000030"><a xlink:title=" ">
<polygon fill="white" stroke="#666666" points="1952.5,-21 1923.5,-21 1923.5,0 1952.5,0 1952.5,-21"/>
<text text-anchor="middle" x="1938" y="-7.4" font-family="Helvetica,sans-Serif" font-size="12.00">T</text>
</a>
</g>
</g>
<!-- Node30&#45;&gt;Node29 -->
<g id="edge42_Node000029_Node000030" class="edge">
<title>Node30&#45;&gt;Node29</title>
<g id="a_edge42_Node000029_Node000030"><a xlink:title=" ">
<path fill="none" stroke="#9a32cd" stroke-dasharray="5,2" d="M1962.7,-10.5C2025.33,-10.5 2197.02,-10.5 2294.15,-10.5"/>
<polygon fill="#9a32cd" stroke="#9a32cd" points="1962.64,-7 1952.64,-10.5 1962.64,-14 1962.64,-7"/>
</a>
</g>
<text text-anchor="middle" x="2161.5" y="-13.9" font-family="Helvetica,sans-Serif" font-size="12.00" fill="grey"> ptr</text>
</g>
<!-- Node31&#45;&gt;Node6 -->
<g id="edge45_Node000006_Node000031" class="edge">
<title>Node31&#45;&gt;Node6</title>
<g id="a_edge45_Node000006_Node000031"><a xlink:title=" ">
<path fill="none" stroke="#9a32cd" stroke-dasharray="5,2" d="M2058.02,-247.97C2118.74,-263.2 2190.11,-289.95 2240,-336.5 2254.55,-350.08 2243.63,-363.73 2258,-377.5 2273.33,-392.18 2294.5,-401.77 2313.85,-407.95"/>
<polygon fill="#9a32cd" stroke="#9a32cd" points="2058.53,-244.49 2047.99,-245.54 2056.88,-251.3 2058.53,-244.49"/>
</a>
</g>
<text text-anchor="middle" x="2161.5" y="-339.9" font-family="Helvetica,sans-Serif" font-size="12.00" fill="grey"> jkqtpPaintDeviceAdapters</text>
</g>
<!-- Node32&#45;&gt;Node31 -->
<g id="edge47_Node000031_Node000032" class="edge">
<title>Node32&#45;&gt;Node31</title>
<g id="a_edge47_Node000031_Node000032"><a xlink:title=" ">
<path fill="none" stroke="orange" stroke-dasharray="5,2" d="M1519.41,-244.26C1540.5,-238.49 1566.34,-232.4 1590,-229.5 1662.8,-220.58 1744.84,-219.92 1810.87,-221.68"/>
<polygon fill="orange" stroke="orange" points="1518.46,-240.89 1509.78,-246.96 1520.35,-247.63 1518.46,-240.89"/>
</a>
</g>
<text text-anchor="start" x="1608" y="-245.9" font-family="Helvetica,sans-Serif" font-size="12.00" fill="grey"> &lt; QList&lt; JKQTPPaintDevice</text>
<text text-anchor="middle" x="1691.5" y="-232.9" font-family="Helvetica,sans-Serif" font-size="12.00" fill="grey">Adapter * &gt; &gt;</text>
</g>
<!-- Node32&#45;&gt;Node33 -->
<g id="edge51_Node000033_Node000032" class="edge">
<title>Node32&#45;&gt;Node33</title>
<g id="a_edge51_Node000033_Node000032"><a xlink:title=" ">
<path fill="none" stroke="orange" stroke-dasharray="5,2" d="M1568.64,-258.65C1632.16,-260.65 1718.16,-265.77 1793,-278.5 1824.21,-283.81 1858.37,-293.14 1885.59,-301.46"/>
<polygon fill="orange" stroke="orange" points="1568.74,-255.15 1558.64,-258.35 1568.53,-262.15 1568.74,-255.15"/>
</a>
</g>
<text text-anchor="start" x="1590" y="-294.9" font-family="Helvetica,sans-Serif" font-size="12.00" fill="grey"> &lt; QList&lt; JKQTPSaveDataAdapter</text>
<text text-anchor="middle" x="1691.5" y="-281.9" font-family="Helvetica,sans-Serif" font-size="12.00" fill="grey"> * &gt; &gt;</text>
</g>
<!-- Node33&#45;&gt;Node6 -->
<g id="edge49_Node000006_Node000033" class="edge">
<title>Node33&#45;&gt;Node6</title>
<g id="a_edge49_Node000006_Node000033"><a xlink:title=" ">
<path fill="none" stroke="#9a32cd" stroke-dasharray="5,2" d="M2021.26,-337.88C2110.03,-358.79 2248.13,-391.32 2318.7,-407.95"/>
<polygon fill="#9a32cd" stroke="#9a32cd" points="2022.03,-334.46 2011.49,-335.58 2020.42,-341.28 2022.03,-334.46"/>
</a>
</g>
<text text-anchor="middle" x="2161.5" y="-391.9" font-family="Helvetica,sans-Serif" font-size="12.00" fill="grey"> jkqtpSaveDataAdapters</text>
</g>
</g>
</svg>
