<?xml version="1.0" encoding="UTF-8" standalone="no"?>
<!DOCTYPE svg PUBLIC "-//W3C//DTD SVG 1.1//EN"
 "http://www.w3.org/Graphics/SVG/1.1/DTD/svg11.dtd">
<!-- Generated by graphviz version 2.43.0 (0)
 -->
<!-- Title: JKQTPGeometricPlotElement Pages: 1 -->
<svg width="805pt" height="494pt"
 viewBox="0.00 0.00 804.50 494.00" xmlns="http://www.w3.org/2000/svg" xmlns:xlink="http://www.w3.org/1999/xlink">
<g id="graph0" class="graph" transform="scale(1 1) rotate(0) translate(4 490)">
<title>JKQTPGeometricPlotElement</title>
<!-- Node1 -->
<g id="node1" class="node">
<title>Node1</title>
<g id="a_node1"><a xlink:title="this is the virtual base class of all JKQTPPlotElement&#39;s in a JKQTPlotter plot that represent geometr...">
<polygon fill="#bfbfbf" stroke="black" points="246.5,-348.5 246.5,-369.5 434.5,-369.5 434.5,-348.5 246.5,-348.5"/>
<text text-anchor="middle" x="340.5" y="-355.9" font-family="Helvetica,sans-Serif" font-size="12.00">JKQTPGeometricPlotElement</text>
</a>
</g>
</g>
<!-- Node4 -->
<g id="node4" class="node">
<title>Node4</title>
<g id="a_node4"><a xlink:href="class_j_k_q_t_p_geo_base_decorated_head_line.html" target="_top" xlink:title="This JKQTPGeometricPlotElement is used as base class for geometric drawing elements that consist of l...">
<polygon fill="none" stroke="black" points="0,-290.5 0,-311.5 225,-311.5 225,-290.5 0,-290.5"/>
<text text-anchor="middle" x="112.5" y="-297.9" font-family="Helvetica,sans-Serif" font-size="12.00">JKQTPGeoBaseDecoratedHeadLine</text>
</a>
</g>
</g>
<!-- Node1&#45;&gt;Node4 -->
<g id="edge3" class="edge">
<title>Node1&#45;&gt;Node4</title>
<path fill="none" stroke="midnightblue" d="M291.84,-346.05C249.87,-335.74 190.07,-321.05 151.27,-311.52"/>
<polygon fill="midnightblue" stroke="midnightblue" points="291.02,-349.45 301.56,-348.44 292.69,-342.65 291.02,-349.45"/>
</g>
<!-- Node6 -->
<g id="node6" class="node">
<title>Node6</title>
<g id="a_node6"><a xlink:href="class_j_k_q_t_p_geo_base_decorated_line.html" target="_top" xlink:title="This JKQTPGeometricPlotElement is used as base class for geometric drawing elements that consist of l...">
<polygon fill="none" stroke="black" points="243.5,-290.5 243.5,-311.5 437.5,-311.5 437.5,-290.5 243.5,-290.5"/>
<text text-anchor="middle" x="340.5" y="-297.9" font-family="Helvetica,sans-Serif" font-size="12.00">JKQTPGeoBaseDecoratedLine</text>
</a>
</g>
</g>
<!-- Node1&#45;&gt;Node6 -->
<g id="edge5" class="edge">
<title>Node1&#45;&gt;Node6</title>
<path fill="none" stroke="midnightblue" d="M340.5,-338.16C340.5,-329.16 340.5,-318.92 340.5,-311.64"/>
<polygon fill="midnightblue" stroke="midnightblue" points="337,-338.25 340.5,-348.25 344,-338.25 337,-338.25"/>
</g>
<!-- Node10 -->
<g id="node10" class="node">
<title>Node10</title>
<g id="a_node10"><a xlink:href="class_j_k_q_t_p_geo_base_line.html" target="_top" xlink:title="This JKQTPGeometricPlotElement is used as base class for geometric drawing elements that only consist...">
<polygon fill="none" stroke="black" points="456,-290.5 456,-311.5 587,-311.5 587,-290.5 456,-290.5"/>
<text text-anchor="middle" x="521.5" y="-297.9" font-family="Helvetica,sans-Serif" font-size="12.00">JKQTPGeoBaseLine</text>
</a>
</g>
</g>
<!-- Node1&#45;&gt;Node10 -->
<g id="edge9" class="edge">
<title>Node1&#45;&gt;Node10</title>
<path fill="none" stroke="midnightblue" d="M381.47,-345.32C414.67,-335.05 460.71,-320.81 490.79,-311.5"/>
<polygon fill="midnightblue" stroke="midnightblue" points="380.13,-342.07 371.62,-348.37 382.2,-348.76 380.13,-342.07"/>
</g>
<!-- Node2 -->
<g id="node2" class="node">
<title>Node2</title>
<g id="a_node2"><a xlink:href="class_j_k_q_t_p_plot_element.html" target="_top" xlink:title="this virtual base class of every element, which is part of a JKQTPlotter plot and may appear in its k...">
<polygon fill="none" stroke="black" points="278,-406.5 278,-427.5 403,-427.5 403,-406.5 278,-406.5"/>
<text text-anchor="middle" x="340.5" y="-413.9" font-family="Helvetica,sans-Serif" font-size="12.00">JKQTPPlotElement</text>
</a>
</g>
</g>
<!-- Node2&#45;&gt;Node1 -->
<g id="edge1" class="edge">
<title>Node2&#45;&gt;Node1</title>
<path fill="none" stroke="midnightblue" d="M340.5,-396.16C340.5,-387.16 340.5,-376.92 340.5,-369.64"/>
<polygon fill="midnightblue" stroke="midnightblue" points="337,-396.25 340.5,-406.25 344,-396.25 337,-396.25"/>
</g>
<!-- Node3 -->
<g id="node3" class="node">
<title>Node3</title>
<g id="a_node3"><a xlink:title=" ">
<polygon fill="none" stroke="black" points="308,-464.5 308,-485.5 373,-485.5 373,-464.5 308,-464.5"/>
<text text-anchor="middle" x="340.5" y="-471.9" font-family="Helvetica,sans-Serif" font-size="12.00">QObject</text>
</a>
</g>
</g>
<!-- Node3&#45;&gt;Node2 -->
<g id="edge2" class="edge">
<title>Node3&#45;&gt;Node2</title>
<path fill="none" stroke="midnightblue" d="M340.5,-454.16C340.5,-445.16 340.5,-434.92 340.5,-427.64"/>
<polygon fill="midnightblue" stroke="midnightblue" points="337,-454.25 340.5,-464.25 344,-454.25 337,-454.25"/>
</g>
<!-- Node5 -->
<g id="node5" class="node">
<title>Node5</title>
<g id="a_node5"><a xlink:href="class_j_k_q_t_p_geo_infinite_line.html" target="_top" xlink:title="This JKQTPGeometricPlotElement is used to draw an infinite line.">
<polygon fill="none" stroke="black" points="41,-232.5 41,-253.5 184,-253.5 184,-232.5 41,-232.5"/>
<text text-anchor="middle" x="112.5" y="-239.9" font-family="Helvetica,sans-Serif" font-size="12.00">JKQTPGeoInfiniteLine</text>
</a>
</g>
</g>
<!-- Node4&#45;&gt;Node5 -->
<g id="edge4" class="edge">
<title>Node4&#45;&gt;Node5</title>
<path fill="none" stroke="midnightblue" d="M112.5,-280.16C112.5,-271.16 112.5,-260.92 112.5,-253.64"/>
<polygon fill="midnightblue" stroke="midnightblue" points="109,-280.25 112.5,-290.25 116,-280.25 109,-280.25"/>
</g>
<!-- Node7 -->
<g id="node7" class="node">
<title>Node7</title>
<g id="a_node7"><a xlink:href="class_j_k_q_t_p_geo_line.html" target="_top" xlink:title="This JKQTPGeometricPlotElement is used to draw a line, optionally line&#45;end decorations (aka arrows) a...">
<polygon fill="none" stroke="black" points="203,-232.5 203,-253.5 304,-253.5 304,-232.5 203,-232.5"/>
<text text-anchor="middle" x="253.5" y="-239.9" font-family="Helvetica,sans-Serif" font-size="12.00">JKQTPGeoLine</text>
</a>
</g>
</g>
<!-- Node6&#45;&gt;Node7 -->
<g id="edge6" class="edge">
<title>Node6&#45;&gt;Node7</title>
<path fill="none" stroke="midnightblue" d="M316.84,-284.77C301.42,-274.85 281.77,-262.2 268.48,-253.64"/>
<polygon fill="midnightblue" stroke="midnightblue" points="315.04,-287.78 325.35,-290.25 318.83,-281.89 315.04,-287.78"/>
</g>
<!-- Node9 -->
<g id="node9" class="node">
<title>Node9</title>
<g id="a_node9"><a xlink:href="class_j_k_q_t_p_geo_poly_lines.html" target="_top" xlink:title="This JKQTPGeometricPlotElement is used to draw a poly line.">
<polygon fill="none" stroke="black" points="322,-232.5 322,-253.5 453,-253.5 453,-232.5 322,-232.5"/>
<text text-anchor="middle" x="387.5" y="-239.9" font-family="Helvetica,sans-Serif" font-size="12.00">JKQTPGeoPolyLines</text>
</a>
</g>
</g>
<!-- Node6&#45;&gt;Node9 -->
<g id="edge8" class="edge">
<title>Node6&#45;&gt;Node9</title>
<path fill="none" stroke="midnightblue" d="M355.19,-282.5C363.18,-272.98 372.76,-261.56 379.41,-253.64"/>
<polygon fill="midnightblue" stroke="midnightblue" points="352.43,-280.34 348.69,-290.25 357.8,-284.84 352.43,-280.34"/>
</g>
<!-- Node8 -->
<g id="node8" class="node">
<title>Node8</title>
<g id="a_node8"><a xlink:href="class_j_k_q_t_p_geo_arrow.html" target="_top" xlink:title="This convenience specialisation of JKQTPGeoLine is used to draw a line with decorations (e....">
<polygon fill="none" stroke="black" points="198,-174.5 198,-195.5 309,-195.5 309,-174.5 198,-174.5"/>
<text text-anchor="middle" x="253.5" y="-181.9" font-family="Helvetica,sans-Serif" font-size="12.00">JKQTPGeoArrow</text>
</a>
</g>
</g>
<!-- Node7&#45;&gt;Node8 -->
<g id="edge7" class="edge">
<title>Node7&#45;&gt;Node8</title>
<path fill="none" stroke="midnightblue" d="M253.5,-222.16C253.5,-213.16 253.5,-202.92 253.5,-195.64"/>
<polygon fill="midnightblue" stroke="midnightblue" points="250,-222.25 253.5,-232.25 257,-222.25 250,-222.25"/>
</g>
<!-- Node11 -->
<g id="node11" class="node">
<title>Node11</title>
<g id="a_node11"><a xlink:href="class_j_k_q_t_p_geo_arc.html" target="_top" xlink:title="This JKQTPGeometricPlotElement is used to draw an arc.">
<polygon fill="none" stroke="black" points="472.5,-232.5 472.5,-253.5 568.5,-253.5 568.5,-232.5 472.5,-232.5"/>
<text text-anchor="middle" x="520.5" y="-239.9" font-family="Helvetica,sans-Serif" font-size="12.00">JKQTPGeoArc</text>
</a>
</g>
</g>
<!-- Node10&#45;&gt;Node11 -->
<g id="edge10" class="edge">
<title>Node10&#45;&gt;Node11</title>
<path fill="none" stroke="midnightblue" d="M521.15,-280.16C520.98,-271.16 520.8,-260.92 520.67,-253.64"/>
<polygon fill="midnightblue" stroke="midnightblue" points="517.65,-280.31 521.33,-290.25 524.65,-280.18 517.65,-280.31"/>
</g>
<!-- Node12 -->
<g id="node12" class="node">
<title>Node12</title>
<g id="a_node12"><a xlink:href="class_j_k_q_t_p_geo_base_filled.html" target="_top" xlink:title="This JKQTPGeometricPlotElement is used as base class for geometric drawing elements that only consist...">
<polygon fill="none" stroke="black" points="586.5,-232.5 586.5,-253.5 722.5,-253.5 722.5,-232.5 586.5,-232.5"/>
<text text-anchor="middle" x="654.5" y="-239.9" font-family="Helvetica,sans-Serif" font-size="12.00">JKQTPGeoBaseFilled</text>
</a>
</g>
</g>
<!-- Node10&#45;&gt;Node12 -->
<g id="edge11" class="edge">
<title>Node10&#45;&gt;Node12</title>
<path fill="none" stroke="midnightblue" d="M553.84,-286.38C578.03,-276.2 610.5,-262.53 631.93,-253.5"/>
<polygon fill="midnightblue" stroke="midnightblue" points="552.22,-283.27 544.36,-290.37 554.94,-289.72 552.22,-283.27"/>
</g>
<!-- Node13 -->
<g id="node13" class="node">
<title>Node13</title>
<g id="a_node13"><a xlink:href="class_j_k_q_t_p_geo_polygon.html" target="_top" xlink:title="This JKQTPGeometricPlotElement is used to draw a polygon.">
<polygon fill="none" stroke="black" points="519,-174.5 519,-195.5 642,-195.5 642,-174.5 519,-174.5"/>
<text text-anchor="middle" x="580.5" y="-181.9" font-family="Helvetica,sans-Serif" font-size="12.00">JKQTPGeoPolygon</text>
</a>
</g>
</g>
<!-- Node12&#45;&gt;Node13 -->
<g id="edge12" class="edge">
<title>Node12&#45;&gt;Node13</title>
<path fill="none" stroke="midnightblue" d="M633.63,-226.21C620.64,-216.37 604.34,-204.04 593.24,-195.64"/>
<polygon fill="midnightblue" stroke="midnightblue" points="631.52,-229 641.61,-232.25 635.75,-223.42 631.52,-229"/>
</g>
<!-- Node14 -->
<g id="node14" class="node">
<title>Node14</title>
<g id="a_node14"><a xlink:href="class_j_k_q_t_p_geo_rectangle.html" target="_top" xlink:title="This JKQTPGeometricPlotElement is used to draw a rectangle.">
<polygon fill="none" stroke="black" points="660.5,-174.5 660.5,-195.5 796.5,-195.5 796.5,-174.5 660.5,-174.5"/>
<text text-anchor="middle" x="728.5" y="-181.9" font-family="Helvetica,sans-Serif" font-size="12.00">JKQTPGeoRectangle</text>
</a>
</g>
</g>
<!-- Node12&#45;&gt;Node14 -->
<g id="edge13" class="edge">
<title>Node12&#45;&gt;Node14</title>
<path fill="none" stroke="midnightblue" d="M675.37,-226.21C688.36,-216.37 704.66,-204.04 715.76,-195.64"/>
<polygon fill="midnightblue" stroke="midnightblue" points="673.25,-223.42 667.39,-232.25 677.48,-229 673.25,-223.42"/>
</g>
<!-- Node15 -->
<g id="node15" class="node">
<title>Node15</title>
<g id="a_node15"><a xlink:href="class_j_k_q_t_p_geo_ellipse.html" target="_top" xlink:title="This JKQTPGeometricPlotElement is used to draw an ellipse.">
<polygon fill="none" stroke="black" points="671.5,-116.5 671.5,-137.5 785.5,-137.5 785.5,-116.5 671.5,-116.5"/>
<text text-anchor="middle" x="728.5" y="-123.9" font-family="Helvetica,sans-Serif" font-size="12.00">JKQTPGeoEllipse</text>
</a>
</g>
</g>
<!-- Node14&#45;&gt;Node15 -->
<g id="edge14" class="edge">
<title>Node14&#45;&gt;Node15</title>
<path fill="none" stroke="midnightblue" d="M728.5,-164.16C728.5,-155.16 728.5,-144.92 728.5,-137.64"/>
<polygon fill="midnightblue" stroke="midnightblue" points="725,-164.25 728.5,-174.25 732,-164.25 725,-164.25"/>
</g>
<!-- Node16 -->
<g id="node16" class="node">
<title>Node16</title>
<g id="a_node16"><a xlink:href="class_j_k_q_t_p_geo_pie.html" target="_top" xlink:title="This JKQTPGeometricPlotElement is used to draw a pie.">
<polygon fill="none" stroke="black" points="681.5,-58.5 681.5,-79.5 775.5,-79.5 775.5,-58.5 681.5,-58.5"/>
<text text-anchor="middle" x="728.5" y="-65.9" font-family="Helvetica,sans-Serif" font-size="12.00">JKQTPGeoPie</text>
</a>
</g>
</g>
<!-- Node15&#45;&gt;Node16 -->
<g id="edge15" class="edge">
<title>Node15&#45;&gt;Node16</title>
<path fill="none" stroke="midnightblue" d="M728.5,-106.16C728.5,-97.16 728.5,-86.92 728.5,-79.64"/>
<polygon fill="midnightblue" stroke="midnightblue" points="725,-106.25 728.5,-116.25 732,-106.25 725,-106.25"/>
</g>
<!-- Node17 -->
<g id="node17" class="node">
<title>Node17</title>
<g id="a_node17"><a xlink:href="class_j_k_q_t_p_geo_chord.html" target="_top" xlink:title="This JKQTPGeometricPlotElement is used to draw a chord.">
<polygon fill="none" stroke="black" points="672.5,-0.5 672.5,-21.5 784.5,-21.5 784.5,-0.5 672.5,-0.5"/>
<text text-anchor="middle" x="728.5" y="-7.9" font-family="Helvetica,sans-Serif" font-size="12.00">JKQTPGeoChord</text>
</a>
</g>
</g>
<!-- Node16&#45;&gt;Node17 -->
<g id="edge16" class="edge">
<title>Node16&#45;&gt;Node17</title>
<path fill="none" stroke="midnightblue" d="M728.5,-48.16C728.5,-39.16 728.5,-28.92 728.5,-21.64"/>
<polygon fill="midnightblue" stroke="midnightblue" points="725,-48.25 728.5,-58.25 732,-48.25 725,-48.25"/>
</g>
</g>
</svg>
