<?xml version="1.0" encoding="UTF-8" standalone="no"?>
<!DOCTYPE svg PUBLIC "-//W3C//DTD SVG 1.1//EN"
 "http://www.w3.org/Graphics/SVG/1.1/DTD/svg11.dtd">
<!-- Generated by graphviz version 2.43.0 (0)
 -->
<!-- Title: JKQTPBarHorizontalGraph Pages: 1 -->
<svg width="3620pt" height="593pt"
 viewBox="0.00 0.00 3620.00 593.00" xmlns="http://www.w3.org/2000/svg" xmlns:xlink="http://www.w3.org/1999/xlink">
<g id="graph0" class="graph" transform="scale(1 1) rotate(0) translate(4 589)">
<title>JKQTPBarHorizontalGraph</title>
<!-- Node1 -->
<g id="node1" class="node">
<title>Node1</title>
<g id="a_node1"><a xlink:title="This implements a horizontal bar graph with bars between &#160;and .">
<polygon fill="#999999" stroke="#666666" points="3612,-109 3441,-109 3441,-88 3612,-88 3612,-109"/>
<text text-anchor="middle" x="3526.5" y="-95.4" font-family="Helvetica,sans-Serif" font-size="12.00">JKQTPBarHorizontalGraph</text>
</a>
</g>
</g>
<!-- Node2 -->
<g id="node2" class="node">
<title>Node2</title>
<g id="a_node2"><a xlink:href="class_j_k_q_t_p_bar_graph_base.html" target="_top" xlink:title="This is a base&#45;class for all bar graphs with vertical or horizontal orientation (the orientation is i...">
<polygon fill="white" stroke="#666666" points="3404,-109 3264,-109 3264,-88 3404,-88 3404,-109"/>
<text text-anchor="middle" x="3334" y="-95.4" font-family="Helvetica,sans-Serif" font-size="12.00">JKQTPBarGraphBase</text>
</a>
</g>
</g>
<!-- Node2&#45;&gt;Node1 -->
<g id="edge1" class="edge">
<title>Node2&#45;&gt;Node1</title>
<path fill="none" stroke="#63b8ff" d="M3414.23,-98.5C3422.99,-98.5 3431.94,-98.5 3440.77,-98.5"/>
<polygon fill="#63b8ff" stroke="#63b8ff" points="3414.04,-95 3404.04,-98.5 3414.04,-102 3414.04,-95"/>
</g>
<!-- Node3 -->
<g id="node3" class="node">
<title>Node3</title>
<g id="a_node3"><a xlink:href="class_j_k_q_t_p_x_y_baseline_graph.html" target="_top" xlink:title="This virtual JKQTPGraph descendent extends JKQTPXYGraph adds a baseline&#45;property, which is necessary,...">
<polygon fill="white" stroke="#666666" points="3117.5,-187 2962.5,-187 2962.5,-166 3117.5,-166 3117.5,-187"/>
<text text-anchor="middle" x="3040" y="-173.4" font-family="Helvetica,sans-Serif" font-size="12.00">JKQTPXYBaselineGraph</text>
</a>
</g>
</g>
<!-- Node3&#45;&gt;Node2 -->
<g id="edge2" class="edge">
<title>Node3&#45;&gt;Node2</title>
<path fill="none" stroke="#63b8ff" d="M3128.02,-174.06C3165.18,-170.94 3208.54,-164.51 3246,-151.5 3274.4,-141.64 3303.45,-121.5 3319.76,-109.09"/>
<polygon fill="#63b8ff" stroke="#63b8ff" points="3127.41,-170.59 3117.71,-174.85 3127.95,-177.57 3127.41,-170.59"/>
</g>
<!-- Node4 -->
<g id="node4" class="node">
<title>Node4</title>
<g id="a_node4"><a xlink:href="class_j_k_q_t_p_x_y_graph.html" target="_top" xlink:title="This virtual JKQTPGraph descendent may be used as base for all graphs that use at least two columns t...">
<polygon fill="white" stroke="#666666" points="2916,-291 2811,-291 2811,-270 2916,-270 2916,-291"/>
<text text-anchor="middle" x="2863.5" y="-277.4" font-family="Helvetica,sans-Serif" font-size="12.00">JKQTPXYGraph</text>
</a>
</g>
</g>
<!-- Node4&#45;&gt;Node3 -->
<g id="edge3" class="edge">
<title>Node4&#45;&gt;Node3</title>
<path fill="none" stroke="#63b8ff" d="M2891.16,-264.61C2927.21,-243.12 2990.53,-205.39 3021.26,-187.07"/>
<polygon fill="#63b8ff" stroke="#63b8ff" points="2888.99,-261.83 2882.19,-269.96 2892.57,-267.84 2888.99,-261.83"/>
</g>
<!-- Node5 -->
<g id="node5" class="node">
<title>Node5</title>
<g id="a_node5"><a xlink:href="class_j_k_q_t_p_graph.html" target="_top" xlink:title="this virtual base class of the (data&#45;column based) graphs, which are part of a JKQTPlotter plot and w...">
<polygon fill="white" stroke="#666666" points="2750,-395 2661,-395 2661,-374 2750,-374 2750,-395"/>
<text text-anchor="middle" x="2705.5" y="-381.4" font-family="Helvetica,sans-Serif" font-size="12.00">JKQTPGraph</text>
</a>
</g>
</g>
<!-- Node5&#45;&gt;Node4 -->
<g id="edge4" class="edge">
<title>Node5&#45;&gt;Node4</title>
<path fill="none" stroke="#63b8ff" d="M2730.75,-368.33C2763.05,-346.8 2819.28,-309.31 2846.64,-291.07"/>
<polygon fill="#63b8ff" stroke="#63b8ff" points="2728.7,-365.5 2722.32,-373.96 2732.58,-371.32 2728.7,-365.5"/>
</g>
<!-- Node6 -->
<g id="node6" class="node">
<title>Node6</title>
<g id="a_node6"><a xlink:href="class_j_k_q_t_p_plot_element.html" target="_top" xlink:title="this virtual base class of every element, which is part of a JKQTPlotter plot and may appear in its k...">
<polygon fill="white" stroke="#666666" points="2555,-470 2430,-470 2430,-449 2555,-449 2555,-470"/>
<text text-anchor="middle" x="2492.5" y="-456.4" font-family="Helvetica,sans-Serif" font-size="12.00">JKQTPPlotElement</text>
</a>
</g>
</g>
<!-- Node6&#45;&gt;Node5 -->
<g id="edge5" class="edge">
<title>Node6&#45;&gt;Node5</title>
<path fill="none" stroke="#63b8ff" d="M2532.72,-445.56C2573.9,-430.92 2637.71,-408.24 2674.87,-395.03"/>
<polygon fill="#63b8ff" stroke="#63b8ff" points="2531.53,-442.27 2523.28,-448.91 2533.88,-448.86 2531.53,-442.27"/>
</g>
<!-- Node7 -->
<g id="node7" class="node">
<title>Node7</title>
<g id="a_node7"><a xlink:title=" ">
<polygon fill="white" stroke="#666666" points="1507.5,-477 1442.5,-477 1442.5,-456 1507.5,-456 1507.5,-477"/>
<text text-anchor="middle" x="1475" y="-463.4" font-family="Helvetica,sans-Serif" font-size="12.00">QObject</text>
</a>
</g>
</g>
<!-- Node7&#45;&gt;Node6 -->
<g id="edge6" class="edge">
<title>Node7&#45;&gt;Node6</title>
<path fill="none" stroke="#63b8ff" d="M1517.52,-467.8C1614.9,-470.67 1865.56,-477.02 2075,-473.5 2201.05,-471.38 2348.47,-465.66 2429.77,-462.22"/>
<polygon fill="#63b8ff" stroke="#63b8ff" points="1517.6,-464.3 1507.5,-467.5 1517.39,-471.3 1517.6,-464.3"/>
</g>
<!-- Node8 -->
<g id="node8" class="node">
<title>Node8</title>
<g id="a_node8"><a xlink:href="class_j_k_q_t_base_plotter.html" target="_top" xlink:title="base class for 2D plotter classes (used by the plotter widget JKQTPlotter)">
<polygon fill="white" stroke="#666666" points="2221.5,-347 2107.5,-347 2107.5,-326 2221.5,-326 2221.5,-347"/>
<text text-anchor="middle" x="2164.5" y="-333.4" font-family="Helvetica,sans-Serif" font-size="12.00">JKQTBasePlotter</text>
</a>
</g>
</g>
<!-- Node7&#45;&gt;Node8 -->
<g id="edge8" class="edge">
<title>Node7&#45;&gt;Node8</title>
<path fill="none" stroke="#63b8ff" d="M1517.45,-459.01C1591.76,-445.55 1752.54,-416.27 1888,-390.5 1965.57,-375.74 2055.29,-358.04 2110.72,-347.03"/>
<polygon fill="#63b8ff" stroke="#63b8ff" points="1516.77,-455.58 1507.55,-460.8 1518.02,-462.47 1516.77,-455.58"/>
</g>
<!-- Node21 -->
<g id="node21" class="node">
<title>Node21</title>
<g id="a_node21"><a xlink:href="class_j_k_q_t_math_text.html" target="_top" xlink:title="this class parses a mathematical markup string and can then draw the contained text/equation onto a Q...">
<polygon fill="white" stroke="#666666" points="1866,-537 1767,-537 1767,-516 1866,-516 1866,-537"/>
<text text-anchor="middle" x="1816.5" y="-523.4" font-family="Helvetica,sans-Serif" font-size="12.00">JKQTMathText</text>
</a>
</g>
</g>
<!-- Node7&#45;&gt;Node21 -->
<g id="edge27" class="edge">
<title>Node7&#45;&gt;Node21</title>
<path fill="none" stroke="#63b8ff" d="M1514.71,-480.36C1536.55,-487.69 1564.51,-496.22 1590,-501.5 1650.17,-513.96 1720.75,-520.52 1766.7,-523.74"/>
<polygon fill="#63b8ff" stroke="#63b8ff" points="1515.73,-477.01 1505.13,-477.1 1513.47,-483.64 1515.73,-477.01"/>
</g>
<!-- Node26 -->
<g id="node26" class="node">
<title>Node26</title>
<g id="a_node26"><a xlink:href="class_j_k_q_t_p_coordinate_axis.html" target="_top" xlink:title="this virtual class is the base for any type of coordinate axis, to be drawn by JKQTBasePlotter.">
<polygon fill="white" stroke="#666666" points="2563.5,-254 2421.5,-254 2421.5,-233 2563.5,-233 2563.5,-254"/>
<text text-anchor="middle" x="2492.5" y="-240.4" font-family="Helvetica,sans-Serif" font-size="12.00">JKQTPCoordinateAxis</text>
</a>
</g>
</g>
<!-- Node7&#45;&gt;Node26 -->
<g id="edge36" class="edge">
<title>Node7&#45;&gt;Node26</title>
<path fill="none" stroke="#63b8ff" d="M1505.59,-451.52C1528.23,-440.55 1560.47,-425.99 1590,-416.5 1649.25,-397.46 1666.47,-401.98 1727,-387.5 1799.03,-370.27 1825.31,-383.94 1888,-344.5 1898.4,-337.95 1895.36,-329.66 1906,-323.5 2042.24,-244.62 2097.77,-276.84 2254,-257.5 2310.06,-250.56 2373.99,-247.04 2421.4,-245.27"/>
<polygon fill="#63b8ff" stroke="#63b8ff" points="1503.95,-448.42 1496.51,-455.97 1507.03,-454.71 1503.95,-448.42"/>
</g>
<!-- Node8&#45;&gt;Node6 -->
<g id="edge7" class="edge">
<title>Node8&#45;&gt;Node6</title>
<path fill="none" stroke="#9a32cd" stroke-dasharray="5,2" d="M2182.18,-354.92C2198.72,-372.01 2225.64,-396.8 2254,-410.5 2309.92,-437.51 2380.24,-449.66 2429.81,-455.11"/>
<polygon fill="#9a32cd" stroke="#9a32cd" points="2184.34,-352.11 2174.93,-347.23 2179.25,-356.91 2184.34,-352.11"/>
<text text-anchor="middle" x="2310.5" y="-446.9" font-family="Helvetica,sans-Serif" font-size="12.00"> parent</text>
</g>
<!-- Node8&#45;&gt;Node8 -->
<g id="edge47" class="edge">
<title>Node8&#45;&gt;Node8</title>
<path fill="none" stroke="#9a32cd" stroke-dasharray="5,2" d="M2137.59,-356.57C2139.67,-361.41 2148.64,-365 2164.5,-365 2189.88,-365 2197.61,-355.81 2187.7,-347.02"/>
<polygon fill="#9a32cd" stroke="#9a32cd" points="2140.95,-357.61 2141.3,-347.02 2134.42,-355.08 2140.95,-357.61"/>
<text text-anchor="middle" x="2164.5" y="-381.4" font-family="Helvetica,sans-Serif" font-size="12.00"> masterPlotterX</text>
<text text-anchor="middle" x="2164.5" y="-368.4" font-family="Helvetica,sans-Serif" font-size="12.00">masterPlotterY</text>
</g>
<!-- Node23 -->
<g id="node23" class="node">
<title>Node23</title>
<g id="a_node23"><a xlink:href="class_j_k_q_t_p_graphs_model.html" target="_top" xlink:title="data model with all plots ina JKQTBasePlotter (+ allows to switch them visible/invisible)">
<polygon fill="white" stroke="#666666" points="2558,-409 2427,-409 2427,-388 2558,-388 2558,-409"/>
<text text-anchor="middle" x="2492.5" y="-395.4" font-family="Helvetica,sans-Serif" font-size="12.00">JKQTPGraphsModel</text>
</a>
</g>
</g>
<!-- Node8&#45;&gt;Node23 -->
<g id="edge33" class="edge">
<title>Node8&#45;&gt;Node23</title>
<path fill="none" stroke="#9a32cd" stroke-dasharray="5,2" d="M2193.48,-352.05C2210.47,-360.74 2232.88,-370.92 2254,-376.5 2311.25,-391.63 2378.65,-396.72 2426.99,-398.27"/>
<polygon fill="#9a32cd" stroke="#9a32cd" points="2194.64,-348.7 2184.16,-347.15 2191.38,-354.9 2194.64,-348.7"/>
<text text-anchor="middle" x="2310.5" y="-396.9" font-family="Helvetica,sans-Serif" font-size="12.00"> m_plotter</text>
</g>
<!-- Node8&#45;&gt;Node26 -->
<g id="edge37" class="edge">
<title>Node8&#45;&gt;Node26</title>
<path fill="none" stroke="#9a32cd" stroke-dasharray="5,2" d="M2185.48,-319.35C2202.53,-305.7 2228.3,-287.33 2254,-277.5 2283.72,-266.14 2362.53,-256.23 2421.26,-250.09"/>
<polygon fill="#9a32cd" stroke="#9a32cd" points="2182.91,-316.93 2177.41,-325.98 2187.36,-322.34 2182.91,-316.93"/>
<text text-anchor="middle" x="2310.5" y="-280.9" font-family="Helvetica,sans-Serif" font-size="12.00"> parent</text>
</g>
<!-- Node9 -->
<g id="node9" class="node">
<title>Node9</title>
<g id="a_node9"><a xlink:href="class_j_k_q_t_base_plotter_style.html" target="_top" xlink:title="Support Class for JKQTBasePlotter, which summarizes all properties that define the visual styling of ...">
<polygon fill="white" stroke="#666666" points="1888,-335 1745,-335 1745,-314 1888,-314 1888,-335"/>
<text text-anchor="middle" x="1816.5" y="-321.4" font-family="Helvetica,sans-Serif" font-size="12.00">JKQTBasePlotterStyle</text>
</a>
</g>
</g>
<!-- Node9&#45;&gt;Node8 -->
<g id="edge9" class="edge">
<title>Node9&#45;&gt;Node8</title>
<path fill="none" stroke="#9a32cd" stroke-dasharray="5,2" d="M1898.44,-327.31C1962.61,-329.53 2050.63,-332.59 2107.29,-334.55"/>
<polygon fill="#9a32cd" stroke="#9a32cd" points="1898.47,-323.81 1888.35,-326.96 1898.23,-330.8 1898.47,-323.81"/>
<text text-anchor="middle" x="1990.5" y="-335.9" font-family="Helvetica,sans-Serif" font-size="12.00"> plotterStyle</text>
</g>
<!-- Node10 -->
<g id="node10" class="node">
<title>Node10</title>
<g id="a_node10"><a xlink:href="class_j_k_q_t_p_key_style.html" target="_top" xlink:title="Support Class for JKQTBasePlotter, which summarizes all properties that define the visual styling of ...">
<polygon fill="white" stroke="#666666" points="1527,-310 1423,-310 1423,-289 1527,-289 1527,-310"/>
<text text-anchor="middle" x="1475" y="-296.4" font-family="Helvetica,sans-Serif" font-size="12.00">JKQTPKeyStyle</text>
</a>
</g>
</g>
<!-- Node10&#45;&gt;Node9 -->
<g id="edge10" class="edge">
<title>Node10&#45;&gt;Node9</title>
<path fill="none" stroke="#9a32cd" stroke-dasharray="5,2" d="M1537.38,-296.78C1588.36,-295.41 1662.67,-295.45 1727,-303.5 1744.24,-305.66 1763,-309.84 1778.8,-313.9"/>
<polygon fill="#9a32cd" stroke="#9a32cd" points="1537.08,-293.29 1527.18,-297.08 1537.28,-300.28 1537.08,-293.29"/>
<text text-anchor="middle" x="1658.5" y="-306.9" font-family="Helvetica,sans-Serif" font-size="12.00"> keyStyle</text>
</g>
<!-- Node11 -->
<g id="node11" class="node">
<title>Node11</title>
<g id="a_node11"><a xlink:href="class_j_k_q_t_p_coordinate_axis_style.html" target="_top" xlink:title="Support Class for JKQTPCoordinateAxis, which summarizes all properties that define the visual styling...">
<polygon fill="white" stroke="#666666" points="1234,-255 1063,-255 1063,-234 1234,-234 1234,-255"/>
<text text-anchor="middle" x="1148.5" y="-241.4" font-family="Helvetica,sans-Serif" font-size="12.00">JKQTPCoordinateAxisStyle</text>
</a>
</g>
</g>
<!-- Node11&#45;&gt;Node9 -->
<g id="edge11" class="edge">
<title>Node11&#45;&gt;Node9</title>
<path fill="none" stroke="#9a32cd" stroke-dasharray="5,2" d="M1244.32,-241.07C1330.24,-239.3 1460.13,-239.99 1572,-254.5 1642.24,-263.61 1659.25,-270.87 1727,-291.5 1748.49,-298.04 1772.33,-307.04 1789.84,-313.98"/>
<polygon fill="#9a32cd" stroke="#9a32cd" points="1243.99,-237.57 1234.07,-241.29 1244.14,-244.57 1243.99,-237.57"/>
<text text-anchor="middle" x="1475" y="-270.9" font-family="Helvetica,sans-Serif" font-size="12.00"> xAxisStyle</text>
<text text-anchor="middle" x="1475" y="-257.9" font-family="Helvetica,sans-Serif" font-size="12.00">yAxisStyle</text>
</g>
<!-- Node13 -->
<g id="node13" class="node">
<title>Node13</title>
<g id="a_node13"><a xlink:href="class_j_k_q_t_p_colorbar_coordinate_axis_style.html" target="_top" xlink:title="Support Class for JKQTPCoordinateAxis, which summarizes all properties that define the visual styling...">
<polygon fill="white" stroke="#666666" points="1572,-362.5 1378,-362.5 1378,-328.5 1572,-328.5 1572,-362.5"/>
<text text-anchor="start" x="1386" y="-348.9" font-family="Helvetica,sans-Serif" font-size="12.00">JKQTPColorbarCoordinateAxis</text>
<text text-anchor="middle" x="1475" y="-335.9" font-family="Helvetica,sans-Serif" font-size="12.00">Style</text>
</a>
</g>
</g>
<!-- Node11&#45;&gt;Node13 -->
<g id="edge14" class="edge">
<title>Node11&#45;&gt;Node13</title>
<path fill="none" stroke="#63b8ff" d="M1244.02,-253.73C1290.92,-259.93 1341.46,-269.55 1360,-283.5 1374.29,-294.26 1364.16,-308.17 1378,-319.5 1382.14,-322.89 1386.69,-325.84 1391.48,-328.41"/>
<polygon fill="#63b8ff" stroke="#63b8ff" points="1244.44,-250.26 1234.08,-252.46 1243.55,-257.2 1244.44,-250.26"/>
</g>
<!-- Node11&#45;&gt;Node26 -->
<g id="edge38" class="edge">
<title>Node11&#45;&gt;Node26</title>
<path fill="none" stroke="#9a32cd" stroke-dasharray="5,2" d="M1244.32,-236.37C1250.3,-236.03 1256.23,-235.73 1262,-235.5 1305.52,-233.76 1316.44,-235.4 1360,-235.5 1761.73,-236.45 2243.67,-240.99 2421.32,-242.77"/>
<polygon fill="#9a32cd" stroke="#9a32cd" points="1243.99,-232.88 1234.23,-236.99 1244.42,-239.87 1243.99,-232.88"/>
<text text-anchor="middle" x="1816.5" y="-240.9" font-family="Helvetica,sans-Serif" font-size="12.00"> axisStyle</text>
</g>
<!-- Node12 -->
<g id="node12" class="node">
<title>Node12</title>
<g id="a_node12"><a xlink:href="class_j_k_q_t_p_grid_style.html" target="_top" xlink:title="Support Class for JKQTPCoordinateAxis, and summarizes all properties that define the visual styling o...">
<polygon fill="white" stroke="#666666" points="805.5,-255 698.5,-255 698.5,-234 805.5,-234 805.5,-255"/>
<text text-anchor="middle" x="752" y="-241.4" font-family="Helvetica,sans-Serif" font-size="12.00">JKQTPGridStyle</text>
</a>
</g>
</g>
<!-- Node12&#45;&gt;Node11 -->
<g id="edge12" class="edge">
<title>Node12&#45;&gt;Node11</title>
<path fill="none" stroke="#9a32cd" stroke-dasharray="5,2" d="M816.18,-244.5C883.03,-244.5 988.9,-244.5 1062.92,-244.5"/>
<polygon fill="#9a32cd" stroke="#9a32cd" points="815.79,-241 805.79,-244.5 815.79,-248 815.79,-241"/>
<text text-anchor="middle" x="948.5" y="-260.9" font-family="Helvetica,sans-Serif" font-size="12.00"> majorGridStyle</text>
<text text-anchor="middle" x="948.5" y="-247.9" font-family="Helvetica,sans-Serif" font-size="12.00">minorGridStyle</text>
</g>
<!-- Node13&#45;&gt;Node9 -->
<g id="edge13" class="edge">
<title>Node13&#45;&gt;Node9</title>
<path fill="none" stroke="#9a32cd" stroke-dasharray="5,2" d="M1574.55,-327.15C1579.76,-326.51 1584.94,-325.95 1590,-325.5 1641.67,-320.89 1700.26,-320.78 1744.77,-321.75"/>
<polygon fill="#9a32cd" stroke="#9a32cd" points="1573.95,-323.7 1564.49,-328.47 1574.86,-330.64 1573.95,-323.7"/>
<text text-anchor="middle" x="1658.5" y="-341.9" font-family="Helvetica,sans-Serif" font-size="12.00"> rightColorbarAxisStyle</text>
<text text-anchor="middle" x="1658.5" y="-328.9" font-family="Helvetica,sans-Serif" font-size="12.00">topColorbarAxisStyle</text>
</g>
<!-- Node14 -->
<g id="node14" class="node">
<title>Node14</title>
<g id="a_node14"><a xlink:href="class_j_k_q_t_graphs_base_style.html" target="_top" xlink:title="Support Class for JKQTBasePlotter, which summarizes all properties that define the visual styling of ...">
<polygon fill="white" stroke="#666666" points="1548,-404 1402,-404 1402,-383 1548,-383 1548,-404"/>
<text text-anchor="middle" x="1475" y="-390.4" font-family="Helvetica,sans-Serif" font-size="12.00">JKQTGraphsBaseStyle</text>
</a>
</g>
</g>
<!-- Node14&#45;&gt;Node9 -->
<g id="edge15" class="edge">
<title>Node14&#45;&gt;Node9</title>
<path fill="none" stroke="#9a32cd" stroke-dasharray="5,2" d="M1549.16,-381.29C1622.85,-368.98 1725.9,-351.76 1727,-351.5 1746.23,-346.98 1767.42,-340.57 1784.23,-335.13"/>
<polygon fill="#9a32cd" stroke="#9a32cd" points="1548.25,-377.89 1538.96,-382.99 1549.4,-384.79 1548.25,-377.89"/>
<text text-anchor="middle" x="1658.5" y="-376.9" font-family="Helvetica,sans-Serif" font-size="12.00"> graphsStyle</text>
</g>
<!-- Node15 -->
<g id="node15" class="node">
<title>Node15</title>
<g id="a_node15"><a xlink:href="class_j_k_q_t_graphs_specific_style_properties.html" target="_top" xlink:title="Support Class for JKQTBasePlotter, which summarizes all properties that define the visual styling of ...">
<polygon fill="white" stroke="#666666" points="623,-388 399,-388 399,-367 623,-367 623,-388"/>
<text text-anchor="middle" x="511" y="-374.4" font-family="Helvetica,sans-Serif" font-size="12.00">JKQTGraphsSpecificStyleProperties</text>
</a>
</g>
</g>
<!-- Node15&#45;&gt;Node14 -->
<g id="edge16" class="edge">
<title>Node15&#45;&gt;Node14</title>
<path fill="none" stroke="#9a32cd" stroke-dasharray="5,2" d="M546.43,-391.85C576.08,-403.71 620.23,-420.22 660,-430.5 911.49,-495.5 986.58,-488.24 1244,-453.5 1316.8,-443.68 1399.56,-418.51 1443.23,-404.08"/>
<polygon fill="#9a32cd" stroke="#9a32cd" points="547.55,-388.53 536.96,-388.02 544.92,-395.02 547.55,-388.53"/>
<text text-anchor="middle" x="948.5" y="-508.9" font-family="Helvetica,sans-Serif" font-size="12.00"> boxplotStyle</text>
<text text-anchor="middle" x="948.5" y="-495.9" font-family="Helvetica,sans-Serif" font-size="12.00">defaultGraphStyle</text>
<text text-anchor="middle" x="948.5" y="-482.9" font-family="Helvetica,sans-Serif" font-size="12.00">filledStyle</text>
</g>
<!-- Node17 -->
<g id="node17" class="node">
<title>Node17</title>
<g id="a_node17"><a xlink:href="class_j_k_q_t_barchart_specific_style_properties.html" target="_top" xlink:title="Support Class for JKQTBasePlotter, which summarizes all properties that define the visual styling of ...">
<polygon fill="white" stroke="#666666" points="1035,-460.5 862,-460.5 862,-426.5 1035,-426.5 1035,-460.5"/>
<text text-anchor="start" x="870" y="-446.9" font-family="Helvetica,sans-Serif" font-size="12.00">JKQTBarchartSpecificStyle</text>
<text text-anchor="middle" x="948.5" y="-433.9" font-family="Helvetica,sans-Serif" font-size="12.00">Properties</text>
</a>
</g>
</g>
<!-- Node15&#45;&gt;Node17 -->
<g id="edge19" class="edge">
<title>Node15&#45;&gt;Node17</title>
<path fill="none" stroke="#63b8ff" d="M579.07,-389.8C604.4,-394.31 633.5,-399.33 660,-403.5 727.7,-414.15 804.61,-424.78 861.84,-432.39"/>
<polygon fill="#63b8ff" stroke="#63b8ff" points="579.66,-386.35 569.2,-388.04 578.43,-393.24 579.66,-386.35"/>
</g>
<!-- Node18 -->
<g id="node18" class="node">
<title>Node18</title>
<g id="a_node18"><a xlink:href="class_j_k_q_t_impulse_specific_style_properties.html" target="_top" xlink:title="Support Class for JKQTBasePlotter, which summarizes all properties that define the visual styling of ...">
<polygon fill="white" stroke="#666666" points="1032.5,-322.5 864.5,-322.5 864.5,-288.5 1032.5,-288.5 1032.5,-322.5"/>
<text text-anchor="start" x="872.5" y="-308.9" font-family="Helvetica,sans-Serif" font-size="12.00">JKQTImpulseSpecificStyle</text>
<text text-anchor="middle" x="948.5" y="-295.9" font-family="Helvetica,sans-Serif" font-size="12.00">Properties</text>
</a>
</g>
</g>
<!-- Node15&#45;&gt;Node18 -->
<g id="edge21" class="edge">
<title>Node15&#45;&gt;Node18</title>
<path fill="none" stroke="#63b8ff" d="M580.76,-365.2C605.7,-360.79 634.11,-355.85 660,-351.5 728.79,-339.95 806.96,-327.49 864.41,-318.45"/>
<polygon fill="#63b8ff" stroke="#63b8ff" points="579.9,-361.79 570.66,-366.98 581.12,-368.69 579.9,-361.79"/>
</g>
<!-- Node19 -->
<g id="node19" class="node">
<title>Node19</title>
<g id="a_node19"><a xlink:href="class_j_k_q_t_geometric_specific_style_properties.html" target="_top" xlink:title="Support Class for JKQTBasePlotter, which summarizes all properties that define the visual styling of ...">
<polygon fill="white" stroke="#666666" points="844,-394.5 660,-394.5 660,-360.5 844,-360.5 844,-394.5"/>
<text text-anchor="start" x="668" y="-380.9" font-family="Helvetica,sans-Serif" font-size="12.00">JKQTGeometricSpecificStyle</text>
<text text-anchor="middle" x="752" y="-367.9" font-family="Helvetica,sans-Serif" font-size="12.00">Properties</text>
</a>
</g>
</g>
<!-- Node15&#45;&gt;Node19 -->
<g id="edge23" class="edge">
<title>Node15&#45;&gt;Node19</title>
<path fill="none" stroke="#63b8ff" d="M633.22,-377.5C642.18,-377.5 651.14,-377.5 659.87,-377.5"/>
<polygon fill="#63b8ff" stroke="#63b8ff" points="633.1,-374 623.1,-377.5 633.1,-381 633.1,-374"/>
</g>
<!-- Node16 -->
<g id="node16" class="node">
<title>Node16</title>
<g id="a_node16"><a xlink:href="struct_j_k_q_t_p_color_derivation_mode.html" target="_top" xlink:title="Specifies how a fill&#45;color is derived from a given color.">
<polygon fill="white" stroke="#666666" points="179,-164 0,-164 0,-143 179,-143 179,-164"/>
<text text-anchor="middle" x="89.5" y="-150.4" font-family="Helvetica,sans-Serif" font-size="12.00">JKQTPColorDerivationMode</text>
</a>
</g>
</g>
<!-- Node16&#45;&gt;Node2 -->
<g id="edge52" class="edge">
<title>Node16&#45;&gt;Node2</title>
<path fill="none" stroke="#9a32cd" stroke-dasharray="5,2" d="M189.41,-147.6C274.39,-143.04 400.22,-137.5 510,-137.5 510,-137.5 510,-137.5 3041,-137.5 3127.31,-137.5 3226.71,-120.55 3284.44,-109"/>
<polygon fill="#9a32cd" stroke="#9a32cd" points="189.05,-144.11 179.26,-148.15 189.43,-151.1 189.05,-144.11"/>
<text text-anchor="start" x="1906" y="-153.9" font-family="Helvetica,sans-Serif" font-size="12.00"> m_lineColorDerivationMode</text>
<text text-anchor="middle" x="1990.5" y="-140.9" font-family="Helvetica,sans-Serif" font-size="12.00">ForSpecialFill</text>
</g>
<!-- Node16&#45;&gt;Node15 -->
<g id="edge17" class="edge">
<title>Node16&#45;&gt;Node15</title>
<path fill="none" stroke="#9a32cd" stroke-dasharray="5,2" d="M119.16,-168.8C198.84,-211.35 421.65,-330.32 489.88,-366.76"/>
<polygon fill="#9a32cd" stroke="#9a32cd" points="120.64,-165.63 110.17,-164 117.34,-171.8 120.64,-165.63"/>
<text text-anchor="middle" x="289" y="-359.9" font-family="Helvetica,sans-Serif" font-size="12.00"> errorColorDerivationMode</text>
<text text-anchor="middle" x="289" y="-346.9" font-family="Helvetica,sans-Serif" font-size="12.00">errorFillColorDerivationMode</text>
<text text-anchor="middle" x="289" y="-333.9" font-family="Helvetica,sans-Serif" font-size="12.00">fillColorDerivationMode</text>
<text text-anchor="middle" x="289" y="-320.9" font-family="Helvetica,sans-Serif" font-size="12.00">graphColorDerivationMode</text>
<text text-anchor="middle" x="289" y="-307.9" font-family="Helvetica,sans-Serif" font-size="12.00">symbolFillColorDerivationMode</text>
</g>
<!-- Node17&#45;&gt;Node14 -->
<g id="edge18" class="edge">
<title>Node17&#45;&gt;Node14</title>
<path fill="none" stroke="#9a32cd" stroke-dasharray="5,2" d="M1045.54,-437.09C1128.83,-431.17 1252.55,-421.48 1360,-409.5 1374.1,-407.93 1389.15,-406 1403.54,-404.03"/>
<polygon fill="#9a32cd" stroke="#9a32cd" points="1045.06,-433.62 1035.34,-437.82 1045.56,-440.6 1045.06,-433.62"/>
<text text-anchor="middle" x="1148.5" y="-439.9" font-family="Helvetica,sans-Serif" font-size="12.00"> barchartStyle</text>
</g>
<!-- Node18&#45;&gt;Node14 -->
<g id="edge20" class="edge">
<title>Node18&#45;&gt;Node14</title>
<path fill="none" stroke="#9a32cd" stroke-dasharray="5,2" d="M1042.55,-303.62C1046.08,-303.57 1049.57,-303.53 1053,-303.5 1137.88,-302.68 1160.62,-287.57 1244,-303.5 1298.48,-313.91 1315.23,-316.77 1360,-349.5 1370.2,-356.96 1367.26,-364.84 1378,-371.5 1385.7,-376.28 1394.33,-380.02 1403.17,-382.95"/>
<polygon fill="#9a32cd" stroke="#9a32cd" points="1042.49,-300.12 1032.54,-303.75 1042.59,-307.12 1042.49,-300.12"/>
<text text-anchor="middle" x="1148.5" y="-306.9" font-family="Helvetica,sans-Serif" font-size="12.00"> impulseStyle</text>
</g>
<!-- Node19&#45;&gt;Node14 -->
<g id="edge22" class="edge">
<title>Node19&#45;&gt;Node14</title>
<path fill="none" stroke="#9a32cd" stroke-dasharray="5,2" d="M854.74,-379.76C1002.5,-383.04 1272.9,-389.04 1401.86,-391.9"/>
<polygon fill="#9a32cd" stroke="#9a32cd" points="854.39,-376.25 844.32,-379.53 854.24,-383.25 854.39,-376.25"/>
<text text-anchor="middle" x="1148.5" y="-390.9" font-family="Helvetica,sans-Serif" font-size="12.00"> geometricStyle</text>
</g>
<!-- Node20 -->
<g id="node20" class="node">
<title>Node20</title>
<g id="a_node20"><a xlink:href="class_j_k_q_t_annotations_specific_style_properties.html" target="_top" xlink:title="Support Class for JKQTBasePlotter, which summarizes all properties that define the visual styling of ...">
<polygon fill="white" stroke="#666666" points="1244,-359.5 1053,-359.5 1053,-325.5 1244,-325.5 1244,-359.5"/>
<text text-anchor="start" x="1061" y="-345.9" font-family="Helvetica,sans-Serif" font-size="12.00">JKQTAnnotationsSpecificStyle</text>
<text text-anchor="middle" x="1148.5" y="-332.9" font-family="Helvetica,sans-Serif" font-size="12.00">Properties</text>
</a>
</g>
</g>
<!-- Node19&#45;&gt;Node20 -->
<g id="edge25" class="edge">
<title>Node19&#45;&gt;Node20</title>
<path fill="none" stroke="#63b8ff" d="M854.07,-368.53C915.27,-363.1 992.83,-356.22 1052.84,-350.9"/>
<polygon fill="#63b8ff" stroke="#63b8ff" points="853.65,-365.06 844,-369.43 854.27,-372.03 853.65,-365.06"/>
</g>
<!-- Node20&#45;&gt;Node14 -->
<g id="edge24" class="edge">
<title>Node20&#45;&gt;Node14</title>
<path fill="none" stroke="#9a32cd" stroke-dasharray="5,2" d="M1254.44,-353.52C1288.24,-357.58 1325.79,-362.65 1360,-368.5 1383.47,-372.51 1409.41,-378.11 1430.61,-382.99"/>
<polygon fill="#9a32cd" stroke="#9a32cd" points="1254.42,-349.99 1244.08,-352.29 1253.6,-356.94 1254.42,-349.99"/>
<text text-anchor="middle" x="1311" y="-371.9" font-family="Helvetica,sans-Serif" font-size="12.00"> annotationStyle</text>
</g>
<!-- Node21&#45;&gt;Node8 -->
<g id="edge26" class="edge">
<title>Node21&#45;&gt;Node8</title>
<path fill="none" stroke="#9a32cd" stroke-dasharray="5,2" d="M1861.85,-512.99C1930.9,-491.69 2058,-451.29 2075,-437.5 2087.08,-427.7 2083.45,-419.77 2093,-407.5 2111.24,-384.05 2136.57,-360.25 2151.38,-347.03"/>
<polygon fill="#9a32cd" stroke="#9a32cd" points="1860.63,-509.7 1852.1,-515.99 1862.69,-516.39 1860.63,-509.7"/>
<text text-anchor="middle" x="1990.5" y="-500.9" font-family="Helvetica,sans-Serif" font-size="12.00"> mathText</text>
</g>
<!-- Node22 -->
<g id="node22" class="node">
<title>Node22</title>
<g id="a_node22"><a xlink:href="class_j_k_q_t_math_text_node.html" target="_top" xlink:title="subclass representing one node in the syntax tree">
<polygon fill="white" stroke="#666666" points="2230,-554 2099,-554 2099,-533 2230,-533 2230,-554"/>
<text text-anchor="middle" x="2164.5" y="-540.4" font-family="Helvetica,sans-Serif" font-size="12.00">JKQTMathTextNode</text>
</a>
</g>
</g>
<!-- Node21&#45;&gt;Node22 -->
<g id="edge29" class="edge">
<title>Node21&#45;&gt;Node22</title>
<path fill="none" stroke="#9a32cd" stroke-dasharray="5,2" d="M1876.28,-534.64C1886.19,-535.78 1896.37,-536.79 1906,-537.5 1971.56,-542.33 2046.73,-543.59 2098.86,-543.79"/>
<polygon fill="#9a32cd" stroke="#9a32cd" points="1876.45,-531.14 1866.1,-533.43 1875.62,-538.09 1876.45,-531.14"/>
<text text-anchor="middle" x="1990.5" y="-546.9" font-family="Helvetica,sans-Serif" font-size="12.00"> parentMathText</text>
</g>
<!-- Node22&#45;&gt;Node21 -->
<g id="edge28" class="edge">
<title>Node22&#45;&gt;Node21</title>
<path fill="none" stroke="#9a32cd" stroke-dasharray="5,2" d="M2113.48,-530.84C2100.99,-528.21 2087.58,-525.83 2075,-524.5 2002.54,-516.81 1917.96,-519.72 1866.07,-522.85"/>
<polygon fill="#9a32cd" stroke="#9a32cd" points="2112.74,-534.26 2123.26,-532.98 2114.24,-527.42 2112.74,-534.26"/>
<text text-anchor="middle" x="1990.5" y="-527.9" font-family="Helvetica,sans-Serif" font-size="12.00"> parsedNode</text>
</g>
<!-- Node22&#45;&gt;Node22 -->
<g id="edge30" class="edge">
<title>Node22&#45;&gt;Node22</title>
<path fill="none" stroke="#9a32cd" stroke-dasharray="5,2" d="M2137.59,-563.57C2139.67,-568.41 2148.64,-572 2164.5,-572 2189.88,-572 2197.61,-562.81 2187.7,-554.02"/>
<polygon fill="#9a32cd" stroke="#9a32cd" points="2140.95,-564.61 2141.3,-554.02 2134.42,-562.08 2140.95,-564.61"/>
<text text-anchor="middle" x="2164.5" y="-575.4" font-family="Helvetica,sans-Serif" font-size="12.00"> parentNode</text>
</g>
<!-- Node23&#45;&gt;Node8 -->
<g id="edge31" class="edge">
<title>Node23&#45;&gt;Node8</title>
<path fill="none" stroke="#9a32cd" stroke-dasharray="5,2" d="M2448.98,-384.94C2425.09,-377.73 2394.61,-369.2 2367,-363.5 2318.43,-353.47 2262.48,-346.32 2221.88,-341.9"/>
<polygon fill="#9a32cd" stroke="#9a32cd" points="2448.2,-388.36 2458.78,-387.94 2450.24,-381.67 2448.2,-388.36"/>
<text text-anchor="middle" x="2310.5" y="-366.9" font-family="Helvetica,sans-Serif" font-size="12.00"> m_plotsModel</text>
</g>
<!-- Node24 -->
<g id="node24" class="node">
<title>Node24</title>
<g id="a_node24"><a xlink:title=" ">
<polygon fill="white" stroke="#666666" points="2236,-437 2093,-437 2093,-416 2236,-416 2236,-437"/>
<text text-anchor="middle" x="2164.5" y="-423.4" font-family="Helvetica,sans-Serif" font-size="12.00">QAbstractTableModel</text>
</a>
</g>
</g>
<!-- Node24&#45;&gt;Node23 -->
<g id="edge32" class="edge">
<title>Node24&#45;&gt;Node23</title>
<path fill="none" stroke="#63b8ff" d="M2246.6,-421.66C2283.39,-419.26 2327.42,-416.1 2367,-412.5 2386.5,-410.73 2407.67,-408.47 2426.94,-406.29"/>
<polygon fill="#63b8ff" stroke="#63b8ff" points="2246.18,-418.18 2236.43,-422.31 2246.64,-425.16 2246.18,-418.18"/>
</g>
<!-- Node25 -->
<g id="node25" class="node">
<title>Node25</title>
<g id="a_node25"><a xlink:href="class_j_k_q_t_p_horizontal_axis.html" target="_top" xlink:title="implements a horizontal axis, based on JKQTPCoordinateAxis (for most of documentation: see JKQTPCoord...">
<polygon fill="white" stroke="#666666" points="2774,-273 2637,-273 2637,-252 2774,-252 2774,-273"/>
<text text-anchor="middle" x="2705.5" y="-259.4" font-family="Helvetica,sans-Serif" font-size="12.00">JKQTPHorizontalAxis</text>
</a>
</g>
</g>
<!-- Node25&#45;&gt;Node8 -->
<g id="edge34" class="edge">
<title>Node25&#45;&gt;Node8</title>
<path fill="none" stroke="#9a32cd" stroke-dasharray="5,2" d="M2626.73,-272.82C2562.03,-281.45 2467.5,-294.12 2385,-305.5 2329.53,-313.15 2266.21,-322.12 2221.88,-328.43"/>
<polygon fill="#9a32cd" stroke="#9a32cd" points="2627.41,-276.26 2636.86,-271.47 2626.48,-269.32 2627.41,-276.26"/>
<text text-anchor="middle" x="2492.5" y="-308.9" font-family="Helvetica,sans-Serif" font-size="12.00"> xAxis</text>
</g>
<!-- Node26&#45;&gt;Node25 -->
<g id="edge35" class="edge">
<title>Node26&#45;&gt;Node25</title>
<path fill="none" stroke="#63b8ff" d="M2573.81,-250.73C2594.55,-252.6 2616.67,-254.59 2636.7,-256.39"/>
<polygon fill="#63b8ff" stroke="#63b8ff" points="2574.03,-247.24 2563.76,-249.83 2573.41,-254.21 2574.03,-247.24"/>
</g>
<!-- Node27 -->
<g id="node27" class="node">
<title>Node27</title>
<g id="a_node27"><a xlink:href="class_j_k_q_t_p_vertical_axis.html" target="_top" xlink:title="implements a vertical axis, based on JKQTPCoordinateAxis (for most of documentation: see JKQTPCoordin...">
<polygon fill="white" stroke="#666666" points="2766.5,-330 2644.5,-330 2644.5,-309 2766.5,-309 2766.5,-330"/>
<text text-anchor="middle" x="2705.5" y="-316.4" font-family="Helvetica,sans-Serif" font-size="12.00">JKQTPVerticalAxis</text>
</a>
</g>
</g>
<!-- Node26&#45;&gt;Node27 -->
<g id="edge40" class="edge">
<title>Node26&#45;&gt;Node27</title>
<path fill="none" stroke="#63b8ff" d="M2558.81,-256.4C2572.58,-259.79 2586.9,-263.83 2600,-268.5 2631.38,-279.68 2665.72,-297.64 2686.17,-308.99"/>
<polygon fill="#63b8ff" stroke="#63b8ff" points="2559.44,-252.95 2548.91,-254.04 2557.82,-259.76 2559.44,-252.95"/>
</g>
<!-- Node27&#45;&gt;Node8 -->
<g id="edge39" class="edge">
<title>Node27&#45;&gt;Node8</title>
<path fill="none" stroke="#9a32cd" stroke-dasharray="5,2" d="M2634.2,-321.72C2525.96,-325.13 2320.65,-331.61 2221.66,-334.73"/>
<polygon fill="#9a32cd" stroke="#9a32cd" points="2634.49,-325.21 2644.37,-321.4 2634.26,-318.21 2634.49,-325.21"/>
<text text-anchor="middle" x="2492.5" y="-332.9" font-family="Helvetica,sans-Serif" font-size="12.00"> yAxis</text>
</g>
<!-- Node28 -->
<g id="node28" class="node">
<title>Node28</title>
<g id="a_node28"><a xlink:href="class_j_k_q_t_p_datastore.html" target="_top" xlink:title="This class manages data columns (with entries of type double ), used by JKQTPlotter/JKQTBasePlotter t...">
<polygon fill="white" stroke="#666666" points="1872,-107 1761,-107 1761,-86 1872,-86 1872,-107"/>
<text text-anchor="middle" x="1816.5" y="-93.4" font-family="Helvetica,sans-Serif" font-size="12.00">JKQTPDatastore</text>
</a>
</g>
</g>
<!-- Node28&#45;&gt;Node8 -->
<g id="edge41" class="edge">
<title>Node28&#45;&gt;Node8</title>
<path fill="none" stroke="#9a32cd" stroke-dasharray="5,2" d="M1838.78,-113.48C1856.52,-127.49 1882.59,-147.71 1906,-164.5 1994.91,-228.25 2105.18,-299.33 2146.67,-325.81"/>
<polygon fill="#9a32cd" stroke="#9a32cd" points="1840.8,-110.62 1830.79,-107.15 1836.45,-116.1 1840.8,-110.62"/>
<text text-anchor="middle" x="1990.5" y="-279.9" font-family="Helvetica,sans-Serif" font-size="12.00"> datastore</text>
</g>
<!-- Node30 -->
<g id="node30" class="node">
<title>Node30</title>
<g id="a_node30"><a xlink:href="class_j_k_q_t_p_column.html" target="_top" xlink:title="internally stores information about one data column. See JKQTPDatastore for more information.">
<polygon fill="white" stroke="#666666" points="2213.5,-60 2115.5,-60 2115.5,-39 2213.5,-39 2213.5,-60"/>
<text text-anchor="middle" x="2164.5" y="-46.4" font-family="Helvetica,sans-Serif" font-size="12.00">JKQTPColumn</text>
</a>
</g>
</g>
<!-- Node28&#45;&gt;Node30 -->
<g id="edge44" class="edge">
<title>Node28&#45;&gt;Node30</title>
<path fill="none" stroke="#9a32cd" stroke-dasharray="5,2" d="M1855.89,-82.79C1871.28,-77.82 1889.3,-72.66 1906,-69.5 1978.04,-55.88 2063.09,-51.5 2115.15,-50.11"/>
<polygon fill="#9a32cd" stroke="#9a32cd" points="1854.59,-79.53 1846.2,-86 1856.79,-86.17 1854.59,-79.53"/>
<text text-anchor="middle" x="1990.5" y="-72.9" font-family="Helvetica,sans-Serif" font-size="12.00"> datastore</text>
</g>
<!-- Node29 -->
<g id="node29" class="node">
<title>Node29</title>
<g id="a_node29"><a xlink:title=" ">
<polygon fill="white" stroke="#666666" points="2600,-60 2385,-60 2385,-39 2600,-39 2600,-60"/>
<text text-anchor="middle" x="2492.5" y="-46.4" font-family="Helvetica,sans-Serif" font-size="12.00">std::unique_ptr&lt; JKQTPColumn &gt;</text>
</a>
</g>
</g>
<!-- Node29&#45;&gt;Node28 -->
<g id="edge42" class="edge">
<title>Node29&#45;&gt;Node28</title>
<path fill="none" stroke="#9a32cd" stroke-dasharray="5,2" d="M2411.66,-61.38C2396.84,-63.3 2381.47,-65.12 2367,-66.5 2186.29,-83.76 1971.14,-91.92 1872.21,-94.99"/>
<polygon fill="#9a32cd" stroke="#9a32cd" points="2412.37,-64.81 2421.82,-60.03 2411.44,-57.87 2412.37,-64.81"/>
<text text-anchor="middle" x="2164.5" y="-87.9" font-family="Helvetica,sans-Serif" font-size="12.00"> m_invalidColumn</text>
</g>
<!-- Node30&#45;&gt;Node29 -->
<g id="edge43" class="edge">
<title>Node30&#45;&gt;Node29</title>
<path fill="none" stroke="#9a32cd" stroke-dasharray="5,2" d="M2223.69,-49.5C2268.35,-49.5 2331.24,-49.5 2384.85,-49.5"/>
<polygon fill="#9a32cd" stroke="#9a32cd" points="2223.6,-46 2213.6,-49.5 2223.6,-53 2223.6,-46"/>
<text text-anchor="middle" x="2310.5" y="-52.9" font-family="Helvetica,sans-Serif" font-size="12.00"> ptr</text>
</g>
<!-- Node31 -->
<g id="node31" class="node">
<title>Node31</title>
<g id="a_node31"><a xlink:title=" ">
<polygon fill="white" stroke="#666666" points="2234.5,-21 2094.5,-21 2094.5,0 2234.5,0 2234.5,-21"/>
<text text-anchor="middle" x="2164.5" y="-7.4" font-family="Helvetica,sans-Serif" font-size="12.00">std::unique_ptr&lt; T &gt;</text>
</a>
</g>
</g>
<!-- Node31&#45;&gt;Node29 -->
<g id="edge45" class="edge">
<title>Node31&#45;&gt;Node29</title>
<path fill="none" stroke="orange" stroke-dasharray="5,2" d="M2244.82,-18.66C2281.96,-22.61 2326.77,-27.56 2367,-32.5 2383.13,-34.48 2400.42,-36.75 2416.82,-38.97"/>
<polygon fill="orange" stroke="orange" points="2244.88,-15.15 2234.56,-17.58 2244.14,-22.11 2244.88,-15.15"/>
<text text-anchor="middle" x="2310.5" y="-35.9" font-family="Helvetica,sans-Serif" font-size="12.00"> &lt; JKQTPColumn &gt;</text>
</g>
<!-- Node32 -->
<g id="node32" class="node">
<title>Node32</title>
<g id="a_node32"><a xlink:title=" ">
<polygon fill="white" stroke="#666666" points="1831,-21 1802,-21 1802,0 1831,0 1831,-21"/>
<text text-anchor="middle" x="1816.5" y="-7.4" font-family="Helvetica,sans-Serif" font-size="12.00">T</text>
</a>
</g>
</g>
<!-- Node32&#45;&gt;Node31 -->
<g id="edge46" class="edge">
<title>Node32&#45;&gt;Node31</title>
<path fill="none" stroke="#9a32cd" stroke-dasharray="5,2" d="M1841.16,-10.5C1892.51,-10.5 2015.87,-10.5 2094.23,-10.5"/>
<polygon fill="#9a32cd" stroke="#9a32cd" points="1841.06,-7 1831.06,-10.5 1841.06,-14 1841.06,-7"/>
<text text-anchor="middle" x="1990.5" y="-13.9" font-family="Helvetica,sans-Serif" font-size="12.00"> ptr</text>
</g>
<!-- Node33 -->
<g id="node33" class="node">
<title>Node33</title>
<g id="a_node33"><a xlink:href="class_j_k_q_t_p_graph_line_style_mixin.html" target="_top" xlink:title="This Mix&#45;In class provides setter/getter methods, storage and other facilities for the graph line sty...">
<polygon fill="white" stroke="#666666" points="3127,-105 2953,-105 2953,-84 3127,-84 3127,-105"/>
<text text-anchor="middle" x="3040" y="-91.4" font-family="Helvetica,sans-Serif" font-size="12.00">JKQTPGraphLineStyleMixin</text>
</a>
</g>
</g>
<!-- Node33&#45;&gt;Node2 -->
<g id="edge48" class="edge">
<title>Node33&#45;&gt;Node2</title>
<path fill="none" stroke="#63b8ff" d="M3137.32,-98.34C3139.91,-98.4 3142.47,-98.45 3145,-98.5 3184.32,-99.26 3228.28,-99.3 3263.8,-99.14"/>
<polygon fill="#63b8ff" stroke="#63b8ff" points="3137.34,-94.83 3127.25,-98.07 3137.16,-101.83 3137.34,-94.83"/>
</g>
<!-- Node33&#45;&gt;Node2 -->
<g id="edge50" class="edge">
<title>Node33&#45;&gt;Node2</title>
<path fill="none" stroke="#9a32cd" stroke-dasharray="5,2" d="M3126.28,-83.01C3163.14,-79.61 3206.74,-77.7 3246,-81.5 3259.63,-82.82 3274.3,-85.28 3287.64,-87.92"/>
<polygon fill="#9a32cd" stroke="#9a32cd" points="3125.68,-79.55 3116.07,-84 3126.36,-86.51 3125.68,-79.55"/>
<text text-anchor="middle" x="3195.5" y="-84.9" font-family="Helvetica,sans-Serif" font-size="12.00"> m_baselineStyle</text>
</g>
<!-- Node34 -->
<g id="node34" class="node">
<title>Node34</title>
<g id="a_node34"><a xlink:href="class_j_k_q_t_p_graph_fill_style_mixin.html" target="_top" xlink:title="This Mix&#45;In class provides setter/getter methods, storage and other facilities for the graph filling ...">
<polygon fill="white" stroke="#666666" points="3122,-48 2958,-48 2958,-27 3122,-27 3122,-48"/>
<text text-anchor="middle" x="3040" y="-34.4" font-family="Helvetica,sans-Serif" font-size="12.00">JKQTPGraphFillStyleMixin</text>
</a>
</g>
</g>
<!-- Node34&#45;&gt;Node2 -->
<g id="edge49" class="edge">
<title>Node34&#45;&gt;Node2</title>
<path fill="none" stroke="#63b8ff" d="M3118.36,-49.76C3156.89,-56.3 3204.08,-64.96 3246,-74.5 3263.11,-78.4 3281.9,-83.48 3297.63,-87.96"/>
<polygon fill="#63b8ff" stroke="#63b8ff" points="3118.69,-46.27 3108.25,-48.06 3117.53,-53.17 3118.69,-46.27"/>
</g>
<!-- Node34&#45;&gt;Node2 -->
<g id="edge51" class="edge">
<title>Node34&#45;&gt;Node2</title>
<path fill="none" stroke="#9a32cd" stroke-dasharray="5,2" d="M3123.79,-26.27C3161.84,-23.93 3207.06,-25.21 3246,-37.5 3277.49,-47.44 3307.48,-73.3 3322.67,-87.96"/>
<polygon fill="#9a32cd" stroke="#9a32cd" points="3123.5,-22.78 3113.78,-26.98 3124,-29.77 3123.5,-22.78"/>
<text text-anchor="middle" x="3195.5" y="-40.9" font-family="Helvetica,sans-Serif" font-size="12.00"> m_fillStyleBelow</text>
</g>
</g>
</svg>
