<?xml version="1.0" encoding="UTF-8" standalone="no"?>
<!DOCTYPE svg PUBLIC "-//W3C//DTD SVG 1.1//EN"
 "http://www.w3.org/Graphics/SVG/1.1/DTD/svg11.dtd">
<!-- Generated by graphviz version 2.43.0 (0)
 -->
<!-- Title: JKQTBasePlotterStyle Pages: 1 -->
<svg width="1995pt" height="378pt"
 viewBox="0.00 0.00 1995.00 378.25" xmlns="http://www.w3.org/2000/svg" xmlns:xlink="http://www.w3.org/1999/xlink">
<g id="graph0" class="graph" transform="scale(1 1) rotate(0) translate(4 374.25)">
<title>JKQTBasePlotterStyle</title>
<!-- Node1 -->
<g id="Node000001" class="node">
<title>Node1</title>
<g id="a_Node000001"><a xlink:title="Support Class for JKQTBasePlotter, which summarizes all properties that define the visual styling of ...">
<polygon fill="#999999" stroke="#666666" points="1987,-294.25 1844,-294.25 1844,-273.25 1987,-273.25 1987,-294.25"/>
<text text-anchor="middle" x="1915.5" y="-280.65" font-family="Helvetica,sans-Serif" font-size="12.00">JKQTBasePlotterStyle</text>
</a>
</g>
</g>
<!-- Node2 -->
<g id="Node000002" class="node">
<title>Node2</title>
<g id="a_Node000002"><a xlink:href="class_j_k_q_t_p_key_style.html" target="_top" xlink:title="Support Class for JKQTBasePlotter, which summarizes all properties that define the visual styling of ...">
<polygon fill="white" stroke="#666666" points="1626,-370.25 1522,-370.25 1522,-349.25 1626,-349.25 1626,-370.25"/>
<text text-anchor="middle" x="1574" y="-356.65" font-family="Helvetica,sans-Serif" font-size="12.00">JKQTPKeyStyle</text>
</a>
</g>
</g>
<!-- Node2&#45;&gt;Node1 -->
<g id="edge1_Node000001_Node000002" class="edge">
<title>Node2&#45;&gt;Node1</title>
<g id="a_edge1_Node000001_Node000002"><a xlink:title=" ">
<path fill="none" stroke="#9a32cd" stroke-dasharray="5,2" d="M1636.11,-353.49C1687.42,-347.35 1762.36,-336.31 1826,-318.75 1848.94,-312.42 1874.07,-302.14 1891.67,-294.35"/>
<polygon fill="#9a32cd" stroke="#9a32cd" points="1635.69,-350.01 1626.17,-354.65 1636.51,-356.96 1635.69,-350.01"/>
</a>
</g>
<text text-anchor="middle" x="1757.5" y="-349.15" font-family="Helvetica,sans-Serif" font-size="12.00" fill="grey"> keyStyle</text>
</g>
<!-- Node3 -->
<g id="Node000003" class="node">
<title>Node3</title>
<g id="a_Node000003"><a xlink:href="class_j_k_q_t_p_coordinate_axis_style.html" target="_top" xlink:title="Support Class for JKQTPCoordinateAxis, which summarizes all properties that define the visual styling...">
<polygon fill="white" stroke="#666666" points="1333,-315.25 1162,-315.25 1162,-294.25 1333,-294.25 1333,-315.25"/>
<text text-anchor="middle" x="1247.5" y="-301.65" font-family="Helvetica,sans-Serif" font-size="12.00">JKQTPCoordinateAxisStyle</text>
</a>
</g>
</g>
<!-- Node3&#45;&gt;Node1 -->
<g id="edge2_Node000001_Node000003" class="edge">
<title>Node3&#45;&gt;Node1</title>
<g id="a_edge2_Node000001_Node000003"><a xlink:title=" ">
<path fill="none" stroke="#9a32cd" stroke-dasharray="5,2" d="M1343.33,-304.04C1457.8,-302.82 1656.1,-299.52 1826,-290.75 1831.85,-290.45 1837.91,-290.08 1844,-289.68"/>
<polygon fill="#9a32cd" stroke="#9a32cd" points="1343.16,-300.54 1333.2,-304.14 1343.24,-307.54 1343.16,-300.54"/>
</a>
</g>
<text text-anchor="middle" x="1574" y="-318.15" font-family="Helvetica,sans-Serif" font-size="12.00" fill="grey"> xAxisStyle</text>
<text text-anchor="middle" x="1574" y="-305.15" font-family="Helvetica,sans-Serif" font-size="12.00" fill="grey">yAxisStyle</text>
</g>
<!-- Node5 -->
<g id="Node000005" class="node">
<title>Node5</title>
<g id="a_Node000005"><a xlink:href="class_j_k_q_t_p_colorbar_coordinate_axis_style.html" target="_top" xlink:title="Support Class for JKQTPCoordinateAxis, which summarizes all properties that define the visual styling...">
<polygon fill="white" stroke="#666666" points="1671,-268.75 1477,-268.75 1477,-234.75 1671,-234.75 1671,-268.75"/>
<text text-anchor="start" x="1485" y="-255.15" font-family="Helvetica,sans-Serif" font-size="12.00">JKQTPColorbarCoordinateAxis</text>
<text text-anchor="middle" x="1574" y="-242.15" font-family="Helvetica,sans-Serif" font-size="12.00">Style</text>
</a>
</g>
</g>
<!-- Node3&#45;&gt;Node5 -->
<g id="edge5_Node000005_Node000003" class="edge">
<title>Node3&#45;&gt;Node5</title>
<g id="a_edge5_Node000005_Node000003"><a xlink:title=" ">
<path fill="none" stroke="#63b8ff" d="M1323.13,-292.56C1368.83,-285.1 1427.77,-275.47 1476.93,-267.44"/>
<polygon fill="#63b8ff" stroke="#63b8ff" points="1322.3,-289.15 1313,-294.22 1323.43,-296.06 1322.3,-289.15"/>
</a>
</g>
</g>
<!-- Node4 -->
<g id="Node000004" class="node">
<title>Node4</title>
<g id="a_Node000004"><a xlink:href="class_j_k_q_t_p_grid_style.html" target="_top" xlink:title="Support Class for JKQTPCoordinateAxis, and summarizes all properties that define the visual styling o...">
<polygon fill="white" stroke="#666666" points="904.5,-318.25 797.5,-318.25 797.5,-297.25 904.5,-297.25 904.5,-318.25"/>
<text text-anchor="middle" x="851" y="-304.65" font-family="Helvetica,sans-Serif" font-size="12.00">JKQTPGridStyle</text>
</a>
</g>
</g>
<!-- Node4&#45;&gt;Node3 -->
<g id="edge3_Node000003_Node000004" class="edge">
<title>Node4&#45;&gt;Node3</title>
<g id="a_edge3_Node000003_Node000004"><a xlink:title=" ">
<path fill="none" stroke="#9a32cd" stroke-dasharray="5,2" d="M915.18,-307.27C982.03,-306.76 1087.9,-305.96 1161.92,-305.39"/>
<polygon fill="#9a32cd" stroke="#9a32cd" points="914.77,-303.77 904.79,-307.35 914.82,-310.77 914.77,-303.77"/>
</a>
</g>
<text text-anchor="middle" x="1047.5" y="-323.15" font-family="Helvetica,sans-Serif" font-size="12.00" fill="grey"> majorGridStyle</text>
<text text-anchor="middle" x="1047.5" y="-310.15" font-family="Helvetica,sans-Serif" font-size="12.00" fill="grey">minorGridStyle</text>
</g>
<!-- Node5&#45;&gt;Node1 -->
<g id="edge4_Node000001_Node000005" class="edge">
<title>Node5&#45;&gt;Node1</title>
<g id="a_edge4_Node000001_Node000005"><a xlink:title=" ">
<path fill="none" stroke="#9a32cd" stroke-dasharray="5,2" d="M1681.3,-253.5C1726.12,-255.21 1778.75,-258.49 1826,-264.75 1841.11,-266.75 1857.48,-269.96 1871.98,-273.18"/>
<polygon fill="#9a32cd" stroke="#9a32cd" points="1681.4,-250 1671.28,-253.14 1681.14,-257 1681.4,-250"/>
</a>
</g>
<text text-anchor="middle" x="1757.5" y="-281.15" font-family="Helvetica,sans-Serif" font-size="12.00" fill="grey"> rightColorbarAxisStyle</text>
<text text-anchor="middle" x="1757.5" y="-268.15" font-family="Helvetica,sans-Serif" font-size="12.00" fill="grey">topColorbarAxisStyle</text>
</g>
<!-- Node6 -->
<g id="Node000006" class="node">
<title>Node6</title>
<g id="a_Node000006"><a xlink:href="class_j_k_q_t_graphs_base_style.html" target="_top" xlink:title="Support Class for JKQTBasePlotter, which summarizes all properties that define the visual styling of ...">
<polygon fill="white" stroke="#666666" points="1647,-166.25 1501,-166.25 1501,-145.25 1647,-145.25 1647,-166.25"/>
<text text-anchor="middle" x="1574" y="-152.65" font-family="Helvetica,sans-Serif" font-size="12.00">JKQTGraphsBaseStyle</text>
</a>
</g>
</g>
<!-- Node6&#45;&gt;Node1 -->
<g id="edge6_Node000001_Node000006" class="edge">
<title>Node6&#45;&gt;Node1</title>
<g id="a_edge6_Node000001_Node000006"><a xlink:title=" ">
<path fill="none" stroke="#9a32cd" stroke-dasharray="5,2" d="M1624.75,-169C1676.08,-183.32 1758,-207.98 1826,-236.75 1851.32,-247.46 1879.09,-262.85 1896.65,-273.07"/>
<polygon fill="#9a32cd" stroke="#9a32cd" points="1625.48,-165.57 1614.91,-166.28 1623.61,-172.32 1625.48,-165.57"/>
</a>
</g>
<text text-anchor="middle" x="1757.5" y="-240.15" font-family="Helvetica,sans-Serif" font-size="12.00" fill="grey"> graphsStyle</text>
</g>
<!-- Node7 -->
<g id="Node000007" class="node">
<title>Node7</title>
<g id="a_Node000007"><a xlink:href="class_j_k_q_t_graphs_specific_style_properties.html" target="_top" xlink:title="Support Class for JKQTBasePlotter, which summarizes all properties that define the visual styling of ...">
<polygon fill="white" stroke="#666666" points="623,-156.25 399,-156.25 399,-135.25 623,-135.25 623,-156.25"/>
<text text-anchor="middle" x="511" y="-142.65" font-family="Helvetica,sans-Serif" font-size="12.00">JKQTGraphsSpecificStyleProperties</text>
</a>
</g>
</g>
<!-- Node7&#45;&gt;Node6 -->
<g id="edge7_Node000006_Node000007" class="edge">
<title>Node7&#45;&gt;Node6</title>
<g id="a_edge7_Node000006_Node000007"><a xlink:title=" ">
<path fill="none" stroke="#9a32cd" stroke-dasharray="5,2" d="M553.31,-159.33C578.43,-167.16 611.29,-176.62 641,-182.75 946.83,-245.82 1033.4,-252.44 1343,-211.75 1414.1,-202.4 1495.14,-179.78 1539.53,-166.32"/>
<polygon fill="#9a32cd" stroke="#9a32cd" points="554.33,-155.98 543.74,-156.31 552.22,-162.66 554.33,-155.98"/>
</a>
</g>
<text text-anchor="middle" x="1047.5" y="-266.15" font-family="Helvetica,sans-Serif" font-size="12.00" fill="grey"> boxplotStyle</text>
<text text-anchor="middle" x="1047.5" y="-253.15" font-family="Helvetica,sans-Serif" font-size="12.00" fill="grey">defaultGraphStyle</text>
<text text-anchor="middle" x="1047.5" y="-240.15" font-family="Helvetica,sans-Serif" font-size="12.00" fill="grey">filledStyle</text>
</g>
<!-- Node9 -->
<g id="Node000009" class="node">
<title>Node9</title>
<g id="a_Node000009"><a xlink:href="class_j_k_q_t_barchart_specific_style_properties.html" target="_top" xlink:title="Support Class for JKQTBasePlotter, which summarizes all properties that define the visual styling of ...">
<polygon fill="white" stroke="#666666" points="1134,-218.75 961,-218.75 961,-184.75 1134,-184.75 1134,-218.75"/>
<text text-anchor="start" x="969" y="-205.15" font-family="Helvetica,sans-Serif" font-size="12.00">JKQTBarchartSpecificStyle</text>
<text text-anchor="middle" x="1047.5" y="-192.15" font-family="Helvetica,sans-Serif" font-size="12.00">Properties</text>
</a>
</g>
</g>
<!-- Node7&#45;&gt;Node9 -->
<g id="edge10_Node000009_Node000007" class="edge">
<title>Node7&#45;&gt;Node9</title>
<g id="a_edge10_Node000009_Node000007"><a xlink:title=" ">
<path fill="none" stroke="#63b8ff" d="M593.48,-157.69C609.23,-159.83 625.62,-161.96 641,-163.75 751.26,-176.6 878.8,-187.98 960.95,-194.86"/>
<polygon fill="#63b8ff" stroke="#63b8ff" points="593.62,-154.17 583.23,-156.28 592.66,-161.11 593.62,-154.17"/>
</a>
</g>
</g>
<!-- Node10 -->
<g id="Node000010" class="node">
<title>Node10</title>
<g id="a_Node000010"><a xlink:href="class_j_k_q_t_impulse_specific_style_properties.html" target="_top" xlink:title="Support Class for JKQTBasePlotter, which summarizes all properties that define the visual styling of ...">
<polygon fill="white" stroke="#666666" points="1131.5,-174.75 963.5,-174.75 963.5,-140.75 1131.5,-140.75 1131.5,-174.75"/>
<text text-anchor="start" x="971.5" y="-161.15" font-family="Helvetica,sans-Serif" font-size="12.00">JKQTImpulseSpecificStyle</text>
<text text-anchor="middle" x="1047.5" y="-148.15" font-family="Helvetica,sans-Serif" font-size="12.00">Properties</text>
</a>
</g>
</g>
<!-- Node7&#45;&gt;Node10 -->
<g id="edge12_Node000010_Node000007" class="edge">
<title>Node7&#45;&gt;Node10</title>
<g id="a_edge12_Node000010_Node000007"><a xlink:title=" ">
<path fill="none" stroke="#63b8ff" d="M633.31,-148.47C734.04,-150.73 874.66,-153.89 963.12,-155.88"/>
<polygon fill="#63b8ff" stroke="#63b8ff" points="633.15,-144.97 623.07,-148.24 632.99,-151.97 633.15,-144.97"/>
</a>
</g>
</g>
<!-- Node11 -->
<g id="Node000011" class="node">
<title>Node11</title>
<g id="a_Node000011"><a xlink:href="class_j_k_q_t_geometric_specific_style_properties.html" target="_top" xlink:title="Support Class for JKQTBasePlotter, which summarizes all properties that define the visual styling of ...">
<polygon fill="white" stroke="#666666" points="943,-122.75 759,-122.75 759,-88.75 943,-88.75 943,-122.75"/>
<text text-anchor="start" x="767" y="-109.15" font-family="Helvetica,sans-Serif" font-size="12.00">JKQTGeometricSpecificStyle</text>
<text text-anchor="middle" x="851" y="-96.15" font-family="Helvetica,sans-Serif" font-size="12.00">Properties</text>
</a>
</g>
</g>
<!-- Node7&#45;&gt;Node11 -->
<g id="edge14_Node000011_Node000007" class="edge">
<title>Node7&#45;&gt;Node11</title>
<g id="a_edge14_Node000011_Node000007"><a xlink:title=" ">
<path fill="none" stroke="#63b8ff" d="M610.95,-134.04C657.7,-128.51 713.13,-121.95 758.85,-116.54"/>
<polygon fill="#63b8ff" stroke="#63b8ff" points="610.32,-130.59 600.81,-135.24 611.15,-137.54 610.32,-130.59"/>
</a>
</g>
</g>
<!-- Node14 -->
<g id="Node000014" class="node">
<title>Node14</title>
<g id="a_Node000014"><a xlink:href="class_j_k_q_t_financial_specific_style_properties.html" target="_top" xlink:title="Support Class for JKQTBasePlotter, which summarizes all properties that define the visual styling of ...">
<polygon fill="white" stroke="#666666" points="937.5,-35.75 764.5,-35.75 764.5,-1.75 937.5,-1.75 937.5,-35.75"/>
<text text-anchor="start" x="772.5" y="-22.15" font-family="Helvetica,sans-Serif" font-size="12.00">JKQTFinancialSpecificStyle</text>
<text text-anchor="middle" x="851" y="-9.15" font-family="Helvetica,sans-Serif" font-size="12.00">Properties</text>
</a>
</g>
</g>
<!-- Node7&#45;&gt;Node14 -->
<g id="edge19_Node000014_Node000007" class="edge">
<title>Node7&#45;&gt;Node14</title>
<g id="a_edge19_Node000014_Node000007"><a xlink:title=" ">
<path fill="none" stroke="#63b8ff" d="M552.54,-131.56C574.04,-123.39 600.57,-112.27 623,-99.75 631.62,-94.94 632.11,-91.04 641,-86.75 682.57,-66.71 697.08,-72.93 741,-58.75 762.58,-51.78 786.24,-43.21 805.99,-35.8"/>
<polygon fill="#63b8ff" stroke="#63b8ff" points="551.19,-128.32 543.04,-135.1 553.64,-134.88 551.19,-128.32"/>
</a>
</g>
</g>
<!-- Node8 -->
<g id="Node000008" class="node">
<title>Node8</title>
<g id="a_Node000008"><a xlink:href="struct_j_k_q_t_p_color_derivation_mode.html" target="_top" xlink:title="Specifies how a fill&#45;color is derived from a given color.">
<polygon fill="white" stroke="#666666" points="179,-25.25 0,-25.25 0,-4.25 179,-4.25 179,-25.25"/>
<text text-anchor="middle" x="89.5" y="-11.65" font-family="Helvetica,sans-Serif" font-size="12.00">JKQTPColorDerivationMode</text>
</a>
</g>
</g>
<!-- Node8&#45;&gt;Node7 -->
<g id="edge8_Node000007_Node000008" class="edge">
<title>Node8&#45;&gt;Node7</title>
<g id="a_edge8_Node000007_Node000008"><a xlink:title=" ">
<path fill="none" stroke="#9a32cd" stroke-dasharray="5,2" d="M134.22,-28.4C218.29,-54.66 400.82,-111.66 476.29,-135.22"/>
<polygon fill="#9a32cd" stroke="#9a32cd" points="135.06,-25 124.47,-25.36 132.98,-31.68 135.06,-25"/>
</a>
</g>
<text text-anchor="middle" x="289" y="-158.15" font-family="Helvetica,sans-Serif" font-size="12.00" fill="grey"> errorColorDerivationMode</text>
<text text-anchor="middle" x="289" y="-145.15" font-family="Helvetica,sans-Serif" font-size="12.00" fill="grey">errorFillColorDerivationMode</text>
<text text-anchor="middle" x="289" y="-132.15" font-family="Helvetica,sans-Serif" font-size="12.00" fill="grey">fillColorDerivationMode</text>
<text text-anchor="middle" x="289" y="-119.15" font-family="Helvetica,sans-Serif" font-size="12.00" fill="grey">graphColorDerivationMode</text>
<text text-anchor="middle" x="289" y="-106.15" font-family="Helvetica,sans-Serif" font-size="12.00" fill="grey">symbolFillColorDerivationMode</text>
</g>
<!-- Node8&#45;&gt;Node14 -->
<g id="edge20_Node000014_Node000008" class="edge">
<title>Node8&#45;&gt;Node14</title>
<g id="a_edge20_Node000014_Node000008"><a xlink:title=" ">
<path fill="none" stroke="#9a32cd" stroke-dasharray="5,2" d="M189.28,-14.58C316.76,-14.48 545.43,-14.65 741,-16.75 748.57,-16.83 756.44,-16.94 764.32,-17.05"/>
<polygon fill="#9a32cd" stroke="#9a32cd" points="189.15,-11.08 179.15,-14.59 189.15,-18.08 189.15,-11.08"/>
</a>
</g>
<text text-anchor="middle" x="511" y="-19.15" font-family="Helvetica,sans-Serif" font-size="12.00" fill="grey"> negativeGraphColorDerivationMode</text>
</g>
<!-- Node9&#45;&gt;Node6 -->
<g id="edge9_Node000006_Node000009" class="edge">
<title>Node9&#45;&gt;Node6</title>
<g id="a_edge9_Node000006_Node000009"><a xlink:title=" ">
<path fill="none" stroke="#9a32cd" stroke-dasharray="5,2" d="M1144.5,-195.48C1227.76,-189.75 1351.46,-180.54 1459,-169.75 1472.59,-168.39 1487.07,-166.75 1500.99,-165.08"/>
<polygon fill="#9a32cd" stroke="#9a32cd" points="1144.03,-192 1134.3,-196.17 1144.51,-198.98 1144.03,-192"/>
</a>
</g>
<text text-anchor="middle" x="1247.5" y="-198.15" font-family="Helvetica,sans-Serif" font-size="12.00" fill="grey"> barchartStyle</text>
</g>
<!-- Node10&#45;&gt;Node6 -->
<g id="edge11_Node000006_Node000010" class="edge">
<title>Node10&#45;&gt;Node6</title>
<g id="a_edge11_Node000006_Node000010"><a xlink:title=" ">
<path fill="none" stroke="#9a32cd" stroke-dasharray="5,2" d="M1141.66,-157.39C1244.36,-157 1407.38,-156.38 1500.83,-156.02"/>
<polygon fill="#9a32cd" stroke="#9a32cd" points="1141.6,-153.89 1131.61,-157.43 1141.62,-160.89 1141.6,-153.89"/>
</a>
</g>
<text text-anchor="middle" x="1247.5" y="-160.15" font-family="Helvetica,sans-Serif" font-size="12.00" fill="grey"> impulseStyle</text>
</g>
<!-- Node11&#45;&gt;Node6 -->
<g id="edge13_Node000006_Node000011" class="edge">
<title>Node11&#45;&gt;Node6</title>
<g id="a_edge13_Node000006_Node000011"><a xlink:title=" ">
<path fill="none" stroke="#9a32cd" stroke-dasharray="5,2" d="M953.44,-112.37C1052.73,-118.9 1208.29,-129.24 1343,-138.75 1395.82,-142.48 1455.45,-146.89 1500.75,-150.29"/>
<polygon fill="#9a32cd" stroke="#9a32cd" points="953.62,-108.87 943.41,-111.71 953.16,-115.86 953.62,-108.87"/>
</a>
</g>
<text text-anchor="middle" x="1247.5" y="-142.15" font-family="Helvetica,sans-Serif" font-size="12.00" fill="grey"> geometricStyle</text>
</g>
<!-- Node13 -->
<g id="Node000013" class="node">
<title>Node13</title>
<g id="a_Node000013"><a xlink:href="class_j_k_q_t_annotations_specific_style_properties.html" target="_top" xlink:title="Support Class for JKQTBasePlotter, which summarizes all properties that define the visual styling of ...">
<polygon fill="white" stroke="#666666" points="1343,-70.75 1152,-70.75 1152,-36.75 1343,-36.75 1343,-70.75"/>
<text text-anchor="start" x="1160" y="-57.15" font-family="Helvetica,sans-Serif" font-size="12.00">JKQTAnnotationsSpecificStyle</text>
<text text-anchor="middle" x="1247.5" y="-44.15" font-family="Helvetica,sans-Serif" font-size="12.00">Properties</text>
</a>
</g>
</g>
<!-- Node11&#45;&gt;Node13 -->
<g id="edge17_Node000013_Node000011" class="edge">
<title>Node11&#45;&gt;Node13</title>
<g id="a_edge17_Node000013_Node000011"><a xlink:title=" ">
<path fill="none" stroke="#63b8ff" d="M953.07,-92.43C1014.27,-84.36 1091.83,-74.14 1151.84,-66.23"/>
<polygon fill="#63b8ff" stroke="#63b8ff" points="952.46,-88.98 943,-93.75 953.37,-95.92 952.46,-88.98"/>
</a>
</g>
</g>
<!-- Node12 -->
<g id="Node000012" class="node">
<title>Node12</title>
<g id="a_Node000012"><a xlink:href="class_j_k_q_t_fill_style_summmary.html" target="_top" xlink:title="Support Class for JKQTBasePlotter, which summarizes a fill style.">
<polygon fill="white" stroke="#666666" points="591,-90.25 431,-90.25 431,-69.25 591,-69.25 591,-90.25"/>
<text text-anchor="middle" x="511" y="-76.65" font-family="Helvetica,sans-Serif" font-size="12.00">JKQTFillStyleSummmary</text>
</a>
</g>
</g>
<!-- Node12&#45;&gt;Node11 -->
<g id="edge15_Node000011_Node000012" class="edge">
<title>Node12&#45;&gt;Node11</title>
<g id="a_edge15_Node000011_Node000012"><a xlink:title=" ">
<path fill="none" stroke="#9a32cd" stroke-dasharray="5,2" d="M601.42,-86.63C649.97,-90.36 709.86,-94.97 758.7,-98.73"/>
<polygon fill="#9a32cd" stroke="#9a32cd" points="601.48,-83.12 591.25,-85.85 600.95,-90.1 601.48,-83.12"/>
</a>
</g>
<text text-anchor="middle" x="691" y="-100.15" font-family="Helvetica,sans-Serif" font-size="12.00" fill="grey"> defaultFillStyle</text>
</g>
<!-- Node12&#45;&gt;Node14 -->
<g id="edge21_Node000014_Node000012" class="edge">
<title>Node12&#45;&gt;Node14</title>
<g id="a_edge21_Node000014_Node000012"><a xlink:title=" ">
<path fill="none" stroke="#9a32cd" stroke-dasharray="5,2" d="M543.96,-65.23C569.62,-54.28 606.88,-39.96 641,-32.75 681.03,-24.3 726.24,-20.57 764.34,-19.05"/>
<polygon fill="#9a32cd" stroke="#9a32cd" points="542.5,-62.04 534.73,-69.24 545.29,-68.46 542.5,-62.04"/>
</a>
</g>
<text text-anchor="middle" x="691" y="-49.15" font-family="Helvetica,sans-Serif" font-size="12.00" fill="grey"> negativeFillStyle</text>
<text text-anchor="middle" x="691" y="-36.15" font-family="Helvetica,sans-Serif" font-size="12.00" fill="grey">positiveFillStyle</text>
</g>
<!-- Node13&#45;&gt;Node6 -->
<g id="edge16_Node000006_Node000013" class="edge">
<title>Node13&#45;&gt;Node6</title>
<g id="a_edge16_Node000006_Node000013"><a xlink:title=" ">
<path fill="none" stroke="#9a32cd" stroke-dasharray="5,2" d="M1353.29,-57.08C1387.78,-60.68 1425.77,-67.42 1459,-79.75 1500.25,-95.06 1541.42,-127.93 1561.08,-144.99"/>
<polygon fill="#9a32cd" stroke="#9a32cd" points="1353.48,-53.58 1343.19,-56.1 1352.81,-60.55 1353.48,-53.58"/>
</a>
</g>
<text text-anchor="middle" x="1410" y="-83.15" font-family="Helvetica,sans-Serif" font-size="12.00" fill="grey"> annotationStyle</text>
</g>
<!-- Node14&#45;&gt;Node6 -->
<g id="edge18_Node000006_Node000014" class="edge">
<title>Node14&#45;&gt;Node6</title>
<g id="a_edge18_Node000006_Node000014"><a xlink:title=" ">
<path fill="none" stroke="#9a32cd" stroke-dasharray="5,2" d="M947.86,-8.42C1047.37,0.07 1207.17,7.47 1343,-14.75 1396.68,-23.53 1411.99,-26.39 1459,-53.75 1503.3,-79.53 1545.6,-124.41 1563.73,-144.94"/>
<polygon fill="#9a32cd" stroke="#9a32cd" points="947.49,-4.94 937.83,-9.3 948.1,-11.92 947.49,-4.94"/>
</a>
</g>
<text text-anchor="middle" x="1247.5" y="-18.15" font-family="Helvetica,sans-Serif" font-size="12.00" fill="grey"> financialStyle</text>
</g>
</g>
</svg>
