<?xml version="1.0" encoding="UTF-8" standalone="no"?>
<!DOCTYPE svg PUBLIC "-//W3C//DTD SVG 1.1//EN"
 "http://www.w3.org/Graphics/SVG/1.1/DTD/svg11.dtd">
<!-- Generated by graphviz version 2.43.0 (0)
 -->
<!-- Title: JKQTPViolinplotVerticalElement Pages: 1 -->
<svg width="492pt" height="217pt"
 viewBox="0.00 0.00 491.50 217.00" xmlns="http://www.w3.org/2000/svg" xmlns:xlink="http://www.w3.org/1999/xlink">
<g id="graph0" class="graph" transform="scale(1 1) rotate(0) translate(4 213)">
<title>JKQTPViolinplotVerticalElement</title>
<!-- Node1 -->
<g id="node1" class="node">
<title>Node1</title>
<g id="a_node1"><a xlink:title="This implements a single vertical Violin Plot as a &quot;geometric element&quot;.">
<polygon fill="#bfbfbf" stroke="black" points="44.5,-0.5 44.5,-21.5 246.5,-21.5 246.5,-0.5 44.5,-0.5"/>
<text text-anchor="middle" x="145.5" y="-7.9" font-family="Helvetica,sans-Serif" font-size="12.00">JKQTPViolinplotVerticalElement</text>
</a>
</g>
</g>
<!-- Node2 -->
<g id="node2" class="node">
<title>Node2</title>
<g id="a_node2"><a xlink:href="class_j_k_q_t_p_violinplot_element_base.html" target="_top" xlink:title="This implements a single vertical Violin Plot as a &quot;geometric element&quot;.">
<polygon fill="none" stroke="black" points="52.5,-58.5 52.5,-79.5 238.5,-79.5 238.5,-58.5 52.5,-58.5"/>
<text text-anchor="middle" x="145.5" y="-65.9" font-family="Helvetica,sans-Serif" font-size="12.00">JKQTPViolinplotElementBase</text>
</a>
</g>
</g>
<!-- Node2&#45;&gt;Node1 -->
<g id="edge1" class="edge">
<title>Node2&#45;&gt;Node1</title>
<path fill="none" stroke="midnightblue" d="M145.5,-48.16C145.5,-39.16 145.5,-28.92 145.5,-21.64"/>
<polygon fill="midnightblue" stroke="midnightblue" points="142,-48.25 145.5,-58.25 149,-48.25 142,-48.25"/>
</g>
<!-- Node3 -->
<g id="node3" class="node">
<title>Node3</title>
<g id="a_node3"><a xlink:href="class_j_k_q_t_p_plot_element.html" target="_top" xlink:title="this virtual base class of every element, which is part of a JKQTPlotter plot and may appear in its k...">
<polygon fill="none" stroke="black" points="0,-123 0,-144 125,-144 125,-123 0,-123"/>
<text text-anchor="middle" x="62.5" y="-130.4" font-family="Helvetica,sans-Serif" font-size="12.00">JKQTPPlotElement</text>
</a>
</g>
</g>
<!-- Node3&#45;&gt;Node2 -->
<g id="edge2" class="edge">
<title>Node3&#45;&gt;Node2</title>
<path fill="none" stroke="midnightblue" d="M83.46,-116.72C98.93,-105.06 119.5,-89.58 132.62,-79.7"/>
<polygon fill="midnightblue" stroke="midnightblue" points="81.35,-113.92 75.47,-122.73 85.56,-119.51 81.35,-113.92"/>
</g>
<!-- Node4 -->
<g id="node4" class="node">
<title>Node4</title>
<g id="a_node4"><a xlink:title=" ">
<polygon fill="none" stroke="black" points="30,-187.5 30,-208.5 95,-208.5 95,-187.5 30,-187.5"/>
<text text-anchor="middle" x="62.5" y="-194.9" font-family="Helvetica,sans-Serif" font-size="12.00">QObject</text>
</a>
</g>
</g>
<!-- Node4&#45;&gt;Node3 -->
<g id="edge3" class="edge">
<title>Node4&#45;&gt;Node3</title>
<path fill="none" stroke="midnightblue" d="M62.5,-176.93C62.5,-166.06 62.5,-153.11 62.5,-144.4"/>
<polygon fill="midnightblue" stroke="midnightblue" points="59,-177.23 62.5,-187.23 66,-177.23 59,-177.23"/>
</g>
<!-- Node5 -->
<g id="node5" class="node">
<title>Node5</title>
<g id="a_node5"><a xlink:href="class_j_k_q_t_p_graph_violinplot_style_mixin.html" target="_top" xlink:title="Styling Mix&#45;In for Violinplots.">
<polygon fill="none" stroke="black" points="143,-116.5 143,-150.5 316,-150.5 316,-116.5 143,-116.5"/>
<text text-anchor="start" x="151" y="-136.9" font-family="Helvetica,sans-Serif" font-size="12.00">JKQTPGraphViolinplotStyle</text>
<text text-anchor="middle" x="229.5" y="-123.9" font-family="Helvetica,sans-Serif" font-size="12.00">Mixin</text>
</a>
</g>
</g>
<!-- Node5&#45;&gt;Node2 -->
<g id="edge4" class="edge">
<title>Node5&#45;&gt;Node2</title>
<path fill="none" stroke="midnightblue" d="M199.47,-110.16C185.49,-99.75 169.58,-87.91 158.67,-79.8"/>
<polygon fill="midnightblue" stroke="midnightblue" points="197.76,-113.24 207.87,-116.4 201.93,-107.63 197.76,-113.24"/>
</g>
<!-- Node6 -->
<g id="node6" class="node">
<title>Node6</title>
<g id="a_node6"><a xlink:href="class_j_k_q_t_p_graph_line_style_mixin.html" target="_top" xlink:title="This Mix&#45;In class provides setter/getter methods, storage and other facilities for the graph line sty...">
<polygon fill="none" stroke="black" points="127.5,-187.5 127.5,-208.5 301.5,-208.5 301.5,-187.5 127.5,-187.5"/>
<text text-anchor="middle" x="214.5" y="-194.9" font-family="Helvetica,sans-Serif" font-size="12.00">JKQTPGraphLineStyleMixin</text>
</a>
</g>
</g>
<!-- Node6&#45;&gt;Node5 -->
<g id="edge5" class="edge">
<title>Node6&#45;&gt;Node5</title>
<path fill="none" stroke="midnightblue" d="M219.21,-177.36C221.27,-168.8 223.65,-158.89 225.6,-150.76"/>
<polygon fill="midnightblue" stroke="midnightblue" points="215.77,-176.69 216.84,-187.23 222.58,-178.33 215.77,-176.69"/>
</g>
<!-- Node7 -->
<g id="node7" class="node">
<title>Node7</title>
<g id="a_node7"><a xlink:href="class_j_k_q_t_p_graph_fill_style_mixin.html" target="_top" xlink:title="This Mix&#45;In class provides setter/getter methods, storage and other facilities for the graph filling ...">
<polygon fill="none" stroke="black" points="319.5,-187.5 319.5,-208.5 483.5,-208.5 483.5,-187.5 319.5,-187.5"/>
<text text-anchor="middle" x="401.5" y="-194.9" font-family="Helvetica,sans-Serif" font-size="12.00">JKQTPGraphFillStyleMixin</text>
</a>
</g>
</g>
<!-- Node7&#45;&gt;Node5 -->
<g id="edge6" class="edge">
<title>Node7&#45;&gt;Node5</title>
<path fill="none" stroke="midnightblue" d="M365.29,-183.84C338.61,-174.15 302.18,-160.91 273.77,-150.59"/>
<polygon fill="midnightblue" stroke="midnightblue" points="364.41,-187.25 375,-187.37 366.8,-180.67 364.41,-187.25"/>
</g>
</g>
</svg>
