<?xml version="1.0" encoding="UTF-8" standalone="no"?>
<!DOCTYPE svg PUBLIC "-//W3C//DTD SVG 1.1//EN"
 "http://www.w3.org/Graphics/SVG/1.1/DTD/svg11.dtd">
<!-- Generated by graphviz version 2.43.0 (0)
 -->
<!-- Title: JKQTPContourPlot Pages: 1 -->
<svg width="4226pt" height="629pt"
 viewBox="0.00 0.00 4226.00 629.00" xmlns="http://www.w3.org/2000/svg" xmlns:xlink="http://www.w3.org/1999/xlink">
<g id="graph0" class="graph" transform="scale(1 1) rotate(0) translate(4 625)">
<title>JKQTPContourPlot</title>
<!-- Node1 -->
<g id="node1" class="node">
<title>Node1</title>
<g id="a_node1"><a xlink:title="class for a contour plot">
<polygon fill="#999999" stroke="#666666" points="4218,-407.5 4095,-407.5 4095,-386.5 4218,-386.5 4218,-407.5"/>
<text text-anchor="middle" x="4156.5" y="-393.9" font-family="Helvetica,sans-Serif" font-size="12.00">JKQTPContourPlot</text>
</a>
</g>
</g>
<!-- Node2 -->
<g id="node2" class="node">
<title>Node2</title>
<g id="a_node2"><a xlink:href="class_j_k_q_t_p_math_image.html" target="_top" xlink:title="class to plot an image from an 2&#45;dimensional array of values">
<polygon fill="white" stroke="#666666" points="4031.5,-434.5 3910.5,-434.5 3910.5,-413.5 4031.5,-413.5 4031.5,-434.5"/>
<text text-anchor="middle" x="3971" y="-420.9" font-family="Helvetica,sans-Serif" font-size="12.00">JKQTPMathImage</text>
</a>
</g>
</g>
<!-- Node2&#45;&gt;Node1 -->
<g id="edge1" class="edge">
<title>Node2&#45;&gt;Node1</title>
<path fill="none" stroke="#63b8ff" d="M4041.74,-413.74C4059.27,-411.16 4077.93,-408.41 4094.96,-405.91"/>
<polygon fill="#63b8ff" stroke="#63b8ff" points="4040.96,-410.32 4031.58,-415.23 4041.98,-417.24 4040.96,-410.32"/>
</g>
<!-- Node3 -->
<g id="node3" class="node">
<title>Node3</title>
<g id="a_node3"><a xlink:href="class_j_k_q_t_p_math_image_base.html" target="_top" xlink:title="base class to hold an image from an 2&#45;dimensional array of values">
<polygon fill="white" stroke="#666666" points="3414,-403.5 3264,-403.5 3264,-382.5 3414,-382.5 3414,-403.5"/>
<text text-anchor="middle" x="3339" y="-389.9" font-family="Helvetica,sans-Serif" font-size="12.00">JKQTPMathImageBase</text>
</a>
</g>
</g>
<!-- Node3&#45;&gt;Node2 -->
<g id="edge2" class="edge">
<title>Node3&#45;&gt;Node2</title>
<path fill="none" stroke="#63b8ff" d="M3424.37,-397.15C3553.63,-403.51 3797.53,-415.51 3910.19,-421.06"/>
<polygon fill="#63b8ff" stroke="#63b8ff" points="3424.28,-393.64 3414.12,-396.65 3423.94,-400.63 3424.28,-393.64"/>
</g>
<!-- Node4 -->
<g id="node4" class="node">
<title>Node4</title>
<g id="a_node4"><a xlink:href="class_j_k_q_t_p_image_base.html" target="_top" xlink:title="base class for plotting an image">
<polygon fill="white" stroke="#666666" points="2987.5,-396.5 2867.5,-396.5 2867.5,-375.5 2987.5,-375.5 2987.5,-396.5"/>
<text text-anchor="middle" x="2927.5" y="-382.9" font-family="Helvetica,sans-Serif" font-size="12.00">JKQTPImageBase</text>
</a>
</g>
</g>
<!-- Node4&#45;&gt;Node3 -->
<g id="edge3" class="edge">
<title>Node4&#45;&gt;Node3</title>
<path fill="none" stroke="#63b8ff" d="M2997.74,-387.18C3071.65,-388.45 3188.31,-390.44 3264,-391.74"/>
<polygon fill="#63b8ff" stroke="#63b8ff" points="2997.67,-383.68 2987.61,-387.01 2997.55,-390.68 2997.67,-383.68"/>
</g>
<!-- Node5 -->
<g id="node5" class="node">
<title>Node5</title>
<g id="a_node5"><a xlink:href="class_j_k_q_t_p_graph.html" target="_top" xlink:title="this virtual base class of the (data&#45;column based) graphs, which are part of a JKQTPlotter plot and w...">
<polygon fill="white" stroke="#666666" points="2727,-396.5 2638,-396.5 2638,-375.5 2727,-375.5 2727,-396.5"/>
<text text-anchor="middle" x="2682.5" y="-382.9" font-family="Helvetica,sans-Serif" font-size="12.00">JKQTPGraph</text>
</a>
</g>
</g>
<!-- Node5&#45;&gt;Node4 -->
<g id="edge4" class="edge">
<title>Node5&#45;&gt;Node4</title>
<path fill="none" stroke="#63b8ff" d="M2737.69,-386C2776.1,-386 2827.62,-386 2867.14,-386"/>
<polygon fill="#63b8ff" stroke="#63b8ff" points="2737.22,-382.5 2727.22,-386 2737.22,-389.5 2737.22,-382.5"/>
</g>
<!-- Node6 -->
<g id="node6" class="node">
<title>Node6</title>
<g id="a_node6"><a xlink:href="class_j_k_q_t_p_plot_element.html" target="_top" xlink:title="this virtual base class of every element, which is part of a JKQTPlotter plot and may appear in its k...">
<polygon fill="white" stroke="#666666" points="2483,-396.5 2358,-396.5 2358,-375.5 2483,-375.5 2483,-396.5"/>
<text text-anchor="middle" x="2420.5" y="-382.9" font-family="Helvetica,sans-Serif" font-size="12.00">JKQTPPlotElement</text>
</a>
</g>
</g>
<!-- Node6&#45;&gt;Node5 -->
<g id="edge5" class="edge">
<title>Node6&#45;&gt;Node5</title>
<path fill="none" stroke="#63b8ff" d="M2493.4,-386C2539.71,-386 2598.4,-386 2637.81,-386"/>
<polygon fill="#63b8ff" stroke="#63b8ff" points="2493.12,-382.5 2483.12,-386 2493.12,-389.5 2493.12,-382.5"/>
</g>
<!-- Node7 -->
<g id="node7" class="node">
<title>Node7</title>
<g id="a_node7"><a xlink:title=" ">
<polygon fill="white" stroke="#666666" points="1507.5,-422.5 1442.5,-422.5 1442.5,-401.5 1507.5,-401.5 1507.5,-422.5"/>
<text text-anchor="middle" x="1475" y="-408.9" font-family="Helvetica,sans-Serif" font-size="12.00">QObject</text>
</a>
</g>
</g>
<!-- Node7&#45;&gt;Node6 -->
<g id="edge6" class="edge">
<title>Node7&#45;&gt;Node6</title>
<path fill="none" stroke="#63b8ff" d="M1517.87,-403.47C1594.52,-388.16 1762.73,-356.05 1906,-339 2028.1,-324.47 2059.12,-324.22 2182,-320 2232.19,-318.27 2252.42,-293.36 2295,-320 2310.5,-329.7 2298.92,-345.33 2313,-357 2325.69,-367.51 2341.87,-374.24 2357.77,-378.53"/>
<polygon fill="#63b8ff" stroke="#63b8ff" points="1516.79,-400.11 1507.67,-405.51 1518.16,-406.98 1516.79,-400.11"/>
</g>
<!-- Node8 -->
<g id="node8" class="node">
<title>Node8</title>
<g id="a_node8"><a xlink:href="class_j_k_q_t_base_plotter.html" target="_top" xlink:title="base class for 2D plotter classes (used by the plotter widget JKQTPlotter)">
<polygon fill="white" stroke="#666666" points="2149.5,-419.5 2035.5,-419.5 2035.5,-398.5 2149.5,-398.5 2149.5,-419.5"/>
<text text-anchor="middle" x="2092.5" y="-405.9" font-family="Helvetica,sans-Serif" font-size="12.00">JKQTBasePlotter</text>
</a>
</g>
</g>
<!-- Node7&#45;&gt;Node8 -->
<g id="edge8" class="edge">
<title>Node7&#45;&gt;Node8</title>
<path fill="none" stroke="#63b8ff" d="M1517.97,-411.8C1625.96,-411.27 1913.46,-409.87 2035.48,-409.27"/>
<polygon fill="#63b8ff" stroke="#63b8ff" points="1517.78,-408.3 1507.8,-411.85 1517.81,-415.3 1517.78,-408.3"/>
</g>
<!-- Node21 -->
<g id="node21" class="node">
<title>Node21</title>
<g id="a_node21"><a xlink:href="class_j_k_q_t_math_text.html" target="_top" xlink:title="this class parses a mathematical markup string and can then draw the contained text/equation onto a Q...">
<polygon fill="white" stroke="#666666" points="1866,-462.5 1767,-462.5 1767,-441.5 1866,-441.5 1866,-462.5"/>
<text text-anchor="middle" x="1816.5" y="-448.9" font-family="Helvetica,sans-Serif" font-size="12.00">JKQTMathText</text>
</a>
</g>
</g>
<!-- Node7&#45;&gt;Node21 -->
<g id="edge27" class="edge">
<title>Node7&#45;&gt;Node21</title>
<path fill="none" stroke="#63b8ff" d="M1517.61,-416.9C1580.58,-424.32 1699.82,-438.37 1766.76,-446.26"/>
<polygon fill="#63b8ff" stroke="#63b8ff" points="1517.98,-413.42 1507.63,-415.73 1517.16,-420.37 1517.98,-413.42"/>
</g>
<!-- Node27 -->
<g id="node27" class="node">
<title>Node27</title>
<g id="a_node27"><a xlink:href="class_j_k_q_t_p_coordinate_axis.html" target="_top" xlink:title="this virtual class is the base for any type of coordinate axis, to be drawn by JKQTBasePlotter.">
<polygon fill="white" stroke="#666666" points="2491.5,-572.5 2349.5,-572.5 2349.5,-551.5 2491.5,-551.5 2491.5,-572.5"/>
<text text-anchor="middle" x="2420.5" y="-558.9" font-family="Helvetica,sans-Serif" font-size="12.00">JKQTPCoordinateAxis</text>
</a>
</g>
</g>
<!-- Node7&#45;&gt;Node27 -->
<g id="edge37" class="edge">
<title>Node7&#45;&gt;Node27</title>
<path fill="none" stroke="#63b8ff" d="M1517.54,-425.61C1539.05,-432.45 1565.81,-440.6 1590,-447 1779.73,-497.17 1826.49,-516.9 2021,-543 2135.3,-558.34 2269.49,-561.76 2349.35,-562.28"/>
<polygon fill="#63b8ff" stroke="#63b8ff" points="1518.34,-422.2 1507.75,-422.48 1516.21,-428.86 1518.34,-422.2"/>
</g>
<!-- Node8&#45;&gt;Node6 -->
<g id="edge7" class="edge">
<title>Node8&#45;&gt;Node6</title>
<path fill="none" stroke="#9a32cd" stroke-dasharray="5,2" d="M2159.69,-404.33C2217.66,-400.24 2301.23,-394.34 2357.81,-390.35"/>
<polygon fill="#9a32cd" stroke="#9a32cd" points="2159.27,-400.85 2149.54,-405.05 2159.76,-407.83 2159.27,-400.85"/>
<text text-anchor="middle" x="2238.5" y="-405.4" font-family="Helvetica,sans-Serif" font-size="12.00"> parent</text>
</g>
<!-- Node8&#45;&gt;Node8 -->
<g id="edge49" class="edge">
<title>Node8&#45;&gt;Node8</title>
<path fill="none" stroke="#9a32cd" stroke-dasharray="5,2" d="M2067.07,-429.07C2069.03,-433.91 2077.51,-437.5 2092.5,-437.5 2116.49,-437.5 2123.8,-428.31 2114.43,-419.52"/>
<polygon fill="#9a32cd" stroke="#9a32cd" points="2070.41,-430.12 2070.57,-419.52 2063.84,-427.71 2070.41,-430.12"/>
<text text-anchor="middle" x="2092.5" y="-453.9" font-family="Helvetica,sans-Serif" font-size="12.00"> masterPlotterX</text>
<text text-anchor="middle" x="2092.5" y="-440.9" font-family="Helvetica,sans-Serif" font-size="12.00">masterPlotterY</text>
</g>
<!-- Node23 -->
<g id="node23" class="node">
<title>Node23</title>
<g id="a_node23"><a xlink:href="class_j_k_q_t_p_graphs_model.html" target="_top" xlink:title="data model with all plots ina JKQTBasePlotter (+ allows to switch them visible/invisible)">
<polygon fill="white" stroke="#666666" points="2486,-348.5 2355,-348.5 2355,-327.5 2486,-327.5 2486,-348.5"/>
<text text-anchor="middle" x="2420.5" y="-334.9" font-family="Helvetica,sans-Serif" font-size="12.00">JKQTPGraphsModel</text>
</a>
</g>
</g>
<!-- Node8&#45;&gt;Node23 -->
<g id="edge33" class="edge">
<title>Node8&#45;&gt;Node23</title>
<path fill="none" stroke="#9a32cd" stroke-dasharray="5,2" d="M2129.33,-394.89C2145.26,-389.02 2164.37,-382.54 2182,-378 2239.7,-363.15 2306.76,-352.44 2354.87,-345.86"/>
<polygon fill="#9a32cd" stroke="#9a32cd" points="2127.99,-391.65 2119.86,-398.44 2130.45,-398.21 2127.99,-391.65"/>
<text text-anchor="middle" x="2238.5" y="-381.4" font-family="Helvetica,sans-Serif" font-size="12.00"> m_plotter</text>
</g>
<!-- Node8&#45;&gt;Node27 -->
<g id="edge38" class="edge">
<title>Node8&#45;&gt;Node27</title>
<path fill="none" stroke="#9a32cd" stroke-dasharray="5,2" d="M2116.6,-425.99C2131.56,-437.88 2150.67,-454.84 2164,-473 2175.29,-488.39 2167.03,-500.15 2182,-512 2222.19,-543.81 2244.84,-524.46 2295,-535 2320.32,-540.32 2348.51,-546.42 2371.64,-551.47"/>
<polygon fill="#9a32cd" stroke="#9a32cd" points="2118.39,-422.95 2108.34,-419.6 2114.11,-428.49 2118.39,-422.95"/>
<text text-anchor="middle" x="2238.5" y="-538.4" font-family="Helvetica,sans-Serif" font-size="12.00"> parent</text>
</g>
<!-- Node36 -->
<g id="node36" class="node">
<title>Node36</title>
<g id="a_node36"><a xlink:href="class_j_k_q_t_p_color_palette_style_and_tools_mixin.html" target="_top" xlink:title="if a class is derived from this class, it may use color bars">
<polygon fill="white" stroke="#666666" points="3610,-481 3432,-481 3432,-447 3610,-447 3610,-481"/>
<text text-anchor="start" x="3440" y="-467.4" font-family="Helvetica,sans-Serif" font-size="12.00">JKQTPColorPaletteStyleAnd</text>
<text text-anchor="middle" x="3521" y="-454.4" font-family="Helvetica,sans-Serif" font-size="12.00">ToolsMixin</text>
</a>
</g>
</g>
<!-- Node8&#45;&gt;Node36 -->
<g id="edge52" class="edge">
<title>Node8&#45;&gt;Node36</title>
<path fill="none" stroke="#9a32cd" stroke-dasharray="5,2" d="M2159.76,-417.19C2167.26,-417.91 2174.79,-418.54 2182,-419 2350.78,-429.84 2393.37,-425 2562.5,-425 2562.5,-425 2562.5,-425 3140.5,-425 3262.35,-425 3293.15,-428.46 3414,-444 3420.69,-444.86 3427.59,-445.87 3434.51,-446.98"/>
<polygon fill="#9a32cd" stroke="#9a32cd" points="2159.91,-413.69 2149.61,-416.17 2159.21,-420.65 2159.91,-413.69"/>
<text text-anchor="middle" x="2812.5" y="-428.4" font-family="Helvetica,sans-Serif" font-size="12.00"> cbParent</text>
</g>
<!-- Node9 -->
<g id="node9" class="node">
<title>Node9</title>
<g id="a_node9"><a xlink:href="class_j_k_q_t_base_plotter_style.html" target="_top" xlink:title="Support Class for JKQTBasePlotter, which summarizes all properties that define the visual styling of ...">
<polygon fill="white" stroke="#666666" points="1888,-288.5 1745,-288.5 1745,-267.5 1888,-267.5 1888,-288.5"/>
<text text-anchor="middle" x="1816.5" y="-274.9" font-family="Helvetica,sans-Serif" font-size="12.00">JKQTBasePlotterStyle</text>
</a>
</g>
</g>
<!-- Node9&#45;&gt;Node8 -->
<g id="edge9" class="edge">
<title>Node9&#45;&gt;Node8</title>
<path fill="none" stroke="#9a32cd" stroke-dasharray="5,2" d="M1849.04,-293.08C1905.2,-319.93 2021.14,-375.36 2069.53,-398.5"/>
<polygon fill="#9a32cd" stroke="#9a32cd" points="1850.45,-289.88 1839.92,-288.72 1847.43,-296.19 1850.45,-289.88"/>
<text text-anchor="middle" x="1954.5" y="-369.4" font-family="Helvetica,sans-Serif" font-size="12.00"> plotterStyle</text>
</g>
<!-- Node10 -->
<g id="node10" class="node">
<title>Node10</title>
<g id="a_node10"><a xlink:href="class_j_k_q_t_p_key_style.html" target="_top" xlink:title="Support Class for JKQTBasePlotter, which summarizes all properties that define the visual styling of ...">
<polygon fill="white" stroke="#666666" points="1527,-346.5 1423,-346.5 1423,-325.5 1527,-325.5 1527,-346.5"/>
<text text-anchor="middle" x="1475" y="-332.9" font-family="Helvetica,sans-Serif" font-size="12.00">JKQTPKeyStyle</text>
</a>
</g>
</g>
<!-- Node10&#45;&gt;Node9 -->
<g id="edge10" class="edge">
<title>Node10&#45;&gt;Node9</title>
<path fill="none" stroke="#9a32cd" stroke-dasharray="5,2" d="M1537.45,-329.44C1588.47,-323.52 1662.81,-313.77 1727,-301 1744.13,-297.59 1762.88,-292.87 1778.69,-288.58"/>
<polygon fill="#9a32cd" stroke="#9a32cd" points="1536.78,-326 1527.25,-330.61 1537.58,-332.95 1536.78,-326"/>
<text text-anchor="middle" x="1658.5" y="-326.4" font-family="Helvetica,sans-Serif" font-size="12.00"> keyStyle</text>
</g>
<!-- Node11 -->
<g id="node11" class="node">
<title>Node11</title>
<g id="a_node11"><a xlink:href="class_j_k_q_t_p_coordinate_axis_style.html" target="_top" xlink:title="Support Class for JKQTPCoordinateAxis, which summarizes all properties that define the visual styling...">
<polygon fill="white" stroke="#666666" points="1234,-300.5 1063,-300.5 1063,-279.5 1234,-279.5 1234,-300.5"/>
<text text-anchor="middle" x="1148.5" y="-286.9" font-family="Helvetica,sans-Serif" font-size="12.00">JKQTPCoordinateAxisStyle</text>
</a>
</g>
</g>
<!-- Node11&#45;&gt;Node9 -->
<g id="edge11" class="edge">
<title>Node11&#45;&gt;Node9</title>
<path fill="none" stroke="#9a32cd" stroke-dasharray="5,2" d="M1194.59,-276.59C1240.31,-263.74 1313.35,-245.26 1378,-238 1463.68,-228.37 1486.06,-230.99 1572,-238 1639.68,-243.52 1716.89,-257.54 1765.89,-267.42"/>
<polygon fill="#9a32cd" stroke="#9a32cd" points="1193.36,-273.3 1184.7,-279.4 1195.27,-280.03 1193.36,-273.3"/>
<text text-anchor="middle" x="1475" y="-254.4" font-family="Helvetica,sans-Serif" font-size="12.00"> xAxisStyle</text>
<text text-anchor="middle" x="1475" y="-241.4" font-family="Helvetica,sans-Serif" font-size="12.00">yAxisStyle</text>
</g>
<!-- Node13 -->
<g id="node13" class="node">
<title>Node13</title>
<g id="a_node13"><a xlink:href="class_j_k_q_t_p_colorbar_coordinate_axis_style.html" target="_top" xlink:title="Support Class for JKQTPCoordinateAxis, which summarizes all properties that define the visual styling...">
<polygon fill="white" stroke="#666666" points="1572,-307 1378,-307 1378,-273 1572,-273 1572,-307"/>
<text text-anchor="start" x="1386" y="-293.4" font-family="Helvetica,sans-Serif" font-size="12.00">JKQTPColorbarCoordinateAxis</text>
<text text-anchor="middle" x="1475" y="-280.4" font-family="Helvetica,sans-Serif" font-size="12.00">Style</text>
</a>
</g>
</g>
<!-- Node11&#45;&gt;Node13 -->
<g id="edge14" class="edge">
<title>Node11&#45;&gt;Node13</title>
<path fill="none" stroke="#63b8ff" d="M1244.56,-290C1286.54,-290 1335.81,-290 1377.91,-290"/>
<polygon fill="#63b8ff" stroke="#63b8ff" points="1244.33,-286.5 1234.33,-290 1244.33,-293.5 1244.33,-286.5"/>
</g>
<!-- Node11&#45;&gt;Node27 -->
<g id="edge39" class="edge">
<title>Node11&#45;&gt;Node27</title>
<path fill="none" stroke="#9a32cd" stroke-dasharray="5,2" d="M1157.94,-310.02C1188.83,-379.79 1302.94,-608 1474,-608 1474,-608 1474,-608 2093.5,-608 2194.38,-608 2311.12,-586.13 2373.9,-572.55"/>
<polygon fill="#9a32cd" stroke="#9a32cd" points="1161.03,-308.36 1153.84,-300.58 1154.61,-311.15 1161.03,-308.36"/>
<text text-anchor="middle" x="1816.5" y="-611.4" font-family="Helvetica,sans-Serif" font-size="12.00"> axisStyle</text>
</g>
<!-- Node12 -->
<g id="node12" class="node">
<title>Node12</title>
<g id="a_node12"><a xlink:href="class_j_k_q_t_p_grid_style.html" target="_top" xlink:title="Support Class for JKQTPCoordinateAxis, and summarizes all properties that define the visual styling o...">
<polygon fill="white" stroke="#666666" points="805.5,-300.5 698.5,-300.5 698.5,-279.5 805.5,-279.5 805.5,-300.5"/>
<text text-anchor="middle" x="752" y="-286.9" font-family="Helvetica,sans-Serif" font-size="12.00">JKQTPGridStyle</text>
</a>
</g>
</g>
<!-- Node12&#45;&gt;Node11 -->
<g id="edge12" class="edge">
<title>Node12&#45;&gt;Node11</title>
<path fill="none" stroke="#9a32cd" stroke-dasharray="5,2" d="M816.18,-290C883.03,-290 988.9,-290 1062.92,-290"/>
<polygon fill="#9a32cd" stroke="#9a32cd" points="815.79,-286.5 805.79,-290 815.79,-293.5 815.79,-286.5"/>
<text text-anchor="middle" x="948.5" y="-306.4" font-family="Helvetica,sans-Serif" font-size="12.00"> majorGridStyle</text>
<text text-anchor="middle" x="948.5" y="-293.4" font-family="Helvetica,sans-Serif" font-size="12.00">minorGridStyle</text>
</g>
<!-- Node13&#45;&gt;Node9 -->
<g id="edge13" class="edge">
<title>Node13&#45;&gt;Node9</title>
<path fill="none" stroke="#9a32cd" stroke-dasharray="5,2" d="M1582.21,-275.57C1584.83,-275.36 1587.43,-275.17 1590,-275 1650.76,-271.02 1666.12,-273.97 1727,-275 1732.84,-275.1 1738.9,-275.23 1744.98,-275.39"/>
<polygon fill="#9a32cd" stroke="#9a32cd" points="1581.67,-272.1 1572.01,-276.46 1582.27,-279.07 1581.67,-272.1"/>
<text text-anchor="middle" x="1658.5" y="-291.4" font-family="Helvetica,sans-Serif" font-size="12.00"> rightColorbarAxisStyle</text>
<text text-anchor="middle" x="1658.5" y="-278.4" font-family="Helvetica,sans-Serif" font-size="12.00">topColorbarAxisStyle</text>
</g>
<!-- Node14 -->
<g id="node14" class="node">
<title>Node14</title>
<g id="a_node14"><a xlink:href="class_j_k_q_t_graphs_base_style.html" target="_top" xlink:title="Support Class for JKQTBasePlotter, which summarizes all properties that define the visual styling of ...">
<polygon fill="white" stroke="#666666" points="1548,-145.5 1402,-145.5 1402,-124.5 1548,-124.5 1548,-145.5"/>
<text text-anchor="middle" x="1475" y="-131.9" font-family="Helvetica,sans-Serif" font-size="12.00">JKQTGraphsBaseStyle</text>
</a>
</g>
</g>
<!-- Node14&#45;&gt;Node9 -->
<g id="edge15" class="edge">
<title>Node14&#45;&gt;Node9</title>
<path fill="none" stroke="#9a32cd" stroke-dasharray="5,2" d="M1558.18,-137.25C1612.57,-143.01 1681.93,-159.13 1727,-202 1745.94,-220.02 1726.2,-239.84 1745,-258 1748.93,-261.8 1753.54,-264.89 1758.47,-267.4"/>
<polygon fill="#9a32cd" stroke="#9a32cd" points="1558.49,-133.77 1548.2,-136.29 1557.82,-140.73 1558.49,-133.77"/>
<text text-anchor="middle" x="1658.5" y="-205.4" font-family="Helvetica,sans-Serif" font-size="12.00"> graphsStyle</text>
</g>
<!-- Node15 -->
<g id="node15" class="node">
<title>Node15</title>
<g id="a_node15"><a xlink:href="class_j_k_q_t_graphs_specific_style_properties.html" target="_top" xlink:title="Support Class for JKQTBasePlotter, which summarizes all properties that define the visual styling of ...">
<polygon fill="white" stroke="#666666" points="623,-79.5 399,-79.5 399,-58.5 623,-58.5 623,-79.5"/>
<text text-anchor="middle" x="511" y="-65.9" font-family="Helvetica,sans-Serif" font-size="12.00">JKQTGraphsSpecificStyleProperties</text>
</a>
</g>
</g>
<!-- Node15&#45;&gt;Node14 -->
<g id="edge16" class="edge">
<title>Node15&#45;&gt;Node14</title>
<path fill="none" stroke="#9a32cd" stroke-dasharray="5,2" d="M633.56,-59.16C779.56,-49.88 1031.38,-41.91 1244,-76 1315.23,-87.42 1396.55,-110.8 1440.89,-124.45"/>
<polygon fill="#9a32cd" stroke="#9a32cd" points="632.99,-55.69 623.23,-59.84 633.44,-62.68 632.99,-55.69"/>
<text text-anchor="middle" x="948.5" y="-84.4" font-family="Helvetica,sans-Serif" font-size="12.00"> boxplotStyle</text>
<text text-anchor="middle" x="948.5" y="-71.4" font-family="Helvetica,sans-Serif" font-size="12.00">defaultGraphStyle</text>
<text text-anchor="middle" x="948.5" y="-58.4" font-family="Helvetica,sans-Serif" font-size="12.00">filledStyle</text>
</g>
<!-- Node17 -->
<g id="node17" class="node">
<title>Node17</title>
<g id="a_node17"><a xlink:href="class_j_k_q_t_barchart_specific_style_properties.html" target="_top" xlink:title="Support Class for JKQTBasePlotter, which summarizes all properties that define the visual styling of ...">
<polygon fill="white" stroke="#666666" points="1035,-34 862,-34 862,0 1035,0 1035,-34"/>
<text text-anchor="start" x="870" y="-20.4" font-family="Helvetica,sans-Serif" font-size="12.00">JKQTBarchartSpecificStyle</text>
<text text-anchor="middle" x="948.5" y="-7.4" font-family="Helvetica,sans-Serif" font-size="12.00">Properties</text>
</a>
</g>
</g>
<!-- Node15&#45;&gt;Node17 -->
<g id="edge19" class="edge">
<title>Node15&#45;&gt;Node17</title>
<path fill="none" stroke="#63b8ff" d="M567.54,-56.36C590.22,-51.58 616.77,-46.46 641,-43 715.28,-32.4 800.35,-25.6 861.99,-21.63"/>
<polygon fill="#63b8ff" stroke="#63b8ff" points="566.8,-52.94 557.75,-58.45 568.26,-59.78 566.8,-52.94"/>
</g>
<!-- Node18 -->
<g id="node18" class="node">
<title>Node18</title>
<g id="a_node18"><a xlink:href="class_j_k_q_t_impulse_specific_style_properties.html" target="_top" xlink:title="Support Class for JKQTBasePlotter, which summarizes all properties that define the visual styling of ...">
<polygon fill="white" stroke="#666666" points="1032.5,-213 864.5,-213 864.5,-179 1032.5,-179 1032.5,-213"/>
<text text-anchor="start" x="872.5" y="-199.4" font-family="Helvetica,sans-Serif" font-size="12.00">JKQTImpulseSpecificStyle</text>
<text text-anchor="middle" x="948.5" y="-186.4" font-family="Helvetica,sans-Serif" font-size="12.00">Properties</text>
</a>
</g>
</g>
<!-- Node15&#45;&gt;Node18 -->
<g id="edge21" class="edge">
<title>Node15&#45;&gt;Node18</title>
<path fill="none" stroke="#63b8ff" d="M540.73,-84.6C569.99,-99.9 617.03,-122.92 660,-137 727.31,-159.05 806.28,-174.55 864.41,-184.11"/>
<polygon fill="#63b8ff" stroke="#63b8ff" points="542,-81.31 531.52,-79.73 538.73,-87.5 542,-81.31"/>
</g>
<!-- Node19 -->
<g id="node19" class="node">
<title>Node19</title>
<g id="a_node19"><a xlink:href="class_j_k_q_t_geometric_specific_style_properties.html" target="_top" xlink:title="Support Class for JKQTBasePlotter, which summarizes all properties that define the visual styling of ...">
<polygon fill="white" stroke="#666666" points="844,-128 660,-128 660,-94 844,-94 844,-128"/>
<text text-anchor="start" x="668" y="-114.4" font-family="Helvetica,sans-Serif" font-size="12.00">JKQTGeometricSpecificStyle</text>
<text text-anchor="middle" x="752" y="-101.4" font-family="Helvetica,sans-Serif" font-size="12.00">Properties</text>
</a>
</g>
</g>
<!-- Node15&#45;&gt;Node19 -->
<g id="edge23" class="edge">
<title>Node15&#45;&gt;Node19</title>
<path fill="none" stroke="#63b8ff" d="M581.86,-81.28C606.22,-85.56 633.92,-90.42 659.75,-94.96"/>
<polygon fill="#63b8ff" stroke="#63b8ff" points="582.46,-77.83 572,-79.54 581.24,-84.72 582.46,-77.83"/>
</g>
<!-- Node16 -->
<g id="node16" class="node">
<title>Node16</title>
<g id="a_node16"><a xlink:href="struct_j_k_q_t_p_color_derivation_mode.html" target="_top" xlink:title="Specifies how a fill&#45;color is derived from a given color.">
<polygon fill="white" stroke="#666666" points="179,-79.5 0,-79.5 0,-58.5 179,-58.5 179,-79.5"/>
<text text-anchor="middle" x="89.5" y="-65.9" font-family="Helvetica,sans-Serif" font-size="12.00">JKQTPColorDerivationMode</text>
</a>
</g>
</g>
<!-- Node16&#45;&gt;Node15 -->
<g id="edge17" class="edge">
<title>Node16&#45;&gt;Node15</title>
<path fill="none" stroke="#9a32cd" stroke-dasharray="5,2" d="M189.53,-69C252.41,-69 333.9,-69 398.97,-69"/>
<polygon fill="#9a32cd" stroke="#9a32cd" points="189.21,-65.5 179.21,-69 189.21,-72.5 189.21,-65.5"/>
<text text-anchor="middle" x="289" y="-124.4" font-family="Helvetica,sans-Serif" font-size="12.00"> errorColorDerivationMode</text>
<text text-anchor="middle" x="289" y="-111.4" font-family="Helvetica,sans-Serif" font-size="12.00">errorFillColorDerivationMode</text>
<text text-anchor="middle" x="289" y="-98.4" font-family="Helvetica,sans-Serif" font-size="12.00">fillColorDerivationMode</text>
<text text-anchor="middle" x="289" y="-85.4" font-family="Helvetica,sans-Serif" font-size="12.00">graphColorDerivationMode</text>
<text text-anchor="middle" x="289" y="-72.4" font-family="Helvetica,sans-Serif" font-size="12.00">symbolFillColorDerivationMode</text>
</g>
<!-- Node17&#45;&gt;Node14 -->
<g id="edge18" class="edge">
<title>Node17&#45;&gt;Node14</title>
<path fill="none" stroke="#9a32cd" stroke-dasharray="5,2" d="M1045.3,-5.89C1131.13,0.15 1258.73,-0.74 1360,-43 1405.3,-61.9 1447.09,-104.59 1464.92,-124.46"/>
<polygon fill="#9a32cd" stroke="#9a32cd" points="1045.01,-2.4 1035.3,-6.63 1045.54,-9.38 1045.01,-2.4"/>
<text text-anchor="middle" x="1148.5" y="-14.4" font-family="Helvetica,sans-Serif" font-size="12.00"> barchartStyle</text>
</g>
<!-- Node18&#45;&gt;Node14 -->
<g id="edge20" class="edge">
<title>Node18&#45;&gt;Node14</title>
<path fill="none" stroke="#9a32cd" stroke-dasharray="5,2" d="M1042.96,-195.79C1126.64,-194.2 1252.37,-188.34 1360,-169 1389.48,-163.7 1422.13,-153.5 1444.91,-145.65"/>
<polygon fill="#9a32cd" stroke="#9a32cd" points="1042.66,-192.3 1032.72,-195.97 1042.78,-199.3 1042.66,-192.3"/>
<text text-anchor="middle" x="1148.5" y="-199.4" font-family="Helvetica,sans-Serif" font-size="12.00"> impulseStyle</text>
</g>
<!-- Node19&#45;&gt;Node14 -->
<g id="edge22" class="edge">
<title>Node19&#45;&gt;Node14</title>
<path fill="none" stroke="#9a32cd" stroke-dasharray="5,2" d="M854.53,-120.72C975.03,-131.16 1182.06,-145.68 1360,-141 1373.57,-140.64 1388.04,-140.05 1401.96,-139.37"/>
<polygon fill="#9a32cd" stroke="#9a32cd" points="854.48,-117.2 844.22,-119.82 853.87,-124.17 854.48,-117.2"/>
<text text-anchor="middle" x="1148.5" y="-145.4" font-family="Helvetica,sans-Serif" font-size="12.00"> geometricStyle</text>
</g>
<!-- Node20 -->
<g id="node20" class="node">
<title>Node20</title>
<g id="a_node20"><a xlink:href="class_j_k_q_t_annotations_specific_style_properties.html" target="_top" xlink:title="Support Class for JKQTBasePlotter, which summarizes all properties that define the visual styling of ...">
<polygon fill="white" stroke="#666666" points="1244,-119 1053,-119 1053,-85 1244,-85 1244,-119"/>
<text text-anchor="start" x="1061" y="-105.4" font-family="Helvetica,sans-Serif" font-size="12.00">JKQTAnnotationsSpecificStyle</text>
<text text-anchor="middle" x="1148.5" y="-92.4" font-family="Helvetica,sans-Serif" font-size="12.00">Properties</text>
</a>
</g>
</g>
<!-- Node19&#45;&gt;Node20 -->
<g id="edge25" class="edge">
<title>Node19&#45;&gt;Node20</title>
<path fill="none" stroke="#63b8ff" d="M854.07,-108.69C915.27,-107.3 992.83,-105.53 1052.84,-104.16"/>
<polygon fill="#63b8ff" stroke="#63b8ff" points="853.92,-105.2 844,-108.92 854.08,-112.19 853.92,-105.2"/>
</g>
<!-- Node20&#45;&gt;Node14 -->
<g id="edge24" class="edge">
<title>Node20&#45;&gt;Node14</title>
<path fill="none" stroke="#9a32cd" stroke-dasharray="5,2" d="M1254.39,-112.67C1302.57,-117.57 1358.51,-123.25 1401.86,-127.66"/>
<polygon fill="#9a32cd" stroke="#9a32cd" points="1254.53,-109.16 1244.23,-111.63 1253.83,-116.13 1254.53,-109.16"/>
<text text-anchor="middle" x="1311" y="-127.4" font-family="Helvetica,sans-Serif" font-size="12.00"> annotationStyle</text>
</g>
<!-- Node21&#45;&gt;Node8 -->
<g id="edge26" class="edge">
<title>Node21&#45;&gt;Node8</title>
<path fill="none" stroke="#9a32cd" stroke-dasharray="5,2" d="M1876.21,-442.79C1923.26,-435.4 1988.86,-425.11 2035.25,-417.83"/>
<polygon fill="#9a32cd" stroke="#9a32cd" points="1875.51,-439.35 1866.17,-444.36 1876.59,-446.27 1875.51,-439.35"/>
<text text-anchor="middle" x="1954.5" y="-441.4" font-family="Helvetica,sans-Serif" font-size="12.00"> mathText</text>
</g>
<!-- Node22 -->
<g id="node22" class="node">
<title>Node22</title>
<g id="a_node22"><a xlink:href="class_j_k_q_t_math_text_node.html" target="_top" xlink:title="subclass representing one node in the syntax tree">
<polygon fill="white" stroke="#666666" points="2158,-502.5 2027,-502.5 2027,-481.5 2158,-481.5 2158,-502.5"/>
<text text-anchor="middle" x="2092.5" y="-488.9" font-family="Helvetica,sans-Serif" font-size="12.00">JKQTMathTextNode</text>
</a>
</g>
</g>
<!-- Node21&#45;&gt;Node22 -->
<g id="edge29" class="edge">
<title>Node21&#45;&gt;Node22</title>
<path fill="none" stroke="#9a32cd" stroke-dasharray="5,2" d="M1853.2,-466.02C1869.12,-471.66 1888.24,-477.62 1906,-481 1945.62,-488.53 1990.77,-491.33 2026.61,-492.23"/>
<polygon fill="#9a32cd" stroke="#9a32cd" points="1854.35,-462.71 1843.75,-462.58 1851.95,-469.29 1854.35,-462.71"/>
<text text-anchor="middle" x="1954.5" y="-494.4" font-family="Helvetica,sans-Serif" font-size="12.00"> parentMathText</text>
</g>
<!-- Node22&#45;&gt;Node21 -->
<g id="edge28" class="edge">
<title>Node22&#45;&gt;Node21</title>
<path fill="none" stroke="#9a32cd" stroke-dasharray="5,2" d="M2041.84,-478.67C2034.84,-476.77 2027.74,-474.84 2021,-473 2012.99,-470.81 2011.17,-469.47 2003,-468 1957.03,-459.71 1903.86,-455.68 1866.26,-453.74"/>
<polygon fill="#9a32cd" stroke="#9a32cd" points="2041.39,-482.17 2051.96,-481.4 2043.22,-475.42 2041.39,-482.17"/>
<text text-anchor="middle" x="1954.5" y="-471.4" font-family="Helvetica,sans-Serif" font-size="12.00"> parsedNode</text>
</g>
<!-- Node22&#45;&gt;Node22 -->
<g id="edge30" class="edge">
<title>Node22&#45;&gt;Node22</title>
<path fill="none" stroke="#9a32cd" stroke-dasharray="5,2" d="M2067.07,-512.07C2069.03,-516.91 2077.51,-520.5 2092.5,-520.5 2116.49,-520.5 2123.8,-511.31 2114.43,-502.52"/>
<polygon fill="#9a32cd" stroke="#9a32cd" points="2070.41,-513.12 2070.57,-502.52 2063.84,-510.71 2070.41,-513.12"/>
<text text-anchor="middle" x="2092.5" y="-523.9" font-family="Helvetica,sans-Serif" font-size="12.00"> parentNode</text>
</g>
<!-- Node23&#45;&gt;Node8 -->
<g id="edge31" class="edge">
<title>Node23&#45;&gt;Node8</title>
<path fill="none" stroke="#9a32cd" stroke-dasharray="5,2" d="M2348.07,-326.38C2299.81,-321.37 2235.41,-320.3 2182,-339 2147.98,-350.91 2117.14,-381.86 2102.49,-398.33"/>
<polygon fill="#9a32cd" stroke="#9a32cd" points="2347.78,-329.87 2358.11,-327.5 2348.56,-322.91 2347.78,-329.87"/>
<text text-anchor="middle" x="2238.5" y="-342.4" font-family="Helvetica,sans-Serif" font-size="12.00"> m_plotsModel</text>
</g>
<!-- Node24 -->
<g id="node24" class="node">
<title>Node24</title>
<g id="a_node24"><a xlink:title=" ">
<polygon fill="white" stroke="#666666" points="2164,-290.5 2021,-290.5 2021,-269.5 2164,-269.5 2164,-290.5"/>
<text text-anchor="middle" x="2092.5" y="-276.9" font-family="Helvetica,sans-Serif" font-size="12.00">QAbstractTableModel</text>
</a>
</g>
</g>
<!-- Node24&#45;&gt;Node23 -->
<g id="edge32" class="edge">
<title>Node24&#45;&gt;Node23</title>
<path fill="none" stroke="#63b8ff" d="M2174.33,-280.64C2211.42,-282.2 2255.77,-285.86 2295,-294 2331.14,-301.5 2371.06,-316.97 2395.72,-327.42"/>
<polygon fill="#63b8ff" stroke="#63b8ff" points="2174.2,-277.13 2164.07,-280.25 2173.94,-284.13 2174.2,-277.13"/>
</g>
<!-- Node25 -->
<g id="node25" class="node">
<title>Node25</title>
<g id="a_node25"><a xlink:href="class_j_k_q_t_p_horizontal_axis.html" target="_top" xlink:title="implements a horizontal axis, based on JKQTPCoordinateAxis (for most of documentation: see JKQTPCoord...">
<polygon fill="white" stroke="#666666" points="2996,-528.5 2859,-528.5 2859,-507.5 2996,-507.5 2996,-528.5"/>
<text text-anchor="middle" x="2927.5" y="-514.9" font-family="Helvetica,sans-Serif" font-size="12.00">JKQTPHorizontalAxis</text>
</a>
</g>
</g>
<!-- Node25&#45;&gt;Node8 -->
<g id="edge34" class="edge">
<title>Node25&#45;&gt;Node8</title>
<path fill="none" stroke="#9a32cd" stroke-dasharray="5,2" d="M2848.78,-517.44C2683.85,-515.47 2303.94,-506.54 2182,-466 2151.82,-455.97 2121.78,-433.24 2105.64,-419.71"/>
<polygon fill="#9a32cd" stroke="#9a32cd" points="2848.82,-520.94 2858.85,-517.56 2848.9,-513.94 2848.82,-520.94"/>
<text text-anchor="middle" x="2563.5" y="-513.4" font-family="Helvetica,sans-Serif" font-size="12.00"> xAxis</text>
</g>
<!-- Node38 -->
<g id="node38" class="node">
<title>Node38</title>
<g id="a_node38"><a xlink:href="class_j_k_q_t_p_horizontal_independent_axis.html" target="_top" xlink:title="implements a position&#45;indipendent horizontal axis, based on JKQTPCoordinateAxis (for most of document...">
<polygon fill="white" stroke="#666666" points="3246,-528.5 3033,-528.5 3033,-507.5 3246,-507.5 3246,-528.5"/>
<text text-anchor="middle" x="3139.5" y="-514.9" font-family="Helvetica,sans-Serif" font-size="12.00">JKQTPHorizontalIndependentAxis</text>
</a>
</g>
</g>
<!-- Node25&#45;&gt;Node38 -->
<g id="edge56" class="edge">
<title>Node25&#45;&gt;Node38</title>
<path fill="none" stroke="#63b8ff" d="M3006.17,-518C3014.87,-518 3023.83,-518 3032.8,-518"/>
<polygon fill="#63b8ff" stroke="#63b8ff" points="3006.1,-514.5 2996.1,-518 3006.1,-521.5 3006.1,-514.5"/>
</g>
<!-- Node26 -->
<g id="node26" class="node">
<title>Node26</title>
<g id="a_node26"><a xlink:href="class_j_k_q_t_p_horizontal_axis_base.html" target="_top" xlink:title="base class for horizontal axes, based on JKQTPCoordinateAxis (for most of documentation: see JKQTPCoo...">
<polygon fill="white" stroke="#666666" points="2766,-589.5 2599,-589.5 2599,-568.5 2766,-568.5 2766,-589.5"/>
<text text-anchor="middle" x="2682.5" y="-575.9" font-family="Helvetica,sans-Serif" font-size="12.00">JKQTPHorizontalAxisBase</text>
</a>
</g>
</g>
<!-- Node26&#45;&gt;Node25 -->
<g id="edge35" class="edge">
<title>Node26&#45;&gt;Node25</title>
<path fill="none" stroke="#63b8ff" d="M2740.26,-566.16C2748.89,-564.14 2757.69,-562.04 2766,-560 2807.67,-549.75 2855.21,-537.2 2887.66,-528.51"/>
<polygon fill="#63b8ff" stroke="#63b8ff" points="2739.19,-562.82 2730.24,-568.49 2740.77,-569.63 2739.19,-562.82"/>
</g>
<!-- Node27&#45;&gt;Node26 -->
<g id="edge36" class="edge">
<title>Node27&#45;&gt;Node26</title>
<path fill="none" stroke="#63b8ff" d="M2501.79,-567.25C2532.62,-569.27 2567.85,-571.57 2598.89,-573.6"/>
<polygon fill="#63b8ff" stroke="#63b8ff" points="2501.72,-563.74 2491.52,-566.58 2501.27,-570.72 2501.72,-563.74"/>
</g>
<!-- Node29 -->
<g id="node29" class="node">
<title>Node29</title>
<g id="a_node29"><a xlink:href="class_j_k_q_t_p_vertical_axis_base.html" target="_top" xlink:title="base class for vertical axes, based on JKQTPCoordinateAxis (for most of documentation: see JKQTPCoord...">
<polygon fill="white" stroke="#666666" points="2758,-550.5 2607,-550.5 2607,-529.5 2758,-529.5 2758,-550.5"/>
<text text-anchor="middle" x="2682.5" y="-536.9" font-family="Helvetica,sans-Serif" font-size="12.00">JKQTPVerticalAxisBase</text>
</a>
</g>
</g>
<!-- Node27&#45;&gt;Node29 -->
<g id="edge42" class="edge">
<title>Node27&#45;&gt;Node29</title>
<path fill="none" stroke="#63b8ff" d="M2501.73,-555.21C2535.23,-552.38 2573.92,-549.1 2606.8,-546.32"/>
<polygon fill="#63b8ff" stroke="#63b8ff" points="2501.19,-551.74 2491.52,-556.08 2501.78,-558.72 2501.19,-551.74"/>
</g>
<!-- Node28 -->
<g id="node28" class="node">
<title>Node28</title>
<g id="a_node28"><a xlink:href="class_j_k_q_t_p_vertical_axis.html" target="_top" xlink:title="implements a vertical axis for use as primary, secondary, ... axis of a JKQTPBasePlotter,...">
<polygon fill="white" stroke="#666666" points="2988.5,-480.5 2866.5,-480.5 2866.5,-459.5 2988.5,-459.5 2988.5,-480.5"/>
<text text-anchor="middle" x="2927.5" y="-466.9" font-family="Helvetica,sans-Serif" font-size="12.00">JKQTPVerticalAxis</text>
</a>
</g>
</g>
<!-- Node28&#45;&gt;Node8 -->
<g id="edge40" class="edge">
<title>Node28&#45;&gt;Node8</title>
<path fill="none" stroke="#9a32cd" stroke-dasharray="5,2" d="M2856.11,-468.76C2676.76,-465.52 2214.45,-456.47 2182,-449 2156.2,-443.06 2128.76,-429.36 2111.4,-419.65"/>
<polygon fill="#9a32cd" stroke="#9a32cd" points="2856.17,-472.27 2866.23,-468.95 2856.29,-465.27 2856.17,-472.27"/>
<text text-anchor="middle" x="2563.5" y="-466.4" font-family="Helvetica,sans-Serif" font-size="12.00"> yAxis</text>
</g>
<!-- Node29&#45;&gt;Node28 -->
<g id="edge41" class="edge">
<title>Node29&#45;&gt;Node28</title>
<path fill="none" stroke="#63b8ff" d="M2729.98,-526.61C2776.55,-513.2 2847.26,-492.83 2889.96,-480.53"/>
<polygon fill="#63b8ff" stroke="#63b8ff" points="2728.78,-523.31 2720.14,-529.44 2730.72,-530.04 2728.78,-523.31"/>
</g>
<!-- Node37 -->
<g id="node37" class="node">
<title>Node37</title>
<g id="a_node37"><a xlink:href="class_j_k_q_t_p_vertical_independent_axis.html" target="_top" xlink:title="implements a position&#45;indipendent vertical axis, based on JKQTPCoordinateAxis (for most of documentat...">
<polygon fill="white" stroke="#666666" points="3238,-573.5 3041,-573.5 3041,-552.5 3238,-552.5 3238,-573.5"/>
<text text-anchor="middle" x="3139.5" y="-559.9" font-family="Helvetica,sans-Serif" font-size="12.00">JKQTPVerticalIndependentAxis</text>
</a>
</g>
</g>
<!-- Node29&#45;&gt;Node37 -->
<g id="edge54" class="edge">
<title>Node29&#45;&gt;Node37</title>
<path fill="none" stroke="#63b8ff" d="M2768.3,-544.29C2845.59,-548.19 2959.71,-553.96 3040.79,-558.06"/>
<polygon fill="#63b8ff" stroke="#63b8ff" points="2768.29,-540.78 2758.12,-543.77 2767.94,-547.77 2768.29,-540.78"/>
</g>
<!-- Node30 -->
<g id="node30" class="node">
<title>Node30</title>
<g id="a_node30"><a xlink:href="class_j_k_q_t_p_datastore.html" target="_top" xlink:title="This class manages data columns (with entries of type double ), used by JKQTPlotter/JKQTBasePlotter t...">
<polygon fill="white" stroke="#666666" points="1872,-249.5 1761,-249.5 1761,-228.5 1872,-228.5 1872,-249.5"/>
<text text-anchor="middle" x="1816.5" y="-235.9" font-family="Helvetica,sans-Serif" font-size="12.00">JKQTPDatastore</text>
</a>
</g>
</g>
<!-- Node30&#45;&gt;Node8 -->
<g id="edge43" class="edge">
<title>Node30&#45;&gt;Node8</title>
<path fill="none" stroke="#9a32cd" stroke-dasharray="5,2" d="M1882.03,-251.89C1919.84,-261.7 1967.07,-278.05 2003,-304 2040.49,-331.08 2071.99,-377.42 2085.04,-398.27"/>
<polygon fill="#9a32cd" stroke="#9a32cd" points="1882.69,-248.44 1872.14,-249.41 1880.99,-255.23 1882.69,-248.44"/>
<text text-anchor="middle" x="1954.5" y="-307.4" font-family="Helvetica,sans-Serif" font-size="12.00"> datastore</text>
</g>
<!-- Node32 -->
<g id="node32" class="node">
<title>Node32</title>
<g id="a_node32"><a xlink:href="class_j_k_q_t_p_column.html" target="_top" xlink:title="internally stores information about one data column. See JKQTPDatastore for more information.">
<polygon fill="white" stroke="#666666" points="2141.5,-250.5 2043.5,-250.5 2043.5,-229.5 2141.5,-229.5 2141.5,-250.5"/>
<text text-anchor="middle" x="2092.5" y="-236.9" font-family="Helvetica,sans-Serif" font-size="12.00">JKQTPColumn</text>
</a>
</g>
</g>
<!-- Node30&#45;&gt;Node32 -->
<g id="edge46" class="edge">
<title>Node30&#45;&gt;Node32</title>
<path fill="none" stroke="#9a32cd" stroke-dasharray="5,2" d="M1882.54,-239.24C1931.87,-239.42 1998.58,-239.66 2043.22,-239.82"/>
<polygon fill="#9a32cd" stroke="#9a32cd" points="1882.3,-235.74 1872.29,-239.2 1882.28,-242.74 1882.3,-235.74"/>
<text text-anchor="middle" x="1954.5" y="-243.4" font-family="Helvetica,sans-Serif" font-size="12.00"> datastore</text>
</g>
<!-- Node31 -->
<g id="node31" class="node">
<title>Node31</title>
<g id="a_node31"><a xlink:title=" ">
<polygon fill="white" stroke="#666666" points="2528,-208.5 2313,-208.5 2313,-187.5 2528,-187.5 2528,-208.5"/>
<text text-anchor="middle" x="2420.5" y="-194.9" font-family="Helvetica,sans-Serif" font-size="12.00">std::unique_ptr&lt; JKQTPColumn &gt;</text>
</a>
</g>
</g>
<!-- Node31&#45;&gt;Node30 -->
<g id="edge44" class="edge">
<title>Node31&#45;&gt;Node30</title>
<path fill="none" stroke="#9a32cd" stroke-dasharray="5,2" d="M2302.68,-196.55C2223.13,-196.56 2115.52,-198.54 2021,-207 1970.06,-211.56 1912.53,-221.01 1871.67,-228.46"/>
<polygon fill="#9a32cd" stroke="#9a32cd" points="2302.72,-200.05 2312.73,-196.56 2302.73,-193.05 2302.72,-200.05"/>
<text text-anchor="middle" x="2092.5" y="-210.4" font-family="Helvetica,sans-Serif" font-size="12.00"> m_invalidColumn</text>
</g>
<!-- Node32&#45;&gt;Node31 -->
<g id="edge45" class="edge">
<title>Node32&#45;&gt;Node31</title>
<path fill="none" stroke="#9a32cd" stroke-dasharray="5,2" d="M2151.64,-232.51C2203.51,-225.83 2280.02,-215.97 2338,-208.5"/>
<polygon fill="#9a32cd" stroke="#9a32cd" points="2151.07,-229.05 2141.6,-233.8 2151.97,-236 2151.07,-229.05"/>
<text text-anchor="middle" x="2238.5" y="-231.4" font-family="Helvetica,sans-Serif" font-size="12.00"> ptr</text>
</g>
<!-- Node33 -->
<g id="node33" class="node">
<title>Node33</title>
<g id="a_node33"><a xlink:title=" ">
<polygon fill="white" stroke="#666666" points="2162.5,-161.5 2022.5,-161.5 2022.5,-140.5 2162.5,-140.5 2162.5,-161.5"/>
<text text-anchor="middle" x="2092.5" y="-147.9" font-family="Helvetica,sans-Serif" font-size="12.00">std::unique_ptr&lt; T &gt;</text>
</a>
</g>
</g>
<!-- Node33&#45;&gt;Node31 -->
<g id="edge47" class="edge">
<title>Node33&#45;&gt;Node31</title>
<path fill="none" stroke="orange" stroke-dasharray="5,2" d="M2173.04,-156.78C2210.21,-160.02 2255.01,-164.7 2295,-171 2322.42,-175.32 2352.88,-181.89 2376.8,-187.47"/>
<polygon fill="orange" stroke="orange" points="2173.02,-153.26 2162.76,-155.9 2172.43,-160.24 2173.02,-153.26"/>
<text text-anchor="middle" x="2238.5" y="-174.4" font-family="Helvetica,sans-Serif" font-size="12.00"> &lt; JKQTPColumn &gt;</text>
</g>
<!-- Node34 -->
<g id="node34" class="node">
<title>Node34</title>
<g id="a_node34"><a xlink:title=" ">
<polygon fill="white" stroke="#666666" points="1831,-161.5 1802,-161.5 1802,-140.5 1831,-140.5 1831,-161.5"/>
<text text-anchor="middle" x="1816.5" y="-147.9" font-family="Helvetica,sans-Serif" font-size="12.00">T</text>
</a>
</g>
</g>
<!-- Node34&#45;&gt;Node33 -->
<g id="edge48" class="edge">
<title>Node34&#45;&gt;Node33</title>
<path fill="none" stroke="#9a32cd" stroke-dasharray="5,2" d="M1841.17,-151C1881.06,-151 1963.14,-151 2022.46,-151"/>
<polygon fill="#9a32cd" stroke="#9a32cd" points="1841.09,-147.5 1831.09,-151 1841.09,-154.5 1841.09,-147.5"/>
<text text-anchor="middle" x="1954.5" y="-154.4" font-family="Helvetica,sans-Serif" font-size="12.00"> ptr</text>
</g>
<!-- Node35 -->
<g id="node35" class="node">
<title>Node35</title>
<g id="a_node35"><a xlink:href="class_j_k_q_t_p_color_palette_with_modifier_style_and_tools_mixin.html" target="_top" xlink:title="if a class is derived from this class, it may use color bars that have 2 axes (one &quot;data&quot;/color axis ...">
<polygon fill="white" stroke="#666666" points="3847,-523 3647,-523 3647,-489 3847,-489 3847,-523"/>
<text text-anchor="start" x="3655" y="-509.4" font-family="Helvetica,sans-Serif" font-size="12.00">JKQTPColorPaletteWithModifier</text>
<text text-anchor="middle" x="3747" y="-496.4" font-family="Helvetica,sans-Serif" font-size="12.00">StyleAndToolsMixin</text>
</a>
</g>
</g>
<!-- Node35&#45;&gt;Node2 -->
<g id="edge50" class="edge">
<title>Node35&#45;&gt;Node2</title>
<path fill="none" stroke="#63b8ff" d="M3803.92,-485.34C3847.69,-469.18 3906.78,-447.35 3941.39,-434.57"/>
<polygon fill="#63b8ff" stroke="#63b8ff" points="3802.44,-482.16 3794.27,-488.91 3804.86,-488.73 3802.44,-482.16"/>
</g>
<!-- Node36&#45;&gt;Node35 -->
<g id="edge51" class="edge">
<title>Node36&#45;&gt;Node35</title>
<path fill="none" stroke="#63b8ff" d="M3620.35,-482.44C3631.97,-484.62 3643.79,-486.84 3655.29,-488.99"/>
<polygon fill="#63b8ff" stroke="#63b8ff" points="3620.68,-478.94 3610.21,-480.54 3619.39,-485.82 3620.68,-478.94"/>
</g>
<!-- Node37&#45;&gt;Node35 -->
<g id="edge57" class="edge">
<title>Node37&#45;&gt;Node35</title>
<path fill="none" stroke="#9a32cd" stroke-dasharray="5,2" d="M3248.55,-558.1C3343.9,-553.08 3486.51,-543.88 3610,-529 3623.79,-527.34 3638.31,-525.25 3652.53,-523.01"/>
<polygon fill="#9a32cd" stroke="#9a32cd" points="3248.13,-554.62 3238.32,-558.63 3248.49,-561.61 3248.13,-554.62"/>
<text text-anchor="middle" x="3521" y="-548.4" font-family="Helvetica,sans-Serif" font-size="12.00"> modifierColorBarTopAxis</text>
</g>
<!-- Node37&#45;&gt;Node36 -->
<g id="edge53" class="edge">
<title>Node37&#45;&gt;Node36</title>
<path fill="none" stroke="#9a32cd" stroke-dasharray="5,2" d="M3196.09,-550.17C3212.22,-546.35 3229.83,-542.1 3246,-538 3319.56,-519.36 3403.77,-496.36 3459.2,-481"/>
<polygon fill="#9a32cd" stroke="#9a32cd" points="3195.21,-546.78 3186.27,-552.48 3196.81,-553.6 3195.21,-546.78"/>
<text text-anchor="middle" x="3339" y="-535.4" font-family="Helvetica,sans-Serif" font-size="12.00"> colorBarRightAxis</text>
</g>
<!-- Node38&#45;&gt;Node35 -->
<g id="edge58" class="edge">
<title>Node38&#45;&gt;Node35</title>
<path fill="none" stroke="#9a32cd" stroke-dasharray="5,2" d="M3256.4,-515.7C3369.54,-513.46 3539.85,-510.09 3646.87,-507.96"/>
<polygon fill="#9a32cd" stroke="#9a32cd" points="3256.24,-512.21 3246.32,-515.9 3256.38,-519.2 3256.24,-512.21"/>
<text text-anchor="middle" x="3521" y="-515.4" font-family="Helvetica,sans-Serif" font-size="12.00"> modifierColorBarRightAxis</text>
</g>
<!-- Node38&#45;&gt;Node36 -->
<g id="edge55" class="edge">
<title>Node38&#45;&gt;Node36</title>
<path fill="none" stroke="#9a32cd" stroke-dasharray="5,2" d="M3165.64,-501.85C3189.77,-487.38 3227.79,-467.21 3264,-459 3318.84,-446.57 3381.99,-447.65 3431.85,-451.92"/>
<polygon fill="#9a32cd" stroke="#9a32cd" points="3163.5,-499.06 3156.81,-507.27 3167.16,-505.02 3163.5,-499.06"/>
<text text-anchor="middle" x="3339" y="-462.4" font-family="Helvetica,sans-Serif" font-size="12.00"> colorBarTopAxis</text>
</g>
<!-- Node39 -->
<g id="node39" class="node">
<title>Node39</title>
<g id="a_node39"><a xlink:href="class_j_k_q_t_p_graph_line_style_mixin.html" target="_top" xlink:title="This Mix&#45;In class provides setter/getter methods, storage and other facilities for the graph line sty...">
<polygon fill="white" stroke="#666666" points="4058,-395.5 3884,-395.5 3884,-374.5 4058,-374.5 4058,-395.5"/>
<text text-anchor="middle" x="3971" y="-381.9" font-family="Helvetica,sans-Serif" font-size="12.00">JKQTPGraphLineStyleMixin</text>
</a>
</g>
</g>
<!-- Node39&#45;&gt;Node1 -->
<g id="edge59" class="edge">
<title>Node39&#45;&gt;Node1</title>
<path fill="none" stroke="#63b8ff" d="M4068.28,-391.3C4077.28,-391.89 4086.23,-392.47 4094.77,-393.03"/>
<polygon fill="#63b8ff" stroke="#63b8ff" points="4068.32,-387.79 4058.11,-390.63 4067.86,-394.78 4068.32,-387.79"/>
</g>
</g>
</svg>
