<?xml version="1.0" encoding="UTF-8" standalone="no"?>
<!DOCTYPE svg PUBLIC "-//W3C//DTD SVG 1.1//EN"
 "http://www.w3.org/Graphics/SVG/1.1/DTD/svg11.dtd">
<!-- Generated by graphviz version 2.43.0 (0)
 -->
<!-- Title: JKQTPDatastoreModel Pages: 1 -->
<svg width="573pt" height="172pt"
 viewBox="0.00 0.00 572.50 172.00" xmlns="http://www.w3.org/2000/svg" xmlns:xlink="http://www.w3.org/1999/xlink">
<g id="graph0" class="graph" transform="scale(1 1) rotate(0) translate(4 168)">
<title>JKQTPDatastoreModel</title>
<!-- Node1 -->
<g id="node1" class="node">
<title>Node1</title>
<g id="a_node1"><a xlink:title="QAbstractTableModel descendent that allows to view data in a JKQTPDatastore.">
<polygon fill="#bfbfbf" stroke="black" points="0,-71.5 0,-92.5 147,-92.5 147,-71.5 0,-71.5"/>
<text text-anchor="middle" x="73.5" y="-78.9" font-family="Helvetica,sans-Serif" font-size="12.00">JKQTPDatastoreModel</text>
</a>
</g>
</g>
<!-- Node2 -->
<g id="node2" class="node">
<title>Node2</title>
<g id="a_node2"><a xlink:title=" ">
<polygon fill="none" stroke="black" points="0,-142.5 0,-163.5 143,-163.5 143,-142.5 0,-142.5"/>
<text text-anchor="middle" x="71.5" y="-149.9" font-family="Helvetica,sans-Serif" font-size="12.00">QAbstractTableModel</text>
</a>
</g>
</g>
<!-- Node2&#45;&gt;Node1 -->
<g id="edge1" class="edge">
<title>Node2&#45;&gt;Node1</title>
<path fill="none" stroke="midnightblue" d="M72.08,-132.09C72.45,-119.08 72.93,-102.68 73.22,-92.51"/>
<polygon fill="midnightblue" stroke="midnightblue" points="68.57,-132.31 71.78,-142.41 75.57,-132.51 68.57,-132.31"/>
</g>
<!-- Node3 -->
<g id="node3" class="node">
<title>Node3</title>
<g id="a_node3"><a xlink:href="class_j_k_q_t_p_datastore.html" target="_top" xlink:title="This class manages data columns (with entries of type double ), used by JKQTPlotter/JKQTBasePlotter t...">
<polygon fill="none" stroke="black" points="161,-142.5 161,-163.5 272,-163.5 272,-142.5 161,-142.5"/>
<text text-anchor="middle" x="216.5" y="-149.9" font-family="Helvetica,sans-Serif" font-size="12.00">JKQTPDatastore</text>
</a>
</g>
</g>
<!-- Node3&#45;&gt;Node1 -->
<g id="edge2" class="edge">
<title>Node3&#45;&gt;Node1</title>
<path fill="none" stroke="#9a32cd" stroke-dasharray="5,2" d="M183.61,-138.42C173.26,-133.99 161.84,-128.93 151.5,-124 130.24,-113.85 106.33,-101.08 90.65,-92.51"/>
<polygon fill="#9a32cd" stroke="#9a32cd" points="182.57,-141.78 193.14,-142.45 185.3,-135.33 182.57,-141.78"/>
<text text-anchor="middle" x="182" y="-114.4" font-family="Helvetica,sans-Serif" font-size="12.00"> datastore</text>
</g>
<!-- Node5 -->
<g id="node5" class="node">
<title>Node5</title>
<g id="a_node5"><a xlink:href="class_j_k_q_t_p_column.html" target="_top" xlink:title="internally stores information about one data column. See JKQTPDatastore for more information.">
<polygon fill="none" stroke="black" points="166.5,-71.5 166.5,-92.5 264.5,-92.5 264.5,-71.5 166.5,-71.5"/>
<text text-anchor="middle" x="215.5" y="-78.9" font-family="Helvetica,sans-Serif" font-size="12.00">JKQTPColumn</text>
</a>
</g>
</g>
<!-- Node3&#45;&gt;Node5 -->
<g id="edge5" class="edge">
<title>Node3&#45;&gt;Node5</title>
<path fill="none" stroke="#9a32cd" stroke-dasharray="5,2" d="M216.21,-132.09C216.02,-119.08 215.79,-102.68 215.64,-92.51"/>
<polygon fill="#9a32cd" stroke="#9a32cd" points="212.72,-132.46 216.36,-142.41 219.72,-132.36 212.72,-132.46"/>
<text text-anchor="middle" x="247" y="-114.4" font-family="Helvetica,sans-Serif" font-size="12.00"> datastore</text>
</g>
<!-- Node4 -->
<g id="node4" class="node">
<title>Node4</title>
<g id="a_node4"><a xlink:title=" ">
<polygon fill="none" stroke="black" points="193,-0.5 193,-21.5 408,-21.5 408,-0.5 193,-0.5"/>
<text text-anchor="middle" x="300.5" y="-7.9" font-family="Helvetica,sans-Serif" font-size="12.00">std::unique_ptr&lt; JKQTPColumn &gt;</text>
</a>
</g>
</g>
<!-- Node4&#45;&gt;Node3 -->
<g id="edge3" class="edge">
<title>Node4&#45;&gt;Node3</title>
<path fill="none" stroke="#9a32cd" stroke-dasharray="5,2" d="M302.48,-31.74C303.83,-56.04 302.43,-97.36 281.5,-124 274.89,-132.41 265.27,-138.33 255.45,-142.49"/>
<polygon fill="#9a32cd" stroke="#9a32cd" points="305.96,-31.3 301.7,-21.6 298.98,-31.83 305.96,-31.3"/>
<text text-anchor="middle" x="354.5" y="-78.9" font-family="Helvetica,sans-Serif" font-size="12.00"> m_invalidColumn</text>
</g>
<!-- Node5&#45;&gt;Node4 -->
<g id="edge4" class="edge">
<title>Node5&#45;&gt;Node4</title>
<path fill="none" stroke="#9a32cd" stroke-dasharray="5,2" d="M234.36,-64.95C243.42,-57.31 254.45,-48.11 264.5,-40 272.14,-33.83 280.83,-27.07 287.75,-21.74"/>
<polygon fill="#9a32cd" stroke="#9a32cd" points="232.07,-62.31 226.69,-71.44 236.59,-67.65 232.07,-62.31"/>
<text text-anchor="middle" x="275.5" y="-43.4" font-family="Helvetica,sans-Serif" font-size="12.00"> ptr</text>
</g>
<!-- Node6 -->
<g id="node6" class="node">
<title>Node6</title>
<g id="a_node6"><a xlink:title=" ">
<polygon fill="none" stroke="black" points="424.5,-71.5 424.5,-92.5 564.5,-92.5 564.5,-71.5 424.5,-71.5"/>
<text text-anchor="middle" x="494.5" y="-78.9" font-family="Helvetica,sans-Serif" font-size="12.00">std::unique_ptr&lt; T &gt;</text>
</a>
</g>
</g>
<!-- Node6&#45;&gt;Node4 -->
<g id="edge6" class="edge">
<title>Node6&#45;&gt;Node4</title>
<path fill="none" stroke="orange" stroke-dasharray="5,2" d="M457.85,-67.96C419.79,-54.43 361.16,-33.57 327.25,-21.51"/>
<polygon fill="orange" stroke="orange" points="456.93,-71.35 467.53,-71.41 459.28,-64.76 456.93,-71.35"/>
<text text-anchor="middle" x="472" y="-43.4" font-family="Helvetica,sans-Serif" font-size="12.00"> &lt; JKQTPColumn &gt;</text>
</g>
<!-- Node7 -->
<g id="node7" class="node">
<title>Node7</title>
<g id="a_node7"><a xlink:title=" ">
<polygon fill="none" stroke="black" points="480,-142.5 480,-163.5 509,-163.5 509,-142.5 480,-142.5"/>
<text text-anchor="middle" x="494.5" y="-149.9" font-family="Helvetica,sans-Serif" font-size="12.00">T</text>
</a>
</g>
</g>
<!-- Node7&#45;&gt;Node6 -->
<g id="edge7" class="edge">
<title>Node7&#45;&gt;Node6</title>
<path fill="none" stroke="#9a32cd" stroke-dasharray="5,2" d="M494.5,-132.09C494.5,-119.08 494.5,-102.68 494.5,-92.51"/>
<polygon fill="#9a32cd" stroke="#9a32cd" points="491,-132.41 494.5,-142.41 498,-132.41 491,-132.41"/>
<text text-anchor="middle" x="505.5" y="-114.4" font-family="Helvetica,sans-Serif" font-size="12.00"> ptr</text>
</g>
</g>
</svg>
