<?xml version="1.0" encoding="UTF-8" standalone="no"?>
<!DOCTYPE svg PUBLIC "-//W3C//DTD SVG 1.1//EN"
 "http://www.w3.org/Graphics/SVG/1.1/DTD/svg11.dtd">
<!-- Generated by graphviz version 2.43.0 (0)
 -->
<!-- Title: JKQTMathTextFracNode Pages: 1 -->
<svg width="487pt" height="220pt"
 viewBox="0.00 0.00 487.00 220.00" xmlns="http://www.w3.org/2000/svg" xmlns:xlink="http://www.w3.org/1999/xlink">
<g id="graph0" class="graph" transform="scale(1 1) rotate(0) translate(4 216)">
<title>JKQTMathTextFracNode</title>
<!-- Node1 -->
<g id="node1" class="node">
<title>Node1</title>
<g id="a_node1"><a xlink:title="subclass representing a \frac node">
<polygon fill="#999999" stroke="#666666" points="171.5,-21 15.5,-21 15.5,0 171.5,0 171.5,-21"/>
<text text-anchor="middle" x="93.5" y="-7.4" font-family="Helvetica,sans-Serif" font-size="12.00">JKQTMathTextFracNode</text>
</a>
</g>
</g>
<!-- Node2 -->
<g id="node2" class="node">
<title>Node2</title>
<g id="a_node2"><a xlink:href="class_j_k_q_t_math_text_dual_child_node.html" target="_top" xlink:title="subclass representing a node in the syntax tree, that has two children">
<polygon fill="white" stroke="#666666" points="187,-79 0,-79 0,-58 187,-58 187,-79"/>
<text text-anchor="middle" x="93.5" y="-65.4" font-family="Helvetica,sans-Serif" font-size="12.00">JKQTMathTextDualChildNode</text>
</a>
</g>
</g>
<!-- Node2&#45;&gt;Node1 -->
<g id="edge1" class="edge">
<title>Node2&#45;&gt;Node1</title>
<path fill="none" stroke="#63b8ff" d="M93.5,-47.66C93.5,-38.66 93.5,-28.42 93.5,-21.14"/>
<polygon fill="#63b8ff" stroke="#63b8ff" points="90,-47.75 93.5,-57.75 97,-47.75 90,-47.75"/>
</g>
<!-- Node3 -->
<g id="node3" class="node">
<title>Node3</title>
<g id="a_node3"><a xlink:href="class_j_k_q_t_math_text_multi_child_node.html" target="_top" xlink:title="subclass representing a node in the syntax tree, that has two children">
<polygon fill="white" stroke="#666666" points="295.5,-139.5 107.5,-139.5 107.5,-118.5 295.5,-118.5 295.5,-139.5"/>
<text text-anchor="middle" x="201.5" y="-125.9" font-family="Helvetica,sans-Serif" font-size="12.00">JKQTMathTextMultiChildNode</text>
</a>
</g>
</g>
<!-- Node3&#45;&gt;Node2 -->
<g id="edge2" class="edge">
<title>Node3&#45;&gt;Node2</title>
<path fill="none" stroke="#63b8ff" d="M174.83,-113.56C155.06,-102.84 128.64,-88.54 111.36,-79.17"/>
<polygon fill="#63b8ff" stroke="#63b8ff" points="173.21,-116.65 183.67,-118.34 176.54,-110.5 173.21,-116.65"/>
</g>
<!-- Node4 -->
<g id="node4" class="node">
<title>Node4</title>
<g id="a_node4"><a xlink:href="class_j_k_q_t_math_text_node.html" target="_top" xlink:title="subclass representing one node in the syntax tree">
<polygon fill="white" stroke="#666666" points="284,-212 153,-212 153,-191 284,-191 284,-212"/>
<text text-anchor="middle" x="218.5" y="-198.4" font-family="Helvetica,sans-Serif" font-size="12.00">JKQTMathTextNode</text>
</a>
</g>
</g>
<!-- Node4&#45;&gt;Node2 -->
<g id="edge8" class="edge">
<title>Node4&#45;&gt;Node2</title>
<path fill="none" stroke="#9a32cd" stroke-dasharray="5,2" d="M142.63,-191.82C111.21,-184.06 77.69,-169.45 58.5,-142 44.08,-121.38 67.24,-93.91 82.27,-79.42"/>
<polygon fill="#9a32cd" stroke="#9a32cd" points="142.21,-195.32 152.74,-194.11 143.76,-188.49 142.21,-195.32"/>
<text text-anchor="middle" x="78.5" y="-132.4" font-family="Helvetica,sans-Serif" font-size="12.00"> child1</text>
<text text-anchor="middle" x="78.5" y="-119.4" font-family="Helvetica,sans-Serif" font-size="12.00">child2</text>
</g>
<!-- Node4&#45;&gt;Node3 -->
<g id="edge3" class="edge">
<title>Node4&#45;&gt;Node3</title>
<path fill="none" stroke="#63b8ff" d="M213.77,-180.88C210.55,-167.51 206.42,-150.39 203.87,-139.81"/>
<polygon fill="#63b8ff" stroke="#63b8ff" points="210.46,-182.09 216.21,-190.99 217.27,-180.45 210.46,-182.09"/>
</g>
<!-- Node4&#45;&gt;Node4 -->
<g id="edge7" class="edge">
<title>Node4&#45;&gt;Node4</title>
<path fill="none" stroke="#9a32cd" stroke-dasharray="5,2" d="M294.52,-205.94C299.19,-204.89 302,-203.41 302,-201.5 302,-198.45 294.81,-196.49 284.31,-195.63"/>
<polygon fill="#9a32cd" stroke="#9a32cd" points="293.73,-202.52 284.31,-207.37 294.7,-209.45 293.73,-202.52"/>
<text text-anchor="middle" x="339.5" y="-198.4" font-family="Helvetica,sans-Serif" font-size="12.00"> parentNode</text>
</g>
<!-- Node5 -->
<g id="node5" class="node">
<title>Node5</title>
<g id="a_node5"><a xlink:href="class_j_k_q_t_math_text.html" target="_top" xlink:title="this class parses a mathematical markup string and can then draw the contained text/equation onto a Q...">
<polygon fill="white" stroke="#666666" points="413,-139.5 314,-139.5 314,-118.5 413,-118.5 413,-139.5"/>
<text text-anchor="middle" x="363.5" y="-125.9" font-family="Helvetica,sans-Serif" font-size="12.00">JKQTMathText</text>
</a>
</g>
</g>
<!-- Node4&#45;&gt;Node5 -->
<g id="edge6" class="edge">
<title>Node4&#45;&gt;Node5</title>
<path fill="none" stroke="#9a32cd" stroke-dasharray="5,2" d="M220.65,-180.82C222.42,-173.35 225.65,-165.36 231.5,-160 234.76,-157.01 279.81,-147.17 316.38,-139.56"/>
<polygon fill="#9a32cd" stroke="#9a32cd" points="217.19,-180.26 218.98,-190.7 224.09,-181.43 217.19,-180.26"/>
<text text-anchor="middle" x="270" y="-163.4" font-family="Helvetica,sans-Serif" font-size="12.00"> parsedNode</text>
</g>
<!-- Node5&#45;&gt;Node4 -->
<g id="edge4" class="edge">
<title>Node5&#45;&gt;Node4</title>
<path fill="none" stroke="#9a32cd" stroke-dasharray="5,2" d="M345.5,-146.55C333.84,-157 319.55,-169.22 312.5,-173 297.97,-180.8 280.95,-186.64 265.42,-190.88"/>
<polygon fill="#9a32cd" stroke="#9a32cd" points="347.98,-149.03 353.04,-139.72 343.28,-143.84 347.98,-149.03"/>
<text text-anchor="middle" x="378" y="-163.4" font-family="Helvetica,sans-Serif" font-size="12.00"> parentMathText</text>
</g>
<!-- Node6 -->
<g id="node6" class="node">
<title>Node6</title>
<g id="a_node6"><a xlink:title=" ">
<polygon fill="white" stroke="#666666" points="479,-212 414,-212 414,-191 479,-191 479,-212"/>
<text text-anchor="middle" x="446.5" y="-198.4" font-family="Helvetica,sans-Serif" font-size="12.00">QObject</text>
</a>
</g>
</g>
<!-- Node6&#45;&gt;Node5 -->
<g id="edge5" class="edge">
<title>Node6&#45;&gt;Node5</title>
<path fill="none" stroke="#63b8ff" d="M443.16,-180.8C441.1,-173.55 437.8,-165.72 432.5,-160 423.89,-150.7 411.9,-144.14 400.33,-139.58"/>
<polygon fill="#63b8ff" stroke="#63b8ff" points="439.77,-181.69 445.37,-190.69 446.61,-180.17 439.77,-181.69"/>
</g>
</g>
</svg>
