<?xml version="1.0" encoding="UTF-8" standalone="no"?>
<!DOCTYPE svg PUBLIC "-//W3C//DTD SVG 1.1//EN"
 "http://www.w3.org/Graphics/SVG/1.1/DTD/svg11.dtd">
<!-- Generated by graphviz version 2.43.0 (0)
 -->
<!-- Title: JKQTMathTextDualChildNode Pages: 1 -->
<svg width="188pt" height="204pt"
 viewBox="0.00 0.00 188.00 204.00" xmlns="http://www.w3.org/2000/svg" xmlns:xlink="http://www.w3.org/1999/xlink">
<g id="graph0" class="graph" transform="scale(1 1) rotate(0) translate(4 200)">
<title>JKQTMathTextDualChildNode</title>
<!-- Node1 -->
<g id="node1" class="node">
<title>Node1</title>
<g id="a_node1"><a xlink:title="subclass representing a node in the syntax tree, that has two children">
<polygon fill="#bfbfbf" stroke="black" points="0.5,-58.5 0.5,-79.5 179.5,-79.5 179.5,-58.5 0.5,-58.5"/>
<text text-anchor="middle" x="90" y="-65.9" font-family="FreeSans" font-size="12.00">JKQTMathTextDualChildNode</text>
</a>
</g>
</g>
<!-- Node4 -->
<g id="node4" class="node">
<title>Node4</title>
<g id="a_node4"><a xlink:href="class_j_k_q_t_math_text_frac_node.html" target="_top" xlink:title="subclass representing a \frac node">
<polygon fill="none" stroke="black" points="14,-0.5 14,-21.5 166,-21.5 166,-0.5 14,-0.5"/>
<text text-anchor="middle" x="90" y="-7.9" font-family="FreeSans" font-size="12.00">JKQTMathTextFracNode</text>
</a>
</g>
</g>
<!-- Node1&#45;&gt;Node4 -->
<g id="edge3" class="edge">
<title>Node1&#45;&gt;Node4</title>
<path fill="none" stroke="midnightblue" d="M90,-48.16C90,-39.16 90,-28.92 90,-21.64"/>
<polygon fill="midnightblue" stroke="midnightblue" points="86.5,-48.25 90,-58.25 93.5,-48.25 86.5,-48.25"/>
</g>
<!-- Node2 -->
<g id="node2" class="node">
<title>Node2</title>
<g id="a_node2"><a xlink:href="class_j_k_q_t_math_text_multi_child_node.html" target="_top" xlink:title="subclass representing a node in the syntax tree, that has two children">
<polygon fill="none" stroke="black" points="0,-116.5 0,-137.5 180,-137.5 180,-116.5 0,-116.5"/>
<text text-anchor="middle" x="90" y="-123.9" font-family="FreeSans" font-size="12.00">JKQTMathTextMultiChildNode</text>
</a>
</g>
</g>
<!-- Node2&#45;&gt;Node1 -->
<g id="edge1" class="edge">
<title>Node2&#45;&gt;Node1</title>
<path fill="none" stroke="midnightblue" d="M90,-106.16C90,-97.16 90,-86.92 90,-79.64"/>
<polygon fill="midnightblue" stroke="midnightblue" points="86.5,-106.25 90,-116.25 93.5,-106.25 86.5,-106.25"/>
</g>
<!-- Node3 -->
<g id="node3" class="node">
<title>Node3</title>
<g id="a_node3"><a xlink:href="class_j_k_q_t_math_text_node.html" target="_top" xlink:title="subclass representing one node in the syntax tree">
<polygon fill="none" stroke="black" points="26,-174.5 26,-195.5 154,-195.5 154,-174.5 26,-174.5"/>
<text text-anchor="middle" x="90" y="-181.9" font-family="FreeSans" font-size="12.00">JKQTMathTextNode</text>
</a>
</g>
</g>
<!-- Node3&#45;&gt;Node2 -->
<g id="edge2" class="edge">
<title>Node3&#45;&gt;Node2</title>
<path fill="none" stroke="midnightblue" d="M90,-164.16C90,-155.16 90,-144.92 90,-137.64"/>
<polygon fill="midnightblue" stroke="midnightblue" points="86.5,-164.25 90,-174.25 93.5,-164.25 86.5,-164.25"/>
</g>
</g>
</svg>
