<?xml version="1.0" encoding="UTF-8" standalone="no"?>
<!DOCTYPE svg PUBLIC "-//W3C//DTD SVG 1.1//EN"
 "http://www.w3.org/Graphics/SVG/1.1/DTD/svg11.dtd">
<!-- Generated by graphviz version 2.43.0 (0)
 -->
<!-- Title: JKQTMathTextTextNode Pages: 1 -->
<svg width="306pt" height="114pt"
 viewBox="0.00 0.00 305.50 114.00" xmlns="http://www.w3.org/2000/svg" xmlns:xlink="http://www.w3.org/1999/xlink">
<g id="graph0" class="graph" transform="scale(1 1) rotate(0) translate(4 110)">
<title>JKQTMathTextTextNode</title>
<!-- Node1 -->
<g id="node1" class="node">
<title>Node1</title>
<g id="a_node1"><a xlink:title="subclass representing one text node in the syntax tree">
<polygon fill="#bfbfbf" stroke="black" points="0,-0.5 0,-21.5 151,-21.5 151,-0.5 0,-0.5"/>
<text text-anchor="middle" x="75.5" y="-7.9" font-family="FreeSans" font-size="12.00">JKQTMathTextTextNode</text>
</a>
</g>
</g>
<!-- Node2 -->
<g id="node2" class="node">
<title>Node2</title>
<g id="a_node2"><a xlink:href="class_j_k_q_t_math_text_node.html" target="_top" xlink:title="subclass representing one node in the syntax tree">
<polygon fill="none" stroke="black" points="47.5,-84.5 47.5,-105.5 175.5,-105.5 175.5,-84.5 47.5,-84.5"/>
<text text-anchor="middle" x="111.5" y="-91.9" font-family="FreeSans" font-size="12.00">JKQTMathTextNode</text>
</a>
</g>
</g>
<!-- Node2&#45;&gt;Node1 -->
<g id="edge1" class="edge">
<title>Node2&#45;&gt;Node1</title>
<path fill="none" stroke="midnightblue" d="M95.87,-76.32C93.49,-73.04 91.25,-69.53 89.5,-66 82.28,-51.42 78.51,-32.72 76.77,-21.59"/>
<polygon fill="midnightblue" stroke="midnightblue" points="93.28,-78.69 102.26,-84.32 98.75,-74.32 93.28,-78.69"/>
</g>
<!-- Node3 -->
<g id="node3" class="node">
<title>Node3</title>
<g id="a_node3"><a xlink:href="class_j_k_q_t_math_text.html" target="_top" xlink:title="this class parses a LaTeX string and can then draw the contained text/equation onto a QPainter">
<polygon fill="none" stroke="black" points="169.5,-0.5 169.5,-21.5 267.5,-21.5 267.5,-0.5 169.5,-0.5"/>
<text text-anchor="middle" x="218.5" y="-7.9" font-family="FreeSans" font-size="12.00">JKQTMathText</text>
</a>
</g>
</g>
<!-- Node2&#45;&gt;Node3 -->
<g id="edge4" class="edge">
<title>Node2&#45;&gt;Node3</title>
<path fill="none" stroke="#9a32cd" stroke-dasharray="5,2" d="M104.61,-74.73C101.9,-63.48 100.99,-49.66 108.5,-40 112.54,-34.81 142.28,-27.42 169.82,-21.53"/>
<polygon fill="#9a32cd" stroke="#9a32cd" points="101.32,-75.92 107.54,-84.49 108.02,-73.91 101.32,-75.92"/>
<text text-anchor="middle" x="148.5" y="-56.4" font-family="FreeSans" font-size="12.00"> parsedNode</text>
<text text-anchor="middle" x="148.5" y="-43.4" font-family="FreeSans" font-size="12.00">unparsedNode</text>
</g>
<!-- Node3&#45;&gt;Node2 -->
<g id="edge2" class="edge">
<title>Node3&#45;&gt;Node2</title>
<path fill="none" stroke="#9a32cd" stroke-dasharray="5,2" d="M213.3,-31.39C209.32,-42.86 202.73,-56.89 192.5,-66 183.05,-74.41 170.95,-80.32 159,-84.47"/>
<polygon fill="#9a32cd" stroke="#9a32cd" points="216.66,-32.37 216.26,-21.78 209.97,-30.31 216.66,-32.37"/>
<text text-anchor="middle" x="229" y="-49.9" font-family="FreeSans" font-size="12.00"> parent</text>
</g>
<!-- Node4 -->
<g id="node4" class="node">
<title>Node4</title>
<g id="a_node4"><a xlink:title=" ">
<polygon fill="none" stroke="black" points="235.5,-84.5 235.5,-105.5 297.5,-105.5 297.5,-84.5 235.5,-84.5"/>
<text text-anchor="middle" x="266.5" y="-91.9" font-family="FreeSans" font-size="12.00">QObject</text>
</a>
</g>
</g>
<!-- Node4&#45;&gt;Node3 -->
<g id="edge3" class="edge">
<title>Node4&#45;&gt;Node3</title>
<path fill="none" stroke="midnightblue" d="M264.35,-73.99C262.48,-63.26 258.99,-50.18 252.5,-40 247.81,-32.65 240.56,-26.29 233.95,-21.5"/>
<polygon fill="midnightblue" stroke="midnightblue" points="260.92,-74.69 265.78,-84.11 267.85,-73.72 260.92,-74.69"/>
</g>
</g>
</svg>
