<?xml version="1.0" encoding="UTF-8" standalone="no"?>
<!DOCTYPE svg PUBLIC "-//W3C//DTD SVG 1.1//EN"
 "http://www.w3.org/Graphics/SVG/1.1/DTD/svg11.dtd">
<!-- Generated by graphviz version 2.43.0 (0)
 -->
<!-- Title: JKQTMathTextNoopNode Pages: 1 -->
<svg width="241pt" height="143pt"
 viewBox="0.00 0.00 241.00 143.00" xmlns="http://www.w3.org/2000/svg" xmlns:xlink="http://www.w3.org/1999/xlink">
<g id="graph0" class="graph" transform="scale(1 1) rotate(0) translate(4 139)">
<title>JKQTMathTextNoopNode</title>
<!-- Node1 -->
<g id="node1" class="node">
<title>Node1</title>
<g id="a_node1"><a xlink:title="subclass representing a node that outputs nothing">
<polygon fill="#999999" stroke="#666666" points="197.5,-21 35.5,-21 35.5,0 197.5,0 197.5,-21"/>
<text text-anchor="middle" x="116.5" y="-7.4" font-family="Helvetica,sans-Serif" font-size="12.00">JKQTMathTextNoopNode</text>
</a>
</g>
</g>
<!-- Node2 -->
<g id="node2" class="node">
<title>Node2</title>
<g id="a_node2"><a xlink:href="class_j_k_q_t_math_text_non_drawing_base_node.html" target="_top" xlink:title="base class for all derived classes that do not draw anything">
<polygon fill="white" stroke="#666666" points="233,-78 0,-78 0,-57 233,-57 233,-78"/>
<text text-anchor="middle" x="116.5" y="-64.4" font-family="Helvetica,sans-Serif" font-size="12.00">JKQTMathTextNonDrawingBaseNode</text>
</a>
</g>
</g>
<!-- Node2&#45;&gt;Node1 -->
<g id="edge1" class="edge">
<title>Node2&#45;&gt;Node1</title>
<path fill="none" stroke="#63b8ff" d="M116.5,-46.86C116.5,-38.2 116.5,-28.42 116.5,-21.34"/>
<polygon fill="#63b8ff" stroke="#63b8ff" points="113,-46.92 116.5,-56.92 120,-46.92 113,-46.92"/>
</g>
<!-- Node3 -->
<g id="node3" class="node">
<title>Node3</title>
<g id="a_node3"><a xlink:href="class_j_k_q_t_math_text_node.html" target="_top" xlink:title="subclass representing one node in the syntax tree">
<polygon fill="white" stroke="#666666" points="182,-135 51,-135 51,-114 182,-114 182,-135"/>
<text text-anchor="middle" x="116.5" y="-121.4" font-family="Helvetica,sans-Serif" font-size="12.00">JKQTMathTextNode</text>
</a>
</g>
</g>
<!-- Node3&#45;&gt;Node2 -->
<g id="edge2" class="edge">
<title>Node3&#45;&gt;Node2</title>
<path fill="none" stroke="#63b8ff" d="M116.5,-103.86C116.5,-95.2 116.5,-85.42 116.5,-78.34"/>
<polygon fill="#63b8ff" stroke="#63b8ff" points="113,-103.92 116.5,-113.92 120,-103.92 113,-103.92"/>
</g>
</g>
</svg>
