<?xml version="1.0" encoding="UTF-8" standalone="no"?>
<!DOCTYPE svg PUBLIC "-//W3C//DTD SVG 1.1//EN"
 "http://www.w3.org/Graphics/SVG/1.1/DTD/svg11.dtd">
<!-- Generated by graphviz version 2.43.0 (0)
 -->
<!-- Title: JKQTMathTextNode Pages: 1 -->
<svg width="317pt" height="99pt"
 viewBox="0.00 0.00 317.00 99.00" xmlns="http://www.w3.org/2000/svg" xmlns:xlink="http://www.w3.org/1999/xlink">
<g id="graph0" class="graph" transform="scale(1 1) rotate(0) translate(4 95)">
<title>JKQTMathTextNode</title>
<!-- Node1 -->
<g id="node1" class="node">
<title>Node1</title>
<g id="a_node1"><a xlink:title="subclass representing one node in the syntax tree">
<polygon fill="#999999" stroke="#666666" points="131,-91 0,-91 0,-70 131,-70 131,-91"/>
<text text-anchor="middle" x="65.5" y="-77.4" font-family="Helvetica,sans-Serif" font-size="12.00">JKQTMathTextNode</text>
</a>
</g>
</g>
<!-- Node1&#45;&gt;Node1 -->
<g id="edge4" class="edge">
<title>Node1&#45;&gt;Node1</title>
<path fill="none" stroke="#9a32cd" stroke-dasharray="5,2" d="M141.52,-84.94C146.19,-83.89 149,-82.41 149,-80.5 149,-77.45 141.81,-75.49 131.31,-74.63"/>
<polygon fill="#9a32cd" stroke="#9a32cd" points="140.73,-81.52 131.31,-86.37 141.7,-88.45 140.73,-81.52"/>
<text text-anchor="middle" x="186.5" y="-77.4" font-family="Helvetica,sans-Serif" font-size="12.00"> parentNode</text>
</g>
<!-- Node2 -->
<g id="node2" class="node">
<title>Node2</title>
<g id="a_node2"><a xlink:href="class_j_k_q_t_math_text.html" target="_top" xlink:title="this class parses a mathematical markup string and can then draw the contained text/equation onto a Q...">
<polygon fill="white" stroke="#666666" points="214,-21 115,-21 115,0 214,0 214,-21"/>
<text text-anchor="middle" x="164.5" y="-7.4" font-family="Helvetica,sans-Serif" font-size="12.00">JKQTMathText</text>
</a>
</g>
</g>
<!-- Node1&#45;&gt;Node2 -->
<g id="edge3" class="edge">
<title>Node1&#45;&gt;Node2</title>
<path fill="none" stroke="#9a32cd" stroke-dasharray="5,2" d="M58.24,-59.95C56.84,-52.73 56.99,-44.87 61.5,-39 68.35,-30.08 91.9,-23.44 114.75,-18.91"/>
<polygon fill="#9a32cd" stroke="#9a32cd" points="54.94,-61.15 61.07,-69.79 61.67,-59.21 54.94,-61.15"/>
<text text-anchor="middle" x="100" y="-42.4" font-family="Helvetica,sans-Serif" font-size="12.00"> parsedNode</text>
</g>
<!-- Node2&#45;&gt;Node1 -->
<g id="edge1" class="edge">
<title>Node2&#45;&gt;Node1</title>
<path fill="none" stroke="#9a32cd" stroke-dasharray="5,2" d="M157.71,-30.44C154.18,-38.01 149.18,-46.28 142.5,-52 133.12,-60.03 121.22,-65.78 109.6,-69.87"/>
<polygon fill="#9a32cd" stroke="#9a32cd" points="160.96,-31.73 161.52,-21.15 154.48,-29.07 160.96,-31.73"/>
<text text-anchor="middle" x="201" y="-42.4" font-family="Helvetica,sans-Serif" font-size="12.00"> parentMathText</text>
</g>
<!-- Node3 -->
<g id="node3" class="node">
<title>Node3</title>
<g id="a_node3"><a xlink:title=" ">
<polygon fill="white" stroke="#666666" points="309,-91 244,-91 244,-70 309,-70 309,-91"/>
<text text-anchor="middle" x="276.5" y="-77.4" font-family="Helvetica,sans-Serif" font-size="12.00">QObject</text>
</a>
</g>
</g>
<!-- Node3&#45;&gt;Node2 -->
<g id="edge2" class="edge">
<title>Node3&#45;&gt;Node2</title>
<path fill="none" stroke="#63b8ff" d="M269.34,-60.41C265.64,-52.81 260.42,-44.56 253.5,-39 242.28,-29.98 228.11,-23.91 214.39,-19.83"/>
<polygon fill="#63b8ff" stroke="#63b8ff" points="266.19,-61.95 273.35,-69.76 272.62,-59.19 266.19,-61.95"/>
</g>
</g>
</svg>
