<?xml version="1.0" encoding="UTF-8" standalone="no"?>
<!DOCTYPE svg PUBLIC "-//W3C//DTD SVG 1.1//EN"
 "http://www.w3.org/Graphics/SVG/1.1/DTD/svg11.dtd">
<!-- Generated by graphviz version 2.43.0 (0)
 -->
<!-- Title: JKQTPVerticalAxisBase Pages: 1 -->
<svg width="3185pt" height="702pt"
 viewBox="0.00 0.00 3185.00 701.50" xmlns="http://www.w3.org/2000/svg" xmlns:xlink="http://www.w3.org/1999/xlink">
<g id="graph0" class="graph" transform="scale(1 1) rotate(0) translate(4 697.5)">
<title>JKQTPVerticalAxisBase</title>
<!-- Node1 -->
<g id="node1" class="node">
<title>Node1</title>
<g id="a_node1"><a xlink:title="base class for vertical axes, based on JKQTPCoordinateAxis (for most of documentation: see JKQTPCoord...">
<polygon fill="#999999" stroke="#666666" points="1550.5,-368 1399.5,-368 1399.5,-347 1550.5,-347 1550.5,-368"/>
<text text-anchor="middle" x="1475" y="-354.4" font-family="Helvetica,sans-Serif" font-size="12.00">JKQTPVerticalAxisBase</text>
</a>
</g>
</g>
<!-- Node24 -->
<g id="node24" class="node">
<title>Node24</title>
<g id="a_node24"><a xlink:href="class_j_k_q_t_p_vertical_axis.html" target="_top" xlink:title="implements a vertical axis for use as primary, secondary, ... axis of a JKQTPBasePlotter,...">
<polygon fill="white" stroke="#666666" points="1999,-347 1877,-347 1877,-326 1999,-326 1999,-347"/>
<text text-anchor="middle" x="1938" y="-333.4" font-family="Helvetica,sans-Serif" font-size="12.00">JKQTPVerticalAxis</text>
</a>
</g>
</g>
<!-- Node1&#45;&gt;Node24 -->
<g id="edge35" class="edge">
<title>Node1&#45;&gt;Node24</title>
<path fill="none" stroke="#63b8ff" d="M1560.66,-353.64C1652.3,-349.47 1796.13,-342.92 1876.86,-339.24"/>
<polygon fill="#63b8ff" stroke="#63b8ff" points="1560.41,-350.15 1550.58,-354.1 1560.73,-357.14 1560.41,-350.15"/>
</g>
<!-- Node2 -->
<g id="node2" class="node">
<title>Node2</title>
<g id="a_node2"><a xlink:href="class_j_k_q_t_p_coordinate_axis.html" target="_top" xlink:title="this virtual class is the base for any type of coordinate axis, to be drawn by JKQTBasePlotter.">
<polygon fill="white" stroke="#666666" points="2728.5,-421 2586.5,-421 2586.5,-400 2728.5,-400 2728.5,-421"/>
<text text-anchor="middle" x="2657.5" y="-407.4" font-family="Helvetica,sans-Serif" font-size="12.00">JKQTPCoordinateAxis</text>
</a>
</g>
</g>
<!-- Node2&#45;&gt;Node1 -->
<g id="edge1" class="edge">
<title>Node2&#45;&gt;Node1</title>
<path fill="none" stroke="#63b8ff" d="M2576.17,-409.55C2465.23,-408 2258.85,-404.29 2083,-396.5 1891,-387.99 1665.2,-371.87 1550.71,-363.26"/>
<polygon fill="#63b8ff" stroke="#63b8ff" points="2576.24,-413.05 2586.28,-409.68 2576.33,-406.05 2576.24,-413.05"/>
</g>
<!-- Node23 -->
<g id="node23" class="node">
<title>Node23</title>
<g id="a_node23"><a xlink:href="class_j_k_q_t_p_horizontal_axis_base.html" target="_top" xlink:title="base class for horizontal axes, based on JKQTPCoordinateAxis (for most of documentation: see JKQTPCoo...">
<polygon fill="white" stroke="#666666" points="3003,-405 2836,-405 2836,-384 3003,-384 3003,-405"/>
<text text-anchor="middle" x="2919.5" y="-391.4" font-family="Helvetica,sans-Serif" font-size="12.00">JKQTPHorizontalAxisBase</text>
</a>
</g>
</g>
<!-- Node2&#45;&gt;Node23 -->
<g id="edge33" class="edge">
<title>Node2&#45;&gt;Node23</title>
<path fill="none" stroke="#63b8ff" d="M2738.79,-405.56C2769.62,-403.66 2804.85,-401.49 2835.89,-399.58"/>
<polygon fill="#63b8ff" stroke="#63b8ff" points="2738.28,-402.08 2728.52,-406.19 2738.71,-409.07 2738.28,-402.08"/>
</g>
<!-- Node3 -->
<g id="node3" class="node">
<title>Node3</title>
<g id="a_node3"><a xlink:title=" ">
<polygon fill="white" stroke="#666666" points="1507.5,-650 1442.5,-650 1442.5,-629 1507.5,-629 1507.5,-650"/>
<text text-anchor="middle" x="1475" y="-636.4" font-family="Helvetica,sans-Serif" font-size="12.00">QObject</text>
</a>
</g>
</g>
<!-- Node3&#45;&gt;Node2 -->
<g id="edge2" class="edge">
<title>Node3&#45;&gt;Node2</title>
<path fill="none" stroke="#63b8ff" d="M1518.07,-641.36C1676.35,-647.86 2235.43,-666 2401,-606.5 2513.59,-566.04 2616.48,-456.26 2647.22,-421.33"/>
<polygon fill="#63b8ff" stroke="#63b8ff" points="1517.94,-637.86 1507.81,-640.94 1517.65,-644.85 1517.94,-637.86"/>
</g>
<!-- Node4 -->
<g id="node4" class="node">
<title>Node4</title>
<g id="a_node4"><a xlink:href="class_j_k_q_t_base_plotter.html" target="_top" xlink:title="base class for 2D plotter classes (used by the plotter widget JKQTPlotter)">
<polygon fill="white" stroke="#666666" points="2386.5,-322 2272.5,-322 2272.5,-301 2386.5,-301 2386.5,-322"/>
<text text-anchor="middle" x="2329.5" y="-308.4" font-family="Helvetica,sans-Serif" font-size="12.00">JKQTBasePlotter</text>
</a>
</g>
</g>
<!-- Node3&#45;&gt;Node4 -->
<g id="edge4" class="edge">
<title>Node3&#45;&gt;Node4</title>
<path fill="none" stroke="#63b8ff" d="M1517.95,-631.77C1539.44,-628 1566.06,-623.61 1590,-620.5 1625.97,-615.82 2211.36,-581.76 2240,-559.5 2260.12,-543.86 2312.34,-367.28 2325.47,-322.02"/>
<polygon fill="#63b8ff" stroke="#63b8ff" points="1517.08,-628.37 1507.85,-633.56 1518.31,-635.26 1517.08,-628.37"/>
</g>
<!-- Node17 -->
<g id="node17" class="node">
<title>Node17</title>
<g id="a_node17"><a xlink:href="class_j_k_q_t_math_text.html" target="_top" xlink:title="this class parses a mathematical markup string and can then draw the contained text/equation onto a Q...">
<polygon fill="white" stroke="#666666" points="1987.5,-556 1888.5,-556 1888.5,-535 1987.5,-535 1987.5,-556"/>
<text text-anchor="middle" x="1938" y="-542.4" font-family="Helvetica,sans-Serif" font-size="12.00">JKQTMathText</text>
</a>
</g>
</g>
<!-- Node3&#45;&gt;Node17 -->
<g id="edge23" class="edge">
<title>Node3&#45;&gt;Node17</title>
<path fill="none" stroke="#63b8ff" d="M1517.95,-638.76C1536.13,-636.55 1556.71,-631.28 1572,-619.5 1586.17,-608.58 1575.32,-593.72 1590,-583.5 1602.08,-575.09 1795.62,-557.57 1888.28,-549.6"/>
<polygon fill="#63b8ff" stroke="#63b8ff" points="1517.49,-635.29 1507.86,-639.72 1518.15,-642.26 1517.49,-635.29"/>
</g>
<!-- Node4&#45;&gt;Node2 -->
<g id="edge3" class="edge">
<title>Node4&#45;&gt;Node2</title>
<path fill="none" stroke="#9a32cd" stroke-dasharray="5,2" d="M2357.49,-326.99C2374.66,-336.31 2397.61,-347.82 2419,-355.5 2436.68,-361.84 2544.02,-385.83 2608.19,-399.95"/>
<polygon fill="#9a32cd" stroke="#9a32cd" points="2359.04,-323.84 2348.59,-322.07 2355.65,-329.97 2359.04,-323.84"/>
<text text-anchor="middle" x="2475.5" y="-384.9" font-family="Helvetica,sans-Serif" font-size="12.00"> parent</text>
</g>
<!-- Node4&#45;&gt;Node4 -->
<g id="edge42" class="edge">
<title>Node4&#45;&gt;Node4</title>
<path fill="none" stroke="#9a32cd" stroke-dasharray="5,2" d="M2302.59,-331.57C2304.67,-336.41 2313.64,-340 2329.5,-340 2354.88,-340 2362.61,-330.81 2352.7,-322.02"/>
<polygon fill="#9a32cd" stroke="#9a32cd" points="2305.95,-332.61 2306.3,-322.02 2299.42,-330.08 2305.95,-332.61"/>
<text text-anchor="middle" x="2329.5" y="-356.4" font-family="Helvetica,sans-Serif" font-size="12.00"> masterPlotterX</text>
<text text-anchor="middle" x="2329.5" y="-343.4" font-family="Helvetica,sans-Serif" font-size="12.00">masterPlotterY</text>
</g>
<!-- Node20 -->
<g id="node20" class="node">
<title>Node20</title>
<g id="a_node20"><a xlink:href="class_j_k_q_t_p_graphs_model.html" target="_top" xlink:title="data model with all plots ina JKQTBasePlotter (+ allows to switch them visible/invisible)">
<polygon fill="white" stroke="#666666" points="2723,-287 2592,-287 2592,-266 2723,-266 2723,-287"/>
<text text-anchor="middle" x="2657.5" y="-273.4" font-family="Helvetica,sans-Serif" font-size="12.00">JKQTPGraphsModel</text>
</a>
</g>
</g>
<!-- Node4&#45;&gt;Node20 -->
<g id="edge30" class="edge">
<title>Node4&#45;&gt;Node20</title>
<path fill="none" stroke="#9a32cd" stroke-dasharray="5,2" d="M2358.41,-296.04C2375.37,-287.54 2397.78,-277.86 2419,-273.5 2476.56,-261.67 2543.63,-263.94 2591.78,-268.27"/>
<polygon fill="#9a32cd" stroke="#9a32cd" points="2356.37,-293.15 2349.1,-300.86 2359.59,-299.37 2356.37,-293.15"/>
<text text-anchor="middle" x="2475.5" y="-276.9" font-family="Helvetica,sans-Serif" font-size="12.00"> m_plotter</text>
</g>
<!-- Node5 -->
<g id="node5" class="node">
<title>Node5</title>
<g id="a_node5"><a xlink:href="class_j_k_q_t_base_plotter_style.html" target="_top" xlink:title="Support Class for JKQTBasePlotter, which summarizes all properties that define the visual styling of ...">
<polygon fill="white" stroke="#666666" points="2009.5,-453 1866.5,-453 1866.5,-432 2009.5,-432 2009.5,-453"/>
<text text-anchor="middle" x="1938" y="-439.4" font-family="Helvetica,sans-Serif" font-size="12.00">JKQTBasePlotterStyle</text>
</a>
</g>
</g>
<!-- Node5&#45;&gt;Node4 -->
<g id="edge5" class="edge">
<title>Node5&#45;&gt;Node4</title>
<path fill="none" stroke="#9a32cd" stroke-dasharray="5,2" d="M1962.44,-426.22C1999.81,-400.41 2069.98,-352.46 2083,-347.5 2148.89,-322.37 2170.22,-334.74 2240,-324.5 2250.45,-322.97 2261.59,-321.33 2272.32,-319.76"/>
<polygon fill="#9a32cd" stroke="#9a32cd" points="1960.37,-423.4 1954.14,-431.97 1964.35,-429.16 1960.37,-423.4"/>
<text text-anchor="middle" x="2161.5" y="-350.9" font-family="Helvetica,sans-Serif" font-size="12.00"> plotterStyle</text>
</g>
<!-- Node6 -->
<g id="node6" class="node">
<title>Node6</title>
<g id="a_node6"><a xlink:href="class_j_k_q_t_p_key_style.html" target="_top" xlink:title="Support Class for JKQTBasePlotter, which summarizes all properties that define the visual styling of ...">
<polygon fill="white" stroke="#666666" points="1527,-407 1423,-407 1423,-386 1527,-386 1527,-407"/>
<text text-anchor="middle" x="1475" y="-393.4" font-family="Helvetica,sans-Serif" font-size="12.00">JKQTPKeyStyle</text>
</a>
</g>
</g>
<!-- Node6&#45;&gt;Node5 -->
<g id="edge6" class="edge">
<title>Node6&#45;&gt;Node5</title>
<path fill="none" stroke="#9a32cd" stroke-dasharray="5,2" d="M1537.59,-397.16C1601.64,-398.47 1704.69,-402.3 1793,-413.5 1826.9,-417.8 1864.77,-425.54 1893.16,-431.95"/>
<polygon fill="#9a32cd" stroke="#9a32cd" points="1537.33,-393.66 1527.26,-396.97 1537.2,-400.65 1537.33,-393.66"/>
<text text-anchor="middle" x="1691.5" y="-416.9" font-family="Helvetica,sans-Serif" font-size="12.00"> keyStyle</text>
</g>
<!-- Node7 -->
<g id="node7" class="node">
<title>Node7</title>
<g id="a_node7"><a xlink:href="class_j_k_q_t_p_coordinate_axis_style.html" target="_top" xlink:title="Support Class for JKQTPCoordinateAxis, which summarizes all properties that define the visual styling...">
<polygon fill="white" stroke="#666666" points="1234,-629 1063,-629 1063,-608 1234,-608 1234,-629"/>
<text text-anchor="middle" x="1148.5" y="-615.4" font-family="Helvetica,sans-Serif" font-size="12.00">JKQTPCoordinateAxisStyle</text>
</a>
</g>
</g>
<!-- Node7&#45;&gt;Node2 -->
<g id="edge51" class="edge">
<title>Node7&#45;&gt;Node2</title>
<path fill="none" stroke="#9a32cd" stroke-dasharray="5,2" d="M1192.01,-631.94C1253.55,-650.18 1371.31,-680.5 1474,-680.5 1474,-680.5 1474,-680.5 2330.5,-680.5 2496.22,-680.5 2622.93,-471 2650.78,-421.08"/>
<polygon fill="#9a32cd" stroke="#9a32cd" points="1192.86,-628.54 1182.27,-629.02 1190.84,-635.25 1192.86,-628.54"/>
<text text-anchor="middle" x="1938" y="-683.9" font-family="Helvetica,sans-Serif" font-size="12.00"> axisStyle</text>
</g>
<!-- Node7&#45;&gt;Node5 -->
<g id="edge7" class="edge">
<title>Node7&#45;&gt;Node5</title>
<path fill="none" stroke="#9a32cd" stroke-dasharray="5,2" d="M1209.93,-605.8C1267.58,-593.33 1347.46,-574.98 1360,-566.5 1371.34,-558.83 1366.44,-548.83 1378,-541.5 1452.06,-494.54 1496.02,-549.29 1572,-505.5 1582.65,-499.36 1579.16,-490.3 1590,-484.5 1602.02,-478.07 1768.24,-459.96 1866.18,-449.75"/>
<polygon fill="#9a32cd" stroke="#9a32cd" points="1208.85,-602.45 1199.81,-607.98 1210.32,-609.3 1208.85,-602.45"/>
<text text-anchor="middle" x="1475" y="-557.9" font-family="Helvetica,sans-Serif" font-size="12.00"> xAxisStyle</text>
<text text-anchor="middle" x="1475" y="-544.9" font-family="Helvetica,sans-Serif" font-size="12.00">yAxisStyle</text>
</g>
<!-- Node9 -->
<g id="node9" class="node">
<title>Node9</title>
<g id="a_node9"><a xlink:href="class_j_k_q_t_p_colorbar_coordinate_axis_style.html" target="_top" xlink:title="Support Class for JKQTPCoordinateAxis, which summarizes all properties that define the visual styling...">
<polygon fill="white" stroke="#666666" points="1572,-610.5 1378,-610.5 1378,-576.5 1572,-576.5 1572,-610.5"/>
<text text-anchor="start" x="1386" y="-596.9" font-family="Helvetica,sans-Serif" font-size="12.00">JKQTPColorbarCoordinateAxis</text>
<text text-anchor="middle" x="1475" y="-583.9" font-family="Helvetica,sans-Serif" font-size="12.00">Style</text>
</a>
</g>
</g>
<!-- Node7&#45;&gt;Node9 -->
<g id="edge10" class="edge">
<title>Node7&#45;&gt;Node9</title>
<path fill="none" stroke="#63b8ff" d="M1244.56,-611.18C1286.54,-607.94 1335.81,-604.15 1377.91,-600.9"/>
<polygon fill="#63b8ff" stroke="#63b8ff" points="1244.04,-607.71 1234.33,-611.96 1244.57,-614.69 1244.04,-607.71"/>
</g>
<!-- Node8 -->
<g id="node8" class="node">
<title>Node8</title>
<g id="a_node8"><a xlink:href="class_j_k_q_t_p_grid_style.html" target="_top" xlink:title="Support Class for JKQTPCoordinateAxis, and summarizes all properties that define the visual styling o...">
<polygon fill="white" stroke="#666666" points="805.5,-636 698.5,-636 698.5,-615 805.5,-615 805.5,-636"/>
<text text-anchor="middle" x="752" y="-622.4" font-family="Helvetica,sans-Serif" font-size="12.00">JKQTPGridStyle</text>
</a>
</g>
</g>
<!-- Node8&#45;&gt;Node7 -->
<g id="edge8" class="edge">
<title>Node8&#45;&gt;Node7</title>
<path fill="none" stroke="#9a32cd" stroke-dasharray="5,2" d="M816.18,-624.38C883.03,-623.19 988.9,-621.31 1062.92,-620"/>
<polygon fill="#9a32cd" stroke="#9a32cd" points="815.73,-620.89 805.79,-624.56 815.86,-627.89 815.73,-620.89"/>
<text text-anchor="middle" x="948.5" y="-638.9" font-family="Helvetica,sans-Serif" font-size="12.00"> majorGridStyle</text>
<text text-anchor="middle" x="948.5" y="-625.9" font-family="Helvetica,sans-Serif" font-size="12.00">minorGridStyle</text>
</g>
<!-- Node9&#45;&gt;Node5 -->
<g id="edge9" class="edge">
<title>Node9&#45;&gt;Node5</title>
<path fill="none" stroke="#9a32cd" stroke-dasharray="5,2" d="M1559.06,-571.59C1563.65,-568.9 1568.01,-565.89 1572,-562.5 1585.33,-551.18 1576.17,-538.22 1590,-527.5 1663.12,-470.83 1703.22,-503.82 1793,-481.5 1829.45,-472.44 1870.8,-461.13 1899.82,-453.03"/>
<polygon fill="#9a32cd" stroke="#9a32cd" points="1557.19,-568.62 1549.96,-576.37 1560.44,-574.82 1557.19,-568.62"/>
<text text-anchor="middle" x="1691.5" y="-543.9" font-family="Helvetica,sans-Serif" font-size="12.00"> rightColorbarAxisStyle</text>
<text text-anchor="middle" x="1691.5" y="-530.9" font-family="Helvetica,sans-Serif" font-size="12.00">topColorbarAxisStyle</text>
</g>
<!-- Node10 -->
<g id="node10" class="node">
<title>Node10</title>
<g id="a_node10"><a xlink:href="class_j_k_q_t_graphs_base_style.html" target="_top" xlink:title="Support Class for JKQTBasePlotter, which summarizes all properties that define the visual styling of ...">
<polygon fill="white" stroke="#666666" points="1548,-496 1402,-496 1402,-475 1548,-475 1548,-496"/>
<text text-anchor="middle" x="1475" y="-482.4" font-family="Helvetica,sans-Serif" font-size="12.00">JKQTGraphsBaseStyle</text>
</a>
</g>
</g>
<!-- Node10&#45;&gt;Node5 -->
<g id="edge11" class="edge">
<title>Node10&#45;&gt;Node5</title>
<path fill="none" stroke="#9a32cd" stroke-dasharray="5,2" d="M1545.14,-472C1554.46,-468.9 1563.67,-465.11 1572,-460.5 1581.63,-455.17 1579.78,-447.58 1590,-443.5 1638.4,-424.18 1779.85,-430.51 1866.49,-436.65"/>
<polygon fill="#9a32cd" stroke="#9a32cd" points="1543.94,-468.71 1535.42,-474.99 1546,-475.4 1543.94,-468.71"/>
<text text-anchor="middle" x="1691.5" y="-446.9" font-family="Helvetica,sans-Serif" font-size="12.00"> graphsStyle</text>
</g>
<!-- Node11 -->
<g id="node11" class="node">
<title>Node11</title>
<g id="a_node11"><a xlink:href="class_j_k_q_t_graphs_specific_style_properties.html" target="_top" xlink:title="Support Class for JKQTBasePlotter, which summarizes all properties that define the visual styling of ...">
<polygon fill="white" stroke="#666666" points="623,-508 399,-508 399,-487 623,-487 623,-508"/>
<text text-anchor="middle" x="511" y="-494.4" font-family="Helvetica,sans-Serif" font-size="12.00">JKQTGraphsSpecificStyleProperties</text>
</a>
</g>
</g>
<!-- Node11&#45;&gt;Node10 -->
<g id="edge12" class="edge">
<title>Node11&#45;&gt;Node10</title>
<path fill="none" stroke="#9a32cd" stroke-dasharray="5,2" d="M575.73,-509.92C601.78,-514.68 632.26,-519.83 660,-523.5 917.34,-557.51 985.74,-557.64 1244,-531.5 1295.91,-526.25 1311.38,-532.41 1360,-513.5 1368.96,-510.01 1369.06,-505.04 1378,-501.5 1385.54,-498.52 1393.63,-496.09 1401.8,-494.12"/>
<polygon fill="#9a32cd" stroke="#9a32cd" points="576.08,-506.42 565.61,-508.05 574.81,-513.31 576.08,-506.42"/>
<text text-anchor="middle" x="948.5" y="-578.9" font-family="Helvetica,sans-Serif" font-size="12.00"> boxplotStyle</text>
<text text-anchor="middle" x="948.5" y="-565.9" font-family="Helvetica,sans-Serif" font-size="12.00">defaultGraphStyle</text>
<text text-anchor="middle" x="948.5" y="-552.9" font-family="Helvetica,sans-Serif" font-size="12.00">filledStyle</text>
</g>
<!-- Node13 -->
<g id="node13" class="node">
<title>Node13</title>
<g id="a_node13"><a xlink:href="class_j_k_q_t_barchart_specific_style_properties.html" target="_top" xlink:title="Support Class for JKQTBasePlotter, which summarizes all properties that define the visual styling of ...">
<polygon fill="white" stroke="#666666" points="1035,-537.5 862,-537.5 862,-503.5 1035,-503.5 1035,-537.5"/>
<text text-anchor="start" x="870" y="-523.9" font-family="Helvetica,sans-Serif" font-size="12.00">JKQTBarchartSpecificStyle</text>
<text text-anchor="middle" x="948.5" y="-510.9" font-family="Helvetica,sans-Serif" font-size="12.00">Properties</text>
</a>
</g>
</g>
<!-- Node11&#45;&gt;Node13 -->
<g id="edge15" class="edge">
<title>Node11&#45;&gt;Node13</title>
<path fill="none" stroke="#63b8ff" d="M633.28,-504.09C635.88,-504.23 638.45,-504.36 641,-504.5 715.63,-508.47 800.48,-512.89 861.95,-516.08"/>
<polygon fill="#63b8ff" stroke="#63b8ff" points="633.35,-500.59 623.18,-503.55 632.98,-507.58 633.35,-500.59"/>
</g>
<!-- Node14 -->
<g id="node14" class="node">
<title>Node14</title>
<g id="a_node14"><a xlink:href="class_j_k_q_t_impulse_specific_style_properties.html" target="_top" xlink:title="Support Class for JKQTBasePlotter, which summarizes all properties that define the visual styling of ...">
<polygon fill="white" stroke="#666666" points="1032.5,-493.5 864.5,-493.5 864.5,-459.5 1032.5,-459.5 1032.5,-493.5"/>
<text text-anchor="start" x="872.5" y="-479.9" font-family="Helvetica,sans-Serif" font-size="12.00">JKQTImpulseSpecificStyle</text>
<text text-anchor="middle" x="948.5" y="-466.9" font-family="Helvetica,sans-Serif" font-size="12.00">Properties</text>
</a>
</g>
</g>
<!-- Node11&#45;&gt;Node14 -->
<g id="edge17" class="edge">
<title>Node11&#45;&gt;Node14</title>
<path fill="none" stroke="#63b8ff" d="M633.27,-491.65C706.83,-488.11 798.8,-483.67 864.19,-480.52"/>
<polygon fill="#63b8ff" stroke="#63b8ff" points="632.84,-488.17 623.02,-492.15 633.18,-495.16 632.84,-488.17"/>
</g>
<!-- Node15 -->
<g id="node15" class="node">
<title>Node15</title>
<g id="a_node15"><a xlink:href="class_j_k_q_t_geometric_specific_style_properties.html" target="_top" xlink:title="Support Class for JKQTBasePlotter, which summarizes all properties that define the visual styling of ...">
<polygon fill="white" stroke="#666666" points="844,-441.5 660,-441.5 660,-407.5 844,-407.5 844,-441.5"/>
<text text-anchor="start" x="668" y="-427.9" font-family="Helvetica,sans-Serif" font-size="12.00">JKQTGeometricSpecificStyle</text>
<text text-anchor="middle" x="752" y="-414.9" font-family="Helvetica,sans-Serif" font-size="12.00">Properties</text>
</a>
</g>
</g>
<!-- Node11&#45;&gt;Node15 -->
<g id="edge19" class="edge">
<title>Node11&#45;&gt;Node15</title>
<path fill="none" stroke="#63b8ff" d="M556.3,-483.97C595.52,-471.99 652.93,-454.45 695.26,-441.53"/>
<polygon fill="#63b8ff" stroke="#63b8ff" points="555.04,-480.69 546.5,-486.96 557.08,-487.39 555.04,-480.69"/>
</g>
<!-- Node12 -->
<g id="node12" class="node">
<title>Node12</title>
<g id="a_node12"><a xlink:href="struct_j_k_q_t_p_color_derivation_mode.html" target="_top" xlink:title="Specifies how a fill&#45;color is derived from a given color.">
<polygon fill="white" stroke="#666666" points="179,-508 0,-508 0,-487 179,-487 179,-508"/>
<text text-anchor="middle" x="89.5" y="-494.4" font-family="Helvetica,sans-Serif" font-size="12.00">JKQTPColorDerivationMode</text>
</a>
</g>
</g>
<!-- Node12&#45;&gt;Node11 -->
<g id="edge13" class="edge">
<title>Node12&#45;&gt;Node11</title>
<path fill="none" stroke="#9a32cd" stroke-dasharray="5,2" d="M189.53,-497.5C252.41,-497.5 333.9,-497.5 398.97,-497.5"/>
<polygon fill="#9a32cd" stroke="#9a32cd" points="189.21,-494 179.21,-497.5 189.21,-501 189.21,-494"/>
<text text-anchor="middle" x="289" y="-552.9" font-family="Helvetica,sans-Serif" font-size="12.00"> errorColorDerivationMode</text>
<text text-anchor="middle" x="289" y="-539.9" font-family="Helvetica,sans-Serif" font-size="12.00">errorFillColorDerivationMode</text>
<text text-anchor="middle" x="289" y="-526.9" font-family="Helvetica,sans-Serif" font-size="12.00">fillColorDerivationMode</text>
<text text-anchor="middle" x="289" y="-513.9" font-family="Helvetica,sans-Serif" font-size="12.00">graphColorDerivationMode</text>
<text text-anchor="middle" x="289" y="-500.9" font-family="Helvetica,sans-Serif" font-size="12.00">symbolFillColorDerivationMode</text>
</g>
<!-- Node13&#45;&gt;Node10 -->
<g id="edge14" class="edge">
<title>Node13&#45;&gt;Node10</title>
<path fill="none" stroke="#9a32cd" stroke-dasharray="5,2" d="M1045.46,-515.92C1128.7,-511.7 1252.39,-504.83 1360,-496.5 1373.58,-495.45 1388.05,-494.17 1401.97,-492.87"/>
<polygon fill="#9a32cd" stroke="#9a32cd" points="1045.07,-512.43 1035.26,-516.43 1045.43,-519.42 1045.07,-512.43"/>
<text text-anchor="middle" x="1148.5" y="-517.9" font-family="Helvetica,sans-Serif" font-size="12.00"> barchartStyle</text>
</g>
<!-- Node14&#45;&gt;Node10 -->
<g id="edge16" class="edge">
<title>Node14&#45;&gt;Node10</title>
<path fill="none" stroke="#9a32cd" stroke-dasharray="5,2" d="M1042.66,-478.1C1145.36,-479.86 1308.38,-482.66 1401.83,-484.26"/>
<polygon fill="#9a32cd" stroke="#9a32cd" points="1042.67,-474.6 1032.61,-477.93 1042.55,-481.6 1042.67,-474.6"/>
<text text-anchor="middle" x="1148.5" y="-483.9" font-family="Helvetica,sans-Serif" font-size="12.00"> impulseStyle</text>
</g>
<!-- Node15&#45;&gt;Node10 -->
<g id="edge18" class="edge">
<title>Node15&#45;&gt;Node10</title>
<path fill="none" stroke="#9a32cd" stroke-dasharray="5,2" d="M854.06,-430.87C953.38,-437.38 1109.24,-448.24 1244,-460.5 1296.9,-465.31 1356.53,-471.83 1401.81,-477"/>
<polygon fill="#9a32cd" stroke="#9a32cd" points="854.23,-427.37 844.02,-430.22 853.78,-434.36 854.23,-427.37"/>
<text text-anchor="middle" x="1148.5" y="-463.9" font-family="Helvetica,sans-Serif" font-size="12.00"> geometricStyle</text>
</g>
<!-- Node16 -->
<g id="node16" class="node">
<title>Node16</title>
<g id="a_node16"><a xlink:href="class_j_k_q_t_annotations_specific_style_properties.html" target="_top" xlink:title="Support Class for JKQTBasePlotter, which summarizes all properties that define the visual styling of ...">
<polygon fill="white" stroke="#666666" points="1244,-388.5 1053,-388.5 1053,-354.5 1244,-354.5 1244,-388.5"/>
<text text-anchor="start" x="1061" y="-374.9" font-family="Helvetica,sans-Serif" font-size="12.00">JKQTAnnotationsSpecificStyle</text>
<text text-anchor="middle" x="1148.5" y="-361.9" font-family="Helvetica,sans-Serif" font-size="12.00">Properties</text>
</a>
</g>
</g>
<!-- Node15&#45;&gt;Node16 -->
<g id="edge21" class="edge">
<title>Node15&#45;&gt;Node16</title>
<path fill="none" stroke="#63b8ff" d="M854.07,-410.92C915.27,-402.7 992.83,-392.28 1052.84,-384.22"/>
<polygon fill="#63b8ff" stroke="#63b8ff" points="853.45,-407.47 844,-412.27 854.38,-414.41 853.45,-407.47"/>
</g>
<!-- Node16&#45;&gt;Node10 -->
<g id="edge20" class="edge">
<title>Node16&#45;&gt;Node10</title>
<path fill="none" stroke="#9a32cd" stroke-dasharray="5,2" d="M1252.74,-390.39C1303.77,-400.1 1355.48,-410.69 1360,-414.5 1376.8,-428.64 1361.59,-445.92 1378,-460.5 1384.95,-466.68 1393.24,-471.36 1402,-474.9"/>
<polygon fill="#9a32cd" stroke="#9a32cd" points="1253.37,-386.94 1242.9,-388.52 1252.07,-393.82 1253.37,-386.94"/>
<text text-anchor="middle" x="1311" y="-417.9" font-family="Helvetica,sans-Serif" font-size="12.00"> annotationStyle</text>
</g>
<!-- Node17&#45;&gt;Node4 -->
<g id="edge22" class="edge">
<title>Node17&#45;&gt;Node4</title>
<path fill="none" stroke="#9a32cd" stroke-dasharray="5,2" d="M1965.22,-529.75C2039.17,-485.32 2248.09,-359.81 2310.61,-322.25"/>
<polygon fill="#9a32cd" stroke="#9a32cd" points="1963.26,-526.84 1956.49,-534.99 1966.87,-532.84 1963.26,-526.84"/>
<text text-anchor="middle" x="2161.5" y="-458.9" font-family="Helvetica,sans-Serif" font-size="12.00"> mathText</text>
</g>
<!-- Node18 -->
<g id="node18" class="node">
<title>Node18</title>
<g id="a_node18"><a xlink:href="class_j_k_q_t_math_text_node.html" target="_top" xlink:title="subclass representing one node in the syntax tree">
<polygon fill="white" stroke="#666666" points="2395,-566 2264,-566 2264,-545 2395,-545 2395,-566"/>
<text text-anchor="middle" x="2329.5" y="-552.4" font-family="Helvetica,sans-Serif" font-size="12.00">JKQTMathTextNode</text>
</a>
</g>
</g>
<!-- Node17&#45;&gt;Node18 -->
<g id="edge25" class="edge">
<title>Node17&#45;&gt;Node18</title>
<path fill="none" stroke="#9a32cd" stroke-dasharray="5,2" d="M1997.8,-557.56C2023.79,-562.3 2054.79,-567.17 2083,-569.5 2152.54,-575.26 2170.44,-574.97 2240,-569.5 2249.77,-568.73 2260.09,-567.49 2270.1,-566.06"/>
<polygon fill="#9a32cd" stroke="#9a32cd" points="1998.21,-554.07 1987.74,-555.68 1996.93,-560.95 1998.21,-554.07"/>
<text text-anchor="middle" x="2161.5" y="-576.9" font-family="Helvetica,sans-Serif" font-size="12.00"> parentMathText</text>
</g>
<!-- Node18&#45;&gt;Node17 -->
<g id="edge24" class="edge">
<title>Node18&#45;&gt;Node17</title>
<path fill="none" stroke="#9a32cd" stroke-dasharray="5,2" d="M2253.46,-553.57C2175.04,-551.56 2054.29,-548.46 1987.54,-546.75"/>
<polygon fill="#9a32cd" stroke="#9a32cd" points="2253.68,-557.08 2263.76,-553.84 2253.86,-550.08 2253.68,-557.08"/>
<text text-anchor="middle" x="2161.5" y="-555.9" font-family="Helvetica,sans-Serif" font-size="12.00"> parsedNode</text>
</g>
<!-- Node18&#45;&gt;Node18 -->
<g id="edge26" class="edge">
<title>Node18&#45;&gt;Node18</title>
<path fill="none" stroke="#9a32cd" stroke-dasharray="5,2" d="M2302.59,-575.57C2304.67,-580.41 2313.64,-584 2329.5,-584 2354.88,-584 2362.61,-574.81 2352.7,-566.02"/>
<polygon fill="#9a32cd" stroke="#9a32cd" points="2305.95,-576.61 2306.3,-566.02 2299.42,-574.08 2305.95,-576.61"/>
<text text-anchor="middle" x="2329.5" y="-587.4" font-family="Helvetica,sans-Serif" font-size="12.00"> parentNode</text>
</g>
<!-- Node19 -->
<g id="node19" class="node">
<title>Node19</title>
<g id="a_node19"><a xlink:title=" ">
<polygon fill="white" stroke="#666666" points="1188.5,-275 1108.5,-275 1108.5,-254 1188.5,-254 1188.5,-275"/>
<text text-anchor="middle" x="1148.5" y="-261.4" font-family="Helvetica,sans-Serif" font-size="12.00">std::mutex</text>
</a>
</g>
</g>
<!-- Node19&#45;&gt;Node4 -->
<g id="edge43" class="edge">
<title>Node19&#45;&gt;Node4</title>
<path fill="none" stroke="#9a32cd" stroke-dasharray="5,2" d="M1189.41,-250.78C1210.74,-243.87 1237.57,-235.84 1262,-230.5 1312.84,-219.38 1326.22,-219.77 1378,-214.5 1681.82,-183.55 1760.43,-178 2065,-200.5 2143.42,-206.29 2176.59,-180 2240,-226.5 2254.75,-237.31 2246.04,-249.67 2258,-263.5 2271.75,-279.41 2291.94,-292.43 2307.19,-300.88"/>
<polygon fill="#9a32cd" stroke="#9a32cd" points="1188.13,-247.51 1179.72,-253.96 1190.31,-254.16 1188.13,-247.51"/>
<text text-anchor="middle" x="1691.5" y="-196.9" font-family="Helvetica,sans-Serif" font-size="12.00"> globalUserSettingsMutex</text>
</g>
<!-- Node19&#45;&gt;Node17 -->
<g id="edge27" class="edge">
<title>Node19&#45;&gt;Node17</title>
<path fill="none" stroke="#9a32cd" stroke-dasharray="5,2" d="M1180.85,-279.65C1223.98,-301.39 1302.77,-344.39 1360,-394.5 1369.5,-402.82 1367.14,-410.04 1378,-416.5 1453.43,-461.39 1508.67,-392.72 1572,-453.5 1597.36,-477.83 1562.94,-508.07 1590,-530.5 1634.1,-567.06 1803.88,-557.61 1888.49,-550.31"/>
<polygon fill="#9a32cd" stroke="#9a32cd" points="1182.21,-276.42 1171.7,-275.09 1179.09,-282.68 1182.21,-276.42"/>
<text text-anchor="middle" x="1475" y="-456.9" font-family="Helvetica,sans-Serif" font-size="12.00"> s_mutex</text>
</g>
<!-- Node30 -->
<g id="node30" class="node">
<title>Node30</title>
<g id="a_node30"><a xlink:href="class_j_k_q_t_p_synchronized.html" target="_top" xlink:title=" ">
<polygon fill="white" stroke="#666666" points="2065,-295.5 1811,-295.5 1811,-261.5 2065,-261.5 2065,-295.5"/>
<text text-anchor="start" x="1819" y="-281.9" font-family="Helvetica,sans-Serif" font-size="12.00">JKQTPSynchronized&lt;</text>
<text text-anchor="middle" x="1938" y="-268.9" font-family="Helvetica,sans-Serif" font-size="12.00"> QList&lt; JKQTPPaintDeviceAdapter * &gt; &gt;</text>
</a>
</g>
</g>
<!-- Node19&#45;&gt;Node30 -->
<g id="edge45" class="edge">
<title>Node19&#45;&gt;Node30</title>
<path fill="none" stroke="#9a32cd" stroke-dasharray="5,2" d="M1198.66,-272.83C1218.31,-275.93 1241.18,-279.23 1262,-281.5 1496.81,-307.07 1557.67,-323.78 1793,-303.5 1812.59,-301.81 1833.52,-298.85 1853.18,-295.55"/>
<polygon fill="#9a32cd" stroke="#9a32cd" points="1199.13,-269.36 1188.7,-271.24 1198.03,-276.28 1199.13,-269.36"/>
<text text-anchor="middle" x="1475" y="-314.9" font-family="Helvetica,sans-Serif" font-size="12.00"> m_mutex</text>
</g>
<!-- Node31 -->
<g id="node31" class="node">
<title>Node31</title>
<g id="a_node31"><a xlink:href="class_j_k_q_t_p_synchronized.html" target="_top" xlink:title="template class that wraps any datatype and combines it with a mutex, exposes the lock()/unlock() inte...">
<polygon fill="white" stroke="#666666" points="1558.5,-275 1391.5,-275 1391.5,-254 1558.5,-254 1558.5,-275"/>
<text text-anchor="middle" x="1475" y="-261.4" font-family="Helvetica,sans-Serif" font-size="12.00">JKQTPSynchronized&lt; T &gt;</text>
</a>
</g>
</g>
<!-- Node19&#45;&gt;Node31 -->
<g id="edge47" class="edge">
<title>Node19&#45;&gt;Node31</title>
<path fill="none" stroke="#9a32cd" stroke-dasharray="5,2" d="M1198.76,-264.5C1249.85,-264.5 1330.61,-264.5 1391.46,-264.5"/>
<polygon fill="#9a32cd" stroke="#9a32cd" points="1198.64,-261 1188.64,-264.5 1198.64,-268 1198.64,-261"/>
<text text-anchor="middle" x="1311" y="-267.9" font-family="Helvetica,sans-Serif" font-size="12.00"> m_mutex</text>
</g>
<!-- Node32 -->
<g id="node32" class="node">
<title>Node32</title>
<g id="a_node32"><a xlink:href="class_j_k_q_t_p_synchronized.html" target="_top" xlink:title=" ">
<polygon fill="white" stroke="#666666" points="2059,-243.5 1817,-243.5 1817,-209.5 2059,-209.5 2059,-243.5"/>
<text text-anchor="start" x="1825" y="-229.9" font-family="Helvetica,sans-Serif" font-size="12.00">JKQTPSynchronized&lt;</text>
<text text-anchor="middle" x="1938" y="-216.9" font-family="Helvetica,sans-Serif" font-size="12.00"> QList&lt; JKQTPSaveDataAdapter * &gt; &gt;</text>
</a>
</g>
</g>
<!-- Node19&#45;&gt;Node32 -->
<g id="edge49" class="edge">
<title>Node19&#45;&gt;Node32</title>
<path fill="none" stroke="#9a32cd" stroke-dasharray="5,2" d="M1198.64,-256.42C1244.82,-249.11 1315.92,-238.59 1378,-232.5 1561.64,-214.47 1608.52,-216.66 1793,-220.5 1800.76,-220.66 1808.74,-220.87 1816.8,-221.12"/>
<polygon fill="#9a32cd" stroke="#9a32cd" points="1197.93,-252.99 1188.6,-258.02 1199.03,-259.9 1197.93,-252.99"/>
<text text-anchor="middle" x="1475" y="-235.9" font-family="Helvetica,sans-Serif" font-size="12.00"> m_mutex</text>
</g>
<!-- Node20&#45;&gt;Node4 -->
<g id="edge28" class="edge">
<title>Node20&#45;&gt;Node4</title>
<path fill="none" stroke="#9a32cd" stroke-dasharray="5,2" d="M2581.81,-285C2565.4,-286.84 2548.12,-288.75 2532,-290.5 2482.87,-295.82 2426.97,-301.63 2386.54,-305.78"/>
<polygon fill="#9a32cd" stroke="#9a32cd" points="2582.35,-288.46 2591.89,-283.87 2581.56,-281.5 2582.35,-288.46"/>
<text text-anchor="middle" x="2475.5" y="-304.9" font-family="Helvetica,sans-Serif" font-size="12.00"> m_plotsModel</text>
</g>
<!-- Node21 -->
<g id="node21" class="node">
<title>Node21</title>
<g id="a_node21"><a xlink:title=" ">
<polygon fill="white" stroke="#666666" points="2401,-254 2258,-254 2258,-233 2401,-233 2401,-254"/>
<text text-anchor="middle" x="2329.5" y="-240.4" font-family="Helvetica,sans-Serif" font-size="12.00">QAbstractTableModel</text>
</a>
</g>
</g>
<!-- Node21&#45;&gt;Node20 -->
<g id="edge29" class="edge">
<title>Node21&#45;&gt;Node20</title>
<path fill="none" stroke="#63b8ff" d="M2411.23,-247.59C2448.12,-249.85 2492.34,-253.1 2532,-257.5 2552.32,-259.75 2574.4,-262.89 2594.25,-265.97"/>
<polygon fill="#63b8ff" stroke="#63b8ff" points="2411.22,-244.08 2401.03,-246.98 2410.81,-251.07 2411.22,-244.08"/>
</g>
<!-- Node22 -->
<g id="node22" class="node">
<title>Node22</title>
<g id="a_node22"><a xlink:href="class_j_k_q_t_p_horizontal_axis.html" target="_top" xlink:title="implements a horizontal axis, based on JKQTPCoordinateAxis (for most of documentation: see JKQTPCoord...">
<polygon fill="white" stroke="#666666" points="3177,-364 3040,-364 3040,-343 3177,-343 3177,-364"/>
<text text-anchor="middle" x="3108.5" y="-350.4" font-family="Helvetica,sans-Serif" font-size="12.00">JKQTPHorizontalAxis</text>
</a>
</g>
</g>
<!-- Node22&#45;&gt;Node4 -->
<g id="edge31" class="edge">
<title>Node22&#45;&gt;Node4</title>
<path fill="none" stroke="#9a32cd" stroke-dasharray="5,2" d="M3029.47,-350.25C2901.78,-344.77 2640.23,-332.87 2419,-318.5 2408.54,-317.82 2397.39,-317.01 2386.66,-316.18"/>
<polygon fill="#9a32cd" stroke="#9a32cd" points="3029.4,-353.75 3039.55,-350.68 3029.7,-346.76 3029.4,-353.75"/>
<text text-anchor="middle" x="2800.5" y="-343.9" font-family="Helvetica,sans-Serif" font-size="12.00"> xAxis</text>
</g>
<!-- Node23&#45;&gt;Node22 -->
<g id="edge32" class="edge">
<title>Node23&#45;&gt;Node22</title>
<path fill="none" stroke="#63b8ff" d="M2978.74,-381.73C3004.69,-376.04 3034.88,-369.42 3059.51,-364.02"/>
<polygon fill="#63b8ff" stroke="#63b8ff" points="2977.68,-378.38 2968.66,-383.94 2979.17,-385.22 2977.68,-378.38"/>
</g>
<!-- Node24&#45;&gt;Node4 -->
<g id="edge34" class="edge">
<title>Node24&#45;&gt;Node4</title>
<path fill="none" stroke="#9a32cd" stroke-dasharray="5,2" d="M1997.47,-324C2023.52,-319.04 2054.66,-313.94 2083,-311.5 2147.76,-305.92 2222.48,-306.99 2272.32,-308.76"/>
<polygon fill="#9a32cd" stroke="#9a32cd" points="1996.53,-320.62 1987.39,-325.96 1997.87,-327.49 1996.53,-320.62"/>
<text text-anchor="middle" x="2161.5" y="-314.9" font-family="Helvetica,sans-Serif" font-size="12.00"> yAxis</text>
</g>
<!-- Node25 -->
<g id="node25" class="node">
<title>Node25</title>
<g id="a_node25"><a xlink:href="class_j_k_q_t_p_datastore.html" target="_top" xlink:title="This class manages data columns (with entries of type double ), used by JKQTPlotter/JKQTBasePlotter t...">
<polygon fill="white" stroke="#666666" points="1993.5,-107 1882.5,-107 1882.5,-86 1993.5,-86 1993.5,-107"/>
<text text-anchor="middle" x="1938" y="-93.4" font-family="Helvetica,sans-Serif" font-size="12.00">JKQTPDatastore</text>
</a>
</g>
</g>
<!-- Node25&#45;&gt;Node4 -->
<g id="edge36" class="edge">
<title>Node25&#45;&gt;Node4</title>
<path fill="none" stroke="#9a32cd" stroke-dasharray="5,2" d="M2003.8,-101.79C2089.74,-109.11 2231.65,-122.33 2240,-130.5 2282.64,-172.21 2226.63,-212.77 2258,-263.5 2268.51,-280.5 2287.54,-292.92 2303.18,-300.86"/>
<polygon fill="#9a32cd" stroke="#9a32cd" points="2003.87,-98.29 1993.61,-100.93 2003.28,-105.26 2003.87,-98.29"/>
<text text-anchor="middle" x="2161.5" y="-133.9" font-family="Helvetica,sans-Serif" font-size="12.00"> datastore</text>
</g>
<!-- Node27 -->
<g id="node27" class="node">
<title>Node27</title>
<g id="a_node27"><a xlink:href="class_j_k_q_t_p_column.html" target="_top" xlink:title="internally stores information about one data column. See JKQTPDatastore for more information.">
<polygon fill="white" stroke="#666666" points="2378.5,-60 2280.5,-60 2280.5,-39 2378.5,-39 2378.5,-60"/>
<text text-anchor="middle" x="2329.5" y="-46.4" font-family="Helvetica,sans-Serif" font-size="12.00">JKQTPColumn</text>
</a>
</g>
</g>
<!-- Node25&#45;&gt;Node27 -->
<g id="edge39" class="edge">
<title>Node25&#45;&gt;Node27</title>
<path fill="none" stroke="#9a32cd" stroke-dasharray="5,2" d="M1998.16,-83.97C2024.1,-78.85 2054.96,-73.26 2083,-69.5 2151.24,-60.35 2230.75,-54.8 2280.36,-51.94"/>
<polygon fill="#9a32cd" stroke="#9a32cd" points="1997.23,-80.59 1988.11,-85.98 1998.61,-87.45 1997.23,-80.59"/>
<text text-anchor="middle" x="2161.5" y="-72.9" font-family="Helvetica,sans-Serif" font-size="12.00"> datastore</text>
</g>
<!-- Node26 -->
<g id="node26" class="node">
<title>Node26</title>
<g id="a_node26"><a xlink:title=" ">
<polygon fill="white" stroke="#666666" points="2765,-60 2550,-60 2550,-39 2765,-39 2765,-60"/>
<text text-anchor="middle" x="2657.5" y="-46.4" font-family="Helvetica,sans-Serif" font-size="12.00">std::unique_ptr&lt; JKQTPColumn &gt;</text>
</a>
</g>
</g>
<!-- Node26&#45;&gt;Node25 -->
<g id="edge37" class="edge">
<title>Node26&#45;&gt;Node25</title>
<path fill="none" stroke="#9a32cd" stroke-dasharray="5,2" d="M2576.66,-61.38C2561.84,-63.3 2546.47,-65.12 2532,-66.5 2334.46,-85.37 2098.7,-92.82 1993.9,-95.36"/>
<polygon fill="#9a32cd" stroke="#9a32cd" points="2577.37,-64.81 2586.82,-60.03 2576.44,-57.87 2577.37,-64.81"/>
<text text-anchor="middle" x="2329.5" y="-87.9" font-family="Helvetica,sans-Serif" font-size="12.00"> m_invalidColumn</text>
</g>
<!-- Node27&#45;&gt;Node26 -->
<g id="edge38" class="edge">
<title>Node27&#45;&gt;Node26</title>
<path fill="none" stroke="#9a32cd" stroke-dasharray="5,2" d="M2388.69,-49.5C2433.35,-49.5 2496.24,-49.5 2549.85,-49.5"/>
<polygon fill="#9a32cd" stroke="#9a32cd" points="2388.6,-46 2378.6,-49.5 2388.6,-53 2388.6,-46"/>
<text text-anchor="middle" x="2475.5" y="-52.9" font-family="Helvetica,sans-Serif" font-size="12.00"> ptr</text>
</g>
<!-- Node28 -->
<g id="node28" class="node">
<title>Node28</title>
<g id="a_node28"><a xlink:title=" ">
<polygon fill="white" stroke="#666666" points="2399.5,-21 2259.5,-21 2259.5,0 2399.5,0 2399.5,-21"/>
<text text-anchor="middle" x="2329.5" y="-7.4" font-family="Helvetica,sans-Serif" font-size="12.00">std::unique_ptr&lt; T &gt;</text>
</a>
</g>
</g>
<!-- Node28&#45;&gt;Node26 -->
<g id="edge40" class="edge">
<title>Node28&#45;&gt;Node26</title>
<path fill="none" stroke="orange" stroke-dasharray="5,2" d="M2409.82,-18.66C2446.96,-22.61 2491.77,-27.56 2532,-32.5 2548.13,-34.48 2565.42,-36.75 2581.82,-38.97"/>
<polygon fill="orange" stroke="orange" points="2409.88,-15.15 2399.56,-17.58 2409.14,-22.11 2409.88,-15.15"/>
<text text-anchor="middle" x="2475.5" y="-35.9" font-family="Helvetica,sans-Serif" font-size="12.00"> &lt; JKQTPColumn &gt;</text>
</g>
<!-- Node29 -->
<g id="node29" class="node">
<title>Node29</title>
<g id="a_node29"><a xlink:title=" ">
<polygon fill="white" stroke="#666666" points="1952.5,-21 1923.5,-21 1923.5,0 1952.5,0 1952.5,-21"/>
<text text-anchor="middle" x="1938" y="-7.4" font-family="Helvetica,sans-Serif" font-size="12.00">T</text>
</a>
</g>
</g>
<!-- Node29&#45;&gt;Node28 -->
<g id="edge41" class="edge">
<title>Node29&#45;&gt;Node28</title>
<path fill="none" stroke="#9a32cd" stroke-dasharray="5,2" d="M1962.88,-10.5C2020.79,-10.5 2170.51,-10.5 2259.37,-10.5"/>
<polygon fill="#9a32cd" stroke="#9a32cd" points="1962.86,-7 1952.86,-10.5 1962.86,-14 1962.86,-7"/>
<text text-anchor="middle" x="2161.5" y="-13.9" font-family="Helvetica,sans-Serif" font-size="12.00"> ptr</text>
</g>
<!-- Node30&#45;&gt;Node4 -->
<g id="edge44" class="edge">
<title>Node30&#45;&gt;Node4</title>
<path fill="none" stroke="#9a32cd" stroke-dasharray="5,2" d="M2075.34,-277.52C2127.11,-278.71 2186.48,-281.95 2240,-289.5 2257.72,-292 2277.03,-296.58 2293.09,-300.91"/>
<polygon fill="#9a32cd" stroke="#9a32cd" points="2075.16,-274.02 2065.09,-277.31 2075.02,-281.01 2075.16,-274.02"/>
<text text-anchor="middle" x="2161.5" y="-292.9" font-family="Helvetica,sans-Serif" font-size="12.00"> jkqtpPaintDeviceAdapters</text>
</g>
<!-- Node31&#45;&gt;Node30 -->
<g id="edge46" class="edge">
<title>Node31&#45;&gt;Node30</title>
<path fill="none" stroke="orange" stroke-dasharray="5,2" d="M1568.74,-267.32C1638.25,-269.43 1734.16,-272.34 1810.68,-274.66"/>
<polygon fill="orange" stroke="orange" points="1568.79,-263.82 1558.68,-267.01 1568.57,-270.81 1568.79,-263.82"/>
<text text-anchor="start" x="1608" y="-289.9" font-family="Helvetica,sans-Serif" font-size="12.00"> &lt; QList&lt; JKQTPPaintDevice</text>
<text text-anchor="middle" x="1691.5" y="-276.9" font-family="Helvetica,sans-Serif" font-size="12.00">Adapter * &gt; &gt;</text>
</g>
<!-- Node31&#45;&gt;Node32 -->
<g id="edge50" class="edge">
<title>Node31&#45;&gt;Node32</title>
<path fill="none" stroke="orange" stroke-dasharray="5,2" d="M1521.88,-251.41C1542.52,-246.1 1567.3,-240.52 1590,-237.5 1664.98,-227.53 1749.84,-224.7 1816.87,-224.39"/>
<polygon fill="orange" stroke="orange" points="1520.88,-248.05 1512.11,-253.99 1522.67,-254.82 1520.88,-248.05"/>
<text text-anchor="start" x="1590" y="-253.9" font-family="Helvetica,sans-Serif" font-size="12.00"> &lt; QList&lt; JKQTPSaveDataAdapter</text>
<text text-anchor="middle" x="1691.5" y="-240.9" font-family="Helvetica,sans-Serif" font-size="12.00"> * &gt; &gt;</text>
</g>
<!-- Node32&#45;&gt;Node4 -->
<g id="edge48" class="edge">
<title>Node32&#45;&gt;Node4</title>
<path fill="none" stroke="#9a32cd" stroke-dasharray="5,2" d="M2069.63,-229.61C2123.46,-233.86 2185.79,-242.68 2240,-260.5 2268.3,-269.8 2297.57,-288.86 2314.35,-300.86"/>
<polygon fill="#9a32cd" stroke="#9a32cd" points="2069.57,-226.09 2059.33,-228.84 2069.05,-233.07 2069.57,-226.09"/>
<text text-anchor="middle" x="2161.5" y="-263.9" font-family="Helvetica,sans-Serif" font-size="12.00"> jkqtpSaveDataAdapters</text>
</g>
</g>
</svg>
