<?xml version="1.0" encoding="UTF-8" standalone="no"?>
<!DOCTYPE svg PUBLIC "-//W3C//DTD SVG 1.1//EN"
 "http://www.w3.org/Graphics/SVG/1.1/DTD/svg11.dtd">
<!-- Generated by graphviz version 2.43.0 (0)
 -->
<!-- Title: JKQTMathTextFracNode Pages: 1 -->
<svg width="344pt" height="114pt"
 viewBox="0.00 0.00 344.00 114.00" xmlns="http://www.w3.org/2000/svg" xmlns:xlink="http://www.w3.org/1999/xlink">
<g id="graph0" class="graph" transform="scale(1 1) rotate(0) translate(4 110)">
<title>JKQTMathTextFracNode</title>
<!-- Node1 -->
<g id="node1" class="node">
<title>Node1</title>
<g id="a_node1"><a xlink:title="subclass representing a \frac node">
<polygon fill="#bfbfbf" stroke="black" points="0,-0.5 0,-21.5 152,-21.5 152,-0.5 0,-0.5"/>
<text text-anchor="middle" x="76" y="-7.9" font-family="FreeSans" font-size="12.00">JKQTMathTextFracNode</text>
</a>
</g>
</g>
<!-- Node2 -->
<g id="node2" class="node">
<title>Node2</title>
<g id="a_node2"><a xlink:href="class_j_k_q_t_math_text_node.html" target="_top" xlink:title="subclass representing one node in the syntax tree">
<polygon fill="none" stroke="black" points="57,-84.5 57,-105.5 185,-105.5 185,-84.5 57,-84.5"/>
<text text-anchor="middle" x="121" y="-91.9" font-family="FreeSans" font-size="12.00">JKQTMathTextNode</text>
</a>
</g>
</g>
<!-- Node2&#45;&gt;Node1 -->
<g id="edge1" class="edge">
<title>Node2&#45;&gt;Node1</title>
<path fill="none" stroke="midnightblue" d="M85.25,-79.09C80.35,-75.52 75.99,-71.2 73,-66 65.05,-52.16 68.98,-32.89 72.52,-21.5"/>
<polygon fill="midnightblue" stroke="midnightblue" points="83.5,-82.12 93.85,-84.4 87.18,-76.17 83.5,-82.12"/>
</g>
<!-- Node2&#45;&gt;Node1 -->
<g id="edge5" class="edge">
<title>Node2&#45;&gt;Node1</title>
<path fill="none" stroke="#9a32cd" stroke-dasharray="5,2" d="M101.83,-77.38C98.56,-73.87 95.43,-70.01 93,-66 84.44,-51.88 79.79,-33.04 77.61,-21.75"/>
<polygon fill="#9a32cd" stroke="#9a32cd" points="99.43,-79.93 109.03,-84.41 104.32,-74.92 99.43,-79.93"/>
<text text-anchor="middle" x="110.5" y="-56.4" font-family="FreeSans" font-size="12.00"> child1</text>
<text text-anchor="middle" x="110.5" y="-43.4" font-family="FreeSans" font-size="12.00">child2</text>
</g>
<!-- Node3 -->
<g id="node3" class="node">
<title>Node3</title>
<g id="a_node3"><a xlink:href="class_j_k_q_t_math_text.html" target="_top" xlink:title="this class parses a LaTeX string and can then draw the contained text/equation onto a QPainter">
<polygon fill="none" stroke="black" points="204,-0.5 204,-21.5 302,-21.5 302,-0.5 204,-0.5"/>
<text text-anchor="middle" x="253" y="-7.9" font-family="FreeSans" font-size="12.00">JKQTMathText</text>
</a>
</g>
</g>
<!-- Node2&#45;&gt;Node3 -->
<g id="edge4" class="edge">
<title>Node2&#45;&gt;Node3</title>
<path fill="none" stroke="#9a32cd" stroke-dasharray="5,2" d="M125.83,-74.74C129.71,-63.09 136.31,-48.83 147,-40 162.93,-26.85 184.39,-19.82 203.84,-16.08"/>
<polygon fill="#9a32cd" stroke="#9a32cd" points="122.43,-73.9 123,-84.48 129.15,-75.85 122.43,-73.9"/>
<text text-anchor="middle" x="187" y="-56.4" font-family="FreeSans" font-size="12.00"> parsedNode</text>
<text text-anchor="middle" x="187" y="-43.4" font-family="FreeSans" font-size="12.00">unparsedNode</text>
</g>
<!-- Node3&#45;&gt;Node2 -->
<g id="edge2" class="edge">
<title>Node3&#45;&gt;Node2</title>
<path fill="none" stroke="#9a32cd" stroke-dasharray="5,2" d="M249.6,-31.59C246.6,-43.17 241.07,-57.23 231,-66 218.22,-77.13 201.61,-83.94 185.19,-88.08"/>
<polygon fill="#9a32cd" stroke="#9a32cd" points="253.09,-32.02 251.76,-21.51 246.24,-30.55 253.09,-32.02"/>
<text text-anchor="middle" x="264.5" y="-49.9" font-family="FreeSans" font-size="12.00"> parent</text>
</g>
<!-- Node4 -->
<g id="node4" class="node">
<title>Node4</title>
<g id="a_node4"><a xlink:title=" ">
<polygon fill="none" stroke="black" points="274,-84.5 274,-105.5 336,-105.5 336,-84.5 274,-84.5"/>
<text text-anchor="middle" x="305" y="-91.9" font-family="FreeSans" font-size="12.00">QObject</text>
</a>
</g>
</g>
<!-- Node4&#45;&gt;Node3 -->
<g id="edge3" class="edge">
<title>Node4&#45;&gt;Node3</title>
<path fill="none" stroke="midnightblue" d="M303.13,-74.23C301.34,-63.38 297.85,-50.12 291,-40 285.95,-32.53 278.22,-26.31 271.05,-21.65"/>
<polygon fill="midnightblue" stroke="midnightblue" points="299.7,-74.96 304.44,-84.43 306.64,-74.06 299.7,-74.96"/>
</g>
</g>
</svg>
