<?xml version="1.0" encoding="UTF-8" standalone="no"?>
<!DOCTYPE svg PUBLIC "-//W3C//DTD SVG 1.1//EN"
 "http://www.w3.org/Graphics/SVG/1.1/DTD/svg11.dtd">
<!-- Generated by graphviz version 2.43.0 (0)
 -->
<!-- Title: JKQTPGeoChord Pages: 1 -->
<!--zoomable 1113 -->
<svg id="main" version="1.1" xmlns="http://www.w3.org/2000/svg" xmlns:xlink="http://www.w3.org/1999/xlink" xml:space="preserve" onload="init(evt)">
<style type="text/css"><![CDATA[
.edge:hover path { stroke: red; }
.edge:hover polygon { stroke: red; fill: red; }
]]></style>
<script type="text/javascript"><![CDATA[
var edges = document.getElementsByTagName('g');
if (edges && edges.length) {
  for (var i=0;i<edges.length;i++) {
    if (edges[i].id.substr(0,4)=='edge') {
      edges[i].setAttribute('class','edge');
    }
  }
}
]]></script>
        <defs>
                <circle id="rim" cx="0" cy="0" r="7"/>
                <circle id="rim2" cx="0" cy="0" r="3.5"/>
                <g id="zoomPlus">
                        <use xlink:href="#rim" fill="#404040">
                                <set attributeName="fill" to="#808080" begin="zoomplus.mouseover" end="zoomplus.mouseout"/>
                        </use>
                        <path d="M-4,0h8M0,-4v8" fill="none" stroke="white" stroke-width="1.5" pointer-events="none"/>
                </g>
                <g id="zoomMin">
                        <use xlink:href="#rim" fill="#404040">
                                <set attributeName="fill" to="#808080" begin="zoomminus.mouseover" end="zoomminus.mouseout"/>
                        </use>
                        <path d="M-4,0h8" fill="none" stroke="white" stroke-width="1.5" pointer-events="none"/>
                </g>
                <g id="dirArrow">
                        <path fill="none" stroke="white" stroke-width="1.5" d="M0,-3.0v7 M-2.5,-0.5L0,-3.0L2.5,-0.5"/>
                </g>
               <g id="resetDef">
                       <use xlink:href="#rim2" fill="#404040">
                               <set attributeName="fill" to="#808080" begin="reset.mouseover" end="reset.mouseout"/>
                       </use>
               </g>
        </defs>

<script type="text/javascript">
var viewWidth = 1493;
var viewHeight = 1113;
var sectionId = 'dynsection-1';
</script>
<script xlink:href="svgpan.js"/>
<svg id="graph" class="graph">
<g id="viewport">
<title>JKQTPGeoChord</title>
<!-- Node1 -->
<g id="node1" class="node">
<title>Node1</title>
<g id="a_node1"><a xlink:title="This JKQTPGeometricPlotElement is used to draw a chord.">
<polygon fill="#bfbfbf" stroke="black" points="770,-0.5 770,-21.5 880,-21.5 880,-0.5 770,-0.5"/>
<text text-anchor="middle" x="825" y="-7.9" font-family="FreeSans" font-size="12.00">JKQTPGeoChord</text>
</a>
</g>
</g>
<!-- Node2 -->
<g id="node2" class="node">
<title>Node2</title>
<g id="a_node2"><a xlink:href="class_j_k_q_t_p_geo_pie.html" target="_top" xlink:title="This JKQTPGeometricPlotElement is used to draw a pie.">
<polygon fill="none" stroke="black" points="777.5,-59.5 777.5,-80.5 872.5,-80.5 872.5,-59.5 777.5,-59.5"/>
<text text-anchor="middle" x="825" y="-66.9" font-family="FreeSans" font-size="12.00">JKQTPGeoPie</text>
</a>
</g>
</g>
<!-- Node2&#45;&gt;Node1 -->
<g id="edge1" class="edge">
<title>Node2&#45;&gt;Node1</title>
<path fill="none" stroke="midnightblue" d="M825,-49.23C825,-39.85 825,-29.07 825,-21.53"/>
<polygon fill="midnightblue" stroke="midnightblue" points="821.5,-49.33 825,-59.33 828.5,-49.33 821.5,-49.33"/>
</g>
<!-- Node3 -->
<g id="node3" class="node">
<title>Node3</title>
<g id="a_node3"><a xlink:href="class_j_k_q_t_p_geo_ellipse.html" target="_top" xlink:title="This JKQTPGeometricPlotElement is used to draw an ellipse.">
<polygon fill="none" stroke="black" points="768.5,-118.5 768.5,-139.5 881.5,-139.5 881.5,-118.5 768.5,-118.5"/>
<text text-anchor="middle" x="825" y="-125.9" font-family="FreeSans" font-size="12.00">JKQTPGeoEllipse</text>
</a>
</g>
</g>
<!-- Node3&#45;&gt;Node2 -->
<g id="edge2" class="edge">
<title>Node3&#45;&gt;Node2</title>
<path fill="none" stroke="midnightblue" d="M825,-108.23C825,-98.85 825,-88.07 825,-80.53"/>
<polygon fill="midnightblue" stroke="midnightblue" points="821.5,-108.33 825,-118.33 828.5,-108.33 821.5,-108.33"/>
</g>
<!-- Node4 -->
<g id="node4" class="node">
<title>Node4</title>
<g id="a_node4"><a xlink:href="class_j_k_q_t_p_geo_rectangle.html" target="_top" xlink:title="This JKQTPGeometricPlotElement is used to draw a rectangle.">
<polygon fill="none" stroke="black" points="759.5,-177.5 759.5,-198.5 890.5,-198.5 890.5,-177.5 759.5,-177.5"/>
<text text-anchor="middle" x="825" y="-184.9" font-family="FreeSans" font-size="12.00">JKQTPGeoRectangle</text>
</a>
</g>
</g>
<!-- Node4&#45;&gt;Node3 -->
<g id="edge3" class="edge">
<title>Node4&#45;&gt;Node3</title>
<path fill="none" stroke="midnightblue" d="M825,-167.23C825,-157.85 825,-147.07 825,-139.53"/>
<polygon fill="midnightblue" stroke="midnightblue" points="821.5,-167.33 825,-177.33 828.5,-167.33 821.5,-167.33"/>
</g>
<!-- Node5 -->
<g id="node5" class="node">
<title>Node5</title>
<g id="a_node5"><a xlink:href="class_j_k_q_t_p_geo_base_filled.html" target="_top" xlink:title="This JKQTPGeometricPlotElement is used as base class for geometric drawing elements that only consist...">
<polygon fill="none" stroke="black" points="758,-236.5 758,-257.5 892,-257.5 892,-236.5 758,-236.5"/>
<text text-anchor="middle" x="825" y="-243.9" font-family="FreeSans" font-size="12.00">JKQTPGeoBaseFilled</text>
</a>
</g>
</g>
<!-- Node5&#45;&gt;Node4 -->
<g id="edge4" class="edge">
<title>Node5&#45;&gt;Node4</title>
<path fill="none" stroke="midnightblue" d="M825,-226.23C825,-216.85 825,-206.07 825,-198.53"/>
<polygon fill="midnightblue" stroke="midnightblue" points="821.5,-226.33 825,-236.33 828.5,-226.33 821.5,-226.33"/>
</g>
<!-- Node6 -->
<g id="node6" class="node">
<title>Node6</title>
<g id="a_node6"><a xlink:href="class_j_k_q_t_p_geo_base_line.html" target="_top" xlink:title="This JKQTPGeometricPlotElement is used as base class for geometric drawing elements that only consist...">
<polygon fill="none" stroke="black" points="639.5,-295.5 639.5,-316.5 768.5,-316.5 768.5,-295.5 639.5,-295.5"/>
<text text-anchor="middle" x="704" y="-302.9" font-family="FreeSans" font-size="12.00">JKQTPGeoBaseLine</text>
</a>
</g>
</g>
<!-- Node6&#45;&gt;Node5 -->
<g id="edge5" class="edge">
<title>Node6&#45;&gt;Node5</title>
<path fill="none" stroke="midnightblue" d="M733.5,-291.1C755.58,-280.7 785.2,-266.75 804.68,-257.57"/>
<polygon fill="midnightblue" stroke="midnightblue" points="731.81,-288.03 724.25,-295.46 734.79,-294.36 731.81,-288.03"/>
</g>
<!-- Node7 -->
<g id="node7" class="node">
<title>Node7</title>
<g id="a_node7"><a xlink:href="class_j_k_q_t_p_geometric_plot_element.html" target="_top" xlink:title="this is the virtual base class of all JKQTPPlotElement&#39;s in a JKQTPlotter plot that represent geometr...">
<polygon fill="none" stroke="black" points="260.5,-354.5 260.5,-375.5 433.5,-375.5 433.5,-354.5 260.5,-354.5"/>
<text text-anchor="middle" x="347" y="-361.9" font-family="FreeSans" font-size="12.00">JKQTPGeometricPlotElement</text>
</a>
</g>
</g>
<!-- Node7&#45;&gt;Node6 -->
<g id="edge6" class="edge">
<title>Node7&#45;&gt;Node6</title>
<path fill="none" stroke="midnightblue" d="M416.7,-352.87C482.97,-342.29 581.61,-326.54 644.35,-316.52"/>
<polygon fill="midnightblue" stroke="midnightblue" points="416.08,-349.43 406.75,-354.46 417.18,-356.34 416.08,-349.43"/>
</g>
<!-- Node8 -->
<g id="node8" class="node">
<title>Node8</title>
<g id="a_node8"><a xlink:href="class_j_k_q_t_p_plot_element.html" target="_top" xlink:title="this virtual base class of every element, which is part of a JKQTPlotter plot and may appear in its k...">
<polygon fill="none" stroke="black" points="303,-413.5 303,-434.5 421,-434.5 421,-413.5 303,-413.5"/>
<text text-anchor="middle" x="362" y="-420.9" font-family="FreeSans" font-size="12.00">JKQTPPlotElement</text>
</a>
</g>
</g>
<!-- Node8&#45;&gt;Node7 -->
<g id="edge7" class="edge">
<title>Node8&#45;&gt;Node7</title>
<path fill="none" stroke="midnightblue" d="M356.88,-403.54C354.39,-394.08 351.51,-383.15 349.51,-375.53"/>
<polygon fill="midnightblue" stroke="midnightblue" points="353.53,-404.55 359.46,-413.33 360.3,-402.77 353.53,-404.55"/>
</g>
<!-- Node9 -->
<g id="node9" class="node">
<title>Node9</title>
<g id="a_node9"><a xlink:title=" ">
<polygon fill="none" stroke="black" points="332,-663 332,-684 394,-684 394,-663 332,-663"/>
<text text-anchor="middle" x="363" y="-670.4" font-family="FreeSans" font-size="12.00">QObject</text>
</a>
</g>
</g>
<!-- Node9&#45;&gt;Node8 -->
<g id="edge8" class="edge">
<title>Node9&#45;&gt;Node8</title>
<path fill="none" stroke="midnightblue" d="M359.68,-652.77C353.69,-616.11 341.32,-534.96 337,-466 336.64,-460.23 334.94,-458.4 337,-453 339.69,-445.94 345.08,-439.53 350.16,-434.63"/>
<polygon fill="midnightblue" stroke="midnightblue" points="356.23,-653.36 361.31,-662.65 363.13,-652.22 356.23,-653.36"/>
</g>
<!-- Node10 -->
<g id="node10" class="node">
<title>Node10</title>
<g id="a_node10"><a xlink:href="class_j_k_q_t_base_plotter.html" target="_top" xlink:title="base class for 2D plotter classes (used by the plotter widget JKQTPlotter)">
<polygon fill="none" stroke="black" points="383.5,-486.5 383.5,-507.5 492.5,-507.5 492.5,-486.5 383.5,-486.5"/>
<text text-anchor="middle" x="438" y="-493.9" font-family="FreeSans" font-size="12.00">JKQTBasePlotter</text>
</a>
</g>
</g>
<!-- Node9&#45;&gt;Node10 -->
<g id="edge10" class="edge">
<title>Node9&#45;&gt;Node10</title>
<path fill="none" stroke="midnightblue" d="M371.29,-653.22C387.26,-616.07 421.77,-535.75 433.78,-507.82"/>
<polygon fill="midnightblue" stroke="midnightblue" points="367.87,-652.3 367.14,-662.87 374.3,-655.06 367.87,-652.3"/>
</g>
<!-- Node21 -->
<g id="node21" class="node">
<title>Node21</title>
<g id="a_node21"><a xlink:href="class_j_k_q_t_math_text.html" target="_top" xlink:title="this class parses a LaTeX string and can then draw the contained text/equation onto a QPainter">
<polygon fill="none" stroke="black" points="145,-572.5 145,-593.5 243,-593.5 243,-572.5 145,-572.5"/>
<text text-anchor="middle" x="194" y="-579.9" font-family="FreeSans" font-size="12.00">JKQTMathText</text>
</a>
</g>
</g>
<!-- Node9&#45;&gt;Node21 -->
<g id="edge26" class="edge">
<title>Node9&#45;&gt;Node21</title>
<path fill="none" stroke="midnightblue" d="M335.49,-658.09C300.79,-639.92 242.09,-609.18 212.38,-593.63"/>
<polygon fill="midnightblue" stroke="midnightblue" points="334.11,-661.32 344.59,-662.86 337.36,-655.12 334.11,-661.32"/>
</g>
<!-- Node26 -->
<g id="node26" class="node">
<title>Node26</title>
<g id="a_node26"><a xlink:href="class_j_k_q_t_p_coordinate_axis.html" target="_top" xlink:title="this virtual class is the base for any type of coordinate axis, to be drawn by JKQTBasePlotter.">
<polygon fill="none" stroke="black" points="593.5,-413.5 593.5,-434.5 730.5,-434.5 730.5,-413.5 593.5,-413.5"/>
<text text-anchor="middle" x="662" y="-420.9" font-family="FreeSans" font-size="12.00">JKQTPCoordinateAxis</text>
</a>
</g>
</g>
<!-- Node9&#45;&gt;Node26 -->
<g id="edge34" class="edge">
<title>Node9&#45;&gt;Node26</title>
<path fill="none" stroke="midnightblue" d="M387.3,-657.32C440.29,-624.01 564.3,-544.68 600,-510 624.63,-486.08 646.52,-451.45 656.41,-434.74"/>
<polygon fill="midnightblue" stroke="midnightblue" points="385.17,-654.53 378.56,-662.81 388.89,-660.46 385.17,-654.53"/>
</g>
<!-- Node10&#45;&gt;Node8 -->
<g id="edge9" class="edge">
<title>Node10&#45;&gt;Node8</title>
<path fill="none" stroke="#9a32cd" stroke-dasharray="5,2" d="M427.96,-477.4C422.98,-469.28 416.43,-460.03 409,-453 401.27,-445.69 391.31,-439.42 382.55,-434.67"/>
<polygon fill="#9a32cd" stroke="#9a32cd" points="425.02,-479.31 433.05,-486.22 431.08,-475.81 425.02,-479.31"/>
<text text-anchor="middle" x="439.5" y="-456.4" font-family="FreeSans" font-size="12.00"> parent</text>
</g>
<!-- Node10&#45;&gt;Node10 -->
<g id="edge45" class="edge">
<title>Node10&#45;&gt;Node10</title>
<path fill="none" stroke="#9a32cd" stroke-dasharray="5,2" d="M502.91,-501.98C507.62,-500.86 510.5,-499.2 510.5,-497 510.5,-493.48 503.12,-491.34 492.7,-490.57"/>
<polygon fill="#9a32cd" stroke="#9a32cd" points="502.11,-498.56 492.7,-503.43 503.09,-505.49 502.11,-498.56"/>
<text text-anchor="middle" x="551" y="-500.4" font-family="FreeSans" font-size="12.00"> masterPlotterX</text>
<text text-anchor="middle" x="551" y="-487.4" font-family="FreeSans" font-size="12.00">masterPlotterY</text>
</g>
<!-- Node23 -->
<g id="node23" class="node">
<title>Node23</title>
<g id="a_node23"><a xlink:href="class_j_k_q_t_p_graphs_model.html" target="_top" xlink:title="data model with all plots ina JKQTBasePlotter (+ allows to switch them visible/invisible)">
<polygon fill="none" stroke="black" points="157,-413.5 157,-434.5 285,-434.5 285,-413.5 157,-413.5"/>
<text text-anchor="middle" x="221" y="-420.9" font-family="FreeSans" font-size="12.00">JKQTPGraphsModel</text>
</a>
</g>
</g>
<!-- Node10&#45;&gt;Node23 -->
<g id="edge31" class="edge">
<title>Node10&#45;&gt;Node23</title>
<path fill="none" stroke="#9a32cd" stroke-dasharray="5,2" d="M394.79,-483.18C381.11,-478.49 366.14,-472.67 353,-466 343.88,-461.37 343.34,-457.19 334,-453 315.83,-444.86 294.92,-438.83 276.06,-434.51"/>
<polygon fill="#9a32cd" stroke="#9a32cd" points="393.88,-486.57 404.48,-486.4 396.09,-479.93 393.88,-486.57"/>
<text text-anchor="middle" x="379" y="-456.4" font-family="FreeSans" font-size="12.00"> m_plotter</text>
</g>
<!-- Node10&#45;&gt;Node26 -->
<g id="edge35" class="edge">
<title>Node10&#45;&gt;Node26</title>
<path fill="none" stroke="#9a32cd" stroke-dasharray="5,2" d="M493.73,-484.03C511.99,-479.33 532.16,-473.29 550,-466 560.87,-461.56 562.23,-457.68 573,-453 589.79,-445.71 609.1,-439.4 625.43,-434.63"/>
<polygon fill="#9a32cd" stroke="#9a32cd" points="492.67,-480.68 483.82,-486.5 494.37,-487.48 492.67,-480.68"/>
<text text-anchor="middle" x="591.5" y="-456.4" font-family="FreeSans" font-size="12.00"> parent</text>
</g>
<!-- Node11 -->
<g id="node11" class="node">
<title>Node11</title>
<g id="a_node11"><a xlink:href="class_j_k_q_t_base_plotter_style.html" target="_top" xlink:title="Support Class for JKQTBasePlotter, which summarizes all properties that define the visual styling of ...">
<polygon fill="none" stroke="black" points="581.5,-572.5 581.5,-593.5 716.5,-593.5 716.5,-572.5 581.5,-572.5"/>
<text text-anchor="middle" x="649" y="-579.9" font-family="FreeSans" font-size="12.00">JKQTBasePlotterStyle</text>
</a>
</g>
</g>
<!-- Node11&#45;&gt;Node10 -->
<g id="edge11" class="edge">
<title>Node11&#45;&gt;Node10</title>
<path fill="none" stroke="#9a32cd" stroke-dasharray="5,2" d="M615.36,-568.61C572.51,-551.55 499.51,-522.49 461.92,-507.52"/>
<polygon fill="#9a32cd" stroke="#9a32cd" points="614.21,-571.92 624.8,-572.36 616.8,-565.41 614.21,-571.92"/>
<text text-anchor="middle" x="606" y="-537.9" font-family="FreeSans" font-size="12.00"> plotterStyle</text>
</g>
<!-- Node12 -->
<g id="node12" class="node">
<title>Node12</title>
<g id="a_node12"><a xlink:href="class_j_k_q_t_p_key_style.html" target="_top" xlink:title="Support Class for JKQTBasePlotter, which summarizes all properties that define the visual styling of ...">
<polygon fill="none" stroke="black" points="432.5,-663 432.5,-684 535.5,-684 535.5,-663 432.5,-663"/>
<text text-anchor="middle" x="484" y="-670.4" font-family="FreeSans" font-size="12.00">JKQTPKeyStyle</text>
</a>
</g>
</g>
<!-- Node12&#45;&gt;Node11 -->
<g id="edge12" class="edge">
<title>Node12&#45;&gt;Node11</title>
<path fill="none" stroke="#9a32cd" stroke-dasharray="5,2" d="M517.8,-658.72C529.99,-653.07 543.56,-645.98 555,-638 568.66,-628.46 568.08,-621.15 582,-612 593.59,-604.39 607.59,-598.15 619.79,-593.5"/>
<polygon fill="#9a32cd" stroke="#9a32cd" points="516.09,-655.65 508.38,-662.92 518.94,-662.04 516.09,-655.65"/>
<text text-anchor="middle" x="606.5" y="-621.9" font-family="FreeSans" font-size="12.00"> keyStyle</text>
</g>
<!-- Node13 -->
<g id="node13" class="node">
<title>Node13</title>
<g id="a_node13"><a xlink:href="class_j_k_q_t_p_coordinate_axis_style.html" target="_top" xlink:title="Support Class for JKQTPCoordinateAxis, which summarizes all properties that define the visual styling...">
<polygon fill="none" stroke="black" points="856,-747 856,-768 1020,-768 1020,-747 856,-747"/>
<text text-anchor="middle" x="938" y="-754.4" font-family="FreeSans" font-size="12.00">JKQTPCoordinateAxisStyle</text>
</a>
</g>
</g>
<!-- Node13&#45;&gt;Node11 -->
<g id="edge13" class="edge">
<title>Node13&#45;&gt;Node11</title>
<path fill="none" stroke="#9a32cd" stroke-dasharray="5,2" d="M884.83,-744.51C833.57,-731.98 760.8,-711.36 740,-691 713.38,-664.94 737.3,-639.34 712,-612 704.36,-603.74 693.84,-597.77 683.58,-593.53"/>
<polygon fill="#9a32cd" stroke="#9a32cd" points="884.23,-747.96 894.78,-746.9 885.87,-741.16 884.23,-747.96"/>
<text text-anchor="middle" x="769.5" y="-676.9" font-family="FreeSans" font-size="12.00"> xAxisStyle</text>
<text text-anchor="middle" x="769.5" y="-663.9" font-family="FreeSans" font-size="12.00">yAxisStyle</text>
</g>
<!-- Node15 -->
<g id="node15" class="node">
<title>Node15</title>
<g id="a_node15"><a xlink:href="class_j_k_q_t_p_colorbar_coordinate_axis_style.html" target="_top" xlink:title="Support Class for JKQTPCoordinateAxis, which summarizes all properties that define the visual styling...">
<polygon fill="none" stroke="black" points="808,-656.5 808,-690.5 990,-690.5 990,-656.5 808,-656.5"/>
<text text-anchor="start" x="816" y="-676.9" font-family="FreeSans" font-size="12.00">JKQTPColorbarCoordinateAxis</text>
<text text-anchor="middle" x="899" y="-663.9" font-family="FreeSans" font-size="12.00">Style</text>
</a>
</g>
</g>
<!-- Node13&#45;&gt;Node15 -->
<g id="edge16" class="edge">
<title>Node13&#45;&gt;Node15</title>
<path fill="none" stroke="midnightblue" d="M928.96,-737.48C922.21,-723.31 913.11,-704.16 906.71,-690.71"/>
<polygon fill="midnightblue" stroke="midnightblue" points="925.92,-739.24 933.37,-746.77 932.24,-736.24 925.92,-739.24"/>
</g>
<!-- Node13&#45;&gt;Node26 -->
<g id="edge36" class="edge">
<title>Node13&#45;&gt;Node26</title>
<path fill="none" stroke="#9a32cd" stroke-dasharray="5,2" d="M966.95,-741.82C989.85,-727.92 1018,-704.7 1018,-674.5 1018,-674.5 1018,-674.5 1018,-496 1018,-438.02 834.09,-426.71 730.64,-424.93"/>
<polygon fill="#9a32cd" stroke="#9a32cd" points="965.11,-738.84 958.19,-746.86 968.6,-744.91 965.11,-738.84"/>
<text text-anchor="middle" x="1044" y="-579.9" font-family="FreeSans" font-size="12.00"> axisStyle</text>
</g>
<!-- Node14 -->
<g id="node14" class="node">
<title>Node14</title>
<g id="a_node14"><a xlink:href="class_j_k_q_t_p_grid_style.html" target="_top" xlink:title="Support Class for JKQTPCoordinateAxis, and summarizes all properties that define the visual styling o...">
<polygon fill="none" stroke="black" points="886,-883 886,-904 990,-904 990,-883 886,-883"/>
<text text-anchor="middle" x="938" y="-890.4" font-family="FreeSans" font-size="12.00">JKQTPGridStyle</text>
</a>
</g>
</g>
<!-- Node14&#45;&gt;Node13 -->
<g id="edge14" class="edge">
<title>Node14&#45;&gt;Node13</title>
<path fill="none" stroke="#9a32cd" stroke-dasharray="5,2" d="M938,-872.62C938,-843.36 938,-789.79 938,-768.05"/>
<polygon fill="#9a32cd" stroke="#9a32cd" points="934.5,-872.86 938,-882.86 941.5,-872.86 934.5,-872.86"/>
<text text-anchor="middle" x="979" y="-828.9" font-family="FreeSans" font-size="12.00"> majorGridStyle</text>
<text text-anchor="middle" x="979" y="-815.9" font-family="FreeSans" font-size="12.00">minorGridStyle</text>
</g>
<!-- Node15&#45;&gt;Node11 -->
<g id="edge15" class="edge">
<title>Node15&#45;&gt;Node11</title>
<path fill="none" stroke="#9a32cd" stroke-dasharray="5,2" d="M851.61,-652.6C821.37,-640.22 781.18,-624.35 745,-612 725.28,-605.27 702.96,-598.69 684.8,-593.61"/>
<polygon fill="#9a32cd" stroke="#9a32cd" points="850.49,-655.92 861.07,-656.49 853.15,-649.45 850.49,-655.92"/>
<text text-anchor="middle" x="874.5" y="-628.4" font-family="FreeSans" font-size="12.00"> rightColorbarAxisStyle</text>
<text text-anchor="middle" x="874.5" y="-615.4" font-family="FreeSans" font-size="12.00">topColorbarAxisStyle</text>
</g>
<!-- Node16 -->
<g id="node16" class="node">
<title>Node16</title>
<g id="a_node16"><a xlink:href="class_j_k_q_t_graphs_base_style.html" target="_top" xlink:title="Support Class for JKQTBasePlotter, which summarizes all properties that define the visual styling of ...">
<polygon fill="none" stroke="black" points="553.5,-663 553.5,-684 694.5,-684 694.5,-663 553.5,-663"/>
<text text-anchor="middle" x="624" y="-670.4" font-family="FreeSans" font-size="12.00">JKQTGraphsBaseStyle</text>
</a>
</g>
</g>
<!-- Node16&#45;&gt;Node11 -->
<g id="edge17" class="edge">
<title>Node16&#45;&gt;Node11</title>
<path fill="none" stroke="#9a32cd" stroke-dasharray="5,2" d="M629.51,-652.98C634.71,-634.57 642.29,-607.75 646.29,-593.58"/>
<polygon fill="#9a32cd" stroke="#9a32cd" points="626.12,-652.12 626.77,-662.69 632.86,-654.02 626.12,-652.12"/>
<text text-anchor="middle" x="674.5" y="-621.9" font-family="FreeSans" font-size="12.00"> graphsStyle</text>
</g>
<!-- Node17 -->
<g id="node17" class="node">
<title>Node17</title>
<g id="a_node17"><a xlink:href="class_j_k_q_t_graphs_specific_style_properties.html" target="_top" xlink:title="Support Class for JKQTBasePlotter, which summarizes all properties that define the visual styling of ...">
<polygon fill="none" stroke="black" points="458.5,-960.5 458.5,-981.5 667.5,-981.5 667.5,-960.5 458.5,-960.5"/>
<text text-anchor="middle" x="563" y="-967.9" font-family="FreeSans" font-size="12.00">JKQTGraphsSpecificStyleProperties</text>
</a>
</g>
</g>
<!-- Node17&#45;&gt;Node16 -->
<g id="edge18" class="edge">
<title>Node17&#45;&gt;Node16</title>
<path fill="none" stroke="#9a32cd" stroke-dasharray="5,2" d="M527.42,-956.21C507.04,-946.53 482.68,-931.61 468,-911 437.42,-868.06 431.94,-839.9 456,-793 485.57,-735.36 557.66,-699.89 597.11,-684.12"/>
<polygon fill="#9a32cd" stroke="#9a32cd" points="526.19,-959.5 536.75,-960.42 529.07,-953.12 526.19,-959.5"/>
<text text-anchor="middle" x="503.5" y="-848.4" font-family="FreeSans" font-size="12.00"> barchartStyle</text>
<text text-anchor="middle" x="503.5" y="-835.4" font-family="FreeSans" font-size="12.00">boxplotStyle</text>
<text text-anchor="middle" x="503.5" y="-822.4" font-family="FreeSans" font-size="12.00">defaultGraphStyle</text>
<text text-anchor="middle" x="503.5" y="-809.4" font-family="FreeSans" font-size="12.00">filledStyle</text>
<text text-anchor="middle" x="503.5" y="-796.4" font-family="FreeSans" font-size="12.00">impulseStyle</text>
</g>
<!-- Node19 -->
<g id="node19" class="node">
<title>Node19</title>
<g id="a_node19"><a xlink:href="class_j_k_q_t_geometric_specific_style_properties.html" target="_top" xlink:title="Support Class for JKQTBasePlotter, which summarizes all properties that define the visual styling of ...">
<polygon fill="none" stroke="black" points="477.5,-876.5 477.5,-910.5 648.5,-910.5 648.5,-876.5 477.5,-876.5"/>
<text text-anchor="start" x="485.5" y="-896.9" font-family="FreeSans" font-size="12.00">JKQTGeometricSpecificStyle</text>
<text text-anchor="middle" x="563" y="-883.9" font-family="FreeSans" font-size="12.00">Properties</text>
</a>
</g>
</g>
<!-- Node17&#45;&gt;Node19 -->
<g id="edge21" class="edge">
<title>Node17&#45;&gt;Node19</title>
<path fill="none" stroke="midnightblue" d="M563,-950.25C563,-937.89 563,-922.17 563,-910.58"/>
<polygon fill="midnightblue" stroke="midnightblue" points="559.5,-950.44 563,-960.44 566.5,-950.44 559.5,-950.44"/>
</g>
<!-- Node18 -->
<g id="node18" class="node">
<title>Node18</title>
<g id="a_node18"><a xlink:href="struct_j_k_q_t_p_color_derivation_mode.html" target="_top" xlink:title="Specifies how a fill&#45;color is derived from a given color.">
<polygon fill="none" stroke="black" points="570,-1083.5 570,-1104.5 738,-1104.5 738,-1083.5 570,-1083.5"/>
<text text-anchor="middle" x="654" y="-1090.9" font-family="FreeSans" font-size="12.00">JKQTPColorDerivationMode</text>
</a>
</g>
</g>
<!-- Node18&#45;&gt;Node17 -->
<g id="edge19" class="edge">
<title>Node18&#45;&gt;Node17</title>
<path fill="none" stroke="#9a32cd" stroke-dasharray="5,2" d="M582.67,-1078.71C576.66,-1075.09 571.26,-1070.6 567,-1065 548.09,-1040.19 555.42,-999.93 560.17,-981.62"/>
<polygon fill="#9a32cd" stroke="#9a32cd" points="581.36,-1081.96 591.86,-1083.39 584.54,-1075.73 581.36,-1081.96"/>
<text text-anchor="middle" x="650" y="-1055.4" font-family="FreeSans" font-size="12.00"> errorColorDerivationMode</text>
<text text-anchor="middle" x="650" y="-1042.4" font-family="FreeSans" font-size="12.00">errorFillColorDerivationMode</text>
<text text-anchor="middle" x="650" y="-1029.4" font-family="FreeSans" font-size="12.00">fillColorDerivationMode</text>
<text text-anchor="middle" x="650" y="-1016.4" font-family="FreeSans" font-size="12.00">graphColorDerivationMode</text>
<text text-anchor="middle" x="650" y="-1003.4" font-family="FreeSans" font-size="12.00">symbolFillColorDerivationMode</text>
</g>
<!-- Node20 -->
<g id="node20" class="node">
<title>Node20</title>
<g id="a_node20"><a xlink:href="class_j_k_q_t_annotations_specific_style_properties.html" target="_top" xlink:title="Support Class for JKQTBasePlotter, which summarizes all properties that define the visual styling of ...">
<polygon fill="none" stroke="black" points="658,-740.5 658,-774.5 838,-774.5 838,-740.5 658,-740.5"/>
<text text-anchor="start" x="666" y="-760.9" font-family="FreeSans" font-size="12.00">JKQTAnnotationsSpecificStyle</text>
<text text-anchor="middle" x="748" y="-747.9" font-family="FreeSans" font-size="12.00">Properties</text>
</a>
</g>
</g>
<!-- Node18&#45;&gt;Node20 -->
<g id="edge24" class="edge">
<title>Node18&#45;&gt;Node20</title>
<path fill="none" stroke="#9a32cd" stroke-dasharray="5,2" d="M717.31,-1078.77C723.36,-1075.16 728.8,-1070.65 733,-1065 800.41,-974.38 766.46,-823.65 752.8,-774.52"/>
<polygon fill="#9a32cd" stroke="#9a32cd" points="715.43,-1075.8 708.08,-1083.43 718.58,-1082.05 715.43,-1075.8"/>
<text text-anchor="middle" x="841.5" y="-932.4" font-family="FreeSans" font-size="12.00"> textColorDerivationMode</text>
</g>
<!-- Node19&#45;&gt;Node16 -->
<g id="edge20" class="edge">
<title>Node19&#45;&gt;Node16</title>
<path fill="none" stroke="#9a32cd" stroke-dasharray="5,2" d="M558.45,-866.12C554.23,-834.85 550.76,-781.73 567,-740 576.19,-716.4 597.86,-695.57 611.68,-684.03"/>
<polygon fill="#9a32cd" stroke="#9a32cd" points="555.02,-866.84 559.95,-876.22 561.94,-865.81 555.02,-866.84"/>
<text text-anchor="middle" x="608" y="-754.4" font-family="FreeSans" font-size="12.00"> geometricStyle</text>
</g>
<!-- Node19&#45;&gt;Node20 -->
<g id="edge23" class="edge">
<title>Node19&#45;&gt;Node20</title>
<path fill="none" stroke="midnightblue" d="M593.78,-870.2C631.08,-843.18 693.01,-798.33 725.89,-774.51"/>
<polygon fill="midnightblue" stroke="midnightblue" points="591.36,-867.64 585.32,-876.34 595.47,-873.3 591.36,-867.64"/>
</g>
<!-- Node20&#45;&gt;Node16 -->
<g id="edge22" class="edge">
<title>Node20&#45;&gt;Node16</title>
<path fill="none" stroke="#9a32cd" stroke-dasharray="5,2" d="M649.05,-737.03C642.32,-732.91 636.18,-727.96 631,-722 621.93,-711.55 621.68,-694.68 622.62,-684.11"/>
<polygon fill="#9a32cd" stroke="#9a32cd" points="647.39,-740.11 657.85,-741.81 650.73,-733.96 647.39,-740.11"/>
<text text-anchor="middle" x="674" y="-712.4" font-family="FreeSans" font-size="12.00"> annotationStyle</text>
</g>
<!-- Node21&#45;&gt;Node10 -->
<g id="edge25" class="edge">
<title>Node21&#45;&gt;Node10</title>
<path fill="none" stroke="#9a32cd" stroke-dasharray="5,2" d="M227.17,-568.69C256,-557.32 298.98,-540.81 337,-528 359.02,-520.58 384.04,-513.14 403.68,-507.53"/>
<polygon fill="#9a32cd" stroke="#9a32cd" points="225.6,-565.55 217.6,-572.49 228.18,-572.06 225.6,-565.55"/>
<text text-anchor="middle" x="363.5" y="-537.9" font-family="FreeSans" font-size="12.00"> mathText</text>
</g>
<!-- Node22 -->
<g id="node22" class="node">
<title>Node22</title>
<g id="a_node22"><a xlink:href="class_j_k_q_t_math_text_node.html" target="_top" xlink:title="subclass representing one node in the syntax tree">
<polygon fill="none" stroke="black" points="0,-486.5 0,-507.5 128,-507.5 128,-486.5 0,-486.5"/>
<text text-anchor="middle" x="64" y="-493.9" font-family="FreeSans" font-size="12.00">JKQTMathTextNode</text>
</a>
</g>
</g>
<!-- Node21&#45;&gt;Node22 -->
<g id="edge28" class="edge">
<title>Node21&#45;&gt;Node22</title>
<path fill="none" stroke="#9a32cd" stroke-dasharray="5,2" d="M134.77,-575.45C106.97,-571.09 77.98,-564.24 69,-554 57.8,-541.23 59.52,-519.95 61.76,-507.62"/>
<polygon fill="#9a32cd" stroke="#9a32cd" points="134.52,-578.95 144.92,-576.95 135.54,-572.03 134.52,-578.95"/>
<text text-anchor="middle" x="87.5" y="-537.9" font-family="FreeSans" font-size="12.00"> parent</text>
</g>
<!-- Node22&#45;&gt;Node21 -->
<g id="edge27" class="edge">
<title>Node22&#45;&gt;Node21</title>
<path fill="none" stroke="#9a32cd" stroke-dasharray="5,2" d="M87.41,-513.34C104.68,-524.63 128.76,-540.33 150,-554 159.59,-560.18 170.4,-567.05 178.91,-572.45"/>
<polygon fill="#9a32cd" stroke="#9a32cd" points="88.86,-510.11 78.58,-507.56 85.03,-515.96 88.86,-510.11"/>
<text text-anchor="middle" x="190" y="-544.4" font-family="FreeSans" font-size="12.00"> parsedNode</text>
<text text-anchor="middle" x="190" y="-531.4" font-family="FreeSans" font-size="12.00">unparsedNode</text>
</g>
<!-- Node23&#45;&gt;Node10 -->
<g id="edge29" class="edge">
<title>Node23&#45;&gt;Node10</title>
<path fill="none" stroke="#9a32cd" stroke-dasharray="5,2" d="M232.01,-442.96C238.06,-451.29 246.3,-460.53 256,-466 277.27,-478 337.78,-486.35 383.24,-491.14"/>
<polygon fill="#9a32cd" stroke="#9a32cd" points="234.82,-440.87 226.35,-434.51 229.01,-444.77 234.82,-440.87"/>
<text text-anchor="middle" x="295" y="-456.4" font-family="FreeSans" font-size="12.00"> m_plotsModel</text>
</g>
<!-- Node24 -->
<g id="node24" class="node">
<title>Node24</title>
<g id="a_node24"><a xlink:title=" ">
<polygon fill="none" stroke="black" points="146.5,-486.5 146.5,-507.5 279.5,-507.5 279.5,-486.5 146.5,-486.5"/>
<text text-anchor="middle" x="213" y="-493.9" font-family="FreeSans" font-size="12.00">QAbstractTableModel</text>
</a>
</g>
</g>
<!-- Node24&#45;&gt;Node23 -->
<g id="edge30" class="edge">
<title>Node24&#45;&gt;Node23</title>
<path fill="none" stroke="midnightblue" d="M210.29,-476.25C209.75,-468.91 209.7,-460.53 211,-453 212.09,-446.69 214.47,-439.93 216.64,-434.63"/>
<polygon fill="midnightblue" stroke="midnightblue" points="206.83,-476.79 211.37,-486.36 213.79,-476.05 206.83,-476.79"/>
</g>
<!-- Node25 -->
<g id="node25" class="node">
<title>Node25</title>
<g id="a_node25"><a xlink:href="class_j_k_q_t_p_horizontal_axis.html" target="_top" xlink:title="implements a horizontal axis, based on JKQTPCoordinateAxis (for most of documentation: see JKQTPCoord...">
<polygon fill="none" stroke="black" points="451.5,-354.5 451.5,-375.5 584.5,-375.5 584.5,-354.5 451.5,-354.5"/>
<text text-anchor="middle" x="518" y="-361.9" font-family="FreeSans" font-size="12.00">JKQTPHorizontalAxis</text>
</a>
</g>
</g>
<!-- Node25&#45;&gt;Node10 -->
<g id="edge32" class="edge">
<title>Node25&#45;&gt;Node10</title>
<path fill="none" stroke="#9a32cd" stroke-dasharray="5,2" d="M505.09,-384.25C499.27,-392.8 492.49,-403.24 487,-413 474.24,-435.71 475.78,-443.9 462,-466 457.48,-473.24 451.48,-480.74 446.61,-486.43"/>
<polygon fill="#9a32cd" stroke="#9a32cd" points="508.11,-386.04 510.92,-375.83 502.35,-382.05 508.11,-386.04"/>
<text text-anchor="middle" x="503.5" y="-420.9" font-family="FreeSans" font-size="12.00"> xAxis</text>
</g>
<!-- Node26&#45;&gt;Node25 -->
<g id="edge33" class="edge">
<title>Node26&#45;&gt;Node25</title>
<path fill="none" stroke="midnightblue" d="M628.3,-409.66C601.89,-399.2 565.78,-384.91 542.18,-375.57"/>
<polygon fill="midnightblue" stroke="midnightblue" points="627.31,-413.03 637.9,-413.46 629.89,-406.52 627.31,-413.03"/>
</g>
<!-- Node27 -->
<g id="node27" class="node">
<title>Node27</title>
<g id="a_node27"><a xlink:href="class_j_k_q_t_p_vertical_axis.html" target="_top" xlink:title="implements a vertical axis, based on JKQTPCoordinateAxis (for most of documentation: see JKQTPCoordin...">
<polygon fill="none" stroke="black" points="603,-354.5 603,-375.5 721,-375.5 721,-354.5 603,-354.5"/>
<text text-anchor="middle" x="662" y="-361.9" font-family="FreeSans" font-size="12.00">JKQTPVerticalAxis</text>
</a>
</g>
</g>
<!-- Node26&#45;&gt;Node27 -->
<g id="edge38" class="edge">
<title>Node26&#45;&gt;Node27</title>
<path fill="none" stroke="midnightblue" d="M662,-403.23C662,-393.85 662,-383.07 662,-375.53"/>
<polygon fill="midnightblue" stroke="midnightblue" points="658.5,-403.33 662,-413.33 665.5,-403.33 658.5,-403.33"/>
</g>
<!-- Node27&#45;&gt;Node10 -->
<g id="edge37" class="edge">
<title>Node27&#45;&gt;Node10</title>
<path fill="none" stroke="#9a32cd" stroke-dasharray="5,2" d="M624.84,-379.15C602.76,-387.59 574.56,-399.48 551,-413 533.92,-422.8 495.9,-454.39 480,-466 470.59,-472.87 459.91,-480.5 451.67,-486.34"/>
<polygon fill="#9a32cd" stroke="#9a32cd" points="626.08,-382.43 634.21,-375.64 623.62,-375.87 626.08,-382.43"/>
<text text-anchor="middle" x="567.5" y="-420.9" font-family="FreeSans" font-size="12.00"> yAxis</text>
</g>
<!-- Node28 -->
<g id="node28" class="node">
<title>Node28</title>
<g id="a_node28"><a xlink:href="class_j_k_q_t_p_datastore.html" target="_top" xlink:title="This class manages data columns (with entries of type double ), used by JKQTPlotter/JKQTBasePlotter t...">
<polygon fill="none" stroke="black" points="1088.5,-572.5 1088.5,-593.5 1195.5,-593.5 1195.5,-572.5 1088.5,-572.5"/>
<text text-anchor="middle" x="1142" y="-579.9" font-family="FreeSans" font-size="12.00">JKQTPDatastore</text>
</a>
</g>
</g>
<!-- Node28&#45;&gt;Node10 -->
<g id="edge39" class="edge">
<title>Node28&#45;&gt;Node10</title>
<path fill="none" stroke="#9a32cd" stroke-dasharray="5,2" d="M1077.93,-572.52C1076.61,-572.35 1075.3,-572.17 1074,-572 859.09,-543.7 602.56,-515.58 492.52,-503.78"/>
<polygon fill="#9a32cd" stroke="#9a32cd" points="1077.82,-576.04 1088.2,-573.94 1078.77,-569.11 1077.82,-576.04"/>
<text text-anchor="middle" x="943.5" y="-537.9" font-family="FreeSans" font-size="12.00"> datastore</text>
</g>
<!-- Node30 -->
<g id="node30" class="node">
<title>Node30</title>
<g id="a_node30"><a xlink:href="class_j_k_q_t_p_column.html" target="_top" xlink:title="internally stores information about one data column. See JKQTPDatastore for more information.">
<polygon fill="none" stroke="black" points="1249,-486.5 1249,-507.5 1345,-507.5 1345,-486.5 1249,-486.5"/>
<text text-anchor="middle" x="1297" y="-493.9" font-family="FreeSans" font-size="12.00">JKQTPColumn</text>
</a>
</g>
</g>
<!-- Node28&#45;&gt;Node30 -->
<g id="edge42" class="edge">
<title>Node28&#45;&gt;Node30</title>
<path fill="none" stroke="#9a32cd" stroke-dasharray="5,2" d="M1168.93,-567.4C1200.66,-550.21 1252.46,-522.14 1279.43,-507.52"/>
<polygon fill="#9a32cd" stroke="#9a32cd" points="1166.9,-564.52 1159.78,-572.36 1170.24,-570.68 1166.9,-564.52"/>
<text text-anchor="middle" x="1263.5" y="-537.9" font-family="FreeSans" font-size="12.00"> datastore</text>
</g>
<!-- Node29 -->
<g id="node29" class="node">
<title>Node29</title>
<g id="a_node29"><a xlink:title=" ">
<polygon fill="none" stroke="black" points="1200,-413.5 1200,-434.5 1394,-434.5 1394,-413.5 1200,-413.5"/>
<text text-anchor="middle" x="1297" y="-420.9" font-family="FreeSans" font-size="12.00">std::unique_ptr&lt; JKQTPColumn &gt;</text>
</a>
</g>
</g>
<!-- Node29&#45;&gt;Node28 -->
<g id="edge40" class="edge">
<title>Node29&#45;&gt;Node28</title>
<path fill="none" stroke="#9a32cd" stroke-dasharray="5,2" d="M1217.67,-437.34C1190.14,-445.78 1161.96,-460.02 1145,-484 1125.93,-510.96 1134.04,-553.34 1139.09,-572.28"/>
<polygon fill="#9a32cd" stroke="#9a32cd" points="1218.69,-440.68 1227.36,-434.58 1216.78,-433.95 1218.69,-440.68"/>
<text text-anchor="middle" x="1192.5" y="-493.9" font-family="FreeSans" font-size="12.00"> m_invalidColumn</text>
</g>
<!-- Node30&#45;&gt;Node29 -->
<g id="edge41" class="edge">
<title>Node30&#45;&gt;Node29</title>
<path fill="none" stroke="#9a32cd" stroke-dasharray="5,2" d="M1297,-476.24C1297,-462.78 1297,-445.53 1297,-434.88"/>
<polygon fill="#9a32cd" stroke="#9a32cd" points="1293.5,-476.42 1297,-486.42 1300.5,-476.42 1293.5,-476.42"/>
<text text-anchor="middle" x="1305.5" y="-456.4" font-family="FreeSans" font-size="12.00"> ptr</text>
</g>
<!-- Node31 -->
<g id="node31" class="node">
<title>Node31</title>
<g id="a_node31"><a xlink:title=" ">
<polygon fill="none" stroke="black" points="1363,-486.5 1363,-507.5 1485,-507.5 1485,-486.5 1363,-486.5"/>
<text text-anchor="middle" x="1424" y="-493.9" font-family="FreeSans" font-size="12.00">std::unique_ptr&lt; T &gt;</text>
</a>
</g>
</g>
<!-- Node31&#45;&gt;Node29 -->
<g id="edge43" class="edge">
<title>Node31&#45;&gt;Node29</title>
<path fill="none" stroke="orange" stroke-dasharray="5,2" d="M1397.93,-481.43C1372.9,-467.43 1335.82,-446.7 1314.26,-434.65"/>
<polygon fill="orange" stroke="orange" points="1396.44,-484.6 1406.87,-486.42 1399.85,-478.49 1396.44,-484.6"/>
<text text-anchor="middle" x="1419.5" y="-456.4" font-family="FreeSans" font-size="12.00"> &lt; JKQTPColumn &gt;</text>
</g>
<!-- Node32 -->
<g id="node32" class="node">
<title>Node32</title>
<g id="a_node32"><a xlink:title=" ">
<polygon fill="none" stroke="black" points="1409.5,-572.5 1409.5,-593.5 1438.5,-593.5 1438.5,-572.5 1409.5,-572.5"/>
<text text-anchor="middle" x="1424" y="-579.9" font-family="FreeSans" font-size="12.00">T</text>
</a>
</g>
</g>
<!-- Node32&#45;&gt;Node31 -->
<g id="edge44" class="edge">
<title>Node32&#45;&gt;Node31</title>
<path fill="none" stroke="#9a32cd" stroke-dasharray="5,2" d="M1424,-562.24C1424,-545.01 1424,-520.75 1424,-507.52"/>
<polygon fill="#9a32cd" stroke="#9a32cd" points="1420.5,-562.36 1424,-572.36 1427.5,-562.36 1420.5,-562.36"/>
<text text-anchor="middle" x="1432.5" y="-537.9" font-family="FreeSans" font-size="12.00"> ptr</text>
</g>
<!-- Node33 -->
<g id="node33" class="node">
<title>Node33</title>
<g id="a_node33"><a xlink:href="class_j_k_q_t_p_graph_line_style_mixin.html" target="_top" xlink:title="This Mix&#45;In class provides setter/getter methods, storage and other facilities for the graph line sty...">
<polygon fill="none" stroke="black" points="739.5,-354.5 739.5,-375.5 906.5,-375.5 906.5,-354.5 739.5,-354.5"/>
<text text-anchor="middle" x="823" y="-361.9" font-family="FreeSans" font-size="12.00">JKQTPGraphLineStyleMixin</text>
</a>
</g>
</g>
<!-- Node33&#45;&gt;Node6 -->
<g id="edge46" class="edge">
<title>Node33&#45;&gt;Node6</title>
<path fill="none" stroke="midnightblue" d="M793.99,-350.1C772.27,-339.7 743.14,-325.75 723.98,-316.57"/>
<polygon fill="midnightblue" stroke="midnightblue" points="792.55,-353.3 803.08,-354.46 795.58,-346.98 792.55,-353.3"/>
</g>
<!-- Node34 -->
<g id="node34" class="node">
<title>Node34</title>
<g id="a_node34"><a xlink:href="class_j_k_q_t_p_graph_fill_style_mixin.html" target="_top" xlink:title="This Mix&#45;In class provides setter/getter methods, storage and other facilities for the graph filling ...">
<polygon fill="none" stroke="black" points="786.5,-295.5 786.5,-316.5 945.5,-316.5 945.5,-295.5 786.5,-295.5"/>
<text text-anchor="middle" x="866" y="-302.9" font-family="FreeSans" font-size="12.00">JKQTPGraphFillStyleMixin</text>
</a>
</g>
</g>
<!-- Node34&#45;&gt;Node5 -->
<g id="edge47" class="edge">
<title>Node34&#45;&gt;Node5</title>
<path fill="none" stroke="midnightblue" d="M853.09,-287.05C846.05,-277.27 837.63,-265.56 831.85,-257.53"/>
<polygon fill="midnightblue" stroke="midnightblue" points="850.36,-289.26 859.04,-295.33 856.05,-285.17 850.36,-289.26"/>
</g>
</g>
</svg>
        <g id="navigator" transform="translate(0 0)" fill="#404254">
                <rect fill="#f2f5e9" fill-opacity="0.5" stroke="#606060" stroke-width=".5" x="0" y="0" width="60" height="60"/>
                <use id="zoomplus" xlink:href="#zoomPlus" x="17" y="9" onmousedown="handleZoom(evt,'in')"/>
                <use id="zoomminus" xlink:href="#zoomMin" x="42" y="9" onmousedown="handleZoom(evt,'out')"/>
                <use id="reset" xlink:href="#resetDef" x="30" y="36" onmousedown="handleReset()"/>
                <g id="arrowUp" xlink:href="#dirArrow" transform="translate(30 24)" onmousedown="handlePan(0,-1)">
                  <use xlink:href="#rim" fill="#404040">
                        <set attributeName="fill" to="#808080" begin="arrowUp.mouseover" end="arrowUp.mouseout"/>
                  </use>
                  <path fill="none" stroke="white" stroke-width="1.5" d="M0,-3.0v7 M-2.5,-0.5L0,-3.0L2.5,-0.5"/>
                </g>
                <g id="arrowRight" xlink:href="#dirArrow" transform="rotate(90) translate(36 -43)" onmousedown="handlePan(1,0)">
                  <use xlink:href="#rim" fill="#404040">
                        <set attributeName="fill" to="#808080" begin="arrowRight.mouseover" end="arrowRight.mouseout"/>
                  </use>
                  <path fill="none" stroke="white" stroke-width="1.5" d="M0,-3.0v7 M-2.5,-0.5L0,-3.0L2.5,-0.5"/>
                </g>
                <g id="arrowDown" xlink:href="#dirArrow" transform="rotate(180) translate(-30 -48)" onmousedown="handlePan(0,1)">
                  <use xlink:href="#rim" fill="#404040">
                        <set attributeName="fill" to="#808080" begin="arrowDown.mouseover" end="arrowDown.mouseout"/>
                  </use>
                  <path fill="none" stroke="white" stroke-width="1.5" d="M0,-3.0v7 M-2.5,-0.5L0,-3.0L2.5,-0.5"/>
                </g>
                <g id="arrowLeft" xlink:href="#dirArrow" transform="rotate(270) translate(-36 17)" onmousedown="handlePan(-1,0)">
                  <use xlink:href="#rim" fill="#404040">
                        <set attributeName="fill" to="#808080" begin="arrowLeft.mouseover" end="arrowLeft.mouseout"/>
                  </use>
                  <path fill="none" stroke="white" stroke-width="1.5" d="M0,-3.0v7 M-2.5,-0.5L0,-3.0L2.5,-0.5"/>
                </g>
        </g>
        <svg viewBox="0 0 15 15" width="100%" height="30px" preserveAspectRatio="xMaxYMin meet">
         <g id="arrow_out" transform="scale(0.3 0.3)">
          <a xlink:href="class_j_k_q_t_p_geo_chord__coll__graph_org.svg" target="_base">
           <rect id="button" ry="5" rx="5" y="6" x="6" height="38" width="38"
                fill="#f2f5e9" fill-opacity="0.5" stroke="#606060" stroke-width="1.0"/>
           <path id="arrow"
             d="M 11.500037,31.436501 C 11.940474,20.09759 22.043105,11.32322 32.158766,21.979434 L 37.068811,17.246167 C 37.068811,17.246167 37.088388,32 37.088388,32 L 22.160133,31.978069 C 22.160133,31.978069 26.997745,27.140456 26.997745,27.140456 C 18.528582,18.264221 13.291696,25.230495 11.500037,31.436501 z"
             style="fill:#404040;"/>
          </a>
         </g>
        </svg>
</svg>
