<?xml version="1.0" encoding="UTF-8" standalone="no"?>
<!DOCTYPE svg PUBLIC "-//W3C//DTD SVG 1.1//EN"
 "http://www.w3.org/Graphics/SVG/1.1/DTD/svg11.dtd">
<!-- Generated by graphviz version 2.43.0 (0)
 -->
<!-- Title: JKQTFPVBarPlot Pages: 1 -->
<svg width="301pt" height="282pt"
 viewBox="0.00 0.00 301.00 282.00" xmlns="http://www.w3.org/2000/svg" xmlns:xlink="http://www.w3.org/1999/xlink">
<g id="graph0" class="graph" transform="scale(1 1) rotate(0) translate(4 278)">
<title>JKQTFPVBarPlot</title>
<!-- Node1 -->
<g id="node1" class="node">
<title>Node1</title>
<g id="a_node1"><a xlink:title="a simple vertical bar plot for JKQTFastPlotter">
<polygon fill="#bfbfbf" stroke="black" points="11,-0.5 11,-21.5 122,-21.5 122,-0.5 11,-0.5"/>
<text text-anchor="middle" x="66.5" y="-7.9" font-family="Helvetica,sans-Serif" font-size="12.00">JKQTFPVBarPlot</text>
</a>
</g>
</g>
<!-- Node2 -->
<g id="node2" class="node">
<title>Node2</title>
<g id="a_node2"><a xlink:href="class_j_k_q_t_f_p_line_plot.html" target="_top" xlink:title="a simple line plot for JKQTFastPlotter">
<polygon fill="none" stroke="black" points="13,-59.5 13,-80.5 120,-80.5 120,-59.5 13,-59.5"/>
<text text-anchor="middle" x="66.5" y="-66.9" font-family="Helvetica,sans-Serif" font-size="12.00">JKQTFPLinePlot</text>
</a>
</g>
</g>
<!-- Node2&#45;&gt;Node1 -->
<g id="edge1" class="edge">
<title>Node2&#45;&gt;Node1</title>
<path fill="none" stroke="midnightblue" d="M66.5,-49.23C66.5,-39.85 66.5,-29.07 66.5,-21.53"/>
<polygon fill="midnightblue" stroke="midnightblue" points="63,-49.33 66.5,-59.33 70,-49.33 63,-49.33"/>
</g>
<!-- Node3 -->
<g id="node3" class="node">
<title>Node3</title>
<g id="a_node3"><a xlink:href="class_j_k_q_t_f_p_plot.html" target="_top" xlink:title="base class for all plots that may be plotted by JKQTFastPlotter">
<polygon fill="none" stroke="black" points="25.5,-118.5 25.5,-139.5 107.5,-139.5 107.5,-118.5 25.5,-118.5"/>
<text text-anchor="middle" x="66.5" y="-125.9" font-family="Helvetica,sans-Serif" font-size="12.00">JKQTFPPlot</text>
</a>
</g>
</g>
<!-- Node3&#45;&gt;Node2 -->
<g id="edge2" class="edge">
<title>Node3&#45;&gt;Node2</title>
<path fill="none" stroke="midnightblue" d="M66.5,-108.23C66.5,-98.85 66.5,-88.07 66.5,-80.53"/>
<polygon fill="midnightblue" stroke="midnightblue" points="63,-108.33 66.5,-118.33 70,-108.33 63,-108.33"/>
</g>
<!-- Node4 -->
<g id="node4" class="node">
<title>Node4</title>
<g id="a_node4"><a xlink:title=" ">
<polygon fill="none" stroke="black" points="0,-191.5 0,-212.5 65,-212.5 65,-191.5 0,-191.5"/>
<text text-anchor="middle" x="32.5" y="-198.9" font-family="Helvetica,sans-Serif" font-size="12.00">QObject</text>
</a>
</g>
</g>
<!-- Node4&#45;&gt;Node3 -->
<g id="edge3" class="edge">
<title>Node4&#45;&gt;Node3</title>
<path fill="none" stroke="midnightblue" d="M41.58,-182.04C48.08,-168.47 56.56,-150.75 61.77,-139.88"/>
<polygon fill="midnightblue" stroke="midnightblue" points="38.25,-180.89 37.09,-191.42 44.56,-183.92 38.25,-180.89"/>
</g>
<!-- Node5 -->
<g id="node5" class="node">
<title>Node5</title>
<g id="a_node5"><a xlink:href="class_j_k_q_t_fast_plotter.html" target="_top" xlink:title="a speed optimized plotter class">
<polygon fill="none" stroke="black" points="83,-191.5 83,-212.5 192,-212.5 192,-191.5 83,-191.5"/>
<text text-anchor="middle" x="137.5" y="-198.9" font-family="Helvetica,sans-Serif" font-size="12.00">JKQTFastPlotter</text>
</a>
</g>
</g>
<!-- Node5&#45;&gt;Node3 -->
<g id="edge4" class="edge">
<title>Node5&#45;&gt;Node3</title>
<path fill="none" stroke="#9a32cd" stroke-dasharray="5,2" d="M120.5,-184C106.72,-170.22 87.78,-151.28 76.38,-139.88"/>
<polygon fill="#9a32cd" stroke="#9a32cd" points="118.38,-186.83 127.92,-191.42 123.33,-181.88 118.38,-186.83"/>
<text text-anchor="middle" x="127" y="-161.4" font-family="Helvetica,sans-Serif" font-size="12.00"> parent</text>
</g>
<!-- Node5&#45;&gt;Node5 -->
<g id="edge6" class="edge">
<title>Node5&#45;&gt;Node5</title>
<path fill="none" stroke="#9a32cd" stroke-dasharray="5,2" d="M202.41,-206.15C207.12,-205.22 210,-203.83 210,-202 210,-199.07 202.62,-197.29 192.2,-196.64"/>
<polygon fill="#9a32cd" stroke="#9a32cd" points="201.72,-202.71 192.2,-207.36 202.54,-209.66 201.72,-202.71"/>
<text text-anchor="middle" x="251.5" y="-205.4" font-family="Helvetica,sans-Serif" font-size="12.00"> synchronizeX</text>
<text text-anchor="middle" x="251.5" y="-192.4" font-family="Helvetica,sans-Serif" font-size="12.00">synchronizeY</text>
</g>
<!-- Node6 -->
<g id="node6" class="node">
<title>Node6</title>
<g id="a_node6"><a xlink:title=" ">
<polygon fill="none" stroke="black" points="80.5,-252.5 80.5,-273.5 194.5,-273.5 194.5,-252.5 80.5,-252.5"/>
<text text-anchor="middle" x="137.5" y="-259.9" font-family="Helvetica,sans-Serif" font-size="12.00">QOpenGLWidget</text>
</a>
</g>
</g>
<!-- Node6&#45;&gt;Node5 -->
<g id="edge5" class="edge">
<title>Node6&#45;&gt;Node5</title>
<path fill="none" stroke="midnightblue" d="M137.5,-241.99C137.5,-232.05 137.5,-220.5 137.5,-212.56"/>
<polygon fill="midnightblue" stroke="midnightblue" points="134,-242.26 137.5,-252.26 141,-242.26 134,-242.26"/>
</g>
</g>
</svg>
