<?xml version="1.0" encoding="UTF-8" standalone="no"?>
<!DOCTYPE svg PUBLIC "-//W3C//DTD SVG 1.1//EN"
 "http://www.w3.org/Graphics/SVG/1.1/DTD/svg11.dtd">
<!-- Generated by graphviz version 2.43.0 (0)
 -->
<!-- Title: JKQTPColorPaletteWithModifierStyleAndToolsMixin Pages: 1 -->
<svg width="339pt" height="288pt"
 viewBox="0.00 0.00 339.00 288.00" xmlns="http://www.w3.org/2000/svg" xmlns:xlink="http://www.w3.org/1999/xlink">
<g id="graph0" class="graph" transform="scale(1 1) rotate(0) translate(4 284)">
<title>JKQTPColorPaletteWithModifierStyleAndToolsMixin</title>
<!-- Node1 -->
<g id="node1" class="node">
<title>Node1</title>
<g id="a_node1"><a xlink:title="if a class is derived from this class, it may use color bars that have 2 axes (one &quot;data&quot;/color axis ...">
<polygon fill="#bfbfbf" stroke="black" points="64.5,-174.5 64.5,-208.5 264.5,-208.5 264.5,-174.5 64.5,-174.5"/>
<text text-anchor="start" x="72.5" y="-194.9" font-family="Helvetica,sans-Serif" font-size="12.00">JKQTPColorPaletteWithModifier</text>
<text text-anchor="middle" x="164.5" y="-181.9" font-family="Helvetica,sans-Serif" font-size="12.00">StyleAndToolsMixin</text>
</a>
</g>
</g>
<!-- Node3 -->
<g id="node3" class="node">
<title>Node3</title>
<g id="a_node3"><a xlink:href="class_j_k_q_t_p_math_image.html" target="_top" xlink:title="class to plot an image from an 2&#45;dimensional array of values">
<polygon fill="none" stroke="black" points="104,-116.5 104,-137.5 225,-137.5 225,-116.5 104,-116.5"/>
<text text-anchor="middle" x="164.5" y="-123.9" font-family="Helvetica,sans-Serif" font-size="12.00">JKQTPMathImage</text>
</a>
</g>
</g>
<!-- Node1&#45;&gt;Node3 -->
<g id="edge2" class="edge">
<title>Node1&#45;&gt;Node3</title>
<path fill="none" stroke="midnightblue" d="M164.5,-164.28C164.5,-154.91 164.5,-144.92 164.5,-137.8"/>
<polygon fill="midnightblue" stroke="midnightblue" points="161,-164.4 164.5,-174.4 168,-164.4 161,-164.4"/>
</g>
<!-- Node2 -->
<g id="node2" class="node">
<title>Node2</title>
<g id="a_node2"><a xlink:href="class_j_k_q_t_p_color_palette_style_and_tools_mixin.html" target="_top" xlink:title="if a class is derived from this class, it may use color bars">
<polygon fill="none" stroke="black" points="75.5,-245.5 75.5,-279.5 253.5,-279.5 253.5,-245.5 75.5,-245.5"/>
<text text-anchor="start" x="83.5" y="-265.9" font-family="Helvetica,sans-Serif" font-size="12.00">JKQTPColorPaletteStyleAnd</text>
<text text-anchor="middle" x="164.5" y="-252.9" font-family="Helvetica,sans-Serif" font-size="12.00">ToolsMixin</text>
</a>
</g>
</g>
<!-- Node2&#45;&gt;Node1 -->
<g id="edge1" class="edge">
<title>Node2&#45;&gt;Node1</title>
<path fill="none" stroke="midnightblue" d="M164.5,-235.25C164.5,-226.39 164.5,-216.77 164.5,-208.9"/>
<polygon fill="midnightblue" stroke="midnightblue" points="161,-235.5 164.5,-245.5 168,-235.5 161,-235.5"/>
</g>
<!-- Node4 -->
<g id="node4" class="node">
<title>Node4</title>
<g id="a_node4"><a xlink:href="class_j_k_q_t_p_column_math_image.html" target="_top" xlink:title="class to plot an image from an 2&#45;dimensional array of values stored in a column of the datastore">
<polygon fill="none" stroke="black" points="0,-58.5 0,-79.5 167,-79.5 167,-58.5 0,-58.5"/>
<text text-anchor="middle" x="83.5" y="-65.9" font-family="Helvetica,sans-Serif" font-size="12.00">JKQTPColumnMathImage</text>
</a>
</g>
</g>
<!-- Node3&#45;&gt;Node4 -->
<g id="edge3" class="edge">
<title>Node3&#45;&gt;Node4</title>
<path fill="none" stroke="midnightblue" d="M142.07,-110.49C127.77,-100.61 109.71,-88.12 97.45,-79.64"/>
<polygon fill="midnightblue" stroke="midnightblue" points="140.17,-113.44 150.39,-116.25 144.16,-107.68 140.17,-113.44"/>
</g>
<!-- Node5 -->
<g id="node5" class="node">
<title>Node5</title>
<g id="a_node5"><a xlink:href="class_j_k_q_t_p_contour_plot.html" target="_top" xlink:title="class for a contour plot">
<polygon fill="none" stroke="black" points="185,-58.5 185,-79.5 308,-79.5 308,-58.5 185,-58.5"/>
<text text-anchor="middle" x="246.5" y="-65.9" font-family="Helvetica,sans-Serif" font-size="12.00">JKQTPContourPlot</text>
</a>
</g>
</g>
<!-- Node3&#45;&gt;Node5 -->
<g id="edge4" class="edge">
<title>Node3&#45;&gt;Node5</title>
<path fill="none" stroke="midnightblue" d="M187.21,-110.49C201.68,-100.61 219.97,-88.12 232.38,-79.64"/>
<polygon fill="midnightblue" stroke="midnightblue" points="185.07,-107.72 178.78,-116.25 189.02,-113.5 185.07,-107.72"/>
</g>
<!-- Node6 -->
<g id="node6" class="node">
<title>Node6</title>
<g id="a_node6"><a xlink:href="class_j_k_q_t_p_column_contour_plot.html" target="_top" xlink:title="class for a contour plots (same as JKQTPContourPlot) of images stored in a JKQTPDatastore column">
<polygon fill="none" stroke="black" points="162,-0.5 162,-21.5 331,-21.5 331,-0.5 162,-0.5"/>
<text text-anchor="middle" x="246.5" y="-7.9" font-family="Helvetica,sans-Serif" font-size="12.00">JKQTPColumnContourPlot</text>
</a>
</g>
</g>
<!-- Node5&#45;&gt;Node6 -->
<g id="edge5" class="edge">
<title>Node5&#45;&gt;Node6</title>
<path fill="none" stroke="midnightblue" d="M246.5,-48.16C246.5,-39.16 246.5,-28.92 246.5,-21.64"/>
<polygon fill="midnightblue" stroke="midnightblue" points="243,-48.25 246.5,-58.25 250,-48.25 243,-48.25"/>
</g>
</g>
</svg>
