<?xml version="1.0" encoding="UTF-8" standalone="no"?>
<!DOCTYPE svg PUBLIC "-//W3C//DTD SVG 1.1//EN"
 "http://www.w3.org/Graphics/SVG/1.1/DTD/svg11.dtd">
<!-- Generated by graphviz version 2.43.0 (0)
 -->
<!-- Title: JKQTPGeoText Pages: 1 -->
<svg width="390pt" height="204pt"
 viewBox="0.00 0.00 389.50 204.00" xmlns="http://www.w3.org/2000/svg" xmlns:xlink="http://www.w3.org/1999/xlink">
<g id="graph0" class="graph" transform="scale(1 1) rotate(0) translate(4 200)">
<title>JKQTPGeoText</title>
<!-- Node1 -->
<g id="node1" class="node">
<title>Node1</title>
<g id="a_node1"><a xlink:title="This JKQTPPlotAnnotationElement is used to display text. It uses the JKQTMathText class in order to d...">
<polygon fill="#bfbfbf" stroke="black" points="144.5,-0.5 144.5,-21.5 245.5,-21.5 245.5,-0.5 144.5,-0.5"/>
<text text-anchor="middle" x="195" y="-7.9" font-family="Helvetica,sans-Serif" font-size="12.00">JKQTPGeoText</text>
</a>
</g>
</g>
<!-- Node2 -->
<g id="node2" class="node">
<title>Node2</title>
<g id="a_node2"><a xlink:href="class_j_k_q_t_p_plot_annotation_element.html" target="_top" xlink:title="this is the virtual base class of all JKQTPPlotElement&#39;s in a JKQTPlotter plot that represent annotat...">
<polygon fill="none" stroke="black" points="0,-58.5 0,-79.5 190,-79.5 190,-58.5 0,-58.5"/>
<text text-anchor="middle" x="95" y="-65.9" font-family="Helvetica,sans-Serif" font-size="12.00">JKQTPPlotAnnotationElement</text>
</a>
</g>
</g>
<!-- Node2&#45;&gt;Node1 -->
<g id="edge1" class="edge">
<title>Node2&#45;&gt;Node1</title>
<path fill="none" stroke="midnightblue" d="M121.21,-53.32C139.07,-43.32 162.22,-30.36 177.78,-21.64"/>
<polygon fill="midnightblue" stroke="midnightblue" points="119.43,-50.31 112.42,-58.25 122.85,-56.41 119.43,-50.31"/>
</g>
<!-- Node3 -->
<g id="node3" class="node">
<title>Node3</title>
<g id="a_node3"><a xlink:href="class_j_k_q_t_p_plot_element.html" target="_top" xlink:title="this virtual base class of every element, which is part of a JKQTPlotter plot and may appear in its k...">
<polygon fill="none" stroke="black" points="32.5,-116.5 32.5,-137.5 157.5,-137.5 157.5,-116.5 32.5,-116.5"/>
<text text-anchor="middle" x="95" y="-123.9" font-family="Helvetica,sans-Serif" font-size="12.00">JKQTPPlotElement</text>
</a>
</g>
</g>
<!-- Node3&#45;&gt;Node2 -->
<g id="edge2" class="edge">
<title>Node3&#45;&gt;Node2</title>
<path fill="none" stroke="midnightblue" d="M95,-106.16C95,-97.16 95,-86.92 95,-79.64"/>
<polygon fill="midnightblue" stroke="midnightblue" points="91.5,-106.25 95,-116.25 98.5,-106.25 91.5,-106.25"/>
</g>
<!-- Node4 -->
<g id="node4" class="node">
<title>Node4</title>
<g id="a_node4"><a xlink:title=" ">
<polygon fill="none" stroke="black" points="62.5,-174.5 62.5,-195.5 127.5,-195.5 127.5,-174.5 62.5,-174.5"/>
<text text-anchor="middle" x="95" y="-181.9" font-family="Helvetica,sans-Serif" font-size="12.00">QObject</text>
</a>
</g>
</g>
<!-- Node4&#45;&gt;Node3 -->
<g id="edge3" class="edge">
<title>Node4&#45;&gt;Node3</title>
<path fill="none" stroke="midnightblue" d="M95,-164.16C95,-155.16 95,-144.92 95,-137.64"/>
<polygon fill="midnightblue" stroke="midnightblue" points="91.5,-164.25 95,-174.25 98.5,-164.25 91.5,-164.25"/>
</g>
<!-- Node5 -->
<g id="node5" class="node">
<title>Node5</title>
<g id="a_node5"><a xlink:href="class_j_k_q_t_p_graph_text_style_mixin.html" target="_top" xlink:title="This Mix&#45;In class provides setter/getter methods, storage and other facilities for text in graphs.">
<polygon fill="none" stroke="black" points="208.5,-58.5 208.5,-79.5 381.5,-79.5 381.5,-58.5 208.5,-58.5"/>
<text text-anchor="middle" x="295" y="-65.9" font-family="Helvetica,sans-Serif" font-size="12.00">JKQTPGraphTextStyleMixin</text>
</a>
</g>
</g>
<!-- Node5&#45;&gt;Node1 -->
<g id="edge4" class="edge">
<title>Node5&#45;&gt;Node1</title>
<path fill="none" stroke="midnightblue" d="M268.79,-53.32C250.93,-43.32 227.78,-30.36 212.22,-21.64"/>
<polygon fill="midnightblue" stroke="midnightblue" points="267.15,-56.41 277.58,-58.25 270.57,-50.31 267.15,-56.41"/>
</g>
</g>
</svg>
