<?xml version="1.0" encoding="UTF-8" standalone="no"?>
<!DOCTYPE svg PUBLIC "-//W3C//DTD SVG 1.1//EN"
 "http://www.w3.org/Graphics/SVG/1.1/DTD/svg11.dtd">
<!-- Generated by graphviz version 2.43.0 (0)
 -->
<!-- Title: JKQTMathTextInstruction1Node Pages: 1 -->
<svg width="360pt" height="114pt"
 viewBox="0.00 0.00 359.50 114.00" xmlns="http://www.w3.org/2000/svg" xmlns:xlink="http://www.w3.org/1999/xlink">
<g id="graph0" class="graph" transform="scale(1 1) rotate(0) translate(4 110)">
<title>JKQTMathTextInstruction1Node</title>
<!-- Node1 -->
<g id="node1" class="node">
<title>Node1</title>
<g id="a_node1"><a xlink:title="subclass representing an instruction node with exactly one argument in the syntax tree">
<polygon fill="#bfbfbf" stroke="black" points="0,-0.5 0,-21.5 189,-21.5 189,-0.5 0,-0.5"/>
<text text-anchor="middle" x="94.5" y="-7.9" font-family="FreeSans" font-size="12.00">JKQTMathTextInstruction1Node</text>
</a>
</g>
</g>
<!-- Node2 -->
<g id="node2" class="node">
<title>Node2</title>
<g id="a_node2"><a xlink:href="class_j_k_q_t_math_text_node.html" target="_top" xlink:title="subclass representing one node in the syntax tree">
<polygon fill="none" stroke="black" points="76.5,-84.5 76.5,-105.5 204.5,-105.5 204.5,-84.5 76.5,-84.5"/>
<text text-anchor="middle" x="140.5" y="-91.9" font-family="FreeSans" font-size="12.00">JKQTMathTextNode</text>
</a>
</g>
</g>
<!-- Node2&#45;&gt;Node1 -->
<g id="edge1" class="edge">
<title>Node2&#45;&gt;Node1</title>
<path fill="none" stroke="midnightblue" d="M107.1,-78.76C102.47,-75.23 98.34,-71 95.5,-66 87.72,-52.3 89.72,-33.33 92.02,-21.9"/>
<polygon fill="midnightblue" stroke="midnightblue" points="105.5,-81.89 115.8,-84.39 109.31,-76.02 105.5,-81.89"/>
</g>
<!-- Node2&#45;&gt;Node1 -->
<g id="edge5" class="edge">
<title>Node2&#45;&gt;Node1</title>
<path fill="none" stroke="#9a32cd" stroke-dasharray="5,2" d="M123.54,-76.91C120.62,-73.47 117.8,-69.75 115.5,-66 106.67,-51.59 100.38,-32.84 97.11,-21.65"/>
<polygon fill="#9a32cd" stroke="#9a32cd" points="120.97,-79.29 130.29,-84.33 126.15,-74.58 120.97,-79.29"/>
<text text-anchor="middle" x="129.5" y="-49.9" font-family="FreeSans" font-size="12.00"> child</text>
</g>
<!-- Node3 -->
<g id="node3" class="node">
<title>Node3</title>
<g id="a_node3"><a xlink:href="class_j_k_q_t_math_text.html" target="_top" xlink:title="this class parses a LaTeX string and can then draw the contained text/equation onto a QPainter">
<polygon fill="none" stroke="black" points="219.5,-0.5 219.5,-21.5 317.5,-21.5 317.5,-0.5 219.5,-0.5"/>
<text text-anchor="middle" x="268.5" y="-7.9" font-family="FreeSans" font-size="12.00">JKQTMathText</text>
</a>
</g>
</g>
<!-- Node2&#45;&gt;Node3 -->
<g id="edge4" class="edge">
<title>Node2&#45;&gt;Node3</title>
<path fill="none" stroke="#9a32cd" stroke-dasharray="5,2" d="M144.03,-74.04C147.07,-62.55 152.59,-48.71 162.5,-40 171.26,-32.3 195.9,-25.56 219.23,-20.62"/>
<polygon fill="#9a32cd" stroke="#9a32cd" points="140.55,-73.57 141.83,-84.09 147.39,-75.07 140.55,-73.57"/>
<text text-anchor="middle" x="202.5" y="-56.4" font-family="FreeSans" font-size="12.00"> parsedNode</text>
<text text-anchor="middle" x="202.5" y="-43.4" font-family="FreeSans" font-size="12.00">unparsedNode</text>
</g>
<!-- Node3&#45;&gt;Node2 -->
<g id="edge2" class="edge">
<title>Node3&#45;&gt;Node2</title>
<path fill="none" stroke="#9a32cd" stroke-dasharray="5,2" d="M264.97,-31.96C261.93,-43.45 256.41,-57.29 246.5,-66 234.78,-76.3 219.69,-82.88 204.59,-87.06"/>
<polygon fill="#9a32cd" stroke="#9a32cd" points="268.45,-32.43 267.17,-21.91 261.61,-30.93 268.45,-32.43"/>
<text text-anchor="middle" x="281" y="-49.9" font-family="FreeSans" font-size="12.00"> parent</text>
</g>
<!-- Node4 -->
<g id="node4" class="node">
<title>Node4</title>
<g id="a_node4"><a xlink:title=" ">
<polygon fill="none" stroke="black" points="289.5,-84.5 289.5,-105.5 351.5,-105.5 351.5,-84.5 289.5,-84.5"/>
<text text-anchor="middle" x="320.5" y="-91.9" font-family="FreeSans" font-size="12.00">QObject</text>
</a>
</g>
</g>
<!-- Node4&#45;&gt;Node3 -->
<g id="edge3" class="edge">
<title>Node4&#45;&gt;Node3</title>
<path fill="none" stroke="midnightblue" d="M318.63,-74.23C316.84,-63.38 313.35,-50.12 306.5,-40 301.45,-32.53 293.72,-26.31 286.55,-21.65"/>
<polygon fill="midnightblue" stroke="midnightblue" points="315.2,-74.96 319.94,-84.43 322.14,-74.06 315.2,-74.96"/>
</g>
</g>
</svg>
