<?xml version="1.0" encoding="UTF-8" standalone="no"?>
<!DOCTYPE svg PUBLIC "-//W3C//DTD SVG 1.1//EN"
 "http://www.w3.org/Graphics/SVG/1.1/DTD/svg11.dtd">
<!-- Generated by graphviz version 2.43.0 (0)
 -->
<!-- Title: JKQTPGraphDecoratedHeadLineStyleMixin Pages: 1 -->
<svg width="233pt" height="213pt"
 viewBox="0.00 0.00 233.00 213.00" xmlns="http://www.w3.org/2000/svg" xmlns:xlink="http://www.w3.org/1999/xlink">
<g id="graph0" class="graph" transform="scale(1 1) rotate(0) translate(4 209)">
<title>JKQTPGraphDecoratedHeadLineStyleMixin</title>
<!-- Node1 -->
<g id="node1" class="node">
<title>Node1</title>
<g id="a_node1"><a xlink:title="This Mix&#45;In class provides setter/getter methods, storage and other facilities for the graph line sty...">
<polygon fill="#999999" stroke="#666666" points="217,-148 8,-148 8,-114 217,-114 217,-148"/>
<text text-anchor="start" x="16" y="-134.4" font-family="Helvetica,sans-Serif" font-size="12.00">JKQTPGraphDecoratedHeadLine</text>
<text text-anchor="middle" x="112.5" y="-121.4" font-family="Helvetica,sans-Serif" font-size="12.00">StyleMixin</text>
</a>
</g>
</g>
<!-- Node3 -->
<g id="node3" class="node">
<title>Node3</title>
<g id="a_node3"><a xlink:href="class_j_k_q_t_p_geo_base_decorated_head_line.html" target="_top" xlink:title="This JKQTPGeometricPlotElement is used as base class for geometric drawing elements that consist of l...">
<polygon fill="white" stroke="#666666" points="225,-78 0,-78 0,-57 225,-57 225,-78"/>
<text text-anchor="middle" x="112.5" y="-64.4" font-family="Helvetica,sans-Serif" font-size="12.00">JKQTPGeoBaseDecoratedHeadLine</text>
</a>
</g>
</g>
<!-- Node1&#45;&gt;Node3 -->
<g id="edge2" class="edge">
<title>Node1&#45;&gt;Node3</title>
<path fill="none" stroke="#63b8ff" d="M112.5,-103.6C112.5,-94.51 112.5,-84.9 112.5,-78.04"/>
<polygon fill="#63b8ff" stroke="#63b8ff" points="109,-103.84 112.5,-113.84 116,-103.84 109,-103.84"/>
</g>
<!-- Node2 -->
<g id="node2" class="node">
<title>Node2</title>
<g id="a_node2"><a xlink:href="class_j_k_q_t_p_graph_line_style_mixin.html" target="_top" xlink:title="This Mix&#45;In class provides setter/getter methods, storage and other facilities for the graph line sty...">
<polygon fill="white" stroke="#666666" points="199.5,-205 25.5,-205 25.5,-184 199.5,-184 199.5,-205"/>
<text text-anchor="middle" x="112.5" y="-191.4" font-family="Helvetica,sans-Serif" font-size="12.00">JKQTPGraphLineStyleMixin</text>
</a>
</g>
</g>
<!-- Node2&#45;&gt;Node1 -->
<g id="edge1" class="edge">
<title>Node2&#45;&gt;Node1</title>
<path fill="none" stroke="#63b8ff" d="M112.5,-173.77C112.5,-165.61 112.5,-156.26 112.5,-148.48"/>
<polygon fill="#63b8ff" stroke="#63b8ff" points="109,-173.89 112.5,-183.89 116,-173.89 109,-173.89"/>
</g>
<!-- Node4 -->
<g id="node4" class="node">
<title>Node4</title>
<g id="a_node4"><a xlink:href="class_j_k_q_t_p_geo_infinite_line.html" target="_top" xlink:title="This JKQTPGeometricPlotElement is used to draw an infinite line.">
<polygon fill="white" stroke="#666666" points="184,-21 41,-21 41,0 184,0 184,-21"/>
<text text-anchor="middle" x="112.5" y="-7.4" font-family="Helvetica,sans-Serif" font-size="12.00">JKQTPGeoInfiniteLine</text>
</a>
</g>
</g>
<!-- Node3&#45;&gt;Node4 -->
<g id="edge3" class="edge">
<title>Node3&#45;&gt;Node4</title>
<path fill="none" stroke="#63b8ff" d="M112.5,-46.86C112.5,-38.2 112.5,-28.42 112.5,-21.34"/>
<polygon fill="#63b8ff" stroke="#63b8ff" points="109,-46.92 112.5,-56.92 116,-46.92 109,-46.92"/>
</g>
</g>
</svg>
