<?xml version="1.0" encoding="UTF-8" standalone="no"?>
<!DOCTYPE svg PUBLIC "-//W3C//DTD SVG 1.1//EN"
 "http://www.w3.org/Graphics/SVG/1.1/DTD/svg11.dtd">
<!-- Generated by graphviz version 2.43.0 (0)
 -->
<!-- Title: JKQTMathTextNode Pages: 1 -->
<svg width="415pt" height="99pt"
 viewBox="0.00 0.00 414.50 99.00" xmlns="http://www.w3.org/2000/svg" xmlns:xlink="http://www.w3.org/1999/xlink">
<g id="graph0" class="graph" transform="scale(1 1) rotate(0) translate(4 95)">
<title>JKQTMathTextNode</title>
<!-- Node1 -->
<g id="node1" class="node">
<title>Node1</title>
<g id="a_node1"><a xlink:title="subclass representing one node in the syntax tree">
<polygon fill="#999999" stroke="#666666" points="131,-91 0,-91 0,-70 131,-70 131,-91"/>
<text text-anchor="middle" x="65.5" y="-77.4" font-family="Helvetica,sans-Serif" font-size="12.00">JKQTMathTextNode</text>
</a>
</g>
</g>
<!-- Node1&#45;&gt;Node1 -->
<g id="edge5" class="edge">
<title>Node1&#45;&gt;Node1</title>
<path fill="none" stroke="#9a32cd" stroke-dasharray="5,2" d="M141.52,-84.94C146.19,-83.89 149,-82.41 149,-80.5 149,-77.45 141.81,-75.49 131.31,-74.63"/>
<polygon fill="#9a32cd" stroke="#9a32cd" points="140.73,-81.52 131.31,-86.37 141.7,-88.45 140.73,-81.52"/>
<text text-anchor="middle" x="186.5" y="-77.4" font-family="Helvetica,sans-Serif" font-size="12.00"> parentNode</text>
</g>
<!-- Node2 -->
<g id="node2" class="node">
<title>Node2</title>
<g id="a_node2"><a xlink:href="class_j_k_q_t_math_text.html" target="_top" xlink:title="this class parses a mathematical markup string and can then draw the contained text/equation onto a Q...">
<polygon fill="white" stroke="#666666" points="269,-21 170,-21 170,0 269,0 269,-21"/>
<text text-anchor="middle" x="219.5" y="-7.4" font-family="Helvetica,sans-Serif" font-size="12.00">JKQTMathText</text>
</a>
</g>
</g>
<!-- Node1&#45;&gt;Node2 -->
<g id="edge3" class="edge">
<title>Node1&#45;&gt;Node2</title>
<path fill="none" stroke="#9a32cd" stroke-dasharray="5,2" d="M57.38,-60C55.69,-52.68 55.66,-44.75 60.5,-39 74.3,-22.61 128.4,-15.98 169.7,-13.31"/>
<polygon fill="#9a32cd" stroke="#9a32cd" points="54.11,-61.25 60.55,-69.66 60.76,-59.07 54.11,-61.25"/>
<text text-anchor="middle" x="99" y="-42.4" font-family="Helvetica,sans-Serif" font-size="12.00"> parsedNode</text>
</g>
<!-- Node2&#45;&gt;Node1 -->
<g id="edge1" class="edge">
<title>Node2&#45;&gt;Node1</title>
<path fill="none" stroke="#9a32cd" stroke-dasharray="5,2" d="M187.37,-25.31C178.52,-29.43 169.01,-34.15 160.5,-39 151.61,-44.07 150.61,-47.33 141.5,-52 127.51,-59.17 111.22,-65.33 97.31,-69.99"/>
<polygon fill="#9a32cd" stroke="#9a32cd" points="188.99,-28.42 196.65,-21.1 186.1,-22.05 188.99,-28.42"/>
<text text-anchor="middle" x="209" y="-42.4" font-family="Helvetica,sans-Serif" font-size="12.00"> parentMathText</text>
</g>
<!-- Node3 -->
<g id="node3" class="node">
<title>Node3</title>
<g id="a_node3"><a xlink:title=" ">
<polygon fill="white" stroke="#666666" points="308,-91 243,-91 243,-70 308,-70 308,-91"/>
<text text-anchor="middle" x="275.5" y="-77.4" font-family="Helvetica,sans-Serif" font-size="12.00">QObject</text>
</a>
</g>
</g>
<!-- Node3&#45;&gt;Node2 -->
<g id="edge2" class="edge">
<title>Node3&#45;&gt;Node2</title>
<path fill="none" stroke="#63b8ff" d="M271.63,-60.24C269.51,-53.05 266.29,-45.15 261.5,-39 255.71,-31.58 247.34,-25.52 239.58,-21"/>
<polygon fill="#63b8ff" stroke="#63b8ff" points="268.24,-61.1 274.03,-69.98 275.04,-59.43 268.24,-61.1"/>
</g>
<!-- Node4 -->
<g id="node4" class="node">
<title>Node4</title>
<g id="a_node4"><a xlink:title=" ">
<polygon fill="white" stroke="#666666" points="406.5,-91 326.5,-91 326.5,-70 406.5,-70 406.5,-91"/>
<text text-anchor="middle" x="366.5" y="-77.4" font-family="Helvetica,sans-Serif" font-size="12.00">std::mutex</text>
</a>
</g>
</g>
<!-- Node4&#45;&gt;Node2 -->
<g id="edge4" class="edge">
<title>Node4&#45;&gt;Node2</title>
<path fill="none" stroke="#9a32cd" stroke-dasharray="5,2" d="M336.59,-65.66C307.88,-52.38 265.27,-32.67 240.14,-21.05"/>
<polygon fill="#9a32cd" stroke="#9a32cd" points="335.2,-68.88 345.75,-69.9 338.14,-62.53 335.2,-68.88"/>
<text text-anchor="middle" x="333" y="-42.4" font-family="Helvetica,sans-Serif" font-size="12.00"> s_mutex</text>
</g>
</g>
</svg>
