<?xml version="1.0" encoding="UTF-8" standalone="no"?>
<!DOCTYPE svg PUBLIC "-//W3C//DTD SVG 1.1//EN"
 "http://www.w3.org/Graphics/SVG/1.1/DTD/svg11.dtd">
<!-- Generated by graphviz version 2.43.0 (0)
 -->
<!-- Title: JKQTMathTextMultiChildNode Pages: 1 -->
<svg width="803pt" height="150pt"
 viewBox="0.00 0.00 803.00 150.00" xmlns="http://www.w3.org/2000/svg" xmlns:xlink="http://www.w3.org/1999/xlink">
<g id="graph0" class="graph" transform="scale(1 1) rotate(0) translate(4 146)">
<title>JKQTMathTextMultiChildNode</title>
<!-- Node1 -->
<g id="node1" class="node">
<title>Node1</title>
<g id="a_node1"><a xlink:title="subclass representing a node in the syntax tree, that has two children">
<polygon fill="#bfbfbf" stroke="black" points="167,-60.5 167,-81.5 355,-81.5 355,-60.5 167,-60.5"/>
<text text-anchor="middle" x="261" y="-67.9" font-family="Helvetica,sans-Serif" font-size="12.00">JKQTMathTextMultiChildNode</text>
</a>
</g>
</g>
<!-- Node3 -->
<g id="node3" class="node">
<title>Node3</title>
<g id="a_node3"><a xlink:href="class_j_k_q_t_math_text_dual_child_node.html" target="_top" xlink:title="subclass representing a node in the syntax tree, that has two children">
<polygon fill="none" stroke="black" points="403.5,-120.5 403.5,-141.5 590.5,-141.5 590.5,-120.5 403.5,-120.5"/>
<text text-anchor="middle" x="497" y="-127.9" font-family="Helvetica,sans-Serif" font-size="12.00">JKQTMathTextDualChildNode</text>
</a>
</g>
</g>
<!-- Node1&#45;&gt;Node3 -->
<g id="edge2" class="edge">
<title>Node1&#45;&gt;Node3</title>
<path fill="none" stroke="midnightblue" d="M302.1,-84.71C327.4,-93.04 360.87,-103.49 391,-111 404.95,-114.48 420.08,-117.69 434.4,-120.47"/>
<polygon fill="midnightblue" stroke="midnightblue" points="303.08,-81.35 292.48,-81.52 300.87,-87.99 303.08,-81.35"/>
</g>
<!-- Node5 -->
<g id="node5" class="node">
<title>Node5</title>
<g id="a_node5"><a xlink:href="class_j_k_q_t_math_text_horizontal_list_node.html" target="_top" xlink:title="subclass representing a list of nodes in the syntax tree, layed out horizontally">
<polygon fill="none" stroke="black" points="391,-80.5 391,-101.5 603,-101.5 603,-80.5 391,-80.5"/>
<text text-anchor="middle" x="497" y="-87.9" font-family="Helvetica,sans-Serif" font-size="12.00">JKQTMathTextHorizontalListNode</text>
</a>
</g>
</g>
<!-- Node1&#45;&gt;Node5 -->
<g id="edge4" class="edge">
<title>Node1&#45;&gt;Node5</title>
<path fill="none" stroke="midnightblue" d="M365.4,-79.84C373.84,-80.56 382.38,-81.29 390.83,-82.01"/>
<polygon fill="midnightblue" stroke="midnightblue" points="365.42,-76.33 355.16,-78.96 364.82,-83.3 365.42,-76.33"/>
</g>
<!-- Node6 -->
<g id="node6" class="node">
<title>Node6</title>
<g id="a_node6"><a xlink:href="class_j_k_q_t_math_text_sqrt_node.html" target="_top" xlink:title="subclass representing a sqrt node">
<polygon fill="none" stroke="black" points="419.5,-40.5 419.5,-61.5 574.5,-61.5 574.5,-40.5 419.5,-40.5"/>
<text text-anchor="middle" x="497" y="-47.9" font-family="Helvetica,sans-Serif" font-size="12.00">JKQTMathTextSqrtNode</text>
</a>
</g>
</g>
<!-- Node1&#45;&gt;Node6 -->
<g id="edge5" class="edge">
<title>Node1&#45;&gt;Node6</title>
<path fill="none" stroke="midnightblue" d="M365.2,-62.18C383.39,-60.62 402.03,-59.03 419.33,-57.55"/>
<polygon fill="midnightblue" stroke="midnightblue" points="364.82,-58.7 355.16,-63.04 365.42,-65.67 364.82,-58.7"/>
</g>
<!-- Node7 -->
<g id="node7" class="node">
<title>Node7</title>
<g id="a_node7"><a xlink:href="class_j_k_q_t_math_text_vertical_list_node.html" target="_top" xlink:title="subclass representing a list of nodes in the syntax tree, layed out vertically">
<polygon fill="none" stroke="black" points="399,-0.5 399,-21.5 595,-21.5 595,-0.5 399,-0.5"/>
<text text-anchor="middle" x="497" y="-7.9" font-family="Helvetica,sans-Serif" font-size="12.00">JKQTMathTextVerticalListNode</text>
</a>
</g>
</g>
<!-- Node1&#45;&gt;Node7 -->
<g id="edge6" class="edge">
<title>Node1&#45;&gt;Node7</title>
<path fill="none" stroke="midnightblue" d="M302.1,-57.29C327.4,-48.96 360.87,-38.51 391,-31 404.95,-27.52 420.08,-24.31 434.4,-21.53"/>
<polygon fill="midnightblue" stroke="midnightblue" points="300.87,-54.01 292.48,-60.48 303.08,-60.65 300.87,-54.01"/>
</g>
<!-- Node2 -->
<g id="node2" class="node">
<title>Node2</title>
<g id="a_node2"><a xlink:href="class_j_k_q_t_math_text_node.html" target="_top" xlink:title="subclass representing one node in the syntax tree">
<polygon fill="none" stroke="black" points="0,-60.5 0,-81.5 131,-81.5 131,-60.5 0,-60.5"/>
<text text-anchor="middle" x="65.5" y="-67.9" font-family="Helvetica,sans-Serif" font-size="12.00">JKQTMathTextNode</text>
</a>
</g>
</g>
<!-- Node2&#45;&gt;Node1 -->
<g id="edge1" class="edge">
<title>Node2&#45;&gt;Node1</title>
<path fill="none" stroke="midnightblue" d="M141.26,-71C149.62,-71 158.2,-71 166.75,-71"/>
<polygon fill="midnightblue" stroke="midnightblue" points="141.2,-67.5 131.2,-71 141.2,-74.5 141.2,-67.5"/>
</g>
<!-- Node4 -->
<g id="node4" class="node">
<title>Node4</title>
<g id="a_node4"><a xlink:href="class_j_k_q_t_math_text_frac_node.html" target="_top" xlink:title="subclass representing a \frac node">
<polygon fill="none" stroke="black" points="639,-120.5 639,-141.5 795,-141.5 795,-120.5 639,-120.5"/>
<text text-anchor="middle" x="717" y="-127.9" font-family="Helvetica,sans-Serif" font-size="12.00">JKQTMathTextFracNode</text>
</a>
</g>
</g>
<!-- Node3&#45;&gt;Node4 -->
<g id="edge3" class="edge">
<title>Node3&#45;&gt;Node4</title>
<path fill="none" stroke="midnightblue" d="M600.94,-131C613.67,-131 626.5,-131 638.76,-131"/>
<polygon fill="midnightblue" stroke="midnightblue" points="600.77,-127.5 590.77,-131 600.77,-134.5 600.77,-127.5"/>
</g>
</g>
</svg>
