<?xml version="1.0" encoding="UTF-8" standalone="no"?>
<!DOCTYPE svg PUBLIC "-//W3C//DTD SVG 1.1//EN"
 "http://www.w3.org/Graphics/SVG/1.1/DTD/svg11.dtd">
<!-- Generated by graphviz version 2.43.0 (0)
 -->
<!-- Title: JKQTMathTextNode Pages: 1 -->
<svg width="305pt" height="114pt"
 viewBox="0.00 0.00 305.00 114.00" xmlns="http://www.w3.org/2000/svg" xmlns:xlink="http://www.w3.org/1999/xlink">
<g id="graph0" class="graph" transform="scale(1 1) rotate(0) translate(4 110)">
<title>JKQTMathTextNode</title>
<!-- Node1 -->
<g id="node1" class="node">
<title>Node1</title>
<g id="a_node1"><a xlink:title="subclass representing one node in the syntax tree">
<polygon fill="#bfbfbf" stroke="black" points="0,-84.5 0,-105.5 128,-105.5 128,-84.5 0,-84.5"/>
<text text-anchor="middle" x="64" y="-91.9" font-family="FreeSans" font-size="12.00">JKQTMathTextNode</text>
</a>
</g>
</g>
<!-- Node1&#45;&gt;Node1 -->
<g id="edge4" class="edge">
<title>Node1&#45;&gt;Node1</title>
<path fill="none" stroke="#9a32cd" stroke-dasharray="5,2" d="M138.15,-100.62C143.04,-99.32 146,-97.44 146,-95 146,-91.19 138.79,-88.76 128.29,-87.71"/>
<polygon fill="#9a32cd" stroke="#9a32cd" points="137.57,-97.17 128.29,-102.29 138.73,-104.08 137.57,-97.17"/>
<text text-anchor="middle" x="179.5" y="-91.9" font-family="FreeSans" font-size="12.00"> parentNode</text>
</g>
<!-- Node2 -->
<g id="node2" class="node">
<title>Node2</title>
<g id="a_node2"><a xlink:href="class_j_k_q_t_math_text.html" target="_top" xlink:title="this class parses a LaTeX string and can then draw the contained text/equation onto a QPainter">
<polygon fill="none" stroke="black" points="114,-0.5 114,-21.5 212,-21.5 212,-0.5 114,-0.5"/>
<text text-anchor="middle" x="163" y="-7.9" font-family="FreeSans" font-size="12.00">JKQTMathText</text>
</a>
</g>
</g>
<!-- Node1&#45;&gt;Node2 -->
<g id="edge3" class="edge">
<title>Node1&#45;&gt;Node2</title>
<path fill="none" stroke="#9a32cd" stroke-dasharray="5,2" d="M55.15,-74.75C51.43,-63.54 49.49,-49.75 57,-40 64.26,-30.57 89.7,-23.68 113.84,-19.09"/>
<polygon fill="#9a32cd" stroke="#9a32cd" points="51.92,-76.1 58.84,-84.12 58.43,-73.54 51.92,-76.1"/>
<text text-anchor="middle" x="97" y="-56.4" font-family="FreeSans" font-size="12.00"> parsedNode</text>
<text text-anchor="middle" x="97" y="-43.4" font-family="FreeSans" font-size="12.00">unparsedNode</text>
</g>
<!-- Node2&#45;&gt;Node1 -->
<g id="edge1" class="edge">
<title>Node2&#45;&gt;Node1</title>
<path fill="none" stroke="#9a32cd" stroke-dasharray="5,2" d="M159.17,-31.64C156.04,-43.02 150.51,-56.85 141,-66 132.29,-74.39 120.87,-80.29 109.51,-84.43"/>
<polygon fill="#9a32cd" stroke="#9a32cd" points="162.62,-32.26 161.5,-21.73 155.81,-30.66 162.62,-32.26"/>
<text text-anchor="middle" x="200" y="-49.9" font-family="FreeSans" font-size="12.00"> parentMathText</text>
</g>
<!-- Node3 -->
<g id="node3" class="node">
<title>Node3</title>
<g id="a_node3"><a xlink:title=" ">
<polygon fill="none" stroke="black" points="235,-84.5 235,-105.5 297,-105.5 297,-84.5 235,-84.5"/>
<text text-anchor="middle" x="266" y="-91.9" font-family="FreeSans" font-size="12.00">QObject</text>
</a>
</g>
</g>
<!-- Node3&#45;&gt;Node2 -->
<g id="edge2" class="edge">
<title>Node3&#45;&gt;Node2</title>
<path fill="none" stroke="midnightblue" d="M263.84,-74.31C261.62,-62.92 257.12,-49.09 248,-40 238.31,-30.35 225.24,-24.02 212.26,-19.88"/>
<polygon fill="midnightblue" stroke="midnightblue" points="260.39,-74.89 265.35,-84.25 267.31,-73.84 260.39,-74.89"/>
</g>
</g>
</svg>
