<?xml version="1.0" encoding="UTF-8" standalone="no"?>
<!DOCTYPE svg PUBLIC "-//W3C//DTD SVG 1.1//EN"
 "http://www.w3.org/Graphics/SVG/1.1/DTD/svg11.dtd">
<!-- Generated by graphviz version 2.43.0 (0)
 -->
<!-- Title: JKQTMathTextModifiedEnvironmentInstructionNode Pages: 1 -->
<svg width="591pt" height="183pt"
 viewBox="0.00 0.00 590.50 183.00" xmlns="http://www.w3.org/2000/svg" xmlns:xlink="http://www.w3.org/1999/xlink">
<g id="graph0" class="graph" transform="scale(1 1) rotate(0) translate(4 179)">
<title>JKQTMathTextModifiedEnvironmentInstructionNode</title>
<!-- Node1 -->
<g id="node1" class="node">
<title>Node1</title>
<g id="a_node1"><a xlink:title="subclass representing an instruction node which modify the current JKQTMathTextEnvironment,...">
<polygon fill="#999999" stroke="#666666" points="408.5,-34 182.5,-34 182.5,0 408.5,0 408.5,-34"/>
<text text-anchor="start" x="190.5" y="-20.4" font-family="Helvetica,sans-Serif" font-size="12.00">JKQTMathTextModifiedEnvironment</text>
<text text-anchor="middle" x="295.5" y="-7.4" font-family="Helvetica,sans-Serif" font-size="12.00">InstructionNode</text>
</a>
</g>
</g>
<!-- Node2 -->
<g id="node2" class="node">
<title>Node2</title>
<g id="a_node2"><a xlink:href="class_j_k_q_t_math_text_non_drawing_base_node.html" target="_top" xlink:title="base class for all derived classes that do not draw anything">
<polygon fill="white" stroke="#666666" points="233,-98.5 0,-98.5 0,-77.5 233,-77.5 233,-98.5"/>
<text text-anchor="middle" x="116.5" y="-84.9" font-family="Helvetica,sans-Serif" font-size="12.00">JKQTMathTextNonDrawingBaseNode</text>
</a>
</g>
</g>
<!-- Node2&#45;&gt;Node1 -->
<g id="edge1" class="edge">
<title>Node2&#45;&gt;Node1</title>
<path fill="none" stroke="#63b8ff" d="M150.83,-73.77C180.23,-62.43 222.67,-46.08 253.98,-34.01"/>
<polygon fill="#63b8ff" stroke="#63b8ff" points="149.46,-70.54 141.39,-77.41 151.98,-77.07 149.46,-70.54"/>
</g>
<!-- Node3 -->
<g id="node3" class="node">
<title>Node3</title>
<g id="a_node3"><a xlink:href="class_j_k_q_t_math_text_node.html" target="_top" xlink:title="subclass representing one node in the syntax tree">
<polygon fill="white" stroke="#666666" points="253,-175 122,-175 122,-154 253,-154 253,-175"/>
<text text-anchor="middle" x="187.5" y="-161.4" font-family="Helvetica,sans-Serif" font-size="12.00">JKQTMathTextNode</text>
</a>
</g>
</g>
<!-- Node3&#45;&gt;Node2 -->
<g id="edge2" class="edge">
<title>Node3&#45;&gt;Node2</title>
<path fill="none" stroke="#63b8ff" d="M171.03,-146.22C156.88,-131.37 137,-110.51 125.56,-98.51"/>
<polygon fill="#63b8ff" stroke="#63b8ff" points="168.79,-148.94 178.22,-153.76 173.85,-144.11 168.79,-148.94"/>
</g>
<!-- Node3&#45;&gt;Node3 -->
<g id="edge6" class="edge">
<title>Node3&#45;&gt;Node3</title>
<path fill="none" stroke="#9a32cd" stroke-dasharray="5,2" d="M263.52,-168.94C268.19,-167.89 271,-166.41 271,-164.5 271,-161.45 263.81,-159.49 253.31,-158.63"/>
<polygon fill="#9a32cd" stroke="#9a32cd" points="262.73,-165.52 253.31,-170.37 263.7,-172.45 262.73,-165.52"/>
<text text-anchor="middle" x="308.5" y="-161.4" font-family="Helvetica,sans-Serif" font-size="12.00"> parentNode</text>
</g>
<!-- Node4 -->
<g id="node4" class="node">
<title>Node4</title>
<g id="a_node4"><a xlink:href="class_j_k_q_t_math_text.html" target="_top" xlink:title="this class parses a mathematical markup string and can then draw the contained text/equation onto a Q...">
<polygon fill="white" stroke="#666666" points="350,-98.5 251,-98.5 251,-77.5 350,-77.5 350,-98.5"/>
<text text-anchor="middle" x="300.5" y="-84.9" font-family="Helvetica,sans-Serif" font-size="12.00">JKQTMathText</text>
</a>
</g>
</g>
<!-- Node3&#45;&gt;Node4 -->
<g id="edge5" class="edge">
<title>Node3&#45;&gt;Node4</title>
<path fill="none" stroke="#9a32cd" stroke-dasharray="5,2" d="M180.96,-144C179.77,-136.78 180.07,-128.91 184.5,-123 185.78,-121.29 232.46,-107.97 266.2,-98.52"/>
<polygon fill="#9a32cd" stroke="#9a32cd" points="177.6,-144.99 183.47,-153.82 184.39,-143.26 177.6,-144.99"/>
<text text-anchor="middle" x="223" y="-126.4" font-family="Helvetica,sans-Serif" font-size="12.00"> parsedNode</text>
</g>
<!-- Node4&#45;&gt;Node3 -->
<g id="edge3" class="edge">
<title>Node4&#45;&gt;Node3</title>
<path fill="none" stroke="#9a32cd" stroke-dasharray="5,2" d="M290.36,-107.52C284.26,-117.17 275.7,-128.49 265.5,-136 254.75,-143.92 241.51,-149.71 229.02,-153.88"/>
<polygon fill="#9a32cd" stroke="#9a32cd" points="293.53,-109.02 295.61,-98.63 287.51,-105.46 293.53,-109.02"/>
<text text-anchor="middle" x="327" y="-126.4" font-family="Helvetica,sans-Serif" font-size="12.00"> parentMathText</text>
</g>
<!-- Node5 -->
<g id="node5" class="node">
<title>Node5</title>
<g id="a_node5"><a xlink:title=" ">
<polygon fill="white" stroke="#666666" points="432,-175 367,-175 367,-154 432,-154 432,-175"/>
<text text-anchor="middle" x="399.5" y="-161.4" font-family="Helvetica,sans-Serif" font-size="12.00">QObject</text>
</a>
</g>
</g>
<!-- Node5&#45;&gt;Node4 -->
<g id="edge4" class="edge">
<title>Node5&#45;&gt;Node4</title>
<path fill="none" stroke="#63b8ff" d="M396.33,-143.99C394.29,-136.66 390.95,-128.72 385.5,-123 377.77,-114.89 352.77,-105.4 331.87,-98.51"/>
<polygon fill="#63b8ff" stroke="#63b8ff" points="392.95,-144.94 398.48,-153.98 399.79,-143.47 392.95,-144.94"/>
</g>
<!-- Node6 -->
<g id="node6" class="node">
<title>Node6</title>
<g id="a_node6"><a xlink:href="class_j_k_q_t_math_text_modify_environment_node_mix_in.html" target="_top" xlink:title="mixin extending a node that does not produce any output, but provides a function modifyEnvironment() ...">
<polygon fill="white" stroke="#666666" points="582.5,-105 368.5,-105 368.5,-71 582.5,-71 582.5,-105"/>
<text text-anchor="start" x="376.5" y="-91.4" font-family="Helvetica,sans-Serif" font-size="12.00">JKQTMathTextModifyEnvironment</text>
<text text-anchor="middle" x="475.5" y="-78.4" font-family="Helvetica,sans-Serif" font-size="12.00">NodeMixIn</text>
</a>
</g>
</g>
<!-- Node6&#45;&gt;Node1 -->
<g id="edge7" class="edge">
<title>Node6&#45;&gt;Node1</title>
<path fill="none" stroke="#63b8ff" d="M424.29,-67.37C396.77,-56.82 363.27,-43.98 337.33,-34.04"/>
<polygon fill="#63b8ff" stroke="#63b8ff" points="423.16,-70.69 433.75,-71 425.67,-64.15 423.16,-70.69"/>
</g>
</g>
</svg>
