<?xml version="1.0" encoding="UTF-8" standalone="no"?>
<!DOCTYPE svg PUBLIC "-//W3C//DTD SVG 1.1//EN"
 "http://www.w3.org/Graphics/SVG/1.1/DTD/svg11.dtd">
<!-- Generated by graphviz version 2.43.0 (0)
 -->
<!-- Title: JKQTPXYParametrizedErrorScatterGraph Pages: 1 -->
<svg width="3878pt" height="537pt"
 viewBox="0.00 0.00 3878.00 536.91" xmlns="http://www.w3.org/2000/svg" xmlns:xlink="http://www.w3.org/1999/xlink">
<g id="graph0" class="graph" transform="scale(1 1) rotate(0) translate(4 532.91)">
<title>JKQTPXYParametrizedErrorScatterGraph</title>
<!-- Node1 -->
<g id="node1" class="node">
<title>Node1</title>
<g id="a_node1"><a xlink:title="This implements xy scatter plots (like JKQTPXYLineGraph), but the color and size of the symbols may b...">
<polygon fill="#bfbfbf" stroke="black" points="3692,-225.91 3692,-259.91 3870,-259.91 3870,-225.91 3692,-225.91"/>
<text text-anchor="start" x="3700" y="-246.31" font-family="Helvetica,sans-Serif" font-size="12.00">JKQTPXYParametrizedError</text>
<text text-anchor="middle" x="3781" y="-233.31" font-family="Helvetica,sans-Serif" font-size="12.00">ScatterGraph</text>
</a>
</g>
</g>
<!-- Node2 -->
<g id="node2" class="node">
<title>Node2</title>
<g id="a_node2"><a xlink:href="class_j_k_q_t_p_x_y_parametrized_scatter_graph.html" target="_top" xlink:title="This implements xy scatter plots (like JKQTPXYLineGraph), but the color and size of the symbols may b...">
<polygon fill="none" stroke="black" points="3463,-265.91 3463,-299.91 3655,-299.91 3655,-265.91 3463,-265.91"/>
<text text-anchor="start" x="3471" y="-286.31" font-family="Helvetica,sans-Serif" font-size="12.00">JKQTPXYParametrizedScatter</text>
<text text-anchor="middle" x="3559" y="-273.31" font-family="Helvetica,sans-Serif" font-size="12.00">Graph</text>
</a>
</g>
</g>
<!-- Node2&#45;&gt;Node1 -->
<g id="edge1" class="edge">
<title>Node2&#45;&gt;Node1</title>
<path fill="none" stroke="midnightblue" d="M3663.73,-264.05C3673.09,-262.35 3682.5,-260.64 3691.71,-258.97"/>
<polygon fill="midnightblue" stroke="midnightblue" points="3662.83,-260.66 3653.62,-265.89 3664.08,-267.55 3662.83,-260.66"/>
</g>
<!-- Node3 -->
<g id="node3" class="node">
<title>Node3</title>
<g id="a_node3"><a xlink:href="class_j_k_q_t_p_x_y_line_graph.html" target="_top" xlink:title="This implements xy line plots. This also alows to draw symbols at the data points.">
<polygon fill="none" stroke="black" points="3271.5,-255.41 3271.5,-276.41 3401.5,-276.41 3401.5,-255.41 3271.5,-255.41"/>
<text text-anchor="middle" x="3336.5" y="-262.81" font-family="Helvetica,sans-Serif" font-size="12.00">JKQTPXYLineGraph</text>
</a>
</g>
</g>
<!-- Node3&#45;&gt;Node2 -->
<g id="edge2" class="edge">
<title>Node3&#45;&gt;Node2</title>
<path fill="none" stroke="midnightblue" d="M3411.59,-271.63C3427.96,-272.89 3445.51,-274.24 3462.59,-275.56"/>
<polygon fill="midnightblue" stroke="midnightblue" points="3411.81,-268.13 3401.57,-270.85 3411.28,-275.11 3411.81,-268.13"/>
</g>
<!-- Node4 -->
<g id="node4" class="node">
<title>Node4</title>
<g id="a_node4"><a xlink:href="class_j_k_q_t_p_x_y_graph.html" target="_top" xlink:title="This virtual JKQTPGraph descendent may be used as base for all graphs that use at least two columns t...">
<polygon fill="none" stroke="black" points="2942,-226.41 2942,-247.41 3047,-247.41 3047,-226.41 2942,-226.41"/>
<text text-anchor="middle" x="2994.5" y="-233.81" font-family="Helvetica,sans-Serif" font-size="12.00">JKQTPXYGraph</text>
</a>
</g>
</g>
<!-- Node4&#45;&gt;Node3 -->
<g id="edge3" class="edge">
<title>Node4&#45;&gt;Node3</title>
<path fill="none" stroke="midnightblue" d="M3057.34,-242.19C3117.99,-247.36 3210.06,-255.21 3271.46,-260.45"/>
<polygon fill="midnightblue" stroke="midnightblue" points="3057.4,-238.68 3047.14,-241.32 3056.81,-245.65 3057.4,-238.68"/>
</g>
<!-- Node5 -->
<g id="node5" class="node">
<title>Node5</title>
<g id="a_node5"><a xlink:href="class_j_k_q_t_p_graph.html" target="_top" xlink:title="this virtual base class of the (data&#45;column based) graphs, which are part of a JKQTPlotter plot and w...">
<polygon fill="none" stroke="black" points="2738,-226.41 2738,-247.41 2827,-247.41 2827,-226.41 2738,-226.41"/>
<text text-anchor="middle" x="2782.5" y="-233.81" font-family="Helvetica,sans-Serif" font-size="12.00">JKQTPGraph</text>
</a>
</g>
</g>
<!-- Node5&#45;&gt;Node4 -->
<g id="edge4" class="edge">
<title>Node5&#45;&gt;Node4</title>
<path fill="none" stroke="midnightblue" d="M2837.14,-236.91C2869.33,-236.91 2910.07,-236.91 2941.89,-236.91"/>
<polygon fill="midnightblue" stroke="midnightblue" points="2837.01,-233.41 2827.01,-236.91 2837.01,-240.41 2837.01,-233.41"/>
</g>
<!-- Node6 -->
<g id="node6" class="node">
<title>Node6</title>
<g id="a_node6"><a xlink:href="class_j_k_q_t_p_plot_element.html" target="_top" xlink:title="this virtual base class of every element, which is part of a JKQTPlotter plot and may appear in its k...">
<polygon fill="none" stroke="black" points="2507,-227.41 2507,-248.41 2632,-248.41 2632,-227.41 2507,-227.41"/>
<text text-anchor="middle" x="2569.5" y="-234.81" font-family="Helvetica,sans-Serif" font-size="12.00">JKQTPPlotElement</text>
</a>
</g>
</g>
<!-- Node6&#45;&gt;Node5 -->
<g id="edge5" class="edge">
<title>Node6&#45;&gt;Node5</title>
<path fill="none" stroke="midnightblue" d="M2642.23,-237.57C2674,-237.42 2710.34,-237.25 2737.92,-237.12"/>
<polygon fill="midnightblue" stroke="midnightblue" points="2642.08,-234.07 2632.1,-237.62 2642.11,-241.07 2642.08,-234.07"/>
</g>
<!-- Node7 -->
<g id="node7" class="node">
<title>Node7</title>
<g id="a_node7"><a xlink:title=" ">
<polygon fill="none" stroke="black" points="1531.5,-304.41 1531.5,-325.41 1596.5,-325.41 1596.5,-304.41 1531.5,-304.41"/>
<text text-anchor="middle" x="1564" y="-311.81" font-family="Helvetica,sans-Serif" font-size="12.00">QObject</text>
</a>
</g>
</g>
<!-- Node7&#45;&gt;Node6 -->
<g id="edge6" class="edge">
<title>Node7&#45;&gt;Node6</title>
<path fill="none" stroke="midnightblue" d="M1606.77,-305.35C1683.26,-288.38 1851.22,-253.57 1995,-240.91 2180.72,-224.56 2401.58,-230.52 2506.81,-234.91"/>
<polygon fill="midnightblue" stroke="midnightblue" points="1605.59,-302.03 1596.59,-307.63 1607.11,-308.86 1605.59,-302.03"/>
</g>
<!-- Node8 -->
<g id="node8" class="node">
<title>Node8</title>
<g id="a_node8"><a xlink:href="class_j_k_q_t_base_plotter.html" target="_top" xlink:title="base class for 2D plotter classes (used by the plotter widget JKQTPlotter)">
<polygon fill="none" stroke="black" points="2184.5,-272.41 2184.5,-293.41 2298.5,-293.41 2298.5,-272.41 2184.5,-272.41"/>
<text text-anchor="middle" x="2241.5" y="-279.81" font-family="Helvetica,sans-Serif" font-size="12.00">JKQTBasePlotter</text>
</a>
</g>
</g>
<!-- Node7&#45;&gt;Node8 -->
<g id="edge8" class="edge">
<title>Node7&#45;&gt;Node8</title>
<path fill="none" stroke="midnightblue" d="M1606.97,-312.92C1723.66,-307.4 2052.03,-291.84 2184.27,-285.58"/>
<polygon fill="midnightblue" stroke="midnightblue" points="1606.5,-309.44 1596.67,-313.41 1606.83,-316.44 1606.5,-309.44"/>
</g>
<!-- Node19 -->
<g id="node19" class="node">
<title>Node19</title>
<g id="a_node19"><a xlink:href="class_j_k_q_t_math_text.html" target="_top" xlink:title="this class parses a mathematical markup string and can then draw the contained text/equation onto a Q...">
<polygon fill="none" stroke="black" points="1856,-379.41 1856,-400.41 1955,-400.41 1955,-379.41 1856,-379.41"/>
<text text-anchor="middle" x="1905.5" y="-386.81" font-family="Helvetica,sans-Serif" font-size="12.00">JKQTMathText</text>
</a>
</g>
</g>
<!-- Node7&#45;&gt;Node19 -->
<g id="edge24" class="edge">
<title>Node7&#45;&gt;Node19</title>
<path fill="none" stroke="midnightblue" d="M1605.22,-328.58C1626.9,-335.61 1654.22,-343.93 1679,-349.91 1739.3,-364.46 1809.84,-376.13 1855.76,-383.03"/>
<polygon fill="midnightblue" stroke="midnightblue" points="1606.28,-325.24 1595.68,-325.45 1604.1,-331.89 1606.28,-325.24"/>
</g>
<!-- Node24 -->
<g id="node24" class="node">
<title>Node24</title>
<g id="a_node24"><a xlink:href="class_j_k_q_t_p_coordinate_axis.html" target="_top" xlink:title="this virtual class is the base for any type of coordinate axis, to be drawn by JKQTBasePlotter.">
<polygon fill="none" stroke="black" points="2498.5,-389.41 2498.5,-410.41 2640.5,-410.41 2640.5,-389.41 2498.5,-389.41"/>
<text text-anchor="middle" x="2569.5" y="-396.81" font-family="Helvetica,sans-Serif" font-size="12.00">JKQTPCoordinateAxis</text>
</a>
</g>
</g>
<!-- Node7&#45;&gt;Node24 -->
<g id="edge33" class="edge">
<title>Node7&#45;&gt;Node24</title>
<path fill="none" stroke="midnightblue" d="M1607.05,-317.04C1732.46,-323.45 2098.5,-342.55 2152,-349.91 2224.54,-359.9 2251.77,-344.76 2313,-384.91 2324.45,-392.42 2318.81,-403.67 2331,-409.91 2397.85,-444.16 2489.69,-424.66 2537.2,-410.52"/>
<polygon fill="midnightblue" stroke="midnightblue" points="1606.88,-313.53 1596.71,-316.52 1606.52,-320.52 1606.88,-313.53"/>
</g>
<!-- Node8&#45;&gt;Node6 -->
<g id="edge7" class="edge">
<title>Node8&#45;&gt;Node6</title>
<path fill="none" stroke="#9a32cd" stroke-dasharray="5,2" d="M2308.93,-283.88C2348.41,-283.48 2399.34,-281.26 2444,-273.91 2477.3,-268.43 2514.32,-257.02 2539.27,-248.5"/>
<polygon fill="#9a32cd" stroke="#9a32cd" points="2308.87,-280.38 2298.89,-283.95 2308.92,-287.38 2308.87,-280.38"/>
<text text-anchor="middle" x="2387.5" y="-286.31" font-family="Helvetica,sans-Serif" font-size="12.00"> parent</text>
</g>
<!-- Node8&#45;&gt;Node8 -->
<g id="edge44" class="edge">
<title>Node8&#45;&gt;Node8</title>
<path fill="none" stroke="#9a32cd" stroke-dasharray="5,2" d="M2214.45,-302.97C2216.23,-308.08 2225.24,-311.91 2241.5,-311.91 2266.88,-311.91 2274.61,-302.57 2264.7,-293.62"/>
<polygon fill="#9a32cd" stroke="#9a32cd" points="2217.73,-304.2 2218.3,-293.62 2211.26,-301.53 2217.73,-304.2"/>
<text text-anchor="middle" x="2241.5" y="-328.31" font-family="Helvetica,sans-Serif" font-size="12.00"> masterPlotterX</text>
<text text-anchor="middle" x="2241.5" y="-315.31" font-family="Helvetica,sans-Serif" font-size="12.00">masterPlotterY</text>
</g>
<!-- Node21 -->
<g id="node21" class="node">
<title>Node21</title>
<g id="a_node21"><a xlink:href="class_j_k_q_t_p_graphs_model.html" target="_top" xlink:title="data model with all plots ina JKQTBasePlotter (+ allows to switch them visible/invisible)">
<polygon fill="none" stroke="black" points="2504,-187.41 2504,-208.41 2635,-208.41 2635,-187.41 2504,-187.41"/>
<text text-anchor="middle" x="2569.5" y="-194.81" font-family="Helvetica,sans-Serif" font-size="12.00">JKQTPGraphsModel</text>
</a>
</g>
</g>
<!-- Node8&#45;&gt;Node21 -->
<g id="edge30" class="edge">
<title>Node8&#45;&gt;Node21</title>
<path fill="none" stroke="#9a32cd" stroke-dasharray="5,2" d="M2284.77,-269.38C2299.32,-265.02 2315.78,-260.41 2331,-256.91 2380.63,-245.49 2399.36,-262.43 2444,-237.91 2454.48,-232.16 2451.57,-223.77 2462,-217.91 2474.71,-210.77 2489.49,-206.12 2503.91,-203.11"/>
<polygon fill="#9a32cd" stroke="#9a32cd" points="2283.58,-266.08 2275.04,-272.34 2285.62,-272.78 2283.58,-266.08"/>
<text text-anchor="middle" x="2387.5" y="-260.31" font-family="Helvetica,sans-Serif" font-size="12.00"> m_plotter</text>
</g>
<!-- Node8&#45;&gt;Node24 -->
<g id="edge34" class="edge">
<title>Node8&#45;&gt;Node24</title>
<path fill="none" stroke="#9a32cd" stroke-dasharray="5,2" d="M2261.04,-300.44C2275.44,-314.2 2295.8,-333.97 2313,-351.91 2321.28,-360.54 2320.38,-366.42 2331,-371.91 2359.3,-386.56 2439.05,-393.71 2498.38,-397.09"/>
<polygon fill="#9a32cd" stroke="#9a32cd" points="2263.36,-297.82 2253.7,-293.46 2258.54,-302.89 2263.36,-297.82"/>
<text text-anchor="middle" x="2387.5" y="-396.31" font-family="Helvetica,sans-Serif" font-size="12.00"> parent</text>
</g>
<!-- Node34 -->
<g id="node34" class="node">
<title>Node34</title>
<g id="a_node34"><a xlink:href="class_j_k_q_t_p_color_palette_style_and_tools_mixin.html" target="_top" xlink:title="if a class is derived from this class, it may use color bars">
<polygon fill="none" stroke="black" points="3247.5,-335.91 3247.5,-369.91 3425.5,-369.91 3425.5,-335.91 3247.5,-335.91"/>
<text text-anchor="start" x="3255.5" y="-356.31" font-family="Helvetica,sans-Serif" font-size="12.00">JKQTPColorPaletteStyleAnd</text>
<text text-anchor="middle" x="3336.5" y="-343.31" font-family="Helvetica,sans-Serif" font-size="12.00">ToolsMixin</text>
</a>
</g>
</g>
<!-- Node8&#45;&gt;Node34 -->
<g id="edge49" class="edge">
<title>Node8&#45;&gt;Node34</title>
<path fill="none" stroke="#9a32cd" stroke-dasharray="5,2" d="M2273.45,-297.66C2290.15,-305.06 2311.33,-313.57 2331,-318.91 2387.77,-334.33 2403.39,-332.79 2462,-337.91 2753,-363.37 2826.91,-352.75 3119,-355.91 3167.89,-356.44 3180.12,-356.6 3229,-355.91 3235.01,-355.83 3241.21,-355.72 3247.46,-355.59"/>
<polygon fill="#9a32cd" stroke="#9a32cd" points="2274.73,-294.4 2264.17,-293.46 2271.84,-300.77 2274.73,-294.4"/>
<text text-anchor="middle" x="2782.5" y="-358.31" font-family="Helvetica,sans-Serif" font-size="12.00"> cbParent</text>
</g>
<!-- Node9 -->
<g id="node9" class="node">
<title>Node9</title>
<g id="a_node9"><a xlink:href="class_j_k_q_t_base_plotter_style.html" target="_top" xlink:title="Support Class for JKQTBasePlotter, which summarizes all properties that define the visual styling of ...">
<polygon fill="none" stroke="black" points="1834,-180.41 1834,-201.41 1977,-201.41 1977,-180.41 1834,-180.41"/>
<text text-anchor="middle" x="1905.5" y="-187.81" font-family="Helvetica,sans-Serif" font-size="12.00">JKQTBasePlotterStyle</text>
</a>
</g>
</g>
<!-- Node9&#45;&gt;Node8 -->
<g id="edge9" class="edge">
<title>Node9&#45;&gt;Node8</title>
<path fill="none" stroke="#9a32cd" stroke-dasharray="5,2" d="M1954.69,-204.19C2021.6,-222.62 2141.3,-255.59 2202.38,-272.41"/>
<polygon fill="#9a32cd" stroke="#9a32cd" points="1955.38,-200.75 1944.81,-201.47 1953.53,-207.5 1955.38,-200.75"/>
<text text-anchor="middle" x="2073.5" y="-261.31" font-family="Helvetica,sans-Serif" font-size="12.00"> plotterStyle</text>
</g>
<!-- Node10 -->
<g id="node10" class="node">
<title>Node10</title>
<g id="a_node10"><a xlink:href="class_j_k_q_t_p_key_style.html" target="_top" xlink:title="Support Class for JKQTBasePlotter, which summarizes all properties that define the visual styling of ...">
<polygon fill="none" stroke="black" points="1512,-235.41 1512,-256.41 1616,-256.41 1616,-235.41 1512,-235.41"/>
<text text-anchor="middle" x="1564" y="-242.81" font-family="Helvetica,sans-Serif" font-size="12.00">JKQTPKeyStyle</text>
</a>
</g>
</g>
<!-- Node10&#45;&gt;Node9 -->
<g id="edge10" class="edge">
<title>Node10&#45;&gt;Node9</title>
<path fill="none" stroke="#9a32cd" stroke-dasharray="5,2" d="M1625.91,-234.31C1643.06,-231.15 1661.74,-227.8 1679,-224.91 1730.74,-216.25 1789.33,-207.45 1833.82,-200.97"/>
<polygon fill="#9a32cd" stroke="#9a32cd" points="1625.21,-230.89 1616.01,-236.15 1626.48,-237.77 1625.21,-230.89"/>
<text text-anchor="middle" x="1747.5" y="-228.31" font-family="Helvetica,sans-Serif" font-size="12.00"> keyStyle</text>
</g>
<!-- Node11 -->
<g id="node11" class="node">
<title>Node11</title>
<g id="a_node11"><a xlink:href="class_j_k_q_t_p_coordinate_axis_style.html" target="_top" xlink:title="Support Class for JKQTPCoordinateAxis, which summarizes all properties that define the visual styling...">
<polygon fill="none" stroke="black" points="1152,-180.41 1152,-201.41 1323,-201.41 1323,-180.41 1152,-180.41"/>
<text text-anchor="middle" x="1237.5" y="-187.81" font-family="Helvetica,sans-Serif" font-size="12.00">JKQTPCoordinateAxisStyle</text>
</a>
</g>
</g>
<!-- Node11&#45;&gt;Node9 -->
<g id="edge11" class="edge">
<title>Node11&#45;&gt;Node9</title>
<path fill="none" stroke="#9a32cd" stroke-dasharray="5,2" d="M1333.52,-190.91C1468.62,-190.91 1713.17,-190.91 1833.59,-190.91"/>
<polygon fill="#9a32cd" stroke="#9a32cd" points="1333.19,-187.41 1323.19,-190.91 1333.19,-194.41 1333.19,-187.41"/>
<text text-anchor="middle" x="1564" y="-207.31" font-family="Helvetica,sans-Serif" font-size="12.00"> xAxisStyle</text>
<text text-anchor="middle" x="1564" y="-194.31" font-family="Helvetica,sans-Serif" font-size="12.00">yAxisStyle</text>
</g>
<!-- Node13 -->
<g id="node13" class="node">
<title>Node13</title>
<g id="a_node13"><a xlink:href="class_j_k_q_t_p_colorbar_coordinate_axis_style.html" target="_top" xlink:title="Support Class for JKQTPCoordinateAxis, which summarizes all properties that define the visual styling...">
<polygon fill="none" stroke="black" points="1467,-119.91 1467,-153.91 1661,-153.91 1661,-119.91 1467,-119.91"/>
<text text-anchor="start" x="1475" y="-140.31" font-family="Helvetica,sans-Serif" font-size="12.00">JKQTPColorbarCoordinateAxis</text>
<text text-anchor="middle" x="1564" y="-127.31" font-family="Helvetica,sans-Serif" font-size="12.00">Style</text>
</a>
</g>
</g>
<!-- Node11&#45;&gt;Node13 -->
<g id="edge14" class="edge">
<title>Node11&#45;&gt;Node13</title>
<path fill="none" stroke="midnightblue" d="M1311.7,-178.73C1357.58,-171.1 1417.23,-161.17 1466.89,-152.91"/>
<polygon fill="midnightblue" stroke="midnightblue" points="1311.13,-175.28 1301.84,-180.37 1312.28,-182.18 1311.13,-175.28"/>
</g>
<!-- Node11&#45;&gt;Node24 -->
<g id="edge35" class="edge">
<title>Node11&#45;&gt;Node24</title>
<path fill="none" stroke="#9a32cd" stroke-dasharray="5,2" d="M1248.65,-210.86C1283.09,-275.48 1402.4,-474.91 1563,-474.91 1563,-474.91 1563,-474.91 2242.5,-474.91 2299.34,-474.91 2459.86,-431.06 2532.27,-410.42"/>
<polygon fill="#9a32cd" stroke="#9a32cd" points="1251.59,-208.94 1243.85,-201.7 1245.39,-212.18 1251.59,-208.94"/>
<text text-anchor="middle" x="1905.5" y="-478.31" font-family="Helvetica,sans-Serif" font-size="12.00"> axisStyle</text>
</g>
<!-- Node12 -->
<g id="node12" class="node">
<title>Node12</title>
<g id="a_node12"><a xlink:href="class_j_k_q_t_p_grid_style.html" target="_top" xlink:title="Support Class for JKQTPCoordinateAxis, and summarizes all properties that define the visual styling o...">
<polygon fill="none" stroke="black" points="851.5,-180.41 851.5,-201.41 958.5,-201.41 958.5,-180.41 851.5,-180.41"/>
<text text-anchor="middle" x="905" y="-187.81" font-family="Helvetica,sans-Serif" font-size="12.00">JKQTPGridStyle</text>
</a>
</g>
</g>
<!-- Node12&#45;&gt;Node11 -->
<g id="edge12" class="edge">
<title>Node12&#45;&gt;Node11</title>
<path fill="none" stroke="#9a32cd" stroke-dasharray="5,2" d="M968.79,-190.91C1020.62,-190.91 1094.66,-190.91 1151.74,-190.91"/>
<polygon fill="#9a32cd" stroke="#9a32cd" points="968.73,-187.41 958.73,-190.91 968.73,-194.41 968.73,-187.41"/>
<text text-anchor="middle" x="1069.5" y="-207.31" font-family="Helvetica,sans-Serif" font-size="12.00"> majorGridStyle</text>
<text text-anchor="middle" x="1069.5" y="-194.31" font-family="Helvetica,sans-Serif" font-size="12.00">minorGridStyle</text>
</g>
<!-- Node13&#45;&gt;Node9 -->
<g id="edge13" class="edge">
<title>Node13&#45;&gt;Node9</title>
<path fill="none" stroke="#9a32cd" stroke-dasharray="5,2" d="M1671.38,-134.24C1716.53,-135.31 1769.4,-139.5 1816,-150.91 1841.55,-157.17 1868.82,-170.65 1886.23,-180.23"/>
<polygon fill="#9a32cd" stroke="#9a32cd" points="1671.33,-130.74 1661.27,-134.05 1671.2,-137.74 1671.33,-130.74"/>
<text text-anchor="middle" x="1747.5" y="-167.31" font-family="Helvetica,sans-Serif" font-size="12.00"> rightColorbarAxisStyle</text>
<text text-anchor="middle" x="1747.5" y="-154.31" font-family="Helvetica,sans-Serif" font-size="12.00">topColorbarAxisStyle</text>
</g>
<!-- Node14 -->
<g id="node14" class="node">
<title>Node14</title>
<g id="a_node14"><a xlink:href="class_j_k_q_t_graphs_base_style.html" target="_top" xlink:title="Support Class for JKQTBasePlotter, which summarizes all properties that define the visual styling of ...">
<polygon fill="none" stroke="black" points="1491,-78.41 1491,-99.41 1637,-99.41 1637,-78.41 1491,-78.41"/>
<text text-anchor="middle" x="1564" y="-85.81" font-family="Helvetica,sans-Serif" font-size="12.00">JKQTGraphsBaseStyle</text>
</a>
</g>
</g>
<!-- Node14&#45;&gt;Node9 -->
<g id="edge15" class="edge">
<title>Node14&#45;&gt;Node9</title>
<path fill="none" stroke="#9a32cd" stroke-dasharray="5,2" d="M1647.26,-81.8C1699.12,-81.15 1765.56,-87.67 1816,-117.91 1828.05,-125.14 1823.98,-134.06 1834,-143.91 1849.11,-158.76 1869.53,-171.77 1884.5,-180.32"/>
<polygon fill="#9a32cd" stroke="#9a32cd" points="1647.02,-78.3 1637.09,-82.02 1647.17,-85.3 1647.02,-78.3"/>
<text text-anchor="middle" x="1747.5" y="-121.31" font-family="Helvetica,sans-Serif" font-size="12.00"> graphsStyle</text>
</g>
<!-- Node15 -->
<g id="node15" class="node">
<title>Node15</title>
<g id="a_node15"><a xlink:href="class_j_k_q_t_graphs_specific_style_properties.html" target="_top" xlink:title="Support Class for JKQTBasePlotter, which summarizes all properties that define the visual styling of ...">
<polygon fill="none" stroke="black" points="399,-25.41 399,-46.41 623,-46.41 623,-25.41 399,-25.41"/>
<text text-anchor="middle" x="511" y="-32.81" font-family="Helvetica,sans-Serif" font-size="12.00">JKQTGraphsSpecificStyleProperties</text>
</a>
</g>
</g>
<!-- Node15&#45;&gt;Node14 -->
<g id="edge16" class="edge">
<title>Node15&#45;&gt;Node14</title>
<path fill="none" stroke="#9a32cd" stroke-dasharray="5,2" d="M599.09,-24.16C717.94,-9.86 937.46,10.36 1124,-6.91 1271.46,-20.57 1443.25,-59.49 1520.99,-78.38"/>
<polygon fill="#9a32cd" stroke="#9a32cd" points="598.47,-20.71 588.96,-25.39 599.31,-27.66 598.47,-20.71"/>
<text text-anchor="middle" x="1069.5" y="-62.31" font-family="Helvetica,sans-Serif" font-size="12.00"> barchartStyle</text>
<text text-anchor="middle" x="1069.5" y="-49.31" font-family="Helvetica,sans-Serif" font-size="12.00">boxplotStyle</text>
<text text-anchor="middle" x="1069.5" y="-36.31" font-family="Helvetica,sans-Serif" font-size="12.00">defaultGraphStyle</text>
<text text-anchor="middle" x="1069.5" y="-23.31" font-family="Helvetica,sans-Serif" font-size="12.00">filledStyle</text>
<text text-anchor="middle" x="1069.5" y="-10.31" font-family="Helvetica,sans-Serif" font-size="12.00">impulseStyle</text>
</g>
<!-- Node17 -->
<g id="node17" class="node">
<title>Node17</title>
<g id="a_node17"><a xlink:href="class_j_k_q_t_geometric_specific_style_properties.html" target="_top" xlink:title="Support Class for JKQTBasePlotter, which summarizes all properties that define the visual styling of ...">
<polygon fill="none" stroke="black" points="813,-52.91 813,-86.91 997,-86.91 997,-52.91 813,-52.91"/>
<text text-anchor="start" x="821" y="-73.31" font-family="Helvetica,sans-Serif" font-size="12.00">JKQTGeometricSpecificStyle</text>
<text text-anchor="middle" x="905" y="-60.31" font-family="Helvetica,sans-Serif" font-size="12.00">Properties</text>
</a>
</g>
</g>
<!-- Node15&#45;&gt;Node17 -->
<g id="edge19" class="edge">
<title>Node15&#45;&gt;Node17</title>
<path fill="none" stroke="midnightblue" d="M633.34,-46.44C691.25,-51.46 759.38,-57.37 812.8,-62"/>
<polygon fill="midnightblue" stroke="midnightblue" points="633.29,-42.92 623.02,-45.54 632.68,-49.89 633.29,-42.92"/>
</g>
<!-- Node16 -->
<g id="node16" class="node">
<title>Node16</title>
<g id="a_node16"><a xlink:href="struct_j_k_q_t_p_color_derivation_mode.html" target="_top" xlink:title="Specifies how a fill&#45;color is derived from a given color.">
<polygon fill="none" stroke="black" points="0,-105.41 0,-126.41 179,-126.41 179,-105.41 0,-105.41"/>
<text text-anchor="middle" x="89.5" y="-112.81" font-family="Helvetica,sans-Serif" font-size="12.00">JKQTPColorDerivationMode</text>
</a>
</g>
</g>
<!-- Node16&#45;&gt;Node2 -->
<g id="edge54" class="edge">
<title>Node16&#45;&gt;Node2</title>
<path fill="none" stroke="#9a32cd" stroke-dasharray="5,2" d="M99.37,-136.22C136.45,-217.61 287.53,-515.91 510,-515.91 510,-515.91 510,-515.91 3337.5,-515.91 3456.41,-515.91 3530.34,-353.85 3551.62,-300.05"/>
<polygon fill="#9a32cd" stroke="#9a32cd" points="102.35,-134.31 95.07,-126.61 95.96,-137.17 102.35,-134.31"/>
<text text-anchor="middle" x="2073.5" y="-519.31" font-family="Helvetica,sans-Serif" font-size="12.00"> symbolFillDerivationMode</text>
</g>
<!-- Node16&#45;&gt;Node15 -->
<g id="edge17" class="edge">
<title>Node16&#45;&gt;Node15</title>
<path fill="none" stroke="#9a32cd" stroke-dasharray="5,2" d="M107.25,-97.99C126.67,-78.64 160.71,-48.97 197,-36.91 281.83,-8.73 386.88,-16.36 451.14,-25.41"/>
<polygon fill="#9a32cd" stroke="#9a32cd" points="104.56,-95.73 100.08,-105.33 109.57,-100.62 104.56,-95.73"/>
<text text-anchor="middle" x="289" y="-92.31" font-family="Helvetica,sans-Serif" font-size="12.00"> errorColorDerivationMode</text>
<text text-anchor="middle" x="289" y="-79.31" font-family="Helvetica,sans-Serif" font-size="12.00">errorFillColorDerivationMode</text>
<text text-anchor="middle" x="289" y="-66.31" font-family="Helvetica,sans-Serif" font-size="12.00">fillColorDerivationMode</text>
<text text-anchor="middle" x="289" y="-53.31" font-family="Helvetica,sans-Serif" font-size="12.00">graphColorDerivationMode</text>
<text text-anchor="middle" x="289" y="-40.31" font-family="Helvetica,sans-Serif" font-size="12.00">symbolFillColorDerivationMode</text>
</g>
<!-- Node18 -->
<g id="node18" class="node">
<title>Node18</title>
<g id="a_node18"><a xlink:href="class_j_k_q_t_annotations_specific_style_properties.html" target="_top" xlink:title="Support Class for JKQTBasePlotter, which summarizes all properties that define the visual styling of ...">
<polygon fill="none" stroke="black" points="1142,-69.91 1142,-103.91 1333,-103.91 1333,-69.91 1142,-69.91"/>
<text text-anchor="start" x="1150" y="-90.31" font-family="Helvetica,sans-Serif" font-size="12.00">JKQTAnnotationsSpecificStyle</text>
<text text-anchor="middle" x="1237.5" y="-77.31" font-family="Helvetica,sans-Serif" font-size="12.00">Properties</text>
</a>
</g>
</g>
<!-- Node16&#45;&gt;Node18 -->
<g id="edge22" class="edge">
<title>Node16&#45;&gt;Node18</title>
<path fill="none" stroke="#9a32cd" stroke-dasharray="5,2" d="M189.51,-113.78C356.18,-110.18 703.35,-102.62 997,-95.91 1053.45,-94.62 1067.58,-95.08 1124,-92.91 1129.86,-92.69 1135.9,-92.43 1141.98,-92.16"/>
<polygon fill="#9a32cd" stroke="#9a32cd" points="189.21,-110.28 179.28,-114 189.36,-117.28 189.21,-110.28"/>
<text text-anchor="middle" x="718" y="-107.31" font-family="Helvetica,sans-Serif" font-size="12.00"> textColorDerivationMode</text>
</g>
<!-- Node17&#45;&gt;Node14 -->
<g id="edge18" class="edge">
<title>Node17&#45;&gt;Node14</title>
<path fill="none" stroke="#9a32cd" stroke-dasharray="5,2" d="M994.4,-88.97C1001.36,-90.35 1008.29,-91.68 1015,-92.91 1204.79,-127.86 1257.07,-125.98 1449,-105.91 1465.32,-104.21 1482.88,-101.85 1499.21,-99.43"/>
<polygon fill="#9a32cd" stroke="#9a32cd" points="994.69,-85.46 984.2,-86.92 993.31,-92.32 994.69,-85.46"/>
<text text-anchor="middle" x="1237.5" y="-124.31" font-family="Helvetica,sans-Serif" font-size="12.00"> geometricStyle</text>
</g>
<!-- Node17&#45;&gt;Node18 -->
<g id="edge21" class="edge">
<title>Node17&#45;&gt;Node18</title>
<path fill="none" stroke="midnightblue" d="M1007.35,-75.13C1050.18,-77.33 1099.79,-79.88 1141.87,-82.05"/>
<polygon fill="midnightblue" stroke="midnightblue" points="1007.35,-71.62 997.19,-74.6 1006.99,-78.61 1007.35,-71.62"/>
</g>
<!-- Node18&#45;&gt;Node14 -->
<g id="edge20" class="edge">
<title>Node18&#45;&gt;Node14</title>
<path fill="none" stroke="#9a32cd" stroke-dasharray="5,2" d="M1343.39,-87.56C1391.57,-87.86 1447.51,-88.2 1490.86,-88.47"/>
<polygon fill="#9a32cd" stroke="#9a32cd" points="1343.25,-84.06 1333.23,-87.5 1343.21,-91.06 1343.25,-84.06"/>
<text text-anchor="middle" x="1400" y="-92.31" font-family="Helvetica,sans-Serif" font-size="12.00"> annotationStyle</text>
</g>
<!-- Node19&#45;&gt;Node8 -->
<g id="edge23" class="edge">
<title>Node19&#45;&gt;Node8</title>
<path fill="none" stroke="#9a32cd" stroke-dasharray="5,2" d="M1949.32,-376.2C2016.78,-354.58 2146.39,-313.06 2207.31,-293.54"/>
<polygon fill="#9a32cd" stroke="#9a32cd" points="1947.89,-372.98 1939.44,-379.36 1950.03,-379.64 1947.89,-372.98"/>
<text text-anchor="middle" x="2073.5" y="-364.31" font-family="Helvetica,sans-Serif" font-size="12.00"> mathText</text>
</g>
<!-- Node20 -->
<g id="node20" class="node">
<title>Node20</title>
<g id="a_node20"><a xlink:href="class_j_k_q_t_math_text_node.html" target="_top" xlink:title="subclass representing one node in the syntax tree">
<polygon fill="none" stroke="black" points="2176,-394.41 2176,-415.41 2307,-415.41 2307,-394.41 2176,-394.41"/>
<text text-anchor="middle" x="2241.5" y="-401.81" font-family="Helvetica,sans-Serif" font-size="12.00">JKQTMathTextNode</text>
</a>
</g>
</g>
<!-- Node19&#45;&gt;Node20 -->
<g id="edge26" class="edge">
<title>Node19&#45;&gt;Node20</title>
<path fill="none" stroke="#9a32cd" stroke-dasharray="5,2" d="M1943.36,-403.83C1959.03,-409.04 1977.67,-414.33 1995,-416.91 2055.88,-425.99 2126.1,-421.03 2175.8,-414.97"/>
<polygon fill="#9a32cd" stroke="#9a32cd" points="1944.12,-400.39 1933.52,-400.44 1941.84,-407.01 1944.12,-400.39"/>
<text text-anchor="middle" x="2073.5" y="-424.31" font-family="Helvetica,sans-Serif" font-size="12.00"> parentMathText</text>
</g>
<!-- Node20&#45;&gt;Node19 -->
<g id="edge25" class="edge">
<title>Node20&#45;&gt;Node19</title>
<path fill="none" stroke="#9a32cd" stroke-dasharray="5,2" d="M2165.73,-401.55C2101.36,-398.66 2010.37,-394.58 1955.07,-392.09"/>
<polygon fill="#9a32cd" stroke="#9a32cd" points="2165.67,-405.06 2175.82,-402.01 2165.99,-398.06 2165.67,-405.06"/>
<text text-anchor="middle" x="2073.5" y="-403.31" font-family="Helvetica,sans-Serif" font-size="12.00"> parsedNode</text>
</g>
<!-- Node20&#45;&gt;Node20 -->
<g id="edge27" class="edge">
<title>Node20&#45;&gt;Node20</title>
<path fill="none" stroke="#9a32cd" stroke-dasharray="5,2" d="M2214.45,-424.97C2216.23,-430.08 2225.24,-433.91 2241.5,-433.91 2266.88,-433.91 2274.61,-424.57 2264.7,-415.62"/>
<polygon fill="#9a32cd" stroke="#9a32cd" points="2217.73,-426.2 2218.3,-415.62 2211.26,-423.53 2217.73,-426.2"/>
<text text-anchor="middle" x="2241.5" y="-437.31" font-family="Helvetica,sans-Serif" font-size="12.00"> parentNode</text>
</g>
<!-- Node21&#45;&gt;Node8 -->
<g id="edge28" class="edge">
<title>Node21&#45;&gt;Node8</title>
<path fill="none" stroke="#9a32cd" stroke-dasharray="5,2" d="M2493.64,-197.59C2445.85,-199.51 2383.27,-206.03 2331,-224.91 2300.94,-235.77 2270.86,-258.66 2254.67,-272.22"/>
<polygon fill="#9a32cd" stroke="#9a32cd" points="2494.04,-201.08 2503.92,-197.24 2493.8,-194.09 2494.04,-201.08"/>
<text text-anchor="middle" x="2387.5" y="-228.31" font-family="Helvetica,sans-Serif" font-size="12.00"> m_plotsModel</text>
</g>
<!-- Node22 -->
<g id="node22" class="node">
<title>Node22</title>
<g id="a_node22"><a xlink:title=" ">
<polygon fill="none" stroke="black" points="2170,-155.41 2170,-176.41 2313,-176.41 2313,-155.41 2170,-155.41"/>
<text text-anchor="middle" x="2241.5" y="-162.81" font-family="Helvetica,sans-Serif" font-size="12.00">QAbstractTableModel</text>
</a>
</g>
</g>
<!-- Node22&#45;&gt;Node21 -->
<g id="edge29" class="edge">
<title>Node22&#45;&gt;Node21</title>
<path fill="none" stroke="midnightblue" d="M2323.22,-170.15C2360.1,-172.43 2404.32,-175.67 2444,-179.91 2463.54,-182 2484.73,-184.85 2504,-187.66"/>
<polygon fill="midnightblue" stroke="midnightblue" points="2323.21,-166.64 2313.02,-169.53 2322.79,-173.63 2323.21,-166.64"/>
</g>
<!-- Node23 -->
<g id="node23" class="node">
<title>Node23</title>
<g id="a_node23"><a xlink:href="class_j_k_q_t_p_horizontal_axis.html" target="_top" xlink:title="implements a horizontal axis, based on JKQTPCoordinateAxis (for most of documentation: see JKQTPCoord...">
<polygon fill="none" stroke="black" points="2714,-312.41 2714,-333.41 2851,-333.41 2851,-312.41 2714,-312.41"/>
<text text-anchor="middle" x="2782.5" y="-319.81" font-family="Helvetica,sans-Serif" font-size="12.00">JKQTPHorizontalAxis</text>
</a>
</g>
</g>
<!-- Node23&#45;&gt;Node8 -->
<g id="edge31" class="edge">
<title>Node23&#45;&gt;Node8</title>
<path fill="none" stroke="#9a32cd" stroke-dasharray="5,2" d="M2703.58,-322.21C2613.54,-320.64 2461.07,-315.65 2331,-299.91 2317.95,-298.33 2303.94,-295.96 2291,-293.49"/>
<polygon fill="#9a32cd" stroke="#9a32cd" points="2703.65,-325.71 2713.7,-322.38 2703.76,-318.71 2703.65,-325.71"/>
<text text-anchor="middle" x="2569.5" y="-324.31" font-family="Helvetica,sans-Serif" font-size="12.00"> xAxis</text>
</g>
<!-- Node36 -->
<g id="node36" class="node">
<title>Node36</title>
<g id="a_node36"><a xlink:href="class_j_k_q_t_p_horizontal_independent_axis.html" target="_top" xlink:title="implements a position&#45;indipendent horizontal axis, based on JKQTPCoordinateAxis (for most of document...">
<polygon fill="none" stroke="black" points="2888,-320.41 2888,-341.41 3101,-341.41 3101,-320.41 2888,-320.41"/>
<text text-anchor="middle" x="2994.5" y="-327.81" font-family="Helvetica,sans-Serif" font-size="12.00">JKQTPHorizontalIndependentAxis</text>
</a>
</g>
</g>
<!-- Node23&#45;&gt;Node36 -->
<g id="edge53" class="edge">
<title>Node23&#45;&gt;Node36</title>
<path fill="none" stroke="midnightblue" d="M2861.17,-325.87C2869.87,-326.2 2878.83,-326.54 2887.8,-326.89"/>
<polygon fill="midnightblue" stroke="midnightblue" points="2861.23,-322.37 2851.1,-325.49 2860.96,-329.37 2861.23,-322.37"/>
</g>
<!-- Node24&#45;&gt;Node23 -->
<g id="edge32" class="edge">
<title>Node24&#45;&gt;Node23</title>
<path fill="none" stroke="midnightblue" d="M2608.88,-385.91C2650.29,-370.79 2715.32,-347.06 2752.61,-333.45"/>
<polygon fill="midnightblue" stroke="midnightblue" points="2607.59,-382.65 2599.4,-389.37 2609.99,-389.23 2607.59,-382.65"/>
</g>
<!-- Node25 -->
<g id="node25" class="node">
<title>Node25</title>
<g id="a_node25"><a xlink:href="class_j_k_q_t_p_vertical_axis.html" target="_top" xlink:title="implements a vertical axis, based on JKQTPCoordinateAxis (for most of documentation: see JKQTPCoordin...">
<polygon fill="none" stroke="black" points="2721.5,-401.41 2721.5,-422.41 2843.5,-422.41 2843.5,-401.41 2721.5,-401.41"/>
<text text-anchor="middle" x="2782.5" y="-408.81" font-family="Helvetica,sans-Serif" font-size="12.00">JKQTPVerticalAxis</text>
</a>
</g>
</g>
<!-- Node24&#45;&gt;Node25 -->
<g id="edge37" class="edge">
<title>Node24&#45;&gt;Node25</title>
<path fill="none" stroke="midnightblue" d="M2651.01,-404.49C2674.4,-405.82 2699.53,-407.25 2721.43,-408.5"/>
<polygon fill="midnightblue" stroke="midnightblue" points="2650.94,-400.98 2640.76,-403.91 2650.55,-407.97 2650.94,-400.98"/>
</g>
<!-- Node25&#45;&gt;Node8 -->
<g id="edge36" class="edge">
<title>Node25&#45;&gt;Node8</title>
<path fill="none" stroke="#9a32cd" stroke-dasharray="5,2" d="M2736.4,-425.12C2650.77,-447.42 2461.55,-483.19 2331,-407.91 2327.99,-406.18 2270.91,-323.96 2250.05,-293.83"/>
<polygon fill="#9a32cd" stroke="#9a32cd" points="2737.55,-428.43 2746.32,-422.48 2735.75,-421.67 2737.55,-428.43"/>
<text text-anchor="middle" x="2569.5" y="-456.31" font-family="Helvetica,sans-Serif" font-size="12.00"> yAxis</text>
</g>
<!-- Node35 -->
<g id="node35" class="node">
<title>Node35</title>
<g id="a_node35"><a xlink:href="class_j_k_q_t_p_vertical_independent_axis.html" target="_top" xlink:title="implements a position&#45;indipendent vertical axis, based on JKQTPCoordinateAxis (for most of documentat...">
<polygon fill="none" stroke="black" points="2896,-399.41 2896,-420.41 3093,-420.41 3093,-399.41 2896,-399.41"/>
<text text-anchor="middle" x="2994.5" y="-406.81" font-family="Helvetica,sans-Serif" font-size="12.00">JKQTPVerticalIndependentAxis</text>
</a>
</g>
</g>
<!-- Node25&#45;&gt;Node35 -->
<g id="edge51" class="edge">
<title>Node25&#45;&gt;Node35</title>
<path fill="none" stroke="midnightblue" d="M2853.78,-411.24C2867.22,-411.12 2881.52,-410.98 2895.65,-410.84"/>
<polygon fill="midnightblue" stroke="midnightblue" points="2853.64,-407.74 2843.68,-411.34 2853.71,-414.74 2853.64,-407.74"/>
</g>
<!-- Node26 -->
<g id="node26" class="node">
<title>Node26</title>
<g id="a_node26"><a xlink:href="class_j_k_q_t_p_datastore.html" target="_top" xlink:title="This class manages data columns (with entries of type double ), used by JKQTPlotter/JKQTBasePlotter t...">
<polygon fill="none" stroke="black" points="1850,-113.41 1850,-134.41 1961,-134.41 1961,-113.41 1850,-113.41"/>
<text text-anchor="middle" x="1905.5" y="-120.81" font-family="Helvetica,sans-Serif" font-size="12.00">JKQTPDatastore</text>
</a>
</g>
</g>
<!-- Node26&#45;&gt;Node8 -->
<g id="edge38" class="edge">
<title>Node26&#45;&gt;Node8</title>
<path fill="none" stroke="#9a32cd" stroke-dasharray="5,2" d="M1971.2,-134.73C2022.76,-145.34 2095.43,-164.85 2152,-197.91 2186.58,-218.13 2218.1,-254.49 2232.4,-272.39"/>
<polygon fill="#9a32cd" stroke="#9a32cd" points="1971.67,-131.26 1961.18,-132.73 1970.3,-138.12 1971.67,-131.26"/>
<text text-anchor="middle" x="2073.5" y="-201.31" font-family="Helvetica,sans-Serif" font-size="12.00"> datastore</text>
</g>
<!-- Node28 -->
<g id="node28" class="node">
<title>Node28</title>
<g id="a_node28"><a xlink:href="class_j_k_q_t_p_column.html" target="_top" xlink:title="internally stores information about one data column. See JKQTPDatastore for more information.">
<polygon fill="none" stroke="black" points="2192.5,-66.41 2192.5,-87.41 2290.5,-87.41 2290.5,-66.41 2192.5,-66.41"/>
<text text-anchor="middle" x="2241.5" y="-73.81" font-family="Helvetica,sans-Serif" font-size="12.00">JKQTPColumn</text>
</a>
</g>
</g>
<!-- Node26&#45;&gt;Node28 -->
<g id="edge41" class="edge">
<title>Node26&#45;&gt;Node28</title>
<path fill="none" stroke="#9a32cd" stroke-dasharray="5,2" d="M1945.26,-110.12C1960.57,-105.19 1978.43,-100.08 1995,-96.91 2062.63,-84 2142.29,-79.42 2192.11,-77.8"/>
<polygon fill="#9a32cd" stroke="#9a32cd" points="1944,-106.84 1935.6,-113.31 1946.2,-113.49 1944,-106.84"/>
<text text-anchor="middle" x="2073.5" y="-100.31" font-family="Helvetica,sans-Serif" font-size="12.00"> datastore</text>
</g>
<!-- Node27 -->
<g id="node27" class="node">
<title>Node27</title>
<g id="a_node27"><a xlink:title=" ">
<polygon fill="none" stroke="black" points="2462,-66.41 2462,-87.41 2677,-87.41 2677,-66.41 2462,-66.41"/>
<text text-anchor="middle" x="2569.5" y="-73.81" font-family="Helvetica,sans-Serif" font-size="12.00">std::unique_ptr&lt; JKQTPColumn &gt;</text>
</a>
</g>
</g>
<!-- Node27&#45;&gt;Node26 -->
<g id="edge39" class="edge">
<title>Node27&#45;&gt;Node26</title>
<path fill="none" stroke="#9a32cd" stroke-dasharray="5,2" d="M2488.66,-88.78C2473.84,-90.71 2458.47,-92.52 2444,-93.91 2267.93,-110.82 2058.44,-119.12 1961.16,-122.31"/>
<polygon fill="#9a32cd" stroke="#9a32cd" points="2489.36,-92.21 2498.82,-87.43 2488.44,-85.28 2489.36,-92.21"/>
<text text-anchor="middle" x="2241.5" y="-117.31" font-family="Helvetica,sans-Serif" font-size="12.00"> m_invalidColumn</text>
</g>
<!-- Node28&#45;&gt;Node27 -->
<g id="edge40" class="edge">
<title>Node28&#45;&gt;Node27</title>
<path fill="none" stroke="#9a32cd" stroke-dasharray="5,2" d="M2300.69,-76.91C2345.35,-76.91 2408.24,-76.91 2461.85,-76.91"/>
<polygon fill="#9a32cd" stroke="#9a32cd" points="2300.6,-73.41 2290.6,-76.91 2300.6,-80.41 2300.6,-73.41"/>
<text text-anchor="middle" x="2387.5" y="-80.31" font-family="Helvetica,sans-Serif" font-size="12.00"> ptr</text>
</g>
<!-- Node29 -->
<g id="node29" class="node">
<title>Node29</title>
<g id="a_node29"><a xlink:title=" ">
<polygon fill="none" stroke="black" points="2171.5,-26.41 2171.5,-47.41 2311.5,-47.41 2311.5,-26.41 2171.5,-26.41"/>
<text text-anchor="middle" x="2241.5" y="-33.81" font-family="Helvetica,sans-Serif" font-size="12.00">std::unique_ptr&lt; T &gt;</text>
</a>
</g>
</g>
<!-- Node29&#45;&gt;Node27 -->
<g id="edge42" class="edge">
<title>Node29&#45;&gt;Node27</title>
<path fill="none" stroke="orange" stroke-dasharray="5,2" d="M2321.82,-45.56C2358.95,-49.71 2403.76,-54.87 2444,-59.91 2460.02,-61.92 2477.18,-64.19 2493.48,-66.4"/>
<polygon fill="orange" stroke="orange" points="2321.88,-42.04 2311.56,-44.41 2321.11,-49 2321.88,-42.04"/>
<text text-anchor="middle" x="2387.5" y="-63.31" font-family="Helvetica,sans-Serif" font-size="12.00"> &lt; JKQTPColumn &gt;</text>
</g>
<!-- Node30 -->
<g id="node30" class="node">
<title>Node30</title>
<g id="a_node30"><a xlink:title=" ">
<polygon fill="none" stroke="black" points="1891,-26.41 1891,-47.41 1920,-47.41 1920,-26.41 1891,-26.41"/>
<text text-anchor="middle" x="1905.5" y="-33.81" font-family="Helvetica,sans-Serif" font-size="12.00">T</text>
</a>
</g>
</g>
<!-- Node30&#45;&gt;Node29 -->
<g id="edge43" class="edge">
<title>Node30&#45;&gt;Node29</title>
<path fill="none" stroke="#9a32cd" stroke-dasharray="5,2" d="M1930.04,-36.91C1979.54,-36.91 2096.05,-36.91 2171.41,-36.91"/>
<polygon fill="#9a32cd" stroke="#9a32cd" points="1930.01,-33.41 1920.01,-36.91 1930.01,-40.41 1930.01,-33.41"/>
<text text-anchor="middle" x="2073.5" y="-40.31" font-family="Helvetica,sans-Serif" font-size="12.00"> ptr</text>
</g>
<!-- Node31 -->
<g id="node31" class="node">
<title>Node31</title>
<g id="a_node31"><a xlink:href="class_j_k_q_t_p_graph_line_style_mixin.html" target="_top" xlink:title="This Mix&#45;In class provides setter/getter methods, storage and other facilities for the graph line sty...">
<polygon fill="none" stroke="black" points="2907.5,-186.41 2907.5,-207.41 3081.5,-207.41 3081.5,-186.41 2907.5,-186.41"/>
<text text-anchor="middle" x="2994.5" y="-193.81" font-family="Helvetica,sans-Serif" font-size="12.00">JKQTPGraphLineStyleMixin</text>
</a>
</g>
</g>
<!-- Node31&#45;&gt;Node3 -->
<g id="edge45" class="edge">
<title>Node31&#45;&gt;Node3</title>
<path fill="none" stroke="midnightblue" d="M3062.37,-209.39C3075.2,-211.84 3088.52,-214.43 3101,-216.91 3165.04,-229.67 3238.73,-245.21 3286.15,-255.32"/>
<polygon fill="midnightblue" stroke="midnightblue" points="3062.68,-205.89 3052.21,-207.46 3061.38,-212.77 3062.68,-205.89"/>
</g>
<!-- Node32 -->
<g id="node32" class="node">
<title>Node32</title>
<g id="a_node32"><a xlink:href="class_j_k_q_t_p_graph_symbol_style_mixin.html" target="_top" xlink:title="This Mix&#45;In class provides setter/getter methods, storage and other facilities for the graph symbols ...">
<polygon fill="none" stroke="black" points="2897.5,-146.41 2897.5,-167.41 3091.5,-167.41 3091.5,-146.41 2897.5,-146.41"/>
<text text-anchor="middle" x="2994.5" y="-153.81" font-family="Helvetica,sans-Serif" font-size="12.00">JKQTPGraphSymbolStyleMixin</text>
</a>
</g>
</g>
<!-- Node32&#45;&gt;Node3 -->
<g id="edge46" class="edge">
<title>Node32&#45;&gt;Node3</title>
<path fill="none" stroke="midnightblue" d="M3067.05,-169.39C3078.45,-171.69 3090.08,-174.22 3101,-176.91 3158.74,-191.14 3182.13,-179.31 3229,-215.91 3241.25,-225.48 3234.4,-236.8 3247,-245.91 3254.27,-251.18 3262.7,-255.09 3271.4,-257.99"/>
<polygon fill="midnightblue" stroke="midnightblue" points="3067.6,-165.93 3057.11,-167.43 3066.24,-172.8 3067.6,-165.93"/>
</g>
<!-- Node33 -->
<g id="node33" class="node">
<title>Node33</title>
<g id="a_node33"><a xlink:href="class_j_k_q_t_p_graph_lines_compression_mixin.html" target="_top" xlink:title="This Mix&#45;In class provides setter/getter methods, storage and other facilities for a line&#45;graph compr...">
<polygon fill="none" stroke="black" points="2896,-266.91 2896,-300.91 3093,-300.91 3093,-266.91 2896,-266.91"/>
<text text-anchor="start" x="2904" y="-287.31" font-family="Helvetica,sans-Serif" font-size="12.00">JKQTPGraphLinesCompression</text>
<text text-anchor="middle" x="2994.5" y="-274.31" font-family="Helvetica,sans-Serif" font-size="12.00">Mixin</text>
</a>
</g>
</g>
<!-- Node33&#45;&gt;Node3 -->
<g id="edge47" class="edge">
<title>Node33&#45;&gt;Node3</title>
<path fill="none" stroke="midnightblue" d="M3103.57,-278.19C3158.77,-275.27 3224.06,-271.81 3271.28,-269.31"/>
<polygon fill="midnightblue" stroke="midnightblue" points="3103.19,-274.71 3093.39,-278.73 3103.56,-281.7 3103.19,-274.71"/>
</g>
<!-- Node34&#45;&gt;Node2 -->
<g id="edge48" class="edge">
<title>Node34&#45;&gt;Node2</title>
<path fill="none" stroke="midnightblue" d="M3401.05,-332.74C3433.67,-322.38 3472.98,-309.9 3504.1,-300.02"/>
<polygon fill="midnightblue" stroke="midnightblue" points="3399.63,-329.52 3391.16,-335.88 3401.75,-336.19 3399.63,-329.52"/>
</g>
<!-- Node35&#45;&gt;Node34 -->
<g id="edge50" class="edge">
<title>Node35&#45;&gt;Node34</title>
<path fill="none" stroke="#9a32cd" stroke-dasharray="5,2" d="M3103.2,-401.83C3142.96,-397.83 3188.25,-392.05 3229,-383.91 3247.03,-380.31 3266.43,-375.08 3283.67,-369.94"/>
<polygon fill="#9a32cd" stroke="#9a32cd" points="3102.82,-398.35 3093.21,-402.82 3103.5,-405.32 3102.82,-398.35"/>
<text text-anchor="middle" x="3174" y="-403.31" font-family="Helvetica,sans-Serif" font-size="12.00"> colorBarRightAxis</text>
</g>
<!-- Node36&#45;&gt;Node34 -->
<g id="edge52" class="edge">
<title>Node36&#45;&gt;Node34</title>
<path fill="none" stroke="#9a32cd" stroke-dasharray="5,2" d="M3111.51,-335.91C3149.02,-337.78 3190.79,-340.14 3229,-342.91 3235.02,-343.35 3241.23,-343.84 3247.48,-344.35"/>
<polygon fill="#9a32cd" stroke="#9a32cd" points="3111.2,-332.39 3101.04,-335.39 3110.86,-339.38 3111.2,-332.39"/>
<text text-anchor="middle" x="3174" y="-346.31" font-family="Helvetica,sans-Serif" font-size="12.00"> colorBarTopAxis</text>
</g>
<!-- Node37 -->
<g id="node37" class="node">
<title>Node37</title>
<g id="a_node37"><a xlink:href="class_j_k_q_t_p_x_y_graph_errors.html" target="_top" xlink:title="This class is the base class for graphs that only display error indicators in x&#45; and y&#45;direction.">
<polygon fill="none" stroke="black" points="3489,-209.41 3489,-230.41 3629,-230.41 3629,-209.41 3489,-209.41"/>
<text text-anchor="middle" x="3559" y="-216.81" font-family="Helvetica,sans-Serif" font-size="12.00">JKQTPXYGraphErrors</text>
</a>
</g>
</g>
<!-- Node37&#45;&gt;Node1 -->
<g id="edge55" class="edge">
<title>Node37&#45;&gt;Node1</title>
<path fill="none" stroke="midnightblue" d="M3638.96,-228.17C3656.11,-229.96 3674.35,-231.87 3691.82,-233.69"/>
<polygon fill="midnightblue" stroke="midnightblue" points="3639.32,-224.69 3629.01,-227.13 3638.59,-231.65 3639.32,-224.69"/>
</g>
<!-- Node38 -->
<g id="node38" class="node">
<title>Node38</title>
<g id="a_node38"><a xlink:href="class_j_k_q_t_p_x_graph_error_data.html" target="_top" xlink:title="This class adds data fields for error indicators in x direction.">
<polygon fill="none" stroke="black" points="3259,-215.41 3259,-236.41 3414,-236.41 3414,-215.41 3259,-215.41"/>
<text text-anchor="middle" x="3336.5" y="-222.81" font-family="Helvetica,sans-Serif" font-size="12.00">JKQTPXGraphErrorData</text>
</a>
</g>
</g>
<!-- Node38&#45;&gt;Node37 -->
<g id="edge56" class="edge">
<title>Node38&#45;&gt;Node37</title>
<path fill="none" stroke="midnightblue" d="M3424.07,-223.56C3445.49,-222.97 3468.17,-222.36 3488.65,-221.8"/>
<polygon fill="midnightblue" stroke="midnightblue" points="3423.9,-220.06 3414,-223.83 3424.09,-227.06 3423.9,-220.06"/>
</g>
<!-- Node39 -->
<g id="node39" class="node">
<title>Node39</title>
<g id="a_node39"><a xlink:href="class_j_k_q_t_p_y_graph_error_data.html" target="_top" xlink:title="This class adds data fields for error indicators in y direction.">
<polygon fill="none" stroke="black" points="3259.5,-175.41 3259.5,-196.41 3413.5,-196.41 3413.5,-175.41 3259.5,-175.41"/>
<text text-anchor="middle" x="3336.5" y="-182.81" font-family="Helvetica,sans-Serif" font-size="12.00">JKQTPYGraphErrorData</text>
</a>
</g>
</g>
<!-- Node39&#45;&gt;Node37 -->
<g id="edge57" class="edge">
<title>Node39&#45;&gt;Node37</title>
<path fill="none" stroke="midnightblue" d="M3415.93,-198.01C3440.02,-201.72 3466.33,-205.78 3489.69,-209.38"/>
<polygon fill="midnightblue" stroke="midnightblue" points="3416.17,-194.5 3405.76,-196.44 3415.11,-201.42 3416.17,-194.5"/>
</g>
<!-- Node40 -->
<g id="node40" class="node">
<title>Node40</title>
<g id="a_node40"><a xlink:href="class_j_k_q_t_p_graph_error_style_mixin.html" target="_top" xlink:title="This mix&#45;in class assembles all styling properties applicable to error indicators.">
<polygon fill="none" stroke="black" points="3247,-135.41 3247,-156.41 3426,-156.41 3426,-135.41 3247,-135.41"/>
<text text-anchor="middle" x="3336.5" y="-142.81" font-family="Helvetica,sans-Serif" font-size="12.00">JKQTPGraphErrorStyleMixin</text>
</a>
</g>
</g>
<!-- Node40&#45;&gt;Node37 -->
<g id="edge58" class="edge">
<title>Node40&#45;&gt;Node37</title>
<path fill="none" stroke="midnightblue" d="M3400.74,-158.85C3409.29,-161 3417.9,-163.36 3426,-165.91 3465.44,-178.34 3509.59,-197.53 3535.53,-209.38"/>
<polygon fill="midnightblue" stroke="midnightblue" points="3401.31,-155.39 3390.76,-156.44 3399.66,-162.2 3401.31,-155.39"/>
</g>
</g>
</svg>
