<?xml version="1.0" encoding="UTF-8" standalone="no"?>
<!DOCTYPE svg PUBLIC "-//W3C//DTD SVG 1.1//EN"
 "http://www.w3.org/Graphics/SVG/1.1/DTD/svg11.dtd">
<!-- Generated by graphviz version 2.43.0 (0)
 -->
<!-- Title: JKQTPBoxplotHorizontalGraph Pages: 1 -->
<svg width="508pt" height="262pt"
 viewBox="0.00 0.00 507.50 262.00" xmlns="http://www.w3.org/2000/svg" xmlns:xlink="http://www.w3.org/1999/xlink">
<g id="graph0" class="graph" transform="scale(1 1) rotate(0) translate(4 258)">
<title>JKQTPBoxplotHorizontalGraph</title>
<!-- Node1 -->
<g id="node1" class="node">
<title>Node1</title>
<g id="a_node1"><a xlink:title="This implements horizontal boxplots, optionally also a notched boxplot.">
<polygon fill="#bfbfbf" stroke="black" points="49.5,-0.5 49.5,-21.5 243.5,-21.5 243.5,-0.5 49.5,-0.5"/>
<text text-anchor="middle" x="146.5" y="-7.9" font-family="Helvetica,sans-Serif" font-size="12.00">JKQTPBoxplotHorizontalGraph</text>
</a>
</g>
</g>
<!-- Node2 -->
<g id="node2" class="node">
<title>Node2</title>
<g id="a_node2"><a xlink:href="class_j_k_q_t_p_boxplot_graph_base.html" target="_top" xlink:title="Base class for graphs representing a series of boxplot, elements.">
<polygon fill="none" stroke="black" points="65,-58.5 65,-79.5 228,-79.5 228,-58.5 65,-58.5"/>
<text text-anchor="middle" x="146.5" y="-65.9" font-family="Helvetica,sans-Serif" font-size="12.00">JKQTPBoxplotGraphBase</text>
</a>
</g>
</g>
<!-- Node2&#45;&gt;Node1 -->
<g id="edge1" class="edge">
<title>Node2&#45;&gt;Node1</title>
<path fill="none" stroke="midnightblue" d="M146.5,-48.16C146.5,-39.16 146.5,-28.92 146.5,-21.64"/>
<polygon fill="midnightblue" stroke="midnightblue" points="143,-48.25 146.5,-58.25 150,-48.25 143,-48.25"/>
</g>
<!-- Node3 -->
<g id="node3" class="node">
<title>Node3</title>
<g id="a_node3"><a xlink:href="class_j_k_q_t_p_graph.html" target="_top" xlink:title="this virtual base class of the (data&#45;column based) graphs, which are part of a JKQTPlotter plot and w...">
<polygon fill="none" stroke="black" points="23,-116.5 23,-137.5 112,-137.5 112,-116.5 23,-116.5"/>
<text text-anchor="middle" x="67.5" y="-123.9" font-family="Helvetica,sans-Serif" font-size="12.00">JKQTPGraph</text>
</a>
</g>
</g>
<!-- Node3&#45;&gt;Node2 -->
<g id="edge2" class="edge">
<title>Node3&#45;&gt;Node2</title>
<path fill="none" stroke="midnightblue" d="M89.78,-110.21C103.65,-100.37 121.05,-88.04 132.9,-79.64"/>
<polygon fill="midnightblue" stroke="midnightblue" points="87.39,-107.61 81.26,-116.25 91.44,-113.32 87.39,-107.61"/>
</g>
<!-- Node4 -->
<g id="node4" class="node">
<title>Node4</title>
<g id="a_node4"><a xlink:href="class_j_k_q_t_p_plot_element.html" target="_top" xlink:title="this virtual base class of every element, which is part of a JKQTPlotter plot and may appear in its k...">
<polygon fill="none" stroke="black" points="0,-174.5 0,-195.5 125,-195.5 125,-174.5 0,-174.5"/>
<text text-anchor="middle" x="62.5" y="-181.9" font-family="Helvetica,sans-Serif" font-size="12.00">JKQTPPlotElement</text>
</a>
</g>
</g>
<!-- Node4&#45;&gt;Node3 -->
<g id="edge3" class="edge">
<title>Node4&#45;&gt;Node3</title>
<path fill="none" stroke="midnightblue" d="M64.27,-164.16C65.08,-155.16 65.99,-144.92 66.64,-137.64"/>
<polygon fill="midnightblue" stroke="midnightblue" points="60.77,-163.97 63.37,-174.25 67.75,-164.6 60.77,-163.97"/>
</g>
<!-- Node5 -->
<g id="node5" class="node">
<title>Node5</title>
<g id="a_node5"><a xlink:title=" ">
<polygon fill="none" stroke="black" points="30,-232.5 30,-253.5 95,-253.5 95,-232.5 30,-232.5"/>
<text text-anchor="middle" x="62.5" y="-239.9" font-family="Helvetica,sans-Serif" font-size="12.00">QObject</text>
</a>
</g>
</g>
<!-- Node5&#45;&gt;Node4 -->
<g id="edge4" class="edge">
<title>Node5&#45;&gt;Node4</title>
<path fill="none" stroke="midnightblue" d="M62.5,-222.16C62.5,-213.16 62.5,-202.92 62.5,-195.64"/>
<polygon fill="midnightblue" stroke="midnightblue" points="59,-222.25 62.5,-232.25 66,-222.25 59,-222.25"/>
</g>
<!-- Node6 -->
<g id="node6" class="node">
<title>Node6</title>
<g id="a_node6"><a xlink:href="class_j_k_q_t_p_graph_boxplot_style_mixin.html" target="_top" xlink:title="Styling Mix&#45;In for Boxplots.">
<polygon fill="none" stroke="black" points="133.5,-116.5 133.5,-137.5 327.5,-137.5 327.5,-116.5 133.5,-116.5"/>
<text text-anchor="middle" x="230.5" y="-123.9" font-family="Helvetica,sans-Serif" font-size="12.00">JKQTPGraphBoxplotStyleMixin</text>
</a>
</g>
</g>
<!-- Node6&#45;&gt;Node2 -->
<g id="edge5" class="edge">
<title>Node6&#45;&gt;Node2</title>
<path fill="none" stroke="midnightblue" d="M207.24,-110.49C192.41,-100.61 173.68,-88.12 160.96,-79.64"/>
<polygon fill="midnightblue" stroke="midnightblue" points="205.61,-113.61 215.87,-116.25 209.49,-107.79 205.61,-113.61"/>
</g>
<!-- Node7 -->
<g id="node7" class="node">
<title>Node7</title>
<g id="a_node7"><a xlink:href="class_j_k_q_t_p_graph_line_style_mixin.html" target="_top" xlink:title="This Mix&#45;In class provides setter/getter methods, storage and other facilities for the graph line sty...">
<polygon fill="none" stroke="black" points="143.5,-174.5 143.5,-195.5 317.5,-195.5 317.5,-174.5 143.5,-174.5"/>
<text text-anchor="middle" x="230.5" y="-181.9" font-family="Helvetica,sans-Serif" font-size="12.00">JKQTPGraphLineStyleMixin</text>
</a>
</g>
</g>
<!-- Node7&#45;&gt;Node6 -->
<g id="edge6" class="edge">
<title>Node7&#45;&gt;Node6</title>
<path fill="none" stroke="midnightblue" d="M230.5,-164.16C230.5,-155.16 230.5,-144.92 230.5,-137.64"/>
<polygon fill="midnightblue" stroke="midnightblue" points="227,-164.25 230.5,-174.25 234,-164.25 227,-164.25"/>
</g>
<!-- Node8 -->
<g id="node8" class="node">
<title>Node8</title>
<g id="a_node8"><a xlink:href="class_j_k_q_t_p_graph_fill_style_mixin.html" target="_top" xlink:title="This Mix&#45;In class provides setter/getter methods, storage and other facilities for the graph filling ...">
<polygon fill="none" stroke="black" points="335.5,-174.5 335.5,-195.5 499.5,-195.5 499.5,-174.5 335.5,-174.5"/>
<text text-anchor="middle" x="417.5" y="-181.9" font-family="Helvetica,sans-Serif" font-size="12.00">JKQTPGraphFillStyleMixin</text>
</a>
</g>
</g>
<!-- Node8&#45;&gt;Node6 -->
<g id="edge7" class="edge">
<title>Node8&#45;&gt;Node6</title>
<path fill="none" stroke="midnightblue" d="M375.61,-171.46C341.29,-161.18 293.44,-146.85 262.23,-137.5"/>
<polygon fill="midnightblue" stroke="midnightblue" points="374.77,-174.86 385.35,-174.37 376.78,-168.15 374.77,-174.86"/>
</g>
</g>
</svg>
