<?xml version="1.0" encoding="UTF-8" standalone="no"?>
<!DOCTYPE svg PUBLIC "-//W3C//DTD SVG 1.1//EN"
 "http://www.w3.org/Graphics/SVG/1.1/DTD/svg11.dtd">
<!-- Generated by graphviz version 2.43.0 (0)
 -->
<!-- Title: JKQTPHorizontalIndependentAxis Pages: 1 -->
<svg width="221pt" height="204pt"
 viewBox="0.00 0.00 221.00 204.00" xmlns="http://www.w3.org/2000/svg" xmlns:xlink="http://www.w3.org/1999/xlink">
<g id="graph0" class="graph" transform="scale(1 1) rotate(0) translate(4 200)">
<title>JKQTPHorizontalIndependentAxis</title>
<!-- Node1 -->
<g id="node1" class="node">
<title>Node1</title>
<g id="a_node1"><a xlink:title="implements a position&#45;indipendent horizontal axis, based on JKQTPCoordinateAxis (for most of document...">
<polygon fill="#bfbfbf" stroke="black" points="0,-0.5 0,-21.5 213,-21.5 213,-0.5 0,-0.5"/>
<text text-anchor="middle" x="106.5" y="-7.9" font-family="Helvetica,sans-Serif" font-size="12.00">JKQTPHorizontalIndependentAxis</text>
</a>
</g>
</g>
<!-- Node2 -->
<g id="node2" class="node">
<title>Node2</title>
<g id="a_node2"><a xlink:href="class_j_k_q_t_p_horizontal_axis.html" target="_top" xlink:title="implements a horizontal axis, based on JKQTPCoordinateAxis (for most of documentation: see JKQTPCoord...">
<polygon fill="none" stroke="black" points="38,-58.5 38,-79.5 175,-79.5 175,-58.5 38,-58.5"/>
<text text-anchor="middle" x="106.5" y="-65.9" font-family="Helvetica,sans-Serif" font-size="12.00">JKQTPHorizontalAxis</text>
</a>
</g>
</g>
<!-- Node2&#45;&gt;Node1 -->
<g id="edge1" class="edge">
<title>Node2&#45;&gt;Node1</title>
<path fill="none" stroke="midnightblue" d="M106.5,-48.16C106.5,-39.16 106.5,-28.92 106.5,-21.64"/>
<polygon fill="midnightblue" stroke="midnightblue" points="103,-48.25 106.5,-58.25 110,-48.25 103,-48.25"/>
</g>
<!-- Node3 -->
<g id="node3" class="node">
<title>Node3</title>
<g id="a_node3"><a xlink:href="class_j_k_q_t_p_coordinate_axis.html" target="_top" xlink:title="this virtual class is the base for any type of coordinate axis, to be drawn by JKQTBasePlotter.">
<polygon fill="none" stroke="black" points="35.5,-116.5 35.5,-137.5 177.5,-137.5 177.5,-116.5 35.5,-116.5"/>
<text text-anchor="middle" x="106.5" y="-123.9" font-family="Helvetica,sans-Serif" font-size="12.00">JKQTPCoordinateAxis</text>
</a>
</g>
</g>
<!-- Node3&#45;&gt;Node2 -->
<g id="edge2" class="edge">
<title>Node3&#45;&gt;Node2</title>
<path fill="none" stroke="midnightblue" d="M106.5,-106.16C106.5,-97.16 106.5,-86.92 106.5,-79.64"/>
<polygon fill="midnightblue" stroke="midnightblue" points="103,-106.25 106.5,-116.25 110,-106.25 103,-106.25"/>
</g>
<!-- Node4 -->
<g id="node4" class="node">
<title>Node4</title>
<g id="a_node4"><a xlink:title=" ">
<polygon fill="none" stroke="black" points="74,-174.5 74,-195.5 139,-195.5 139,-174.5 74,-174.5"/>
<text text-anchor="middle" x="106.5" y="-181.9" font-family="Helvetica,sans-Serif" font-size="12.00">QObject</text>
</a>
</g>
</g>
<!-- Node4&#45;&gt;Node3 -->
<g id="edge3" class="edge">
<title>Node4&#45;&gt;Node3</title>
<path fill="none" stroke="midnightblue" d="M106.5,-164.16C106.5,-155.16 106.5,-144.92 106.5,-137.64"/>
<polygon fill="midnightblue" stroke="midnightblue" points="103,-164.25 106.5,-174.25 110,-164.25 103,-164.25"/>
</g>
</g>
</svg>
