<?xml version="1.0" encoding="UTF-8" standalone="no"?>
<!DOCTYPE svg PUBLIC "-//W3C//DTD SVG 1.1//EN"
 "http://www.w3.org/Graphics/SVG/1.1/DTD/svg11.dtd">
<!-- Generated by graphviz version 2.43.0 (0)
 -->
<!-- Title: JKQTPColumnConstIterator Pages: 1 -->
<svg width="522pt" height="243pt"
 viewBox="0.00 0.00 522.00 243.00" xmlns="http://www.w3.org/2000/svg" xmlns:xlink="http://www.w3.org/1999/xlink">
<g id="graph0" class="graph" transform="scale(1 1) rotate(0) translate(4 239)">
<title>JKQTPColumnConstIterator</title>
<!-- Node1 -->
<g id="node1" class="node">
<title>Node1</title>
<g id="a_node1"><a xlink:title="iterator over the data in the column of a JKQTPDatastore">
<polygon fill="#bfbfbf" stroke="black" points="0,-71.5 0,-92.5 178,-92.5 178,-71.5 0,-71.5"/>
<text text-anchor="middle" x="89" y="-78.9" font-family="Helvetica,sans-Serif" font-size="12.00">JKQTPColumnConstIterator</text>
</a>
</g>
</g>
<!-- Node2 -->
<g id="node2" class="node">
<title>Node2</title>
<g id="a_node2"><a xlink:href="class_j_k_q_t_p_column.html" target="_top" xlink:title="internally stores information about one data column. See JKQTPDatastore for more information.">
<polygon fill="none" stroke="black" points="165,-142.5 165,-163.5 263,-163.5 263,-142.5 165,-142.5"/>
<text text-anchor="middle" x="214" y="-149.9" font-family="Helvetica,sans-Serif" font-size="12.00">JKQTPColumn</text>
</a>
</g>
</g>
<!-- Node2&#45;&gt;Node1 -->
<g id="edge1" class="edge">
<title>Node2&#45;&gt;Node1</title>
<path fill="none" stroke="#9a32cd" stroke-dasharray="5,2" d="M187.83,-137.56C163.31,-124.02 127.34,-104.16 106.23,-92.51"/>
<polygon fill="#9a32cd" stroke="#9a32cd" points="186.17,-140.64 196.62,-142.41 189.56,-134.51 186.17,-140.64"/>
<text text-anchor="middle" x="177" y="-114.4" font-family="Helvetica,sans-Serif" font-size="12.00"> col_</text>
</g>
<!-- Node4 -->
<g id="node4" class="node">
<title>Node4</title>
<g id="a_node4"><a xlink:title=" ">
<polygon fill="none" stroke="black" points="293.5,-71.5 293.5,-92.5 508.5,-92.5 508.5,-71.5 293.5,-71.5"/>
<text text-anchor="middle" x="401" y="-78.9" font-family="Helvetica,sans-Serif" font-size="12.00">std::unique_ptr&lt; JKQTPColumn &gt;</text>
</a>
</g>
</g>
<!-- Node2&#45;&gt;Node4 -->
<g id="edge4" class="edge">
<title>Node2&#45;&gt;Node4</title>
<path fill="none" stroke="#9a32cd" stroke-dasharray="5,2" d="M249.8,-138.79C286.5,-125.25 342.67,-104.52 375.22,-92.51"/>
<polygon fill="#9a32cd" stroke="#9a32cd" points="248.17,-135.66 240,-142.41 250.59,-142.23 248.17,-135.66"/>
<text text-anchor="middle" x="336" y="-114.4" font-family="Helvetica,sans-Serif" font-size="12.00"> ptr</text>
</g>
<!-- Node3 -->
<g id="node3" class="node">
<title>Node3</title>
<g id="a_node3"><a xlink:href="class_j_k_q_t_p_datastore.html" target="_top" xlink:title="This class manages data columns (with entries of type double ), used by JKQTPlotter/JKQTBasePlotter t...">
<polygon fill="none" stroke="black" points="174.5,-0.5 174.5,-21.5 285.5,-21.5 285.5,-0.5 174.5,-0.5"/>
<text text-anchor="middle" x="230" y="-7.9" font-family="Helvetica,sans-Serif" font-size="12.00">JKQTPDatastore</text>
</a>
</g>
</g>
<!-- Node3&#45;&gt;Node2 -->
<g id="edge2" class="edge">
<title>Node3&#45;&gt;Node2</title>
<path fill="none" stroke="#9a32cd" stroke-dasharray="5,2" d="M227.61,-31.8C226.24,-43.25 224.5,-57.93 223,-71 220.04,-96.72 216.72,-127.06 215.06,-142.27"/>
<polygon fill="#9a32cd" stroke="#9a32cd" points="231.12,-31.95 228.84,-21.6 224.17,-31.11 231.12,-31.95"/>
<text text-anchor="middle" x="253.5" y="-78.9" font-family="Helvetica,sans-Serif" font-size="12.00"> datastore</text>
</g>
<!-- Node4&#45;&gt;Node3 -->
<g id="edge3" class="edge">
<title>Node4&#45;&gt;Node3</title>
<path fill="none" stroke="#9a32cd" stroke-dasharray="5,2" d="M367.83,-67.62C334.27,-54.07 283.21,-33.47 253.57,-21.51"/>
<polygon fill="#9a32cd" stroke="#9a32cd" points="366.64,-70.91 377.22,-71.41 369.26,-64.42 366.64,-70.91"/>
<text text-anchor="middle" x="384" y="-43.4" font-family="Helvetica,sans-Serif" font-size="12.00"> m_invalidColumn</text>
</g>
<!-- Node5 -->
<g id="node5" class="node">
<title>Node5</title>
<g id="a_node5"><a xlink:title=" ">
<polygon fill="none" stroke="black" points="331,-142.5 331,-163.5 471,-163.5 471,-142.5 331,-142.5"/>
<text text-anchor="middle" x="401" y="-149.9" font-family="Helvetica,sans-Serif" font-size="12.00">std::unique_ptr&lt; T &gt;</text>
</a>
</g>
</g>
<!-- Node5&#45;&gt;Node4 -->
<g id="edge5" class="edge">
<title>Node5&#45;&gt;Node4</title>
<path fill="none" stroke="orange" stroke-dasharray="5,2" d="M401,-132.09C401,-119.08 401,-102.68 401,-92.51"/>
<polygon fill="orange" stroke="orange" points="397.5,-132.41 401,-142.41 404.5,-132.41 397.5,-132.41"/>
<text text-anchor="middle" x="457.5" y="-114.4" font-family="Helvetica,sans-Serif" font-size="12.00"> &lt; JKQTPColumn &gt;</text>
</g>
<!-- Node6 -->
<g id="node6" class="node">
<title>Node6</title>
<g id="a_node6"><a xlink:title=" ">
<polygon fill="none" stroke="black" points="386.5,-213.5 386.5,-234.5 415.5,-234.5 415.5,-213.5 386.5,-213.5"/>
<text text-anchor="middle" x="401" y="-220.9" font-family="Helvetica,sans-Serif" font-size="12.00">T</text>
</a>
</g>
</g>
<!-- Node6&#45;&gt;Node5 -->
<g id="edge6" class="edge">
<title>Node6&#45;&gt;Node5</title>
<path fill="none" stroke="#9a32cd" stroke-dasharray="5,2" d="M401,-203.09C401,-190.08 401,-173.68 401,-163.51"/>
<polygon fill="#9a32cd" stroke="#9a32cd" points="397.5,-203.41 401,-213.41 404.5,-203.41 397.5,-203.41"/>
<text text-anchor="middle" x="412" y="-185.4" font-family="Helvetica,sans-Serif" font-size="12.00"> ptr</text>
</g>
</g>
</svg>
