<?xml version="1.0" encoding="UTF-8" standalone="no"?>
<!DOCTYPE svg PUBLIC "-//W3C//DTD SVG 1.1//EN"
 "http://www.w3.org/Graphics/SVG/1.1/DTD/svg11.dtd">
<!-- Generated by graphviz version 2.43.0 (0)
 -->
<!-- Title: JKQTMathTextVerticalListNode Pages: 1 -->
<svg width="405pt" height="157pt"
 viewBox="0.00 0.00 404.50 157.00" xmlns="http://www.w3.org/2000/svg" xmlns:xlink="http://www.w3.org/1999/xlink">
<g id="graph0" class="graph" transform="scale(1 1) rotate(0) translate(4 153)">
<title>JKQTMathTextVerticalListNode</title>
<!-- Node1 -->
<g id="node1" class="node">
<title>Node1</title>
<g id="a_node1"><a xlink:title="subclass representing a list of nodes in the syntax tree, layed out vertically">
<polygon fill="#999999" stroke="#666666" points="196,-21 0,-21 0,0 196,0 196,-21"/>
<text text-anchor="middle" x="98" y="-7.4" font-family="Helvetica,sans-Serif" font-size="12.00">JKQTMathTextVerticalListNode</text>
</a>
</g>
</g>
<!-- Node2 -->
<g id="node2" class="node">
<title>Node2</title>
<g id="a_node2"><a xlink:href="class_j_k_q_t_math_text_multi_child_node.html" target="_top" xlink:title="subclass representing a node in the syntax tree, that has two children">
<polygon fill="white" stroke="#666666" points="192,-79 4,-79 4,-58 192,-58 192,-79"/>
<text text-anchor="middle" x="98" y="-65.4" font-family="Helvetica,sans-Serif" font-size="12.00">JKQTMathTextMultiChildNode</text>
</a>
</g>
</g>
<!-- Node2&#45;&gt;Node1 -->
<g id="edge1" class="edge">
<title>Node2&#45;&gt;Node1</title>
<path fill="none" stroke="#63b8ff" d="M98,-47.66C98,-38.66 98,-28.42 98,-21.14"/>
<polygon fill="#63b8ff" stroke="#63b8ff" points="94.5,-47.75 98,-57.75 101.5,-47.75 94.5,-47.75"/>
</g>
<!-- Node3 -->
<g id="node3" class="node">
<title>Node3</title>
<g id="a_node3"><a xlink:href="class_j_k_q_t_math_text_node.html" target="_top" xlink:title="subclass representing one node in the syntax tree">
<polygon fill="white" stroke="#666666" points="217.5,-149 86.5,-149 86.5,-128 217.5,-128 217.5,-149"/>
<text text-anchor="middle" x="152" y="-135.4" font-family="Helvetica,sans-Serif" font-size="12.00">JKQTMathTextNode</text>
</a>
</g>
</g>
<!-- Node3&#45;&gt;Node2 -->
<g id="edge2" class="edge">
<title>Node3&#45;&gt;Node2</title>
<path fill="none" stroke="#63b8ff" d="M138,-120.03C135.34,-116.7 132.58,-113.25 130,-110 121.63,-99.48 112.09,-87.38 105.61,-79.17"/>
<polygon fill="#63b8ff" stroke="#63b8ff" points="135.27,-122.22 144.25,-127.84 140.73,-117.84 135.27,-122.22"/>
</g>
<!-- Node3&#45;&gt;Node3 -->
<g id="edge6" class="edge">
<title>Node3&#45;&gt;Node3</title>
<path fill="none" stroke="#9a32cd" stroke-dasharray="5,2" d="M228.02,-142.94C232.69,-141.89 235.5,-140.41 235.5,-138.5 235.5,-135.45 228.31,-133.49 217.81,-132.63"/>
<polygon fill="#9a32cd" stroke="#9a32cd" points="227.23,-139.52 217.81,-144.37 228.2,-146.45 227.23,-139.52"/>
<text text-anchor="middle" x="273" y="-135.4" font-family="Helvetica,sans-Serif" font-size="12.00"> parentNode</text>
</g>
<!-- Node4 -->
<g id="node4" class="node">
<title>Node4</title>
<g id="a_node4"><a xlink:href="class_j_k_q_t_math_text.html" target="_top" xlink:title="this class parses a mathematical markup string and can then draw the contained text/equation onto a Q...">
<polygon fill="white" stroke="#666666" points="309.5,-79 210.5,-79 210.5,-58 309.5,-58 309.5,-79"/>
<text text-anchor="middle" x="260" y="-65.4" font-family="Helvetica,sans-Serif" font-size="12.00">JKQTMathText</text>
</a>
</g>
</g>
<!-- Node3&#45;&gt;Node4 -->
<g id="edge5" class="edge">
<title>Node3&#45;&gt;Node4</title>
<path fill="none" stroke="#9a32cd" stroke-dasharray="5,2" d="M145.33,-117.9C144.12,-110.66 144.45,-102.82 149,-97 153.05,-91.82 182.65,-84.64 210.26,-78.91"/>
<polygon fill="#9a32cd" stroke="#9a32cd" points="141.99,-118.95 147.88,-127.75 148.77,-117.2 141.99,-118.95"/>
<text text-anchor="middle" x="187.5" y="-100.4" font-family="Helvetica,sans-Serif" font-size="12.00"> parsedNode</text>
</g>
<!-- Node4&#45;&gt;Node3 -->
<g id="edge3" class="edge">
<title>Node4&#45;&gt;Node3</title>
<path fill="none" stroke="#9a32cd" stroke-dasharray="5,2" d="M249.73,-87.93C244.65,-95.65 237.91,-104.16 230,-110 219.26,-117.93 206.03,-123.73 193.53,-127.9"/>
<polygon fill="#9a32cd" stroke="#9a32cd" points="252.86,-89.51 255.07,-79.15 246.88,-85.88 252.86,-89.51"/>
<text text-anchor="middle" x="291.5" y="-100.4" font-family="Helvetica,sans-Serif" font-size="12.00"> parentMathText</text>
</g>
<!-- Node5 -->
<g id="node5" class="node">
<title>Node5</title>
<g id="a_node5"><a xlink:title=" ">
<polygon fill="white" stroke="#666666" points="396.5,-149 331.5,-149 331.5,-128 396.5,-128 396.5,-149"/>
<text text-anchor="middle" x="364" y="-135.4" font-family="Helvetica,sans-Serif" font-size="12.00">QObject</text>
</a>
</g>
</g>
<!-- Node5&#45;&gt;Node4 -->
<g id="edge4" class="edge">
<title>Node5&#45;&gt;Node4</title>
<path fill="none" stroke="#63b8ff" d="M361.14,-118.01C359.14,-110.57 355.75,-102.55 350,-97 339.06,-86.45 324.19,-79.94 309.69,-75.92"/>
<polygon fill="#63b8ff" stroke="#63b8ff" points="357.71,-118.72 363.14,-127.83 364.57,-117.33 357.71,-118.72"/>
</g>
</g>
</svg>
