<?xml version="1.0" encoding="UTF-8" standalone="no"?>
<!DOCTYPE svg PUBLIC "-//W3C//DTD SVG 1.1//EN"
 "http://www.w3.org/Graphics/SVG/1.1/DTD/svg11.dtd">
<!-- Generated by graphviz version 2.43.0 (0)
 -->
<!-- Title: JKQTPGeoRectangle Pages: 1 -->
<svg width="449pt" height="494pt"
 viewBox="0.00 0.00 449.00 494.00" xmlns="http://www.w3.org/2000/svg" xmlns:xlink="http://www.w3.org/1999/xlink">
<g id="graph0" class="graph" transform="scale(1 1) rotate(0) translate(4 490)">
<title>JKQTPGeoRectangle</title>
<!-- Node1 -->
<g id="node1" class="node">
<title>Node1</title>
<g id="a_node1"><a xlink:title="This JKQTPGeometricPlotElement is used to draw a rectangle.">
<polygon fill="#bfbfbf" stroke="black" points="208,-174.5 208,-195.5 344,-195.5 344,-174.5 208,-174.5"/>
<text text-anchor="middle" x="276" y="-181.9" font-family="Helvetica,sans-Serif" font-size="12.00">JKQTPGeoRectangle</text>
</a>
</g>
</g>
<!-- Node9 -->
<g id="node9" class="node">
<title>Node9</title>
<g id="a_node9"><a xlink:href="class_j_k_q_t_p_geo_ellipse.html" target="_top" xlink:title="This JKQTPGeometricPlotElement is used to draw an ellipse.">
<polygon fill="none" stroke="black" points="219,-116.5 219,-137.5 333,-137.5 333,-116.5 219,-116.5"/>
<text text-anchor="middle" x="276" y="-123.9" font-family="Helvetica,sans-Serif" font-size="12.00">JKQTPGeoEllipse</text>
</a>
</g>
</g>
<!-- Node1&#45;&gt;Node9 -->
<g id="edge8" class="edge">
<title>Node1&#45;&gt;Node9</title>
<path fill="none" stroke="midnightblue" d="M276,-164.16C276,-155.16 276,-144.92 276,-137.64"/>
<polygon fill="midnightblue" stroke="midnightblue" points="272.5,-164.25 276,-174.25 279.5,-164.25 272.5,-164.25"/>
</g>
<!-- Node2 -->
<g id="node2" class="node">
<title>Node2</title>
<g id="a_node2"><a xlink:href="class_j_k_q_t_p_geo_base_filled.html" target="_top" xlink:title="This JKQTPGeometricPlotElement is used as base class for geometric drawing elements that only consist...">
<polygon fill="none" stroke="black" points="208,-232.5 208,-253.5 344,-253.5 344,-232.5 208,-232.5"/>
<text text-anchor="middle" x="276" y="-239.9" font-family="Helvetica,sans-Serif" font-size="12.00">JKQTPGeoBaseFilled</text>
</a>
</g>
</g>
<!-- Node2&#45;&gt;Node1 -->
<g id="edge1" class="edge">
<title>Node2&#45;&gt;Node1</title>
<path fill="none" stroke="midnightblue" d="M276,-222.16C276,-213.16 276,-202.92 276,-195.64"/>
<polygon fill="midnightblue" stroke="midnightblue" points="272.5,-222.25 276,-232.25 279.5,-222.25 272.5,-222.25"/>
</g>
<!-- Node3 -->
<g id="node3" class="node">
<title>Node3</title>
<g id="a_node3"><a xlink:href="class_j_k_q_t_p_geo_base_line.html" target="_top" xlink:title="This JKQTPGeometricPlotElement is used as base class for geometric drawing elements that only consist...">
<polygon fill="none" stroke="black" points="127.5,-290.5 127.5,-311.5 258.5,-311.5 258.5,-290.5 127.5,-290.5"/>
<text text-anchor="middle" x="193" y="-297.9" font-family="Helvetica,sans-Serif" font-size="12.00">JKQTPGeoBaseLine</text>
</a>
</g>
</g>
<!-- Node3&#45;&gt;Node2 -->
<g id="edge2" class="edge">
<title>Node3&#45;&gt;Node2</title>
<path fill="none" stroke="midnightblue" d="M215.99,-284.49C230.63,-274.61 249.14,-262.12 261.71,-253.64"/>
<polygon fill="midnightblue" stroke="midnightblue" points="213.79,-281.75 207.46,-290.25 217.7,-287.55 213.79,-281.75"/>
</g>
<!-- Node4 -->
<g id="node4" class="node">
<title>Node4</title>
<g id="a_node4"><a xlink:href="class_j_k_q_t_p_geometric_plot_element.html" target="_top" xlink:title="this is the virtual base class of all JKQTPPlotElement&#39;s in a JKQTPlotter plot that represent geometr...">
<polygon fill="none" stroke="black" points="0,-348.5 0,-369.5 188,-369.5 188,-348.5 0,-348.5"/>
<text text-anchor="middle" x="94" y="-355.9" font-family="Helvetica,sans-Serif" font-size="12.00">JKQTPGeometricPlotElement</text>
</a>
</g>
</g>
<!-- Node4&#45;&gt;Node3 -->
<g id="edge3" class="edge">
<title>Node4&#45;&gt;Node3</title>
<path fill="none" stroke="midnightblue" d="M120.44,-343.05C138.05,-333.08 160.68,-320.28 175.95,-311.64"/>
<polygon fill="midnightblue" stroke="midnightblue" points="118.23,-340.28 111.24,-348.25 121.67,-346.37 118.23,-340.28"/>
</g>
<!-- Node5 -->
<g id="node5" class="node">
<title>Node5</title>
<g id="a_node5"><a xlink:href="class_j_k_q_t_p_plot_element.html" target="_top" xlink:title="this virtual base class of every element, which is part of a JKQTPlotter plot and may appear in its k...">
<polygon fill="none" stroke="black" points="31.5,-406.5 31.5,-427.5 156.5,-427.5 156.5,-406.5 31.5,-406.5"/>
<text text-anchor="middle" x="94" y="-413.9" font-family="Helvetica,sans-Serif" font-size="12.00">JKQTPPlotElement</text>
</a>
</g>
</g>
<!-- Node5&#45;&gt;Node4 -->
<g id="edge4" class="edge">
<title>Node5&#45;&gt;Node4</title>
<path fill="none" stroke="midnightblue" d="M94,-396.16C94,-387.16 94,-376.92 94,-369.64"/>
<polygon fill="midnightblue" stroke="midnightblue" points="90.5,-396.25 94,-406.25 97.5,-396.25 90.5,-396.25"/>
</g>
<!-- Node6 -->
<g id="node6" class="node">
<title>Node6</title>
<g id="a_node6"><a xlink:title=" ">
<polygon fill="none" stroke="black" points="61.5,-464.5 61.5,-485.5 126.5,-485.5 126.5,-464.5 61.5,-464.5"/>
<text text-anchor="middle" x="94" y="-471.9" font-family="Helvetica,sans-Serif" font-size="12.00">QObject</text>
</a>
</g>
</g>
<!-- Node6&#45;&gt;Node5 -->
<g id="edge5" class="edge">
<title>Node6&#45;&gt;Node5</title>
<path fill="none" stroke="midnightblue" d="M94,-454.16C94,-445.16 94,-434.92 94,-427.64"/>
<polygon fill="midnightblue" stroke="midnightblue" points="90.5,-454.25 94,-464.25 97.5,-454.25 90.5,-454.25"/>
</g>
<!-- Node7 -->
<g id="node7" class="node">
<title>Node7</title>
<g id="a_node7"><a xlink:href="class_j_k_q_t_p_graph_line_style_mixin.html" target="_top" xlink:title="This Mix&#45;In class provides setter/getter methods, storage and other facilities for the graph line sty...">
<polygon fill="none" stroke="black" points="206,-348.5 206,-369.5 380,-369.5 380,-348.5 206,-348.5"/>
<text text-anchor="middle" x="293" y="-355.9" font-family="Helvetica,sans-Serif" font-size="12.00">JKQTPGraphLineStyleMixin</text>
</a>
</g>
</g>
<!-- Node7&#45;&gt;Node3 -->
<g id="edge6" class="edge">
<title>Node7&#45;&gt;Node3</title>
<path fill="none" stroke="midnightblue" d="M266.79,-343.32C248.93,-333.32 225.78,-320.36 210.22,-311.64"/>
<polygon fill="midnightblue" stroke="midnightblue" points="265.15,-346.41 275.58,-348.25 268.57,-340.31 265.15,-346.41"/>
</g>
<!-- Node8 -->
<g id="node8" class="node">
<title>Node8</title>
<g id="a_node8"><a xlink:href="class_j_k_q_t_p_graph_fill_style_mixin.html" target="_top" xlink:title="This Mix&#45;In class provides setter/getter methods, storage and other facilities for the graph filling ...">
<polygon fill="none" stroke="black" points="277,-290.5 277,-311.5 441,-311.5 441,-290.5 277,-290.5"/>
<text text-anchor="middle" x="359" y="-297.9" font-family="Helvetica,sans-Serif" font-size="12.00">JKQTPGraphFillStyleMixin</text>
</a>
</g>
</g>
<!-- Node8&#45;&gt;Node2 -->
<g id="edge7" class="edge">
<title>Node8&#45;&gt;Node2</title>
<path fill="none" stroke="midnightblue" d="M336.01,-284.49C321.37,-274.61 302.86,-262.12 290.29,-253.64"/>
<polygon fill="midnightblue" stroke="midnightblue" points="334.3,-287.55 344.54,-290.25 338.21,-281.75 334.3,-287.55"/>
</g>
<!-- Node10 -->
<g id="node10" class="node">
<title>Node10</title>
<g id="a_node10"><a xlink:href="class_j_k_q_t_p_geo_pie.html" target="_top" xlink:title="This JKQTPGeometricPlotElement is used to draw a pie.">
<polygon fill="none" stroke="black" points="229,-58.5 229,-79.5 323,-79.5 323,-58.5 229,-58.5"/>
<text text-anchor="middle" x="276" y="-65.9" font-family="Helvetica,sans-Serif" font-size="12.00">JKQTPGeoPie</text>
</a>
</g>
</g>
<!-- Node9&#45;&gt;Node10 -->
<g id="edge9" class="edge">
<title>Node9&#45;&gt;Node10</title>
<path fill="none" stroke="midnightblue" d="M276,-106.16C276,-97.16 276,-86.92 276,-79.64"/>
<polygon fill="midnightblue" stroke="midnightblue" points="272.5,-106.25 276,-116.25 279.5,-106.25 272.5,-106.25"/>
</g>
<!-- Node11 -->
<g id="node11" class="node">
<title>Node11</title>
<g id="a_node11"><a xlink:href="class_j_k_q_t_p_geo_chord.html" target="_top" xlink:title="This JKQTPGeometricPlotElement is used to draw a chord.">
<polygon fill="none" stroke="black" points="220,-0.5 220,-21.5 332,-21.5 332,-0.5 220,-0.5"/>
<text text-anchor="middle" x="276" y="-7.9" font-family="Helvetica,sans-Serif" font-size="12.00">JKQTPGeoChord</text>
</a>
</g>
</g>
<!-- Node10&#45;&gt;Node11 -->
<g id="edge10" class="edge">
<title>Node10&#45;&gt;Node11</title>
<path fill="none" stroke="midnightblue" d="M276,-48.16C276,-39.16 276,-28.92 276,-21.64"/>
<polygon fill="midnightblue" stroke="midnightblue" points="272.5,-48.25 276,-58.25 279.5,-48.25 272.5,-48.25"/>
</g>
</g>
</svg>
