<?xml version="1.0" encoding="UTF-8" standalone="no"?>
<!DOCTYPE svg PUBLIC "-//W3C//DTD SVG 1.1//EN"
 "http://www.w3.org/Graphics/SVG/1.1/DTD/svg11.dtd">
<!-- Generated by graphviz version 2.43.0 (0)
 -->
<!-- Title: JKQTMathTextMatrixNode Pages: 1 -->
<svg width="401pt" height="157pt"
 viewBox="0.00 0.00 400.50 157.00" xmlns="http://www.w3.org/2000/svg" xmlns:xlink="http://www.w3.org/1999/xlink">
<g id="graph0" class="graph" transform="scale(1 1) rotate(0) translate(4 153)">
<title>JKQTMathTextMatrixNode</title>
<!-- Node1 -->
<g id="node1" class="node">
<title>Node1</title>
<g id="a_node1"><a xlink:title="subclass representing a \begin{matrix} , \begin{tabular} , \begin{array} , ... node">
<polygon fill="#999999" stroke="#666666" points="178,-21 10,-21 10,0 178,0 178,-21"/>
<text text-anchor="middle" x="94" y="-7.4" font-family="Helvetica,sans-Serif" font-size="12.00">JKQTMathTextMatrixNode</text>
</a>
</g>
</g>
<!-- Node2 -->
<g id="node2" class="node">
<title>Node2</title>
<g id="a_node2"><a xlink:href="class_j_k_q_t_math_text_multi_child_node.html" target="_top" xlink:title="subclass representing a node in the syntax tree, that has two children">
<polygon fill="white" stroke="#666666" points="188,-79 0,-79 0,-58 188,-58 188,-79"/>
<text text-anchor="middle" x="94" y="-65.4" font-family="Helvetica,sans-Serif" font-size="12.00">JKQTMathTextMultiChildNode</text>
</a>
</g>
</g>
<!-- Node2&#45;&gt;Node1 -->
<g id="edge1" class="edge">
<title>Node2&#45;&gt;Node1</title>
<path fill="none" stroke="#63b8ff" d="M94,-47.66C94,-38.66 94,-28.42 94,-21.14"/>
<polygon fill="#63b8ff" stroke="#63b8ff" points="90.5,-47.75 94,-57.75 97.5,-47.75 90.5,-47.75"/>
</g>
<!-- Node3 -->
<g id="node3" class="node">
<title>Node3</title>
<g id="a_node3"><a xlink:href="class_j_k_q_t_math_text_node.html" target="_top" xlink:title="subclass representing one node in the syntax tree">
<polygon fill="white" stroke="#666666" points="213.5,-149 82.5,-149 82.5,-128 213.5,-128 213.5,-149"/>
<text text-anchor="middle" x="148" y="-135.4" font-family="Helvetica,sans-Serif" font-size="12.00">JKQTMathTextNode</text>
</a>
</g>
</g>
<!-- Node3&#45;&gt;Node2 -->
<g id="edge2" class="edge">
<title>Node3&#45;&gt;Node2</title>
<path fill="none" stroke="#63b8ff" d="M134,-120.03C131.34,-116.7 128.58,-113.25 126,-110 117.63,-99.48 108.09,-87.38 101.61,-79.17"/>
<polygon fill="#63b8ff" stroke="#63b8ff" points="131.27,-122.22 140.25,-127.84 136.73,-117.84 131.27,-122.22"/>
</g>
<!-- Node3&#45;&gt;Node3 -->
<g id="edge6" class="edge">
<title>Node3&#45;&gt;Node3</title>
<path fill="none" stroke="#9a32cd" stroke-dasharray="5,2" d="M224.02,-142.94C228.69,-141.89 231.5,-140.41 231.5,-138.5 231.5,-135.45 224.31,-133.49 213.81,-132.63"/>
<polygon fill="#9a32cd" stroke="#9a32cd" points="223.23,-139.52 213.81,-144.37 224.2,-146.45 223.23,-139.52"/>
<text text-anchor="middle" x="269" y="-135.4" font-family="Helvetica,sans-Serif" font-size="12.00"> parentNode</text>
</g>
<!-- Node4 -->
<g id="node4" class="node">
<title>Node4</title>
<g id="a_node4"><a xlink:href="class_j_k_q_t_math_text.html" target="_top" xlink:title="this class parses a mathematical markup string and can then draw the contained text/equation onto a Q...">
<polygon fill="white" stroke="#666666" points="305.5,-79 206.5,-79 206.5,-58 305.5,-58 305.5,-79"/>
<text text-anchor="middle" x="256" y="-65.4" font-family="Helvetica,sans-Serif" font-size="12.00">JKQTMathText</text>
</a>
</g>
</g>
<!-- Node3&#45;&gt;Node4 -->
<g id="edge5" class="edge">
<title>Node3&#45;&gt;Node4</title>
<path fill="none" stroke="#9a32cd" stroke-dasharray="5,2" d="M141.33,-117.9C140.12,-110.66 140.45,-102.82 145,-97 149.05,-91.82 178.65,-84.64 206.26,-78.91"/>
<polygon fill="#9a32cd" stroke="#9a32cd" points="137.99,-118.95 143.88,-127.75 144.77,-117.2 137.99,-118.95"/>
<text text-anchor="middle" x="183.5" y="-100.4" font-family="Helvetica,sans-Serif" font-size="12.00"> parsedNode</text>
</g>
<!-- Node4&#45;&gt;Node3 -->
<g id="edge3" class="edge">
<title>Node4&#45;&gt;Node3</title>
<path fill="none" stroke="#9a32cd" stroke-dasharray="5,2" d="M245.73,-87.93C240.65,-95.65 233.91,-104.16 226,-110 215.26,-117.93 202.03,-123.73 189.53,-127.9"/>
<polygon fill="#9a32cd" stroke="#9a32cd" points="248.86,-89.51 251.07,-79.15 242.88,-85.88 248.86,-89.51"/>
<text text-anchor="middle" x="287.5" y="-100.4" font-family="Helvetica,sans-Serif" font-size="12.00"> parentMathText</text>
</g>
<!-- Node5 -->
<g id="node5" class="node">
<title>Node5</title>
<g id="a_node5"><a xlink:title=" ">
<polygon fill="white" stroke="#666666" points="392.5,-149 327.5,-149 327.5,-128 392.5,-128 392.5,-149"/>
<text text-anchor="middle" x="360" y="-135.4" font-family="Helvetica,sans-Serif" font-size="12.00">QObject</text>
</a>
</g>
</g>
<!-- Node5&#45;&gt;Node4 -->
<g id="edge4" class="edge">
<title>Node5&#45;&gt;Node4</title>
<path fill="none" stroke="#63b8ff" d="M357.14,-118.01C355.14,-110.57 351.75,-102.55 346,-97 335.06,-86.45 320.19,-79.94 305.69,-75.92"/>
<polygon fill="#63b8ff" stroke="#63b8ff" points="353.71,-118.72 359.14,-127.83 360.57,-117.33 353.71,-118.72"/>
</g>
</g>
</svg>
