<?xml version="1.0" encoding="UTF-8" standalone="no"?>
<!DOCTYPE svg PUBLIC "-//W3C//DTD SVG 1.1//EN"
 "http://www.w3.org/Graphics/SVG/1.1/DTD/svg11.dtd">
<!-- Generated by graphviz version 2.43.0 (0)
 -->
<!-- Title: JKQTPGeoBaseFilled Pages: 1 -->
<svg width="449pt" height="485pt"
 viewBox="0.00 0.00 449.00 485.00" xmlns="http://www.w3.org/2000/svg" xmlns:xlink="http://www.w3.org/1999/xlink">
<g id="graph0" class="graph" transform="scale(1 1) rotate(0) translate(4 481)">
<title>JKQTPGeoBaseFilled</title>
<!-- Node1 -->
<g id="node1" class="node">
<title>Node1</title>
<g id="a_node1"><a xlink:title="This JKQTPGeometricPlotElement is used as base class for geometric drawing elements that only consist...">
<polygon fill="#999999" stroke="#666666" points="344,-249 208,-249 208,-228 344,-228 344,-249"/>
<text text-anchor="middle" x="276" y="-235.4" font-family="Helvetica,sans-Serif" font-size="12.00">JKQTPGeoBaseFilled</text>
</a>
</g>
</g>
<!-- Node8 -->
<g id="node8" class="node">
<title>Node8</title>
<g id="a_node8"><a xlink:href="class_j_k_q_t_p_geo_polygon.html" target="_top" xlink:title="This JKQTPGeometricPlotElement is used to draw a polygon.">
<polygon fill="white" stroke="#666666" points="263.5,-192 140.5,-192 140.5,-171 263.5,-171 263.5,-192"/>
<text text-anchor="middle" x="202" y="-178.4" font-family="Helvetica,sans-Serif" font-size="12.00">JKQTPGeoPolygon</text>
</a>
</g>
</g>
<!-- Node1&#45;&gt;Node8 -->
<g id="edge7" class="edge">
<title>Node1&#45;&gt;Node8</title>
<path fill="none" stroke="#63b8ff" d="M254.87,-221.8C242.11,-212.31 226.25,-200.52 215.24,-192.34"/>
<polygon fill="#63b8ff" stroke="#63b8ff" points="253,-224.76 263.11,-227.92 257.17,-219.15 253,-224.76"/>
</g>
<!-- Node9 -->
<g id="node9" class="node">
<title>Node9</title>
<g id="a_node9"><a xlink:href="class_j_k_q_t_p_geo_rectangle.html" target="_top" xlink:title="This JKQTPGeometricPlotElement is used to draw a rectangle.">
<polygon fill="white" stroke="#666666" points="418,-192 282,-192 282,-171 418,-171 418,-192"/>
<text text-anchor="middle" x="350" y="-178.4" font-family="Helvetica,sans-Serif" font-size="12.00">JKQTPGeoRectangle</text>
</a>
</g>
</g>
<!-- Node1&#45;&gt;Node9 -->
<g id="edge8" class="edge">
<title>Node1&#45;&gt;Node9</title>
<path fill="none" stroke="#63b8ff" d="M297.13,-221.8C309.89,-212.31 325.75,-200.52 336.76,-192.34"/>
<polygon fill="#63b8ff" stroke="#63b8ff" points="294.83,-219.15 288.89,-227.92 299,-224.76 294.83,-219.15"/>
</g>
<!-- Node2 -->
<g id="node2" class="node">
<title>Node2</title>
<g id="a_node2"><a xlink:href="class_j_k_q_t_p_geo_base_line.html" target="_top" xlink:title="This JKQTPGeometricPlotElement is used as base class for geometric drawing elements that only consist...">
<polygon fill="white" stroke="#666666" points="258.5,-306 127.5,-306 127.5,-285 258.5,-285 258.5,-306"/>
<text text-anchor="middle" x="193" y="-292.4" font-family="Helvetica,sans-Serif" font-size="12.00">JKQTPGeoBaseLine</text>
</a>
</g>
</g>
<!-- Node2&#45;&gt;Node1 -->
<g id="edge1" class="edge">
<title>Node2&#45;&gt;Node1</title>
<path fill="none" stroke="#63b8ff" d="M215.93,-279.3C230.48,-269.67 248.86,-257.49 261.43,-249.16"/>
<polygon fill="#63b8ff" stroke="#63b8ff" points="213.86,-276.48 207.46,-284.92 217.73,-282.31 213.86,-276.48"/>
</g>
<!-- Node3 -->
<g id="node3" class="node">
<title>Node3</title>
<g id="a_node3"><a xlink:href="class_j_k_q_t_p_geometric_plot_element.html" target="_top" xlink:title="this is the virtual base class of all JKQTPPlotElement&#39;s in a JKQTPlotter plot that represent geometr...">
<polygon fill="white" stroke="#666666" points="188,-363 0,-363 0,-342 188,-342 188,-363"/>
<text text-anchor="middle" x="94" y="-349.4" font-family="Helvetica,sans-Serif" font-size="12.00">JKQTPGeometricPlotElement</text>
</a>
</g>
</g>
<!-- Node3&#45;&gt;Node2 -->
<g id="edge2" class="edge">
<title>Node3&#45;&gt;Node2</title>
<path fill="none" stroke="#63b8ff" d="M120.38,-336.85C137.87,-327.13 160.34,-314.64 175.62,-306.16"/>
<polygon fill="#63b8ff" stroke="#63b8ff" points="118.29,-334 111.24,-341.92 121.69,-340.12 118.29,-334"/>
</g>
<!-- Node4 -->
<g id="node4" class="node">
<title>Node4</title>
<g id="a_node4"><a xlink:href="class_j_k_q_t_p_plot_element.html" target="_top" xlink:title="this virtual base class of every element, which is part of a JKQTPlotter plot and may appear in its k...">
<polygon fill="white" stroke="#666666" points="156.5,-420 31.5,-420 31.5,-399 156.5,-399 156.5,-420"/>
<text text-anchor="middle" x="94" y="-406.4" font-family="Helvetica,sans-Serif" font-size="12.00">JKQTPPlotElement</text>
</a>
</g>
</g>
<!-- Node4&#45;&gt;Node3 -->
<g id="edge3" class="edge">
<title>Node4&#45;&gt;Node3</title>
<path fill="none" stroke="#63b8ff" d="M94,-388.86C94,-380.2 94,-370.42 94,-363.34"/>
<polygon fill="#63b8ff" stroke="#63b8ff" points="90.5,-388.92 94,-398.92 97.5,-388.92 90.5,-388.92"/>
</g>
<!-- Node5 -->
<g id="node5" class="node">
<title>Node5</title>
<g id="a_node5"><a xlink:title=" ">
<polygon fill="white" stroke="#666666" points="126.5,-477 61.5,-477 61.5,-456 126.5,-456 126.5,-477"/>
<text text-anchor="middle" x="94" y="-463.4" font-family="Helvetica,sans-Serif" font-size="12.00">QObject</text>
</a>
</g>
</g>
<!-- Node5&#45;&gt;Node4 -->
<g id="edge4" class="edge">
<title>Node5&#45;&gt;Node4</title>
<path fill="none" stroke="#63b8ff" d="M94,-445.86C94,-437.2 94,-427.42 94,-420.34"/>
<polygon fill="#63b8ff" stroke="#63b8ff" points="90.5,-445.92 94,-455.92 97.5,-445.92 90.5,-445.92"/>
</g>
<!-- Node6 -->
<g id="node6" class="node">
<title>Node6</title>
<g id="a_node6"><a xlink:href="class_j_k_q_t_p_graph_line_style_mixin.html" target="_top" xlink:title="This Mix&#45;In class provides setter/getter methods, storage and other facilities for the graph line sty...">
<polygon fill="white" stroke="#666666" points="380,-363 206,-363 206,-342 380,-342 380,-363"/>
<text text-anchor="middle" x="293" y="-349.4" font-family="Helvetica,sans-Serif" font-size="12.00">JKQTPGraphLineStyleMixin</text>
</a>
</g>
</g>
<!-- Node6&#45;&gt;Node2 -->
<g id="edge5" class="edge">
<title>Node6&#45;&gt;Node2</title>
<path fill="none" stroke="#63b8ff" d="M266.36,-336.85C248.68,-327.13 225.99,-314.64 210.55,-306.16"/>
<polygon fill="#63b8ff" stroke="#63b8ff" points="265.13,-340.17 275.58,-341.92 268.51,-334.03 265.13,-340.17"/>
</g>
<!-- Node7 -->
<g id="node7" class="node">
<title>Node7</title>
<g id="a_node7"><a xlink:href="class_j_k_q_t_p_graph_fill_style_mixin.html" target="_top" xlink:title="This Mix&#45;In class provides setter/getter methods, storage and other facilities for the graph filling ...">
<polygon fill="white" stroke="#666666" points="441,-306 277,-306 277,-285 441,-285 441,-306"/>
<text text-anchor="middle" x="359" y="-292.4" font-family="Helvetica,sans-Serif" font-size="12.00">JKQTPGraphFillStyleMixin</text>
</a>
</g>
</g>
<!-- Node7&#45;&gt;Node1 -->
<g id="edge6" class="edge">
<title>Node7&#45;&gt;Node1</title>
<path fill="none" stroke="#63b8ff" d="M336.07,-279.3C321.52,-269.67 303.14,-257.49 290.57,-249.16"/>
<polygon fill="#63b8ff" stroke="#63b8ff" points="334.27,-282.31 344.54,-284.92 338.14,-276.48 334.27,-282.31"/>
</g>
<!-- Node10 -->
<g id="node10" class="node">
<title>Node10</title>
<g id="a_node10"><a xlink:href="class_j_k_q_t_p_geo_ellipse.html" target="_top" xlink:title="This JKQTPGeometricPlotElement is used to draw an ellipse.">
<polygon fill="white" stroke="#666666" points="407,-135 293,-135 293,-114 407,-114 407,-135"/>
<text text-anchor="middle" x="350" y="-121.4" font-family="Helvetica,sans-Serif" font-size="12.00">JKQTPGeoEllipse</text>
</a>
</g>
</g>
<!-- Node9&#45;&gt;Node10 -->
<g id="edge9" class="edge">
<title>Node9&#45;&gt;Node10</title>
<path fill="none" stroke="#63b8ff" d="M350,-160.86C350,-152.2 350,-142.42 350,-135.34"/>
<polygon fill="#63b8ff" stroke="#63b8ff" points="346.5,-160.92 350,-170.92 353.5,-160.92 346.5,-160.92"/>
</g>
<!-- Node11 -->
<g id="node11" class="node">
<title>Node11</title>
<g id="a_node11"><a xlink:href="class_j_k_q_t_p_geo_pie.html" target="_top" xlink:title="This JKQTPGeometricPlotElement is used to draw a pie.">
<polygon fill="white" stroke="#666666" points="397,-78 303,-78 303,-57 397,-57 397,-78"/>
<text text-anchor="middle" x="350" y="-64.4" font-family="Helvetica,sans-Serif" font-size="12.00">JKQTPGeoPie</text>
</a>
</g>
</g>
<!-- Node10&#45;&gt;Node11 -->
<g id="edge10" class="edge">
<title>Node10&#45;&gt;Node11</title>
<path fill="none" stroke="#63b8ff" d="M350,-103.86C350,-95.2 350,-85.42 350,-78.34"/>
<polygon fill="#63b8ff" stroke="#63b8ff" points="346.5,-103.92 350,-113.92 353.5,-103.92 346.5,-103.92"/>
</g>
<!-- Node12 -->
<g id="node12" class="node">
<title>Node12</title>
<g id="a_node12"><a xlink:href="class_j_k_q_t_p_geo_chord.html" target="_top" xlink:title="This JKQTPGeometricPlotElement is used to draw a chord.">
<polygon fill="white" stroke="#666666" points="406,-21 294,-21 294,0 406,0 406,-21"/>
<text text-anchor="middle" x="350" y="-7.4" font-family="Helvetica,sans-Serif" font-size="12.00">JKQTPGeoChord</text>
</a>
</g>
</g>
<!-- Node11&#45;&gt;Node12 -->
<g id="edge11" class="edge">
<title>Node11&#45;&gt;Node12</title>
<path fill="none" stroke="#63b8ff" d="M350,-46.86C350,-38.2 350,-28.42 350,-21.34"/>
<polygon fill="#63b8ff" stroke="#63b8ff" points="346.5,-46.92 350,-56.92 353.5,-46.92 346.5,-46.92"/>
</g>
</g>
</svg>
