<?xml version="1.0" encoding="UTF-8" standalone="no"?>
<!DOCTYPE svg PUBLIC "-//W3C//DTD SVG 1.1//EN"
 "http://www.w3.org/Graphics/SVG/1.1/DTD/svg11.dtd">
<!-- Generated by graphviz version 2.43.0 (0)
 -->
<!-- Title: JKQTMathTextDualChildNode Pages: 1 -->
<svg width="409pt" height="114pt"
 viewBox="0.00 0.00 408.50 114.00" xmlns="http://www.w3.org/2000/svg" xmlns:xlink="http://www.w3.org/1999/xlink">
<g id="graph0" class="graph" transform="scale(1 1) rotate(0) translate(4 110)">
<title>JKQTMathTextDualChildNode</title>
<!-- Node1 -->
<g id="node1" class="node">
<title>Node1</title>
<g id="a_node1"><a xlink:title="subclass representing a node in the syntax tree, that has two children">
<polygon fill="#bfbfbf" stroke="black" points="0,-0.5 0,-21.5 179,-21.5 179,-0.5 0,-0.5"/>
<text text-anchor="middle" x="89.5" y="-7.9" font-family="FreeSans" font-size="12.00">JKQTMathTextDualChildNode</text>
</a>
</g>
</g>
<!-- Node2 -->
<g id="node2" class="node">
<title>Node2</title>
<g id="a_node2"><a xlink:href="class_j_k_q_t_math_text_node.html" target="_top" xlink:title="subclass representing one node in the syntax tree">
<polygon fill="none" stroke="black" points="70.5,-84.5 70.5,-105.5 198.5,-105.5 198.5,-84.5 70.5,-84.5"/>
<text text-anchor="middle" x="134.5" y="-91.9" font-family="FreeSans" font-size="12.00">JKQTMathTextNode</text>
</a>
</g>
</g>
<!-- Node2&#45;&gt;Node1 -->
<g id="edge1" class="edge">
<title>Node2&#45;&gt;Node1</title>
<path fill="none" stroke="midnightblue" d="M98.75,-79.09C93.85,-75.52 89.49,-71.2 86.5,-66 78.55,-52.16 82.48,-32.89 86.02,-21.5"/>
<polygon fill="midnightblue" stroke="midnightblue" points="97,-82.12 107.35,-84.4 100.68,-76.17 97,-82.12"/>
</g>
<!-- Node2&#45;&gt;Node1 -->
<g id="edge6" class="edge">
<title>Node2&#45;&gt;Node1</title>
<path fill="none" stroke="#9a32cd" stroke-dasharray="5,2" d="M115.33,-77.38C112.06,-73.87 108.93,-70.01 106.5,-66 97.94,-51.88 93.29,-33.04 91.11,-21.75"/>
<polygon fill="#9a32cd" stroke="#9a32cd" points="112.93,-79.93 122.53,-84.41 117.82,-74.92 112.93,-79.93"/>
<text text-anchor="middle" x="124" y="-56.4" font-family="FreeSans" font-size="12.00"> child1</text>
<text text-anchor="middle" x="124" y="-43.4" font-family="FreeSans" font-size="12.00">child2</text>
</g>
<!-- Node2&#45;&gt;Node2 -->
<g id="edge5" class="edge">
<title>Node2&#45;&gt;Node2</title>
<path fill="none" stroke="#9a32cd" stroke-dasharray="5,2" d="M208.65,-100.62C213.54,-99.32 216.5,-97.44 216.5,-95 216.5,-91.19 209.29,-88.76 198.79,-87.71"/>
<polygon fill="#9a32cd" stroke="#9a32cd" points="208.07,-97.17 198.79,-102.29 209.23,-104.08 208.07,-97.17"/>
<text text-anchor="middle" x="250" y="-91.9" font-family="FreeSans" font-size="12.00"> parentNode</text>
</g>
<!-- Node3 -->
<g id="node3" class="node">
<title>Node3</title>
<g id="a_node3"><a xlink:href="class_j_k_q_t_math_text.html" target="_top" xlink:title="this class parses a LaTeX string and can then draw the contained text/equation onto a QPainter">
<polygon fill="none" stroke="black" points="217.5,-0.5 217.5,-21.5 315.5,-21.5 315.5,-0.5 217.5,-0.5"/>
<text text-anchor="middle" x="266.5" y="-7.9" font-family="FreeSans" font-size="12.00">JKQTMathText</text>
</a>
</g>
</g>
<!-- Node2&#45;&gt;Node3 -->
<g id="edge4" class="edge">
<title>Node2&#45;&gt;Node3</title>
<path fill="none" stroke="#9a32cd" stroke-dasharray="5,2" d="M139.33,-74.74C143.21,-63.09 149.81,-48.83 160.5,-40 176.43,-26.85 197.89,-19.82 217.34,-16.08"/>
<polygon fill="#9a32cd" stroke="#9a32cd" points="135.93,-73.9 136.5,-84.48 142.65,-75.85 135.93,-73.9"/>
<text text-anchor="middle" x="200.5" y="-56.4" font-family="FreeSans" font-size="12.00"> parsedNode</text>
<text text-anchor="middle" x="200.5" y="-43.4" font-family="FreeSans" font-size="12.00">unparsedNode</text>
</g>
<!-- Node3&#45;&gt;Node2 -->
<g id="edge2" class="edge">
<title>Node3&#45;&gt;Node2</title>
<path fill="none" stroke="#9a32cd" stroke-dasharray="5,2" d="M263.1,-31.59C260.1,-43.17 254.57,-57.23 244.5,-66 231.72,-77.13 215.11,-83.94 198.69,-88.08"/>
<polygon fill="#9a32cd" stroke="#9a32cd" points="266.59,-32.02 265.26,-21.51 259.74,-30.55 266.59,-32.02"/>
<text text-anchor="middle" x="304.5" y="-49.9" font-family="FreeSans" font-size="12.00"> parentMathText</text>
</g>
<!-- Node4 -->
<g id="node4" class="node">
<title>Node4</title>
<g id="a_node4"><a xlink:title=" ">
<polygon fill="none" stroke="black" points="338.5,-84.5 338.5,-105.5 400.5,-105.5 400.5,-84.5 338.5,-84.5"/>
<text text-anchor="middle" x="369.5" y="-91.9" font-family="FreeSans" font-size="12.00">QObject</text>
</a>
</g>
</g>
<!-- Node4&#45;&gt;Node3 -->
<g id="edge3" class="edge">
<title>Node4&#45;&gt;Node3</title>
<path fill="none" stroke="midnightblue" d="M368.94,-74C367.59,-62.7 364.11,-49.06 355.5,-40 345.01,-28.96 330.23,-22.25 315.71,-18.19"/>
<polygon fill="midnightblue" stroke="midnightblue" points="365.47,-74.55 369.67,-84.27 372.45,-74.05 365.47,-74.55"/>
</g>
</g>
</svg>
