<?xml version="1.0" encoding="UTF-8" standalone="no"?>
<!DOCTYPE svg PUBLIC "-//W3C//DTD SVG 1.1//EN"
 "http://www.w3.org/Graphics/SVG/1.1/DTD/svg11.dtd">
<!-- Generated by graphviz version 2.43.0 (0)
 -->
<!-- Title: JKQTMathTextSymbolNode Pages: 1 -->
<svg width="384pt" height="99pt"
 viewBox="0.00 0.00 384.00 99.00" xmlns="http://www.w3.org/2000/svg" xmlns:xlink="http://www.w3.org/1999/xlink">
<g id="graph0" class="graph" transform="scale(1 1) rotate(0) translate(4 95)">
<title>JKQTMathTextSymbolNode</title>
<!-- Node1 -->
<g id="node1" class="node">
<title>Node1</title>
<g id="a_node1"><a xlink:title="subclass representing one symbol (e.g. \alpha , \cdot ...) node in the syntax tree">
<polygon fill="#999999" stroke="#666666" points="175,-21 0,-21 0,0 175,0 175,-21"/>
<text text-anchor="middle" x="87.5" y="-7.4" font-family="Helvetica,sans-Serif" font-size="12.00">JKQTMathTextSymbolNode</text>
</a>
</g>
</g>
<!-- Node2 -->
<g id="node2" class="node">
<title>Node2</title>
<g id="a_node2"><a xlink:href="class_j_k_q_t_math_text_node.html" target="_top" xlink:title="subclass representing one node in the syntax tree">
<polygon fill="white" stroke="#666666" points="197,-91 66,-91 66,-70 197,-70 197,-91"/>
<text text-anchor="middle" x="131.5" y="-77.4" font-family="Helvetica,sans-Serif" font-size="12.00">JKQTMathTextNode</text>
</a>
</g>
</g>
<!-- Node2&#45;&gt;Node1 -->
<g id="edge1" class="edge">
<title>Node2&#45;&gt;Node1</title>
<path fill="none" stroke="#63b8ff" d="M116.68,-61.92C114.18,-58.69 111.69,-55.3 109.5,-52 102.77,-41.87 96.28,-29.49 92.11,-21.1"/>
<polygon fill="#63b8ff" stroke="#63b8ff" points="114.11,-64.31 123.12,-69.89 119.56,-59.91 114.11,-64.31"/>
</g>
<!-- Node2&#45;&gt;Node2 -->
<g id="edge5" class="edge">
<title>Node2&#45;&gt;Node2</title>
<path fill="none" stroke="#9a32cd" stroke-dasharray="5,2" d="M207.52,-84.94C212.19,-83.89 215,-82.41 215,-80.5 215,-77.45 207.81,-75.49 197.31,-74.63"/>
<polygon fill="#9a32cd" stroke="#9a32cd" points="206.73,-81.52 197.31,-86.37 207.7,-88.45 206.73,-81.52"/>
<text text-anchor="middle" x="252.5" y="-77.4" font-family="Helvetica,sans-Serif" font-size="12.00"> parentNode</text>
</g>
<!-- Node3 -->
<g id="node3" class="node">
<title>Node3</title>
<g id="a_node3"><a xlink:href="class_j_k_q_t_math_text.html" target="_top" xlink:title="this class parses a mathematical markup string and can then draw the contained text/equation onto a Q...">
<polygon fill="white" stroke="#666666" points="292,-21 193,-21 193,0 292,0 292,-21"/>
<text text-anchor="middle" x="242.5" y="-7.4" font-family="Helvetica,sans-Serif" font-size="12.00">JKQTMathText</text>
</a>
</g>
</g>
<!-- Node2&#45;&gt;Node3 -->
<g id="edge4" class="edge">
<title>Node2&#45;&gt;Node3</title>
<path fill="none" stroke="#9a32cd" stroke-dasharray="5,2" d="M124.81,-59.88C123.6,-52.65 123.93,-44.81 128.5,-39 132.74,-33.62 163.99,-26.3 192.7,-20.57"/>
<polygon fill="#9a32cd" stroke="#9a32cd" points="121.47,-60.94 127.37,-69.74 128.25,-59.19 121.47,-60.94"/>
<text text-anchor="middle" x="167" y="-42.4" font-family="Helvetica,sans-Serif" font-size="12.00"> parsedNode</text>
</g>
<!-- Node3&#45;&gt;Node2 -->
<g id="edge2" class="edge">
<title>Node3&#45;&gt;Node2</title>
<path fill="none" stroke="#9a32cd" stroke-dasharray="5,2" d="M231.04,-29.66C225.37,-37.44 217.92,-46.07 209.5,-52 198.23,-59.93 184.44,-65.78 171.61,-69.99"/>
<polygon fill="#9a32cd" stroke="#9a32cd" points="234.11,-31.37 236.85,-21.14 228.33,-27.43 234.11,-31.37"/>
<text text-anchor="middle" x="271" y="-42.4" font-family="Helvetica,sans-Serif" font-size="12.00"> parentMathText</text>
</g>
<!-- Node4 -->
<g id="node4" class="node">
<title>Node4</title>
<g id="a_node4"><a xlink:title=" ">
<polygon fill="white" stroke="#666666" points="376,-91 311,-91 311,-70 376,-70 376,-91"/>
<text text-anchor="middle" x="343.5" y="-77.4" font-family="Helvetica,sans-Serif" font-size="12.00">QObject</text>
</a>
</g>
</g>
<!-- Node4&#45;&gt;Node3 -->
<g id="edge3" class="edge">
<title>Node4&#45;&gt;Node3</title>
<path fill="none" stroke="#63b8ff" d="M340.61,-60.04C338.61,-52.6 335.22,-44.57 329.5,-39 319.4,-29.16 305.81,-22.84 292.37,-18.78"/>
<polygon fill="#63b8ff" stroke="#63b8ff" points="337.18,-60.75 342.62,-69.84 344.04,-59.35 337.18,-60.75"/>
</g>
</g>
</svg>
