<?xml version="1.0" encoding="UTF-8" standalone="no"?>
<!DOCTYPE svg PUBLIC "-//W3C//DTD SVG 1.1//EN"
 "http://www.w3.org/Graphics/SVG/1.1/DTD/svg11.dtd">
<!-- Generated by graphviz version 2.43.0 (0)
 -->
<!-- Title: JKQTMathTextLabel Pages: 1 -->
<svg width="425pt" height="169pt"
 viewBox="0.00 0.00 425.00 169.00" xmlns="http://www.w3.org/2000/svg" xmlns:xlink="http://www.w3.org/1999/xlink">
<g id="graph0" class="graph" transform="scale(1 1) rotate(0) translate(4 165)">
<title>JKQTMathTextLabel</title>
<!-- Node1 -->
<g id="Node000001" class="node">
<title>Node1</title>
<g id="a_Node000001"><a xlink:title="A QLabel&#45;derived class that draws an equation with LaTeX markup using JKQTMathText.">
<polygon fill="#999999" stroke="#666666" points="131,-21 0,-21 0,0 131,0 131,-21"/>
<text text-anchor="middle" x="65.5" y="-7.4" font-family="Helvetica,sans-Serif" font-size="12.00">JKQTMathTextLabel</text>
</a>
</g>
</g>
<!-- Node2 -->
<g id="Node000002" class="node">
<title>Node2</title>
<g id="a_Node000002"><a xlink:title=" ">
<polygon fill="white" stroke="#666666" points="79,-91 20,-91 20,-70 79,-70 79,-91"/>
<text text-anchor="middle" x="49.5" y="-77.4" font-family="Helvetica,sans-Serif" font-size="12.00">QLabel</text>
</a>
</g>
</g>
<!-- Node2&#45;&gt;Node1 -->
<g id="edge1_Node000001_Node000002" class="edge">
<title>Node2&#45;&gt;Node1</title>
<g id="a_edge1_Node000001_Node000002"><a xlink:title=" ">
<path fill="none" stroke="#63b8ff" d="M54.16,-59.7C57.13,-47.05 60.86,-31.22 63.21,-21.22"/>
<polygon fill="#63b8ff" stroke="#63b8ff" points="50.68,-59.22 51.79,-69.76 57.49,-60.82 50.68,-59.22"/>
</a>
</g>
</g>
<!-- Node3 -->
<g id="Node000003" class="node">
<title>Node3</title>
<g id="a_Node000003"><a xlink:href="class_j_k_q_t_math_text.html" target="_top" xlink:title="this class parses a mathematical markup string and can then draw the contained text/equation onto a Q...">
<polygon fill="white" stroke="#666666" points="233,-91 134,-91 134,-70 233,-70 233,-91"/>
<text text-anchor="middle" x="183.5" y="-77.4" font-family="Helvetica,sans-Serif" font-size="12.00">JKQTMathText</text>
</a>
</g>
</g>
<!-- Node3&#45;&gt;Node1 -->
<g id="edge2_Node000001_Node000003" class="edge">
<title>Node3&#45;&gt;Node1</title>
<g id="a_edge2_Node000001_Node000003"><a xlink:title=" ">
<path fill="none" stroke="#9a32cd" stroke-dasharray="5,2" d="M124.23,-66.65C114.11,-62.9 104.1,-58.12 95.5,-52 84.23,-43.99 75.45,-30.44 70.37,-21.24"/>
<polygon fill="#9a32cd" stroke="#9a32cd" points="123.33,-70.04 133.92,-69.92 125.57,-63.4 123.33,-70.04"/>
</a>
</g>
<text text-anchor="middle" x="134.5" y="-42.4" font-family="Helvetica,sans-Serif" font-size="12.00" fill="grey"> m_mathText</text>
</g>
<!-- Node5 -->
<g id="Node000005" class="node">
<title>Node5</title>
<g id="a_Node000005"><a xlink:href="class_j_k_q_t_math_text_node.html" target="_top" xlink:title="subclass representing one node in the syntax tree">
<polygon fill="white" stroke="#666666" points="324,-21 193,-21 193,0 324,0 324,-21"/>
<text text-anchor="middle" x="258.5" y="-7.4" font-family="Helvetica,sans-Serif" font-size="12.00">JKQTMathTextNode</text>
</a>
</g>
</g>
<!-- Node3&#45;&gt;Node5 -->
<g id="edge5_Node000005_Node000003" class="edge">
<title>Node3&#45;&gt;Node5</title>
<g id="a_edge5_Node000005_Node000003"><a xlink:title=" ">
<path fill="none" stroke="#9a32cd" stroke-dasharray="5,2" d="M177.13,-60.12C175.96,-52.91 176.23,-45.03 180.5,-39 186.22,-30.91 194.53,-25.19 203.61,-21.14"/>
<polygon fill="#9a32cd" stroke="#9a32cd" points="173.75,-61.05 179.58,-69.9 180.54,-59.35 173.75,-61.05"/>
</a>
</g>
<text text-anchor="middle" x="229" y="-42.4" font-family="Helvetica,sans-Serif" font-size="12.00" fill="grey"> parentMathText</text>
</g>
<!-- Node4 -->
<g id="Node000004" class="node">
<title>Node4</title>
<g id="a_Node000004"><a xlink:title=" ">
<polygon fill="white" stroke="#666666" points="171,-161 106,-161 106,-140 171,-140 171,-161"/>
<text text-anchor="middle" x="138.5" y="-147.4" font-family="Helvetica,sans-Serif" font-size="12.00">QObject</text>
</a>
</g>
</g>
<!-- Node4&#45;&gt;Node3 -->
<g id="edge3_Node000003_Node000004" class="edge">
<title>Node4&#45;&gt;Node3</title>
<g id="a_edge3_Node000003_Node000004"><a xlink:title=" ">
<path fill="none" stroke="#63b8ff" d="M150.6,-131.21C159.12,-118.34 170.19,-101.62 177.06,-91.22"/>
<polygon fill="#63b8ff" stroke="#63b8ff" points="147.55,-129.49 144.95,-139.76 153.38,-133.35 147.55,-129.49"/>
</a>
</g>
</g>
<!-- Node5&#45;&gt;Node3 -->
<g id="edge4_Node000003_Node000005" class="edge">
<title>Node5&#45;&gt;Node3</title>
<g id="a_edge4_Node000003_Node000005"><a xlink:title=" ">
<path fill="none" stroke="#9a32cd" stroke-dasharray="5,2" d="M277.4,-28.75C283.28,-36.19 286.95,-44.81 281.5,-52 270.13,-67 251.26,-74.28 233.1,-77.66"/>
<polygon fill="#9a32cd" stroke="#9a32cd" points="279.84,-26.24 270.48,-21.27 274.7,-30.99 279.84,-26.24"/>
</a>
</g>
<text text-anchor="middle" x="322" y="-42.4" font-family="Helvetica,sans-Serif" font-size="12.00" fill="grey"> parsedNode</text>
</g>
<!-- Node5&#45;&gt;Node5 -->
<g id="edge6_Node000005_Node000005" class="edge">
<title>Node5&#45;&gt;Node5</title>
<g id="a_edge6_Node000005_Node000005"><a xlink:title=" ">
<path fill="none" stroke="#9a32cd" stroke-dasharray="5,2" d="M334.52,-14.94C339.19,-13.89 342,-12.41 342,-10.5 342,-7.45 334.81,-5.49 324.31,-4.63"/>
<polygon fill="#9a32cd" stroke="#9a32cd" points="333.73,-11.52 324.31,-16.37 334.7,-18.45 333.73,-11.52"/>
</a>
</g>
<text text-anchor="middle" x="379.5" y="-7.4" font-family="Helvetica,sans-Serif" font-size="12.00" fill="grey"> parentNode</text>
</g>
<!-- Node6 -->
<g id="Node000006" class="node">
<title>Node6</title>
<g id="a_Node000006"><a xlink:title=" ">
<polygon fill="white" stroke="#666666" points="269.5,-161 189.5,-161 189.5,-140 269.5,-140 269.5,-161"/>
<text text-anchor="middle" x="229.5" y="-147.4" font-family="Helvetica,sans-Serif" font-size="12.00">std::mutex</text>
</a>
</g>
</g>
<!-- Node6&#45;&gt;Node3 -->
<g id="edge7_Node000003_Node000006" class="edge">
<title>Node6&#45;&gt;Node3</title>
<g id="a_edge7_Node000003_Node000006"><a xlink:title=" ">
<path fill="none" stroke="#9a32cd" stroke-dasharray="5,2" d="M217.13,-131.21C208.42,-118.34 197.11,-101.62 190.08,-91.22"/>
<polygon fill="#9a32cd" stroke="#9a32cd" points="214.41,-133.44 222.91,-139.76 220.21,-129.51 214.41,-133.44"/>
</a>
</g>
<text text-anchor="middle" x="238" y="-112.4" font-family="Helvetica,sans-Serif" font-size="12.00" fill="grey"> s_mutex</text>
</g>
</g>
</svg>
