<?xml version="1.0" encoding="UTF-8" standalone="no"?>
<!DOCTYPE svg PUBLIC "-//W3C//DTD SVG 1.1//EN"
 "http://www.w3.org/Graphics/SVG/1.1/DTD/svg11.dtd">
<!-- Generated by graphviz version 2.43.0 (0)
 -->
<!-- Title: JKQTMathTextNode Pages: 1 -->
<svg width="322pt" height="114pt"
 viewBox="0.00 0.00 322.00 114.00" xmlns="http://www.w3.org/2000/svg" xmlns:xlink="http://www.w3.org/1999/xlink">
<g id="graph0" class="graph" transform="scale(1 1) rotate(0) translate(4 110)">
<title>JKQTMathTextNode</title>
<!-- Node1 -->
<g id="node1" class="node">
<title>Node1</title>
<g id="a_node1"><a xlink:title="subclass representing one node in the syntax tree">
<polygon fill="#bfbfbf" stroke="black" points="0,-84.5 0,-105.5 131,-105.5 131,-84.5 0,-84.5"/>
<text text-anchor="middle" x="65.5" y="-91.9" font-family="Helvetica,sans-Serif" font-size="12.00">JKQTMathTextNode</text>
</a>
</g>
</g>
<!-- Node1&#45;&gt;Node1 -->
<g id="edge4" class="edge">
<title>Node1&#45;&gt;Node1</title>
<path fill="none" stroke="#9a32cd" stroke-dasharray="5,2" d="M141.17,-100.58C146.05,-99.28 149,-97.42 149,-95 149,-91.23 141.81,-88.81 131.31,-87.75"/>
<polygon fill="#9a32cd" stroke="#9a32cd" points="140.58,-97.13 131.31,-102.25 141.75,-104.03 140.58,-97.13"/>
<text text-anchor="middle" x="186.5" y="-91.9" font-family="Helvetica,sans-Serif" font-size="12.00"> parentNode</text>
</g>
<!-- Node2 -->
<g id="node2" class="node">
<title>Node2</title>
<g id="a_node2"><a xlink:href="class_j_k_q_t_math_text.html" target="_top" xlink:title="this class parses a LaTeX string and can then draw the contained text/equation onto a QPainter">
<polygon fill="none" stroke="black" points="120,-0.5 120,-21.5 219,-21.5 219,-0.5 120,-0.5"/>
<text text-anchor="middle" x="169.5" y="-7.9" font-family="Helvetica,sans-Serif" font-size="12.00">JKQTMathText</text>
</a>
</g>
</g>
<!-- Node1&#45;&gt;Node2 -->
<g id="edge3" class="edge">
<title>Node1&#45;&gt;Node2</title>
<path fill="none" stroke="#9a32cd" stroke-dasharray="5,2" d="M55.08,-74.76C50.56,-63.56 47.84,-49.77 55.5,-40 63.67,-29.58 92.94,-22.52 119.78,-18.1"/>
<polygon fill="#9a32cd" stroke="#9a32cd" points="52.06,-76.57 59.49,-84.13 58.39,-73.59 52.06,-76.57"/>
<text text-anchor="middle" x="99.5" y="-56.4" font-family="Helvetica,sans-Serif" font-size="12.00"> parsedNode</text>
<text text-anchor="middle" x="99.5" y="-43.4" font-family="Helvetica,sans-Serif" font-size="12.00">unparsedNode</text>
</g>
<!-- Node2&#45;&gt;Node1 -->
<g id="edge1" class="edge">
<title>Node2&#45;&gt;Node1</title>
<path fill="none" stroke="#9a32cd" stroke-dasharray="5,2" d="M165.74,-31.71C162.62,-43.11 157.1,-56.94 147.5,-66 138.64,-74.36 127.18,-80.24 115.64,-84.36"/>
<polygon fill="#9a32cd" stroke="#9a32cd" points="169.19,-32.3 168.04,-21.77 162.37,-30.72 169.19,-32.3"/>
<text text-anchor="middle" x="211" y="-49.9" font-family="Helvetica,sans-Serif" font-size="12.00"> parentMathText</text>
</g>
<!-- Node3 -->
<g id="node3" class="node">
<title>Node3</title>
<g id="a_node3"><a xlink:title=" ">
<polygon fill="none" stroke="black" points="249,-84.5 249,-105.5 314,-105.5 314,-84.5 249,-84.5"/>
<text text-anchor="middle" x="281.5" y="-91.9" font-family="Helvetica,sans-Serif" font-size="12.00">QObject</text>
</a>
</g>
</g>
<!-- Node3&#45;&gt;Node2 -->
<g id="edge2" class="edge">
<title>Node3&#45;&gt;Node2</title>
<path fill="none" stroke="midnightblue" d="M279.44,-74.22C277.25,-62.79 272.75,-48.96 263.5,-40 251.51,-28.39 234.93,-21.57 219.02,-17.57"/>
<polygon fill="midnightblue" stroke="midnightblue" points="275.98,-74.81 280.9,-84.19 282.91,-73.79 275.98,-74.81"/>
</g>
</g>
</svg>
