<?xml version="1.0" encoding="UTF-8" standalone="no"?>
<!DOCTYPE svg PUBLIC "-//W3C//DTD SVG 1.1//EN"
 "http://www.w3.org/Graphics/SVG/1.1/DTD/svg11.dtd">
<!-- Generated by graphviz version 2.43.0 (0)
 -->
<!-- Title: JKQTPGeoBaseDecoratedLine Pages: 1 -->
<svg width="420pt" height="333pt"
 viewBox="0.00 0.00 420.00 333.00" xmlns="http://www.w3.org/2000/svg" xmlns:xlink="http://www.w3.org/1999/xlink">
<g id="graph0" class="graph" transform="scale(1 1) rotate(0) translate(4 329)">
<title>JKQTPGeoBaseDecoratedLine</title>
<!-- Node1 -->
<g id="node1" class="node">
<title>Node1</title>
<g id="a_node1"><a xlink:title="This JKQTPGeometricPlotElement is used as base class for geometric drawing elements that consist of l...">
<polygon fill="#bfbfbf" stroke="black" points="104,-116.5 104,-137.5 298,-137.5 298,-116.5 104,-116.5"/>
<text text-anchor="middle" x="201" y="-123.9" font-family="Helvetica,sans-Serif" font-size="12.00">JKQTPGeoBaseDecoratedLine</text>
</a>
</g>
</g>
<!-- Node7 -->
<g id="node7" class="node">
<title>Node7</title>
<g id="a_node7"><a xlink:href="class_j_k_q_t_p_geo_line.html" target="_top" xlink:title="This JKQTPGeometricPlotElement is used to draw a line, optionally line&#45;end decorations (aka arrows) a...">
<polygon fill="none" stroke="black" points="83.5,-58.5 83.5,-79.5 184.5,-79.5 184.5,-58.5 83.5,-58.5"/>
<text text-anchor="middle" x="134" y="-65.9" font-family="Helvetica,sans-Serif" font-size="12.00">JKQTPGeoLine</text>
</a>
</g>
</g>
<!-- Node1&#45;&gt;Node7 -->
<g id="edge6" class="edge">
<title>Node1&#45;&gt;Node7</title>
<path fill="none" stroke="midnightblue" d="M181.43,-109.65C169.78,-99.91 155.39,-87.88 145.54,-79.64"/>
<polygon fill="midnightblue" stroke="midnightblue" points="179.41,-112.52 189.33,-116.25 183.9,-107.15 179.41,-112.52"/>
</g>
<!-- Node9 -->
<g id="node9" class="node">
<title>Node9</title>
<g id="a_node9"><a xlink:href="class_j_k_q_t_p_geo_poly_lines.html" target="_top" xlink:title="This JKQTPGeometricPlotElement is used to draw a poly line.">
<polygon fill="none" stroke="black" points="202.5,-58.5 202.5,-79.5 333.5,-79.5 333.5,-58.5 202.5,-58.5"/>
<text text-anchor="middle" x="268" y="-65.9" font-family="Helvetica,sans-Serif" font-size="12.00">JKQTPGeoPolyLines</text>
</a>
</g>
</g>
<!-- Node1&#45;&gt;Node9 -->
<g id="edge8" class="edge">
<title>Node1&#45;&gt;Node9</title>
<path fill="none" stroke="midnightblue" d="M220.57,-109.65C232.22,-99.91 246.61,-87.88 256.46,-79.64"/>
<polygon fill="midnightblue" stroke="midnightblue" points="218.1,-107.15 212.67,-116.25 222.59,-112.52 218.1,-107.15"/>
</g>
<!-- Node2 -->
<g id="node2" class="node">
<title>Node2</title>
<g id="a_node2"><a xlink:href="class_j_k_q_t_p_geometric_plot_element.html" target="_top" xlink:title="this is the virtual base class of all JKQTPPlotElement&#39;s in a JKQTPlotter plot that represent geometr...">
<polygon fill="none" stroke="black" points="0,-181 0,-202 188,-202 188,-181 0,-181"/>
<text text-anchor="middle" x="94" y="-188.4" font-family="Helvetica,sans-Serif" font-size="12.00">JKQTPGeometricPlotElement</text>
</a>
</g>
</g>
<!-- Node2&#45;&gt;Node1 -->
<g id="edge1" class="edge">
<title>Node2&#45;&gt;Node1</title>
<path fill="none" stroke="midnightblue" d="M119.38,-175.68C139.49,-163.93 167.01,-147.85 184.4,-137.7"/>
<polygon fill="midnightblue" stroke="midnightblue" points="117.59,-172.67 110.72,-180.73 121.12,-178.71 117.59,-172.67"/>
</g>
<!-- Node3 -->
<g id="node3" class="node">
<title>Node3</title>
<g id="a_node3"><a xlink:href="class_j_k_q_t_p_plot_element.html" target="_top" xlink:title="this virtual base class of every element, which is part of a JKQTPlotter plot and may appear in its k...">
<polygon fill="none" stroke="black" points="31.5,-245.5 31.5,-266.5 156.5,-266.5 156.5,-245.5 31.5,-245.5"/>
<text text-anchor="middle" x="94" y="-252.9" font-family="Helvetica,sans-Serif" font-size="12.00">JKQTPPlotElement</text>
</a>
</g>
</g>
<!-- Node3&#45;&gt;Node2 -->
<g id="edge2" class="edge">
<title>Node3&#45;&gt;Node2</title>
<path fill="none" stroke="midnightblue" d="M94,-234.93C94,-224.06 94,-211.11 94,-202.4"/>
<polygon fill="midnightblue" stroke="midnightblue" points="90.5,-235.23 94,-245.23 97.5,-235.23 90.5,-235.23"/>
</g>
<!-- Node4 -->
<g id="node4" class="node">
<title>Node4</title>
<g id="a_node4"><a xlink:title=" ">
<polygon fill="none" stroke="black" points="61.5,-303.5 61.5,-324.5 126.5,-324.5 126.5,-303.5 61.5,-303.5"/>
<text text-anchor="middle" x="94" y="-310.9" font-family="Helvetica,sans-Serif" font-size="12.00">QObject</text>
</a>
</g>
</g>
<!-- Node4&#45;&gt;Node3 -->
<g id="edge3" class="edge">
<title>Node4&#45;&gt;Node3</title>
<path fill="none" stroke="midnightblue" d="M94,-293.16C94,-284.16 94,-273.92 94,-266.64"/>
<polygon fill="midnightblue" stroke="midnightblue" points="90.5,-293.25 94,-303.25 97.5,-293.25 90.5,-293.25"/>
</g>
<!-- Node5 -->
<g id="node5" class="node">
<title>Node5</title>
<g id="a_node5"><a xlink:href="class_j_k_q_t_p_graph_decorated_line_style_mixin.html" target="_top" xlink:title="This Mix&#45;In class provides setter/getter methods, storage and other facilities for the graph line sty...">
<polygon fill="none" stroke="black" points="206,-174.5 206,-208.5 412,-208.5 412,-174.5 206,-174.5"/>
<text text-anchor="start" x="214" y="-194.9" font-family="Helvetica,sans-Serif" font-size="12.00">JKQTPGraphDecoratedLineStyle</text>
<text text-anchor="middle" x="309" y="-181.9" font-family="Helvetica,sans-Serif" font-size="12.00">Mixin</text>
</a>
</g>
</g>
<!-- Node5&#45;&gt;Node1 -->
<g id="edge4" class="edge">
<title>Node5&#45;&gt;Node1</title>
<path fill="none" stroke="midnightblue" d="M272.36,-169.3C253.79,-158.55 232.16,-146.03 217.62,-137.62"/>
<polygon fill="midnightblue" stroke="midnightblue" points="270.78,-172.43 281.19,-174.4 274.29,-166.37 270.78,-172.43"/>
</g>
<!-- Node6 -->
<g id="node6" class="node">
<title>Node6</title>
<g id="a_node6"><a xlink:href="class_j_k_q_t_p_graph_line_style_mixin.html" target="_top" xlink:title="This Mix&#45;In class provides setter/getter methods, storage and other facilities for the graph line sty...">
<polygon fill="none" stroke="black" points="222,-245.5 222,-266.5 396,-266.5 396,-245.5 222,-245.5"/>
<text text-anchor="middle" x="309" y="-252.9" font-family="Helvetica,sans-Serif" font-size="12.00">JKQTPGraphLineStyleMixin</text>
</a>
</g>
</g>
<!-- Node6&#45;&gt;Node5 -->
<g id="edge5" class="edge">
<title>Node6&#45;&gt;Node5</title>
<path fill="none" stroke="midnightblue" d="M309,-235.07C309,-226.58 309,-216.8 309,-208.76"/>
<polygon fill="midnightblue" stroke="midnightblue" points="305.5,-235.23 309,-245.23 312.5,-235.23 305.5,-235.23"/>
</g>
<!-- Node8 -->
<g id="node8" class="node">
<title>Node8</title>
<g id="a_node8"><a xlink:href="class_j_k_q_t_p_geo_arrow.html" target="_top" xlink:title="This convenience specialisation of JKQTPGeoLine is used to draw a line with decorations (e....">
<polygon fill="none" stroke="black" points="78.5,-0.5 78.5,-21.5 189.5,-21.5 189.5,-0.5 78.5,-0.5"/>
<text text-anchor="middle" x="134" y="-7.9" font-family="Helvetica,sans-Serif" font-size="12.00">JKQTPGeoArrow</text>
</a>
</g>
</g>
<!-- Node7&#45;&gt;Node8 -->
<g id="edge7" class="edge">
<title>Node7&#45;&gt;Node8</title>
<path fill="none" stroke="midnightblue" d="M134,-48.16C134,-39.16 134,-28.92 134,-21.64"/>
<polygon fill="midnightblue" stroke="midnightblue" points="130.5,-48.25 134,-58.25 137.5,-48.25 130.5,-48.25"/>
</g>
</g>
</svg>
