<?xml version="1.0" encoding="UTF-8" standalone="no"?>
<!DOCTYPE svg PUBLIC "-//W3C//DTD SVG 1.1//EN"
 "http://www.w3.org/Graphics/SVG/1.1/DTD/svg11.dtd">
<!-- Generated by graphviz version 2.43.0 (0)
 -->
<!-- Title: JKQTMathTextBoxInstructionNode Pages: 1 -->
<svg width="443pt" height="232pt"
 viewBox="0.00 0.00 442.50 232.00" xmlns="http://www.w3.org/2000/svg" xmlns:xlink="http://www.w3.org/1999/xlink">
<g id="graph0" class="graph" transform="scale(1 1) rotate(0) translate(4 228)">
<title>JKQTMathTextBoxInstructionNode</title>
<!-- Node1 -->
<g id="node1" class="node">
<title>Node1</title>
<g id="a_node1"><a xlink:title="subclass representing an instruction node which draws a (possibly colored) box around it&#39;s contents i...">
<polygon fill="#bfbfbf" stroke="black" points="0,-0.5 0,-21.5 216,-21.5 216,-0.5 0,-0.5"/>
<text text-anchor="middle" x="108" y="-7.9" font-family="Helvetica,sans-Serif" font-size="12.00">JKQTMathTextBoxInstructionNode</text>
</a>
</g>
</g>
<!-- Node2 -->
<g id="node2" class="node">
<title>Node2</title>
<g id="a_node2"><a xlink:href="class_j_k_q_t_math_text_instruction1_node.html" target="_top" xlink:title="subclass representing an instruction node with exactly one argument and possibly additional parameter...">
<polygon fill="none" stroke="black" points="7,-59.5 7,-80.5 209,-80.5 209,-59.5 7,-59.5"/>
<text text-anchor="middle" x="108" y="-66.9" font-family="Helvetica,sans-Serif" font-size="12.00">JKQTMathTextInstruction1Node</text>
</a>
</g>
</g>
<!-- Node2&#45;&gt;Node1 -->
<g id="edge1" class="edge">
<title>Node2&#45;&gt;Node1</title>
<path fill="none" stroke="midnightblue" d="M108,-49.23C108,-39.85 108,-29.07 108,-21.53"/>
<polygon fill="midnightblue" stroke="midnightblue" points="104.5,-49.33 108,-59.33 111.5,-49.33 104.5,-49.33"/>
</g>
<!-- Node3 -->
<g id="node3" class="node">
<title>Node3</title>
<g id="a_node3"><a xlink:href="class_j_k_q_t_math_text_single_child_node.html" target="_top" xlink:title="subclass representing a node in the syntax tree, that has one child">
<polygon fill="none" stroke="black" points="10,-118.5 10,-139.5 206,-139.5 206,-118.5 10,-118.5"/>
<text text-anchor="middle" x="108" y="-125.9" font-family="Helvetica,sans-Serif" font-size="12.00">JKQTMathTextSingleChildNode</text>
</a>
</g>
</g>
<!-- Node3&#45;&gt;Node2 -->
<g id="edge2" class="edge">
<title>Node3&#45;&gt;Node2</title>
<path fill="none" stroke="midnightblue" d="M108,-108.23C108,-98.85 108,-88.07 108,-80.53"/>
<polygon fill="midnightblue" stroke="midnightblue" points="104.5,-108.33 108,-118.33 111.5,-108.33 104.5,-108.33"/>
</g>
<!-- Node4 -->
<g id="node4" class="node">
<title>Node4</title>
<g id="a_node4"><a xlink:href="class_j_k_q_t_math_text_node.html" target="_top" xlink:title="subclass representing one node in the syntax tree">
<polygon fill="none" stroke="black" points="86.5,-202.5 86.5,-223.5 217.5,-223.5 217.5,-202.5 86.5,-202.5"/>
<text text-anchor="middle" x="152" y="-209.9" font-family="Helvetica,sans-Serif" font-size="12.00">JKQTMathTextNode</text>
</a>
</g>
</g>
<!-- Node4&#45;&gt;Node3 -->
<g id="edge3" class="edge">
<title>Node4&#45;&gt;Node3</title>
<path fill="none" stroke="midnightblue" d="M117.13,-197.09C112.27,-193.51 107.95,-189.18 105,-184 97.21,-170.29 100.93,-151.32 104.42,-139.89"/>
<polygon fill="midnightblue" stroke="midnightblue" points="115.31,-200.08 125.64,-202.42 119.03,-194.14 115.31,-200.08"/>
</g>
<!-- Node4&#45;&gt;Node3 -->
<g id="edge8" class="edge">
<title>Node4&#45;&gt;Node3</title>
<path fill="none" stroke="#9a32cd" stroke-dasharray="5,2" d="M133.27,-195.01C130.21,-191.59 127.29,-187.85 125,-184 116.57,-169.8 111.88,-150.98 109.66,-139.72"/>
<polygon fill="#9a32cd" stroke="#9a32cd" points="130.96,-197.66 140.47,-202.33 135.96,-192.75 130.96,-197.66"/>
<text text-anchor="middle" x="141" y="-167.9" font-family="Helvetica,sans-Serif" font-size="12.00"> child</text>
</g>
<!-- Node4&#45;&gt;Node4 -->
<g id="edge7" class="edge">
<title>Node4&#45;&gt;Node4</title>
<path fill="none" stroke="#9a32cd" stroke-dasharray="5,2" d="M227.67,-218.58C232.55,-217.28 235.5,-215.42 235.5,-213 235.5,-209.23 228.31,-206.81 217.81,-205.75"/>
<polygon fill="#9a32cd" stroke="#9a32cd" points="227.08,-215.13 217.81,-220.25 228.25,-222.03 227.08,-215.13"/>
<text text-anchor="middle" x="273" y="-209.9" font-family="Helvetica,sans-Serif" font-size="12.00"> parentNode</text>
</g>
<!-- Node5 -->
<g id="node5" class="node">
<title>Node5</title>
<g id="a_node5"><a xlink:href="class_j_k_q_t_math_text.html" target="_top" xlink:title="this class parses a LaTeX string and can then draw the contained text/equation onto a QPainter">
<polygon fill="none" stroke="black" points="240.5,-118.5 240.5,-139.5 339.5,-139.5 339.5,-118.5 240.5,-118.5"/>
<text text-anchor="middle" x="290" y="-125.9" font-family="Helvetica,sans-Serif" font-size="12.00">JKQTMathText</text>
</a>
</g>
</g>
<!-- Node4&#45;&gt;Node5 -->
<g id="edge6" class="edge">
<title>Node4&#45;&gt;Node5</title>
<path fill="none" stroke="#9a32cd" stroke-dasharray="5,2" d="M156.03,-192.7C159.45,-181.04 165.52,-166.77 176,-158 185.96,-149.66 214.28,-142.68 240.2,-137.78"/>
<polygon fill="#9a32cd" stroke="#9a32cd" points="152.62,-191.9 153.6,-202.45 159.42,-193.6 152.62,-191.9"/>
<text text-anchor="middle" x="220" y="-174.4" font-family="Helvetica,sans-Serif" font-size="12.00"> parsedNode</text>
<text text-anchor="middle" x="220" y="-161.4" font-family="Helvetica,sans-Serif" font-size="12.00">unparsedNode</text>
</g>
<!-- Node5&#45;&gt;Node4 -->
<g id="edge4" class="edge">
<title>Node5&#45;&gt;Node4</title>
<path fill="none" stroke="#9a32cd" stroke-dasharray="5,2" d="M286.64,-149.64C283.65,-161.23 278.12,-175.3 268,-184 253.94,-196.09 235.54,-203.15 217.54,-207.22"/>
<polygon fill="#9a32cd" stroke="#9a32cd" points="290.13,-150.05 288.78,-139.54 283.28,-148.59 290.13,-150.05"/>
<text text-anchor="middle" x="332.5" y="-167.9" font-family="Helvetica,sans-Serif" font-size="12.00"> parentMathText</text>
</g>
<!-- Node6 -->
<g id="node6" class="node">
<title>Node6</title>
<g id="a_node6"><a xlink:title=" ">
<polygon fill="none" stroke="black" points="369.5,-202.5 369.5,-223.5 434.5,-223.5 434.5,-202.5 369.5,-202.5"/>
<text text-anchor="middle" x="402" y="-209.9" font-family="Helvetica,sans-Serif" font-size="12.00">QObject</text>
</a>
</g>
</g>
<!-- Node6&#45;&gt;Node5 -->
<g id="edge5" class="edge">
<title>Node6&#45;&gt;Node5</title>
<path fill="none" stroke="midnightblue" d="M401.52,-191.92C400.21,-180.58 396.72,-166.94 388,-158 375.27,-144.95 356.92,-137.87 339.53,-134.07"/>
<polygon fill="midnightblue" stroke="midnightblue" points="398.05,-192.49 402.22,-202.22 405.04,-192.01 398.05,-192.49"/>
</g>
</g>
</svg>
