<?xml version="1.0" encoding="UTF-8" standalone="no"?>
<!DOCTYPE svg PUBLIC "-//W3C//DTD SVG 1.1//EN"
 "http://www.w3.org/Graphics/SVG/1.1/DTD/svg11.dtd">
<!-- Generated by graphviz version 2.43.0 (0)
 -->
<!-- Title: JKQTFinancialSpecificStyleProperties Pages: 1 -->
<svg width="721pt" height="247pt"
 viewBox="0.00 0.00 720.50 247.00" xmlns="http://www.w3.org/2000/svg" xmlns:xlink="http://www.w3.org/1999/xlink">
<g id="graph0" class="graph" transform="scale(1 1) rotate(0) translate(4 243)">
<title>JKQTFinancialSpecificStyleProperties</title>
<!-- Node1 -->
<g id="Node000001" class="node">
<title>Node1</title>
<g id="a_Node000001"><a xlink:title="Support Class for JKQTBasePlotter, which summarizes all properties that define the visual styling of ...">
<polygon fill="#999999" stroke="#666666" points="509,-34 336,-34 336,0 509,0 509,-34"/>
<text text-anchor="start" x="344" y="-20.4" font-family="Helvetica,sans-Serif" font-size="12.00">JKQTFinancialSpecificStyle</text>
<text text-anchor="middle" x="422.5" y="-7.4" font-family="Helvetica,sans-Serif" font-size="12.00">Properties</text>
</a>
</g>
</g>
<!-- Node2 -->
<g id="Node000002" class="node">
<title>Node2</title>
<g id="a_Node000002"><a xlink:href="class_j_k_q_t_graphs_specific_style_properties.html" target="_top" xlink:title="Support Class for JKQTBasePlotter, which summarizes all properties that define the visual styling of ...">
<polygon fill="white" stroke="#666666" points="534.5,-117 310.5,-117 310.5,-96 534.5,-96 534.5,-117"/>
<text text-anchor="middle" x="422.5" y="-103.4" font-family="Helvetica,sans-Serif" font-size="12.00">JKQTGraphsSpecificStyleProperties</text>
</a>
</g>
</g>
<!-- Node2&#45;&gt;Node1 -->
<g id="edge1_Node000001_Node000002" class="edge">
<title>Node2&#45;&gt;Node1</title>
<g id="a_edge1_Node000001_Node000002"><a xlink:title=" ">
<path fill="none" stroke="#63b8ff" d="M422.5,-85.7C422.5,-70.18 422.5,-48.83 422.5,-34.28"/>
<polygon fill="#63b8ff" stroke="#63b8ff" points="419,-85.8 422.5,-95.8 426,-85.8 419,-85.8"/>
</a>
</g>
</g>
<!-- Node3 -->
<g id="Node000003" class="node">
<title>Node3</title>
<g id="a_Node000003"><a xlink:href="struct_j_k_q_t_p_color_derivation_mode.html" target="_top" xlink:title="Specifies how a fill&#45;color is derived from a given color.">
<polygon fill="white" stroke="#666666" points="179,-239 0,-239 0,-218 179,-218 179,-239"/>
<text text-anchor="middle" x="89.5" y="-225.4" font-family="Helvetica,sans-Serif" font-size="12.00">JKQTPColorDerivationMode</text>
</a>
</g>
</g>
<!-- Node3&#45;&gt;Node1 -->
<g id="edge3_Node000001_Node000003" class="edge">
<title>Node3&#45;&gt;Node1</title>
<g id="a_edge3_Node000001_Node000003"><a xlink:title=" ">
<path fill="none" stroke="#9a32cd" stroke-dasharray="5,2" d="M81.39,-208.54C70.88,-180.64 56.73,-128.35 82.5,-96 113.63,-56.92 245.87,-35.81 335.96,-25.75"/>
<polygon fill="#9a32cd" stroke="#9a32cd" points="78.19,-209.96 85.15,-217.94 84.69,-207.36 78.19,-209.96"/>
</a>
</g>
<text text-anchor="middle" x="192" y="-103.4" font-family="Helvetica,sans-Serif" font-size="12.00" fill="grey"> negativeGraphColorDerivationMode</text>
</g>
<!-- Node3&#45;&gt;Node2 -->
<g id="edge2_Node000002_Node000003" class="edge">
<title>Node3&#45;&gt;Node2</title>
<g id="a_edge2_Node000002_Node000003"><a xlink:title=" ">
<path fill="none" stroke="#9a32cd" stroke-dasharray="5,2" d="M125.68,-214.46C193.18,-190.14 336.83,-138.37 396.09,-117.02"/>
<polygon fill="#9a32cd" stroke="#9a32cd" points="124.13,-211.3 115.91,-217.98 126.5,-217.89 124.13,-211.3"/>
</a>
</g>
<text text-anchor="middle" x="434.5" y="-190.4" font-family="Helvetica,sans-Serif" font-size="12.00" fill="grey"> errorColorDerivationMode</text>
<text text-anchor="middle" x="434.5" y="-177.4" font-family="Helvetica,sans-Serif" font-size="12.00" fill="grey">errorFillColorDerivationMode</text>
<text text-anchor="middle" x="434.5" y="-164.4" font-family="Helvetica,sans-Serif" font-size="12.00" fill="grey">fillColorDerivationMode</text>
<text text-anchor="middle" x="434.5" y="-151.4" font-family="Helvetica,sans-Serif" font-size="12.00" fill="grey">graphColorDerivationMode</text>
<text text-anchor="middle" x="434.5" y="-138.4" font-family="Helvetica,sans-Serif" font-size="12.00" fill="grey">symbolFillColorDerivationMode</text>
</g>
<!-- Node4 -->
<g id="Node000004" class="node">
<title>Node4</title>
<g id="a_Node000004"><a xlink:href="class_j_k_q_t_fill_style_summmary.html" target="_top" xlink:title="Support Class for JKQTBasePlotter, which summarizes a fill style.">
<polygon fill="white" stroke="#666666" points="712.5,-117 552.5,-117 552.5,-96 712.5,-96 712.5,-117"/>
<text text-anchor="middle" x="632.5" y="-103.4" font-family="Helvetica,sans-Serif" font-size="12.00">JKQTFillStyleSummmary</text>
</a>
</g>
</g>
<!-- Node4&#45;&gt;Node1 -->
<g id="edge4_Node000001_Node000004" class="edge">
<title>Node4&#45;&gt;Node1</title>
<g id="a_edge4_Node000001_Node000004"><a xlink:title=" ">
<path fill="none" stroke="#9a32cd" stroke-dasharray="5,2" d="M600.19,-92.04C562.69,-76.41 500.91,-50.67 460.97,-34.03"/>
<polygon fill="#9a32cd" stroke="#9a32cd" points="599.05,-95.35 609.63,-95.97 601.74,-88.89 599.05,-95.35"/>
</a>
</g>
<text text-anchor="middle" x="615.5" y="-68.4" font-family="Helvetica,sans-Serif" font-size="12.00" fill="grey"> negativeFillStyle</text>
<text text-anchor="middle" x="615.5" y="-55.4" font-family="Helvetica,sans-Serif" font-size="12.00" fill="grey">positiveFillStyle</text>
</g>
</g>
</svg>
