<?xml version="1.0" encoding="UTF-8" standalone="no"?>
<!DOCTYPE svg PUBLIC "-//W3C//DTD SVG 1.1//EN"
 "http://www.w3.org/Graphics/SVG/1.1/DTD/svg11.dtd">
<!-- Generated by graphviz version 2.43.0 (0)
 -->
<!-- Title: JKQTFPXRangePlot Pages: 1 -->
<svg width="301pt" height="223pt"
 viewBox="0.00 0.00 301.00 223.00" xmlns="http://www.w3.org/2000/svg" xmlns:xlink="http://www.w3.org/1999/xlink">
<g id="graph0" class="graph" transform="scale(1 1) rotate(0) translate(4 219)">
<title>JKQTFPXRangePlot</title>
<!-- Node1 -->
<g id="node1" class="node">
<title>Node1</title>
<g id="a_node1"><a xlink:title="plot a range of x values">
<polygon fill="#bfbfbf" stroke="black" points="2.5,-0.5 2.5,-21.5 130.5,-21.5 130.5,-0.5 2.5,-0.5"/>
<text text-anchor="middle" x="66.5" y="-7.9" font-family="Helvetica,sans-Serif" font-size="12.00">JKQTFPXRangePlot</text>
</a>
</g>
</g>
<!-- Node2 -->
<g id="node2" class="node">
<title>Node2</title>
<g id="a_node2"><a xlink:href="class_j_k_q_t_f_p_plot.html" target="_top" xlink:title="base class for all plots that may be plotted by JKQTFastPlotter">
<polygon fill="none" stroke="black" points="25.5,-59.5 25.5,-80.5 107.5,-80.5 107.5,-59.5 25.5,-59.5"/>
<text text-anchor="middle" x="66.5" y="-66.9" font-family="Helvetica,sans-Serif" font-size="12.00">JKQTFPPlot</text>
</a>
</g>
</g>
<!-- Node2&#45;&gt;Node1 -->
<g id="edge1" class="edge">
<title>Node2&#45;&gt;Node1</title>
<path fill="none" stroke="midnightblue" d="M66.5,-49.23C66.5,-39.85 66.5,-29.07 66.5,-21.53"/>
<polygon fill="midnightblue" stroke="midnightblue" points="63,-49.33 66.5,-59.33 70,-49.33 63,-49.33"/>
</g>
<!-- Node3 -->
<g id="node3" class="node">
<title>Node3</title>
<g id="a_node3"><a xlink:title=" ">
<polygon fill="none" stroke="black" points="0,-132.5 0,-153.5 65,-153.5 65,-132.5 0,-132.5"/>
<text text-anchor="middle" x="32.5" y="-139.9" font-family="Helvetica,sans-Serif" font-size="12.00">QObject</text>
</a>
</g>
</g>
<!-- Node3&#45;&gt;Node2 -->
<g id="edge2" class="edge">
<title>Node3&#45;&gt;Node2</title>
<path fill="none" stroke="midnightblue" d="M41.58,-123.04C48.08,-109.47 56.56,-91.75 61.77,-80.88"/>
<polygon fill="midnightblue" stroke="midnightblue" points="38.25,-121.89 37.09,-132.42 44.56,-124.92 38.25,-121.89"/>
</g>
<!-- Node4 -->
<g id="node4" class="node">
<title>Node4</title>
<g id="a_node4"><a xlink:href="class_j_k_q_t_fast_plotter.html" target="_top" xlink:title="a speed optimized plotter class">
<polygon fill="none" stroke="black" points="83,-132.5 83,-153.5 192,-153.5 192,-132.5 83,-132.5"/>
<text text-anchor="middle" x="137.5" y="-139.9" font-family="Helvetica,sans-Serif" font-size="12.00">JKQTFastPlotter</text>
</a>
</g>
</g>
<!-- Node4&#45;&gt;Node2 -->
<g id="edge3" class="edge">
<title>Node4&#45;&gt;Node2</title>
<path fill="none" stroke="#9a32cd" stroke-dasharray="5,2" d="M120.5,-125C106.72,-111.22 87.78,-92.28 76.38,-80.88"/>
<polygon fill="#9a32cd" stroke="#9a32cd" points="118.38,-127.83 127.92,-132.42 123.33,-122.88 118.38,-127.83"/>
<text text-anchor="middle" x="127" y="-102.4" font-family="Helvetica,sans-Serif" font-size="12.00"> parent</text>
</g>
<!-- Node4&#45;&gt;Node4 -->
<g id="edge5" class="edge">
<title>Node4&#45;&gt;Node4</title>
<path fill="none" stroke="#9a32cd" stroke-dasharray="5,2" d="M202.41,-147.15C207.12,-146.22 210,-144.83 210,-143 210,-140.07 202.62,-138.29 192.2,-137.64"/>
<polygon fill="#9a32cd" stroke="#9a32cd" points="201.72,-143.71 192.2,-148.36 202.54,-150.66 201.72,-143.71"/>
<text text-anchor="middle" x="251.5" y="-146.4" font-family="Helvetica,sans-Serif" font-size="12.00"> synchronizeX</text>
<text text-anchor="middle" x="251.5" y="-133.4" font-family="Helvetica,sans-Serif" font-size="12.00">synchronizeY</text>
</g>
<!-- Node5 -->
<g id="node5" class="node">
<title>Node5</title>
<g id="a_node5"><a xlink:title=" ">
<polygon fill="none" stroke="black" points="80.5,-193.5 80.5,-214.5 194.5,-214.5 194.5,-193.5 80.5,-193.5"/>
<text text-anchor="middle" x="137.5" y="-200.9" font-family="Helvetica,sans-Serif" font-size="12.00">QOpenGLWidget</text>
</a>
</g>
</g>
<!-- Node5&#45;&gt;Node4 -->
<g id="edge4" class="edge">
<title>Node5&#45;&gt;Node4</title>
<path fill="none" stroke="midnightblue" d="M137.5,-182.99C137.5,-173.05 137.5,-161.5 137.5,-153.56"/>
<polygon fill="midnightblue" stroke="midnightblue" points="134,-183.26 137.5,-193.26 141,-183.26 134,-183.26"/>
</g>
</g>
</svg>
