<?xml version="1.0" encoding="UTF-8" standalone="no"?>
<!DOCTYPE svg PUBLIC "-//W3C//DTD SVG 1.1//EN"
 "http://www.w3.org/Graphics/SVG/1.1/DTD/svg11.dtd">
<!-- Generated by graphviz version 2.43.0 (0)
 -->
<!-- Title: JKQTPFilledCurveGraphBase Pages: 1 -->
<svg width="559pt" height="449pt"
 viewBox="0.00 0.00 559.00 449.00" xmlns="http://www.w3.org/2000/svg" xmlns:xlink="http://www.w3.org/1999/xlink">
<g id="graph0" class="graph" transform="scale(1 1) rotate(0) translate(4 445)">
<title>JKQTPFilledCurveGraphBase</title>
<!-- Node1 -->
<g id="node1" class="node">
<title>Node1</title>
<g id="a_node1"><a xlink:title="a Base class for filled curve graphs like e.g. JKQTPFilledCurveXGraph">
<polygon fill="#bfbfbf" stroke="black" points="108,-116.5 108,-137.5 292,-137.5 292,-116.5 108,-116.5"/>
<text text-anchor="middle" x="200" y="-123.9" font-family="Helvetica,sans-Serif" font-size="12.00">JKQTPFilledCurveGraphBase</text>
</a>
</g>
</g>
<!-- Node10 -->
<g id="node10" class="node">
<title>Node10</title>
<g id="a_node10"><a xlink:href="class_j_k_q_t_p_filled_curve_x_graph.html" target="_top" xlink:title="This implements filled curve plots where the area is filled between the plot line and the x&#45;Axis.">
<polygon fill="none" stroke="black" points="28.5,-58.5 28.5,-79.5 191.5,-79.5 191.5,-58.5 28.5,-58.5"/>
<text text-anchor="middle" x="110" y="-65.9" font-family="Helvetica,sans-Serif" font-size="12.00">JKQTPFilledCurveXGraph</text>
</a>
</g>
</g>
<!-- Node1&#45;&gt;Node10 -->
<g id="edge9" class="edge">
<title>Node1&#45;&gt;Node10</title>
<path fill="none" stroke="midnightblue" d="M175.52,-110.77C159.57,-100.85 139.25,-88.2 125.5,-79.64"/>
<polygon fill="midnightblue" stroke="midnightblue" points="173.98,-113.93 184.32,-116.25 177.68,-107.99 173.98,-113.93"/>
</g>
<!-- Node12 -->
<g id="node12" class="node">
<title>Node12</title>
<g id="a_node12"><a xlink:href="class_j_k_q_t_p_filled_curve_y_graph.html" target="_top" xlink:title="This implements filled curve plots where the area is filled between the plot line and y&#45;Axis.">
<polygon fill="none" stroke="black" points="217,-58.5 217,-79.5 379,-79.5 379,-58.5 217,-58.5"/>
<text text-anchor="middle" x="298" y="-65.9" font-family="Helvetica,sans-Serif" font-size="12.00">JKQTPFilledCurveYGraph</text>
</a>
</g>
</g>
<!-- Node1&#45;&gt;Node12 -->
<g id="edge11" class="edge">
<title>Node1&#45;&gt;Node12</title>
<path fill="none" stroke="midnightblue" d="M226.17,-111.05C243.61,-101.08 266.01,-88.28 281.13,-79.64"/>
<polygon fill="midnightblue" stroke="midnightblue" points="224.02,-108.25 217.07,-116.25 227.49,-114.32 224.02,-108.25"/>
</g>
<!-- Node2 -->
<g id="node2" class="node">
<title>Node2</title>
<g id="a_node2"><a xlink:href="class_j_k_q_t_p_x_y_baseline_graph.html" target="_top" xlink:title="This virtual JKQTPGraph descendent extends JKQTPXYGraph adds a baseline&#45;property, which is necessary,...">
<polygon fill="none" stroke="black" points="29.5,-181 29.5,-202 184.5,-202 184.5,-181 29.5,-181"/>
<text text-anchor="middle" x="107" y="-188.4" font-family="Helvetica,sans-Serif" font-size="12.00">JKQTPXYBaselineGraph</text>
</a>
</g>
</g>
<!-- Node2&#45;&gt;Node1 -->
<g id="edge1" class="edge">
<title>Node2&#45;&gt;Node1</title>
<path fill="none" stroke="midnightblue" d="M130.01,-175.04C147.4,-163.35 170.73,-147.67 185.57,-137.7"/>
<polygon fill="midnightblue" stroke="midnightblue" points="127.88,-172.25 121.53,-180.73 131.78,-178.06 127.88,-172.25"/>
</g>
<!-- Node3 -->
<g id="node3" class="node">
<title>Node3</title>
<g id="a_node3"><a xlink:href="class_j_k_q_t_p_x_y_graph.html" target="_top" xlink:title="This virtual JKQTPGraph descendent may be used as base for all graphs that use at least two columns t...">
<polygon fill="none" stroke="black" points="54.5,-245.5 54.5,-266.5 159.5,-266.5 159.5,-245.5 54.5,-245.5"/>
<text text-anchor="middle" x="107" y="-252.9" font-family="Helvetica,sans-Serif" font-size="12.00">JKQTPXYGraph</text>
</a>
</g>
</g>
<!-- Node3&#45;&gt;Node2 -->
<g id="edge2" class="edge">
<title>Node3&#45;&gt;Node2</title>
<path fill="none" stroke="midnightblue" d="M107,-234.93C107,-224.06 107,-211.11 107,-202.4"/>
<polygon fill="midnightblue" stroke="midnightblue" points="103.5,-235.23 107,-245.23 110.5,-235.23 103.5,-235.23"/>
</g>
<!-- Node4 -->
<g id="node4" class="node">
<title>Node4</title>
<g id="a_node4"><a xlink:href="class_j_k_q_t_p_graph.html" target="_top" xlink:title="this virtual base class of the (data&#45;column based) graphs, which are part of a JKQTPlotter plot and w...">
<polygon fill="none" stroke="black" points="62.5,-303.5 62.5,-324.5 151.5,-324.5 151.5,-303.5 62.5,-303.5"/>
<text text-anchor="middle" x="107" y="-310.9" font-family="Helvetica,sans-Serif" font-size="12.00">JKQTPGraph</text>
</a>
</g>
</g>
<!-- Node4&#45;&gt;Node3 -->
<g id="edge3" class="edge">
<title>Node4&#45;&gt;Node3</title>
<path fill="none" stroke="midnightblue" d="M107,-293.16C107,-284.16 107,-273.92 107,-266.64"/>
<polygon fill="midnightblue" stroke="midnightblue" points="103.5,-293.25 107,-303.25 110.5,-293.25 103.5,-293.25"/>
</g>
<!-- Node5 -->
<g id="node5" class="node">
<title>Node5</title>
<g id="a_node5"><a xlink:href="class_j_k_q_t_p_plot_element.html" target="_top" xlink:title="this virtual base class of every element, which is part of a JKQTPlotter plot and may appear in its k...">
<polygon fill="none" stroke="black" points="44.5,-361.5 44.5,-382.5 169.5,-382.5 169.5,-361.5 44.5,-361.5"/>
<text text-anchor="middle" x="107" y="-368.9" font-family="Helvetica,sans-Serif" font-size="12.00">JKQTPPlotElement</text>
</a>
</g>
</g>
<!-- Node5&#45;&gt;Node4 -->
<g id="edge4" class="edge">
<title>Node5&#45;&gt;Node4</title>
<path fill="none" stroke="midnightblue" d="M107,-351.16C107,-342.16 107,-331.92 107,-324.64"/>
<polygon fill="midnightblue" stroke="midnightblue" points="103.5,-351.25 107,-361.25 110.5,-351.25 103.5,-351.25"/>
</g>
<!-- Node6 -->
<g id="node6" class="node">
<title>Node6</title>
<g id="a_node6"><a xlink:title=" ">
<polygon fill="none" stroke="black" points="74.5,-419.5 74.5,-440.5 139.5,-440.5 139.5,-419.5 74.5,-419.5"/>
<text text-anchor="middle" x="107" y="-426.9" font-family="Helvetica,sans-Serif" font-size="12.00">QObject</text>
</a>
</g>
</g>
<!-- Node6&#45;&gt;Node5 -->
<g id="edge5" class="edge">
<title>Node6&#45;&gt;Node5</title>
<path fill="none" stroke="midnightblue" d="M107,-409.16C107,-400.16 107,-389.92 107,-382.64"/>
<polygon fill="midnightblue" stroke="midnightblue" points="103.5,-409.25 107,-419.25 110.5,-409.25 103.5,-409.25"/>
</g>
<!-- Node7 -->
<g id="node7" class="node">
<title>Node7</title>
<g id="a_node7"><a xlink:href="class_j_k_q_t_p_graph_line_and_fill_style_mixin.html" target="_top" xlink:title="This Mix&#45;In class provides setter/getter methods, storage and other facilities for the graph line and...">
<polygon fill="none" stroke="black" points="203,-174.5 203,-208.5 385,-208.5 385,-174.5 203,-174.5"/>
<text text-anchor="start" x="211" y="-194.9" font-family="Helvetica,sans-Serif" font-size="12.00">JKQTPGraphLineAndFillStyle</text>
<text text-anchor="middle" x="294" y="-181.9" font-family="Helvetica,sans-Serif" font-size="12.00">Mixin</text>
</a>
</g>
</g>
<!-- Node7&#45;&gt;Node1 -->
<g id="edge6" class="edge">
<title>Node7&#45;&gt;Node1</title>
<path fill="none" stroke="midnightblue" d="M261.23,-168.71C245.27,-158.1 226.89,-145.88 214.46,-137.62"/>
<polygon fill="midnightblue" stroke="midnightblue" points="259.53,-171.78 269.79,-174.4 263.4,-165.95 259.53,-171.78"/>
</g>
<!-- Node8 -->
<g id="node8" class="node">
<title>Node8</title>
<g id="a_node8"><a xlink:href="class_j_k_q_t_p_graph_fill_style_mixin.html" target="_top" xlink:title="This Mix&#45;In class provides setter/getter methods, storage and other facilities for the graph filling ...">
<polygon fill="none" stroke="black" points="195,-245.5 195,-266.5 359,-266.5 359,-245.5 195,-245.5"/>
<text text-anchor="middle" x="277" y="-252.9" font-family="Helvetica,sans-Serif" font-size="12.00">JKQTPGraphFillStyleMixin</text>
</a>
</g>
</g>
<!-- Node8&#45;&gt;Node7 -->
<g id="edge7" class="edge">
<title>Node8&#45;&gt;Node7</title>
<path fill="none" stroke="midnightblue" d="M282.34,-235.36C284.67,-226.8 287.37,-216.89 289.58,-208.76"/>
<polygon fill="midnightblue" stroke="midnightblue" points="278.9,-234.67 279.66,-245.23 285.66,-236.5 278.9,-234.67"/>
</g>
<!-- Node9 -->
<g id="node9" class="node">
<title>Node9</title>
<g id="a_node9"><a xlink:href="class_j_k_q_t_p_graph_line_style_mixin.html" target="_top" xlink:title="This Mix&#45;In class provides setter/getter methods, storage and other facilities for the graph line sty...">
<polygon fill="none" stroke="black" points="377,-245.5 377,-266.5 551,-266.5 551,-245.5 377,-245.5"/>
<text text-anchor="middle" x="464" y="-252.9" font-family="Helvetica,sans-Serif" font-size="12.00">JKQTPGraphLineStyleMixin</text>
</a>
</g>
</g>
<!-- Node9&#45;&gt;Node7 -->
<g id="edge8" class="edge">
<title>Node9&#45;&gt;Node7</title>
<path fill="none" stroke="midnightblue" d="M428.21,-241.84C401.84,-232.15 365.83,-218.91 337.75,-208.59"/>
<polygon fill="midnightblue" stroke="midnightblue" points="427.22,-245.21 437.81,-245.37 429.63,-238.64 427.22,-245.21"/>
</g>
<!-- Node11 -->
<g id="node11" class="node">
<title>Node11</title>
<g id="a_node11"><a xlink:href="class_j_k_q_t_p_filled_curve_x_error_graph.html" target="_top" xlink:title="This implements filled curve plots with y errors where the area is filled between the plot line and t...">
<polygon fill="none" stroke="black" points="0,-0.5 0,-21.5 192,-21.5 192,-0.5 0,-0.5"/>
<text text-anchor="middle" x="96" y="-7.9" font-family="Helvetica,sans-Serif" font-size="12.00">JKQTPFilledCurveXErrorGraph</text>
</a>
</g>
</g>
<!-- Node10&#45;&gt;Node11 -->
<g id="edge10" class="edge">
<title>Node10&#45;&gt;Node11</title>
<path fill="none" stroke="midnightblue" d="M105.11,-48.45C102.85,-39.38 100.25,-29 98.41,-21.64"/>
<polygon fill="midnightblue" stroke="midnightblue" points="101.74,-49.39 107.56,-58.25 108.53,-47.7 101.74,-49.39"/>
</g>
<!-- Node13 -->
<g id="node13" class="node">
<title>Node13</title>
<g id="a_node13"><a xlink:href="class_j_k_q_t_p_filled_curve_y_error_graph.html" target="_top" xlink:title="This implements filled curve plots with y errors where the area is filled between the plot line and t...">
<polygon fill="none" stroke="black" points="210.5,-0.5 210.5,-21.5 401.5,-21.5 401.5,-0.5 210.5,-0.5"/>
<text text-anchor="middle" x="306" y="-7.9" font-family="Helvetica,sans-Serif" font-size="12.00">JKQTPFilledCurveYErrorGraph</text>
</a>
</g>
</g>
<!-- Node12&#45;&gt;Node13 -->
<g id="edge12" class="edge">
<title>Node12&#45;&gt;Node13</title>
<path fill="none" stroke="midnightblue" d="M300.83,-48.16C302.12,-39.16 303.58,-28.92 304.62,-21.64"/>
<polygon fill="midnightblue" stroke="midnightblue" points="297.34,-47.85 299.39,-58.25 304.27,-48.84 297.34,-47.85"/>
</g>
</g>
</svg>
