<?xml version="1.0" encoding="UTF-8" standalone="no"?>
<!DOCTYPE svg PUBLIC "-//W3C//DTD SVG 1.1//EN"
 "http://www.w3.org/Graphics/SVG/1.1/DTD/svg11.dtd">
<!-- Generated by graphviz version 2.43.0 (0)
 -->
<!-- Title: JKQTPHorizontalRange Pages: 1 -->
<svg width="2778pt" height="703pt"
 viewBox="0.00 0.00 2778.00 703.00" xmlns="http://www.w3.org/2000/svg" xmlns:xlink="http://www.w3.org/1999/xlink">
<g id="graph0" class="graph" transform="scale(1 1) rotate(0) translate(4 699)">
<title>JKQTPHorizontalRange</title>
<!-- Node1 -->
<g id="node1" class="node">
<title>Node1</title>
<g id="a_node1"><a xlink:title="simply marks a range (and possibly a centerline) in a plot. This may be used to display e....">
<polygon fill="#bfbfbf" stroke="black" points="2625,-40.5 2625,-61.5 2770,-61.5 2770,-40.5 2625,-40.5"/>
<text text-anchor="middle" x="2697.5" y="-47.9" font-family="FreeSans" font-size="12.00">JKQTPHorizontalRange</text>
</a>
</g>
</g>
<!-- Node2 -->
<g id="node2" class="node">
<title>Node2</title>
<g id="a_node2"><a xlink:href="class_j_k_q_t_p_range_base.html" target="_top" xlink:title="simply marks a range (and possibly a centerline) in a plot. This may be used to display e....">
<polygon fill="none" stroke="black" points="2462,-40.5 2462,-61.5 2581,-61.5 2581,-40.5 2462,-40.5"/>
<text text-anchor="middle" x="2521.5" y="-47.9" font-family="FreeSans" font-size="12.00">JKQTPRangeBase</text>
</a>
</g>
</g>
<!-- Node2&#45;&gt;Node1 -->
<g id="edge1" class="edge">
<title>Node2&#45;&gt;Node1</title>
<path fill="none" stroke="midnightblue" d="M2591.41,-51C2602.45,-51 2613.89,-51 2624.99,-51"/>
<polygon fill="midnightblue" stroke="midnightblue" points="2591.41,-47.5 2581.41,-51 2591.41,-54.5 2591.41,-47.5"/>
</g>
<!-- Node3 -->
<g id="node3" class="node">
<title>Node3</title>
<g id="a_node3"><a xlink:href="class_j_k_q_t_p_plot_element.html" target="_top" xlink:title="this virtual base class of every element, which is part of a JKQTPlotter plot and may appear in its k...">
<polygon fill="none" stroke="black" points="2262,-169.5 2262,-190.5 2380,-190.5 2380,-169.5 2262,-169.5"/>
<text text-anchor="middle" x="2321" y="-176.9" font-family="FreeSans" font-size="12.00">JKQTPPlotElement</text>
</a>
</g>
</g>
<!-- Node3&#45;&gt;Node2 -->
<g id="edge2" class="edge">
<title>Node3&#45;&gt;Node2</title>
<path fill="none" stroke="midnightblue" d="M2346.88,-163.83C2388.16,-137.01 2469.67,-84.03 2504.31,-61.52"/>
<polygon fill="midnightblue" stroke="midnightblue" points="2344.72,-161.06 2338.24,-169.44 2348.54,-166.93 2344.72,-161.06"/>
</g>
<!-- Node4 -->
<g id="node4" class="node">
<title>Node4</title>
<g id="a_node4"><a xlink:title=" ">
<polygon fill="none" stroke="black" points="1414,-257.5 1414,-278.5 1476,-278.5 1476,-257.5 1414,-257.5"/>
<text text-anchor="middle" x="1445" y="-264.9" font-family="FreeSans" font-size="12.00">QObject</text>
</a>
</g>
</g>
<!-- Node4&#45;&gt;Node3 -->
<g id="edge3" class="edge">
<title>Node4&#45;&gt;Node3</title>
<path fill="none" stroke="midnightblue" d="M1486.35,-261.98C1506.62,-259.06 1531.58,-255.62 1554,-253 1817.71,-222.14 2133.65,-195.2 2261.77,-184.69"/>
<polygon fill="midnightblue" stroke="midnightblue" points="1485.61,-258.55 1476.21,-263.45 1486.61,-265.47 1485.61,-258.55"/>
</g>
<!-- Node5 -->
<g id="node5" class="node">
<title>Node5</title>
<g id="a_node5"><a xlink:href="class_j_k_q_t_base_plotter.html" target="_top" xlink:title="base class for 2D plotter classes (used by the plotter widget JKQTPlotter)">
<polygon fill="none" stroke="black" points="1964,-352.5 1964,-373.5 2073,-373.5 2073,-352.5 1964,-352.5"/>
<text text-anchor="middle" x="2018.5" y="-359.9" font-family="FreeSans" font-size="12.00">JKQTBasePlotter</text>
</a>
</g>
</g>
<!-- Node4&#45;&gt;Node5 -->
<g id="edge5" class="edge">
<title>Node4&#45;&gt;Node5</title>
<path fill="none" stroke="midnightblue" d="M1483.77,-282.21C1553.9,-307.73 1709.51,-360.31 1846,-378 1884.79,-383.03 1895.04,-381.47 1934,-378 1944.71,-377.05 1956.1,-375.42 1966.91,-373.57"/>
<polygon fill="midnightblue" stroke="midnightblue" points="1484.65,-278.81 1474.06,-278.65 1482.24,-285.38 1484.65,-278.81"/>
</g>
<!-- Node16 -->
<g id="node16" class="node">
<title>Node16</title>
<g id="a_node16"><a xlink:href="class_j_k_q_t_math_text.html" target="_top" xlink:title="this class parses a LaTeX string and can then draw the contained text/equation onto a QPainter">
<polygon fill="none" stroke="black" points="1711.5,-293.5 1711.5,-314.5 1809.5,-314.5 1809.5,-293.5 1711.5,-293.5"/>
<text text-anchor="middle" x="1760.5" y="-300.9" font-family="FreeSans" font-size="12.00">JKQTMathText</text>
</a>
</g>
</g>
<!-- Node4&#45;&gt;Node16 -->
<g id="edge21" class="edge">
<title>Node4&#45;&gt;Node16</title>
<path fill="none" stroke="midnightblue" d="M1486.23,-272.62C1543.8,-279.23 1649.53,-291.37 1711.24,-298.46"/>
<polygon fill="midnightblue" stroke="midnightblue" points="1486.39,-269.12 1476.06,-271.45 1485.6,-276.07 1486.39,-269.12"/>
</g>
<!-- Node21 -->
<g id="node21" class="node">
<title>Node21</title>
<g id="a_node21"><a xlink:href="class_j_k_q_t_p_coordinate_axis.html" target="_top" xlink:title="this virtual class is the base for any type of coordinate axis, to be drawn by JKQTBasePlotter.">
<polygon fill="none" stroke="black" points="2252.5,-266.5 2252.5,-287.5 2389.5,-287.5 2389.5,-266.5 2252.5,-266.5"/>
<text text-anchor="middle" x="2321" y="-273.9" font-family="FreeSans" font-size="12.00">JKQTPCoordinateAxis</text>
</a>
</g>
</g>
<!-- Node4&#45;&gt;Node21 -->
<g id="edge30" class="edge">
<title>Node4&#45;&gt;Node21</title>
<path fill="none" stroke="midnightblue" d="M1486.35,-266.01C1589.16,-261.06 1869.34,-248.27 2103,-244 2148.77,-243.16 2160.68,-237.57 2206,-244 2235.99,-248.25 2269.13,-258.5 2291.91,-266.46"/>
<polygon fill="midnightblue" stroke="midnightblue" points="1485.93,-262.53 1476.11,-266.51 1486.27,-269.52 1485.93,-262.53"/>
</g>
<!-- Node5&#45;&gt;Node3 -->
<g id="edge4" class="edge">
<title>Node5&#45;&gt;Node3</title>
<path fill="none" stroke="#9a32cd" stroke-dasharray="5,2" d="M2063.68,-347.94C2071.68,-343.53 2079.28,-337.96 2085,-331 2104.84,-306.84 2082.1,-286.25 2103,-263 2143.98,-217.4 2212.8,-196.69 2261.95,-187.39"/>
<polygon fill="#9a32cd" stroke="#9a32cd" points="2061.98,-344.87 2054.56,-352.43 2065.07,-351.15 2061.98,-344.87"/>
<text text-anchor="middle" x="2154.5" y="-266.4" font-family="FreeSans" font-size="12.00"> parent</text>
</g>
<!-- Node5&#45;&gt;Node5 -->
<g id="edge41" class="edge">
<title>Node5&#45;&gt;Node5</title>
<path fill="none" stroke="#9a32cd" stroke-dasharray="5,2" d="M1994.91,-383.43C1996.73,-388.35 2004.59,-392 2018.5,-392 2040.75,-392 2047.53,-382.65 2038.84,-373.71"/>
<polygon fill="#9a32cd" stroke="#9a32cd" points="1998.31,-384.3 1998.16,-373.71 1991.67,-382.08 1998.31,-384.3"/>
<text text-anchor="middle" x="2018.5" y="-408.4" font-family="FreeSans" font-size="12.00"> masterPlotterX</text>
<text text-anchor="middle" x="2018.5" y="-395.4" font-family="FreeSans" font-size="12.00">masterPlotterY</text>
</g>
<!-- Node18 -->
<g id="node18" class="node">
<title>Node18</title>
<g id="a_node18"><a xlink:href="class_j_k_q_t_p_graphs_model.html" target="_top" xlink:title="data model with all plots ina JKQTBasePlotter (+ allows to switch them visible/invisible)">
<polygon fill="none" stroke="black" points="2257,-366.5 2257,-387.5 2385,-387.5 2385,-366.5 2257,-366.5"/>
<text text-anchor="middle" x="2321" y="-373.9" font-family="FreeSans" font-size="12.00">JKQTPGraphsModel</text>
</a>
</g>
</g>
<!-- Node5&#45;&gt;Node18 -->
<g id="edge27" class="edge">
<title>Node5&#45;&gt;Node18</title>
<path fill="none" stroke="#9a32cd" stroke-dasharray="5,2" d="M2083.56,-372.21C2090.11,-372.92 2096.68,-373.54 2103,-374 2154.67,-377.75 2213.44,-378.33 2256.77,-378.08"/>
<polygon fill="#9a32cd" stroke="#9a32cd" points="2083.64,-368.7 2073.31,-371.03 2082.84,-375.65 2083.64,-368.7"/>
<text text-anchor="middle" x="2154.5" y="-380.4" font-family="FreeSans" font-size="12.00"> m_plotter</text>
</g>
<!-- Node5&#45;&gt;Node21 -->
<g id="edge31" class="edge">
<title>Node5&#45;&gt;Node21</title>
<path fill="none" stroke="#9a32cd" stroke-dasharray="5,2" d="M2059.5,-348.1C2068.55,-343.53 2077.64,-337.85 2085,-331 2096.66,-320.14 2089.63,-308.67 2103,-300 2126.96,-284.47 2197.95,-279.25 2252.27,-277.59"/>
<polygon fill="#9a32cd" stroke="#9a32cd" points="2057.74,-345.06 2050.16,-352.47 2060.7,-351.4 2057.74,-345.06"/>
<text text-anchor="middle" x="2154.5" y="-303.4" font-family="FreeSans" font-size="12.00"> parent</text>
</g>
<!-- Node6 -->
<g id="node6" class="node">
<title>Node6</title>
<g id="a_node6"><a xlink:href="class_j_k_q_t_base_plotter_style.html" target="_top" xlink:title="Support Class for JKQTBasePlotter, which summarizes all properties that define the visual styling of ...">
<polygon fill="none" stroke="black" points="1693,-486.5 1693,-507.5 1828,-507.5 1828,-486.5 1693,-486.5"/>
<text text-anchor="middle" x="1760.5" y="-493.9" font-family="FreeSans" font-size="12.00">JKQTBasePlotterStyle</text>
</a>
</g>
</g>
<!-- Node6&#45;&gt;Node5 -->
<g id="edge6" class="edge">
<title>Node6&#45;&gt;Node5</title>
<path fill="none" stroke="#9a32cd" stroke-dasharray="5,2" d="M1803.77,-483.03C1839.58,-470.41 1891.7,-450.13 1934,-426 1961.29,-410.43 1989.83,-387.13 2005.47,-373.66"/>
<polygon fill="#9a32cd" stroke="#9a32cd" points="1802.42,-479.8 1794.12,-486.39 1804.72,-486.41 1802.42,-479.8"/>
<text text-anchor="middle" x="1890" y="-469.4" font-family="FreeSans" font-size="12.00"> plotterStyle</text>
</g>
<!-- Node7 -->
<g id="node7" class="node">
<title>Node7</title>
<g id="a_node7"><a xlink:href="class_j_k_q_t_p_key_style.html" target="_top" xlink:title="Support Class for JKQTBasePlotter, which summarizes all properties that define the visual styling of ...">
<polygon fill="none" stroke="black" points="1393.5,-535.5 1393.5,-556.5 1496.5,-556.5 1496.5,-535.5 1393.5,-535.5"/>
<text text-anchor="middle" x="1445" y="-542.9" font-family="FreeSans" font-size="12.00">JKQTPKeyStyle</text>
</a>
</g>
</g>
<!-- Node7&#45;&gt;Node6 -->
<g id="edge7" class="edge">
<title>Node7&#45;&gt;Node6</title>
<path fill="none" stroke="#9a32cd" stroke-dasharray="5,2" d="M1507.14,-543.67C1553.58,-541.06 1618.8,-535.54 1675,-524 1694.31,-520.03 1715.44,-513.28 1731.73,-507.53"/>
<polygon fill="#9a32cd" stroke="#9a32cd" points="1506.74,-540.19 1496.94,-544.22 1507.12,-547.18 1506.74,-540.19"/>
<text text-anchor="middle" x="1614.5" y="-543.4" font-family="FreeSans" font-size="12.00"> keyStyle</text>
</g>
<!-- Node8 -->
<g id="node8" class="node">
<title>Node8</title>
<g id="a_node8"><a xlink:href="class_j_k_q_t_p_coordinate_axis_style.html" target="_top" xlink:title="Support Class for JKQTPCoordinateAxis, which summarizes all properties that define the visual styling...">
<polygon fill="none" stroke="black" points="1060,-426.5 1060,-447.5 1224,-447.5 1224,-426.5 1060,-426.5"/>
<text text-anchor="middle" x="1142" y="-433.9" font-family="FreeSans" font-size="12.00">JKQTPCoordinateAxisStyle</text>
</a>
</g>
</g>
<!-- Node8&#45;&gt;Node6 -->
<g id="edge8" class="edge">
<title>Node8&#45;&gt;Node6</title>
<path fill="none" stroke="#9a32cd" stroke-dasharray="5,2" d="M1234.28,-434.31C1314.17,-433.16 1433.2,-434.32 1536,-447 1602.69,-455.23 1678.73,-474.38 1722.71,-486.45"/>
<polygon fill="#9a32cd" stroke="#9a32cd" points="1234.2,-430.82 1224.25,-434.48 1234.31,-437.81 1234.2,-430.82"/>
<text text-anchor="middle" x="1445" y="-463.4" font-family="FreeSans" font-size="12.00"> xAxisStyle</text>
<text text-anchor="middle" x="1445" y="-450.4" font-family="FreeSans" font-size="12.00">yAxisStyle</text>
</g>
<!-- Node10 -->
<g id="node10" class="node">
<title>Node10</title>
<g id="a_node10"><a xlink:href="class_j_k_q_t_p_colorbar_coordinate_axis_style.html" target="_top" xlink:title="Support Class for JKQTPCoordinateAxis, which summarizes all properties that define the visual styling...">
<polygon fill="none" stroke="black" points="1354,-482 1354,-516 1536,-516 1536,-482 1354,-482"/>
<text text-anchor="start" x="1362" y="-502.4" font-family="FreeSans" font-size="12.00">JKQTPColorbarCoordinateAxis</text>
<text text-anchor="middle" x="1445" y="-489.4" font-family="FreeSans" font-size="12.00">Style</text>
</a>
</g>
</g>
<!-- Node8&#45;&gt;Node10 -->
<g id="edge11" class="edge">
<title>Node8&#45;&gt;Node10</title>
<path fill="none" stroke="midnightblue" d="M1204.04,-449.57C1249.34,-458.9 1311.63,-471.73 1361.39,-481.98"/>
<polygon fill="midnightblue" stroke="midnightblue" points="1204.56,-446.11 1194.06,-447.52 1203.15,-452.96 1204.56,-446.11"/>
</g>
<!-- Node8&#45;&gt;Node21 -->
<g id="edge32" class="edge">
<title>Node8&#45;&gt;Node21</title>
<path fill="none" stroke="#9a32cd" stroke-dasharray="5,2" d="M1152.03,-417.12C1182.77,-352.73 1290.13,-154 1444,-154 1444,-154 1444,-154 1891,-154 2053.32,-154 2237.27,-236.37 2298.75,-266.3"/>
<polygon fill="#9a32cd" stroke="#9a32cd" points="1148.82,-415.71 1147.75,-426.25 1155.16,-418.68 1148.82,-415.71"/>
<text text-anchor="middle" x="1760.5" y="-157.4" font-family="FreeSans" font-size="12.00"> axisStyle</text>
</g>
<!-- Node9 -->
<g id="node9" class="node">
<title>Node9</title>
<g id="a_node9"><a xlink:href="class_j_k_q_t_p_grid_style.html" target="_top" xlink:title="Support Class for JKQTPCoordinateAxis, and summarizes all properties that define the visual styling o...">
<polygon fill="none" stroke="black" points="783.5,-426.5 783.5,-447.5 887.5,-447.5 887.5,-426.5 783.5,-426.5"/>
<text text-anchor="middle" x="835.5" y="-433.9" font-family="FreeSans" font-size="12.00">JKQTPGridStyle</text>
</a>
</g>
</g>
<!-- Node9&#45;&gt;Node8 -->
<g id="edge9" class="edge">
<title>Node9&#45;&gt;Node8</title>
<path fill="none" stroke="#9a32cd" stroke-dasharray="5,2" d="M898.06,-437C944.67,-437 1009.11,-437 1059.91,-437"/>
<polygon fill="#9a32cd" stroke="#9a32cd" points="897.81,-433.5 887.81,-437 897.81,-440.5 897.81,-433.5"/>
<text text-anchor="middle" x="986.5" y="-453.4" font-family="FreeSans" font-size="12.00"> majorGridStyle</text>
<text text-anchor="middle" x="986.5" y="-440.4" font-family="FreeSans" font-size="12.00">minorGridStyle</text>
</g>
<!-- Node10&#45;&gt;Node6 -->
<g id="edge10" class="edge">
<title>Node10&#45;&gt;Node6</title>
<path fill="none" stroke="#9a32cd" stroke-dasharray="5,2" d="M1546.28,-498.06C1548.88,-498.04 1551.46,-498.02 1554,-498 1600.38,-497.67 1652.65,-497.42 1692.86,-497.25"/>
<polygon fill="#9a32cd" stroke="#9a32cd" points="1546.13,-494.56 1536.16,-498.14 1546.19,-501.56 1546.13,-494.56"/>
<text text-anchor="middle" x="1614.5" y="-514.4" font-family="FreeSans" font-size="12.00"> rightColorbarAxisStyle</text>
<text text-anchor="middle" x="1614.5" y="-501.4" font-family="FreeSans" font-size="12.00">topColorbarAxisStyle</text>
</g>
<!-- Node11 -->
<g id="node11" class="node">
<title>Node11</title>
<g id="a_node11"><a xlink:href="class_j_k_q_t_graphs_base_style.html" target="_top" xlink:title="Support Class for JKQTBasePlotter, which summarizes all properties that define the visual styling of ...">
<polygon fill="none" stroke="black" points="1374.5,-575.5 1374.5,-596.5 1515.5,-596.5 1515.5,-575.5 1374.5,-575.5"/>
<text text-anchor="middle" x="1445" y="-582.9" font-family="FreeSans" font-size="12.00">JKQTGraphsBaseStyle</text>
</a>
</g>
</g>
<!-- Node11&#45;&gt;Node6 -->
<g id="edge12" class="edge">
<title>Node11&#45;&gt;Node6</title>
<path fill="none" stroke="#9a32cd" stroke-dasharray="5,2" d="M1525.58,-585.42C1570.73,-582.78 1627.53,-575.5 1675,-557 1704.5,-545.5 1733.38,-521.45 1748.55,-507.55"/>
<polygon fill="#9a32cd" stroke="#9a32cd" points="1525.34,-581.93 1515.54,-585.94 1525.71,-588.92 1525.34,-581.93"/>
<text text-anchor="middle" x="1614.5" y="-585.4" font-family="FreeSans" font-size="12.00"> graphsStyle</text>
</g>
<!-- Node12 -->
<g id="node12" class="node">
<title>Node12</title>
<g id="a_node12"><a xlink:href="class_j_k_q_t_graphs_specific_style_properties.html" target="_top" xlink:title="Support Class for JKQTBasePlotter, which summarizes all properties that define the visual styling of ...">
<polygon fill="none" stroke="black" points="370,-575.5 370,-596.5 579,-596.5 579,-575.5 370,-575.5"/>
<text text-anchor="middle" x="474.5" y="-582.9" font-family="FreeSans" font-size="12.00">JKQTGraphsSpecificStyleProperties</text>
</a>
</g>
</g>
<!-- Node12&#45;&gt;Node11 -->
<g id="edge13" class="edge">
<title>Node12&#45;&gt;Node11</title>
<path fill="none" stroke="#9a32cd" stroke-dasharray="5,2" d="M589.21,-586C791.67,-586 1208.85,-586 1374.24,-586"/>
<polygon fill="#9a32cd" stroke="#9a32cd" points="589.15,-582.5 579.15,-586 589.15,-589.5 589.15,-582.5"/>
<text text-anchor="middle" x="986.5" y="-641.4" font-family="FreeSans" font-size="12.00"> barchartStyle</text>
<text text-anchor="middle" x="986.5" y="-628.4" font-family="FreeSans" font-size="12.00">boxplotStyle</text>
<text text-anchor="middle" x="986.5" y="-615.4" font-family="FreeSans" font-size="12.00">defaultGraphStyle</text>
<text text-anchor="middle" x="986.5" y="-602.4" font-family="FreeSans" font-size="12.00">filledStyle</text>
<text text-anchor="middle" x="986.5" y="-589.4" font-family="FreeSans" font-size="12.00">impulseStyle</text>
</g>
<!-- Node14 -->
<g id="node14" class="node">
<title>Node14</title>
<g id="a_node14"><a xlink:href="class_j_k_q_t_geometric_specific_style_properties.html" target="_top" xlink:title="Support Class for JKQTBasePlotter, which summarizes all properties that define the visual styling of ...">
<polygon fill="none" stroke="black" points="750,-523 750,-557 921,-557 921,-523 750,-523"/>
<text text-anchor="start" x="758" y="-543.4" font-family="FreeSans" font-size="12.00">JKQTGeometricSpecificStyle</text>
<text text-anchor="middle" x="835.5" y="-530.4" font-family="FreeSans" font-size="12.00">Properties</text>
</a>
</g>
</g>
<!-- Node12&#45;&gt;Node14 -->
<g id="edge16" class="edge">
<title>Node12&#45;&gt;Node14</title>
<path fill="none" stroke="midnightblue" d="M567.8,-574.17C623.91,-566.98 695.03,-557.87 749.72,-550.86"/>
<polygon fill="midnightblue" stroke="midnightblue" points="567.34,-570.7 557.86,-575.45 568.23,-577.65 567.34,-570.7"/>
</g>
<!-- Node13 -->
<g id="node13" class="node">
<title>Node13</title>
<g id="a_node13"><a xlink:href="struct_j_k_q_t_p_color_derivation_mode.html" target="_top" xlink:title="Specifies how a fill&#45;color is derived from a given color.">
<polygon fill="none" stroke="black" points="0,-615.5 0,-636.5 168,-636.5 168,-615.5 0,-615.5"/>
<text text-anchor="middle" x="84" y="-622.9" font-family="FreeSans" font-size="12.00">JKQTPColorDerivationMode</text>
</a>
</g>
</g>
<!-- Node13&#45;&gt;Node12 -->
<g id="edge14" class="edge">
<title>Node13&#45;&gt;Node12</title>
<path fill="none" stroke="#9a32cd" stroke-dasharray="5,2" d="M114.68,-611.23C134.37,-602.27 161.08,-591.69 186,-587 246.21,-575.67 314.78,-574.98 369.85,-577.32"/>
<polygon fill="#9a32cd" stroke="#9a32cd" points="113.2,-608.06 105.62,-615.46 116.16,-614.4 113.2,-608.06"/>
<text text-anchor="middle" x="269" y="-642.4" font-family="FreeSans" font-size="12.00"> errorColorDerivationMode</text>
<text text-anchor="middle" x="269" y="-629.4" font-family="FreeSans" font-size="12.00">errorFillColorDerivationMode</text>
<text text-anchor="middle" x="269" y="-616.4" font-family="FreeSans" font-size="12.00">fillColorDerivationMode</text>
<text text-anchor="middle" x="269" y="-603.4" font-family="FreeSans" font-size="12.00">graphColorDerivationMode</text>
<text text-anchor="middle" x="269" y="-590.4" font-family="FreeSans" font-size="12.00">symbolFillColorDerivationMode</text>
</g>
<!-- Node15 -->
<g id="node15" class="node">
<title>Node15</title>
<g id="a_node15"><a xlink:href="class_j_k_q_t_annotations_specific_style_properties.html" target="_top" xlink:title="Support Class for JKQTBasePlotter, which summarizes all properties that define the visual styling of ...">
<polygon fill="none" stroke="black" points="1052,-615 1052,-649 1232,-649 1232,-615 1052,-615"/>
<text text-anchor="start" x="1060" y="-635.4" font-family="FreeSans" font-size="12.00">JKQTAnnotationsSpecificStyle</text>
<text text-anchor="middle" x="1142" y="-622.4" font-family="FreeSans" font-size="12.00">Properties</text>
</a>
</g>
</g>
<!-- Node13&#45;&gt;Node15 -->
<g id="edge19" class="edge">
<title>Node13&#45;&gt;Node15</title>
<path fill="none" stroke="#9a32cd" stroke-dasharray="5,2" d="M126.96,-639.33C144.94,-644.37 166.3,-649.5 186,-652 559.9,-699.35 658.72,-686.77 1034,-652 1041.9,-651.27 1050.09,-650.24 1058.26,-649.03"/>
<polygon fill="#9a32cd" stroke="#9a32cd" points="127.92,-635.96 117.35,-636.55 125.98,-642.69 127.92,-635.96"/>
<text text-anchor="middle" x="664.5" y="-685.4" font-family="FreeSans" font-size="12.00"> textColorDerivationMode</text>
</g>
<!-- Node14&#45;&gt;Node11 -->
<g id="edge15" class="edge">
<title>Node14&#45;&gt;Node11</title>
<path fill="none" stroke="#9a32cd" stroke-dasharray="5,2" d="M931.52,-539.51C964.04,-539.73 1000.62,-540.4 1034,-542 1168.73,-548.46 1202.2,-554.97 1336,-572 1348.38,-573.58 1361.55,-575.27 1374.29,-576.92"/>
<polygon fill="#9a32cd" stroke="#9a32cd" points="931.13,-536.01 921.12,-539.45 931.1,-543.01 931.13,-536.01"/>
<text text-anchor="middle" x="1142" y="-561.4" font-family="FreeSans" font-size="12.00"> geometricStyle</text>
</g>
<!-- Node14&#45;&gt;Node15 -->
<g id="edge18" class="edge">
<title>Node14&#45;&gt;Node15</title>
<path fill="none" stroke="midnightblue" d="M931.57,-545.06C964.68,-548.88 1001.63,-555.52 1034,-567 1065.75,-578.26 1098.28,-599.72 1119,-614.89"/>
<polygon fill="midnightblue" stroke="midnightblue" points="931.74,-541.56 921.42,-543.96 930.99,-548.52 931.74,-541.56"/>
</g>
<!-- Node15&#45;&gt;Node11 -->
<g id="edge17" class="edge">
<title>Node15&#45;&gt;Node11</title>
<path fill="none" stroke="#9a32cd" stroke-dasharray="5,2" d="M1242.15,-616.85C1285.73,-610.19 1335.83,-602.53 1375.22,-596.51"/>
<polygon fill="#9a32cd" stroke="#9a32cd" points="1241.44,-613.41 1232.09,-618.39 1242.5,-620.33 1241.44,-613.41"/>
<text text-anchor="middle" x="1293" y="-617.4" font-family="FreeSans" font-size="12.00"> annotationStyle</text>
</g>
<!-- Node16&#45;&gt;Node5 -->
<g id="edge20" class="edge">
<title>Node16&#45;&gt;Node5</title>
<path fill="none" stroke="#9a32cd" stroke-dasharray="5,2" d="M1786.44,-319.86C1802.74,-329.41 1824.85,-340.88 1846,-347 1884.49,-358.15 1929.67,-362.01 1964,-363.16"/>
<polygon fill="#9a32cd" stroke="#9a32cd" points="1787.94,-316.68 1777.56,-314.51 1784.32,-322.67 1787.94,-316.68"/>
<text text-anchor="middle" x="1890" y="-364.4" font-family="FreeSans" font-size="12.00"> mathText</text>
</g>
<!-- Node17 -->
<g id="node17" class="node">
<title>Node17</title>
<g id="a_node17"><a xlink:href="class_j_k_q_t_math_text_node.html" target="_top" xlink:title="subclass representing one node in the syntax tree">
<polygon fill="none" stroke="black" points="1954.5,-269.5 1954.5,-290.5 2082.5,-290.5 2082.5,-269.5 1954.5,-269.5"/>
<text text-anchor="middle" x="2018.5" y="-276.9" font-family="FreeSans" font-size="12.00">JKQTMathTextNode</text>
</a>
</g>
</g>
<!-- Node16&#45;&gt;Node17 -->
<g id="edge23" class="edge">
<title>Node16&#45;&gt;Node17</title>
<path fill="none" stroke="#9a32cd" stroke-dasharray="5,2" d="M1787.03,-288.26C1803.26,-279.2 1825.08,-268.7 1846,-264 1890.64,-253.97 1943.18,-261.64 1978.23,-269.44"/>
<polygon fill="#9a32cd" stroke="#9a32cd" points="1785.08,-285.34 1778.17,-293.37 1788.58,-291.41 1785.08,-285.34"/>
<text text-anchor="middle" x="1890" y="-267.4" font-family="FreeSans" font-size="12.00"> parentMathText</text>
</g>
<!-- Node17&#45;&gt;Node16 -->
<g id="edge22" class="edge">
<title>Node17&#45;&gt;Node16</title>
<path fill="none" stroke="#9a32cd" stroke-dasharray="5,2" d="M1988.07,-294.78C1972.43,-301.81 1952.64,-309.45 1934,-313 1892.46,-320.91 1844.35,-317.38 1809.51,-312.61"/>
<polygon fill="#9a32cd" stroke="#9a32cd" points="1989.63,-297.92 1997.22,-290.52 1986.68,-291.57 1989.63,-297.92"/>
<text text-anchor="middle" x="1890" y="-333.4" font-family="FreeSans" font-size="12.00"> parsedNode</text>
<text text-anchor="middle" x="1890" y="-320.4" font-family="FreeSans" font-size="12.00">unparsedNode</text>
</g>
<!-- Node17&#45;&gt;Node17 -->
<g id="edge24" class="edge">
<title>Node17&#45;&gt;Node17</title>
<path fill="none" stroke="#9a32cd" stroke-dasharray="5,2" d="M1994.91,-300.43C1996.73,-305.35 2004.59,-309 2018.5,-309 2040.75,-309 2047.53,-299.65 2038.84,-290.71"/>
<polygon fill="#9a32cd" stroke="#9a32cd" points="1998.31,-301.3 1998.16,-290.71 1991.67,-299.08 1998.31,-301.3"/>
<text text-anchor="middle" x="2018.5" y="-312.4" font-family="FreeSans" font-size="12.00"> parentNode</text>
</g>
<!-- Node18&#45;&gt;Node5 -->
<g id="edge25" class="edge">
<title>Node18&#45;&gt;Node5</title>
<path fill="none" stroke="#9a32cd" stroke-dasharray="5,2" d="M2246.66,-365.17C2233.17,-363.43 2219.19,-361.92 2206,-361 2160.33,-357.81 2148.77,-360.45 2103,-361 2093.43,-361.11 2083.24,-361.3 2073.4,-361.52"/>
<polygon fill="#9a32cd" stroke="#9a32cd" points="2246.47,-368.68 2256.85,-366.54 2247.4,-361.74 2246.47,-368.68"/>
<text text-anchor="middle" x="2154.5" y="-364.4" font-family="FreeSans" font-size="12.00"> m_plotsModel</text>
</g>
<!-- Node19 -->
<g id="node19" class="node">
<title>Node19</title>
<g id="a_node19"><a xlink:title=" ">
<polygon fill="none" stroke="black" points="1952,-438.5 1952,-459.5 2085,-459.5 2085,-438.5 1952,-438.5"/>
<text text-anchor="middle" x="2018.5" y="-445.9" font-family="FreeSans" font-size="12.00">QAbstractTableModel</text>
</a>
</g>
</g>
<!-- Node19&#45;&gt;Node18 -->
<g id="edge26" class="edge">
<title>Node19&#45;&gt;Node18</title>
<path fill="none" stroke="midnightblue" d="M2073.57,-436.04C2131.44,-422.18 2222.14,-400.45 2275.87,-387.57"/>
<polygon fill="midnightblue" stroke="midnightblue" points="2072.43,-432.72 2063.52,-438.45 2074.06,-439.53 2072.43,-432.72"/>
</g>
<!-- Node20 -->
<g id="node20" class="node">
<title>Node20</title>
<g id="a_node20"><a xlink:href="class_j_k_q_t_p_horizontal_axis.html" target="_top" xlink:title="implements a horizontal axis, based on JKQTPCoordinateAxis (for most of documentation: see JKQTPCoord...">
<polygon fill="none" stroke="black" points="2455,-291.5 2455,-312.5 2588,-312.5 2588,-291.5 2455,-291.5"/>
<text text-anchor="middle" x="2521.5" y="-298.9" font-family="FreeSans" font-size="12.00">JKQTPHorizontalAxis</text>
</a>
</g>
</g>
<!-- Node20&#45;&gt;Node5 -->
<g id="edge28" class="edge">
<title>Node20&#45;&gt;Node5</title>
<path fill="none" stroke="#9a32cd" stroke-dasharray="5,2" d="M2444.69,-311.23C2342.34,-323.69 2162.53,-345.59 2073.12,-356.47"/>
<polygon fill="#9a32cd" stroke="#9a32cd" points="2445.15,-314.7 2454.65,-310.02 2444.3,-307.75 2445.15,-314.7"/>
<text text-anchor="middle" x="2321" y="-341.4" font-family="FreeSans" font-size="12.00"> xAxis</text>
</g>
<!-- Node21&#45;&gt;Node20 -->
<g id="edge29" class="edge">
<title>Node21&#45;&gt;Node20</title>
<path fill="none" stroke="midnightblue" d="M2399.49,-286.33C2412.03,-287.87 2424.88,-289.46 2437,-291 2442.8,-291.74 2448.83,-292.51 2454.87,-293.29"/>
<polygon fill="midnightblue" stroke="midnightblue" points="2399.86,-282.85 2389.51,-285.11 2399.01,-289.8 2399.86,-282.85"/>
</g>
<!-- Node22 -->
<g id="node22" class="node">
<title>Node22</title>
<g id="a_node22"><a xlink:href="class_j_k_q_t_p_vertical_axis.html" target="_top" xlink:title="implements a vertical axis, based on JKQTPCoordinateAxis (for most of documentation: see JKQTPCoordin...">
<polygon fill="none" stroke="black" points="2462.5,-384.5 2462.5,-405.5 2580.5,-405.5 2580.5,-384.5 2462.5,-384.5"/>
<text text-anchor="middle" x="2521.5" y="-391.9" font-family="FreeSans" font-size="12.00">JKQTPVerticalAxis</text>
</a>
</g>
</g>
<!-- Node21&#45;&gt;Node22 -->
<g id="edge34" class="edge">
<title>Node21&#45;&gt;Node22</title>
<path fill="none" stroke="midnightblue" d="M2383.36,-290.55C2395.24,-294.36 2407.3,-299.12 2418,-305 2457.44,-326.66 2494.8,-365.74 2511.44,-384.46"/>
<polygon fill="midnightblue" stroke="midnightblue" points="2384.06,-287.1 2373.47,-287.56 2382.03,-293.8 2384.06,-287.1"/>
</g>
<!-- Node22&#45;&gt;Node5 -->
<g id="edge33" class="edge">
<title>Node22&#45;&gt;Node5</title>
<path fill="none" stroke="#9a32cd" stroke-dasharray="5,2" d="M2452.35,-402.57C2369.07,-410.05 2224.28,-417.34 2103,-394 2081.59,-389.88 2058.43,-380.89 2041.95,-373.65"/>
<polygon fill="#9a32cd" stroke="#9a32cd" points="2452.81,-406.04 2462.44,-401.63 2452.16,-399.07 2452.81,-406.04"/>
<text text-anchor="middle" x="2321" y="-412.4" font-family="FreeSans" font-size="12.00"> yAxis</text>
</g>
<!-- Node23 -->
<g id="node23" class="node">
<title>Node23</title>
<g id="a_node23"><a xlink:href="class_j_k_q_t_p_datastore.html" target="_top" xlink:title="This class manages data columns (with entries of type double ), used by JKQTPlotter/JKQTBasePlotter t...">
<polygon fill="none" stroke="black" points="1707,-56.5 1707,-77.5 1814,-77.5 1814,-56.5 1707,-56.5"/>
<text text-anchor="middle" x="1760.5" y="-63.9" font-family="FreeSans" font-size="12.00">JKQTPDatastore</text>
</a>
</g>
</g>
<!-- Node23&#45;&gt;Node5 -->
<g id="edge35" class="edge">
<title>Node23&#45;&gt;Node5</title>
<path fill="none" stroke="#9a32cd" stroke-dasharray="5,2" d="M1822.97,-81.92C1824.79,-83.46 1826.48,-85.14 1828,-87 1854.88,-119.8 1817.83,-245.29 1846,-277 1872.57,-306.91 1902.25,-271.65 1934,-296 1947.88,-306.64 1939.5,-318.76 1952,-331 1961.49,-340.3 1974.22,-347.35 1985.93,-352.44"/>
<polygon fill="#9a32cd" stroke="#9a32cd" points="1824.54,-78.76 1814.28,-76.12 1820.66,-84.58 1824.54,-78.76"/>
<text text-anchor="middle" x="1890" y="-299.4" font-family="FreeSans" font-size="12.00"> datastore</text>
</g>
<!-- Node25 -->
<g id="node25" class="node">
<title>Node25</title>
<g id="a_node25"><a xlink:href="class_j_k_q_t_p_column.html" target="_top" xlink:title="internally stores information about one data column. See JKQTPDatastore for more information.">
<polygon fill="none" stroke="black" points="1970.5,-61.5 1970.5,-82.5 2066.5,-82.5 2066.5,-61.5 1970.5,-61.5"/>
<text text-anchor="middle" x="2018.5" y="-68.9" font-family="FreeSans" font-size="12.00">JKQTPColumn</text>
</a>
</g>
</g>
<!-- Node23&#45;&gt;Node25 -->
<g id="edge38" class="edge">
<title>Node23&#45;&gt;Node25</title>
<path fill="none" stroke="#9a32cd" stroke-dasharray="5,2" d="M1824.5,-68.23C1869.62,-69.11 1929.43,-70.28 1970.44,-71.08"/>
<polygon fill="#9a32cd" stroke="#9a32cd" points="1824.3,-64.73 1814.23,-68.03 1824.16,-71.72 1824.3,-64.73"/>
<text text-anchor="middle" x="1890" y="-73.4" font-family="FreeSans" font-size="12.00"> datastore</text>
</g>
<!-- Node24 -->
<g id="node24" class="node">
<title>Node24</title>
<g id="a_node24"><a xlink:title=" ">
<polygon fill="none" stroke="black" points="2224,-80.5 2224,-101.5 2418,-101.5 2418,-80.5 2224,-80.5"/>
<text text-anchor="middle" x="2321" y="-87.9" font-family="FreeSans" font-size="12.00">std::unique_ptr&lt; JKQTPColumn &gt;</text>
</a>
</g>
</g>
<!-- Node24&#45;&gt;Node23 -->
<g id="edge36" class="edge">
<title>Node24&#45;&gt;Node23</title>
<path fill="none" stroke="#9a32cd" stroke-dasharray="5,2" d="M2258.25,-78.33C2246.86,-75.94 2235.06,-73.43 2224,-71 2162.08,-57.42 2147.99,-46.16 2085,-39 2026.27,-32.33 2010.95,-34.69 1952,-39 1905.16,-42.42 1852.35,-50.52 1814.24,-57.14"/>
<polygon fill="#9a32cd" stroke="#9a32cd" points="2257.64,-81.78 2268.14,-80.4 2259.07,-74.93 2257.64,-81.78"/>
<text text-anchor="middle" x="2018.5" y="-42.4" font-family="FreeSans" font-size="12.00"> m_invalidColumn</text>
</g>
<!-- Node25&#45;&gt;Node24 -->
<g id="edge37" class="edge">
<title>Node25&#45;&gt;Node24</title>
<path fill="none" stroke="#9a32cd" stroke-dasharray="5,2" d="M2076.8,-71.1C2113.73,-70.97 2162.77,-71.63 2206,-75 2221.94,-76.24 2239.05,-78.27 2255.04,-80.47"/>
<polygon fill="#9a32cd" stroke="#9a32cd" points="2076.69,-67.6 2066.71,-71.15 2076.73,-74.6 2076.69,-67.6"/>
<text text-anchor="middle" x="2154.5" y="-78.4" font-family="FreeSans" font-size="12.00"> ptr</text>
</g>
<!-- Node26 -->
<g id="node26" class="node">
<title>Node26</title>
<g id="a_node26"><a xlink:title=" ">
<polygon fill="none" stroke="black" points="1957.5,-101.5 1957.5,-122.5 2079.5,-122.5 2079.5,-101.5 1957.5,-101.5"/>
<text text-anchor="middle" x="2018.5" y="-108.9" font-family="FreeSans" font-size="12.00">std::unique_ptr&lt; T &gt;</text>
</a>
</g>
</g>
<!-- Node26&#45;&gt;Node24 -->
<g id="edge39" class="edge">
<title>Node26&#45;&gt;Node24</title>
<path fill="none" stroke="orange" stroke-dasharray="5,2" d="M2089.77,-107.09C2129.73,-104.3 2180.34,-100.76 2223.93,-97.71"/>
<polygon fill="orange" stroke="orange" points="2089.32,-103.61 2079.59,-107.8 2089.81,-110.6 2089.32,-103.61"/>
<text text-anchor="middle" x="2154.5" y="-108.4" font-family="FreeSans" font-size="12.00"> &lt; JKQTPColumn &gt;</text>
</g>
<!-- Node27 -->
<g id="node27" class="node">
<title>Node27</title>
<g id="a_node27"><a xlink:title=" ">
<polygon fill="none" stroke="black" points="1746,-96.5 1746,-117.5 1775,-117.5 1775,-96.5 1746,-96.5"/>
<text text-anchor="middle" x="1760.5" y="-103.9" font-family="FreeSans" font-size="12.00">T</text>
</a>
</g>
</g>
<!-- Node27&#45;&gt;Node26 -->
<g id="edge40" class="edge">
<title>Node27&#45;&gt;Node26</title>
<path fill="none" stroke="#9a32cd" stroke-dasharray="5,2" d="M1785.61,-107.47C1824.6,-108.23 1902.65,-109.76 1957.39,-110.83"/>
<polygon fill="#9a32cd" stroke="#9a32cd" points="1785.33,-103.96 1775.26,-107.27 1785.19,-110.96 1785.33,-103.96"/>
<text text-anchor="middle" x="1890" y="-113.4" font-family="FreeSans" font-size="12.00"> ptr</text>
</g>
<!-- Node28 -->
<g id="node28" class="node">
<title>Node28</title>
<g id="a_node28"><a xlink:href="class_j_k_q_t_p_graph_line_style_mixin.html" target="_top" xlink:title="This Mix&#45;In class provides setter/getter methods, storage and other facilities for the graph line sty...">
<polygon fill="none" stroke="black" points="2237.5,-40.5 2237.5,-61.5 2404.5,-61.5 2404.5,-40.5 2237.5,-40.5"/>
<text text-anchor="middle" x="2321" y="-47.9" font-family="FreeSans" font-size="12.00">JKQTPGraphLineStyleMixin</text>
</a>
</g>
</g>
<!-- Node28&#45;&gt;Node2 -->
<g id="edge42" class="edge">
<title>Node28&#45;&gt;Node2</title>
<path fill="none" stroke="midnightblue" d="M2415.13,-51C2431.01,-51 2447.1,-51 2461.76,-51"/>
<polygon fill="midnightblue" stroke="midnightblue" points="2414.74,-47.5 2404.74,-51 2414.74,-54.5 2414.74,-47.5"/>
</g>
<!-- Node29 -->
<g id="node29" class="node">
<title>Node29</title>
<g id="a_node29"><a xlink:href="class_j_k_q_t_p_graph_fill_style_mixin.html" target="_top" xlink:title="This Mix&#45;In class provides setter/getter methods, storage and other facilities for the graph filling ...">
<polygon fill="none" stroke="black" points="2241.5,-0.5 2241.5,-21.5 2400.5,-21.5 2400.5,-0.5 2241.5,-0.5"/>
<text text-anchor="middle" x="2321" y="-7.9" font-family="FreeSans" font-size="12.00">JKQTPGraphFillStyleMixin</text>
</a>
</g>
</g>
<!-- Node29&#45;&gt;Node2 -->
<g id="edge43" class="edge">
<title>Node29&#45;&gt;Node2</title>
<path fill="none" stroke="midnightblue" d="M2384.28,-23.55C2411.3,-28.99 2442.58,-35.3 2468.35,-40.49"/>
<polygon fill="midnightblue" stroke="midnightblue" points="2384.65,-20.05 2374.15,-21.51 2383.27,-26.92 2384.65,-20.05"/>
</g>
</g>
</svg>
