<?xml version="1.0" encoding="UTF-8" standalone="no"?>
<!DOCTYPE svg PUBLIC "-//W3C//DTD SVG 1.1//EN"
 "http://www.w3.org/Graphics/SVG/1.1/DTD/svg11.dtd">
<!-- Generated by graphviz version 2.43.0 (0)
 -->
<!-- Title: JKQTMathTextSingleChildNode Pages: 1 -->
<svg width="433pt" height="114pt"
 viewBox="0.00 0.00 432.50 114.00" xmlns="http://www.w3.org/2000/svg" xmlns:xlink="http://www.w3.org/1999/xlink">
<g id="graph0" class="graph" transform="scale(1 1) rotate(0) translate(4 110)">
<title>JKQTMathTextSingleChildNode</title>
<!-- Node1 -->
<g id="node1" class="node">
<title>Node1</title>
<g id="a_node1"><a xlink:title="subclass representing a node in the syntax tree, that has one child">
<polygon fill="#bfbfbf" stroke="black" points="0,-0.5 0,-21.5 196,-21.5 196,-0.5 0,-0.5"/>
<text text-anchor="middle" x="98" y="-7.9" font-family="Helvetica,sans-Serif" font-size="12.00">JKQTMathTextSingleChildNode</text>
</a>
</g>
</g>
<!-- Node2 -->
<g id="node2" class="node">
<title>Node2</title>
<g id="a_node2"><a xlink:href="class_j_k_q_t_math_text_node.html" target="_top" xlink:title="subclass representing one node in the syntax tree">
<polygon fill="none" stroke="black" points="76.5,-84.5 76.5,-105.5 207.5,-105.5 207.5,-84.5 76.5,-84.5"/>
<text text-anchor="middle" x="142" y="-91.9" font-family="Helvetica,sans-Serif" font-size="12.00">JKQTMathTextNode</text>
</a>
</g>
</g>
<!-- Node2&#45;&gt;Node1 -->
<g id="edge1" class="edge">
<title>Node2&#45;&gt;Node1</title>
<path fill="none" stroke="midnightblue" d="M107.13,-79.09C102.27,-75.51 97.95,-71.18 95,-66 87.21,-52.29 90.93,-33.32 94.42,-21.89"/>
<polygon fill="midnightblue" stroke="midnightblue" points="105.31,-82.08 115.64,-84.42 109.03,-76.14 105.31,-82.08"/>
</g>
<!-- Node2&#45;&gt;Node1 -->
<g id="edge6" class="edge">
<title>Node2&#45;&gt;Node1</title>
<path fill="none" stroke="#9a32cd" stroke-dasharray="5,2" d="M123.27,-77.01C120.21,-73.59 117.29,-69.85 115,-66 106.57,-51.8 101.88,-32.98 99.66,-21.72"/>
<polygon fill="#9a32cd" stroke="#9a32cd" points="120.96,-79.66 130.47,-84.33 125.96,-74.75 120.96,-79.66"/>
<text text-anchor="middle" x="131" y="-49.9" font-family="Helvetica,sans-Serif" font-size="12.00"> child</text>
</g>
<!-- Node2&#45;&gt;Node2 -->
<g id="edge5" class="edge">
<title>Node2&#45;&gt;Node2</title>
<path fill="none" stroke="#9a32cd" stroke-dasharray="5,2" d="M217.67,-100.58C222.55,-99.28 225.5,-97.42 225.5,-95 225.5,-91.23 218.31,-88.81 207.81,-87.75"/>
<polygon fill="#9a32cd" stroke="#9a32cd" points="217.08,-97.13 207.81,-102.25 218.25,-104.03 217.08,-97.13"/>
<text text-anchor="middle" x="263" y="-91.9" font-family="Helvetica,sans-Serif" font-size="12.00"> parentNode</text>
</g>
<!-- Node3 -->
<g id="node3" class="node">
<title>Node3</title>
<g id="a_node3"><a xlink:href="class_j_k_q_t_math_text.html" target="_top" xlink:title="this class parses a LaTeX string and can then draw the contained text/equation onto a QPainter">
<polygon fill="none" stroke="black" points="230.5,-0.5 230.5,-21.5 329.5,-21.5 329.5,-0.5 230.5,-0.5"/>
<text text-anchor="middle" x="280" y="-7.9" font-family="Helvetica,sans-Serif" font-size="12.00">JKQTMathText</text>
</a>
</g>
</g>
<!-- Node2&#45;&gt;Node3 -->
<g id="edge4" class="edge">
<title>Node2&#45;&gt;Node3</title>
<path fill="none" stroke="#9a32cd" stroke-dasharray="5,2" d="M146.03,-74.7C149.45,-63.04 155.52,-48.77 166,-40 175.96,-31.66 204.28,-24.68 230.2,-19.78"/>
<polygon fill="#9a32cd" stroke="#9a32cd" points="142.62,-73.9 143.6,-84.45 149.42,-75.6 142.62,-73.9"/>
<text text-anchor="middle" x="210" y="-56.4" font-family="Helvetica,sans-Serif" font-size="12.00"> parsedNode</text>
<text text-anchor="middle" x="210" y="-43.4" font-family="Helvetica,sans-Serif" font-size="12.00">unparsedNode</text>
</g>
<!-- Node3&#45;&gt;Node2 -->
<g id="edge2" class="edge">
<title>Node3&#45;&gt;Node2</title>
<path fill="none" stroke="#9a32cd" stroke-dasharray="5,2" d="M276.64,-31.64C273.65,-43.23 268.12,-57.3 258,-66 243.94,-78.09 225.54,-85.15 207.54,-89.22"/>
<polygon fill="#9a32cd" stroke="#9a32cd" points="280.13,-32.05 278.78,-21.54 273.28,-30.59 280.13,-32.05"/>
<text text-anchor="middle" x="322.5" y="-49.9" font-family="Helvetica,sans-Serif" font-size="12.00"> parentMathText</text>
</g>
<!-- Node4 -->
<g id="node4" class="node">
<title>Node4</title>
<g id="a_node4"><a xlink:title=" ">
<polygon fill="none" stroke="black" points="359.5,-84.5 359.5,-105.5 424.5,-105.5 424.5,-84.5 359.5,-84.5"/>
<text text-anchor="middle" x="392" y="-91.9" font-family="Helvetica,sans-Serif" font-size="12.00">QObject</text>
</a>
</g>
</g>
<!-- Node4&#45;&gt;Node3 -->
<g id="edge3" class="edge">
<title>Node4&#45;&gt;Node3</title>
<path fill="none" stroke="midnightblue" d="M391.52,-73.92C390.21,-62.58 386.72,-48.94 378,-40 365.27,-26.95 346.92,-19.87 329.53,-16.07"/>
<polygon fill="midnightblue" stroke="midnightblue" points="388.05,-74.49 392.22,-84.22 395.04,-74.01 388.05,-74.49"/>
</g>
</g>
</svg>
