<?xml version="1.0" encoding="UTF-8" standalone="no"?>
<!DOCTYPE svg PUBLIC "-//W3C//DTD SVG 1.1//EN"
 "http://www.w3.org/Graphics/SVG/1.1/DTD/svg11.dtd">
<!-- Generated by graphviz version 2.43.0 (0)
 -->
<!-- Title: JKQTMathTextLatexParser Pages: 1 -->
<svg width="407pt" height="215pt"
 viewBox="0.00 0.00 407.00 215.00" xmlns="http://www.w3.org/2000/svg" xmlns:xlink="http://www.w3.org/1999/xlink">
<g id="graph0" class="graph" transform="scale(1 1) rotate(0) translate(4 211)">
<title>JKQTMathTextLatexParser</title>
<!-- Node1 -->
<g id="node1" class="node">
<title>Node1</title>
<g id="a_node1"><a xlink:title="a LaTeX parser for JKQTMathText">
<polygon fill="#999999" stroke="#666666" points="170,-21 0,-21 0,0 170,0 170,-21"/>
<text text-anchor="middle" x="85" y="-7.4" font-family="Helvetica,sans-Serif" font-size="12.00">JKQTMathTextLatexParser</text>
</a>
</g>
</g>
<!-- Node2 -->
<g id="node2" class="node">
<title>Node2</title>
<g id="a_node2"><a xlink:href="class_j_k_q_t_math_text_parser.html" target="_top" xlink:title="base class for all parsers used by JKQTMathText">
<polygon fill="white" stroke="#666666" points="153.5,-79 16.5,-79 16.5,-58 153.5,-58 153.5,-79"/>
<text text-anchor="middle" x="85" y="-65.4" font-family="Helvetica,sans-Serif" font-size="12.00">JKQTMathTextParser</text>
</a>
</g>
</g>
<!-- Node2&#45;&gt;Node1 -->
<g id="edge1" class="edge">
<title>Node2&#45;&gt;Node1</title>
<path fill="none" stroke="#63b8ff" d="M85,-47.66C85,-38.66 85,-28.42 85,-21.14"/>
<polygon fill="#63b8ff" stroke="#63b8ff" points="81.5,-47.75 85,-57.75 88.5,-47.75 81.5,-47.75"/>
</g>
<!-- Node3 -->
<g id="node3" class="node">
<title>Node3</title>
<g id="a_node3"><a xlink:title=" ">
<polygon fill="white" stroke="#666666" points="112.5,-207 47.5,-207 47.5,-186 112.5,-186 112.5,-207"/>
<text text-anchor="middle" x="80" y="-193.4" font-family="Helvetica,sans-Serif" font-size="12.00">QObject</text>
</a>
</g>
</g>
<!-- Node3&#45;&gt;Node2 -->
<g id="edge2" class="edge">
<title>Node3&#45;&gt;Node2</title>
<path fill="none" stroke="#63b8ff" d="M80.79,-175.61C81.88,-148.24 83.79,-100 84.61,-79.34"/>
<polygon fill="#63b8ff" stroke="#63b8ff" points="77.29,-175.48 80.39,-185.61 84.29,-175.76 77.29,-175.48"/>
</g>
<!-- Node4 -->
<g id="node4" class="node">
<title>Node4</title>
<g id="a_node4"><a xlink:href="class_j_k_q_t_math_text.html" target="_top" xlink:title="this class parses a mathematical markup string and can then draw the contained text/equation onto a Q...">
<polygon fill="white" stroke="#666666" points="232.5,-149 133.5,-149 133.5,-128 232.5,-128 232.5,-149"/>
<text text-anchor="middle" x="183" y="-135.4" font-family="Helvetica,sans-Serif" font-size="12.00">JKQTMathText</text>
</a>
</g>
</g>
<!-- Node3&#45;&gt;Node4 -->
<g id="edge4" class="edge">
<title>Node3&#45;&gt;Node4</title>
<path fill="none" stroke="#63b8ff" d="M106.74,-180.96C125.18,-170.94 149.16,-157.9 165.26,-149.14"/>
<polygon fill="#63b8ff" stroke="#63b8ff" points="105.05,-177.89 97.94,-185.75 108.4,-184.04 105.05,-177.89"/>
</g>
<!-- Node4&#45;&gt;Node2 -->
<g id="edge3" class="edge">
<title>Node4&#45;&gt;Node2</title>
<path fill="none" stroke="#9a32cd" stroke-dasharray="5,2" d="M127.89,-124.19C119.61,-120.53 111.63,-115.88 105,-110 95.73,-101.78 90.28,-88.28 87.47,-79.15"/>
<polygon fill="#9a32cd" stroke="#9a32cd" points="126.72,-127.5 137.31,-127.92 129.3,-120.99 126.72,-127.5"/>
<text text-anchor="middle" x="153.5" y="-100.4" font-family="Helvetica,sans-Serif" font-size="12.00"> parentMathText</text>
</g>
<!-- Node5 -->
<g id="node5" class="node">
<title>Node5</title>
<g id="a_node5"><a xlink:href="class_j_k_q_t_math_text_node.html" target="_top" xlink:title="subclass representing one node in the syntax tree">
<polygon fill="white" stroke="#666666" points="302.5,-79 171.5,-79 171.5,-58 302.5,-58 302.5,-79"/>
<text text-anchor="middle" x="237" y="-65.4" font-family="Helvetica,sans-Serif" font-size="12.00">JKQTMathTextNode</text>
</a>
</g>
</g>
<!-- Node4&#45;&gt;Node5 -->
<g id="edge6" class="edge">
<title>Node4&#45;&gt;Node5</title>
<path fill="none" stroke="#9a32cd" stroke-dasharray="5,2" d="M197.23,-119.59C207.49,-106.67 220.94,-89.72 229.28,-79.22"/>
<polygon fill="#9a32cd" stroke="#9a32cd" points="194.21,-117.75 190.74,-127.76 199.7,-122.1 194.21,-117.75"/>
<text text-anchor="middle" x="263.5" y="-100.4" font-family="Helvetica,sans-Serif" font-size="12.00"> parentMathText</text>
</g>
<!-- Node5&#45;&gt;Node4 -->
<g id="edge5" class="edge">
<title>Node5&#45;&gt;Node4</title>
<path fill="none" stroke="#9a32cd" stroke-dasharray="5,2" d="M301.41,-82.21C318.3,-88.47 329.26,-97.45 319,-110 308.09,-123.33 266.94,-130.35 232.73,-133.95"/>
<polygon fill="#9a32cd" stroke="#9a32cd" points="302.1,-78.75 291.51,-79 299.94,-85.41 302.1,-78.75"/>
<text text-anchor="middle" x="360.5" y="-100.4" font-family="Helvetica,sans-Serif" font-size="12.00"> parsedNode</text>
</g>
<!-- Node5&#45;&gt;Node5 -->
<g id="edge7" class="edge">
<title>Node5&#45;&gt;Node5</title>
<path fill="none" stroke="#9a32cd" stroke-dasharray="5,2" d="M313.02,-72.16C317.69,-71.29 320.5,-70.07 320.5,-68.5 320.5,-65.98 313.31,-64.37 302.81,-63.67"/>
<polygon fill="#9a32cd" stroke="#9a32cd" points="312.34,-68.71 302.81,-73.33 313.14,-75.67 312.34,-68.71"/>
<text text-anchor="middle" x="358" y="-65.4" font-family="Helvetica,sans-Serif" font-size="12.00"> parentNode</text>
</g>
</g>
</svg>
