<?xml version="1.0" encoding="UTF-8" standalone="no"?>
<!DOCTYPE svg PUBLIC "-//W3C//DTD SVG 1.1//EN"
 "http://www.w3.org/Graphics/SVG/1.1/DTD/svg11.dtd">
<!-- Generated by graphviz version 2.43.0 (0)
 -->
<!-- Title: JKQTPXYParametrizedScatterGraph Pages: 1 -->
<!--zoomable 594 -->
<svg id="main" version="1.1" xmlns="http://www.w3.org/2000/svg" xmlns:xlink="http://www.w3.org/1999/xlink" xml:space="preserve" onload="init(evt)">
<style type="text/css"><![CDATA[
.edge:hover path { stroke: red; }
.edge:hover polygon { stroke: red; fill: red; }
]]></style>
<script type="text/javascript"><![CDATA[
var edges = document.getElementsByTagName('g');
if (edges && edges.length) {
  for (var i=0;i<edges.length;i++) {
    if (edges[i].id.substr(0,4)=='edge') {
      edges[i].setAttribute('class','edge');
    }
  }
}
]]></script>
        <defs>
                <circle id="rim" cx="0" cy="0" r="7"/>
                <circle id="rim2" cx="0" cy="0" r="3.5"/>
                <g id="zoomPlus">
                        <use xlink:href="#rim" fill="#404040">
                                <set attributeName="fill" to="#808080" begin="zoomplus.mouseover" end="zoomplus.mouseout"/>
                        </use>
                        <path d="M-4,0h8M0,-4v8" fill="none" stroke="white" stroke-width="1.5" pointer-events="none"/>
                </g>
                <g id="zoomMin">
                        <use xlink:href="#rim" fill="#404040">
                                <set attributeName="fill" to="#808080" begin="zoomminus.mouseover" end="zoomminus.mouseout"/>
                        </use>
                        <path d="M-4,0h8" fill="none" stroke="white" stroke-width="1.5" pointer-events="none"/>
                </g>
                <g id="dirArrow">
                        <path fill="none" stroke="white" stroke-width="1.5" d="M0,-3.0v7 M-2.5,-0.5L0,-3.0L2.5,-0.5"/>
                </g>
               <g id="resetDef">
                       <use xlink:href="#rim2" fill="#404040">
                               <set attributeName="fill" to="#808080" begin="reset.mouseover" end="reset.mouseout"/>
                       </use>
               </g>
        </defs>

<script type="text/javascript">
var viewWidth = 3678;
var viewHeight = 594;
var sectionId = 'dynsection-1';
</script>
<script xlink:href="svgpan.js"/>
<svg id="graph" class="graph">
<g id="viewport">
<title>JKQTPXYParametrizedScatterGraph</title>
<!-- Node1 -->
<g id="node1" class="node">
<title>Node1</title>
<g id="a_node1"><a xlink:title="This implements xy scatter plots (like JKQTPXYScatterGraph), but the color and size of the symbols ma...">
<polygon fill="#bfbfbf" stroke="black" points="3478,-456 3478,-490 3670,-490 3670,-456 3478,-456"/>
<text text-anchor="start" x="3486" y="-476.4" font-family="Helvetica,sans-Serif" font-size="12.00">JKQTPXYParametrizedScatter</text>
<text text-anchor="middle" x="3574" y="-463.4" font-family="Helvetica,sans-Serif" font-size="12.00">Graph</text>
</a>
</g>
</g>
<!-- Node2 -->
<g id="node2" class="node">
<title>Node2</title>
<g id="a_node2"><a xlink:href="class_j_k_q_t_p_x_y_graph.html" target="_top" xlink:title="This virtual JKQTPGraph descendent may be used as base for all graphs that use at least two columns t...">
<polygon fill="none" stroke="black" points="3121.5,-508.5 3121.5,-529.5 3226.5,-529.5 3226.5,-508.5 3121.5,-508.5"/>
<text text-anchor="middle" x="3174" y="-515.9" font-family="Helvetica,sans-Serif" font-size="12.00">JKQTPXYGraph</text>
</a>
</g>
</g>
<!-- Node2&#45;&gt;Node1 -->
<g id="edge1" class="edge">
<title>Node2&#45;&gt;Node1</title>
<path fill="none" stroke="midnightblue" d="M3236.81,-516.87C3290.87,-514.46 3371.41,-509.56 3441,-500 3459.65,-497.44 3479.63,-493.82 3498.25,-490.06"/>
<polygon fill="midnightblue" stroke="midnightblue" points="3236.54,-513.38 3226.7,-517.3 3236.84,-520.37 3236.54,-513.38"/>
</g>
<!-- Node3 -->
<g id="node3" class="node">
<title>Node3</title>
<g id="a_node3"><a xlink:href="class_j_k_q_t_p_graph.html" target="_top" xlink:title="this virtual base class of the (data&#45;column based) graphs, which are part of a JKQTPlotter plot and w...">
<polygon fill="none" stroke="black" points="2738,-508.5 2738,-529.5 2827,-529.5 2827,-508.5 2738,-508.5"/>
<text text-anchor="middle" x="2782.5" y="-515.9" font-family="Helvetica,sans-Serif" font-size="12.00">JKQTPGraph</text>
</a>
</g>
</g>
<!-- Node3&#45;&gt;Node2 -->
<g id="edge2" class="edge">
<title>Node3&#45;&gt;Node2</title>
<path fill="none" stroke="midnightblue" d="M2837.22,-519C2912.27,-519 3047.55,-519 3121.42,-519"/>
<polygon fill="midnightblue" stroke="midnightblue" points="2837.05,-515.5 2827.05,-519 2837.05,-522.5 2837.05,-515.5"/>
</g>
<!-- Node4 -->
<g id="node4" class="node">
<title>Node4</title>
<g id="a_node4"><a xlink:href="class_j_k_q_t_p_plot_element.html" target="_top" xlink:title="this virtual base class of every element, which is part of a JKQTPlotter plot and may appear in its k...">
<polygon fill="none" stroke="black" points="2507,-508.5 2507,-529.5 2632,-529.5 2632,-508.5 2507,-508.5"/>
<text text-anchor="middle" x="2569.5" y="-515.9" font-family="Helvetica,sans-Serif" font-size="12.00">JKQTPPlotElement</text>
</a>
</g>
</g>
<!-- Node4&#45;&gt;Node3 -->
<g id="edge3" class="edge">
<title>Node4&#45;&gt;Node3</title>
<path fill="none" stroke="midnightblue" d="M2642.23,-519C2674,-519 2710.34,-519 2737.92,-519"/>
<polygon fill="midnightblue" stroke="midnightblue" points="2642.1,-515.5 2632.1,-519 2642.1,-522.5 2642.1,-515.5"/>
</g>
<!-- Node5 -->
<g id="node5" class="node">
<title>Node5</title>
<g id="a_node5"><a xlink:title=" ">
<polygon fill="none" stroke="black" points="1531.5,-400.5 1531.5,-421.5 1596.5,-421.5 1596.5,-400.5 1531.5,-400.5"/>
<text text-anchor="middle" x="1564" y="-407.9" font-family="Helvetica,sans-Serif" font-size="12.00">QObject</text>
</a>
</g>
</g>
<!-- Node5&#45;&gt;Node4 -->
<g id="edge4" class="edge">
<title>Node5&#45;&gt;Node4</title>
<path fill="none" stroke="midnightblue" d="M1606.6,-421.65C1628.13,-426.95 1654.88,-433.24 1679,-438 1895.77,-480.83 1950.02,-495.2 2170,-516 2241.27,-522.74 2259.42,-519.89 2331,-521 2390.78,-521.93 2459.04,-521.16 2506.99,-520.33"/>
<polygon fill="midnightblue" stroke="midnightblue" points="1607.35,-418.22 1596.8,-419.21 1605.66,-425.02 1607.35,-418.22"/>
</g>
<!-- Node6 -->
<g id="node6" class="node">
<title>Node6</title>
<g id="a_node6"><a xlink:href="class_j_k_q_t_base_plotter.html" target="_top" xlink:title="base class for 2D plotter classes (used by the plotter widget JKQTPlotter)">
<polygon fill="none" stroke="black" points="2184.5,-370.5 2184.5,-391.5 2298.5,-391.5 2298.5,-370.5 2184.5,-370.5"/>
<text text-anchor="middle" x="2241.5" y="-377.9" font-family="Helvetica,sans-Serif" font-size="12.00">JKQTBasePlotter</text>
</a>
</g>
</g>
<!-- Node5&#45;&gt;Node6 -->
<g id="edge6" class="edge">
<title>Node5&#45;&gt;Node6</title>
<path fill="none" stroke="midnightblue" d="M1606.97,-409.14C1723.66,-403.95 2052.03,-389.37 2184.27,-383.5"/>
<polygon fill="midnightblue" stroke="midnightblue" points="1606.51,-405.65 1596.67,-409.59 1606.82,-412.65 1606.51,-405.65"/>
</g>
<!-- Node17 -->
<g id="node17" class="node">
<title>Node17</title>
<g id="a_node17"><a xlink:href="class_j_k_q_t_math_text.html" target="_top" xlink:title="this class parses a mathematical markup string and can then draw the contained text/equation onto a Q...">
<polygon fill="none" stroke="black" points="1856,-425.5 1856,-446.5 1955,-446.5 1955,-425.5 1856,-425.5"/>
<text text-anchor="middle" x="1905.5" y="-432.9" font-family="Helvetica,sans-Serif" font-size="12.00">JKQTMathText</text>
</a>
</g>
</g>
<!-- Node5&#45;&gt;Node17 -->
<g id="edge22" class="edge">
<title>Node5&#45;&gt;Node17</title>
<path fill="none" stroke="midnightblue" d="M1606.61,-414.06C1669.58,-418.7 1788.82,-427.48 1855.76,-432.41"/>
<polygon fill="midnightblue" stroke="midnightblue" points="1606.86,-410.57 1596.63,-413.33 1606.35,-417.55 1606.86,-410.57"/>
</g>
<!-- Node22 -->
<g id="node22" class="node">
<title>Node22</title>
<g id="a_node22"><a xlink:href="class_j_k_q_t_p_coordinate_axis.html" target="_top" xlink:title="this virtual class is the base for any type of coordinate axis, to be drawn by JKQTBasePlotter.">
<polygon fill="none" stroke="black" points="2498.5,-273.5 2498.5,-294.5 2640.5,-294.5 2640.5,-273.5 2498.5,-273.5"/>
<text text-anchor="middle" x="2569.5" y="-280.9" font-family="Helvetica,sans-Serif" font-size="12.00">JKQTPCoordinateAxis</text>
</a>
</g>
</g>
<!-- Node5&#45;&gt;Node22 -->
<g id="edge31" class="edge">
<title>Node5&#45;&gt;Node22</title>
<path fill="none" stroke="midnightblue" d="M1606.31,-400.07C1682.59,-380.21 1850.96,-337.99 1995,-313 2072.18,-299.61 2091.89,-297.89 2170,-292 2241.39,-286.62 2259.43,-288.56 2331,-287 2387.27,-285.77 2451.06,-285 2498.35,-284.55"/>
<polygon fill="midnightblue" stroke="midnightblue" points="1605.39,-396.69 1596.6,-402.6 1607.16,-403.46 1605.39,-396.69"/>
</g>
<!-- Node6&#45;&gt;Node4 -->
<g id="edge5" class="edge">
<title>Node6&#45;&gt;Node4</title>
<path fill="none" stroke="#9a32cd" stroke-dasharray="5,2" d="M2265.65,-397.95C2280.64,-409.82 2299.76,-426.78 2313,-445 2324.46,-460.77 2315.42,-473.28 2331,-485 2344.85,-495.42 2441.15,-506.67 2506.79,-513.26"/>
<polygon fill="#9a32cd" stroke="#9a32cd" points="2267.44,-394.9 2257.38,-391.57 2263.17,-400.45 2267.44,-394.9"/>
<text text-anchor="middle" x="2387.5" y="-508.4" font-family="Helvetica,sans-Serif" font-size="12.00"> parent</text>
</g>
<!-- Node6&#45;&gt;Node6 -->
<g id="edge42" class="edge">
<title>Node6&#45;&gt;Node6</title>
<path fill="none" stroke="#9a32cd" stroke-dasharray="5,2" d="M2214.45,-401.06C2216.23,-406.16 2225.24,-410 2241.5,-410 2266.88,-410 2274.61,-400.65 2264.7,-391.71"/>
<polygon fill="#9a32cd" stroke="#9a32cd" points="2217.73,-402.29 2218.3,-391.71 2211.26,-399.62 2217.73,-402.29"/>
<text text-anchor="middle" x="2241.5" y="-426.4" font-family="Helvetica,sans-Serif" font-size="12.00"> masterPlotterX</text>
<text text-anchor="middle" x="2241.5" y="-413.4" font-family="Helvetica,sans-Serif" font-size="12.00">masterPlotterY</text>
</g>
<!-- Node19 -->
<g id="node19" class="node">
<title>Node19</title>
<g id="a_node19"><a xlink:href="class_j_k_q_t_p_graphs_model.html" target="_top" xlink:title="data model with all plots ina JKQTBasePlotter (+ allows to switch them visible/invisible)">
<polygon fill="none" stroke="black" points="2504,-327.5 2504,-348.5 2635,-348.5 2635,-327.5 2504,-327.5"/>
<text text-anchor="middle" x="2569.5" y="-334.9" font-family="Helvetica,sans-Serif" font-size="12.00">JKQTPGraphsModel</text>
</a>
</g>
</g>
<!-- Node6&#45;&gt;Node19 -->
<g id="edge28" class="edge">
<title>Node6&#45;&gt;Node19</title>
<path fill="none" stroke="#9a32cd" stroke-dasharray="5,2" d="M2308.64,-374.76C2348.03,-370.8 2398.95,-365.25 2444,-359 2465.71,-355.99 2489.46,-352.12 2510.34,-348.53"/>
<polygon fill="#9a32cd" stroke="#9a32cd" points="2308.24,-371.28 2298.63,-375.76 2308.93,-378.25 2308.24,-371.28"/>
<text text-anchor="middle" x="2387.5" y="-376.4" font-family="Helvetica,sans-Serif" font-size="12.00"> m_plotter</text>
</g>
<!-- Node6&#45;&gt;Node22 -->
<g id="edge32" class="edge">
<title>Node6&#45;&gt;Node22</title>
<path fill="none" stroke="#9a32cd" stroke-dasharray="5,2" d="M2266.77,-364.61C2280.47,-355.24 2297.83,-343.16 2313,-332 2321.16,-325.99 2321.67,-321.96 2331,-318 2384.29,-295.37 2449.73,-287.29 2498.41,-284.63"/>
<polygon fill="#9a32cd" stroke="#9a32cd" points="2264.65,-361.82 2258.35,-370.34 2268.59,-367.6 2264.65,-361.82"/>
<text text-anchor="middle" x="2387.5" y="-321.4" font-family="Helvetica,sans-Serif" font-size="12.00"> parent</text>
</g>
<!-- Node31 -->
<g id="node31" class="node">
<title>Node31</title>
<g id="a_node31"><a xlink:href="class_j_k_q_t_p_color_palette_style_and_tools_mixin.html" target="_top" xlink:title="if a class is derived from this class, it may use color bars">
<polygon fill="none" stroke="black" points="3255,-456 3255,-490 3433,-490 3433,-456 3255,-456"/>
<text text-anchor="start" x="3263" y="-476.4" font-family="Helvetica,sans-Serif" font-size="12.00">JKQTPColorPaletteStyleAnd</text>
<text text-anchor="middle" x="3344" y="-463.4" font-family="Helvetica,sans-Serif" font-size="12.00">ToolsMixin</text>
</a>
</g>
</g>
<!-- Node6&#45;&gt;Node31 -->
<g id="edge46" class="edge">
<title>Node6&#45;&gt;Node31</title>
<path fill="none" stroke="#9a32cd" stroke-dasharray="5,2" d="M2268.28,-396.88C2285.45,-406.76 2308.85,-418.88 2331,-426 2382.3,-442.49 2662.75,-475 2695,-475 2695,-475 2695,-475 2995.5,-475 3083.73,-475 3184.57,-474.35 3254.81,-473.79"/>
<polygon fill="#9a32cd" stroke="#9a32cd" points="2269.82,-393.73 2259.43,-391.68 2266.27,-399.77 2269.82,-393.73"/>
<text text-anchor="middle" x="2782.5" y="-478.4" font-family="Helvetica,sans-Serif" font-size="12.00"> cbParent</text>
</g>
<!-- Node7 -->
<g id="node7" class="node">
<title>Node7</title>
<g id="a_node7"><a xlink:href="class_j_k_q_t_base_plotter_style.html" target="_top" xlink:title="Support Class for JKQTBasePlotter, which summarizes all properties that define the visual styling of ...">
<polygon fill="none" stroke="black" points="1834,-284.5 1834,-305.5 1977,-305.5 1977,-284.5 1834,-284.5"/>
<text text-anchor="middle" x="1905.5" y="-291.9" font-family="Helvetica,sans-Serif" font-size="12.00">JKQTBasePlotterStyle</text>
</a>
</g>
</g>
<!-- Node7&#45;&gt;Node6 -->
<g id="edge7" class="edge">
<title>Node7&#45;&gt;Node6</title>
<path fill="none" stroke="#9a32cd" stroke-dasharray="5,2" d="M1964.2,-307.83C2014.11,-319.18 2088.1,-336.59 2152,-354 2170.44,-359.02 2190.86,-365.21 2207.44,-370.4"/>
<polygon fill="#9a32cd" stroke="#9a32cd" points="1964.77,-304.37 1954.24,-305.58 1963.22,-311.2 1964.77,-304.37"/>
<text text-anchor="middle" x="2073.5" y="-357.4" font-family="Helvetica,sans-Serif" font-size="12.00"> plotterStyle</text>
</g>
<!-- Node8 -->
<g id="node8" class="node">
<title>Node8</title>
<g id="a_node8"><a xlink:href="class_j_k_q_t_p_key_style.html" target="_top" xlink:title="Support Class for JKQTBasePlotter, which summarizes all properties that define the visual styling of ...">
<polygon fill="none" stroke="black" points="1512,-187.5 1512,-208.5 1616,-208.5 1616,-187.5 1512,-187.5"/>
<text text-anchor="middle" x="1564" y="-194.9" font-family="Helvetica,sans-Serif" font-size="12.00">JKQTPKeyStyle</text>
</a>
</g>
</g>
<!-- Node8&#45;&gt;Node7 -->
<g id="edge8" class="edge">
<title>Node8&#45;&gt;Node7</title>
<path fill="none" stroke="#9a32cd" stroke-dasharray="5,2" d="M1626.22,-194.85C1678.54,-194.34 1754.83,-198.88 1816,-224 1849.35,-237.69 1880.24,-268.09 1895.15,-284.31"/>
<polygon fill="#9a32cd" stroke="#9a32cd" points="1626.03,-191.35 1616.09,-195.01 1626.14,-198.35 1626.03,-191.35"/>
<text text-anchor="middle" x="1747.5" y="-227.4" font-family="Helvetica,sans-Serif" font-size="12.00"> keyStyle</text>
</g>
<!-- Node9 -->
<g id="node9" class="node">
<title>Node9</title>
<g id="a_node9"><a xlink:href="class_j_k_q_t_p_coordinate_axis_style.html" target="_top" xlink:title="Support Class for JKQTPCoordinateAxis, which summarizes all properties that define the visual styling...">
<polygon fill="none" stroke="black" points="1152,-234.5 1152,-255.5 1323,-255.5 1323,-234.5 1152,-234.5"/>
<text text-anchor="middle" x="1237.5" y="-241.9" font-family="Helvetica,sans-Serif" font-size="12.00">JKQTPCoordinateAxisStyle</text>
</a>
</g>
</g>
<!-- Node9&#45;&gt;Node7 -->
<g id="edge9" class="edge">
<title>Node9&#45;&gt;Node7</title>
<path fill="none" stroke="#9a32cd" stroke-dasharray="5,2" d="M1331.7,-256.75C1338.23,-257.53 1344.71,-258.28 1351,-259 1402.5,-264.87 1415.33,-266.91 1467,-271 1596.29,-281.23 1747.43,-288.48 1833.96,-292.18"/>
<polygon fill="#9a32cd" stroke="#9a32cd" points="1331.76,-253.23 1321.42,-255.52 1330.93,-260.18 1331.76,-253.23"/>
<text text-anchor="middle" x="1564" y="-300.4" font-family="Helvetica,sans-Serif" font-size="12.00"> xAxisStyle</text>
<text text-anchor="middle" x="1564" y="-287.4" font-family="Helvetica,sans-Serif" font-size="12.00">yAxisStyle</text>
</g>
<!-- Node11 -->
<g id="node11" class="node">
<title>Node11</title>
<g id="a_node11"><a xlink:href="class_j_k_q_t_p_colorbar_coordinate_axis_style.html" target="_top" xlink:title="Support Class for JKQTPCoordinateAxis, which summarizes all properties that define the visual styling...">
<polygon fill="none" stroke="black" points="1467,-228 1467,-262 1661,-262 1661,-228 1467,-228"/>
<text text-anchor="start" x="1475" y="-248.4" font-family="Helvetica,sans-Serif" font-size="12.00">JKQTPColorbarCoordinateAxis</text>
<text text-anchor="middle" x="1564" y="-235.4" font-family="Helvetica,sans-Serif" font-size="12.00">Style</text>
</a>
</g>
</g>
<!-- Node9&#45;&gt;Node11 -->
<g id="edge12" class="edge">
<title>Node9&#45;&gt;Node11</title>
<path fill="none" stroke="midnightblue" d="M1333.56,-245C1375.54,-245 1424.81,-245 1466.91,-245"/>
<polygon fill="midnightblue" stroke="midnightblue" points="1333.33,-241.5 1323.33,-245 1333.33,-248.5 1333.33,-241.5"/>
</g>
<!-- Node9&#45;&gt;Node22 -->
<g id="edge33" class="edge">
<title>Node9&#45;&gt;Node22</title>
<path fill="none" stroke="#9a32cd" stroke-dasharray="5,2" d="M1270.85,-230.44C1328.39,-205.91 1452.81,-159 1563,-159 1563,-159 1563,-159 2242.5,-159 2369.79,-159 2507.61,-243.11 2553.04,-273.34"/>
<polygon fill="#9a32cd" stroke="#9a32cd" points="1269.35,-227.27 1261.56,-234.45 1272.12,-233.7 1269.35,-227.27"/>
<text text-anchor="middle" x="1905.5" y="-162.4" font-family="Helvetica,sans-Serif" font-size="12.00"> axisStyle</text>
</g>
<!-- Node10 -->
<g id="node10" class="node">
<title>Node10</title>
<g id="a_node10"><a xlink:href="class_j_k_q_t_p_grid_style.html" target="_top" xlink:title="Support Class for JKQTPCoordinateAxis, and summarizes all properties that define the visual styling o...">
<polygon fill="none" stroke="black" points="851.5,-234.5 851.5,-255.5 958.5,-255.5 958.5,-234.5 851.5,-234.5"/>
<text text-anchor="middle" x="905" y="-241.9" font-family="Helvetica,sans-Serif" font-size="12.00">JKQTPGridStyle</text>
</a>
</g>
</g>
<!-- Node10&#45;&gt;Node9 -->
<g id="edge10" class="edge">
<title>Node10&#45;&gt;Node9</title>
<path fill="none" stroke="#9a32cd" stroke-dasharray="5,2" d="M968.79,-245C1020.62,-245 1094.66,-245 1151.74,-245"/>
<polygon fill="#9a32cd" stroke="#9a32cd" points="968.73,-241.5 958.73,-245 968.73,-248.5 968.73,-241.5"/>
<text text-anchor="middle" x="1069.5" y="-261.4" font-family="Helvetica,sans-Serif" font-size="12.00"> majorGridStyle</text>
<text text-anchor="middle" x="1069.5" y="-248.4" font-family="Helvetica,sans-Serif" font-size="12.00">minorGridStyle</text>
</g>
<!-- Node11&#45;&gt;Node7 -->
<g id="edge11" class="edge">
<title>Node11&#45;&gt;Node7</title>
<path fill="none" stroke="#9a32cd" stroke-dasharray="5,2" d="M1671.32,-240.28C1716.47,-240.57 1769.34,-243.97 1816,-255 1841.76,-261.09 1869.21,-274.76 1886.59,-284.41"/>
<polygon fill="#9a32cd" stroke="#9a32cd" points="1671.22,-236.78 1661.22,-240.26 1671.21,-243.78 1671.22,-236.78"/>
<text text-anchor="middle" x="1747.5" y="-271.4" font-family="Helvetica,sans-Serif" font-size="12.00"> rightColorbarAxisStyle</text>
<text text-anchor="middle" x="1747.5" y="-258.4" font-family="Helvetica,sans-Serif" font-size="12.00">topColorbarAxisStyle</text>
</g>
<!-- Node12 -->
<g id="node12" class="node">
<title>Node12</title>
<g id="a_node12"><a xlink:href="class_j_k_q_t_graphs_base_style.html" target="_top" xlink:title="Support Class for JKQTBasePlotter, which summarizes all properties that define the visual styling of ...">
<polygon fill="none" stroke="black" points="1491,-350.5 1491,-371.5 1637,-371.5 1637,-350.5 1491,-350.5"/>
<text text-anchor="middle" x="1564" y="-357.9" font-family="Helvetica,sans-Serif" font-size="12.00">JKQTGraphsBaseStyle</text>
</a>
</g>
</g>
<!-- Node12&#45;&gt;Node7 -->
<g id="edge13" class="edge">
<title>Node12&#45;&gt;Node7</title>
<path fill="none" stroke="#9a32cd" stroke-dasharray="5,2" d="M1608.31,-347.48C1629.47,-341.22 1655.4,-334.07 1679,-329 1707.74,-322.82 1779.02,-312.37 1833.81,-304.68"/>
<polygon fill="#9a32cd" stroke="#9a32cd" points="1607.22,-344.15 1598.65,-350.37 1609.23,-350.86 1607.22,-344.15"/>
<text text-anchor="middle" x="1747.5" y="-332.4" font-family="Helvetica,sans-Serif" font-size="12.00"> graphsStyle</text>
</g>
<!-- Node13 -->
<g id="node13" class="node">
<title>Node13</title>
<g id="a_node13"><a xlink:href="class_j_k_q_t_graphs_specific_style_properties.html" target="_top" xlink:title="Support Class for JKQTBasePlotter, which summarizes all properties that define the visual styling of ...">
<polygon fill="none" stroke="black" points="399,-409.5 399,-430.5 623,-430.5 623,-409.5 399,-409.5"/>
<text text-anchor="middle" x="511" y="-416.9" font-family="Helvetica,sans-Serif" font-size="12.00">JKQTGraphsSpecificStyleProperties</text>
</a>
</g>
</g>
<!-- Node13&#45;&gt;Node12 -->
<g id="edge14" class="edge">
<title>Node13&#45;&gt;Node12</title>
<path fill="none" stroke="#9a32cd" stroke-dasharray="5,2" d="M633.28,-421.89C635.88,-421.93 638.45,-421.97 641,-422 717.44,-423.04 736.55,-423.56 813,-424 894.78,-424.48 915.27,-426.79 997,-424 1146.6,-418.89 1183.92,-414.45 1333,-401 1384.67,-396.34 1397.89,-396.88 1449,-388 1474.05,-383.65 1501.82,-377.11 1523.67,-371.55"/>
<polygon fill="#9a32cd" stroke="#9a32cd" points="633.23,-418.39 623.18,-421.75 633.13,-425.39 633.23,-418.39"/>
<text text-anchor="middle" x="1069.5" y="-478.4" font-family="Helvetica,sans-Serif" font-size="12.00"> barchartStyle</text>
<text text-anchor="middle" x="1069.5" y="-465.4" font-family="Helvetica,sans-Serif" font-size="12.00">boxplotStyle</text>
<text text-anchor="middle" x="1069.5" y="-452.4" font-family="Helvetica,sans-Serif" font-size="12.00">defaultGraphStyle</text>
<text text-anchor="middle" x="1069.5" y="-439.4" font-family="Helvetica,sans-Serif" font-size="12.00">filledStyle</text>
<text text-anchor="middle" x="1069.5" y="-426.4" font-family="Helvetica,sans-Serif" font-size="12.00">impulseStyle</text>
</g>
<!-- Node15 -->
<g id="node15" class="node">
<title>Node15</title>
<g id="a_node15"><a xlink:href="class_j_k_q_t_geometric_specific_style_properties.html" target="_top" xlink:title="Support Class for JKQTBasePlotter, which summarizes all properties that define the visual styling of ...">
<polygon fill="none" stroke="black" points="813,-380 813,-414 997,-414 997,-380 813,-380"/>
<text text-anchor="start" x="821" y="-400.4" font-family="Helvetica,sans-Serif" font-size="12.00">JKQTGeometricSpecificStyle</text>
<text text-anchor="middle" x="905" y="-387.4" font-family="Helvetica,sans-Serif" font-size="12.00">Properties</text>
</a>
</g>
</g>
<!-- Node13&#45;&gt;Node15 -->
<g id="edge17" class="edge">
<title>Node13&#45;&gt;Node15</title>
<path fill="none" stroke="midnightblue" d="M633.34,-412.88C691.25,-409.48 759.38,-405.49 812.8,-402.35"/>
<polygon fill="midnightblue" stroke="midnightblue" points="632.8,-409.41 623.02,-413.49 633.21,-416.39 632.8,-409.41"/>
</g>
<!-- Node14 -->
<g id="node14" class="node">
<title>Node14</title>
<g id="a_node14"><a xlink:href="struct_j_k_q_t_p_color_derivation_mode.html" target="_top" xlink:title="Specifies how a fill&#45;color is derived from a given color.">
<polygon fill="none" stroke="black" points="0,-409.5 0,-430.5 179,-430.5 179,-409.5 0,-409.5"/>
<text text-anchor="middle" x="89.5" y="-416.9" font-family="Helvetica,sans-Serif" font-size="12.00">JKQTPColorDerivationMode</text>
</a>
</g>
</g>
<!-- Node14&#45;&gt;Node1 -->
<g id="edge51" class="edge">
<title>Node14&#45;&gt;Node1</title>
<path fill="none" stroke="#9a32cd" stroke-dasharray="5,2" d="M111.93,-436.78C132.66,-452.28 165.47,-474.98 197,-489 328.6,-547.54 365.97,-573 510,-573 510,-573 510,-573 3345,-573 3426.48,-573 3511.58,-518.78 3550.8,-490.19"/>
<polygon fill="#9a32cd" stroke="#9a32cd" points="113.91,-433.89 103.83,-430.62 109.67,-439.46 113.91,-433.89"/>
<text text-anchor="middle" x="2073.5" y="-576.4" font-family="Helvetica,sans-Serif" font-size="12.00"> symbolFillDerivationMode</text>
</g>
<!-- Node14&#45;&gt;Node13 -->
<g id="edge15" class="edge">
<title>Node14&#45;&gt;Node13</title>
<path fill="none" stroke="#9a32cd" stroke-dasharray="5,2" d="M189.53,-420C252.41,-420 333.9,-420 398.97,-420"/>
<polygon fill="#9a32cd" stroke="#9a32cd" points="189.21,-416.5 179.21,-420 189.21,-423.5 189.21,-416.5"/>
<text text-anchor="middle" x="289" y="-475.4" font-family="Helvetica,sans-Serif" font-size="12.00"> errorColorDerivationMode</text>
<text text-anchor="middle" x="289" y="-462.4" font-family="Helvetica,sans-Serif" font-size="12.00">errorFillColorDerivationMode</text>
<text text-anchor="middle" x="289" y="-449.4" font-family="Helvetica,sans-Serif" font-size="12.00">fillColorDerivationMode</text>
<text text-anchor="middle" x="289" y="-436.4" font-family="Helvetica,sans-Serif" font-size="12.00">graphColorDerivationMode</text>
<text text-anchor="middle" x="289" y="-423.4" font-family="Helvetica,sans-Serif" font-size="12.00">symbolFillColorDerivationMode</text>
</g>
<!-- Node16 -->
<g id="node16" class="node">
<title>Node16</title>
<g id="a_node16"><a xlink:href="class_j_k_q_t_annotations_specific_style_properties.html" target="_top" xlink:title="Support Class for JKQTBasePlotter, which summarizes all properties that define the visual styling of ...">
<polygon fill="none" stroke="black" points="1142,-358 1142,-392 1333,-392 1333,-358 1142,-358"/>
<text text-anchor="start" x="1150" y="-378.4" font-family="Helvetica,sans-Serif" font-size="12.00">JKQTAnnotationsSpecificStyle</text>
<text text-anchor="middle" x="1237.5" y="-365.4" font-family="Helvetica,sans-Serif" font-size="12.00">Properties</text>
</a>
</g>
</g>
<!-- Node14&#45;&gt;Node16 -->
<g id="edge20" class="edge">
<title>Node14&#45;&gt;Node16</title>
<path fill="none" stroke="#9a32cd" stroke-dasharray="5,2" d="M189.31,-410.99C328.35,-398.81 589.73,-377.72 813,-370 894.73,-367.18 915.23,-369.15 997,-370 1044.72,-370.5 1097.78,-371.55 1141.81,-372.57"/>
<polygon fill="#9a32cd" stroke="#9a32cd" points="188.75,-407.53 179.1,-411.89 189.37,-414.5 188.75,-407.53"/>
<text text-anchor="middle" x="718" y="-381.4" font-family="Helvetica,sans-Serif" font-size="12.00"> textColorDerivationMode</text>
</g>
<!-- Node15&#45;&gt;Node12 -->
<g id="edge16" class="edge">
<title>Node15&#45;&gt;Node12</title>
<path fill="none" stroke="#9a32cd" stroke-dasharray="5,2" d="M965.65,-376.77C1012.86,-361.88 1080.81,-342.9 1142,-335 1270.91,-318.35 1423.45,-337.29 1504.88,-350.47"/>
<polygon fill="#9a32cd" stroke="#9a32cd" points="964.36,-373.51 955.9,-379.88 966.49,-380.18 964.36,-373.51"/>
<text text-anchor="middle" x="1237.5" y="-338.4" font-family="Helvetica,sans-Serif" font-size="12.00"> geometricStyle</text>
</g>
<!-- Node15&#45;&gt;Node16 -->
<g id="edge19" class="edge">
<title>Node15&#45;&gt;Node16</title>
<path fill="none" stroke="midnightblue" d="M1007.35,-390.25C1050.18,-387.4 1099.79,-384.1 1141.87,-381.3"/>
<polygon fill="midnightblue" stroke="midnightblue" points="1006.93,-386.77 997.19,-390.93 1007.4,-393.76 1006.93,-386.77"/>
</g>
<!-- Node16&#45;&gt;Node12 -->
<g id="edge18" class="edge">
<title>Node16&#45;&gt;Node12</title>
<path fill="none" stroke="#9a32cd" stroke-dasharray="5,2" d="M1343.39,-370.47C1391.57,-368.4 1447.51,-365.98 1490.86,-364.11"/>
<polygon fill="#9a32cd" stroke="#9a32cd" points="1343.07,-366.99 1333.23,-370.91 1343.37,-373.98 1343.07,-366.99"/>
<text text-anchor="middle" x="1400" y="-374.4" font-family="Helvetica,sans-Serif" font-size="12.00"> annotationStyle</text>
</g>
<!-- Node17&#45;&gt;Node6 -->
<g id="edge21" class="edge">
<title>Node17&#45;&gt;Node6</title>
<path fill="none" stroke="#9a32cd" stroke-dasharray="5,2" d="M1965,-424.45C1975,-422.57 1985.29,-420.68 1995,-419 2059.81,-407.76 2134.52,-396.43 2184.34,-389.1"/>
<polygon fill="#9a32cd" stroke="#9a32cd" points="1964.3,-421.02 1955.13,-426.33 1965.61,-427.9 1964.3,-421.02"/>
<text text-anchor="middle" x="2073.5" y="-422.4" font-family="Helvetica,sans-Serif" font-size="12.00"> mathText</text>
</g>
<!-- Node18 -->
<g id="node18" class="node">
<title>Node18</title>
<g id="a_node18"><a xlink:href="class_j_k_q_t_math_text_node.html" target="_top" xlink:title="subclass representing one node in the syntax tree">
<polygon fill="none" stroke="black" points="2176,-454.5 2176,-475.5 2307,-475.5 2307,-454.5 2176,-454.5"/>
<text text-anchor="middle" x="2241.5" y="-461.9" font-family="Helvetica,sans-Serif" font-size="12.00">JKQTMathTextNode</text>
</a>
</g>
</g>
<!-- Node17&#45;&gt;Node18 -->
<g id="edge24" class="edge">
<title>Node17&#45;&gt;Node18</title>
<path fill="none" stroke="#9a32cd" stroke-dasharray="5,2" d="M1965.4,-436.07C2015.27,-436.74 2088.55,-439.17 2152,-447 2166.32,-448.77 2181.77,-451.59 2195.7,-454.48"/>
<polygon fill="#9a32cd" stroke="#9a32cd" points="1965.17,-432.57 1955.13,-435.95 1965.09,-439.57 1965.17,-432.57"/>
<text text-anchor="middle" x="2073.5" y="-450.4" font-family="Helvetica,sans-Serif" font-size="12.00"> parentMathText</text>
</g>
<!-- Node18&#45;&gt;Node17 -->
<g id="edge23" class="edge">
<title>Node18&#45;&gt;Node17</title>
<path fill="none" stroke="#9a32cd" stroke-dasharray="5,2" d="M2165.81,-470.51C2116.92,-472.69 2051.81,-472.89 1995,-464 1973.51,-460.64 1950.07,-453.03 1932.72,-446.6"/>
<polygon fill="#9a32cd" stroke="#9a32cd" points="2166.16,-474 2175.98,-470.02 2165.82,-467 2166.16,-474"/>
<text text-anchor="middle" x="2073.5" y="-474.4" font-family="Helvetica,sans-Serif" font-size="12.00"> parsedNode</text>
</g>
<!-- Node18&#45;&gt;Node18 -->
<g id="edge25" class="edge">
<title>Node18&#45;&gt;Node18</title>
<path fill="none" stroke="#9a32cd" stroke-dasharray="5,2" d="M2214.45,-485.06C2216.23,-490.16 2225.24,-494 2241.5,-494 2266.88,-494 2274.61,-484.65 2264.7,-475.71"/>
<polygon fill="#9a32cd" stroke="#9a32cd" points="2217.73,-486.29 2218.3,-475.71 2211.26,-483.62 2217.73,-486.29"/>
<text text-anchor="middle" x="2241.5" y="-497.4" font-family="Helvetica,sans-Serif" font-size="12.00"> parentNode</text>
</g>
<!-- Node19&#45;&gt;Node6 -->
<g id="edge26" class="edge">
<title>Node19&#45;&gt;Node6</title>
<path fill="none" stroke="#9a32cd" stroke-dasharray="5,2" d="M2493.65,-334.02C2446.5,-333.11 2384.62,-334.84 2331,-346 2306.9,-351.01 2280.87,-362.05 2263.33,-370.4"/>
<polygon fill="#9a32cd" stroke="#9a32cd" points="2493.7,-337.52 2503.78,-334.26 2493.87,-330.52 2493.7,-337.52"/>
<text text-anchor="middle" x="2387.5" y="-349.4" font-family="Helvetica,sans-Serif" font-size="12.00"> m_plotsModel</text>
</g>
<!-- Node20 -->
<g id="node20" class="node">
<title>Node20</title>
<g id="a_node20"><a xlink:title=" ">
<polygon fill="none" stroke="black" points="2170,-301.5 2170,-322.5 2313,-322.5 2313,-301.5 2170,-301.5"/>
<text text-anchor="middle" x="2241.5" y="-308.9" font-family="Helvetica,sans-Serif" font-size="12.00">QAbstractTableModel</text>
</a>
</g>
</g>
<!-- Node20&#45;&gt;Node19 -->
<g id="edge27" class="edge">
<title>Node20&#45;&gt;Node19</title>
<path fill="none" stroke="midnightblue" d="M2323.58,-317.14C2360.35,-319.6 2404.39,-322.72 2444,-326 2463.48,-327.61 2484.65,-329.58 2503.91,-331.44"/>
<polygon fill="midnightblue" stroke="midnightblue" points="2323.62,-313.63 2313.41,-316.46 2323.15,-320.62 2323.62,-313.63"/>
</g>
<!-- Node21 -->
<g id="node21" class="node">
<title>Node21</title>
<g id="a_node21"><a xlink:href="class_j_k_q_t_p_horizontal_axis.html" target="_top" xlink:title="implements a horizontal axis, based on JKQTPCoordinateAxis (for most of documentation: see JKQTPCoord...">
<polygon fill="none" stroke="black" points="2714,-373.5 2714,-394.5 2851,-394.5 2851,-373.5 2714,-373.5"/>
<text text-anchor="middle" x="2782.5" y="-380.9" font-family="Helvetica,sans-Serif" font-size="12.00">JKQTPHorizontalAxis</text>
</a>
</g>
</g>
<!-- Node21&#45;&gt;Node6 -->
<g id="edge29" class="edge">
<title>Node21&#45;&gt;Node6</title>
<path fill="none" stroke="#9a32cd" stroke-dasharray="5,2" d="M2703.8,-388.05C2613.97,-392.03 2461.69,-396.63 2331,-390 2320.51,-389.47 2309.35,-388.58 2298.62,-387.57"/>
<polygon fill="#9a32cd" stroke="#9a32cd" points="2704.07,-391.54 2713.9,-387.59 2703.76,-384.55 2704.07,-391.54"/>
<text text-anchor="middle" x="2569.5" y="-397.4" font-family="Helvetica,sans-Serif" font-size="12.00"> xAxis</text>
</g>
<!-- Node33 -->
<g id="node33" class="node">
<title>Node33</title>
<g id="a_node33"><a xlink:href="class_j_k_q_t_p_horizontal_independent_axis.html" target="_top" xlink:title="implements a position&#45;indipendent horizontal axis, based on JKQTPCoordinateAxis (for most of document...">
<polygon fill="none" stroke="black" points="2888,-381.5 2888,-402.5 3101,-402.5 3101,-381.5 2888,-381.5"/>
<text text-anchor="middle" x="2994.5" y="-388.9" font-family="Helvetica,sans-Serif" font-size="12.00">JKQTPHorizontalIndependentAxis</text>
</a>
</g>
</g>
<!-- Node21&#45;&gt;Node33 -->
<g id="edge50" class="edge">
<title>Node21&#45;&gt;Node33</title>
<path fill="none" stroke="midnightblue" d="M2861.17,-386.96C2869.87,-387.29 2878.83,-387.63 2887.8,-387.97"/>
<polygon fill="midnightblue" stroke="midnightblue" points="2861.23,-383.46 2851.1,-386.58 2860.96,-390.45 2861.23,-383.46"/>
</g>
<!-- Node22&#45;&gt;Node21 -->
<g id="edge30" class="edge">
<title>Node22&#45;&gt;Node21</title>
<path fill="none" stroke="midnightblue" d="M2621.58,-297.43C2639.49,-302.88 2659.49,-309.84 2677,-318 2711.23,-333.95 2747.79,-359.17 2767.29,-373.37"/>
<polygon fill="midnightblue" stroke="midnightblue" points="2622.46,-294.04 2611.88,-294.55 2620.48,-300.75 2622.46,-294.04"/>
</g>
<!-- Node23 -->
<g id="node23" class="node">
<title>Node23</title>
<g id="a_node23"><a xlink:href="class_j_k_q_t_p_vertical_axis.html" target="_top" xlink:title="implements a vertical axis, based on JKQTPCoordinateAxis (for most of documentation: see JKQTPCoordin...">
<polygon fill="none" stroke="black" points="2721.5,-417.5 2721.5,-438.5 2843.5,-438.5 2843.5,-417.5 2721.5,-417.5"/>
<text text-anchor="middle" x="2782.5" y="-424.9" font-family="Helvetica,sans-Serif" font-size="12.00">JKQTPVerticalAxis</text>
</a>
</g>
</g>
<!-- Node22&#45;&gt;Node23 -->
<g id="edge35" class="edge">
<title>Node22&#45;&gt;Node23</title>
<path fill="none" stroke="midnightblue" d="M2643.22,-297.96C2655.51,-302.78 2667.38,-309.27 2677,-318 2707.82,-345.96 2683.64,-375.54 2714,-404 2720.08,-409.7 2727.6,-414.06 2735.39,-417.39"/>
<polygon fill="midnightblue" stroke="midnightblue" points="2644.37,-294.65 2633.77,-294.59 2642.01,-301.24 2644.37,-294.65"/>
</g>
<!-- Node23&#45;&gt;Node6 -->
<g id="edge34" class="edge">
<title>Node23&#45;&gt;Node6</title>
<path fill="none" stroke="#9a32cd" stroke-dasharray="5,2" d="M2711.04,-429.47C2621.93,-430.2 2464.06,-427.75 2331,-406 2311.46,-402.81 2290.09,-396.84 2273.24,-391.54"/>
<polygon fill="#9a32cd" stroke="#9a32cd" points="2711.33,-432.96 2721.29,-429.36 2711.26,-425.96 2711.33,-432.96"/>
<text text-anchor="middle" x="2569.5" y="-432.4" font-family="Helvetica,sans-Serif" font-size="12.00"> yAxis</text>
</g>
<!-- Node32 -->
<g id="node32" class="node">
<title>Node32</title>
<g id="a_node32"><a xlink:href="class_j_k_q_t_p_vertical_independent_axis.html" target="_top" xlink:title="implements a position&#45;indipendent vertical axis, based on JKQTPCoordinateAxis (for most of documentat...">
<polygon fill="none" stroke="black" points="2896,-424.5 2896,-445.5 3093,-445.5 3093,-424.5 2896,-424.5"/>
<text text-anchor="middle" x="2994.5" y="-431.9" font-family="Helvetica,sans-Serif" font-size="12.00">JKQTPVerticalIndependentAxis</text>
</a>
</g>
</g>
<!-- Node23&#45;&gt;Node32 -->
<g id="edge48" class="edge">
<title>Node23&#45;&gt;Node32</title>
<path fill="none" stroke="midnightblue" d="M2853.78,-430.34C2867.22,-430.79 2881.52,-431.27 2895.65,-431.74"/>
<polygon fill="midnightblue" stroke="midnightblue" points="2853.79,-426.84 2843.68,-430.01 2853.56,-433.84 2853.79,-426.84"/>
</g>
<!-- Node24 -->
<g id="node24" class="node">
<title>Node24</title>
<g id="a_node24"><a xlink:href="class_j_k_q_t_p_datastore.html" target="_top" xlink:title="This class manages data columns (with entries of type double ), used by JKQTPlotter/JKQTBasePlotter t...">
<polygon fill="none" stroke="black" points="1850,-84.5 1850,-105.5 1961,-105.5 1961,-84.5 1850,-84.5"/>
<text text-anchor="middle" x="1905.5" y="-91.9" font-family="Helvetica,sans-Serif" font-size="12.00">JKQTPDatastore</text>
</a>
</g>
</g>
<!-- Node24&#45;&gt;Node6 -->
<g id="edge36" class="edge">
<title>Node24&#45;&gt;Node6</title>
<path fill="none" stroke="#9a32cd" stroke-dasharray="5,2" d="M1935.7,-110.54C1948.75,-117.95 1964.07,-127.3 1977,-137 2062.03,-200.78 2086.28,-216.47 2152,-300 2162.09,-312.82 2159.02,-319.93 2170,-332 2184.54,-347.99 2205.23,-361.59 2220.43,-370.37"/>
<polygon fill="#9a32cd" stroke="#9a32cd" points="1937.11,-107.32 1926.67,-105.51 1933.71,-113.44 1937.11,-107.32"/>
<text text-anchor="middle" x="2073.5" y="-303.4" font-family="Helvetica,sans-Serif" font-size="12.00"> datastore</text>
</g>
<!-- Node26 -->
<g id="node26" class="node">
<title>Node26</title>
<g id="a_node26"><a xlink:href="class_j_k_q_t_p_column.html" target="_top" xlink:title="internally stores information about one data column. See JKQTPDatastore for more information.">
<polygon fill="none" stroke="black" points="2192.5,-89.5 2192.5,-110.5 2290.5,-110.5 2290.5,-89.5 2192.5,-89.5"/>
<text text-anchor="middle" x="2241.5" y="-96.9" font-family="Helvetica,sans-Serif" font-size="12.00">JKQTPColumn</text>
</a>
</g>
</g>
<!-- Node24&#45;&gt;Node26 -->
<g id="edge39" class="edge">
<title>Node24&#45;&gt;Node26</title>
<path fill="none" stroke="#9a32cd" stroke-dasharray="5,2" d="M1971.36,-94.54C2020.86,-94.36 2090.74,-94.49 2152,-96 2165.07,-96.32 2179.22,-96.87 2192.28,-97.46"/>
<polygon fill="#9a32cd" stroke="#9a32cd" points="1971.1,-91.04 1961.11,-94.58 1971.13,-98.04 1971.1,-91.04"/>
<text text-anchor="middle" x="2073.5" y="-99.4" font-family="Helvetica,sans-Serif" font-size="12.00"> datastore</text>
</g>
<!-- Node25 -->
<g id="node25" class="node">
<title>Node25</title>
<g id="a_node25"><a xlink:title=" ">
<polygon fill="none" stroke="black" points="2462,-47.5 2462,-68.5 2677,-68.5 2677,-47.5 2462,-47.5"/>
<text text-anchor="middle" x="2569.5" y="-54.9" font-family="Helvetica,sans-Serif" font-size="12.00">std::unique_ptr&lt; JKQTPColumn &gt;</text>
</a>
</g>
</g>
<!-- Node25&#45;&gt;Node24 -->
<g id="edge37" class="edge">
<title>Node25&#45;&gt;Node24</title>
<path fill="none" stroke="#9a32cd" stroke-dasharray="5,2" d="M2451.79,-58.08C2372.3,-58.76 2264.7,-60.91 2170,-67 2097.58,-71.66 2014.36,-81.21 1961.14,-87.85"/>
<polygon fill="#9a32cd" stroke="#9a32cd" points="2451.87,-61.58 2461.84,-58 2451.81,-54.58 2451.87,-61.58"/>
<text text-anchor="middle" x="2241.5" y="-70.4" font-family="Helvetica,sans-Serif" font-size="12.00"> m_invalidColumn</text>
</g>
<!-- Node26&#45;&gt;Node25 -->
<g id="edge38" class="edge">
<title>Node26&#45;&gt;Node25</title>
<path fill="none" stroke="#9a32cd" stroke-dasharray="5,2" d="M2300.64,-92.51C2352.51,-85.83 2429.02,-75.97 2487,-68.5"/>
<polygon fill="#9a32cd" stroke="#9a32cd" points="2300.07,-89.05 2290.6,-93.8 2300.97,-96 2300.07,-89.05"/>
<text text-anchor="middle" x="2387.5" y="-91.4" font-family="Helvetica,sans-Serif" font-size="12.00"> ptr</text>
</g>
<!-- Node27 -->
<g id="node27" class="node">
<title>Node27</title>
<g id="a_node27"><a xlink:title=" ">
<polygon fill="none" stroke="black" points="2171.5,-0.5 2171.5,-21.5 2311.5,-21.5 2311.5,-0.5 2171.5,-0.5"/>
<text text-anchor="middle" x="2241.5" y="-7.9" font-family="Helvetica,sans-Serif" font-size="12.00">std::unique_ptr&lt; T &gt;</text>
</a>
</g>
</g>
<!-- Node27&#45;&gt;Node25 -->
<g id="edge40" class="edge">
<title>Node27&#45;&gt;Node25</title>
<path fill="none" stroke="orange" stroke-dasharray="5,2" d="M2322.04,-16.78C2359.21,-20.02 2404.01,-24.7 2444,-31 2471.42,-35.32 2501.88,-41.89 2525.8,-47.47"/>
<polygon fill="orange" stroke="orange" points="2322.02,-13.26 2311.76,-15.9 2321.43,-20.24 2322.02,-13.26"/>
<text text-anchor="middle" x="2387.5" y="-34.4" font-family="Helvetica,sans-Serif" font-size="12.00"> &lt; JKQTPColumn &gt;</text>
</g>
<!-- Node28 -->
<g id="node28" class="node">
<title>Node28</title>
<g id="a_node28"><a xlink:title=" ">
<polygon fill="none" stroke="black" points="1891,-0.5 1891,-21.5 1920,-21.5 1920,-0.5 1891,-0.5"/>
<text text-anchor="middle" x="1905.5" y="-7.9" font-family="Helvetica,sans-Serif" font-size="12.00">T</text>
</a>
</g>
</g>
<!-- Node28&#45;&gt;Node27 -->
<g id="edge41" class="edge">
<title>Node28&#45;&gt;Node27</title>
<path fill="none" stroke="#9a32cd" stroke-dasharray="5,2" d="M1930.04,-11C1979.54,-11 2096.05,-11 2171.41,-11"/>
<polygon fill="#9a32cd" stroke="#9a32cd" points="1930.01,-7.5 1920.01,-11 1930.01,-14.5 1930.01,-7.5"/>
<text text-anchor="middle" x="2073.5" y="-14.4" font-family="Helvetica,sans-Serif" font-size="12.00"> ptr</text>
</g>
<!-- Node29 -->
<g id="node29" class="node">
<title>Node29</title>
<g id="a_node29"><a xlink:href="class_j_k_q_t_p_graph_line_style_mixin.html" target="_top" xlink:title="This Mix&#45;In class provides setter/getter methods, storage and other facilities for the graph line sty...">
<polygon fill="none" stroke="black" points="3257,-415.5 3257,-436.5 3431,-436.5 3431,-415.5 3257,-415.5"/>
<text text-anchor="middle" x="3344" y="-422.9" font-family="Helvetica,sans-Serif" font-size="12.00">JKQTPGraphLineStyleMixin</text>
</a>
</g>
</g>
<!-- Node29&#45;&gt;Node1 -->
<g id="edge43" class="edge">
<title>Node29&#45;&gt;Node1</title>
<path fill="none" stroke="midnightblue" d="M3406.19,-438.61C3432,-443.93 3462.46,-450.21 3490.23,-455.94"/>
<polygon fill="midnightblue" stroke="midnightblue" points="3406.67,-435.14 3396.17,-436.55 3405.26,-441.99 3406.67,-435.14"/>
</g>
<!-- Node30 -->
<g id="node30" class="node">
<title>Node30</title>
<g id="a_node30"><a xlink:href="class_j_k_q_t_p_graph_symbol_style_mixin.html" target="_top" xlink:title="This Mix&#45;In class provides setter/getter methods, storage and other facilities for the graph symbols ...">
<polygon fill="none" stroke="black" points="3247,-375.5 3247,-396.5 3441,-396.5 3441,-375.5 3247,-375.5"/>
<text text-anchor="middle" x="3344" y="-382.9" font-family="Helvetica,sans-Serif" font-size="12.00">JKQTPGraphSymbolStyleMixin</text>
</a>
</g>
</g>
<!-- Node30&#45;&gt;Node1 -->
<g id="edge44" class="edge">
<title>Node30&#45;&gt;Node1</title>
<path fill="none" stroke="midnightblue" d="M3417.42,-398.94C3425.46,-401.01 3433.46,-403.35 3441,-406 3478.47,-419.15 3518.79,-440.83 3544.87,-455.96"/>
<polygon fill="midnightblue" stroke="midnightblue" points="3418.17,-395.52 3407.63,-396.55 3416.51,-402.32 3418.17,-395.52"/>
</g>
<!-- Node31&#45;&gt;Node1 -->
<g id="edge45" class="edge">
<title>Node31&#45;&gt;Node1</title>
<path fill="none" stroke="midnightblue" d="M3443.2,-473C3454.71,-473 3466.43,-473 3477.9,-473"/>
<polygon fill="midnightblue" stroke="midnightblue" points="3443.15,-469.5 3433.15,-473 3443.15,-476.5 3443.15,-469.5"/>
</g>
<!-- Node32&#45;&gt;Node31 -->
<g id="edge47" class="edge">
<title>Node32&#45;&gt;Node31</title>
<path fill="none" stroke="#9a32cd" stroke-dasharray="5,2" d="M3103.46,-437.4C3143.08,-439.23 3188.2,-442.43 3229,-448 3243.55,-449.99 3259.01,-452.86 3273.69,-455.94"/>
<polygon fill="#9a32cd" stroke="#9a32cd" points="3103.39,-433.89 3093.25,-436.95 3103.09,-440.89 3103.39,-433.89"/>
<text text-anchor="middle" x="3174" y="-451.4" font-family="Helvetica,sans-Serif" font-size="12.00"> colorBarRightAxis</text>
</g>
<!-- Node33&#45;&gt;Node31 -->
<g id="edge49" class="edge">
<title>Node33&#45;&gt;Node31</title>
<path fill="none" stroke="#9a32cd" stroke-dasharray="5,2" d="M3111.05,-387.99C3150.73,-391.22 3193.93,-400.21 3229,-421 3240.78,-427.98 3235.78,-438.15 3247,-446 3252.39,-449.77 3258.3,-453.02 3264.45,-455.81"/>
<polygon fill="#9a32cd" stroke="#9a32cd" points="3111.27,-384.5 3101.05,-387.29 3110.78,-391.48 3111.27,-384.5"/>
<text text-anchor="middle" x="3174" y="-424.4" font-family="Helvetica,sans-Serif" font-size="12.00"> colorBarTopAxis</text>
</g>
</g>
</svg>
        <g id="navigator" transform="translate(0 0)" fill="#404254">
                <rect fill="#f2f5e9" fill-opacity="0.5" stroke="#606060" stroke-width=".5" x="0" y="0" width="60" height="60"/>
                <use id="zoomplus" xlink:href="#zoomPlus" x="17" y="9" onmousedown="handleZoom(evt,'in')"/>
                <use id="zoomminus" xlink:href="#zoomMin" x="42" y="9" onmousedown="handleZoom(evt,'out')"/>
                <use id="reset" xlink:href="#resetDef" x="30" y="36" onmousedown="handleReset()"/>
                <g id="arrowUp" xlink:href="#dirArrow" transform="translate(30 24)" onmousedown="handlePan(0,-1)">
                  <use xlink:href="#rim" fill="#404040">
                        <set attributeName="fill" to="#808080" begin="arrowUp.mouseover" end="arrowUp.mouseout"/>
                  </use>
                  <path fill="none" stroke="white" stroke-width="1.5" d="M0,-3.0v7 M-2.5,-0.5L0,-3.0L2.5,-0.5"/>
                </g>
                <g id="arrowRight" xlink:href="#dirArrow" transform="rotate(90) translate(36 -43)" onmousedown="handlePan(1,0)">
                  <use xlink:href="#rim" fill="#404040">
                        <set attributeName="fill" to="#808080" begin="arrowRight.mouseover" end="arrowRight.mouseout"/>
                  </use>
                  <path fill="none" stroke="white" stroke-width="1.5" d="M0,-3.0v7 M-2.5,-0.5L0,-3.0L2.5,-0.5"/>
                </g>
                <g id="arrowDown" xlink:href="#dirArrow" transform="rotate(180) translate(-30 -48)" onmousedown="handlePan(0,1)">
                  <use xlink:href="#rim" fill="#404040">
                        <set attributeName="fill" to="#808080" begin="arrowDown.mouseover" end="arrowDown.mouseout"/>
                  </use>
                  <path fill="none" stroke="white" stroke-width="1.5" d="M0,-3.0v7 M-2.5,-0.5L0,-3.0L2.5,-0.5"/>
                </g>
                <g id="arrowLeft" xlink:href="#dirArrow" transform="rotate(270) translate(-36 17)" onmousedown="handlePan(-1,0)">
                  <use xlink:href="#rim" fill="#404040">
                        <set attributeName="fill" to="#808080" begin="arrowLeft.mouseover" end="arrowLeft.mouseout"/>
                  </use>
                  <path fill="none" stroke="white" stroke-width="1.5" d="M0,-3.0v7 M-2.5,-0.5L0,-3.0L2.5,-0.5"/>
                </g>
        </g>
        <svg viewBox="0 0 15 15" width="100%" height="30px" preserveAspectRatio="xMaxYMin meet">
         <g id="arrow_out" transform="scale(0.3 0.3)">
          <a xlink:href="class_j_k_q_t_p_x_y_parametrized_scatter_graph__coll__graph_org.svg" target="_base">
           <rect id="button" ry="5" rx="5" y="6" x="6" height="38" width="38"
                fill="#f2f5e9" fill-opacity="0.5" stroke="#606060" stroke-width="1.0"/>
           <path id="arrow"
             d="M 11.500037,31.436501 C 11.940474,20.09759 22.043105,11.32322 32.158766,21.979434 L 37.068811,17.246167 C 37.068811,17.246167 37.088388,32 37.088388,32 L 22.160133,31.978069 C 22.160133,31.978069 26.997745,27.140456 26.997745,27.140456 C 18.528582,18.264221 13.291696,25.230495 11.500037,31.436501 z"
             style="fill:#404040;"/>
          </a>
         </g>
        </svg>
</svg>
