<?xml version="1.0" encoding="UTF-8" standalone="no"?>
<!DOCTYPE svg PUBLIC "-//W3C//DTD SVG 1.1//EN"
 "http://www.w3.org/Graphics/SVG/1.1/DTD/svg11.dtd">
<!-- Generated by graphviz version 2.43.0 (0)
 -->
<!-- Title: JKQTMathTextTextBaseNode Pages: 1 -->
<svg width="366pt" height="146pt"
 viewBox="0.00 0.00 366.00 146.00" xmlns="http://www.w3.org/2000/svg" xmlns:xlink="http://www.w3.org/1999/xlink">
<g id="graph0" class="graph" transform="scale(1 1) rotate(0) translate(4 142)">
<title>JKQTMathTextTextBaseNode</title>
<!-- Node1 -->
<g id="node1" class="node">
<title>Node1</title>
<g id="a_node1"><a xlink:title="base class for nodes representing text in the syntax tree">
<polygon fill="#bfbfbf" stroke="black" points="79.5,-58.5 79.5,-79.5 263.5,-79.5 263.5,-58.5 79.5,-58.5"/>
<text text-anchor="middle" x="171.5" y="-65.9" font-family="Helvetica,sans-Serif" font-size="12.00">JKQTMathTextTextBaseNode</text>
</a>
</g>
</g>
<!-- Node3 -->
<g id="node3" class="node">
<title>Node3</title>
<g id="a_node3"><a xlink:href="class_j_k_q_t_math_text_text_node.html" target="_top" xlink:title="subclass representing one text node in the syntax tree">
<polygon fill="none" stroke="black" points="0,-0.5 0,-21.5 155,-21.5 155,-0.5 0,-0.5"/>
<text text-anchor="middle" x="77.5" y="-7.9" font-family="Helvetica,sans-Serif" font-size="12.00">JKQTMathTextTextNode</text>
</a>
</g>
</g>
<!-- Node1&#45;&gt;Node3 -->
<g id="edge2" class="edge">
<title>Node1&#45;&gt;Node3</title>
<path fill="none" stroke="midnightblue" d="M146.4,-53.05C129.67,-43.08 108.18,-30.28 93.69,-21.64"/>
<polygon fill="midnightblue" stroke="midnightblue" points="144.74,-56.13 155.13,-58.25 148.33,-50.12 144.74,-56.13"/>
</g>
<!-- Node4 -->
<g id="node4" class="node">
<title>Node4</title>
<g id="a_node4"><a xlink:href="class_j_k_q_t_math_text_verbatim_node.html" target="_top" xlink:title="subclass representing a verbatim (plain&#45;text) node with support for line&#45;breaks in the syntax tree">
<polygon fill="none" stroke="black" points="173,-0.5 173,-21.5 358,-21.5 358,-0.5 173,-0.5"/>
<text text-anchor="middle" x="265.5" y="-7.9" font-family="Helvetica,sans-Serif" font-size="12.00">JKQTMathTextVerbatimNode</text>
</a>
</g>
</g>
<!-- Node1&#45;&gt;Node4 -->
<g id="edge3" class="edge">
<title>Node1&#45;&gt;Node4</title>
<path fill="none" stroke="midnightblue" d="M196.6,-53.05C213.33,-43.08 234.82,-30.28 249.31,-21.64"/>
<polygon fill="midnightblue" stroke="midnightblue" points="194.67,-50.12 187.87,-58.25 198.26,-56.13 194.67,-50.12"/>
</g>
<!-- Node2 -->
<g id="node2" class="node">
<title>Node2</title>
<g id="a_node2"><a xlink:href="class_j_k_q_t_math_text_node.html" target="_top" xlink:title="subclass representing one node in the syntax tree">
<polygon fill="none" stroke="black" points="106,-116.5 106,-137.5 237,-137.5 237,-116.5 106,-116.5"/>
<text text-anchor="middle" x="171.5" y="-123.9" font-family="Helvetica,sans-Serif" font-size="12.00">JKQTMathTextNode</text>
</a>
</g>
</g>
<!-- Node2&#45;&gt;Node1 -->
<g id="edge1" class="edge">
<title>Node2&#45;&gt;Node1</title>
<path fill="none" stroke="midnightblue" d="M171.5,-106.16C171.5,-97.16 171.5,-86.92 171.5,-79.64"/>
<polygon fill="midnightblue" stroke="midnightblue" points="168,-106.25 171.5,-116.25 175,-106.25 168,-106.25"/>
</g>
</g>
</svg>
