<?xml version="1.0" encoding="UTF-8" standalone="no"?>
<!DOCTYPE svg PUBLIC "-//W3C//DTD SVG 1.1//EN"
 "http://www.w3.org/Graphics/SVG/1.1/DTD/svg11.dtd">
<!-- Generated by graphviz version 2.43.0 (0)
 -->
<!-- Title: JKQTPXYLineGraph Pages: 1 -->
<svg width="1200pt" height="164pt"
 viewBox="0.00 0.00 1200.00 163.50" xmlns="http://www.w3.org/2000/svg" xmlns:xlink="http://www.w3.org/1999/xlink">
<g id="graph0" class="graph" transform="scale(1 1) rotate(0) translate(4 159.5)">
<title>JKQTPXYLineGraph</title>
<!-- Node1 -->
<g id="node1" class="node">
<title>Node1</title>
<g id="a_node1"><a xlink:title="This implements xy line plots. This also alows to draw symbols at the data points.">
<polygon fill="#bfbfbf" stroke="black" points="620,-74 620,-95 750,-95 750,-74 620,-74"/>
<text text-anchor="middle" x="685" y="-81.4" font-family="Helvetica,sans-Serif" font-size="12.00">JKQTPXYLineGraph</text>
</a>
</g>
</g>
<!-- Node9 -->
<g id="node9" class="node">
<title>Node9</title>
<g id="a_node9"><a xlink:href="class_j_k_q_t_p_x_y_line_error_graph.html" target="_top" xlink:title="This implements xy line plots with x and y error indicators.">
<polygon fill="none" stroke="black" points="802.5,-98 802.5,-119 961.5,-119 961.5,-98 802.5,-98"/>
<text text-anchor="middle" x="882" y="-105.4" font-family="Helvetica,sans-Serif" font-size="12.00">JKQTPXYLineErrorGraph</text>
</a>
</g>
</g>
<!-- Node1&#45;&gt;Node9 -->
<g id="edge8" class="edge">
<title>Node1&#45;&gt;Node9</title>
<path fill="none" stroke="midnightblue" d="M760.43,-93.66C774.1,-95.34 788.42,-97.1 802.21,-98.8"/>
<polygon fill="midnightblue" stroke="midnightblue" points="760.47,-90.14 750.12,-92.39 759.62,-97.09 760.47,-90.14"/>
</g>
<!-- Node10 -->
<g id="node10" class="node">
<title>Node10</title>
<g id="a_node10"><a xlink:href="class_j_k_q_t_p_x_y_parametrized_scatter_graph.html" target="_top" xlink:title="This implements xy scatter plots (like JKQTPXYLineGraph), but the color and size of the symbols may b...">
<polygon fill="none" stroke="black" points="786,-44.5 786,-78.5 978,-78.5 978,-44.5 786,-44.5"/>
<text text-anchor="start" x="794" y="-64.9" font-family="Helvetica,sans-Serif" font-size="12.00">JKQTPXYParametrizedScatter</text>
<text text-anchor="middle" x="882" y="-51.9" font-family="Helvetica,sans-Serif" font-size="12.00">Graph</text>
</a>
</g>
</g>
<!-- Node1&#45;&gt;Node10 -->
<g id="edge9" class="edge">
<title>Node1&#45;&gt;Node10</title>
<path fill="none" stroke="midnightblue" d="M760.19,-75.75C768.56,-74.76 777.18,-73.75 785.77,-72.73"/>
<polygon fill="midnightblue" stroke="midnightblue" points="759.64,-72.29 750.12,-76.94 760.46,-79.24 759.64,-72.29"/>
</g>
<!-- Node2 -->
<g id="node2" class="node">
<title>Node2</title>
<g id="a_node2"><a xlink:href="class_j_k_q_t_p_x_y_graph.html" target="_top" xlink:title="This virtual JKQTPGraph descendent may be used as base for all graphs that use at least two columns t...">
<polygon fill="none" stroke="black" points="433,-134 433,-155 538,-155 538,-134 433,-134"/>
<text text-anchor="middle" x="485.5" y="-141.4" font-family="Helvetica,sans-Serif" font-size="12.00">JKQTPXYGraph</text>
</a>
</g>
</g>
<!-- Node2&#45;&gt;Node1 -->
<g id="edge1" class="edge">
<title>Node2&#45;&gt;Node1</title>
<path fill="none" stroke="midnightblue" d="M548.01,-133.62C560.04,-131 572.49,-127.95 584,-124.5 611.04,-116.39 640.98,-103.93 660.98,-95.07"/>
<polygon fill="midnightblue" stroke="midnightblue" points="547.1,-130.23 538.04,-135.71 548.54,-137.08 547.1,-130.23"/>
</g>
<!-- Node3 -->
<g id="node3" class="node">
<title>Node3</title>
<g id="a_node3"><a xlink:href="class_j_k_q_t_p_graph.html" target="_top" xlink:title="this virtual base class of the (data&#45;column based) graphs, which are part of a JKQTPlotter plot and w...">
<polygon fill="none" stroke="black" points="262,-134 262,-155 351,-155 351,-134 262,-134"/>
<text text-anchor="middle" x="306.5" y="-141.4" font-family="Helvetica,sans-Serif" font-size="12.00">JKQTPGraph</text>
</a>
</g>
</g>
<!-- Node3&#45;&gt;Node2 -->
<g id="edge2" class="edge">
<title>Node3&#45;&gt;Node2</title>
<path fill="none" stroke="midnightblue" d="M361.39,-144.5C384.06,-144.5 410.33,-144.5 432.76,-144.5"/>
<polygon fill="midnightblue" stroke="midnightblue" points="361.25,-141 351.25,-144.5 361.25,-148 361.25,-141"/>
</g>
<!-- Node4 -->
<g id="node4" class="node">
<title>Node4</title>
<g id="a_node4"><a xlink:href="class_j_k_q_t_p_plot_element.html" target="_top" xlink:title="this virtual base class of every element, which is part of a JKQTPlotter plot and may appear in its k...">
<polygon fill="none" stroke="black" points="101,-134 101,-155 226,-155 226,-134 101,-134"/>
<text text-anchor="middle" x="163.5" y="-141.4" font-family="Helvetica,sans-Serif" font-size="12.00">JKQTPPlotElement</text>
</a>
</g>
</g>
<!-- Node4&#45;&gt;Node3 -->
<g id="edge3" class="edge">
<title>Node4&#45;&gt;Node3</title>
<path fill="none" stroke="midnightblue" d="M236.51,-144.5C245.18,-144.5 253.82,-144.5 261.91,-144.5"/>
<polygon fill="midnightblue" stroke="midnightblue" points="236.34,-141 226.34,-144.5 236.34,-148 236.34,-141"/>
</g>
<!-- Node5 -->
<g id="node5" class="node">
<title>Node5</title>
<g id="a_node5"><a xlink:title=" ">
<polygon fill="none" stroke="black" points="0,-134 0,-155 65,-155 65,-134 0,-134"/>
<text text-anchor="middle" x="32.5" y="-141.4" font-family="Helvetica,sans-Serif" font-size="12.00">QObject</text>
</a>
</g>
</g>
<!-- Node5&#45;&gt;Node4 -->
<g id="edge4" class="edge">
<title>Node5&#45;&gt;Node4</title>
<path fill="none" stroke="midnightblue" d="M75.09,-144.5C83.29,-144.5 92.05,-144.5 100.75,-144.5"/>
<polygon fill="midnightblue" stroke="midnightblue" points="75.06,-141 65.06,-144.5 75.06,-148 75.06,-141"/>
</g>
<!-- Node6 -->
<g id="node6" class="node">
<title>Node6</title>
<g id="a_node6"><a xlink:href="class_j_k_q_t_p_graph_line_style_mixin.html" target="_top" xlink:title="This Mix&#45;In class provides setter/getter methods, storage and other facilities for the graph line sty...">
<polygon fill="none" stroke="black" points="398.5,-94 398.5,-115 572.5,-115 572.5,-94 398.5,-94"/>
<text text-anchor="middle" x="485.5" y="-101.4" font-family="Helvetica,sans-Serif" font-size="12.00">JKQTPGraphLineStyleMixin</text>
</a>
</g>
</g>
<!-- Node6&#45;&gt;Node1 -->
<g id="edge5" class="edge">
<title>Node6&#45;&gt;Node1</title>
<path fill="none" stroke="midnightblue" d="M582.66,-94.76C595.3,-93.48 607.99,-92.2 619.92,-90.99"/>
<polygon fill="midnightblue" stroke="midnightblue" points="582.15,-91.3 572.55,-95.79 582.85,-98.26 582.15,-91.3"/>
</g>
<!-- Node7 -->
<g id="node7" class="node">
<title>Node7</title>
<g id="a_node7"><a xlink:href="class_j_k_q_t_p_graph_symbol_style_mixin.html" target="_top" xlink:title="This Mix&#45;In class provides setter/getter methods, storage and other facilities for the graph symbols ...">
<polygon fill="none" stroke="black" points="388.5,-54 388.5,-75 582.5,-75 582.5,-54 388.5,-54"/>
<text text-anchor="middle" x="485.5" y="-61.4" font-family="Helvetica,sans-Serif" font-size="12.00">JKQTPGraphSymbolStyleMixin</text>
</a>
</g>
</g>
<!-- Node7&#45;&gt;Node1 -->
<g id="edge6" class="edge">
<title>Node7&#45;&gt;Node1</title>
<path fill="none" stroke="midnightblue" d="M592.73,-75.26C602,-76.2 611.18,-77.13 619.95,-78.01"/>
<polygon fill="midnightblue" stroke="midnightblue" points="592.95,-71.76 582.65,-74.24 592.24,-78.73 592.95,-71.76"/>
</g>
<!-- Node8 -->
<g id="node8" class="node">
<title>Node8</title>
<g id="a_node8"><a xlink:href="class_j_k_q_t_p_graph_lines_compression_mixin.html" target="_top" xlink:title="This Mix&#45;In class provides setter/getter methods, storage and other facilities for a line&#45;graph compr...">
<polygon fill="none" stroke="black" points="387,-0.5 387,-34.5 584,-34.5 584,-0.5 387,-0.5"/>
<text text-anchor="start" x="395" y="-20.9" font-family="Helvetica,sans-Serif" font-size="12.00">JKQTPGraphLinesCompression</text>
<text text-anchor="middle" x="485.5" y="-7.9" font-family="Helvetica,sans-Serif" font-size="12.00">Mixin</text>
</a>
</g>
</g>
<!-- Node8&#45;&gt;Node1 -->
<g id="edge7" class="edge">
<title>Node8&#45;&gt;Node1</title>
<path fill="none" stroke="midnightblue" d="M561.5,-37.36C569.13,-39.66 576.74,-42.05 584,-44.5 610.22,-53.35 639.55,-65.33 659.62,-73.87"/>
<polygon fill="midnightblue" stroke="midnightblue" points="562.42,-33.99 551.84,-34.52 560.44,-40.7 562.42,-33.99"/>
</g>
<!-- Node11 -->
<g id="node11" class="node">
<title>Node11</title>
<g id="a_node11"><a xlink:href="class_j_k_q_t_p_x_y_parametrized_error_scatter_graph.html" target="_top" xlink:title="This implements xy scatter plots (like JKQTPXYLineGraph), but the color and size of the symbols may b...">
<polygon fill="none" stroke="black" points="1014,-44.5 1014,-78.5 1192,-78.5 1192,-44.5 1014,-44.5"/>
<text text-anchor="start" x="1022" y="-64.9" font-family="Helvetica,sans-Serif" font-size="12.00">JKQTPXYParametrizedError</text>
<text text-anchor="middle" x="1103" y="-51.9" font-family="Helvetica,sans-Serif" font-size="12.00">ScatterGraph</text>
</a>
</g>
</g>
<!-- Node10&#45;&gt;Node11 -->
<g id="edge10" class="edge">
<title>Node10&#45;&gt;Node11</title>
<path fill="none" stroke="midnightblue" d="M988.17,-61.5C996.78,-61.5 1005.42,-61.5 1013.89,-61.5"/>
<polygon fill="midnightblue" stroke="midnightblue" points="988.1,-58 978.1,-61.5 988.1,-65 988.1,-58"/>
</g>
</g>
</svg>
