<?xml version="1.0" encoding="UTF-8" standalone="no"?>
<!DOCTYPE svg PUBLIC "-//W3C//DTD SVG 1.1//EN"
 "http://www.w3.org/Graphics/SVG/1.1/DTD/svg11.dtd">
<!-- Generated by graphviz version 2.43.0 (0)
 -->
<!-- Title: JKQTPColorPaletteWithModifierStyleAndToolsMixin Pages: 1 -->
<!--zoomable 522 -->
<svg id="main" version="1.1" xmlns="http://www.w3.org/2000/svg" xmlns:xlink="http://www.w3.org/1999/xlink" xml:space="preserve" onload="init(evt)">
<style type="text/css"><![CDATA[
.edge:hover path { stroke: red; }
.edge:hover polygon { stroke: red; fill: red; }
]]></style>
<script type="text/javascript"><![CDATA[
var edges = document.getElementsByTagName('g');
if (edges && edges.length) {
  for (var i=0;i<edges.length;i++) {
    if (edges[i].id.substr(0,4)=='edge') {
      edges[i].setAttribute('class','edge');
    }
  }
}
]]></script>
        <defs>
                <circle id="rim" cx="0" cy="0" r="7"/>
                <circle id="rim2" cx="0" cy="0" r="3.5"/>
                <g id="zoomPlus">
                        <use xlink:href="#rim" fill="#404040">
                                <set attributeName="fill" to="#808080" begin="zoomplus.mouseover" end="zoomplus.mouseout"/>
                        </use>
                        <path d="M-4,0h8M0,-4v8" fill="none" stroke="white" stroke-width="1.5" pointer-events="none"/>
                </g>
                <g id="zoomMin">
                        <use xlink:href="#rim" fill="#404040">
                                <set attributeName="fill" to="#808080" begin="zoomminus.mouseover" end="zoomminus.mouseout"/>
                        </use>
                        <path d="M-4,0h8" fill="none" stroke="white" stroke-width="1.5" pointer-events="none"/>
                </g>
                <g id="dirArrow">
                        <path fill="none" stroke="white" stroke-width="1.5" d="M0,-3.0v7 M-2.5,-0.5L0,-3.0L2.5,-0.5"/>
                </g>
               <g id="resetDef">
                       <use xlink:href="#rim2" fill="#404040">
                               <set attributeName="fill" to="#808080" begin="reset.mouseover" end="reset.mouseout"/>
                       </use>
               </g>
        </defs>

<script type="text/javascript">
var viewWidth = 3521;
var viewHeight = 522;
var sectionId = 'dynsection-1';
</script>
<script xlink:href="svgpan.js"/>
<svg id="graph" class="graph">
<g id="viewport">
<title>JKQTPColorPaletteWithModifierStyleAndToolsMixin</title>
<!-- Node1 -->
<g id="node1" class="node">
<title>Node1</title>
<g id="a_node1"><a xlink:title="if a class is derived from this class, it may use color bars that have 2 axes (one &quot;data&quot;/color axis ...">
<polygon fill="#999999" stroke="#666666" points="3513,-290 3313,-290 3313,-256 3513,-256 3513,-290"/>
<text text-anchor="start" x="3321" y="-276.4" font-family="Helvetica,sans-Serif" font-size="12.00">JKQTPColorPaletteWithModifier</text>
<text text-anchor="middle" x="3413" y="-263.4" font-family="Helvetica,sans-Serif" font-size="12.00">StyleAndToolsMixin</text>
</a>
</g>
</g>
<!-- Node2 -->
<g id="node2" class="node">
<title>Node2</title>
<g id="a_node2"><a xlink:href="class_j_k_q_t_p_color_palette_style_and_tools_mixin.html" target="_top" xlink:title="if a class is derived from this class, it may use color bars">
<polygon fill="white" stroke="#666666" points="3276,-237 3098,-237 3098,-203 3276,-203 3276,-237"/>
<text text-anchor="start" x="3106" y="-223.4" font-family="Helvetica,sans-Serif" font-size="12.00">JKQTPColorPaletteStyleAnd</text>
<text text-anchor="middle" x="3187" y="-210.4" font-family="Helvetica,sans-Serif" font-size="12.00">ToolsMixin</text>
</a>
</g>
</g>
<!-- Node2&#45;&gt;Node1 -->
<g id="edge1" class="edge">
<title>Node2&#45;&gt;Node1</title>
<path fill="none" stroke="#63b8ff" d="M3270.15,-239.44C3293.05,-244.86 3317.76,-250.7 3340.03,-255.97"/>
<polygon fill="#63b8ff" stroke="#63b8ff" points="3270.65,-235.96 3260.11,-237.06 3269.03,-242.77 3270.65,-235.96"/>
</g>
<!-- Node3 -->
<g id="node3" class="node">
<title>Node3</title>
<g id="a_node3"><a xlink:href="class_j_k_q_t_base_plotter.html" target="_top" xlink:title="base class for 2D plotter classes (used by the plotter widget JKQTPlotter)">
<polygon fill="white" stroke="#666666" points="2149.5,-297.5 2035.5,-297.5 2035.5,-276.5 2149.5,-276.5 2149.5,-297.5"/>
<text text-anchor="middle" x="2092.5" y="-283.9" font-family="Helvetica,sans-Serif" font-size="12.00">JKQTBasePlotter</text>
</a>
</g>
</g>
<!-- Node3&#45;&gt;Node2 -->
<g id="edge2" class="edge">
<title>Node3&#45;&gt;Node2</title>
<path fill="none" stroke="#9a32cd" stroke-dasharray="5,2" d="M2107.44,-268.3C2123.14,-248.86 2150.61,-219.43 2182,-206 2279.27,-164.39 2313.71,-190 2419.5,-190 2419.5,-190 2419.5,-190 2846.5,-190 2932.15,-190 3029.48,-199.59 3097.9,-207.93"/>
<polygon fill="#9a32cd" stroke="#9a32cd" points="2104.48,-266.41 2101.08,-276.44 2109.99,-270.72 2104.48,-266.41"/>
<text text-anchor="middle" x="2633.5" y="-193.4" font-family="Helvetica,sans-Serif" font-size="12.00"> cbParent</text>
</g>
<!-- Node3&#45;&gt;Node3 -->
<g id="edge42" class="edge">
<title>Node3&#45;&gt;Node3</title>
<path fill="none" stroke="#9a32cd" stroke-dasharray="5,2" d="M2067.07,-307.07C2069.03,-311.91 2077.51,-315.5 2092.5,-315.5 2116.49,-315.5 2123.8,-306.31 2114.43,-297.52"/>
<polygon fill="#9a32cd" stroke="#9a32cd" points="2070.41,-308.12 2070.57,-297.52 2063.84,-305.71 2070.41,-308.12"/>
<text text-anchor="middle" x="2092.5" y="-331.9" font-family="Helvetica,sans-Serif" font-size="12.00"> masterPlotterX</text>
<text text-anchor="middle" x="2092.5" y="-318.9" font-family="Helvetica,sans-Serif" font-size="12.00">masterPlotterY</text>
</g>
<!-- Node19 -->
<g id="node19" class="node">
<title>Node19</title>
<g id="a_node19"><a xlink:href="class_j_k_q_t_p_graphs_model.html" target="_top" xlink:title="data model with all plots ina JKQTBasePlotter (+ allows to switch them visible/invisible)">
<polygon fill="white" stroke="#666666" points="2486,-239.5 2355,-239.5 2355,-218.5 2486,-218.5 2486,-239.5"/>
<text text-anchor="middle" x="2420.5" y="-225.9" font-family="Helvetica,sans-Serif" font-size="12.00">JKQTPGraphsModel</text>
</a>
</g>
</g>
<!-- Node3&#45;&gt;Node19 -->
<g id="edge28" class="edge">
<title>Node3&#45;&gt;Node19</title>
<path fill="none" stroke="#9a32cd" stroke-dasharray="5,2" d="M2133.06,-273.39C2148.22,-268.59 2165.77,-263.51 2182,-260 2239.92,-247.48 2306.94,-239.29 2355,-234.49"/>
<polygon fill="#9a32cd" stroke="#9a32cd" points="2131.92,-270.08 2123.48,-276.49 2134.07,-276.74 2131.92,-270.08"/>
<text text-anchor="middle" x="2238.5" y="-263.4" font-family="Helvetica,sans-Serif" font-size="12.00"> m_plotter</text>
</g>
<!-- Node22 -->
<g id="node22" class="node">
<title>Node22</title>
<g id="a_node22"><a xlink:href="class_j_k_q_t_p_coordinate_axis.html" target="_top" xlink:title="this virtual class is the base for any type of coordinate axis, to be drawn by JKQTBasePlotter.">
<polygon fill="white" stroke="#666666" points="2491.5,-385.5 2349.5,-385.5 2349.5,-364.5 2491.5,-364.5 2491.5,-385.5"/>
<text text-anchor="middle" x="2420.5" y="-371.9" font-family="Helvetica,sans-Serif" font-size="12.00">JKQTPCoordinateAxis</text>
</a>
</g>
</g>
<!-- Node3&#45;&gt;Node22 -->
<g id="edge32" class="edge">
<title>Node3&#45;&gt;Node22</title>
<path fill="none" stroke="#9a32cd" stroke-dasharray="5,2" d="M2124.15,-302.01C2140.93,-309.74 2162.26,-318.82 2182,-325 2230.91,-340.3 2244.84,-337.46 2295,-348 2320.32,-353.32 2348.51,-359.42 2371.64,-364.47"/>
<polygon fill="#9a32cd" stroke="#9a32cd" points="2125.39,-298.72 2114.85,-297.64 2122.42,-305.06 2125.39,-298.72"/>
<text text-anchor="middle" x="2238.5" y="-351.4" font-family="Helvetica,sans-Serif" font-size="12.00"> parent</text>
</g>
<!-- Node4 -->
<g id="node4" class="node">
<title>Node4</title>
<g id="a_node4"><a xlink:title=" ">
<polygon fill="white" stroke="#666666" points="1507.5,-465.5 1442.5,-465.5 1442.5,-444.5 1507.5,-444.5 1507.5,-465.5"/>
<text text-anchor="middle" x="1475" y="-451.9" font-family="Helvetica,sans-Serif" font-size="12.00">QObject</text>
</a>
</g>
</g>
<!-- Node4&#45;&gt;Node3 -->
<g id="edge3" class="edge">
<title>Node4&#45;&gt;Node3</title>
<path fill="none" stroke="#63b8ff" d="M1517.75,-452.93C1609.89,-447.69 1827.29,-431.4 1888,-392 1900.41,-383.95 1894.65,-373.49 1906,-364 1947.19,-329.55 2005.95,-308.68 2046.24,-297.52"/>
<polygon fill="#63b8ff" stroke="#63b8ff" points="1517.46,-449.44 1507.67,-453.49 1517.85,-456.43 1517.46,-449.44"/>
</g>
<!-- Node17 -->
<g id="node17" class="node">
<title>Node17</title>
<g id="a_node17"><a xlink:href="class_j_k_q_t_math_text.html" target="_top" xlink:title="this class parses a mathematical markup string and can then draw the contained text/equation onto a Q...">
<polygon fill="white" stroke="#666666" points="1866,-465.5 1767,-465.5 1767,-444.5 1866,-444.5 1866,-465.5"/>
<text text-anchor="middle" x="1816.5" y="-451.9" font-family="Helvetica,sans-Serif" font-size="12.00">JKQTMathText</text>
</a>
</g>
</g>
<!-- Node4&#45;&gt;Node17 -->
<g id="edge22" class="edge">
<title>Node4&#45;&gt;Node17</title>
<path fill="none" stroke="#63b8ff" d="M1518,-455C1581.07,-455 1699.96,-455 1766.76,-455"/>
<polygon fill="#63b8ff" stroke="#63b8ff" points="1517.63,-451.5 1507.63,-455 1517.63,-458.5 1517.63,-451.5"/>
</g>
<!-- Node4&#45;&gt;Node22 -->
<g id="edge31" class="edge">
<title>Node4&#45;&gt;Node22</title>
<path fill="none" stroke="#63b8ff" d="M1517.53,-464.82C1625.57,-488.76 1923.69,-544.4 2164,-492 2260.29,-471 2363.7,-410.3 2403.04,-385.62"/>
<polygon fill="#63b8ff" stroke="#63b8ff" points="1518.2,-461.39 1507.68,-462.61 1516.67,-468.22 1518.2,-461.39"/>
</g>
<!-- Node5 -->
<g id="node5" class="node">
<title>Node5</title>
<g id="a_node5"><a xlink:href="class_j_k_q_t_base_plotter_style.html" target="_top" xlink:title="Support Class for JKQTBasePlotter, which summarizes all properties that define the visual styling of ...">
<polygon fill="white" stroke="#666666" points="1888,-297.5 1745,-297.5 1745,-276.5 1888,-276.5 1888,-297.5"/>
<text text-anchor="middle" x="1816.5" y="-283.9" font-family="Helvetica,sans-Serif" font-size="12.00">JKQTBasePlotterStyle</text>
</a>
</g>
</g>
<!-- Node5&#45;&gt;Node3 -->
<g id="edge4" class="edge">
<title>Node5&#45;&gt;Node3</title>
<path fill="none" stroke="#9a32cd" stroke-dasharray="5,2" d="M1898.19,-287C1942.32,-287 1995.88,-287 2035.42,-287"/>
<polygon fill="#9a32cd" stroke="#9a32cd" points="1898.06,-283.5 1888.06,-287 1898.06,-290.5 1898.06,-283.5"/>
<text text-anchor="middle" x="1954.5" y="-290.4" font-family="Helvetica,sans-Serif" font-size="12.00"> plotterStyle</text>
</g>
<!-- Node6 -->
<g id="node6" class="node">
<title>Node6</title>
<g id="a_node6"><a xlink:href="class_j_k_q_t_p_key_style.html" target="_top" xlink:title="Support Class for JKQTBasePlotter, which summarizes all properties that define the visual styling of ...">
<polygon fill="white" stroke="#666666" points="1527,-346.5 1423,-346.5 1423,-325.5 1527,-325.5 1527,-346.5"/>
<text text-anchor="middle" x="1475" y="-332.9" font-family="Helvetica,sans-Serif" font-size="12.00">JKQTPKeyStyle</text>
</a>
</g>
</g>
<!-- Node6&#45;&gt;Node5 -->
<g id="edge5" class="edge">
<title>Node6&#45;&gt;Node5</title>
<path fill="none" stroke="#9a32cd" stroke-dasharray="5,2" d="M1537.61,-334.18C1588.73,-331.82 1663.12,-326.4 1727,-314 1747.18,-310.08 1769.31,-303.33 1786.39,-297.56"/>
<polygon fill="#9a32cd" stroke="#9a32cd" points="1537.23,-330.69 1527.39,-334.63 1537.54,-337.69 1537.23,-330.69"/>
<text text-anchor="middle" x="1658.5" y="-333.4" font-family="Helvetica,sans-Serif" font-size="12.00"> keyStyle</text>
</g>
<!-- Node7 -->
<g id="node7" class="node">
<title>Node7</title>
<g id="a_node7"><a xlink:href="class_j_k_q_t_p_coordinate_axis_style.html" target="_top" xlink:title="Support Class for JKQTPCoordinateAxis, which summarizes all properties that define the visual styling...">
<polygon fill="white" stroke="#666666" points="1234,-300.5 1063,-300.5 1063,-279.5 1234,-279.5 1234,-300.5"/>
<text text-anchor="middle" x="1148.5" y="-286.9" font-family="Helvetica,sans-Serif" font-size="12.00">JKQTPCoordinateAxisStyle</text>
</a>
</g>
</g>
<!-- Node7&#45;&gt;Node5 -->
<g id="edge6" class="edge">
<title>Node7&#45;&gt;Node5</title>
<path fill="none" stroke="#9a32cd" stroke-dasharray="5,2" d="M1194.59,-276.59C1240.31,-263.74 1313.35,-245.26 1378,-238 1463.68,-228.37 1486.2,-229.45 1572,-238 1644.73,-245.25 1727.9,-264.38 1775.8,-276.48"/>
<polygon fill="#9a32cd" stroke="#9a32cd" points="1193.36,-273.3 1184.7,-279.4 1195.27,-280.03 1193.36,-273.3"/>
<text text-anchor="middle" x="1475" y="-254.4" font-family="Helvetica,sans-Serif" font-size="12.00"> xAxisStyle</text>
<text text-anchor="middle" x="1475" y="-241.4" font-family="Helvetica,sans-Serif" font-size="12.00">yAxisStyle</text>
</g>
<!-- Node9 -->
<g id="node9" class="node">
<title>Node9</title>
<g id="a_node9"><a xlink:href="class_j_k_q_t_p_colorbar_coordinate_axis_style.html" target="_top" xlink:title="Support Class for JKQTPCoordinateAxis, which summarizes all properties that define the visual styling...">
<polygon fill="white" stroke="#666666" points="1572,-307 1378,-307 1378,-273 1572,-273 1572,-307"/>
<text text-anchor="start" x="1386" y="-293.4" font-family="Helvetica,sans-Serif" font-size="12.00">JKQTPColorbarCoordinateAxis</text>
<text text-anchor="middle" x="1475" y="-280.4" font-family="Helvetica,sans-Serif" font-size="12.00">Style</text>
</a>
</g>
</g>
<!-- Node7&#45;&gt;Node9 -->
<g id="edge9" class="edge">
<title>Node7&#45;&gt;Node9</title>
<path fill="none" stroke="#63b8ff" d="M1244.56,-290C1286.54,-290 1335.81,-290 1377.91,-290"/>
<polygon fill="#63b8ff" stroke="#63b8ff" points="1244.33,-286.5 1234.33,-290 1244.33,-293.5 1244.33,-286.5"/>
</g>
<!-- Node7&#45;&gt;Node22 -->
<g id="edge33" class="edge">
<title>Node7&#45;&gt;Node22</title>
<path fill="none" stroke="#9a32cd" stroke-dasharray="5,2" d="M1182.3,-304.58C1240.05,-328.87 1364.17,-375 1474,-375 1474,-375 1474,-375 2093.5,-375 2181.65,-375 2283.21,-375 2349.23,-375"/>
<polygon fill="#9a32cd" stroke="#9a32cd" points="1183.54,-301.3 1172.96,-300.59 1180.79,-307.74 1183.54,-301.3"/>
<text text-anchor="middle" x="1816.5" y="-378.4" font-family="Helvetica,sans-Serif" font-size="12.00"> axisStyle</text>
</g>
<!-- Node8 -->
<g id="node8" class="node">
<title>Node8</title>
<g id="a_node8"><a xlink:href="class_j_k_q_t_p_grid_style.html" target="_top" xlink:title="Support Class for JKQTPCoordinateAxis, and summarizes all properties that define the visual styling o...">
<polygon fill="white" stroke="#666666" points="805.5,-300.5 698.5,-300.5 698.5,-279.5 805.5,-279.5 805.5,-300.5"/>
<text text-anchor="middle" x="752" y="-286.9" font-family="Helvetica,sans-Serif" font-size="12.00">JKQTPGridStyle</text>
</a>
</g>
</g>
<!-- Node8&#45;&gt;Node7 -->
<g id="edge7" class="edge">
<title>Node8&#45;&gt;Node7</title>
<path fill="none" stroke="#9a32cd" stroke-dasharray="5,2" d="M816.18,-290C883.03,-290 988.9,-290 1062.92,-290"/>
<polygon fill="#9a32cd" stroke="#9a32cd" points="815.79,-286.5 805.79,-290 815.79,-293.5 815.79,-286.5"/>
<text text-anchor="middle" x="948.5" y="-306.4" font-family="Helvetica,sans-Serif" font-size="12.00"> majorGridStyle</text>
<text text-anchor="middle" x="948.5" y="-293.4" font-family="Helvetica,sans-Serif" font-size="12.00">minorGridStyle</text>
</g>
<!-- Node9&#45;&gt;Node5 -->
<g id="edge8" class="edge">
<title>Node9&#45;&gt;Node5</title>
<path fill="none" stroke="#9a32cd" stroke-dasharray="5,2" d="M1582.25,-288.09C1584.86,-288.06 1587.45,-288.03 1590,-288 1641.87,-287.43 1700.46,-287.18 1744.91,-287.08"/>
<polygon fill="#9a32cd" stroke="#9a32cd" points="1582.05,-284.59 1572.09,-288.22 1582.14,-291.59 1582.05,-284.59"/>
<text text-anchor="middle" x="1658.5" y="-304.4" font-family="Helvetica,sans-Serif" font-size="12.00"> rightColorbarAxisStyle</text>
<text text-anchor="middle" x="1658.5" y="-291.4" font-family="Helvetica,sans-Serif" font-size="12.00">topColorbarAxisStyle</text>
</g>
<!-- Node10 -->
<g id="node10" class="node">
<title>Node10</title>
<g id="a_node10"><a xlink:href="class_j_k_q_t_graphs_base_style.html" target="_top" xlink:title="Support Class for JKQTBasePlotter, which summarizes all properties that define the visual styling of ...">
<polygon fill="white" stroke="#666666" points="1548,-139.5 1402,-139.5 1402,-118.5 1548,-118.5 1548,-139.5"/>
<text text-anchor="middle" x="1475" y="-125.9" font-family="Helvetica,sans-Serif" font-size="12.00">JKQTGraphsBaseStyle</text>
</a>
</g>
</g>
<!-- Node10&#45;&gt;Node5 -->
<g id="edge10" class="edge">
<title>Node10&#45;&gt;Node5</title>
<path fill="none" stroke="#9a32cd" stroke-dasharray="5,2" d="M1553.8,-141.57C1605.43,-152.26 1673.31,-170.97 1727,-202 1761.67,-222.04 1793.15,-258.49 1807.42,-276.44"/>
<polygon fill="#9a32cd" stroke="#9a32cd" points="1554.19,-138.08 1543.7,-139.54 1552.81,-144.94 1554.19,-138.08"/>
<text text-anchor="middle" x="1658.5" y="-205.4" font-family="Helvetica,sans-Serif" font-size="12.00"> graphsStyle</text>
</g>
<!-- Node11 -->
<g id="node11" class="node">
<title>Node11</title>
<g id="a_node11"><a xlink:href="class_j_k_q_t_graphs_specific_style_properties.html" target="_top" xlink:title="Support Class for JKQTBasePlotter, which summarizes all properties that define the visual styling of ...">
<polygon fill="white" stroke="#666666" points="623,-94.5 399,-94.5 399,-73.5 623,-73.5 623,-94.5"/>
<text text-anchor="middle" x="511" y="-80.9" font-family="Helvetica,sans-Serif" font-size="12.00">JKQTGraphsSpecificStyleProperties</text>
</a>
</g>
</g>
<!-- Node11&#45;&gt;Node10 -->
<g id="edge11" class="edge">
<title>Node11&#45;&gt;Node10</title>
<path fill="none" stroke="#9a32cd" stroke-dasharray="5,2" d="M615.72,-72.53C758.23,-59.11 1022.15,-42.68 1244,-76 1312.69,-86.32 1391.25,-106.21 1436.49,-118.47"/>
<polygon fill="#9a32cd" stroke="#9a32cd" points="615.3,-69.05 605.68,-73.49 615.96,-76.02 615.3,-69.05"/>
<text text-anchor="middle" x="948.5" y="-87.4" font-family="Helvetica,sans-Serif" font-size="12.00"> boxplotStyle</text>
<text text-anchor="middle" x="948.5" y="-74.4" font-family="Helvetica,sans-Serif" font-size="12.00">defaultGraphStyle</text>
<text text-anchor="middle" x="948.5" y="-61.4" font-family="Helvetica,sans-Serif" font-size="12.00">filledStyle</text>
</g>
<!-- Node13 -->
<g id="node13" class="node">
<title>Node13</title>
<g id="a_node13"><a xlink:href="class_j_k_q_t_barchart_specific_style_properties.html" target="_top" xlink:title="Support Class for JKQTBasePlotter, which summarizes all properties that define the visual styling of ...">
<polygon fill="white" stroke="#666666" points="1035,-34 862,-34 862,0 1035,0 1035,-34"/>
<text text-anchor="start" x="870" y="-20.4" font-family="Helvetica,sans-Serif" font-size="12.00">JKQTBarchartSpecificStyle</text>
<text text-anchor="middle" x="948.5" y="-7.4" font-family="Helvetica,sans-Serif" font-size="12.00">Properties</text>
</a>
</g>
</g>
<!-- Node11&#45;&gt;Node13 -->
<g id="edge14" class="edge">
<title>Node11&#45;&gt;Node13</title>
<path fill="none" stroke="#63b8ff" d="M548.84,-69.87C574.33,-60.7 609.26,-49.31 641,-43 714.72,-28.35 800.03,-21.95 861.9,-19.16"/>
<polygon fill="#63b8ff" stroke="#63b8ff" points="547.4,-66.67 539.21,-73.39 549.81,-73.24 547.4,-66.67"/>
</g>
<!-- Node14 -->
<g id="node14" class="node">
<title>Node14</title>
<g id="a_node14"><a xlink:href="class_j_k_q_t_impulse_specific_style_properties.html" target="_top" xlink:title="Support Class for JKQTBasePlotter, which summarizes all properties that define the visual styling of ...">
<polygon fill="white" stroke="#666666" points="1032.5,-213 864.5,-213 864.5,-179 1032.5,-179 1032.5,-213"/>
<text text-anchor="start" x="872.5" y="-199.4" font-family="Helvetica,sans-Serif" font-size="12.00">JKQTImpulseSpecificStyle</text>
<text text-anchor="middle" x="948.5" y="-186.4" font-family="Helvetica,sans-Serif" font-size="12.00">Properties</text>
</a>
</g>
</g>
<!-- Node11&#45;&gt;Node14 -->
<g id="edge16" class="edge">
<title>Node11&#45;&gt;Node14</title>
<path fill="none" stroke="#63b8ff" d="M547.35,-98.25C577.05,-109.85 620.81,-126.02 660,-137 727.95,-156.04 806.53,-171.74 864.35,-182.15"/>
<polygon fill="#63b8ff" stroke="#63b8ff" points="548.43,-94.92 537.84,-94.51 545.86,-101.43 548.43,-94.92"/>
</g>
<!-- Node15 -->
<g id="node15" class="node">
<title>Node15</title>
<g id="a_node15"><a xlink:href="class_j_k_q_t_geometric_specific_style_properties.html" target="_top" xlink:title="Support Class for JKQTBasePlotter, which summarizes all properties that define the visual styling of ...">
<polygon fill="white" stroke="#666666" points="844,-128 660,-128 660,-94 844,-94 844,-128"/>
<text text-anchor="start" x="668" y="-114.4" font-family="Helvetica,sans-Serif" font-size="12.00">JKQTGeometricSpecificStyle</text>
<text text-anchor="middle" x="752" y="-101.4" font-family="Helvetica,sans-Serif" font-size="12.00">Properties</text>
</a>
</g>
</g>
<!-- Node11&#45;&gt;Node15 -->
<g id="edge18" class="edge">
<title>Node11&#45;&gt;Node15</title>
<path fill="none" stroke="#63b8ff" d="M615.27,-95.67C630.06,-97.34 645.19,-99.05 659.74,-100.69"/>
<polygon fill="#63b8ff" stroke="#63b8ff" points="615.42,-92.16 605.09,-94.52 614.63,-99.12 615.42,-92.16"/>
</g>
<!-- Node12 -->
<g id="node12" class="node">
<title>Node12</title>
<g id="a_node12"><a xlink:href="struct_j_k_q_t_p_color_derivation_mode.html" target="_top" xlink:title="Specifies how a fill&#45;color is derived from a given color.">
<polygon fill="white" stroke="#666666" points="179,-94.5 0,-94.5 0,-73.5 179,-73.5 179,-94.5"/>
<text text-anchor="middle" x="89.5" y="-80.9" font-family="Helvetica,sans-Serif" font-size="12.00">JKQTPColorDerivationMode</text>
</a>
</g>
</g>
<!-- Node12&#45;&gt;Node11 -->
<g id="edge12" class="edge">
<title>Node12&#45;&gt;Node11</title>
<path fill="none" stroke="#9a32cd" stroke-dasharray="5,2" d="M189.53,-84C252.41,-84 333.9,-84 398.97,-84"/>
<polygon fill="#9a32cd" stroke="#9a32cd" points="189.21,-80.5 179.21,-84 189.21,-87.5 189.21,-80.5"/>
<text text-anchor="middle" x="289" y="-139.4" font-family="Helvetica,sans-Serif" font-size="12.00"> errorColorDerivationMode</text>
<text text-anchor="middle" x="289" y="-126.4" font-family="Helvetica,sans-Serif" font-size="12.00">errorFillColorDerivationMode</text>
<text text-anchor="middle" x="289" y="-113.4" font-family="Helvetica,sans-Serif" font-size="12.00">fillColorDerivationMode</text>
<text text-anchor="middle" x="289" y="-100.4" font-family="Helvetica,sans-Serif" font-size="12.00">graphColorDerivationMode</text>
<text text-anchor="middle" x="289" y="-87.4" font-family="Helvetica,sans-Serif" font-size="12.00">symbolFillColorDerivationMode</text>
</g>
<!-- Node13&#45;&gt;Node10 -->
<g id="edge13" class="edge">
<title>Node13&#45;&gt;Node10</title>
<path fill="none" stroke="#9a32cd" stroke-dasharray="5,2" d="M1045.23,-6.66C1130.85,-1.18 1258.16,-2.45 1360,-43 1403.76,-60.43 1445.36,-99.36 1463.9,-118.27"/>
<polygon fill="#9a32cd" stroke="#9a32cd" points="1044.74,-3.19 1035,-7.37 1045.22,-10.17 1044.74,-3.19"/>
<text text-anchor="middle" x="1148.5" y="-15.4" font-family="Helvetica,sans-Serif" font-size="12.00"> barchartStyle</text>
</g>
<!-- Node14&#45;&gt;Node10 -->
<g id="edge15" class="edge">
<title>Node14&#45;&gt;Node10</title>
<path fill="none" stroke="#9a32cd" stroke-dasharray="5,2" d="M1042.55,-197.04C1126.38,-196.28 1252.58,-190.95 1360,-169 1392.06,-162.45 1427.38,-149.03 1450.08,-139.54"/>
<polygon fill="#9a32cd" stroke="#9a32cd" points="1042.52,-193.54 1032.54,-197.11 1042.57,-200.54 1042.52,-193.54"/>
<text text-anchor="middle" x="1148.5" y="-199.4" font-family="Helvetica,sans-Serif" font-size="12.00"> impulseStyle</text>
</g>
<!-- Node15&#45;&gt;Node10 -->
<g id="edge17" class="edge">
<title>Node15&#45;&gt;Node10</title>
<path fill="none" stroke="#9a32cd" stroke-dasharray="5,2" d="M854.56,-119.64C975.09,-128.86 1182.15,-141.46 1360,-136 1373.58,-135.58 1388.05,-134.89 1401.97,-134.09"/>
<polygon fill="#9a32cd" stroke="#9a32cd" points="854.48,-116.12 844.24,-118.84 853.95,-123.1 854.48,-116.12"/>
<text text-anchor="middle" x="1148.5" y="-140.4" font-family="Helvetica,sans-Serif" font-size="12.00"> geometricStyle</text>
</g>
<!-- Node16 -->
<g id="node16" class="node">
<title>Node16</title>
<g id="a_node16"><a xlink:href="class_j_k_q_t_annotations_specific_style_properties.html" target="_top" xlink:title="Support Class for JKQTBasePlotter, which summarizes all properties that define the visual styling of ...">
<polygon fill="white" stroke="#666666" points="1244,-119 1053,-119 1053,-85 1244,-85 1244,-119"/>
<text text-anchor="start" x="1061" y="-105.4" font-family="Helvetica,sans-Serif" font-size="12.00">JKQTAnnotationsSpecificStyle</text>
<text text-anchor="middle" x="1148.5" y="-92.4" font-family="Helvetica,sans-Serif" font-size="12.00">Properties</text>
</a>
</g>
</g>
<!-- Node15&#45;&gt;Node16 -->
<g id="edge20" class="edge">
<title>Node15&#45;&gt;Node16</title>
<path fill="none" stroke="#63b8ff" d="M854.07,-108.69C915.27,-107.3 992.83,-105.53 1052.84,-104.16"/>
<polygon fill="#63b8ff" stroke="#63b8ff" points="853.92,-105.2 844,-108.92 854.08,-112.19 853.92,-105.2"/>
</g>
<!-- Node16&#45;&gt;Node10 -->
<g id="edge19" class="edge">
<title>Node16&#45;&gt;Node10</title>
<path fill="none" stroke="#9a32cd" stroke-dasharray="5,2" d="M1254.39,-110.73C1302.57,-114.74 1358.51,-119.39 1401.86,-123"/>
<polygon fill="#9a32cd" stroke="#9a32cd" points="1254.49,-107.22 1244.23,-109.88 1253.91,-114.2 1254.49,-107.22"/>
<text text-anchor="middle" x="1311" y="-122.4" font-family="Helvetica,sans-Serif" font-size="12.00"> annotationStyle</text>
</g>
<!-- Node17&#45;&gt;Node3 -->
<g id="edge21" class="edge">
<title>Node17&#45;&gt;Node3</title>
<path fill="none" stroke="#9a32cd" stroke-dasharray="5,2" d="M1860.98,-440.97C1870.03,-437.66 1879.42,-433.94 1888,-430 1941.54,-405.39 1954.99,-398.17 2003,-364 2032.87,-342.74 2064.49,-313.31 2080.63,-297.71"/>
<polygon fill="#9a32cd" stroke="#9a32cd" points="1859.6,-437.74 1851.34,-444.38 1861.94,-444.34 1859.6,-437.74"/>
<text text-anchor="middle" x="1954.5" y="-423.4" font-family="Helvetica,sans-Serif" font-size="12.00"> mathText</text>
</g>
<!-- Node18 -->
<g id="node18" class="node">
<title>Node18</title>
<g id="a_node18"><a xlink:href="class_j_k_q_t_math_text_node.html" target="_top" xlink:title="subclass representing one node in the syntax tree">
<polygon fill="white" stroke="#666666" points="2158,-451.5 2027,-451.5 2027,-430.5 2158,-430.5 2158,-451.5"/>
<text text-anchor="middle" x="2092.5" y="-437.9" font-family="Helvetica,sans-Serif" font-size="12.00">JKQTMathTextNode</text>
</a>
</g>
</g>
<!-- Node17&#45;&gt;Node18 -->
<g id="edge24" class="edge">
<title>Node17&#45;&gt;Node18</title>
<path fill="none" stroke="#9a32cd" stroke-dasharray="5,2" d="M1876.05,-459.26C1912.62,-461.1 1960.65,-462.03 2003,-458 2016.86,-456.68 2031.78,-454.22 2045.35,-451.58"/>
<polygon fill="#9a32cd" stroke="#9a32cd" points="1876.22,-455.77 1866.05,-458.72 1875.84,-462.76 1876.22,-455.77"/>
<text text-anchor="middle" x="1954.5" y="-463.4" font-family="Helvetica,sans-Serif" font-size="12.00"> parentMathText</text>
</g>
<!-- Node18&#45;&gt;Node17 -->
<g id="edge23" class="edge">
<title>Node18&#45;&gt;Node17</title>
<path fill="none" stroke="#9a32cd" stroke-dasharray="5,2" d="M2016.36,-441.07C1982.59,-441.5 1942.26,-442.57 1906,-445 1893.04,-445.87 1879.06,-447.25 1866.12,-448.7"/>
<polygon fill="#9a32cd" stroke="#9a32cd" points="2016.66,-444.57 2026.62,-440.96 2016.58,-437.57 2016.66,-444.57"/>
<text text-anchor="middle" x="1954.5" y="-448.4" font-family="Helvetica,sans-Serif" font-size="12.00"> parsedNode</text>
</g>
<!-- Node18&#45;&gt;Node18 -->
<g id="edge25" class="edge">
<title>Node18&#45;&gt;Node18</title>
<path fill="none" stroke="#9a32cd" stroke-dasharray="5,2" d="M2067.07,-461.07C2069.03,-465.91 2077.51,-469.5 2092.5,-469.5 2116.49,-469.5 2123.8,-460.31 2114.43,-451.52"/>
<polygon fill="#9a32cd" stroke="#9a32cd" points="2070.41,-462.12 2070.57,-451.52 2063.84,-459.71 2070.41,-462.12"/>
<text text-anchor="middle" x="2092.5" y="-472.9" font-family="Helvetica,sans-Serif" font-size="12.00"> parentNode</text>
</g>
<!-- Node19&#45;&gt;Node3 -->
<g id="edge26" class="edge">
<title>Node19&#45;&gt;Node3</title>
<path fill="none" stroke="#9a32cd" stroke-dasharray="5,2" d="M2357.98,-216.95C2309.08,-209.91 2239.58,-205.6 2182,-224 2149.66,-234.33 2119.05,-261.28 2103.72,-276.37"/>
<polygon fill="#9a32cd" stroke="#9a32cd" points="2357.67,-220.45 2368.09,-218.49 2358.73,-213.53 2357.67,-220.45"/>
<text text-anchor="middle" x="2238.5" y="-227.4" font-family="Helvetica,sans-Serif" font-size="12.00"> m_plotsModel</text>
</g>
<!-- Node20 -->
<g id="node20" class="node">
<title>Node20</title>
<g id="a_node20"><a xlink:title=" ">
<polygon fill="white" stroke="#666666" points="2164,-175.5 2021,-175.5 2021,-154.5 2164,-154.5 2164,-175.5"/>
<text text-anchor="middle" x="2092.5" y="-161.9" font-family="Helvetica,sans-Serif" font-size="12.00">QAbstractTableModel</text>
</a>
</g>
</g>
<!-- Node20&#45;&gt;Node19 -->
<g id="edge27" class="edge">
<title>Node20&#45;&gt;Node19</title>
<path fill="none" stroke="#63b8ff" d="M2157.2,-177.51C2218.02,-189.45 2308.63,-207.23 2365.86,-218.47"/>
<polygon fill="#63b8ff" stroke="#63b8ff" points="2157.82,-174.06 2147.33,-175.57 2156.47,-180.93 2157.82,-174.06"/>
</g>
<!-- Node21 -->
<g id="node21" class="node">
<title>Node21</title>
<g id="a_node21"><a xlink:href="class_j_k_q_t_p_horizontal_axis.html" target="_top" xlink:title="implements a horizontal axis, based on JKQTPCoordinateAxis (for most of documentation: see JKQTPCoord...">
<polygon fill="white" stroke="#666666" points="2702,-286.5 2565,-286.5 2565,-265.5 2702,-265.5 2702,-286.5"/>
<text text-anchor="middle" x="2633.5" y="-272.9" font-family="Helvetica,sans-Serif" font-size="12.00">JKQTPHorizontalAxis</text>
</a>
</g>
</g>
<!-- Node21&#45;&gt;Node3 -->
<g id="edge29" class="edge">
<title>Node21&#45;&gt;Node3</title>
<path fill="none" stroke="#9a32cd" stroke-dasharray="5,2" d="M2554.66,-277.59C2444.67,-279.83 2246.4,-283.88 2149.66,-285.85"/>
<polygon fill="#9a32cd" stroke="#9a32cd" points="2554.78,-281.09 2564.7,-277.38 2554.63,-274.09 2554.78,-281.09"/>
<text text-anchor="middle" x="2420.5" y="-285.4" font-family="Helvetica,sans-Serif" font-size="12.00"> xAxis</text>
</g>
<!-- Node30 -->
<g id="node30" class="node">
<title>Node30</title>
<g id="a_node30"><a xlink:href="class_j_k_q_t_p_horizontal_independent_axis.html" target="_top" xlink:title="implements a position&#45;indipendent horizontal axis, based on JKQTPCoordinateAxis (for most of document...">
<polygon fill="white" stroke="#666666" points="2952,-283.5 2739,-283.5 2739,-262.5 2952,-262.5 2952,-283.5"/>
<text text-anchor="middle" x="2845.5" y="-269.9" font-family="Helvetica,sans-Serif" font-size="12.00">JKQTPHorizontalIndependentAxis</text>
</a>
</g>
</g>
<!-- Node21&#45;&gt;Node30 -->
<g id="edge46" class="edge">
<title>Node21&#45;&gt;Node30</title>
<path fill="none" stroke="#63b8ff" d="M2712.17,-274.89C2720.87,-274.77 2729.83,-274.64 2738.8,-274.51"/>
<polygon fill="#63b8ff" stroke="#63b8ff" points="2712.05,-271.39 2702.1,-275.03 2712.15,-278.39 2712.05,-271.39"/>
</g>
<!-- Node22&#45;&gt;Node21 -->
<g id="edge30" class="edge">
<title>Node22&#45;&gt;Node21</title>
<path fill="none" stroke="#63b8ff" d="M2478.92,-361.56C2495.3,-356.59 2512.8,-350.12 2528,-342 2546.67,-332.02 2547.36,-323.7 2565,-312 2579.39,-302.46 2596.57,-293.32 2610,-286.64"/>
<polygon fill="#63b8ff" stroke="#63b8ff" points="2477.54,-358.32 2468.91,-364.47 2479.49,-365.05 2477.54,-358.32"/>
</g>
<!-- Node23 -->
<g id="node23" class="node">
<title>Node23</title>
<g id="a_node23"><a xlink:href="class_j_k_q_t_p_vertical_axis.html" target="_top" xlink:title="implements a vertical axis, based on JKQTPCoordinateAxis (for most of documentation: see JKQTPCoordin...">
<polygon fill="white" stroke="#666666" points="2694.5,-341.5 2572.5,-341.5 2572.5,-320.5 2694.5,-320.5 2694.5,-341.5"/>
<text text-anchor="middle" x="2633.5" y="-327.9" font-family="Helvetica,sans-Serif" font-size="12.00">JKQTPVerticalAxis</text>
</a>
</g>
</g>
<!-- Node22&#45;&gt;Node23 -->
<g id="edge35" class="edge">
<title>Node22&#45;&gt;Node23</title>
<path fill="none" stroke="#63b8ff" d="M2502,-368.75C2517.06,-366.82 2532.59,-364.29 2547,-361 2567.7,-356.28 2590.35,-348.19 2607.13,-341.61"/>
<polygon fill="#63b8ff" stroke="#63b8ff" points="2501.18,-365.33 2491.67,-370.01 2502.02,-372.28 2501.18,-365.33"/>
</g>
<!-- Node23&#45;&gt;Node3 -->
<g id="edge34" class="edge">
<title>Node23&#45;&gt;Node3</title>
<path fill="none" stroke="#9a32cd" stroke-dasharray="5,2" d="M2562.09,-326.95C2473.35,-321.59 2316.19,-311.25 2182,-298 2171.52,-296.97 2160.37,-295.7 2149.63,-294.41"/>
<polygon fill="#9a32cd" stroke="#9a32cd" points="2562.11,-330.45 2572.3,-327.56 2562.53,-323.47 2562.11,-330.45"/>
<text text-anchor="middle" x="2420.5" y="-327.4" font-family="Helvetica,sans-Serif" font-size="12.00"> yAxis</text>
</g>
<!-- Node29 -->
<g id="node29" class="node">
<title>Node29</title>
<g id="a_node29"><a xlink:href="class_j_k_q_t_p_vertical_independent_axis.html" target="_top" xlink:title="implements a position&#45;indipendent vertical axis, based on JKQTPCoordinateAxis (for most of documentat...">
<polygon fill="white" stroke="#666666" points="2944,-341.5 2747,-341.5 2747,-320.5 2944,-320.5 2944,-341.5"/>
<text text-anchor="middle" x="2845.5" y="-327.9" font-family="Helvetica,sans-Serif" font-size="12.00">JKQTPVerticalIndependentAxis</text>
</a>
</g>
</g>
<!-- Node23&#45;&gt;Node29 -->
<g id="edge44" class="edge">
<title>Node23&#45;&gt;Node29</title>
<path fill="none" stroke="#63b8ff" d="M2704.78,-331C2718.22,-331 2732.52,-331 2746.65,-331"/>
<polygon fill="#63b8ff" stroke="#63b8ff" points="2704.68,-327.5 2694.68,-331 2704.68,-334.5 2704.68,-327.5"/>
</g>
<!-- Node24 -->
<g id="node24" class="node">
<title>Node24</title>
<g id="a_node24"><a xlink:href="class_j_k_q_t_p_datastore.html" target="_top" xlink:title="This class manages data columns (with entries of type double ), used by JKQTPlotter/JKQTBasePlotter t...">
<polygon fill="white" stroke="#666666" points="1872,-136.5 1761,-136.5 1761,-115.5 1872,-115.5 1872,-136.5"/>
<text text-anchor="middle" x="1816.5" y="-122.9" font-family="Helvetica,sans-Serif" font-size="12.00">JKQTPDatastore</text>
</a>
</g>
</g>
<!-- Node24&#45;&gt;Node3 -->
<g id="edge36" class="edge">
<title>Node24&#45;&gt;Node3</title>
<path fill="none" stroke="#9a32cd" stroke-dasharray="5,2" d="M1844.39,-141.8C1900.02,-174.49 2026.45,-248.78 2073.46,-276.4"/>
<polygon fill="#9a32cd" stroke="#9a32cd" points="1845.87,-138.61 1835.48,-136.56 1842.33,-144.65 1845.87,-138.61"/>
<text text-anchor="middle" x="1954.5" y="-237.4" font-family="Helvetica,sans-Serif" font-size="12.00"> datastore</text>
</g>
<!-- Node26 -->
<g id="node26" class="node">
<title>Node26</title>
<g id="a_node26"><a xlink:href="class_j_k_q_t_p_column.html" target="_top" xlink:title="internally stores information about one data column. See JKQTPDatastore for more information.">
<polygon fill="white" stroke="#666666" points="2141.5,-136.5 2043.5,-136.5 2043.5,-115.5 2141.5,-115.5 2141.5,-136.5"/>
<text text-anchor="middle" x="2092.5" y="-122.9" font-family="Helvetica,sans-Serif" font-size="12.00">JKQTPColumn</text>
</a>
</g>
</g>
<!-- Node24&#45;&gt;Node26 -->
<g id="edge39" class="edge">
<title>Node24&#45;&gt;Node26</title>
<path fill="none" stroke="#9a32cd" stroke-dasharray="5,2" d="M1882.54,-126C1931.87,-126 1998.58,-126 2043.22,-126"/>
<polygon fill="#9a32cd" stroke="#9a32cd" points="1882.29,-122.5 1872.29,-126 1882.29,-129.5 1882.29,-122.5"/>
<text text-anchor="middle" x="1954.5" y="-129.4" font-family="Helvetica,sans-Serif" font-size="12.00"> datastore</text>
</g>
<!-- Node25 -->
<g id="node25" class="node">
<title>Node25</title>
<g id="a_node25"><a xlink:title=" ">
<polygon fill="white" stroke="#666666" points="2528,-94.5 2313,-94.5 2313,-73.5 2528,-73.5 2528,-94.5"/>
<text text-anchor="middle" x="2420.5" y="-80.9" font-family="Helvetica,sans-Serif" font-size="12.00">std::unique_ptr&lt; JKQTPColumn &gt;</text>
</a>
</g>
</g>
<!-- Node25&#45;&gt;Node24 -->
<g id="edge37" class="edge">
<title>Node25&#45;&gt;Node24</title>
<path fill="none" stroke="#9a32cd" stroke-dasharray="5,2" d="M2302.67,-82.92C2223.12,-83.16 2115.52,-85.42 2021,-94 1970.25,-98.61 1912.94,-108 1872.1,-115.42"/>
<polygon fill="#9a32cd" stroke="#9a32cd" points="2302.73,-86.42 2312.72,-82.9 2302.72,-79.42 2302.73,-86.42"/>
<text text-anchor="middle" x="2092.5" y="-97.4" font-family="Helvetica,sans-Serif" font-size="12.00"> m_invalidColumn</text>
</g>
<!-- Node26&#45;&gt;Node25 -->
<g id="edge38" class="edge">
<title>Node26&#45;&gt;Node25</title>
<path fill="none" stroke="#9a32cd" stroke-dasharray="5,2" d="M2151.64,-118.51C2203.51,-111.83 2280.02,-101.97 2338,-94.5"/>
<polygon fill="#9a32cd" stroke="#9a32cd" points="2151.07,-115.05 2141.6,-119.8 2151.97,-122 2151.07,-115.05"/>
<text text-anchor="middle" x="2238.5" y="-116.4" font-family="Helvetica,sans-Serif" font-size="12.00"> ptr</text>
</g>
<!-- Node27 -->
<g id="node27" class="node">
<title>Node27</title>
<g id="a_node27"><a xlink:title=" ">
<polygon fill="white" stroke="#666666" points="2162.5,-47.5 2022.5,-47.5 2022.5,-26.5 2162.5,-26.5 2162.5,-47.5"/>
<text text-anchor="middle" x="2092.5" y="-33.9" font-family="Helvetica,sans-Serif" font-size="12.00">std::unique_ptr&lt; T &gt;</text>
</a>
</g>
</g>
<!-- Node27&#45;&gt;Node25 -->
<g id="edge40" class="edge">
<title>Node27&#45;&gt;Node25</title>
<path fill="none" stroke="orange" stroke-dasharray="5,2" d="M2173.04,-42.78C2210.21,-46.02 2255.01,-50.7 2295,-57 2322.42,-61.32 2352.88,-67.89 2376.8,-73.47"/>
<polygon fill="orange" stroke="orange" points="2173.02,-39.26 2162.76,-41.9 2172.43,-46.24 2173.02,-39.26"/>
<text text-anchor="middle" x="2238.5" y="-60.4" font-family="Helvetica,sans-Serif" font-size="12.00"> &lt; JKQTPColumn &gt;</text>
</g>
<!-- Node28 -->
<g id="node28" class="node">
<title>Node28</title>
<g id="a_node28"><a xlink:title=" ">
<polygon fill="white" stroke="#666666" points="1831,-47.5 1802,-47.5 1802,-26.5 1831,-26.5 1831,-47.5"/>
<text text-anchor="middle" x="1816.5" y="-33.9" font-family="Helvetica,sans-Serif" font-size="12.00">T</text>
</a>
</g>
</g>
<!-- Node28&#45;&gt;Node27 -->
<g id="edge41" class="edge">
<title>Node28&#45;&gt;Node27</title>
<path fill="none" stroke="#9a32cd" stroke-dasharray="5,2" d="M1841.17,-37C1881.06,-37 1963.14,-37 2022.46,-37"/>
<polygon fill="#9a32cd" stroke="#9a32cd" points="1841.09,-33.5 1831.09,-37 1841.09,-40.5 1841.09,-33.5"/>
<text text-anchor="middle" x="1954.5" y="-40.4" font-family="Helvetica,sans-Serif" font-size="12.00"> ptr</text>
</g>
<!-- Node29&#45;&gt;Node1 -->
<g id="edge47" class="edge">
<title>Node29&#45;&gt;Node1</title>
<path fill="none" stroke="#9a32cd" stroke-dasharray="5,2" d="M2954.25,-326.78C2993.85,-324.77 3039.01,-321.91 3080,-318 3158.46,-310.51 3246.87,-298.34 3312.72,-288.55"/>
<polygon fill="#9a32cd" stroke="#9a32cd" points="2953.86,-323.3 2944.05,-327.29 2954.21,-330.29 2953.86,-323.3"/>
<text text-anchor="middle" x="3187" y="-319.4" font-family="Helvetica,sans-Serif" font-size="12.00"> modifierColorBarTopAxis</text>
</g>
<!-- Node29&#45;&gt;Node2 -->
<g id="edge43" class="edge">
<title>Node29&#45;&gt;Node2</title>
<path fill="none" stroke="#9a32cd" stroke-dasharray="5,2" d="M2909.12,-318.24C2957.23,-307.15 3024.61,-288.79 3080,-263 3088.72,-258.94 3089.4,-255.3 3098,-251 3108.29,-245.86 3119.64,-241.19 3130.67,-237.12"/>
<polygon fill="#9a32cd" stroke="#9a32cd" points="2908.13,-314.87 2899.15,-320.5 2909.68,-321.7 2908.13,-314.87"/>
<text text-anchor="middle" x="3025" y="-304.4" font-family="Helvetica,sans-Serif" font-size="12.00"> colorBarRightAxis</text>
</g>
<!-- Node30&#45;&gt;Node1 -->
<g id="edge48" class="edge">
<title>Node30&#45;&gt;Node1</title>
<path fill="none" stroke="#9a32cd" stroke-dasharray="5,2" d="M2962.36,-273C3065.64,-273 3215.17,-273 3312.97,-273"/>
<polygon fill="#9a32cd" stroke="#9a32cd" points="2962.2,-269.5 2952.2,-273 2962.2,-276.5 2962.2,-269.5"/>
<text text-anchor="middle" x="3187" y="-276.4" font-family="Helvetica,sans-Serif" font-size="12.00"> modifierColorBarRightAxis</text>
</g>
<!-- Node30&#45;&gt;Node2 -->
<g id="edge45" class="edge">
<title>Node30&#45;&gt;Node2</title>
<path fill="none" stroke="#9a32cd" stroke-dasharray="5,2" d="M2899.75,-260.19C2921.45,-255.28 2946.83,-249.92 2970,-246 3011.9,-238.92 3058.68,-233.04 3097.97,-228.67"/>
<polygon fill="#9a32cd" stroke="#9a32cd" points="2898.71,-256.84 2889.74,-262.49 2900.27,-263.66 2898.71,-256.84"/>
<text text-anchor="middle" x="3025" y="-249.4" font-family="Helvetica,sans-Serif" font-size="12.00"> colorBarTopAxis</text>
</g>
</g>
</svg>
        <g id="navigator" transform="translate(0 0)" fill="#404254">
                <rect fill="#f2f5e9" fill-opacity="0.5" stroke="#606060" stroke-width=".5" x="0" y="0" width="60" height="60"/>
                <use id="zoomplus" xlink:href="#zoomPlus" x="17" y="9" onmousedown="handleZoom(evt,'in')"/>
                <use id="zoomminus" xlink:href="#zoomMin" x="42" y="9" onmousedown="handleZoom(evt,'out')"/>
                <use id="reset" xlink:href="#resetDef" x="30" y="36" onmousedown="handleReset()"/>
                <g id="arrowUp" xlink:href="#dirArrow" transform="translate(30 24)" onmousedown="handlePan(0,-1)">
                  <use xlink:href="#rim" fill="#404040">
                        <set attributeName="fill" to="#808080" begin="arrowUp.mouseover" end="arrowUp.mouseout"/>
                  </use>
                  <path fill="none" stroke="white" stroke-width="1.5" d="M0,-3.0v7 M-2.5,-0.5L0,-3.0L2.5,-0.5"/>
                </g>
                <g id="arrowRight" xlink:href="#dirArrow" transform="rotate(90) translate(36 -43)" onmousedown="handlePan(1,0)">
                  <use xlink:href="#rim" fill="#404040">
                        <set attributeName="fill" to="#808080" begin="arrowRight.mouseover" end="arrowRight.mouseout"/>
                  </use>
                  <path fill="none" stroke="white" stroke-width="1.5" d="M0,-3.0v7 M-2.5,-0.5L0,-3.0L2.5,-0.5"/>
                </g>
                <g id="arrowDown" xlink:href="#dirArrow" transform="rotate(180) translate(-30 -48)" onmousedown="handlePan(0,1)">
                  <use xlink:href="#rim" fill="#404040">
                        <set attributeName="fill" to="#808080" begin="arrowDown.mouseover" end="arrowDown.mouseout"/>
                  </use>
                  <path fill="none" stroke="white" stroke-width="1.5" d="M0,-3.0v7 M-2.5,-0.5L0,-3.0L2.5,-0.5"/>
                </g>
                <g id="arrowLeft" xlink:href="#dirArrow" transform="rotate(270) translate(-36 17)" onmousedown="handlePan(-1,0)">
                  <use xlink:href="#rim" fill="#404040">
                        <set attributeName="fill" to="#808080" begin="arrowLeft.mouseover" end="arrowLeft.mouseout"/>
                  </use>
                  <path fill="none" stroke="white" stroke-width="1.5" d="M0,-3.0v7 M-2.5,-0.5L0,-3.0L2.5,-0.5"/>
                </g>
        </g>
        <svg viewBox="0 0 15 15" width="100%" height="30px" preserveAspectRatio="xMaxYMin meet">
         <g id="arrow_out" transform="scale(0.3 0.3)">
          <a xlink:href="class_j_k_q_t_p_color_palette_with_modifier_style_and_tools_mixin__coll__graph_org.svg" target="_base">
           <rect id="button" ry="5" rx="5" y="6" x="6" height="38" width="38"
                fill="#f2f5e9" fill-opacity="0.5" stroke="#606060" stroke-width="1.0"/>
           <path id="arrow"
             d="M 11.500037,31.436501 C 11.940474,20.09759 22.043105,11.32322 32.158766,21.979434 L 37.068811,17.246167 C 37.068811,17.246167 37.088388,32 37.088388,32 L 22.160133,31.978069 C 22.160133,31.978069 26.997745,27.140456 26.997745,27.140456 C 18.528582,18.264221 13.291696,25.230495 11.500037,31.436501 z"
             style="fill:#404040;"/>
          </a>
         </g>
        </svg>
</svg>
