<?xml version="1.0" encoding="UTF-8" standalone="no"?>
<!DOCTYPE svg PUBLIC "-//W3C//DTD SVG 1.1//EN"
 "http://www.w3.org/Graphics/SVG/1.1/DTD/svg11.dtd">
<!-- Generated by graphviz version 2.43.0 (0)
 -->
<!-- Title: JKQTPlotter Pages: 1 -->
<!--zoomable 703 -->
<svg id="main" version="1.1" xmlns="http://www.w3.org/2000/svg" xmlns:xlink="http://www.w3.org/1999/xlink" xml:space="preserve" onload="init(evt)">
<style type="text/css"><![CDATA[
.edge:hover path { stroke: red; }
.edge:hover polygon { stroke: red; fill: red; }
]]></style>
<script type="text/javascript"><![CDATA[
var edges = document.getElementsByTagName('g');
if (edges && edges.length) {
  for (var i=0;i<edges.length;i++) {
    if (edges[i].id.substr(0,4)=='edge') {
      edges[i].setAttribute('class','edge');
    }
  }
}
]]></script>
        <defs>
                <circle id="rim" cx="0" cy="0" r="7"/>
                <circle id="rim2" cx="0" cy="0" r="3.5"/>
                <g id="zoomPlus">
                        <use xlink:href="#rim" fill="#404040">
                                <set attributeName="fill" to="#808080" begin="zoomplus.mouseover" end="zoomplus.mouseout"/>
                        </use>
                        <path d="M-4,0h8M0,-4v8" fill="none" stroke="white" stroke-width="1.5" pointer-events="none"/>
                </g>
                <g id="zoomMin">
                        <use xlink:href="#rim" fill="#404040">
                                <set attributeName="fill" to="#808080" begin="zoomminus.mouseover" end="zoomminus.mouseout"/>
                        </use>
                        <path d="M-4,0h8" fill="none" stroke="white" stroke-width="1.5" pointer-events="none"/>
                </g>
                <g id="dirArrow">
                        <path fill="none" stroke="white" stroke-width="1.5" d="M0,-3.0v7 M-2.5,-0.5L0,-3.0L2.5,-0.5"/>
                </g>
               <g id="resetDef">
                       <use xlink:href="#rim2" fill="#404040">
                               <set attributeName="fill" to="#808080" begin="reset.mouseover" end="reset.mouseout"/>
                       </use>
               </g>
        </defs>

<script type="text/javascript">
var viewWidth = 3042;
var viewHeight = 703;
var sectionId = 'dynsection-1';
</script>
<script xlink:href="svgpan.js"/>
<svg id="graph" class="graph">
<g id="viewport">
<title>JKQTPlotter</title>
<!-- Node1 -->
<g id="node1" class="node">
<title>Node1</title>
<g id="a_node1"><a xlink:title="plotter widget for scientific plots (uses JKQTBasePlotter to do the actual drawing)">
<polygon fill="#999999" stroke="#666666" points="2557,-616.5 2472,-616.5 2472,-595.5 2557,-595.5 2557,-616.5"/>
<text text-anchor="middle" x="2514.5" y="-602.9" font-family="Helvetica,sans-Serif" font-size="12.00">JKQTPlotter</text>
</a>
</g>
</g>
<!-- Node2 -->
<g id="node2" class="node">
<title>Node2</title>
<g id="a_node2"><a xlink:title=" ">
<polygon fill="white" stroke="#666666" points="2153.5,-694.5 2085.5,-694.5 2085.5,-673.5 2153.5,-673.5 2153.5,-694.5"/>
<text text-anchor="middle" x="2119.5" y="-680.9" font-family="Helvetica,sans-Serif" font-size="12.00">QWidget</text>
</a>
</g>
</g>
<!-- Node2&#45;&gt;Node1 -->
<g id="edge1" class="edge">
<title>Node2&#45;&gt;Node1</title>
<path fill="none" stroke="#63b8ff" d="M2163.77,-682.28C2217.31,-679.4 2310.98,-671.92 2389,-653 2425.6,-644.12 2466.06,-627.5 2490.64,-616.59"/>
<polygon fill="#63b8ff" stroke="#63b8ff" points="2163.42,-678.79 2153.61,-682.79 2163.77,-685.78 2163.42,-678.79"/>
</g>
<!-- Node3 -->
<g id="node3" class="node">
<title>Node3</title>
<g id="a_node3"><a xlink:href="struct_j_k_q_t_plotter_1_1_mouse_drag_action.html" target="_top" xlink:title="ties a MouseActionMode to a mouse&#45;button and a keyboard&#45;modifier">
<polygon fill="white" stroke="#666666" points="2218,-655.5 2021,-655.5 2021,-634.5 2218,-634.5 2218,-655.5"/>
<text text-anchor="middle" x="2119.5" y="-641.9" font-family="Helvetica,sans-Serif" font-size="12.00">JKQTPlotter::MouseDragAction</text>
</a>
</g>
</g>
<!-- Node3&#45;&gt;Node1 -->
<g id="edge2" class="edge">
<title>Node3&#45;&gt;Node1</title>
<path fill="none" stroke="#9a32cd" stroke-dasharray="5,2" d="M2228.19,-637.51C2277.3,-633.75 2336.15,-628.77 2389,-623 2416.65,-619.98 2447.64,-615.75 2471.79,-612.27"/>
<polygon fill="#9a32cd" stroke="#9a32cd" points="2227.89,-634.02 2218.19,-638.27 2228.42,-641 2227.89,-634.02"/>
<text text-anchor="middle" x="2312.5" y="-639.4" font-family="Helvetica,sans-Serif" font-size="12.00"> currentMouseDragAction</text>
</g>
<!-- Node4 -->
<g id="node4" class="node">
<title>Node4</title>
<g id="a_node4"><a xlink:href="class_j_k_q_t_base_plotter.html" target="_top" xlink:title="base class for 2D plotter classes (used by the plotter widget JKQTPlotter)">
<polygon fill="white" stroke="#666666" points="2176.5,-317.5 2062.5,-317.5 2062.5,-296.5 2176.5,-296.5 2176.5,-317.5"/>
<text text-anchor="middle" x="2119.5" y="-303.9" font-family="Helvetica,sans-Serif" font-size="12.00">JKQTBasePlotter</text>
</a>
</g>
</g>
<!-- Node4&#45;&gt;Node1 -->
<g id="edge3" class="edge">
<title>Node4&#45;&gt;Node1</title>
<path fill="none" stroke="#9a32cd" stroke-dasharray="5,2" d="M2156.44,-322.15C2177.3,-332.68 2202.46,-348.67 2218,-370 2236.16,-394.92 2217.51,-412.33 2236,-437 2300.44,-522.99 2422.64,-574.59 2480.95,-595.36"/>
<polygon fill="#9a32cd" stroke="#9a32cd" points="2157.73,-318.88 2147.21,-317.69 2154.69,-325.19 2157.73,-318.88"/>
<text text-anchor="middle" x="2312.5" y="-557.4" font-family="Helvetica,sans-Serif" font-size="12.00"> plotter</text>
</g>
<!-- Node4&#45;&gt;Node4 -->
<g id="edge45" class="edge">
<title>Node4&#45;&gt;Node4</title>
<path fill="none" stroke="#9a32cd" stroke-dasharray="5,2" d="M2089.12,-326.71C2091.11,-331.73 2101.24,-335.5 2119.5,-335.5 2148.01,-335.5 2156.69,-326.31 2145.56,-317.52"/>
<polygon fill="#9a32cd" stroke="#9a32cd" points="2092.35,-328.06 2093.44,-317.52 2086.02,-325.08 2092.35,-328.06"/>
<text text-anchor="middle" x="2119.5" y="-351.9" font-family="Helvetica,sans-Serif" font-size="12.00"> masterPlotterX</text>
<text text-anchor="middle" x="2119.5" y="-338.9" font-family="Helvetica,sans-Serif" font-size="12.00">masterPlotterY</text>
</g>
<!-- Node20 -->
<g id="node20" class="node">
<title>Node20</title>
<g id="a_node20"><a xlink:href="class_j_k_q_t_p_graphs_model.html" target="_top" xlink:title="data model with all plots ina JKQTBasePlotter (+ allows to switch them visible/invisible)">
<polygon fill="white" stroke="#666666" points="2580,-323.5 2449,-323.5 2449,-302.5 2580,-302.5 2580,-323.5"/>
<text text-anchor="middle" x="2514.5" y="-309.9" font-family="Helvetica,sans-Serif" font-size="12.00">JKQTPGraphsModel</text>
</a>
</g>
</g>
<!-- Node4&#45;&gt;Node20 -->
<g id="edge29" class="edge">
<title>Node4&#45;&gt;Node20</title>
<path fill="none" stroke="#9a32cd" stroke-dasharray="5,2" d="M2186.97,-304.98C2203.02,-304.57 2220.12,-304.21 2236,-304 2303.99,-303.12 2321.04,-301.55 2389,-304 2408.49,-304.7 2429.67,-306.02 2448.93,-307.44"/>
<polygon fill="#9a32cd" stroke="#9a32cd" points="2186.5,-301.49 2176.6,-305.25 2186.69,-308.49 2186.5,-301.49"/>
<text text-anchor="middle" x="2312.5" y="-307.4" font-family="Helvetica,sans-Serif" font-size="12.00"> m_plotter</text>
</g>
<!-- Node24 -->
<g id="node24" class="node">
<title>Node24</title>
<g id="a_node24"><a xlink:href="class_j_k_q_t_p_coordinate_axis.html" target="_top" xlink:title="this virtual class is the base for any type of coordinate axis, to be drawn by JKQTBasePlotter.">
<polygon fill="white" stroke="#666666" points="2585.5,-434.5 2443.5,-434.5 2443.5,-413.5 2585.5,-413.5 2585.5,-434.5"/>
<text text-anchor="middle" x="2514.5" y="-420.9" font-family="Helvetica,sans-Serif" font-size="12.00">JKQTPCoordinateAxis</text>
</a>
</g>
</g>
<!-- Node4&#45;&gt;Node24 -->
<g id="edge34" class="edge">
<title>Node4&#45;&gt;Node24</title>
<path fill="none" stroke="#9a32cd" stroke-dasharray="5,2" d="M2146.75,-322.76C2166.71,-335.03 2194.63,-352.81 2218,-370 2226.39,-376.17 2226.48,-380.78 2236,-385 2302.27,-414.37 2385.41,-422.76 2443.32,-424.65"/>
<polygon fill="#9a32cd" stroke="#9a32cd" points="2148.55,-319.76 2138.19,-317.53 2144.9,-325.73 2148.55,-319.76"/>
<text text-anchor="middle" x="2312.5" y="-423.4" font-family="Helvetica,sans-Serif" font-size="12.00"> parent</text>
</g>
<!-- Node5 -->
<g id="node5" class="node">
<title>Node5</title>
<g id="a_node5"><a xlink:title=" ">
<polygon fill="white" stroke="#666666" points="1507.5,-401.5 1442.5,-401.5 1442.5,-380.5 1507.5,-380.5 1507.5,-401.5"/>
<text text-anchor="middle" x="1475" y="-387.9" font-family="Helvetica,sans-Serif" font-size="12.00">QObject</text>
</a>
</g>
</g>
<!-- Node5&#45;&gt;Node4 -->
<g id="edge4" class="edge">
<title>Node5&#45;&gt;Node4</title>
<path fill="none" stroke="#63b8ff" d="M1518.08,-385.5C1630.04,-370.86 1935.3,-330.95 2062.11,-314.37"/>
<polygon fill="#63b8ff" stroke="#63b8ff" points="1517.32,-382.07 1507.86,-386.83 1518.23,-389.01 1517.32,-382.07"/>
</g>
<!-- Node18 -->
<g id="node18" class="node">
<title>Node18</title>
<g id="a_node18"><a xlink:href="class_j_k_q_t_math_text.html" target="_top" xlink:title="this class parses a mathematical markup string and can then draw the contained text/equation onto a Q...">
<polygon fill="white" stroke="#666666" points="1866,-401.5 1767,-401.5 1767,-380.5 1866,-380.5 1866,-401.5"/>
<text text-anchor="middle" x="1816.5" y="-387.9" font-family="Helvetica,sans-Serif" font-size="12.00">JKQTMathText</text>
</a>
</g>
</g>
<!-- Node5&#45;&gt;Node18 -->
<g id="edge23" class="edge">
<title>Node5&#45;&gt;Node18</title>
<path fill="none" stroke="#63b8ff" d="M1518,-391C1581.07,-391 1699.96,-391 1766.76,-391"/>
<polygon fill="#63b8ff" stroke="#63b8ff" points="1517.63,-387.5 1507.63,-391 1517.63,-394.5 1517.63,-387.5"/>
</g>
<!-- Node5&#45;&gt;Node24 -->
<g id="edge33" class="edge">
<title>Node5&#45;&gt;Node24</title>
<path fill="none" stroke="#63b8ff" d="M1518.02,-396.56C1539.52,-399.3 1566.14,-402.54 1590,-405 1781.21,-424.72 1828.94,-432.99 2021,-441 2108.48,-444.65 2130.45,-442.02 2218,-441 2294.02,-440.11 2313.13,-441.84 2389,-437 2406.68,-435.87 2425.72,-434.15 2443.46,-432.31"/>
<polygon fill="#63b8ff" stroke="#63b8ff" points="1518.27,-393.06 1507.9,-395.25 1517.37,-400 1518.27,-393.06"/>
</g>
<!-- Node6 -->
<g id="node6" class="node">
<title>Node6</title>
<g id="a_node6"><a xlink:href="class_j_k_q_t_base_plotter_style.html" target="_top" xlink:title="Support Class for JKQTBasePlotter, which summarizes all properties that define the visual styling of ...">
<polygon fill="white" stroke="#666666" points="1888,-285.5 1745,-285.5 1745,-264.5 1888,-264.5 1888,-285.5"/>
<text text-anchor="middle" x="1816.5" y="-271.9" font-family="Helvetica,sans-Serif" font-size="12.00">JKQTBasePlotterStyle</text>
</a>
</g>
</g>
<!-- Node6&#45;&gt;Node4 -->
<g id="edge5" class="edge">
<title>Node6&#45;&gt;Node4</title>
<path fill="none" stroke="#9a32cd" stroke-dasharray="5,2" d="M1898.25,-283.58C1950.14,-289.1 2016.24,-296.13 2062.43,-301.04"/>
<polygon fill="#9a32cd" stroke="#9a32cd" points="1898.39,-280.08 1888.07,-282.5 1897.65,-287.04 1898.39,-280.08"/>
<text text-anchor="middle" x="1954.5" y="-297.4" font-family="Helvetica,sans-Serif" font-size="12.00"> plotterStyle</text>
</g>
<!-- Node7 -->
<g id="node7" class="node">
<title>Node7</title>
<g id="a_node7"><a xlink:href="class_j_k_q_t_p_key_style.html" target="_top" xlink:title="Support Class for JKQTBasePlotter, which summarizes all properties that define the visual styling of ...">
<polygon fill="white" stroke="#666666" points="1527,-346.5 1423,-346.5 1423,-325.5 1527,-325.5 1527,-346.5"/>
<text text-anchor="middle" x="1475" y="-332.9" font-family="Helvetica,sans-Serif" font-size="12.00">JKQTPKeyStyle</text>
</a>
</g>
</g>
<!-- Node7&#45;&gt;Node6 -->
<g id="edge6" class="edge">
<title>Node7&#45;&gt;Node6</title>
<path fill="none" stroke="#9a32cd" stroke-dasharray="5,2" d="M1537.56,-329.97C1588.65,-324.36 1663.02,-314.78 1727,-301 1746.1,-296.89 1767.09,-290.79 1783.84,-285.53"/>
<polygon fill="#9a32cd" stroke="#9a32cd" points="1536.91,-326.52 1527.34,-331.08 1537.66,-333.48 1536.91,-326.52"/>
<text text-anchor="middle" x="1658.5" y="-327.4" font-family="Helvetica,sans-Serif" font-size="12.00"> keyStyle</text>
</g>
<!-- Node8 -->
<g id="node8" class="node">
<title>Node8</title>
<g id="a_node8"><a xlink:href="class_j_k_q_t_p_coordinate_axis_style.html" target="_top" xlink:title="Support Class for JKQTPCoordinateAxis, which summarizes all properties that define the visual styling...">
<polygon fill="white" stroke="#666666" points="1234,-300.5 1063,-300.5 1063,-279.5 1234,-279.5 1234,-300.5"/>
<text text-anchor="middle" x="1148.5" y="-286.9" font-family="Helvetica,sans-Serif" font-size="12.00">JKQTPCoordinateAxisStyle</text>
</a>
</g>
</g>
<!-- Node8&#45;&gt;Node6 -->
<g id="edge7" class="edge">
<title>Node8&#45;&gt;Node6</title>
<path fill="none" stroke="#9a32cd" stroke-dasharray="5,2" d="M1194.59,-276.59C1240.31,-263.74 1313.35,-245.26 1378,-238 1518.33,-222.23 1684.66,-248.66 1765.88,-264.47"/>
<polygon fill="#9a32cd" stroke="#9a32cd" points="1193.36,-273.3 1184.7,-279.4 1195.27,-280.03 1193.36,-273.3"/>
<text text-anchor="middle" x="1475" y="-254.4" font-family="Helvetica,sans-Serif" font-size="12.00"> xAxisStyle</text>
<text text-anchor="middle" x="1475" y="-241.4" font-family="Helvetica,sans-Serif" font-size="12.00">yAxisStyle</text>
</g>
<!-- Node10 -->
<g id="node10" class="node">
<title>Node10</title>
<g id="a_node10"><a xlink:href="class_j_k_q_t_p_colorbar_coordinate_axis_style.html" target="_top" xlink:title="Support Class for JKQTPCoordinateAxis, which summarizes all properties that define the visual styling...">
<polygon fill="white" stroke="#666666" points="1572,-307 1378,-307 1378,-273 1572,-273 1572,-307"/>
<text text-anchor="start" x="1386" y="-293.4" font-family="Helvetica,sans-Serif" font-size="12.00">JKQTPColorbarCoordinateAxis</text>
<text text-anchor="middle" x="1475" y="-280.4" font-family="Helvetica,sans-Serif" font-size="12.00">Style</text>
</a>
</g>
</g>
<!-- Node8&#45;&gt;Node10 -->
<g id="edge10" class="edge">
<title>Node8&#45;&gt;Node10</title>
<path fill="none" stroke="#63b8ff" d="M1244.56,-290C1286.54,-290 1335.81,-290 1377.91,-290"/>
<polygon fill="#63b8ff" stroke="#63b8ff" points="1244.33,-286.5 1234.33,-290 1244.33,-293.5 1244.33,-286.5"/>
</g>
<!-- Node8&#45;&gt;Node24 -->
<g id="edge35" class="edge">
<title>Node8&#45;&gt;Node24</title>
<path fill="none" stroke="#9a32cd" stroke-dasharray="5,2" d="M1164.17,-308.7C1206.32,-360.15 1333.81,-500 1474,-500 1474,-500 1474,-500 2120.5,-500 2256.71,-500 2414.72,-455.45 2481.3,-434.57"/>
<polygon fill="#9a32cd" stroke="#9a32cd" points="1166.72,-306.29 1157.72,-300.7 1161.27,-310.68 1166.72,-306.29"/>
<text text-anchor="middle" x="1816.5" y="-503.4" font-family="Helvetica,sans-Serif" font-size="12.00"> axisStyle</text>
</g>
<!-- Node9 -->
<g id="node9" class="node">
<title>Node9</title>
<g id="a_node9"><a xlink:href="class_j_k_q_t_p_grid_style.html" target="_top" xlink:title="Support Class for JKQTPCoordinateAxis, and summarizes all properties that define the visual styling o...">
<polygon fill="white" stroke="#666666" points="805.5,-300.5 698.5,-300.5 698.5,-279.5 805.5,-279.5 805.5,-300.5"/>
<text text-anchor="middle" x="752" y="-286.9" font-family="Helvetica,sans-Serif" font-size="12.00">JKQTPGridStyle</text>
</a>
</g>
</g>
<!-- Node9&#45;&gt;Node8 -->
<g id="edge8" class="edge">
<title>Node9&#45;&gt;Node8</title>
<path fill="none" stroke="#9a32cd" stroke-dasharray="5,2" d="M816.18,-290C883.03,-290 988.9,-290 1062.92,-290"/>
<polygon fill="#9a32cd" stroke="#9a32cd" points="815.79,-286.5 805.79,-290 815.79,-293.5 815.79,-286.5"/>
<text text-anchor="middle" x="948.5" y="-306.4" font-family="Helvetica,sans-Serif" font-size="12.00"> majorGridStyle</text>
<text text-anchor="middle" x="948.5" y="-293.4" font-family="Helvetica,sans-Serif" font-size="12.00">minorGridStyle</text>
</g>
<!-- Node10&#45;&gt;Node6 -->
<g id="edge9" class="edge">
<title>Node10&#45;&gt;Node6</title>
<path fill="none" stroke="#9a32cd" stroke-dasharray="5,2" d="M1582.21,-275.57C1584.83,-275.36 1587.43,-275.17 1590,-275 1641.76,-271.61 1700.35,-271.73 1744.83,-272.63"/>
<polygon fill="#9a32cd" stroke="#9a32cd" points="1581.67,-272.1 1572.01,-276.46 1582.27,-279.07 1581.67,-272.1"/>
<text text-anchor="middle" x="1658.5" y="-291.4" font-family="Helvetica,sans-Serif" font-size="12.00"> rightColorbarAxisStyle</text>
<text text-anchor="middle" x="1658.5" y="-278.4" font-family="Helvetica,sans-Serif" font-size="12.00">topColorbarAxisStyle</text>
</g>
<!-- Node11 -->
<g id="node11" class="node">
<title>Node11</title>
<g id="a_node11"><a xlink:href="class_j_k_q_t_graphs_base_style.html" target="_top" xlink:title="Support Class for JKQTBasePlotter, which summarizes all properties that define the visual styling of ...">
<polygon fill="white" stroke="#666666" points="1548,-139.5 1402,-139.5 1402,-118.5 1548,-118.5 1548,-139.5"/>
<text text-anchor="middle" x="1475" y="-125.9" font-family="Helvetica,sans-Serif" font-size="12.00">JKQTGraphsBaseStyle</text>
</a>
</g>
</g>
<!-- Node11&#45;&gt;Node6 -->
<g id="edge11" class="edge">
<title>Node11&#45;&gt;Node6</title>
<path fill="none" stroke="#9a32cd" stroke-dasharray="5,2" d="M1558.08,-133.65C1612.43,-140.9 1681.77,-158.74 1727,-202 1744.98,-219.2 1726.97,-237.86 1745,-255 1748.97,-258.77 1753.59,-261.84 1758.54,-264.33"/>
<polygon fill="#9a32cd" stroke="#9a32cd" points="1558.47,-130.17 1548.11,-132.42 1557.61,-137.12 1558.47,-130.17"/>
<text text-anchor="middle" x="1658.5" y="-205.4" font-family="Helvetica,sans-Serif" font-size="12.00"> graphsStyle</text>
</g>
<!-- Node12 -->
<g id="node12" class="node">
<title>Node12</title>
<g id="a_node12"><a xlink:href="class_j_k_q_t_graphs_specific_style_properties.html" target="_top" xlink:title="Support Class for JKQTBasePlotter, which summarizes all properties that define the visual styling of ...">
<polygon fill="white" stroke="#666666" points="623,-94.5 399,-94.5 399,-73.5 623,-73.5 623,-94.5"/>
<text text-anchor="middle" x="511" y="-80.9" font-family="Helvetica,sans-Serif" font-size="12.00">JKQTGraphsSpecificStyleProperties</text>
</a>
</g>
</g>
<!-- Node12&#45;&gt;Node11 -->
<g id="edge12" class="edge">
<title>Node12&#45;&gt;Node11</title>
<path fill="none" stroke="#9a32cd" stroke-dasharray="5,2" d="M617.18,-72.54C760.01,-59.33 1022.84,-43.33 1244,-76 1312.71,-86.15 1391.26,-106.09 1436.5,-118.41"/>
<polygon fill="#9a32cd" stroke="#9a32cd" points="616.74,-69.07 607.11,-73.49 617.39,-76.04 616.74,-69.07"/>
<text text-anchor="middle" x="948.5" y="-88.4" font-family="Helvetica,sans-Serif" font-size="12.00"> boxplotStyle</text>
<text text-anchor="middle" x="948.5" y="-75.4" font-family="Helvetica,sans-Serif" font-size="12.00">defaultGraphStyle</text>
<text text-anchor="middle" x="948.5" y="-62.4" font-family="Helvetica,sans-Serif" font-size="12.00">filledStyle</text>
</g>
<!-- Node14 -->
<g id="node14" class="node">
<title>Node14</title>
<g id="a_node14"><a xlink:href="class_j_k_q_t_barchart_specific_style_properties.html" target="_top" xlink:title="Support Class for JKQTBasePlotter, which summarizes all properties that define the visual styling of ...">
<polygon fill="white" stroke="#666666" points="1035,-34 862,-34 862,0 1035,0 1035,-34"/>
<text text-anchor="start" x="870" y="-20.4" font-family="Helvetica,sans-Serif" font-size="12.00">JKQTBarchartSpecificStyle</text>
<text text-anchor="middle" x="948.5" y="-7.4" font-family="Helvetica,sans-Serif" font-size="12.00">Properties</text>
</a>
</g>
</g>
<!-- Node12&#45;&gt;Node14 -->
<g id="edge15" class="edge">
<title>Node12&#45;&gt;Node14</title>
<path fill="none" stroke="#63b8ff" d="M548.84,-69.87C574.33,-60.7 609.26,-49.31 641,-43 714.72,-28.35 800.03,-21.95 861.9,-19.16"/>
<polygon fill="#63b8ff" stroke="#63b8ff" points="547.4,-66.67 539.21,-73.39 549.81,-73.24 547.4,-66.67"/>
</g>
<!-- Node15 -->
<g id="node15" class="node">
<title>Node15</title>
<g id="a_node15"><a xlink:href="class_j_k_q_t_impulse_specific_style_properties.html" target="_top" xlink:title="Support Class for JKQTBasePlotter, which summarizes all properties that define the visual styling of ...">
<polygon fill="white" stroke="#666666" points="1032.5,-213 864.5,-213 864.5,-179 1032.5,-179 1032.5,-213"/>
<text text-anchor="start" x="872.5" y="-199.4" font-family="Helvetica,sans-Serif" font-size="12.00">JKQTImpulseSpecificStyle</text>
<text text-anchor="middle" x="948.5" y="-186.4" font-family="Helvetica,sans-Serif" font-size="12.00">Properties</text>
</a>
</g>
</g>
<!-- Node12&#45;&gt;Node15 -->
<g id="edge17" class="edge">
<title>Node12&#45;&gt;Node15</title>
<path fill="none" stroke="#63b8ff" d="M547.35,-98.25C577.05,-109.85 620.81,-126.02 660,-137 727.95,-156.04 806.53,-171.74 864.35,-182.15"/>
<polygon fill="#63b8ff" stroke="#63b8ff" points="548.43,-94.92 537.84,-94.51 545.86,-101.43 548.43,-94.92"/>
</g>
<!-- Node16 -->
<g id="node16" class="node">
<title>Node16</title>
<g id="a_node16"><a xlink:href="class_j_k_q_t_geometric_specific_style_properties.html" target="_top" xlink:title="Support Class for JKQTBasePlotter, which summarizes all properties that define the visual styling of ...">
<polygon fill="white" stroke="#666666" points="844,-128 660,-128 660,-94 844,-94 844,-128"/>
<text text-anchor="start" x="668" y="-114.4" font-family="Helvetica,sans-Serif" font-size="12.00">JKQTGeometricSpecificStyle</text>
<text text-anchor="middle" x="752" y="-101.4" font-family="Helvetica,sans-Serif" font-size="12.00">Properties</text>
</a>
</g>
</g>
<!-- Node12&#45;&gt;Node16 -->
<g id="edge19" class="edge">
<title>Node12&#45;&gt;Node16</title>
<path fill="none" stroke="#63b8ff" d="M615.27,-95.67C630.06,-97.34 645.19,-99.05 659.74,-100.69"/>
<polygon fill="#63b8ff" stroke="#63b8ff" points="615.42,-92.16 605.09,-94.52 614.63,-99.12 615.42,-92.16"/>
</g>
<!-- Node13 -->
<g id="node13" class="node">
<title>Node13</title>
<g id="a_node13"><a xlink:href="struct_j_k_q_t_p_color_derivation_mode.html" target="_top" xlink:title="Specifies how a fill&#45;color is derived from a given color.">
<polygon fill="white" stroke="#666666" points="179,-94.5 0,-94.5 0,-73.5 179,-73.5 179,-94.5"/>
<text text-anchor="middle" x="89.5" y="-80.9" font-family="Helvetica,sans-Serif" font-size="12.00">JKQTPColorDerivationMode</text>
</a>
</g>
</g>
<!-- Node13&#45;&gt;Node12 -->
<g id="edge13" class="edge">
<title>Node13&#45;&gt;Node12</title>
<path fill="none" stroke="#9a32cd" stroke-dasharray="5,2" d="M189.53,-84C252.41,-84 333.9,-84 398.97,-84"/>
<polygon fill="#9a32cd" stroke="#9a32cd" points="189.21,-80.5 179.21,-84 189.21,-87.5 189.21,-80.5"/>
<text text-anchor="middle" x="289" y="-139.4" font-family="Helvetica,sans-Serif" font-size="12.00"> errorColorDerivationMode</text>
<text text-anchor="middle" x="289" y="-126.4" font-family="Helvetica,sans-Serif" font-size="12.00">errorFillColorDerivationMode</text>
<text text-anchor="middle" x="289" y="-113.4" font-family="Helvetica,sans-Serif" font-size="12.00">fillColorDerivationMode</text>
<text text-anchor="middle" x="289" y="-100.4" font-family="Helvetica,sans-Serif" font-size="12.00">graphColorDerivationMode</text>
<text text-anchor="middle" x="289" y="-87.4" font-family="Helvetica,sans-Serif" font-size="12.00">symbolFillColorDerivationMode</text>
</g>
<!-- Node14&#45;&gt;Node11 -->
<g id="edge14" class="edge">
<title>Node14&#45;&gt;Node11</title>
<path fill="none" stroke="#9a32cd" stroke-dasharray="5,2" d="M1045.23,-6.66C1130.85,-1.18 1258.16,-2.45 1360,-43 1403.76,-60.43 1445.36,-99.36 1463.9,-118.27"/>
<polygon fill="#9a32cd" stroke="#9a32cd" points="1044.74,-3.19 1035,-7.37 1045.22,-10.17 1044.74,-3.19"/>
<text text-anchor="middle" x="1148.5" y="-15.4" font-family="Helvetica,sans-Serif" font-size="12.00"> barchartStyle</text>
</g>
<!-- Node15&#45;&gt;Node11 -->
<g id="edge16" class="edge">
<title>Node15&#45;&gt;Node11</title>
<path fill="none" stroke="#9a32cd" stroke-dasharray="5,2" d="M1042.55,-197.04C1126.38,-196.28 1252.58,-190.95 1360,-169 1392.06,-162.45 1427.38,-149.03 1450.08,-139.54"/>
<polygon fill="#9a32cd" stroke="#9a32cd" points="1042.52,-193.54 1032.54,-197.11 1042.57,-200.54 1042.52,-193.54"/>
<text text-anchor="middle" x="1148.5" y="-200.4" font-family="Helvetica,sans-Serif" font-size="12.00"> impulseStyle</text>
</g>
<!-- Node16&#45;&gt;Node11 -->
<g id="edge18" class="edge">
<title>Node16&#45;&gt;Node11</title>
<path fill="none" stroke="#9a32cd" stroke-dasharray="5,2" d="M854.32,-120.47C856.91,-120.66 859.47,-120.83 862,-121 1082.97,-135.55 1138.69,-144.76 1360,-137 1373.58,-136.52 1388.06,-135.73 1401.98,-134.82"/>
<polygon fill="#9a32cd" stroke="#9a32cd" points="854.5,-116.98 844.26,-119.72 853.98,-123.96 854.5,-116.98"/>
<text text-anchor="middle" x="1148.5" y="-143.4" font-family="Helvetica,sans-Serif" font-size="12.00"> geometricStyle</text>
</g>
<!-- Node17 -->
<g id="node17" class="node">
<title>Node17</title>
<g id="a_node17"><a xlink:href="class_j_k_q_t_annotations_specific_style_properties.html" target="_top" xlink:title="Support Class for JKQTBasePlotter, which summarizes all properties that define the visual styling of ...">
<polygon fill="white" stroke="#666666" points="1244,-119 1053,-119 1053,-85 1244,-85 1244,-119"/>
<text text-anchor="start" x="1061" y="-105.4" font-family="Helvetica,sans-Serif" font-size="12.00">JKQTAnnotationsSpecificStyle</text>
<text text-anchor="middle" x="1148.5" y="-92.4" font-family="Helvetica,sans-Serif" font-size="12.00">Properties</text>
</a>
</g>
</g>
<!-- Node16&#45;&gt;Node17 -->
<g id="edge21" class="edge">
<title>Node16&#45;&gt;Node17</title>
<path fill="none" stroke="#63b8ff" d="M854.07,-108.69C915.27,-107.3 992.83,-105.53 1052.84,-104.16"/>
<polygon fill="#63b8ff" stroke="#63b8ff" points="853.92,-105.2 844,-108.92 854.08,-112.19 853.92,-105.2"/>
</g>
<!-- Node17&#45;&gt;Node11 -->
<g id="edge20" class="edge">
<title>Node17&#45;&gt;Node11</title>
<path fill="none" stroke="#9a32cd" stroke-dasharray="5,2" d="M1254.39,-110.73C1302.57,-114.74 1358.51,-119.39 1401.86,-123"/>
<polygon fill="#9a32cd" stroke="#9a32cd" points="1254.49,-107.22 1244.23,-109.88 1253.91,-114.2 1254.49,-107.22"/>
<text text-anchor="middle" x="1311" y="-123.4" font-family="Helvetica,sans-Serif" font-size="12.00"> annotationStyle</text>
</g>
<!-- Node18&#45;&gt;Node4 -->
<g id="edge22" class="edge">
<title>Node18&#45;&gt;Node4</title>
<path fill="none" stroke="#9a32cd" stroke-dasharray="5,2" d="M1865.25,-377.68C1924.95,-361.02 2025.93,-332.83 2080.6,-317.58"/>
<polygon fill="#9a32cd" stroke="#9a32cd" points="1864.01,-374.39 1855.32,-380.45 1865.89,-381.13 1864.01,-374.39"/>
<text text-anchor="middle" x="1954.5" y="-370.4" font-family="Helvetica,sans-Serif" font-size="12.00"> mathText</text>
</g>
<!-- Node19 -->
<g id="node19" class="node">
<title>Node19</title>
<g id="a_node19"><a xlink:href="class_j_k_q_t_math_text_node.html" target="_top" xlink:title="subclass representing one node in the syntax tree">
<polygon fill="white" stroke="#666666" points="2185,-400.5 2054,-400.5 2054,-379.5 2185,-379.5 2185,-400.5"/>
<text text-anchor="middle" x="2119.5" y="-386.9" font-family="Helvetica,sans-Serif" font-size="12.00">JKQTMathTextNode</text>
</a>
</g>
</g>
<!-- Node18&#45;&gt;Node19 -->
<g id="edge25" class="edge">
<title>Node18&#45;&gt;Node19</title>
<path fill="none" stroke="#9a32cd" stroke-dasharray="5,2" d="M1876.21,-401.61C1886.12,-403.02 1896.33,-404.24 1906,-405 1948.98,-408.38 1959.98,-407.78 2003,-405 2019.55,-403.93 2037.34,-402.01 2053.89,-399.89"/>
<polygon fill="#9a32cd" stroke="#9a32cd" points="1876.44,-398.1 1866.03,-400.08 1875.4,-405.03 1876.44,-398.1"/>
<text text-anchor="middle" x="1954.5" y="-410.4" font-family="Helvetica,sans-Serif" font-size="12.00"> parentMathText</text>
</g>
<!-- Node19&#45;&gt;Node18 -->
<g id="edge24" class="edge">
<title>Node19&#45;&gt;Node18</title>
<path fill="none" stroke="#9a32cd" stroke-dasharray="5,2" d="M2043.71,-390.25C1988.23,-390.43 1914.2,-390.68 1866.2,-390.84"/>
<polygon fill="#9a32cd" stroke="#9a32cd" points="2043.85,-393.75 2053.84,-390.21 2043.83,-386.75 2043.85,-393.75"/>
<text text-anchor="middle" x="1954.5" y="-394.4" font-family="Helvetica,sans-Serif" font-size="12.00"> parsedNode</text>
</g>
<!-- Node19&#45;&gt;Node19 -->
<g id="edge26" class="edge">
<title>Node19&#45;&gt;Node19</title>
<path fill="none" stroke="#9a32cd" stroke-dasharray="5,2" d="M2089.12,-409.71C2091.11,-414.73 2101.24,-418.5 2119.5,-418.5 2148.01,-418.5 2156.69,-409.31 2145.56,-400.52"/>
<polygon fill="#9a32cd" stroke="#9a32cd" points="2092.35,-411.06 2093.44,-400.52 2086.02,-408.08 2092.35,-411.06"/>
<text text-anchor="middle" x="2119.5" y="-421.9" font-family="Helvetica,sans-Serif" font-size="12.00"> parentNode</text>
</g>
<!-- Node20&#45;&gt;Node4 -->
<g id="edge27" class="edge">
<title>Node20&#45;&gt;Node4</title>
<path fill="none" stroke="#9a32cd" stroke-dasharray="5,2" d="M2438.8,-318.76C2382.91,-322.19 2304.62,-325.14 2236,-321 2216.64,-319.83 2195.56,-317.57 2176.77,-315.2"/>
<polygon fill="#9a32cd" stroke="#9a32cd" points="2439.21,-322.24 2448.97,-318.11 2438.76,-315.25 2439.21,-322.24"/>
<text text-anchor="middle" x="2312.5" y="-327.4" font-family="Helvetica,sans-Serif" font-size="12.00"> m_plotsModel</text>
</g>
<!-- Node21 -->
<g id="node21" class="node">
<title>Node21</title>
<g id="a_node21"><a xlink:title=" ">
<polygon fill="white" stroke="#666666" points="2191,-259.5 2048,-259.5 2048,-238.5 2191,-238.5 2191,-259.5"/>
<text text-anchor="middle" x="2119.5" y="-245.9" font-family="Helvetica,sans-Serif" font-size="12.00">QAbstractTableModel</text>
</a>
</g>
</g>
<!-- Node21&#45;&gt;Node20 -->
<g id="edge28" class="edge">
<title>Node21&#45;&gt;Node20</title>
<path fill="none" stroke="#63b8ff" d="M2195.49,-261.21C2268.8,-273.15 2379.28,-291.14 2448.83,-302.47"/>
<polygon fill="#63b8ff" stroke="#63b8ff" points="2195.83,-257.72 2185.4,-259.57 2194.7,-264.63 2195.83,-257.72"/>
</g>
<!-- Node22 -->
<g id="node22" class="node">
<title>Node22</title>
<g id="a_node22"><a xlink:href="class_j_k_q_t_p_horizontal_axis.html" target="_top" xlink:title="implements a horizontal axis, based on JKQTPCoordinateAxis (for most of documentation: see JKQTPCoord...">
<polygon fill="white" stroke="#666666" points="3034,-385.5 2897,-385.5 2897,-364.5 3034,-364.5 3034,-385.5"/>
<text text-anchor="middle" x="2965.5" y="-371.9" font-family="Helvetica,sans-Serif" font-size="12.00">JKQTPHorizontalAxis</text>
</a>
</g>
</g>
<!-- Node22&#45;&gt;Node4 -->
<g id="edge30" class="edge">
<title>Node22&#45;&gt;Node4</title>
<path fill="none" stroke="#9a32cd" stroke-dasharray="5,2" d="M2886.72,-377.44C2752.79,-380.29 2470.41,-380.38 2236,-341 2205.9,-335.94 2172.57,-325.6 2149.48,-317.64"/>
<polygon fill="#9a32cd" stroke="#9a32cd" points="2886.97,-380.93 2896.89,-377.21 2886.81,-373.94 2886.97,-380.93"/>
<text text-anchor="middle" x="2657.5" y="-381.4" font-family="Helvetica,sans-Serif" font-size="12.00"> xAxis</text>
</g>
<!-- Node23 -->
<g id="node23" class="node">
<title>Node23</title>
<g id="a_node23"><a xlink:href="class_j_k_q_t_p_horizontal_axis_base.html" target="_top" xlink:title="base class for horizontal axes, based on JKQTPCoordinateAxis (for most of documentation: see JKQTPCoo...">
<polygon fill="white" stroke="#666666" points="2860,-427.5 2693,-427.5 2693,-406.5 2860,-406.5 2860,-427.5"/>
<text text-anchor="middle" x="2776.5" y="-413.9" font-family="Helvetica,sans-Serif" font-size="12.00">JKQTPHorizontalAxisBase</text>
</a>
</g>
</g>
<!-- Node23&#45;&gt;Node22 -->
<g id="edge31" class="edge">
<title>Node23&#45;&gt;Node22</title>
<path fill="none" stroke="#63b8ff" d="M2834.63,-404.17C2861.23,-398.2 2892.47,-391.18 2917.65,-385.52"/>
<polygon fill="#63b8ff" stroke="#63b8ff" points="2833.68,-400.8 2824.69,-406.4 2835.21,-407.63 2833.68,-400.8"/>
</g>
<!-- Node24&#45;&gt;Node23 -->
<g id="edge32" class="edge">
<title>Node24&#45;&gt;Node23</title>
<path fill="none" stroke="#63b8ff" d="M2595.79,-421.84C2626.62,-421.01 2661.85,-420.06 2692.89,-419.22"/>
<polygon fill="#63b8ff" stroke="#63b8ff" points="2595.42,-418.35 2585.52,-422.11 2595.61,-425.34 2595.42,-418.35"/>
</g>
<!-- Node26 -->
<g id="node26" class="node">
<title>Node26</title>
<g id="a_node26"><a xlink:href="class_j_k_q_t_p_vertical_axis_base.html" target="_top" xlink:title="base class for vertical axes, based on JKQTPCoordinateAxis (for most of documentation: see JKQTPCoord...">
<polygon fill="white" stroke="#666666" points="2852,-335.5 2701,-335.5 2701,-314.5 2852,-314.5 2852,-335.5"/>
<text text-anchor="middle" x="2776.5" y="-321.9" font-family="Helvetica,sans-Serif" font-size="12.00">JKQTPVerticalAxisBase</text>
</a>
</g>
</g>
<!-- Node24&#45;&gt;Node26 -->
<g id="edge38" class="edge">
<title>Node24&#45;&gt;Node26</title>
<path fill="none" stroke="#63b8ff" d="M2587.18,-411.25C2615.17,-405.04 2647.16,-396.41 2675,-385 2707.53,-371.67 2741.99,-348.95 2760.92,-335.63"/>
<polygon fill="#63b8ff" stroke="#63b8ff" points="2586.1,-407.9 2577.06,-413.42 2587.57,-414.74 2586.1,-407.9"/>
</g>
<!-- Node25 -->
<g id="node25" class="node">
<title>Node25</title>
<g id="a_node25"><a xlink:href="class_j_k_q_t_p_vertical_axis.html" target="_top" xlink:title="implements a vertical axis for use as primary, secondary, ... axis of a JKQTPBasePlotter,...">
<polygon fill="white" stroke="#666666" points="3026.5,-317.5 2904.5,-317.5 2904.5,-296.5 3026.5,-296.5 3026.5,-317.5"/>
<text text-anchor="middle" x="2965.5" y="-303.9" font-family="Helvetica,sans-Serif" font-size="12.00">JKQTPVerticalAxis</text>
</a>
</g>
</g>
<!-- Node25&#45;&gt;Node4 -->
<g id="edge36" class="edge">
<title>Node25&#45;&gt;Node4</title>
<path fill="none" stroke="#9a32cd" stroke-dasharray="5,2" d="M2893.86,-303.27C2824.62,-299.81 2716.09,-294.92 2622,-293 2450.46,-289.5 2407.34,-290.06 2236,-299 2216.63,-300.01 2195.45,-301.4 2176.58,-302.73"/>
<polygon fill="#9a32cd" stroke="#9a32cd" points="2894.04,-306.78 2904.2,-303.79 2894.39,-299.79 2894.04,-306.78"/>
<text text-anchor="middle" x="2657.5" y="-298.4" font-family="Helvetica,sans-Serif" font-size="12.00"> yAxis</text>
</g>
<!-- Node26&#45;&gt;Node25 -->
<g id="edge37" class="edge">
<title>Node26&#45;&gt;Node25</title>
<path fill="none" stroke="#63b8ff" d="M2862.43,-316.82C2876.55,-315.47 2890.94,-314.08 2904.28,-312.8"/>
<polygon fill="#63b8ff" stroke="#63b8ff" points="2861.83,-313.37 2852.21,-317.81 2862.5,-320.33 2861.83,-313.37"/>
</g>
<!-- Node27 -->
<g id="node27" class="node">
<title>Node27</title>
<g id="a_node27"><a xlink:href="class_j_k_q_t_p_datastore.html" target="_top" xlink:title="This class manages data columns (with entries of type double ), used by JKQTPlotter/JKQTBasePlotter t...">
<polygon fill="white" stroke="#666666" points="1872,-177.5 1761,-177.5 1761,-156.5 1872,-156.5 1872,-177.5"/>
<text text-anchor="middle" x="1816.5" y="-163.9" font-family="Helvetica,sans-Serif" font-size="12.00">JKQTPDatastore</text>
</a>
</g>
</g>
<!-- Node27&#45;&gt;Node4 -->
<g id="edge39" class="edge">
<title>Node27&#45;&gt;Node4</title>
<path fill="none" stroke="#9a32cd" stroke-dasharray="5,2" d="M1882.24,-176.52C1932.09,-184.42 1993.98,-195.65 2003,-204 2024.69,-224.07 2001.25,-246.03 2021,-268 2033.31,-281.69 2051.08,-290.65 2068.09,-296.48"/>
<polygon fill="#9a32cd" stroke="#9a32cd" points="1882.55,-173.03 1872.13,-174.94 1881.47,-179.95 1882.55,-173.03"/>
<text text-anchor="middle" x="1954.5" y="-207.4" font-family="Helvetica,sans-Serif" font-size="12.00"> datastore</text>
</g>
<!-- Node29 -->
<g id="node29" class="node">
<title>Node29</title>
<g id="a_node29"><a xlink:href="class_j_k_q_t_p_column.html" target="_top" xlink:title="internally stores information about one data column. See JKQTPDatastore for more information.">
<polygon fill="white" stroke="#666666" points="2168.5,-130.5 2070.5,-130.5 2070.5,-109.5 2168.5,-109.5 2168.5,-130.5"/>
<text text-anchor="middle" x="2119.5" y="-116.9" font-family="Helvetica,sans-Serif" font-size="12.00">JKQTPColumn</text>
</a>
</g>
</g>
<!-- Node27&#45;&gt;Node29 -->
<g id="edge42" class="edge">
<title>Node27&#45;&gt;Node29</title>
<path fill="none" stroke="#9a32cd" stroke-dasharray="5,2" d="M1856.28,-153.31C1871.59,-148.4 1889.45,-143.27 1906,-140 1961.8,-128.98 2027.09,-123.98 2070.42,-121.75"/>
<polygon fill="#9a32cd" stroke="#9a32cd" points="1855.03,-150.04 1846.62,-156.49 1857.21,-156.69 1855.03,-150.04"/>
<text text-anchor="middle" x="1954.5" y="-143.4" font-family="Helvetica,sans-Serif" font-size="12.00"> datastore</text>
</g>
<!-- Node28 -->
<g id="node28" class="node">
<title>Node28</title>
<g id="a_node28"><a xlink:title=" ">
<polygon fill="white" stroke="#666666" points="2622,-177.5 2407,-177.5 2407,-156.5 2622,-156.5 2622,-177.5"/>
<text text-anchor="middle" x="2514.5" y="-163.9" font-family="Helvetica,sans-Serif" font-size="12.00">std::unique_ptr&lt; JKQTPColumn &gt;</text>
</a>
</g>
</g>
<!-- Node28&#45;&gt;Node27 -->
<g id="edge40" class="edge">
<title>Node28&#45;&gt;Node27</title>
<path fill="none" stroke="#9a32cd" stroke-dasharray="5,2" d="M2396.41,-167C2244.2,-167 1984.58,-167 1872.11,-167"/>
<polygon fill="#9a32cd" stroke="#9a32cd" points="2396.73,-170.5 2406.73,-167 2396.73,-163.5 2396.73,-170.5"/>
<text text-anchor="middle" x="2119.5" y="-170.4" font-family="Helvetica,sans-Serif" font-size="12.00"> m_invalidColumn</text>
</g>
<!-- Node29&#45;&gt;Node28 -->
<g id="edge41" class="edge">
<title>Node29&#45;&gt;Node28</title>
<path fill="none" stroke="#9a32cd" stroke-dasharray="5,2" d="M2178.91,-122.01C2233.48,-124.43 2317.07,-129.57 2389,-140 2416.91,-144.05 2447.9,-150.76 2471.98,-156.48"/>
<polygon fill="#9a32cd" stroke="#9a32cd" points="2178.88,-118.5 2168.74,-121.57 2178.58,-125.5 2178.88,-118.5"/>
<text text-anchor="middle" x="2312.5" y="-143.4" font-family="Helvetica,sans-Serif" font-size="12.00"> ptr</text>
</g>
<!-- Node30 -->
<g id="node30" class="node">
<title>Node30</title>
<g id="a_node30"><a xlink:title=" ">
<polygon fill="white" stroke="#666666" points="2189.5,-220.5 2049.5,-220.5 2049.5,-199.5 2189.5,-199.5 2189.5,-220.5"/>
<text text-anchor="middle" x="2119.5" y="-206.9" font-family="Helvetica,sans-Serif" font-size="12.00">std::unique_ptr&lt; T &gt;</text>
</a>
</g>
</g>
<!-- Node30&#45;&gt;Node28 -->
<g id="edge43" class="edge">
<title>Node30&#45;&gt;Node28</title>
<path fill="none" stroke="orange" stroke-dasharray="5,2" d="M2199.87,-201.52C2253.32,-195.79 2325.41,-188.01 2389,-181 2399.16,-179.88 2409.79,-178.7 2420.37,-177.52"/>
<polygon fill="orange" stroke="orange" points="2199.34,-198.06 2189.77,-202.6 2200.09,-205.02 2199.34,-198.06"/>
<text text-anchor="middle" x="2312.5" y="-201.4" font-family="Helvetica,sans-Serif" font-size="12.00"> &lt; JKQTPColumn &gt;</text>
</g>
<!-- Node31 -->
<g id="node31" class="node">
<title>Node31</title>
<g id="a_node31"><a xlink:title=" ">
<polygon fill="white" stroke="#666666" points="1831,-246.5 1802,-246.5 1802,-225.5 1831,-225.5 1831,-246.5"/>
<text text-anchor="middle" x="1816.5" y="-232.9" font-family="Helvetica,sans-Serif" font-size="12.00">T</text>
</a>
</g>
</g>
<!-- Node31&#45;&gt;Node30 -->
<g id="edge44" class="edge">
<title>Node31&#45;&gt;Node30</title>
<path fill="none" stroke="#9a32cd" stroke-dasharray="5,2" d="M1841.33,-233.94C1885.78,-230.1 1982.86,-221.72 2049.46,-215.96"/>
<polygon fill="#9a32cd" stroke="#9a32cd" points="1840.88,-230.47 1831.22,-234.82 1841.48,-237.44 1840.88,-230.47"/>
<text text-anchor="middle" x="1954.5" y="-232.4" font-family="Helvetica,sans-Serif" font-size="12.00"> ptr</text>
</g>
<!-- Node32 -->
<g id="node32" class="node">
<title>Node32</title>
<g id="a_node32"><a xlink:href="class_j_k_vanish_q_tool_bar.html" target="_top" xlink:title="a modified QToolBar which vanishes when the mouse leaves the toolbar.">
<polygon fill="white" stroke="#666666" points="2180,-616.5 2059,-616.5 2059,-595.5 2180,-595.5 2180,-616.5"/>
<text text-anchor="middle" x="2119.5" y="-602.9" font-family="Helvetica,sans-Serif" font-size="12.00">JKVanishQToolBar</text>
</a>
</g>
</g>
<!-- Node32&#45;&gt;Node1 -->
<g id="edge46" class="edge">
<title>Node32&#45;&gt;Node1</title>
<path fill="none" stroke="#9a32cd" stroke-dasharray="5,2" d="M2190.39,-606C2272.19,-606 2404.95,-606 2471.97,-606"/>
<polygon fill="#9a32cd" stroke="#9a32cd" points="2190.19,-602.5 2180.19,-606 2190.19,-609.5 2190.19,-602.5"/>
<text text-anchor="middle" x="2312.5" y="-609.4" font-family="Helvetica,sans-Serif" font-size="12.00"> toolbar</text>
</g>
<!-- Node33 -->
<g id="node33" class="node">
<title>Node33</title>
<g id="a_node33"><a xlink:title=" ">
<polygon fill="white" stroke="#666666" points="1852,-616.5 1781,-616.5 1781,-595.5 1852,-595.5 1852,-616.5"/>
<text text-anchor="middle" x="1816.5" y="-602.9" font-family="Helvetica,sans-Serif" font-size="12.00">QToolBar</text>
</a>
</g>
</g>
<!-- Node33&#45;&gt;Node32 -->
<g id="edge47" class="edge">
<title>Node33&#45;&gt;Node32</title>
<path fill="none" stroke="#63b8ff" d="M1862.31,-606C1914.49,-606 2000.91,-606 2058.77,-606"/>
<polygon fill="#63b8ff" stroke="#63b8ff" points="1862.03,-602.5 1852.03,-606 1862.03,-609.5 1862.03,-602.5"/>
</g>
<!-- Node34 -->
<g id="node34" class="node">
<title>Node34</title>
<g id="a_node34"><a xlink:href="class_j_k_q_t_plotter_style.html" target="_top" xlink:title="Support Class for JKQTPlotter, which summarizes all properties that define the visual styling of a JK...">
<polygon fill="white" stroke="#666666" points="2176.5,-577.5 2062.5,-577.5 2062.5,-556.5 2176.5,-556.5 2176.5,-577.5"/>
<text text-anchor="middle" x="2119.5" y="-563.9" font-family="Helvetica,sans-Serif" font-size="12.00">JKQTPlotterStyle</text>
</a>
</g>
</g>
<!-- Node34&#45;&gt;Node1 -->
<g id="edge48" class="edge">
<title>Node34&#45;&gt;Node1</title>
<path fill="none" stroke="#9a32cd" stroke-dasharray="5,2" d="M2186.84,-571.43C2241.24,-575.31 2320.2,-581.49 2389,-589 2416.65,-592.02 2447.64,-596.25 2471.79,-599.73"/>
<polygon fill="#9a32cd" stroke="#9a32cd" points="2186.86,-567.93 2176.64,-570.71 2186.37,-574.91 2186.86,-567.93"/>
<text text-anchor="middle" x="2312.5" y="-592.4" font-family="Helvetica,sans-Serif" font-size="12.00"> plotterStyle</text>
</g>
</g>
</svg>
        <g id="navigator" transform="translate(0 0)" fill="#404254">
                <rect fill="#f2f5e9" fill-opacity="0.5" stroke="#606060" stroke-width=".5" x="0" y="0" width="60" height="60"/>
                <use id="zoomplus" xlink:href="#zoomPlus" x="17" y="9" onmousedown="handleZoom(evt,'in')"/>
                <use id="zoomminus" xlink:href="#zoomMin" x="42" y="9" onmousedown="handleZoom(evt,'out')"/>
                <use id="reset" xlink:href="#resetDef" x="30" y="36" onmousedown="handleReset()"/>
                <g id="arrowUp" xlink:href="#dirArrow" transform="translate(30 24)" onmousedown="handlePan(0,-1)">
                  <use xlink:href="#rim" fill="#404040">
                        <set attributeName="fill" to="#808080" begin="arrowUp.mouseover" end="arrowUp.mouseout"/>
                  </use>
                  <path fill="none" stroke="white" stroke-width="1.5" d="M0,-3.0v7 M-2.5,-0.5L0,-3.0L2.5,-0.5"/>
                </g>
                <g id="arrowRight" xlink:href="#dirArrow" transform="rotate(90) translate(36 -43)" onmousedown="handlePan(1,0)">
                  <use xlink:href="#rim" fill="#404040">
                        <set attributeName="fill" to="#808080" begin="arrowRight.mouseover" end="arrowRight.mouseout"/>
                  </use>
                  <path fill="none" stroke="white" stroke-width="1.5" d="M0,-3.0v7 M-2.5,-0.5L0,-3.0L2.5,-0.5"/>
                </g>
                <g id="arrowDown" xlink:href="#dirArrow" transform="rotate(180) translate(-30 -48)" onmousedown="handlePan(0,1)">
                  <use xlink:href="#rim" fill="#404040">
                        <set attributeName="fill" to="#808080" begin="arrowDown.mouseover" end="arrowDown.mouseout"/>
                  </use>
                  <path fill="none" stroke="white" stroke-width="1.5" d="M0,-3.0v7 M-2.5,-0.5L0,-3.0L2.5,-0.5"/>
                </g>
                <g id="arrowLeft" xlink:href="#dirArrow" transform="rotate(270) translate(-36 17)" onmousedown="handlePan(-1,0)">
                  <use xlink:href="#rim" fill="#404040">
                        <set attributeName="fill" to="#808080" begin="arrowLeft.mouseover" end="arrowLeft.mouseout"/>
                  </use>
                  <path fill="none" stroke="white" stroke-width="1.5" d="M0,-3.0v7 M-2.5,-0.5L0,-3.0L2.5,-0.5"/>
                </g>
        </g>
        <svg viewBox="0 0 15 15" width="100%" height="30px" preserveAspectRatio="xMaxYMin meet">
         <g id="arrow_out" transform="scale(0.3 0.3)">
          <a xlink:href="class_j_k_q_t_plotter__coll__graph_org.svg" target="_base">
           <rect id="button" ry="5" rx="5" y="6" x="6" height="38" width="38"
                fill="#f2f5e9" fill-opacity="0.5" stroke="#606060" stroke-width="1.0"/>
           <path id="arrow"
             d="M 11.500037,31.436501 C 11.940474,20.09759 22.043105,11.32322 32.158766,21.979434 L 37.068811,17.246167 C 37.068811,17.246167 37.088388,32 37.088388,32 L 22.160133,31.978069 C 22.160133,31.978069 26.997745,27.140456 26.997745,27.140456 C 18.528582,18.264221 13.291696,25.230495 11.500037,31.436501 z"
             style="fill:#404040;"/>
          </a>
         </g>
        </svg>
</svg>
