<?xml version="1.0" encoding="UTF-8" standalone="no"?>
<!DOCTYPE svg PUBLIC "-//W3C//DTD SVG 1.1//EN"
 "http://www.w3.org/Graphics/SVG/1.1/DTD/svg11.dtd">
<!-- Generated by graphviz version 2.43.0 (0)
 -->
<!-- Title: JKQTPGraphsModel Pages: 1 -->
<!--zoomable 473 -->
<svg id="main" version="1.1" xmlns="http://www.w3.org/2000/svg" xmlns:xlink="http://www.w3.org/1999/xlink" xml:space="preserve" onload="init(evt)">
<style type="text/css"><![CDATA[
.edge:hover path { stroke: red; }
.edge:hover polygon { stroke: red; fill: red; }
]]></style>
<script type="text/javascript"><![CDATA[
var edges = document.getElementsByTagName('g');
if (edges && edges.length) {
  for (var i=0;i<edges.length;i++) {
    if (edges[i].id.substr(0,4)=='edge') {
      edges[i].setAttribute('class','edge');
    }
  }
}
]]></script>
        <defs>
                <circle id="rim" cx="0" cy="0" r="7"/>
                <circle id="rim2" cx="0" cy="0" r="3.5"/>
                <g id="zoomPlus">
                        <use xlink:href="#rim" fill="#404040">
                                <set attributeName="fill" to="#808080" begin="zoomplus.mouseover" end="zoomplus.mouseout"/>
                        </use>
                        <path d="M-4,0h8M0,-4v8" fill="none" stroke="white" stroke-width="1.5" pointer-events="none"/>
                </g>
                <g id="zoomMin">
                        <use xlink:href="#rim" fill="#404040">
                                <set attributeName="fill" to="#808080" begin="zoomminus.mouseover" end="zoomminus.mouseout"/>
                        </use>
                        <path d="M-4,0h8" fill="none" stroke="white" stroke-width="1.5" pointer-events="none"/>
                </g>
                <g id="dirArrow">
                        <path fill="none" stroke="white" stroke-width="1.5" d="M0,-3.0v7 M-2.5,-0.5L0,-3.0L2.5,-0.5"/>
                </g>
               <g id="resetDef">
                       <use xlink:href="#rim2" fill="#404040">
                               <set attributeName="fill" to="#808080" begin="reset.mouseover" end="reset.mouseout"/>
                       </use>
               </g>
        </defs>

<script type="text/javascript">
var viewWidth = 2796;
var viewHeight = 473;
var sectionId = 'dynsection-1';
</script>
<script xlink:href="svgpan.js"/>
<svg id="graph" class="graph">
<g id="viewport">
<title>JKQTPGraphsModel</title>
<!-- Node1 -->
<g id="node1" class="node">
<title>Node1</title>
<g id="a_node1"><a xlink:title="data model with all plots ina JKQTBasePlotter (+ allows to switch them visible/invisible)">
<polygon fill="#bfbfbf" stroke="black" points="1840,-260.78 1840,-281.78 1971,-281.78 1971,-260.78 1840,-260.78"/>
<text text-anchor="middle" x="1905.5" y="-268.18" font-family="Helvetica,sans-Serif" font-size="12.00">JKQTPGraphsModel</text>
</a>
</g>
</g>
<!-- Node3 -->
<g id="node3" class="node">
<title>Node3</title>
<g id="a_node3"><a xlink:href="class_j_k_q_t_base_plotter.html" target="_top" xlink:title="base class for 2D plotter classes (used by the plotter widget JKQTPlotter)">
<polygon fill="none" stroke="black" points="2123,-230.78 2123,-251.78 2237,-251.78 2237,-230.78 2123,-230.78"/>
<text text-anchor="middle" x="2180" y="-238.18" font-family="Helvetica,sans-Serif" font-size="12.00">JKQTBasePlotter</text>
</a>
</g>
</g>
<!-- Node1&#45;&gt;Node3 -->
<g id="edge23" class="edge">
<title>Node1&#45;&gt;Node3</title>
<path fill="none" stroke="#9a32cd" stroke-dasharray="5,2" d="M1981.02,-263.08C2025.75,-258.15 2081.72,-251.99 2122.73,-247.48"/>
<polygon fill="#9a32cd" stroke="#9a32cd" points="1980.64,-259.6 1971.08,-264.17 1981.4,-266.56 1980.64,-259.6"/>
<text text-anchor="middle" x="2043.5" y="-263.68" font-family="Helvetica,sans-Serif" font-size="12.00"> m_plotsModel</text>
</g>
<!-- Node2 -->
<g id="node2" class="node">
<title>Node2</title>
<g id="a_node2"><a xlink:title=" ">
<polygon fill="none" stroke="black" points="1492.5,-271.78 1492.5,-292.78 1635.5,-292.78 1635.5,-271.78 1492.5,-271.78"/>
<text text-anchor="middle" x="1564" y="-279.18" font-family="Helvetica,sans-Serif" font-size="12.00">QAbstractTableModel</text>
</a>
</g>
</g>
<!-- Node2&#45;&gt;Node1 -->
<g id="edge1" class="edge">
<title>Node2&#45;&gt;Node1</title>
<path fill="none" stroke="midnightblue" d="M1645.84,-279.66C1705.19,-277.74 1784.72,-275.16 1839.86,-273.37"/>
<polygon fill="midnightblue" stroke="midnightblue" points="1645.64,-276.17 1635.76,-279.99 1645.87,-283.16 1645.64,-276.17"/>
</g>
<!-- Node3&#45;&gt;Node1 -->
<g id="edge2" class="edge">
<title>Node3&#45;&gt;Node1</title>
<path fill="none" stroke="#9a32cd" stroke-dasharray="5,2" d="M2112.77,-232.67C2077.5,-229.79 2033.57,-228.93 1995,-236.28 1970.65,-240.92 1944.45,-252.14 1926.93,-260.63"/>
<polygon fill="#9a32cd" stroke="#9a32cd" points="2112.67,-236.17 2122.94,-233.57 2113.29,-229.2 2112.67,-236.17"/>
<text text-anchor="middle" x="2043.5" y="-239.68" font-family="Helvetica,sans-Serif" font-size="12.00"> m_plotter</text>
</g>
<!-- Node3&#45;&gt;Node3 -->
<g id="edge37" class="edge">
<title>Node3&#45;&gt;Node3</title>
<path fill="none" stroke="#9a32cd" stroke-dasharray="5,2" d="M2154.8,-261.34C2156.46,-266.44 2164.86,-270.28 2180,-270.28 2203.64,-270.28 2210.84,-260.93 2201.61,-251.99"/>
<polygon fill="#9a32cd" stroke="#9a32cd" points="2158.08,-262.58 2158.39,-251.99 2151.54,-260.07 2158.08,-262.58"/>
<text text-anchor="middle" x="2180" y="-286.68" font-family="Helvetica,sans-Serif" font-size="12.00"> masterPlotterX</text>
<text text-anchor="middle" x="2180" y="-273.68" font-family="Helvetica,sans-Serif" font-size="12.00">masterPlotterY</text>
</g>
<!-- Node18 -->
<g id="node18" class="node">
<title>Node18</title>
<g id="a_node18"><a xlink:href="class_j_k_q_t_p_coordinate_axis.html" target="_top" xlink:title="this virtual class is the base for any type of coordinate axis, to be drawn by JKQTBasePlotter.">
<polygon fill="none" stroke="black" points="2435.5,-302.78 2435.5,-323.78 2577.5,-323.78 2577.5,-302.78 2435.5,-302.78"/>
<text text-anchor="middle" x="2506.5" y="-310.18" font-family="Helvetica,sans-Serif" font-size="12.00">JKQTPCoordinateAxis</text>
</a>
</g>
</g>
<!-- Node3&#45;&gt;Node18 -->
<g id="edge27" class="edge">
<title>Node3&#45;&gt;Node18</title>
<path fill="none" stroke="#9a32cd" stroke-dasharray="5,2" d="M2214.39,-255.74C2230.37,-262.19 2249.91,-269.42 2268,-274.28 2298.72,-282.54 2376.9,-294.77 2435.23,-303.33"/>
<polygon fill="#9a32cd" stroke="#9a32cd" points="2215.53,-252.42 2204.95,-251.85 2212.86,-258.9 2215.53,-252.42"/>
<text text-anchor="middle" x="2324.5" y="-297.68" font-family="Helvetica,sans-Serif" font-size="12.00"> parent</text>
</g>
<!-- Node4 -->
<g id="node4" class="node">
<title>Node4</title>
<g id="a_node4"><a xlink:title=" ">
<polygon fill="none" stroke="black" points="1531.5,-390.78 1531.5,-411.78 1596.5,-411.78 1596.5,-390.78 1531.5,-390.78"/>
<text text-anchor="middle" x="1564" y="-398.18" font-family="Helvetica,sans-Serif" font-size="12.00">QObject</text>
</a>
</g>
</g>
<!-- Node4&#45;&gt;Node3 -->
<g id="edge3" class="edge">
<title>Node4&#45;&gt;Node3</title>
<path fill="none" stroke="midnightblue" d="M1606.6,-398.98C1698.45,-393.27 1915.27,-376.06 1977,-338.28 1988.68,-331.13 1984.11,-321.58 1995,-313.28 2031.58,-285.41 2049.19,-294.07 2092,-277.28 2113,-269.04 2136.64,-259.22 2153.97,-251.92"/>
<polygon fill="midnightblue" stroke="midnightblue" points="1606.33,-395.49 1596.56,-399.59 1606.75,-402.48 1606.33,-395.49"/>
</g>
<!-- Node15 -->
<g id="node15" class="node">
<title>Node15</title>
<g id="a_node15"><a xlink:href="class_j_k_q_t_math_text.html" target="_top" xlink:title="this class parses a LaTeX string and can then draw the contained text/equation onto a QPainter">
<polygon fill="none" stroke="black" points="1856,-390.78 1856,-411.78 1955,-411.78 1955,-390.78 1856,-390.78"/>
<text text-anchor="middle" x="1905.5" y="-398.18" font-family="Helvetica,sans-Serif" font-size="12.00">JKQTMathText</text>
</a>
</g>
</g>
<!-- Node4&#45;&gt;Node15 -->
<g id="edge19" class="edge">
<title>Node4&#45;&gt;Node15</title>
<path fill="none" stroke="midnightblue" d="M1607,-401.28C1670.07,-401.28 1788.96,-401.28 1855.76,-401.28"/>
<polygon fill="midnightblue" stroke="midnightblue" points="1606.63,-397.78 1596.63,-401.28 1606.63,-404.78 1606.63,-397.78"/>
</g>
<!-- Node4&#45;&gt;Node18 -->
<g id="edge26" class="edge">
<title>Node4&#45;&gt;Node18</title>
<path fill="none" stroke="midnightblue" d="M1606.45,-411.87C1714.27,-437.66 2011.63,-497.65 2250,-441.28 2348.73,-417.93 2452.77,-350.21 2490.63,-323.9"/>
<polygon fill="midnightblue" stroke="midnightblue" points="1607.16,-408.44 1596.62,-409.48 1605.51,-415.24 1607.16,-408.44"/>
</g>
<!-- Node5 -->
<g id="node5" class="node">
<title>Node5</title>
<g id="a_node5"><a xlink:href="class_j_k_q_t_base_plotter_style.html" target="_top" xlink:title="Support Class for JKQTBasePlotter, which summarizes all properties that define the visual styling of ...">
<polygon fill="none" stroke="black" points="1834,-177.78 1834,-198.78 1977,-198.78 1977,-177.78 1834,-177.78"/>
<text text-anchor="middle" x="1905.5" y="-185.18" font-family="Helvetica,sans-Serif" font-size="12.00">JKQTBasePlotterStyle</text>
</a>
</g>
</g>
<!-- Node5&#45;&gt;Node3 -->
<g id="edge4" class="edge">
<title>Node5&#45;&gt;Node3</title>
<path fill="none" stroke="#9a32cd" stroke-dasharray="5,2" d="M1987,-196.69C2019.79,-200.85 2057.92,-206.66 2092,-214.28 2111.29,-218.6 2132.49,-225.13 2149.13,-230.7"/>
<polygon fill="#9a32cd" stroke="#9a32cd" points="1987.37,-193.2 1977.01,-195.44 1986.5,-200.15 1987.37,-193.2"/>
<text text-anchor="middle" x="2043.5" y="-217.68" font-family="Helvetica,sans-Serif" font-size="12.00"> plotterStyle</text>
</g>
<!-- Node6 -->
<g id="node6" class="node">
<title>Node6</title>
<g id="a_node6"><a xlink:href="class_j_k_q_t_p_key_style.html" target="_top" xlink:title="Support Class for JKQTBasePlotter, which summarizes all properties that define the visual styling of ...">
<polygon fill="none" stroke="black" points="1512,-177.78 1512,-198.78 1616,-198.78 1616,-177.78 1512,-177.78"/>
<text text-anchor="middle" x="1564" y="-185.18" font-family="Helvetica,sans-Serif" font-size="12.00">JKQTPKeyStyle</text>
</a>
</g>
</g>
<!-- Node6&#45;&gt;Node5 -->
<g id="edge5" class="edge">
<title>Node6&#45;&gt;Node5</title>
<path fill="none" stroke="#9a32cd" stroke-dasharray="5,2" d="M1626.39,-188.28C1684.82,-188.28 1772.69,-188.28 1833.97,-188.28"/>
<polygon fill="#9a32cd" stroke="#9a32cd" points="1626.19,-184.78 1616.19,-188.28 1626.19,-191.78 1626.19,-184.78"/>
<text text-anchor="middle" x="1747.5" y="-191.68" font-family="Helvetica,sans-Serif" font-size="12.00"> keyStyle</text>
</g>
<!-- Node7 -->
<g id="node7" class="node">
<title>Node7</title>
<g id="a_node7"><a xlink:href="class_j_k_q_t_p_coordinate_axis_style.html" target="_top" xlink:title="Support Class for JKQTPCoordinateAxis, which summarizes all properties that define the visual styling...">
<polygon fill="none" stroke="black" points="1152,-224.78 1152,-245.78 1323,-245.78 1323,-224.78 1152,-224.78"/>
<text text-anchor="middle" x="1237.5" y="-232.18" font-family="Helvetica,sans-Serif" font-size="12.00">JKQTPCoordinateAxisStyle</text>
</a>
</g>
</g>
<!-- Node7&#45;&gt;Node5 -->
<g id="edge6" class="edge">
<title>Node7&#45;&gt;Node5</title>
<path fill="none" stroke="#9a32cd" stroke-dasharray="5,2" d="M1266.32,-219.81C1308.28,-197.45 1390.96,-157.16 1467,-142.28 1615.22,-113.27 1795.5,-156.53 1869.88,-177.71"/>
<polygon fill="#9a32cd" stroke="#9a32cd" points="1264.42,-216.86 1257.28,-224.69 1267.74,-223.02 1264.42,-216.86"/>
<text text-anchor="middle" x="1564" y="-158.68" font-family="Helvetica,sans-Serif" font-size="12.00"> xAxisStyle</text>
<text text-anchor="middle" x="1564" y="-145.68" font-family="Helvetica,sans-Serif" font-size="12.00">yAxisStyle</text>
</g>
<!-- Node9 -->
<g id="node9" class="node">
<title>Node9</title>
<g id="a_node9"><a xlink:href="class_j_k_q_t_p_colorbar_coordinate_axis_style.html" target="_top" xlink:title="Support Class for JKQTPCoordinateAxis, which summarizes all properties that define the visual styling...">
<polygon fill="none" stroke="black" points="1467,-218.28 1467,-252.28 1661,-252.28 1661,-218.28 1467,-218.28"/>
<text text-anchor="start" x="1475" y="-238.68" font-family="Helvetica,sans-Serif" font-size="12.00">JKQTPColorbarCoordinateAxis</text>
<text text-anchor="middle" x="1564" y="-225.68" font-family="Helvetica,sans-Serif" font-size="12.00">Style</text>
</a>
</g>
</g>
<!-- Node7&#45;&gt;Node9 -->
<g id="edge9" class="edge">
<title>Node7&#45;&gt;Node9</title>
<path fill="none" stroke="midnightblue" d="M1333.56,-235.28C1375.54,-235.28 1424.81,-235.28 1466.91,-235.28"/>
<polygon fill="midnightblue" stroke="midnightblue" points="1333.33,-231.78 1323.33,-235.28 1333.33,-238.78 1333.33,-231.78"/>
</g>
<!-- Node7&#45;&gt;Node18 -->
<g id="edge28" class="edge">
<title>Node7&#45;&gt;Node18</title>
<path fill="none" stroke="#9a32cd" stroke-dasharray="5,2" d="M1274.9,-249.34C1319.41,-265.74 1397.43,-291.92 1467,-302.28 1827.91,-356.05 2267.19,-331.68 2435.39,-319.11"/>
<polygon fill="#9a32cd" stroke="#9a32cd" points="1275.98,-246.01 1265.39,-245.8 1273.54,-252.57 1275.98,-246.01"/>
<text text-anchor="middle" x="1905.5" y="-338.68" font-family="Helvetica,sans-Serif" font-size="12.00"> axisStyle</text>
</g>
<!-- Node8 -->
<g id="node8" class="node">
<title>Node8</title>
<g id="a_node8"><a xlink:href="class_j_k_q_t_p_grid_style.html" target="_top" xlink:title="Support Class for JKQTPCoordinateAxis, and summarizes all properties that define the visual styling o...">
<polygon fill="none" stroke="black" points="851.5,-224.78 851.5,-245.78 958.5,-245.78 958.5,-224.78 851.5,-224.78"/>
<text text-anchor="middle" x="905" y="-232.18" font-family="Helvetica,sans-Serif" font-size="12.00">JKQTPGridStyle</text>
</a>
</g>
</g>
<!-- Node8&#45;&gt;Node7 -->
<g id="edge7" class="edge">
<title>Node8&#45;&gt;Node7</title>
<path fill="none" stroke="#9a32cd" stroke-dasharray="5,2" d="M968.79,-235.28C1020.62,-235.28 1094.66,-235.28 1151.74,-235.28"/>
<polygon fill="#9a32cd" stroke="#9a32cd" points="968.73,-231.78 958.73,-235.28 968.73,-238.78 968.73,-231.78"/>
<text text-anchor="middle" x="1069.5" y="-251.68" font-family="Helvetica,sans-Serif" font-size="12.00"> majorGridStyle</text>
<text text-anchor="middle" x="1069.5" y="-238.68" font-family="Helvetica,sans-Serif" font-size="12.00">minorGridStyle</text>
</g>
<!-- Node9&#45;&gt;Node5 -->
<g id="edge8" class="edge">
<title>Node9&#45;&gt;Node5</title>
<path fill="none" stroke="#9a32cd" stroke-dasharray="5,2" d="M1671.19,-224.27C1715.98,-219.19 1768.63,-212.65 1816,-205.28 1828.06,-203.4 1840.98,-201.09 1853.13,-198.79"/>
<polygon fill="#9a32cd" stroke="#9a32cd" points="1670.71,-220.81 1661.17,-225.4 1671.49,-227.76 1670.71,-220.81"/>
<text text-anchor="middle" x="1747.5" y="-240.68" font-family="Helvetica,sans-Serif" font-size="12.00"> rightColorbarAxisStyle</text>
<text text-anchor="middle" x="1747.5" y="-227.68" font-family="Helvetica,sans-Serif" font-size="12.00">topColorbarAxisStyle</text>
</g>
<!-- Node10 -->
<g id="node10" class="node">
<title>Node10</title>
<g id="a_node10"><a xlink:href="class_j_k_q_t_graphs_base_style.html" target="_top" xlink:title="Support Class for JKQTBasePlotter, which summarizes all properties that define the visual styling of ...">
<polygon fill="none" stroke="black" points="1491,-68.78 1491,-89.78 1637,-89.78 1637,-68.78 1491,-68.78"/>
<text text-anchor="middle" x="1564" y="-76.18" font-family="Helvetica,sans-Serif" font-size="12.00">JKQTGraphsBaseStyle</text>
</a>
</g>
</g>
<!-- Node10&#45;&gt;Node5 -->
<g id="edge10" class="edge">
<title>Node10&#45;&gt;Node5</title>
<path fill="none" stroke="#9a32cd" stroke-dasharray="5,2" d="M1644.35,-68.07C1697.93,-64.88 1767.46,-69.78 1816,-106.28 1832.89,-118.98 1819.87,-134.57 1834,-150.28 1844.97,-162.48 1860.81,-171.51 1874.69,-177.69"/>
<polygon fill="#9a32cd" stroke="#9a32cd" points="1643.93,-64.59 1634.2,-68.78 1644.42,-71.57 1643.93,-64.59"/>
<text text-anchor="middle" x="1747.5" y="-109.68" font-family="Helvetica,sans-Serif" font-size="12.00"> graphsStyle</text>
</g>
<!-- Node11 -->
<g id="node11" class="node">
<title>Node11</title>
<g id="a_node11"><a xlink:href="class_j_k_q_t_graphs_specific_style_properties.html" target="_top" xlink:title="Support Class for JKQTBasePlotter, which summarizes all properties that define the visual styling of ...">
<polygon fill="none" stroke="black" points="399,-31.78 399,-52.78 623,-52.78 623,-31.78 399,-31.78"/>
<text text-anchor="middle" x="511" y="-39.18" font-family="Helvetica,sans-Serif" font-size="12.00">JKQTGraphsSpecificStyleProperties</text>
</a>
</g>
</g>
<!-- Node11&#45;&gt;Node10 -->
<g id="edge11" class="edge">
<title>Node11&#45;&gt;Node10</title>
<path fill="none" stroke="#9a32cd" stroke-dasharray="5,2" d="M590.36,-30.34C706.85,-14.22 932.55,10.74 1124,-5.28 1268.22,-17.35 1436.33,-51.35 1516.23,-68.75"/>
<polygon fill="#9a32cd" stroke="#9a32cd" points="589.87,-26.87 580.45,-31.73 590.84,-33.81 589.87,-26.87"/>
<text text-anchor="middle" x="1069.5" y="-60.68" font-family="Helvetica,sans-Serif" font-size="12.00"> barchartStyle</text>
<text text-anchor="middle" x="1069.5" y="-47.68" font-family="Helvetica,sans-Serif" font-size="12.00">boxplotStyle</text>
<text text-anchor="middle" x="1069.5" y="-34.68" font-family="Helvetica,sans-Serif" font-size="12.00">defaultGraphStyle</text>
<text text-anchor="middle" x="1069.5" y="-21.68" font-family="Helvetica,sans-Serif" font-size="12.00">filledStyle</text>
<text text-anchor="middle" x="1069.5" y="-8.68" font-family="Helvetica,sans-Serif" font-size="12.00">impulseStyle</text>
</g>
<!-- Node13 -->
<g id="node13" class="node">
<title>Node13</title>
<g id="a_node13"><a xlink:href="class_j_k_q_t_geometric_specific_style_properties.html" target="_top" xlink:title="Support Class for JKQTBasePlotter, which summarizes all properties that define the visual styling of ...">
<polygon fill="none" stroke="black" points="813,-55.28 813,-89.28 997,-89.28 997,-55.28 813,-55.28"/>
<text text-anchor="start" x="821" y="-75.68" font-family="Helvetica,sans-Serif" font-size="12.00">JKQTGeometricSpecificStyle</text>
<text text-anchor="middle" x="905" y="-62.68" font-family="Helvetica,sans-Serif" font-size="12.00">Properties</text>
</a>
</g>
</g>
<!-- Node11&#45;&gt;Node13 -->
<g id="edge14" class="edge">
<title>Node11&#45;&gt;Node13</title>
<path fill="none" stroke="midnightblue" d="M633.34,-51.57C691.25,-56 759.38,-61.21 812.8,-65.3"/>
<polygon fill="midnightblue" stroke="midnightblue" points="633.26,-48.05 623.02,-50.78 632.72,-55.03 633.26,-48.05"/>
</g>
<!-- Node12 -->
<g id="node12" class="node">
<title>Node12</title>
<g id="a_node12"><a xlink:href="struct_j_k_q_t_p_color_derivation_mode.html" target="_top" xlink:title="Specifies how a fill&#45;color is derived from a given color.">
<polygon fill="none" stroke="black" points="0,-71.78 0,-92.78 179,-92.78 179,-71.78 0,-71.78"/>
<text text-anchor="middle" x="89.5" y="-79.18" font-family="Helvetica,sans-Serif" font-size="12.00">JKQTPColorDerivationMode</text>
</a>
</g>
</g>
<!-- Node12&#45;&gt;Node11 -->
<g id="edge12" class="edge">
<title>Node12&#45;&gt;Node11</title>
<path fill="none" stroke="#9a32cd" stroke-dasharray="5,2" d="M121.6,-67.62C142.42,-58.64 170.73,-47.98 197,-43.28 263.19,-31.43 338.53,-30.81 398.71,-33.32"/>
<polygon fill="#9a32cd" stroke="#9a32cd" points="120.04,-64.49 112.31,-71.74 122.87,-70.89 120.04,-64.49"/>
<text text-anchor="middle" x="289" y="-98.68" font-family="Helvetica,sans-Serif" font-size="12.00"> errorColorDerivationMode</text>
<text text-anchor="middle" x="289" y="-85.68" font-family="Helvetica,sans-Serif" font-size="12.00">errorFillColorDerivationMode</text>
<text text-anchor="middle" x="289" y="-72.68" font-family="Helvetica,sans-Serif" font-size="12.00">fillColorDerivationMode</text>
<text text-anchor="middle" x="289" y="-59.68" font-family="Helvetica,sans-Serif" font-size="12.00">graphColorDerivationMode</text>
<text text-anchor="middle" x="289" y="-46.68" font-family="Helvetica,sans-Serif" font-size="12.00">symbolFillColorDerivationMode</text>
</g>
<!-- Node14 -->
<g id="node14" class="node">
<title>Node14</title>
<g id="a_node14"><a xlink:href="class_j_k_q_t_annotations_specific_style_properties.html" target="_top" xlink:title="Support Class for JKQTBasePlotter, which summarizes all properties that define the visual styling of ...">
<polygon fill="none" stroke="black" points="1142,-104.28 1142,-138.28 1333,-138.28 1333,-104.28 1142,-104.28"/>
<text text-anchor="start" x="1150" y="-124.68" font-family="Helvetica,sans-Serif" font-size="12.00">JKQTAnnotationsSpecificStyle</text>
<text text-anchor="middle" x="1237.5" y="-111.68" font-family="Helvetica,sans-Serif" font-size="12.00">Properties</text>
</a>
</g>
</g>
<!-- Node12&#45;&gt;Node14 -->
<g id="edge17" class="edge">
<title>Node12&#45;&gt;Node14</title>
<path fill="none" stroke="#9a32cd" stroke-dasharray="5,2" d="M134.98,-95.53C153.91,-100.54 176.35,-105.67 197,-108.28 542.8,-152.07 958.45,-137.19 1141.76,-127.24"/>
<polygon fill="#9a32cd" stroke="#9a32cd" points="135.71,-92.1 125.14,-92.85 133.87,-98.85 135.71,-92.1"/>
<text text-anchor="middle" x="718" y="-141.68" font-family="Helvetica,sans-Serif" font-size="12.00"> textColorDerivationMode</text>
</g>
<!-- Node13&#45;&gt;Node10 -->
<g id="edge13" class="edge">
<title>Node13&#45;&gt;Node10</title>
<path fill="none" stroke="#9a32cd" stroke-dasharray="5,2" d="M1007.25,-73.36C1140.94,-74.78 1373.1,-77.26 1490.53,-78.51"/>
<polygon fill="#9a32cd" stroke="#9a32cd" points="1007.04,-69.86 997.01,-73.25 1006.97,-76.86 1007.04,-69.86"/>
<text text-anchor="middle" x="1237.5" y="-80.68" font-family="Helvetica,sans-Serif" font-size="12.00"> geometricStyle</text>
</g>
<!-- Node13&#45;&gt;Node14 -->
<g id="edge16" class="edge">
<title>Node13&#45;&gt;Node14</title>
<path fill="none" stroke="midnightblue" d="M1007.08,-87.27C1049.97,-93.63 1099.7,-101 1141.87,-107.25"/>
<polygon fill="midnightblue" stroke="midnightblue" points="1007.59,-83.8 997.19,-85.8 1006.56,-90.73 1007.59,-83.8"/>
</g>
<!-- Node14&#45;&gt;Node10 -->
<g id="edge15" class="edge">
<title>Node14&#45;&gt;Node10</title>
<path fill="none" stroke="#9a32cd" stroke-dasharray="5,2" d="M1342.94,-107.33C1345.65,-106.98 1348.34,-106.63 1351,-106.28 1397.54,-100.21 1449.85,-93.55 1490.87,-88.36"/>
<polygon fill="#9a32cd" stroke="#9a32cd" points="1342.48,-103.86 1333.02,-108.64 1343.39,-110.8 1342.48,-103.86"/>
<text text-anchor="middle" x="1400" y="-109.68" font-family="Helvetica,sans-Serif" font-size="12.00"> annotationStyle</text>
</g>
<!-- Node15&#45;&gt;Node3 -->
<g id="edge18" class="edge">
<title>Node15&#45;&gt;Node3</title>
<path fill="none" stroke="#9a32cd" stroke-dasharray="5,2" d="M1949.08,-387.42C1958.39,-384.05 1968.12,-380.26 1977,-376.28 2030.19,-352.47 2043.78,-346.01 2092,-313.28 2120.88,-293.68 2151.66,-266.53 2167.73,-251.8"/>
<polygon fill="#9a32cd" stroke="#9a32cd" points="1947.84,-384.15 1939.57,-390.78 1950.17,-390.75 1947.84,-384.15"/>
<text text-anchor="middle" x="2043.5" y="-369.68" font-family="Helvetica,sans-Serif" font-size="12.00"> mathText</text>
</g>
<!-- Node16 -->
<g id="node16" class="node">
<title>Node16</title>
<g id="a_node16"><a xlink:href="class_j_k_q_t_math_text_node.html" target="_top" xlink:title="subclass representing one node in the syntax tree">
<polygon fill="none" stroke="black" points="2114.5,-379.78 2114.5,-400.78 2245.5,-400.78 2245.5,-379.78 2114.5,-379.78"/>
<text text-anchor="middle" x="2180" y="-387.18" font-family="Helvetica,sans-Serif" font-size="12.00">JKQTMathTextNode</text>
</a>
</g>
</g>
<!-- Node15&#45;&gt;Node16 -->
<g id="edge21" class="edge">
<title>Node15&#45;&gt;Node16</title>
<path fill="none" stroke="#9a32cd" stroke-dasharray="5,2" d="M1965.04,-407.02C2001.61,-409.65 2049.64,-411.38 2092,-407.28 2105.63,-405.96 2120.3,-403.5 2133.64,-400.86"/>
<polygon fill="#9a32cd" stroke="#9a32cd" points="1965.28,-403.53 1955.04,-406.26 1964.75,-410.51 1965.28,-403.53"/>
<text text-anchor="middle" x="2043.5" y="-412.68" font-family="Helvetica,sans-Serif" font-size="12.00"> parentMathText</text>
</g>
<!-- Node16&#45;&gt;Node15 -->
<g id="edge20" class="edge">
<title>Node16&#45;&gt;Node15</title>
<path fill="none" stroke="#9a32cd" stroke-dasharray="5,2" d="M2104.1,-390.94C2070.69,-391.48 2030.86,-392.47 1995,-394.28 1982.07,-394.93 1968.1,-395.91 1955.16,-396.93"/>
<polygon fill="#9a32cd" stroke="#9a32cd" points="2104.31,-394.44 2114.25,-390.78 2104.2,-387.44 2104.31,-394.44"/>
<text text-anchor="middle" x="2043.5" y="-397.68" font-family="Helvetica,sans-Serif" font-size="12.00"> parsedNode</text>
</g>
<!-- Node16&#45;&gt;Node16 -->
<g id="edge22" class="edge">
<title>Node16&#45;&gt;Node16</title>
<path fill="none" stroke="#9a32cd" stroke-dasharray="5,2" d="M2154.8,-410.34C2156.46,-415.44 2164.86,-419.28 2180,-419.28 2203.64,-419.28 2210.84,-409.93 2201.61,-400.99"/>
<polygon fill="#9a32cd" stroke="#9a32cd" points="2158.08,-411.58 2158.39,-400.99 2151.54,-409.07 2158.08,-411.58"/>
<text text-anchor="middle" x="2180" y="-422.68" font-family="Helvetica,sans-Serif" font-size="12.00"> parentNode</text>
</g>
<!-- Node17 -->
<g id="node17" class="node">
<title>Node17</title>
<g id="a_node17"><a xlink:href="class_j_k_q_t_p_horizontal_axis.html" target="_top" xlink:title="implements a horizontal axis, based on JKQTPCoordinateAxis (for most of documentation: see JKQTPCoord...">
<polygon fill="none" stroke="black" points="2651,-233.78 2651,-254.78 2788,-254.78 2788,-233.78 2651,-233.78"/>
<text text-anchor="middle" x="2719.5" y="-241.18" font-family="Helvetica,sans-Serif" font-size="12.00">JKQTPHorizontalAxis</text>
</a>
</g>
</g>
<!-- Node17&#45;&gt;Node3 -->
<g id="edge24" class="edge">
<title>Node17&#45;&gt;Node3</title>
<path fill="none" stroke="#9a32cd" stroke-dasharray="5,2" d="M2650.35,-232.32C2638.28,-230.64 2625.8,-229.18 2614,-228.28 2479.02,-218.01 2319.79,-228.61 2237.14,-235.81"/>
<polygon fill="#9a32cd" stroke="#9a32cd" points="2649.97,-235.8 2660.37,-233.78 2650.98,-228.87 2649.97,-235.8"/>
<text text-anchor="middle" x="2506.5" y="-231.68" font-family="Helvetica,sans-Serif" font-size="12.00"> xAxis</text>
</g>
<!-- Node18&#45;&gt;Node17 -->
<g id="edge25" class="edge">
<title>Node18&#45;&gt;Node17</title>
<path fill="none" stroke="midnightblue" d="M2552.24,-299.76C2571.31,-293.9 2593.79,-286.89 2614,-280.28 2639.17,-272.05 2667.57,-262.23 2688.4,-254.93"/>
<polygon fill="midnightblue" stroke="midnightblue" points="2551.14,-296.43 2542.6,-302.71 2553.19,-303.13 2551.14,-296.43"/>
</g>
<!-- Node19 -->
<g id="node19" class="node">
<title>Node19</title>
<g id="a_node19"><a xlink:href="class_j_k_q_t_p_vertical_axis.html" target="_top" xlink:title="implements a vertical axis, based on JKQTPCoordinateAxis (for most of documentation: see JKQTPCoordin...">
<polygon fill="none" stroke="black" points="2658.5,-277.78 2658.5,-298.78 2780.5,-298.78 2780.5,-277.78 2658.5,-277.78"/>
<text text-anchor="middle" x="2719.5" y="-285.18" font-family="Helvetica,sans-Serif" font-size="12.00">JKQTPVerticalAxis</text>
</a>
</g>
</g>
<!-- Node18&#45;&gt;Node19 -->
<g id="edge30" class="edge">
<title>Node18&#45;&gt;Node19</title>
<path fill="none" stroke="midnightblue" d="M2587.84,-304.52C2602.86,-302.83 2618.41,-301.03 2633,-299.28 2641.17,-298.3 2649.78,-297.23 2658.26,-296.16"/>
<polygon fill="midnightblue" stroke="midnightblue" points="2587.1,-301.08 2577.55,-305.68 2587.88,-308.04 2587.1,-301.08"/>
</g>
<!-- Node19&#45;&gt;Node3 -->
<g id="edge29" class="edge">
<title>Node19&#45;&gt;Node3</title>
<path fill="none" stroke="#9a32cd" stroke-dasharray="5,2" d="M2647.97,-282.11C2539.92,-272.67 2335.59,-254.8 2237,-246.18"/>
<polygon fill="#9a32cd" stroke="#9a32cd" points="2647.86,-285.62 2658.12,-283 2648.46,-278.64 2647.86,-285.62"/>
<text text-anchor="middle" x="2506.5" y="-281.68" font-family="Helvetica,sans-Serif" font-size="12.00"> yAxis</text>
</g>
<!-- Node20 -->
<g id="node20" class="node">
<title>Node20</title>
<g id="a_node20"><a xlink:href="class_j_k_q_t_p_datastore.html" target="_top" xlink:title="This class manages data columns (with entries of type double ), used by JKQTPlotter/JKQTBasePlotter t...">
<polygon fill="none" stroke="black" points="1850,-119.78 1850,-140.78 1961,-140.78 1961,-119.78 1850,-119.78"/>
<text text-anchor="middle" x="1905.5" y="-127.18" font-family="Helvetica,sans-Serif" font-size="12.00">JKQTPDatastore</text>
</a>
</g>
</g>
<!-- Node20&#45;&gt;Node3 -->
<g id="edge31" class="edge">
<title>Node20&#45;&gt;Node3</title>
<path fill="none" stroke="#9a32cd" stroke-dasharray="5,2" d="M1971.4,-142.51C2007.89,-150.75 2053.67,-163.42 2092,-181.28 2120.77,-194.69 2150.39,-217.37 2166.57,-230.68"/>
<polygon fill="#9a32cd" stroke="#9a32cd" points="1971.88,-139.03 1961.36,-140.3 1970.38,-145.87 1971.88,-139.03"/>
<text text-anchor="middle" x="2043.5" y="-184.68" font-family="Helvetica,sans-Serif" font-size="12.00"> datastore</text>
</g>
<!-- Node22 -->
<g id="node22" class="node">
<title>Node22</title>
<g id="a_node22"><a xlink:href="class_j_k_q_t_p_column.html" target="_top" xlink:title="internally stores information about one data column. See JKQTPDatastore for more information.">
<polygon fill="none" stroke="black" points="2131,-72.78 2131,-93.78 2229,-93.78 2229,-72.78 2131,-72.78"/>
<text text-anchor="middle" x="2180" y="-80.18" font-family="Helvetica,sans-Serif" font-size="12.00">JKQTPColumn</text>
</a>
</g>
</g>
<!-- Node20&#45;&gt;Node22 -->
<g id="edge34" class="edge">
<title>Node20&#45;&gt;Node22</title>
<path fill="none" stroke="#9a32cd" stroke-dasharray="5,2" d="M1945.66,-116.6C1960.9,-111.74 1978.61,-106.64 1995,-103.28 2040.64,-93.92 2093.61,-88.75 2130.96,-86.02"/>
<polygon fill="#9a32cd" stroke="#9a32cd" points="1944.46,-113.31 1936.04,-119.74 1946.64,-119.96 1944.46,-113.31"/>
<text text-anchor="middle" x="2043.5" y="-106.68" font-family="Helvetica,sans-Serif" font-size="12.00"> datastore</text>
</g>
<!-- Node21 -->
<g id="node21" class="node">
<title>Node21</title>
<g id="a_node21"><a xlink:title=" ">
<polygon fill="none" stroke="black" points="2399,-72.78 2399,-93.78 2614,-93.78 2614,-72.78 2399,-72.78"/>
<text text-anchor="middle" x="2506.5" y="-80.18" font-family="Helvetica,sans-Serif" font-size="12.00">std::unique_ptr&lt; JKQTPColumn &gt;</text>
</a>
</g>
</g>
<!-- Node21&#45;&gt;Node20 -->
<g id="edge32" class="edge">
<title>Node21&#45;&gt;Node20</title>
<path fill="none" stroke="#9a32cd" stroke-dasharray="5,2" d="M2425.11,-95.13C2410.46,-97.04 2395.29,-98.86 2381,-100.28 2229.25,-115.42 2049.4,-124.33 1961.04,-128.12"/>
<polygon fill="#9a32cd" stroke="#9a32cd" points="2425.7,-98.58 2435.15,-93.79 2424.78,-91.64 2425.7,-98.58"/>
<text text-anchor="middle" x="2180" y="-124.68" font-family="Helvetica,sans-Serif" font-size="12.00"> m_invalidColumn</text>
</g>
<!-- Node22&#45;&gt;Node21 -->
<g id="edge33" class="edge">
<title>Node22&#45;&gt;Node21</title>
<path fill="none" stroke="#9a32cd" stroke-dasharray="5,2" d="M2239.25,-83.28C2283.55,-83.28 2345.75,-83.28 2398.89,-83.28"/>
<polygon fill="#9a32cd" stroke="#9a32cd" points="2239.23,-79.78 2229.23,-83.28 2239.23,-86.78 2239.23,-79.78"/>
<text text-anchor="middle" x="2324.5" y="-86.68" font-family="Helvetica,sans-Serif" font-size="12.00"> ptr</text>
</g>
<!-- Node23 -->
<g id="node23" class="node">
<title>Node23</title>
<g id="a_node23"><a xlink:title=" ">
<polygon fill="none" stroke="black" points="2110,-32.78 2110,-53.78 2250,-53.78 2250,-32.78 2110,-32.78"/>
<text text-anchor="middle" x="2180" y="-40.18" font-family="Helvetica,sans-Serif" font-size="12.00">std::unique_ptr&lt; T &gt;</text>
</a>
</g>
</g>
<!-- Node23&#45;&gt;Node21 -->
<g id="edge35" class="edge">
<title>Node23&#45;&gt;Node21</title>
<path fill="none" stroke="orange" stroke-dasharray="5,2" d="M2260.16,-51.99C2296.93,-56.14 2341.22,-61.28 2381,-66.28 2397.02,-68.29 2414.18,-70.56 2430.48,-72.77"/>
<polygon fill="orange" stroke="orange" points="2260.33,-48.49 2250,-50.85 2259.55,-55.45 2260.33,-48.49"/>
<text text-anchor="middle" x="2324.5" y="-69.68" font-family="Helvetica,sans-Serif" font-size="12.00"> &lt; JKQTPColumn &gt;</text>
</g>
<!-- Node24 -->
<g id="node24" class="node">
<title>Node24</title>
<g id="a_node24"><a xlink:title=" ">
<polygon fill="none" stroke="black" points="1891,-32.78 1891,-53.78 1920,-53.78 1920,-32.78 1891,-32.78"/>
<text text-anchor="middle" x="1905.5" y="-40.18" font-family="Helvetica,sans-Serif" font-size="12.00">T</text>
</a>
</g>
</g>
<!-- Node24&#45;&gt;Node23 -->
<g id="edge36" class="edge">
<title>Node24&#45;&gt;Node23</title>
<path fill="none" stroke="#9a32cd" stroke-dasharray="5,2" d="M1930.26,-43.28C1969.88,-43.28 2050.89,-43.28 2109.73,-43.28"/>
<polygon fill="#9a32cd" stroke="#9a32cd" points="1930.01,-39.78 1920.01,-43.28 1930.01,-46.78 1930.01,-39.78"/>
<text text-anchor="middle" x="2043.5" y="-46.68" font-family="Helvetica,sans-Serif" font-size="12.00"> ptr</text>
</g>
</g>
</svg>
        <g id="navigator" transform="translate(0 0)" fill="#404254">
                <rect fill="#f2f5e9" fill-opacity="0.5" stroke="#606060" stroke-width=".5" x="0" y="0" width="60" height="60"/>
                <use id="zoomplus" xlink:href="#zoomPlus" x="17" y="9" onmousedown="handleZoom(evt,'in')"/>
                <use id="zoomminus" xlink:href="#zoomMin" x="42" y="9" onmousedown="handleZoom(evt,'out')"/>
                <use id="reset" xlink:href="#resetDef" x="30" y="36" onmousedown="handleReset()"/>
                <g id="arrowUp" xlink:href="#dirArrow" transform="translate(30 24)" onmousedown="handlePan(0,-1)">
                  <use xlink:href="#rim" fill="#404040">
                        <set attributeName="fill" to="#808080" begin="arrowUp.mouseover" end="arrowUp.mouseout"/>
                  </use>
                  <path fill="none" stroke="white" stroke-width="1.5" d="M0,-3.0v7 M-2.5,-0.5L0,-3.0L2.5,-0.5"/>
                </g>
                <g id="arrowRight" xlink:href="#dirArrow" transform="rotate(90) translate(36 -43)" onmousedown="handlePan(1,0)">
                  <use xlink:href="#rim" fill="#404040">
                        <set attributeName="fill" to="#808080" begin="arrowRight.mouseover" end="arrowRight.mouseout"/>
                  </use>
                  <path fill="none" stroke="white" stroke-width="1.5" d="M0,-3.0v7 M-2.5,-0.5L0,-3.0L2.5,-0.5"/>
                </g>
                <g id="arrowDown" xlink:href="#dirArrow" transform="rotate(180) translate(-30 -48)" onmousedown="handlePan(0,1)">
                  <use xlink:href="#rim" fill="#404040">
                        <set attributeName="fill" to="#808080" begin="arrowDown.mouseover" end="arrowDown.mouseout"/>
                  </use>
                  <path fill="none" stroke="white" stroke-width="1.5" d="M0,-3.0v7 M-2.5,-0.5L0,-3.0L2.5,-0.5"/>
                </g>
                <g id="arrowLeft" xlink:href="#dirArrow" transform="rotate(270) translate(-36 17)" onmousedown="handlePan(-1,0)">
                  <use xlink:href="#rim" fill="#404040">
                        <set attributeName="fill" to="#808080" begin="arrowLeft.mouseover" end="arrowLeft.mouseout"/>
                  </use>
                  <path fill="none" stroke="white" stroke-width="1.5" d="M0,-3.0v7 M-2.5,-0.5L0,-3.0L2.5,-0.5"/>
                </g>
        </g>
        <svg viewBox="0 0 15 15" width="100%" height="30px" preserveAspectRatio="xMaxYMin meet">
         <g id="arrow_out" transform="scale(0.3 0.3)">
          <a xlink:href="class_j_k_q_t_p_graphs_model__coll__graph_org.svg" target="_base">
           <rect id="button" ry="5" rx="5" y="6" x="6" height="38" width="38"
                fill="#f2f5e9" fill-opacity="0.5" stroke="#606060" stroke-width="1.0"/>
           <path id="arrow"
             d="M 11.500037,31.436501 C 11.940474,20.09759 22.043105,11.32322 32.158766,21.979434 L 37.068811,17.246167 C 37.068811,17.246167 37.088388,32 37.088388,32 L 22.160133,31.978069 C 22.160133,31.978069 26.997745,27.140456 26.997745,27.140456 C 18.528582,18.264221 13.291696,25.230495 11.500037,31.436501 z"
             style="fill:#404040;"/>
          </a>
         </g>
        </svg>
</svg>
