<?xml version="1.0" encoding="UTF-8" standalone="no"?>
<!DOCTYPE svg PUBLIC "-//W3C//DTD SVG 1.1//EN"
 "http://www.w3.org/Graphics/SVG/1.1/DTD/svg11.dtd">
<!-- Generated by graphviz version 2.43.0 (0)
 -->
<!-- Title: JKQTMathTextListNode Pages: 1 -->
<svg width="353pt" height="114pt"
 viewBox="0.00 0.00 353.00 114.00" xmlns="http://www.w3.org/2000/svg" xmlns:xlink="http://www.w3.org/1999/xlink">
<g id="graph0" class="graph" transform="scale(1 1) rotate(0) translate(4 110)">
<title>JKQTMathTextListNode</title>
<!-- Node1 -->
<g id="node1" class="node">
<title>Node1</title>
<g id="a_node1"><a xlink:title="subclass representing a list of nodes in the syntax tree">
<polygon fill="#bfbfbf" stroke="black" points="0,-0.5 0,-21.5 146,-21.5 146,-0.5 0,-0.5"/>
<text text-anchor="middle" x="73" y="-7.9" font-family="FreeSans" font-size="12.00">JKQTMathTextListNode</text>
</a>
</g>
</g>
<!-- Node2 -->
<g id="node2" class="node">
<title>Node2</title>
<g id="a_node2"><a xlink:href="class_j_k_q_t_math_text_node.html" target="_top" xlink:title="subclass representing one node in the syntax tree">
<polygon fill="none" stroke="black" points="44,-84.5 44,-105.5 172,-105.5 172,-84.5 44,-84.5"/>
<text text-anchor="middle" x="108" y="-91.9" font-family="FreeSans" font-size="12.00">JKQTMathTextNode</text>
</a>
</g>
</g>
<!-- Node2&#45;&gt;Node1 -->
<g id="edge1" class="edge">
<title>Node2&#45;&gt;Node1</title>
<path fill="none" stroke="midnightblue" d="M93.1,-76.25C90.83,-72.98 88.68,-69.49 87,-66 79.94,-51.34 76.12,-32.66 74.32,-21.56"/>
<polygon fill="midnightblue" stroke="midnightblue" points="90.35,-78.42 99.19,-84.25 95.92,-74.18 90.35,-78.42"/>
</g>
<!-- Node2&#45;&gt;Node2 -->
<g id="edge5" class="edge">
<title>Node2&#45;&gt;Node2</title>
<path fill="none" stroke="#9a32cd" stroke-dasharray="5,2" d="M182.15,-100.62C187.04,-99.32 190,-97.44 190,-95 190,-91.19 182.79,-88.76 172.29,-87.71"/>
<polygon fill="#9a32cd" stroke="#9a32cd" points="181.57,-97.17 172.29,-102.29 182.73,-104.08 181.57,-97.17"/>
<text text-anchor="middle" x="223.5" y="-91.9" font-family="FreeSans" font-size="12.00"> parentNode</text>
</g>
<!-- Node3 -->
<g id="node3" class="node">
<title>Node3</title>
<g id="a_node3"><a xlink:href="class_j_k_q_t_math_text.html" target="_top" xlink:title="this class parses a LaTeX string and can then draw the contained text/equation onto a QPainter">
<polygon fill="none" stroke="black" points="164,-0.5 164,-21.5 262,-21.5 262,-0.5 164,-0.5"/>
<text text-anchor="middle" x="213" y="-7.9" font-family="FreeSans" font-size="12.00">JKQTMathText</text>
</a>
</g>
</g>
<!-- Node2&#45;&gt;Node3 -->
<g id="edge4" class="edge">
<title>Node2&#45;&gt;Node3</title>
<path fill="none" stroke="#9a32cd" stroke-dasharray="5,2" d="M101.13,-74.74C98.43,-63.5 97.51,-49.68 105,-40 108.97,-34.87 138.38,-27.44 165.5,-21.52"/>
<polygon fill="#9a32cd" stroke="#9a32cd" points="97.83,-75.92 104.05,-84.5 104.53,-73.92 97.83,-75.92"/>
<text text-anchor="middle" x="145" y="-56.4" font-family="FreeSans" font-size="12.00"> parsedNode</text>
<text text-anchor="middle" x="145" y="-43.4" font-family="FreeSans" font-size="12.00">unparsedNode</text>
</g>
<!-- Node3&#45;&gt;Node2 -->
<g id="edge2" class="edge">
<title>Node3&#45;&gt;Node2</title>
<path fill="none" stroke="#9a32cd" stroke-dasharray="5,2" d="M208.45,-31.72C204.89,-43.12 198.85,-56.96 189,-66 179.9,-74.35 168.19,-80.23 156.51,-84.36"/>
<polygon fill="#9a32cd" stroke="#9a32cd" points="211.91,-32.34 211.14,-21.77 205.15,-30.51 211.91,-32.34"/>
<text text-anchor="middle" x="249" y="-49.9" font-family="FreeSans" font-size="12.00"> parentMathText</text>
</g>
<!-- Node4 -->
<g id="node4" class="node">
<title>Node4</title>
<g id="a_node4"><a xlink:title=" ">
<polygon fill="none" stroke="black" points="283,-84.5 283,-105.5 345,-105.5 345,-84.5 283,-84.5"/>
<text text-anchor="middle" x="314" y="-91.9" font-family="FreeSans" font-size="12.00">QObject</text>
</a>
</g>
</g>
<!-- Node4&#45;&gt;Node3 -->
<g id="edge3" class="edge">
<title>Node4&#45;&gt;Node3</title>
<path fill="none" stroke="midnightblue" d="M313.41,-74.02C312.06,-62.73 308.58,-49.09 300,-40 289.98,-29.38 275.93,-22.78 262.03,-18.68"/>
<polygon fill="midnightblue" stroke="midnightblue" points="309.94,-74.57 314.16,-84.29 316.93,-74.06 309.94,-74.57"/>
</g>
</g>
</svg>
