<?xml version="1.0" encoding="UTF-8" standalone="no"?>
<!DOCTYPE svg PUBLIC "-//W3C//DTD SVG 1.1//EN"
 "http://www.w3.org/Graphics/SVG/1.1/DTD/svg11.dtd">
<!-- Generated by graphviz version 2.43.0 (0)
 -->
<!-- Title: JKQTPColumnBackInserter Pages: 1 -->
<svg width="600pt" height="169pt"
 viewBox="0.00 0.00 599.50 169.00" xmlns="http://www.w3.org/2000/svg" xmlns:xlink="http://www.w3.org/1999/xlink">
<g id="graph0" class="graph" transform="scale(1 1) rotate(0) translate(4 165)">
<title>JKQTPColumnBackInserter</title>
<!-- Node1 -->
<g id="Node000001" class="node">
<title>Node1</title>
<g id="a_Node000001"><a xlink:title="iterator, which allows to insert into a column of a JKQTPDatastore">
<polygon fill="#999999" stroke="#666666" points="175,-91 0,-91 0,-70 175,-70 175,-91"/>
<text text-anchor="middle" x="87.5" y="-77.4" font-family="Helvetica,sans-Serif" font-size="12.00">JKQTPColumnBackInserter</text>
</a>
</g>
</g>
<!-- Node2 -->
<g id="Node000002" class="node">
<title>Node2</title>
<g id="a_Node000002"><a xlink:href="class_j_k_q_t_p_datastore.html" target="_top" xlink:title="This class manages data columns (with entries of type double ), used by JKQTPlotter/JKQTBasePlotter t...">
<polygon fill="white" stroke="#666666" points="298,-161 187,-161 187,-140 298,-140 298,-161"/>
<text text-anchor="middle" x="242.5" y="-147.4" font-family="Helvetica,sans-Serif" font-size="12.00">JKQTPDatastore</text>
</a>
</g>
</g>
<!-- Node2&#45;&gt;Node1 -->
<g id="edge1_Node000001_Node000002" class="edge">
<title>Node2&#45;&gt;Node1</title>
<g id="a_edge1_Node000001_Node000002"><a xlink:title=" ">
<path fill="none" stroke="#9a32cd" stroke-dasharray="5,2" d="M211.36,-135.84C181.08,-122.55 135.87,-102.72 109.27,-91.05"/>
<polygon fill="#9a32cd" stroke="#9a32cd" points="210.06,-139.09 220.62,-139.9 212.87,-132.68 210.06,-139.09"/>
</a>
</g>
<text text-anchor="middle" x="191.5" y="-112.4" font-family="Helvetica,sans-Serif" font-size="12.00" fill="grey"> ds_</text>
</g>
<!-- Node4 -->
<g id="Node000004" class="node">
<title>Node4</title>
<g id="a_Node000004"><a xlink:href="class_j_k_q_t_p_column.html" target="_top" xlink:title="internally stores information about one data column. See JKQTPDatastore for more information.">
<polygon fill="white" stroke="#666666" points="291.5,-91 193.5,-91 193.5,-70 291.5,-70 291.5,-91"/>
<text text-anchor="middle" x="242.5" y="-77.4" font-family="Helvetica,sans-Serif" font-size="12.00">JKQTPColumn</text>
</a>
</g>
</g>
<!-- Node2&#45;&gt;Node4 -->
<g id="edge4_Node000004_Node000002" class="edge">
<title>Node2&#45;&gt;Node4</title>
<g id="a_edge4_Node000004_Node000002"><a xlink:title=" ">
<path fill="none" stroke="#9a32cd" stroke-dasharray="5,2" d="M242.5,-129.7C242.5,-117.05 242.5,-101.22 242.5,-91.22"/>
<polygon fill="#9a32cd" stroke="#9a32cd" points="239,-129.76 242.5,-139.76 246,-129.76 239,-129.76"/>
</a>
</g>
<text text-anchor="middle" x="273" y="-112.4" font-family="Helvetica,sans-Serif" font-size="12.00" fill="grey"> datastore</text>
</g>
<!-- Node3 -->
<g id="Node000003" class="node">
<title>Node3</title>
<g id="a_Node000003"><a xlink:title=" ">
<polygon fill="white" stroke="#666666" points="435,-21 220,-21 220,0 435,0 435,-21"/>
<text text-anchor="middle" x="327.5" y="-7.4" font-family="Helvetica,sans-Serif" font-size="12.00">std::unique_ptr&lt; JKQTPColumn &gt;</text>
</a>
</g>
</g>
<!-- Node3&#45;&gt;Node2 -->
<g id="edge2_Node000002_Node000003" class="edge">
<title>Node3&#45;&gt;Node2</title>
<g id="a_edge2_Node000002_Node000003"><a xlink:title=" ">
<path fill="none" stroke="#9a32cd" stroke-dasharray="5,2" d="M329.24,-31.38C330.25,-55.44 328.32,-95.98 307.5,-122 300.99,-130.13 291.64,-135.9 282.05,-139.97"/>
<polygon fill="#9a32cd" stroke="#9a32cd" points="332.73,-31.06 328.6,-21.3 325.74,-31.51 332.73,-31.06"/>
</a>
</g>
<text text-anchor="middle" x="380.5" y="-77.4" font-family="Helvetica,sans-Serif" font-size="12.00" fill="grey"> m_invalidColumn</text>
</g>
<!-- Node4&#45;&gt;Node3 -->
<g id="edge3_Node000003_Node000004" class="edge">
<title>Node4&#45;&gt;Node3</title>
<g id="a_edge3_Node000003_Node000004"><a xlink:title=" ">
<path fill="none" stroke="#9a32cd" stroke-dasharray="5,2" d="M261.99,-63.1C270.92,-55.66 281.68,-46.81 291.5,-39 299.13,-32.93 307.82,-26.29 314.75,-21.05"/>
<polygon fill="#9a32cd" stroke="#9a32cd" points="259.51,-60.62 254.08,-69.72 264,-65.99 259.51,-60.62"/>
</a>
</g>
<text text-anchor="middle" x="302.5" y="-42.4" font-family="Helvetica,sans-Serif" font-size="12.00" fill="grey"> ptr</text>
</g>
<!-- Node5 -->
<g id="Node000005" class="node">
<title>Node5</title>
<g id="a_Node000005"><a xlink:title=" ">
<polygon fill="white" stroke="#666666" points="591.5,-91 451.5,-91 451.5,-70 591.5,-70 591.5,-91"/>
<text text-anchor="middle" x="521.5" y="-77.4" font-family="Helvetica,sans-Serif" font-size="12.00">std::unique_ptr&lt; T &gt;</text>
</a>
</g>
</g>
<!-- Node5&#45;&gt;Node3 -->
<g id="edge5_Node000003_Node000005" class="edge">
<title>Node5&#45;&gt;Node3</title>
<g id="a_edge5_Node000003_Node000005"><a xlink:title=" ">
<path fill="none" stroke="orange" stroke-dasharray="5,2" d="M484.47,-66.52C446.59,-53.24 388.62,-32.92 354.74,-21.05"/>
<polygon fill="orange" stroke="orange" points="483.52,-69.9 494.12,-69.9 485.84,-63.29 483.52,-69.9"/>
</a>
</g>
<text text-anchor="middle" x="499" y="-42.4" font-family="Helvetica,sans-Serif" font-size="12.00" fill="grey"> &lt; JKQTPColumn &gt;</text>
</g>
<!-- Node6 -->
<g id="Node000006" class="node">
<title>Node6</title>
<g id="a_Node000006"><a xlink:title=" ">
<polygon fill="white" stroke="#666666" points="536,-161 507,-161 507,-140 536,-140 536,-161"/>
<text text-anchor="middle" x="521.5" y="-147.4" font-family="Helvetica,sans-Serif" font-size="12.00">T</text>
</a>
</g>
</g>
<!-- Node6&#45;&gt;Node5 -->
<g id="edge6_Node000005_Node000006" class="edge">
<title>Node6&#45;&gt;Node5</title>
<g id="a_edge6_Node000005_Node000006"><a xlink:title=" ">
<path fill="none" stroke="#9a32cd" stroke-dasharray="5,2" d="M521.5,-129.7C521.5,-117.05 521.5,-101.22 521.5,-91.22"/>
<polygon fill="#9a32cd" stroke="#9a32cd" points="518,-129.76 521.5,-139.76 525,-129.76 518,-129.76"/>
</a>
</g>
<text text-anchor="middle" x="532.5" y="-112.4" font-family="Helvetica,sans-Serif" font-size="12.00" fill="grey"> ptr</text>
</g>
</g>
</svg>
