<?xml version="1.0" encoding="UTF-8" standalone="no"?>
<!DOCTYPE svg PUBLIC "-//W3C//DTD SVG 1.1//EN"
 "http://www.w3.org/Graphics/SVG/1.1/DTD/svg11.dtd">
<!-- Generated by graphviz version 2.43.0 (0)
 -->
<!-- Title: JKQTMathTextDualChildNode Pages: 1 -->
<svg width="487pt" height="162pt"
 viewBox="0.00 0.00 487.00 162.00" xmlns="http://www.w3.org/2000/svg" xmlns:xlink="http://www.w3.org/1999/xlink">
<g id="graph0" class="graph" transform="scale(1 1) rotate(0) translate(4 158)">
<title>JKQTMathTextDualChildNode</title>
<!-- Node1 -->
<g id="node1" class="node">
<title>Node1</title>
<g id="a_node1"><a xlink:title="subclass representing a node in the syntax tree, that has two children">
<polygon fill="#999999" stroke="#666666" points="187,-21 0,-21 0,0 187,0 187,-21"/>
<text text-anchor="middle" x="93.5" y="-7.4" font-family="Helvetica,sans-Serif" font-size="12.00">JKQTMathTextDualChildNode</text>
</a>
</g>
</g>
<!-- Node2 -->
<g id="node2" class="node">
<title>Node2</title>
<g id="a_node2"><a xlink:href="class_j_k_q_t_math_text_multi_child_node.html" target="_top" xlink:title="subclass representing a node in the syntax tree, that has two children">
<polygon fill="white" stroke="#666666" points="295.5,-81.5 107.5,-81.5 107.5,-60.5 295.5,-60.5 295.5,-81.5"/>
<text text-anchor="middle" x="201.5" y="-67.9" font-family="Helvetica,sans-Serif" font-size="12.00">JKQTMathTextMultiChildNode</text>
</a>
</g>
</g>
<!-- Node2&#45;&gt;Node1 -->
<g id="edge1" class="edge">
<title>Node2&#45;&gt;Node1</title>
<path fill="none" stroke="#63b8ff" d="M174.83,-55.56C155.06,-44.84 128.64,-30.54 111.36,-21.17"/>
<polygon fill="#63b8ff" stroke="#63b8ff" points="173.21,-58.65 183.67,-60.34 176.54,-52.5 173.21,-58.65"/>
</g>
<!-- Node3 -->
<g id="node3" class="node">
<title>Node3</title>
<g id="a_node3"><a xlink:href="class_j_k_q_t_math_text_node.html" target="_top" xlink:title="subclass representing one node in the syntax tree">
<polygon fill="white" stroke="#666666" points="284,-154 153,-154 153,-133 284,-133 284,-154"/>
<text text-anchor="middle" x="218.5" y="-140.4" font-family="Helvetica,sans-Serif" font-size="12.00">JKQTMathTextNode</text>
</a>
</g>
</g>
<!-- Node3&#45;&gt;Node1 -->
<g id="edge7" class="edge">
<title>Node3&#45;&gt;Node1</title>
<path fill="none" stroke="#9a32cd" stroke-dasharray="5,2" d="M142.63,-133.82C111.21,-126.06 77.69,-111.45 58.5,-84 44.08,-63.38 67.24,-35.91 82.27,-21.42"/>
<polygon fill="#9a32cd" stroke="#9a32cd" points="142.21,-137.32 152.74,-136.11 143.76,-130.49 142.21,-137.32"/>
<text text-anchor="middle" x="78.5" y="-74.4" font-family="Helvetica,sans-Serif" font-size="12.00"> child1</text>
<text text-anchor="middle" x="78.5" y="-61.4" font-family="Helvetica,sans-Serif" font-size="12.00">child2</text>
</g>
<!-- Node3&#45;&gt;Node2 -->
<g id="edge2" class="edge">
<title>Node3&#45;&gt;Node2</title>
<path fill="none" stroke="#63b8ff" d="M213.77,-122.88C210.55,-109.51 206.42,-92.39 203.87,-81.81"/>
<polygon fill="#63b8ff" stroke="#63b8ff" points="210.46,-124.09 216.21,-132.99 217.27,-122.45 210.46,-124.09"/>
</g>
<!-- Node3&#45;&gt;Node3 -->
<g id="edge6" class="edge">
<title>Node3&#45;&gt;Node3</title>
<path fill="none" stroke="#9a32cd" stroke-dasharray="5,2" d="M294.52,-147.94C299.19,-146.89 302,-145.41 302,-143.5 302,-140.45 294.81,-138.49 284.31,-137.63"/>
<polygon fill="#9a32cd" stroke="#9a32cd" points="293.73,-144.52 284.31,-149.37 294.7,-151.45 293.73,-144.52"/>
<text text-anchor="middle" x="339.5" y="-140.4" font-family="Helvetica,sans-Serif" font-size="12.00"> parentNode</text>
</g>
<!-- Node4 -->
<g id="node4" class="node">
<title>Node4</title>
<g id="a_node4"><a xlink:href="class_j_k_q_t_math_text.html" target="_top" xlink:title="this class parses a mathematical markup string and can then draw the contained text/equation onto a Q...">
<polygon fill="white" stroke="#666666" points="413,-81.5 314,-81.5 314,-60.5 413,-60.5 413,-81.5"/>
<text text-anchor="middle" x="363.5" y="-67.9" font-family="Helvetica,sans-Serif" font-size="12.00">JKQTMathText</text>
</a>
</g>
</g>
<!-- Node3&#45;&gt;Node4 -->
<g id="edge5" class="edge">
<title>Node3&#45;&gt;Node4</title>
<path fill="none" stroke="#9a32cd" stroke-dasharray="5,2" d="M220.65,-122.82C222.42,-115.35 225.65,-107.36 231.5,-102 234.76,-99.01 279.81,-89.17 316.38,-81.56"/>
<polygon fill="#9a32cd" stroke="#9a32cd" points="217.19,-122.26 218.98,-132.7 224.09,-123.43 217.19,-122.26"/>
<text text-anchor="middle" x="270" y="-105.4" font-family="Helvetica,sans-Serif" font-size="12.00"> parsedNode</text>
</g>
<!-- Node4&#45;&gt;Node3 -->
<g id="edge3" class="edge">
<title>Node4&#45;&gt;Node3</title>
<path fill="none" stroke="#9a32cd" stroke-dasharray="5,2" d="M345.5,-88.55C333.84,-99 319.55,-111.22 312.5,-115 297.97,-122.8 280.95,-128.64 265.42,-132.88"/>
<polygon fill="#9a32cd" stroke="#9a32cd" points="347.98,-91.03 353.04,-81.72 343.28,-85.84 347.98,-91.03"/>
<text text-anchor="middle" x="378" y="-105.4" font-family="Helvetica,sans-Serif" font-size="12.00"> parentMathText</text>
</g>
<!-- Node5 -->
<g id="node5" class="node">
<title>Node5</title>
<g id="a_node5"><a xlink:title=" ">
<polygon fill="white" stroke="#666666" points="479,-154 414,-154 414,-133 479,-133 479,-154"/>
<text text-anchor="middle" x="446.5" y="-140.4" font-family="Helvetica,sans-Serif" font-size="12.00">QObject</text>
</a>
</g>
</g>
<!-- Node5&#45;&gt;Node4 -->
<g id="edge4" class="edge">
<title>Node5&#45;&gt;Node4</title>
<path fill="none" stroke="#63b8ff" d="M443.16,-122.8C441.1,-115.55 437.8,-107.72 432.5,-102 423.89,-92.7 411.9,-86.14 400.33,-81.58"/>
<polygon fill="#63b8ff" stroke="#63b8ff" points="439.77,-123.69 445.37,-132.69 446.61,-122.17 439.77,-123.69"/>
</g>
</g>
</svg>
