<?xml version="1.0" encoding="UTF-8" standalone="no"?>
<!DOCTYPE svg PUBLIC "-//W3C//DTD SVG 1.1//EN"
 "http://www.w3.org/Graphics/SVG/1.1/DTD/svg11.dtd">
<!-- Generated by graphviz version 2.43.0 (0)
 -->
<!-- Title: JKQTMathTextVerbatimNode Pages: 1 -->
<svg width="401pt" height="173pt"
 viewBox="0.00 0.00 401.00 173.00" xmlns="http://www.w3.org/2000/svg" xmlns:xlink="http://www.w3.org/1999/xlink">
<g id="graph0" class="graph" transform="scale(1 1) rotate(0) translate(4 169)">
<title>JKQTMathTextVerbatimNode</title>
<!-- Node1 -->
<g id="node1" class="node">
<title>Node1</title>
<g id="a_node1"><a xlink:title="subclass representing a verbatim (plain&#45;text) node with support for line&#45;breaks in the syntax tree">
<polygon fill="#bfbfbf" stroke="black" points="0,-0.5 0,-21.5 185,-21.5 185,-0.5 0,-0.5"/>
<text text-anchor="middle" x="92.5" y="-7.9" font-family="Helvetica,sans-Serif" font-size="12.00">JKQTMathTextVerbatimNode</text>
</a>
</g>
</g>
<!-- Node2 -->
<g id="node2" class="node">
<title>Node2</title>
<g id="a_node2"><a xlink:href="class_j_k_q_t_math_text_text_base_node.html" target="_top" xlink:title="base class for nodes representing text in the syntax tree">
<polygon fill="none" stroke="black" points="0.5,-59.5 0.5,-80.5 184.5,-80.5 184.5,-59.5 0.5,-59.5"/>
<text text-anchor="middle" x="92.5" y="-66.9" font-family="Helvetica,sans-Serif" font-size="12.00">JKQTMathTextTextBaseNode</text>
</a>
</g>
</g>
<!-- Node2&#45;&gt;Node1 -->
<g id="edge1" class="edge">
<title>Node2&#45;&gt;Node1</title>
<path fill="none" stroke="midnightblue" d="M92.5,-49.23C92.5,-39.85 92.5,-29.07 92.5,-21.53"/>
<polygon fill="midnightblue" stroke="midnightblue" points="89,-49.33 92.5,-59.33 96,-49.33 89,-49.33"/>
</g>
<!-- Node3 -->
<g id="node3" class="node">
<title>Node3</title>
<g id="a_node3"><a xlink:href="class_j_k_q_t_math_text_node.html" target="_top" xlink:title="subclass representing one node in the syntax tree">
<polygon fill="none" stroke="black" points="72,-143.5 72,-164.5 203,-164.5 203,-143.5 72,-143.5"/>
<text text-anchor="middle" x="137.5" y="-150.9" font-family="Helvetica,sans-Serif" font-size="12.00">JKQTMathTextNode</text>
</a>
</g>
</g>
<!-- Node3&#45;&gt;Node2 -->
<g id="edge2" class="edge">
<title>Node3&#45;&gt;Node2</title>
<path fill="none" stroke="midnightblue" d="M122.43,-135.25C119.96,-131.95 117.54,-128.45 115.5,-125 106.78,-110.27 99.6,-91.62 95.69,-80.53"/>
<polygon fill="midnightblue" stroke="midnightblue" points="119.92,-137.71 128.88,-143.35 125.39,-133.35 119.92,-137.71"/>
</g>
<!-- Node3&#45;&gt;Node3 -->
<g id="edge6" class="edge">
<title>Node3&#45;&gt;Node3</title>
<path fill="none" stroke="#9a32cd" stroke-dasharray="5,2" d="M213.17,-159.58C218.05,-158.28 221,-156.42 221,-154 221,-150.23 213.81,-147.81 203.31,-146.75"/>
<polygon fill="#9a32cd" stroke="#9a32cd" points="212.58,-156.13 203.31,-161.25 213.75,-163.03 212.58,-156.13"/>
<text text-anchor="middle" x="258.5" y="-150.9" font-family="Helvetica,sans-Serif" font-size="12.00"> parentNode</text>
</g>
<!-- Node4 -->
<g id="node4" class="node">
<title>Node4</title>
<g id="a_node4"><a xlink:href="class_j_k_q_t_math_text.html" target="_top" xlink:title="this class parses a LaTeX string and can then draw the contained text/equation onto a QPainter">
<polygon fill="none" stroke="black" points="203,-59.5 203,-80.5 302,-80.5 302,-59.5 203,-59.5"/>
<text text-anchor="middle" x="252.5" y="-66.9" font-family="Helvetica,sans-Serif" font-size="12.00">JKQTMathText</text>
</a>
</g>
</g>
<!-- Node3&#45;&gt;Node4 -->
<g id="edge5" class="edge">
<title>Node3&#45;&gt;Node4</title>
<path fill="none" stroke="#9a32cd" stroke-dasharray="5,2" d="M130.56,-133.68C127.83,-122.42 126.91,-108.6 134.5,-99 138.99,-93.32 172.7,-85.67 202.94,-79.79"/>
<polygon fill="#9a32cd" stroke="#9a32cd" points="127.27,-134.9 133.51,-143.47 133.97,-132.88 127.27,-134.9"/>
<text text-anchor="middle" x="178.5" y="-115.4" font-family="Helvetica,sans-Serif" font-size="12.00"> parsedNode</text>
<text text-anchor="middle" x="178.5" y="-102.4" font-family="Helvetica,sans-Serif" font-size="12.00">unparsedNode</text>
</g>
<!-- Node4&#45;&gt;Node3 -->
<g id="edge3" class="edge">
<title>Node4&#45;&gt;Node3</title>
<path fill="none" stroke="#9a32cd" stroke-dasharray="5,2" d="M247.39,-90.49C243.44,-102 236.86,-116.03 226.5,-125 216.82,-133.37 204.64,-139.25 192.43,-143.36"/>
<polygon fill="#9a32cd" stroke="#9a32cd" points="250.76,-91.43 250.31,-80.84 244.06,-89.4 250.76,-91.43"/>
<text text-anchor="middle" x="293" y="-108.9" font-family="Helvetica,sans-Serif" font-size="12.00"> parentMathText</text>
</g>
<!-- Node5 -->
<g id="node5" class="node">
<title>Node5</title>
<g id="a_node5"><a xlink:title=" ">
<polygon fill="none" stroke="black" points="328,-143.5 328,-164.5 393,-164.5 393,-143.5 328,-143.5"/>
<text text-anchor="middle" x="360.5" y="-150.9" font-family="Helvetica,sans-Serif" font-size="12.00">QObject</text>
</a>
</g>
</g>
<!-- Node5&#45;&gt;Node4 -->
<g id="edge4" class="edge">
<title>Node5&#45;&gt;Node4</title>
<path fill="none" stroke="midnightblue" d="M359.99,-132.95C358.66,-121.63 355.17,-107.99 346.5,-99 334.91,-86.99 318.42,-80.07 302.48,-76.11"/>
<polygon fill="midnightblue" stroke="midnightblue" points="356.52,-133.51 360.7,-143.25 363.5,-133.03 356.52,-133.51"/>
</g>
</g>
</svg>
