<?xml version="1.0" encoding="UTF-8" standalone="no"?>
<!DOCTYPE svg PUBLIC "-//W3C//DTD SVG 1.1//EN"
 "http://www.w3.org/Graphics/SVG/1.1/DTD/svg11.dtd">
<!-- Generated by graphviz version 2.43.0 (0)
 -->
<!-- Title: JKQTPXXYGraph Pages: 1 -->
<svg width="3335pt" height="706pt"
 viewBox="0.00 0.00 3335.00 705.78" xmlns="http://www.w3.org/2000/svg" xmlns:xlink="http://www.w3.org/1999/xlink">
<g id="graph0" class="graph" transform="scale(1 1) rotate(0) translate(4 701.78)">
<title>JKQTPXXYGraph</title>
<!-- Node1 -->
<g id="node1" class="node">
<title>Node1</title>
<g id="a_node1"><a xlink:title="This virtual JKQTPGraph descendent extends JKQTPXYGraph to two columns for x&#45;values (e....">
<polygon fill="#999999" stroke="#666666" points="3327,-631 3214,-631 3214,-610 3327,-610 3327,-631"/>
<text text-anchor="middle" x="3270.5" y="-617.4" font-family="Helvetica,sans-Serif" font-size="12.00">JKQTPXXYGraph</text>
</a>
</g>
</g>
<!-- Node2 -->
<g id="node2" class="node">
<title>Node2</title>
<g id="a_node2"><a xlink:href="class_j_k_q_t_p_x_y_graph.html" target="_top" xlink:title="This virtual JKQTPGraph descendent may be used as base for all graphs that use at least two columns t...">
<polygon fill="white" stroke="#666666" points="3161,-631 3056,-631 3056,-610 3161,-610 3161,-631"/>
<text text-anchor="middle" x="3108.5" y="-617.4" font-family="Helvetica,sans-Serif" font-size="12.00">JKQTPXYGraph</text>
</a>
</g>
</g>
<!-- Node2&#45;&gt;Node1 -->
<g id="edge1" class="edge">
<title>Node2&#45;&gt;Node1</title>
<path fill="none" stroke="#63b8ff" d="M3171.1,-620.5C3185.21,-620.5 3200.11,-620.5 3213.94,-620.5"/>
<polygon fill="#63b8ff" stroke="#63b8ff" points="3171.01,-617 3161.01,-620.5 3171.01,-624 3171.01,-617"/>
</g>
<!-- Node3 -->
<g id="node3" class="node">
<title>Node3</title>
<g id="a_node3"><a xlink:href="class_j_k_q_t_p_graph.html" target="_top" xlink:title="this virtual base class of the (data&#45;column based) graphs, which are part of a JKQTPlotter plot and w...">
<polygon fill="white" stroke="#666666" points="2964,-631 2875,-631 2875,-610 2964,-610 2964,-631"/>
<text text-anchor="middle" x="2919.5" y="-617.4" font-family="Helvetica,sans-Serif" font-size="12.00">JKQTPGraph</text>
</a>
</g>
</g>
<!-- Node3&#45;&gt;Node2 -->
<g id="edge2" class="edge">
<title>Node3&#45;&gt;Node2</title>
<path fill="none" stroke="#63b8ff" d="M2974.63,-620.5C3000.25,-620.5 3030.69,-620.5 3055.97,-620.5"/>
<polygon fill="#63b8ff" stroke="#63b8ff" points="2974.34,-617 2964.34,-620.5 2974.34,-624 2974.34,-617"/>
</g>
<!-- Node4 -->
<g id="node4" class="node">
<title>Node4</title>
<g id="a_node4"><a xlink:href="class_j_k_q_t_p_plot_element.html" target="_top" xlink:title="this virtual base class of every element, which is part of a JKQTPlotter plot and may appear in its k...">
<polygon fill="white" stroke="#666666" points="2720,-631 2595,-631 2595,-610 2720,-610 2720,-631"/>
<text text-anchor="middle" x="2657.5" y="-617.4" font-family="Helvetica,sans-Serif" font-size="12.00">JKQTPPlotElement</text>
</a>
</g>
</g>
<!-- Node4&#45;&gt;Node3 -->
<g id="edge3" class="edge">
<title>Node4&#45;&gt;Node3</title>
<path fill="none" stroke="#63b8ff" d="M2730.4,-620.5C2776.71,-620.5 2835.4,-620.5 2874.81,-620.5"/>
<polygon fill="#63b8ff" stroke="#63b8ff" points="2730.12,-617 2720.12,-620.5 2730.12,-624 2730.12,-617"/>
</g>
<!-- Node5 -->
<g id="node5" class="node">
<title>Node5</title>
<g id="a_node5"><a xlink:title=" ">
<polygon fill="white" stroke="#666666" points="1507.5,-654 1442.5,-654 1442.5,-633 1507.5,-633 1507.5,-654"/>
<text text-anchor="middle" x="1475" y="-640.4" font-family="Helvetica,sans-Serif" font-size="12.00">QObject</text>
</a>
</g>
</g>
<!-- Node5&#45;&gt;Node4 -->
<g id="edge4" class="edge">
<title>Node5&#45;&gt;Node4</title>
<path fill="none" stroke="#63b8ff" d="M1517.89,-651.26C1539.37,-654.86 1565.99,-658.72 1590,-660.5 2007.52,-691.46 2118.38,-725.31 2532,-660.5 2567.44,-654.95 2606.56,-641.01 2631.31,-631.16"/>
<polygon fill="#63b8ff" stroke="#63b8ff" points="1518.25,-647.77 1507.8,-649.53 1517.06,-654.67 1518.25,-647.77"/>
</g>
<!-- Node6 -->
<g id="node6" class="node">
<title>Node6</title>
<g id="a_node6"><a xlink:href="class_j_k_q_t_base_plotter.html" target="_top" xlink:title="base class for 2D plotter classes (used by the plotter widget JKQTPlotter)">
<polygon fill="white" stroke="#666666" points="2386.5,-409 2272.5,-409 2272.5,-388 2386.5,-388 2386.5,-409"/>
<text text-anchor="middle" x="2329.5" y="-395.4" font-family="Helvetica,sans-Serif" font-size="12.00">JKQTBasePlotter</text>
</a>
</g>
</g>
<!-- Node5&#45;&gt;Node6 -->
<g id="edge6" class="edge">
<title>Node5&#45;&gt;Node6</title>
<path fill="none" stroke="#63b8ff" d="M1509.79,-628.74C1532.38,-619 1562.82,-606.13 1590,-595.5 1687.28,-557.44 1710.75,-544.85 1811,-515.5 1899.51,-489.58 2166.2,-432.62 2278.15,-409.04"/>
<polygon fill="#63b8ff" stroke="#63b8ff" points="1508.1,-625.65 1500.31,-632.84 1510.88,-632.08 1508.1,-625.65"/>
</g>
<!-- Node19 -->
<g id="node19" class="node">
<title>Node19</title>
<g id="a_node19"><a xlink:href="class_j_k_q_t_math_text.html" target="_top" xlink:title="this class parses a mathematical markup string and can then draw the contained text/equation onto a Q...">
<polygon fill="white" stroke="#666666" points="1987.5,-590 1888.5,-590 1888.5,-569 1987.5,-569 1987.5,-590"/>
<text text-anchor="middle" x="1938" y="-576.4" font-family="Helvetica,sans-Serif" font-size="12.00">JKQTMathText</text>
</a>
</g>
</g>
<!-- Node5&#45;&gt;Node19 -->
<g id="edge25" class="edge">
<title>Node5&#45;&gt;Node19</title>
<path fill="none" stroke="#63b8ff" d="M1517.79,-637.7C1603.19,-625.84 1797.32,-598.89 1888.27,-586.26"/>
<polygon fill="#63b8ff" stroke="#63b8ff" points="1517.11,-634.26 1507.69,-639.1 1518.07,-641.19 1517.11,-634.26"/>
</g>
<!-- Node26 -->
<g id="node26" class="node">
<title>Node26</title>
<g id="a_node26"><a xlink:href="class_j_k_q_t_p_coordinate_axis.html" target="_top" xlink:title="this virtual class is the base for any type of coordinate axis, to be drawn by JKQTBasePlotter.">
<polygon fill="white" stroke="#666666" points="2728.5,-529 2586.5,-529 2586.5,-508 2728.5,-508 2728.5,-529"/>
<text text-anchor="middle" x="2657.5" y="-515.4" font-family="Helvetica,sans-Serif" font-size="12.00">JKQTPCoordinateAxis</text>
</a>
</g>
</g>
<!-- Node5&#45;&gt;Node26 -->
<g id="edge36" class="edge">
<title>Node5&#45;&gt;Node26</title>
<path fill="none" stroke="#63b8ff" d="M1518.2,-644.91C1675.74,-649.86 2229.22,-664.16 2401,-627.5 2495.09,-607.42 2597.7,-552.44 2638.41,-529.15"/>
<polygon fill="#63b8ff" stroke="#63b8ff" points="1518.08,-641.41 1507.97,-644.59 1517.86,-648.4 1518.08,-641.41"/>
</g>
<!-- Node6&#45;&gt;Node4 -->
<g id="edge5" class="edge">
<title>Node6&#45;&gt;Node4</title>
<path fill="none" stroke="#9a32cd" stroke-dasharray="5,2" d="M2345.89,-416.74C2362.6,-435.85 2390.73,-466.04 2419,-487.5 2491.08,-542.22 2588.22,-589.5 2632.59,-609.85"/>
<polygon fill="#9a32cd" stroke="#9a32cd" points="2348.43,-414.33 2339.25,-409.04 2343.13,-418.9 2348.43,-414.33"/>
<text text-anchor="middle" x="2475.5" y="-561.9" font-family="Helvetica,sans-Serif" font-size="12.00"> parent</text>
</g>
<!-- Node6&#45;&gt;Node6 -->
<g id="edge48" class="edge">
<title>Node6&#45;&gt;Node6</title>
<path fill="none" stroke="#9a32cd" stroke-dasharray="5,2" d="M2302.59,-418.57C2304.67,-423.41 2313.64,-427 2329.5,-427 2354.88,-427 2362.61,-417.81 2352.7,-409.02"/>
<polygon fill="#9a32cd" stroke="#9a32cd" points="2305.95,-419.61 2306.3,-409.02 2299.42,-417.08 2305.95,-419.61"/>
<text text-anchor="middle" x="2329.5" y="-443.4" font-family="Helvetica,sans-Serif" font-size="12.00"> masterPlotterX</text>
<text text-anchor="middle" x="2329.5" y="-430.4" font-family="Helvetica,sans-Serif" font-size="12.00">masterPlotterY</text>
</g>
<!-- Node22 -->
<g id="node22" class="node">
<title>Node22</title>
<g id="a_node22"><a xlink:href="class_j_k_q_t_p_graphs_model.html" target="_top" xlink:title="data model with all plots ina JKQTBasePlotter (+ allows to switch them visible/invisible)">
<polygon fill="white" stroke="#666666" points="2723,-345 2592,-345 2592,-324 2723,-324 2723,-345"/>
<text text-anchor="middle" x="2657.5" y="-331.4" font-family="Helvetica,sans-Serif" font-size="12.00">JKQTPGraphsModel</text>
</a>
</g>
</g>
<!-- Node6&#45;&gt;Node22 -->
<g id="edge32" class="edge">
<title>Node6&#45;&gt;Node22</title>
<path fill="none" stroke="#9a32cd" stroke-dasharray="5,2" d="M2347.67,-380.6C2364.21,-364.75 2390.82,-342.74 2419,-333.5 2476.99,-314.49 2547.31,-317.8 2596.32,-323.97"/>
<polygon fill="#9a32cd" stroke="#9a32cd" points="2345.04,-378.28 2340.39,-387.8 2349.96,-383.25 2345.04,-378.28"/>
<text text-anchor="middle" x="2475.5" y="-336.9" font-family="Helvetica,sans-Serif" font-size="12.00"> m_plotter</text>
</g>
<!-- Node6&#45;&gt;Node26 -->
<g id="edge37" class="edge">
<title>Node6&#45;&gt;Node26</title>
<path fill="none" stroke="#9a32cd" stroke-dasharray="5,2" d="M2353.03,-414.93C2370.29,-426.77 2395.11,-442.23 2419,-451.5 2466.78,-470.04 2482.61,-460.82 2532,-474.5 2566.46,-484.05 2605.16,-498.3 2630.13,-507.97"/>
<polygon fill="#9a32cd" stroke="#9a32cd" points="2354.94,-412 2344.74,-409.12 2350.92,-417.73 2354.94,-412"/>
<text text-anchor="middle" x="2475.5" y="-477.9" font-family="Helvetica,sans-Serif" font-size="12.00"> parent</text>
</g>
<!-- Node7 -->
<g id="node7" class="node">
<title>Node7</title>
<g id="a_node7"><a xlink:href="class_j_k_q_t_base_plotter_style.html" target="_top" xlink:title="Support Class for JKQTBasePlotter, which summarizes all properties that define the visual styling of ...">
<polygon fill="white" stroke="#666666" points="2009.5,-411 1866.5,-411 1866.5,-390 2009.5,-390 2009.5,-411"/>
<text text-anchor="middle" x="1938" y="-397.4" font-family="Helvetica,sans-Serif" font-size="12.00">JKQTBasePlotterStyle</text>
</a>
</g>
</g>
<!-- Node7&#45;&gt;Node6 -->
<g id="edge7" class="edge">
<title>Node7&#45;&gt;Node6</title>
<path fill="none" stroke="#9a32cd" stroke-dasharray="5,2" d="M2019.95,-400.08C2095.46,-399.7 2206.13,-399.13 2272.37,-398.79"/>
<polygon fill="#9a32cd" stroke="#9a32cd" points="2019.52,-396.59 2009.54,-400.14 2019.55,-403.59 2019.52,-396.59"/>
<text text-anchor="middle" x="2161.5" y="-402.9" font-family="Helvetica,sans-Serif" font-size="12.00"> plotterStyle</text>
</g>
<!-- Node8 -->
<g id="node8" class="node">
<title>Node8</title>
<g id="a_node8"><a xlink:href="class_j_k_q_t_p_key_style.html" target="_top" xlink:title="Support Class for JKQTBasePlotter, which summarizes all properties that define the visual styling of ...">
<polygon fill="white" stroke="#666666" points="1527,-372 1423,-372 1423,-351 1527,-351 1527,-372"/>
<text text-anchor="middle" x="1475" y="-358.4" font-family="Helvetica,sans-Serif" font-size="12.00">JKQTPKeyStyle</text>
</a>
</g>
</g>
<!-- Node8&#45;&gt;Node7 -->
<g id="edge8" class="edge">
<title>Node8&#45;&gt;Node7</title>
<path fill="none" stroke="#9a32cd" stroke-dasharray="5,2" d="M1537.42,-364.88C1601.34,-368.61 1704.29,-375.19 1793,-383.5 1816.94,-385.74 1843.05,-388.68 1866.39,-391.48"/>
<polygon fill="#9a32cd" stroke="#9a32cd" points="1537.31,-361.37 1527.12,-364.29 1536.9,-368.36 1537.31,-361.37"/>
<text text-anchor="middle" x="1691.5" y="-386.9" font-family="Helvetica,sans-Serif" font-size="12.00"> keyStyle</text>
</g>
<!-- Node9 -->
<g id="node9" class="node">
<title>Node9</title>
<g id="a_node9"><a xlink:href="class_j_k_q_t_p_coordinate_axis_style.html" target="_top" xlink:title="Support Class for JKQTPCoordinateAxis, which summarizes all properties that define the visual styling...">
<polygon fill="white" stroke="#666666" points="1234,-559 1063,-559 1063,-538 1234,-538 1234,-559"/>
<text text-anchor="middle" x="1148.5" y="-545.4" font-family="Helvetica,sans-Serif" font-size="12.00">JKQTPCoordinateAxisStyle</text>
</a>
</g>
</g>
<!-- Node9&#45;&gt;Node7 -->
<g id="edge9" class="edge">
<title>Node9&#45;&gt;Node7</title>
<path fill="none" stroke="#9a32cd" stroke-dasharray="5,2" d="M1244.28,-547.8C1372.13,-544.3 1605.43,-528.79 1793,-465.5 1838.74,-450.07 1889.65,-425.13 1917,-411.05"/>
<polygon fill="#9a32cd" stroke="#9a32cd" points="1244.04,-544.31 1234.13,-548.06 1244.21,-551.31 1244.04,-544.31"/>
<text text-anchor="middle" x="1475" y="-555.9" font-family="Helvetica,sans-Serif" font-size="12.00"> xAxisStyle</text>
<text text-anchor="middle" x="1475" y="-542.9" font-family="Helvetica,sans-Serif" font-size="12.00">yAxisStyle</text>
</g>
<!-- Node11 -->
<g id="node11" class="node">
<title>Node11</title>
<g id="a_node11"><a xlink:href="class_j_k_q_t_p_colorbar_coordinate_axis_style.html" target="_top" xlink:title="Support Class for JKQTPCoordinateAxis, which summarizes all properties that define the visual styling...">
<polygon fill="white" stroke="#666666" points="1572,-463.5 1378,-463.5 1378,-429.5 1572,-429.5 1572,-463.5"/>
<text text-anchor="start" x="1386" y="-449.9" font-family="Helvetica,sans-Serif" font-size="12.00">JKQTPColorbarCoordinateAxis</text>
<text text-anchor="middle" x="1475" y="-436.9" font-family="Helvetica,sans-Serif" font-size="12.00">Style</text>
</a>
</g>
</g>
<!-- Node9&#45;&gt;Node11 -->
<g id="edge12" class="edge">
<title>Node9&#45;&gt;Node11</title>
<path fill="none" stroke="#63b8ff" d="M1192.69,-534.92C1251.28,-516.51 1355.92,-483.62 1419.74,-463.56"/>
<polygon fill="#63b8ff" stroke="#63b8ff" points="1191.5,-531.63 1183,-537.97 1193.59,-538.31 1191.5,-531.63"/>
</g>
<!-- Node9&#45;&gt;Node26 -->
<g id="edge38" class="edge">
<title>Node9&#45;&gt;Node26</title>
<path fill="none" stroke="#9a32cd" stroke-dasharray="5,2" d="M1244.02,-559.15C1285.13,-563.27 1333.88,-567.48 1378,-569.5 1464.13,-573.45 1485.87,-573.46 1572,-569.5 1678.56,-564.61 1704.54,-554.17 1811,-547.5 2131,-527.46 2211.59,-535.27 2532,-523.5 2549.62,-522.85 2568.64,-522.11 2586.38,-521.4"/>
<polygon fill="#9a32cd" stroke="#9a32cd" points="1244.32,-555.66 1234.01,-558.13 1243.61,-562.62 1244.32,-555.66"/>
<text text-anchor="middle" x="1938" y="-550.9" font-family="Helvetica,sans-Serif" font-size="12.00"> axisStyle</text>
</g>
<!-- Node10 -->
<g id="node10" class="node">
<title>Node10</title>
<g id="a_node10"><a xlink:href="class_j_k_q_t_p_grid_style.html" target="_top" xlink:title="Support Class for JKQTPCoordinateAxis, and summarizes all properties that define the visual styling o...">
<polygon fill="white" stroke="#666666" points="805.5,-559 698.5,-559 698.5,-538 805.5,-538 805.5,-559"/>
<text text-anchor="middle" x="752" y="-545.4" font-family="Helvetica,sans-Serif" font-size="12.00">JKQTPGridStyle</text>
</a>
</g>
</g>
<!-- Node10&#45;&gt;Node9 -->
<g id="edge10" class="edge">
<title>Node10&#45;&gt;Node9</title>
<path fill="none" stroke="#9a32cd" stroke-dasharray="5,2" d="M816.18,-548.5C883.03,-548.5 988.9,-548.5 1062.92,-548.5"/>
<polygon fill="#9a32cd" stroke="#9a32cd" points="815.79,-545 805.79,-548.5 815.79,-552 815.79,-545"/>
<text text-anchor="middle" x="948.5" y="-564.9" font-family="Helvetica,sans-Serif" font-size="12.00"> majorGridStyle</text>
<text text-anchor="middle" x="948.5" y="-551.9" font-family="Helvetica,sans-Serif" font-size="12.00">minorGridStyle</text>
</g>
<!-- Node11&#45;&gt;Node7 -->
<g id="edge11" class="edge">
<title>Node11&#45;&gt;Node7</title>
<path fill="none" stroke="#9a32cd" stroke-dasharray="5,2" d="M1582.25,-437.48C1643.84,-432.08 1722.84,-424.85 1793,-417.5 1816.91,-415 1843.02,-411.99 1866.36,-409.21"/>
<polygon fill="#9a32cd" stroke="#9a32cd" points="1581.79,-434.01 1572.13,-438.37 1582.4,-440.98 1581.79,-434.01"/>
<text text-anchor="middle" x="1691.5" y="-451.9" font-family="Helvetica,sans-Serif" font-size="12.00"> rightColorbarAxisStyle</text>
<text text-anchor="middle" x="1691.5" y="-438.9" font-family="Helvetica,sans-Serif" font-size="12.00">topColorbarAxisStyle</text>
</g>
<!-- Node12 -->
<g id="node12" class="node">
<title>Node12</title>
<g id="a_node12"><a xlink:href="class_j_k_q_t_graphs_base_style.html" target="_top" xlink:title="Support Class for JKQTBasePlotter, which summarizes all properties that define the visual styling of ...">
<polygon fill="white" stroke="#666666" points="1548,-411 1402,-411 1402,-390 1548,-390 1548,-411"/>
<text text-anchor="middle" x="1475" y="-397.4" font-family="Helvetica,sans-Serif" font-size="12.00">JKQTGraphsBaseStyle</text>
</a>
</g>
</g>
<!-- Node12&#45;&gt;Node7 -->
<g id="edge13" class="edge">
<title>Node12&#45;&gt;Node7</title>
<path fill="none" stroke="#9a32cd" stroke-dasharray="5,2" d="M1558.2,-400.5C1645.85,-400.5 1783.23,-400.5 1866.23,-400.5"/>
<polygon fill="#9a32cd" stroke="#9a32cd" points="1558.03,-397 1548.03,-400.5 1558.03,-404 1558.03,-397"/>
<text text-anchor="middle" x="1691.5" y="-403.9" font-family="Helvetica,sans-Serif" font-size="12.00"> graphsStyle</text>
</g>
<!-- Node13 -->
<g id="node13" class="node">
<title>Node13</title>
<g id="a_node13"><a xlink:href="class_j_k_q_t_graphs_specific_style_properties.html" target="_top" xlink:title="Support Class for JKQTBasePlotter, which summarizes all properties that define the visual styling of ...">
<polygon fill="white" stroke="#666666" points="623,-369 399,-369 399,-348 623,-348 623,-369"/>
<text text-anchor="middle" x="511" y="-355.4" font-family="Helvetica,sans-Serif" font-size="12.00">JKQTGraphsSpecificStyleProperties</text>
</a>
</g>
</g>
<!-- Node13&#45;&gt;Node12 -->
<g id="edge14" class="edge">
<title>Node13&#45;&gt;Node12</title>
<path fill="none" stroke="#9a32cd" stroke-dasharray="5,2" d="M615.43,-347.03C757.87,-333.58 1022.02,-317.06 1244,-350.5 1304.45,-359.6 1318.23,-368.68 1378,-381.5 1391.29,-384.35 1405.65,-387.28 1419.11,-389.95"/>
<polygon fill="#9a32cd" stroke="#9a32cd" points="615.01,-343.55 605.39,-347.99 615.68,-350.52 615.01,-343.55"/>
<text text-anchor="middle" x="948.5" y="-360.9" font-family="Helvetica,sans-Serif" font-size="12.00"> boxplotStyle</text>
<text text-anchor="middle" x="948.5" y="-347.9" font-family="Helvetica,sans-Serif" font-size="12.00">defaultGraphStyle</text>
<text text-anchor="middle" x="948.5" y="-334.9" font-family="Helvetica,sans-Serif" font-size="12.00">filledStyle</text>
</g>
<!-- Node15 -->
<g id="node15" class="node">
<title>Node15</title>
<g id="a_node15"><a xlink:href="class_j_k_q_t_barchart_specific_style_properties.html" target="_top" xlink:title="Support Class for JKQTBasePlotter, which summarizes all properties that define the visual styling of ...">
<polygon fill="white" stroke="#666666" points="1035,-308.5 862,-308.5 862,-274.5 1035,-274.5 1035,-308.5"/>
<text text-anchor="start" x="870" y="-294.9" font-family="Helvetica,sans-Serif" font-size="12.00">JKQTBarchartSpecificStyle</text>
<text text-anchor="middle" x="948.5" y="-281.9" font-family="Helvetica,sans-Serif" font-size="12.00">Properties</text>
</a>
</g>
</g>
<!-- Node13&#45;&gt;Node15 -->
<g id="edge17" class="edge">
<title>Node13&#45;&gt;Node15</title>
<path fill="none" stroke="#63b8ff" d="M548.84,-344.37C574.33,-335.2 609.26,-323.81 641,-317.5 714.72,-302.85 800.03,-296.45 861.9,-293.66"/>
<polygon fill="#63b8ff" stroke="#63b8ff" points="547.4,-341.17 539.21,-347.89 549.81,-347.74 547.4,-341.17"/>
</g>
<!-- Node16 -->
<g id="node16" class="node">
<title>Node16</title>
<g id="a_node16"><a xlink:href="class_j_k_q_t_impulse_specific_style_properties.html" target="_top" xlink:title="Support Class for JKQTBasePlotter, which summarizes all properties that define the visual styling of ...">
<polygon fill="white" stroke="#666666" points="1032.5,-487.5 864.5,-487.5 864.5,-453.5 1032.5,-453.5 1032.5,-487.5"/>
<text text-anchor="start" x="872.5" y="-473.9" font-family="Helvetica,sans-Serif" font-size="12.00">JKQTImpulseSpecificStyle</text>
<text text-anchor="middle" x="948.5" y="-460.9" font-family="Helvetica,sans-Serif" font-size="12.00">Properties</text>
</a>
</g>
</g>
<!-- Node13&#45;&gt;Node16 -->
<g id="edge19" class="edge">
<title>Node13&#45;&gt;Node16</title>
<path fill="none" stroke="#63b8ff" d="M547.35,-372.75C577.05,-384.35 620.81,-400.52 660,-411.5 727.95,-430.54 806.53,-446.24 864.35,-456.65"/>
<polygon fill="#63b8ff" stroke="#63b8ff" points="548.43,-369.42 537.84,-369.01 545.86,-375.93 548.43,-369.42"/>
</g>
<!-- Node17 -->
<g id="node17" class="node">
<title>Node17</title>
<g id="a_node17"><a xlink:href="class_j_k_q_t_geometric_specific_style_properties.html" target="_top" xlink:title="Support Class for JKQTBasePlotter, which summarizes all properties that define the visual styling of ...">
<polygon fill="white" stroke="#666666" points="844,-402.5 660,-402.5 660,-368.5 844,-368.5 844,-402.5"/>
<text text-anchor="start" x="668" y="-388.9" font-family="Helvetica,sans-Serif" font-size="12.00">JKQTGeometricSpecificStyle</text>
<text text-anchor="middle" x="752" y="-375.9" font-family="Helvetica,sans-Serif" font-size="12.00">Properties</text>
</a>
</g>
</g>
<!-- Node13&#45;&gt;Node17 -->
<g id="edge21" class="edge">
<title>Node13&#45;&gt;Node17</title>
<path fill="none" stroke="#63b8ff" d="M615.27,-370.17C630.06,-371.84 645.19,-373.55 659.74,-375.19"/>
<polygon fill="#63b8ff" stroke="#63b8ff" points="615.42,-366.66 605.09,-369.02 614.63,-373.62 615.42,-366.66"/>
</g>
<!-- Node14 -->
<g id="node14" class="node">
<title>Node14</title>
<g id="a_node14"><a xlink:href="struct_j_k_q_t_p_color_derivation_mode.html" target="_top" xlink:title="Specifies how a fill&#45;color is derived from a given color.">
<polygon fill="white" stroke="#666666" points="179,-369 0,-369 0,-348 179,-348 179,-369"/>
<text text-anchor="middle" x="89.5" y="-355.4" font-family="Helvetica,sans-Serif" font-size="12.00">JKQTPColorDerivationMode</text>
</a>
</g>
</g>
<!-- Node14&#45;&gt;Node13 -->
<g id="edge15" class="edge">
<title>Node14&#45;&gt;Node13</title>
<path fill="none" stroke="#9a32cd" stroke-dasharray="5,2" d="M189.53,-358.5C252.41,-358.5 333.9,-358.5 398.97,-358.5"/>
<polygon fill="#9a32cd" stroke="#9a32cd" points="189.21,-355 179.21,-358.5 189.21,-362 189.21,-355"/>
<text text-anchor="middle" x="289" y="-413.9" font-family="Helvetica,sans-Serif" font-size="12.00"> errorColorDerivationMode</text>
<text text-anchor="middle" x="289" y="-400.9" font-family="Helvetica,sans-Serif" font-size="12.00">errorFillColorDerivationMode</text>
<text text-anchor="middle" x="289" y="-387.9" font-family="Helvetica,sans-Serif" font-size="12.00">fillColorDerivationMode</text>
<text text-anchor="middle" x="289" y="-374.9" font-family="Helvetica,sans-Serif" font-size="12.00">graphColorDerivationMode</text>
<text text-anchor="middle" x="289" y="-361.9" font-family="Helvetica,sans-Serif" font-size="12.00">symbolFillColorDerivationMode</text>
</g>
<!-- Node15&#45;&gt;Node12 -->
<g id="edge16" class="edge">
<title>Node15&#45;&gt;Node12</title>
<path fill="none" stroke="#9a32cd" stroke-dasharray="5,2" d="M1045.32,-284.85C1151.63,-279.61 1314.26,-278.65 1360,-317.5 1382.52,-336.63 1356.3,-361.45 1378,-381.5 1384.74,-387.73 1392.9,-392.17 1401.6,-395.31"/>
<polygon fill="#9a32cd" stroke="#9a32cd" points="1045.02,-281.36 1035.21,-285.37 1045.38,-288.35 1045.02,-281.36"/>
<text text-anchor="middle" x="1148.5" y="-288.9" font-family="Helvetica,sans-Serif" font-size="12.00"> barchartStyle</text>
</g>
<!-- Node16&#45;&gt;Node12 -->
<g id="edge18" class="edge">
<title>Node16&#45;&gt;Node12</title>
<path fill="none" stroke="#9a32cd" stroke-dasharray="5,2" d="M1042.93,-482.81C1129.64,-489.95 1260,-489.48 1360,-440.5 1370.74,-435.24 1367.63,-426.46 1378,-420.5 1385.38,-416.26 1393.54,-412.91 1401.89,-410.27"/>
<polygon fill="#9a32cd" stroke="#9a32cd" points="1043.11,-479.32 1032.84,-481.93 1042.5,-486.29 1043.11,-479.32"/>
<text text-anchor="middle" x="1148.5" y="-488.9" font-family="Helvetica,sans-Serif" font-size="12.00"> impulseStyle</text>
</g>
<!-- Node17&#45;&gt;Node12 -->
<g id="edge20" class="edge">
<title>Node17&#45;&gt;Node12</title>
<path fill="none" stroke="#9a32cd" stroke-dasharray="5,2" d="M854.33,-394.01C856.91,-394.18 859.47,-394.34 862,-394.5 1082.99,-408.25 1138.72,-416.25 1360,-408.5 1373.58,-408.02 1388.06,-407.23 1401.98,-406.32"/>
<polygon fill="#9a32cd" stroke="#9a32cd" points="854.49,-390.51 844.27,-393.31 854.01,-397.49 854.49,-390.51"/>
<text text-anchor="middle" x="1148.5" y="-414.9" font-family="Helvetica,sans-Serif" font-size="12.00"> geometricStyle</text>
</g>
<!-- Node18 -->
<g id="node18" class="node">
<title>Node18</title>
<g id="a_node18"><a xlink:href="class_j_k_q_t_annotations_specific_style_properties.html" target="_top" xlink:title="Support Class for JKQTBasePlotter, which summarizes all properties that define the visual styling of ...">
<polygon fill="white" stroke="#666666" points="1244,-393.5 1053,-393.5 1053,-359.5 1244,-359.5 1244,-393.5"/>
<text text-anchor="start" x="1061" y="-379.9" font-family="Helvetica,sans-Serif" font-size="12.00">JKQTAnnotationsSpecificStyle</text>
<text text-anchor="middle" x="1148.5" y="-366.9" font-family="Helvetica,sans-Serif" font-size="12.00">Properties</text>
</a>
</g>
</g>
<!-- Node17&#45;&gt;Node18 -->
<g id="edge23" class="edge">
<title>Node17&#45;&gt;Node18</title>
<path fill="none" stroke="#63b8ff" d="M854.07,-383.19C915.27,-381.8 992.83,-380.03 1052.84,-378.66"/>
<polygon fill="#63b8ff" stroke="#63b8ff" points="853.92,-379.7 844,-383.42 854.08,-386.69 853.92,-379.7"/>
</g>
<!-- Node18&#45;&gt;Node12 -->
<g id="edge22" class="edge">
<title>Node18&#45;&gt;Node12</title>
<path fill="none" stroke="#9a32cd" stroke-dasharray="5,2" d="M1254.39,-384.26C1302.57,-387.82 1358.51,-391.96 1401.86,-395.16"/>
<polygon fill="#9a32cd" stroke="#9a32cd" points="1254.46,-380.75 1244.23,-383.51 1253.95,-387.73 1254.46,-380.75"/>
<text text-anchor="middle" x="1311" y="-394.9" font-family="Helvetica,sans-Serif" font-size="12.00"> annotationStyle</text>
</g>
<!-- Node19&#45;&gt;Node6 -->
<g id="edge24" class="edge">
<title>Node19&#45;&gt;Node6</title>
<path fill="none" stroke="#9a32cd" stroke-dasharray="5,2" d="M1997.56,-570.02C2018.97,-565.99 2043.26,-560.77 2065,-554.5 2145.02,-531.42 2170.2,-532.93 2240,-487.5 2274.34,-465.16 2305.97,-427.63 2320.35,-409.27"/>
<polygon fill="#9a32cd" stroke="#9a32cd" points="1996.83,-566.59 1987.63,-571.84 1998.09,-573.48 1996.83,-566.59"/>
<text text-anchor="middle" x="2161.5" y="-551.9" font-family="Helvetica,sans-Serif" font-size="12.00"> mathText</text>
</g>
<!-- Node20 -->
<g id="node20" class="node">
<title>Node20</title>
<g id="a_node20"><a xlink:href="class_j_k_q_t_math_text_node.html" target="_top" xlink:title="subclass representing one node in the syntax tree">
<polygon fill="white" stroke="#666666" points="2395,-587 2264,-587 2264,-566 2395,-566 2395,-587"/>
<text text-anchor="middle" x="2329.5" y="-573.4" font-family="Helvetica,sans-Serif" font-size="12.00">JKQTMathTextNode</text>
</a>
</g>
</g>
<!-- Node19&#45;&gt;Node20 -->
<g id="edge27" class="edge">
<title>Node19&#45;&gt;Node20</title>
<path fill="none" stroke="#9a32cd" stroke-dasharray="5,2" d="M1997.73,-575C2023.83,-573.21 2054.93,-571.38 2083,-570.5 2152.74,-568.32 2170.26,-568.14 2240,-570.5 2247.7,-570.76 2255.76,-571.15 2263.76,-571.6"/>
<polygon fill="#9a32cd" stroke="#9a32cd" points="1997.35,-571.51 1987.62,-575.7 1997.84,-578.5 1997.35,-571.51"/>
<text text-anchor="middle" x="2161.5" y="-573.9" font-family="Helvetica,sans-Serif" font-size="12.00"> parentMathText</text>
</g>
<!-- Node20&#45;&gt;Node19 -->
<g id="edge26" class="edge">
<title>Node20&#45;&gt;Node19</title>
<path fill="none" stroke="#9a32cd" stroke-dasharray="5,2" d="M2253.68,-586.46C2249.05,-586.87 2244.47,-587.22 2240,-587.5 2151.04,-593.01 2047.06,-587.63 1987.53,-583.42"/>
<polygon fill="#9a32cd" stroke="#9a32cd" points="2254.2,-589.92 2263.82,-585.48 2253.53,-582.96 2254.2,-589.92"/>
<text text-anchor="middle" x="2161.5" y="-592.9" font-family="Helvetica,sans-Serif" font-size="12.00"> parsedNode</text>
</g>
<!-- Node20&#45;&gt;Node20 -->
<g id="edge28" class="edge">
<title>Node20&#45;&gt;Node20</title>
<path fill="none" stroke="#9a32cd" stroke-dasharray="5,2" d="M2302.59,-596.57C2304.67,-601.41 2313.64,-605 2329.5,-605 2354.88,-605 2362.61,-595.81 2352.7,-587.02"/>
<polygon fill="#9a32cd" stroke="#9a32cd" points="2305.95,-597.61 2306.3,-587.02 2299.42,-595.08 2305.95,-597.61"/>
<text text-anchor="middle" x="2329.5" y="-608.4" font-family="Helvetica,sans-Serif" font-size="12.00"> parentNode</text>
</g>
<!-- Node21 -->
<g id="node21" class="node">
<title>Node21</title>
<g id="a_node21"><a xlink:title=" ">
<polygon fill="white" stroke="#666666" points="1188.5,-254 1108.5,-254 1108.5,-233 1188.5,-233 1188.5,-254"/>
<text text-anchor="middle" x="1148.5" y="-240.4" font-family="Helvetica,sans-Serif" font-size="12.00">std::mutex</text>
</a>
</g>
</g>
<!-- Node21&#45;&gt;Node6 -->
<g id="edge49" class="edge">
<title>Node21&#45;&gt;Node6</title>
<path fill="none" stroke="#9a32cd" stroke-dasharray="5,2" d="M1192.87,-230.12C1213.59,-224.29 1238.86,-218.01 1262,-214.5 1614.85,-160.99 1714.67,-146.41 2065,-214.5 2145.57,-230.16 2180.99,-216.44 2240,-273.5 2256.38,-289.34 2246.09,-302.08 2258,-321.5 2274.39,-348.23 2300.82,-374 2316.24,-387.9"/>
<polygon fill="#9a32cd" stroke="#9a32cd" points="1191.74,-226.8 1183.1,-232.92 1193.68,-233.53 1191.74,-226.8"/>
<text text-anchor="middle" x="1691.5" y="-175.9" font-family="Helvetica,sans-Serif" font-size="12.00"> globalUserSettingsMutex</text>
</g>
<!-- Node21&#45;&gt;Node19 -->
<g id="edge29" class="edge">
<title>Node21&#45;&gt;Node19</title>
<path fill="none" stroke="#9a32cd" stroke-dasharray="5,2" d="M1198.39,-250.49C1215.25,-255.35 1232.71,-263.57 1244,-277.5 1281,-323.16 1228.74,-360.05 1262,-408.5 1295.32,-457.04 1322.27,-453.49 1378,-472.5 1460.57,-500.67 1486.22,-486.55 1572,-502.5 1678.88,-522.37 1704.57,-532.37 1811,-554.5 1836.55,-559.81 1865.06,-565.49 1888.49,-570.09"/>
<polygon fill="#9a32cd" stroke="#9a32cd" points="1199.14,-247.07 1188.58,-248 1197.42,-253.85 1199.14,-247.07"/>
<text text-anchor="middle" x="1475" y="-505.9" font-family="Helvetica,sans-Serif" font-size="12.00"> s_mutex</text>
</g>
<!-- Node34 -->
<g id="node34" class="node">
<title>Node34</title>
<g id="a_node34"><a xlink:href="class_j_k_q_t_p_synchronized.html" target="_top" xlink:title=" ">
<polygon fill="white" stroke="#666666" points="2065,-347.5 1811,-347.5 1811,-313.5 2065,-313.5 2065,-347.5"/>
<text text-anchor="start" x="1819" y="-333.9" font-family="Helvetica,sans-Serif" font-size="12.00">JKQTPSynchronized&lt;</text>
<text text-anchor="middle" x="1938" y="-320.9" font-family="Helvetica,sans-Serif" font-size="12.00"> QList&lt; JKQTPPaintDeviceAdapter * &gt; &gt;</text>
</a>
</g>
</g>
<!-- Node21&#45;&gt;Node34 -->
<g id="edge51" class="edge">
<title>Node21&#45;&gt;Node34</title>
<path fill="none" stroke="#9a32cd" stroke-dasharray="5,2" d="M1198.53,-251.83C1218.25,-255.16 1241.2,-259.03 1262,-262.5 1407.73,-286.8 1443.02,-301.49 1590,-316.5 1662.88,-323.94 1744.74,-327.47 1810.64,-329.13"/>
<polygon fill="#9a32cd" stroke="#9a32cd" points="1198.99,-248.35 1188.54,-250.13 1197.82,-255.26 1198.99,-248.35"/>
<text text-anchor="middle" x="1475" y="-317.9" font-family="Helvetica,sans-Serif" font-size="12.00"> m_mutex</text>
</g>
<!-- Node35 -->
<g id="node35" class="node">
<title>Node35</title>
<g id="a_node35"><a xlink:href="class_j_k_q_t_p_synchronized.html" target="_top" xlink:title="template class that wraps any datatype and combines it with a mutex, exposes the lock()/unlock() inte...">
<polygon fill="white" stroke="#666666" points="1558.5,-260 1391.5,-260 1391.5,-239 1558.5,-239 1558.5,-260"/>
<text text-anchor="middle" x="1475" y="-246.4" font-family="Helvetica,sans-Serif" font-size="12.00">JKQTPSynchronized&lt; T &gt;</text>
</a>
</g>
</g>
<!-- Node21&#45;&gt;Node35 -->
<g id="edge53" class="edge">
<title>Node21&#45;&gt;Node35</title>
<path fill="none" stroke="#9a32cd" stroke-dasharray="5,2" d="M1198.76,-244.41C1249.85,-245.36 1330.61,-246.85 1391.46,-247.97"/>
<polygon fill="#9a32cd" stroke="#9a32cd" points="1198.71,-240.91 1188.64,-244.22 1198.58,-247.91 1198.71,-240.91"/>
<text text-anchor="middle" x="1311" y="-249.9" font-family="Helvetica,sans-Serif" font-size="12.00"> m_mutex</text>
</g>
<!-- Node36 -->
<g id="node36" class="node">
<title>Node36</title>
<g id="a_node36"><a xlink:href="class_j_k_q_t_p_synchronized.html" target="_top" xlink:title=" ">
<polygon fill="white" stroke="#666666" points="2059,-257.5 1817,-257.5 1817,-223.5 2059,-223.5 2059,-257.5"/>
<text text-anchor="start" x="1825" y="-243.9" font-family="Helvetica,sans-Serif" font-size="12.00">JKQTPSynchronized&lt;</text>
<text text-anchor="middle" x="1938" y="-230.9" font-family="Helvetica,sans-Serif" font-size="12.00"> QList&lt; JKQTPSaveDataAdapter * &gt; &gt;</text>
</a>
</g>
</g>
<!-- Node21&#45;&gt;Node36 -->
<g id="edge55" class="edge">
<title>Node21&#45;&gt;Node36</title>
<path fill="none" stroke="#9a32cd" stroke-dasharray="5,2" d="M1198.64,-236.28C1244.82,-229.88 1315.93,-221.02 1378,-217.5 1529.28,-208.92 1703.77,-219.34 1817,-228.79"/>
<polygon fill="#9a32cd" stroke="#9a32cd" points="1198.02,-232.83 1188.6,-237.68 1198.99,-239.76 1198.02,-232.83"/>
<text text-anchor="middle" x="1475" y="-220.9" font-family="Helvetica,sans-Serif" font-size="12.00"> m_mutex</text>
</g>
<!-- Node22&#45;&gt;Node6 -->
<g id="edge30" class="edge">
<title>Node22&#45;&gt;Node6</title>
<path fill="none" stroke="#9a32cd" stroke-dasharray="5,2" d="M2581.67,-343.4C2534.65,-349.66 2472.91,-359.14 2419,-371.5 2399.58,-375.95 2378.21,-382.42 2361.34,-387.92"/>
<polygon fill="#9a32cd" stroke="#9a32cd" points="2582.31,-346.84 2591.77,-342.07 2581.4,-339.9 2582.31,-346.84"/>
<text text-anchor="middle" x="2475.5" y="-374.9" font-family="Helvetica,sans-Serif" font-size="12.00"> m_plotsModel</text>
</g>
<!-- Node23 -->
<g id="node23" class="node">
<title>Node23</title>
<g id="a_node23"><a xlink:title=" ">
<polygon fill="white" stroke="#666666" points="2401,-312 2258,-312 2258,-291 2401,-291 2401,-312"/>
<text text-anchor="middle" x="2329.5" y="-298.4" font-family="Helvetica,sans-Serif" font-size="12.00">QAbstractTableModel</text>
</a>
</g>
</g>
<!-- Node23&#45;&gt;Node22 -->
<g id="edge31" class="edge">
<title>Node23&#45;&gt;Node22</title>
<path fill="none" stroke="#63b8ff" d="M2411.23,-305.59C2448.12,-307.85 2492.34,-311.1 2532,-315.5 2552.32,-317.75 2574.4,-320.89 2594.25,-323.97"/>
<polygon fill="#63b8ff" stroke="#63b8ff" points="2411.22,-302.08 2401.03,-304.98 2410.81,-309.07 2411.22,-302.08"/>
</g>
<!-- Node24 -->
<g id="node24" class="node">
<title>Node24</title>
<g id="a_node24"><a xlink:href="class_j_k_q_t_p_horizontal_axis.html" target="_top" xlink:title="implements a horizontal axis, based on JKQTPCoordinateAxis (for most of documentation: see JKQTPCoord...">
<polygon fill="white" stroke="#666666" points="3177,-424 3040,-424 3040,-403 3177,-403 3177,-424"/>
<text text-anchor="middle" x="3108.5" y="-410.4" font-family="Helvetica,sans-Serif" font-size="12.00">JKQTPHorizontalAxis</text>
</a>
</g>
</g>
<!-- Node24&#45;&gt;Node6 -->
<g id="edge33" class="edge">
<title>Node24&#45;&gt;Node6</title>
<path fill="none" stroke="#9a32cd" stroke-dasharray="5,2" d="M3029.71,-411.07C2971.43,-409.32 2889.72,-407.01 2818,-405.5 2661.87,-402.22 2477.57,-400.03 2386.8,-399.07"/>
<polygon fill="#9a32cd" stroke="#9a32cd" points="3029.84,-414.58 3039.94,-411.38 3030.05,-407.58 3029.84,-414.58"/>
<text text-anchor="middle" x="2800.5" y="-408.9" font-family="Helvetica,sans-Serif" font-size="12.00"> xAxis</text>
</g>
<!-- Node25 -->
<g id="node25" class="node">
<title>Node25</title>
<g id="a_node25"><a xlink:href="class_j_k_q_t_p_horizontal_axis_base.html" target="_top" xlink:title="base class for horizontal axes, based on JKQTPCoordinateAxis (for most of documentation: see JKQTPCoo...">
<polygon fill="white" stroke="#666666" points="3003,-490 2836,-490 2836,-469 3003,-469 3003,-490"/>
<text text-anchor="middle" x="2919.5" y="-476.4" font-family="Helvetica,sans-Serif" font-size="12.00">JKQTPHorizontalAxisBase</text>
</a>
</g>
</g>
<!-- Node25&#45;&gt;Node24 -->
<g id="edge34" class="edge">
<title>Node25&#45;&gt;Node24</title>
<path fill="none" stroke="#63b8ff" d="M2960.01,-465.56C2995.11,-453.17 3045.66,-435.33 3077.53,-424.08"/>
<polygon fill="#63b8ff" stroke="#63b8ff" points="2958.81,-462.27 2950.54,-468.9 2961.14,-468.87 2958.81,-462.27"/>
</g>
<!-- Node26&#45;&gt;Node25 -->
<g id="edge35" class="edge">
<title>Node26&#45;&gt;Node25</title>
<path fill="none" stroke="#63b8ff" d="M2738.72,-506.47C2773.78,-501.21 2814.53,-495.1 2848.36,-490.02"/>
<polygon fill="#63b8ff" stroke="#63b8ff" points="2737.89,-503.05 2728.52,-508 2738.93,-509.98 2737.89,-503.05"/>
</g>
<!-- Node28 -->
<g id="node28" class="node">
<title>Node28</title>
<g id="a_node28"><a xlink:href="class_j_k_q_t_p_vertical_axis_base.html" target="_top" xlink:title="base class for vertical axes, based on JKQTPCoordinateAxis (for most of documentation: see JKQTPCoord...">
<polygon fill="white" stroke="#666666" points="2995,-529 2844,-529 2844,-508 2995,-508 2995,-529"/>
<text text-anchor="middle" x="2919.5" y="-515.4" font-family="Helvetica,sans-Serif" font-size="12.00">JKQTPVerticalAxisBase</text>
</a>
</g>
</g>
<!-- Node26&#45;&gt;Node28 -->
<g id="edge41" class="edge">
<title>Node26&#45;&gt;Node28</title>
<path fill="none" stroke="#63b8ff" d="M2738.73,-518.5C2772.23,-518.5 2810.92,-518.5 2843.8,-518.5"/>
<polygon fill="#63b8ff" stroke="#63b8ff" points="2738.52,-515 2728.52,-518.5 2738.52,-522 2738.52,-515"/>
</g>
<!-- Node27 -->
<g id="node27" class="node">
<title>Node27</title>
<g id="a_node27"><a xlink:href="class_j_k_q_t_p_vertical_axis.html" target="_top" xlink:title="implements a vertical axis for use as primary, secondary, ... axis of a JKQTPBasePlotter,...">
<polygon fill="white" stroke="#666666" points="3169.5,-468 3047.5,-468 3047.5,-447 3169.5,-447 3169.5,-468"/>
<text text-anchor="middle" x="3108.5" y="-454.4" font-family="Helvetica,sans-Serif" font-size="12.00">JKQTPVerticalAxis</text>
</a>
</g>
</g>
<!-- Node27&#45;&gt;Node6 -->
<g id="edge39" class="edge">
<title>Node27&#45;&gt;Node6</title>
<path fill="none" stroke="#9a32cd" stroke-dasharray="5,2" d="M3037.27,-455.43C2912.49,-451.2 2644.07,-439.69 2419,-413.5 2408.47,-412.28 2397.3,-410.64 2386.55,-408.91"/>
<polygon fill="#9a32cd" stroke="#9a32cd" points="3037.34,-458.93 3047.45,-455.76 3037.57,-451.93 3037.34,-458.93"/>
<text text-anchor="middle" x="2800.5" y="-448.9" font-family="Helvetica,sans-Serif" font-size="12.00"> yAxis</text>
</g>
<!-- Node28&#45;&gt;Node27 -->
<g id="edge40" class="edge">
<title>Node28&#45;&gt;Node27</title>
<path fill="none" stroke="#63b8ff" d="M2981.7,-505.53C2988.92,-503.67 2996.16,-501.65 3003,-499.5 3031.54,-490.54 3063.29,-477.29 3084.22,-468.07"/>
<polygon fill="#63b8ff" stroke="#63b8ff" points="2980.74,-502.16 2971.88,-507.97 2982.43,-508.96 2980.74,-502.16"/>
</g>
<!-- Node29 -->
<g id="node29" class="node">
<title>Node29</title>
<g id="a_node29"><a xlink:href="class_j_k_q_t_p_datastore.html" target="_top" xlink:title="This class manages data columns (with entries of type double ), used by JKQTPlotter/JKQTBasePlotter t...">
<polygon fill="white" stroke="#666666" points="1993.5,-68 1882.5,-68 1882.5,-47 1993.5,-47 1993.5,-68"/>
<text text-anchor="middle" x="1938" y="-54.4" font-family="Helvetica,sans-Serif" font-size="12.00">JKQTPDatastore</text>
</a>
</g>
</g>
<!-- Node29&#45;&gt;Node6 -->
<g id="edge42" class="edge">
<title>Node29&#45;&gt;Node6</title>
<path fill="none" stroke="#9a32cd" stroke-dasharray="5,2" d="M2003.86,-56.56C2024.95,-59.04 2047.43,-64.94 2065,-77.5 2078.91,-87.44 2069.03,-101.64 2083,-111.5 2140.61,-152.17 2191.38,-83.41 2240,-134.5 2268.78,-164.74 2241.03,-283.36 2258,-321.5 2270.53,-349.65 2297.51,-374.37 2314.22,-387.8"/>
<polygon fill="#9a32cd" stroke="#9a32cd" points="2003.93,-53.05 1993.65,-55.6 2003.28,-60.02 2003.93,-53.05"/>
<text text-anchor="middle" x="2161.5" y="-137.9" font-family="Helvetica,sans-Serif" font-size="12.00"> datastore</text>
</g>
<!-- Node31 -->
<g id="node31" class="node">
<title>Node31</title>
<g id="a_node31"><a xlink:href="class_j_k_q_t_p_column.html" target="_top" xlink:title="internally stores information about one data column. See JKQTPDatastore for more information.">
<polygon fill="white" stroke="#666666" points="2378.5,-21 2280.5,-21 2280.5,0 2378.5,0 2378.5,-21"/>
<text text-anchor="middle" x="2329.5" y="-7.4" font-family="Helvetica,sans-Serif" font-size="12.00">JKQTPColumn</text>
</a>
</g>
</g>
<!-- Node29&#45;&gt;Node31 -->
<g id="edge45" class="edge">
<title>Node29&#45;&gt;Node31</title>
<path fill="none" stroke="#9a32cd" stroke-dasharray="5,2" d="M1998.16,-44.97C2024.1,-39.85 2054.96,-34.26 2083,-30.5 2151.24,-21.35 2230.75,-15.8 2280.36,-12.94"/>
<polygon fill="#9a32cd" stroke="#9a32cd" points="1997.23,-41.59 1988.11,-46.98 1998.61,-48.45 1997.23,-41.59"/>
<text text-anchor="middle" x="2161.5" y="-33.9" font-family="Helvetica,sans-Serif" font-size="12.00"> datastore</text>
</g>
<!-- Node30 -->
<g id="node30" class="node">
<title>Node30</title>
<g id="a_node30"><a xlink:title=" ">
<polygon fill="white" stroke="#666666" points="2765,-68 2550,-68 2550,-47 2765,-47 2765,-68"/>
<text text-anchor="middle" x="2657.5" y="-54.4" font-family="Helvetica,sans-Serif" font-size="12.00">std::unique_ptr&lt; JKQTPColumn &gt;</text>
</a>
</g>
</g>
<!-- Node30&#45;&gt;Node29 -->
<g id="edge43" class="edge">
<title>Node30&#45;&gt;Node29</title>
<path fill="none" stroke="#9a32cd" stroke-dasharray="5,2" d="M2539.76,-57.5C2382.62,-57.5 2109.44,-57.5 1993.52,-57.5"/>
<polygon fill="#9a32cd" stroke="#9a32cd" points="2539.93,-61 2549.93,-57.5 2539.93,-54 2539.93,-61"/>
<text text-anchor="middle" x="2329.5" y="-60.9" font-family="Helvetica,sans-Serif" font-size="12.00"> m_invalidColumn</text>
</g>
<!-- Node31&#45;&gt;Node30 -->
<g id="edge44" class="edge">
<title>Node31&#45;&gt;Node30</title>
<path fill="none" stroke="#9a32cd" stroke-dasharray="5,2" d="M2388.93,-14.52C2429.28,-17.73 2484.08,-22.95 2532,-30.5 2559.42,-34.82 2589.88,-41.39 2613.8,-46.97"/>
<polygon fill="#9a32cd" stroke="#9a32cd" points="2388.98,-11.01 2378.74,-13.73 2388.44,-17.99 2388.98,-11.01"/>
<text text-anchor="middle" x="2475.5" y="-33.9" font-family="Helvetica,sans-Serif" font-size="12.00"> ptr</text>
</g>
<!-- Node32 -->
<g id="node32" class="node">
<title>Node32</title>
<g id="a_node32"><a xlink:title=" ">
<polygon fill="white" stroke="#666666" points="2399.5,-110 2259.5,-110 2259.5,-89 2399.5,-89 2399.5,-110"/>
<text text-anchor="middle" x="2329.5" y="-96.4" font-family="Helvetica,sans-Serif" font-size="12.00">std::unique_ptr&lt; T &gt;</text>
</a>
</g>
</g>
<!-- Node32&#45;&gt;Node30 -->
<g id="edge46" class="edge">
<title>Node32&#45;&gt;Node30</title>
<path fill="none" stroke="orange" stroke-dasharray="5,2" d="M2409.76,-89.29C2459.8,-82.84 2524.29,-74.53 2574.79,-68.03"/>
<polygon fill="orange" stroke="orange" points="2409.11,-85.84 2399.64,-90.59 2410,-92.79 2409.11,-85.84"/>
<text text-anchor="middle" x="2475.5" y="-90.9" font-family="Helvetica,sans-Serif" font-size="12.00"> &lt; JKQTPColumn &gt;</text>
</g>
<!-- Node33 -->
<g id="node33" class="node">
<title>Node33</title>
<g id="a_node33"><a xlink:title=" ">
<polygon fill="white" stroke="#666666" points="1952.5,-108 1923.5,-108 1923.5,-87 1952.5,-87 1952.5,-108"/>
<text text-anchor="middle" x="1938" y="-94.4" font-family="Helvetica,sans-Serif" font-size="12.00">T</text>
</a>
</g>
</g>
<!-- Node33&#45;&gt;Node32 -->
<g id="edge47" class="edge">
<title>Node33&#45;&gt;Node32</title>
<path fill="none" stroke="#9a32cd" stroke-dasharray="5,2" d="M1962.76,-97.51C2013.61,-97.56 2136.76,-97.75 2240,-98.5 2246.3,-98.55 2252.85,-98.6 2259.41,-98.67"/>
<polygon fill="#9a32cd" stroke="#9a32cd" points="1962.5,-94.01 1952.5,-97.51 1962.5,-101.01 1962.5,-94.01"/>
<text text-anchor="middle" x="2161.5" y="-101.9" font-family="Helvetica,sans-Serif" font-size="12.00"> ptr</text>
</g>
<!-- Node34&#45;&gt;Node6 -->
<g id="edge50" class="edge">
<title>Node34&#45;&gt;Node6</title>
<path fill="none" stroke="#9a32cd" stroke-dasharray="5,2" d="M2052.89,-349.19C2109.24,-358.59 2178.25,-370.34 2240,-381.5 2251.24,-383.53 2263.26,-385.79 2274.71,-387.97"/>
<polygon fill="#9a32cd" stroke="#9a32cd" points="2053.32,-345.72 2042.88,-347.52 2052.17,-352.62 2053.32,-345.72"/>
<text text-anchor="middle" x="2161.5" y="-384.9" font-family="Helvetica,sans-Serif" font-size="12.00"> jkqtpPaintDeviceAdapters</text>
</g>
<!-- Node35&#45;&gt;Node34 -->
<g id="edge52" class="edge">
<title>Node35&#45;&gt;Node34</title>
<path fill="none" stroke="orange" stroke-dasharray="5,2" d="M1549.68,-261.62C1563.08,-263.68 1576.95,-265.73 1590,-267.5 1679.98,-279.69 1703.87,-273.18 1793,-290.5 1823.31,-296.39 1856.56,-305.45 1883.46,-313.45"/>
<polygon fill="orange" stroke="orange" points="1549.96,-258.12 1539.54,-260.04 1548.88,-265.04 1549.96,-258.12"/>
<text text-anchor="start" x="1608" y="-306.9" font-family="Helvetica,sans-Serif" font-size="12.00"> &lt; QList&lt; JKQTPPaintDevice</text>
<text text-anchor="middle" x="1691.5" y="-293.9" font-family="Helvetica,sans-Serif" font-size="12.00">Adapter * &gt; &gt;</text>
</g>
<!-- Node35&#45;&gt;Node36 -->
<g id="edge56" class="edge">
<title>Node35&#45;&gt;Node36</title>
<path fill="none" stroke="orange" stroke-dasharray="5,2" d="M1569.13,-242.45C1576.19,-242.07 1583.21,-241.75 1590,-241.5 1665.4,-238.75 1750.09,-238.45 1816.92,-238.86"/>
<polygon fill="orange" stroke="orange" points="1568.56,-238.98 1558.78,-243.04 1568.96,-245.96 1568.56,-238.98"/>
<text text-anchor="start" x="1590" y="-257.9" font-family="Helvetica,sans-Serif" font-size="12.00"> &lt; QList&lt; JKQTPSaveDataAdapter</text>
<text text-anchor="middle" x="1691.5" y="-244.9" font-family="Helvetica,sans-Serif" font-size="12.00"> * &gt; &gt;</text>
</g>
<!-- Node36&#45;&gt;Node6 -->
<g id="edge54" class="edge">
<title>Node36&#45;&gt;Node6</title>
<path fill="none" stroke="#9a32cd" stroke-dasharray="5,2" d="M2023.2,-260.04C2085.05,-276.12 2170.13,-301.89 2240,-336.5 2269.25,-350.99 2299.62,-374.42 2316.08,-387.95"/>
<polygon fill="#9a32cd" stroke="#9a32cd" points="2024.03,-256.64 2013.47,-257.54 2022.29,-263.42 2024.03,-256.64"/>
<text text-anchor="middle" x="2161.5" y="-339.9" font-family="Helvetica,sans-Serif" font-size="12.00"> jkqtpSaveDataAdapters</text>
</g>
</g>
</svg>
