<?xml version="1.0" encoding="UTF-8" standalone="no"?>
<!DOCTYPE svg PUBLIC "-//W3C//DTD SVG 1.1//EN"
 "http://www.w3.org/Graphics/SVG/1.1/DTD/svg11.dtd">
<!-- Generated by graphviz version 2.43.0 (0)
 -->
<!-- Title: JKQTMathTextSingleChildNode Pages: 1 -->
<svg width="515pt" height="99pt"
 viewBox="0.00 0.00 515.00 99.00" xmlns="http://www.w3.org/2000/svg" xmlns:xlink="http://www.w3.org/1999/xlink">
<g id="graph0" class="graph" transform="scale(1 1) rotate(0) translate(4 95)">
<title>JKQTMathTextSingleChildNode</title>
<!-- Node1 -->
<g id="Node000001" class="node">
<title>Node1</title>
<g id="a_Node000001"><a xlink:title="subclass representing a node in the syntax tree, that has one child">
<polygon fill="#999999" stroke="#666666" points="196,-21 0,-21 0,0 196,0 196,-21"/>
<text text-anchor="middle" x="98" y="-7.4" font-family="Helvetica,sans-Serif" font-size="12.00">JKQTMathTextSingleChildNode</text>
</a>
</g>
</g>
<!-- Node2 -->
<g id="Node000002" class="node">
<title>Node2</title>
<g id="a_Node000002"><a xlink:href="class_j_k_q_t_math_text_node.html" target="_top" xlink:title="subclass representing one node in the syntax tree">
<polygon fill="white" stroke="#666666" points="202.5,-91 71.5,-91 71.5,-70 202.5,-70 202.5,-91"/>
<text text-anchor="middle" x="137" y="-77.4" font-family="Helvetica,sans-Serif" font-size="12.00">JKQTMathTextNode</text>
</a>
</g>
</g>
<!-- Node2&#45;&gt;Node1 -->
<g id="edge1_Node000001_Node000002" class="edge">
<title>Node2&#45;&gt;Node1</title>
<g id="a_edge1_Node000001_Node000002"><a xlink:title=" ">
<path fill="none" stroke="#63b8ff" d="M101.5,-64.48C96.9,-61.05 92.82,-56.92 90,-52 84.51,-42.43 88.52,-29.71 92.59,-21.1"/>
<polygon fill="#63b8ff" stroke="#63b8ff" points="99.83,-67.57 110.16,-69.93 103.56,-61.64 99.83,-67.57"/>
</a>
</g>
</g>
<!-- Node2&#45;&gt;Node1 -->
<g id="edge7_Node000001_Node000002" class="edge">
<title>Node2&#45;&gt;Node1</title>
<g id="a_edge7_Node000001_Node000002"><a xlink:title=" ">
<path fill="none" stroke="#9a32cd" stroke-dasharray="5,2" d="M118.06,-62.71C115.06,-59.39 112.22,-55.76 110,-52 104.27,-42.27 101.09,-29.59 99.47,-21.03"/>
<polygon fill="#9a32cd" stroke="#9a32cd" points="115.6,-65.21 125.14,-69.82 120.56,-60.27 115.6,-65.21"/>
</a>
</g>
<text text-anchor="middle" x="126" y="-42.4" font-family="Helvetica,sans-Serif" font-size="12.00" fill="grey"> child</text>
</g>
<!-- Node2&#45;&gt;Node2 -->
<g id="edge6_Node000002_Node000002" class="edge">
<title>Node2&#45;&gt;Node2</title>
<g id="a_edge6_Node000002_Node000002"><a xlink:title=" ">
<path fill="none" stroke="#9a32cd" stroke-dasharray="5,2" d="M213.02,-84.94C217.69,-83.89 220.5,-82.41 220.5,-80.5 220.5,-77.45 213.31,-75.49 202.81,-74.63"/>
<polygon fill="#9a32cd" stroke="#9a32cd" points="212.23,-81.52 202.81,-86.37 213.2,-88.45 212.23,-81.52"/>
</a>
</g>
<text text-anchor="middle" x="258" y="-77.4" font-family="Helvetica,sans-Serif" font-size="12.00" fill="grey"> parentNode</text>
</g>
<!-- Node3 -->
<g id="Node000003" class="node">
<title>Node3</title>
<g id="a_Node000003"><a xlink:href="class_j_k_q_t_math_text.html" target="_top" xlink:title="this class parses a mathematical markup string and can then draw the contained text/equation onto a Q...">
<polygon fill="white" stroke="#666666" points="324.5,-21 225.5,-21 225.5,0 324.5,0 324.5,-21"/>
<text text-anchor="middle" x="275" y="-7.4" font-family="Helvetica,sans-Serif" font-size="12.00">JKQTMathText</text>
</a>
</g>
</g>
<!-- Node2&#45;&gt;Node3 -->
<g id="edge4_Node000003_Node000002" class="edge">
<title>Node2&#45;&gt;Node3</title>
<g id="a_edge4_Node000003_Node000002"><a xlink:title=" ">
<path fill="none" stroke="#9a32cd" stroke-dasharray="5,2" d="M144.2,-60.74C148.07,-52.95 153.6,-44.46 161,-39 171.4,-31.32 199.54,-24.49 225.25,-19.56"/>
<polygon fill="#9a32cd" stroke="#9a32cd" points="140.96,-59.4 140.16,-69.96 147.38,-62.21 140.96,-59.4"/>
</a>
</g>
<text text-anchor="middle" x="199.5" y="-42.4" font-family="Helvetica,sans-Serif" font-size="12.00" fill="grey"> parsedNode</text>
</g>
<!-- Node3&#45;&gt;Node2 -->
<g id="edge2_Node000002_Node000003" class="edge">
<title>Node3&#45;&gt;Node2</title>
<g id="a_edge2_Node000002_Node000003"><a xlink:title=" ">
<path fill="none" stroke="#9a32cd" stroke-dasharray="5,2" d="M264.16,-29.43C258.49,-37.42 250.87,-46.3 242,-52 229.32,-60.16 214.31,-65.9 199.67,-69.94"/>
<polygon fill="#9a32cd" stroke="#9a32cd" points="267.13,-31.28 269.71,-21 261.29,-27.43 267.13,-31.28"/>
</a>
</g>
<text text-anchor="middle" x="304.5" y="-42.4" font-family="Helvetica,sans-Serif" font-size="12.00" fill="grey"> parentMathText</text>
</g>
<!-- Node4 -->
<g id="Node000004" class="node">
<title>Node4</title>
<g id="a_Node000004"><a xlink:title=" ">
<polygon fill="white" stroke="#666666" points="408.5,-91 343.5,-91 343.5,-70 408.5,-70 408.5,-91"/>
<text text-anchor="middle" x="376" y="-77.4" font-family="Helvetica,sans-Serif" font-size="12.00">QObject</text>
</a>
</g>
</g>
<!-- Node4&#45;&gt;Node3 -->
<g id="edge3_Node000003_Node000004" class="edge">
<title>Node4&#45;&gt;Node3</title>
<g id="a_edge3_Node000003_Node000004"><a xlink:title=" ">
<path fill="none" stroke="#63b8ff" d="M373.11,-60.04C371.11,-52.6 367.72,-44.57 362,-39 351.9,-29.16 338.31,-22.84 324.87,-18.78"/>
<polygon fill="#63b8ff" stroke="#63b8ff" points="369.68,-60.75 375.12,-69.84 376.54,-59.35 369.68,-60.75"/>
</a>
</g>
</g>
<!-- Node5 -->
<g id="Node000005" class="node">
<title>Node5</title>
<g id="a_Node000005"><a xlink:title=" ">
<polygon fill="white" stroke="#666666" points="507,-91 427,-91 427,-70 507,-70 507,-91"/>
<text text-anchor="middle" x="467" y="-77.4" font-family="Helvetica,sans-Serif" font-size="12.00">std::mutex</text>
</a>
</g>
</g>
<!-- Node5&#45;&gt;Node3 -->
<g id="edge5_Node000003_Node000005" class="edge">
<title>Node5&#45;&gt;Node3</title>
<g id="a_edge5_Node000003_Node000005"><a xlink:title=" ">
<path fill="none" stroke="#9a32cd" stroke-dasharray="5,2" d="M439.81,-65.3C422.92,-56.87 400.57,-46.41 380,-39 360.14,-31.84 337.57,-25.69 318.45,-21.02"/>
<polygon fill="#9a32cd" stroke="#9a32cd" points="438.57,-68.6 449.07,-69.99 441.73,-62.35 438.57,-68.6"/>
</a>
</g>
<text text-anchor="middle" x="438.5" y="-42.4" font-family="Helvetica,sans-Serif" font-size="12.00" fill="grey"> s_mutex</text>
</g>
</g>
</svg>
