<?xml version="1.0" encoding="UTF-8" standalone="no"?>
<!DOCTYPE svg PUBLIC "-//W3C//DTD SVG 1.1//EN"
 "http://www.w3.org/Graphics/SVG/1.1/DTD/svg11.dtd">
<!-- Generated by graphviz version 2.43.0 (0)
 -->
<!-- Title: JKQTPGraphErrorStyleMixin Pages: 1 -->
<!--zoomable 352 -->
<svg id="main" version="1.1" xmlns="http://www.w3.org/2000/svg" xmlns:xlink="http://www.w3.org/1999/xlink" xml:space="preserve" onload="init(evt)">
<style type="text/css"><![CDATA[
.edge:hover path { stroke: red; }
.edge:hover polygon { stroke: red; fill: red; }
]]></style>
<script type="text/javascript"><![CDATA[
var edges = document.getElementsByTagName('g');
if (edges && edges.length) {
  for (var i=0;i<edges.length;i++) {
    if (edges[i].id.substr(0,4)=='edge') {
      edges[i].setAttribute('class','edge');
    }
  }
}
]]></script>
        <defs>
                <circle id="rim" cx="0" cy="0" r="7"/>
                <circle id="rim2" cx="0" cy="0" r="3.5"/>
                <g id="zoomPlus">
                        <use xlink:href="#rim" fill="#404040">
                                <set attributeName="fill" to="#808080" begin="zoomplus.mouseover" end="zoomplus.mouseout"/>
                        </use>
                        <path d="M-4,0h8M0,-4v8" fill="none" stroke="white" stroke-width="1.5" pointer-events="none"/>
                </g>
                <g id="zoomMin">
                        <use xlink:href="#rim" fill="#404040">
                                <set attributeName="fill" to="#808080" begin="zoomminus.mouseover" end="zoomminus.mouseout"/>
                        </use>
                        <path d="M-4,0h8" fill="none" stroke="white" stroke-width="1.5" pointer-events="none"/>
                </g>
                <g id="dirArrow">
                        <path fill="none" stroke="white" stroke-width="1.5" d="M0,-3.0v7 M-2.5,-0.5L0,-3.0L2.5,-0.5"/>
                </g>
               <g id="resetDef">
                       <use xlink:href="#rim2" fill="#404040">
                               <set attributeName="fill" to="#808080" begin="reset.mouseover" end="reset.mouseout"/>
                       </use>
               </g>
        </defs>

<script type="text/javascript">
var viewWidth = 599;
var viewHeight = 352;
var sectionId = 'dynsection-0';
</script>
<script xlink:href="svgpan.js"/>
<svg id="graph" class="graph">
<g id="viewport">
<title>JKQTPGraphErrorStyleMixin</title>
<!-- Node1 -->
<g id="node1" class="node">
<title>Node1</title>
<g id="a_node1"><a xlink:title="This mix&#45;in class assembles all styling properties applicable to error indicators.">
<polygon fill="#bfbfbf" stroke="black" points="0,-164 0,-185 179,-185 179,-164 0,-164"/>
<text text-anchor="middle" x="89.5" y="-171.4" font-family="Helvetica,sans-Serif" font-size="12.00">JKQTPGraphErrorStyleMixin</text>
</a>
</g>
</g>
<!-- Node2 -->
<g id="node2" class="node">
<title>Node2</title>
<g id="a_node2"><a xlink:href="class_j_k_q_t_p_x_graph_errors.html" target="_top" xlink:title="This class is the base class for graphs that only display error indicators in x&#45;direction.">
<polygon fill="none" stroke="black" points="218.5,-258 218.5,-279 351.5,-279 351.5,-258 218.5,-258"/>
<text text-anchor="middle" x="285" y="-265.4" font-family="Helvetica,sans-Serif" font-size="12.00">JKQTPXGraphErrors</text>
</a>
</g>
</g>
<!-- Node1&#45;&gt;Node2 -->
<g id="edge1" class="edge">
<title>Node1&#45;&gt;Node2</title>
<path fill="none" stroke="midnightblue" d="M121.72,-189.66C161.14,-208.82 227.96,-241.28 262.26,-257.94"/>
<polygon fill="midnightblue" stroke="midnightblue" points="122.84,-186.32 112.32,-185.1 119.79,-192.62 122.84,-186.32"/>
</g>
<!-- Node6 -->
<g id="node6" class="node">
<title>Node6</title>
<g id="a_node6"><a xlink:href="class_j_k_q_t_p_x_y_graph_errors.html" target="_top" xlink:title="This class is the base class for graphs that only display error indicators in x&#45; and y&#45;direction.">
<polygon fill="none" stroke="black" points="215,-164 215,-185 355,-185 355,-164 215,-164"/>
<text text-anchor="middle" x="285" y="-171.4" font-family="Helvetica,sans-Serif" font-size="12.00">JKQTPXYGraphErrors</text>
</a>
</g>
</g>
<!-- Node1&#45;&gt;Node6 -->
<g id="edge5" class="edge">
<title>Node1&#45;&gt;Node6</title>
<path fill="none" stroke="midnightblue" d="M189.22,-174.5C197.9,-174.5 206.56,-174.5 214.92,-174.5"/>
<polygon fill="midnightblue" stroke="midnightblue" points="189.04,-171 179.04,-174.5 189.04,-178 189.04,-171"/>
</g>
<!-- Node9 -->
<g id="node9" class="node">
<title>Node9</title>
<g id="a_node9"><a xlink:href="class_j_k_q_t_p_y_graph_errors.html" target="_top" xlink:title="This class is the base class for graphs that only display error indicators in y&#45;direction.">
<polygon fill="none" stroke="black" points="219.5,-74 219.5,-95 350.5,-95 350.5,-74 219.5,-74"/>
<text text-anchor="middle" x="285" y="-81.4" font-family="Helvetica,sans-Serif" font-size="12.00">JKQTPYGraphErrors</text>
</a>
</g>
</g>
<!-- Node1&#45;&gt;Node9 -->
<g id="edge8" class="edge">
<title>Node1&#45;&gt;Node9</title>
<path fill="none" stroke="midnightblue" d="M122.43,-159.65C161.56,-141.45 226.89,-111.06 261.27,-95.07"/>
<polygon fill="midnightblue" stroke="midnightblue" points="120.67,-156.61 113.08,-164 123.62,-162.96 120.67,-156.61"/>
</g>
<!-- Node3 -->
<g id="node3" class="node">
<title>Node3</title>
<g id="a_node3"><a xlink:href="class_j_k_q_t_p_bar_horizontal_error_graph.html" target="_top" xlink:title="This implements a bar graph with bars starting at &#160;to &#160;and error indicator.">
<polygon fill="none" stroke="black" points="391,-322 391,-343 591,-343 591,-322 391,-322"/>
<text text-anchor="middle" x="491" y="-329.4" font-family="Helvetica,sans-Serif" font-size="12.00">JKQTPBarHorizontalErrorGraph</text>
</a>
</g>
</g>
<!-- Node2&#45;&gt;Node3 -->
<g id="edge2" class="edge">
<title>Node2&#45;&gt;Node3</title>
<path fill="none" stroke="midnightblue" d="M316.86,-283.33C337.47,-292.76 365.39,-304.63 391,-312.5 402.9,-316.16 415.82,-319.32 428.27,-321.99"/>
<polygon fill="midnightblue" stroke="midnightblue" points="318.2,-280.1 307.66,-279.06 315.25,-286.45 318.2,-280.1"/>
</g>
<!-- Node4 -->
<g id="node4" class="node">
<title>Node4</title>
<g id="a_node4"><a xlink:href="class_j_k_q_t_p_filled_curve_y_error_graph.html" target="_top" xlink:title="This implements filled curve plots with y errors where the area is filled between the plot line and t...">
<polygon fill="none" stroke="black" points="395.5,-282 395.5,-303 586.5,-303 586.5,-282 395.5,-282"/>
<text text-anchor="middle" x="491" y="-289.4" font-family="Helvetica,sans-Serif" font-size="12.00">JKQTPFilledCurveYErrorGraph</text>
</a>
</g>
</g>
<!-- Node2&#45;&gt;Node4 -->
<g id="edge3" class="edge">
<title>Node2&#45;&gt;Node4</title>
<path fill="none" stroke="midnightblue" d="M361.7,-277.41C374.39,-278.9 387.66,-280.46 400.66,-281.99"/>
<polygon fill="midnightblue" stroke="midnightblue" points="362.01,-273.92 351.67,-276.23 361.19,-280.87 362.01,-273.92"/>
</g>
<!-- Node5 -->
<g id="node5" class="node">
<title>Node5</title>
<g id="a_node5"><a xlink:href="class_j_k_q_t_p_impulses_horizontal_error_graph.html" target="_top" xlink:title="This implements an impulse plot with impulses in direction of the X axis (i.e. from x=0 to x=f(y) )">
<polygon fill="none" stroke="black" points="393,-228.5 393,-262.5 589,-262.5 589,-228.5 393,-228.5"/>
<text text-anchor="start" x="401" y="-248.9" font-family="Helvetica,sans-Serif" font-size="12.00">JKQTPImpulsesHorizontalError</text>
<text text-anchor="middle" x="491" y="-235.9" font-family="Helvetica,sans-Serif" font-size="12.00">Graph</text>
</a>
</g>
</g>
<!-- Node2&#45;&gt;Node5 -->
<g id="edge4" class="edge">
<title>Node2&#45;&gt;Node5</title>
<path fill="none" stroke="midnightblue" d="M361.7,-259.97C371.87,-258.82 382.41,-257.63 392.89,-256.45"/>
<polygon fill="midnightblue" stroke="midnightblue" points="361.21,-256.5 351.67,-261.1 362,-263.45 361.21,-256.5"/>
</g>
<!-- Node7 -->
<g id="node7" class="node">
<title>Node7</title>
<g id="a_node7"><a xlink:href="class_j_k_q_t_p_x_y_line_error_graph.html" target="_top" xlink:title="This implements xy line plots with x and y error indicators.">
<polygon fill="none" stroke="black" points="411.5,-188 411.5,-209 570.5,-209 570.5,-188 411.5,-188"/>
<text text-anchor="middle" x="491" y="-195.4" font-family="Helvetica,sans-Serif" font-size="12.00">JKQTPXYLineErrorGraph</text>
</a>
</g>
</g>
<!-- Node6&#45;&gt;Node7 -->
<g id="edge6" class="edge">
<title>Node6&#45;&gt;Node7</title>
<path fill="none" stroke="midnightblue" d="M365.35,-183.84C380.4,-185.61 396.14,-187.46 411.16,-189.23"/>
<polygon fill="midnightblue" stroke="midnightblue" points="365.41,-180.32 355.07,-182.63 364.59,-187.27 365.41,-180.32"/>
</g>
<!-- Node8 -->
<g id="node8" class="node">
<title>Node8</title>
<g id="a_node8"><a xlink:href="class_j_k_q_t_p_x_y_parametrized_error_scatter_graph.html" target="_top" xlink:title="This implements xy scatter plots (like JKQTPXYLineGraph), but the color and size of the symbols may b...">
<polygon fill="none" stroke="black" points="402,-134.5 402,-168.5 580,-168.5 580,-134.5 402,-134.5"/>
<text text-anchor="start" x="410" y="-154.9" font-family="Helvetica,sans-Serif" font-size="12.00">JKQTPXYParametrizedError</text>
<text text-anchor="middle" x="491" y="-141.9" font-family="Helvetica,sans-Serif" font-size="12.00">ScatterGraph</text>
</a>
</g>
</g>
<!-- Node6&#45;&gt;Node8 -->
<g id="edge7" class="edge">
<title>Node6&#45;&gt;Node8</title>
<path fill="none" stroke="midnightblue" d="M365.06,-165.59C377.11,-164.23 389.61,-162.82 401.84,-161.44"/>
<polygon fill="midnightblue" stroke="midnightblue" points="364.61,-162.11 355.07,-166.71 365.39,-169.07 364.61,-162.11"/>
</g>
<!-- Node10 -->
<g id="node10" class="node">
<title>Node10</title>
<g id="a_node10"><a xlink:href="class_j_k_q_t_p_bar_vertical_error_graph.html" target="_top" xlink:title="This implements a bar graph with bars starting at &#160;to &#160;and error indicator.">
<polygon fill="none" stroke="black" points="398.5,-94 398.5,-115 583.5,-115 583.5,-94 398.5,-94"/>
<text text-anchor="middle" x="491" y="-101.4" font-family="Helvetica,sans-Serif" font-size="12.00">JKQTPBarVerticalErrorGraph</text>
</a>
</g>
</g>
<!-- Node9&#45;&gt;Node10 -->
<g id="edge9" class="edge">
<title>Node9&#45;&gt;Node10</title>
<path fill="none" stroke="midnightblue" d="M360.67,-91.82C372.91,-93.02 385.71,-94.28 398.29,-95.51"/>
<polygon fill="midnightblue" stroke="midnightblue" points="360.84,-88.32 350.55,-90.83 360.16,-95.29 360.84,-88.32"/>
</g>
<!-- Node11 -->
<g id="node11" class="node">
<title>Node11</title>
<g id="a_node11"><a xlink:href="class_j_k_q_t_p_filled_curve_x_error_graph.html" target="_top" xlink:title="This implements filled curve plots with y errors where the area is filled between the plot line and t...">
<polygon fill="none" stroke="black" points="395,-54 395,-75 587,-75 587,-54 395,-54"/>
<text text-anchor="middle" x="491" y="-61.4" font-family="Helvetica,sans-Serif" font-size="12.00">JKQTPFilledCurveXErrorGraph</text>
</a>
</g>
</g>
<!-- Node9&#45;&gt;Node11 -->
<g id="edge10" class="edge">
<title>Node9&#45;&gt;Node11</title>
<path fill="none" stroke="midnightblue" d="M360.64,-77.18C371.8,-76.09 383.43,-74.95 394.94,-73.82"/>
<polygon fill="midnightblue" stroke="midnightblue" points="360.16,-73.71 350.55,-78.17 360.84,-80.68 360.16,-73.71"/>
</g>
<!-- Node12 -->
<g id="node12" class="node">
<title>Node12</title>
<g id="a_node12"><a xlink:href="class_j_k_q_t_p_impulses_vertical_error_graph.html" target="_top" xlink:title="This implements an impulse plot with impulses in direction of the X axis (i.e. from x=0 to x=f(y) )">
<polygon fill="none" stroke="black" points="401,-0.5 401,-34.5 581,-34.5 581,-0.5 401,-0.5"/>
<text text-anchor="start" x="409" y="-20.9" font-family="Helvetica,sans-Serif" font-size="12.00">JKQTPImpulsesVerticalError</text>
<text text-anchor="middle" x="491" y="-7.9" font-family="Helvetica,sans-Serif" font-size="12.00">Graph</text>
</a>
</g>
</g>
<!-- Node9&#45;&gt;Node12 -->
<g id="edge11" class="edge">
<title>Node9&#45;&gt;Node12</title>
<path fill="none" stroke="midnightblue" d="M321.08,-70.15C341.34,-62.11 367.41,-52.19 391,-44.5 401.59,-41.05 412.9,-37.67 423.97,-34.54"/>
<polygon fill="midnightblue" stroke="midnightblue" points="319.62,-66.96 311.64,-73.93 322.22,-73.46 319.62,-66.96"/>
</g>
</g>
</svg>
        <g id="navigator" transform="translate(0 0)" fill="#404254">
                <rect fill="#f2f5e9" fill-opacity="0.5" stroke="#606060" stroke-width=".5" x="0" y="0" width="60" height="60"/>
                <use id="zoomplus" xlink:href="#zoomPlus" x="17" y="9" onmousedown="handleZoom(evt,'in')"/>
                <use id="zoomminus" xlink:href="#zoomMin" x="42" y="9" onmousedown="handleZoom(evt,'out')"/>
                <use id="reset" xlink:href="#resetDef" x="30" y="36" onmousedown="handleReset()"/>
                <g id="arrowUp" xlink:href="#dirArrow" transform="translate(30 24)" onmousedown="handlePan(0,-1)">
                  <use xlink:href="#rim" fill="#404040">
                        <set attributeName="fill" to="#808080" begin="arrowUp.mouseover" end="arrowUp.mouseout"/>
                  </use>
                  <path fill="none" stroke="white" stroke-width="1.5" d="M0,-3.0v7 M-2.5,-0.5L0,-3.0L2.5,-0.5"/>
                </g>
                <g id="arrowRight" xlink:href="#dirArrow" transform="rotate(90) translate(36 -43)" onmousedown="handlePan(1,0)">
                  <use xlink:href="#rim" fill="#404040">
                        <set attributeName="fill" to="#808080" begin="arrowRight.mouseover" end="arrowRight.mouseout"/>
                  </use>
                  <path fill="none" stroke="white" stroke-width="1.5" d="M0,-3.0v7 M-2.5,-0.5L0,-3.0L2.5,-0.5"/>
                </g>
                <g id="arrowDown" xlink:href="#dirArrow" transform="rotate(180) translate(-30 -48)" onmousedown="handlePan(0,1)">
                  <use xlink:href="#rim" fill="#404040">
                        <set attributeName="fill" to="#808080" begin="arrowDown.mouseover" end="arrowDown.mouseout"/>
                  </use>
                  <path fill="none" stroke="white" stroke-width="1.5" d="M0,-3.0v7 M-2.5,-0.5L0,-3.0L2.5,-0.5"/>
                </g>
                <g id="arrowLeft" xlink:href="#dirArrow" transform="rotate(270) translate(-36 17)" onmousedown="handlePan(-1,0)">
                  <use xlink:href="#rim" fill="#404040">
                        <set attributeName="fill" to="#808080" begin="arrowLeft.mouseover" end="arrowLeft.mouseout"/>
                  </use>
                  <path fill="none" stroke="white" stroke-width="1.5" d="M0,-3.0v7 M-2.5,-0.5L0,-3.0L2.5,-0.5"/>
                </g>
        </g>
        <svg viewBox="0 0 15 15" width="100%" height="30px" preserveAspectRatio="xMaxYMin meet">
         <g id="arrow_out" transform="scale(0.3 0.3)">
          <a xlink:href="class_j_k_q_t_p_graph_error_style_mixin__inherit__graph_org.svg" target="_base">
           <rect id="button" ry="5" rx="5" y="6" x="6" height="38" width="38"
                fill="#f2f5e9" fill-opacity="0.5" stroke="#606060" stroke-width="1.0"/>
           <path id="arrow"
             d="M 11.500037,31.436501 C 11.940474,20.09759 22.043105,11.32322 32.158766,21.979434 L 37.068811,17.246167 C 37.068811,17.246167 37.088388,32 37.088388,32 L 22.160133,31.978069 C 22.160133,31.978069 26.997745,27.140456 26.997745,27.140456 C 18.528582,18.264221 13.291696,25.230495 11.500037,31.436501 z"
             style="fill:#404040;"/>
          </a>
         </g>
        </svg>
</svg>
