<?xml version="1.0" encoding="UTF-8" standalone="no"?>
<!DOCTYPE svg PUBLIC "-//W3C//DTD SVG 1.1//EN"
 "http://www.w3.org/Graphics/SVG/1.1/DTD/svg11.dtd">
<!-- Generated by graphviz version 2.43.0 (0)
 -->
<!-- Title: JKQTPColorPaletteStyleAndToolsMixin Pages: 1 -->
<!--zoomable 496 -->
<svg id="main" version="1.1" xmlns="http://www.w3.org/2000/svg" xmlns:xlink="http://www.w3.org/1999/xlink" xml:space="preserve" onload="init(evt)">
<style type="text/css"><![CDATA[
.edge:hover path { stroke: red; }
.edge:hover polygon { stroke: red; fill: red; }
]]></style>
<script type="text/javascript"><![CDATA[
var edges = document.getElementsByTagName('g');
if (edges && edges.length) {
  for (var i=0;i<edges.length;i++) {
    if (edges[i].id.substr(0,4)=='edge') {
      edges[i].setAttribute('class','edge');
    }
  }
}
]]></script>
        <defs>
                <circle id="rim" cx="0" cy="0" r="7"/>
                <circle id="rim2" cx="0" cy="0" r="3.5"/>
                <g id="zoomPlus">
                        <use xlink:href="#rim" fill="#404040">
                                <set attributeName="fill" to="#808080" begin="zoomplus.mouseover" end="zoomplus.mouseout"/>
                        </use>
                        <path d="M-4,0h8M0,-4v8" fill="none" stroke="white" stroke-width="1.5" pointer-events="none"/>
                </g>
                <g id="zoomMin">
                        <use xlink:href="#rim" fill="#404040">
                                <set attributeName="fill" to="#808080" begin="zoomminus.mouseover" end="zoomminus.mouseout"/>
                        </use>
                        <path d="M-4,0h8" fill="none" stroke="white" stroke-width="1.5" pointer-events="none"/>
                </g>
                <g id="dirArrow">
                        <path fill="none" stroke="white" stroke-width="1.5" d="M0,-3.0v7 M-2.5,-0.5L0,-3.0L2.5,-0.5"/>
                </g>
               <g id="resetDef">
                       <use xlink:href="#rim2" fill="#404040">
                               <set attributeName="fill" to="#808080" begin="reset.mouseover" end="reset.mouseout"/>
                       </use>
               </g>
        </defs>

<script type="text/javascript">
var viewWidth = 3135;
var viewHeight = 496;
var sectionId = 'dynsection-1';
</script>
<script xlink:href="svgpan.js"/>
<svg id="graph" class="graph">
<g id="viewport">
<title>JKQTPColorPaletteStyleAndToolsMixin</title>
<!-- Node1 -->
<g id="node1" class="node">
<title>Node1</title>
<g id="a_node1"><a xlink:title="if a class is derived from this class, it may use color bars">
<polygon fill="#bfbfbf" stroke="black" points="2960,-306.17 2960,-340.17 3127,-340.17 3127,-306.17 2960,-306.17"/>
<text text-anchor="start" x="2968" y="-326.57" font-family="FreeSans" font-size="12.00">JKQTPColorPaletteStyleAnd</text>
<text text-anchor="middle" x="3043.5" y="-313.57" font-family="FreeSans" font-size="12.00">ToolsMixin</text>
</a>
</g>
</g>
<!-- Node2 -->
<g id="node2" class="node">
<title>Node2</title>
<g id="a_node2"><a xlink:href="class_j_k_q_t_base_plotter.html" target="_top" xlink:title="base class for 2D plotter classes (used by the plotter widget JKQTPlotter)">
<polygon fill="none" stroke="black" points="1964,-264.67 1964,-285.67 2073,-285.67 2073,-264.67 1964,-264.67"/>
<text text-anchor="middle" x="2018.5" y="-272.07" font-family="FreeSans" font-size="12.00">JKQTBasePlotter</text>
</a>
</g>
</g>
<!-- Node2&#45;&gt;Node1 -->
<g id="edge1" class="edge">
<title>Node2&#45;&gt;Node1</title>
<path fill="none" stroke="#9a32cd" stroke-dasharray="5,2" d="M2051.51,-260.57C2066.79,-254.21 2085.52,-247.28 2103,-243.17 2197.32,-220.96 2223.1,-222.17 2320,-222.17 2320,-222.17 2320,-222.17 2726,-222.17 2835.01,-222.17 2955.57,-277.22 3011.21,-306.03"/>
<polygon fill="#9a32cd" stroke="#9a32cd" points="2049.83,-257.48 2042.01,-264.63 2052.58,-263.92 2049.83,-257.48"/>
<text text-anchor="middle" x="2521.5" y="-225.57" font-family="FreeSans" font-size="12.00"> cbParent</text>
</g>
<!-- Node2&#45;&gt;Node2 -->
<g id="edge38" class="edge">
<title>Node2&#45;&gt;Node2</title>
<path fill="none" stroke="#9a32cd" stroke-dasharray="5,2" d="M1994.91,-295.59C1996.73,-300.52 2004.59,-304.17 2018.5,-304.17 2040.75,-304.17 2047.53,-294.82 2038.84,-285.88"/>
<polygon fill="#9a32cd" stroke="#9a32cd" points="1998.31,-296.47 1998.16,-285.88 1991.67,-294.25 1998.31,-296.47"/>
<text text-anchor="middle" x="2018.5" y="-320.57" font-family="FreeSans" font-size="12.00"> masterPlotterX</text>
<text text-anchor="middle" x="2018.5" y="-307.57" font-family="FreeSans" font-size="12.00">masterPlotterY</text>
</g>
<!-- Node16 -->
<g id="node16" class="node">
<title>Node16</title>
<g id="a_node16"><a xlink:href="class_j_k_q_t_p_graphs_model.html" target="_top" xlink:title="data model with all plots ina JKQTBasePlotter (+ allows to switch them visible/invisible)">
<polygon fill="none" stroke="black" points="2257,-250.67 2257,-271.67 2385,-271.67 2385,-250.67 2257,-250.67"/>
<text text-anchor="middle" x="2321" y="-258.07" font-family="FreeSans" font-size="12.00">JKQTPGraphsModel</text>
</a>
</g>
</g>
<!-- Node2&#45;&gt;Node16 -->
<g id="edge24" class="edge">
<title>Node2&#45;&gt;Node16</title>
<path fill="none" stroke="#9a32cd" stroke-dasharray="5,2" d="M2059.98,-261.67C2073.5,-257.79 2088.75,-254.09 2103,-252.17 2154.38,-245.22 2213.17,-248.33 2256.58,-252.7"/>
<polygon fill="#9a32cd" stroke="#9a32cd" points="2058.6,-258.42 2050.02,-264.64 2060.6,-265.13 2058.6,-258.42"/>
<text text-anchor="middle" x="2154.5" y="-255.57" font-family="FreeSans" font-size="12.00"> m_plotter</text>
</g>
<!-- Node19 -->
<g id="node19" class="node">
<title>Node19</title>
<g id="a_node19"><a xlink:href="class_j_k_q_t_p_coordinate_axis.html" target="_top" xlink:title="this virtual class is the base for any type of coordinate axis, to be drawn by JKQTBasePlotter.">
<polygon fill="none" stroke="black" points="2252.5,-407.67 2252.5,-428.67 2389.5,-428.67 2389.5,-407.67 2252.5,-407.67"/>
<text text-anchor="middle" x="2321" y="-415.07" font-family="FreeSans" font-size="12.00">JKQTPCoordinateAxis</text>
</a>
</g>
</g>
<!-- Node2&#45;&gt;Node19 -->
<g id="edge28" class="edge">
<title>Node2&#45;&gt;Node19</title>
<path fill="none" stroke="#9a32cd" stroke-dasharray="5,2" d="M2040.69,-292.2C2054.62,-304.22 2072.52,-321.3 2085,-339.17 2096.17,-355.15 2087.63,-367.17 2103,-379.17 2109,-383.85 2191.25,-397.76 2252.73,-407.63"/>
<polygon fill="#9a32cd" stroke="#9a32cd" points="2042.92,-289.5 2033.01,-285.74 2038.41,-294.86 2042.92,-289.5"/>
<text text-anchor="middle" x="2154.5" y="-402.57" font-family="FreeSans" font-size="12.00"> parent</text>
</g>
<!-- Node3 -->
<g id="node3" class="node">
<title>Node3</title>
<g id="a_node3"><a xlink:title=" ">
<polygon fill="none" stroke="black" points="1414,-341.67 1414,-362.67 1476,-362.67 1476,-341.67 1414,-341.67"/>
<text text-anchor="middle" x="1445" y="-349.07" font-family="FreeSans" font-size="12.00">QObject</text>
</a>
</g>
</g>
<!-- Node3&#45;&gt;Node2 -->
<g id="edge2" class="edge">
<title>Node3&#45;&gt;Node2</title>
<path fill="none" stroke="midnightblue" d="M1486.11,-346.74C1558.17,-337 1714.28,-315.89 1846,-298.17 1885.45,-292.86 1930,-286.89 1963.81,-282.36"/>
<polygon fill="midnightblue" stroke="midnightblue" points="1485.55,-343.29 1476.11,-348.09 1486.48,-350.22 1485.55,-343.29"/>
</g>
<!-- Node14 -->
<g id="node14" class="node">
<title>Node14</title>
<g id="a_node14"><a xlink:href="class_j_k_q_t_math_text.html" target="_top" xlink:title="this class parses a LaTeX string and can then draw the contained text/equation onto a QPainter">
<polygon fill="none" stroke="black" points="1711.5,-341.67 1711.5,-362.67 1809.5,-362.67 1809.5,-341.67 1711.5,-341.67"/>
<text text-anchor="middle" x="1760.5" y="-349.07" font-family="FreeSans" font-size="12.00">JKQTMathText</text>
</a>
</g>
</g>
<!-- Node3&#45;&gt;Node14 -->
<g id="edge18" class="edge">
<title>Node3&#45;&gt;Node14</title>
<path fill="none" stroke="midnightblue" d="M1486.23,-352.17C1543.8,-352.17 1649.53,-352.17 1711.24,-352.17"/>
<polygon fill="midnightblue" stroke="midnightblue" points="1486.06,-348.67 1476.06,-352.17 1486.06,-355.67 1486.06,-348.67"/>
</g>
<!-- Node3&#45;&gt;Node19 -->
<g id="edge27" class="edge">
<title>Node3&#45;&gt;Node19</title>
<path fill="none" stroke="midnightblue" d="M1486.38,-357.59C1506.66,-360.26 1531.62,-363.48 1554,-366.17 1730.7,-387.39 1774.49,-397.44 1952,-410.17 2018.98,-414.97 2035.87,-413.59 2103,-415.17 2152.91,-416.34 2209.29,-417.1 2252.07,-417.56"/>
<polygon fill="midnightblue" stroke="midnightblue" points="1486.61,-354.09 1476.24,-356.24 1485.69,-361.03 1486.61,-354.09"/>
</g>
<!-- Node4 -->
<g id="node4" class="node">
<title>Node4</title>
<g id="a_node4"><a xlink:href="class_j_k_q_t_base_plotter_style.html" target="_top" xlink:title="Support Class for JKQTBasePlotter, which summarizes all properties that define the visual styling of ...">
<polygon fill="none" stroke="black" points="1693,-211.67 1693,-232.67 1828,-232.67 1828,-211.67 1693,-211.67"/>
<text text-anchor="middle" x="1760.5" y="-219.07" font-family="FreeSans" font-size="12.00">JKQTBasePlotterStyle</text>
</a>
</g>
</g>
<!-- Node4&#45;&gt;Node2 -->
<g id="edge3" class="edge">
<title>Node4&#45;&gt;Node2</title>
<path fill="none" stroke="#9a32cd" stroke-dasharray="5,2" d="M1827.32,-234.67C1859.53,-240.91 1898.84,-248.7 1934,-256.17 1946.36,-258.79 1959.72,-261.77 1972.05,-264.57"/>
<polygon fill="#9a32cd" stroke="#9a32cd" points="1827.61,-231.17 1817.13,-232.71 1826.28,-238.04 1827.61,-231.17"/>
<text text-anchor="middle" x="1890" y="-259.57" font-family="FreeSans" font-size="12.00"> plotterStyle</text>
</g>
<!-- Node5 -->
<g id="node5" class="node">
<title>Node5</title>
<g id="a_node5"><a xlink:href="class_j_k_q_t_p_key_style.html" target="_top" xlink:title="Support Class for JKQTBasePlotter, which summarizes all properties that define the visual styling of ...">
<polygon fill="none" stroke="black" points="1393.5,-266.67 1393.5,-287.67 1496.5,-287.67 1496.5,-266.67 1393.5,-266.67"/>
<text text-anchor="middle" x="1445" y="-274.07" font-family="FreeSans" font-size="12.00">JKQTPKeyStyle</text>
</a>
</g>
</g>
<!-- Node5&#45;&gt;Node4 -->
<g id="edge4" class="edge">
<title>Node5&#45;&gt;Node4</title>
<path fill="none" stroke="#9a32cd" stroke-dasharray="5,2" d="M1506.71,-265.05C1522.12,-262.06 1538.66,-258.93 1554,-256.17 1600.27,-247.84 1652.54,-239.21 1692.78,-232.72"/>
<polygon fill="#9a32cd" stroke="#9a32cd" points="1505.91,-261.64 1496.77,-266.99 1507.25,-268.51 1505.91,-261.64"/>
<text text-anchor="middle" x="1614.5" y="-259.57" font-family="FreeSans" font-size="12.00"> keyStyle</text>
</g>
<!-- Node6 -->
<g id="node6" class="node">
<title>Node6</title>
<g id="a_node6"><a xlink:href="class_j_k_q_t_p_coordinate_axis_style.html" target="_top" xlink:title="Support Class for JKQTPCoordinateAxis, which summarizes all properties that define the visual styling...">
<polygon fill="none" stroke="black" points="1060,-211.67 1060,-232.67 1224,-232.67 1224,-211.67 1060,-211.67"/>
<text text-anchor="middle" x="1142" y="-219.07" font-family="FreeSans" font-size="12.00">JKQTPCoordinateAxisStyle</text>
</a>
</g>
</g>
<!-- Node6&#45;&gt;Node4 -->
<g id="edge5" class="edge">
<title>Node6&#45;&gt;Node4</title>
<path fill="none" stroke="#9a32cd" stroke-dasharray="5,2" d="M1234.57,-222.17C1359.91,-222.17 1581.95,-222.17 1692.74,-222.17"/>
<polygon fill="#9a32cd" stroke="#9a32cd" points="1234.23,-218.67 1224.23,-222.17 1234.23,-225.67 1234.23,-218.67"/>
<text text-anchor="middle" x="1445" y="-238.57" font-family="FreeSans" font-size="12.00"> xAxisStyle</text>
<text text-anchor="middle" x="1445" y="-225.57" font-family="FreeSans" font-size="12.00">yAxisStyle</text>
</g>
<!-- Node8 -->
<g id="node8" class="node">
<title>Node8</title>
<g id="a_node8"><a xlink:href="class_j_k_q_t_p_colorbar_coordinate_axis_style.html" target="_top" xlink:title="Support Class for JKQTPCoordinateAxis, which summarizes all properties that define the visual styling...">
<polygon fill="none" stroke="black" points="1354,-151.17 1354,-185.17 1536,-185.17 1536,-151.17 1354,-151.17"/>
<text text-anchor="start" x="1362" y="-171.57" font-family="FreeSans" font-size="12.00">JKQTPColorbarCoordinateAxis</text>
<text text-anchor="middle" x="1445" y="-158.57" font-family="FreeSans" font-size="12.00">Style</text>
</a>
</g>
</g>
<!-- Node6&#45;&gt;Node8 -->
<g id="edge8" class="edge">
<title>Node6&#45;&gt;Node8</title>
<path fill="none" stroke="midnightblue" d="M1211.65,-209.85C1253.83,-202.28 1308.35,-192.5 1353.98,-184.32"/>
<polygon fill="midnightblue" stroke="midnightblue" points="1210.98,-206.42 1201.75,-211.63 1212.21,-213.31 1210.98,-206.42"/>
</g>
<!-- Node6&#45;&gt;Node19 -->
<g id="edge29" class="edge">
<title>Node6&#45;&gt;Node19</title>
<path fill="none" stroke="#9a32cd" stroke-dasharray="5,2" d="M1153.48,-241.47C1187.13,-300.58 1298.83,-475.17 1444,-475.17 1444,-475.17 1444,-475.17 2019.5,-475.17 2118,-475.17 2231.53,-445.24 2286.59,-428.76"/>
<polygon fill="#9a32cd" stroke="#9a32cd" points="1156.52,-239.74 1148.59,-232.72 1150.41,-243.15 1156.52,-239.74"/>
<text text-anchor="middle" x="1760.5" y="-478.57" font-family="FreeSans" font-size="12.00"> axisStyle</text>
</g>
<!-- Node7 -->
<g id="node7" class="node">
<title>Node7</title>
<g id="a_node7"><a xlink:href="class_j_k_q_t_p_grid_style.html" target="_top" xlink:title="Support Class for JKQTPCoordinateAxis, and summarizes all properties that define the visual styling o...">
<polygon fill="none" stroke="black" points="783.5,-211.67 783.5,-232.67 887.5,-232.67 887.5,-211.67 783.5,-211.67"/>
<text text-anchor="middle" x="835.5" y="-219.07" font-family="FreeSans" font-size="12.00">JKQTPGridStyle</text>
</a>
</g>
</g>
<!-- Node7&#45;&gt;Node6 -->
<g id="edge6" class="edge">
<title>Node7&#45;&gt;Node6</title>
<path fill="none" stroke="#9a32cd" stroke-dasharray="5,2" d="M898.06,-222.17C944.67,-222.17 1009.11,-222.17 1059.91,-222.17"/>
<polygon fill="#9a32cd" stroke="#9a32cd" points="897.81,-218.67 887.81,-222.17 897.81,-225.67 897.81,-218.67"/>
<text text-anchor="middle" x="986.5" y="-238.57" font-family="FreeSans" font-size="12.00"> majorGridStyle</text>
<text text-anchor="middle" x="986.5" y="-225.57" font-family="FreeSans" font-size="12.00">minorGridStyle</text>
</g>
<!-- Node8&#45;&gt;Node4 -->
<g id="edge7" class="edge">
<title>Node8&#45;&gt;Node4</title>
<path fill="none" stroke="#9a32cd" stroke-dasharray="5,2" d="M1546.28,-166.09C1586.8,-167.36 1633.66,-171.54 1675,-182.17 1699.52,-188.47 1725.54,-201.95 1742.12,-211.51"/>
<polygon fill="#9a32cd" stroke="#9a32cd" points="1546.22,-162.58 1536.13,-165.82 1546.03,-169.58 1546.22,-162.58"/>
<text text-anchor="middle" x="1614.5" y="-198.57" font-family="FreeSans" font-size="12.00"> rightColorbarAxisStyle</text>
<text text-anchor="middle" x="1614.5" y="-185.57" font-family="FreeSans" font-size="12.00">topColorbarAxisStyle</text>
</g>
<!-- Node9 -->
<g id="node9" class="node">
<title>Node9</title>
<g id="a_node9"><a xlink:href="class_j_k_q_t_graphs_base_style.html" target="_top" xlink:title="Support Class for JKQTBasePlotter, which summarizes all properties that define the visual styling of ...">
<polygon fill="none" stroke="black" points="1374.5,-109.67 1374.5,-130.67 1515.5,-130.67 1515.5,-109.67 1374.5,-109.67"/>
<text text-anchor="middle" x="1445" y="-117.07" font-family="FreeSans" font-size="12.00">JKQTGraphsBaseStyle</text>
</a>
</g>
</g>
<!-- Node9&#45;&gt;Node4 -->
<g id="edge9" class="edge">
<title>Node9&#45;&gt;Node4</title>
<path fill="none" stroke="#9a32cd" stroke-dasharray="5,2" d="M1525.83,-114.13C1572.6,-114.33 1630.95,-121.38 1675,-149.17 1687.51,-157.06 1682.66,-166.58 1693,-177.17 1706.73,-191.23 1725.51,-203.45 1739.61,-211.6"/>
<polygon fill="#9a32cd" stroke="#9a32cd" points="1525.71,-110.63 1515.73,-114.19 1525.75,-117.63 1525.71,-110.63"/>
<text text-anchor="middle" x="1614.5" y="-152.57" font-family="FreeSans" font-size="12.00"> graphsStyle</text>
</g>
<!-- Node10 -->
<g id="node10" class="node">
<title>Node10</title>
<g id="a_node10"><a xlink:href="class_j_k_q_t_graphs_specific_style_properties.html" target="_top" xlink:title="Support Class for JKQTBasePlotter, which summarizes all properties that define the visual styling of ...">
<polygon fill="none" stroke="black" points="370,-57.67 370,-78.67 579,-78.67 579,-57.67 370,-57.67"/>
<text text-anchor="middle" x="474.5" y="-65.07" font-family="FreeSans" font-size="12.00">JKQTGraphsSpecificStyleProperties</text>
</a>
</g>
</g>
<!-- Node10&#45;&gt;Node9 -->
<g id="edge10" class="edge">
<title>Node10&#45;&gt;Node9</title>
<path fill="none" stroke="#9a32cd" stroke-dasharray="5,2" d="M589.14,-62.38C702.09,-57.8 880.23,-53.73 1034,-64.17 1122.61,-70.18 1144,-79.15 1232,-91.17 1279.48,-97.65 1332.94,-104.97 1374.3,-110.63"/>
<polygon fill="#9a32cd" stroke="#9a32cd" points="588.94,-58.88 579.09,-62.8 589.23,-65.88 588.94,-58.88"/>
<text text-anchor="middle" x="986.5" y="-119.57" font-family="FreeSans" font-size="12.00"> barchartStyle</text>
<text text-anchor="middle" x="986.5" y="-106.57" font-family="FreeSans" font-size="12.00">boxplotStyle</text>
<text text-anchor="middle" x="986.5" y="-93.57" font-family="FreeSans" font-size="12.00">defaultGraphStyle</text>
<text text-anchor="middle" x="986.5" y="-80.57" font-family="FreeSans" font-size="12.00">filledStyle</text>
<text text-anchor="middle" x="986.5" y="-67.57" font-family="FreeSans" font-size="12.00">impulseStyle</text>
</g>
<!-- Node12 -->
<g id="node12" class="node">
<title>Node12</title>
<g id="a_node12"><a xlink:href="class_j_k_q_t_geometric_specific_style_properties.html" target="_top" xlink:title="Support Class for JKQTBasePlotter, which summarizes all properties that define the visual styling of ...">
<polygon fill="none" stroke="black" points="750,-130.17 750,-164.17 921,-164.17 921,-130.17 750,-130.17"/>
<text text-anchor="start" x="758" y="-150.57" font-family="FreeSans" font-size="12.00">JKQTGeometricSpecificStyle</text>
<text text-anchor="middle" x="835.5" y="-137.57" font-family="FreeSans" font-size="12.00">Properties</text>
</a>
</g>
</g>
<!-- Node10&#45;&gt;Node12 -->
<g id="edge13" class="edge">
<title>Node10&#45;&gt;Node12</title>
<path fill="none" stroke="midnightblue" d="M533.35,-80.9C594.11,-94.27 689.98,-115.37 757.19,-130.16"/>
<polygon fill="midnightblue" stroke="midnightblue" points="534.06,-77.47 523.54,-78.74 532.56,-84.31 534.06,-77.47"/>
</g>
<!-- Node11 -->
<g id="node11" class="node">
<title>Node11</title>
<g id="a_node11"><a xlink:href="struct_j_k_q_t_p_color_derivation_mode.html" target="_top" xlink:title="Specifies how a fill&#45;color is derived from a given color.">
<polygon fill="none" stroke="black" points="0,-34.67 0,-55.67 168,-55.67 168,-34.67 0,-34.67"/>
<text text-anchor="middle" x="84" y="-42.07" font-family="FreeSans" font-size="12.00">JKQTPColorDerivationMode</text>
</a>
</g>
</g>
<!-- Node11&#45;&gt;Node10 -->
<g id="edge11" class="edge">
<title>Node11&#45;&gt;Node10</title>
<path fill="none" stroke="#9a32cd" stroke-dasharray="5,2" d="M178.55,-50.71C236.27,-54.12 310.37,-58.51 369.86,-62.03"/>
<polygon fill="#9a32cd" stroke="#9a32cd" points="178.53,-47.2 168.34,-50.1 178.12,-54.19 178.53,-47.2"/>
<text text-anchor="middle" x="269" y="-116.57" font-family="FreeSans" font-size="12.00"> errorColorDerivationMode</text>
<text text-anchor="middle" x="269" y="-103.57" font-family="FreeSans" font-size="12.00">errorFillColorDerivationMode</text>
<text text-anchor="middle" x="269" y="-90.57" font-family="FreeSans" font-size="12.00">fillColorDerivationMode</text>
<text text-anchor="middle" x="269" y="-77.57" font-family="FreeSans" font-size="12.00">graphColorDerivationMode</text>
<text text-anchor="middle" x="269" y="-64.57" font-family="FreeSans" font-size="12.00">symbolFillColorDerivationMode</text>
</g>
<!-- Node13 -->
<g id="node13" class="node">
<title>Node13</title>
<g id="a_node13"><a xlink:href="class_j_k_q_t_annotations_specific_style_properties.html" target="_top" xlink:title="Support Class for JKQTBasePlotter, which summarizes all properties that define the visual styling of ...">
<polygon fill="none" stroke="black" points="1052,-101.17 1052,-135.17 1232,-135.17 1232,-101.17 1052,-101.17"/>
<text text-anchor="start" x="1060" y="-121.57" font-family="FreeSans" font-size="12.00">JKQTAnnotationsSpecificStyle</text>
<text text-anchor="middle" x="1142" y="-108.57" font-family="FreeSans" font-size="12.00">Properties</text>
</a>
</g>
</g>
<!-- Node11&#45;&gt;Node13 -->
<g id="edge16" class="edge">
<title>Node11&#45;&gt;Node13</title>
<path fill="none" stroke="#9a32cd" stroke-dasharray="5,2" d="M156.61,-33.09C317.5,-8.7 718.24,36.6 1034,-56.17 1065.72,-65.49 1098,-86.03 1118.68,-100.92"/>
<polygon fill="#9a32cd" stroke="#9a32cd" points="155.71,-29.68 146.36,-34.66 156.77,-36.6 155.71,-29.68"/>
<text text-anchor="middle" x="664.5" y="-9.57" font-family="FreeSans" font-size="12.00"> textColorDerivationMode</text>
</g>
<!-- Node12&#45;&gt;Node9 -->
<g id="edge12" class="edge">
<title>Node12&#45;&gt;Node9</title>
<path fill="none" stroke="#9a32cd" stroke-dasharray="5,2" d="M931.39,-150.4C1032.15,-152.59 1195.87,-152.6 1336,-136.17 1349.37,-134.6 1363.63,-132.67 1377.25,-130.7"/>
<polygon fill="#9a32cd" stroke="#9a32cd" points="931.32,-146.9 921.24,-150.17 931.16,-153.89 931.32,-146.9"/>
<text text-anchor="middle" x="1142" y="-154.57" font-family="FreeSans" font-size="12.00"> geometricStyle</text>
</g>
<!-- Node12&#45;&gt;Node13 -->
<g id="edge15" class="edge">
<title>Node12&#45;&gt;Node13</title>
<path fill="none" stroke="midnightblue" d="M931.17,-141.78C963.8,-139.57 1000.54,-136.69 1034,-133.17 1039.78,-132.56 1045.73,-131.88 1051.73,-131.15"/>
<polygon fill="midnightblue" stroke="midnightblue" points="930.93,-138.29 921.19,-142.44 931.4,-145.27 930.93,-138.29"/>
</g>
<!-- Node13&#45;&gt;Node9 -->
<g id="edge14" class="edge">
<title>Node13&#45;&gt;Node9</title>
<path fill="none" stroke="#9a32cd" stroke-dasharray="5,2" d="M1242.34,-118.83C1285.52,-119.11 1335.07,-119.44 1374.25,-119.7"/>
<polygon fill="#9a32cd" stroke="#9a32cd" points="1242.11,-115.33 1232.09,-118.76 1242.06,-122.33 1242.11,-115.33"/>
<text text-anchor="middle" x="1293" y="-122.57" font-family="FreeSans" font-size="12.00"> annotationStyle</text>
</g>
<!-- Node14&#45;&gt;Node2 -->
<g id="edge17" class="edge">
<title>Node14&#45;&gt;Node2</title>
<path fill="none" stroke="#9a32cd" stroke-dasharray="5,2" d="M1806.17,-338.73C1856.31,-323.65 1936.63,-299.49 1982.45,-285.71"/>
<polygon fill="#9a32cd" stroke="#9a32cd" points="1805.13,-335.39 1796.56,-341.62 1807.14,-342.09 1805.13,-335.39"/>
<text text-anchor="middle" x="1890" y="-327.57" font-family="FreeSans" font-size="12.00"> mathText</text>
</g>
<!-- Node15 -->
<g id="node15" class="node">
<title>Node15</title>
<g id="a_node15"><a xlink:href="class_j_k_q_t_math_text_node.html" target="_top" xlink:title="subclass representing one node in the syntax tree">
<polygon fill="none" stroke="black" points="1954.5,-348.67 1954.5,-369.67 2082.5,-369.67 2082.5,-348.67 1954.5,-348.67"/>
<text text-anchor="middle" x="2018.5" y="-356.07" font-family="FreeSans" font-size="12.00">JKQTMathTextNode</text>
</a>
</g>
</g>
<!-- Node14&#45;&gt;Node15 -->
<g id="edge20" class="edge">
<title>Node14&#45;&gt;Node15</title>
<path fill="none" stroke="#9a32cd" stroke-dasharray="5,2" d="M1819.58,-348.93C1853.06,-347.63 1895.93,-346.9 1934,-349.17 1940.56,-349.56 1947.39,-350.12 1954.2,-350.78"/>
<polygon fill="#9a32cd" stroke="#9a32cd" points="1819.35,-345.44 1809.5,-349.36 1819.64,-352.43 1819.35,-345.44"/>
<text text-anchor="middle" x="1890" y="-352.57" font-family="FreeSans" font-size="12.00"> parentMathText</text>
</g>
<!-- Node15&#45;&gt;Node14 -->
<g id="edge19" class="edge">
<title>Node15&#45;&gt;Node14</title>
<path fill="none" stroke="#9a32cd" stroke-dasharray="5,2" d="M1944.2,-366.11C1913.78,-367.97 1878.15,-368.81 1846,-366.17 1834.14,-365.19 1821.45,-363.46 1809.59,-361.54"/>
<polygon fill="#9a32cd" stroke="#9a32cd" points="1944.55,-369.6 1954.3,-365.45 1944.09,-362.61 1944.55,-369.6"/>
<text text-anchor="middle" x="1890" y="-383.57" font-family="FreeSans" font-size="12.00"> parsedNode</text>
<text text-anchor="middle" x="1890" y="-370.57" font-family="FreeSans" font-size="12.00">unparsedNode</text>
</g>
<!-- Node15&#45;&gt;Node15 -->
<g id="edge21" class="edge">
<title>Node15&#45;&gt;Node15</title>
<path fill="none" stroke="#9a32cd" stroke-dasharray="5,2" d="M1994.91,-379.59C1996.73,-384.52 2004.59,-388.17 2018.5,-388.17 2040.75,-388.17 2047.53,-378.82 2038.84,-369.88"/>
<polygon fill="#9a32cd" stroke="#9a32cd" points="1998.31,-380.47 1998.16,-369.88 1991.67,-378.25 1998.31,-380.47"/>
<text text-anchor="middle" x="2018.5" y="-391.57" font-family="FreeSans" font-size="12.00"> parentNode</text>
</g>
<!-- Node16&#45;&gt;Node2 -->
<g id="edge22" class="edge">
<title>Node16&#45;&gt;Node2</title>
<path fill="none" stroke="#9a32cd" stroke-dasharray="5,2" d="M2246.52,-266.74C2233.05,-267.64 2219.11,-268.5 2206,-269.17 2161.35,-271.45 2110.65,-273.02 2073.39,-273.97"/>
<polygon fill="#9a32cd" stroke="#9a32cd" points="2246.97,-270.21 2256.71,-266.04 2246.5,-263.23 2246.97,-270.21"/>
<text text-anchor="middle" x="2154.5" y="-275.57" font-family="FreeSans" font-size="12.00"> m_plotsModel</text>
</g>
<!-- Node17 -->
<g id="node17" class="node">
<title>Node17</title>
<g id="a_node17"><a xlink:title=" ">
<polygon fill="none" stroke="black" points="1952,-186.67 1952,-207.67 2085,-207.67 2085,-186.67 1952,-186.67"/>
<text text-anchor="middle" x="2018.5" y="-194.07" font-family="FreeSans" font-size="12.00">QAbstractTableModel</text>
</a>
</g>
</g>
<!-- Node17&#45;&gt;Node16 -->
<g id="edge23" class="edge">
<title>Node17&#45;&gt;Node16</title>
<path fill="none" stroke="midnightblue" d="M2079.25,-209.89C2135.21,-221.81 2217.86,-239.41 2270.3,-250.58"/>
<polygon fill="midnightblue" stroke="midnightblue" points="2079.63,-206.4 2069.12,-207.74 2078.17,-213.24 2079.63,-206.4"/>
</g>
<!-- Node18 -->
<g id="node18" class="node">
<title>Node18</title>
<g id="a_node18"><a xlink:href="class_j_k_q_t_p_horizontal_axis.html" target="_top" xlink:title="implements a horizontal axis, based on JKQTPCoordinateAxis (for most of documentation: see JKQTPCoord...">
<polygon fill="none" stroke="black" points="2455,-357.67 2455,-378.67 2588,-378.67 2588,-357.67 2455,-357.67"/>
<text text-anchor="middle" x="2521.5" y="-365.07" font-family="FreeSans" font-size="12.00">JKQTPHorizontalAxis</text>
</a>
</g>
</g>
<!-- Node18&#45;&gt;Node2 -->
<g id="edge25" class="edge">
<title>Node18&#45;&gt;Node2</title>
<path fill="none" stroke="#9a32cd" stroke-dasharray="5,2" d="M2444.75,-364.17C2359.94,-358.12 2219.17,-343.34 2103,-308.17 2082.41,-301.93 2059.76,-292.83 2043.24,-285.76"/>
<polygon fill="#9a32cd" stroke="#9a32cd" points="2444.59,-367.67 2454.81,-364.87 2445.08,-360.68 2444.59,-367.67"/>
<text text-anchor="middle" x="2321" y="-364.57" font-family="FreeSans" font-size="12.00"> xAxis</text>
</g>
<!-- Node27 -->
<g id="node27" class="node">
<title>Node27</title>
<g id="a_node27"><a xlink:href="class_j_k_q_t_p_horizontal_independent_axis.html" target="_top" xlink:title="implements a position&#45;indipendent horizontal axis, based on JKQTPCoordinateAxis (for most of document...">
<polygon fill="none" stroke="black" points="2625,-354.67 2625,-375.67 2825,-375.67 2825,-354.67 2625,-354.67"/>
<text text-anchor="middle" x="2725" y="-362.07" font-family="FreeSans" font-size="12.00">JKQTPHorizontalIndependentAxis</text>
</a>
</g>
</g>
<!-- Node18&#45;&gt;Node27 -->
<g id="edge42" class="edge">
<title>Node18&#45;&gt;Node27</title>
<path fill="none" stroke="midnightblue" d="M2598.24,-367.04C2606.91,-366.91 2615.84,-366.78 2624.76,-366.65"/>
<polygon fill="midnightblue" stroke="midnightblue" points="2598.15,-363.54 2588.2,-367.19 2598.25,-370.54 2598.15,-363.54"/>
</g>
<!-- Node19&#45;&gt;Node18 -->
<g id="edge26" class="edge">
<title>Node19&#45;&gt;Node18</title>
<path fill="none" stroke="midnightblue" d="M2399.57,-411.8C2412.2,-409.89 2425.05,-407.4 2437,-404.17 2459.55,-398.07 2483.94,-386.99 2500.5,-378.73"/>
<polygon fill="midnightblue" stroke="midnightblue" points="2398.93,-408.36 2389.51,-413.21 2399.9,-415.29 2398.93,-408.36"/>
</g>
<!-- Node20 -->
<g id="node20" class="node">
<title>Node20</title>
<g id="a_node20"><a xlink:href="class_j_k_q_t_p_vertical_axis.html" target="_top" xlink:title="implements a vertical axis, based on JKQTPCoordinateAxis (for most of documentation: see JKQTPCoordin...">
<polygon fill="none" stroke="black" points="2462.5,-312.67 2462.5,-333.67 2580.5,-333.67 2580.5,-312.67 2462.5,-312.67"/>
<text text-anchor="middle" x="2521.5" y="-320.07" font-family="FreeSans" font-size="12.00">JKQTPVerticalAxis</text>
</a>
</g>
</g>
<!-- Node19&#45;&gt;Node20 -->
<g id="edge31" class="edge">
<title>Node19&#45;&gt;Node20</title>
<path fill="none" stroke="midnightblue" d="M2375.71,-404.48C2390.05,-399.57 2405.13,-393.21 2418,-385.17 2437.73,-372.85 2435.48,-360.82 2455,-348.17 2464.09,-342.28 2474.78,-337.46 2484.85,-333.68"/>
<polygon fill="midnightblue" stroke="midnightblue" points="2374.37,-401.24 2365.93,-407.65 2376.53,-407.89 2374.37,-401.24"/>
</g>
<!-- Node20&#45;&gt;Node2 -->
<g id="edge30" class="edge">
<title>Node20&#45;&gt;Node2</title>
<path fill="none" stroke="#9a32cd" stroke-dasharray="5,2" d="M2452.22,-319.39C2369.39,-314.4 2225.62,-304.41 2103,-289.17 2093.37,-287.97 2083.16,-286.46 2073.3,-284.88"/>
<polygon fill="#9a32cd" stroke="#9a32cd" points="2452.06,-322.89 2462.26,-319.99 2452.48,-315.9 2452.06,-322.89"/>
<text text-anchor="middle" x="2321" y="-320.57" font-family="FreeSans" font-size="12.00"> yAxis</text>
</g>
<!-- Node26 -->
<g id="node26" class="node">
<title>Node26</title>
<g id="a_node26"><a xlink:href="class_j_k_q_t_p_vertical_independent_axis.html" target="_top" xlink:title="implements a position&#45;indipendent vertical axis, based on JKQTPCoordinateAxis (for most of documentat...">
<polygon fill="none" stroke="black" points="2632.5,-312.67 2632.5,-333.67 2817.5,-333.67 2817.5,-312.67 2632.5,-312.67"/>
<text text-anchor="middle" x="2725" y="-320.07" font-family="FreeSans" font-size="12.00">JKQTPVerticalIndependentAxis</text>
</a>
</g>
</g>
<!-- Node20&#45;&gt;Node26 -->
<g id="edge40" class="edge">
<title>Node20&#45;&gt;Node26</title>
<path fill="none" stroke="midnightblue" d="M2590.56,-323.17C2603.95,-323.17 2618.21,-323.17 2632.23,-323.17"/>
<polygon fill="midnightblue" stroke="midnightblue" points="2590.51,-319.67 2580.51,-323.17 2590.51,-326.67 2590.51,-319.67"/>
</g>
<!-- Node21 -->
<g id="node21" class="node">
<title>Node21</title>
<g id="a_node21"><a xlink:href="class_j_k_q_t_p_datastore.html" target="_top" xlink:title="This class manages data columns (with entries of type double ), used by JKQTPlotter/JKQTBasePlotter t...">
<polygon fill="none" stroke="black" points="1707,-146.67 1707,-167.67 1814,-167.67 1814,-146.67 1707,-146.67"/>
<text text-anchor="middle" x="1760.5" y="-154.07" font-family="FreeSans" font-size="12.00">JKQTPDatastore</text>
</a>
</g>
</g>
<!-- Node21&#45;&gt;Node2 -->
<g id="edge32" class="edge">
<title>Node21&#45;&gt;Node2</title>
<path fill="none" stroke="#9a32cd" stroke-dasharray="5,2" d="M1806.4,-170.83C1841.89,-182.33 1892.24,-200.23 1934,-221.17 1959.62,-234.01 1987.12,-252.9 2003.29,-264.6"/>
<polygon fill="#9a32cd" stroke="#9a32cd" points="1807.4,-167.47 1796.8,-167.76 1805.26,-174.14 1807.4,-167.47"/>
<text text-anchor="middle" x="1890" y="-224.57" font-family="FreeSans" font-size="12.00"> datastore</text>
</g>
<!-- Node23 -->
<g id="node23" class="node">
<title>Node23</title>
<g id="a_node23"><a xlink:href="class_j_k_q_t_p_column.html" target="_top" xlink:title="internally stores information about one data column. See JKQTPDatastore for more information.">
<polygon fill="none" stroke="black" points="1970.5,-146.67 1970.5,-167.67 2066.5,-167.67 2066.5,-146.67 1970.5,-146.67"/>
<text text-anchor="middle" x="2018.5" y="-154.07" font-family="FreeSans" font-size="12.00">JKQTPColumn</text>
</a>
</g>
</g>
<!-- Node21&#45;&gt;Node23 -->
<g id="edge35" class="edge">
<title>Node21&#45;&gt;Node23</title>
<path fill="none" stroke="#9a32cd" stroke-dasharray="5,2" d="M1824.5,-157.17C1869.62,-157.17 1929.43,-157.17 1970.44,-157.17"/>
<polygon fill="#9a32cd" stroke="#9a32cd" points="1824.23,-153.67 1814.23,-157.17 1824.23,-160.67 1824.23,-153.67"/>
<text text-anchor="middle" x="1890" y="-160.57" font-family="FreeSans" font-size="12.00"> datastore</text>
</g>
<!-- Node22 -->
<g id="node22" class="node">
<title>Node22</title>
<g id="a_node22"><a xlink:title=" ">
<polygon fill="none" stroke="black" points="2224,-104.67 2224,-125.67 2418,-125.67 2418,-104.67 2224,-104.67"/>
<text text-anchor="middle" x="2321" y="-112.07" font-family="FreeSans" font-size="12.00">std::unique_ptr&lt; JKQTPColumn &gt;</text>
</a>
</g>
</g>
<!-- Node22&#45;&gt;Node21 -->
<g id="edge33" class="edge">
<title>Node22&#45;&gt;Node21</title>
<path fill="none" stroke="#9a32cd" stroke-dasharray="5,2" d="M2213.48,-113.64C2139.86,-113.6 2039.78,-115.54 1952,-124.17 1903.56,-128.93 1848.88,-138.88 1810.57,-146.62"/>
<polygon fill="#9a32cd" stroke="#9a32cd" points="2213.68,-117.14 2223.68,-113.66 2213.69,-110.14 2213.68,-117.14"/>
<text text-anchor="middle" x="2018.5" y="-127.57" font-family="FreeSans" font-size="12.00"> m_invalidColumn</text>
</g>
<!-- Node23&#45;&gt;Node22 -->
<g id="edge34" class="edge">
<title>Node23&#45;&gt;Node22</title>
<path fill="none" stroke="#9a32cd" stroke-dasharray="5,2" d="M2076.92,-149.14C2124.55,-142.49 2192.63,-132.97 2244.63,-125.7"/>
<polygon fill="#9a32cd" stroke="#9a32cd" points="2076.2,-145.71 2066.78,-150.56 2077.17,-152.64 2076.2,-145.71"/>
<text text-anchor="middle" x="2154.5" y="-147.57" font-family="FreeSans" font-size="12.00"> ptr</text>
</g>
<!-- Node24 -->
<g id="node24" class="node">
<title>Node24</title>
<g id="a_node24"><a xlink:title=" ">
<polygon fill="none" stroke="black" points="1957.5,-57.67 1957.5,-78.67 2079.5,-78.67 2079.5,-57.67 1957.5,-57.67"/>
<text text-anchor="middle" x="2018.5" y="-65.07" font-family="FreeSans" font-size="12.00">std::unique_ptr&lt; T &gt;</text>
</a>
</g>
</g>
<!-- Node24&#45;&gt;Node22 -->
<g id="edge36" class="edge">
<title>Node24&#45;&gt;Node22</title>
<path fill="none" stroke="orange" stroke-dasharray="5,2" d="M2089.95,-73.62C2124.98,-76.86 2167.88,-81.64 2206,-88.17 2231.16,-92.48 2259.05,-99.05 2280.94,-104.63"/>
<polygon fill="orange" stroke="orange" points="2090.09,-70.12 2079.82,-72.7 2089.46,-77.09 2090.09,-70.12"/>
<text text-anchor="middle" x="2154.5" y="-91.57" font-family="FreeSans" font-size="12.00"> &lt; JKQTPColumn &gt;</text>
</g>
<!-- Node25 -->
<g id="node25" class="node">
<title>Node25</title>
<g id="a_node25"><a xlink:title=" ">
<polygon fill="none" stroke="black" points="1746,-57.67 1746,-78.67 1775,-78.67 1775,-57.67 1746,-57.67"/>
<text text-anchor="middle" x="1760.5" y="-65.07" font-family="FreeSans" font-size="12.00">T</text>
</a>
</g>
</g>
<!-- Node25&#45;&gt;Node24 -->
<g id="edge37" class="edge">
<title>Node25&#45;&gt;Node24</title>
<path fill="none" stroke="#9a32cd" stroke-dasharray="5,2" d="M1785.61,-68.17C1824.6,-68.17 1902.65,-68.17 1957.39,-68.17"/>
<polygon fill="#9a32cd" stroke="#9a32cd" points="1785.26,-64.67 1775.26,-68.17 1785.26,-71.67 1785.26,-64.67"/>
<text text-anchor="middle" x="1890" y="-71.57" font-family="FreeSans" font-size="12.00"> ptr</text>
</g>
<!-- Node26&#45;&gt;Node1 -->
<g id="edge39" class="edge">
<title>Node26&#45;&gt;Node1</title>
<path fill="none" stroke="#9a32cd" stroke-dasharray="5,2" d="M2827.68,-323.17C2870.37,-323.17 2919.38,-323.17 2959.8,-323.17"/>
<polygon fill="#9a32cd" stroke="#9a32cd" points="2827.54,-319.67 2817.54,-323.17 2827.54,-326.67 2827.54,-319.67"/>
<text text-anchor="middle" x="2892.5" y="-326.57" font-family="FreeSans" font-size="12.00"> colorBarRightAxis</text>
</g>
<!-- Node27&#45;&gt;Node1 -->
<g id="edge41" class="edge">
<title>Node27&#45;&gt;Node1</title>
<path fill="none" stroke="#9a32cd" stroke-dasharray="5,2" d="M2835.1,-353.67C2869.37,-349.75 2907.3,-345.11 2942,-340.17 2947.78,-339.34 2953.74,-338.45 2959.74,-337.52"/>
<polygon fill="#9a32cd" stroke="#9a32cd" points="2834.61,-350.2 2825.07,-354.8 2835.4,-357.15 2834.61,-350.2"/>
<text text-anchor="middle" x="2892.5" y="-355.57" font-family="FreeSans" font-size="12.00"> colorBarTopAxis</text>
</g>
</g>
</svg>
        <g id="navigator" transform="translate(0 0)" fill="#404254">
                <rect fill="#f2f5e9" fill-opacity="0.5" stroke="#606060" stroke-width=".5" x="0" y="0" width="60" height="60"/>
                <use id="zoomplus" xlink:href="#zoomPlus" x="17" y="9" onmousedown="handleZoom(evt,'in')"/>
                <use id="zoomminus" xlink:href="#zoomMin" x="42" y="9" onmousedown="handleZoom(evt,'out')"/>
                <use id="reset" xlink:href="#resetDef" x="30" y="36" onmousedown="handleReset()"/>
                <g id="arrowUp" xlink:href="#dirArrow" transform="translate(30 24)" onmousedown="handlePan(0,-1)">
                  <use xlink:href="#rim" fill="#404040">
                        <set attributeName="fill" to="#808080" begin="arrowUp.mouseover" end="arrowUp.mouseout"/>
                  </use>
                  <path fill="none" stroke="white" stroke-width="1.5" d="M0,-3.0v7 M-2.5,-0.5L0,-3.0L2.5,-0.5"/>
                </g>
                <g id="arrowRight" xlink:href="#dirArrow" transform="rotate(90) translate(36 -43)" onmousedown="handlePan(1,0)">
                  <use xlink:href="#rim" fill="#404040">
                        <set attributeName="fill" to="#808080" begin="arrowRight.mouseover" end="arrowRight.mouseout"/>
                  </use>
                  <path fill="none" stroke="white" stroke-width="1.5" d="M0,-3.0v7 M-2.5,-0.5L0,-3.0L2.5,-0.5"/>
                </g>
                <g id="arrowDown" xlink:href="#dirArrow" transform="rotate(180) translate(-30 -48)" onmousedown="handlePan(0,1)">
                  <use xlink:href="#rim" fill="#404040">
                        <set attributeName="fill" to="#808080" begin="arrowDown.mouseover" end="arrowDown.mouseout"/>
                  </use>
                  <path fill="none" stroke="white" stroke-width="1.5" d="M0,-3.0v7 M-2.5,-0.5L0,-3.0L2.5,-0.5"/>
                </g>
                <g id="arrowLeft" xlink:href="#dirArrow" transform="rotate(270) translate(-36 17)" onmousedown="handlePan(-1,0)">
                  <use xlink:href="#rim" fill="#404040">
                        <set attributeName="fill" to="#808080" begin="arrowLeft.mouseover" end="arrowLeft.mouseout"/>
                  </use>
                  <path fill="none" stroke="white" stroke-width="1.5" d="M0,-3.0v7 M-2.5,-0.5L0,-3.0L2.5,-0.5"/>
                </g>
        </g>
        <svg viewBox="0 0 15 15" width="100%" height="30px" preserveAspectRatio="xMaxYMin meet">
         <g id="arrow_out" transform="scale(0.3 0.3)">
          <a xlink:href="class_j_k_q_t_p_color_palette_style_and_tools_mixin__coll__graph_org.svg" target="_base">
           <rect id="button" ry="5" rx="5" y="6" x="6" height="38" width="38"
                fill="#f2f5e9" fill-opacity="0.5" stroke="#606060" stroke-width="1.0"/>
           <path id="arrow"
             d="M 11.500037,31.436501 C 11.940474,20.09759 22.043105,11.32322 32.158766,21.979434 L 37.068811,17.246167 C 37.068811,17.246167 37.088388,32 37.088388,32 L 22.160133,31.978069 C 22.160133,31.978069 26.997745,27.140456 26.997745,27.140456 C 18.528582,18.264221 13.291696,25.230495 11.500037,31.436501 z"
             style="fill:#404040;"/>
          </a>
         </g>
        </svg>
</svg>
