<?xml version="1.0" encoding="UTF-8" standalone="no"?>
<!DOCTYPE svg PUBLIC "-//W3C//DTD SVG 1.1//EN"
 "http://www.w3.org/Graphics/SVG/1.1/DTD/svg11.dtd">
<!-- Generated by graphviz version 2.43.0 (0)
 -->
<!-- Title: JKQTPBarVerticalErrorGraph Pages: 1 -->
<svg width="3961pt" height="588pt"
 viewBox="0.00 0.00 3961.00 587.50" xmlns="http://www.w3.org/2000/svg" xmlns:xlink="http://www.w3.org/1999/xlink">
<g id="graph0" class="graph" transform="scale(1 1) rotate(0) translate(4 583.5)">
<title>JKQTPBarVerticalErrorGraph</title>
<!-- Node1 -->
<g id="node1" class="node">
<title>Node1</title>
<g id="a_node1"><a xlink:title="This implements a vertical bar graph with bars between &#160;and &#160;and error indicator.">
<polygon fill="#999999" stroke="#666666" points="3953,-90 3768,-90 3768,-69 3953,-69 3953,-90"/>
<text text-anchor="middle" x="3860.5" y="-76.4" font-family="Helvetica,sans-Serif" font-size="12.00">JKQTPBarVerticalErrorGraph</text>
</a>
</g>
</g>
<!-- Node2 -->
<g id="node2" class="node">
<title>Node2</title>
<g id="a_node2"><a xlink:href="class_j_k_q_t_p_bar_vertical_graph.html" target="_top" xlink:title="This implements a vertical bar graph with bars between &#160;and .">
<polygon fill="white" stroke="#666666" points="3731,-110 3576,-110 3576,-89 3731,-89 3731,-110"/>
<text text-anchor="middle" x="3653.5" y="-96.4" font-family="Helvetica,sans-Serif" font-size="12.00">JKQTPBarVerticalGraph</text>
</a>
</g>
</g>
<!-- Node2&#45;&gt;Node1 -->
<g id="edge1" class="edge">
<title>Node2&#45;&gt;Node1</title>
<path fill="none" stroke="#63b8ff" d="M3741.3,-91.03C3750.05,-90.18 3758.95,-89.31 3767.75,-88.45"/>
<polygon fill="#63b8ff" stroke="#63b8ff" points="3740.74,-87.57 3731.13,-92.02 3741.42,-94.54 3740.74,-87.57"/>
</g>
<!-- Node3 -->
<g id="node3" class="node">
<title>Node3</title>
<g id="a_node3"><a xlink:href="class_j_k_q_t_p_bar_graph_base.html" target="_top" xlink:title="This is a base&#45;class for all bar graphs with vertical or horizontal orientation (the orientation is i...">
<polygon fill="white" stroke="#666666" points="3519.5,-110 3379.5,-110 3379.5,-89 3519.5,-89 3519.5,-110"/>
<text text-anchor="middle" x="3449.5" y="-96.4" font-family="Helvetica,sans-Serif" font-size="12.00">JKQTPBarGraphBase</text>
</a>
</g>
</g>
<!-- Node3&#45;&gt;Node2 -->
<g id="edge2" class="edge">
<title>Node3&#45;&gt;Node2</title>
<path fill="none" stroke="#63b8ff" d="M3530.03,-99.5C3545.07,-99.5 3560.78,-99.5 3575.74,-99.5"/>
<polygon fill="#63b8ff" stroke="#63b8ff" points="3529.73,-96 3519.73,-99.5 3529.73,-103 3529.73,-96"/>
</g>
<!-- Node4 -->
<g id="node4" class="node">
<title>Node4</title>
<g id="a_node4"><a xlink:href="class_j_k_q_t_p_x_y_baseline_graph.html" target="_top" xlink:title="This virtual JKQTPGraph descendent extends JKQTPXYGraph adds a baseline&#45;property, which is necessary,...">
<polygon fill="white" stroke="#666666" points="3213.5,-292 3058.5,-292 3058.5,-271 3213.5,-271 3213.5,-292"/>
<text text-anchor="middle" x="3136" y="-278.4" font-family="Helvetica,sans-Serif" font-size="12.00">JKQTPXYBaselineGraph</text>
</a>
</g>
</g>
<!-- Node4&#45;&gt;Node3 -->
<g id="edge3" class="edge">
<title>Node4&#45;&gt;Node3</title>
<path fill="none" stroke="#63b8ff" d="M3163.92,-265.77C3226.01,-229.49 3377.93,-140.73 3430.36,-110.1"/>
<polygon fill="#63b8ff" stroke="#63b8ff" points="3161.96,-262.86 3155.09,-270.93 3165.49,-268.91 3161.96,-262.86"/>
</g>
<!-- Node5 -->
<g id="node5" class="node">
<title>Node5</title>
<g id="a_node5"><a xlink:href="class_j_k_q_t_p_x_y_graph.html" target="_top" xlink:title="This virtual JKQTPGraph descendent may be used as base for all graphs that use at least two columns t...">
<polygon fill="white" stroke="#666666" points="2996,-445 2891,-445 2891,-424 2996,-424 2996,-445"/>
<text text-anchor="middle" x="2943.5" y="-431.4" font-family="Helvetica,sans-Serif" font-size="12.00">JKQTPXYGraph</text>
</a>
</g>
</g>
<!-- Node5&#45;&gt;Node4 -->
<g id="edge4" class="edge">
<title>Node5&#45;&gt;Node4</title>
<path fill="none" stroke="#63b8ff" d="M2974.44,-419.09C2986.5,-412.41 3000.28,-404.14 3012,-395.5 3057.69,-361.79 3105.14,-313.29 3125.16,-292.09"/>
<polygon fill="#63b8ff" stroke="#63b8ff" points="2972.75,-416.03 2965.63,-423.87 2976.09,-422.18 2972.75,-416.03"/>
</g>
<!-- Node6 -->
<g id="node6" class="node">
<title>Node6</title>
<g id="a_node6"><a xlink:href="class_j_k_q_t_p_graph.html" target="_top" xlink:title="this virtual base class of the (data&#45;column based) graphs, which are part of a JKQTPlotter plot and w...">
<polygon fill="white" stroke="#666666" points="2799,-485 2710,-485 2710,-464 2799,-464 2799,-485"/>
<text text-anchor="middle" x="2754.5" y="-471.4" font-family="Helvetica,sans-Serif" font-size="12.00">JKQTPGraph</text>
</a>
</g>
</g>
<!-- Node6&#45;&gt;Node5 -->
<g id="edge5" class="edge">
<title>Node6&#45;&gt;Node5</title>
<path fill="none" stroke="#63b8ff" d="M2809.22,-463.01C2835.73,-457.34 2867.47,-450.55 2893.33,-445.02"/>
<polygon fill="#63b8ff" stroke="#63b8ff" points="2808.39,-459.61 2799.34,-465.12 2809.85,-466.45 2808.39,-459.61"/>
</g>
<!-- Node7 -->
<g id="node7" class="node">
<title>Node7</title>
<g id="a_node7"><a xlink:href="class_j_k_q_t_p_plot_element.html" target="_top" xlink:title="this virtual base class of every element, which is part of a JKQTPlotter plot and may appear in its k...">
<polygon fill="white" stroke="#666666" points="2555,-530 2430,-530 2430,-509 2555,-509 2555,-530"/>
<text text-anchor="middle" x="2492.5" y="-516.4" font-family="Helvetica,sans-Serif" font-size="12.00">JKQTPPlotElement</text>
</a>
</g>
</g>
<!-- Node7&#45;&gt;Node6 -->
<g id="edge6" class="edge">
<title>Node7&#45;&gt;Node6</title>
<path fill="none" stroke="#63b8ff" d="M2564.48,-507.22C2611,-499.16 2670.32,-488.9 2709.98,-482.03"/>
<polygon fill="#63b8ff" stroke="#63b8ff" points="2563.72,-503.8 2554.46,-508.95 2564.91,-510.69 2563.72,-503.8"/>
</g>
<!-- Node8 -->
<g id="node8" class="node">
<title>Node8</title>
<g id="a_node8"><a xlink:title=" ">
<polygon fill="white" stroke="#666666" points="1507.5,-481 1442.5,-481 1442.5,-460 1507.5,-460 1507.5,-481"/>
<text text-anchor="middle" x="1475" y="-467.4" font-family="Helvetica,sans-Serif" font-size="12.00">QObject</text>
</a>
</g>
</g>
<!-- Node8&#45;&gt;Node7 -->
<g id="edge7" class="edge">
<title>Node8&#45;&gt;Node7</title>
<path fill="none" stroke="#63b8ff" d="M1517.53,-481.53C1631.83,-510.59 1960.87,-585.49 2236,-562.5 2308.84,-556.41 2392.16,-540.73 2443.3,-530.08"/>
<polygon fill="#63b8ff" stroke="#63b8ff" points="1518.33,-478.12 1507.77,-479.03 1516.59,-484.9 1518.33,-478.12"/>
</g>
<!-- Node9 -->
<g id="node9" class="node">
<title>Node9</title>
<g id="a_node9"><a xlink:href="class_j_k_q_t_base_plotter.html" target="_top" xlink:title="base class for 2D plotter classes (used by the plotter widget JKQTPlotter)">
<polygon fill="white" stroke="#666666" points="2221.5,-400 2107.5,-400 2107.5,-379 2221.5,-379 2221.5,-400"/>
<text text-anchor="middle" x="2164.5" y="-386.4" font-family="Helvetica,sans-Serif" font-size="12.00">JKQTBasePlotter</text>
</a>
</g>
</g>
<!-- Node8&#45;&gt;Node9 -->
<g id="edge9" class="edge">
<title>Node8&#45;&gt;Node9</title>
<path fill="none" stroke="#63b8ff" d="M1517.89,-465.56C1636.25,-451.62 1973.29,-411.91 2107.43,-396.11"/>
<polygon fill="#63b8ff" stroke="#63b8ff" points="1517.3,-462.11 1507.78,-466.76 1518.12,-469.06 1517.3,-462.11"/>
</g>
<!-- Node22 -->
<g id="node22" class="node">
<title>Node22</title>
<g id="a_node22"><a xlink:href="class_j_k_q_t_math_text.html" target="_top" xlink:title="this class parses a mathematical markup string and can then draw the contained text/equation onto a Q...">
<polygon fill="white" stroke="#666666" points="1866,-485 1767,-485 1767,-464 1866,-464 1866,-485"/>
<text text-anchor="middle" x="1816.5" y="-471.4" font-family="Helvetica,sans-Serif" font-size="12.00">JKQTMathText</text>
</a>
</g>
</g>
<!-- Node8&#45;&gt;Node22 -->
<g id="edge28" class="edge">
<title>Node8&#45;&gt;Node22</title>
<path fill="none" stroke="#63b8ff" d="M1518,-470.99C1581.07,-471.74 1699.96,-473.14 1766.76,-473.93"/>
<polygon fill="#63b8ff" stroke="#63b8ff" points="1517.68,-467.49 1507.63,-470.87 1517.59,-474.49 1517.68,-467.49"/>
</g>
<!-- Node28 -->
<g id="node28" class="node">
<title>Node28</title>
<g id="a_node28"><a xlink:href="class_j_k_q_t_p_coordinate_axis.html" target="_top" xlink:title="this virtual class is the base for any type of coordinate axis, to be drawn by JKQTBasePlotter.">
<polygon fill="white" stroke="#666666" points="2563.5,-314 2421.5,-314 2421.5,-293 2563.5,-293 2563.5,-314"/>
<text text-anchor="middle" x="2492.5" y="-300.4" font-family="Helvetica,sans-Serif" font-size="12.00">JKQTPCoordinateAxis</text>
</a>
</g>
</g>
<!-- Node8&#45;&gt;Node28 -->
<g id="edge38" class="edge">
<title>Node8&#45;&gt;Node28</title>
<path fill="none" stroke="#63b8ff" d="M1518.19,-466.47C1535.44,-463.73 1555.23,-459.15 1572,-451.5 1581.22,-447.29 1581.05,-442.25 1590,-437.5 1713.03,-372.21 1755.71,-384.08 1888,-340.5 1896.01,-337.86 1897.71,-336.07 1906,-334.5 2089.52,-299.71 2310.78,-298.87 2421.38,-301.18"/>
<polygon fill="#63b8ff" stroke="#63b8ff" points="1517.24,-463.07 1507.83,-467.94 1518.22,-470 1517.24,-463.07"/>
</g>
<!-- Node9&#45;&gt;Node7 -->
<g id="edge8" class="edge">
<title>Node9&#45;&gt;Node7</title>
<path fill="none" stroke="#9a32cd" stroke-dasharray="5,2" d="M2184.36,-407.03C2207.89,-428.77 2246.04,-463.47 2254,-467.5 2309.63,-495.69 2380.16,-508.66 2429.86,-514.59"/>
<polygon fill="#9a32cd" stroke="#9a32cd" points="2186.72,-404.44 2177,-400.22 2181.96,-409.58 2186.72,-404.44"/>
<text text-anchor="middle" x="2310.5" y="-506.9" font-family="Helvetica,sans-Serif" font-size="12.00"> parent</text>
</g>
<!-- Node9&#45;&gt;Node9 -->
<g id="edge50" class="edge">
<title>Node9&#45;&gt;Node9</title>
<path fill="none" stroke="#9a32cd" stroke-dasharray="5,2" d="M2137.59,-409.57C2139.67,-414.41 2148.64,-418 2164.5,-418 2189.88,-418 2197.61,-408.81 2187.7,-400.02"/>
<polygon fill="#9a32cd" stroke="#9a32cd" points="2140.95,-410.61 2141.3,-400.02 2134.42,-408.08 2140.95,-410.61"/>
<text text-anchor="middle" x="2164.5" y="-434.4" font-family="Helvetica,sans-Serif" font-size="12.00"> masterPlotterX</text>
<text text-anchor="middle" x="2164.5" y="-421.4" font-family="Helvetica,sans-Serif" font-size="12.00">masterPlotterY</text>
</g>
<!-- Node24 -->
<g id="node24" class="node">
<title>Node24</title>
<g id="a_node24"><a xlink:href="class_j_k_q_t_p_graphs_model.html" target="_top" xlink:title="data model with all plots ina JKQTBasePlotter (+ allows to switch them visible/invisible)">
<polygon fill="white" stroke="#666666" points="2558,-469 2427,-469 2427,-448 2558,-448 2558,-469"/>
<text text-anchor="middle" x="2492.5" y="-455.4" font-family="Helvetica,sans-Serif" font-size="12.00">JKQTPGraphsModel</text>
</a>
</g>
</g>
<!-- Node9&#45;&gt;Node24 -->
<g id="edge34" class="edge">
<title>Node9&#45;&gt;Node24</title>
<path fill="none" stroke="#9a32cd" stroke-dasharray="5,2" d="M2232.03,-398.27C2280.54,-404.88 2341.98,-413.76 2367,-419.5 2400.11,-427.1 2437.17,-439.19 2462.17,-447.89"/>
<polygon fill="#9a32cd" stroke="#9a32cd" points="2232.27,-394.77 2221.89,-396.9 2231.33,-401.71 2232.27,-394.77"/>
<text text-anchor="middle" x="2310.5" y="-422.9" font-family="Helvetica,sans-Serif" font-size="12.00"> m_plotter</text>
</g>
<!-- Node9&#45;&gt;Node28 -->
<g id="edge39" class="edge">
<title>Node9&#45;&gt;Node28</title>
<path fill="none" stroke="#9a32cd" stroke-dasharray="5,2" d="M2187.93,-372.99C2205.13,-361.17 2229.94,-345.92 2254,-337.5 2284.03,-326.99 2362.78,-316.92 2421.42,-310.5"/>
<polygon fill="#9a32cd" stroke="#9a32cd" points="2185.83,-370.18 2179.67,-378.8 2189.86,-375.91 2185.83,-370.18"/>
<text text-anchor="middle" x="2310.5" y="-340.9" font-family="Helvetica,sans-Serif" font-size="12.00"> parent</text>
</g>
<!-- Node10 -->
<g id="node10" class="node">
<title>Node10</title>
<g id="a_node10"><a xlink:href="class_j_k_q_t_base_plotter_style.html" target="_top" xlink:title="Support Class for JKQTBasePlotter, which summarizes all properties that define the visual styling of ...">
<polygon fill="white" stroke="#666666" points="1888,-331 1745,-331 1745,-310 1888,-310 1888,-331"/>
<text text-anchor="middle" x="1816.5" y="-317.4" font-family="Helvetica,sans-Serif" font-size="12.00">JKQTBasePlotterStyle</text>
</a>
</g>
</g>
<!-- Node10&#45;&gt;Node9 -->
<g id="edge10" class="edge">
<title>Node10&#45;&gt;Node9</title>
<path fill="none" stroke="#9a32cd" stroke-dasharray="5,2" d="M1880.28,-333.02C1946.17,-346.16 2048.64,-366.59 2110.58,-378.95"/>
<polygon fill="#9a32cd" stroke="#9a32cd" points="1880.92,-329.58 1870.43,-331.05 1879.55,-336.44 1880.92,-329.58"/>
<text text-anchor="middle" x="1990.5" y="-373.9" font-family="Helvetica,sans-Serif" font-size="12.00"> plotterStyle</text>
</g>
<!-- Node11 -->
<g id="node11" class="node">
<title>Node11</title>
<g id="a_node11"><a xlink:href="class_j_k_q_t_p_key_style.html" target="_top" xlink:title="Support Class for JKQTBasePlotter, which summarizes all properties that define the visual styling of ...">
<polygon fill="white" stroke="#666666" points="1527,-235 1423,-235 1423,-214 1527,-214 1527,-235"/>
<text text-anchor="middle" x="1475" y="-221.4" font-family="Helvetica,sans-Serif" font-size="12.00">JKQTPKeyStyle</text>
</a>
</g>
</g>
<!-- Node11&#45;&gt;Node10 -->
<g id="edge11" class="edge">
<title>Node11&#45;&gt;Node10</title>
<path fill="none" stroke="#9a32cd" stroke-dasharray="5,2" d="M1537.24,-220.64C1589.57,-219.58 1665.87,-223.43 1727,-248.5 1760.72,-262.33 1791.69,-293.47 1806.44,-309.9"/>
<polygon fill="#9a32cd" stroke="#9a32cd" points="1537,-217.15 1527.1,-220.92 1537.19,-224.14 1537,-217.15"/>
<text text-anchor="middle" x="1658.5" y="-251.9" font-family="Helvetica,sans-Serif" font-size="12.00"> keyStyle</text>
</g>
<!-- Node12 -->
<g id="node12" class="node">
<title>Node12</title>
<g id="a_node12"><a xlink:href="class_j_k_q_t_p_coordinate_axis_style.html" target="_top" xlink:title="Support Class for JKQTPCoordinateAxis, which summarizes all properties that define the visual styling...">
<polygon fill="white" stroke="#666666" points="1234,-281 1063,-281 1063,-260 1234,-260 1234,-281"/>
<text text-anchor="middle" x="1148.5" y="-267.4" font-family="Helvetica,sans-Serif" font-size="12.00">JKQTPCoordinateAxisStyle</text>
</a>
</g>
</g>
<!-- Node12&#45;&gt;Node10 -->
<g id="edge12" class="edge">
<title>Node12&#45;&gt;Node10</title>
<path fill="none" stroke="#9a32cd" stroke-dasharray="5,2" d="M1242.7,-282.25C1249.23,-283.03 1255.71,-283.78 1262,-284.5 1313.5,-290.37 1326.33,-292.41 1378,-296.5 1507.29,-306.73 1658.43,-313.98 1744.96,-317.68"/>
<polygon fill="#9a32cd" stroke="#9a32cd" points="1242.76,-278.73 1232.42,-281.02 1241.93,-285.68 1242.76,-278.73"/>
<text text-anchor="middle" x="1475" y="-324.9" font-family="Helvetica,sans-Serif" font-size="12.00"> xAxisStyle</text>
<text text-anchor="middle" x="1475" y="-311.9" font-family="Helvetica,sans-Serif" font-size="12.00">yAxisStyle</text>
</g>
<!-- Node14 -->
<g id="node14" class="node">
<title>Node14</title>
<g id="a_node14"><a xlink:href="class_j_k_q_t_p_colorbar_coordinate_axis_style.html" target="_top" xlink:title="Support Class for JKQTPCoordinateAxis, which summarizes all properties that define the visual styling...">
<polygon fill="white" stroke="#666666" points="1572,-287.5 1378,-287.5 1378,-253.5 1572,-253.5 1572,-287.5"/>
<text text-anchor="start" x="1386" y="-273.9" font-family="Helvetica,sans-Serif" font-size="12.00">JKQTPColorbarCoordinateAxis</text>
<text text-anchor="middle" x="1475" y="-260.9" font-family="Helvetica,sans-Serif" font-size="12.00">Style</text>
</a>
</g>
</g>
<!-- Node12&#45;&gt;Node14 -->
<g id="edge15" class="edge">
<title>Node12&#45;&gt;Node14</title>
<path fill="none" stroke="#63b8ff" d="M1244.56,-270.5C1286.54,-270.5 1335.81,-270.5 1377.91,-270.5"/>
<polygon fill="#63b8ff" stroke="#63b8ff" points="1244.33,-267 1234.33,-270.5 1244.33,-274 1244.33,-267"/>
</g>
<!-- Node12&#45;&gt;Node28 -->
<g id="edge40" class="edge">
<title>Node12&#45;&gt;Node28</title>
<path fill="none" stroke="#9a32cd" stroke-dasharray="5,2" d="M1186.65,-256.47C1231.31,-240.43 1308.88,-215.14 1378,-205.5 1793.64,-147.53 2301.63,-257.43 2449.36,-292.95"/>
<polygon fill="#9a32cd" stroke="#9a32cd" points="1185.31,-253.24 1177.1,-259.95 1187.7,-259.82 1185.31,-253.24"/>
<text text-anchor="middle" x="1816.5" y="-202.9" font-family="Helvetica,sans-Serif" font-size="12.00"> axisStyle</text>
</g>
<!-- Node13 -->
<g id="node13" class="node">
<title>Node13</title>
<g id="a_node13"><a xlink:href="class_j_k_q_t_p_grid_style.html" target="_top" xlink:title="Support Class for JKQTPCoordinateAxis, and summarizes all properties that define the visual styling o...">
<polygon fill="white" stroke="#666666" points="805.5,-281 698.5,-281 698.5,-260 805.5,-260 805.5,-281"/>
<text text-anchor="middle" x="752" y="-267.4" font-family="Helvetica,sans-Serif" font-size="12.00">JKQTPGridStyle</text>
</a>
</g>
</g>
<!-- Node13&#45;&gt;Node12 -->
<g id="edge13" class="edge">
<title>Node13&#45;&gt;Node12</title>
<path fill="none" stroke="#9a32cd" stroke-dasharray="5,2" d="M816.18,-270.5C883.03,-270.5 988.9,-270.5 1062.92,-270.5"/>
<polygon fill="#9a32cd" stroke="#9a32cd" points="815.79,-267 805.79,-270.5 815.79,-274 815.79,-267"/>
<text text-anchor="middle" x="948.5" y="-286.9" font-family="Helvetica,sans-Serif" font-size="12.00"> majorGridStyle</text>
<text text-anchor="middle" x="948.5" y="-273.9" font-family="Helvetica,sans-Serif" font-size="12.00">minorGridStyle</text>
</g>
<!-- Node14&#45;&gt;Node10 -->
<g id="edge14" class="edge">
<title>Node14&#45;&gt;Node10</title>
<path fill="none" stroke="#9a32cd" stroke-dasharray="5,2" d="M1582.32,-265.78C1627.47,-266.07 1680.34,-269.47 1727,-280.5 1752.76,-286.59 1780.21,-300.26 1797.59,-309.91"/>
<polygon fill="#9a32cd" stroke="#9a32cd" points="1582.22,-262.28 1572.22,-265.76 1582.21,-269.28 1582.22,-262.28"/>
<text text-anchor="middle" x="1658.5" y="-296.9" font-family="Helvetica,sans-Serif" font-size="12.00"> rightColorbarAxisStyle</text>
<text text-anchor="middle" x="1658.5" y="-283.9" font-family="Helvetica,sans-Serif" font-size="12.00">topColorbarAxisStyle</text>
</g>
<!-- Node15 -->
<g id="node15" class="node">
<title>Node15</title>
<g id="a_node15"><a xlink:href="class_j_k_q_t_graphs_base_style.html" target="_top" xlink:title="Support Class for JKQTBasePlotter, which summarizes all properties that define the visual styling of ...">
<polygon fill="white" stroke="#666666" points="1548,-442 1402,-442 1402,-421 1548,-421 1548,-442"/>
<text text-anchor="middle" x="1475" y="-428.4" font-family="Helvetica,sans-Serif" font-size="12.00">JKQTGraphsBaseStyle</text>
</a>
</g>
</g>
<!-- Node15&#45;&gt;Node10 -->
<g id="edge16" class="edge">
<title>Node15&#45;&gt;Node10</title>
<path fill="none" stroke="#9a32cd" stroke-dasharray="5,2" d="M1495.37,-414.39C1516.9,-396.4 1553.46,-368.75 1590,-354.5 1604.32,-348.92 1684.2,-337.6 1744.86,-329.56"/>
<polygon fill="#9a32cd" stroke="#9a32cd" points="1492.96,-411.85 1487.63,-421 1497.51,-417.17 1492.96,-411.85"/>
<text text-anchor="middle" x="1658.5" y="-357.9" font-family="Helvetica,sans-Serif" font-size="12.00"> graphsStyle</text>
</g>
<!-- Node16 -->
<g id="node16" class="node">
<title>Node16</title>
<g id="a_node16"><a xlink:href="class_j_k_q_t_graphs_specific_style_properties.html" target="_top" xlink:title="Support Class for JKQTBasePlotter, which summarizes all properties that define the visual styling of ...">
<polygon fill="white" stroke="#666666" points="623,-417 399,-417 399,-396 623,-396 623,-417"/>
<text text-anchor="middle" x="511" y="-403.4" font-family="Helvetica,sans-Serif" font-size="12.00">JKQTGraphsSpecificStyleProperties</text>
</a>
</g>
</g>
<!-- Node16&#45;&gt;Node15 -->
<g id="edge17" class="edge">
<title>Node16&#45;&gt;Node15</title>
<path fill="none" stroke="#9a32cd" stroke-dasharray="5,2" d="M566.83,-393.71C635.4,-378.43 756.61,-353.76 862,-344.5 1083.87,-325 1142.55,-352.31 1360,-400.5 1386.63,-406.4 1416.36,-414.54 1438.78,-420.99"/>
<polygon fill="#9a32cd" stroke="#9a32cd" points="565.68,-390.38 556.69,-395.99 567.22,-397.21 565.68,-390.38"/>
<text text-anchor="middle" x="948.5" y="-373.9" font-family="Helvetica,sans-Serif" font-size="12.00"> boxplotStyle</text>
<text text-anchor="middle" x="948.5" y="-360.9" font-family="Helvetica,sans-Serif" font-size="12.00">defaultGraphStyle</text>
<text text-anchor="middle" x="948.5" y="-347.9" font-family="Helvetica,sans-Serif" font-size="12.00">filledStyle</text>
</g>
<!-- Node18 -->
<g id="node18" class="node">
<title>Node18</title>
<g id="a_node18"><a xlink:href="class_j_k_q_t_barchart_specific_style_properties.html" target="_top" xlink:title="Support Class for JKQTBasePlotter, which summarizes all properties that define the visual styling of ...">
<polygon fill="white" stroke="#666666" points="1035,-552.5 862,-552.5 862,-518.5 1035,-518.5 1035,-552.5"/>
<text text-anchor="start" x="870" y="-538.9" font-family="Helvetica,sans-Serif" font-size="12.00">JKQTBarchartSpecificStyle</text>
<text text-anchor="middle" x="948.5" y="-525.9" font-family="Helvetica,sans-Serif" font-size="12.00">Properties</text>
</a>
</g>
</g>
<!-- Node16&#45;&gt;Node18 -->
<g id="edge20" class="edge">
<title>Node16&#45;&gt;Node18</title>
<path fill="none" stroke="#63b8ff" d="M539.28,-422.13C568.34,-438.17 616.11,-462.8 660,-477.5 726.15,-499.65 803.83,-514.71 861.77,-523.91"/>
<polygon fill="#63b8ff" stroke="#63b8ff" points="540.96,-419.07 530.53,-417.25 537.55,-425.18 540.96,-419.07"/>
</g>
<!-- Node19 -->
<g id="node19" class="node">
<title>Node19</title>
<g id="a_node19"><a xlink:href="class_j_k_q_t_impulse_specific_style_properties.html" target="_top" xlink:title="Support Class for JKQTBasePlotter, which summarizes all properties that define the visual styling of ...">
<polygon fill="white" stroke="#666666" points="1032.5,-426.5 864.5,-426.5 864.5,-392.5 1032.5,-392.5 1032.5,-426.5"/>
<text text-anchor="start" x="872.5" y="-412.9" font-family="Helvetica,sans-Serif" font-size="12.00">JKQTImpulseSpecificStyle</text>
<text text-anchor="middle" x="948.5" y="-399.9" font-family="Helvetica,sans-Serif" font-size="12.00">Properties</text>
</a>
</g>
</g>
<!-- Node16&#45;&gt;Node19 -->
<g id="edge22" class="edge">
<title>Node16&#45;&gt;Node19</title>
<path fill="none" stroke="#63b8ff" d="M633.27,-407.34C706.83,-407.84 798.8,-408.48 864.19,-408.93"/>
<polygon fill="#63b8ff" stroke="#63b8ff" points="633.05,-403.83 623.02,-407.26 633,-410.83 633.05,-403.83"/>
</g>
<!-- Node20 -->
<g id="node20" class="node">
<title>Node20</title>
<g id="a_node20"><a xlink:href="class_j_k_q_t_geometric_specific_style_properties.html" target="_top" xlink:title="Support Class for JKQTBasePlotter, which summarizes all properties that define the visual styling of ...">
<polygon fill="white" stroke="#666666" points="844,-468.5 660,-468.5 660,-434.5 844,-434.5 844,-468.5"/>
<text text-anchor="start" x="668" y="-454.9" font-family="Helvetica,sans-Serif" font-size="12.00">JKQTGeometricSpecificStyle</text>
<text text-anchor="middle" x="752" y="-441.9" font-family="Helvetica,sans-Serif" font-size="12.00">Properties</text>
</a>
</g>
</g>
<!-- Node16&#45;&gt;Node20 -->
<g id="edge24" class="edge">
<title>Node16&#45;&gt;Node20</title>
<path fill="none" stroke="#63b8ff" d="M577.93,-418.91C603.36,-423.7 632.88,-429.26 660.25,-434.41"/>
<polygon fill="#63b8ff" stroke="#63b8ff" points="578.51,-415.46 568.03,-417.05 577.21,-422.34 578.51,-415.46"/>
</g>
<!-- Node17 -->
<g id="node17" class="node">
<title>Node17</title>
<g id="a_node17"><a xlink:href="struct_j_k_q_t_p_color_derivation_mode.html" target="_top" xlink:title="Specifies how a fill&#45;color is derived from a given color.">
<polygon fill="white" stroke="#666666" points="179,-165 0,-165 0,-144 179,-144 179,-165"/>
<text text-anchor="middle" x="89.5" y="-151.4" font-family="Helvetica,sans-Serif" font-size="12.00">JKQTPColorDerivationMode</text>
</a>
</g>
</g>
<!-- Node17&#45;&gt;Node3 -->
<g id="edge55" class="edge">
<title>Node17&#45;&gt;Node3</title>
<path fill="none" stroke="#9a32cd" stroke-dasharray="5,2" d="M189.41,-148.6C274.39,-144.04 400.22,-138.5 510,-138.5 510,-138.5 510,-138.5 3137,-138.5 3228.97,-138.5 3335.04,-121.55 3396.66,-110"/>
<polygon fill="#9a32cd" stroke="#9a32cd" points="189.05,-145.11 179.26,-149.15 189.43,-152.1 189.05,-145.11"/>
<text text-anchor="start" x="1906" y="-154.9" font-family="Helvetica,sans-Serif" font-size="12.00"> m_lineColorDerivationMode</text>
<text text-anchor="middle" x="1990.5" y="-141.9" font-family="Helvetica,sans-Serif" font-size="12.00">ForSpecialFill</text>
</g>
<!-- Node17&#45;&gt;Node16 -->
<g id="edge18" class="edge">
<title>Node17&#45;&gt;Node16</title>
<path fill="none" stroke="#9a32cd" stroke-dasharray="5,2" d="M116.79,-170.29C195.31,-217.46 426.74,-356.49 492.43,-395.95"/>
<polygon fill="#9a32cd" stroke="#9a32cd" points="118.37,-167.16 107.99,-165.01 114.76,-173.16 118.37,-167.16"/>
<text text-anchor="middle" x="289" y="-379.9" font-family="Helvetica,sans-Serif" font-size="12.00"> errorColorDerivationMode</text>
<text text-anchor="middle" x="289" y="-366.9" font-family="Helvetica,sans-Serif" font-size="12.00">errorFillColorDerivationMode</text>
<text text-anchor="middle" x="289" y="-353.9" font-family="Helvetica,sans-Serif" font-size="12.00">fillColorDerivationMode</text>
<text text-anchor="middle" x="289" y="-340.9" font-family="Helvetica,sans-Serif" font-size="12.00">graphColorDerivationMode</text>
<text text-anchor="middle" x="289" y="-327.9" font-family="Helvetica,sans-Serif" font-size="12.00">symbolFillColorDerivationMode</text>
</g>
<!-- Node18&#45;&gt;Node15 -->
<g id="edge19" class="edge">
<title>Node18&#45;&gt;Node15</title>
<path fill="none" stroke="#9a32cd" stroke-dasharray="5,2" d="M1027.16,-554.48C1117.2,-571.6 1265.33,-583.97 1360,-509.5 1381.21,-492.81 1358.03,-469.65 1378,-451.5 1384.8,-445.32 1393.01,-440.85 1401.72,-437.66"/>
<polygon fill="#9a32cd" stroke="#9a32cd" points="1027.77,-551.04 1017.28,-552.54 1026.42,-557.91 1027.77,-551.04"/>
<text text-anchor="middle" x="1148.5" y="-569.9" font-family="Helvetica,sans-Serif" font-size="12.00"> barchartStyle</text>
</g>
<!-- Node19&#45;&gt;Node15 -->
<g id="edge21" class="edge">
<title>Node19&#45;&gt;Node15</title>
<path fill="none" stroke="#9a32cd" stroke-dasharray="5,2" d="M1042.54,-403.85C1046.07,-403.72 1049.57,-403.6 1053,-403.5 1137.85,-401.04 1159.27,-398.36 1244,-403.5 1298.61,-406.81 1360.11,-414.51 1405.76,-420.99"/>
<polygon fill="#9a32cd" stroke="#9a32cd" points="1042.37,-400.35 1032.52,-404.26 1042.66,-407.35 1042.37,-400.35"/>
<text text-anchor="middle" x="1148.5" y="-406.9" font-family="Helvetica,sans-Serif" font-size="12.00"> impulseStyle</text>
</g>
<!-- Node20&#45;&gt;Node15 -->
<g id="edge23" class="edge">
<title>Node20&#45;&gt;Node15</title>
<path fill="none" stroke="#9a32cd" stroke-dasharray="5,2" d="M854.01,-462.65C975.16,-473.61 1183.95,-484.84 1360,-455.5 1368.08,-454.15 1369.99,-453.22 1378,-451.5 1392.48,-448.38 1408.21,-445.07 1422.66,-442.07"/>
<polygon fill="#9a32cd" stroke="#9a32cd" points="854.29,-459.16 844.01,-461.72 853.64,-466.13 854.29,-459.16"/>
<text text-anchor="middle" x="1148.5" y="-476.9" font-family="Helvetica,sans-Serif" font-size="12.00"> geometricStyle</text>
</g>
<!-- Node21 -->
<g id="node21" class="node">
<title>Node21</title>
<g id="a_node21"><a xlink:href="class_j_k_q_t_annotations_specific_style_properties.html" target="_top" xlink:title="Support Class for JKQTBasePlotter, which summarizes all properties that define the visual styling of ...">
<polygon fill="white" stroke="#666666" points="1244,-459.5 1053,-459.5 1053,-425.5 1244,-425.5 1244,-459.5"/>
<text text-anchor="start" x="1061" y="-445.9" font-family="Helvetica,sans-Serif" font-size="12.00">JKQTAnnotationsSpecificStyle</text>
<text text-anchor="middle" x="1148.5" y="-432.9" font-family="Helvetica,sans-Serif" font-size="12.00">Properties</text>
</a>
</g>
</g>
<!-- Node20&#45;&gt;Node21 -->
<g id="edge26" class="edge">
<title>Node20&#45;&gt;Node21</title>
<path fill="none" stroke="#63b8ff" d="M854.07,-449.19C915.27,-447.8 992.83,-446.03 1052.84,-444.66"/>
<polygon fill="#63b8ff" stroke="#63b8ff" points="853.92,-445.7 844,-449.42 854.08,-452.69 853.92,-445.7"/>
</g>
<!-- Node21&#45;&gt;Node15 -->
<g id="edge25" class="edge">
<title>Node21&#45;&gt;Node15</title>
<path fill="none" stroke="#9a32cd" stroke-dasharray="5,2" d="M1254.39,-438.94C1302.57,-437.31 1358.51,-435.42 1401.86,-433.95"/>
<polygon fill="#9a32cd" stroke="#9a32cd" points="1254.11,-435.45 1244.23,-439.29 1254.34,-442.45 1254.11,-435.45"/>
<text text-anchor="middle" x="1311" y="-441.9" font-family="Helvetica,sans-Serif" font-size="12.00"> annotationStyle</text>
</g>
<!-- Node22&#45;&gt;Node9 -->
<g id="edge27" class="edge">
<title>Node22&#45;&gt;Node9</title>
<path fill="none" stroke="#9a32cd" stroke-dasharray="5,2" d="M1850.35,-459.79C1866.77,-452.98 1887.12,-445.34 1906,-440.5 1979.43,-421.67 2001.04,-434.1 2075,-417.5 2095.13,-412.98 2117.25,-405.98 2134.34,-400.11"/>
<polygon fill="#9a32cd" stroke="#9a32cd" points="1848.52,-456.76 1840.68,-463.89 1851.25,-463.21 1848.52,-456.76"/>
<text text-anchor="middle" x="1990.5" y="-443.9" font-family="Helvetica,sans-Serif" font-size="12.00"> mathText</text>
</g>
<!-- Node23 -->
<g id="node23" class="node">
<title>Node23</title>
<g id="a_node23"><a xlink:href="class_j_k_q_t_math_text_node.html" target="_top" xlink:title="subclass representing one node in the syntax tree">
<polygon fill="white" stroke="#666666" points="2230,-522 2099,-522 2099,-501 2230,-501 2230,-522"/>
<text text-anchor="middle" x="2164.5" y="-508.4" font-family="Helvetica,sans-Serif" font-size="12.00">JKQTMathTextNode</text>
</a>
</g>
</g>
<!-- Node22&#45;&gt;Node23 -->
<g id="edge30" class="edge">
<title>Node22&#45;&gt;Node23</title>
<path fill="none" stroke="#9a32cd" stroke-dasharray="5,2" d="M1875.95,-485.11C1885.96,-486.72 1896.26,-488.26 1906,-489.5 1971.43,-497.83 2046.62,-503.84 2098.79,-507.46"/>
<polygon fill="#9a32cd" stroke="#9a32cd" points="1876.52,-481.66 1866.08,-483.48 1875.38,-488.56 1876.52,-481.66"/>
<text text-anchor="middle" x="1990.5" y="-507.9" font-family="Helvetica,sans-Serif" font-size="12.00"> parentMathText</text>
</g>
<!-- Node23&#45;&gt;Node22 -->
<g id="edge29" class="edge">
<title>Node23&#45;&gt;Node22</title>
<path fill="none" stroke="#9a32cd" stroke-dasharray="5,2" d="M2103.22,-497.33C2099.69,-495.86 2096.26,-494.26 2093,-492.5 2083.58,-487.42 2084.99,-480.34 2075,-476.5 2006.36,-450.1 1919.61,-456.8 1866.37,-464.97"/>
<polygon fill="#9a32cd" stroke="#9a32cd" points="2102.12,-500.65 2112.71,-500.88 2104.57,-494.1 2102.12,-500.65"/>
<text text-anchor="middle" x="1990.5" y="-479.9" font-family="Helvetica,sans-Serif" font-size="12.00"> parsedNode</text>
</g>
<!-- Node23&#45;&gt;Node23 -->
<g id="edge31" class="edge">
<title>Node23&#45;&gt;Node23</title>
<path fill="none" stroke="#9a32cd" stroke-dasharray="5,2" d="M2137.59,-531.57C2139.67,-536.41 2148.64,-540 2164.5,-540 2189.88,-540 2197.61,-530.81 2187.7,-522.02"/>
<polygon fill="#9a32cd" stroke="#9a32cd" points="2140.95,-532.61 2141.3,-522.02 2134.42,-530.08 2140.95,-532.61"/>
<text text-anchor="middle" x="2164.5" y="-543.4" font-family="Helvetica,sans-Serif" font-size="12.00"> parentNode</text>
</g>
<!-- Node24&#45;&gt;Node9 -->
<g id="edge32" class="edge">
<title>Node24&#45;&gt;Node9</title>
<path fill="none" stroke="#9a32cd" stroke-dasharray="5,2" d="M2416.71,-454.78C2358.74,-451.3 2283.48,-445.3 2254,-436.5 2226.66,-428.33 2198.03,-411.34 2180.98,-400.18"/>
<polygon fill="#9a32cd" stroke="#9a32cd" points="2416.76,-458.29 2426.95,-455.38 2417.17,-451.3 2416.76,-458.29"/>
<text text-anchor="middle" x="2310.5" y="-453.9" font-family="Helvetica,sans-Serif" font-size="12.00"> m_plotsModel</text>
</g>
<!-- Node25 -->
<g id="node25" class="node">
<title>Node25</title>
<g id="a_node25"><a xlink:title=" ">
<polygon fill="white" stroke="#666666" points="2236,-483 2093,-483 2093,-462 2236,-462 2236,-483"/>
<text text-anchor="middle" x="2164.5" y="-469.4" font-family="Helvetica,sans-Serif" font-size="12.00">QAbstractTableModel</text>
</a>
</g>
</g>
<!-- Node25&#45;&gt;Node24 -->
<g id="edge33" class="edge">
<title>Node25&#45;&gt;Node24</title>
<path fill="none" stroke="#63b8ff" d="M2246.6,-474.57C2283.38,-474.97 2327.41,-474.72 2367,-472.5 2386.55,-471.4 2407.74,-469.35 2427,-467.14"/>
<polygon fill="#63b8ff" stroke="#63b8ff" points="2246.47,-471.07 2236.43,-474.44 2246.38,-478.06 2246.47,-471.07"/>
</g>
<!-- Node26 -->
<g id="node26" class="node">
<title>Node26</title>
<g id="a_node26"><a xlink:href="class_j_k_q_t_p_horizontal_axis.html" target="_top" xlink:title="implements a horizontal axis, based on JKQTPCoordinateAxis (for most of documentation: see JKQTPCoord...">
<polygon fill="white" stroke="#666666" points="3012,-332 2875,-332 2875,-311 3012,-311 3012,-332"/>
<text text-anchor="middle" x="2943.5" y="-318.4" font-family="Helvetica,sans-Serif" font-size="12.00">JKQTPHorizontalAxis</text>
</a>
</g>
</g>
<!-- Node26&#45;&gt;Node9 -->
<g id="edge35" class="edge">
<title>Node26&#45;&gt;Node9</title>
<path fill="none" stroke="#9a32cd" stroke-dasharray="5,2" d="M2864.69,-330.72C2855.69,-331.7 2846.65,-332.65 2838,-333.5 2578.82,-359.03 2513.47,-359.11 2254,-381.5 2243.55,-382.4 2232.4,-383.39 2221.67,-384.35"/>
<polygon fill="#9a32cd" stroke="#9a32cd" points="2865.24,-334.18 2874.8,-329.6 2864.47,-327.22 2865.24,-334.18"/>
<text text-anchor="middle" x="2635.5" y="-355.9" font-family="Helvetica,sans-Serif" font-size="12.00"> xAxis</text>
</g>
<!-- Node27 -->
<g id="node27" class="node">
<title>Node27</title>
<g id="a_node27"><a xlink:href="class_j_k_q_t_p_horizontal_axis_base.html" target="_top" xlink:title="base class for horizontal axes, based on JKQTPCoordinateAxis (for most of documentation: see JKQTPCoo...">
<polygon fill="white" stroke="#666666" points="2838,-285 2671,-285 2671,-264 2838,-264 2838,-285"/>
<text text-anchor="middle" x="2754.5" y="-271.4" font-family="Helvetica,sans-Serif" font-size="12.00">JKQTPHorizontalAxisBase</text>
</a>
</g>
</g>
<!-- Node27&#45;&gt;Node26 -->
<g id="edge36" class="edge">
<title>Node27&#45;&gt;Node26</title>
<path fill="none" stroke="#63b8ff" d="M2809.42,-287.45C2818.95,-289.77 2828.77,-292.19 2838,-294.5 2859.27,-299.82 2882.92,-305.92 2902.34,-310.97"/>
<polygon fill="#63b8ff" stroke="#63b8ff" points="2810.17,-284.03 2799.63,-285.07 2808.52,-290.83 2810.17,-284.03"/>
</g>
<!-- Node28&#45;&gt;Node27 -->
<g id="edge37" class="edge">
<title>Node28&#45;&gt;Node27</title>
<path fill="none" stroke="#63b8ff" d="M2573.79,-294.54C2604.62,-291.11 2639.85,-287.18 2670.89,-283.71"/>
<polygon fill="#63b8ff" stroke="#63b8ff" points="2573.07,-291.1 2563.52,-295.69 2573.84,-298.06 2573.07,-291.1"/>
</g>
<!-- Node30 -->
<g id="node30" class="node">
<title>Node30</title>
<g id="a_node30"><a xlink:href="class_j_k_q_t_p_vertical_axis_base.html" target="_top" xlink:title="base class for vertical axes, based on JKQTPCoordinateAxis (for most of documentation: see JKQTPCoord...">
<polygon fill="white" stroke="#666666" points="2830,-324 2679,-324 2679,-303 2830,-303 2830,-324"/>
<text text-anchor="middle" x="2754.5" y="-310.4" font-family="Helvetica,sans-Serif" font-size="12.00">JKQTPVerticalAxisBase</text>
</a>
</g>
</g>
<!-- Node28&#45;&gt;Node30 -->
<g id="edge43" class="edge">
<title>Node28&#45;&gt;Node30</title>
<path fill="none" stroke="#63b8ff" d="M2573.73,-306.59C2607.23,-307.87 2645.92,-309.36 2678.8,-310.63"/>
<polygon fill="#63b8ff" stroke="#63b8ff" points="2573.64,-303.08 2563.52,-306.19 2573.38,-310.07 2573.64,-303.08"/>
</g>
<!-- Node29 -->
<g id="node29" class="node">
<title>Node29</title>
<g id="a_node29"><a xlink:href="class_j_k_q_t_p_vertical_axis.html" target="_top" xlink:title="implements a vertical axis for use as primary, secondary, ... axis of a JKQTPBasePlotter,...">
<polygon fill="white" stroke="#666666" points="3004.5,-386 2882.5,-386 2882.5,-365 3004.5,-365 3004.5,-386"/>
<text text-anchor="middle" x="2943.5" y="-372.4" font-family="Helvetica,sans-Serif" font-size="12.00">JKQTPVerticalAxis</text>
</a>
</g>
</g>
<!-- Node29&#45;&gt;Node9 -->
<g id="edge41" class="edge">
<title>Node29&#45;&gt;Node9</title>
<path fill="none" stroke="#9a32cd" stroke-dasharray="5,2" d="M2872.24,-376.77C2719.66,-379.52 2360.55,-385.99 2221.69,-388.49"/>
<polygon fill="#9a32cd" stroke="#9a32cd" points="2872.49,-380.26 2882.43,-376.58 2872.37,-373.26 2872.49,-380.26"/>
<text text-anchor="middle" x="2635.5" y="-383.9" font-family="Helvetica,sans-Serif" font-size="12.00"> yAxis</text>
</g>
<!-- Node30&#45;&gt;Node29 -->
<g id="edge42" class="edge">
<title>Node30&#45;&gt;Node29</title>
<path fill="none" stroke="#63b8ff" d="M2796.95,-327.24C2831.25,-338.62 2879.27,-354.54 2910.62,-364.93"/>
<polygon fill="#63b8ff" stroke="#63b8ff" points="2797.82,-323.84 2787.22,-324.02 2795.61,-330.49 2797.82,-323.84"/>
</g>
<!-- Node31 -->
<g id="node31" class="node">
<title>Node31</title>
<g id="a_node31"><a xlink:href="class_j_k_q_t_p_datastore.html" target="_top" xlink:title="This class manages data columns (with entries of type double ), used by JKQTPlotter/JKQTBasePlotter t...">
<polygon fill="white" stroke="#666666" points="1872,-110 1761,-110 1761,-89 1872,-89 1872,-110"/>
<text text-anchor="middle" x="1816.5" y="-96.4" font-family="Helvetica,sans-Serif" font-size="12.00">JKQTPDatastore</text>
</a>
</g>
</g>
<!-- Node31&#45;&gt;Node9 -->
<g id="edge44" class="edge">
<title>Node31&#45;&gt;Node9</title>
<path fill="none" stroke="#9a32cd" stroke-dasharray="5,2" d="M1838.07,-116.74C1902.38,-170.64 2098.52,-335.04 2150.66,-378.74"/>
<polygon fill="#9a32cd" stroke="#9a32cd" points="1840.14,-113.91 1830.22,-110.17 1835.64,-119.27 1840.14,-113.91"/>
<text text-anchor="middle" x="1990.5" y="-314.9" font-family="Helvetica,sans-Serif" font-size="12.00"> datastore</text>
</g>
<!-- Node33 -->
<g id="node33" class="node">
<title>Node33</title>
<g id="a_node33"><a xlink:href="class_j_k_q_t_p_column.html" target="_top" xlink:title="internally stores information about one data column. See JKQTPDatastore for more information.">
<polygon fill="white" stroke="#666666" points="2213.5,-110 2115.5,-110 2115.5,-89 2213.5,-89 2213.5,-110"/>
<text text-anchor="middle" x="2164.5" y="-96.4" font-family="Helvetica,sans-Serif" font-size="12.00">JKQTPColumn</text>
</a>
</g>
</g>
<!-- Node31&#45;&gt;Node33 -->
<g id="edge47" class="edge">
<title>Node31&#45;&gt;Node33</title>
<path fill="none" stroke="#9a32cd" stroke-dasharray="5,2" d="M1882.45,-99.5C1950.15,-99.5 2054.67,-99.5 2115.35,-99.5"/>
<polygon fill="#9a32cd" stroke="#9a32cd" points="1882.32,-96 1872.32,-99.5 1882.32,-103 1882.32,-96"/>
<text text-anchor="middle" x="1990.5" y="-102.9" font-family="Helvetica,sans-Serif" font-size="12.00"> datastore</text>
</g>
<!-- Node32 -->
<g id="node32" class="node">
<title>Node32</title>
<g id="a_node32"><a xlink:title=" ">
<polygon fill="white" stroke="#666666" points="2600,-68 2385,-68 2385,-47 2600,-47 2600,-68"/>
<text text-anchor="middle" x="2492.5" y="-54.4" font-family="Helvetica,sans-Serif" font-size="12.00">std::unique_ptr&lt; JKQTPColumn &gt;</text>
</a>
</g>
</g>
<!-- Node32&#45;&gt;Node31 -->
<g id="edge45" class="edge">
<title>Node32&#45;&gt;Node31</title>
<path fill="none" stroke="#9a32cd" stroke-dasharray="5,2" d="M2374.77,-57.65C2295.27,-58.43 2187.67,-60.83 2093,-67.5 2016.15,-72.92 1927.74,-84.06 1872.25,-91.66"/>
<polygon fill="#9a32cd" stroke="#9a32cd" points="2374.85,-61.15 2384.82,-57.56 2374.79,-54.15 2374.85,-61.15"/>
<text text-anchor="middle" x="2164.5" y="-70.9" font-family="Helvetica,sans-Serif" font-size="12.00"> m_invalidColumn</text>
</g>
<!-- Node33&#45;&gt;Node32 -->
<g id="edge46" class="edge">
<title>Node33&#45;&gt;Node32</title>
<path fill="none" stroke="#9a32cd" stroke-dasharray="5,2" d="M2223.64,-92.01C2275.51,-85.33 2352.02,-75.47 2410,-68"/>
<polygon fill="#9a32cd" stroke="#9a32cd" points="2223.07,-88.55 2213.6,-93.3 2223.97,-95.5 2223.07,-88.55"/>
<text text-anchor="middle" x="2310.5" y="-89.9" font-family="Helvetica,sans-Serif" font-size="12.00"> ptr</text>
</g>
<!-- Node34 -->
<g id="node34" class="node">
<title>Node34</title>
<g id="a_node34"><a xlink:title=" ">
<polygon fill="white" stroke="#666666" points="2234.5,-21 2094.5,-21 2094.5,0 2234.5,0 2234.5,-21"/>
<text text-anchor="middle" x="2164.5" y="-7.4" font-family="Helvetica,sans-Serif" font-size="12.00">std::unique_ptr&lt; T &gt;</text>
</a>
</g>
</g>
<!-- Node34&#45;&gt;Node32 -->
<g id="edge48" class="edge">
<title>Node34&#45;&gt;Node32</title>
<path fill="none" stroke="orange" stroke-dasharray="5,2" d="M2245.04,-16.28C2282.21,-19.52 2327.01,-24.2 2367,-30.5 2394.42,-34.82 2424.88,-41.39 2448.8,-46.97"/>
<polygon fill="orange" stroke="orange" points="2245.02,-12.76 2234.76,-15.4 2244.43,-19.74 2245.02,-12.76"/>
<text text-anchor="middle" x="2310.5" y="-33.9" font-family="Helvetica,sans-Serif" font-size="12.00"> &lt; JKQTPColumn &gt;</text>
</g>
<!-- Node35 -->
<g id="node35" class="node">
<title>Node35</title>
<g id="a_node35"><a xlink:title=" ">
<polygon fill="white" stroke="#666666" points="1831,-21 1802,-21 1802,0 1831,0 1831,-21"/>
<text text-anchor="middle" x="1816.5" y="-7.4" font-family="Helvetica,sans-Serif" font-size="12.00">T</text>
</a>
</g>
</g>
<!-- Node35&#45;&gt;Node34 -->
<g id="edge49" class="edge">
<title>Node35&#45;&gt;Node34</title>
<path fill="none" stroke="#9a32cd" stroke-dasharray="5,2" d="M1841.16,-10.5C1892.51,-10.5 2015.87,-10.5 2094.23,-10.5"/>
<polygon fill="#9a32cd" stroke="#9a32cd" points="1841.06,-7 1831.06,-10.5 1841.06,-14 1841.06,-7"/>
<text text-anchor="middle" x="1990.5" y="-13.9" font-family="Helvetica,sans-Serif" font-size="12.00"> ptr</text>
</g>
<!-- Node36 -->
<g id="node36" class="node">
<title>Node36</title>
<g id="a_node36"><a xlink:href="class_j_k_q_t_p_graph_line_style_mixin.html" target="_top" xlink:title="This Mix&#45;In class provides setter/getter methods, storage and other facilities for the graph line sty...">
<polygon fill="white" stroke="#666666" points="3223,-106 3049,-106 3049,-85 3223,-85 3223,-106"/>
<text text-anchor="middle" x="3136" y="-92.4" font-family="Helvetica,sans-Serif" font-size="12.00">JKQTPGraphLineStyleMixin</text>
</a>
</g>
</g>
<!-- Node36&#45;&gt;Node3 -->
<g id="edge51" class="edge">
<title>Node36&#45;&gt;Node3</title>
<path fill="none" stroke="#63b8ff" d="M3233.32,-99.34C3235.91,-99.4 3238.47,-99.45 3241,-99.5 3287.1,-100.39 3338.98,-100.39 3379.33,-100.16"/>
<polygon fill="#63b8ff" stroke="#63b8ff" points="3233.34,-95.83 3223.25,-99.07 3233.16,-102.83 3233.34,-95.83"/>
</g>
<!-- Node36&#45;&gt;Node3 -->
<g id="edge53" class="edge">
<title>Node36&#45;&gt;Node3</title>
<path fill="none" stroke="#9a32cd" stroke-dasharray="5,2" d="M3222.17,-83.98C3228.53,-83.39 3234.86,-82.88 3241,-82.5 3285.8,-79.71 3297.25,-78.95 3342,-82.5 3358.71,-83.82 3376.75,-86.3 3393.15,-88.96"/>
<polygon fill="#9a32cd" stroke="#9a32cd" points="3221.77,-80.51 3212.16,-84.98 3222.46,-87.47 3221.77,-80.51"/>
<text text-anchor="middle" x="3291.5" y="-85.9" font-family="Helvetica,sans-Serif" font-size="12.00"> m_baselineStyle</text>
</g>
<!-- Node37 -->
<g id="node37" class="node">
<title>Node37</title>
<g id="a_node37"><a xlink:href="class_j_k_q_t_p_graph_fill_style_mixin.html" target="_top" xlink:title="This Mix&#45;In class provides setter/getter methods, storage and other facilities for the graph filling ...">
<polygon fill="white" stroke="#666666" points="3218,-49 3054,-49 3054,-28 3218,-28 3218,-49"/>
<text text-anchor="middle" x="3136" y="-35.4" font-family="Helvetica,sans-Serif" font-size="12.00">JKQTPGraphFillStyleMixin</text>
</a>
</g>
</g>
<!-- Node37&#45;&gt;Node3 -->
<g id="edge52" class="edge">
<title>Node37&#45;&gt;Node3</title>
<path fill="none" stroke="#63b8ff" d="M3214.37,-50.73C3252.9,-57.26 3300.09,-65.92 3342,-75.5 3350.09,-77.35 3351.94,-78.52 3360,-80.5 3371.9,-83.43 3384.77,-86.34 3396.9,-88.96"/>
<polygon fill="#63b8ff" stroke="#63b8ff" points="3214.7,-47.23 3204.25,-49.03 3213.54,-54.14 3214.7,-47.23"/>
</g>
<!-- Node37&#45;&gt;Node3 -->
<g id="edge54" class="edge">
<title>Node37&#45;&gt;Node3</title>
<path fill="none" stroke="#9a32cd" stroke-dasharray="5,2" d="M3181.01,-25.46C3225.45,-15.09 3294.17,-6.96 3342,-38.5 3358.95,-49.68 3344.32,-67.59 3360,-80.5 3365.7,-85.19 3372.29,-88.8 3379.26,-91.57"/>
<polygon fill="#9a32cd" stroke="#9a32cd" points="3179.96,-22.12 3171.09,-27.91 3181.63,-28.91 3179.96,-22.12"/>
<text text-anchor="middle" x="3291.5" y="-41.9" font-family="Helvetica,sans-Serif" font-size="12.00"> m_fillStyleBelow</text>
</g>
<!-- Node38 -->
<g id="node38" class="node">
<title>Node38</title>
<g id="a_node38"><a xlink:href="class_j_k_q_t_p_y_graph_errors.html" target="_top" xlink:title="This class is the base class for graphs that only display error indicators in y&#45;direction.">
<polygon fill="white" stroke="#666666" points="3719,-71 3588,-71 3588,-50 3719,-50 3719,-71"/>
<text text-anchor="middle" x="3653.5" y="-57.4" font-family="Helvetica,sans-Serif" font-size="12.00">JKQTPYGraphErrors</text>
</a>
</g>
</g>
<!-- Node38&#45;&gt;Node1 -->
<g id="edge56" class="edge">
<title>Node38&#45;&gt;Node1</title>
<path fill="none" stroke="#63b8ff" d="M3729.05,-67.41C3741.66,-68.58 3754.88,-69.8 3767.87,-71.01"/>
<polygon fill="#63b8ff" stroke="#63b8ff" points="3729.36,-63.92 3719.08,-66.49 3728.72,-70.89 3729.36,-63.92"/>
</g>
<!-- Node39 -->
<g id="node39" class="node">
<title>Node39</title>
<g id="a_node39"><a xlink:href="class_j_k_q_t_p_y_graph_error_data.html" target="_top" xlink:title="This class adds data fields for error indicators in y direction.">
<polygon fill="white" stroke="#666666" points="3526.5,-32 3372.5,-32 3372.5,-11 3526.5,-11 3526.5,-32"/>
<text text-anchor="middle" x="3449.5" y="-18.4" font-family="Helvetica,sans-Serif" font-size="12.00">JKQTPYGraphErrorData</text>
</a>
</g>
</g>
<!-- Node39&#45;&gt;Node38 -->
<g id="edge57" class="edge">
<title>Node39&#45;&gt;Node38</title>
<path fill="none" stroke="#63b8ff" d="M3514.94,-33.94C3541.69,-39.11 3572.4,-45.03 3598,-49.98"/>
<polygon fill="#63b8ff" stroke="#63b8ff" points="3515.38,-30.46 3504.9,-32 3514.05,-37.33 3515.38,-30.46"/>
</g>
<!-- Node40 -->
<g id="node40" class="node">
<title>Node40</title>
<g id="a_node40"><a xlink:href="class_j_k_q_t_p_graph_error_style_mixin.html" target="_top" xlink:title="This mix&#45;in class assembles all styling properties applicable to error indicators.">
<polygon fill="white" stroke="#666666" points="3539,-71 3360,-71 3360,-50 3539,-50 3539,-71"/>
<text text-anchor="middle" x="3449.5" y="-57.4" font-family="Helvetica,sans-Serif" font-size="12.00">JKQTPGraphErrorStyleMixin</text>
</a>
</g>
</g>
<!-- Node40&#45;&gt;Node38 -->
<g id="edge58" class="edge">
<title>Node40&#45;&gt;Node38</title>
<path fill="none" stroke="#63b8ff" d="M3549.15,-60.5C3562.33,-60.5 3575.56,-60.5 3587.95,-60.5"/>
<polygon fill="#63b8ff" stroke="#63b8ff" points="3549.1,-57 3539.1,-60.5 3549.1,-64 3549.1,-57"/>
</g>
</g>
</svg>
