<?xml version="1.0" encoding="UTF-8" standalone="no"?>
<!DOCTYPE svg PUBLIC "-//W3C//DTD SVG 1.1//EN"
 "http://www.w3.org/Graphics/SVG/1.1/DTD/svg11.dtd">
<!-- Generated by graphviz version 2.43.0 (0)
 -->
<!-- Title: JKQTMathTextNode Pages: 1 -->
<!--zoomable 350 -->
<svg id="main" version="1.1" xmlns="http://www.w3.org/2000/svg" xmlns:xlink="http://www.w3.org/1999/xlink" xml:space="preserve" onload="init(evt)">
<style type="text/css"><![CDATA[
.edge:hover path { stroke: red; }
.edge:hover polygon { stroke: red; fill: red; }
]]></style>
<script type="text/javascript"><![CDATA[
var edges = document.getElementsByTagName('g');
if (edges && edges.length) {
  for (var i=0;i<edges.length;i++) {
    if (edges[i].id.substr(0,4)=='edge') {
      edges[i].setAttribute('class','edge');
    }
  }
}
]]></script>
        <defs>
                <circle id="rim" cx="0" cy="0" r="7"/>
                <circle id="rim2" cx="0" cy="0" r="3.5"/>
                <g id="zoomPlus">
                        <use xlink:href="#rim" fill="#404040">
                                <set attributeName="fill" to="#808080" begin="zoomplus.mouseover" end="zoomplus.mouseout"/>
                        </use>
                        <path d="M-4,0h8M0,-4v8" fill="none" stroke="white" stroke-width="1.5" pointer-events="none"/>
                </g>
                <g id="zoomMin">
                        <use xlink:href="#rim" fill="#404040">
                                <set attributeName="fill" to="#808080" begin="zoomminus.mouseover" end="zoomminus.mouseout"/>
                        </use>
                        <path d="M-4,0h8" fill="none" stroke="white" stroke-width="1.5" pointer-events="none"/>
                </g>
                <g id="dirArrow">
                        <path fill="none" stroke="white" stroke-width="1.5" d="M0,-3.0v7 M-2.5,-0.5L0,-3.0L2.5,-0.5"/>
                </g>
               <g id="resetDef">
                       <use xlink:href="#rim2" fill="#404040">
                               <set attributeName="fill" to="#808080" begin="reset.mouseover" end="reset.mouseout"/>
                       </use>
               </g>
        </defs>

<script type="text/javascript">
var viewWidth = 776;
var viewHeight = 350;
var sectionId = 'dynsection-0';
</script>
<script xlink:href="svgpan.js"/>
<svg id="graph" class="graph">
<g id="viewport">
<title>JKQTMathTextNode</title>
<!-- Node1 -->
<g id="node1" class="node">
<title>Node1</title>
<g id="a_node1"><a xlink:title="subclass representing one node in the syntax tree">
<polygon fill="#bfbfbf" stroke="black" points="0,-120.5 0,-141.5 128,-141.5 128,-120.5 0,-120.5"/>
<text text-anchor="middle" x="64" y="-127.9" font-family="FreeSans" font-size="12.00">JKQTMathTextNode</text>
</a>
</g>
</g>
<!-- Node2 -->
<g id="node2" class="node">
<title>Node2</title>
<g id="a_node2"><a xlink:href="class_j_k_q_t_math_text_matrix_node.html" target="_top" xlink:title="subclass representing a \begin{matrix} node">
<polygon fill="none" stroke="black" points="179,-280.5 179,-301.5 340,-301.5 340,-280.5 179,-280.5"/>
<text text-anchor="middle" x="259.5" y="-287.9" font-family="FreeSans" font-size="12.00">JKQTMathTextMatrixNode</text>
</a>
</g>
</g>
<!-- Node1&#45;&gt;Node2 -->
<g id="edge1" class="edge">
<title>Node1&#45;&gt;Node2</title>
<path fill="none" stroke="midnightblue" d="M73.39,-151.21C87.36,-182.2 118.42,-241.01 164,-271 169.74,-274.78 176.07,-277.86 182.65,-280.37"/>
<polygon fill="midnightblue" stroke="midnightblue" points="76.52,-149.62 69.32,-141.85 70.1,-152.42 76.52,-149.62"/>
</g>
<!-- Node3 -->
<g id="node3" class="node">
<title>Node3</title>
<g id="a_node3"><a xlink:href="class_j_k_q_t_math_text_multi_child_node.html" target="_top" xlink:title="subclass representing a node in the syntax tree, that has two children">
<polygon fill="none" stroke="black" points="169.5,-240.5 169.5,-261.5 349.5,-261.5 349.5,-240.5 169.5,-240.5"/>
<text text-anchor="middle" x="259.5" y="-247.9" font-family="FreeSans" font-size="12.00">JKQTMathTextMultiChildNode</text>
</a>
</g>
</g>
<!-- Node1&#45;&gt;Node3 -->
<g id="edge2" class="edge">
<title>Node1&#45;&gt;Node3</title>
<path fill="none" stroke="midnightblue" d="M90.86,-147.04C131.03,-171.95 207.33,-219.27 241.37,-240.37"/>
<polygon fill="midnightblue" stroke="midnightblue" points="92.51,-143.95 82.17,-141.65 88.83,-149.89 92.51,-143.95"/>
</g>
<!-- Node8 -->
<g id="node8" class="node">
<title>Node8</title>
<g id="a_node8"><a xlink:href="class_j_k_q_t_math_text_single_child_node.html" target="_top" xlink:title="subclass representing a node in the syntax tree, that has one child">
<polygon fill="none" stroke="black" points="165.5,-140.5 165.5,-161.5 353.5,-161.5 353.5,-140.5 165.5,-140.5"/>
<text text-anchor="middle" x="259.5" y="-147.9" font-family="FreeSans" font-size="12.00">JKQTMathTextSingleChildNode</text>
</a>
</g>
</g>
<!-- Node1&#45;&gt;Node8 -->
<g id="edge7" class="edge">
<title>Node1&#45;&gt;Node8</title>
<path fill="none" stroke="midnightblue" d="M138.31,-138.58C147.13,-139.49 156.24,-140.43 165.3,-141.37"/>
<polygon fill="midnightblue" stroke="midnightblue" points="138.4,-135.07 128.09,-137.52 137.68,-142.03 138.4,-135.07"/>
</g>
<!-- Node14 -->
<g id="node14" class="node">
<title>Node14</title>
<g id="a_node14"><a xlink:href="class_j_k_q_t_math_text_symbol_node.html" target="_top" xlink:title="subclass representing one symbol (e.g. \alpha , \cdot ...) node in the syntax tree">
<polygon fill="none" stroke="black" points="176,-100.5 176,-121.5 343,-121.5 343,-100.5 176,-100.5"/>
<text text-anchor="middle" x="259.5" y="-107.9" font-family="FreeSans" font-size="12.00">JKQTMathTextSymbolNode</text>
</a>
</g>
</g>
<!-- Node1&#45;&gt;Node14 -->
<g id="edge13" class="edge">
<title>Node1&#45;&gt;Node14</title>
<path fill="none" stroke="midnightblue" d="M138.24,-123.43C150.5,-122.16 163.29,-120.84 175.77,-119.55"/>
<polygon fill="midnightblue" stroke="midnightblue" points="137.68,-119.97 128.09,-124.48 138.4,-126.93 137.68,-119.97"/>
</g>
<!-- Node15 -->
<g id="node15" class="node">
<title>Node15</title>
<g id="a_node15"><a xlink:href="class_j_k_q_t_math_text_text_node.html" target="_top" xlink:title="subclass representing one text node in the syntax tree">
<polygon fill="none" stroke="black" points="184,-60.5 184,-81.5 335,-81.5 335,-60.5 184,-60.5"/>
<text text-anchor="middle" x="259.5" y="-67.9" font-family="FreeSans" font-size="12.00">JKQTMathTextTextNode</text>
</a>
</g>
</g>
<!-- Node1&#45;&gt;Node15 -->
<g id="edge14" class="edge">
<title>Node1&#45;&gt;Node15</title>
<path fill="none" stroke="midnightblue" d="M96.96,-116.42C116.1,-108.11 141.1,-97.99 164,-91 175.79,-87.4 188.6,-84.22 200.87,-81.51"/>
<polygon fill="midnightblue" stroke="midnightblue" points="95.53,-113.22 87.79,-120.46 98.35,-119.63 95.53,-113.22"/>
</g>
<!-- Node17 -->
<g id="node17" class="node">
<title>Node17</title>
<g id="a_node17"><a xlink:href="class_j_k_q_t_math_text_whitespace_node.html" target="_top" xlink:title="subclass representing one whitepsace node in the syntax tree">
<polygon fill="none" stroke="black" points="164,-20.5 164,-41.5 355,-41.5 355,-20.5 164,-20.5"/>
<text text-anchor="middle" x="259.5" y="-27.9" font-family="FreeSans" font-size="12.00">JKQTMathTextWhitespaceNode</text>
</a>
</g>
</g>
<!-- Node1&#45;&gt;Node17 -->
<g id="edge16" class="edge">
<title>Node1&#45;&gt;Node17</title>
<path fill="none" stroke="midnightblue" d="M81.91,-113.04C100.33,-94.59 131.52,-66.45 164,-51 172.1,-47.15 180.94,-44.03 189.86,-41.51"/>
<polygon fill="midnightblue" stroke="midnightblue" points="79.32,-110.69 74.83,-120.29 84.32,-115.58 79.32,-110.69"/>
</g>
<!-- Node4 -->
<g id="node4" class="node">
<title>Node4</title>
<g id="a_node4"><a xlink:href="class_j_k_q_t_math_text_dual_child_node.html" target="_top" xlink:title="subclass representing a node in the syntax tree, that has two children">
<polygon fill="none" stroke="black" points="396,-320.5 396,-341.5 575,-341.5 575,-320.5 396,-320.5"/>
<text text-anchor="middle" x="485.5" y="-327.9" font-family="FreeSans" font-size="12.00">JKQTMathTextDualChildNode</text>
</a>
</g>
</g>
<!-- Node3&#45;&gt;Node4 -->
<g id="edge3" class="edge">
<title>Node3&#45;&gt;Node4</title>
<path fill="none" stroke="midnightblue" d="M342.85,-265.03C347.06,-266.79 351.14,-268.77 355,-271 375.72,-282.95 370.3,-299.03 391,-311 397.61,-314.82 404.86,-317.92 412.32,-320.42"/>
<polygon fill="midnightblue" stroke="midnightblue" points="344.05,-261.74 333.45,-261.51 341.59,-268.3 344.05,-261.74"/>
</g>
<!-- Node6 -->
<g id="node6" class="node">
<title>Node6</title>
<g id="a_node6"><a xlink:href="class_j_k_q_t_math_text_list_node.html" target="_top" xlink:title="subclass representing a list of nodes in the syntax tree">
<polygon fill="none" stroke="black" points="412.5,-280.5 412.5,-301.5 558.5,-301.5 558.5,-280.5 412.5,-280.5"/>
<text text-anchor="middle" x="485.5" y="-287.9" font-family="FreeSans" font-size="12.00">JKQTMathTextListNode</text>
</a>
</g>
</g>
<!-- Node3&#45;&gt;Node6 -->
<g id="edge5" class="edge">
<title>Node3&#45;&gt;Node6</title>
<path fill="none" stroke="midnightblue" d="M329.57,-263.33C360.34,-268.83 396.19,-275.23 425.65,-280.49"/>
<polygon fill="midnightblue" stroke="midnightblue" points="329.81,-259.82 319.35,-261.51 328.58,-266.71 329.81,-259.82"/>
</g>
<!-- Node7 -->
<g id="node7" class="node">
<title>Node7</title>
<g id="a_node7"><a xlink:href="class_j_k_q_t_math_text_sqrt_node.html" target="_top" xlink:title="subclass representing a sqrt node">
<polygon fill="none" stroke="black" points="411,-240.5 411,-261.5 560,-261.5 560,-240.5 411,-240.5"/>
<text text-anchor="middle" x="485.5" y="-247.9" font-family="FreeSans" font-size="12.00">JKQTMathTextSqrtNode</text>
</a>
</g>
</g>
<!-- Node3&#45;&gt;Node7 -->
<g id="edge6" class="edge">
<title>Node3&#45;&gt;Node7</title>
<path fill="none" stroke="midnightblue" d="M359.71,-251C376.87,-251 394.42,-251 410.75,-251"/>
<polygon fill="midnightblue" stroke="midnightblue" points="359.67,-247.5 349.67,-251 359.67,-254.5 359.67,-247.5"/>
</g>
<!-- Node5 -->
<g id="node5" class="node">
<title>Node5</title>
<g id="a_node5"><a xlink:href="class_j_k_q_t_math_text_frac_node.html" target="_top" xlink:title="subclass representing a \frac node">
<polygon fill="none" stroke="black" points="616,-320.5 616,-341.5 768,-341.5 768,-320.5 616,-320.5"/>
<text text-anchor="middle" x="692" y="-327.9" font-family="FreeSans" font-size="12.00">JKQTMathTextFracNode</text>
</a>
</g>
</g>
<!-- Node4&#45;&gt;Node5 -->
<g id="edge4" class="edge">
<title>Node4&#45;&gt;Node5</title>
<path fill="none" stroke="midnightblue" d="M585.25,-331C595.53,-331 605.86,-331 615.82,-331"/>
<polygon fill="midnightblue" stroke="midnightblue" points="585.01,-327.5 575.01,-331 585.01,-334.5 585.01,-327.5"/>
</g>
<!-- Node9 -->
<g id="node9" class="node">
<title>Node9</title>
<g id="a_node9"><a xlink:href="class_j_k_q_t_math_text_brace_node.html" target="_top" xlink:title="subclass representing a brace node">
<polygon fill="none" stroke="black" points="406,-200.5 406,-221.5 565,-221.5 565,-200.5 406,-200.5"/>
<text text-anchor="middle" x="485.5" y="-207.9" font-family="FreeSans" font-size="12.00">JKQTMathTextBraceNode</text>
</a>
</g>
</g>
<!-- Node8&#45;&gt;Node9 -->
<g id="edge8" class="edge">
<title>Node8&#45;&gt;Node9</title>
<path fill="none" stroke="midnightblue" d="M301.91,-164.7C327.44,-172.89 360.93,-183.19 391,-191 404.01,-194.38 418.15,-197.62 431.4,-200.48"/>
<polygon fill="midnightblue" stroke="midnightblue" points="302.78,-161.3 292.19,-161.56 300.63,-167.96 302.78,-161.3"/>
</g>
<!-- Node10 -->
<g id="node10" class="node">
<title>Node10</title>
<g id="a_node10"><a xlink:href="class_j_k_q_t_math_text_decorated_node.html" target="_top" xlink:title="subclass representing a decorated text m (e.g. \vec \hat ...) node">
<polygon fill="none" stroke="black" points="394.5,-160.5 394.5,-181.5 576.5,-181.5 576.5,-160.5 394.5,-160.5"/>
<text text-anchor="middle" x="485.5" y="-167.9" font-family="FreeSans" font-size="12.00">JKQTMathTextDecoratedNode</text>
</a>
</g>
</g>
<!-- Node8&#45;&gt;Node10 -->
<g id="edge9" class="edge">
<title>Node8&#45;&gt;Node10</title>
<path fill="none" stroke="midnightblue" d="M363.71,-160.21C373.91,-161.13 384.2,-162.04 394.26,-162.94"/>
<polygon fill="midnightblue" stroke="midnightblue" points="363.82,-156.71 353.55,-159.31 363.2,-163.68 363.82,-156.71"/>
</g>
<!-- Node11 -->
<g id="node11" class="node">
<title>Node11</title>
<g id="a_node11"><a xlink:href="class_j_k_q_t_math_text_instruction1_node.html" target="_top" xlink:title="subclass representing an instruction node with exactly one argument in the syntax tree">
<polygon fill="none" stroke="black" points="391,-120.5 391,-141.5 580,-141.5 580,-120.5 391,-120.5"/>
<text text-anchor="middle" x="485.5" y="-127.9" font-family="FreeSans" font-size="12.00">JKQTMathTextInstruction1Node</text>
</a>
</g>
</g>
<!-- Node8&#45;&gt;Node11 -->
<g id="edge10" class="edge">
<title>Node8&#45;&gt;Node11</title>
<path fill="none" stroke="midnightblue" d="M363.67,-141.79C372.66,-140.99 381.74,-140.18 390.66,-139.38"/>
<polygon fill="midnightblue" stroke="midnightblue" points="363.2,-138.32 353.55,-142.69 363.82,-145.29 363.2,-138.32"/>
</g>
<!-- Node12 -->
<g id="node12" class="node">
<title>Node12</title>
<g id="a_node12"><a xlink:href="class_j_k_q_t_math_text_subscript_node.html" target="_top" xlink:title="subclass representing an subscript node with exactly one argument in the syntax tree">
<polygon fill="none" stroke="black" points="396.5,-80.5 396.5,-101.5 574.5,-101.5 574.5,-80.5 396.5,-80.5"/>
<text text-anchor="middle" x="485.5" y="-87.9" font-family="FreeSans" font-size="12.00">JKQTMathTextSubscriptNode</text>
</a>
</g>
</g>
<!-- Node8&#45;&gt;Node12 -->
<g id="edge11" class="edge">
<title>Node8&#45;&gt;Node12</title>
<path fill="none" stroke="midnightblue" d="M333.11,-137.95C340.59,-135.92 348.01,-133.61 355,-131 372.14,-124.59 373.86,-117.43 391,-111 400.95,-107.27 411.76,-104.15 422.39,-101.58"/>
<polygon fill="midnightblue" stroke="midnightblue" points="332.09,-134.6 323.27,-140.47 333.83,-141.39 332.09,-134.6"/>
</g>
<!-- Node13 -->
<g id="node13" class="node">
<title>Node13</title>
<g id="a_node13"><a xlink:href="class_j_k_q_t_math_text_superscript_node.html" target="_top" xlink:title="subclass representing an superscript node with exactly one argument in the syntax tree">
<polygon fill="none" stroke="black" points="391.5,-40.5 391.5,-61.5 579.5,-61.5 579.5,-40.5 391.5,-40.5"/>
<text text-anchor="middle" x="485.5" y="-47.9" font-family="FreeSans" font-size="12.00">JKQTMathTextSuperscriptNode</text>
</a>
</g>
</g>
<!-- Node8&#45;&gt;Node13 -->
<g id="edge12" class="edge">
<title>Node8&#45;&gt;Node13</title>
<path fill="none" stroke="midnightblue" d="M346.89,-136.04C349.71,-134.52 352.42,-132.84 355,-131 380.32,-112.94 365.7,-89.08 391,-71 396.27,-67.24 402.1,-64.15 408.2,-61.63"/>
<polygon fill="midnightblue" stroke="midnightblue" points="345.15,-133 337.61,-140.44 348.15,-139.32 345.15,-133"/>
</g>
<!-- Node16 -->
<g id="node16" class="node">
<title>Node16</title>
<g id="a_node16"><a xlink:href="class_m_tplain_text_node.html" target="_top" xlink:title="subclass representing one text node in the syntax tree">
<polygon fill="none" stroke="black" points="429,-0.5 429,-21.5 542,-21.5 542,-0.5 429,-0.5"/>
<text text-anchor="middle" x="485.5" y="-7.9" font-family="FreeSans" font-size="12.00">MTplainTextNode</text>
</a>
</g>
</g>
<!-- Node15&#45;&gt;Node16 -->
<g id="edge15" class="edge">
<title>Node15&#45;&gt;Node16</title>
<path fill="none" stroke="midnightblue" d="M333.11,-57.95C340.59,-55.92 348.01,-53.61 355,-51 372.14,-44.59 373.86,-37.43 391,-31 402.97,-26.51 416.19,-22.91 428.84,-20.08"/>
<polygon fill="midnightblue" stroke="midnightblue" points="332.09,-54.6 323.27,-60.47 333.83,-61.39 332.09,-54.6"/>
</g>
</g>
</svg>
        <g id="navigator" transform="translate(0 0)" fill="#404254">
                <rect fill="#f2f5e9" fill-opacity="0.5" stroke="#606060" stroke-width=".5" x="0" y="0" width="60" height="60"/>
                <use id="zoomplus" xlink:href="#zoomPlus" x="17" y="9" onmousedown="handleZoom(evt,'in')"/>
                <use id="zoomminus" xlink:href="#zoomMin" x="42" y="9" onmousedown="handleZoom(evt,'out')"/>
                <use id="reset" xlink:href="#resetDef" x="30" y="36" onmousedown="handleReset()"/>
                <g id="arrowUp" xlink:href="#dirArrow" transform="translate(30 24)" onmousedown="handlePan(0,-1)">
                  <use xlink:href="#rim" fill="#404040">
                        <set attributeName="fill" to="#808080" begin="arrowUp.mouseover" end="arrowUp.mouseout"/>
                  </use>
                  <path fill="none" stroke="white" stroke-width="1.5" d="M0,-3.0v7 M-2.5,-0.5L0,-3.0L2.5,-0.5"/>
                </g>
                <g id="arrowRight" xlink:href="#dirArrow" transform="rotate(90) translate(36 -43)" onmousedown="handlePan(1,0)">
                  <use xlink:href="#rim" fill="#404040">
                        <set attributeName="fill" to="#808080" begin="arrowRight.mouseover" end="arrowRight.mouseout"/>
                  </use>
                  <path fill="none" stroke="white" stroke-width="1.5" d="M0,-3.0v7 M-2.5,-0.5L0,-3.0L2.5,-0.5"/>
                </g>
                <g id="arrowDown" xlink:href="#dirArrow" transform="rotate(180) translate(-30 -48)" onmousedown="handlePan(0,1)">
                  <use xlink:href="#rim" fill="#404040">
                        <set attributeName="fill" to="#808080" begin="arrowDown.mouseover" end="arrowDown.mouseout"/>
                  </use>
                  <path fill="none" stroke="white" stroke-width="1.5" d="M0,-3.0v7 M-2.5,-0.5L0,-3.0L2.5,-0.5"/>
                </g>
                <g id="arrowLeft" xlink:href="#dirArrow" transform="rotate(270) translate(-36 17)" onmousedown="handlePan(-1,0)">
                  <use xlink:href="#rim" fill="#404040">
                        <set attributeName="fill" to="#808080" begin="arrowLeft.mouseover" end="arrowLeft.mouseout"/>
                  </use>
                  <path fill="none" stroke="white" stroke-width="1.5" d="M0,-3.0v7 M-2.5,-0.5L0,-3.0L2.5,-0.5"/>
                </g>
        </g>
        <svg viewBox="0 0 15 15" width="100%" height="30px" preserveAspectRatio="xMaxYMin meet">
         <g id="arrow_out" transform="scale(0.3 0.3)">
          <a xlink:href="class_j_k_q_t_math_text_node__inherit__graph_org.svg" target="_base">
           <rect id="button" ry="5" rx="5" y="6" x="6" height="38" width="38"
                fill="#f2f5e9" fill-opacity="0.5" stroke="#606060" stroke-width="1.0"/>
           <path id="arrow"
             d="M 11.500037,31.436501 C 11.940474,20.09759 22.043105,11.32322 32.158766,21.979434 L 37.068811,17.246167 C 37.068811,17.246167 37.088388,32 37.088388,32 L 22.160133,31.978069 C 22.160133,31.978069 26.997745,27.140456 26.997745,27.140456 C 18.528582,18.264221 13.291696,25.230495 11.500037,31.436501 z"
             style="fill:#404040;"/>
          </a>
         </g>
        </svg>
</svg>
