<?xml version="1.0" encoding="UTF-8" standalone="no"?>
<!DOCTYPE svg PUBLIC "-//W3C//DTD SVG 1.1//EN"
 "http://www.w3.org/Graphics/SVG/1.1/DTD/svg11.dtd">
<!-- Generated by graphviz version 2.43.0 (0)
 -->
<!-- Title: JKQTMathTextWhitespaceNode Pages: 1 -->
<svg width="552pt" height="127pt"
 viewBox="0.00 0.00 551.50 127.00" xmlns="http://www.w3.org/2000/svg" xmlns:xlink="http://www.w3.org/1999/xlink">
<g id="graph0" class="graph" transform="scale(1 1) rotate(0) translate(4 123)">
<title>JKQTMathTextWhitespaceNode</title>
<!-- Node1 -->
<g id="node1" class="node">
<title>Node1</title>
<g id="a_node1"><a xlink:title="subclass representing one whitepsace node in the syntax tree">
<polygon fill="#bfbfbf" stroke="black" points="296.5,-0.5 296.5,-21.5 496.5,-21.5 496.5,-0.5 296.5,-0.5"/>
<text text-anchor="middle" x="396.5" y="-7.9" font-family="Helvetica,sans-Serif" font-size="12.00">JKQTMathTextWhitespaceNode</text>
</a>
</g>
</g>
<!-- Node2 -->
<g id="node2" class="node">
<title>Node2</title>
<g id="a_node2"><a xlink:href="class_j_k_q_t_math_text_node.html" target="_top" xlink:title="subclass representing one node in the syntax tree">
<polygon fill="none" stroke="black" points="101,-91 101,-112 232,-112 232,-91 101,-91"/>
<text text-anchor="middle" x="166.5" y="-98.4" font-family="Helvetica,sans-Serif" font-size="12.00">JKQTMathTextNode</text>
</a>
</g>
</g>
<!-- Node2&#45;&gt;Node1 -->
<g id="edge1" class="edge">
<title>Node2&#45;&gt;Node1</title>
<path fill="none" stroke="midnightblue" d="M204.62,-87.58C222.82,-81.28 244.87,-73.47 264.5,-66 303.38,-51.21 348.08,-32.58 374.21,-21.51"/>
<polygon fill="midnightblue" stroke="midnightblue" points="203.26,-84.34 194.94,-90.91 205.53,-90.96 203.26,-84.34"/>
</g>
<!-- Node2&#45;&gt;Node2 -->
<g id="edge5" class="edge">
<title>Node2&#45;&gt;Node2</title>
<path fill="none" stroke="#9a32cd" stroke-dasharray="5,2" d="M242.17,-107.88C247.05,-106.39 250,-104.26 250,-101.5 250,-97.19 242.81,-94.42 232.31,-93.21"/>
<polygon fill="#9a32cd" stroke="#9a32cd" points="241.46,-104.45 232.31,-109.79 242.79,-111.32 241.46,-104.45"/>
<text text-anchor="middle" x="287.5" y="-98.4" font-family="Helvetica,sans-Serif" font-size="12.00"> parentNode</text>
</g>
<!-- Node3 -->
<g id="node3" class="node">
<title>Node3</title>
<g id="a_node3"><a xlink:href="class_j_k_q_t_math_text.html" target="_top" xlink:title="this class parses a LaTeX string and can then draw the contained text/equation onto a QPainter">
<polygon fill="none" stroke="black" points="16,-0.5 16,-21.5 115,-21.5 115,-0.5 16,-0.5"/>
<text text-anchor="middle" x="65.5" y="-7.9" font-family="Helvetica,sans-Serif" font-size="12.00">JKQTMathText</text>
</a>
</g>
</g>
<!-- Node2&#45;&gt;Node3 -->
<g id="edge4" class="edge">
<title>Node2&#45;&gt;Node3</title>
<path fill="none" stroke="#9a32cd" stroke-dasharray="5,2" d="M171,-80.5C172.68,-67.61 172.4,-51.21 163.5,-40 151.89,-25.38 133.21,-18.05 115.25,-14.49"/>
<polygon fill="#9a32cd" stroke="#9a32cd" points="167.49,-80.26 169.18,-90.71 174.38,-81.48 167.49,-80.26"/>
<text text-anchor="middle" x="216.5" y="-56.4" font-family="Helvetica,sans-Serif" font-size="12.00"> parsedNode</text>
<text text-anchor="middle" x="216.5" y="-43.4" font-family="Helvetica,sans-Serif" font-size="12.00">unparsedNode</text>
</g>
<!-- Node3&#45;&gt;Node2 -->
<g id="edge2" class="edge">
<title>Node3&#45;&gt;Node2</title>
<path fill="none" stroke="#9a32cd" stroke-dasharray="5,2" d="M60.69,-31.85C59.2,-42.9 59.47,-56.33 66.5,-66 75.19,-77.96 88.31,-85.81 102.2,-90.95"/>
<polygon fill="#9a32cd" stroke="#9a32cd" points="64.17,-32.3 62.59,-21.82 57.29,-31 64.17,-32.3"/>
<text text-anchor="middle" x="115" y="-49.9" font-family="Helvetica,sans-Serif" font-size="12.00"> parentMathText</text>
</g>
<!-- Node4 -->
<g id="node4" class="node">
<title>Node4</title>
<g id="a_node4"><a xlink:title=" ">
<polygon fill="none" stroke="black" points="0,-91 0,-112 65,-112 65,-91 0,-91"/>
<text text-anchor="middle" x="32.5" y="-98.4" font-family="Helvetica,sans-Serif" font-size="12.00">QObject</text>
</a>
</g>
</g>
<!-- Node4&#45;&gt;Node3 -->
<g id="edge3" class="edge">
<title>Node4&#45;&gt;Node3</title>
<path fill="none" stroke="midnightblue" d="M35.18,-80.76C37.28,-68.64 40.82,-53.01 46.5,-40 49.37,-33.43 53.82,-26.77 57.69,-21.59"/>
<polygon fill="midnightblue" stroke="midnightblue" points="31.71,-80.3 33.64,-90.72 38.62,-81.38 31.71,-80.3"/>
</g>
<!-- Node5 -->
<g id="node5" class="node">
<title>Node5</title>
<g id="a_node5"><a xlink:href="struct_j_k_q_t_math_text_whitespace_node_1_1_whitespace_props.html" target="_top" xlink:title="describes a whitespace">
<polygon fill="none" stroke="black" points="343.5,-84.5 343.5,-118.5 543.5,-118.5 543.5,-84.5 343.5,-84.5"/>
<text text-anchor="start" x="351.5" y="-104.9" font-family="Helvetica,sans-Serif" font-size="12.00">JKQTMathTextWhitespaceNode</text>
<text text-anchor="middle" x="443.5" y="-91.9" font-family="Helvetica,sans-Serif" font-size="12.00">::WhitespaceProps</text>
</a>
</g>
</g>
<!-- Node5&#45;&gt;Node1 -->
<g id="edge6" class="edge">
<title>Node5&#45;&gt;Node1</title>
<path fill="none" stroke="#9a32cd" stroke-dasharray="5,2" d="M429.93,-74.96C420.45,-57.1 408.32,-34.26 401.59,-21.58"/>
<polygon fill="#9a32cd" stroke="#9a32cd" points="427.1,-77.08 434.88,-84.27 433.28,-73.79 427.1,-77.08"/>
<text text-anchor="middle" x="459.5" y="-49.9" font-family="Helvetica,sans-Serif" font-size="12.00"> whitespace</text>
</g>
</g>
</svg>
