<?xml version="1.0" encoding="UTF-8" standalone="no"?>
<!DOCTYPE svg PUBLIC "-//W3C//DTD SVG 1.1//EN"
 "http://www.w3.org/Graphics/SVG/1.1/DTD/svg11.dtd">
<!-- Generated by graphviz version 2.43.0 (0)
 -->
<!-- Title: JKQTFPQScaleBarXPlot Pages: 1 -->
<svg width="311pt" height="223pt"
 viewBox="0.00 0.00 311.00 223.00" xmlns="http://www.w3.org/2000/svg" xmlns:xlink="http://www.w3.org/1999/xlink">
<g id="graph0" class="graph" transform="scale(1 1) rotate(0) translate(4 219)">
<title>JKQTFPQScaleBarXPlot</title>
<!-- Node1 -->
<g id="node1" class="node">
<title>Node1</title>
<g id="a_node1"><a xlink:title="plot a horizontal scale bar">
<polygon fill="#bfbfbf" stroke="black" points="0,-0.5 0,-21.5 153,-21.5 153,-0.5 0,-0.5"/>
<text text-anchor="middle" x="76.5" y="-7.9" font-family="Helvetica,sans-Serif" font-size="12.00">JKQTFPQScaleBarXPlot</text>
</a>
</g>
</g>
<!-- Node2 -->
<g id="node2" class="node">
<title>Node2</title>
<g id="a_node2"><a xlink:href="class_j_k_q_t_f_p_plot.html" target="_top" xlink:title="base class for all plots that may be plotted by JKQTFastPlotter">
<polygon fill="none" stroke="black" points="35.5,-59.5 35.5,-80.5 117.5,-80.5 117.5,-59.5 35.5,-59.5"/>
<text text-anchor="middle" x="76.5" y="-66.9" font-family="Helvetica,sans-Serif" font-size="12.00">JKQTFPPlot</text>
</a>
</g>
</g>
<!-- Node2&#45;&gt;Node1 -->
<g id="edge1" class="edge">
<title>Node2&#45;&gt;Node1</title>
<path fill="none" stroke="midnightblue" d="M76.5,-49.23C76.5,-39.85 76.5,-29.07 76.5,-21.53"/>
<polygon fill="midnightblue" stroke="midnightblue" points="73,-49.33 76.5,-59.33 80,-49.33 73,-49.33"/>
</g>
<!-- Node3 -->
<g id="node3" class="node">
<title>Node3</title>
<g id="a_node3"><a xlink:title=" ">
<polygon fill="none" stroke="black" points="10,-132.5 10,-153.5 75,-153.5 75,-132.5 10,-132.5"/>
<text text-anchor="middle" x="42.5" y="-139.9" font-family="Helvetica,sans-Serif" font-size="12.00">QObject</text>
</a>
</g>
</g>
<!-- Node3&#45;&gt;Node2 -->
<g id="edge2" class="edge">
<title>Node3&#45;&gt;Node2</title>
<path fill="none" stroke="midnightblue" d="M51.58,-123.04C58.08,-109.47 66.56,-91.75 71.77,-80.88"/>
<polygon fill="midnightblue" stroke="midnightblue" points="48.25,-121.89 47.09,-132.42 54.56,-124.92 48.25,-121.89"/>
</g>
<!-- Node4 -->
<g id="node4" class="node">
<title>Node4</title>
<g id="a_node4"><a xlink:href="class_j_k_q_t_fast_plotter.html" target="_top" xlink:title="a speed optimized plotter class">
<polygon fill="none" stroke="black" points="93,-132.5 93,-153.5 202,-153.5 202,-132.5 93,-132.5"/>
<text text-anchor="middle" x="147.5" y="-139.9" font-family="Helvetica,sans-Serif" font-size="12.00">JKQTFastPlotter</text>
</a>
</g>
</g>
<!-- Node4&#45;&gt;Node2 -->
<g id="edge3" class="edge">
<title>Node4&#45;&gt;Node2</title>
<path fill="none" stroke="#9a32cd" stroke-dasharray="5,2" d="M130.5,-125C116.72,-111.22 97.78,-92.28 86.38,-80.88"/>
<polygon fill="#9a32cd" stroke="#9a32cd" points="128.38,-127.83 137.92,-132.42 133.33,-122.88 128.38,-127.83"/>
<text text-anchor="middle" x="137" y="-102.4" font-family="Helvetica,sans-Serif" font-size="12.00"> parent</text>
</g>
<!-- Node4&#45;&gt;Node4 -->
<g id="edge5" class="edge">
<title>Node4&#45;&gt;Node4</title>
<path fill="none" stroke="#9a32cd" stroke-dasharray="5,2" d="M212.41,-147.15C217.12,-146.22 220,-144.83 220,-143 220,-140.07 212.62,-138.29 202.2,-137.64"/>
<polygon fill="#9a32cd" stroke="#9a32cd" points="211.72,-143.71 202.2,-148.36 212.54,-150.66 211.72,-143.71"/>
<text text-anchor="middle" x="261.5" y="-146.4" font-family="Helvetica,sans-Serif" font-size="12.00"> synchronizeX</text>
<text text-anchor="middle" x="261.5" y="-133.4" font-family="Helvetica,sans-Serif" font-size="12.00">synchronizeY</text>
</g>
<!-- Node5 -->
<g id="node5" class="node">
<title>Node5</title>
<g id="a_node5"><a xlink:title=" ">
<polygon fill="none" stroke="black" points="90.5,-193.5 90.5,-214.5 204.5,-214.5 204.5,-193.5 90.5,-193.5"/>
<text text-anchor="middle" x="147.5" y="-200.9" font-family="Helvetica,sans-Serif" font-size="12.00">QOpenGLWidget</text>
</a>
</g>
</g>
<!-- Node5&#45;&gt;Node4 -->
<g id="edge4" class="edge">
<title>Node5&#45;&gt;Node4</title>
<path fill="none" stroke="midnightblue" d="M147.5,-182.99C147.5,-173.05 147.5,-161.5 147.5,-153.56"/>
<polygon fill="midnightblue" stroke="midnightblue" points="144,-183.26 147.5,-193.26 151,-183.26 144,-183.26"/>
</g>
</g>
</svg>
