<?xml version="1.0" encoding="UTF-8" standalone="no"?>
<!DOCTYPE svg PUBLIC "-//W3C//DTD SVG 1.1//EN"
 "http://www.w3.org/Graphics/SVG/1.1/DTD/svg11.dtd">
<!-- Generated by graphviz version 2.43.0 (0)
 -->
<!-- Title: JKQTMathTextInstruction1Node Pages: 1 -->
<!--zoomable 124 -->
<svg id="main" version="1.1" xmlns="http://www.w3.org/2000/svg" xmlns:xlink="http://www.w3.org/1999/xlink" xml:space="preserve" onload="init(evt)">
<style type="text/css"><![CDATA[
.edge:hover path { stroke: red; }
.edge:hover polygon { stroke: red; fill: red; }
]]></style>
<script type="text/javascript"><![CDATA[
var edges = document.getElementsByTagName('g');
if (edges && edges.length) {
  for (var i=0;i<edges.length;i++) {
    if (edges[i].id.substr(0,4)=='edge') {
      edges[i].setAttribute('class','edge');
    }
  }
}
]]></script>
        <defs>
                <circle id="rim" cx="0" cy="0" r="7"/>
                <circle id="rim2" cx="0" cy="0" r="3.5"/>
                <g id="zoomPlus">
                        <use xlink:href="#rim" fill="#404040">
                                <set attributeName="fill" to="#808080" begin="zoomplus.mouseover" end="zoomplus.mouseout"/>
                        </use>
                        <path d="M-4,0h8M0,-4v8" fill="none" stroke="white" stroke-width="1.5" pointer-events="none"/>
                </g>
                <g id="zoomMin">
                        <use xlink:href="#rim" fill="#404040">
                                <set attributeName="fill" to="#808080" begin="zoomminus.mouseover" end="zoomminus.mouseout"/>
                        </use>
                        <path d="M-4,0h8" fill="none" stroke="white" stroke-width="1.5" pointer-events="none"/>
                </g>
                <g id="dirArrow">
                        <path fill="none" stroke="white" stroke-width="1.5" d="M0,-3.0v7 M-2.5,-0.5L0,-3.0L2.5,-0.5"/>
                </g>
               <g id="resetDef">
                       <use xlink:href="#rim2" fill="#404040">
                               <set attributeName="fill" to="#808080" begin="reset.mouseover" end="reset.mouseout"/>
                       </use>
               </g>
        </defs>

<script type="text/javascript">
var viewWidth = 861;
var viewHeight = 124;
var sectionId = 'dynsection-0';
</script>
<script xlink:href="svgpan.js"/>
<svg id="graph" class="graph">
<g id="viewport">
<title>JKQTMathTextInstruction1Node</title>
<!-- Node1 -->
<g id="node1" class="node">
<title>Node1</title>
<g id="a_node1"><a xlink:title="subclass representing an instruction node with exactly one argument and possibly additional parameter...">
<polygon fill="#bfbfbf" stroke="black" points="399,-47.5 399,-68.5 601,-68.5 601,-47.5 399,-47.5"/>
<text text-anchor="middle" x="500" y="-54.9" font-family="Helvetica,sans-Serif" font-size="12.00">JKQTMathTextInstruction1Node</text>
</a>
</g>
</g>
<!-- Node4 -->
<g id="node4" class="node">
<title>Node4</title>
<g id="a_node4"><a xlink:href="class_j_k_q_t_math_text_box_instruction_node.html" target="_top" xlink:title="subclass representing an instruction node which draws a (possibly colored) box around it&#39;s contents i...">
<polygon fill="none" stroke="black" points="637,-94.5 637,-115.5 853,-115.5 853,-94.5 637,-94.5"/>
<text text-anchor="middle" x="745" y="-101.9" font-family="Helvetica,sans-Serif" font-size="12.00">JKQTMathTextBoxInstructionNode</text>
</a>
</g>
</g>
<!-- Node1&#45;&gt;Node4 -->
<g id="edge3" class="edge">
<title>Node1&#45;&gt;Node4</title>
<path fill="none" stroke="midnightblue" d="M563.32,-70.52C586.45,-75.13 612.91,-80.36 637,-85 653.24,-88.13 670.87,-91.46 687.06,-94.48"/>
<polygon fill="midnightblue" stroke="midnightblue" points="563.78,-67.05 553.28,-68.52 562.41,-73.91 563.78,-67.05"/>
</g>
<!-- Node5 -->
<g id="node5" class="node">
<title>Node5</title>
<g id="a_node5"><a xlink:href="class_j_k_q_t_math_text_modified_text_props_instruction_node.html" target="_top" xlink:title="subclass representing an instruction node which modifies the current font (as defined in JKQTMathText...">
<polygon fill="none" stroke="black" points="658,-41 658,-75 832,-75 832,-41 658,-41"/>
<text text-anchor="start" x="666" y="-61.4" font-family="Helvetica,sans-Serif" font-size="12.00">JKQTMathTextModifiedText</text>
<text text-anchor="middle" x="745" y="-48.4" font-family="Helvetica,sans-Serif" font-size="12.00">PropsInstructionNode</text>
</a>
</g>
</g>
<!-- Node1&#45;&gt;Node5 -->
<g id="edge4" class="edge">
<title>Node1&#45;&gt;Node5</title>
<path fill="none" stroke="midnightblue" d="M611.45,-58C627.05,-58 642.89,-58 657.94,-58"/>
<polygon fill="midnightblue" stroke="midnightblue" points="611.24,-54.5 601.24,-58 611.24,-61.5 611.24,-54.5"/>
</g>
<!-- Node6 -->
<g id="node6" class="node">
<title>Node6</title>
<g id="a_node6"><a xlink:href="class_j_k_q_t_math_text_phantom_node.html" target="_top" xlink:title="generates whitespace with the size of the contained node">
<polygon fill="none" stroke="black" points="652.5,-0.5 652.5,-21.5 837.5,-21.5 837.5,-0.5 652.5,-0.5"/>
<text text-anchor="middle" x="745" y="-7.9" font-family="Helvetica,sans-Serif" font-size="12.00">JKQTMathTextPhantomNode</text>
</a>
</g>
</g>
<!-- Node1&#45;&gt;Node6 -->
<g id="edge5" class="edge">
<title>Node1&#45;&gt;Node6</title>
<path fill="none" stroke="midnightblue" d="M563.32,-45.48C586.45,-40.87 612.91,-35.64 637,-31 653.24,-27.87 670.87,-24.54 687.06,-21.52"/>
<polygon fill="midnightblue" stroke="midnightblue" points="562.41,-42.09 553.28,-47.48 563.78,-48.95 562.41,-42.09"/>
</g>
<!-- Node2 -->
<g id="node2" class="node">
<title>Node2</title>
<g id="a_node2"><a xlink:href="class_j_k_q_t_math_text_single_child_node.html" target="_top" xlink:title="subclass representing a node in the syntax tree, that has one child">
<polygon fill="none" stroke="black" points="167,-47.5 167,-68.5 363,-68.5 363,-47.5 167,-47.5"/>
<text text-anchor="middle" x="265" y="-54.9" font-family="Helvetica,sans-Serif" font-size="12.00">JKQTMathTextSingleChildNode</text>
</a>
</g>
</g>
<!-- Node2&#45;&gt;Node1 -->
<g id="edge1" class="edge">
<title>Node2&#45;&gt;Node1</title>
<path fill="none" stroke="midnightblue" d="M373.36,-58C381.79,-58 390.28,-58 398.65,-58"/>
<polygon fill="midnightblue" stroke="midnightblue" points="373.13,-54.5 363.13,-58 373.13,-61.5 373.13,-54.5"/>
</g>
<!-- Node3 -->
<g id="node3" class="node">
<title>Node3</title>
<g id="a_node3"><a xlink:href="class_j_k_q_t_math_text_node.html" target="_top" xlink:title="subclass representing one node in the syntax tree">
<polygon fill="none" stroke="black" points="0,-47.5 0,-68.5 131,-68.5 131,-47.5 0,-47.5"/>
<text text-anchor="middle" x="65.5" y="-54.9" font-family="Helvetica,sans-Serif" font-size="12.00">JKQTMathTextNode</text>
</a>
</g>
</g>
<!-- Node3&#45;&gt;Node2 -->
<g id="edge2" class="edge">
<title>Node3&#45;&gt;Node2</title>
<path fill="none" stroke="midnightblue" d="M141.28,-58C149.68,-58 158.33,-58 166.96,-58"/>
<polygon fill="midnightblue" stroke="midnightblue" points="141.17,-54.5 131.17,-58 141.17,-61.5 141.17,-54.5"/>
</g>
</g>
</svg>
        <g id="navigator" transform="translate(0 0)" fill="#404254">
                <rect fill="#f2f5e9" fill-opacity="0.5" stroke="#606060" stroke-width=".5" x="0" y="0" width="60" height="60"/>
                <use id="zoomplus" xlink:href="#zoomPlus" x="17" y="9" onmousedown="handleZoom(evt,'in')"/>
                <use id="zoomminus" xlink:href="#zoomMin" x="42" y="9" onmousedown="handleZoom(evt,'out')"/>
                <use id="reset" xlink:href="#resetDef" x="30" y="36" onmousedown="handleReset()"/>
                <g id="arrowUp" xlink:href="#dirArrow" transform="translate(30 24)" onmousedown="handlePan(0,-1)">
                  <use xlink:href="#rim" fill="#404040">
                        <set attributeName="fill" to="#808080" begin="arrowUp.mouseover" end="arrowUp.mouseout"/>
                  </use>
                  <path fill="none" stroke="white" stroke-width="1.5" d="M0,-3.0v7 M-2.5,-0.5L0,-3.0L2.5,-0.5"/>
                </g>
                <g id="arrowRight" xlink:href="#dirArrow" transform="rotate(90) translate(36 -43)" onmousedown="handlePan(1,0)">
                  <use xlink:href="#rim" fill="#404040">
                        <set attributeName="fill" to="#808080" begin="arrowRight.mouseover" end="arrowRight.mouseout"/>
                  </use>
                  <path fill="none" stroke="white" stroke-width="1.5" d="M0,-3.0v7 M-2.5,-0.5L0,-3.0L2.5,-0.5"/>
                </g>
                <g id="arrowDown" xlink:href="#dirArrow" transform="rotate(180) translate(-30 -48)" onmousedown="handlePan(0,1)">
                  <use xlink:href="#rim" fill="#404040">
                        <set attributeName="fill" to="#808080" begin="arrowDown.mouseover" end="arrowDown.mouseout"/>
                  </use>
                  <path fill="none" stroke="white" stroke-width="1.5" d="M0,-3.0v7 M-2.5,-0.5L0,-3.0L2.5,-0.5"/>
                </g>
                <g id="arrowLeft" xlink:href="#dirArrow" transform="rotate(270) translate(-36 17)" onmousedown="handlePan(-1,0)">
                  <use xlink:href="#rim" fill="#404040">
                        <set attributeName="fill" to="#808080" begin="arrowLeft.mouseover" end="arrowLeft.mouseout"/>
                  </use>
                  <path fill="none" stroke="white" stroke-width="1.5" d="M0,-3.0v7 M-2.5,-0.5L0,-3.0L2.5,-0.5"/>
                </g>
        </g>
        <svg viewBox="0 0 15 15" width="100%" height="30px" preserveAspectRatio="xMaxYMin meet">
         <g id="arrow_out" transform="scale(0.3 0.3)">
          <a xlink:href="class_j_k_q_t_math_text_instruction1_node__inherit__graph_org.svg" target="_base">
           <rect id="button" ry="5" rx="5" y="6" x="6" height="38" width="38"
                fill="#f2f5e9" fill-opacity="0.5" stroke="#606060" stroke-width="1.0"/>
           <path id="arrow"
             d="M 11.500037,31.436501 C 11.940474,20.09759 22.043105,11.32322 32.158766,21.979434 L 37.068811,17.246167 C 37.068811,17.246167 37.088388,32 37.088388,32 L 22.160133,31.978069 C 22.160133,31.978069 26.997745,27.140456 26.997745,27.140456 C 18.528582,18.264221 13.291696,25.230495 11.500037,31.436501 z"
             style="fill:#404040;"/>
          </a>
         </g>
        </svg>
</svg>
