<?xml version="1.0" encoding="UTF-8" standalone="no"?>
<!DOCTYPE svg PUBLIC "-//W3C//DTD SVG 1.1//EN"
 "http://www.w3.org/Graphics/SVG/1.1/DTD/svg11.dtd">
<!-- Generated by graphviz version 2.43.0 (0)
 -->
<!-- Title: JKQTPColorPaletteWithModifierStyleAndToolsMixin Pages: 1 -->
<!--zoomable 528 -->
<svg id="main" version="1.1" xmlns="http://www.w3.org/2000/svg" xmlns:xlink="http://www.w3.org/1999/xlink" xml:space="preserve" onload="init(evt)">
<style type="text/css"><![CDATA[
.edge:hover path { stroke: red; }
.edge:hover polygon { stroke: red; fill: red; }
]]></style>
<script type="text/javascript"><![CDATA[
var edges = document.getElementsByTagName('g');
if (edges && edges.length) {
  for (var i=0;i<edges.length;i++) {
    if (edges[i].id.substr(0,4)=='edge') {
      edges[i].setAttribute('class','edge');
    }
  }
}
]]></script>
        <defs>
                <circle id="rim" cx="0" cy="0" r="7"/>
                <circle id="rim2" cx="0" cy="0" r="3.5"/>
                <g id="zoomPlus">
                        <use xlink:href="#rim" fill="#404040">
                                <set attributeName="fill" to="#808080" begin="zoomplus.mouseover" end="zoomplus.mouseout"/>
                        </use>
                        <path d="M-4,0h8M0,-4v8" fill="none" stroke="white" stroke-width="1.5" pointer-events="none"/>
                </g>
                <g id="zoomMin">
                        <use xlink:href="#rim" fill="#404040">
                                <set attributeName="fill" to="#808080" begin="zoomminus.mouseover" end="zoomminus.mouseout"/>
                        </use>
                        <path d="M-4,0h8" fill="none" stroke="white" stroke-width="1.5" pointer-events="none"/>
                </g>
                <g id="dirArrow">
                        <path fill="none" stroke="white" stroke-width="1.5" d="M0,-3.0v7 M-2.5,-0.5L0,-3.0L2.5,-0.5"/>
                </g>
               <g id="resetDef">
                       <use xlink:href="#rim2" fill="#404040">
                               <set attributeName="fill" to="#808080" begin="reset.mouseover" end="reset.mouseout"/>
                       </use>
               </g>
        </defs>

<script type="text/javascript">
var viewWidth = 3521;
var viewHeight = 528;
var sectionId = 'dynsection-1';
</script>
<script xlink:href="svgpan.js"/>
<svg id="graph" class="graph">
<g id="viewport">
<title>JKQTPColorPaletteWithModifierStyleAndToolsMixin</title>
<!-- Node1 -->
<g id="node1" class="node">
<title>Node1</title>
<g id="a_node1"><a xlink:title="if a class is derived from this class, it may use color bars that have 2 axes (one &quot;data&quot;/color axis ...">
<polygon fill="#bfbfbf" stroke="black" points="3313,-259.5 3313,-293.5 3513,-293.5 3513,-259.5 3313,-259.5"/>
<text text-anchor="start" x="3321" y="-279.9" font-family="Helvetica,sans-Serif" font-size="12.00">JKQTPColorPaletteWithModifier</text>
<text text-anchor="middle" x="3413" y="-266.9" font-family="Helvetica,sans-Serif" font-size="12.00">StyleAndToolsMixin</text>
</a>
</g>
</g>
<!-- Node2 -->
<g id="node2" class="node">
<title>Node2</title>
<g id="a_node2"><a xlink:href="class_j_k_q_t_p_color_palette_style_and_tools_mixin.html" target="_top" xlink:title="if a class is derived from this class, it may use color bars">
<polygon fill="none" stroke="black" points="3098,-205.5 3098,-239.5 3276,-239.5 3276,-205.5 3098,-205.5"/>
<text text-anchor="start" x="3106" y="-225.9" font-family="Helvetica,sans-Serif" font-size="12.00">JKQTPColorPaletteStyleAnd</text>
<text text-anchor="middle" x="3187" y="-212.9" font-family="Helvetica,sans-Serif" font-size="12.00">ToolsMixin</text>
</a>
</g>
</g>
<!-- Node2&#45;&gt;Node1 -->
<g id="edge1" class="edge">
<title>Node2&#45;&gt;Node1</title>
<path fill="none" stroke="midnightblue" d="M3268.31,-241.86C3292.2,-247.62 3318.18,-253.88 3341.4,-259.48"/>
<polygon fill="midnightblue" stroke="midnightblue" points="3269.11,-238.45 3258.57,-239.51 3267.47,-245.26 3269.11,-238.45"/>
</g>
<!-- Node3 -->
<g id="node3" class="node">
<title>Node3</title>
<g id="a_node3"><a xlink:href="class_j_k_q_t_base_plotter.html" target="_top" xlink:title="base class for 2D plotter classes (used by the plotter widget JKQTPlotter)">
<polygon fill="none" stroke="black" points="2035.5,-282 2035.5,-303 2149.5,-303 2149.5,-282 2035.5,-282"/>
<text text-anchor="middle" x="2092.5" y="-289.4" font-family="Helvetica,sans-Serif" font-size="12.00">JKQTBasePlotter</text>
</a>
</g>
</g>
<!-- Node3&#45;&gt;Node2 -->
<g id="edge2" class="edge">
<title>Node3&#45;&gt;Node2</title>
<path fill="none" stroke="#9a32cd" stroke-dasharray="5,2" d="M2107.44,-273.8C2123.14,-254.36 2150.61,-224.93 2182,-211.5 2279.27,-169.89 2313.71,-195.5 2419.5,-195.5 2419.5,-195.5 2419.5,-195.5 2846.5,-195.5 2932.09,-195.5 3029.43,-204.13 3097.87,-211.63"/>
<polygon fill="#9a32cd" stroke="#9a32cd" points="2104.48,-271.91 2101.08,-281.94 2109.99,-276.22 2104.48,-271.91"/>
<text text-anchor="middle" x="2633.5" y="-198.9" font-family="Helvetica,sans-Serif" font-size="12.00"> cbParent</text>
</g>
<!-- Node3&#45;&gt;Node3 -->
<g id="edge42" class="edge">
<title>Node3&#45;&gt;Node3</title>
<path fill="none" stroke="#9a32cd" stroke-dasharray="5,2" d="M2066.93,-312.56C2068.61,-317.66 2077.13,-321.5 2092.5,-321.5 2116.49,-321.5 2123.8,-312.15 2114.43,-303.21"/>
<polygon fill="#9a32cd" stroke="#9a32cd" points="2070.21,-313.8 2070.57,-303.21 2063.68,-311.26 2070.21,-313.8"/>
<text text-anchor="middle" x="2092.5" y="-337.9" font-family="Helvetica,sans-Serif" font-size="12.00"> masterPlotterX</text>
<text text-anchor="middle" x="2092.5" y="-324.9" font-family="Helvetica,sans-Serif" font-size="12.00">masterPlotterY</text>
</g>
<!-- Node19 -->
<g id="node19" class="node">
<title>Node19</title>
<g id="a_node19"><a xlink:href="class_j_k_q_t_p_graphs_model.html" target="_top" xlink:title="data model with all plots ina JKQTBasePlotter (+ allows to switch them visible/invisible)">
<polygon fill="none" stroke="black" points="2355,-224 2355,-245 2486,-245 2486,-224 2355,-224"/>
<text text-anchor="middle" x="2420.5" y="-231.4" font-family="Helvetica,sans-Serif" font-size="12.00">JKQTPGraphsModel</text>
</a>
</g>
</g>
<!-- Node3&#45;&gt;Node19 -->
<g id="edge28" class="edge">
<title>Node3&#45;&gt;Node19</title>
<path fill="none" stroke="#9a32cd" stroke-dasharray="5,2" d="M2133.06,-278.89C2148.22,-274.09 2165.77,-269.01 2182,-265.5 2239.92,-252.98 2306.94,-244.79 2355,-239.99"/>
<polygon fill="#9a32cd" stroke="#9a32cd" points="2131.92,-275.58 2123.48,-281.99 2134.07,-282.24 2131.92,-275.58"/>
<text text-anchor="middle" x="2238.5" y="-268.9" font-family="Helvetica,sans-Serif" font-size="12.00"> m_plotter</text>
</g>
<!-- Node22 -->
<g id="node22" class="node">
<title>Node22</title>
<g id="a_node22"><a xlink:href="class_j_k_q_t_p_coordinate_axis.html" target="_top" xlink:title="this virtual class is the base for any type of coordinate axis, to be drawn by JKQTBasePlotter.">
<polygon fill="none" stroke="black" points="2349.5,-370 2349.5,-391 2491.5,-391 2491.5,-370 2349.5,-370"/>
<text text-anchor="middle" x="2420.5" y="-377.4" font-family="Helvetica,sans-Serif" font-size="12.00">JKQTPCoordinateAxis</text>
</a>
</g>
</g>
<!-- Node3&#45;&gt;Node22 -->
<g id="edge32" class="edge">
<title>Node3&#45;&gt;Node22</title>
<path fill="none" stroke="#9a32cd" stroke-dasharray="5,2" d="M2124.15,-307.51C2140.93,-315.24 2162.26,-324.32 2182,-330.5 2230.91,-345.8 2244.84,-342.96 2295,-353.5 2320.32,-358.82 2348.51,-364.92 2371.64,-369.97"/>
<polygon fill="#9a32cd" stroke="#9a32cd" points="2125.39,-304.22 2114.85,-303.14 2122.42,-310.56 2125.39,-304.22"/>
<text text-anchor="middle" x="2238.5" y="-356.9" font-family="Helvetica,sans-Serif" font-size="12.00"> parent</text>
</g>
<!-- Node4 -->
<g id="node4" class="node">
<title>Node4</title>
<g id="a_node4"><a xlink:title=" ">
<polygon fill="none" stroke="black" points="1442.5,-450 1442.5,-471 1507.5,-471 1507.5,-450 1442.5,-450"/>
<text text-anchor="middle" x="1475" y="-457.4" font-family="Helvetica,sans-Serif" font-size="12.00">QObject</text>
</a>
</g>
</g>
<!-- Node4&#45;&gt;Node3 -->
<g id="edge3" class="edge">
<title>Node4&#45;&gt;Node3</title>
<path fill="none" stroke="midnightblue" d="M1517.75,-458.43C1609.89,-453.19 1827.29,-436.9 1888,-397.5 1900.41,-389.45 1894.65,-378.99 1906,-369.5 1947.19,-335.05 2005.95,-314.18 2046.24,-303.02"/>
<polygon fill="midnightblue" stroke="midnightblue" points="1517.46,-454.94 1507.67,-458.99 1517.85,-461.93 1517.46,-454.94"/>
</g>
<!-- Node17 -->
<g id="node17" class="node">
<title>Node17</title>
<g id="a_node17"><a xlink:href="class_j_k_q_t_math_text.html" target="_top" xlink:title="this class parses a mathematical markup string and can then draw the contained text/equation onto a Q...">
<polygon fill="none" stroke="black" points="1767,-450 1767,-471 1866,-471 1866,-450 1767,-450"/>
<text text-anchor="middle" x="1816.5" y="-457.4" font-family="Helvetica,sans-Serif" font-size="12.00">JKQTMathText</text>
</a>
</g>
</g>
<!-- Node4&#45;&gt;Node17 -->
<g id="edge22" class="edge">
<title>Node4&#45;&gt;Node17</title>
<path fill="none" stroke="midnightblue" d="M1518,-460.5C1581.07,-460.5 1699.96,-460.5 1766.76,-460.5"/>
<polygon fill="midnightblue" stroke="midnightblue" points="1517.63,-457 1507.63,-460.5 1517.63,-464 1517.63,-457"/>
</g>
<!-- Node4&#45;&gt;Node22 -->
<g id="edge31" class="edge">
<title>Node4&#45;&gt;Node22</title>
<path fill="none" stroke="midnightblue" d="M1517.53,-470.32C1625.57,-494.26 1923.69,-549.9 2164,-497.5 2260.29,-476.5 2363.7,-415.8 2403.04,-391.12"/>
<polygon fill="midnightblue" stroke="midnightblue" points="1518.2,-466.89 1507.68,-468.11 1516.67,-473.72 1518.2,-466.89"/>
</g>
<!-- Node5 -->
<g id="node5" class="node">
<title>Node5</title>
<g id="a_node5"><a xlink:href="class_j_k_q_t_base_plotter_style.html" target="_top" xlink:title="Support Class for JKQTBasePlotter, which summarizes all properties that define the visual styling of ...">
<polygon fill="none" stroke="black" points="1745,-282 1745,-303 1888,-303 1888,-282 1745,-282"/>
<text text-anchor="middle" x="1816.5" y="-289.4" font-family="Helvetica,sans-Serif" font-size="12.00">JKQTBasePlotterStyle</text>
</a>
</g>
</g>
<!-- Node5&#45;&gt;Node3 -->
<g id="edge4" class="edge">
<title>Node5&#45;&gt;Node3</title>
<path fill="none" stroke="#9a32cd" stroke-dasharray="5,2" d="M1898.19,-292.5C1942.32,-292.5 1995.88,-292.5 2035.42,-292.5"/>
<polygon fill="#9a32cd" stroke="#9a32cd" points="1898.06,-289 1888.06,-292.5 1898.06,-296 1898.06,-289"/>
<text text-anchor="middle" x="1954.5" y="-295.9" font-family="Helvetica,sans-Serif" font-size="12.00"> plotterStyle</text>
</g>
<!-- Node6 -->
<g id="node6" class="node">
<title>Node6</title>
<g id="a_node6"><a xlink:href="class_j_k_q_t_p_key_style.html" target="_top" xlink:title="Support Class for JKQTBasePlotter, which summarizes all properties that define the visual styling of ...">
<polygon fill="none" stroke="black" points="1423,-331 1423,-352 1527,-352 1527,-331 1423,-331"/>
<text text-anchor="middle" x="1475" y="-338.4" font-family="Helvetica,sans-Serif" font-size="12.00">JKQTPKeyStyle</text>
</a>
</g>
</g>
<!-- Node6&#45;&gt;Node5 -->
<g id="edge5" class="edge">
<title>Node6&#45;&gt;Node5</title>
<path fill="none" stroke="#9a32cd" stroke-dasharray="5,2" d="M1537.61,-339.68C1588.73,-337.32 1663.12,-331.9 1727,-319.5 1747.18,-315.58 1769.31,-308.83 1786.39,-303.06"/>
<polygon fill="#9a32cd" stroke="#9a32cd" points="1537.23,-336.19 1527.39,-340.13 1537.54,-343.19 1537.23,-336.19"/>
<text text-anchor="middle" x="1658.5" y="-338.9" font-family="Helvetica,sans-Serif" font-size="12.00"> keyStyle</text>
</g>
<!-- Node7 -->
<g id="node7" class="node">
<title>Node7</title>
<g id="a_node7"><a xlink:href="class_j_k_q_t_p_coordinate_axis_style.html" target="_top" xlink:title="Support Class for JKQTPCoordinateAxis, which summarizes all properties that define the visual styling...">
<polygon fill="none" stroke="black" points="1063,-284 1063,-305 1234,-305 1234,-284 1063,-284"/>
<text text-anchor="middle" x="1148.5" y="-291.4" font-family="Helvetica,sans-Serif" font-size="12.00">JKQTPCoordinateAxisStyle</text>
</a>
</g>
</g>
<!-- Node7&#45;&gt;Node5 -->
<g id="edge6" class="edge">
<title>Node7&#45;&gt;Node5</title>
<path fill="none" stroke="#9a32cd" stroke-dasharray="5,2" d="M1194.59,-281.09C1240.31,-268.24 1313.35,-249.76 1378,-242.5 1463.68,-232.87 1486.22,-233.78 1572,-242.5 1645.2,-249.94 1728.91,-269.65 1776.66,-281.98"/>
<polygon fill="#9a32cd" stroke="#9a32cd" points="1193.36,-277.8 1184.7,-283.9 1195.27,-284.53 1193.36,-277.8"/>
<text text-anchor="middle" x="1475" y="-258.9" font-family="Helvetica,sans-Serif" font-size="12.00"> xAxisStyle</text>
<text text-anchor="middle" x="1475" y="-245.9" font-family="Helvetica,sans-Serif" font-size="12.00">yAxisStyle</text>
</g>
<!-- Node9 -->
<g id="node9" class="node">
<title>Node9</title>
<g id="a_node9"><a xlink:href="class_j_k_q_t_p_colorbar_coordinate_axis_style.html" target="_top" xlink:title="Support Class for JKQTPCoordinateAxis, which summarizes all properties that define the visual styling...">
<polygon fill="none" stroke="black" points="1378,-277.5 1378,-311.5 1572,-311.5 1572,-277.5 1378,-277.5"/>
<text text-anchor="start" x="1386" y="-297.9" font-family="Helvetica,sans-Serif" font-size="12.00">JKQTPColorbarCoordinateAxis</text>
<text text-anchor="middle" x="1475" y="-284.9" font-family="Helvetica,sans-Serif" font-size="12.00">Style</text>
</a>
</g>
</g>
<!-- Node7&#45;&gt;Node9 -->
<g id="edge9" class="edge">
<title>Node7&#45;&gt;Node9</title>
<path fill="none" stroke="midnightblue" d="M1244.56,-294.5C1286.54,-294.5 1335.81,-294.5 1377.91,-294.5"/>
<polygon fill="midnightblue" stroke="midnightblue" points="1244.33,-291 1234.33,-294.5 1244.33,-298 1244.33,-291"/>
</g>
<!-- Node7&#45;&gt;Node22 -->
<g id="edge33" class="edge">
<title>Node7&#45;&gt;Node22</title>
<path fill="none" stroke="#9a32cd" stroke-dasharray="5,2" d="M1181.85,-309.06C1239.39,-333.59 1363.81,-380.5 1474,-380.5 1474,-380.5 1474,-380.5 2093.5,-380.5 2181.65,-380.5 2283.21,-380.5 2349.23,-380.5"/>
<polygon fill="#9a32cd" stroke="#9a32cd" points="1183.12,-305.8 1172.56,-305.05 1180.35,-312.23 1183.12,-305.8"/>
<text text-anchor="middle" x="1816.5" y="-383.9" font-family="Helvetica,sans-Serif" font-size="12.00"> axisStyle</text>
</g>
<!-- Node8 -->
<g id="node8" class="node">
<title>Node8</title>
<g id="a_node8"><a xlink:href="class_j_k_q_t_p_grid_style.html" target="_top" xlink:title="Support Class for JKQTPCoordinateAxis, and summarizes all properties that define the visual styling o...">
<polygon fill="none" stroke="black" points="698.5,-284 698.5,-305 805.5,-305 805.5,-284 698.5,-284"/>
<text text-anchor="middle" x="752" y="-291.4" font-family="Helvetica,sans-Serif" font-size="12.00">JKQTPGridStyle</text>
</a>
</g>
</g>
<!-- Node8&#45;&gt;Node7 -->
<g id="edge7" class="edge">
<title>Node8&#45;&gt;Node7</title>
<path fill="none" stroke="#9a32cd" stroke-dasharray="5,2" d="M816.18,-294.5C883.03,-294.5 988.9,-294.5 1062.92,-294.5"/>
<polygon fill="#9a32cd" stroke="#9a32cd" points="815.79,-291 805.79,-294.5 815.79,-298 815.79,-291"/>
<text text-anchor="middle" x="948.5" y="-310.9" font-family="Helvetica,sans-Serif" font-size="12.00"> majorGridStyle</text>
<text text-anchor="middle" x="948.5" y="-297.9" font-family="Helvetica,sans-Serif" font-size="12.00">minorGridStyle</text>
</g>
<!-- Node9&#45;&gt;Node5 -->
<g id="edge8" class="edge">
<title>Node9&#45;&gt;Node5</title>
<path fill="none" stroke="#9a32cd" stroke-dasharray="5,2" d="M1582.25,-293.55C1584.86,-293.53 1587.45,-293.52 1590,-293.5 1641.87,-293.16 1700.46,-292.9 1744.91,-292.73"/>
<polygon fill="#9a32cd" stroke="#9a32cd" points="1582.07,-290.05 1572.1,-293.63 1582.12,-297.05 1582.07,-290.05"/>
<text text-anchor="middle" x="1658.5" y="-309.9" font-family="Helvetica,sans-Serif" font-size="12.00"> rightColorbarAxisStyle</text>
<text text-anchor="middle" x="1658.5" y="-296.9" font-family="Helvetica,sans-Serif" font-size="12.00">topColorbarAxisStyle</text>
</g>
<!-- Node10 -->
<g id="node10" class="node">
<title>Node10</title>
<g id="a_node10"><a xlink:href="class_j_k_q_t_graphs_base_style.html" target="_top" xlink:title="Support Class for JKQTBasePlotter, which summarizes all properties that define the visual styling of ...">
<polygon fill="none" stroke="black" points="1402,-121 1402,-142 1548,-142 1548,-121 1402,-121"/>
<text text-anchor="middle" x="1475" y="-128.4" font-family="Helvetica,sans-Serif" font-size="12.00">JKQTGraphsBaseStyle</text>
</a>
</g>
</g>
<!-- Node10&#45;&gt;Node5 -->
<g id="edge10" class="edge">
<title>Node10&#45;&gt;Node5</title>
<path fill="none" stroke="#9a32cd" stroke-dasharray="5,2" d="M1552.8,-144C1604.62,-154.79 1673.11,-173.8 1727,-205.5 1762.1,-226.15 1793.61,-263.73 1807.7,-281.98"/>
<polygon fill="#9a32cd" stroke="#9a32cd" points="1553.49,-140.57 1543,-142.01 1552.1,-147.43 1553.49,-140.57"/>
<text text-anchor="middle" x="1658.5" y="-208.9" font-family="Helvetica,sans-Serif" font-size="12.00"> graphsStyle</text>
</g>
<!-- Node11 -->
<g id="node11" class="node">
<title>Node11</title>
<g id="a_node11"><a xlink:href="class_j_k_q_t_graphs_specific_style_properties.html" target="_top" xlink:title="Support Class for JKQTBasePlotter, which summarizes all properties that define the visual styling of ...">
<polygon fill="none" stroke="black" points="399,-75 399,-96 623,-96 623,-75 399,-75"/>
<text text-anchor="middle" x="511" y="-82.4" font-family="Helvetica,sans-Serif" font-size="12.00">JKQTGraphsSpecificStyleProperties</text>
</a>
</g>
</g>
<!-- Node11&#45;&gt;Node10 -->
<g id="edge11" class="edge">
<title>Node11&#45;&gt;Node10</title>
<path fill="none" stroke="#9a32cd" stroke-dasharray="5,2" d="M618.1,-74.04C761.15,-60.96 1023.39,-45.37 1244,-78.5 1312.69,-88.82 1391.25,-108.71 1436.49,-120.97"/>
<polygon fill="#9a32cd" stroke="#9a32cd" points="617.64,-70.57 608.01,-74.98 618.29,-77.54 617.64,-70.57"/>
<text text-anchor="middle" x="948.5" y="-89.9" font-family="Helvetica,sans-Serif" font-size="12.00"> boxplotStyle</text>
<text text-anchor="middle" x="948.5" y="-76.9" font-family="Helvetica,sans-Serif" font-size="12.00">defaultGraphStyle</text>
<text text-anchor="middle" x="948.5" y="-63.9" font-family="Helvetica,sans-Serif" font-size="12.00">filledStyle</text>
</g>
<!-- Node13 -->
<g id="node13" class="node">
<title>Node13</title>
<g id="a_node13"><a xlink:href="class_j_k_q_t_barchart_specific_style_properties.html" target="_top" xlink:title="Support Class for JKQTBasePlotter, which summarizes all properties that define the visual styling of ...">
<polygon fill="none" stroke="black" points="862,-0.5 862,-34.5 1035,-34.5 1035,-0.5 862,-0.5"/>
<text text-anchor="start" x="870" y="-20.9" font-family="Helvetica,sans-Serif" font-size="12.00">JKQTBarchartSpecificStyle</text>
<text text-anchor="middle" x="948.5" y="-7.9" font-family="Helvetica,sans-Serif" font-size="12.00">Properties</text>
</a>
</g>
</g>
<!-- Node11&#45;&gt;Node13 -->
<g id="edge14" class="edge">
<title>Node11&#45;&gt;Node13</title>
<path fill="none" stroke="midnightblue" d="M548.85,-71.4C574.34,-62.24 609.27,-50.86 641,-44.5 714.72,-29.73 800.03,-23.04 861.9,-20.01"/>
<polygon fill="midnightblue" stroke="midnightblue" points="547.41,-68.2 539.22,-74.92 549.81,-74.78 547.41,-68.2"/>
</g>
<!-- Node14 -->
<g id="node14" class="node">
<title>Node14</title>
<g id="a_node14"><a xlink:href="class_j_k_q_t_impulse_specific_style_properties.html" target="_top" xlink:title="Support Class for JKQTBasePlotter, which summarizes all properties that define the visual styling of ...">
<polygon fill="none" stroke="black" points="864.5,-182.5 864.5,-216.5 1032.5,-216.5 1032.5,-182.5 864.5,-182.5"/>
<text text-anchor="start" x="872.5" y="-202.9" font-family="Helvetica,sans-Serif" font-size="12.00">JKQTImpulseSpecificStyle</text>
<text text-anchor="middle" x="948.5" y="-189.9" font-family="Helvetica,sans-Serif" font-size="12.00">Properties</text>
</a>
</g>
</g>
<!-- Node11&#45;&gt;Node14 -->
<g id="edge16" class="edge">
<title>Node11&#45;&gt;Node14</title>
<path fill="none" stroke="midnightblue" d="M546.79,-99.81C576.49,-111.63 620.54,-128.25 660,-139.5 727.91,-158.87 806.49,-174.84 864.32,-185.42"/>
<polygon fill="midnightblue" stroke="midnightblue" points="547.88,-96.48 537.3,-96 545.28,-102.97 547.88,-96.48"/>
</g>
<!-- Node15 -->
<g id="node15" class="node">
<title>Node15</title>
<g id="a_node15"><a xlink:href="class_j_k_q_t_geometric_specific_style_properties.html" target="_top" xlink:title="Support Class for JKQTBasePlotter, which summarizes all properties that define the visual styling of ...">
<polygon fill="none" stroke="black" points="660,-95.5 660,-129.5 844,-129.5 844,-95.5 660,-95.5"/>
<text text-anchor="start" x="668" y="-115.9" font-family="Helvetica,sans-Serif" font-size="12.00">JKQTGeometricSpecificStyle</text>
<text text-anchor="middle" x="752" y="-102.9" font-family="Helvetica,sans-Serif" font-size="12.00">Properties</text>
</a>
</g>
</g>
<!-- Node11&#45;&gt;Node15 -->
<g id="edge18" class="edge">
<title>Node11&#45;&gt;Node15</title>
<path fill="none" stroke="midnightblue" d="M615.27,-97.17C630.06,-98.84 645.19,-100.55 659.74,-102.19"/>
<polygon fill="midnightblue" stroke="midnightblue" points="615.42,-93.66 605.09,-96.02 614.63,-100.62 615.42,-93.66"/>
</g>
<!-- Node12 -->
<g id="node12" class="node">
<title>Node12</title>
<g id="a_node12"><a xlink:href="struct_j_k_q_t_p_color_derivation_mode.html" target="_top" xlink:title="Specifies how a fill&#45;color is derived from a given color.">
<polygon fill="none" stroke="black" points="0,-75 0,-96 179,-96 179,-75 0,-75"/>
<text text-anchor="middle" x="89.5" y="-82.4" font-family="Helvetica,sans-Serif" font-size="12.00">JKQTPColorDerivationMode</text>
</a>
</g>
</g>
<!-- Node12&#45;&gt;Node11 -->
<g id="edge12" class="edge">
<title>Node12&#45;&gt;Node11</title>
<path fill="none" stroke="#9a32cd" stroke-dasharray="5,2" d="M189.53,-85.5C252.41,-85.5 333.9,-85.5 398.97,-85.5"/>
<polygon fill="#9a32cd" stroke="#9a32cd" points="189.21,-82 179.21,-85.5 189.21,-89 189.21,-82"/>
<text text-anchor="middle" x="289" y="-140.9" font-family="Helvetica,sans-Serif" font-size="12.00"> errorColorDerivationMode</text>
<text text-anchor="middle" x="289" y="-127.9" font-family="Helvetica,sans-Serif" font-size="12.00">errorFillColorDerivationMode</text>
<text text-anchor="middle" x="289" y="-114.9" font-family="Helvetica,sans-Serif" font-size="12.00">fillColorDerivationMode</text>
<text text-anchor="middle" x="289" y="-101.9" font-family="Helvetica,sans-Serif" font-size="12.00">graphColorDerivationMode</text>
<text text-anchor="middle" x="289" y="-88.9" font-family="Helvetica,sans-Serif" font-size="12.00">symbolFillColorDerivationMode</text>
</g>
<!-- Node13&#45;&gt;Node10 -->
<g id="edge13" class="edge">
<title>Node13&#45;&gt;Node10</title>
<path fill="none" stroke="#9a32cd" stroke-dasharray="5,2" d="M1045.28,-7.38C1130.92,-2.09 1258.25,-3.66 1360,-44.5 1404.13,-62.21 1445.87,-101.92 1464.22,-120.95"/>
<polygon fill="#9a32cd" stroke="#9a32cd" points="1044.79,-3.9 1035.05,-8.06 1045.26,-10.89 1044.79,-3.9"/>
<text text-anchor="middle" x="1148.5" y="-16.9" font-family="Helvetica,sans-Serif" font-size="12.00"> barchartStyle</text>
</g>
<!-- Node14&#45;&gt;Node10 -->
<g id="edge15" class="edge">
<title>Node14&#45;&gt;Node10</title>
<path fill="none" stroke="#9a32cd" stroke-dasharray="5,2" d="M1042.59,-200.74C1126.45,-200.12 1252.67,-194.87 1360,-172.5 1392.33,-165.76 1427.88,-151.87 1450.54,-142.13"/>
<polygon fill="#9a32cd" stroke="#9a32cd" points="1042.56,-197.24 1032.58,-200.79 1042.6,-204.24 1042.56,-197.24"/>
<text text-anchor="middle" x="1148.5" y="-203.9" font-family="Helvetica,sans-Serif" font-size="12.00"> impulseStyle</text>
</g>
<!-- Node15&#45;&gt;Node10 -->
<g id="edge17" class="edge">
<title>Node15&#45;&gt;Node10</title>
<path fill="none" stroke="#9a32cd" stroke-dasharray="5,2" d="M854.32,-121.95C856.91,-122.14 859.47,-122.32 862,-122.5 1082.92,-137.83 1138.66,-145.29 1360,-138.5 1373.58,-138.08 1388.05,-137.39 1401.97,-136.59"/>
<polygon fill="#9a32cd" stroke="#9a32cd" points="854.51,-118.45 844.27,-121.17 853.97,-125.43 854.51,-118.45"/>
<text text-anchor="middle" x="1148.5" y="-143.9" font-family="Helvetica,sans-Serif" font-size="12.00"> geometricStyle</text>
</g>
<!-- Node16 -->
<g id="node16" class="node">
<title>Node16</title>
<g id="a_node16"><a xlink:href="class_j_k_q_t_annotations_specific_style_properties.html" target="_top" xlink:title="Support Class for JKQTBasePlotter, which summarizes all properties that define the visual styling of ...">
<polygon fill="none" stroke="black" points="1053,-87.5 1053,-121.5 1244,-121.5 1244,-87.5 1053,-87.5"/>
<text text-anchor="start" x="1061" y="-107.9" font-family="Helvetica,sans-Serif" font-size="12.00">JKQTAnnotationsSpecificStyle</text>
<text text-anchor="middle" x="1148.5" y="-94.9" font-family="Helvetica,sans-Serif" font-size="12.00">Properties</text>
</a>
</g>
</g>
<!-- Node15&#45;&gt;Node16 -->
<g id="edge20" class="edge">
<title>Node15&#45;&gt;Node16</title>
<path fill="none" stroke="midnightblue" d="M854.07,-110.45C915.27,-109.21 992.83,-107.64 1052.84,-106.42"/>
<polygon fill="midnightblue" stroke="midnightblue" points="853.93,-106.95 844,-110.65 854.07,-113.95 853.93,-106.95"/>
</g>
<!-- Node16&#45;&gt;Node10 -->
<g id="edge19" class="edge">
<title>Node16&#45;&gt;Node10</title>
<path fill="none" stroke="#9a32cd" stroke-dasharray="5,2" d="M1254.39,-113.23C1302.57,-117.24 1358.51,-121.89 1401.86,-125.5"/>
<polygon fill="#9a32cd" stroke="#9a32cd" points="1254.49,-109.72 1244.23,-112.38 1253.91,-116.7 1254.49,-109.72"/>
<text text-anchor="middle" x="1311" y="-124.9" font-family="Helvetica,sans-Serif" font-size="12.00"> annotationStyle</text>
</g>
<!-- Node17&#45;&gt;Node3 -->
<g id="edge21" class="edge">
<title>Node17&#45;&gt;Node3</title>
<path fill="none" stroke="#9a32cd" stroke-dasharray="5,2" d="M1860.98,-446.47C1870.03,-443.16 1879.42,-439.44 1888,-435.5 1941.54,-410.89 1954.99,-403.67 2003,-369.5 2032.87,-348.24 2064.49,-318.81 2080.63,-303.21"/>
<polygon fill="#9a32cd" stroke="#9a32cd" points="1859.6,-443.24 1851.34,-449.88 1861.94,-449.84 1859.6,-443.24"/>
<text text-anchor="middle" x="1954.5" y="-428.9" font-family="Helvetica,sans-Serif" font-size="12.00"> mathText</text>
</g>
<!-- Node18 -->
<g id="node18" class="node">
<title>Node18</title>
<g id="a_node18"><a xlink:href="class_j_k_q_t_math_text_node.html" target="_top" xlink:title="subclass representing one node in the syntax tree">
<polygon fill="none" stroke="black" points="2027,-436 2027,-457 2158,-457 2158,-436 2027,-436"/>
<text text-anchor="middle" x="2092.5" y="-443.4" font-family="Helvetica,sans-Serif" font-size="12.00">JKQTMathTextNode</text>
</a>
</g>
</g>
<!-- Node17&#45;&gt;Node18 -->
<g id="edge24" class="edge">
<title>Node17&#45;&gt;Node18</title>
<path fill="none" stroke="#9a32cd" stroke-dasharray="5,2" d="M1876.05,-464.76C1912.62,-466.6 1960.65,-467.53 2003,-463.5 2016.86,-462.18 2031.78,-459.72 2045.35,-457.08"/>
<polygon fill="#9a32cd" stroke="#9a32cd" points="1876.22,-461.27 1866.05,-464.22 1875.84,-468.26 1876.22,-461.27"/>
<text text-anchor="middle" x="1954.5" y="-468.9" font-family="Helvetica,sans-Serif" font-size="12.00"> parentMathText</text>
</g>
<!-- Node18&#45;&gt;Node17 -->
<g id="edge23" class="edge">
<title>Node18&#45;&gt;Node17</title>
<path fill="none" stroke="#9a32cd" stroke-dasharray="5,2" d="M2016.36,-446.57C1982.59,-447 1942.26,-448.07 1906,-450.5 1893.04,-451.37 1879.06,-452.75 1866.12,-454.2"/>
<polygon fill="#9a32cd" stroke="#9a32cd" points="2016.66,-450.07 2026.62,-446.46 2016.58,-443.07 2016.66,-450.07"/>
<text text-anchor="middle" x="1954.5" y="-453.9" font-family="Helvetica,sans-Serif" font-size="12.00"> parsedNode</text>
</g>
<!-- Node18&#45;&gt;Node18 -->
<g id="edge25" class="edge">
<title>Node18&#45;&gt;Node18</title>
<path fill="none" stroke="#9a32cd" stroke-dasharray="5,2" d="M2066.93,-466.56C2068.61,-471.66 2077.13,-475.5 2092.5,-475.5 2116.49,-475.5 2123.8,-466.15 2114.43,-457.21"/>
<polygon fill="#9a32cd" stroke="#9a32cd" points="2070.21,-467.8 2070.57,-457.21 2063.68,-465.26 2070.21,-467.8"/>
<text text-anchor="middle" x="2092.5" y="-478.9" font-family="Helvetica,sans-Serif" font-size="12.00"> parentNode</text>
</g>
<!-- Node19&#45;&gt;Node3 -->
<g id="edge26" class="edge">
<title>Node19&#45;&gt;Node3</title>
<path fill="none" stroke="#9a32cd" stroke-dasharray="5,2" d="M2357.98,-222.45C2309.08,-215.41 2239.58,-211.1 2182,-229.5 2149.66,-239.83 2119.05,-266.78 2103.72,-281.87"/>
<polygon fill="#9a32cd" stroke="#9a32cd" points="2357.67,-225.95 2368.09,-223.99 2358.73,-219.03 2357.67,-225.95"/>
<text text-anchor="middle" x="2238.5" y="-232.9" font-family="Helvetica,sans-Serif" font-size="12.00"> m_plotsModel</text>
</g>
<!-- Node20 -->
<g id="node20" class="node">
<title>Node20</title>
<g id="a_node20"><a xlink:title=" ">
<polygon fill="none" stroke="black" points="2021,-160 2021,-181 2164,-181 2164,-160 2021,-160"/>
<text text-anchor="middle" x="2092.5" y="-167.4" font-family="Helvetica,sans-Serif" font-size="12.00">QAbstractTableModel</text>
</a>
</g>
</g>
<!-- Node20&#45;&gt;Node19 -->
<g id="edge27" class="edge">
<title>Node20&#45;&gt;Node19</title>
<path fill="none" stroke="midnightblue" d="M2157.2,-183.01C2218.02,-194.95 2308.63,-212.73 2365.86,-223.97"/>
<polygon fill="midnightblue" stroke="midnightblue" points="2157.82,-179.56 2147.33,-181.07 2156.47,-186.43 2157.82,-179.56"/>
</g>
<!-- Node21 -->
<g id="node21" class="node">
<title>Node21</title>
<g id="a_node21"><a xlink:href="class_j_k_q_t_p_horizontal_axis.html" target="_top" xlink:title="implements a horizontal axis, based on JKQTPCoordinateAxis (for most of documentation: see JKQTPCoord...">
<polygon fill="none" stroke="black" points="2565,-271 2565,-292 2702,-292 2702,-271 2565,-271"/>
<text text-anchor="middle" x="2633.5" y="-278.4" font-family="Helvetica,sans-Serif" font-size="12.00">JKQTPHorizontalAxis</text>
</a>
</g>
</g>
<!-- Node21&#45;&gt;Node3 -->
<g id="edge29" class="edge">
<title>Node21&#45;&gt;Node3</title>
<path fill="none" stroke="#9a32cd" stroke-dasharray="5,2" d="M2554.66,-283.09C2444.67,-285.33 2246.4,-289.38 2149.66,-291.35"/>
<polygon fill="#9a32cd" stroke="#9a32cd" points="2554.78,-286.59 2564.7,-282.88 2554.63,-279.59 2554.78,-286.59"/>
<text text-anchor="middle" x="2420.5" y="-290.9" font-family="Helvetica,sans-Serif" font-size="12.00"> xAxis</text>
</g>
<!-- Node30 -->
<g id="node30" class="node">
<title>Node30</title>
<g id="a_node30"><a xlink:href="class_j_k_q_t_p_horizontal_independent_axis.html" target="_top" xlink:title="implements a position&#45;indipendent horizontal axis, based on JKQTPCoordinateAxis (for most of document...">
<polygon fill="none" stroke="black" points="2739,-266 2739,-287 2952,-287 2952,-266 2739,-266"/>
<text text-anchor="middle" x="2845.5" y="-273.4" font-family="Helvetica,sans-Serif" font-size="12.00">JKQTPHorizontalIndependentAxis</text>
</a>
</g>
</g>
<!-- Node21&#45;&gt;Node30 -->
<g id="edge46" class="edge">
<title>Node21&#45;&gt;Node30</title>
<path fill="none" stroke="midnightblue" d="M2712.17,-279.65C2720.87,-279.44 2729.83,-279.23 2738.8,-279.02"/>
<polygon fill="midnightblue" stroke="midnightblue" points="2712.02,-276.15 2702.1,-279.89 2712.18,-283.15 2712.02,-276.15"/>
</g>
<!-- Node22&#45;&gt;Node21 -->
<g id="edge30" class="edge">
<title>Node22&#45;&gt;Node21</title>
<path fill="none" stroke="midnightblue" d="M2481.93,-367.16C2497.57,-362.28 2513.94,-355.85 2528,-347.5 2547.73,-335.78 2546,-324.36 2565,-311.5 2576.58,-303.67 2590.53,-297.06 2602.74,-292.07"/>
<polygon fill="midnightblue" stroke="midnightblue" points="2480.93,-363.8 2472.32,-369.99 2482.91,-370.52 2480.93,-363.8"/>
</g>
<!-- Node23 -->
<g id="node23" class="node">
<title>Node23</title>
<g id="a_node23"><a xlink:href="class_j_k_q_t_p_vertical_axis.html" target="_top" xlink:title="implements a vertical axis, based on JKQTPCoordinateAxis (for most of documentation: see JKQTPCoordin...">
<polygon fill="none" stroke="black" points="2572.5,-321 2572.5,-342 2694.5,-342 2694.5,-321 2572.5,-321"/>
<text text-anchor="middle" x="2633.5" y="-328.4" font-family="Helvetica,sans-Serif" font-size="12.00">JKQTPVerticalAxis</text>
</a>
</g>
</g>
<!-- Node22&#45;&gt;Node23 -->
<g id="edge35" class="edge">
<title>Node22&#45;&gt;Node23</title>
<path fill="none" stroke="midnightblue" d="M2502.14,-374.85C2517.19,-372.86 2532.67,-370.16 2547,-366.5 2569.69,-360.71 2594.31,-350.14 2611.28,-342.13"/>
<polygon fill="midnightblue" stroke="midnightblue" points="2501.32,-371.43 2491.82,-376.12 2502.17,-378.37 2501.32,-371.43"/>
</g>
<!-- Node23&#45;&gt;Node3 -->
<g id="edge34" class="edge">
<title>Node23&#45;&gt;Node3</title>
<path fill="none" stroke="#9a32cd" stroke-dasharray="5,2" d="M2562.08,-328.47C2473.33,-324.34 2316.16,-315.99 2182,-303.5 2171.52,-302.52 2160.36,-301.29 2149.62,-300"/>
<polygon fill="#9a32cd" stroke="#9a32cd" points="2562.14,-331.97 2572.29,-328.94 2562.46,-324.98 2562.14,-331.97"/>
<text text-anchor="middle" x="2420.5" y="-329.9" font-family="Helvetica,sans-Serif" font-size="12.00"> yAxis</text>
</g>
<!-- Node29 -->
<g id="node29" class="node">
<title>Node29</title>
<g id="a_node29"><a xlink:href="class_j_k_q_t_p_vertical_independent_axis.html" target="_top" xlink:title="implements a position&#45;indipendent vertical axis, based on JKQTPCoordinateAxis (for most of documentat...">
<polygon fill="none" stroke="black" points="2747,-321 2747,-342 2944,-342 2944,-321 2747,-321"/>
<text text-anchor="middle" x="2845.5" y="-328.4" font-family="Helvetica,sans-Serif" font-size="12.00">JKQTPVerticalIndependentAxis</text>
</a>
</g>
</g>
<!-- Node23&#45;&gt;Node29 -->
<g id="edge44" class="edge">
<title>Node23&#45;&gt;Node29</title>
<path fill="none" stroke="midnightblue" d="M2704.78,-331.5C2718.22,-331.5 2732.52,-331.5 2746.65,-331.5"/>
<polygon fill="midnightblue" stroke="midnightblue" points="2704.68,-328 2694.68,-331.5 2704.68,-335 2704.68,-328"/>
</g>
<!-- Node24 -->
<g id="node24" class="node">
<title>Node24</title>
<g id="a_node24"><a xlink:href="class_j_k_q_t_p_datastore.html" target="_top" xlink:title="This class manages data columns (with entries of type double ), used by JKQTPlotter/JKQTBasePlotter t...">
<polygon fill="none" stroke="black" points="1761,-120 1761,-141 1872,-141 1872,-120 1761,-120"/>
<text text-anchor="middle" x="1816.5" y="-127.4" font-family="Helvetica,sans-Serif" font-size="12.00">JKQTPDatastore</text>
</a>
</g>
</g>
<!-- Node24&#45;&gt;Node3 -->
<g id="edge36" class="edge">
<title>Node24&#45;&gt;Node3</title>
<path fill="none" stroke="#9a32cd" stroke-dasharray="5,2" d="M1844.39,-146.4C1900.02,-179.29 2026.45,-254.04 2073.46,-281.83"/>
<polygon fill="#9a32cd" stroke="#9a32cd" points="1845.87,-143.21 1835.48,-141.13 1842.3,-149.23 1845.87,-143.21"/>
<text text-anchor="middle" x="1954.5" y="-242.9" font-family="Helvetica,sans-Serif" font-size="12.00"> datastore</text>
</g>
<!-- Node26 -->
<g id="node26" class="node">
<title>Node26</title>
<g id="a_node26"><a xlink:href="class_j_k_q_t_p_column.html" target="_top" xlink:title="internally stores information about one data column. See JKQTPDatastore for more information.">
<polygon fill="none" stroke="black" points="2043.5,-120 2043.5,-141 2141.5,-141 2141.5,-120 2043.5,-120"/>
<text text-anchor="middle" x="2092.5" y="-127.4" font-family="Helvetica,sans-Serif" font-size="12.00">JKQTPColumn</text>
</a>
</g>
</g>
<!-- Node24&#45;&gt;Node26 -->
<g id="edge39" class="edge">
<title>Node24&#45;&gt;Node26</title>
<path fill="none" stroke="#9a32cd" stroke-dasharray="5,2" d="M1882.54,-130.5C1931.87,-130.5 1998.58,-130.5 2043.22,-130.5"/>
<polygon fill="#9a32cd" stroke="#9a32cd" points="1882.29,-127 1872.29,-130.5 1882.29,-134 1882.29,-127"/>
<text text-anchor="middle" x="1954.5" y="-133.9" font-family="Helvetica,sans-Serif" font-size="12.00"> datastore</text>
</g>
<!-- Node25 -->
<g id="node25" class="node">
<title>Node25</title>
<g id="a_node25"><a xlink:title=" ">
<polygon fill="none" stroke="black" points="2313,-78 2313,-99 2528,-99 2528,-78 2313,-78"/>
<text text-anchor="middle" x="2420.5" y="-85.4" font-family="Helvetica,sans-Serif" font-size="12.00">std::unique_ptr&lt; JKQTPColumn &gt;</text>
</a>
</g>
</g>
<!-- Node25&#45;&gt;Node24 -->
<g id="edge37" class="edge">
<title>Node25&#45;&gt;Node24</title>
<path fill="none" stroke="#9a32cd" stroke-dasharray="5,2" d="M2302.66,-86.9C2223.11,-86.85 2115.5,-88.81 2021,-97.5 1969.32,-102.25 1910.9,-112.21 1869.95,-119.95"/>
<polygon fill="#9a32cd" stroke="#9a32cd" points="2302.71,-90.4 2312.71,-86.92 2302.72,-83.4 2302.71,-90.4"/>
<text text-anchor="middle" x="2092.5" y="-100.9" font-family="Helvetica,sans-Serif" font-size="12.00"> m_invalidColumn</text>
</g>
<!-- Node26&#45;&gt;Node25 -->
<g id="edge38" class="edge">
<title>Node26&#45;&gt;Node25</title>
<path fill="none" stroke="#9a32cd" stroke-dasharray="5,2" d="M2151.64,-123.01C2203.51,-116.33 2280.02,-106.47 2338,-99"/>
<polygon fill="#9a32cd" stroke="#9a32cd" points="2151.07,-119.55 2141.6,-124.3 2151.97,-126.5 2151.07,-119.55"/>
<text text-anchor="middle" x="2238.5" y="-120.9" font-family="Helvetica,sans-Serif" font-size="12.00"> ptr</text>
</g>
<!-- Node27 -->
<g id="node27" class="node">
<title>Node27</title>
<g id="a_node27"><a xlink:title=" ">
<polygon fill="none" stroke="black" points="2022.5,-31 2022.5,-52 2162.5,-52 2162.5,-31 2022.5,-31"/>
<text text-anchor="middle" x="2092.5" y="-38.4" font-family="Helvetica,sans-Serif" font-size="12.00">std::unique_ptr&lt; T &gt;</text>
</a>
</g>
</g>
<!-- Node27&#45;&gt;Node25 -->
<g id="edge40" class="edge">
<title>Node27&#45;&gt;Node25</title>
<path fill="none" stroke="orange" stroke-dasharray="5,2" d="M2173.04,-47.28C2210.21,-50.52 2255.01,-55.2 2295,-61.5 2322.42,-65.82 2352.88,-72.39 2376.8,-77.97"/>
<polygon fill="orange" stroke="orange" points="2173.02,-43.76 2162.76,-46.4 2172.43,-50.74 2173.02,-43.76"/>
<text text-anchor="middle" x="2238.5" y="-64.9" font-family="Helvetica,sans-Serif" font-size="12.00"> &lt; JKQTPColumn &gt;</text>
</g>
<!-- Node28 -->
<g id="node28" class="node">
<title>Node28</title>
<g id="a_node28"><a xlink:title=" ">
<polygon fill="none" stroke="black" points="1802,-31 1802,-52 1831,-52 1831,-31 1802,-31"/>
<text text-anchor="middle" x="1816.5" y="-38.4" font-family="Helvetica,sans-Serif" font-size="12.00">T</text>
</a>
</g>
</g>
<!-- Node28&#45;&gt;Node27 -->
<g id="edge41" class="edge">
<title>Node28&#45;&gt;Node27</title>
<path fill="none" stroke="#9a32cd" stroke-dasharray="5,2" d="M1841.17,-41.5C1881.06,-41.5 1963.14,-41.5 2022.46,-41.5"/>
<polygon fill="#9a32cd" stroke="#9a32cd" points="1841.09,-38 1831.09,-41.5 1841.09,-45 1841.09,-38"/>
<text text-anchor="middle" x="1954.5" y="-44.9" font-family="Helvetica,sans-Serif" font-size="12.00"> ptr</text>
</g>
<!-- Node29&#45;&gt;Node1 -->
<g id="edge47" class="edge">
<title>Node29&#45;&gt;Node1</title>
<path fill="none" stroke="#9a32cd" stroke-dasharray="5,2" d="M2954.25,-328.33C2993.84,-326.67 3039,-324.18 3080,-320.5 3158.47,-313.46 3246.88,-301.55 3312.73,-291.89"/>
<polygon fill="#9a32cd" stroke="#9a32cd" points="2953.89,-324.84 2944.04,-328.75 2954.18,-331.84 2953.89,-324.84"/>
<text text-anchor="middle" x="3187" y="-321.9" font-family="Helvetica,sans-Serif" font-size="12.00"> modifierColorBarTopAxis</text>
</g>
<!-- Node29&#45;&gt;Node2 -->
<g id="edge43" class="edge">
<title>Node29&#45;&gt;Node2</title>
<path fill="none" stroke="#9a32cd" stroke-dasharray="5,2" d="M2913.38,-318.79C2961.16,-308.31 3026.25,-291.13 3080,-266.5 3088.74,-262.49 3089.42,-258.84 3098,-254.5 3108.88,-249 3120.94,-243.97 3132.55,-239.62"/>
<polygon fill="#9a32cd" stroke="#9a32cd" points="2912.49,-315.4 2903.45,-320.92 2913.96,-322.24 2912.49,-315.4"/>
<text text-anchor="middle" x="3025" y="-306.9" font-family="Helvetica,sans-Serif" font-size="12.00"> colorBarRightAxis</text>
</g>
<!-- Node30&#45;&gt;Node1 -->
<g id="edge48" class="edge">
<title>Node30&#45;&gt;Node1</title>
<path fill="none" stroke="#9a32cd" stroke-dasharray="5,2" d="M2962.36,-276.5C3065.64,-276.5 3215.17,-276.5 3312.97,-276.5"/>
<polygon fill="#9a32cd" stroke="#9a32cd" points="2962.2,-273 2952.2,-276.5 2962.2,-280 2962.2,-273"/>
<text text-anchor="middle" x="3187" y="-279.9" font-family="Helvetica,sans-Serif" font-size="12.00"> modifierColorBarRightAxis</text>
</g>
<!-- Node30&#45;&gt;Node2 -->
<g id="edge45" class="edge">
<title>Node30&#45;&gt;Node2</title>
<path fill="none" stroke="#9a32cd" stroke-dasharray="5,2" d="M2900.02,-263.69C2921.66,-258.8 2946.94,-253.45 2970,-249.5 3011.9,-242.32 3058.69,-236.23 3097.98,-231.67"/>
<polygon fill="#9a32cd" stroke="#9a32cd" points="2899,-260.33 2890.04,-265.97 2900.56,-267.15 2899,-260.33"/>
<text text-anchor="middle" x="3025" y="-252.9" font-family="Helvetica,sans-Serif" font-size="12.00"> colorBarTopAxis</text>
</g>
</g>
</svg>
        <g id="navigator" transform="translate(0 0)" fill="#404254">
                <rect fill="#f2f5e9" fill-opacity="0.5" stroke="#606060" stroke-width=".5" x="0" y="0" width="60" height="60"/>
                <use id="zoomplus" xlink:href="#zoomPlus" x="17" y="9" onmousedown="handleZoom(evt,'in')"/>
                <use id="zoomminus" xlink:href="#zoomMin" x="42" y="9" onmousedown="handleZoom(evt,'out')"/>
                <use id="reset" xlink:href="#resetDef" x="30" y="36" onmousedown="handleReset()"/>
                <g id="arrowUp" xlink:href="#dirArrow" transform="translate(30 24)" onmousedown="handlePan(0,-1)">
                  <use xlink:href="#rim" fill="#404040">
                        <set attributeName="fill" to="#808080" begin="arrowUp.mouseover" end="arrowUp.mouseout"/>
                  </use>
                  <path fill="none" stroke="white" stroke-width="1.5" d="M0,-3.0v7 M-2.5,-0.5L0,-3.0L2.5,-0.5"/>
                </g>
                <g id="arrowRight" xlink:href="#dirArrow" transform="rotate(90) translate(36 -43)" onmousedown="handlePan(1,0)">
                  <use xlink:href="#rim" fill="#404040">
                        <set attributeName="fill" to="#808080" begin="arrowRight.mouseover" end="arrowRight.mouseout"/>
                  </use>
                  <path fill="none" stroke="white" stroke-width="1.5" d="M0,-3.0v7 M-2.5,-0.5L0,-3.0L2.5,-0.5"/>
                </g>
                <g id="arrowDown" xlink:href="#dirArrow" transform="rotate(180) translate(-30 -48)" onmousedown="handlePan(0,1)">
                  <use xlink:href="#rim" fill="#404040">
                        <set attributeName="fill" to="#808080" begin="arrowDown.mouseover" end="arrowDown.mouseout"/>
                  </use>
                  <path fill="none" stroke="white" stroke-width="1.5" d="M0,-3.0v7 M-2.5,-0.5L0,-3.0L2.5,-0.5"/>
                </g>
                <g id="arrowLeft" xlink:href="#dirArrow" transform="rotate(270) translate(-36 17)" onmousedown="handlePan(-1,0)">
                  <use xlink:href="#rim" fill="#404040">
                        <set attributeName="fill" to="#808080" begin="arrowLeft.mouseover" end="arrowLeft.mouseout"/>
                  </use>
                  <path fill="none" stroke="white" stroke-width="1.5" d="M0,-3.0v7 M-2.5,-0.5L0,-3.0L2.5,-0.5"/>
                </g>
        </g>
        <svg viewBox="0 0 15 15" width="100%" height="30px" preserveAspectRatio="xMaxYMin meet">
         <g id="arrow_out" transform="scale(0.3 0.3)">
          <a xlink:href="class_j_k_q_t_p_color_palette_with_modifier_style_and_tools_mixin__coll__graph_org.svg" target="_base">
           <rect id="button" ry="5" rx="5" y="6" x="6" height="38" width="38"
                fill="#f2f5e9" fill-opacity="0.5" stroke="#606060" stroke-width="1.0"/>
           <path id="arrow"
             d="M 11.500037,31.436501 C 11.940474,20.09759 22.043105,11.32322 32.158766,21.979434 L 37.068811,17.246167 C 37.068811,17.246167 37.088388,32 37.088388,32 L 22.160133,31.978069 C 22.160133,31.978069 26.997745,27.140456 26.997745,27.140456 C 18.528582,18.264221 13.291696,25.230495 11.500037,31.436501 z"
             style="fill:#404040;"/>
          </a>
         </g>
        </svg>
</svg>
