<?xml version="1.0" encoding="UTF-8" standalone="no"?>
<!DOCTYPE svg PUBLIC "-//W3C//DTD SVG 1.1//EN"
 "http://www.w3.org/Graphics/SVG/1.1/DTD/svg11.dtd">
<!-- Generated by graphviz version 2.43.0 (0)
 -->
<!-- Title: JKQTPGeometricPlotElement Pages: 1 -->
<svg width="2969pt" height="569pt"
 viewBox="0.00 0.00 2969.00 568.53" xmlns="http://www.w3.org/2000/svg" xmlns:xlink="http://www.w3.org/1999/xlink">
<g id="graph0" class="graph" transform="scale(1 1) rotate(0) translate(4 564.53)">
<title>JKQTPGeometricPlotElement</title>
<!-- Node1 -->
<g id="node1" class="node">
<title>Node1</title>
<g id="a_node1"><a xlink:title="this is the virtual base class of all JKQTPPlotElement&#39;s in a JKQTPlotter plot that represent geometr...">
<polygon fill="#999999" stroke="#666666" points="2787,-560.53 2599,-560.53 2599,-539.53 2787,-539.53 2787,-560.53"/>
<text text-anchor="middle" x="2693" y="-546.93" font-family="Helvetica,sans-Serif" font-size="12.00">JKQTPGeometricPlotElement</text>
</a>
</g>
</g>
<!-- Node2 -->
<g id="node2" class="node">
<title>Node2</title>
<g id="a_node2"><a xlink:href="class_j_k_q_t_p_plot_element.html" target="_top" xlink:title="this virtual base class of every element, which is part of a JKQTPlotter plot and may appear in its k...">
<polygon fill="white" stroke="#666666" points="2483,-560.53 2358,-560.53 2358,-539.53 2483,-539.53 2483,-560.53"/>
<text text-anchor="middle" x="2420.5" y="-546.93" font-family="Helvetica,sans-Serif" font-size="12.00">JKQTPPlotElement</text>
</a>
</g>
</g>
<!-- Node2&#45;&gt;Node1 -->
<g id="edge1" class="edge">
<title>Node2&#45;&gt;Node1</title>
<path fill="none" stroke="#63b8ff" d="M2493.49,-550.03C2525.85,-550.03 2564.43,-550.03 2598.95,-550.03"/>
<polygon fill="#63b8ff" stroke="#63b8ff" points="2493.22,-546.53 2483.22,-550.03 2493.22,-553.53 2493.22,-546.53"/>
</g>
<!-- Node3 -->
<g id="node3" class="node">
<title>Node3</title>
<g id="a_node3"><a xlink:title=" ">
<polygon fill="white" stroke="#666666" points="1507.5,-409.53 1442.5,-409.53 1442.5,-388.53 1507.5,-388.53 1507.5,-409.53"/>
<text text-anchor="middle" x="1475" y="-395.93" font-family="Helvetica,sans-Serif" font-size="12.00">QObject</text>
</a>
</g>
</g>
<!-- Node3&#45;&gt;Node2 -->
<g id="edge2" class="edge">
<title>Node3&#45;&gt;Node2</title>
<path fill="none" stroke="#63b8ff" d="M1515.94,-412.87C1605.15,-443.01 1827.99,-514.08 2021,-541.03 2139.23,-557.54 2279.06,-555.88 2357.7,-553.05"/>
<polygon fill="#63b8ff" stroke="#63b8ff" points="1516.82,-409.47 1506.23,-409.57 1514.57,-416.1 1516.82,-409.47"/>
</g>
<!-- Node4 -->
<g id="node4" class="node">
<title>Node4</title>
<g id="a_node4"><a xlink:href="class_j_k_q_t_base_plotter.html" target="_top" xlink:title="base class for 2D plotter classes (used by the plotter widget JKQTPlotter)">
<polygon fill="white" stroke="#666666" points="2149.5,-378.53 2035.5,-378.53 2035.5,-357.53 2149.5,-357.53 2149.5,-378.53"/>
<text text-anchor="middle" x="2092.5" y="-364.93" font-family="Helvetica,sans-Serif" font-size="12.00">JKQTBasePlotter</text>
</a>
</g>
</g>
<!-- Node3&#45;&gt;Node4 -->
<g id="edge4" class="edge">
<title>Node3&#45;&gt;Node4</title>
<path fill="none" stroke="#63b8ff" d="M1517.97,-396.92C1625.96,-391.48 1913.46,-377 2035.48,-370.85"/>
<polygon fill="#63b8ff" stroke="#63b8ff" points="1517.61,-393.43 1507.8,-397.43 1517.96,-400.42 1517.61,-393.43"/>
</g>
<!-- Node17 -->
<g id="node17" class="node">
<title>Node17</title>
<g id="a_node17"><a xlink:href="class_j_k_q_t_math_text.html" target="_top" xlink:title="this class parses a mathematical markup string and can then draw the contained text/equation onto a Q...">
<polygon fill="white" stroke="#666666" points="1866,-438.53 1767,-438.53 1767,-417.53 1866,-417.53 1866,-438.53"/>
<text text-anchor="middle" x="1816.5" y="-424.93" font-family="Helvetica,sans-Serif" font-size="12.00">JKQTMathText</text>
</a>
</g>
</g>
<!-- Node3&#45;&gt;Node17 -->
<g id="edge23" class="edge">
<title>Node3&#45;&gt;Node17</title>
<path fill="none" stroke="#63b8ff" d="M1517.61,-402.58C1580.58,-407.96 1699.82,-418.15 1766.76,-423.87"/>
<polygon fill="#63b8ff" stroke="#63b8ff" points="1517.9,-399.1 1507.63,-401.73 1517.3,-406.07 1517.9,-399.1"/>
</g>
<!-- Node23 -->
<g id="node23" class="node">
<title>Node23</title>
<g id="a_node23"><a xlink:href="class_j_k_q_t_p_coordinate_axis.html" target="_top" xlink:title="this virtual class is the base for any type of coordinate axis, to be drawn by JKQTBasePlotter.">
<polygon fill="white" stroke="#666666" points="2491.5,-317.53 2349.5,-317.53 2349.5,-296.53 2491.5,-296.53 2491.5,-317.53"/>
<text text-anchor="middle" x="2420.5" y="-303.93" font-family="Helvetica,sans-Serif" font-size="12.00">JKQTPCoordinateAxis</text>
</a>
</g>
</g>
<!-- Node3&#45;&gt;Node23 -->
<g id="edge33" class="edge">
<title>Node3&#45;&gt;Node23</title>
<path fill="none" stroke="#63b8ff" d="M1517.76,-389.26C1594.26,-371.87 1762.21,-335.94 1906,-321.03 2063.68,-304.68 2249.95,-304.28 2349.09,-305.57"/>
<polygon fill="#63b8ff" stroke="#63b8ff" points="1516.56,-385.95 1507.59,-391.59 1518.12,-392.77 1516.56,-385.95"/>
</g>
<!-- Node4&#45;&gt;Node2 -->
<g id="edge3" class="edge">
<title>Node4&#45;&gt;Node2</title>
<path fill="none" stroke="#9a32cd" stroke-dasharray="5,2" d="M2117.9,-384.94C2133.09,-396.6 2151.95,-413.33 2164,-432.03 2178.16,-454.01 2163.01,-470.06 2182,-488.03 2207.19,-511.86 2296.34,-530.45 2357.95,-540.83"/>
<polygon fill="#9a32cd" stroke="#9a32cd" points="2119.58,-381.83 2109.47,-378.69 2115.41,-387.45 2119.58,-381.83"/>
<text text-anchor="middle" x="2238.5" y="-530.43" font-family="Helvetica,sans-Serif" font-size="12.00"> parent</text>
</g>
<!-- Node4&#45;&gt;Node4 -->
<g id="edge45" class="edge">
<title>Node4&#45;&gt;Node4</title>
<path fill="none" stroke="#9a32cd" stroke-dasharray="5,2" d="M2067.07,-388.1C2069.03,-392.94 2077.51,-396.53 2092.5,-396.53 2116.49,-396.53 2123.8,-387.34 2114.43,-378.55"/>
<polygon fill="#9a32cd" stroke="#9a32cd" points="2070.41,-389.15 2070.57,-378.55 2063.84,-386.73 2070.41,-389.15"/>
<text text-anchor="middle" x="2092.5" y="-412.93" font-family="Helvetica,sans-Serif" font-size="12.00"> masterPlotterX</text>
<text text-anchor="middle" x="2092.5" y="-399.93" font-family="Helvetica,sans-Serif" font-size="12.00">masterPlotterY</text>
</g>
<!-- Node19 -->
<g id="node19" class="node">
<title>Node19</title>
<g id="a_node19"><a xlink:href="class_j_k_q_t_p_graphs_model.html" target="_top" xlink:title="data model with all plots ina JKQTBasePlotter (+ allows to switch them visible/invisible)">
<polygon fill="white" stroke="#666666" points="2486,-485.53 2355,-485.53 2355,-464.53 2486,-464.53 2486,-485.53"/>
<text text-anchor="middle" x="2420.5" y="-471.93" font-family="Helvetica,sans-Serif" font-size="12.00">JKQTPGraphsModel</text>
</a>
</g>
</g>
<!-- Node4&#45;&gt;Node19 -->
<g id="edge29" class="edge">
<title>Node4&#45;&gt;Node19</title>
<path fill="none" stroke="#9a32cd" stroke-dasharray="5,2" d="M2114,-385.43C2128.41,-397.95 2147.92,-415.48 2164,-432.03 2172.57,-440.84 2171.08,-447.38 2182,-453.03 2211.1,-468.08 2294.98,-472.93 2354.79,-474.44"/>
<polygon fill="#9a32cd" stroke="#9a32cd" points="2116.02,-382.55 2106.16,-378.68 2111.45,-387.86 2116.02,-382.55"/>
<text text-anchor="middle" x="2238.5" y="-474.43" font-family="Helvetica,sans-Serif" font-size="12.00"> m_plotter</text>
</g>
<!-- Node4&#45;&gt;Node23 -->
<g id="edge34" class="edge">
<title>Node4&#45;&gt;Node23</title>
<path fill="none" stroke="#9a32cd" stroke-dasharray="5,2" d="M2133.45,-354.41C2148.53,-349.65 2165.92,-344.61 2182,-341.03 2237.7,-328.62 2301.8,-319.76 2349.36,-314.2"/>
<polygon fill="#9a32cd" stroke="#9a32cd" points="2132.36,-351.09 2123.91,-357.48 2134.5,-357.75 2132.36,-351.09"/>
<text text-anchor="middle" x="2238.5" y="-344.43" font-family="Helvetica,sans-Serif" font-size="12.00"> parent</text>
</g>
<!-- Node5 -->
<g id="node5" class="node">
<title>Node5</title>
<g id="a_node5"><a xlink:href="class_j_k_q_t_base_plotter_style.html" target="_top" xlink:title="Support Class for JKQTBasePlotter, which summarizes all properties that define the visual styling of ...">
<polygon fill="white" stroke="#666666" points="1888,-280.53 1745,-280.53 1745,-259.53 1888,-259.53 1888,-280.53"/>
<text text-anchor="middle" x="1816.5" y="-266.93" font-family="Helvetica,sans-Serif" font-size="12.00">JKQTBasePlotterStyle</text>
</a>
</g>
</g>
<!-- Node5&#45;&gt;Node4 -->
<g id="edge5" class="edge">
<title>Node5&#45;&gt;Node4</title>
<path fill="none" stroke="#9a32cd" stroke-dasharray="5,2" d="M1856.57,-284C1912.04,-303.84 2012.39,-339.73 2062.04,-357.49"/>
<polygon fill="#9a32cd" stroke="#9a32cd" points="1857.68,-280.68 1847.08,-280.61 1855.32,-287.27 1857.68,-280.68"/>
<text text-anchor="middle" x="1954.5" y="-339.43" font-family="Helvetica,sans-Serif" font-size="12.00"> plotterStyle</text>
</g>
<!-- Node6 -->
<g id="node6" class="node">
<title>Node6</title>
<g id="a_node6"><a xlink:href="class_j_k_q_t_p_key_style.html" target="_top" xlink:title="Support Class for JKQTBasePlotter, which summarizes all properties that define the visual styling of ...">
<polygon fill="white" stroke="#666666" points="1527,-302.53 1423,-302.53 1423,-281.53 1527,-281.53 1527,-302.53"/>
<text text-anchor="middle" x="1475" y="-288.93" font-family="Helvetica,sans-Serif" font-size="12.00">JKQTPKeyStyle</text>
</a>
</g>
</g>
<!-- Node6&#45;&gt;Node5 -->
<g id="edge6" class="edge">
<title>Node6&#45;&gt;Node5</title>
<path fill="none" stroke="#9a32cd" stroke-dasharray="5,2" d="M1532.5,-279.57C1550.76,-276.1 1571.15,-272.79 1590,-271.03 1641.65,-266.2 1700.24,-266.1 1744.75,-267.13"/>
<polygon fill="#9a32cd" stroke="#9a32cd" points="1531.75,-276.15 1522.61,-281.51 1533.09,-283.02 1531.75,-276.15"/>
<text text-anchor="middle" x="1658.5" y="-274.43" font-family="Helvetica,sans-Serif" font-size="12.00"> keyStyle</text>
</g>
<!-- Node7 -->
<g id="node7" class="node">
<title>Node7</title>
<g id="a_node7"><a xlink:href="class_j_k_q_t_p_coordinate_axis_style.html" target="_top" xlink:title="Support Class for JKQTPCoordinateAxis, which summarizes all properties that define the visual styling...">
<polygon fill="white" stroke="#666666" points="1234,-194.53 1063,-194.53 1063,-173.53 1234,-173.53 1234,-194.53"/>
<text text-anchor="middle" x="1148.5" y="-180.93" font-family="Helvetica,sans-Serif" font-size="12.00">JKQTPCoordinateAxisStyle</text>
</a>
</g>
</g>
<!-- Node7&#45;&gt;Node5 -->
<g id="edge7" class="edge">
<title>Node7&#45;&gt;Node5</title>
<path fill="none" stroke="#9a32cd" stroke-dasharray="5,2" d="M1241.1,-195.86C1375.52,-213.22 1623.37,-245.22 1744.76,-260.89"/>
<polygon fill="#9a32cd" stroke="#9a32cd" points="1241.2,-192.34 1230.83,-194.53 1240.3,-199.28 1241.2,-192.34"/>
<text text-anchor="middle" x="1475" y="-254.43" font-family="Helvetica,sans-Serif" font-size="12.00"> xAxisStyle</text>
<text text-anchor="middle" x="1475" y="-241.43" font-family="Helvetica,sans-Serif" font-size="12.00">yAxisStyle</text>
</g>
<!-- Node9 -->
<g id="node9" class="node">
<title>Node9</title>
<g id="a_node9"><a xlink:href="class_j_k_q_t_p_colorbar_coordinate_axis_style.html" target="_top" xlink:title="Support Class for JKQTPCoordinateAxis, which summarizes all properties that define the visual styling...">
<polygon fill="white" stroke="#666666" points="1572,-201.03 1378,-201.03 1378,-167.03 1572,-167.03 1572,-201.03"/>
<text text-anchor="start" x="1386" y="-187.43" font-family="Helvetica,sans-Serif" font-size="12.00">JKQTPColorbarCoordinateAxis</text>
<text text-anchor="middle" x="1475" y="-174.43" font-family="Helvetica,sans-Serif" font-size="12.00">Style</text>
</a>
</g>
</g>
<!-- Node7&#45;&gt;Node9 -->
<g id="edge10" class="edge">
<title>Node7&#45;&gt;Node9</title>
<path fill="none" stroke="#63b8ff" d="M1244.56,-184.03C1286.54,-184.03 1335.81,-184.03 1377.91,-184.03"/>
<polygon fill="#63b8ff" stroke="#63b8ff" points="1244.33,-180.53 1234.33,-184.03 1244.33,-187.53 1244.33,-180.53"/>
</g>
<!-- Node7&#45;&gt;Node23 -->
<g id="edge35" class="edge">
<title>Node7&#45;&gt;Node23</title>
<path fill="none" stroke="#9a32cd" stroke-dasharray="5,2" d="M1205.93,-171.4C1270.4,-158.08 1379.25,-139.03 1474,-139.03 1474,-139.03 1474,-139.03 2093.5,-139.03 2231.67,-139.03 2369.84,-259.74 2408.73,-296.52"/>
<polygon fill="#9a32cd" stroke="#9a32cd" points="1205.04,-168.01 1195.97,-173.48 1206.48,-174.86 1205.04,-168.01"/>
<text text-anchor="middle" x="1816.5" y="-142.43" font-family="Helvetica,sans-Serif" font-size="12.00"> axisStyle</text>
</g>
<!-- Node8 -->
<g id="node8" class="node">
<title>Node8</title>
<g id="a_node8"><a xlink:href="class_j_k_q_t_p_grid_style.html" target="_top" xlink:title="Support Class for JKQTPCoordinateAxis, and summarizes all properties that define the visual styling o...">
<polygon fill="white" stroke="#666666" points="805.5,-194.53 698.5,-194.53 698.5,-173.53 805.5,-173.53 805.5,-194.53"/>
<text text-anchor="middle" x="752" y="-180.93" font-family="Helvetica,sans-Serif" font-size="12.00">JKQTPGridStyle</text>
</a>
</g>
</g>
<!-- Node8&#45;&gt;Node7 -->
<g id="edge8" class="edge">
<title>Node8&#45;&gt;Node7</title>
<path fill="none" stroke="#9a32cd" stroke-dasharray="5,2" d="M816.18,-184.03C883.03,-184.03 988.9,-184.03 1062.92,-184.03"/>
<polygon fill="#9a32cd" stroke="#9a32cd" points="815.79,-180.53 805.79,-184.03 815.79,-187.53 815.79,-180.53"/>
<text text-anchor="middle" x="948.5" y="-200.43" font-family="Helvetica,sans-Serif" font-size="12.00"> majorGridStyle</text>
<text text-anchor="middle" x="948.5" y="-187.43" font-family="Helvetica,sans-Serif" font-size="12.00">minorGridStyle</text>
</g>
<!-- Node9&#45;&gt;Node5 -->
<g id="edge9" class="edge">
<title>Node9&#45;&gt;Node5</title>
<path fill="none" stroke="#9a32cd" stroke-dasharray="5,2" d="M1582.5,-174.93C1628.35,-174.68 1681.72,-179.43 1727,-197.03 1761.34,-210.38 1792.27,-242.56 1806.78,-259.38"/>
<polygon fill="#9a32cd" stroke="#9a32cd" points="1582.18,-171.43 1572.23,-175.07 1582.28,-178.43 1582.18,-171.43"/>
<text text-anchor="middle" x="1658.5" y="-213.43" font-family="Helvetica,sans-Serif" font-size="12.00"> rightColorbarAxisStyle</text>
<text text-anchor="middle" x="1658.5" y="-200.43" font-family="Helvetica,sans-Serif" font-size="12.00">topColorbarAxisStyle</text>
</g>
<!-- Node10 -->
<g id="node10" class="node">
<title>Node10</title>
<g id="a_node10"><a xlink:href="class_j_k_q_t_graphs_base_style.html" target="_top" xlink:title="Support Class for JKQTBasePlotter, which summarizes all properties that define the visual styling of ...">
<polygon fill="white" stroke="#666666" points="1548,-352.53 1402,-352.53 1402,-331.53 1548,-331.53 1548,-352.53"/>
<text text-anchor="middle" x="1475" y="-338.93" font-family="Helvetica,sans-Serif" font-size="12.00">JKQTGraphsBaseStyle</text>
</a>
</g>
</g>
<!-- Node10&#45;&gt;Node5 -->
<g id="edge11" class="edge">
<title>Node10&#45;&gt;Node5</title>
<path fill="none" stroke="#9a32cd" stroke-dasharray="5,2" d="M1519.18,-328.46C1548.36,-319.35 1582.82,-308.71 1590,-307.03 1597.83,-305.19 1686.32,-290.82 1750.08,-280.54"/>
<polygon fill="#9a32cd" stroke="#9a32cd" points="1518.04,-325.16 1509.54,-331.48 1520.13,-331.84 1518.04,-325.16"/>
<text text-anchor="middle" x="1658.5" y="-310.43" font-family="Helvetica,sans-Serif" font-size="12.00"> graphsStyle</text>
</g>
<!-- Node11 -->
<g id="node11" class="node">
<title>Node11</title>
<g id="a_node11"><a xlink:href="class_j_k_q_t_graphs_specific_style_properties.html" target="_top" xlink:title="Support Class for JKQTBasePlotter, which summarizes all properties that define the visual styling of ...">
<polygon fill="white" stroke="#666666" points="623,-342.53 399,-342.53 399,-321.53 623,-321.53 623,-342.53"/>
<text text-anchor="middle" x="511" y="-328.93" font-family="Helvetica,sans-Serif" font-size="12.00">JKQTGraphsSpecificStyleProperties</text>
</a>
</g>
</g>
<!-- Node11&#45;&gt;Node10 -->
<g id="edge12" class="edge">
<title>Node11&#45;&gt;Node10</title>
<path fill="none" stroke="#9a32cd" stroke-dasharray="5,2" d="M633.27,-337.82C635.87,-337.89 638.45,-337.96 641,-338.03 922.37,-345.25 1257.38,-343.8 1401.84,-342.69"/>
<polygon fill="#9a32cd" stroke="#9a32cd" points="633.27,-334.31 623.17,-337.49 633.05,-341.31 633.27,-334.31"/>
<text text-anchor="middle" x="948.5" y="-372.43" font-family="Helvetica,sans-Serif" font-size="12.00"> boxplotStyle</text>
<text text-anchor="middle" x="948.5" y="-359.43" font-family="Helvetica,sans-Serif" font-size="12.00">defaultGraphStyle</text>
<text text-anchor="middle" x="948.5" y="-346.43" font-family="Helvetica,sans-Serif" font-size="12.00">filledStyle</text>
</g>
<!-- Node13 -->
<g id="node13" class="node">
<title>Node13</title>
<g id="a_node13"><a xlink:href="class_j_k_q_t_barchart_specific_style_properties.html" target="_top" xlink:title="Support Class for JKQTBasePlotter, which summarizes all properties that define the visual styling of ...">
<polygon fill="white" stroke="#666666" points="1035,-329.03 862,-329.03 862,-295.03 1035,-295.03 1035,-329.03"/>
<text text-anchor="start" x="870" y="-315.43" font-family="Helvetica,sans-Serif" font-size="12.00">JKQTBarchartSpecificStyle</text>
<text text-anchor="middle" x="948.5" y="-302.43" font-family="Helvetica,sans-Serif" font-size="12.00">Properties</text>
</a>
</g>
</g>
<!-- Node11&#45;&gt;Node13 -->
<g id="edge15" class="edge">
<title>Node11&#45;&gt;Node13</title>
<path fill="none" stroke="#63b8ff" d="M633.15,-326.47C705.82,-323.13 796.5,-318.96 861.76,-315.97"/>
<polygon fill="#63b8ff" stroke="#63b8ff" points="632.85,-322.98 623.02,-326.93 633.17,-329.97 632.85,-322.98"/>
</g>
<!-- Node14 -->
<g id="node14" class="node">
<title>Node14</title>
<g id="a_node14"><a xlink:href="class_j_k_q_t_impulse_specific_style_properties.html" target="_top" xlink:title="Support Class for JKQTBasePlotter, which summarizes all properties that define the visual styling of ...">
<polygon fill="white" stroke="#666666" points="1032.5,-285.03 864.5,-285.03 864.5,-251.03 1032.5,-251.03 1032.5,-285.03"/>
<text text-anchor="start" x="872.5" y="-271.43" font-family="Helvetica,sans-Serif" font-size="12.00">JKQTImpulseSpecificStyle</text>
<text text-anchor="middle" x="948.5" y="-258.43" font-family="Helvetica,sans-Serif" font-size="12.00">Properties</text>
</a>
</g>
</g>
<!-- Node11&#45;&gt;Node14 -->
<g id="edge17" class="edge">
<title>Node11&#45;&gt;Node14</title>
<path fill="none" stroke="#63b8ff" d="M594.09,-319.97C671.4,-308.6 786.64,-291.67 864.31,-280.25"/>
<polygon fill="#63b8ff" stroke="#63b8ff" points="593.3,-316.54 583.91,-321.46 594.32,-323.47 593.3,-316.54"/>
</g>
<!-- Node15 -->
<g id="node15" class="node">
<title>Node15</title>
<g id="a_node15"><a xlink:href="class_j_k_q_t_geometric_specific_style_properties.html" target="_top" xlink:title="Support Class for JKQTBasePlotter, which summarizes all properties that define the visual styling of ...">
<polygon fill="white" stroke="#666666" points="844,-423.03 660,-423.03 660,-389.03 844,-389.03 844,-423.03"/>
<text text-anchor="start" x="668" y="-409.43" font-family="Helvetica,sans-Serif" font-size="12.00">JKQTGeometricSpecificStyle</text>
<text text-anchor="middle" x="752" y="-396.43" font-family="Helvetica,sans-Serif" font-size="12.00">Properties</text>
</a>
</g>
</g>
<!-- Node11&#45;&gt;Node15 -->
<g id="edge19" class="edge">
<title>Node11&#45;&gt;Node15</title>
<path fill="none" stroke="#63b8ff" d="M555.59,-345.53C595.02,-357.74 653.28,-375.77 695.93,-388.98"/>
<polygon fill="#63b8ff" stroke="#63b8ff" points="556.58,-342.17 545.99,-342.55 554.51,-348.85 556.58,-342.17"/>
</g>
<!-- Node12 -->
<g id="node12" class="node">
<title>Node12</title>
<g id="a_node12"><a xlink:href="struct_j_k_q_t_p_color_derivation_mode.html" target="_top" xlink:title="Specifies how a fill&#45;color is derived from a given color.">
<polygon fill="white" stroke="#666666" points="179,-342.53 0,-342.53 0,-321.53 179,-321.53 179,-342.53"/>
<text text-anchor="middle" x="89.5" y="-328.93" font-family="Helvetica,sans-Serif" font-size="12.00">JKQTPColorDerivationMode</text>
</a>
</g>
</g>
<!-- Node12&#45;&gt;Node11 -->
<g id="edge13" class="edge">
<title>Node12&#45;&gt;Node11</title>
<path fill="none" stroke="#9a32cd" stroke-dasharray="5,2" d="M189.53,-332.03C252.41,-332.03 333.9,-332.03 398.97,-332.03"/>
<polygon fill="#9a32cd" stroke="#9a32cd" points="189.21,-328.53 179.21,-332.03 189.21,-335.53 189.21,-328.53"/>
<text text-anchor="middle" x="289" y="-387.43" font-family="Helvetica,sans-Serif" font-size="12.00"> errorColorDerivationMode</text>
<text text-anchor="middle" x="289" y="-374.43" font-family="Helvetica,sans-Serif" font-size="12.00">errorFillColorDerivationMode</text>
<text text-anchor="middle" x="289" y="-361.43" font-family="Helvetica,sans-Serif" font-size="12.00">fillColorDerivationMode</text>
<text text-anchor="middle" x="289" y="-348.43" font-family="Helvetica,sans-Serif" font-size="12.00">graphColorDerivationMode</text>
<text text-anchor="middle" x="289" y="-335.43" font-family="Helvetica,sans-Serif" font-size="12.00">symbolFillColorDerivationMode</text>
</g>
<!-- Node13&#45;&gt;Node10 -->
<g id="edge14" class="edge">
<title>Node13&#45;&gt;Node10</title>
<path fill="none" stroke="#9a32cd" stroke-dasharray="5,2" d="M1045.41,-315.54C1103.01,-317.83 1177.73,-321.12 1244,-325.03 1296.86,-328.15 1356.49,-332.58 1401.78,-336.14"/>
<polygon fill="#9a32cd" stroke="#9a32cd" points="1045.36,-312.04 1035.23,-315.14 1045.09,-319.03 1045.36,-312.04"/>
<text text-anchor="middle" x="1148.5" y="-328.43" font-family="Helvetica,sans-Serif" font-size="12.00"> barchartStyle</text>
</g>
<!-- Node14&#45;&gt;Node10 -->
<g id="edge16" class="edge">
<title>Node14&#45;&gt;Node10</title>
<path fill="none" stroke="#9a32cd" stroke-dasharray="5,2" d="M1042.8,-275.93C1100.84,-281.32 1176.93,-289.25 1244,-299.03 1306.31,-308.12 1377.48,-321.96 1423.94,-331.48"/>
<polygon fill="#9a32cd" stroke="#9a32cd" points="1042.83,-272.42 1032.55,-274.99 1042.19,-279.39 1042.83,-272.42"/>
<text text-anchor="middle" x="1148.5" y="-302.43" font-family="Helvetica,sans-Serif" font-size="12.00"> impulseStyle</text>
</g>
<!-- Node15&#45;&gt;Node10 -->
<g id="edge18" class="edge">
<title>Node15&#45;&gt;Node10</title>
<path fill="none" stroke="#9a32cd" stroke-dasharray="5,2" d="M854.27,-417.82C953.75,-427.45 1109.73,-437.33 1244,-423.03 1296.44,-417.44 1313.69,-423.26 1360,-398.03 1369.94,-392.62 1368.54,-386.24 1378,-380.03 1396.13,-368.12 1418.57,-358.98 1437.19,-352.65"/>
<polygon fill="#9a32cd" stroke="#9a32cd" points="854.52,-414.32 844.22,-416.82 853.83,-421.29 854.52,-414.32"/>
<text text-anchor="middle" x="1148.5" y="-433.43" font-family="Helvetica,sans-Serif" font-size="12.00"> geometricStyle</text>
</g>
<!-- Node16 -->
<g id="node16" class="node">
<title>Node16</title>
<g id="a_node16"><a xlink:href="class_j_k_q_t_annotations_specific_style_properties.html" target="_top" xlink:title="Support Class for JKQTBasePlotter, which summarizes all properties that define the visual styling of ...">
<polygon fill="white" stroke="#666666" points="1244,-414.03 1053,-414.03 1053,-380.03 1244,-380.03 1244,-414.03"/>
<text text-anchor="start" x="1061" y="-400.43" font-family="Helvetica,sans-Serif" font-size="12.00">JKQTAnnotationsSpecificStyle</text>
<text text-anchor="middle" x="1148.5" y="-387.43" font-family="Helvetica,sans-Serif" font-size="12.00">Properties</text>
</a>
</g>
</g>
<!-- Node15&#45;&gt;Node16 -->
<g id="edge21" class="edge">
<title>Node15&#45;&gt;Node16</title>
<path fill="none" stroke="#63b8ff" d="M854.07,-403.72C915.27,-402.33 992.83,-400.56 1052.84,-399.19"/>
<polygon fill="#63b8ff" stroke="#63b8ff" points="853.92,-400.23 844,-403.95 854.08,-407.22 853.92,-400.23"/>
</g>
<!-- Node16&#45;&gt;Node10 -->
<g id="edge20" class="edge">
<title>Node16&#45;&gt;Node10</title>
<path fill="none" stroke="#9a32cd" stroke-dasharray="5,2" d="M1253.93,-382.94C1287.84,-378.02 1325.58,-372.18 1360,-366.03 1382.2,-362.06 1406.69,-357 1427.26,-352.54"/>
<polygon fill="#9a32cd" stroke="#9a32cd" points="1253.41,-379.48 1244.01,-384.37 1254.4,-386.41 1253.41,-379.48"/>
<text text-anchor="middle" x="1311" y="-384.43" font-family="Helvetica,sans-Serif" font-size="12.00"> annotationStyle</text>
</g>
<!-- Node17&#45;&gt;Node4 -->
<g id="edge22" class="edge">
<title>Node17&#45;&gt;Node4</title>
<path fill="none" stroke="#9a32cd" stroke-dasharray="5,2" d="M1875.55,-415.32C1925.5,-404.38 1996.72,-388.78 2043.51,-378.54"/>
<polygon fill="#9a32cd" stroke="#9a32cd" points="1874.56,-411.95 1865.54,-417.51 1876.06,-418.79 1874.56,-411.95"/>
<text text-anchor="middle" x="1954.5" y="-411.43" font-family="Helvetica,sans-Serif" font-size="12.00"> mathText</text>
</g>
<!-- Node18 -->
<g id="node18" class="node">
<title>Node18</title>
<g id="a_node18"><a xlink:href="class_j_k_q_t_math_text_node.html" target="_top" xlink:title="subclass representing one node in the syntax tree">
<polygon fill="white" stroke="#666666" points="2158,-461.53 2027,-461.53 2027,-440.53 2158,-440.53 2158,-461.53"/>
<text text-anchor="middle" x="2092.5" y="-447.93" font-family="Helvetica,sans-Serif" font-size="12.00">JKQTMathTextNode</text>
</a>
</g>
</g>
<!-- Node17&#45;&gt;Node18 -->
<g id="edge25" class="edge">
<title>Node17&#45;&gt;Node18</title>
<path fill="none" stroke="#9a32cd" stroke-dasharray="5,2" d="M1859.61,-441.31C1874.15,-445.26 1890.65,-449.07 1906,-451.03 1945.93,-456.13 1991.09,-456.25 2026.86,-455.04"/>
<polygon fill="#9a32cd" stroke="#9a32cd" points="1860.47,-437.91 1849.89,-438.56 1858.57,-444.65 1860.47,-437.91"/>
<text text-anchor="middle" x="1954.5" y="-458.43" font-family="Helvetica,sans-Serif" font-size="12.00"> parentMathText</text>
</g>
<!-- Node18&#45;&gt;Node17 -->
<g id="edge24" class="edge">
<title>Node18&#45;&gt;Node17</title>
<path fill="none" stroke="#9a32cd" stroke-dasharray="5,2" d="M2016.67,-439.55C2012.05,-438.99 2007.47,-438.48 2003,-438.03 1956.63,-433.38 1903.5,-430.8 1866.03,-429.42"/>
<polygon fill="#9a32cd" stroke="#9a32cd" points="2016.46,-443.05 2026.82,-440.83 2017.34,-436.1 2016.46,-443.05"/>
<text text-anchor="middle" x="1954.5" y="-441.43" font-family="Helvetica,sans-Serif" font-size="12.00"> parsedNode</text>
</g>
<!-- Node18&#45;&gt;Node18 -->
<g id="edge26" class="edge">
<title>Node18&#45;&gt;Node18</title>
<path fill="none" stroke="#9a32cd" stroke-dasharray="5,2" d="M2067.07,-471.1C2069.03,-475.94 2077.51,-479.53 2092.5,-479.53 2116.49,-479.53 2123.8,-470.34 2114.43,-461.55"/>
<polygon fill="#9a32cd" stroke="#9a32cd" points="2070.41,-472.15 2070.57,-461.55 2063.84,-469.73 2070.41,-472.15"/>
<text text-anchor="middle" x="2092.5" y="-482.93" font-family="Helvetica,sans-Serif" font-size="12.00"> parentNode</text>
</g>
<!-- Node19&#45;&gt;Node4 -->
<g id="edge27" class="edge">
<title>Node19&#45;&gt;Node4</title>
<path fill="none" stroke="#9a32cd" stroke-dasharray="5,2" d="M2374.8,-461.61C2351.18,-454.73 2321.64,-446.48 2295,-440.03 2245.19,-427.97 2230.09,-434.76 2182,-417.03 2154.98,-407.07 2126.26,-389.76 2109.1,-378.61"/>
<polygon fill="#9a32cd" stroke="#9a32cd" points="2373.95,-465 2384.53,-464.46 2375.92,-458.29 2373.95,-465"/>
<text text-anchor="middle" x="2238.5" y="-443.43" font-family="Helvetica,sans-Serif" font-size="12.00"> m_plotsModel</text>
</g>
<!-- Node20 -->
<g id="node20" class="node">
<title>Node20</title>
<g id="a_node20"><a xlink:title=" ">
<polygon fill="white" stroke="#666666" points="2164,-531.53 2021,-531.53 2021,-510.53 2164,-510.53 2164,-531.53"/>
<text text-anchor="middle" x="2092.5" y="-517.93" font-family="Helvetica,sans-Serif" font-size="12.00">QAbstractTableModel</text>
</a>
</g>
</g>
<!-- Node20&#45;&gt;Node19 -->
<g id="edge28" class="edge">
<title>Node20&#45;&gt;Node19</title>
<path fill="none" stroke="#63b8ff" d="M2174.43,-509.61C2230.15,-501.75 2303.18,-491.44 2354.99,-484.13"/>
<polygon fill="#63b8ff" stroke="#63b8ff" points="2173.65,-506.19 2164.24,-511.05 2174.63,-513.12 2173.65,-506.19"/>
</g>
<!-- Node21 -->
<g id="node21" class="node">
<title>Node21</title>
<g id="a_node21"><a xlink:href="class_j_k_q_t_p_horizontal_axis.html" target="_top" xlink:title="implements a horizontal axis, based on JKQTPCoordinateAxis (for most of documentation: see JKQTPCoord...">
<polygon fill="white" stroke="#666666" points="2961,-403.53 2824,-403.53 2824,-382.53 2961,-382.53 2961,-403.53"/>
<text text-anchor="middle" x="2892.5" y="-389.93" font-family="Helvetica,sans-Serif" font-size="12.00">JKQTPHorizontalAxis</text>
</a>
</g>
</g>
<!-- Node21&#45;&gt;Node4 -->
<g id="edge30" class="edge">
<title>Node21&#45;&gt;Node4</title>
<path fill="none" stroke="#9a32cd" stroke-dasharray="5,2" d="M2813.52,-395.41C2682.7,-398.61 2410.84,-401.8 2182,-382.03 2171.46,-381.12 2160.28,-379.7 2149.53,-378.12"/>
<polygon fill="#9a32cd" stroke="#9a32cd" points="2813.93,-398.9 2823.84,-395.15 2813.75,-391.91 2813.93,-398.9"/>
<text text-anchor="middle" x="2563.5" y="-400.43" font-family="Helvetica,sans-Serif" font-size="12.00"> xAxis</text>
</g>
<!-- Node22 -->
<g id="node22" class="node">
<title>Node22</title>
<g id="a_node22"><a xlink:href="class_j_k_q_t_p_horizontal_axis_base.html" target="_top" xlink:title="base class for horizontal axes, based on JKQTPCoordinateAxis (for most of documentation: see JKQTPCoo...">
<polygon fill="white" stroke="#666666" points="2776.5,-339.53 2609.5,-339.53 2609.5,-318.53 2776.5,-318.53 2776.5,-339.53"/>
<text text-anchor="middle" x="2693" y="-325.93" font-family="Helvetica,sans-Serif" font-size="12.00">JKQTPHorizontalAxisBase</text>
</a>
</g>
</g>
<!-- Node22&#45;&gt;Node21 -->
<g id="edge31" class="edge">
<title>Node22&#45;&gt;Node21</title>
<path fill="none" stroke="#63b8ff" d="M2736.52,-342.81C2773.19,-354.69 2825.37,-371.6 2858.84,-382.45"/>
<polygon fill="#63b8ff" stroke="#63b8ff" points="2737.21,-339.35 2726.61,-339.6 2735.05,-346.01 2737.21,-339.35"/>
</g>
<!-- Node23&#45;&gt;Node22 -->
<g id="edge32" class="edge">
<title>Node23&#45;&gt;Node22</title>
<path fill="none" stroke="#63b8ff" d="M2501.84,-313.56C2535.73,-316.32 2575.16,-319.53 2609.3,-322.3"/>
<polygon fill="#63b8ff" stroke="#63b8ff" points="2501.76,-310.05 2491.51,-312.72 2501.2,-317.02 2501.76,-310.05"/>
</g>
<!-- Node25 -->
<g id="node25" class="node">
<title>Node25</title>
<g id="a_node25"><a xlink:href="class_j_k_q_t_p_vertical_axis_base.html" target="_top" xlink:title="base class for vertical axes, based on JKQTPCoordinateAxis (for most of documentation: see JKQTPCoord...">
<polygon fill="white" stroke="#666666" points="2768.5,-300.53 2617.5,-300.53 2617.5,-279.53 2768.5,-279.53 2768.5,-300.53"/>
<text text-anchor="middle" x="2693" y="-286.93" font-family="Helvetica,sans-Serif" font-size="12.00">JKQTPVerticalAxisBase</text>
</a>
</g>
</g>
<!-- Node23&#45;&gt;Node25 -->
<g id="edge38" class="edge">
<title>Node23&#45;&gt;Node25</title>
<path fill="none" stroke="#63b8ff" d="M2501.63,-301.99C2538.17,-299.7 2581.18,-296.99 2617.07,-294.74"/>
<polygon fill="#63b8ff" stroke="#63b8ff" points="2501.27,-298.51 2491.51,-302.63 2501.71,-305.5 2501.27,-298.51"/>
</g>
<!-- Node24 -->
<g id="node24" class="node">
<title>Node24</title>
<g id="a_node24"><a xlink:href="class_j_k_q_t_p_vertical_axis.html" target="_top" xlink:title="implements a vertical axis for use as primary, secondary, ... axis of a JKQTPBasePlotter,...">
<polygon fill="white" stroke="#666666" points="2953.5,-349.53 2831.5,-349.53 2831.5,-328.53 2953.5,-328.53 2953.5,-349.53"/>
<text text-anchor="middle" x="2892.5" y="-335.93" font-family="Helvetica,sans-Serif" font-size="12.00">JKQTPVerticalAxis</text>
</a>
</g>
</g>
<!-- Node24&#45;&gt;Node4 -->
<g id="edge36" class="edge">
<title>Node24&#45;&gt;Node4</title>
<path fill="none" stroke="#9a32cd" stroke-dasharray="5,2" d="M2821.34,-346.4C2809.88,-347.42 2798.11,-348.35 2787,-349.03 2550.47,-363.57 2267.88,-366.98 2149.74,-367.78"/>
<polygon fill="#9a32cd" stroke="#9a32cd" points="2821.68,-349.89 2831.32,-345.49 2821.05,-342.92 2821.68,-349.89"/>
<text text-anchor="middle" x="2563.5" y="-362.43" font-family="Helvetica,sans-Serif" font-size="12.00"> yAxis</text>
</g>
<!-- Node25&#45;&gt;Node24 -->
<g id="edge37" class="edge">
<title>Node25&#45;&gt;Node24</title>
<path fill="none" stroke="#63b8ff" d="M2755.7,-302.76C2766.17,-305.08 2776.91,-307.55 2787,-310.03 2809.85,-315.65 2835.3,-322.7 2855.37,-328.44"/>
<polygon fill="#63b8ff" stroke="#63b8ff" points="2756.29,-299.31 2745.78,-300.6 2754.8,-306.15 2756.29,-299.31"/>
</g>
<!-- Node26 -->
<g id="node26" class="node">
<title>Node26</title>
<g id="a_node26"><a xlink:href="class_j_k_q_t_p_datastore.html" target="_top" xlink:title="This class manages data columns (with entries of type double ), used by JKQTPlotter/JKQTBasePlotter t...">
<polygon fill="white" stroke="#666666" points="1872,-46.53 1761,-46.53 1761,-25.53 1872,-25.53 1872,-46.53"/>
<text text-anchor="middle" x="1816.5" y="-32.93" font-family="Helvetica,sans-Serif" font-size="12.00">JKQTPDatastore</text>
</a>
</g>
</g>
<!-- Node26&#45;&gt;Node4 -->
<g id="edge39" class="edge">
<title>Node26&#45;&gt;Node4</title>
<path fill="none" stroke="#9a32cd" stroke-dasharray="5,2" d="M1881.39,-50.47C1883.71,-51.85 1885.92,-53.37 1888,-55.03 1901.36,-65.69 1897.26,-74.34 1906,-89.03 1970.11,-196.75 2057.73,-320.82 2083.85,-357.38"/>
<polygon fill="#9a32cd" stroke="#9a32cd" points="1882.58,-47.15 1872.08,-45.76 1879.42,-53.39 1882.58,-47.15"/>
<text text-anchor="middle" x="1954.5" y="-238.43" font-family="Helvetica,sans-Serif" font-size="12.00"> datastore</text>
</g>
<!-- Node28 -->
<g id="node28" class="node">
<title>Node28</title>
<g id="a_node28"><a xlink:href="class_j_k_q_t_p_column.html" target="_top" xlink:title="internally stores information about one data column. See JKQTPDatastore for more information.">
<polygon fill="white" stroke="#666666" points="2141.5,-46.53 2043.5,-46.53 2043.5,-25.53 2141.5,-25.53 2141.5,-46.53"/>
<text text-anchor="middle" x="2092.5" y="-32.93" font-family="Helvetica,sans-Serif" font-size="12.00">JKQTPColumn</text>
</a>
</g>
</g>
<!-- Node26&#45;&gt;Node28 -->
<g id="edge42" class="edge">
<title>Node26&#45;&gt;Node28</title>
<path fill="none" stroke="#9a32cd" stroke-dasharray="5,2" d="M1882.54,-36.03C1931.87,-36.03 1998.58,-36.03 2043.22,-36.03"/>
<polygon fill="#9a32cd" stroke="#9a32cd" points="1882.29,-32.53 1872.29,-36.03 1882.29,-39.53 1882.29,-32.53"/>
<text text-anchor="middle" x="1954.5" y="-39.43" font-family="Helvetica,sans-Serif" font-size="12.00"> datastore</text>
</g>
<!-- Node27 -->
<g id="node27" class="node">
<title>Node27</title>
<g id="a_node27"><a xlink:title=" ">
<polygon fill="white" stroke="#666666" points="2528,-46.53 2313,-46.53 2313,-25.53 2528,-25.53 2528,-46.53"/>
<text text-anchor="middle" x="2420.5" y="-32.93" font-family="Helvetica,sans-Serif" font-size="12.00">std::unique_ptr&lt; JKQTPColumn &gt;</text>
</a>
</g>
</g>
<!-- Node27&#45;&gt;Node26 -->
<g id="edge40" class="edge">
<title>Node27&#45;&gt;Node26</title>
<path fill="none" stroke="#9a32cd" stroke-dasharray="5,2" d="M2352.44,-23.79C2273.25,-10.89 2137.55,6.36 2021,-3.03 1968.56,-7.25 1909.24,-17.51 1868.24,-25.47"/>
<polygon fill="#9a32cd" stroke="#9a32cd" points="2352.32,-27.32 2362.75,-25.5 2353.46,-20.41 2352.32,-27.32"/>
<text text-anchor="middle" x="2092.5" y="-6.43" font-family="Helvetica,sans-Serif" font-size="12.00"> m_invalidColumn</text>
</g>
<!-- Node28&#45;&gt;Node27 -->
<g id="edge41" class="edge">
<title>Node28&#45;&gt;Node27</title>
<path fill="none" stroke="#9a32cd" stroke-dasharray="5,2" d="M2151.69,-36.03C2196.35,-36.03 2259.24,-36.03 2312.85,-36.03"/>
<polygon fill="#9a32cd" stroke="#9a32cd" points="2151.6,-32.53 2141.6,-36.03 2151.6,-39.53 2151.6,-32.53"/>
<text text-anchor="middle" x="2238.5" y="-39.43" font-family="Helvetica,sans-Serif" font-size="12.00"> ptr</text>
</g>
<!-- Node29 -->
<g id="node29" class="node">
<title>Node29</title>
<g id="a_node29"><a xlink:title=" ">
<polygon fill="white" stroke="#666666" points="2162.5,-85.53 2022.5,-85.53 2022.5,-64.53 2162.5,-64.53 2162.5,-85.53"/>
<text text-anchor="middle" x="2092.5" y="-71.93" font-family="Helvetica,sans-Serif" font-size="12.00">std::unique_ptr&lt; T &gt;</text>
</a>
</g>
</g>
<!-- Node29&#45;&gt;Node27 -->
<g id="edge43" class="edge">
<title>Node29&#45;&gt;Node27</title>
<path fill="none" stroke="orange" stroke-dasharray="5,2" d="M2172.8,-66.24C2209.93,-62.06 2254.74,-56.91 2295,-52.03 2309.17,-50.31 2324.24,-48.42 2338.82,-46.57"/>
<polygon fill="orange" stroke="orange" points="2172.09,-62.8 2162.54,-67.39 2172.87,-69.75 2172.09,-62.8"/>
<text text-anchor="middle" x="2238.5" y="-68.43" font-family="Helvetica,sans-Serif" font-size="12.00"> &lt; JKQTPColumn &gt;</text>
</g>
<!-- Node30 -->
<g id="node30" class="node">
<title>Node30</title>
<g id="a_node30"><a xlink:title=" ">
<polygon fill="white" stroke="#666666" points="1831,-85.53 1802,-85.53 1802,-64.53 1831,-64.53 1831,-85.53"/>
<text text-anchor="middle" x="1816.5" y="-71.93" font-family="Helvetica,sans-Serif" font-size="12.00">T</text>
</a>
</g>
</g>
<!-- Node30&#45;&gt;Node29 -->
<g id="edge44" class="edge">
<title>Node30&#45;&gt;Node29</title>
<path fill="none" stroke="#9a32cd" stroke-dasharray="5,2" d="M1841.17,-75.03C1881.06,-75.03 1963.14,-75.03 2022.46,-75.03"/>
<polygon fill="#9a32cd" stroke="#9a32cd" points="1841.09,-71.53 1831.09,-75.03 1841.09,-78.53 1841.09,-71.53"/>
<text text-anchor="middle" x="1954.5" y="-78.43" font-family="Helvetica,sans-Serif" font-size="12.00"> ptr</text>
</g>
</g>
</svg>
