<?xml version="1.0" encoding="UTF-8" standalone="no"?>
<!DOCTYPE svg PUBLIC "-//W3C//DTD SVG 1.1//EN"
 "http://www.w3.org/Graphics/SVG/1.1/DTD/svg11.dtd">
<!-- Generated by graphviz version 2.43.0 (0)
 -->
<!-- Title: JKQTMathTextHorizontalListNode Pages: 1 -->
<svg width="546pt" height="170pt"
 viewBox="0.00 0.00 546.00 170.00" xmlns="http://www.w3.org/2000/svg" xmlns:xlink="http://www.w3.org/1999/xlink">
<g id="graph0" class="graph" transform="scale(1 1) rotate(0) translate(4 166)">
<title>JKQTMathTextHorizontalListNode</title>
<!-- Node1 -->
<g id="node1" class="node">
<title>Node1</title>
<g id="a_node1"><a xlink:title="subclass representing a list of nodes in the syntax tree, layed out horizontally">
<polygon fill="#999999" stroke="#666666" points="368,-21 156,-21 156,0 368,0 368,-21"/>
<text text-anchor="middle" x="262" y="-7.4" font-family="Helvetica,sans-Serif" font-size="12.00">JKQTMathTextHorizontalListNode</text>
</a>
</g>
</g>
<!-- Node2 -->
<g id="node2" class="node">
<title>Node2</title>
<g id="a_node2"><a xlink:href="class_j_k_q_t_math_text_multi_child_node.html" target="_top" xlink:title="subclass representing a node in the syntax tree, that has two children">
<polygon fill="white" stroke="#666666" points="188,-85.5 0,-85.5 0,-64.5 188,-64.5 188,-85.5"/>
<text text-anchor="middle" x="94" y="-71.9" font-family="Helvetica,sans-Serif" font-size="12.00">JKQTMathTextMultiChildNode</text>
</a>
</g>
</g>
<!-- Node2&#45;&gt;Node1 -->
<g id="edge1" class="edge">
<title>Node2&#45;&gt;Node1</title>
<path fill="none" stroke="#63b8ff" d="M129.32,-60.86C161.34,-48.95 207.77,-31.67 236.36,-21.04"/>
<polygon fill="#63b8ff" stroke="#63b8ff" points="128.03,-57.6 119.88,-64.37 130.47,-64.16 128.03,-57.6"/>
</g>
<!-- Node3 -->
<g id="node3" class="node">
<title>Node3</title>
<g id="a_node3"><a xlink:href="class_j_k_q_t_math_text_node.html" target="_top" xlink:title="subclass representing one node in the syntax tree">
<polygon fill="white" stroke="#666666" points="213.5,-162 82.5,-162 82.5,-141 213.5,-141 213.5,-162"/>
<text text-anchor="middle" x="148" y="-148.4" font-family="Helvetica,sans-Serif" font-size="12.00">JKQTMathTextNode</text>
</a>
</g>
</g>
<!-- Node3&#45;&gt;Node2 -->
<g id="edge2" class="edge">
<title>Node3&#45;&gt;Node2</title>
<path fill="none" stroke="#63b8ff" d="M133.81,-133.17C131.17,-129.83 128.46,-126.33 126,-123 116.62,-110.3 106.46,-95.11 100.17,-85.51"/>
<polygon fill="#63b8ff" stroke="#63b8ff" points="131.08,-135.37 140.08,-140.97 136.54,-130.98 131.08,-135.37"/>
</g>
<!-- Node3&#45;&gt;Node3 -->
<g id="edge6" class="edge">
<title>Node3&#45;&gt;Node3</title>
<path fill="none" stroke="#9a32cd" stroke-dasharray="5,2" d="M224.02,-155.94C228.69,-154.89 231.5,-153.41 231.5,-151.5 231.5,-148.45 224.31,-146.49 213.81,-145.63"/>
<polygon fill="#9a32cd" stroke="#9a32cd" points="223.23,-152.52 213.81,-157.37 224.2,-159.45 223.23,-152.52"/>
<text text-anchor="middle" x="269" y="-148.4" font-family="Helvetica,sans-Serif" font-size="12.00"> parentNode</text>
</g>
<!-- Node4 -->
<g id="node4" class="node">
<title>Node4</title>
<g id="a_node4"><a xlink:href="class_j_k_q_t_math_text.html" target="_top" xlink:title="this class parses a mathematical markup string and can then draw the contained text/equation onto a Q...">
<polygon fill="white" stroke="#666666" points="305.5,-85.5 206.5,-85.5 206.5,-64.5 305.5,-64.5 305.5,-85.5"/>
<text text-anchor="middle" x="256" y="-71.9" font-family="Helvetica,sans-Serif" font-size="12.00">JKQTMathText</text>
</a>
</g>
</g>
<!-- Node3&#45;&gt;Node4 -->
<g id="edge5" class="edge">
<title>Node3&#45;&gt;Node4</title>
<path fill="none" stroke="#9a32cd" stroke-dasharray="5,2" d="M141.5,-131.02C140.31,-123.81 140.61,-115.94 145,-110 147.38,-106.78 189.62,-94.44 221.29,-85.56"/>
<polygon fill="#9a32cd" stroke="#9a32cd" points="138.14,-132.01 143.99,-140.84 144.92,-130.28 138.14,-132.01"/>
<text text-anchor="middle" x="183.5" y="-113.4" font-family="Helvetica,sans-Serif" font-size="12.00"> parsedNode</text>
</g>
<!-- Node4&#45;&gt;Node3 -->
<g id="edge3" class="edge">
<title>Node4&#45;&gt;Node3</title>
<path fill="none" stroke="#9a32cd" stroke-dasharray="5,2" d="M247.7,-94.84C242.64,-104.42 235.34,-115.59 226,-123 215.88,-131.03 203.23,-136.82 191.09,-140.94"/>
<polygon fill="#9a32cd" stroke="#9a32cd" points="250.94,-96.16 252.15,-85.64 244.64,-93.11 250.94,-96.16"/>
<text text-anchor="middle" x="286.5" y="-113.4" font-family="Helvetica,sans-Serif" font-size="12.00"> parentMathText</text>
</g>
<!-- Node5 -->
<g id="node5" class="node">
<title>Node5</title>
<g id="a_node5"><a xlink:title=" ">
<polygon fill="white" stroke="#666666" points="392.5,-162 327.5,-162 327.5,-141 392.5,-141 392.5,-162"/>
<text text-anchor="middle" x="360" y="-148.4" font-family="Helvetica,sans-Serif" font-size="12.00">QObject</text>
</a>
</g>
</g>
<!-- Node5&#45;&gt;Node4 -->
<g id="edge4" class="edge">
<title>Node5&#45;&gt;Node4</title>
<path fill="none" stroke="#63b8ff" d="M356.88,-130.94C354.85,-123.59 351.5,-115.66 346,-110 337.91,-101.68 312.07,-92.37 290.14,-85.6"/>
<polygon fill="#63b8ff" stroke="#63b8ff" points="353.51,-131.89 359.02,-140.94 360.35,-130.43 353.51,-131.89"/>
</g>
<!-- Node6 -->
<g id="node6" class="node">
<title>Node6</title>
<g id="a_node6"><a xlink:href="class_j_k_q_t_math_text_modify_environment_node_mix_in.html" target="_top" xlink:title="mixin extending a node that does not produce any output, but provides a function modifyEnvironment() ...">
<polygon fill="white" stroke="#666666" points="538,-92 324,-92 324,-58 538,-58 538,-92"/>
<text text-anchor="start" x="332" y="-78.4" font-family="Helvetica,sans-Serif" font-size="12.00">JKQTMathTextModifyEnvironment</text>
<text text-anchor="middle" x="431" y="-65.4" font-family="Helvetica,sans-Serif" font-size="12.00">NodeMixIn</text>
</a>
</g>
</g>
<!-- Node6&#45;&gt;Node1 -->
<g id="edge7" class="edge">
<title>Node6&#45;&gt;Node1</title>
<path fill="none" stroke="#63b8ff" d="M377.99,-54.4C348.02,-43.31 311.89,-29.95 288,-21.12"/>
<polygon fill="#63b8ff" stroke="#63b8ff" points="376.89,-57.72 387.48,-57.9 379.31,-51.15 376.89,-57.72"/>
</g>
</g>
</svg>
