<?xml version="1.0" encoding="UTF-8" standalone="no"?>
<!DOCTYPE svg PUBLIC "-//W3C//DTD SVG 1.1//EN"
 "http://www.w3.org/Graphics/SVG/1.1/DTD/svg11.dtd">
<!-- Generated by graphviz version 2.43.0 (0)
 -->
<!-- Title: JKQTMathTextNode Pages: 1 -->
<svg width="910pt" height="390pt"
 viewBox="0.00 0.00 910.00 390.00" xmlns="http://www.w3.org/2000/svg" xmlns:xlink="http://www.w3.org/1999/xlink">
<g id="graph0" class="graph" transform="scale(1 1) rotate(0) translate(4 386)">
<title>JKQTMathTextNode</title>
<!-- Node1 -->
<g id="node1" class="node">
<title>Node1</title>
<g id="a_node1"><a xlink:title="subclass representing one node in the syntax tree">
<polygon fill="#bfbfbf" stroke="black" points="0,-140.5 0,-161.5 131,-161.5 131,-140.5 0,-140.5"/>
<text text-anchor="middle" x="65.5" y="-147.9" font-family="Helvetica,sans-Serif" font-size="12.00">JKQTMathTextNode</text>
</a>
</g>
</g>
<!-- Node2 -->
<g id="node2" class="node">
<title>Node2</title>
<g id="a_node2"><a xlink:href="class_j_k_q_t_math_text_matrix_node.html" target="_top" xlink:title="subclass representing a \begin{matrix} node">
<polygon fill="none" stroke="black" points="200.5,-300.5 200.5,-321.5 368.5,-321.5 368.5,-300.5 200.5,-300.5"/>
<text text-anchor="middle" x="284.5" y="-307.9" font-family="Helvetica,sans-Serif" font-size="12.00">JKQTMathTextMatrixNode</text>
</a>
</g>
</g>
<!-- Node1&#45;&gt;Node2 -->
<g id="edge1" class="edge">
<title>Node1&#45;&gt;Node2</title>
<path fill="none" stroke="midnightblue" d="M74.76,-170.97C88.77,-202.13 120.28,-261.77 167,-291 177.09,-297.31 188.59,-301.79 200.34,-304.94"/>
<polygon fill="midnightblue" stroke="midnightblue" points="77.88,-169.36 70.69,-161.58 71.46,-172.15 77.88,-169.36"/>
</g>
<!-- Node3 -->
<g id="node3" class="node">
<title>Node3</title>
<g id="a_node3"><a xlink:href="class_j_k_q_t_math_text_multi_child_node.html" target="_top" xlink:title="subclass representing a node in the syntax tree, that has two children">
<polygon fill="none" stroke="black" points="190.5,-260.5 190.5,-281.5 378.5,-281.5 378.5,-260.5 190.5,-260.5"/>
<text text-anchor="middle" x="284.5" y="-267.9" font-family="Helvetica,sans-Serif" font-size="12.00">JKQTMathTextMultiChildNode</text>
</a>
</g>
</g>
<!-- Node1&#45;&gt;Node3 -->
<g id="edge2" class="edge">
<title>Node1&#45;&gt;Node3</title>
<path fill="none" stroke="midnightblue" d="M91.98,-166.82C112.15,-179.18 141.12,-196.63 167,-211 199.62,-229.11 238.26,-248.64 261.81,-260.34"/>
<polygon fill="midnightblue" stroke="midnightblue" points="93.73,-163.78 83.38,-161.52 90.06,-169.74 93.73,-163.78"/>
</g>
<!-- Node9 -->
<g id="node9" class="node">
<title>Node9</title>
<g id="a_node9"><a xlink:href="class_j_k_q_t_math_text_simple_instruction_node.html" target="_top" xlink:title="subclass representing a simple instruction node which only accepts string arguments,...">
<polygon fill="none" stroke="black" points="167,-180.5 167,-201.5 402,-201.5 402,-180.5 167,-180.5"/>
<text text-anchor="middle" x="284.5" y="-187.9" font-family="Helvetica,sans-Serif" font-size="12.00">JKQTMathTextSimpleInstructionNode</text>
</a>
</g>
</g>
<!-- Node1&#45;&gt;Node9 -->
<g id="edge8" class="edge">
<title>Node1&#45;&gt;Node9</title>
<path fill="none" stroke="midnightblue" d="M128.21,-163.55C141.02,-166.08 154.44,-168.67 167,-171 184.25,-174.2 202.98,-177.49 220.26,-180.46"/>
<polygon fill="midnightblue" stroke="midnightblue" points="128.58,-160.05 118.09,-161.54 127.22,-166.92 128.58,-160.05"/>
</g>
<!-- Node10 -->
<g id="node10" class="node">
<title>Node10</title>
<g id="a_node10"><a xlink:href="class_j_k_q_t_math_text_single_child_node.html" target="_top" xlink:title="subclass representing a node in the syntax tree, that has one child">
<polygon fill="none" stroke="black" points="186.5,-140.5 186.5,-161.5 382.5,-161.5 382.5,-140.5 186.5,-140.5"/>
<text text-anchor="middle" x="284.5" y="-147.9" font-family="Helvetica,sans-Serif" font-size="12.00">JKQTMathTextSingleChildNode</text>
</a>
</g>
</g>
<!-- Node1&#45;&gt;Node10 -->
<g id="edge9" class="edge">
<title>Node1&#45;&gt;Node10</title>
<path fill="none" stroke="midnightblue" d="M141.39,-151C155.86,-151 171.22,-151 186.28,-151"/>
<polygon fill="midnightblue" stroke="midnightblue" points="141.02,-147.5 131.02,-151 141.02,-154.5 141.02,-147.5"/>
</g>
<!-- Node18 -->
<g id="node18" class="node">
<title>Node18</title>
<g id="a_node18"><a xlink:href="class_j_k_q_t_math_text_symbol_node.html" target="_top" xlink:title="subclass representing one symbol (e.g. \alpha , \cdot ...) node in the syntax tree">
<polygon fill="none" stroke="black" points="197,-100.5 197,-121.5 372,-121.5 372,-100.5 197,-100.5"/>
<text text-anchor="middle" x="284.5" y="-107.9" font-family="Helvetica,sans-Serif" font-size="12.00">JKQTMathTextSymbolNode</text>
</a>
</g>
</g>
<!-- Node1&#45;&gt;Node18 -->
<g id="edge17" class="edge">
<title>Node1&#45;&gt;Node18</title>
<path fill="none" stroke="midnightblue" d="M128.21,-138.45C141.02,-135.92 154.44,-133.33 167,-131 184.25,-127.8 202.98,-124.51 220.26,-121.54"/>
<polygon fill="midnightblue" stroke="midnightblue" points="127.22,-135.08 118.09,-140.46 128.58,-141.95 127.22,-135.08"/>
</g>
<!-- Node19 -->
<g id="node19" class="node">
<title>Node19</title>
<g id="a_node19"><a xlink:href="class_j_k_q_t_math_text_text_node.html" target="_top" xlink:title="subclass representing one text node in the syntax tree">
<polygon fill="none" stroke="black" points="207,-60.5 207,-81.5 362,-81.5 362,-60.5 207,-60.5"/>
<text text-anchor="middle" x="284.5" y="-67.9" font-family="Helvetica,sans-Serif" font-size="12.00">JKQTMathTextTextNode</text>
</a>
</g>
</g>
<!-- Node1&#45;&gt;Node19 -->
<g id="edge18" class="edge">
<title>Node1&#45;&gt;Node19</title>
<path fill="none" stroke="midnightblue" d="M88.53,-134.58C108.13,-120.79 138.07,-101.69 167,-91 179.61,-86.34 193.39,-82.75 206.92,-80"/>
<polygon fill="midnightblue" stroke="midnightblue" points="86.38,-131.81 80.3,-140.48 90.46,-137.5 86.38,-131.81"/>
</g>
<!-- Node21 -->
<g id="node21" class="node">
<title>Node21</title>
<g id="a_node21"><a xlink:href="class_j_k_q_t_math_text_whitespace_node.html" target="_top" xlink:title="subclass representing one whitepsace node in the syntax tree">
<polygon fill="none" stroke="black" points="184.5,-20.5 184.5,-41.5 384.5,-41.5 384.5,-20.5 184.5,-20.5"/>
<text text-anchor="middle" x="284.5" y="-27.9" font-family="Helvetica,sans-Serif" font-size="12.00">JKQTMathTextWhitespaceNode</text>
</a>
</g>
</g>
<!-- Node1&#45;&gt;Node21 -->
<g id="edge20" class="edge">
<title>Node1&#45;&gt;Node21</title>
<path fill="none" stroke="midnightblue" d="M79.66,-132.1C96.89,-108.95 129.35,-70.43 167,-51 174.39,-47.19 182.35,-44.08 190.53,-41.55"/>
<polygon fill="midnightblue" stroke="midnightblue" points="76.67,-130.27 73.63,-140.42 82.34,-134.38 76.67,-130.27"/>
</g>
<!-- Node4 -->
<g id="node4" class="node">
<title>Node4</title>
<g id="a_node4"><a xlink:href="class_j_k_q_t_math_text_dual_child_node.html" target="_top" xlink:title="subclass representing a node in the syntax tree, that has two children">
<polygon fill="none" stroke="black" points="450.5,-360.5 450.5,-381.5 637.5,-381.5 637.5,-360.5 450.5,-360.5"/>
<text text-anchor="middle" x="544" y="-367.9" font-family="Helvetica,sans-Serif" font-size="12.00">JKQTMathTextDualChildNode</text>
</a>
</g>
</g>
<!-- Node3&#45;&gt;Node4 -->
<g id="edge3" class="edge">
<title>Node3&#45;&gt;Node4</title>
<path fill="none" stroke="midnightblue" d="M388.21,-283.23C393.03,-285.46 397.67,-288.03 402,-291 427.66,-308.56 412.5,-333.2 438,-351 443.4,-354.77 449.33,-357.88 455.52,-360.44"/>
<polygon fill="midnightblue" stroke="midnightblue" points="389.29,-279.89 378.71,-279.36 386.65,-286.38 389.29,-279.89"/>
</g>
<!-- Node6 -->
<g id="node6" class="node">
<title>Node6</title>
<g id="a_node6"><a xlink:href="class_j_k_q_t_math_text_horizontal_list_node.html" target="_top" xlink:title="subclass representing a list of nodes in the syntax tree, layed out horizontally">
<polygon fill="none" stroke="black" points="438,-320.5 438,-341.5 650,-341.5 650,-320.5 438,-320.5"/>
<text text-anchor="middle" x="544" y="-327.9" font-family="Helvetica,sans-Serif" font-size="12.00">JKQTMathTextHorizontalListNode</text>
</a>
</g>
</g>
<!-- Node3&#45;&gt;Node6 -->
<g id="edge5" class="edge">
<title>Node3&#45;&gt;Node6</title>
<path fill="none" stroke="midnightblue" d="M377.66,-283.83C385.99,-285.88 394.21,-288.26 402,-291 419.26,-297.08 420.79,-304.76 438,-311 448.47,-314.79 459.8,-317.91 471.01,-320.45"/>
<polygon fill="midnightblue" stroke="midnightblue" points="378.4,-280.4 367.87,-281.56 376.82,-287.22 378.4,-280.4"/>
</g>
<!-- Node7 -->
<g id="node7" class="node">
<title>Node7</title>
<g id="a_node7"><a xlink:href="class_j_k_q_t_math_text_sqrt_node.html" target="_top" xlink:title="subclass representing a sqrt node">
<polygon fill="none" stroke="black" points="466.5,-280.5 466.5,-301.5 621.5,-301.5 621.5,-280.5 466.5,-280.5"/>
<text text-anchor="middle" x="544" y="-287.9" font-family="Helvetica,sans-Serif" font-size="12.00">JKQTMathTextSqrtNode</text>
</a>
</g>
</g>
<!-- Node3&#45;&gt;Node7 -->
<g id="edge6" class="edge">
<title>Node3&#45;&gt;Node7</title>
<path fill="none" stroke="midnightblue" d="M389.04,-279.04C414.91,-281.05 442.19,-283.17 466.48,-285.06"/>
<polygon fill="midnightblue" stroke="midnightblue" points="389.07,-275.53 378.83,-278.25 388.53,-282.51 389.07,-275.53"/>
</g>
<!-- Node8 -->
<g id="node8" class="node">
<title>Node8</title>
<g id="a_node8"><a xlink:href="class_j_k_q_t_math_text_vertical_list_node.html" target="_top" xlink:title="subclass representing a list of nodes in the syntax tree, layed out vertically">
<polygon fill="none" stroke="black" points="446,-240.5 446,-261.5 642,-261.5 642,-240.5 446,-240.5"/>
<text text-anchor="middle" x="544" y="-247.9" font-family="Helvetica,sans-Serif" font-size="12.00">JKQTMathTextVerticalListNode</text>
</a>
</g>
</g>
<!-- Node3&#45;&gt;Node8 -->
<g id="edge7" class="edge">
<title>Node3&#45;&gt;Node8</title>
<path fill="none" stroke="midnightblue" d="M388.85,-262.97C407.6,-261.52 427.09,-260 445.66,-258.56"/>
<polygon fill="midnightblue" stroke="midnightblue" points="388.53,-259.49 378.83,-263.75 389.07,-266.47 388.53,-259.49"/>
</g>
<!-- Node5 -->
<g id="node5" class="node">
<title>Node5</title>
<g id="a_node5"><a xlink:href="class_j_k_q_t_math_text_frac_node.html" target="_top" xlink:title="subclass representing a \frac node">
<polygon fill="none" stroke="black" points="716,-360.5 716,-381.5 872,-381.5 872,-360.5 716,-360.5"/>
<text text-anchor="middle" x="794" y="-367.9" font-family="Helvetica,sans-Serif" font-size="12.00">JKQTMathTextFracNode</text>
</a>
</g>
</g>
<!-- Node4&#45;&gt;Node5 -->
<g id="edge4" class="edge">
<title>Node4&#45;&gt;Node5</title>
<path fill="none" stroke="midnightblue" d="M647.73,-371C670.51,-371 694.27,-371 715.81,-371"/>
<polygon fill="midnightblue" stroke="midnightblue" points="647.7,-367.5 637.7,-371 647.7,-374.5 647.7,-367.5"/>
</g>
<!-- Node11 -->
<g id="node11" class="node">
<title>Node11</title>
<g id="a_node11"><a xlink:href="class_j_k_q_t_math_text_brace_node.html" target="_top" xlink:title="subclass representing a brace node">
<polygon fill="none" stroke="black" points="461,-200.5 461,-221.5 627,-221.5 627,-200.5 461,-200.5"/>
<text text-anchor="middle" x="544" y="-207.9" font-family="Helvetica,sans-Serif" font-size="12.00">JKQTMathTextBraceNode</text>
</a>
</g>
</g>
<!-- Node10&#45;&gt;Node11 -->
<g id="edge10" class="edge">
<title>Node10&#45;&gt;Node11</title>
<path fill="none" stroke="midnightblue" d="M377.66,-163.83C385.99,-165.88 394.21,-168.26 402,-171 419.26,-177.08 420.79,-184.76 438,-191 448.47,-194.79 459.8,-197.91 471.01,-200.45"/>
<polygon fill="midnightblue" stroke="midnightblue" points="378.4,-160.4 367.87,-161.56 376.82,-167.22 378.4,-160.4"/>
</g>
<!-- Node12 -->
<g id="node12" class="node">
<title>Node12</title>
<g id="a_node12"><a xlink:href="class_j_k_q_t_math_text_decorated_node.html" target="_top" xlink:title="subclass representing a decorated text m (e.g. \vec \hat ...) node">
<polygon fill="none" stroke="black" points="447,-160.5 447,-181.5 641,-181.5 641,-160.5 447,-160.5"/>
<text text-anchor="middle" x="544" y="-167.9" font-family="Helvetica,sans-Serif" font-size="12.00">JKQTMathTextDecoratedNode</text>
</a>
</g>
</g>
<!-- Node10&#45;&gt;Node12 -->
<g id="edge11" class="edge">
<title>Node10&#45;&gt;Node12</title>
<path fill="none" stroke="midnightblue" d="M393.24,-159.37C411.01,-160.75 429.33,-162.17 446.79,-163.53"/>
<polygon fill="midnightblue" stroke="midnightblue" points="393.09,-155.85 382.85,-158.56 392.55,-162.83 393.09,-155.85"/>
</g>
<!-- Node13 -->
<g id="node13" class="node">
<title>Node13</title>
<g id="a_node13"><a xlink:href="class_j_k_q_t_math_text_instruction1_node.html" target="_top" xlink:title="subclass representing an instruction node with exactly one argument and possibly additional parameter...">
<polygon fill="none" stroke="black" points="443,-120.5 443,-141.5 645,-141.5 645,-120.5 443,-120.5"/>
<text text-anchor="middle" x="544" y="-127.9" font-family="Helvetica,sans-Serif" font-size="12.00">JKQTMathTextInstruction1Node</text>
</a>
</g>
</g>
<!-- Node10&#45;&gt;Node13 -->
<g id="edge12" class="edge">
<title>Node10&#45;&gt;Node13</title>
<path fill="none" stroke="midnightblue" d="M393.07,-142.65C409.59,-141.36 426.59,-140.04 442.94,-138.77"/>
<polygon fill="midnightblue" stroke="midnightblue" points="392.55,-139.17 382.85,-143.44 393.09,-146.15 392.55,-139.17"/>
</g>
<!-- Node16 -->
<g id="node16" class="node">
<title>Node16</title>
<g id="a_node16"><a xlink:href="class_j_k_q_t_math_text_subscript_node.html" target="_top" xlink:title="subclass representing an subscript node with exactly one argument in the syntax tree">
<polygon fill="none" stroke="black" points="451,-80.5 451,-101.5 637,-101.5 637,-80.5 451,-80.5"/>
<text text-anchor="middle" x="544" y="-87.9" font-family="Helvetica,sans-Serif" font-size="12.00">JKQTMathTextSubscriptNode</text>
</a>
</g>
</g>
<!-- Node10&#45;&gt;Node16 -->
<g id="edge15" class="edge">
<title>Node10&#45;&gt;Node16</title>
<path fill="none" stroke="midnightblue" d="M377.66,-138.17C385.99,-136.12 394.21,-133.74 402,-131 419.26,-124.92 420.79,-117.24 438,-111 448.47,-107.21 459.8,-104.09 471.01,-101.55"/>
<polygon fill="midnightblue" stroke="midnightblue" points="376.82,-134.78 367.87,-140.44 378.4,-141.6 376.82,-134.78"/>
</g>
<!-- Node17 -->
<g id="node17" class="node">
<title>Node17</title>
<g id="a_node17"><a xlink:href="class_j_k_q_t_math_text_superscript_node.html" target="_top" xlink:title="subclass representing an superscript node with exactly one argument in the syntax tree">
<polygon fill="none" stroke="black" points="444.5,-40.5 444.5,-61.5 643.5,-61.5 643.5,-40.5 444.5,-40.5"/>
<text text-anchor="middle" x="544" y="-47.9" font-family="Helvetica,sans-Serif" font-size="12.00">JKQTMathTextSuperscriptNode</text>
</a>
</g>
</g>
<!-- Node10&#45;&gt;Node17 -->
<g id="edge16" class="edge">
<title>Node10&#45;&gt;Node17</title>
<path fill="none" stroke="midnightblue" d="M391.67,-137.09C395.25,-135.27 398.71,-133.25 402,-131 427.66,-113.44 412.5,-88.8 438,-71 443.4,-67.23 449.33,-64.12 455.52,-61.56"/>
<polygon fill="midnightblue" stroke="midnightblue" points="390.21,-133.91 382.52,-141.21 393.08,-140.3 390.21,-133.91"/>
</g>
<!-- Node14 -->
<g id="node14" class="node">
<title>Node14</title>
<g id="a_node14"><a xlink:href="class_j_k_q_t_math_text_box_instruction_node.html" target="_top" xlink:title="subclass representing an instruction node which draws a (possibly colored) box around it&#39;s contents i...">
<polygon fill="none" stroke="black" points="686,-143.5 686,-164.5 902,-164.5 902,-143.5 686,-143.5"/>
<text text-anchor="middle" x="794" y="-150.9" font-family="Helvetica,sans-Serif" font-size="12.00">JKQTMathTextBoxInstructionNode</text>
</a>
</g>
</g>
<!-- Node13&#45;&gt;Node14 -->
<g id="edge13" class="edge">
<title>Node13&#45;&gt;Node14</title>
<path fill="none" stroke="midnightblue" d="M655.3,-141.23C665.5,-142.18 675.82,-143.13 685.99,-144.08"/>
<polygon fill="midnightblue" stroke="midnightblue" points="655.44,-137.73 645.16,-140.29 654.79,-144.7 655.44,-137.73"/>
</g>
<!-- Node15 -->
<g id="node15" class="node">
<title>Node15</title>
<g id="a_node15"><a xlink:href="class_j_k_q_t_math_text_modified_text_props_instruction_node.html" target="_top" xlink:title="subclass representing an instruction node which modifies the current font (as defined in JKQTMathText...">
<polygon fill="none" stroke="black" points="707,-90 707,-124 881,-124 881,-90 707,-90"/>
<text text-anchor="start" x="715" y="-110.4" font-family="Helvetica,sans-Serif" font-size="12.00">JKQTMathTextModifiedText</text>
<text text-anchor="middle" x="794" y="-97.4" font-family="Helvetica,sans-Serif" font-size="12.00">PropsInstructionNode</text>
</a>
</g>
</g>
<!-- Node13&#45;&gt;Node15 -->
<g id="edge14" class="edge">
<title>Node13&#45;&gt;Node15</title>
<path fill="none" stroke="midnightblue" d="M655.28,-120.33C672.55,-118.66 690.19,-116.95 706.82,-115.34"/>
<polygon fill="midnightblue" stroke="midnightblue" points="654.77,-116.86 645.16,-121.31 655.45,-123.83 654.77,-116.86"/>
</g>
<!-- Node20 -->
<g id="node20" class="node">
<title>Node20</title>
<g id="a_node20"><a xlink:href="class_m_tplain_text_node.html" target="_top" xlink:title="subclass representing one text node in the syntax tree">
<polygon fill="none" stroke="black" points="484.5,-0.5 484.5,-21.5 603.5,-21.5 603.5,-0.5 484.5,-0.5"/>
<text text-anchor="middle" x="544" y="-7.9" font-family="Helvetica,sans-Serif" font-size="12.00">MTplainTextNode</text>
</a>
</g>
</g>
<!-- Node19&#45;&gt;Node20 -->
<g id="edge19" class="edge">
<title>Node19&#45;&gt;Node20</title>
<path fill="none" stroke="midnightblue" d="M372.06,-59.51C382.29,-57.16 392.47,-54.36 402,-51 419.26,-44.92 420.79,-37.24 438,-31 452.66,-25.69 469,-21.71 484.34,-18.76"/>
<polygon fill="midnightblue" stroke="midnightblue" points="371.31,-56.09 362.27,-61.61 372.78,-62.93 371.31,-56.09"/>
</g>
</g>
</svg>
