<?xml version="1.0" encoding="UTF-8" standalone="no"?>
<!DOCTYPE svg PUBLIC "-//W3C//DTD SVG 1.1//EN"
 "http://www.w3.org/Graphics/SVG/1.1/DTD/svg11.dtd">
<!-- Generated by graphviz version 2.43.0 (0)
 -->
<!-- Title: JKQTPGraphsModel Pages: 1 -->
<svg width="2707pt" height="593pt"
 viewBox="0.00 0.00 2707.00 593.38" xmlns="http://www.w3.org/2000/svg" xmlns:xlink="http://www.w3.org/1999/xlink">
<g id="graph0" class="graph" transform="scale(1 1) rotate(0) translate(4 589.38)">
<title>JKQTPGraphsModel</title>
<!-- Node1 -->
<g id="node1" class="node">
<title>Node1</title>
<g id="a_node1"><a xlink:title="data model with all plots ina JKQTBasePlotter (+ allows to switch them visible/invisible)">
<polygon fill="#bfbfbf" stroke="black" points="1751,-343.88 1751,-364.88 1882,-364.88 1882,-343.88 1751,-343.88"/>
<text text-anchor="middle" x="1816.5" y="-351.28" font-family="Helvetica,sans-Serif" font-size="12.00">JKQTPGraphsModel</text>
</a>
</g>
</g>
<!-- Node3 -->
<g id="node3" class="node">
<title>Node3</title>
<g id="a_node3"><a xlink:href="class_j_k_q_t_base_plotter.html" target="_top" xlink:title="base class for 2D plotter classes (used by the plotter widget JKQTPlotter)">
<polygon fill="none" stroke="black" points="2034,-357.88 2034,-378.88 2148,-378.88 2148,-357.88 2034,-357.88"/>
<text text-anchor="middle" x="2091" y="-365.28" font-family="Helvetica,sans-Serif" font-size="12.00">JKQTBasePlotter</text>
</a>
</g>
</g>
<!-- Node1&#45;&gt;Node3 -->
<g id="edge26" class="edge">
<title>Node1&#45;&gt;Node3</title>
<path fill="none" stroke="#9a32cd" stroke-dasharray="5,2" d="M1892.3,-358.22C1936.98,-360.52 1992.81,-363.39 2033.73,-365.49"/>
<polygon fill="#9a32cd" stroke="#9a32cd" points="1892.25,-354.72 1882.08,-357.7 1891.89,-361.71 1892.25,-354.72"/>
<text text-anchor="middle" x="1954.5" y="-366.78" font-family="Helvetica,sans-Serif" font-size="12.00"> m_plotsModel</text>
</g>
<!-- Node2 -->
<g id="node2" class="node">
<title>Node2</title>
<g id="a_node2"><a xlink:title=" ">
<polygon fill="none" stroke="black" points="1403.5,-362.88 1403.5,-383.88 1546.5,-383.88 1546.5,-362.88 1403.5,-362.88"/>
<text text-anchor="middle" x="1475" y="-370.28" font-family="Helvetica,sans-Serif" font-size="12.00">QAbstractTableModel</text>
</a>
</g>
</g>
<!-- Node2&#45;&gt;Node1 -->
<g id="edge1" class="edge">
<title>Node2&#45;&gt;Node1</title>
<path fill="none" stroke="midnightblue" d="M1556.84,-368.86C1616.19,-365.54 1695.72,-361.08 1750.86,-358"/>
<polygon fill="midnightblue" stroke="midnightblue" points="1556.55,-365.37 1546.76,-369.42 1556.94,-372.36 1556.55,-365.37"/>
</g>
<!-- Node3&#45;&gt;Node1 -->
<g id="edge2" class="edge">
<title>Node3&#45;&gt;Node1</title>
<path fill="none" stroke="#9a32cd" stroke-dasharray="5,2" d="M2062.6,-352.93C2045.94,-344.43 2023.9,-334.75 2003,-330.38 1960.8,-321.57 1948.73,-324.69 1906,-330.38 1886.59,-332.97 1865.4,-338.61 1848.62,-343.77"/>
<polygon fill="#9a32cd" stroke="#9a32cd" points="2061.26,-356.18 2071.74,-357.74 2064.52,-349.98 2061.26,-356.18"/>
<text text-anchor="middle" x="1954.5" y="-333.78" font-family="Helvetica,sans-Serif" font-size="12.00"> m_plotter</text>
</g>
<!-- Node3&#45;&gt;Node3 -->
<g id="edge40" class="edge">
<title>Node3&#45;&gt;Node3</title>
<path fill="none" stroke="#9a32cd" stroke-dasharray="5,2" d="M2065.8,-388.44C2067.46,-393.55 2075.86,-397.38 2091,-397.38 2114.64,-397.38 2121.84,-388.03 2112.61,-379.09"/>
<polygon fill="#9a32cd" stroke="#9a32cd" points="2069.08,-389.68 2069.39,-379.09 2062.54,-387.17 2069.08,-389.68"/>
<text text-anchor="middle" x="2091" y="-413.78" font-family="Helvetica,sans-Serif" font-size="12.00"> masterPlotterX</text>
<text text-anchor="middle" x="2091" y="-400.78" font-family="Helvetica,sans-Serif" font-size="12.00">masterPlotterY</text>
</g>
<!-- Node20 -->
<g id="node20" class="node">
<title>Node20</title>
<g id="a_node20"><a xlink:href="class_j_k_q_t_p_coordinate_axis.html" target="_top" xlink:title="this virtual class is the base for any type of coordinate axis, to be drawn by JKQTBasePlotter.">
<polygon fill="none" stroke="black" points="2346.5,-456.88 2346.5,-477.88 2488.5,-477.88 2488.5,-456.88 2346.5,-456.88"/>
<text text-anchor="middle" x="2417.5" y="-464.28" font-family="Helvetica,sans-Serif" font-size="12.00">JKQTPCoordinateAxis</text>
</a>
</g>
</g>
<!-- Node3&#45;&gt;Node20 -->
<g id="edge30" class="edge">
<title>Node3&#45;&gt;Node20</title>
<path fill="none" stroke="#9a32cd" stroke-dasharray="5,2" d="M2110.84,-386.18C2127.45,-400.78 2152.99,-420.73 2179,-431.38 2232.55,-453.3 2297.82,-462.04 2346.37,-465.44"/>
<polygon fill="#9a32cd" stroke="#9a32cd" points="2112.78,-383.21 2103.01,-379.1 2108.09,-388.41 2112.78,-383.21"/>
<text text-anchor="middle" x="2235.5" y="-461.78" font-family="Helvetica,sans-Serif" font-size="12.00"> parent</text>
</g>
<!-- Node4 -->
<g id="node4" class="node">
<title>Node4</title>
<g id="a_node4"><a xlink:title=" ">
<polygon fill="none" stroke="black" points="1442.5,-451.88 1442.5,-472.88 1507.5,-472.88 1507.5,-451.88 1442.5,-451.88"/>
<text text-anchor="middle" x="1475" y="-459.28" font-family="Helvetica,sans-Serif" font-size="12.00">QObject</text>
</a>
</g>
</g>
<!-- Node4&#45;&gt;Node3 -->
<g id="edge3" class="edge">
<title>Node4&#45;&gt;Node3</title>
<path fill="none" stroke="midnightblue" d="M1517.86,-455.97C1625.43,-439.5 1911.65,-395.69 2033.65,-377.01"/>
<polygon fill="midnightblue" stroke="midnightblue" points="1517.07,-452.55 1507.72,-457.53 1518.13,-459.47 1517.07,-452.55"/>
</g>
<!-- Node17 -->
<g id="node17" class="node">
<title>Node17</title>
<g id="a_node17"><a xlink:href="class_j_k_q_t_math_text.html" target="_top" xlink:title="this class parses a mathematical markup string and can then draw the contained text/equation onto a Q...">
<polygon fill="none" stroke="black" points="1767,-451.88 1767,-472.88 1866,-472.88 1866,-451.88 1767,-451.88"/>
<text text-anchor="middle" x="1816.5" y="-459.28" font-family="Helvetica,sans-Serif" font-size="12.00">JKQTMathText</text>
</a>
</g>
</g>
<!-- Node4&#45;&gt;Node17 -->
<g id="edge22" class="edge">
<title>Node4&#45;&gt;Node17</title>
<path fill="none" stroke="midnightblue" d="M1518,-462.38C1581.07,-462.38 1699.96,-462.38 1766.76,-462.38"/>
<polygon fill="midnightblue" stroke="midnightblue" points="1517.63,-458.88 1507.63,-462.38 1517.63,-465.88 1517.63,-458.88"/>
</g>
<!-- Node4&#45;&gt;Node20 -->
<g id="edge29" class="edge">
<title>Node4&#45;&gt;Node20</title>
<path fill="none" stroke="midnightblue" d="M1517.84,-469.3C1624.9,-486.11 1917.51,-526.33 2161,-507.38 2231.95,-501.86 2312.99,-487.84 2364.42,-477.97"/>
<polygon fill="midnightblue" stroke="midnightblue" points="1518.2,-465.81 1507.77,-467.7 1517.1,-472.73 1518.2,-465.81"/>
</g>
<!-- Node5 -->
<g id="node5" class="node">
<title>Node5</title>
<g id="a_node5"><a xlink:href="class_j_k_q_t_base_plotter_style.html" target="_top" xlink:title="Support Class for JKQTBasePlotter, which summarizes all properties that define the visual styling of ...">
<polygon fill="none" stroke="black" points="1745,-268.88 1745,-289.88 1888,-289.88 1888,-268.88 1745,-268.88"/>
<text text-anchor="middle" x="1816.5" y="-276.28" font-family="Helvetica,sans-Serif" font-size="12.00">JKQTBasePlotterStyle</text>
</a>
</g>
</g>
<!-- Node5&#45;&gt;Node3 -->
<g id="edge4" class="edge">
<title>Node5&#45;&gt;Node3</title>
<path fill="none" stroke="#9a32cd" stroke-dasharray="5,2" d="M1898.33,-284.1C1931.65,-288.04 1970.07,-295.25 2003,-308.38 2032.83,-320.27 2062.53,-343.94 2078.34,-357.73"/>
<polygon fill="#9a32cd" stroke="#9a32cd" points="1898.5,-280.59 1888.17,-282.97 1897.73,-287.55 1898.5,-280.59"/>
<text text-anchor="middle" x="1954.5" y="-311.78" font-family="Helvetica,sans-Serif" font-size="12.00"> plotterStyle</text>
</g>
<!-- Node6 -->
<g id="node6" class="node">
<title>Node6</title>
<g id="a_node6"><a xlink:href="class_j_k_q_t_p_key_style.html" target="_top" xlink:title="Support Class for JKQTBasePlotter, which summarizes all properties that define the visual styling of ...">
<polygon fill="none" stroke="black" points="1423,-268.88 1423,-289.88 1527,-289.88 1527,-268.88 1423,-268.88"/>
<text text-anchor="middle" x="1475" y="-276.28" font-family="Helvetica,sans-Serif" font-size="12.00">JKQTPKeyStyle</text>
</a>
</g>
</g>
<!-- Node6&#45;&gt;Node5 -->
<g id="edge5" class="edge">
<title>Node6&#45;&gt;Node5</title>
<path fill="none" stroke="#9a32cd" stroke-dasharray="5,2" d="M1537.39,-279.38C1595.82,-279.38 1683.69,-279.38 1744.97,-279.38"/>
<polygon fill="#9a32cd" stroke="#9a32cd" points="1537.19,-275.88 1527.19,-279.38 1537.19,-282.88 1537.19,-275.88"/>
<text text-anchor="middle" x="1658.5" y="-282.78" font-family="Helvetica,sans-Serif" font-size="12.00"> keyStyle</text>
</g>
<!-- Node7 -->
<g id="node7" class="node">
<title>Node7</title>
<g id="a_node7"><a xlink:href="class_j_k_q_t_p_coordinate_axis_style.html" target="_top" xlink:title="Support Class for JKQTPCoordinateAxis, which summarizes all properties that define the visual styling...">
<polygon fill="none" stroke="black" points="1063,-315.88 1063,-336.88 1234,-336.88 1234,-315.88 1063,-315.88"/>
<text text-anchor="middle" x="1148.5" y="-323.28" font-family="Helvetica,sans-Serif" font-size="12.00">JKQTPCoordinateAxisStyle</text>
</a>
</g>
</g>
<!-- Node7&#45;&gt;Node5 -->
<g id="edge6" class="edge">
<title>Node7&#45;&gt;Node5</title>
<path fill="none" stroke="#9a32cd" stroke-dasharray="5,2" d="M1177.32,-310.91C1219.28,-288.55 1301.96,-248.26 1378,-233.38 1526.22,-204.37 1706.5,-247.63 1780.88,-268.81"/>
<polygon fill="#9a32cd" stroke="#9a32cd" points="1175.42,-307.96 1168.28,-315.79 1178.74,-314.12 1175.42,-307.96"/>
<text text-anchor="middle" x="1475" y="-249.78" font-family="Helvetica,sans-Serif" font-size="12.00"> xAxisStyle</text>
<text text-anchor="middle" x="1475" y="-236.78" font-family="Helvetica,sans-Serif" font-size="12.00">yAxisStyle</text>
</g>
<!-- Node9 -->
<g id="node9" class="node">
<title>Node9</title>
<g id="a_node9"><a xlink:href="class_j_k_q_t_p_colorbar_coordinate_axis_style.html" target="_top" xlink:title="Support Class for JKQTPCoordinateAxis, which summarizes all properties that define the visual styling...">
<polygon fill="none" stroke="black" points="1378,-309.38 1378,-343.38 1572,-343.38 1572,-309.38 1378,-309.38"/>
<text text-anchor="start" x="1386" y="-329.78" font-family="Helvetica,sans-Serif" font-size="12.00">JKQTPColorbarCoordinateAxis</text>
<text text-anchor="middle" x="1475" y="-316.78" font-family="Helvetica,sans-Serif" font-size="12.00">Style</text>
</a>
</g>
</g>
<!-- Node7&#45;&gt;Node9 -->
<g id="edge9" class="edge">
<title>Node7&#45;&gt;Node9</title>
<path fill="none" stroke="midnightblue" d="M1244.56,-326.38C1286.54,-326.38 1335.81,-326.38 1377.91,-326.38"/>
<polygon fill="midnightblue" stroke="midnightblue" points="1244.33,-322.88 1234.33,-326.38 1244.33,-329.88 1244.33,-322.88"/>
</g>
<!-- Node7&#45;&gt;Node20 -->
<g id="edge31" class="edge">
<title>Node7&#45;&gt;Node20</title>
<path fill="none" stroke="#9a32cd" stroke-dasharray="5,2" d="M1161.58,-345.53C1199.72,-403.38 1323.99,-572.38 1474,-572.38 1474,-572.38 1474,-572.38 2092,-572.38 2213.68,-572.38 2349.11,-504.72 2397.8,-478.03"/>
<polygon fill="#9a32cd" stroke="#9a32cd" points="1164.4,-343.44 1156.02,-336.95 1158.52,-347.25 1164.4,-343.44"/>
<text text-anchor="middle" x="1816.5" y="-575.78" font-family="Helvetica,sans-Serif" font-size="12.00"> axisStyle</text>
</g>
<!-- Node8 -->
<g id="node8" class="node">
<title>Node8</title>
<g id="a_node8"><a xlink:href="class_j_k_q_t_p_grid_style.html" target="_top" xlink:title="Support Class for JKQTPCoordinateAxis, and summarizes all properties that define the visual styling o...">
<polygon fill="none" stroke="black" points="698.5,-315.88 698.5,-336.88 805.5,-336.88 805.5,-315.88 698.5,-315.88"/>
<text text-anchor="middle" x="752" y="-323.28" font-family="Helvetica,sans-Serif" font-size="12.00">JKQTPGridStyle</text>
</a>
</g>
</g>
<!-- Node8&#45;&gt;Node7 -->
<g id="edge7" class="edge">
<title>Node8&#45;&gt;Node7</title>
<path fill="none" stroke="#9a32cd" stroke-dasharray="5,2" d="M816.18,-326.38C883.03,-326.38 988.9,-326.38 1062.92,-326.38"/>
<polygon fill="#9a32cd" stroke="#9a32cd" points="815.79,-322.88 805.79,-326.38 815.79,-329.88 815.79,-322.88"/>
<text text-anchor="middle" x="948.5" y="-342.78" font-family="Helvetica,sans-Serif" font-size="12.00"> majorGridStyle</text>
<text text-anchor="middle" x="948.5" y="-329.78" font-family="Helvetica,sans-Serif" font-size="12.00">minorGridStyle</text>
</g>
<!-- Node9&#45;&gt;Node5 -->
<g id="edge8" class="edge">
<title>Node9&#45;&gt;Node5</title>
<path fill="none" stroke="#9a32cd" stroke-dasharray="5,2" d="M1582.19,-315.37C1626.98,-310.3 1679.63,-303.75 1727,-296.38 1739.06,-294.5 1751.98,-292.19 1764.13,-289.89"/>
<polygon fill="#9a32cd" stroke="#9a32cd" points="1581.71,-311.91 1572.17,-316.5 1582.49,-318.86 1581.71,-311.91"/>
<text text-anchor="middle" x="1658.5" y="-331.78" font-family="Helvetica,sans-Serif" font-size="12.00"> rightColorbarAxisStyle</text>
<text text-anchor="middle" x="1658.5" y="-318.78" font-family="Helvetica,sans-Serif" font-size="12.00">topColorbarAxisStyle</text>
</g>
<!-- Node10 -->
<g id="node10" class="node">
<title>Node10</title>
<g id="a_node10"><a xlink:href="class_j_k_q_t_graphs_base_style.html" target="_top" xlink:title="Support Class for JKQTBasePlotter, which summarizes all properties that define the visual styling of ...">
<polygon fill="none" stroke="black" points="1402,-115.88 1402,-136.88 1548,-136.88 1548,-115.88 1402,-115.88"/>
<text text-anchor="middle" x="1475" y="-123.28" font-family="Helvetica,sans-Serif" font-size="12.00">JKQTGraphsBaseStyle</text>
</a>
</g>
</g>
<!-- Node10&#45;&gt;Node5 -->
<g id="edge10" class="edge">
<title>Node10&#45;&gt;Node5</title>
<path fill="none" stroke="#9a32cd" stroke-dasharray="5,2" d="M1558.41,-130.99C1612.37,-138.1 1681.15,-155.48 1727,-197.38 1743.51,-212.47 1729.95,-227.83 1745,-244.38 1754.93,-255.3 1769.03,-263.24 1782.01,-268.76"/>
<polygon fill="#9a32cd" stroke="#9a32cd" points="1558.52,-127.48 1548.17,-129.74 1557.67,-134.43 1558.52,-127.48"/>
<text text-anchor="middle" x="1658.5" y="-200.78" font-family="Helvetica,sans-Serif" font-size="12.00"> graphsStyle</text>
</g>
<!-- Node11 -->
<g id="node11" class="node">
<title>Node11</title>
<g id="a_node11"><a xlink:href="class_j_k_q_t_graphs_specific_style_properties.html" target="_top" xlink:title="Support Class for JKQTBasePlotter, which summarizes all properties that define the visual styling of ...">
<polygon fill="none" stroke="black" points="399,-124.88 399,-145.88 623,-145.88 623,-124.88 399,-124.88"/>
<text text-anchor="middle" x="511" y="-132.28" font-family="Helvetica,sans-Serif" font-size="12.00">JKQTGraphsSpecificStyleProperties</text>
</a>
</g>
</g>
<!-- Node11&#45;&gt;Node10 -->
<g id="edge11" class="edge">
<title>Node11&#45;&gt;Node10</title>
<path fill="none" stroke="#9a32cd" stroke-dasharray="5,2" d="M544.41,-120.6C574.09,-107.4 619.44,-88.1 660,-74.38 906.93,9.12 985.69,14.59 1244,-20.38 1297,-27.56 1311.22,-30.45 1360,-52.38 1399.17,-69.99 1440.26,-99.96 1460.75,-115.82"/>
<polygon fill="#9a32cd" stroke="#9a32cd" points="542.67,-117.54 534.97,-124.82 545.53,-123.93 542.67,-117.54"/>
<text text-anchor="middle" x="948.5" y="-45.78" font-family="Helvetica,sans-Serif" font-size="12.00"> boxplotStyle</text>
<text text-anchor="middle" x="948.5" y="-32.78" font-family="Helvetica,sans-Serif" font-size="12.00">defaultGraphStyle</text>
<text text-anchor="middle" x="948.5" y="-19.78" font-family="Helvetica,sans-Serif" font-size="12.00">filledStyle</text>
</g>
<!-- Node13 -->
<g id="node13" class="node">
<title>Node13</title>
<g id="a_node13"><a xlink:href="class_j_k_q_t_barchart_specific_style_properties.html" target="_top" xlink:title="Support Class for JKQTBasePlotter, which summarizes all properties that define the visual styling of ...">
<polygon fill="none" stroke="black" points="862,-176.38 862,-210.38 1035,-210.38 1035,-176.38 862,-176.38"/>
<text text-anchor="start" x="870" y="-196.78" font-family="Helvetica,sans-Serif" font-size="12.00">JKQTBarchartSpecificStyle</text>
<text text-anchor="middle" x="948.5" y="-183.78" font-family="Helvetica,sans-Serif" font-size="12.00">Properties</text>
</a>
</g>
</g>
<!-- Node11&#45;&gt;Node13 -->
<g id="edge14" class="edge">
<title>Node11&#45;&gt;Node13</title>
<path fill="none" stroke="midnightblue" d="M590.61,-147.41C613.02,-150.75 637.46,-154.29 660,-157.38 727.78,-166.66 804.68,-176.24 861.89,-183.18"/>
<polygon fill="midnightblue" stroke="midnightblue" points="590.89,-143.91 580.48,-145.9 589.85,-150.84 590.89,-143.91"/>
</g>
<!-- Node14 -->
<g id="node14" class="node">
<title>Node14</title>
<g id="a_node14"><a xlink:href="class_j_k_q_t_impulse_specific_style_properties.html" target="_top" xlink:title="Support Class for JKQTBasePlotter, which summarizes all properties that define the visual styling of ...">
<polygon fill="none" stroke="black" points="864.5,-132.38 864.5,-166.38 1032.5,-166.38 1032.5,-132.38 864.5,-132.38"/>
<text text-anchor="start" x="872.5" y="-152.78" font-family="Helvetica,sans-Serif" font-size="12.00">JKQTImpulseSpecificStyle</text>
<text text-anchor="middle" x="948.5" y="-139.78" font-family="Helvetica,sans-Serif" font-size="12.00">Properties</text>
</a>
</g>
</g>
<!-- Node11&#45;&gt;Node14 -->
<g id="edge16" class="edge">
<title>Node11&#45;&gt;Node14</title>
<path fill="none" stroke="midnightblue" d="M633.27,-139.28C706.83,-141.64 798.8,-144.6 864.19,-146.7"/>
<polygon fill="midnightblue" stroke="midnightblue" points="633.13,-135.77 623.02,-138.95 632.9,-142.77 633.13,-135.77"/>
</g>
<!-- Node15 -->
<g id="node15" class="node">
<title>Node15</title>
<g id="a_node15"><a xlink:href="class_j_k_q_t_geometric_specific_style_properties.html" target="_top" xlink:title="Support Class for JKQTBasePlotter, which summarizes all properties that define the visual styling of ...">
<polygon fill="none" stroke="black" points="660,-84.38 660,-118.38 844,-118.38 844,-84.38 660,-84.38"/>
<text text-anchor="start" x="668" y="-104.78" font-family="Helvetica,sans-Serif" font-size="12.00">JKQTGeometricSpecificStyle</text>
<text text-anchor="middle" x="752" y="-91.78" font-family="Helvetica,sans-Serif" font-size="12.00">Properties</text>
</a>
</g>
</g>
<!-- Node11&#45;&gt;Node15 -->
<g id="edge18" class="edge">
<title>Node11&#45;&gt;Node15</title>
<path fill="none" stroke="midnightblue" d="M595.97,-123.44C616.58,-120.5 638.74,-117.35 659.68,-114.37"/>
<polygon fill="midnightblue" stroke="midnightblue" points="595.39,-119.98 585.98,-124.86 596.38,-126.91 595.39,-119.98"/>
</g>
<!-- Node12 -->
<g id="node12" class="node">
<title>Node12</title>
<g id="a_node12"><a xlink:href="struct_j_k_q_t_p_color_derivation_mode.html" target="_top" xlink:title="Specifies how a fill&#45;color is derived from a given color.">
<polygon fill="none" stroke="black" points="0,-124.88 0,-145.88 179,-145.88 179,-124.88 0,-124.88"/>
<text text-anchor="middle" x="89.5" y="-132.28" font-family="Helvetica,sans-Serif" font-size="12.00">JKQTPColorDerivationMode</text>
</a>
</g>
</g>
<!-- Node12&#45;&gt;Node11 -->
<g id="edge12" class="edge">
<title>Node12&#45;&gt;Node11</title>
<path fill="none" stroke="#9a32cd" stroke-dasharray="5,2" d="M189.53,-135.38C252.41,-135.38 333.9,-135.38 398.97,-135.38"/>
<polygon fill="#9a32cd" stroke="#9a32cd" points="189.21,-131.88 179.21,-135.38 189.21,-138.88 189.21,-131.88"/>
<text text-anchor="middle" x="289" y="-190.78" font-family="Helvetica,sans-Serif" font-size="12.00"> errorColorDerivationMode</text>
<text text-anchor="middle" x="289" y="-177.78" font-family="Helvetica,sans-Serif" font-size="12.00">errorFillColorDerivationMode</text>
<text text-anchor="middle" x="289" y="-164.78" font-family="Helvetica,sans-Serif" font-size="12.00">fillColorDerivationMode</text>
<text text-anchor="middle" x="289" y="-151.78" font-family="Helvetica,sans-Serif" font-size="12.00">graphColorDerivationMode</text>
<text text-anchor="middle" x="289" y="-138.78" font-family="Helvetica,sans-Serif" font-size="12.00">symbolFillColorDerivationMode</text>
</g>
<!-- Node13&#45;&gt;Node10 -->
<g id="edge13" class="edge">
<title>Node13&#45;&gt;Node10</title>
<path fill="none" stroke="#9a32cd" stroke-dasharray="5,2" d="M1045.07,-185.42C1128.48,-177.88 1252.63,-165.2 1360,-148.38 1380.91,-145.11 1403.84,-140.82 1423.63,-136.9"/>
<polygon fill="#9a32cd" stroke="#9a32cd" points="1044.75,-181.94 1035.11,-186.32 1045.38,-188.91 1044.75,-181.94"/>
<text text-anchor="middle" x="1148.5" y="-188.78" font-family="Helvetica,sans-Serif" font-size="12.00"> barchartStyle</text>
</g>
<!-- Node14&#45;&gt;Node10 -->
<g id="edge15" class="edge">
<title>Node14&#45;&gt;Node10</title>
<path fill="none" stroke="#9a32cd" stroke-dasharray="5,2" d="M1042.66,-145.3C1145.36,-140.79 1308.38,-133.64 1401.83,-129.55"/>
<polygon fill="#9a32cd" stroke="#9a32cd" points="1042.45,-141.8 1032.61,-145.74 1042.75,-148.8 1042.45,-141.8"/>
<text text-anchor="middle" x="1148.5" y="-148.78" font-family="Helvetica,sans-Serif" font-size="12.00"> impulseStyle</text>
</g>
<!-- Node15&#45;&gt;Node10 -->
<g id="edge17" class="edge">
<title>Node15&#45;&gt;Node10</title>
<path fill="none" stroke="#9a32cd" stroke-dasharray="5,2" d="M854.74,-104.91C1002.5,-110.03 1272.9,-119.41 1401.86,-123.88"/>
<polygon fill="#9a32cd" stroke="#9a32cd" points="854.43,-101.4 844.32,-104.55 854.19,-108.39 854.43,-101.4"/>
<text text-anchor="middle" x="1148.5" y="-121.78" font-family="Helvetica,sans-Serif" font-size="12.00"> geometricStyle</text>
</g>
<!-- Node16 -->
<g id="node16" class="node">
<title>Node16</title>
<g id="a_node16"><a xlink:href="class_j_k_q_t_annotations_specific_style_properties.html" target="_top" xlink:title="Support Class for JKQTBasePlotter, which summarizes all properties that define the visual styling of ...">
<polygon fill="none" stroke="black" points="1053,-30.38 1053,-64.38 1244,-64.38 1244,-30.38 1053,-30.38"/>
<text text-anchor="start" x="1061" y="-50.78" font-family="Helvetica,sans-Serif" font-size="12.00">JKQTAnnotationsSpecificStyle</text>
<text text-anchor="middle" x="1148.5" y="-37.78" font-family="Helvetica,sans-Serif" font-size="12.00">Properties</text>
</a>
</g>
</g>
<!-- Node15&#45;&gt;Node16 -->
<g id="edge20" class="edge">
<title>Node15&#45;&gt;Node16</title>
<path fill="none" stroke="midnightblue" d="M854.07,-87.55C915.27,-79.17 992.83,-68.55 1052.84,-60.34"/>
<polygon fill="midnightblue" stroke="midnightblue" points="853.43,-84.1 844,-88.92 854.38,-91.04 853.43,-84.1"/>
</g>
<!-- Node16&#45;&gt;Node10 -->
<g id="edge19" class="edge">
<title>Node16&#45;&gt;Node10</title>
<path fill="none" stroke="#9a32cd" stroke-dasharray="5,2" d="M1254.25,-54.56C1288.4,-58.55 1326.22,-64.75 1360,-74.38 1395.15,-84.4 1433.26,-103.67 1455.31,-115.72"/>
<polygon fill="#9a32cd" stroke="#9a32cd" points="1254.57,-51.07 1244.24,-53.44 1253.79,-58.03 1254.57,-51.07"/>
<text text-anchor="middle" x="1311" y="-77.78" font-family="Helvetica,sans-Serif" font-size="12.00"> annotationStyle</text>
</g>
<!-- Node17&#45;&gt;Node3 -->
<g id="edge21" class="edge">
<title>Node17&#45;&gt;Node3</title>
<path fill="none" stroke="#9a32cd" stroke-dasharray="5,2" d="M1864.48,-448.95C1902.22,-437.87 1956.41,-421.27 2003,-404.38 2024.67,-396.53 2048.86,-386.4 2066.22,-378.89"/>
<polygon fill="#9a32cd" stroke="#9a32cd" points="1863.4,-445.63 1854.78,-451.79 1865.36,-452.34 1863.4,-445.63"/>
<text text-anchor="middle" x="1954.5" y="-438.78" font-family="Helvetica,sans-Serif" font-size="12.00"> mathText</text>
</g>
<!-- Node18 -->
<g id="node18" class="node">
<title>Node18</title>
<g id="a_node18"><a xlink:href="class_j_k_q_t_math_text_node.html" target="_top" xlink:title="subclass representing one node in the syntax tree">
<polygon fill="none" stroke="black" points="2025.5,-445.88 2025.5,-466.88 2156.5,-466.88 2156.5,-445.88 2025.5,-445.88"/>
<text text-anchor="middle" x="2091" y="-453.28" font-family="Helvetica,sans-Serif" font-size="12.00">JKQTMathTextNode</text>
</a>
</g>
</g>
<!-- Node17&#45;&gt;Node18 -->
<g id="edge24" class="edge">
<title>Node17&#45;&gt;Node18</title>
<path fill="none" stroke="#9a32cd" stroke-dasharray="5,2" d="M1876.36,-460.24C1886.26,-459.92 1896.42,-459.62 1906,-459.38 1945.6,-458.39 1990.01,-457.65 2025.28,-457.16"/>
<polygon fill="#9a32cd" stroke="#9a32cd" points="1876.06,-456.75 1866.18,-460.58 1876.29,-463.75 1876.06,-456.75"/>
<text text-anchor="middle" x="1954.5" y="-462.78" font-family="Helvetica,sans-Serif" font-size="12.00"> parentMathText</text>
</g>
<!-- Node18&#45;&gt;Node17 -->
<g id="edge23" class="edge">
<title>Node18&#45;&gt;Node17</title>
<path fill="none" stroke="#9a32cd" stroke-dasharray="5,2" d="M2042.67,-469.3C2029.89,-472.23 2016,-474.91 2003,-476.38 1960.16,-481.24 1948.98,-479.76 1906,-476.38 1892.97,-475.36 1878.97,-473.5 1866.03,-471.46"/>
<polygon fill="#9a32cd" stroke="#9a32cd" points="2043.72,-472.65 2052.64,-466.92 2042.1,-465.84 2043.72,-472.65"/>
<text text-anchor="middle" x="1954.5" y="-482.78" font-family="Helvetica,sans-Serif" font-size="12.00"> parsedNode</text>
</g>
<!-- Node18&#45;&gt;Node18 -->
<g id="edge25" class="edge">
<title>Node18&#45;&gt;Node18</title>
<path fill="none" stroke="#9a32cd" stroke-dasharray="5,2" d="M2065.8,-476.44C2067.46,-481.55 2075.86,-485.38 2091,-485.38 2114.64,-485.38 2121.84,-476.03 2112.61,-467.09"/>
<polygon fill="#9a32cd" stroke="#9a32cd" points="2069.08,-477.68 2069.39,-467.09 2062.54,-475.17 2069.08,-477.68"/>
<text text-anchor="middle" x="2091" y="-488.78" font-family="Helvetica,sans-Serif" font-size="12.00"> parentNode</text>
</g>
<!-- Node19 -->
<g id="node19" class="node">
<title>Node19</title>
<g id="a_node19"><a xlink:href="class_j_k_q_t_p_horizontal_axis.html" target="_top" xlink:title="implements a horizontal axis, based on JKQTPCoordinateAxis (for most of documentation: see JKQTPCoord...">
<polygon fill="none" stroke="black" points="2562,-387.88 2562,-408.88 2699,-408.88 2699,-387.88 2562,-387.88"/>
<text text-anchor="middle" x="2630.5" y="-395.28" font-family="Helvetica,sans-Serif" font-size="12.00">JKQTPHorizontalAxis</text>
</a>
</g>
</g>
<!-- Node19&#45;&gt;Node3 -->
<g id="edge27" class="edge">
<title>Node19&#45;&gt;Node3</title>
<path fill="none" stroke="#9a32cd" stroke-dasharray="5,2" d="M2558.66,-386.37C2547.42,-384.8 2535.91,-383.39 2525,-382.38 2390.19,-369.93 2230.89,-368.06 2148.18,-368.06"/>
<polygon fill="#9a32cd" stroke="#9a32cd" points="2558.47,-389.87 2568.87,-387.84 2559.47,-382.95 2558.47,-389.87"/>
<text text-anchor="middle" x="2417.5" y="-385.78" font-family="Helvetica,sans-Serif" font-size="12.00"> xAxis</text>
</g>
<!-- Node20&#45;&gt;Node19 -->
<g id="edge28" class="edge">
<title>Node20&#45;&gt;Node19</title>
<path fill="none" stroke="midnightblue" d="M2463.24,-453.86C2482.31,-448.01 2504.79,-440.99 2525,-434.38 2550.17,-426.15 2578.57,-416.33 2599.4,-409.03"/>
<polygon fill="midnightblue" stroke="midnightblue" points="2462.14,-450.53 2453.6,-456.81 2464.19,-457.23 2462.14,-450.53"/>
</g>
<!-- Node21 -->
<g id="node21" class="node">
<title>Node21</title>
<g id="a_node21"><a xlink:href="class_j_k_q_t_p_vertical_axis.html" target="_top" xlink:title="implements a vertical axis, based on JKQTPCoordinateAxis (for most of documentation: see JKQTPCoordin...">
<polygon fill="none" stroke="black" points="2569.5,-431.88 2569.5,-452.88 2691.5,-452.88 2691.5,-431.88 2569.5,-431.88"/>
<text text-anchor="middle" x="2630.5" y="-439.28" font-family="Helvetica,sans-Serif" font-size="12.00">JKQTPVerticalAxis</text>
</a>
</g>
</g>
<!-- Node20&#45;&gt;Node21 -->
<g id="edge33" class="edge">
<title>Node20&#45;&gt;Node21</title>
<path fill="none" stroke="midnightblue" d="M2498.84,-458.62C2513.86,-456.93 2529.41,-455.13 2544,-453.38 2552.17,-452.4 2560.78,-451.33 2569.26,-450.26"/>
<polygon fill="midnightblue" stroke="midnightblue" points="2498.1,-455.18 2488.55,-459.78 2498.88,-462.14 2498.1,-455.18"/>
</g>
<!-- Node21&#45;&gt;Node3 -->
<g id="edge32" class="edge">
<title>Node21&#45;&gt;Node3</title>
<path fill="none" stroke="#9a32cd" stroke-dasharray="5,2" d="M2559.37,-433.64C2470.69,-422.45 2313.36,-402.14 2179,-382.38 2169.01,-380.91 2158.39,-379.27 2148.13,-377.64"/>
<polygon fill="#9a32cd" stroke="#9a32cd" points="2558.95,-437.11 2569.31,-434.89 2559.83,-430.17 2558.95,-437.11"/>
<text text-anchor="middle" x="2417.5" y="-431.78" font-family="Helvetica,sans-Serif" font-size="12.00"> yAxis</text>
</g>
<!-- Node22 -->
<g id="node22" class="node">
<title>Node22</title>
<g id="a_node22"><a xlink:href="class_j_k_q_t_p_datastore.html" target="_top" xlink:title="This class manages data columns (with entries of type double ), used by JKQTPlotter/JKQTBasePlotter t...">
<polygon fill="none" stroke="black" points="1761,-213.88 1761,-234.88 1872,-234.88 1872,-213.88 1761,-213.88"/>
<text text-anchor="middle" x="1816.5" y="-221.28" font-family="Helvetica,sans-Serif" font-size="12.00">JKQTPDatastore</text>
</a>
</g>
</g>
<!-- Node22&#45;&gt;Node3 -->
<g id="edge34" class="edge">
<title>Node22&#45;&gt;Node3</title>
<path fill="none" stroke="#9a32cd" stroke-dasharray="5,2" d="M1882.45,-235.83C1927.45,-244.57 1982.77,-257.14 2003,-269.38 2040.98,-292.35 2071.36,-337.36 2083.85,-357.82"/>
<polygon fill="#9a32cd" stroke="#9a32cd" points="1882.91,-232.36 1872.43,-233.92 1881.6,-239.23 1882.91,-232.36"/>
<text text-anchor="middle" x="1954.5" y="-272.78" font-family="Helvetica,sans-Serif" font-size="12.00"> datastore</text>
</g>
<!-- Node24 -->
<g id="node24" class="node">
<title>Node24</title>
<g id="a_node24"><a xlink:href="class_j_k_q_t_p_column.html" target="_top" xlink:title="internally stores information about one data column. See JKQTPDatastore for more information.">
<polygon fill="none" stroke="black" points="2042,-166.88 2042,-187.88 2140,-187.88 2140,-166.88 2042,-166.88"/>
<text text-anchor="middle" x="2091" y="-174.28" font-family="Helvetica,sans-Serif" font-size="12.00">JKQTPColumn</text>
</a>
</g>
</g>
<!-- Node22&#45;&gt;Node24 -->
<g id="edge37" class="edge">
<title>Node22&#45;&gt;Node24</title>
<path fill="none" stroke="#9a32cd" stroke-dasharray="5,2" d="M1856.66,-210.7C1871.9,-205.84 1889.61,-200.74 1906,-197.38 1951.64,-188.02 2004.61,-182.85 2041.96,-180.12"/>
<polygon fill="#9a32cd" stroke="#9a32cd" points="1855.46,-207.41 1847.04,-213.84 1857.64,-214.07 1855.46,-207.41"/>
<text text-anchor="middle" x="1954.5" y="-200.78" font-family="Helvetica,sans-Serif" font-size="12.00"> datastore</text>
</g>
<!-- Node23 -->
<g id="node23" class="node">
<title>Node23</title>
<g id="a_node23"><a xlink:title=" ">
<polygon fill="none" stroke="black" points="2310,-166.88 2310,-187.88 2525,-187.88 2525,-166.88 2310,-166.88"/>
<text text-anchor="middle" x="2417.5" y="-174.28" font-family="Helvetica,sans-Serif" font-size="12.00">std::unique_ptr&lt; JKQTPColumn &gt;</text>
</a>
</g>
</g>
<!-- Node23&#45;&gt;Node22 -->
<g id="edge35" class="edge">
<title>Node23&#45;&gt;Node22</title>
<path fill="none" stroke="#9a32cd" stroke-dasharray="5,2" d="M2336.11,-189.23C2321.46,-191.14 2306.29,-192.96 2292,-194.38 2140.25,-209.52 1960.4,-218.43 1872.04,-222.22"/>
<polygon fill="#9a32cd" stroke="#9a32cd" points="2336.7,-192.68 2346.15,-187.89 2335.78,-185.74 2336.7,-192.68"/>
<text text-anchor="middle" x="2091" y="-218.78" font-family="Helvetica,sans-Serif" font-size="12.00"> m_invalidColumn</text>
</g>
<!-- Node24&#45;&gt;Node23 -->
<g id="edge36" class="edge">
<title>Node24&#45;&gt;Node23</title>
<path fill="none" stroke="#9a32cd" stroke-dasharray="5,2" d="M2150.25,-177.38C2194.55,-177.38 2256.75,-177.38 2309.89,-177.38"/>
<polygon fill="#9a32cd" stroke="#9a32cd" points="2150.23,-173.88 2140.23,-177.38 2150.23,-180.88 2150.23,-173.88"/>
<text text-anchor="middle" x="2235.5" y="-180.78" font-family="Helvetica,sans-Serif" font-size="12.00"> ptr</text>
</g>
<!-- Node25 -->
<g id="node25" class="node">
<title>Node25</title>
<g id="a_node25"><a xlink:title=" ">
<polygon fill="none" stroke="black" points="2021,-126.88 2021,-147.88 2161,-147.88 2161,-126.88 2021,-126.88"/>
<text text-anchor="middle" x="2091" y="-134.28" font-family="Helvetica,sans-Serif" font-size="12.00">std::unique_ptr&lt; T &gt;</text>
</a>
</g>
</g>
<!-- Node25&#45;&gt;Node23 -->
<g id="edge38" class="edge">
<title>Node25&#45;&gt;Node23</title>
<path fill="none" stroke="orange" stroke-dasharray="5,2" d="M2171.16,-146.09C2207.93,-150.24 2252.22,-155.38 2292,-160.38 2308.02,-162.4 2325.18,-164.67 2341.48,-166.88"/>
<polygon fill="orange" stroke="orange" points="2171.33,-142.59 2161,-144.95 2170.55,-149.55 2171.33,-142.59"/>
<text text-anchor="middle" x="2235.5" y="-163.78" font-family="Helvetica,sans-Serif" font-size="12.00"> &lt; JKQTPColumn &gt;</text>
</g>
<!-- Node26 -->
<g id="node26" class="node">
<title>Node26</title>
<g id="a_node26"><a xlink:title=" ">
<polygon fill="none" stroke="black" points="1802,-126.88 1802,-147.88 1831,-147.88 1831,-126.88 1802,-126.88"/>
<text text-anchor="middle" x="1816.5" y="-134.28" font-family="Helvetica,sans-Serif" font-size="12.00">T</text>
</a>
</g>
</g>
<!-- Node26&#45;&gt;Node25 -->
<g id="edge39" class="edge">
<title>Node26&#45;&gt;Node25</title>
<path fill="none" stroke="#9a32cd" stroke-dasharray="5,2" d="M1841.26,-137.38C1880.88,-137.38 1961.89,-137.38 2020.73,-137.38"/>
<polygon fill="#9a32cd" stroke="#9a32cd" points="1841.01,-133.88 1831.01,-137.38 1841.01,-140.88 1841.01,-133.88"/>
<text text-anchor="middle" x="1954.5" y="-140.78" font-family="Helvetica,sans-Serif" font-size="12.00"> ptr</text>
</g>
</g>
</svg>
