<?xml version="1.0" encoding="UTF-8" standalone="no"?>
<!DOCTYPE svg PUBLIC "-//W3C//DTD SVG 1.1//EN"
 "http://www.w3.org/Graphics/SVG/1.1/DTD/svg11.dtd">
<!-- Generated by graphviz version 2.43.0 (0)
 -->
<!-- Title: JKQTPMathImage Pages: 1 -->
<!--zoomable 646 -->
<svg id="main" version="1.1" xmlns="http://www.w3.org/2000/svg" xmlns:xlink="http://www.w3.org/1999/xlink" xml:space="preserve" onload="init(evt)">
<style type="text/css"><![CDATA[
.edge:hover path { stroke: red; }
.edge:hover polygon { stroke: red; fill: red; }
]]></style>
<script type="text/javascript"><![CDATA[
var edges = document.getElementsByTagName('g');
if (edges && edges.length) {
  for (var i=0;i<edges.length;i++) {
    if (edges[i].id.substr(0,4)=='edge') {
      edges[i].setAttribute('class','edge');
    }
  }
}
]]></script>
        <defs>
                <circle id="rim" cx="0" cy="0" r="7"/>
                <circle id="rim2" cx="0" cy="0" r="3.5"/>
                <g id="zoomPlus">
                        <use xlink:href="#rim" fill="#404040">
                                <set attributeName="fill" to="#808080" begin="zoomplus.mouseover" end="zoomplus.mouseout"/>
                        </use>
                        <path d="M-4,0h8M0,-4v8" fill="none" stroke="white" stroke-width="1.5" pointer-events="none"/>
                </g>
                <g id="zoomMin">
                        <use xlink:href="#rim" fill="#404040">
                                <set attributeName="fill" to="#808080" begin="zoomminus.mouseover" end="zoomminus.mouseout"/>
                        </use>
                        <path d="M-4,0h8" fill="none" stroke="white" stroke-width="1.5" pointer-events="none"/>
                </g>
                <g id="dirArrow">
                        <path fill="none" stroke="white" stroke-width="1.5" d="M0,-3.0v7 M-2.5,-0.5L0,-3.0L2.5,-0.5"/>
                </g>
               <g id="resetDef">
                       <use xlink:href="#rim2" fill="#404040">
                               <set attributeName="fill" to="#808080" begin="reset.mouseover" end="reset.mouseout"/>
                       </use>
               </g>
        </defs>

<script type="text/javascript">
var viewWidth = 3828;
var viewHeight = 646;
var sectionId = 'dynsection-1';
</script>
<script xlink:href="svgpan.js"/>
<svg id="graph" class="graph">
<g id="viewport">
<title>JKQTPMathImage</title>
<!-- Node1 -->
<g id="node1" class="node">
<title>Node1</title>
<g id="a_node1"><a xlink:title="class to plot an image from an 2&#45;dimensional array of values">
<polygon fill="#bfbfbf" stroke="black" points="3699,-411 3699,-432 3820,-432 3820,-411 3699,-411"/>
<text text-anchor="middle" x="3759.5" y="-418.4" font-family="Helvetica,sans-Serif" font-size="12.00">JKQTPMathImage</text>
</a>
</g>
</g>
<!-- Node2 -->
<g id="node2" class="node">
<title>Node2</title>
<g id="a_node2"><a xlink:href="class_j_k_q_t_p_math_image_base.html" target="_top" xlink:title="base class to hold an image from an 2&#45;dimensional array of values">
<polygon fill="none" stroke="black" points="3294,-370 3294,-391 3444,-391 3444,-370 3294,-370"/>
<text text-anchor="middle" x="3369" y="-377.4" font-family="Helvetica,sans-Serif" font-size="12.00">JKQTPMathImageBase</text>
</a>
</g>
</g>
<!-- Node2&#45;&gt;Node1 -->
<g id="edge1" class="edge">
<title>Node2&#45;&gt;Node1</title>
<path fill="none" stroke="midnightblue" d="M3454.65,-389.43C3528.46,-397.22 3633.66,-408.33 3698.93,-415.21"/>
<polygon fill="midnightblue" stroke="midnightblue" points="3454.76,-385.93 3444.45,-388.36 3454.02,-392.89 3454.76,-385.93"/>
</g>
<!-- Node3 -->
<g id="node3" class="node">
<title>Node3</title>
<g id="a_node3"><a xlink:href="class_j_k_q_t_p_image_base.html" target="_top" xlink:title="base class for plotting an image">
<polygon fill="none" stroke="black" points="2785.5,-368 2785.5,-389 2905.5,-389 2905.5,-368 2785.5,-368"/>
<text text-anchor="middle" x="2845.5" y="-375.4" font-family="Helvetica,sans-Serif" font-size="12.00">JKQTPImageBase</text>
</a>
</g>
</g>
<!-- Node3&#45;&gt;Node2 -->
<g id="edge2" class="edge">
<title>Node3&#45;&gt;Node2</title>
<path fill="none" stroke="midnightblue" d="M2915.67,-378.77C3013.79,-379.14 3192.65,-379.83 3293.57,-380.21"/>
<polygon fill="midnightblue" stroke="midnightblue" points="2915.58,-375.26 2905.56,-378.73 2915.55,-382.26 2915.58,-375.26"/>
</g>
<!-- Node4 -->
<g id="node4" class="node">
<title>Node4</title>
<g id="a_node4"><a xlink:href="class_j_k_q_t_p_graph.html" target="_top" xlink:title="this virtual base class of the (data&#45;column based) graphs, which are part of a JKQTPlotter plot and w...">
<polygon fill="none" stroke="black" points="2589,-374 2589,-395 2678,-395 2678,-374 2589,-374"/>
<text text-anchor="middle" x="2633.5" y="-381.4" font-family="Helvetica,sans-Serif" font-size="12.00">JKQTPGraph</text>
</a>
</g>
</g>
<!-- Node4&#45;&gt;Node3 -->
<g id="edge3" class="edge">
<title>Node4&#45;&gt;Node3</title>
<path fill="none" stroke="midnightblue" d="M2688.17,-382.97C2717.79,-382.12 2754.63,-381.07 2785.12,-380.2"/>
<polygon fill="midnightblue" stroke="midnightblue" points="2687.91,-379.47 2678.01,-383.26 2688.11,-386.47 2687.91,-379.47"/>
</g>
<!-- Node5 -->
<g id="node5" class="node">
<title>Node5</title>
<g id="a_node5"><a xlink:href="class_j_k_q_t_p_plot_element.html" target="_top" xlink:title="this virtual base class of every element, which is part of a JKQTPlotter plot and may appear in its k...">
<polygon fill="none" stroke="black" points="2358,-375 2358,-396 2483,-396 2483,-375 2358,-375"/>
<text text-anchor="middle" x="2420.5" y="-382.4" font-family="Helvetica,sans-Serif" font-size="12.00">JKQTPPlotElement</text>
</a>
</g>
</g>
<!-- Node5&#45;&gt;Node4 -->
<g id="edge4" class="edge">
<title>Node5&#45;&gt;Node4</title>
<path fill="none" stroke="midnightblue" d="M2493.23,-385.16C2525,-385.01 2561.34,-384.84 2588.92,-384.71"/>
<polygon fill="midnightblue" stroke="midnightblue" points="2493.08,-381.66 2483.1,-385.21 2493.11,-388.66 2493.08,-381.66"/>
</g>
<!-- Node6 -->
<g id="node6" class="node">
<title>Node6</title>
<g id="a_node6"><a xlink:title=" ">
<polygon fill="none" stroke="black" points="1442.5,-412 1442.5,-433 1507.5,-433 1507.5,-412 1442.5,-412"/>
<text text-anchor="middle" x="1475" y="-419.4" font-family="Helvetica,sans-Serif" font-size="12.00">QObject</text>
</a>
</g>
</g>
<!-- Node6&#45;&gt;Node5 -->
<g id="edge5" class="edge">
<title>Node6&#45;&gt;Node5</title>
<path fill="none" stroke="midnightblue" d="M1517.76,-414.3C1626.56,-393.49 1927.99,-339.44 2182,-327.5 2232.17,-325.14 2252.56,-300.64 2295,-327.5 2310.79,-337.49 2298.2,-354.09 2313,-365.5 2325.81,-375.38 2342.03,-380.88 2357.93,-383.83"/>
<polygon fill="midnightblue" stroke="midnightblue" points="1517,-410.88 1507.84,-416.2 1518.32,-417.75 1517,-410.88"/>
</g>
<!-- Node7 -->
<g id="node7" class="node">
<title>Node7</title>
<g id="a_node7"><a xlink:href="class_j_k_q_t_base_plotter.html" target="_top" xlink:title="base class for 2D plotter classes (used by the plotter widget JKQTPlotter)">
<polygon fill="none" stroke="black" points="2035.5,-408 2035.5,-429 2149.5,-429 2149.5,-408 2035.5,-408"/>
<text text-anchor="middle" x="2092.5" y="-415.4" font-family="Helvetica,sans-Serif" font-size="12.00">JKQTBasePlotter</text>
</a>
</g>
</g>
<!-- Node6&#45;&gt;Node7 -->
<g id="edge7" class="edge">
<title>Node6&#45;&gt;Node7</title>
<path fill="none" stroke="midnightblue" d="M1517.97,-422.23C1625.96,-421.53 1913.46,-419.66 2035.48,-418.86"/>
<polygon fill="midnightblue" stroke="midnightblue" points="1517.77,-418.73 1507.8,-422.29 1517.82,-425.73 1517.77,-418.73"/>
</g>
<!-- Node20 -->
<g id="node20" class="node">
<title>Node20</title>
<g id="a_node20"><a xlink:href="class_j_k_q_t_math_text.html" target="_top" xlink:title="this class parses a mathematical markup string and can then draw the contained text/equation onto a Q...">
<polygon fill="none" stroke="black" points="1767,-452 1767,-473 1866,-473 1866,-452 1767,-452"/>
<text text-anchor="middle" x="1816.5" y="-459.4" font-family="Helvetica,sans-Serif" font-size="12.00">JKQTMathText</text>
</a>
</g>
</g>
<!-- Node6&#45;&gt;Node20 -->
<g id="edge26" class="edge">
<title>Node6&#45;&gt;Node20</title>
<path fill="none" stroke="midnightblue" d="M1517.61,-427.4C1580.58,-434.82 1699.82,-448.87 1766.76,-456.76"/>
<polygon fill="midnightblue" stroke="midnightblue" points="1517.98,-423.92 1507.63,-426.23 1517.16,-430.87 1517.98,-423.92"/>
</g>
<!-- Node25 -->
<g id="node25" class="node">
<title>Node25</title>
<g id="a_node25"><a xlink:href="class_j_k_q_t_p_coordinate_axis.html" target="_top" xlink:title="this virtual class is the base for any type of coordinate axis, to be drawn by JKQTBasePlotter.">
<polygon fill="none" stroke="black" points="2349.5,-568 2349.5,-589 2491.5,-589 2491.5,-568 2349.5,-568"/>
<text text-anchor="middle" x="2420.5" y="-575.4" font-family="Helvetica,sans-Serif" font-size="12.00">JKQTPCoordinateAxis</text>
</a>
</g>
</g>
<!-- Node6&#45;&gt;Node25 -->
<g id="edge35" class="edge">
<title>Node6&#45;&gt;Node25</title>
<path fill="none" stroke="midnightblue" d="M1517.55,-436.09C1539.06,-442.92 1565.82,-451.08 1590,-457.5 1779.77,-507.91 1826.62,-526.77 2021,-554.5 2091.97,-564.63 2110.44,-560.17 2182,-564.5 2238.28,-567.91 2302.06,-571.66 2349.35,-574.42"/>
<polygon fill="midnightblue" stroke="midnightblue" points="1518.34,-432.67 1507.75,-432.96 1516.21,-439.34 1518.34,-432.67"/>
</g>
<!-- Node7&#45;&gt;Node5 -->
<g id="edge6" class="edge">
<title>Node7&#45;&gt;Node5</title>
<path fill="none" stroke="#9a32cd" stroke-dasharray="5,2" d="M2159.69,-411.8C2217.66,-405.93 2301.23,-397.47 2357.81,-391.74"/>
<polygon fill="#9a32cd" stroke="#9a32cd" points="2159.14,-408.34 2149.54,-412.83 2159.84,-415.3 2159.14,-408.34"/>
<text text-anchor="middle" x="2238.5" y="-411.9" font-family="Helvetica,sans-Serif" font-size="12.00"> parent</text>
</g>
<!-- Node7&#45;&gt;Node7 -->
<g id="edge46" class="edge">
<title>Node7&#45;&gt;Node7</title>
<path fill="none" stroke="#9a32cd" stroke-dasharray="5,2" d="M2066.93,-438.56C2068.61,-443.66 2077.13,-447.5 2092.5,-447.5 2116.49,-447.5 2123.8,-438.15 2114.43,-429.21"/>
<polygon fill="#9a32cd" stroke="#9a32cd" points="2070.21,-439.8 2070.57,-429.21 2063.68,-437.26 2070.21,-439.8"/>
<text text-anchor="middle" x="2092.5" y="-463.9" font-family="Helvetica,sans-Serif" font-size="12.00"> masterPlotterX</text>
<text text-anchor="middle" x="2092.5" y="-450.9" font-family="Helvetica,sans-Serif" font-size="12.00">masterPlotterY</text>
</g>
<!-- Node22 -->
<g id="node22" class="node">
<title>Node22</title>
<g id="a_node22"><a xlink:href="class_j_k_q_t_p_graphs_model.html" target="_top" xlink:title="data model with all plots ina JKQTBasePlotter (+ allows to switch them visible/invisible)">
<polygon fill="none" stroke="black" points="2355,-335 2355,-356 2486,-356 2486,-335 2355,-335"/>
<text text-anchor="middle" x="2420.5" y="-342.4" font-family="Helvetica,sans-Serif" font-size="12.00">JKQTPGraphsModel</text>
</a>
</g>
</g>
<!-- Node7&#45;&gt;Node22 -->
<g id="edge32" class="edge">
<title>Node7&#45;&gt;Node22</title>
<path fill="none" stroke="#9a32cd" stroke-dasharray="5,2" d="M2108.41,-400.14C2124.4,-382.03 2151.63,-355.52 2182,-344.5 2242.08,-322.69 2316.47,-327.66 2365.82,-334.97"/>
<polygon fill="#9a32cd" stroke="#9a32cd" points="2105.71,-397.9 2101.88,-407.78 2111.03,-402.45 2105.71,-397.9"/>
<text text-anchor="middle" x="2238.5" y="-347.9" font-family="Helvetica,sans-Serif" font-size="12.00"> m_plotter</text>
</g>
<!-- Node7&#45;&gt;Node25 -->
<g id="edge36" class="edge">
<title>Node7&#45;&gt;Node25</title>
<path fill="none" stroke="#9a32cd" stroke-dasharray="5,2" d="M2116.47,-435.26C2131.63,-447.29 2151.01,-464.65 2164,-483.5 2176.22,-501.24 2165.46,-514.7 2182,-528.5 2221.35,-561.34 2244.84,-540.96 2295,-551.5 2320.32,-556.82 2348.51,-562.92 2371.64,-567.97"/>
<polygon fill="#9a32cd" stroke="#9a32cd" points="2118.61,-432.49 2108.56,-429.15 2114.34,-438.03 2118.61,-432.49"/>
<text text-anchor="middle" x="2238.5" y="-554.9" font-family="Helvetica,sans-Serif" font-size="12.00"> parent</text>
</g>
<!-- Node33 -->
<g id="node33" class="node">
<title>Node33</title>
<g id="a_node33"><a xlink:href="class_j_k_q_t_p_color_palette_style_and_tools_mixin.html" target="_top" xlink:title="if a class is derived from this class, it may use color bars">
<polygon fill="none" stroke="black" points="3098,-455.5 3098,-489.5 3276,-489.5 3276,-455.5 3098,-455.5"/>
<text text-anchor="start" x="3106" y="-475.9" font-family="Helvetica,sans-Serif" font-size="12.00">JKQTPColorPaletteStyleAnd</text>
<text text-anchor="middle" x="3187" y="-462.9" font-family="Helvetica,sans-Serif" font-size="12.00">ToolsMixin</text>
</a>
</g>
</g>
<!-- Node7&#45;&gt;Node33 -->
<g id="edge49" class="edge">
<title>Node7&#45;&gt;Node33</title>
<path fill="none" stroke="#9a32cd" stroke-dasharray="5,2" d="M2159.65,-423.97C2247.75,-430.77 2408.48,-441.5 2546,-441.5 2546,-441.5 2546,-441.5 2846.5,-441.5 2932.17,-441.5 3029.5,-451.41 3097.92,-460.03"/>
<polygon fill="#9a32cd" stroke="#9a32cd" points="2159.78,-420.47 2149.54,-423.18 2159.23,-427.45 2159.78,-420.47"/>
<text text-anchor="middle" x="2633.5" y="-444.9" font-family="Helvetica,sans-Serif" font-size="12.00"> cbParent</text>
</g>
<!-- Node8 -->
<g id="node8" class="node">
<title>Node8</title>
<g id="a_node8"><a xlink:href="class_j_k_q_t_base_plotter_style.html" target="_top" xlink:title="Support Class for JKQTBasePlotter, which summarizes all properties that define the visual styling of ...">
<polygon fill="none" stroke="black" points="1745,-268 1745,-289 1888,-289 1888,-268 1745,-268"/>
<text text-anchor="middle" x="1816.5" y="-275.4" font-family="Helvetica,sans-Serif" font-size="12.00">JKQTBasePlotterStyle</text>
</a>
</g>
</g>
<!-- Node8&#45;&gt;Node7 -->
<g id="edge8" class="edge">
<title>Node8&#45;&gt;Node7</title>
<path fill="none" stroke="#9a32cd" stroke-dasharray="5,2" d="M1847.12,-293.63C1902.94,-322.15 2022.43,-383.21 2070.67,-407.86"/>
<polygon fill="#9a32cd" stroke="#9a32cd" points="1848.59,-290.46 1838.09,-289.02 1845.41,-296.69 1848.59,-290.46"/>
<text text-anchor="middle" x="1954.5" y="-375.9" font-family="Helvetica,sans-Serif" font-size="12.00"> plotterStyle</text>
</g>
<!-- Node9 -->
<g id="node9" class="node">
<title>Node9</title>
<g id="a_node9"><a xlink:href="class_j_k_q_t_p_key_style.html" target="_top" xlink:title="Support Class for JKQTBasePlotter, which summarizes all properties that define the visual styling of ...">
<polygon fill="none" stroke="black" points="1423,-331 1423,-352 1527,-352 1527,-331 1423,-331"/>
<text text-anchor="middle" x="1475" y="-338.4" font-family="Helvetica,sans-Serif" font-size="12.00">JKQTPKeyStyle</text>
</a>
</g>
</g>
<!-- Node9&#45;&gt;Node8 -->
<g id="edge9" class="edge">
<title>Node9&#45;&gt;Node8</title>
<path fill="none" stroke="#9a32cd" stroke-dasharray="5,2" d="M1537.25,-333.81C1599.61,-325.79 1691.95,-313.31 1727,-305.5 1746.6,-301.13 1768.16,-294.59 1785.09,-289.04"/>
<polygon fill="#9a32cd" stroke="#9a32cd" points="1536.61,-330.37 1527.13,-335.11 1537.5,-337.31 1536.61,-330.37"/>
<text text-anchor="middle" x="1658.5" y="-328.9" font-family="Helvetica,sans-Serif" font-size="12.00"> keyStyle</text>
</g>
<!-- Node10 -->
<g id="node10" class="node">
<title>Node10</title>
<g id="a_node10"><a xlink:href="class_j_k_q_t_p_coordinate_axis_style.html" target="_top" xlink:title="Support Class for JKQTPCoordinateAxis, which summarizes all properties that define the visual styling...">
<polygon fill="none" stroke="black" points="1063,-284 1063,-305 1234,-305 1234,-284 1063,-284"/>
<text text-anchor="middle" x="1148.5" y="-291.4" font-family="Helvetica,sans-Serif" font-size="12.00">JKQTPCoordinateAxisStyle</text>
</a>
</g>
</g>
<!-- Node10&#45;&gt;Node8 -->
<g id="edge10" class="edge">
<title>Node10&#45;&gt;Node8</title>
<path fill="none" stroke="#9a32cd" stroke-dasharray="5,2" d="M1194.59,-281.09C1240.31,-268.24 1313.35,-249.76 1378,-242.5 1517.73,-226.8 1683.3,-252.43 1764.88,-267.97"/>
<polygon fill="#9a32cd" stroke="#9a32cd" points="1193.36,-277.8 1184.7,-283.9 1195.27,-284.53 1193.36,-277.8"/>
<text text-anchor="middle" x="1475" y="-258.9" font-family="Helvetica,sans-Serif" font-size="12.00"> xAxisStyle</text>
<text text-anchor="middle" x="1475" y="-245.9" font-family="Helvetica,sans-Serif" font-size="12.00">yAxisStyle</text>
</g>
<!-- Node12 -->
<g id="node12" class="node">
<title>Node12</title>
<g id="a_node12"><a xlink:href="class_j_k_q_t_p_colorbar_coordinate_axis_style.html" target="_top" xlink:title="Support Class for JKQTPCoordinateAxis, which summarizes all properties that define the visual styling...">
<polygon fill="none" stroke="black" points="1378,-277.5 1378,-311.5 1572,-311.5 1572,-277.5 1378,-277.5"/>
<text text-anchor="start" x="1386" y="-297.9" font-family="Helvetica,sans-Serif" font-size="12.00">JKQTPColorbarCoordinateAxis</text>
<text text-anchor="middle" x="1475" y="-284.9" font-family="Helvetica,sans-Serif" font-size="12.00">Style</text>
</a>
</g>
</g>
<!-- Node10&#45;&gt;Node12 -->
<g id="edge13" class="edge">
<title>Node10&#45;&gt;Node12</title>
<path fill="none" stroke="midnightblue" d="M1244.56,-294.5C1286.54,-294.5 1335.81,-294.5 1377.91,-294.5"/>
<polygon fill="midnightblue" stroke="midnightblue" points="1244.33,-291 1234.33,-294.5 1244.33,-298 1244.33,-291"/>
</g>
<!-- Node10&#45;&gt;Node25 -->
<g id="edge37" class="edge">
<title>Node10&#45;&gt;Node25</title>
<path fill="none" stroke="#9a32cd" stroke-dasharray="5,2" d="M1157.52,-314.8C1187.36,-386.64 1299.36,-624.5 1474,-624.5 1474,-624.5 1474,-624.5 2093.5,-624.5 2194.38,-624.5 2311.12,-602.63 2373.9,-589.05"/>
<polygon fill="#9a32cd" stroke="#9a32cd" points="1160.58,-313.05 1153.57,-305.11 1154.1,-315.69 1160.58,-313.05"/>
<text text-anchor="middle" x="1816.5" y="-627.9" font-family="Helvetica,sans-Serif" font-size="12.00"> axisStyle</text>
</g>
<!-- Node11 -->
<g id="node11" class="node">
<title>Node11</title>
<g id="a_node11"><a xlink:href="class_j_k_q_t_p_grid_style.html" target="_top" xlink:title="Support Class for JKQTPCoordinateAxis, and summarizes all properties that define the visual styling o...">
<polygon fill="none" stroke="black" points="698.5,-284 698.5,-305 805.5,-305 805.5,-284 698.5,-284"/>
<text text-anchor="middle" x="752" y="-291.4" font-family="Helvetica,sans-Serif" font-size="12.00">JKQTPGridStyle</text>
</a>
</g>
</g>
<!-- Node11&#45;&gt;Node10 -->
<g id="edge11" class="edge">
<title>Node11&#45;&gt;Node10</title>
<path fill="none" stroke="#9a32cd" stroke-dasharray="5,2" d="M816.18,-294.5C883.03,-294.5 988.9,-294.5 1062.92,-294.5"/>
<polygon fill="#9a32cd" stroke="#9a32cd" points="815.79,-291 805.79,-294.5 815.79,-298 815.79,-291"/>
<text text-anchor="middle" x="948.5" y="-310.9" font-family="Helvetica,sans-Serif" font-size="12.00"> majorGridStyle</text>
<text text-anchor="middle" x="948.5" y="-297.9" font-family="Helvetica,sans-Serif" font-size="12.00">minorGridStyle</text>
</g>
<!-- Node12&#45;&gt;Node8 -->
<g id="edge12" class="edge">
<title>Node12&#45;&gt;Node8</title>
<path fill="none" stroke="#9a32cd" stroke-dasharray="5,2" d="M1582.21,-280.08C1584.83,-279.87 1587.43,-279.67 1590,-279.5 1641.75,-275.99 1700.34,-275.85 1744.83,-276.53"/>
<polygon fill="#9a32cd" stroke="#9a32cd" points="1581.66,-276.62 1572.01,-280.99 1582.28,-283.59 1581.66,-276.62"/>
<text text-anchor="middle" x="1658.5" y="-295.9" font-family="Helvetica,sans-Serif" font-size="12.00"> rightColorbarAxisStyle</text>
<text text-anchor="middle" x="1658.5" y="-282.9" font-family="Helvetica,sans-Serif" font-size="12.00">topColorbarAxisStyle</text>
</g>
<!-- Node13 -->
<g id="node13" class="node">
<title>Node13</title>
<g id="a_node13"><a xlink:href="class_j_k_q_t_graphs_base_style.html" target="_top" xlink:title="Support Class for JKQTBasePlotter, which summarizes all properties that define the visual styling of ...">
<polygon fill="none" stroke="black" points="1402,-134 1402,-155 1548,-155 1548,-134 1402,-134"/>
<text text-anchor="middle" x="1475" y="-141.4" font-family="Helvetica,sans-Serif" font-size="12.00">JKQTGraphsBaseStyle</text>
</a>
</g>
</g>
<!-- Node13&#45;&gt;Node8 -->
<g id="edge14" class="edge">
<title>Node13&#45;&gt;Node8</title>
<path fill="none" stroke="#9a32cd" stroke-dasharray="5,2" d="M1558.43,-144.87C1612.57,-149.39 1681.54,-163.91 1727,-205.5 1745.36,-222.29 1726.97,-241.36 1745,-258.5 1748.97,-262.27 1753.59,-265.34 1758.54,-267.83"/>
<polygon fill="#9a32cd" stroke="#9a32cd" points="1558.39,-141.36 1548.16,-144.11 1557.88,-148.34 1558.39,-141.36"/>
<text text-anchor="middle" x="1658.5" y="-208.9" font-family="Helvetica,sans-Serif" font-size="12.00"> graphsStyle</text>
</g>
<!-- Node14 -->
<g id="node14" class="node">
<title>Node14</title>
<g id="a_node14"><a xlink:href="class_j_k_q_t_graphs_specific_style_properties.html" target="_top" xlink:title="Support Class for JKQTBasePlotter, which summarizes all properties that define the visual styling of ...">
<polygon fill="none" stroke="black" points="399,-60 399,-81 623,-81 623,-60 399,-60"/>
<text text-anchor="middle" x="511" y="-67.4" font-family="Helvetica,sans-Serif" font-size="12.00">JKQTGraphsSpecificStyleProperties</text>
</a>
</g>
</g>
<!-- Node14&#45;&gt;Node13 -->
<g id="edge15" class="edge">
<title>Node14&#45;&gt;Node13</title>
<path fill="none" stroke="#9a32cd" stroke-dasharray="5,2" d="M633.41,-59.68C779.53,-49.41 1031.72,-40.45 1244,-77.5 1318.16,-90.44 1402.43,-118.58 1445.44,-133.95"/>
<polygon fill="#9a32cd" stroke="#9a32cd" points="632.8,-56.22 623.08,-60.42 633.3,-63.2 632.8,-56.22"/>
<text text-anchor="middle" x="948.5" y="-84.9" font-family="Helvetica,sans-Serif" font-size="12.00"> boxplotStyle</text>
<text text-anchor="middle" x="948.5" y="-71.9" font-family="Helvetica,sans-Serif" font-size="12.00">defaultGraphStyle</text>
<text text-anchor="middle" x="948.5" y="-58.9" font-family="Helvetica,sans-Serif" font-size="12.00">filledStyle</text>
</g>
<!-- Node16 -->
<g id="node16" class="node">
<title>Node16</title>
<g id="a_node16"><a xlink:href="class_j_k_q_t_barchart_specific_style_properties.html" target="_top" xlink:title="Support Class for JKQTBasePlotter, which summarizes all properties that define the visual styling of ...">
<polygon fill="none" stroke="black" points="862,-0.5 862,-34.5 1035,-34.5 1035,-0.5 862,-0.5"/>
<text text-anchor="start" x="870" y="-20.9" font-family="Helvetica,sans-Serif" font-size="12.00">JKQTBarchartSpecificStyle</text>
<text text-anchor="middle" x="948.5" y="-7.9" font-family="Helvetica,sans-Serif" font-size="12.00">Properties</text>
</a>
</g>
</g>
<!-- Node14&#45;&gt;Node16 -->
<g id="edge18" class="edge">
<title>Node14&#45;&gt;Node16</title>
<path fill="none" stroke="midnightblue" d="M567.55,-57.9C590.23,-53.12 616.77,-48 641,-44.5 715.28,-33.78 800.35,-26.69 861.99,-22.48"/>
<polygon fill="midnightblue" stroke="midnightblue" points="566.81,-54.48 557.76,-59.99 568.27,-61.32 566.81,-54.48"/>
</g>
<!-- Node17 -->
<g id="node17" class="node">
<title>Node17</title>
<g id="a_node17"><a xlink:href="class_j_k_q_t_impulse_specific_style_properties.html" target="_top" xlink:title="Support Class for JKQTBasePlotter, which summarizes all properties that define the visual styling of ...">
<polygon fill="none" stroke="black" points="864.5,-182.5 864.5,-216.5 1032.5,-216.5 1032.5,-182.5 864.5,-182.5"/>
<text text-anchor="start" x="872.5" y="-202.9" font-family="Helvetica,sans-Serif" font-size="12.00">JKQTImpulseSpecificStyle</text>
<text text-anchor="middle" x="948.5" y="-189.9" font-family="Helvetica,sans-Serif" font-size="12.00">Properties</text>
</a>
</g>
</g>
<!-- Node14&#45;&gt;Node17 -->
<g id="edge20" class="edge">
<title>Node14&#45;&gt;Node17</title>
<path fill="none" stroke="midnightblue" d="M540.75,-86.04C570.02,-101.29 617.07,-124.28 660,-138.5 727.33,-160.8 806.3,-176.87 864.42,-186.9"/>
<polygon fill="midnightblue" stroke="midnightblue" points="542.02,-82.75 531.54,-81.18 538.76,-88.94 542.02,-82.75"/>
</g>
<!-- Node18 -->
<g id="node18" class="node">
<title>Node18</title>
<g id="a_node18"><a xlink:href="class_j_k_q_t_geometric_specific_style_properties.html" target="_top" xlink:title="Support Class for JKQTBasePlotter, which summarizes all properties that define the visual styling of ...">
<polygon fill="none" stroke="black" points="660,-95.5 660,-129.5 844,-129.5 844,-95.5 660,-95.5"/>
<text text-anchor="start" x="668" y="-115.9" font-family="Helvetica,sans-Serif" font-size="12.00">JKQTGeometricSpecificStyle</text>
<text text-anchor="middle" x="752" y="-102.9" font-family="Helvetica,sans-Serif" font-size="12.00">Properties</text>
</a>
</g>
</g>
<!-- Node14&#45;&gt;Node18 -->
<g id="edge22" class="edge">
<title>Node14&#45;&gt;Node18</title>
<path fill="none" stroke="midnightblue" d="M581.86,-82.78C606.22,-87.06 633.92,-91.92 659.75,-96.46"/>
<polygon fill="midnightblue" stroke="midnightblue" points="582.46,-79.33 572,-81.04 581.24,-86.22 582.46,-79.33"/>
</g>
<!-- Node15 -->
<g id="node15" class="node">
<title>Node15</title>
<g id="a_node15"><a xlink:href="struct_j_k_q_t_p_color_derivation_mode.html" target="_top" xlink:title="Specifies how a fill&#45;color is derived from a given color.">
<polygon fill="none" stroke="black" points="0,-60 0,-81 179,-81 179,-60 0,-60"/>
<text text-anchor="middle" x="89.5" y="-67.4" font-family="Helvetica,sans-Serif" font-size="12.00">JKQTPColorDerivationMode</text>
</a>
</g>
</g>
<!-- Node15&#45;&gt;Node14 -->
<g id="edge16" class="edge">
<title>Node15&#45;&gt;Node14</title>
<path fill="none" stroke="#9a32cd" stroke-dasharray="5,2" d="M189.53,-70.5C252.41,-70.5 333.9,-70.5 398.97,-70.5"/>
<polygon fill="#9a32cd" stroke="#9a32cd" points="189.21,-67 179.21,-70.5 189.21,-74 189.21,-67"/>
<text text-anchor="middle" x="289" y="-125.9" font-family="Helvetica,sans-Serif" font-size="12.00"> errorColorDerivationMode</text>
<text text-anchor="middle" x="289" y="-112.9" font-family="Helvetica,sans-Serif" font-size="12.00">errorFillColorDerivationMode</text>
<text text-anchor="middle" x="289" y="-99.9" font-family="Helvetica,sans-Serif" font-size="12.00">fillColorDerivationMode</text>
<text text-anchor="middle" x="289" y="-86.9" font-family="Helvetica,sans-Serif" font-size="12.00">graphColorDerivationMode</text>
<text text-anchor="middle" x="289" y="-73.9" font-family="Helvetica,sans-Serif" font-size="12.00">symbolFillColorDerivationMode</text>
</g>
<!-- Node16&#45;&gt;Node13 -->
<g id="edge17" class="edge">
<title>Node16&#45;&gt;Node13</title>
<path fill="none" stroke="#9a32cd" stroke-dasharray="5,2" d="M1045.31,-5.77C1131.43,0.68 1259.45,-0.1 1360,-44.5 1406.96,-65.24 1448.53,-112.4 1465.67,-133.7"/>
<polygon fill="#9a32cd" stroke="#9a32cd" points="1044.97,-2.29 1035.28,-6.57 1045.53,-9.26 1044.97,-2.29"/>
<text text-anchor="middle" x="1148.5" y="-14.9" font-family="Helvetica,sans-Serif" font-size="12.00"> barchartStyle</text>
</g>
<!-- Node17&#45;&gt;Node13 -->
<g id="edge19" class="edge">
<title>Node17&#45;&gt;Node13</title>
<path fill="none" stroke="#9a32cd" stroke-dasharray="5,2" d="M1042.75,-198.01C1126.28,-195.58 1251.93,-189.19 1360,-172.5 1386.49,-168.41 1415.84,-161.13 1438.13,-155.02"/>
<polygon fill="#9a32cd" stroke="#9a32cd" points="1042.42,-194.52 1032.52,-198.3 1042.62,-201.52 1042.42,-194.52"/>
<text text-anchor="middle" x="1148.5" y="-200.9" font-family="Helvetica,sans-Serif" font-size="12.00"> impulseStyle</text>
</g>
<!-- Node18&#45;&gt;Node13 -->
<g id="edge21" class="edge">
<title>Node18&#45;&gt;Node13</title>
<path fill="none" stroke="#9a32cd" stroke-dasharray="5,2" d="M854.33,-121.92C856.91,-122.12 859.47,-122.31 862,-122.5 1039.57,-135.52 1084.02,-139.61 1262,-144.5 1308.54,-145.78 1360.85,-145.79 1401.87,-145.48"/>
<polygon fill="#9a32cd" stroke="#9a32cd" points="854.52,-118.43 844.27,-121.12 853.96,-125.4 854.52,-118.43"/>
<text text-anchor="middle" x="1148.5" y="-147.9" font-family="Helvetica,sans-Serif" font-size="12.00"> geometricStyle</text>
</g>
<!-- Node19 -->
<g id="node19" class="node">
<title>Node19</title>
<g id="a_node19"><a xlink:href="class_j_k_q_t_annotations_specific_style_properties.html" target="_top" xlink:title="Support Class for JKQTBasePlotter, which summarizes all properties that define the visual styling of ...">
<polygon fill="none" stroke="black" points="1053,-87.5 1053,-121.5 1244,-121.5 1244,-87.5 1053,-87.5"/>
<text text-anchor="start" x="1061" y="-107.9" font-family="Helvetica,sans-Serif" font-size="12.00">JKQTAnnotationsSpecificStyle</text>
<text text-anchor="middle" x="1148.5" y="-94.9" font-family="Helvetica,sans-Serif" font-size="12.00">Properties</text>
</a>
</g>
</g>
<!-- Node18&#45;&gt;Node19 -->
<g id="edge24" class="edge">
<title>Node18&#45;&gt;Node19</title>
<path fill="none" stroke="midnightblue" d="M854.07,-110.45C915.27,-109.21 992.83,-107.64 1052.84,-106.42"/>
<polygon fill="midnightblue" stroke="midnightblue" points="853.93,-106.95 844,-110.65 854.07,-113.95 853.93,-106.95"/>
</g>
<!-- Node19&#45;&gt;Node13 -->
<g id="edge23" class="edge">
<title>Node19&#45;&gt;Node13</title>
<path fill="none" stroke="#9a32cd" stroke-dasharray="5,2" d="M1254.39,-117.43C1302.57,-123.37 1358.51,-130.26 1401.86,-135.61"/>
<polygon fill="#9a32cd" stroke="#9a32cd" points="1254.58,-113.93 1244.23,-116.18 1253.73,-120.87 1254.58,-113.93"/>
<text text-anchor="middle" x="1311" y="-133.9" font-family="Helvetica,sans-Serif" font-size="12.00"> annotationStyle</text>
</g>
<!-- Node20&#45;&gt;Node7 -->
<g id="edge25" class="edge">
<title>Node20&#45;&gt;Node7</title>
<path fill="none" stroke="#9a32cd" stroke-dasharray="5,2" d="M1876.21,-453.07C1923.26,-445.52 1988.86,-434.98 2035.25,-427.53"/>
<polygon fill="#9a32cd" stroke="#9a32cd" points="1875.49,-449.64 1866.17,-454.68 1876.6,-456.55 1875.49,-449.64"/>
<text text-anchor="middle" x="1954.5" y="-450.9" font-family="Helvetica,sans-Serif" font-size="12.00"> mathText</text>
</g>
<!-- Node21 -->
<g id="node21" class="node">
<title>Node21</title>
<g id="a_node21"><a xlink:href="class_j_k_q_t_math_text_node.html" target="_top" xlink:title="subclass representing one node in the syntax tree">
<polygon fill="none" stroke="black" points="2027,-493 2027,-514 2158,-514 2158,-493 2027,-493"/>
<text text-anchor="middle" x="2092.5" y="-500.4" font-family="Helvetica,sans-Serif" font-size="12.00">JKQTMathTextNode</text>
</a>
</g>
</g>
<!-- Node20&#45;&gt;Node21 -->
<g id="edge28" class="edge">
<title>Node20&#45;&gt;Node21</title>
<path fill="none" stroke="#9a32cd" stroke-dasharray="5,2" d="M1853.21,-476.48C1869.13,-482.11 1888.25,-488.08 1906,-491.5 1945.61,-499.14 1990.76,-502.18 2026.61,-503.29"/>
<polygon fill="#9a32cd" stroke="#9a32cd" points="1854.35,-473.17 1843.76,-473.04 1851.96,-479.75 1854.35,-473.17"/>
<text text-anchor="middle" x="1954.5" y="-504.9" font-family="Helvetica,sans-Serif" font-size="12.00"> parentMathText</text>
</g>
<!-- Node21&#45;&gt;Node20 -->
<g id="edge27" class="edge">
<title>Node21&#45;&gt;Node20</title>
<path fill="none" stroke="#9a32cd" stroke-dasharray="5,2" d="M2046.57,-489.97C2029.3,-484.95 2011.67,-480.08 2003,-478.5 1957.05,-470.11 1903.87,-466.09 1866.27,-464.19"/>
<polygon fill="#9a32cd" stroke="#9a32cd" points="2046.04,-493.46 2056.62,-492.92 2048.01,-486.74 2046.04,-493.46"/>
<text text-anchor="middle" x="1954.5" y="-481.9" font-family="Helvetica,sans-Serif" font-size="12.00"> parsedNode</text>
</g>
<!-- Node21&#45;&gt;Node21 -->
<g id="edge29" class="edge">
<title>Node21&#45;&gt;Node21</title>
<path fill="none" stroke="#9a32cd" stroke-dasharray="5,2" d="M2066.93,-523.56C2068.61,-528.66 2077.13,-532.5 2092.5,-532.5 2116.49,-532.5 2123.8,-523.15 2114.43,-514.21"/>
<polygon fill="#9a32cd" stroke="#9a32cd" points="2070.21,-524.8 2070.57,-514.21 2063.68,-522.26 2070.21,-524.8"/>
<text text-anchor="middle" x="2092.5" y="-535.9" font-family="Helvetica,sans-Serif" font-size="12.00"> parentNode</text>
</g>
<!-- Node22&#45;&gt;Node7 -->
<g id="edge30" class="edge">
<title>Node22&#45;&gt;Node7</title>
<path fill="none" stroke="#9a32cd" stroke-dasharray="5,2" d="M2344.62,-354.82C2286.8,-362.39 2211.78,-373.15 2182,-381.5 2158.27,-388.15 2132.4,-399.48 2114.79,-407.85"/>
<polygon fill="#9a32cd" stroke="#9a32cd" points="2345.37,-358.25 2354.84,-353.49 2344.47,-351.31 2345.37,-358.25"/>
<text text-anchor="middle" x="2238.5" y="-384.9" font-family="Helvetica,sans-Serif" font-size="12.00"> m_plotsModel</text>
</g>
<!-- Node23 -->
<g id="node23" class="node">
<title>Node23</title>
<g id="a_node23"><a xlink:title=" ">
<polygon fill="none" stroke="black" points="2021,-278 2021,-299 2164,-299 2164,-278 2021,-278"/>
<text text-anchor="middle" x="2092.5" y="-285.4" font-family="Helvetica,sans-Serif" font-size="12.00">QAbstractTableModel</text>
</a>
</g>
</g>
<!-- Node23&#45;&gt;Node22 -->
<g id="edge31" class="edge">
<title>Node23&#45;&gt;Node22</title>
<path fill="none" stroke="midnightblue" d="M2174.31,-289.27C2211.39,-290.85 2255.74,-294.5 2295,-302.5 2330.85,-309.8 2370.52,-324.77 2395.23,-334.98"/>
<polygon fill="midnightblue" stroke="midnightblue" points="2174.18,-285.76 2164.05,-288.87 2173.91,-292.75 2174.18,-285.76"/>
</g>
<!-- Node24 -->
<g id="node24" class="node">
<title>Node24</title>
<g id="a_node24"><a xlink:href="class_j_k_q_t_p_horizontal_axis.html" target="_top" xlink:title="implements a horizontal axis, based on JKQTPCoordinateAxis (for most of documentation: see JKQTPCoord...">
<polygon fill="none" stroke="black" points="2565,-527 2565,-548 2702,-548 2702,-527 2565,-527"/>
<text text-anchor="middle" x="2633.5" y="-534.4" font-family="Helvetica,sans-Serif" font-size="12.00">JKQTPHorizontalAxis</text>
</a>
</g>
</g>
<!-- Node24&#45;&gt;Node7 -->
<g id="edge33" class="edge">
<title>Node24&#45;&gt;Node7</title>
<path fill="none" stroke="#9a32cd" stroke-dasharray="5,2" d="M2554.64,-541.86C2461.87,-544.07 2304.1,-538.25 2182,-484.5 2150.6,-470.68 2119.84,-443.92 2104.18,-429.07"/>
<polygon fill="#9a32cd" stroke="#9a32cd" points="2554.89,-545.35 2564.79,-541.58 2554.7,-538.36 2554.89,-545.35"/>
<text text-anchor="middle" x="2420.5" y="-544.9" font-family="Helvetica,sans-Serif" font-size="12.00"> xAxis</text>
</g>
<!-- Node35 -->
<g id="node35" class="node">
<title>Node35</title>
<g id="a_node35"><a xlink:href="class_j_k_q_t_p_horizontal_independent_axis.html" target="_top" xlink:title="implements a position&#45;indipendent horizontal axis, based on JKQTPCoordinateAxis (for most of document...">
<polygon fill="none" stroke="black" points="2739,-527 2739,-548 2952,-548 2952,-527 2739,-527"/>
<text text-anchor="middle" x="2845.5" y="-534.4" font-family="Helvetica,sans-Serif" font-size="12.00">JKQTPHorizontalIndependentAxis</text>
</a>
</g>
</g>
<!-- Node24&#45;&gt;Node35 -->
<g id="edge53" class="edge">
<title>Node24&#45;&gt;Node35</title>
<path fill="none" stroke="midnightblue" d="M2712.17,-537.5C2720.87,-537.5 2729.83,-537.5 2738.8,-537.5"/>
<polygon fill="midnightblue" stroke="midnightblue" points="2712.1,-534 2702.1,-537.5 2712.1,-541 2712.1,-534"/>
</g>
<!-- Node25&#45;&gt;Node24 -->
<g id="edge34" class="edge">
<title>Node25&#45;&gt;Node24</title>
<path fill="none" stroke="midnightblue" d="M2485.4,-566.08C2515.03,-560.33 2549.87,-553.56 2578.21,-548.05"/>
<polygon fill="midnightblue" stroke="midnightblue" points="2484.71,-562.65 2475.56,-567.99 2486.05,-569.52 2484.71,-562.65"/>
</g>
<!-- Node26 -->
<g id="node26" class="node">
<title>Node26</title>
<g id="a_node26"><a xlink:href="class_j_k_q_t_p_vertical_axis.html" target="_top" xlink:title="implements a vertical axis, based on JKQTPCoordinateAxis (for most of documentation: see JKQTPCoordin...">
<polygon fill="none" stroke="black" points="2572.5,-477 2572.5,-498 2694.5,-498 2694.5,-477 2572.5,-477"/>
<text text-anchor="middle" x="2633.5" y="-484.4" font-family="Helvetica,sans-Serif" font-size="12.00">JKQTPVerticalAxis</text>
</a>
</g>
</g>
<!-- Node25&#45;&gt;Node26 -->
<g id="edge39" class="edge">
<title>Node25&#45;&gt;Node26</title>
<path fill="none" stroke="midnightblue" d="M2500.45,-565.1C2510.03,-562 2519.44,-558.19 2528,-553.5 2548.12,-542.48 2546,-530.36 2565,-517.5 2576.58,-509.67 2590.53,-503.06 2602.74,-498.07"/>
<polygon fill="midnightblue" stroke="midnightblue" points="2499.42,-561.76 2490.84,-567.97 2501.43,-568.46 2499.42,-561.76"/>
</g>
<!-- Node26&#45;&gt;Node7 -->
<g id="edge38" class="edge">
<title>Node26&#45;&gt;Node7</title>
<path fill="none" stroke="#9a32cd" stroke-dasharray="5,2" d="M2562.29,-491.47C2472.57,-494.7 2313.16,-494.2 2182,-460.5 2155.81,-453.77 2128.01,-439.2 2110.71,-429.12"/>
<polygon fill="#9a32cd" stroke="#9a32cd" points="2562.49,-494.97 2572.35,-491.08 2562.22,-487.97 2562.49,-494.97"/>
<text text-anchor="middle" x="2420.5" y="-495.9" font-family="Helvetica,sans-Serif" font-size="12.00"> yAxis</text>
</g>
<!-- Node34 -->
<g id="node34" class="node">
<title>Node34</title>
<g id="a_node34"><a xlink:href="class_j_k_q_t_p_vertical_independent_axis.html" target="_top" xlink:title="implements a position&#45;indipendent vertical axis, based on JKQTPCoordinateAxis (for most of documentat...">
<polygon fill="none" stroke="black" points="2747,-470 2747,-491 2944,-491 2944,-470 2747,-470"/>
<text text-anchor="middle" x="2845.5" y="-477.4" font-family="Helvetica,sans-Serif" font-size="12.00">JKQTPVerticalIndependentAxis</text>
</a>
</g>
</g>
<!-- Node26&#45;&gt;Node34 -->
<g id="edge51" class="edge">
<title>Node26&#45;&gt;Node34</title>
<path fill="none" stroke="midnightblue" d="M2704.78,-485.16C2718.22,-484.71 2732.52,-484.23 2746.65,-483.76"/>
<polygon fill="midnightblue" stroke="midnightblue" points="2704.56,-481.66 2694.68,-485.49 2704.79,-488.66 2704.56,-481.66"/>
</g>
<!-- Node27 -->
<g id="node27" class="node">
<title>Node27</title>
<g id="a_node27"><a xlink:href="class_j_k_q_t_p_datastore.html" target="_top" xlink:title="This class manages data columns (with entries of type double ), used by JKQTPlotter/JKQTBasePlotter t...">
<polygon fill="none" stroke="black" points="1761,-228 1761,-249 1872,-249 1872,-228 1761,-228"/>
<text text-anchor="middle" x="1816.5" y="-235.4" font-family="Helvetica,sans-Serif" font-size="12.00">JKQTPDatastore</text>
</a>
</g>
</g>
<!-- Node27&#45;&gt;Node7 -->
<g id="edge40" class="edge">
<title>Node27&#45;&gt;Node7</title>
<path fill="none" stroke="#9a32cd" stroke-dasharray="5,2" d="M1880.35,-251.61C1918.59,-261.87 1966.87,-279.11 2003,-306.5 2041.71,-335.85 2073.02,-385.91 2085.57,-407.76"/>
<polygon fill="#9a32cd" stroke="#9a32cd" points="1880.91,-248.14 1870.35,-249.02 1879.15,-254.92 1880.91,-248.14"/>
<text text-anchor="middle" x="1954.5" y="-309.9" font-family="Helvetica,sans-Serif" font-size="12.00"> datastore</text>
</g>
<!-- Node29 -->
<g id="node29" class="node">
<title>Node29</title>
<g id="a_node29"><a xlink:href="class_j_k_q_t_p_column.html" target="_top" xlink:title="internally stores information about one data column. See JKQTPDatastore for more information.">
<polygon fill="none" stroke="black" points="2043.5,-232 2043.5,-253 2141.5,-253 2141.5,-232 2043.5,-232"/>
<text text-anchor="middle" x="2092.5" y="-239.4" font-family="Helvetica,sans-Serif" font-size="12.00">JKQTPColumn</text>
</a>
</g>
</g>
<!-- Node27&#45;&gt;Node29 -->
<g id="edge43" class="edge">
<title>Node27&#45;&gt;Node29</title>
<path fill="none" stroke="#9a32cd" stroke-dasharray="5,2" d="M1882.54,-239.45C1931.87,-240.17 1998.58,-241.14 2043.22,-241.8"/>
<polygon fill="#9a32cd" stroke="#9a32cd" points="1882.34,-235.95 1872.29,-239.3 1882.24,-242.95 1882.34,-235.95"/>
<text text-anchor="middle" x="1954.5" y="-243.9" font-family="Helvetica,sans-Serif" font-size="12.00"> datastore</text>
</g>
<!-- Node28 -->
<g id="node28" class="node">
<title>Node28</title>
<g id="a_node28"><a xlink:title=" ">
<polygon fill="none" stroke="black" points="2313,-190 2313,-211 2528,-211 2528,-190 2313,-190"/>
<text text-anchor="middle" x="2420.5" y="-197.4" font-family="Helvetica,sans-Serif" font-size="12.00">std::unique_ptr&lt; JKQTPColumn &gt;</text>
</a>
</g>
</g>
<!-- Node28&#45;&gt;Node27 -->
<g id="edge41" class="edge">
<title>Node28&#45;&gt;Node27</title>
<path fill="none" stroke="#9a32cd" stroke-dasharray="5,2" d="M2302.71,-199.49C2223.18,-199.69 2115.58,-201.72 2021,-209.5 1970.32,-213.67 1913,-222.18 1872.15,-228.91"/>
<polygon fill="#9a32cd" stroke="#9a32cd" points="2302.77,-202.99 2312.76,-199.47 2302.76,-195.99 2302.77,-202.99"/>
<text text-anchor="middle" x="2092.5" y="-212.9" font-family="Helvetica,sans-Serif" font-size="12.00"> m_invalidColumn</text>
</g>
<!-- Node29&#45;&gt;Node28 -->
<g id="edge42" class="edge">
<title>Node29&#45;&gt;Node28</title>
<path fill="none" stroke="#9a32cd" stroke-dasharray="5,2" d="M2151.64,-235.01C2203.51,-228.33 2280.02,-218.47 2338,-211"/>
<polygon fill="#9a32cd" stroke="#9a32cd" points="2151.07,-231.55 2141.6,-236.3 2151.97,-238.5 2151.07,-231.55"/>
<text text-anchor="middle" x="2238.5" y="-232.9" font-family="Helvetica,sans-Serif" font-size="12.00"> ptr</text>
</g>
<!-- Node30 -->
<g id="node30" class="node">
<title>Node30</title>
<g id="a_node30"><a xlink:title=" ">
<polygon fill="none" stroke="black" points="2022.5,-143 2022.5,-164 2162.5,-164 2162.5,-143 2022.5,-143"/>
<text text-anchor="middle" x="2092.5" y="-150.4" font-family="Helvetica,sans-Serif" font-size="12.00">std::unique_ptr&lt; T &gt;</text>
</a>
</g>
</g>
<!-- Node30&#45;&gt;Node28 -->
<g id="edge44" class="edge">
<title>Node30&#45;&gt;Node28</title>
<path fill="none" stroke="orange" stroke-dasharray="5,2" d="M2173.04,-159.28C2210.21,-162.52 2255.01,-167.2 2295,-173.5 2322.42,-177.82 2352.88,-184.39 2376.8,-189.97"/>
<polygon fill="orange" stroke="orange" points="2173.02,-155.76 2162.76,-158.4 2172.43,-162.74 2173.02,-155.76"/>
<text text-anchor="middle" x="2238.5" y="-176.9" font-family="Helvetica,sans-Serif" font-size="12.00"> &lt; JKQTPColumn &gt;</text>
</g>
<!-- Node31 -->
<g id="node31" class="node">
<title>Node31</title>
<g id="a_node31"><a xlink:title=" ">
<polygon fill="none" stroke="black" points="1802,-143 1802,-164 1831,-164 1831,-143 1802,-143"/>
<text text-anchor="middle" x="1816.5" y="-150.4" font-family="Helvetica,sans-Serif" font-size="12.00">T</text>
</a>
</g>
</g>
<!-- Node31&#45;&gt;Node30 -->
<g id="edge45" class="edge">
<title>Node31&#45;&gt;Node30</title>
<path fill="none" stroke="#9a32cd" stroke-dasharray="5,2" d="M1841.17,-153.5C1881.06,-153.5 1963.14,-153.5 2022.46,-153.5"/>
<polygon fill="#9a32cd" stroke="#9a32cd" points="1841.09,-150 1831.09,-153.5 1841.09,-157 1841.09,-150"/>
<text text-anchor="middle" x="1954.5" y="-156.9" font-family="Helvetica,sans-Serif" font-size="12.00"> ptr</text>
</g>
<!-- Node32 -->
<g id="node32" class="node">
<title>Node32</title>
<g id="a_node32"><a xlink:href="class_j_k_q_t_p_color_palette_with_modifier_style_and_tools_mixin.html" target="_top" xlink:title="if a class is derived from this class, it may use color bars that have 2 axes (one &quot;data&quot;/color axis ...">
<polygon fill="none" stroke="black" points="3462,-443.5 3462,-477.5 3662,-477.5 3662,-443.5 3462,-443.5"/>
<text text-anchor="start" x="3470" y="-463.9" font-family="Helvetica,sans-Serif" font-size="12.00">JKQTPColorPaletteWithModifier</text>
<text text-anchor="middle" x="3562" y="-450.9" font-family="Helvetica,sans-Serif" font-size="12.00">StyleAndToolsMixin</text>
</a>
</g>
</g>
<!-- Node32&#45;&gt;Node1 -->
<g id="edge47" class="edge">
<title>Node32&#45;&gt;Node1</title>
<path fill="none" stroke="midnightblue" d="M3658.57,-441.43C3674.85,-438.19 3691.21,-434.92 3705.84,-432"/>
<polygon fill="midnightblue" stroke="midnightblue" points="3657.59,-438.06 3648.46,-443.45 3658.96,-444.93 3657.59,-438.06"/>
</g>
<!-- Node33&#45;&gt;Node32 -->
<g id="edge48" class="edge">
<title>Node33&#45;&gt;Node32</title>
<path fill="none" stroke="midnightblue" d="M3286.68,-469.33C3340.75,-467.59 3407.58,-465.44 3461.74,-463.69"/>
<polygon fill="midnightblue" stroke="midnightblue" points="3286.28,-465.84 3276.4,-469.66 3286.5,-472.83 3286.28,-465.84"/>
</g>
<!-- Node34&#45;&gt;Node32 -->
<g id="edge54" class="edge">
<title>Node34&#45;&gt;Node32</title>
<path fill="none" stroke="#9a32cd" stroke-dasharray="5,2" d="M2899.38,-467.67C2950,-456.09 3028.69,-439.92 3098,-433.5 3223.27,-421.89 3368.11,-434.51 3461.95,-446.11"/>
<polygon fill="#9a32cd" stroke="#9a32cd" points="2898.28,-464.33 2889.33,-469.99 2899.86,-471.15 2898.28,-464.33"/>
<text text-anchor="middle" x="3187" y="-436.9" font-family="Helvetica,sans-Serif" font-size="12.00"> modifierColorBarTopAxis</text>
</g>
<!-- Node34&#45;&gt;Node33 -->
<g id="edge50" class="edge">
<title>Node34&#45;&gt;Node33</title>
<path fill="none" stroke="#9a32cd" stroke-dasharray="5,2" d="M2954.42,-475.96C2959.69,-475.79 2964.9,-475.64 2970,-475.5 3012.08,-474.36 3058.79,-473.64 3097.97,-473.19"/>
<polygon fill="#9a32cd" stroke="#9a32cd" points="2954.12,-472.47 2944.24,-476.3 2954.35,-479.47 2954.12,-472.47"/>
<text text-anchor="middle" x="3025" y="-478.9" font-family="Helvetica,sans-Serif" font-size="12.00"> colorBarRightAxis</text>
</g>
<!-- Node35&#45;&gt;Node32 -->
<g id="edge55" class="edge">
<title>Node35&#45;&gt;Node32</title>
<path fill="none" stroke="#9a32cd" stroke-dasharray="5,2" d="M2962.55,-532.52C3000.07,-530.52 3041.83,-527.87 3080,-524.5 3242.33,-510.19 3282.75,-504.01 3444,-480.5 3450.42,-479.56 3457.04,-478.55 3463.7,-477.51"/>
<polygon fill="#9a32cd" stroke="#9a32cd" points="2961.89,-529.05 2952.09,-533.07 2962.26,-536.04 2961.89,-529.05"/>
<text text-anchor="middle" x="3187" y="-525.9" font-family="Helvetica,sans-Serif" font-size="12.00"> modifierColorBarRightAxis</text>
</g>
<!-- Node35&#45;&gt;Node33 -->
<g id="edge52" class="edge">
<title>Node35&#45;&gt;Node33</title>
<path fill="none" stroke="#9a32cd" stroke-dasharray="5,2" d="M2904.69,-524.89C2925.3,-520.52 2948.66,-515.67 2970,-511.5 3011.98,-503.29 3058.67,-494.78 3097.88,-487.82"/>
<polygon fill="#9a32cd" stroke="#9a32cd" points="2903.87,-521.48 2894.82,-526.99 2905.33,-528.33 2903.87,-521.48"/>
<text text-anchor="middle" x="3025" y="-514.9" font-family="Helvetica,sans-Serif" font-size="12.00"> colorBarTopAxis</text>
</g>
</g>
</svg>
        <g id="navigator" transform="translate(0 0)" fill="#404254">
                <rect fill="#f2f5e9" fill-opacity="0.5" stroke="#606060" stroke-width=".5" x="0" y="0" width="60" height="60"/>
                <use id="zoomplus" xlink:href="#zoomPlus" x="17" y="9" onmousedown="handleZoom(evt,'in')"/>
                <use id="zoomminus" xlink:href="#zoomMin" x="42" y="9" onmousedown="handleZoom(evt,'out')"/>
                <use id="reset" xlink:href="#resetDef" x="30" y="36" onmousedown="handleReset()"/>
                <g id="arrowUp" xlink:href="#dirArrow" transform="translate(30 24)" onmousedown="handlePan(0,-1)">
                  <use xlink:href="#rim" fill="#404040">
                        <set attributeName="fill" to="#808080" begin="arrowUp.mouseover" end="arrowUp.mouseout"/>
                  </use>
                  <path fill="none" stroke="white" stroke-width="1.5" d="M0,-3.0v7 M-2.5,-0.5L0,-3.0L2.5,-0.5"/>
                </g>
                <g id="arrowRight" xlink:href="#dirArrow" transform="rotate(90) translate(36 -43)" onmousedown="handlePan(1,0)">
                  <use xlink:href="#rim" fill="#404040">
                        <set attributeName="fill" to="#808080" begin="arrowRight.mouseover" end="arrowRight.mouseout"/>
                  </use>
                  <path fill="none" stroke="white" stroke-width="1.5" d="M0,-3.0v7 M-2.5,-0.5L0,-3.0L2.5,-0.5"/>
                </g>
                <g id="arrowDown" xlink:href="#dirArrow" transform="rotate(180) translate(-30 -48)" onmousedown="handlePan(0,1)">
                  <use xlink:href="#rim" fill="#404040">
                        <set attributeName="fill" to="#808080" begin="arrowDown.mouseover" end="arrowDown.mouseout"/>
                  </use>
                  <path fill="none" stroke="white" stroke-width="1.5" d="M0,-3.0v7 M-2.5,-0.5L0,-3.0L2.5,-0.5"/>
                </g>
                <g id="arrowLeft" xlink:href="#dirArrow" transform="rotate(270) translate(-36 17)" onmousedown="handlePan(-1,0)">
                  <use xlink:href="#rim" fill="#404040">
                        <set attributeName="fill" to="#808080" begin="arrowLeft.mouseover" end="arrowLeft.mouseout"/>
                  </use>
                  <path fill="none" stroke="white" stroke-width="1.5" d="M0,-3.0v7 M-2.5,-0.5L0,-3.0L2.5,-0.5"/>
                </g>
        </g>
        <svg viewBox="0 0 15 15" width="100%" height="30px" preserveAspectRatio="xMaxYMin meet">
         <g id="arrow_out" transform="scale(0.3 0.3)">
          <a xlink:href="class_j_k_q_t_p_math_image__coll__graph_org.svg" target="_base">
           <rect id="button" ry="5" rx="5" y="6" x="6" height="38" width="38"
                fill="#f2f5e9" fill-opacity="0.5" stroke="#606060" stroke-width="1.0"/>
           <path id="arrow"
             d="M 11.500037,31.436501 C 11.940474,20.09759 22.043105,11.32322 32.158766,21.979434 L 37.068811,17.246167 C 37.068811,17.246167 37.088388,32 37.088388,32 L 22.160133,31.978069 C 22.160133,31.978069 26.997745,27.140456 26.997745,27.140456 C 18.528582,18.264221 13.291696,25.230495 11.500037,31.436501 z"
             style="fill:#404040;"/>
          </a>
         </g>
        </svg>
</svg>
