<?xml version="1.0" encoding="UTF-8" standalone="no"?>
<!DOCTYPE svg PUBLIC "-//W3C//DTD SVG 1.1//EN"
 "http://www.w3.org/Graphics/SVG/1.1/DTD/svg11.dtd">
<!-- Generated by graphviz version 2.43.0 (0)
 -->
<!-- Title: JKQTMathTextMultiChildNode Pages: 1 -->
<svg width="803pt" height="190pt"
 viewBox="0.00 0.00 803.00 190.00" xmlns="http://www.w3.org/2000/svg" xmlns:xlink="http://www.w3.org/1999/xlink">
<g id="graph0" class="graph" transform="scale(1 1) rotate(0) translate(4 186)">
<title>JKQTMathTextMultiChildNode</title>
<!-- Node1 -->
<g id="node1" class="node">
<title>Node1</title>
<g id="a_node1"><a xlink:title="subclass representing a node in the syntax tree, that has two children">
<polygon fill="#bfbfbf" stroke="black" points="167,-80.5 167,-101.5 355,-101.5 355,-80.5 167,-80.5"/>
<text text-anchor="middle" x="261" y="-87.9" font-family="Helvetica,sans-Serif" font-size="12.00">JKQTMathTextMultiChildNode</text>
</a>
</g>
</g>
<!-- Node3 -->
<g id="node3" class="node">
<title>Node3</title>
<g id="a_node3"><a xlink:href="class_j_k_q_t_math_text_dual_child_node.html" target="_top" xlink:title="subclass representing a node in the syntax tree, that has two children">
<polygon fill="none" stroke="black" points="403.5,-160.5 403.5,-181.5 590.5,-181.5 590.5,-160.5 403.5,-160.5"/>
<text text-anchor="middle" x="497" y="-167.9" font-family="Helvetica,sans-Serif" font-size="12.00">JKQTMathTextDualChildNode</text>
</a>
</g>
</g>
<!-- Node1&#45;&gt;Node3 -->
<g id="edge2" class="edge">
<title>Node1&#45;&gt;Node3</title>
<path fill="none" stroke="midnightblue" d="M290.17,-106.59C315.77,-120.14 354.94,-139.38 391,-151 402.57,-154.73 415.09,-157.86 427.32,-160.45"/>
<polygon fill="midnightblue" stroke="midnightblue" points="291.53,-103.34 281.06,-101.7 288.22,-109.51 291.53,-103.34"/>
</g>
<!-- Node5 -->
<g id="node5" class="node">
<title>Node5</title>
<g id="a_node5"><a xlink:href="class_j_k_q_t_math_text_horizontal_list_node.html" target="_top" xlink:title="subclass representing a list of nodes in the syntax tree, layed out horizontally">
<polygon fill="none" stroke="black" points="391,-120.5 391,-141.5 603,-141.5 603,-120.5 391,-120.5"/>
<text text-anchor="middle" x="497" y="-127.9" font-family="Helvetica,sans-Serif" font-size="12.00">JKQTMathTextHorizontalListNode</text>
</a>
</g>
</g>
<!-- Node1&#45;&gt;Node5 -->
<g id="edge4" class="edge">
<title>Node1&#45;&gt;Node5</title>
<path fill="none" stroke="midnightblue" d="M333.74,-103.26C365.97,-108.77 403.61,-115.21 434.52,-120.49"/>
<polygon fill="midnightblue" stroke="midnightblue" points="333.93,-99.74 323.48,-101.51 332.75,-106.64 333.93,-99.74"/>
</g>
<!-- Node6 -->
<g id="node6" class="node">
<title>Node6</title>
<g id="a_node6"><a xlink:href="class_j_k_q_t_math_text_matrix_node.html" target="_top" xlink:title="subclass representing a \begin{matrix} , \begin{tabular} , \begin{array} , ... node">
<polygon fill="none" stroke="black" points="413,-80.5 413,-101.5 581,-101.5 581,-80.5 413,-80.5"/>
<text text-anchor="middle" x="497" y="-87.9" font-family="Helvetica,sans-Serif" font-size="12.00">JKQTMathTextMatrixNode</text>
</a>
</g>
</g>
<!-- Node1&#45;&gt;Node6 -->
<g id="edge5" class="edge">
<title>Node1&#45;&gt;Node6</title>
<path fill="none" stroke="midnightblue" d="M365.46,-91C381.24,-91 397.36,-91 412.63,-91"/>
<polygon fill="midnightblue" stroke="midnightblue" points="365.16,-87.5 355.16,-91 365.16,-94.5 365.16,-87.5"/>
</g>
<!-- Node7 -->
<g id="node7" class="node">
<title>Node7</title>
<g id="a_node7"><a xlink:href="class_j_k_q_t_math_text_sqrt_node.html" target="_top" xlink:title="subclass representing a sqrt node">
<polygon fill="none" stroke="black" points="419.5,-40.5 419.5,-61.5 574.5,-61.5 574.5,-40.5 419.5,-40.5"/>
<text text-anchor="middle" x="497" y="-47.9" font-family="Helvetica,sans-Serif" font-size="12.00">JKQTMathTextSqrtNode</text>
</a>
</g>
</g>
<!-- Node1&#45;&gt;Node7 -->
<g id="edge6" class="edge">
<title>Node1&#45;&gt;Node7</title>
<path fill="none" stroke="midnightblue" d="M333.74,-78.74C365.97,-73.23 403.61,-66.79 434.52,-61.51"/>
<polygon fill="midnightblue" stroke="midnightblue" points="332.75,-75.36 323.48,-80.49 333.93,-82.26 332.75,-75.36"/>
</g>
<!-- Node8 -->
<g id="node8" class="node">
<title>Node8</title>
<g id="a_node8"><a xlink:href="class_j_k_q_t_math_text_vertical_list_node.html" target="_top" xlink:title="subclass representing a list of nodes in the syntax tree, layed out vertically">
<polygon fill="none" stroke="black" points="399,-0.5 399,-21.5 595,-21.5 595,-0.5 399,-0.5"/>
<text text-anchor="middle" x="497" y="-7.9" font-family="Helvetica,sans-Serif" font-size="12.00">JKQTMathTextVerticalListNode</text>
</a>
</g>
</g>
<!-- Node1&#45;&gt;Node8 -->
<g id="edge7" class="edge">
<title>Node1&#45;&gt;Node8</title>
<path fill="none" stroke="midnightblue" d="M290.17,-75.41C315.77,-61.86 354.94,-42.62 391,-31 402.57,-27.27 415.09,-24.14 427.32,-21.55"/>
<polygon fill="midnightblue" stroke="midnightblue" points="288.22,-72.49 281.06,-80.3 291.53,-78.66 288.22,-72.49"/>
</g>
<!-- Node2 -->
<g id="node2" class="node">
<title>Node2</title>
<g id="a_node2"><a xlink:href="class_j_k_q_t_math_text_node.html" target="_top" xlink:title="subclass representing one node in the syntax tree">
<polygon fill="none" stroke="black" points="0,-80.5 0,-101.5 131,-101.5 131,-80.5 0,-80.5"/>
<text text-anchor="middle" x="65.5" y="-87.9" font-family="Helvetica,sans-Serif" font-size="12.00">JKQTMathTextNode</text>
</a>
</g>
</g>
<!-- Node2&#45;&gt;Node1 -->
<g id="edge1" class="edge">
<title>Node2&#45;&gt;Node1</title>
<path fill="none" stroke="midnightblue" d="M141.26,-91C149.62,-91 158.2,-91 166.75,-91"/>
<polygon fill="midnightblue" stroke="midnightblue" points="141.2,-87.5 131.2,-91 141.2,-94.5 141.2,-87.5"/>
</g>
<!-- Node4 -->
<g id="node4" class="node">
<title>Node4</title>
<g id="a_node4"><a xlink:href="class_j_k_q_t_math_text_frac_node.html" target="_top" xlink:title="subclass representing a \frac node">
<polygon fill="none" stroke="black" points="639,-160.5 639,-181.5 795,-181.5 795,-160.5 639,-160.5"/>
<text text-anchor="middle" x="717" y="-167.9" font-family="Helvetica,sans-Serif" font-size="12.00">JKQTMathTextFracNode</text>
</a>
</g>
</g>
<!-- Node3&#45;&gt;Node4 -->
<g id="edge3" class="edge">
<title>Node3&#45;&gt;Node4</title>
<path fill="none" stroke="midnightblue" d="M600.94,-171C613.67,-171 626.5,-171 638.76,-171"/>
<polygon fill="midnightblue" stroke="midnightblue" points="600.77,-167.5 590.77,-171 600.77,-174.5 600.77,-167.5"/>
</g>
</g>
</svg>
