<?xml version="1.0" encoding="UTF-8" standalone="no"?>
<!DOCTYPE svg PUBLIC "-//W3C//DTD SVG 1.1//EN"
 "http://www.w3.org/Graphics/SVG/1.1/DTD/svg11.dtd">
<!-- Generated by graphviz version 2.43.0 (0)
 -->
<!-- Title: JKQTMathTextMultiChildNode Pages: 1 -->
<svg width="394pt" height="101pt"
 viewBox="0.00 0.00 393.50 101.00" xmlns="http://www.w3.org/2000/svg" xmlns:xlink="http://www.w3.org/1999/xlink">
<g id="graph0" class="graph" transform="scale(1 1) rotate(0) translate(4 97)">
<title>JKQTMathTextMultiChildNode</title>
<!-- Node1 -->
<g id="node1" class="node">
<title>Node1</title>
<g id="a_node1"><a xlink:title="subclass representing a node in the syntax tree, that has two children">
<polygon fill="#bfbfbf" stroke="black" points="0,-0.5 0,-21.5 188,-21.5 188,-0.5 0,-0.5"/>
<text text-anchor="middle" x="94" y="-7.9" font-family="Helvetica,sans-Serif" font-size="12.00">JKQTMathTextMultiChildNode</text>
</a>
</g>
</g>
<!-- Node2 -->
<g id="node2" class="node">
<title>Node2</title>
<g id="a_node2"><a xlink:href="class_j_k_q_t_math_text_node.html" target="_top" xlink:title="subclass representing one node in the syntax tree">
<polygon fill="none" stroke="black" points="75.5,-71.5 75.5,-92.5 206.5,-92.5 206.5,-71.5 75.5,-71.5"/>
<text text-anchor="middle" x="141" y="-78.9" font-family="Helvetica,sans-Serif" font-size="12.00">JKQTMathTextNode</text>
</a>
</g>
</g>
<!-- Node2&#45;&gt;Node1 -->
<g id="edge1" class="edge">
<title>Node2&#45;&gt;Node1</title>
<path fill="none" stroke="midnightblue" d="M126.69,-63.44C124.06,-60.03 121.39,-56.44 119,-53 111.77,-42.59 104.32,-30.09 99.45,-21.65"/>
<polygon fill="midnightblue" stroke="midnightblue" points="124.02,-65.7 132.97,-71.37 129.5,-61.36 124.02,-65.7"/>
</g>
<!-- Node2&#45;&gt;Node2 -->
<g id="edge5" class="edge">
<title>Node2&#45;&gt;Node2</title>
<path fill="none" stroke="#9a32cd" stroke-dasharray="5,2" d="M217.02,-86.44C221.69,-85.39 224.5,-83.91 224.5,-82 224.5,-78.95 217.31,-76.99 206.81,-76.13"/>
<polygon fill="#9a32cd" stroke="#9a32cd" points="216.23,-83.02 206.81,-87.87 217.2,-89.95 216.23,-83.02"/>
<text text-anchor="middle" x="262" y="-78.9" font-family="Helvetica,sans-Serif" font-size="12.00"> parentNode</text>
</g>
<!-- Node3 -->
<g id="node3" class="node">
<title>Node3</title>
<g id="a_node3"><a xlink:href="class_j_k_q_t_math_text.html" target="_top" xlink:title="this class parses a mathematical markup string and can then draw the contained text/equation onto a Q...">
<polygon fill="none" stroke="black" points="206.5,-0.5 206.5,-21.5 305.5,-21.5 305.5,-0.5 206.5,-0.5"/>
<text text-anchor="middle" x="256" y="-7.9" font-family="Helvetica,sans-Serif" font-size="12.00">JKQTMathText</text>
</a>
</g>
</g>
<!-- Node2&#45;&gt;Node3 -->
<g id="edge4" class="edge">
<title>Node2&#45;&gt;Node3</title>
<path fill="none" stroke="#9a32cd" stroke-dasharray="5,2" d="M134.34,-61.67C133.01,-54.2 133.25,-46.01 138,-40 142.49,-34.32 176.2,-26.67 206.44,-20.79"/>
<polygon fill="#9a32cd" stroke="#9a32cd" points="130.99,-62.7 136.94,-71.46 137.75,-60.9 130.99,-62.7"/>
<text text-anchor="middle" x="176.5" y="-43.4" font-family="Helvetica,sans-Serif" font-size="12.00"> parsedNode</text>
</g>
<!-- Node3&#45;&gt;Node2 -->
<g id="edge2" class="edge">
<title>Node3&#45;&gt;Node2</title>
<path fill="none" stroke="#9a32cd" stroke-dasharray="5,2" d="M243.2,-29.81C236.71,-37.8 228.24,-46.8 219,-53 207.05,-61.01 192.53,-67.04 179.28,-71.41"/>
<polygon fill="#9a32cd" stroke="#9a32cd" points="246.1,-31.78 249.42,-21.72 240.55,-27.51 246.1,-31.78"/>
<text text-anchor="middle" x="282.5" y="-43.4" font-family="Helvetica,sans-Serif" font-size="12.00"> parentMathText</text>
</g>
<!-- Node4 -->
<g id="node4" class="node">
<title>Node4</title>
<g id="a_node4"><a xlink:title=" ">
<polygon fill="none" stroke="black" points="320.5,-71.5 320.5,-92.5 385.5,-92.5 385.5,-71.5 320.5,-71.5"/>
<text text-anchor="middle" x="353" y="-78.9" font-family="Helvetica,sans-Serif" font-size="12.00">QObject</text>
</a>
</g>
</g>
<!-- Node4&#45;&gt;Node3 -->
<g id="edge3" class="edge">
<title>Node4&#45;&gt;Node3</title>
<path fill="none" stroke="midnightblue" d="M350.11,-61.36C348.11,-53.83 344.72,-45.7 339,-40 329.95,-30.98 317.9,-24.87 305.8,-20.72"/>
<polygon fill="midnightblue" stroke="midnightblue" points="346.7,-62.16 352.12,-71.26 353.56,-60.77 346.7,-62.16"/>
</g>
</g>
</svg>
