<?xml version="1.0" encoding="UTF-8" standalone="no"?>
<!DOCTYPE svg PUBLIC "-//W3C//DTD SVG 1.1//EN"
 "http://www.w3.org/Graphics/SVG/1.1/DTD/svg11.dtd">
<!-- Generated by graphviz version 2.43.0 (0)
 -->
<!-- Title: JKQTFPQOverlayLinearGridPlot Pages: 1 -->
<svg width="335pt" height="223pt"
 viewBox="0.00 0.00 334.50 223.00" xmlns="http://www.w3.org/2000/svg" xmlns:xlink="http://www.w3.org/1999/xlink">
<g id="graph0" class="graph" transform="scale(1 1) rotate(0) translate(4 219)">
<title>JKQTFPQOverlayLinearGridPlot</title>
<!-- Node1 -->
<g id="node1" class="node">
<title>Node1</title>
<g id="a_node1"><a xlink:title="plot a horizontal scale bar">
<polygon fill="#bfbfbf" stroke="black" points="0,-0.5 0,-21.5 200,-21.5 200,-0.5 0,-0.5"/>
<text text-anchor="middle" x="100" y="-7.9" font-family="Helvetica,sans-Serif" font-size="12.00">JKQTFPQOverlayLinearGridPlot</text>
</a>
</g>
</g>
<!-- Node2 -->
<g id="node2" class="node">
<title>Node2</title>
<g id="a_node2"><a xlink:href="class_j_k_q_t_f_p_plot.html" target="_top" xlink:title="base class for all plots that may be plotted by JKQTFastPlotter">
<polygon fill="none" stroke="black" points="59,-59.5 59,-80.5 141,-80.5 141,-59.5 59,-59.5"/>
<text text-anchor="middle" x="100" y="-66.9" font-family="Helvetica,sans-Serif" font-size="12.00">JKQTFPPlot</text>
</a>
</g>
</g>
<!-- Node2&#45;&gt;Node1 -->
<g id="edge1" class="edge">
<title>Node2&#45;&gt;Node1</title>
<path fill="none" stroke="midnightblue" d="M100,-49.23C100,-39.85 100,-29.07 100,-21.53"/>
<polygon fill="midnightblue" stroke="midnightblue" points="96.5,-49.33 100,-59.33 103.5,-49.33 96.5,-49.33"/>
</g>
<!-- Node3 -->
<g id="node3" class="node">
<title>Node3</title>
<g id="a_node3"><a xlink:title=" ">
<polygon fill="none" stroke="black" points="33.5,-132.5 33.5,-153.5 98.5,-153.5 98.5,-132.5 33.5,-132.5"/>
<text text-anchor="middle" x="66" y="-139.9" font-family="Helvetica,sans-Serif" font-size="12.00">QObject</text>
</a>
</g>
</g>
<!-- Node3&#45;&gt;Node2 -->
<g id="edge2" class="edge">
<title>Node3&#45;&gt;Node2</title>
<path fill="none" stroke="midnightblue" d="M75.08,-123.04C81.58,-109.47 90.06,-91.75 95.27,-80.88"/>
<polygon fill="midnightblue" stroke="midnightblue" points="71.75,-121.89 70.59,-132.42 78.06,-124.92 71.75,-121.89"/>
</g>
<!-- Node4 -->
<g id="node4" class="node">
<title>Node4</title>
<g id="a_node4"><a xlink:href="class_j_k_q_t_fast_plotter.html" target="_top" xlink:title="a speed optimized plotter class">
<polygon fill="none" stroke="black" points="116.5,-132.5 116.5,-153.5 225.5,-153.5 225.5,-132.5 116.5,-132.5"/>
<text text-anchor="middle" x="171" y="-139.9" font-family="Helvetica,sans-Serif" font-size="12.00">JKQTFastPlotter</text>
</a>
</g>
</g>
<!-- Node4&#45;&gt;Node2 -->
<g id="edge3" class="edge">
<title>Node4&#45;&gt;Node2</title>
<path fill="none" stroke="#9a32cd" stroke-dasharray="5,2" d="M154,-125C140.22,-111.22 121.28,-92.28 109.88,-80.88"/>
<polygon fill="#9a32cd" stroke="#9a32cd" points="151.88,-127.83 161.42,-132.42 156.83,-122.88 151.88,-127.83"/>
<text text-anchor="middle" x="160.5" y="-102.4" font-family="Helvetica,sans-Serif" font-size="12.00"> parent</text>
</g>
<!-- Node4&#45;&gt;Node4 -->
<g id="edge5" class="edge">
<title>Node4&#45;&gt;Node4</title>
<path fill="none" stroke="#9a32cd" stroke-dasharray="5,2" d="M235.91,-147.15C240.62,-146.22 243.5,-144.83 243.5,-143 243.5,-140.07 236.12,-138.29 225.7,-137.64"/>
<polygon fill="#9a32cd" stroke="#9a32cd" points="235.22,-143.71 225.7,-148.36 236.04,-150.66 235.22,-143.71"/>
<text text-anchor="middle" x="285" y="-146.4" font-family="Helvetica,sans-Serif" font-size="12.00"> synchronizeX</text>
<text text-anchor="middle" x="285" y="-133.4" font-family="Helvetica,sans-Serif" font-size="12.00">synchronizeY</text>
</g>
<!-- Node5 -->
<g id="node5" class="node">
<title>Node5</title>
<g id="a_node5"><a xlink:title=" ">
<polygon fill="none" stroke="black" points="114,-193.5 114,-214.5 228,-214.5 228,-193.5 114,-193.5"/>
<text text-anchor="middle" x="171" y="-200.9" font-family="Helvetica,sans-Serif" font-size="12.00">QOpenGLWidget</text>
</a>
</g>
</g>
<!-- Node5&#45;&gt;Node4 -->
<g id="edge4" class="edge">
<title>Node5&#45;&gt;Node4</title>
<path fill="none" stroke="midnightblue" d="M171,-182.99C171,-173.05 171,-161.5 171,-153.56"/>
<polygon fill="midnightblue" stroke="midnightblue" points="167.5,-183.26 171,-193.26 174.5,-183.26 167.5,-183.26"/>
</g>
</g>
</svg>
