<?xml version="1.0" encoding="UTF-8" standalone="no"?>
<!DOCTYPE svg PUBLIC "-//W3C//DTD SVG 1.1//EN"
 "http://www.w3.org/Graphics/SVG/1.1/DTD/svg11.dtd">
<!-- Generated by graphviz version 2.43.0 (0)
 -->
<!-- Title: JKQTPSingleColumnSymbolsGraph Pages: 1 -->
<svg width="3464pt" height="816pt"
 viewBox="0.00 0.00 3464.00 815.50" xmlns="http://www.w3.org/2000/svg" xmlns:xlink="http://www.w3.org/1999/xlink">
<g id="graph0" class="graph" transform="scale(1 1) rotate(0) translate(4 811.5)">
<title>JKQTPSingleColumnSymbolsGraph</title>
<!-- Node1 -->
<g id="node1" class="node">
<title>Node1</title>
<g id="a_node1"><a xlink:title="plots a 1&#45;column set of data&#45;values with symbols onto a JKQtPlotter/JKQtBasePlotter....">
<polygon fill="#999999" stroke="#666666" points="3456,-215.5 3271,-215.5 3271,-181.5 3456,-181.5 3456,-215.5"/>
<text text-anchor="start" x="3279" y="-201.9" font-family="Helvetica,sans-Serif" font-size="12.00">JKQTPSingleColumnSymbols</text>
<text text-anchor="middle" x="3363.5" y="-188.9" font-family="Helvetica,sans-Serif" font-size="12.00">Graph</text>
</a>
</g>
</g>
<!-- Node2 -->
<g id="node2" class="node">
<title>Node2</title>
<g id="a_node2"><a xlink:href="class_j_k_q_t_p_single_column_graph.html" target="_top" xlink:title="This virtual JKQTPGraph descendent may be used as base for all graphs that use at least one column of...">
<polygon fill="white" stroke="#666666" points="3222.5,-170 3051.5,-170 3051.5,-149 3222.5,-149 3222.5,-170"/>
<text text-anchor="middle" x="3137" y="-156.4" font-family="Helvetica,sans-Serif" font-size="12.00">JKQTPSingleColumnGraph</text>
</a>
</g>
</g>
<!-- Node2&#45;&gt;Node1 -->
<g id="edge1" class="edge">
<title>Node2&#45;&gt;Node1</title>
<path fill="none" stroke="#63b8ff" d="M3208.56,-171.76C3228.26,-175.18 3249.95,-178.95 3270.68,-182.55"/>
<polygon fill="#63b8ff" stroke="#63b8ff" points="3208.91,-168.27 3198.46,-170 3207.71,-175.16 3208.91,-168.27"/>
</g>
<!-- Node3 -->
<g id="node3" class="node">
<title>Node3</title>
<g id="a_node3"><a xlink:href="class_j_k_q_t_p_graph.html" target="_top" xlink:title="this virtual base class of the (data&#45;column based) graphs, which are part of a JKQTPlotter plot and w...">
<polygon fill="white" stroke="#666666" points="2964,-170 2875,-170 2875,-149 2964,-149 2964,-170"/>
<text text-anchor="middle" x="2919.5" y="-156.4" font-family="Helvetica,sans-Serif" font-size="12.00">JKQTPGraph</text>
</a>
</g>
</g>
<!-- Node3&#45;&gt;Node2 -->
<g id="edge2" class="edge">
<title>Node3&#45;&gt;Node2</title>
<path fill="none" stroke="#63b8ff" d="M2974.15,-159.5C2997.51,-159.5 3025.44,-159.5 3051.47,-159.5"/>
<polygon fill="#63b8ff" stroke="#63b8ff" points="2974.11,-156 2964.11,-159.5 2974.11,-163 2974.11,-156"/>
</g>
<!-- Node4 -->
<g id="node4" class="node">
<title>Node4</title>
<g id="a_node4"><a xlink:href="class_j_k_q_t_p_plot_element.html" target="_top" xlink:title="this virtual base class of every element, which is part of a JKQTPlotter plot and may appear in its k...">
<polygon fill="white" stroke="#666666" points="2720,-170 2595,-170 2595,-149 2720,-149 2720,-170"/>
<text text-anchor="middle" x="2657.5" y="-156.4" font-family="Helvetica,sans-Serif" font-size="12.00">JKQTPPlotElement</text>
</a>
</g>
</g>
<!-- Node4&#45;&gt;Node3 -->
<g id="edge3" class="edge">
<title>Node4&#45;&gt;Node3</title>
<path fill="none" stroke="#63b8ff" d="M2730.4,-159.5C2776.71,-159.5 2835.4,-159.5 2874.81,-159.5"/>
<polygon fill="#63b8ff" stroke="#63b8ff" points="2730.12,-156 2720.12,-159.5 2730.12,-163 2730.12,-156"/>
</g>
<!-- Node5 -->
<g id="node5" class="node">
<title>Node5</title>
<g id="a_node5"><a xlink:title=" ">
<polygon fill="white" stroke="#666666" points="1507.5,-198 1442.5,-198 1442.5,-177 1507.5,-177 1507.5,-198"/>
<text text-anchor="middle" x="1475" y="-184.4" font-family="Helvetica,sans-Serif" font-size="12.00">QObject</text>
</a>
</g>
</g>
<!-- Node5&#45;&gt;Node4 -->
<g id="edge4" class="edge">
<title>Node5&#45;&gt;Node4</title>
<path fill="none" stroke="#63b8ff" d="M1517.4,-175.83C1538.87,-170.35 1565.64,-164.39 1590,-161.5 1955.9,-118.07 2050.54,-153.72 2419,-151.5 2469.22,-151.2 2481.8,-149.89 2532,-151.5 2552.46,-152.16 2574.78,-153.42 2594.8,-154.75"/>
<polygon fill="#63b8ff" stroke="#63b8ff" points="1516.41,-172.47 1507.62,-178.39 1518.18,-179.24 1516.41,-172.47"/>
</g>
<!-- Node6 -->
<g id="node6" class="node">
<title>Node6</title>
<g id="a_node6"><a xlink:href="class_j_k_q_t_base_plotter.html" target="_top" xlink:title="base class for 2D plotter classes (used by the plotter widget JKQTPlotter)">
<polygon fill="white" stroke="#666666" points="2386.5,-388 2272.5,-388 2272.5,-367 2386.5,-367 2386.5,-388"/>
<text text-anchor="middle" x="2329.5" y="-374.4" font-family="Helvetica,sans-Serif" font-size="12.00">JKQTBasePlotter</text>
</a>
</g>
</g>
<!-- Node5&#45;&gt;Node6 -->
<g id="edge6" class="edge">
<title>Node5&#45;&gt;Node6</title>
<path fill="none" stroke="#63b8ff" d="M1511.25,-201.63C1533.53,-210.12 1563.1,-220.58 1590,-227.5 1686.45,-252.3 1712.73,-248.34 1811,-264.5 1923.84,-283.05 1967.72,-245.4 2065,-305.5 2076.65,-312.7 2071.41,-323.21 2083,-330.5 2142.99,-368.25 2170.45,-344.84 2240,-358.5 2253.26,-361.11 2267.6,-364.1 2280.8,-366.94"/>
<polygon fill="#63b8ff" stroke="#63b8ff" points="1512.46,-198.35 1501.87,-198.01 1509.94,-204.88 1512.46,-198.35"/>
</g>
<!-- Node19 -->
<g id="node19" class="node">
<title>Node19</title>
<g id="a_node19"><a xlink:href="class_j_k_q_t_math_text.html" target="_top" xlink:title="this class parses a mathematical markup string and can then draw the contained text/equation onto a Q...">
<polygon fill="white" stroke="#666666" points="1987.5,-255 1888.5,-255 1888.5,-234 1987.5,-234 1987.5,-255"/>
<text text-anchor="middle" x="1938" y="-241.4" font-family="Helvetica,sans-Serif" font-size="12.00">JKQTMathText</text>
</a>
</g>
</g>
<!-- Node5&#45;&gt;Node19 -->
<g id="edge25" class="edge">
<title>Node5&#45;&gt;Node19</title>
<path fill="none" stroke="#63b8ff" d="M1517.79,-192.67C1603.19,-203.23 1797.32,-227.23 1888.27,-238.48"/>
<polygon fill="#63b8ff" stroke="#63b8ff" points="1518.04,-189.17 1507.69,-191.42 1517.18,-196.12 1518.04,-189.17"/>
</g>
<!-- Node26 -->
<g id="node26" class="node">
<title>Node26</title>
<g id="a_node26"><a xlink:href="class_j_k_q_t_p_coordinate_axis.html" target="_top" xlink:title="this virtual class is the base for any type of coordinate axis, to be drawn by JKQTBasePlotter.">
<polygon fill="white" stroke="#666666" points="2728.5,-375 2586.5,-375 2586.5,-354 2728.5,-354 2728.5,-375"/>
<text text-anchor="middle" x="2657.5" y="-361.4" font-family="Helvetica,sans-Serif" font-size="12.00">JKQTPCoordinateAxis</text>
</a>
</g>
</g>
<!-- Node5&#45;&gt;Node26 -->
<g id="edge36" class="edge">
<title>Node5&#45;&gt;Node26</title>
<path fill="none" stroke="#63b8ff" d="M1517.99,-185.77C1675.96,-179.74 2234.09,-162.93 2401,-218.5 2501.1,-251.82 2605.96,-326.38 2642.76,-353.97"/>
<polygon fill="#63b8ff" stroke="#63b8ff" points="1517.6,-182.28 1507.74,-186.17 1517.87,-189.28 1517.6,-182.28"/>
</g>
<!-- Node6&#45;&gt;Node4 -->
<g id="edge5" class="edge">
<title>Node6&#45;&gt;Node4</title>
<path fill="none" stroke="#9a32cd" stroke-dasharray="5,2" d="M2349.43,-359.57C2365.87,-342.82 2388.88,-316.29 2401,-288.5 2422.03,-240.28 2379.95,-206.75 2419,-171.5 2443.94,-148.99 2533.16,-150.25 2594.85,-154.16"/>
<polygon fill="#9a32cd" stroke="#9a32cd" points="2346.61,-357.44 2341.97,-366.97 2351.54,-362.41 2346.61,-357.44"/>
<text text-anchor="middle" x="2475.5" y="-174.9" font-family="Helvetica,sans-Serif" font-size="12.00"> parent</text>
</g>
<!-- Node6&#45;&gt;Node6 -->
<g id="edge48" class="edge">
<title>Node6&#45;&gt;Node6</title>
<path fill="none" stroke="#9a32cd" stroke-dasharray="5,2" d="M2302.59,-397.57C2304.67,-402.41 2313.64,-406 2329.5,-406 2354.88,-406 2362.61,-396.81 2352.7,-388.02"/>
<polygon fill="#9a32cd" stroke="#9a32cd" points="2305.95,-398.61 2306.3,-388.02 2299.42,-396.08 2305.95,-398.61"/>
<text text-anchor="middle" x="2329.5" y="-422.4" font-family="Helvetica,sans-Serif" font-size="12.00"> masterPlotterX</text>
<text text-anchor="middle" x="2329.5" y="-409.4" font-family="Helvetica,sans-Serif" font-size="12.00">masterPlotterY</text>
</g>
<!-- Node22 -->
<g id="node22" class="node">
<title>Node22</title>
<g id="a_node22"><a xlink:href="class_j_k_q_t_p_graphs_model.html" target="_top" xlink:title="data model with all plots ina JKQTBasePlotter (+ allows to switch them visible/invisible)">
<polygon fill="white" stroke="#666666" points="2723,-447 2592,-447 2592,-426 2723,-426 2723,-447"/>
<text text-anchor="middle" x="2657.5" y="-433.4" font-family="Helvetica,sans-Serif" font-size="12.00">JKQTPGraphsModel</text>
</a>
</g>
</g>
<!-- Node6&#45;&gt;Node22 -->
<g id="edge32" class="edge">
<title>Node6&#45;&gt;Node22</title>
<path fill="none" stroke="#9a32cd" stroke-dasharray="5,2" d="M2396.61,-380.64C2436.19,-383.37 2487.32,-388.39 2532,-397.5 2565.73,-404.38 2603.3,-416.84 2628.25,-425.83"/>
<polygon fill="#9a32cd" stroke="#9a32cd" points="2396.76,-377.15 2386.55,-379.98 2396.3,-384.13 2396.76,-377.15"/>
<text text-anchor="middle" x="2475.5" y="-400.9" font-family="Helvetica,sans-Serif" font-size="12.00"> m_plotter</text>
</g>
<!-- Node6&#45;&gt;Node26 -->
<g id="edge37" class="edge">
<title>Node6&#45;&gt;Node26</title>
<path fill="none" stroke="#9a32cd" stroke-dasharray="5,2" d="M2396.73,-367.56C2404.23,-366.72 2411.77,-366 2419,-365.5 2475.15,-361.59 2538.94,-361.57 2586.26,-362.4"/>
<polygon fill="#9a32cd" stroke="#9a32cd" points="2396.08,-364.12 2386.57,-368.77 2396.91,-371.07 2396.08,-364.12"/>
<text text-anchor="middle" x="2475.5" y="-368.9" font-family="Helvetica,sans-Serif" font-size="12.00"> parent</text>
</g>
<!-- Node7 -->
<g id="node7" class="node">
<title>Node7</title>
<g id="a_node7"><a xlink:href="class_j_k_q_t_base_plotter_style.html" target="_top" xlink:title="Support Class for JKQTBasePlotter, which summarizes all properties that define the visual styling of ...">
<polygon fill="white" stroke="#666666" points="2009.5,-618 1866.5,-618 1866.5,-597 2009.5,-597 2009.5,-618"/>
<text text-anchor="middle" x="1938" y="-604.4" font-family="Helvetica,sans-Serif" font-size="12.00">JKQTBasePlotterStyle</text>
</a>
</g>
</g>
<!-- Node7&#45;&gt;Node6 -->
<g id="edge7" class="edge">
<title>Node7&#45;&gt;Node6</title>
<path fill="none" stroke="#9a32cd" stroke-dasharray="5,2" d="M1973.61,-592.79C2031.11,-567.68 2149,-513.33 2240,-452.5 2270.14,-432.35 2301.65,-403.46 2317.7,-388.08"/>
<polygon fill="#9a32cd" stroke="#9a32cd" points="1972.04,-589.66 1964.25,-596.85 1974.82,-596.08 1972.04,-589.66"/>
<text text-anchor="middle" x="2161.5" y="-541.9" font-family="Helvetica,sans-Serif" font-size="12.00"> plotterStyle</text>
</g>
<!-- Node8 -->
<g id="node8" class="node">
<title>Node8</title>
<g id="a_node8"><a xlink:href="class_j_k_q_t_p_key_style.html" target="_top" xlink:title="Support Class for JKQTBasePlotter, which summarizes all properties that define the visual styling of ...">
<polygon fill="white" stroke="#666666" points="1527,-706 1423,-706 1423,-685 1527,-685 1527,-706"/>
<text text-anchor="middle" x="1475" y="-692.4" font-family="Helvetica,sans-Serif" font-size="12.00">JKQTPKeyStyle</text>
</a>
</g>
</g>
<!-- Node8&#45;&gt;Node7 -->
<g id="edge8" class="edge">
<title>Node8&#45;&gt;Node7</title>
<path fill="none" stroke="#9a32cd" stroke-dasharray="5,2" d="M1537.02,-695.62C1601.52,-694.47 1705.8,-688.97 1793,-667.5 1839.28,-656.1 1889.99,-632.02 1917.16,-618.08"/>
<polygon fill="#9a32cd" stroke="#9a32cd" points="1536.96,-692.12 1527.02,-695.76 1537.07,-699.11 1536.96,-692.12"/>
<text text-anchor="middle" x="1691.5" y="-696.9" font-family="Helvetica,sans-Serif" font-size="12.00"> keyStyle</text>
</g>
<!-- Node9 -->
<g id="node9" class="node">
<title>Node9</title>
<g id="a_node9"><a xlink:href="class_j_k_q_t_p_coordinate_axis_style.html" target="_top" xlink:title="Support Class for JKQTPCoordinateAxis, which summarizes all properties that define the visual styling...">
<polygon fill="white" stroke="#666666" points="1234,-559 1063,-559 1063,-538 1234,-538 1234,-559"/>
<text text-anchor="middle" x="1148.5" y="-545.4" font-family="Helvetica,sans-Serif" font-size="12.00">JKQTPCoordinateAxisStyle</text>
</a>
</g>
</g>
<!-- Node9&#45;&gt;Node7 -->
<g id="edge9" class="edge">
<title>Node9&#45;&gt;Node7</title>
<path fill="none" stroke="#9a32cd" stroke-dasharray="5,2" d="M1244.45,-547.41C1330.18,-547.17 1459.72,-548.64 1572,-557.5 1679.6,-565.99 1803.94,-585.01 1876.2,-596.99"/>
<polygon fill="#9a32cd" stroke="#9a32cd" points="1244.2,-543.91 1234.21,-547.45 1244.23,-550.91 1244.2,-543.91"/>
<text text-anchor="middle" x="1475" y="-573.9" font-family="Helvetica,sans-Serif" font-size="12.00"> xAxisStyle</text>
<text text-anchor="middle" x="1475" y="-560.9" font-family="Helvetica,sans-Serif" font-size="12.00">yAxisStyle</text>
</g>
<!-- Node11 -->
<g id="node11" class="node">
<title>Node11</title>
<g id="a_node11"><a xlink:href="class_j_k_q_t_p_colorbar_coordinate_axis_style.html" target="_top" xlink:title="Support Class for JKQTPCoordinateAxis, which summarizes all properties that define the visual styling...">
<polygon fill="white" stroke="#666666" points="1572,-626.5 1378,-626.5 1378,-592.5 1572,-592.5 1572,-626.5"/>
<text text-anchor="start" x="1386" y="-612.9" font-family="Helvetica,sans-Serif" font-size="12.00">JKQTPColorbarCoordinateAxis</text>
<text text-anchor="middle" x="1475" y="-599.9" font-family="Helvetica,sans-Serif" font-size="12.00">Style</text>
</a>
</g>
</g>
<!-- Node9&#45;&gt;Node11 -->
<g id="edge12" class="edge">
<title>Node9&#45;&gt;Node11</title>
<path fill="none" stroke="#63b8ff" d="M1217.1,-560.89C1258.39,-568.49 1312.26,-578.47 1360,-587.5 1368.52,-589.11 1377.39,-590.8 1386.26,-592.5"/>
<polygon fill="#63b8ff" stroke="#63b8ff" points="1217.62,-557.43 1207.15,-559.06 1216.35,-564.31 1217.62,-557.43"/>
</g>
<!-- Node9&#45;&gt;Node26 -->
<g id="edge38" class="edge">
<title>Node9&#45;&gt;Node26</title>
<path fill="none" stroke="#9a32cd" stroke-dasharray="5,2" d="M1244.4,-543.38C1505.23,-529.3 2215.36,-490.86 2240,-488.5 2305.2,-482.25 2477.59,-484.96 2532,-448.5 2545.23,-439.63 2538.38,-428.4 2550,-417.5 2571.09,-397.72 2600.97,-383.73 2623.71,-375.1"/>
<polygon fill="#9a32cd" stroke="#9a32cd" points="1243.98,-539.9 1234.19,-543.93 1244.36,-546.89 1243.98,-539.9"/>
<text text-anchor="middle" x="1938" y="-514.9" font-family="Helvetica,sans-Serif" font-size="12.00"> axisStyle</text>
</g>
<!-- Node10 -->
<g id="node10" class="node">
<title>Node10</title>
<g id="a_node10"><a xlink:href="class_j_k_q_t_p_grid_style.html" target="_top" xlink:title="Support Class for JKQTPCoordinateAxis, and summarizes all properties that define the visual styling o...">
<polygon fill="white" stroke="#666666" points="805.5,-559 698.5,-559 698.5,-538 805.5,-538 805.5,-559"/>
<text text-anchor="middle" x="752" y="-545.4" font-family="Helvetica,sans-Serif" font-size="12.00">JKQTPGridStyle</text>
</a>
</g>
</g>
<!-- Node10&#45;&gt;Node9 -->
<g id="edge10" class="edge">
<title>Node10&#45;&gt;Node9</title>
<path fill="none" stroke="#9a32cd" stroke-dasharray="5,2" d="M816.18,-548.5C883.03,-548.5 988.9,-548.5 1062.92,-548.5"/>
<polygon fill="#9a32cd" stroke="#9a32cd" points="815.79,-545 805.79,-548.5 815.79,-552 815.79,-545"/>
<text text-anchor="middle" x="948.5" y="-564.9" font-family="Helvetica,sans-Serif" font-size="12.00"> majorGridStyle</text>
<text text-anchor="middle" x="948.5" y="-551.9" font-family="Helvetica,sans-Serif" font-size="12.00">minorGridStyle</text>
</g>
<!-- Node11&#45;&gt;Node7 -->
<g id="edge11" class="edge">
<title>Node11&#45;&gt;Node7</title>
<path fill="none" stroke="#9a32cd" stroke-dasharray="5,2" d="M1582.25,-608.55C1584.86,-608.53 1587.45,-608.51 1590,-608.5 1685.63,-607.94 1796.1,-607.69 1866.22,-607.58"/>
<polygon fill="#9a32cd" stroke="#9a32cd" points="1582.07,-605.05 1572.1,-608.62 1582.12,-612.05 1582.07,-605.05"/>
<text text-anchor="middle" x="1691.5" y="-624.9" font-family="Helvetica,sans-Serif" font-size="12.00"> rightColorbarAxisStyle</text>
<text text-anchor="middle" x="1691.5" y="-611.9" font-family="Helvetica,sans-Serif" font-size="12.00">topColorbarAxisStyle</text>
</g>
<!-- Node12 -->
<g id="node12" class="node">
<title>Node12</title>
<g id="a_node12"><a xlink:href="class_j_k_q_t_graphs_base_style.html" target="_top" xlink:title="Support Class for JKQTBasePlotter, which summarizes all properties that define the visual styling of ...">
<polygon fill="white" stroke="#666666" points="1548,-667 1402,-667 1402,-646 1548,-646 1548,-667"/>
<text text-anchor="middle" x="1475" y="-653.4" font-family="Helvetica,sans-Serif" font-size="12.00">JKQTGraphsBaseStyle</text>
</a>
</g>
</g>
<!-- Node12&#45;&gt;Node7 -->
<g id="edge13" class="edge">
<title>Node12&#45;&gt;Node7</title>
<path fill="none" stroke="#9a32cd" stroke-dasharray="5,2" d="M1558.37,-653.41C1622.5,-650.37 1713.66,-644.66 1793,-634.5 1825.04,-630.4 1860.73,-623.72 1888.56,-618.03"/>
<polygon fill="#9a32cd" stroke="#9a32cd" points="1558.14,-649.91 1548.31,-653.87 1558.46,-656.91 1558.14,-649.91"/>
<text text-anchor="middle" x="1691.5" y="-653.9" font-family="Helvetica,sans-Serif" font-size="12.00"> graphsStyle</text>
</g>
<!-- Node13 -->
<g id="node13" class="node">
<title>Node13</title>
<g id="a_node13"><a xlink:href="class_j_k_q_t_graphs_specific_style_properties.html" target="_top" xlink:title="Support Class for JKQTBasePlotter, which summarizes all properties that define the visual styling of ...">
<polygon fill="white" stroke="#666666" points="623,-689 399,-689 399,-668 623,-668 623,-689"/>
<text text-anchor="middle" x="511" y="-675.4" font-family="Helvetica,sans-Serif" font-size="12.00">JKQTGraphsSpecificStyleProperties</text>
</a>
</g>
</g>
<!-- Node13&#45;&gt;Node12 -->
<g id="edge14" class="edge">
<title>Node13&#45;&gt;Node12</title>
<path fill="none" stroke="#9a32cd" stroke-dasharray="5,2" d="M554.76,-664.78C620.12,-644.59 749.2,-607.85 862,-594.5 938.36,-585.47 958.3,-589.11 1035,-594.5 1173.4,-604.22 1334.54,-630.99 1417.79,-645.98"/>
<polygon fill="#9a32cd" stroke="#9a32cd" points="553.33,-661.55 544.83,-667.87 555.42,-668.24 553.33,-661.55"/>
<text text-anchor="middle" x="948.5" y="-623.9" font-family="Helvetica,sans-Serif" font-size="12.00"> boxplotStyle</text>
<text text-anchor="middle" x="948.5" y="-610.9" font-family="Helvetica,sans-Serif" font-size="12.00">defaultGraphStyle</text>
<text text-anchor="middle" x="948.5" y="-597.9" font-family="Helvetica,sans-Serif" font-size="12.00">filledStyle</text>
</g>
<!-- Node15 -->
<g id="node15" class="node">
<title>Node15</title>
<g id="a_node15"><a xlink:href="class_j_k_q_t_barchart_specific_style_properties.html" target="_top" xlink:title="Support Class for JKQTBasePlotter, which summarizes all properties that define the visual styling of ...">
<polygon fill="white" stroke="#666666" points="1035,-715.5 862,-715.5 862,-681.5 1035,-681.5 1035,-715.5"/>
<text text-anchor="start" x="870" y="-701.9" font-family="Helvetica,sans-Serif" font-size="12.00">JKQTBarchartSpecificStyle</text>
<text text-anchor="middle" x="948.5" y="-688.9" font-family="Helvetica,sans-Serif" font-size="12.00">Properties</text>
</a>
</g>
</g>
<!-- Node13&#45;&gt;Node15 -->
<g id="edge17" class="edge">
<title>Node13&#45;&gt;Node15</title>
<path fill="none" stroke="#63b8ff" d="M633.15,-684.06C705.82,-687.4 796.5,-691.57 861.76,-694.56"/>
<polygon fill="#63b8ff" stroke="#63b8ff" points="633.17,-680.56 623.02,-683.6 632.85,-687.55 633.17,-680.56"/>
</g>
<!-- Node16 -->
<g id="node16" class="node">
<title>Node16</title>
<g id="a_node16"><a xlink:href="class_j_k_q_t_impulse_specific_style_properties.html" target="_top" xlink:title="Support Class for JKQTBasePlotter, which summarizes all properties that define the visual styling of ...">
<polygon fill="white" stroke="#666666" points="1032.5,-676.5 864.5,-676.5 864.5,-642.5 1032.5,-642.5 1032.5,-676.5"/>
<text text-anchor="start" x="872.5" y="-662.9" font-family="Helvetica,sans-Serif" font-size="12.00">JKQTImpulseSpecificStyle</text>
<text text-anchor="middle" x="948.5" y="-649.9" font-family="Helvetica,sans-Serif" font-size="12.00">Properties</text>
</a>
</g>
</g>
<!-- Node13&#45;&gt;Node16 -->
<g id="edge19" class="edge">
<title>Node13&#45;&gt;Node16</title>
<path fill="none" stroke="#63b8ff" d="M633.27,-673.21C706.83,-670 798.8,-665.99 864.19,-663.13"/>
<polygon fill="#63b8ff" stroke="#63b8ff" points="632.86,-669.72 623.02,-673.66 633.16,-676.72 632.86,-669.72"/>
</g>
<!-- Node17 -->
<g id="node17" class="node">
<title>Node17</title>
<g id="a_node17"><a xlink:href="class_j_k_q_t_geometric_specific_style_properties.html" target="_top" xlink:title="Support Class for JKQTBasePlotter, which summarizes all properties that define the visual styling of ...">
<polygon fill="white" stroke="#666666" points="844,-759.5 660,-759.5 660,-725.5 844,-725.5 844,-759.5"/>
<text text-anchor="start" x="668" y="-745.9" font-family="Helvetica,sans-Serif" font-size="12.00">JKQTGeometricSpecificStyle</text>
<text text-anchor="middle" x="752" y="-732.9" font-family="Helvetica,sans-Serif" font-size="12.00">Properties</text>
</a>
</g>
</g>
<!-- Node13&#45;&gt;Node17 -->
<g id="edge21" class="edge">
<title>Node13&#45;&gt;Node17</title>
<path fill="none" stroke="#63b8ff" d="M561.37,-691.72C597.8,-701.48 647.69,-714.84 687.16,-725.4"/>
<polygon fill="#63b8ff" stroke="#63b8ff" points="562.03,-688.27 551.47,-689.07 560.22,-695.04 562.03,-688.27"/>
</g>
<!-- Node14 -->
<g id="node14" class="node">
<title>Node14</title>
<g id="a_node14"><a xlink:href="struct_j_k_q_t_p_color_derivation_mode.html" target="_top" xlink:title="Specifies how a fill&#45;color is derived from a given color.">
<polygon fill="white" stroke="#666666" points="179,-689 0,-689 0,-668 179,-668 179,-689"/>
<text text-anchor="middle" x="89.5" y="-675.4" font-family="Helvetica,sans-Serif" font-size="12.00">JKQTPColorDerivationMode</text>
</a>
</g>
</g>
<!-- Node14&#45;&gt;Node13 -->
<g id="edge15" class="edge">
<title>Node14&#45;&gt;Node13</title>
<path fill="none" stroke="#9a32cd" stroke-dasharray="5,2" d="M189.53,-678.5C252.41,-678.5 333.9,-678.5 398.97,-678.5"/>
<polygon fill="#9a32cd" stroke="#9a32cd" points="189.21,-675 179.21,-678.5 189.21,-682 189.21,-675"/>
<text text-anchor="middle" x="289" y="-733.9" font-family="Helvetica,sans-Serif" font-size="12.00"> errorColorDerivationMode</text>
<text text-anchor="middle" x="289" y="-720.9" font-family="Helvetica,sans-Serif" font-size="12.00">errorFillColorDerivationMode</text>
<text text-anchor="middle" x="289" y="-707.9" font-family="Helvetica,sans-Serif" font-size="12.00">fillColorDerivationMode</text>
<text text-anchor="middle" x="289" y="-694.9" font-family="Helvetica,sans-Serif" font-size="12.00">graphColorDerivationMode</text>
<text text-anchor="middle" x="289" y="-681.9" font-family="Helvetica,sans-Serif" font-size="12.00">symbolFillColorDerivationMode</text>
</g>
<!-- Node15&#45;&gt;Node12 -->
<g id="edge16" class="edge">
<title>Node15&#45;&gt;Node12</title>
<path fill="none" stroke="#9a32cd" stroke-dasharray="5,2" d="M1045.51,-693.42C1128.78,-688.67 1252.49,-680.76 1360,-670.5 1373.5,-669.21 1387.87,-667.62 1401.7,-665.98"/>
<polygon fill="#9a32cd" stroke="#9a32cd" points="1045.09,-689.94 1035.31,-694 1045.49,-696.93 1045.09,-689.94"/>
<text text-anchor="middle" x="1148.5" y="-695.9" font-family="Helvetica,sans-Serif" font-size="12.00"> barchartStyle</text>
</g>
<!-- Node16&#45;&gt;Node12 -->
<g id="edge18" class="edge">
<title>Node16&#45;&gt;Node12</title>
<path fill="none" stroke="#9a32cd" stroke-dasharray="5,2" d="M1042.55,-658.58C1046.08,-658.55 1049.57,-658.52 1053,-658.5 1175.42,-657.62 1317.88,-657.03 1401.74,-656.74"/>
<polygon fill="#9a32cd" stroke="#9a32cd" points="1042.51,-655.08 1032.54,-658.66 1042.57,-662.08 1042.51,-655.08"/>
<text text-anchor="middle" x="1148.5" y="-661.9" font-family="Helvetica,sans-Serif" font-size="12.00"> impulseStyle</text>
</g>
<!-- Node17&#45;&gt;Node12 -->
<g id="edge20" class="edge">
<title>Node17&#45;&gt;Node12</title>
<path fill="none" stroke="#9a32cd" stroke-dasharray="5,2" d="M854.48,-751.02C978.51,-757.55 1192.52,-756.08 1360,-688.5 1368.92,-684.9 1369.13,-680.21 1378,-676.5 1387.11,-672.68 1397.02,-669.57 1406.89,-667.04"/>
<polygon fill="#9a32cd" stroke="#9a32cd" points="854.42,-747.51 844.24,-750.45 854.03,-754.5 854.42,-747.51"/>
<text text-anchor="middle" x="1148.5" y="-752.9" font-family="Helvetica,sans-Serif" font-size="12.00"> geometricStyle</text>
</g>
<!-- Node18 -->
<g id="node18" class="node">
<title>Node18</title>
<g id="a_node18"><a xlink:href="class_j_k_q_t_annotations_specific_style_properties.html" target="_top" xlink:title="Support Class for JKQTBasePlotter, which summarizes all properties that define the visual styling of ...">
<polygon fill="white" stroke="#666666" points="1244,-807.5 1053,-807.5 1053,-773.5 1244,-773.5 1244,-807.5"/>
<text text-anchor="start" x="1061" y="-793.9" font-family="Helvetica,sans-Serif" font-size="12.00">JKQTAnnotationsSpecificStyle</text>
<text text-anchor="middle" x="1148.5" y="-780.9" font-family="Helvetica,sans-Serif" font-size="12.00">Properties</text>
</a>
</g>
</g>
<!-- Node17&#45;&gt;Node18 -->
<g id="edge23" class="edge">
<title>Node17&#45;&gt;Node18</title>
<path fill="none" stroke="#63b8ff" d="M854.33,-755.55C856.91,-755.87 859.47,-756.19 862,-756.5 925.66,-764.38 997.34,-772.91 1052.96,-779.46"/>
<polygon fill="#63b8ff" stroke="#63b8ff" points="854.64,-752.06 844.28,-754.29 853.77,-759 854.64,-752.06"/>
</g>
<!-- Node18&#45;&gt;Node12 -->
<g id="edge22" class="edge">
<title>Node18&#45;&gt;Node12</title>
<path fill="none" stroke="#9a32cd" stroke-dasharray="5,2" d="M1254.14,-796.69C1291.81,-793.47 1331.91,-782.93 1360,-756.5 1386.55,-731.53 1352.03,-702.06 1378,-676.5 1384.67,-669.93 1392.91,-665.26 1401.73,-661.98"/>
<polygon fill="#9a32cd" stroke="#9a32cd" points="1253.84,-793.2 1244.11,-797.38 1254.33,-800.19 1253.84,-793.2"/>
<text text-anchor="middle" x="1311" y="-797.9" font-family="Helvetica,sans-Serif" font-size="12.00"> annotationStyle</text>
</g>
<!-- Node19&#45;&gt;Node6 -->
<g id="edge24" class="edge">
<title>Node19&#45;&gt;Node6</title>
<path fill="none" stroke="#9a32cd" stroke-dasharray="5,2" d="M1997.78,-248.56C2020.14,-252.22 2045.02,-259 2065,-271.5 2076.01,-278.38 2071.77,-287.98 2083,-294.5 2143.99,-329.91 2174.27,-291.96 2240,-317.5 2270.28,-329.27 2300.52,-352.98 2316.62,-366.81"/>
<polygon fill="#9a32cd" stroke="#9a32cd" points="1998.11,-245.07 1987.71,-247.09 1997.1,-252 1998.11,-245.07"/>
<text text-anchor="middle" x="2161.5" y="-320.9" font-family="Helvetica,sans-Serif" font-size="12.00"> mathText</text>
</g>
<!-- Node20 -->
<g id="node20" class="node">
<title>Node20</title>
<g id="a_node20"><a xlink:href="class_j_k_q_t_math_text_node.html" target="_top" xlink:title="subclass representing one node in the syntax tree">
<polygon fill="white" stroke="#666666" points="2395,-248 2264,-248 2264,-227 2395,-227 2395,-248"/>
<text text-anchor="middle" x="2329.5" y="-234.4" font-family="Helvetica,sans-Serif" font-size="12.00">JKQTMathTextNode</text>
</a>
</g>
</g>
<!-- Node19&#45;&gt;Node20 -->
<g id="edge27" class="edge">
<title>Node19&#45;&gt;Node20</title>
<path fill="none" stroke="#9a32cd" stroke-dasharray="5,2" d="M1997.73,-243.44C2069.24,-242.16 2189.63,-240 2263.76,-238.66"/>
<polygon fill="#9a32cd" stroke="#9a32cd" points="1997.48,-239.95 1987.54,-243.63 1997.6,-246.95 1997.48,-239.95"/>
<text text-anchor="middle" x="2161.5" y="-244.9" font-family="Helvetica,sans-Serif" font-size="12.00"> parentMathText</text>
</g>
<!-- Node20&#45;&gt;Node19 -->
<g id="edge26" class="edge">
<title>Node20&#45;&gt;Node19</title>
<path fill="none" stroke="#9a32cd" stroke-dasharray="5,2" d="M2292.84,-223.47C2276.94,-217.94 2257.81,-212.25 2240,-209.5 2171.04,-198.85 2152.28,-201.2 2083,-209.5 2044.43,-214.12 2001.26,-225.47 1972.34,-234"/>
<polygon fill="#9a32cd" stroke="#9a32cd" points="2291.69,-226.78 2302.29,-226.87 2294.06,-220.19 2291.69,-226.78"/>
<text text-anchor="middle" x="2161.5" y="-212.9" font-family="Helvetica,sans-Serif" font-size="12.00"> parsedNode</text>
</g>
<!-- Node20&#45;&gt;Node20 -->
<g id="edge28" class="edge">
<title>Node20&#45;&gt;Node20</title>
<path fill="none" stroke="#9a32cd" stroke-dasharray="5,2" d="M2302.59,-257.57C2304.67,-262.41 2313.64,-266 2329.5,-266 2354.88,-266 2362.61,-256.81 2352.7,-248.02"/>
<polygon fill="#9a32cd" stroke="#9a32cd" points="2305.95,-258.61 2306.3,-248.02 2299.42,-256.08 2305.95,-258.61"/>
<text text-anchor="middle" x="2329.5" y="-269.4" font-family="Helvetica,sans-Serif" font-size="12.00"> parentNode</text>
</g>
<!-- Node21 -->
<g id="node21" class="node">
<title>Node21</title>
<g id="a_node21"><a xlink:title=" ">
<polygon fill="white" stroke="#666666" points="1188.5,-364 1108.5,-364 1108.5,-343 1188.5,-343 1188.5,-364"/>
<text text-anchor="middle" x="1148.5" y="-350.4" font-family="Helvetica,sans-Serif" font-size="12.00">std::mutex</text>
</a>
</g>
</g>
<!-- Node21&#45;&gt;Node6 -->
<g id="edge49" class="edge">
<title>Node21&#45;&gt;Node6</title>
<path fill="none" stroke="#9a32cd" stroke-dasharray="5,2" d="M1185.12,-367.76C1229.46,-384.68 1307.9,-411.94 1378,-422.5 1679.98,-468.01 1759.89,-448.55 2065,-435.5 2142.99,-432.16 2164.74,-441.24 2240,-420.5 2266.35,-413.24 2294.33,-398.26 2311.61,-388.04"/>
<polygon fill="#9a32cd" stroke="#9a32cd" points="1186.25,-364.44 1175.67,-364.11 1183.73,-370.97 1186.25,-364.44"/>
<text text-anchor="middle" x="1691.5" y="-453.9" font-family="Helvetica,sans-Serif" font-size="12.00"> globalUserSettingsMutex</text>
</g>
<!-- Node21&#45;&gt;Node19 -->
<g id="edge29" class="edge">
<title>Node21&#45;&gt;Node19</title>
<path fill="none" stroke="#9a32cd" stroke-dasharray="5,2" d="M1189.95,-339.69C1211.22,-332.74 1237.84,-324.53 1262,-318.5 1491.62,-261.21 1776.2,-248.26 1888.34,-245.35"/>
<polygon fill="#9a32cd" stroke="#9a32cd" points="1188.67,-336.42 1180.27,-342.88 1190.86,-343.07 1188.67,-336.42"/>
<text text-anchor="middle" x="1475" y="-295.9" font-family="Helvetica,sans-Serif" font-size="12.00"> s_mutex</text>
</g>
<!-- Node34 -->
<g id="node34" class="node">
<title>Node34</title>
<g id="a_node34"><a xlink:href="class_j_k_q_t_p_synchronized.html" target="_top" xlink:title=" ">
<polygon fill="white" stroke="#666666" points="2065,-426.5 1811,-426.5 1811,-392.5 2065,-392.5 2065,-426.5"/>
<text text-anchor="start" x="1819" y="-412.9" font-family="Helvetica,sans-Serif" font-size="12.00">JKQTPSynchronized&lt;</text>
<text text-anchor="middle" x="1938" y="-399.9" font-family="Helvetica,sans-Serif" font-size="12.00"> QList&lt; JKQTPPaintDeviceAdapter * &gt; &gt;</text>
</a>
</g>
</g>
<!-- Node21&#45;&gt;Node34 -->
<g id="edge51" class="edge">
<title>Node21&#45;&gt;Node34</title>
<path fill="none" stroke="#9a32cd" stroke-dasharray="5,2" d="M1198.72,-361.35C1218.38,-364.38 1241.24,-367.76 1262,-370.5 1407.44,-389.69 1443.55,-398.84 1590,-407.5 1663.07,-411.82 1744.94,-412.49 1810.8,-412"/>
<polygon fill="#9a32cd" stroke="#9a32cd" points="1199.18,-357.88 1188.76,-359.8 1198.1,-364.79 1199.18,-357.88"/>
<text text-anchor="middle" x="1475" y="-408.9" font-family="Helvetica,sans-Serif" font-size="12.00"> m_mutex</text>
</g>
<!-- Node35 -->
<g id="node35" class="node">
<title>Node35</title>
<g id="a_node35"><a xlink:href="class_j_k_q_t_p_synchronized.html" target="_top" xlink:title="template class that wraps any datatype and combines it with a mutex, exposes the lock()/unlock() inte...">
<polygon fill="white" stroke="#666666" points="1558.5,-364 1391.5,-364 1391.5,-343 1558.5,-343 1558.5,-364"/>
<text text-anchor="middle" x="1475" y="-350.4" font-family="Helvetica,sans-Serif" font-size="12.00">JKQTPSynchronized&lt; T &gt;</text>
</a>
</g>
</g>
<!-- Node21&#45;&gt;Node35 -->
<g id="edge53" class="edge">
<title>Node21&#45;&gt;Node35</title>
<path fill="none" stroke="#9a32cd" stroke-dasharray="5,2" d="M1198.76,-353.5C1249.85,-353.5 1330.61,-353.5 1391.46,-353.5"/>
<polygon fill="#9a32cd" stroke="#9a32cd" points="1198.64,-350 1188.64,-353.5 1198.64,-357 1198.64,-350"/>
<text text-anchor="middle" x="1311" y="-356.9" font-family="Helvetica,sans-Serif" font-size="12.00"> m_mutex</text>
</g>
<!-- Node36 -->
<g id="node36" class="node">
<title>Node36</title>
<g id="a_node36"><a xlink:href="class_j_k_q_t_p_synchronized.html" target="_top" xlink:title=" ">
<polygon fill="white" stroke="#666666" points="2059,-348.5 1817,-348.5 1817,-314.5 2059,-314.5 2059,-348.5"/>
<text text-anchor="start" x="1825" y="-334.9" font-family="Helvetica,sans-Serif" font-size="12.00">JKQTPSynchronized&lt;</text>
<text text-anchor="middle" x="1938" y="-321.9" font-family="Helvetica,sans-Serif" font-size="12.00"> QList&lt; JKQTPSaveDataAdapter * &gt; &gt;</text>
</a>
</g>
</g>
<!-- Node21&#45;&gt;Node36 -->
<g id="edge55" class="edge">
<title>Node21&#45;&gt;Node36</title>
<path fill="none" stroke="#9a32cd" stroke-dasharray="5,2" d="M1198.57,-344.61C1244.7,-336.74 1315.77,-325.84 1378,-321.5 1562,-308.68 1608.67,-315.11 1793,-321.5 1800.76,-321.77 1808.76,-322.12 1816.82,-322.53"/>
<polygon fill="#9a32cd" stroke="#9a32cd" points="1197.8,-341.19 1188.55,-346.34 1199,-348.09 1197.8,-341.19"/>
<text text-anchor="middle" x="1475" y="-324.9" font-family="Helvetica,sans-Serif" font-size="12.00"> m_mutex</text>
</g>
<!-- Node22&#45;&gt;Node6 -->
<g id="edge30" class="edge">
<title>Node22&#45;&gt;Node6</title>
<path fill="none" stroke="#9a32cd" stroke-dasharray="5,2" d="M2581.71,-435.36C2534.45,-433.23 2472.44,-427.81 2419,-414.5 2394.76,-408.46 2368.54,-396.8 2350.99,-388.17"/>
<polygon fill="#9a32cd" stroke="#9a32cd" points="2581.73,-438.87 2591.86,-435.78 2582.01,-431.87 2581.73,-438.87"/>
<text text-anchor="middle" x="2475.5" y="-434.9" font-family="Helvetica,sans-Serif" font-size="12.00"> m_plotsModel</text>
</g>
<!-- Node23 -->
<g id="node23" class="node">
<title>Node23</title>
<g id="a_node23"><a xlink:title=" ">
<polygon fill="white" stroke="#666666" points="2401,-523 2258,-523 2258,-502 2401,-502 2401,-523"/>
<text text-anchor="middle" x="2329.5" y="-509.4" font-family="Helvetica,sans-Serif" font-size="12.00">QAbstractTableModel</text>
</a>
</g>
</g>
<!-- Node23&#45;&gt;Node22 -->
<g id="edge31" class="edge">
<title>Node23&#45;&gt;Node22</title>
<path fill="none" stroke="#63b8ff" d="M2411.48,-505.54C2448.6,-501.26 2492.93,-494.6 2532,-484.5 2568.56,-475.05 2609.03,-458.17 2633.62,-447.16"/>
<polygon fill="#63b8ff" stroke="#63b8ff" points="2410.76,-502.1 2401.21,-506.69 2411.54,-509.06 2410.76,-502.1"/>
</g>
<!-- Node24 -->
<g id="node24" class="node">
<title>Node24</title>
<g id="a_node24"><a xlink:href="class_j_k_q_t_p_horizontal_axis.html" target="_top" xlink:title="implements a horizontal axis, based on JKQTPCoordinateAxis (for most of documentation: see JKQTPCoord...">
<polygon fill="white" stroke="#666666" points="3205.5,-505 3068.5,-505 3068.5,-484 3205.5,-484 3205.5,-505"/>
<text text-anchor="middle" x="3137" y="-491.4" font-family="Helvetica,sans-Serif" font-size="12.00">JKQTPHorizontalAxis</text>
</a>
</g>
</g>
<!-- Node24&#45;&gt;Node6 -->
<g id="edge33" class="edge">
<title>Node24&#45;&gt;Node6</title>
<path fill="none" stroke="#9a32cd" stroke-dasharray="5,2" d="M3058.13,-504.36C2922.87,-518.31 2638.02,-533.47 2419,-448.5 2385.21,-435.39 2354.27,-404.45 2339.55,-388.08"/>
<polygon fill="#9a32cd" stroke="#9a32cd" points="3058.81,-507.81 3068.39,-503.28 3058.08,-500.85 3058.81,-507.81"/>
<text text-anchor="middle" x="2800.5" y="-517.9" font-family="Helvetica,sans-Serif" font-size="12.00"> xAxis</text>
</g>
<!-- Node25 -->
<g id="node25" class="node">
<title>Node25</title>
<g id="a_node25"><a xlink:href="class_j_k_q_t_p_horizontal_axis_base.html" target="_top" xlink:title="base class for horizontal axes, based on JKQTPCoordinateAxis (for most of documentation: see JKQTPCoo...">
<polygon fill="white" stroke="#666666" points="3003,-440 2836,-440 2836,-419 3003,-419 3003,-440"/>
<text text-anchor="middle" x="2919.5" y="-426.4" font-family="Helvetica,sans-Serif" font-size="12.00">JKQTPHorizontalAxisBase</text>
</a>
</g>
</g>
<!-- Node25&#45;&gt;Node24 -->
<g id="edge34" class="edge">
<title>Node25&#45;&gt;Node24</title>
<path fill="none" stroke="#63b8ff" d="M2965.43,-443.05C3005.71,-455.2 3063.97,-472.78 3100.91,-483.92"/>
<polygon fill="#63b8ff" stroke="#63b8ff" points="2966.19,-439.62 2955.6,-440.09 2964.17,-446.33 2966.19,-439.62"/>
</g>
<!-- Node26&#45;&gt;Node25 -->
<g id="edge35" class="edge">
<title>Node26&#45;&gt;Node25</title>
<path fill="none" stroke="#63b8ff" d="M2710.29,-377.45C2759.06,-389.64 2831.21,-407.68 2876.5,-419"/>
<polygon fill="#63b8ff" stroke="#63b8ff" points="2711.11,-374.05 2700.56,-375.02 2709.41,-380.84 2711.11,-374.05"/>
</g>
<!-- Node28 -->
<g id="node28" class="node">
<title>Node28</title>
<g id="a_node28"><a xlink:href="class_j_k_q_t_p_vertical_axis_base.html" target="_top" xlink:title="base class for vertical axes, based on JKQTPCoordinateAxis (for most of documentation: see JKQTPCoord...">
<polygon fill="white" stroke="#666666" points="2995,-272 2844,-272 2844,-251 2995,-251 2995,-272"/>
<text text-anchor="middle" x="2919.5" y="-258.4" font-family="Helvetica,sans-Serif" font-size="12.00">JKQTPVerticalAxisBase</text>
</a>
</g>
</g>
<!-- Node26&#45;&gt;Node28 -->
<g id="edge41" class="edge">
<title>Node26&#45;&gt;Node28</title>
<path fill="none" stroke="#63b8ff" d="M2694.69,-350.16C2747.6,-329.2 2844.88,-290.66 2891.8,-272.08"/>
<polygon fill="#63b8ff" stroke="#63b8ff" points="2693.35,-346.93 2685.35,-353.87 2695.93,-353.44 2693.35,-346.93"/>
</g>
<!-- Node27 -->
<g id="node27" class="node">
<title>Node27</title>
<g id="a_node27"><a xlink:href="class_j_k_q_t_p_vertical_axis.html" target="_top" xlink:title="implements a vertical axis for use as primary, secondary, ... axis of a JKQTPBasePlotter,...">
<polygon fill="white" stroke="#666666" points="3198,-209 3076,-209 3076,-188 3198,-188 3198,-209"/>
<text text-anchor="middle" x="3137" y="-195.4" font-family="Helvetica,sans-Serif" font-size="12.00">JKQTPVerticalAxis</text>
</a>
</g>
</g>
<!-- Node27&#45;&gt;Node6 -->
<g id="edge39" class="edge">
<title>Node27&#45;&gt;Node6</title>
<path fill="none" stroke="#9a32cd" stroke-dasharray="5,2" d="M3065.59,-206.5C3004.54,-213.99 2913.98,-226.42 2836,-242.5 2656.29,-279.55 2445.45,-342.18 2364.5,-366.96"/>
<polygon fill="#9a32cd" stroke="#9a32cd" points="3066.37,-209.93 3075.88,-205.25 3065.53,-202.98 3066.37,-209.93"/>
<text text-anchor="middle" x="2800.5" y="-255.9" font-family="Helvetica,sans-Serif" font-size="12.00"> yAxis</text>
</g>
<!-- Node28&#45;&gt;Node27 -->
<g id="edge40" class="edge">
<title>Node28&#45;&gt;Node27</title>
<path fill="none" stroke="#63b8ff" d="M2956.29,-247.14C2979.81,-238.07 3011.41,-226.58 3040,-218.5 3052.45,-214.98 3065.97,-211.79 3078.83,-209.04"/>
<polygon fill="#63b8ff" stroke="#63b8ff" points="2954.78,-243.97 2946.73,-250.86 2957.32,-250.49 2954.78,-243.97"/>
</g>
<!-- Node29 -->
<g id="node29" class="node">
<title>Node29</title>
<g id="a_node29"><a xlink:href="class_j_k_q_t_p_datastore.html" target="_top" xlink:title="This class manages data columns (with entries of type double ), used by JKQTPlotter/JKQTBasePlotter t...">
<polygon fill="white" stroke="#666666" points="1993.5,-107 1882.5,-107 1882.5,-86 1993.5,-86 1993.5,-107"/>
<text text-anchor="middle" x="1938" y="-93.4" font-family="Helvetica,sans-Serif" font-size="12.00">JKQTPDatastore</text>
</a>
</g>
</g>
<!-- Node29&#45;&gt;Node6 -->
<g id="edge42" class="edge">
<title>Node29&#45;&gt;Node6</title>
<path fill="none" stroke="#9a32cd" stroke-dasharray="5,2" d="M1959.12,-113.88C1985.56,-137.38 2032.45,-181.47 2065,-225.5 2074.93,-238.94 2069.17,-249.12 2083,-258.5 2141.17,-297.95 2177.77,-244.83 2240,-277.5 2280.03,-298.51 2310.43,-345.53 2322.64,-366.75"/>
<polygon fill="#9a32cd" stroke="#9a32cd" points="1961.43,-111.25 1951.61,-107.26 1956.8,-116.5 1961.43,-111.25"/>
<text text-anchor="middle" x="2161.5" y="-280.9" font-family="Helvetica,sans-Serif" font-size="12.00"> datastore</text>
</g>
<!-- Node31 -->
<g id="node31" class="node">
<title>Node31</title>
<g id="a_node31"><a xlink:href="class_j_k_q_t_p_column.html" target="_top" xlink:title="internally stores information about one data column. See JKQTPDatastore for more information.">
<polygon fill="white" stroke="#666666" points="2378.5,-60 2280.5,-60 2280.5,-39 2378.5,-39 2378.5,-60"/>
<text text-anchor="middle" x="2329.5" y="-46.4" font-family="Helvetica,sans-Serif" font-size="12.00">JKQTPColumn</text>
</a>
</g>
</g>
<!-- Node29&#45;&gt;Node31 -->
<g id="edge45" class="edge">
<title>Node29&#45;&gt;Node31</title>
<path fill="none" stroke="#9a32cd" stroke-dasharray="5,2" d="M1998.16,-83.97C2024.1,-78.85 2054.96,-73.26 2083,-69.5 2151.24,-60.35 2230.75,-54.8 2280.36,-51.94"/>
<polygon fill="#9a32cd" stroke="#9a32cd" points="1997.23,-80.59 1988.11,-85.98 1998.61,-87.45 1997.23,-80.59"/>
<text text-anchor="middle" x="2161.5" y="-72.9" font-family="Helvetica,sans-Serif" font-size="12.00"> datastore</text>
</g>
<!-- Node30 -->
<g id="node30" class="node">
<title>Node30</title>
<g id="a_node30"><a xlink:title=" ">
<polygon fill="white" stroke="#666666" points="2765,-60 2550,-60 2550,-39 2765,-39 2765,-60"/>
<text text-anchor="middle" x="2657.5" y="-46.4" font-family="Helvetica,sans-Serif" font-size="12.00">std::unique_ptr&lt; JKQTPColumn &gt;</text>
</a>
</g>
</g>
<!-- Node30&#45;&gt;Node29 -->
<g id="edge43" class="edge">
<title>Node30&#45;&gt;Node29</title>
<path fill="none" stroke="#9a32cd" stroke-dasharray="5,2" d="M2576.66,-61.38C2561.84,-63.3 2546.47,-65.12 2532,-66.5 2334.46,-85.37 2098.7,-92.82 1993.9,-95.36"/>
<polygon fill="#9a32cd" stroke="#9a32cd" points="2577.37,-64.81 2586.82,-60.03 2576.44,-57.87 2577.37,-64.81"/>
<text text-anchor="middle" x="2329.5" y="-88.9" font-family="Helvetica,sans-Serif" font-size="12.00"> m_invalidColumn</text>
</g>
<!-- Node31&#45;&gt;Node30 -->
<g id="edge44" class="edge">
<title>Node31&#45;&gt;Node30</title>
<path fill="none" stroke="#9a32cd" stroke-dasharray="5,2" d="M2388.69,-49.5C2433.35,-49.5 2496.24,-49.5 2549.85,-49.5"/>
<polygon fill="#9a32cd" stroke="#9a32cd" points="2388.6,-46 2378.6,-49.5 2388.6,-53 2388.6,-46"/>
<text text-anchor="middle" x="2475.5" y="-52.9" font-family="Helvetica,sans-Serif" font-size="12.00"> ptr</text>
</g>
<!-- Node32 -->
<g id="node32" class="node">
<title>Node32</title>
<g id="a_node32"><a xlink:title=" ">
<polygon fill="white" stroke="#666666" points="2399.5,-21 2259.5,-21 2259.5,0 2399.5,0 2399.5,-21"/>
<text text-anchor="middle" x="2329.5" y="-7.4" font-family="Helvetica,sans-Serif" font-size="12.00">std::unique_ptr&lt; T &gt;</text>
</a>
</g>
</g>
<!-- Node32&#45;&gt;Node30 -->
<g id="edge46" class="edge">
<title>Node32&#45;&gt;Node30</title>
<path fill="none" stroke="orange" stroke-dasharray="5,2" d="M2409.82,-18.66C2446.96,-22.61 2491.77,-27.56 2532,-32.5 2548.13,-34.48 2565.42,-36.75 2581.82,-38.97"/>
<polygon fill="orange" stroke="orange" points="2409.88,-15.15 2399.56,-17.58 2409.14,-22.11 2409.88,-15.15"/>
<text text-anchor="middle" x="2475.5" y="-35.9" font-family="Helvetica,sans-Serif" font-size="12.00"> &lt; JKQTPColumn &gt;</text>
</g>
<!-- Node33 -->
<g id="node33" class="node">
<title>Node33</title>
<g id="a_node33"><a xlink:title=" ">
<polygon fill="white" stroke="#666666" points="1952.5,-21 1923.5,-21 1923.5,0 1952.5,0 1952.5,-21"/>
<text text-anchor="middle" x="1938" y="-7.4" font-family="Helvetica,sans-Serif" font-size="12.00">T</text>
</a>
</g>
</g>
<!-- Node33&#45;&gt;Node32 -->
<g id="edge47" class="edge">
<title>Node33&#45;&gt;Node32</title>
<path fill="none" stroke="#9a32cd" stroke-dasharray="5,2" d="M1962.88,-10.5C2020.79,-10.5 2170.51,-10.5 2259.37,-10.5"/>
<polygon fill="#9a32cd" stroke="#9a32cd" points="1962.86,-7 1952.86,-10.5 1962.86,-14 1962.86,-7"/>
<text text-anchor="middle" x="2161.5" y="-13.9" font-family="Helvetica,sans-Serif" font-size="12.00"> ptr</text>
</g>
<!-- Node34&#45;&gt;Node6 -->
<g id="edge50" class="edge">
<title>Node34&#45;&gt;Node6</title>
<path fill="none" stroke="#9a32cd" stroke-dasharray="5,2" d="M2075.4,-404.15C2127.06,-401.39 2186.33,-397.34 2240,-391.5 2250.52,-390.36 2261.69,-388.83 2272.43,-387.21"/>
<polygon fill="#9a32cd" stroke="#9a32cd" points="2074.98,-400.67 2065.18,-404.69 2075.35,-407.66 2074.98,-400.67"/>
<text text-anchor="middle" x="2161.5" y="-406.9" font-family="Helvetica,sans-Serif" font-size="12.00"> jkqtpPaintDeviceAdapters</text>
</g>
<!-- Node35&#45;&gt;Node34 -->
<g id="edge52" class="edge">
<title>Node35&#45;&gt;Node34</title>
<path fill="none" stroke="orange" stroke-dasharray="5,2" d="M1569.06,-359.16C1632.39,-363.64 1717.99,-370.92 1793,-381.5 1813.93,-384.45 1836.43,-388.43 1857.27,-392.46"/>
<polygon fill="orange" stroke="orange" points="1568.92,-355.65 1558.7,-358.44 1568.43,-362.63 1568.92,-355.65"/>
<text text-anchor="start" x="1608" y="-397.9" font-family="Helvetica,sans-Serif" font-size="12.00"> &lt; QList&lt; JKQTPPaintDevice</text>
<text text-anchor="middle" x="1691.5" y="-384.9" font-family="Helvetica,sans-Serif" font-size="12.00">Adapter * &gt; &gt;</text>
</g>
<!-- Node35&#45;&gt;Node36 -->
<g id="edge56" class="edge">
<title>Node35&#45;&gt;Node36</title>
<path fill="none" stroke="orange" stroke-dasharray="5,2" d="M1532.5,-341.02C1550.76,-337.55 1571.15,-334.25 1590,-332.5 1665.13,-325.53 1749.81,-325.14 1816.71,-326.56"/>
<polygon fill="orange" stroke="orange" points="1531.74,-337.6 1522.6,-342.96 1533.09,-344.47 1531.74,-337.6"/>
<text text-anchor="start" x="1590" y="-348.9" font-family="Helvetica,sans-Serif" font-size="12.00"> &lt; QList&lt; JKQTPSaveDataAdapter</text>
<text text-anchor="middle" x="1691.5" y="-335.9" font-family="Helvetica,sans-Serif" font-size="12.00"> * &gt; &gt;</text>
</g>
<!-- Node36&#45;&gt;Node6 -->
<g id="edge54" class="edge">
<title>Node36&#45;&gt;Node6</title>
<path fill="none" stroke="#9a32cd" stroke-dasharray="5,2" d="M2045.09,-350.12C2057.84,-352.08 2070.7,-353.93 2083,-355.5 2147.73,-363.78 2222.46,-370 2272.3,-373.68"/>
<polygon fill="#9a32cd" stroke="#9a32cd" points="2045.32,-346.61 2034.9,-348.52 2044.24,-353.53 2045.32,-346.61"/>
<text text-anchor="middle" x="2161.5" y="-373.9" font-family="Helvetica,sans-Serif" font-size="12.00"> jkqtpSaveDataAdapters</text>
</g>
<!-- Node37 -->
<g id="node37" class="node">
<title>Node37</title>
<g id="a_node37"><a xlink:href="class_j_k_q_t_p_graph_symbol_style_mixin.html" target="_top" xlink:title="This Mix&#45;In class provides setter/getter methods, storage and other facilities for the graph symbols ...">
<polygon fill="white" stroke="#666666" points="3234,-248 3040,-248 3040,-227 3234,-227 3234,-248"/>
<text text-anchor="middle" x="3137" y="-234.4" font-family="Helvetica,sans-Serif" font-size="12.00">JKQTPGraphSymbolStyleMixin</text>
</a>
</g>
</g>
<!-- Node37&#45;&gt;Node1 -->
<g id="edge57" class="edge">
<title>Node37&#45;&gt;Node1</title>
<path fill="none" stroke="#63b8ff" d="M3208.56,-225.24C3228.26,-221.82 3249.95,-218.05 3270.68,-214.45"/>
<polygon fill="#63b8ff" stroke="#63b8ff" points="3207.71,-221.84 3198.46,-227 3208.91,-228.73 3207.71,-221.84"/>
</g>
</g>
</svg>
