<?xml version="1.0" encoding="UTF-8" standalone="no"?>
<!DOCTYPE svg PUBLIC "-//W3C//DTD SVG 1.1//EN"
 "http://www.w3.org/Graphics/SVG/1.1/DTD/svg11.dtd">
<!-- Generated by graphviz version 2.43.0 (0)
 -->
<!-- Title: JKQTMathTextParser Pages: 1 -->
<svg width="391pt" height="157pt"
 viewBox="0.00 0.00 390.50 157.00" xmlns="http://www.w3.org/2000/svg" xmlns:xlink="http://www.w3.org/1999/xlink">
<g id="graph0" class="graph" transform="scale(1 1) rotate(0) translate(4 153)">
<title>JKQTMathTextParser</title>
<!-- Node1 -->
<g id="node1" class="node">
<title>Node1</title>
<g id="a_node1"><a xlink:title="base class for all parsers used by JKQTMathText">
<polygon fill="#999999" stroke="#666666" points="137,-21 0,-21 0,0 137,0 137,-21"/>
<text text-anchor="middle" x="68.5" y="-7.4" font-family="Helvetica,sans-Serif" font-size="12.00">JKQTMathTextParser</text>
</a>
</g>
</g>
<!-- Node2 -->
<g id="node2" class="node">
<title>Node2</title>
<g id="a_node2"><a xlink:title=" ">
<polygon fill="white" stroke="#666666" points="96,-149 31,-149 31,-128 96,-128 96,-149"/>
<text text-anchor="middle" x="63.5" y="-135.4" font-family="Helvetica,sans-Serif" font-size="12.00">QObject</text>
</a>
</g>
</g>
<!-- Node2&#45;&gt;Node1 -->
<g id="edge1" class="edge">
<title>Node2&#45;&gt;Node1</title>
<path fill="none" stroke="#63b8ff" d="M64.29,-117.61C65.38,-90.24 67.29,-42 68.11,-21.34"/>
<polygon fill="#63b8ff" stroke="#63b8ff" points="60.79,-117.48 63.89,-127.61 67.79,-117.76 60.79,-117.48"/>
</g>
<!-- Node3 -->
<g id="node3" class="node">
<title>Node3</title>
<g id="a_node3"><a xlink:href="class_j_k_q_t_math_text.html" target="_top" xlink:title="this class parses a mathematical markup string and can then draw the contained text/equation onto a Q...">
<polygon fill="white" stroke="#666666" points="216,-91 117,-91 117,-70 216,-70 216,-91"/>
<text text-anchor="middle" x="166.5" y="-77.4" font-family="Helvetica,sans-Serif" font-size="12.00">JKQTMathText</text>
</a>
</g>
</g>
<!-- Node2&#45;&gt;Node3 -->
<g id="edge3" class="edge">
<title>Node2&#45;&gt;Node3</title>
<path fill="none" stroke="#63b8ff" d="M90.24,-122.96C108.68,-112.94 132.66,-99.9 148.76,-91.14"/>
<polygon fill="#63b8ff" stroke="#63b8ff" points="88.55,-119.89 81.44,-127.75 91.9,-126.04 88.55,-119.89"/>
</g>
<!-- Node3&#45;&gt;Node1 -->
<g id="edge2" class="edge">
<title>Node3&#45;&gt;Node1</title>
<path fill="none" stroke="#9a32cd" stroke-dasharray="5,2" d="M111.39,-66.19C103.11,-62.53 95.13,-57.88 88.5,-52 79.23,-43.78 73.78,-30.28 70.97,-21.15"/>
<polygon fill="#9a32cd" stroke="#9a32cd" points="110.22,-69.5 120.81,-69.92 112.8,-62.99 110.22,-69.5"/>
<text text-anchor="middle" x="137" y="-42.4" font-family="Helvetica,sans-Serif" font-size="12.00"> parentMathText</text>
</g>
<!-- Node4 -->
<g id="node4" class="node">
<title>Node4</title>
<g id="a_node4"><a xlink:href="class_j_k_q_t_math_text_node.html" target="_top" xlink:title="subclass representing one node in the syntax tree">
<polygon fill="white" stroke="#666666" points="286,-21 155,-21 155,0 286,0 286,-21"/>
<text text-anchor="middle" x="220.5" y="-7.4" font-family="Helvetica,sans-Serif" font-size="12.00">JKQTMathTextNode</text>
</a>
</g>
</g>
<!-- Node3&#45;&gt;Node4 -->
<g id="edge5" class="edge">
<title>Node3&#45;&gt;Node4</title>
<path fill="none" stroke="#9a32cd" stroke-dasharray="5,2" d="M180.73,-61.59C190.99,-48.67 204.44,-31.72 212.78,-21.22"/>
<polygon fill="#9a32cd" stroke="#9a32cd" points="177.71,-59.75 174.24,-69.76 183.2,-64.1 177.71,-59.75"/>
<text text-anchor="middle" x="247" y="-42.4" font-family="Helvetica,sans-Serif" font-size="12.00"> parentMathText</text>
</g>
<!-- Node4&#45;&gt;Node3 -->
<g id="edge4" class="edge">
<title>Node4&#45;&gt;Node3</title>
<path fill="none" stroke="#9a32cd" stroke-dasharray="5,2" d="M284.91,-24.21C301.8,-30.47 312.76,-39.45 302.5,-52 291.59,-65.33 250.44,-72.35 216.23,-75.95"/>
<polygon fill="#9a32cd" stroke="#9a32cd" points="285.6,-20.75 275.01,-21 283.44,-27.41 285.6,-20.75"/>
<text text-anchor="middle" x="344" y="-42.4" font-family="Helvetica,sans-Serif" font-size="12.00"> parsedNode</text>
</g>
<!-- Node4&#45;&gt;Node4 -->
<g id="edge6" class="edge">
<title>Node4&#45;&gt;Node4</title>
<path fill="none" stroke="#9a32cd" stroke-dasharray="5,2" d="M296.52,-14.94C301.19,-13.89 304,-12.41 304,-10.5 304,-7.45 296.81,-5.49 286.31,-4.63"/>
<polygon fill="#9a32cd" stroke="#9a32cd" points="295.73,-11.52 286.31,-16.37 296.7,-18.45 295.73,-11.52"/>
<text text-anchor="middle" x="341.5" y="-7.4" font-family="Helvetica,sans-Serif" font-size="12.00"> parentNode</text>
</g>
</g>
</svg>
