<?xml version="1.0" encoding="UTF-8" standalone="no"?>
<!DOCTYPE svg PUBLIC "-//W3C//DTD SVG 1.1//EN"
 "http://www.w3.org/Graphics/SVG/1.1/DTD/svg11.dtd">
<!-- Generated by graphviz version 2.43.0 (0)
 -->
<!-- Title: JKQTPImpulsesHorizontalErrorGraph Pages: 1 -->
<svg width="727pt" height="449pt"
 viewBox="0.00 0.00 727.00 449.00" xmlns="http://www.w3.org/2000/svg" xmlns:xlink="http://www.w3.org/1999/xlink">
<g id="graph0" class="graph" transform="scale(1 1) rotate(0) translate(4 445)">
<title>JKQTPImpulsesHorizontalErrorGraph</title>
<!-- Node1 -->
<g id="node1" class="node">
<title>Node1</title>
<g id="a_node1"><a xlink:title="This implements an impulse plot with horizontal impulses in direction of the X axis (i....">
<polygon fill="#bfbfbf" stroke="black" points="255.5,-0.5 255.5,-34.5 451.5,-34.5 451.5,-0.5 255.5,-0.5"/>
<text text-anchor="start" x="263.5" y="-20.9" font-family="Helvetica,sans-Serif" font-size="12.00">JKQTPImpulsesHorizontalError</text>
<text text-anchor="middle" x="353.5" y="-7.9" font-family="Helvetica,sans-Serif" font-size="12.00">Graph</text>
</a>
</g>
</g>
<!-- Node2 -->
<g id="node2" class="node">
<title>Node2</title>
<g id="a_node2"><a xlink:href="class_j_k_q_t_p_impulses_horizontal_graph.html" target="_top" xlink:title="This implements an impulse plot with horizontal impulses in direction of the X axis (i....">
<polygon fill="none" stroke="black" points="159,-71.5 159,-92.5 362,-92.5 362,-71.5 159,-71.5"/>
<text text-anchor="middle" x="260.5" y="-78.9" font-family="Helvetica,sans-Serif" font-size="12.00">JKQTPImpulsesHorizontalGraph</text>
</a>
</g>
</g>
<!-- Node2&#45;&gt;Node1 -->
<g id="edge1" class="edge">
<title>Node2&#45;&gt;Node1</title>
<path fill="none" stroke="midnightblue" d="M283.62,-65.46C297.65,-56.04 315.51,-44.03 329.67,-34.51"/>
<polygon fill="midnightblue" stroke="midnightblue" points="281.38,-62.75 275.03,-71.23 285.28,-68.56 281.38,-62.75"/>
</g>
<!-- Node3 -->
<g id="node3" class="node">
<title>Node3</title>
<g id="a_node3"><a xlink:href="class_j_k_q_t_p_impulses_graph_base.html" target="_top" xlink:title="This is a base class for all impulse graphs.">
<polygon fill="none" stroke="black" points="174.5,-129.5 174.5,-150.5 346.5,-150.5 346.5,-129.5 174.5,-129.5"/>
<text text-anchor="middle" x="260.5" y="-136.9" font-family="Helvetica,sans-Serif" font-size="12.00">JKQTPImpulsesGraphBase</text>
</a>
</g>
</g>
<!-- Node3&#45;&gt;Node2 -->
<g id="edge2" class="edge">
<title>Node3&#45;&gt;Node2</title>
<path fill="none" stroke="midnightblue" d="M260.5,-119.16C260.5,-110.16 260.5,-99.92 260.5,-92.64"/>
<polygon fill="midnightblue" stroke="midnightblue" points="257,-119.25 260.5,-129.25 264,-119.25 257,-119.25"/>
</g>
<!-- Node4 -->
<g id="node4" class="node">
<title>Node4</title>
<g id="a_node4"><a xlink:href="class_j_k_q_t_p_x_y_baseline_graph.html" target="_top" xlink:title="This virtual JKQTPGraph descendent extends JKQTPXYGraph adds a baseline&#45;property, which is necessary,...">
<polygon fill="none" stroke="black" points="0,-187.5 0,-208.5 155,-208.5 155,-187.5 0,-187.5"/>
<text text-anchor="middle" x="77.5" y="-194.9" font-family="Helvetica,sans-Serif" font-size="12.00">JKQTPXYBaselineGraph</text>
</a>
</g>
</g>
<!-- Node4&#45;&gt;Node3 -->
<g id="edge3" class="edge">
<title>Node4&#45;&gt;Node3</title>
<path fill="none" stroke="midnightblue" d="M118.92,-184.32C152.49,-174.05 199.03,-159.81 229.45,-150.5"/>
<polygon fill="midnightblue" stroke="midnightblue" points="117.5,-181.1 108.96,-187.37 119.55,-187.79 117.5,-181.1"/>
</g>
<!-- Node5 -->
<g id="node5" class="node">
<title>Node5</title>
<g id="a_node5"><a xlink:href="class_j_k_q_t_p_x_y_graph.html" target="_top" xlink:title="This virtual JKQTPGraph descendent may be used as base for all graphs that use at least two columns t...">
<polygon fill="none" stroke="black" points="25,-245.5 25,-266.5 130,-266.5 130,-245.5 25,-245.5"/>
<text text-anchor="middle" x="77.5" y="-252.9" font-family="Helvetica,sans-Serif" font-size="12.00">JKQTPXYGraph</text>
</a>
</g>
</g>
<!-- Node5&#45;&gt;Node4 -->
<g id="edge4" class="edge">
<title>Node5&#45;&gt;Node4</title>
<path fill="none" stroke="midnightblue" d="M77.5,-235.16C77.5,-226.16 77.5,-215.92 77.5,-208.64"/>
<polygon fill="midnightblue" stroke="midnightblue" points="74,-235.25 77.5,-245.25 81,-235.25 74,-235.25"/>
</g>
<!-- Node6 -->
<g id="node6" class="node">
<title>Node6</title>
<g id="a_node6"><a xlink:href="class_j_k_q_t_p_graph.html" target="_top" xlink:title="this virtual base class of the (data&#45;column based) graphs, which are part of a JKQTPlotter plot and w...">
<polygon fill="none" stroke="black" points="33,-303.5 33,-324.5 122,-324.5 122,-303.5 33,-303.5"/>
<text text-anchor="middle" x="77.5" y="-310.9" font-family="Helvetica,sans-Serif" font-size="12.00">JKQTPGraph</text>
</a>
</g>
</g>
<!-- Node6&#45;&gt;Node5 -->
<g id="edge5" class="edge">
<title>Node6&#45;&gt;Node5</title>
<path fill="none" stroke="midnightblue" d="M77.5,-293.16C77.5,-284.16 77.5,-273.92 77.5,-266.64"/>
<polygon fill="midnightblue" stroke="midnightblue" points="74,-293.25 77.5,-303.25 81,-293.25 74,-293.25"/>
</g>
<!-- Node7 -->
<g id="node7" class="node">
<title>Node7</title>
<g id="a_node7"><a xlink:href="class_j_k_q_t_p_plot_element.html" target="_top" xlink:title="this virtual base class of every element, which is part of a JKQTPlotter plot and may appear in its k...">
<polygon fill="none" stroke="black" points="15,-361.5 15,-382.5 140,-382.5 140,-361.5 15,-361.5"/>
<text text-anchor="middle" x="77.5" y="-368.9" font-family="Helvetica,sans-Serif" font-size="12.00">JKQTPPlotElement</text>
</a>
</g>
</g>
<!-- Node7&#45;&gt;Node6 -->
<g id="edge6" class="edge">
<title>Node7&#45;&gt;Node6</title>
<path fill="none" stroke="midnightblue" d="M77.5,-351.16C77.5,-342.16 77.5,-331.92 77.5,-324.64"/>
<polygon fill="midnightblue" stroke="midnightblue" points="74,-351.25 77.5,-361.25 81,-351.25 74,-351.25"/>
</g>
<!-- Node8 -->
<g id="node8" class="node">
<title>Node8</title>
<g id="a_node8"><a xlink:title=" ">
<polygon fill="none" stroke="black" points="45,-419.5 45,-440.5 110,-440.5 110,-419.5 45,-419.5"/>
<text text-anchor="middle" x="77.5" y="-426.9" font-family="Helvetica,sans-Serif" font-size="12.00">QObject</text>
</a>
</g>
</g>
<!-- Node8&#45;&gt;Node7 -->
<g id="edge7" class="edge">
<title>Node8&#45;&gt;Node7</title>
<path fill="none" stroke="midnightblue" d="M77.5,-409.16C77.5,-400.16 77.5,-389.92 77.5,-382.64"/>
<polygon fill="midnightblue" stroke="midnightblue" points="74,-409.25 77.5,-419.25 81,-409.25 74,-409.25"/>
</g>
<!-- Node9 -->
<g id="node9" class="node">
<title>Node9</title>
<g id="a_node9"><a xlink:href="class_j_k_q_t_p_graph_line_style_mixin.html" target="_top" xlink:title="This Mix&#45;In class provides setter/getter methods, storage and other facilities for the graph line sty...">
<polygon fill="none" stroke="black" points="173.5,-187.5 173.5,-208.5 347.5,-208.5 347.5,-187.5 173.5,-187.5"/>
<text text-anchor="middle" x="260.5" y="-194.9" font-family="Helvetica,sans-Serif" font-size="12.00">JKQTPGraphLineStyleMixin</text>
</a>
</g>
</g>
<!-- Node9&#45;&gt;Node3 -->
<g id="edge8" class="edge">
<title>Node9&#45;&gt;Node3</title>
<path fill="none" stroke="midnightblue" d="M260.5,-177.16C260.5,-168.16 260.5,-157.92 260.5,-150.64"/>
<polygon fill="midnightblue" stroke="midnightblue" points="257,-177.25 260.5,-187.25 264,-177.25 257,-177.25"/>
</g>
<!-- Node10 -->
<g id="node10" class="node">
<title>Node10</title>
<g id="a_node10"><a xlink:href="class_j_k_q_t_p_graph_symbol_style_mixin.html" target="_top" xlink:title="This Mix&#45;In class provides setter/getter methods, storage and other facilities for the graph symbols ...">
<polygon fill="none" stroke="black" points="365.5,-187.5 365.5,-208.5 559.5,-208.5 559.5,-187.5 365.5,-187.5"/>
<text text-anchor="middle" x="462.5" y="-194.9" font-family="Helvetica,sans-Serif" font-size="12.00">JKQTPGraphSymbolStyleMixin</text>
</a>
</g>
</g>
<!-- Node10&#45;&gt;Node3 -->
<g id="edge9" class="edge">
<title>Node10&#45;&gt;Node3</title>
<path fill="none" stroke="midnightblue" d="M417.73,-184.59C380.62,-174.3 328.64,-159.89 294.77,-150.5"/>
<polygon fill="midnightblue" stroke="midnightblue" points="417.2,-188.07 427.77,-187.37 419.07,-181.33 417.2,-188.07"/>
</g>
<!-- Node11 -->
<g id="node11" class="node">
<title>Node11</title>
<g id="a_node11"><a xlink:href="class_j_k_q_t_p_x_graph_errors.html" target="_top" xlink:title="This class is the base class for graphs that only display error indicators in x&#45;direction.">
<polygon fill="none" stroke="black" points="380,-71.5 380,-92.5 513,-92.5 513,-71.5 380,-71.5"/>
<text text-anchor="middle" x="446.5" y="-78.9" font-family="Helvetica,sans-Serif" font-size="12.00">JKQTPXGraphErrors</text>
</a>
</g>
</g>
<!-- Node11&#45;&gt;Node1 -->
<g id="edge10" class="edge">
<title>Node11&#45;&gt;Node1</title>
<path fill="none" stroke="midnightblue" d="M423.38,-65.46C409.35,-56.04 391.49,-44.03 377.33,-34.51"/>
<polygon fill="midnightblue" stroke="midnightblue" points="421.72,-68.56 431.97,-71.23 425.62,-62.75 421.72,-68.56"/>
</g>
<!-- Node12 -->
<g id="node12" class="node">
<title>Node12</title>
<g id="a_node12"><a xlink:href="class_j_k_q_t_p_x_graph_error_data.html" target="_top" xlink:title="This class adds data fields for error indicators in x direction.">
<polygon fill="none" stroke="black" points="367,-129.5 367,-150.5 522,-150.5 522,-129.5 367,-129.5"/>
<text text-anchor="middle" x="444.5" y="-136.9" font-family="Helvetica,sans-Serif" font-size="12.00">JKQTPXGraphErrorData</text>
</a>
</g>
</g>
<!-- Node12&#45;&gt;Node11 -->
<g id="edge11" class="edge">
<title>Node12&#45;&gt;Node11</title>
<path fill="none" stroke="midnightblue" d="M445.21,-119.16C445.53,-110.16 445.9,-99.92 446.16,-92.64"/>
<polygon fill="midnightblue" stroke="midnightblue" points="441.71,-119.13 444.85,-129.25 448.7,-119.38 441.71,-119.13"/>
</g>
<!-- Node13 -->
<g id="node13" class="node">
<title>Node13</title>
<g id="a_node13"><a xlink:href="class_j_k_q_t_p_graph_error_style_mixin.html" target="_top" xlink:title="This mix&#45;in class assembles all styling properties applicable to error indicators.">
<polygon fill="none" stroke="black" points="540,-129.5 540,-150.5 719,-150.5 719,-129.5 540,-129.5"/>
<text text-anchor="middle" x="629.5" y="-136.9" font-family="Helvetica,sans-Serif" font-size="12.00">JKQTPGraphErrorStyleMixin</text>
</a>
</g>
</g>
<!-- Node13&#45;&gt;Node11 -->
<g id="edge12" class="edge">
<title>Node13&#45;&gt;Node11</title>
<path fill="none" stroke="midnightblue" d="M588.08,-126.32C554.51,-116.05 507.97,-101.81 477.55,-92.5"/>
<polygon fill="midnightblue" stroke="midnightblue" points="587.45,-129.79 598.04,-129.37 589.5,-123.1 587.45,-129.79"/>
</g>
</g>
</svg>
