<?xml version="1.0" encoding="UTF-8" standalone="no"?>
<!DOCTYPE svg PUBLIC "-//W3C//DTD SVG 1.1//EN"
 "http://www.w3.org/Graphics/SVG/1.1/DTD/svg11.dtd">
<!-- Generated by graphviz version 2.43.0 (0)
 -->
<!-- Title: JKQTPColumn Pages: 1 -->
<svg width="348pt" height="239pt"
 viewBox="0.00 0.00 347.50 239.00" xmlns="http://www.w3.org/2000/svg" xmlns:xlink="http://www.w3.org/1999/xlink">
<g id="graph0" class="graph" transform="scale(1 1) rotate(0) translate(4 235)">
<title>JKQTPColumn</title>
<!-- Node1 -->
<g id="Node000001" class="node">
<title>Node1</title>
<g id="a_Node000001"><a xlink:title="internally stores information about one data column. See JKQTPDatastore for more information.">
<polygon fill="#999999" stroke="#666666" points="113.5,-161 15.5,-161 15.5,-140 113.5,-140 113.5,-161"/>
<text text-anchor="middle" x="64.5" y="-147.4" font-family="Helvetica,sans-Serif" font-size="12.00">JKQTPColumn</text>
</a>
</g>
</g>
<!-- Node3 -->
<g id="Node000003" class="node">
<title>Node3</title>
<g id="a_Node000003"><a xlink:title=" ">
<polygon fill="white" stroke="#666666" points="334,-91 119,-91 119,-70 334,-70 334,-91"/>
<text text-anchor="middle" x="226.5" y="-77.4" font-family="Helvetica,sans-Serif" font-size="12.00">std::unique_ptr&lt; JKQTPColumn &gt;</text>
</a>
</g>
</g>
<!-- Node1&#45;&gt;Node3 -->
<g id="edge3_Node000003_Node000001" class="edge">
<title>Node1&#45;&gt;Node3</title>
<g id="a_edge3_Node000003_Node000001"><a xlink:title=" ">
<path fill="none" stroke="#9a32cd" stroke-dasharray="5,2" d="M96.64,-136.01C128.29,-122.73 175.82,-102.77 203.75,-91.05"/>
<polygon fill="#9a32cd" stroke="#9a32cd" points="95.23,-132.8 87.37,-139.9 97.94,-139.26 95.23,-132.8"/>
</a>
</g>
<text text-anchor="middle" x="171.5" y="-112.4" font-family="Helvetica,sans-Serif" font-size="12.00" fill="grey"> ptr</text>
</g>
<!-- Node2 -->
<g id="Node000002" class="node">
<title>Node2</title>
<g id="a_Node000002"><a xlink:href="class_j_k_q_t_p_datastore.html" target="_top" xlink:title="This class manages data columns (with entries of type double ), used by JKQTPlotter/JKQTBasePlotter t...">
<polygon fill="white" stroke="#666666" points="111,-21 0,-21 0,0 111,0 111,-21"/>
<text text-anchor="middle" x="55.5" y="-7.4" font-family="Helvetica,sans-Serif" font-size="12.00">JKQTPDatastore</text>
</a>
</g>
</g>
<!-- Node2&#45;&gt;Node1 -->
<g id="edge1_Node000001_Node000002" class="edge">
<title>Node2&#45;&gt;Node1</title>
<g id="a_edge1_Node000001_Node000002"><a xlink:title=" ">
<path fill="none" stroke="#9a32cd" stroke-dasharray="5,2" d="M51.4,-30.93C48.56,-47.06 45.76,-70.58 48.5,-91 50.85,-108.53 57.01,-128.25 60.96,-139.73"/>
<polygon fill="#9a32cd" stroke="#9a32cd" points="54.84,-31.56 53.29,-21.08 47.97,-30.23 54.84,-31.56"/>
</a>
</g>
<text text-anchor="middle" x="79" y="-77.4" font-family="Helvetica,sans-Serif" font-size="12.00" fill="grey"> datastore</text>
</g>
<!-- Node3&#45;&gt;Node2 -->
<g id="edge2_Node000002_Node000003" class="edge">
<title>Node3&#45;&gt;Node2</title>
<g id="a_edge2_Node000002_Node000003"><a xlink:title=" ">
<path fill="none" stroke="#9a32cd" stroke-dasharray="5,2" d="M193.01,-66.18C159.6,-52.9 109.12,-32.82 79.51,-21.05"/>
<polygon fill="#9a32cd" stroke="#9a32cd" points="191.78,-69.46 202.36,-69.9 194.36,-62.95 191.78,-69.46"/>
</a>
</g>
<text text-anchor="middle" x="209.5" y="-42.4" font-family="Helvetica,sans-Serif" font-size="12.00" fill="grey"> m_invalidColumn</text>
</g>
<!-- Node4 -->
<g id="Node000004" class="node">
<title>Node4</title>
<g id="a_Node000004"><a xlink:title=" ">
<polygon fill="white" stroke="#666666" points="296.5,-161 156.5,-161 156.5,-140 296.5,-140 296.5,-161"/>
<text text-anchor="middle" x="226.5" y="-147.4" font-family="Helvetica,sans-Serif" font-size="12.00">std::unique_ptr&lt; T &gt;</text>
</a>
</g>
</g>
<!-- Node4&#45;&gt;Node3 -->
<g id="edge4_Node000003_Node000004" class="edge">
<title>Node4&#45;&gt;Node3</title>
<g id="a_edge4_Node000003_Node000004"><a xlink:title=" ">
<path fill="none" stroke="orange" stroke-dasharray="5,2" d="M226.5,-129.7C226.5,-117.05 226.5,-101.22 226.5,-91.22"/>
<polygon fill="orange" stroke="orange" points="223,-129.76 226.5,-139.76 230,-129.76 223,-129.76"/>
</a>
</g>
<text text-anchor="middle" x="283" y="-112.4" font-family="Helvetica,sans-Serif" font-size="12.00" fill="grey"> &lt; JKQTPColumn &gt;</text>
</g>
<!-- Node5 -->
<g id="Node000005" class="node">
<title>Node5</title>
<g id="a_Node000005"><a xlink:title=" ">
<polygon fill="white" stroke="#666666" points="241,-231 212,-231 212,-210 241,-210 241,-231"/>
<text text-anchor="middle" x="226.5" y="-217.4" font-family="Helvetica,sans-Serif" font-size="12.00">T</text>
</a>
</g>
</g>
<!-- Node5&#45;&gt;Node4 -->
<g id="edge5_Node000004_Node000005" class="edge">
<title>Node5&#45;&gt;Node4</title>
<g id="a_edge5_Node000004_Node000005"><a xlink:title=" ">
<path fill="none" stroke="#9a32cd" stroke-dasharray="5,2" d="M226.5,-199.7C226.5,-187.05 226.5,-171.22 226.5,-161.22"/>
<polygon fill="#9a32cd" stroke="#9a32cd" points="223,-199.76 226.5,-209.76 230,-199.76 223,-199.76"/>
</a>
</g>
<text text-anchor="middle" x="237.5" y="-182.4" font-family="Helvetica,sans-Serif" font-size="12.00" fill="grey"> ptr</text>
</g>
</g>
</svg>
