<?xml version="1.0" encoding="UTF-8" standalone="no"?>
<!DOCTYPE svg PUBLIC "-//W3C//DTD SVG 1.1//EN"
 "http://www.w3.org/Graphics/SVG/1.1/DTD/svg11.dtd">
<!-- Generated by graphviz version 2.43.0 (0)
 -->
<!-- Title: JKQTPGeoInfiniteLine Pages: 1 -->
<svg width="3258pt" height="755pt"
 viewBox="0.00 0.00 3258.00 754.50" xmlns="http://www.w3.org/2000/svg" xmlns:xlink="http://www.w3.org/1999/xlink">
<g id="graph0" class="graph" transform="scale(1 1) rotate(0) translate(4 750.5)">
<title>JKQTPGeoInfiniteLine</title>
<!-- Node1 -->
<g id="node1" class="node">
<title>Node1</title>
<g id="a_node1"><a xlink:title="This JKQTPGeometricPlotElement is used to draw an infinite line.">
<polygon fill="#999999" stroke="#666666" points="3250,-431 3107,-431 3107,-410 3250,-410 3250,-431"/>
<text text-anchor="middle" x="3178.5" y="-417.4" font-family="Helvetica,sans-Serif" font-size="12.00">JKQTPGeoInfiniteLine</text>
</a>
</g>
</g>
<!-- Node2 -->
<g id="node2" class="node">
<title>Node2</title>
<g id="a_node2"><a xlink:href="class_j_k_q_t_p_geo_base_decorated_head_line.html" target="_top" xlink:title="This JKQTPGeometricPlotElement is used as base class for geometric drawing elements that consist of l...">
<polygon fill="white" stroke="#666666" points="3070,-431 2845,-431 2845,-410 3070,-410 3070,-431"/>
<text text-anchor="middle" x="2957.5" y="-417.4" font-family="Helvetica,sans-Serif" font-size="12.00">JKQTPGeoBaseDecoratedHeadLine</text>
</a>
</g>
</g>
<!-- Node2&#45;&gt;Node1 -->
<g id="edge1" class="edge">
<title>Node2&#45;&gt;Node1</title>
<path fill="none" stroke="#63b8ff" d="M3080.43,-420.5C3089.42,-420.5 3098.3,-420.5 3106.82,-420.5"/>
<polygon fill="#63b8ff" stroke="#63b8ff" points="3080.25,-417 3070.25,-420.5 3080.25,-424 3080.25,-417"/>
</g>
<!-- Node3 -->
<g id="node3" class="node">
<title>Node3</title>
<g id="a_node3"><a xlink:href="class_j_k_q_t_p_geometric_plot_element.html" target="_top" xlink:title="this is the virtual base class of all JKQTPPlotElement&#39;s in a JKQTPlotter plot that represent geometr...">
<polygon fill="white" stroke="#666666" points="2797.5,-409 2609.5,-409 2609.5,-388 2797.5,-388 2797.5,-409"/>
<text text-anchor="middle" x="2703.5" y="-395.4" font-family="Helvetica,sans-Serif" font-size="12.00">JKQTPGeometricPlotElement</text>
</a>
</g>
</g>
<!-- Node3&#45;&gt;Node2 -->
<g id="edge2" class="edge">
<title>Node3&#45;&gt;Node2</title>
<path fill="none" stroke="#63b8ff" d="M2807.83,-407.52C2820.08,-408.59 2832.63,-409.69 2844.99,-410.77"/>
<polygon fill="#63b8ff" stroke="#63b8ff" points="2807.89,-404.01 2797.62,-406.63 2807.28,-410.99 2807.89,-404.01"/>
</g>
<!-- Node4 -->
<g id="node4" class="node">
<title>Node4</title>
<g id="a_node4"><a xlink:href="class_j_k_q_t_p_plot_element.html" target="_top" xlink:title="this virtual base class of every element, which is part of a JKQTPlotter plot and may appear in its k...">
<polygon fill="white" stroke="#666666" points="2483,-409 2358,-409 2358,-388 2483,-388 2483,-409"/>
<text text-anchor="middle" x="2420.5" y="-395.4" font-family="Helvetica,sans-Serif" font-size="12.00">JKQTPPlotElement</text>
</a>
</g>
</g>
<!-- Node4&#45;&gt;Node3 -->
<g id="edge3" class="edge">
<title>Node4&#45;&gt;Node3</title>
<path fill="none" stroke="#63b8ff" d="M2493.39,-398.5C2528.7,-398.5 2571.67,-398.5 2609.46,-398.5"/>
<polygon fill="#63b8ff" stroke="#63b8ff" points="2493.17,-395 2483.17,-398.5 2493.17,-402 2493.17,-395"/>
</g>
<!-- Node5 -->
<g id="node5" class="node">
<title>Node5</title>
<g id="a_node5"><a xlink:title=" ">
<polygon fill="white" stroke="#666666" points="1507.5,-343 1442.5,-343 1442.5,-322 1507.5,-322 1507.5,-343"/>
<text text-anchor="middle" x="1475" y="-329.4" font-family="Helvetica,sans-Serif" font-size="12.00">QObject</text>
</a>
</g>
</g>
<!-- Node5&#45;&gt;Node4 -->
<g id="edge4" class="edge">
<title>Node5&#45;&gt;Node4</title>
<path fill="none" stroke="#63b8ff" d="M1517.29,-345.97C1593.21,-369.95 1760.57,-419.16 1906,-436.5 2077.67,-456.97 2129.53,-486.6 2295,-436.5 2304.2,-433.71 2304.2,-428.37 2313,-424.5 2327.9,-417.96 2344.73,-412.89 2360.53,-409.03"/>
<polygon fill="#63b8ff" stroke="#63b8ff" points="1518.21,-342.59 1507.62,-342.9 1516.09,-349.26 1518.21,-342.59"/>
</g>
<!-- Node6 -->
<g id="node6" class="node">
<title>Node6</title>
<g id="a_node6"><a xlink:href="class_j_k_q_t_base_plotter.html" target="_top" xlink:title="base class for 2D plotter classes (used by the plotter widget JKQTPlotter)">
<polygon fill="white" stroke="#666666" points="2149.5,-371 2035.5,-371 2035.5,-350 2149.5,-350 2149.5,-371"/>
<text text-anchor="middle" x="2092.5" y="-357.4" font-family="Helvetica,sans-Serif" font-size="12.00">JKQTBasePlotter</text>
</a>
</g>
</g>
<!-- Node5&#45;&gt;Node6 -->
<g id="edge6" class="edge">
<title>Node5&#45;&gt;Node6</title>
<path fill="none" stroke="#63b8ff" d="M1517.97,-334.41C1625.96,-339.32 1913.46,-352.4 2035.48,-357.95"/>
<polygon fill="#63b8ff" stroke="#63b8ff" points="1517.94,-330.9 1507.8,-333.95 1517.63,-337.9 1517.94,-330.9"/>
</g>
<!-- Node19 -->
<g id="node19" class="node">
<title>Node19</title>
<g id="a_node19"><a xlink:href="class_j_k_q_t_math_text.html" target="_top" xlink:title="this class parses a mathematical markup string and can then draw the contained text/equation onto a Q...">
<polygon fill="white" stroke="#666666" points="1866,-243 1767,-243 1767,-222 1866,-222 1866,-243"/>
<text text-anchor="middle" x="1816.5" y="-229.4" font-family="Helvetica,sans-Serif" font-size="12.00">JKQTMathText</text>
</a>
</g>
</g>
<!-- Node5&#45;&gt;Node19 -->
<g id="edge25" class="edge">
<title>Node5&#45;&gt;Node19</title>
<path fill="none" stroke="#63b8ff" d="M1517.46,-320.29C1584.71,-300.48 1716.4,-261.69 1779.77,-243.02"/>
<polygon fill="#63b8ff" stroke="#63b8ff" points="1516.24,-317 1507.63,-323.18 1518.22,-323.71 1516.24,-317"/>
</g>
<!-- Node25 -->
<g id="node25" class="node">
<title>Node25</title>
<g id="a_node25"><a xlink:href="class_j_k_q_t_p_coordinate_axis.html" target="_top" xlink:title="this virtual class is the base for any type of coordinate axis, to be drawn by JKQTBasePlotter.">
<polygon fill="white" stroke="#666666" points="2491.5,-278 2349.5,-278 2349.5,-257 2491.5,-257 2491.5,-278"/>
<text text-anchor="middle" x="2420.5" y="-264.4" font-family="Helvetica,sans-Serif" font-size="12.00">JKQTPCoordinateAxis</text>
</a>
</g>
</g>
<!-- Node5&#45;&gt;Node25 -->
<g id="edge35" class="edge">
<title>Node5&#45;&gt;Node25</title>
<path fill="none" stroke="#63b8ff" d="M1517.75,-330.42C1606.92,-325.86 1822.57,-314.22 2003,-299.5 2082.69,-293 2102.3,-287.85 2182,-281.5 2238.2,-277.02 2301.99,-273.34 2349.3,-270.87"/>
<polygon fill="#63b8ff" stroke="#63b8ff" points="1517.32,-326.94 1507.51,-330.94 1517.68,-333.93 1517.32,-326.94"/>
</g>
<!-- Node6&#45;&gt;Node4 -->
<g id="edge5" class="edge">
<title>Node6&#45;&gt;Node4</title>
<path fill="none" stroke="#9a32cd" stroke-dasharray="5,2" d="M2159.69,-368.22C2217.66,-374.97 2301.23,-384.71 2357.81,-391.31"/>
<polygon fill="#9a32cd" stroke="#9a32cd" points="2159.88,-364.71 2149.54,-367.03 2159.07,-371.67 2159.88,-364.71"/>
<text text-anchor="middle" x="2238.5" y="-386.9" font-family="Helvetica,sans-Serif" font-size="12.00"> parent</text>
</g>
<!-- Node6&#45;&gt;Node6 -->
<g id="edge47" class="edge">
<title>Node6&#45;&gt;Node6</title>
<path fill="none" stroke="#9a32cd" stroke-dasharray="5,2" d="M2067.07,-380.57C2069.03,-385.41 2077.51,-389 2092.5,-389 2116.49,-389 2123.8,-379.81 2114.43,-371.02"/>
<polygon fill="#9a32cd" stroke="#9a32cd" points="2070.41,-381.62 2070.57,-371.02 2063.84,-379.21 2070.41,-381.62"/>
<text text-anchor="middle" x="2092.5" y="-405.4" font-family="Helvetica,sans-Serif" font-size="12.00"> masterPlotterX</text>
<text text-anchor="middle" x="2092.5" y="-392.4" font-family="Helvetica,sans-Serif" font-size="12.00">masterPlotterY</text>
</g>
<!-- Node21 -->
<g id="node21" class="node">
<title>Node21</title>
<g id="a_node21"><a xlink:href="class_j_k_q_t_p_graphs_model.html" target="_top" xlink:title="data model with all plots ina JKQTBasePlotter (+ allows to switch them visible/invisible)">
<polygon fill="white" stroke="#666666" points="2486,-494 2355,-494 2355,-473 2486,-473 2486,-494"/>
<text text-anchor="middle" x="2420.5" y="-480.4" font-family="Helvetica,sans-Serif" font-size="12.00">JKQTPGraphsModel</text>
</a>
</g>
</g>
<!-- Node6&#45;&gt;Node21 -->
<g id="edge31" class="edge">
<title>Node6&#45;&gt;Node21</title>
<path fill="none" stroke="#9a32cd" stroke-dasharray="5,2" d="M2104.23,-379.99C2118.52,-403.82 2146.23,-443.25 2182,-461.5 2211.19,-476.39 2295.04,-481.28 2354.83,-482.84"/>
<polygon fill="#9a32cd" stroke="#9a32cd" points="2107.14,-378.02 2099.1,-371.12 2101.08,-381.53 2107.14,-378.02"/>
<text text-anchor="middle" x="2238.5" y="-482.9" font-family="Helvetica,sans-Serif" font-size="12.00"> m_plotter</text>
</g>
<!-- Node6&#45;&gt;Node25 -->
<g id="edge36" class="edge">
<title>Node6&#45;&gt;Node25</title>
<path fill="none" stroke="#9a32cd" stroke-dasharray="5,2" d="M2113.48,-343.35C2130.53,-329.7 2156.3,-311.33 2182,-301.5 2211.72,-290.14 2290.53,-280.23 2349.26,-274.09"/>
<polygon fill="#9a32cd" stroke="#9a32cd" points="2110.91,-340.93 2105.41,-349.98 2115.36,-346.34 2110.91,-340.93"/>
<text text-anchor="middle" x="2238.5" y="-304.9" font-family="Helvetica,sans-Serif" font-size="12.00"> parent</text>
</g>
<!-- Node7 -->
<g id="node7" class="node">
<title>Node7</title>
<g id="a_node7"><a xlink:href="class_j_k_q_t_base_plotter_style.html" target="_top" xlink:title="Support Class for JKQTBasePlotter, which summarizes all properties that define the visual styling of ...">
<polygon fill="white" stroke="#666666" points="1888,-469 1745,-469 1745,-448 1888,-448 1888,-469"/>
<text text-anchor="middle" x="1816.5" y="-455.4" font-family="Helvetica,sans-Serif" font-size="12.00">JKQTBasePlotterStyle</text>
</a>
</g>
</g>
<!-- Node7&#45;&gt;Node6 -->
<g id="edge7" class="edge">
<title>Node7&#45;&gt;Node6</title>
<path fill="none" stroke="#9a32cd" stroke-dasharray="5,2" d="M1865.7,-445.17C1903.47,-434.32 1957.12,-417.97 2003,-400.5 2026.32,-391.62 2052.26,-379.64 2069.99,-371.11"/>
<polygon fill="#9a32cd" stroke="#9a32cd" points="1864.63,-441.84 1855.98,-447.95 1866.55,-448.57 1864.63,-441.84"/>
<text text-anchor="middle" x="1954.5" y="-436.9" font-family="Helvetica,sans-Serif" font-size="12.00"> plotterStyle</text>
</g>
<!-- Node8 -->
<g id="node8" class="node">
<title>Node8</title>
<g id="a_node8"><a xlink:href="class_j_k_q_t_p_key_style.html" target="_top" xlink:title="Support Class for JKQTBasePlotter, which summarizes all properties that define the visual styling of ...">
<polygon fill="white" stroke="#666666" points="1527,-417 1423,-417 1423,-396 1527,-396 1527,-417"/>
<text text-anchor="middle" x="1475" y="-403.4" font-family="Helvetica,sans-Serif" font-size="12.00">JKQTPKeyStyle</text>
</a>
</g>
</g>
<!-- Node8&#45;&gt;Node7 -->
<g id="edge8" class="edge">
<title>Node8&#45;&gt;Node7</title>
<path fill="none" stroke="#9a32cd" stroke-dasharray="5,2" d="M1537.4,-412.18C1588.39,-417.35 1662.72,-425.94 1727,-437.5 1742.85,-440.35 1760.12,-444.26 1775.16,-447.94"/>
<polygon fill="#9a32cd" stroke="#9a32cd" points="1537.5,-408.67 1527.21,-411.16 1536.81,-415.64 1537.5,-408.67"/>
<text text-anchor="middle" x="1658.5" y="-440.9" font-family="Helvetica,sans-Serif" font-size="12.00"> keyStyle</text>
</g>
<!-- Node9 -->
<g id="node9" class="node">
<title>Node9</title>
<g id="a_node9"><a xlink:href="class_j_k_q_t_p_coordinate_axis_style.html" target="_top" xlink:title="Support Class for JKQTPCoordinateAxis, which summarizes all properties that define the visual styling...">
<polygon fill="white" stroke="#666666" points="1234,-463 1063,-463 1063,-442 1234,-442 1234,-463"/>
<text text-anchor="middle" x="1148.5" y="-449.4" font-family="Helvetica,sans-Serif" font-size="12.00">JKQTPCoordinateAxisStyle</text>
</a>
</g>
</g>
<!-- Node9&#45;&gt;Node7 -->
<g id="edge9" class="edge">
<title>Node9&#45;&gt;Node7</title>
<path fill="none" stroke="#9a32cd" stroke-dasharray="5,2" d="M1242.7,-464.25C1249.23,-465.03 1255.71,-465.78 1262,-466.5 1467.53,-489.92 1522.57,-518.07 1727,-486.5 1748.5,-483.18 1771.94,-475.57 1789.29,-469.13"/>
<polygon fill="#9a32cd" stroke="#9a32cd" points="1242.76,-460.73 1232.42,-463.02 1241.93,-467.68 1242.76,-460.73"/>
<text text-anchor="middle" x="1475" y="-516.9" font-family="Helvetica,sans-Serif" font-size="12.00"> xAxisStyle</text>
<text text-anchor="middle" x="1475" y="-503.9" font-family="Helvetica,sans-Serif" font-size="12.00">yAxisStyle</text>
</g>
<!-- Node11 -->
<g id="node11" class="node">
<title>Node11</title>
<g id="a_node11"><a xlink:href="class_j_k_q_t_p_colorbar_coordinate_axis_style.html" target="_top" xlink:title="Support Class for JKQTPCoordinateAxis, which summarizes all properties that define the visual styling...">
<polygon fill="white" stroke="#666666" points="1572,-469.5 1378,-469.5 1378,-435.5 1572,-435.5 1572,-469.5"/>
<text text-anchor="start" x="1386" y="-455.9" font-family="Helvetica,sans-Serif" font-size="12.00">JKQTPColorbarCoordinateAxis</text>
<text text-anchor="middle" x="1475" y="-442.9" font-family="Helvetica,sans-Serif" font-size="12.00">Style</text>
</a>
</g>
</g>
<!-- Node9&#45;&gt;Node11 -->
<g id="edge12" class="edge">
<title>Node9&#45;&gt;Node11</title>
<path fill="none" stroke="#63b8ff" d="M1244.56,-452.5C1286.54,-452.5 1335.81,-452.5 1377.91,-452.5"/>
<polygon fill="#63b8ff" stroke="#63b8ff" points="1244.33,-449 1234.33,-452.5 1244.33,-456 1244.33,-449"/>
</g>
<!-- Node9&#45;&gt;Node25 -->
<g id="edge37" class="edge">
<title>Node9&#45;&gt;Node25</title>
<path fill="none" stroke="#9a32cd" stroke-dasharray="5,2" d="M1158.33,-432.66C1190.14,-364.57 1305.92,-144.5 1474,-144.5 1474,-144.5 1474,-144.5 2093.5,-144.5 2220.23,-144.5 2357.86,-226.87 2403.68,-256.8"/>
<polygon fill="#9a32cd" stroke="#9a32cd" points="1155.08,-431.35 1154.1,-441.9 1161.45,-434.26 1155.08,-431.35"/>
<text text-anchor="middle" x="1816.5" y="-147.9" font-family="Helvetica,sans-Serif" font-size="12.00"> axisStyle</text>
</g>
<!-- Node10 -->
<g id="node10" class="node">
<title>Node10</title>
<g id="a_node10"><a xlink:href="class_j_k_q_t_p_grid_style.html" target="_top" xlink:title="Support Class for JKQTPCoordinateAxis, and summarizes all properties that define the visual styling o...">
<polygon fill="white" stroke="#666666" points="805.5,-463 698.5,-463 698.5,-442 805.5,-442 805.5,-463"/>
<text text-anchor="middle" x="752" y="-449.4" font-family="Helvetica,sans-Serif" font-size="12.00">JKQTPGridStyle</text>
</a>
</g>
</g>
<!-- Node10&#45;&gt;Node9 -->
<g id="edge10" class="edge">
<title>Node10&#45;&gt;Node9</title>
<path fill="none" stroke="#9a32cd" stroke-dasharray="5,2" d="M816.18,-452.5C883.03,-452.5 988.9,-452.5 1062.92,-452.5"/>
<polygon fill="#9a32cd" stroke="#9a32cd" points="815.79,-449 805.79,-452.5 815.79,-456 815.79,-449"/>
<text text-anchor="middle" x="948.5" y="-468.9" font-family="Helvetica,sans-Serif" font-size="12.00"> majorGridStyle</text>
<text text-anchor="middle" x="948.5" y="-455.9" font-family="Helvetica,sans-Serif" font-size="12.00">minorGridStyle</text>
</g>
<!-- Node11&#45;&gt;Node7 -->
<g id="edge11" class="edge">
<title>Node11&#45;&gt;Node7</title>
<path fill="none" stroke="#9a32cd" stroke-dasharray="5,2" d="M1582.48,-454.38C1635.39,-455.32 1697.86,-456.42 1744.79,-457.25"/>
<polygon fill="#9a32cd" stroke="#9a32cd" points="1582.44,-450.88 1572.38,-454.2 1582.32,-457.88 1582.44,-450.88"/>
<text text-anchor="middle" x="1658.5" y="-472.9" font-family="Helvetica,sans-Serif" font-size="12.00"> rightColorbarAxisStyle</text>
<text text-anchor="middle" x="1658.5" y="-459.9" font-family="Helvetica,sans-Serif" font-size="12.00">topColorbarAxisStyle</text>
</g>
<!-- Node12 -->
<g id="node12" class="node">
<title>Node12</title>
<g id="a_node12"><a xlink:href="class_j_k_q_t_graphs_base_style.html" target="_top" xlink:title="Support Class for JKQTBasePlotter, which summarizes all properties that define the visual styling of ...">
<polygon fill="white" stroke="#666666" points="1548,-612 1402,-612 1402,-591 1548,-591 1548,-612"/>
<text text-anchor="middle" x="1475" y="-598.4" font-family="Helvetica,sans-Serif" font-size="12.00">JKQTGraphsBaseStyle</text>
</a>
</g>
</g>
<!-- Node12&#45;&gt;Node7 -->
<g id="edge13" class="edge">
<title>Node12&#45;&gt;Node7</title>
<path fill="none" stroke="#9a32cd" stroke-dasharray="5,2" d="M1530.75,-588.49C1582.82,-575 1662.54,-551.41 1727,-519.5 1755.93,-505.18 1786.18,-482.36 1802.75,-469.06"/>
<polygon fill="#9a32cd" stroke="#9a32cd" points="1529.86,-585.11 1521.04,-590.97 1531.59,-591.89 1529.86,-585.11"/>
<text text-anchor="middle" x="1658.5" y="-573.9" font-family="Helvetica,sans-Serif" font-size="12.00"> graphsStyle</text>
</g>
<!-- Node13 -->
<g id="node13" class="node">
<title>Node13</title>
<g id="a_node13"><a xlink:href="class_j_k_q_t_graphs_specific_style_properties.html" target="_top" xlink:title="Support Class for JKQTBasePlotter, which summarizes all properties that define the visual styling of ...">
<polygon fill="white" stroke="#666666" points="623,-672 399,-672 399,-651 623,-651 623,-672"/>
<text text-anchor="middle" x="511" y="-658.4" font-family="Helvetica,sans-Serif" font-size="12.00">JKQTGraphsSpecificStyleProperties</text>
</a>
</g>
</g>
<!-- Node13&#45;&gt;Node12 -->
<g id="edge14" class="edge">
<title>Node13&#45;&gt;Node12</title>
<path fill="none" stroke="#9a32cd" stroke-dasharray="5,2" d="M581.71,-673.59C712.54,-694.22 1003.4,-730.34 1244,-690.5 1297,-681.72 1309.86,-675.79 1360,-656.5 1394.25,-643.32 1432.33,-623.93 1454.66,-612.04"/>
<polygon fill="#9a32cd" stroke="#9a32cd" points="582.24,-670.13 571.81,-672.01 581.13,-677.04 582.24,-670.13"/>
<text text-anchor="middle" x="948.5" y="-736.9" font-family="Helvetica,sans-Serif" font-size="12.00"> boxplotStyle</text>
<text text-anchor="middle" x="948.5" y="-723.9" font-family="Helvetica,sans-Serif" font-size="12.00">defaultGraphStyle</text>
<text text-anchor="middle" x="948.5" y="-710.9" font-family="Helvetica,sans-Serif" font-size="12.00">filledStyle</text>
</g>
<!-- Node15 -->
<g id="node15" class="node">
<title>Node15</title>
<g id="a_node15"><a xlink:href="class_j_k_q_t_barchart_specific_style_properties.html" target="_top" xlink:title="Support Class for JKQTBasePlotter, which summarizes all properties that define the visual styling of ...">
<polygon fill="white" stroke="#666666" points="1035,-695.5 862,-695.5 862,-661.5 1035,-661.5 1035,-695.5"/>
<text text-anchor="start" x="870" y="-681.9" font-family="Helvetica,sans-Serif" font-size="12.00">JKQTBarchartSpecificStyle</text>
<text text-anchor="middle" x="948.5" y="-668.9" font-family="Helvetica,sans-Serif" font-size="12.00">Properties</text>
</a>
</g>
</g>
<!-- Node13&#45;&gt;Node15 -->
<g id="edge17" class="edge">
<title>Node13&#45;&gt;Node15</title>
<path fill="none" stroke="#63b8ff" d="M633.15,-666.23C705.82,-669.07 796.5,-672.61 861.76,-675.15"/>
<polygon fill="#63b8ff" stroke="#63b8ff" points="633.15,-662.73 623.02,-665.83 632.88,-669.72 633.15,-662.73"/>
</g>
<!-- Node16 -->
<g id="node16" class="node">
<title>Node16</title>
<g id="a_node16"><a xlink:href="class_j_k_q_t_impulse_specific_style_properties.html" target="_top" xlink:title="Support Class for JKQTBasePlotter, which summarizes all properties that define the visual styling of ...">
<polygon fill="white" stroke="#666666" points="1032.5,-556.5 864.5,-556.5 864.5,-522.5 1032.5,-522.5 1032.5,-556.5"/>
<text text-anchor="start" x="872.5" y="-542.9" font-family="Helvetica,sans-Serif" font-size="12.00">JKQTImpulseSpecificStyle</text>
<text text-anchor="middle" x="948.5" y="-529.9" font-family="Helvetica,sans-Serif" font-size="12.00">Properties</text>
</a>
</g>
</g>
<!-- Node13&#45;&gt;Node16 -->
<g id="edge19" class="edge">
<title>Node13&#45;&gt;Node16</title>
<path fill="none" stroke="#63b8ff" d="M544.02,-646.64C573.61,-633.36 619.05,-614.11 660,-601.5 727.71,-580.65 806.48,-564.18 864.43,-553.48"/>
<polygon fill="#63b8ff" stroke="#63b8ff" points="542.29,-643.58 534.63,-650.89 545.18,-649.96 542.29,-643.58"/>
</g>
<!-- Node17 -->
<g id="node17" class="node">
<title>Node17</title>
<g id="a_node17"><a xlink:href="class_j_k_q_t_geometric_specific_style_properties.html" target="_top" xlink:title="Support Class for JKQTBasePlotter, which summarizes all properties that define the visual styling of ...">
<polygon fill="white" stroke="#666666" points="844,-644.5 660,-644.5 660,-610.5 844,-610.5 844,-644.5"/>
<text text-anchor="start" x="668" y="-630.9" font-family="Helvetica,sans-Serif" font-size="12.00">JKQTGeometricSpecificStyle</text>
<text text-anchor="middle" x="752" y="-617.9" font-family="Helvetica,sans-Serif" font-size="12.00">Properties</text>
</a>
</g>
</g>
<!-- Node13&#45;&gt;Node17 -->
<g id="edge21" class="edge">
<title>Node13&#45;&gt;Node17</title>
<path fill="none" stroke="#63b8ff" d="M595.97,-649.56C616.58,-646.62 638.74,-643.47 659.68,-640.49"/>
<polygon fill="#63b8ff" stroke="#63b8ff" points="595.39,-646.1 585.98,-650.98 596.38,-653.03 595.39,-646.1"/>
</g>
<!-- Node14 -->
<g id="node14" class="node">
<title>Node14</title>
<g id="a_node14"><a xlink:href="struct_j_k_q_t_p_color_derivation_mode.html" target="_top" xlink:title="Specifies how a fill&#45;color is derived from a given color.">
<polygon fill="white" stroke="#666666" points="179,-672 0,-672 0,-651 179,-651 179,-672"/>
<text text-anchor="middle" x="89.5" y="-658.4" font-family="Helvetica,sans-Serif" font-size="12.00">JKQTPColorDerivationMode</text>
</a>
</g>
</g>
<!-- Node14&#45;&gt;Node13 -->
<g id="edge15" class="edge">
<title>Node14&#45;&gt;Node13</title>
<path fill="none" stroke="#9a32cd" stroke-dasharray="5,2" d="M189.53,-661.5C252.41,-661.5 333.9,-661.5 398.97,-661.5"/>
<polygon fill="#9a32cd" stroke="#9a32cd" points="189.21,-658 179.21,-661.5 189.21,-665 189.21,-658"/>
<text text-anchor="middle" x="289" y="-716.9" font-family="Helvetica,sans-Serif" font-size="12.00"> errorColorDerivationMode</text>
<text text-anchor="middle" x="289" y="-703.9" font-family="Helvetica,sans-Serif" font-size="12.00">errorFillColorDerivationMode</text>
<text text-anchor="middle" x="289" y="-690.9" font-family="Helvetica,sans-Serif" font-size="12.00">fillColorDerivationMode</text>
<text text-anchor="middle" x="289" y="-677.9" font-family="Helvetica,sans-Serif" font-size="12.00">graphColorDerivationMode</text>
<text text-anchor="middle" x="289" y="-664.9" font-family="Helvetica,sans-Serif" font-size="12.00">symbolFillColorDerivationMode</text>
</g>
<!-- Node15&#45;&gt;Node12 -->
<g id="edge16" class="edge">
<title>Node15&#45;&gt;Node12</title>
<path fill="none" stroke="#9a32cd" stroke-dasharray="5,2" d="M1045.37,-674.48C1129.22,-669.48 1253.85,-658.47 1360,-634.5 1387.74,-628.24 1418.7,-619.14 1441.34,-612.08"/>
<polygon fill="#9a32cd" stroke="#9a32cd" points="1045.13,-670.99 1035.35,-675.06 1045.53,-677.97 1045.13,-670.99"/>
<text text-anchor="middle" x="1148.5" y="-676.9" font-family="Helvetica,sans-Serif" font-size="12.00"> barchartStyle</text>
</g>
<!-- Node16&#45;&gt;Node12 -->
<g id="edge18" class="edge">
<title>Node16&#45;&gt;Node12</title>
<path fill="none" stroke="#9a32cd" stroke-dasharray="5,2" d="M1042.79,-537.23C1100.82,-536.77 1176.91,-537.9 1244,-544.5 1296.14,-549.63 1309.14,-552.92 1360,-565.5 1389.01,-572.68 1421.46,-583.17 1444.29,-590.98"/>
<polygon fill="#9a32cd" stroke="#9a32cd" points="1042.5,-533.73 1032.54,-537.33 1042.57,-540.73 1042.5,-533.73"/>
<text text-anchor="middle" x="1148.5" y="-547.9" font-family="Helvetica,sans-Serif" font-size="12.00"> impulseStyle</text>
</g>
<!-- Node17&#45;&gt;Node12 -->
<g id="edge20" class="edge">
<title>Node17&#45;&gt;Node12</title>
<path fill="none" stroke="#9a32cd" stroke-dasharray="5,2" d="M854.18,-611.03C912.19,-602.43 986.48,-592.81 1053,-588.5 1137.71,-583.02 1159.14,-586.1 1244,-588.5 1296.87,-589.99 1356.5,-593.41 1401.79,-596.37"/>
<polygon fill="#9a32cd" stroke="#9a32cd" points="853.65,-607.57 844.28,-612.52 854.69,-614.5 853.65,-607.57"/>
<text text-anchor="middle" x="1148.5" y="-591.9" font-family="Helvetica,sans-Serif" font-size="12.00"> geometricStyle</text>
</g>
<!-- Node18 -->
<g id="node18" class="node">
<title>Node18</title>
<g id="a_node18"><a xlink:href="class_j_k_q_t_annotations_specific_style_properties.html" target="_top" xlink:title="Support Class for JKQTBasePlotter, which summarizes all properties that define the visual styling of ...">
<polygon fill="white" stroke="#666666" points="1244,-644.5 1053,-644.5 1053,-610.5 1244,-610.5 1244,-644.5"/>
<text text-anchor="start" x="1061" y="-630.9" font-family="Helvetica,sans-Serif" font-size="12.00">JKQTAnnotationsSpecificStyle</text>
<text text-anchor="middle" x="1148.5" y="-617.9" font-family="Helvetica,sans-Serif" font-size="12.00">Properties</text>
</a>
</g>
</g>
<!-- Node17&#45;&gt;Node18 -->
<g id="edge23" class="edge">
<title>Node17&#45;&gt;Node18</title>
<path fill="none" stroke="#63b8ff" d="M854.07,-627.5C915.27,-627.5 992.83,-627.5 1052.84,-627.5"/>
<polygon fill="#63b8ff" stroke="#63b8ff" points="854,-624 844,-627.5 854,-631 854,-624"/>
</g>
<!-- Node18&#45;&gt;Node12 -->
<g id="edge22" class="edge">
<title>Node18&#45;&gt;Node12</title>
<path fill="none" stroke="#9a32cd" stroke-dasharray="5,2" d="M1254.39,-619.1C1302.57,-615.24 1358.51,-610.75 1401.86,-607.28"/>
<polygon fill="#9a32cd" stroke="#9a32cd" points="1253.92,-615.62 1244.23,-619.91 1254.48,-622.6 1253.92,-615.62"/>
<text text-anchor="middle" x="1311" y="-620.9" font-family="Helvetica,sans-Serif" font-size="12.00"> annotationStyle</text>
</g>
<!-- Node19&#45;&gt;Node6 -->
<g id="edge24" class="edge">
<title>Node19&#45;&gt;Node6</title>
<path fill="none" stroke="#9a32cd" stroke-dasharray="5,2" d="M1849.51,-247.45C1905.58,-273.65 2020.22,-327.2 2068.87,-349.93"/>
<polygon fill="#9a32cd" stroke="#9a32cd" points="1850.93,-244.25 1840.39,-243.19 1847.97,-250.6 1850.93,-244.25"/>
<text text-anchor="middle" x="1954.5" y="-322.9" font-family="Helvetica,sans-Serif" font-size="12.00"> mathText</text>
</g>
<!-- Node20 -->
<g id="node20" class="node">
<title>Node20</title>
<g id="a_node20"><a xlink:href="class_j_k_q_t_math_text_node.html" target="_top" xlink:title="subclass representing one node in the syntax tree">
<polygon fill="white" stroke="#666666" points="2158,-209 2027,-209 2027,-188 2158,-188 2158,-209"/>
<text text-anchor="middle" x="2092.5" y="-195.4" font-family="Helvetica,sans-Serif" font-size="12.00">JKQTMathTextNode</text>
</a>
</g>
</g>
<!-- Node19&#45;&gt;Node20 -->
<g id="edge27" class="edge">
<title>Node19&#45;&gt;Node20</title>
<path fill="none" stroke="#9a32cd" stroke-dasharray="5,2" d="M1841.38,-216.44C1858.54,-205.91 1882.66,-193.09 1906,-187.5 1951.49,-176.6 2004.96,-181.58 2042.78,-187.94"/>
<polygon fill="#9a32cd" stroke="#9a32cd" points="1839.19,-213.69 1832.61,-222 1842.93,-219.6 1839.19,-213.69"/>
<text text-anchor="middle" x="1954.5" y="-190.9" font-family="Helvetica,sans-Serif" font-size="12.00"> parentMathText</text>
</g>
<!-- Node20&#45;&gt;Node19 -->
<g id="edge26" class="edge">
<title>Node20&#45;&gt;Node19</title>
<path fill="none" stroke="#9a32cd" stroke-dasharray="5,2" d="M2016.61,-203C1982.73,-205.53 1942.24,-209.27 1906,-214.5 1892.34,-216.47 1877.62,-219.21 1864.17,-221.97"/>
<polygon fill="#9a32cd" stroke="#9a32cd" points="2017.19,-206.46 2026.91,-202.25 2016.68,-199.48 2017.19,-206.46"/>
<text text-anchor="middle" x="1954.5" y="-217.9" font-family="Helvetica,sans-Serif" font-size="12.00"> parsedNode</text>
</g>
<!-- Node20&#45;&gt;Node20 -->
<g id="edge28" class="edge">
<title>Node20&#45;&gt;Node20</title>
<path fill="none" stroke="#9a32cd" stroke-dasharray="5,2" d="M2067.07,-218.57C2069.03,-223.41 2077.51,-227 2092.5,-227 2116.49,-227 2123.8,-217.81 2114.43,-209.02"/>
<polygon fill="#9a32cd" stroke="#9a32cd" points="2070.41,-219.62 2070.57,-209.02 2063.84,-217.21 2070.41,-219.62"/>
<text text-anchor="middle" x="2092.5" y="-230.4" font-family="Helvetica,sans-Serif" font-size="12.00"> parentNode</text>
</g>
<!-- Node21&#45;&gt;Node6 -->
<g id="edge29" class="edge">
<title>Node21&#45;&gt;Node6</title>
<path fill="none" stroke="#9a32cd" stroke-dasharray="5,2" d="M2344.83,-475.59C2333.84,-472.9 2322.9,-469.3 2313,-464.5 2303.37,-459.83 2304.04,-454.22 2295,-448.5 2248.89,-419.32 2231.98,-422.4 2182,-400.5 2159.61,-390.69 2134.19,-379.16 2116.36,-371"/>
<polygon fill="#9a32cd" stroke="#9a32cd" points="2344.39,-479.08 2354.91,-477.82 2345.91,-472.25 2344.39,-479.08"/>
<text text-anchor="middle" x="2238.5" y="-451.9" font-family="Helvetica,sans-Serif" font-size="12.00"> m_plotsModel</text>
</g>
<!-- Node22 -->
<g id="node22" class="node">
<title>Node22</title>
<g id="a_node22"><a xlink:title=" ">
<polygon fill="white" stroke="#666666" points="2164,-522 2021,-522 2021,-501 2164,-501 2164,-522"/>
<text text-anchor="middle" x="2092.5" y="-508.4" font-family="Helvetica,sans-Serif" font-size="12.00">QAbstractTableModel</text>
</a>
</g>
</g>
<!-- Node22&#45;&gt;Node21 -->
<g id="edge30" class="edge">
<title>Node22&#45;&gt;Node21</title>
<path fill="none" stroke="#63b8ff" d="M2174.6,-506.66C2211.39,-504.26 2255.42,-501.1 2295,-497.5 2314.5,-495.73 2335.67,-493.47 2354.94,-491.29"/>
<polygon fill="#63b8ff" stroke="#63b8ff" points="2174.18,-503.18 2164.43,-507.31 2174.64,-510.16 2174.18,-503.18"/>
</g>
<!-- Node23 -->
<g id="node23" class="node">
<title>Node23</title>
<g id="a_node23"><a xlink:href="class_j_k_q_t_p_horizontal_axis.html" target="_top" xlink:title="implements a horizontal axis, based on JKQTPCoordinateAxis (for most of documentation: see JKQTPCoord...">
<polygon fill="white" stroke="#666666" points="3026,-278 2889,-278 2889,-257 3026,-257 3026,-278"/>
<text text-anchor="middle" x="2957.5" y="-264.4" font-family="Helvetica,sans-Serif" font-size="12.00">JKQTPHorizontalAxis</text>
</a>
</g>
</g>
<!-- Node23&#45;&gt;Node6 -->
<g id="edge32" class="edge">
<title>Node23&#45;&gt;Node6</title>
<path fill="none" stroke="#9a32cd" stroke-dasharray="5,2" d="M2904.43,-280.42C2876.08,-287.02 2840.29,-294.66 2808,-299.5 2775.56,-304.36 2312.3,-342.56 2149.54,-355.91"/>
<polygon fill="#9a32cd" stroke="#9a32cd" points="2905.59,-283.74 2914.52,-278.04 2903.98,-276.93 2905.59,-283.74"/>
<text text-anchor="middle" x="2563.5" y="-326.9" font-family="Helvetica,sans-Serif" font-size="12.00"> xAxis</text>
</g>
<!-- Node24 -->
<g id="node24" class="node">
<title>Node24</title>
<g id="a_node24"><a xlink:href="class_j_k_q_t_p_horizontal_axis_base.html" target="_top" xlink:title="base class for horizontal axes, based on JKQTPCoordinateAxis (for most of documentation: see JKQTPCoo...">
<polygon fill="white" stroke="#666666" points="2787,-252 2620,-252 2620,-231 2787,-231 2787,-252"/>
<text text-anchor="middle" x="2703.5" y="-238.4" font-family="Helvetica,sans-Serif" font-size="12.00">JKQTPHorizontalAxisBase</text>
</a>
</g>
</g>
<!-- Node24&#45;&gt;Node23 -->
<g id="edge33" class="edge">
<title>Node24&#45;&gt;Node23</title>
<path fill="none" stroke="#63b8ff" d="M2797.2,-251.06C2827.59,-254.2 2860.77,-257.62 2888.94,-260.53"/>
<polygon fill="#63b8ff" stroke="#63b8ff" points="2797.32,-247.56 2787.01,-250.01 2796.6,-254.52 2797.32,-247.56"/>
</g>
<!-- Node25&#45;&gt;Node24 -->
<g id="edge34" class="edge">
<title>Node25&#45;&gt;Node24</title>
<path fill="none" stroke="#63b8ff" d="M2501.92,-260.06C2538.92,-256.64 2582.76,-252.58 2620,-249.13"/>
<polygon fill="#63b8ff" stroke="#63b8ff" points="2501.32,-256.6 2491.68,-261.01 2501.96,-263.57 2501.32,-256.6"/>
</g>
<!-- Node27 -->
<g id="node27" class="node">
<title>Node27</title>
<g id="a_node27"><a xlink:href="class_j_k_q_t_p_vertical_axis_base.html" target="_top" xlink:title="base class for vertical axes, based on JKQTPCoordinateAxis (for most of documentation: see JKQTPCoord...">
<polygon fill="white" stroke="#666666" points="2779,-291 2628,-291 2628,-270 2779,-270 2779,-291"/>
<text text-anchor="middle" x="2703.5" y="-277.4" font-family="Helvetica,sans-Serif" font-size="12.00">JKQTPVerticalAxisBase</text>
</a>
</g>
</g>
<!-- Node25&#45;&gt;Node27 -->
<g id="edge40" class="edge">
<title>Node25&#45;&gt;Node27</title>
<path fill="none" stroke="#63b8ff" d="M2501.84,-271.22C2541.47,-273.05 2588.97,-275.25 2627.81,-277.04"/>
<polygon fill="#63b8ff" stroke="#63b8ff" points="2501.83,-267.71 2491.68,-270.75 2501.51,-274.71 2501.83,-267.71"/>
</g>
<!-- Node26 -->
<g id="node26" class="node">
<title>Node26</title>
<g id="a_node26"><a xlink:href="class_j_k_q_t_p_vertical_axis.html" target="_top" xlink:title="implements a vertical axis for use as primary, secondary, ... axis of a JKQTPBasePlotter,...">
<polygon fill="white" stroke="#666666" points="3018.5,-355 2896.5,-355 2896.5,-334 3018.5,-334 3018.5,-355"/>
<text text-anchor="middle" x="2957.5" y="-341.4" font-family="Helvetica,sans-Serif" font-size="12.00">JKQTPVerticalAxis</text>
</a>
</g>
</g>
<!-- Node26&#45;&gt;Node6 -->
<g id="edge38" class="edge">
<title>Node26&#45;&gt;Node6</title>
<path fill="none" stroke="#9a32cd" stroke-dasharray="5,2" d="M2886.32,-345.8C2719.46,-348.89 2301.64,-356.64 2149.79,-359.46"/>
<polygon fill="#9a32cd" stroke="#9a32cd" points="2886.53,-349.3 2896.47,-345.61 2886.4,-342.3 2886.53,-349.3"/>
<text text-anchor="middle" x="2563.5" y="-355.9" font-family="Helvetica,sans-Serif" font-size="12.00"> yAxis</text>
</g>
<!-- Node27&#45;&gt;Node26 -->
<g id="edge39" class="edge">
<title>Node27&#45;&gt;Node26</title>
<path fill="none" stroke="#63b8ff" d="M2756.07,-293.6C2802.97,-305.51 2871.3,-322.86 2914.83,-333.92"/>
<polygon fill="#63b8ff" stroke="#63b8ff" points="2756.67,-290.14 2746.11,-291.07 2754.94,-296.92 2756.67,-290.14"/>
</g>
<!-- Node28 -->
<g id="node28" class="node">
<title>Node28</title>
<g id="a_node28"><a xlink:href="class_j_k_q_t_p_datastore.html" target="_top" xlink:title="This class manages data columns (with entries of type double ), used by JKQTPlotter/JKQTBasePlotter t...">
<polygon fill="white" stroke="#666666" points="1872,-68 1761,-68 1761,-47 1872,-47 1872,-68"/>
<text text-anchor="middle" x="1816.5" y="-54.4" font-family="Helvetica,sans-Serif" font-size="12.00">JKQTPDatastore</text>
</a>
</g>
</g>
<!-- Node28&#45;&gt;Node6 -->
<g id="edge41" class="edge">
<title>Node28&#45;&gt;Node6</title>
<path fill="none" stroke="#9a32cd" stroke-dasharray="5,2" d="M1881.26,-71.2C1883.72,-73.05 1885.99,-75.14 1888,-77.5 1931.61,-128.56 1862.99,-175.94 1906,-227.5 1934.9,-262.16 1965.27,-232.75 2003,-257.5 2041.25,-282.58 2072.35,-328.8 2085.17,-349.72"/>
<polygon fill="#9a32cd" stroke="#9a32cd" points="1882.64,-67.95 1872.27,-65.78 1879.02,-73.94 1882.64,-67.95"/>
<text text-anchor="middle" x="1954.5" y="-260.9" font-family="Helvetica,sans-Serif" font-size="12.00"> datastore</text>
</g>
<!-- Node30 -->
<g id="node30" class="node">
<title>Node30</title>
<g id="a_node30"><a xlink:href="class_j_k_q_t_p_column.html" target="_top" xlink:title="internally stores information about one data column. See JKQTPDatastore for more information.">
<polygon fill="white" stroke="#666666" points="2141.5,-21 2043.5,-21 2043.5,0 2141.5,0 2141.5,-21"/>
<text text-anchor="middle" x="2092.5" y="-7.4" font-family="Helvetica,sans-Serif" font-size="12.00">JKQTPColumn</text>
</a>
</g>
</g>
<!-- Node28&#45;&gt;Node30 -->
<g id="edge44" class="edge">
<title>Node28&#45;&gt;Node30</title>
<path fill="none" stroke="#9a32cd" stroke-dasharray="5,2" d="M1856.66,-43.81C1871.9,-38.95 1889.6,-33.85 1906,-30.5 1952.17,-21.06 2005.78,-15.89 2043.46,-13.18"/>
<polygon fill="#9a32cd" stroke="#9a32cd" points="1855.46,-40.52 1847.04,-46.96 1857.64,-47.18 1855.46,-40.52"/>
<text text-anchor="middle" x="1954.5" y="-33.9" font-family="Helvetica,sans-Serif" font-size="12.00"> datastore</text>
</g>
<!-- Node29 -->
<g id="node29" class="node">
<title>Node29</title>
<g id="a_node29"><a xlink:title=" ">
<polygon fill="white" stroke="#666666" points="2528,-68 2313,-68 2313,-47 2528,-47 2528,-68"/>
<text text-anchor="middle" x="2420.5" y="-54.4" font-family="Helvetica,sans-Serif" font-size="12.00">std::unique_ptr&lt; JKQTPColumn &gt;</text>
</a>
</g>
</g>
<!-- Node29&#45;&gt;Node28 -->
<g id="edge42" class="edge">
<title>Node29&#45;&gt;Node28</title>
<path fill="none" stroke="#9a32cd" stroke-dasharray="5,2" d="M2302.4,-57.5C2172.69,-57.5 1969.12,-57.5 1872.25,-57.5"/>
<polygon fill="#9a32cd" stroke="#9a32cd" points="2302.77,-61 2312.77,-57.5 2302.77,-54 2302.77,-61"/>
<text text-anchor="middle" x="2092.5" y="-60.9" font-family="Helvetica,sans-Serif" font-size="12.00"> m_invalidColumn</text>
</g>
<!-- Node30&#45;&gt;Node29 -->
<g id="edge43" class="edge">
<title>Node30&#45;&gt;Node29</title>
<path fill="none" stroke="#9a32cd" stroke-dasharray="5,2" d="M2151.93,-14.52C2192.28,-17.73 2247.08,-22.95 2295,-30.5 2322.42,-34.82 2352.88,-41.39 2376.8,-46.97"/>
<polygon fill="#9a32cd" stroke="#9a32cd" points="2151.98,-11.01 2141.74,-13.73 2151.44,-17.99 2151.98,-11.01"/>
<text text-anchor="middle" x="2238.5" y="-33.9" font-family="Helvetica,sans-Serif" font-size="12.00"> ptr</text>
</g>
<!-- Node31 -->
<g id="node31" class="node">
<title>Node31</title>
<g id="a_node31"><a xlink:title=" ">
<polygon fill="white" stroke="#666666" points="2162.5,-110 2022.5,-110 2022.5,-89 2162.5,-89 2162.5,-110"/>
<text text-anchor="middle" x="2092.5" y="-96.4" font-family="Helvetica,sans-Serif" font-size="12.00">std::unique_ptr&lt; T &gt;</text>
</a>
</g>
</g>
<!-- Node31&#45;&gt;Node29 -->
<g id="edge45" class="edge">
<title>Node31&#45;&gt;Node29</title>
<path fill="none" stroke="orange" stroke-dasharray="5,2" d="M2172.76,-89.29C2222.8,-82.84 2287.29,-74.53 2337.79,-68.03"/>
<polygon fill="orange" stroke="orange" points="2172.11,-85.84 2162.64,-90.59 2173,-92.79 2172.11,-85.84"/>
<text text-anchor="middle" x="2238.5" y="-90.9" font-family="Helvetica,sans-Serif" font-size="12.00"> &lt; JKQTPColumn &gt;</text>
</g>
<!-- Node32 -->
<g id="node32" class="node">
<title>Node32</title>
<g id="a_node32"><a xlink:title=" ">
<polygon fill="white" stroke="#666666" points="1831,-108 1802,-108 1802,-87 1831,-87 1831,-108"/>
<text text-anchor="middle" x="1816.5" y="-94.4" font-family="Helvetica,sans-Serif" font-size="12.00">T</text>
</a>
</g>
</g>
<!-- Node32&#45;&gt;Node31 -->
<g id="edge46" class="edge">
<title>Node32&#45;&gt;Node31</title>
<path fill="none" stroke="#9a32cd" stroke-dasharray="5,2" d="M1841.17,-97.67C1881.06,-97.96 1963.14,-98.56 2022.46,-99"/>
<polygon fill="#9a32cd" stroke="#9a32cd" points="1841.11,-94.17 1831.09,-97.6 1841.06,-101.17 1841.11,-94.17"/>
<text text-anchor="middle" x="1954.5" y="-102.9" font-family="Helvetica,sans-Serif" font-size="12.00"> ptr</text>
</g>
<!-- Node33 -->
<g id="node33" class="node">
<title>Node33</title>
<g id="a_node33"><a xlink:href="class_j_k_q_t_p_graph_decorated_head_line_style_mixin.html" target="_top" xlink:title="This Mix&#45;In class provides setter/getter methods, storage and other facilities for the graph line sty...">
<polygon fill="white" stroke="#666666" points="2808,-461.5 2599,-461.5 2599,-427.5 2808,-427.5 2808,-461.5"/>
<text text-anchor="start" x="2607" y="-447.9" font-family="Helvetica,sans-Serif" font-size="12.00">JKQTPGraphDecoratedHeadLine</text>
<text text-anchor="middle" x="2703.5" y="-434.9" font-family="Helvetica,sans-Serif" font-size="12.00">StyleMixin</text>
</a>
</g>
</g>
<!-- Node33&#45;&gt;Node2 -->
<g id="edge48" class="edge">
<title>Node33&#45;&gt;Node2</title>
<path fill="none" stroke="#63b8ff" d="M2818.1,-433.68C2827.36,-432.8 2836.71,-431.91 2845.95,-431.03"/>
<polygon fill="#63b8ff" stroke="#63b8ff" points="2817.71,-430.2 2808.09,-434.63 2818.38,-437.17 2817.71,-430.2"/>
</g>
<!-- Node34 -->
<g id="node34" class="node">
<title>Node34</title>
<g id="a_node34"><a xlink:href="class_j_k_q_t_p_graph_line_style_mixin.html" target="_top" xlink:title="This Mix&#45;In class provides setter/getter methods, storage and other facilities for the graph line sty...">
<polygon fill="white" stroke="#666666" points="2507.5,-455 2333.5,-455 2333.5,-434 2507.5,-434 2507.5,-455"/>
<text text-anchor="middle" x="2420.5" y="-441.4" font-family="Helvetica,sans-Serif" font-size="12.00">JKQTPGraphLineStyleMixin</text>
</a>
</g>
</g>
<!-- Node34&#45;&gt;Node33 -->
<g id="edge49" class="edge">
<title>Node34&#45;&gt;Node33</title>
<path fill="none" stroke="#63b8ff" d="M2517.98,-444.5C2544.08,-444.5 2572.42,-444.5 2598.89,-444.5"/>
<polygon fill="#63b8ff" stroke="#63b8ff" points="2517.72,-441 2507.72,-444.5 2517.72,-448 2517.72,-441"/>
</g>
</g>
</svg>
