<?xml version="1.0" encoding="UTF-8" standalone="no"?>
<!DOCTYPE svg PUBLIC "-//W3C//DTD SVG 1.1//EN"
 "http://www.w3.org/Graphics/SVG/1.1/DTD/svg11.dtd">
<!-- Generated by graphviz version 2.43.0 (0)
 -->
<!-- Title: JKQTPFilledCurveYGraph Pages: 1 -->
<!--zoomable 558 -->
<svg id="main" version="1.1" xmlns="http://www.w3.org/2000/svg" xmlns:xlink="http://www.w3.org/1999/xlink" xml:space="preserve" onload="init(evt)">
<style type="text/css"><![CDATA[
.edge:hover path { stroke: red; }
.edge:hover polygon { stroke: red; fill: red; }
]]></style>
<script type="text/javascript"><![CDATA[
var edges = document.getElementsByTagName('g');
if (edges && edges.length) {
  for (var i=0;i<edges.length;i++) {
    if (edges[i].id.substr(0,4)=='edge') {
      edges[i].setAttribute('class','edge');
    }
  }
}
]]></script>
        <defs>
                <circle id="rim" cx="0" cy="0" r="7"/>
                <circle id="rim2" cx="0" cy="0" r="3.5"/>
                <g id="zoomPlus">
                        <use xlink:href="#rim" fill="#404040">
                                <set attributeName="fill" to="#808080" begin="zoomplus.mouseover" end="zoomplus.mouseout"/>
                        </use>
                        <path d="M-4,0h8M0,-4v8" fill="none" stroke="white" stroke-width="1.5" pointer-events="none"/>
                </g>
                <g id="zoomMin">
                        <use xlink:href="#rim" fill="#404040">
                                <set attributeName="fill" to="#808080" begin="zoomminus.mouseover" end="zoomminus.mouseout"/>
                        </use>
                        <path d="M-4,0h8" fill="none" stroke="white" stroke-width="1.5" pointer-events="none"/>
                </g>
                <g id="dirArrow">
                        <path fill="none" stroke="white" stroke-width="1.5" d="M0,-3.0v7 M-2.5,-0.5L0,-3.0L2.5,-0.5"/>
                </g>
               <g id="resetDef">
                       <use xlink:href="#rim2" fill="#404040">
                               <set attributeName="fill" to="#808080" begin="reset.mouseover" end="reset.mouseout"/>
                       </use>
               </g>
        </defs>

<script type="text/javascript">
var viewWidth = 3624;
var viewHeight = 558;
var sectionId = 'dynsection-1';
</script>
<script xlink:href="svgpan.js"/>
<svg id="graph" class="graph">
<g id="viewport">
<title>JKQTPFilledCurveYGraph</title>
<!-- Node1 -->
<g id="node1" class="node">
<title>Node1</title>
<g id="a_node1"><a xlink:title="This implements filled curve plots where the area is filled between the plot line and y&#45;Axis.">
<polygon fill="#999999" stroke="#666666" points="3616,-346.53 3454,-346.53 3454,-325.53 3616,-325.53 3616,-346.53"/>
<text text-anchor="middle" x="3535" y="-332.93" font-family="Helvetica,sans-Serif" font-size="12.00">JKQTPFilledCurveYGraph</text>
</a>
</g>
</g>
<!-- Node2 -->
<g id="node2" class="node">
<title>Node2</title>
<g id="a_node2"><a xlink:href="class_j_k_q_t_p_filled_curve_graph_base.html" target="_top" xlink:title="a Base class for filled curve graphs like e.g. JKQTPFilledCurveXGraph">
<polygon fill="white" stroke="#666666" points="3417,-346.53 3233,-346.53 3233,-325.53 3417,-325.53 3417,-346.53"/>
<text text-anchor="middle" x="3325" y="-332.93" font-family="Helvetica,sans-Serif" font-size="12.00">JKQTPFilledCurveGraphBase</text>
</a>
</g>
</g>
<!-- Node2&#45;&gt;Node1 -->
<g id="edge1" class="edge">
<title>Node2&#45;&gt;Node1</title>
<path fill="none" stroke="#63b8ff" d="M3427.3,-336.03C3436.24,-336.03 3445.21,-336.03 3453.94,-336.03"/>
<polygon fill="#63b8ff" stroke="#63b8ff" points="3427.23,-332.53 3417.23,-336.03 3427.23,-339.53 3427.23,-332.53"/>
</g>
<!-- Node3 -->
<g id="node3" class="node">
<title>Node3</title>
<g id="a_node3"><a xlink:href="class_j_k_q_t_p_x_y_baseline_graph.html" target="_top" xlink:title="This virtual JKQTPGraph descendent extends JKQTPXYGraph adds a baseline&#45;property, which is necessary,...">
<polygon fill="white" stroke="#666666" points="3182.5,-420.53 3027.5,-420.53 3027.5,-399.53 3182.5,-399.53 3182.5,-420.53"/>
<text text-anchor="middle" x="3105" y="-406.93" font-family="Helvetica,sans-Serif" font-size="12.00">JKQTPXYBaselineGraph</text>
</a>
</g>
</g>
<!-- Node3&#45;&gt;Node2 -->
<g id="edge2" class="edge">
<title>Node3&#45;&gt;Node2</title>
<path fill="none" stroke="#63b8ff" d="M3146.95,-396.13C3189.3,-381.75 3254.48,-359.63 3292.82,-346.61"/>
<polygon fill="#63b8ff" stroke="#63b8ff" points="3145.58,-392.9 3137.23,-399.43 3147.83,-399.53 3145.58,-392.9"/>
</g>
<!-- Node4 -->
<g id="node4" class="node">
<title>Node4</title>
<g id="a_node4"><a xlink:href="class_j_k_q_t_p_x_y_graph.html" target="_top" xlink:title="This virtual JKQTPGraph descendent may be used as base for all graphs that use at least two columns t...">
<polygon fill="white" stroke="#666666" points="2942.5,-452.53 2837.5,-452.53 2837.5,-431.53 2942.5,-431.53 2942.5,-452.53"/>
<text text-anchor="middle" x="2890" y="-438.93" font-family="Helvetica,sans-Serif" font-size="12.00">JKQTPXYGraph</text>
</a>
</g>
</g>
<!-- Node4&#45;&gt;Node3 -->
<g id="edge3" class="edge">
<title>Node4&#45;&gt;Node3</title>
<path fill="none" stroke="#63b8ff" d="M2952.47,-432.79C2977.96,-428.96 3007.68,-424.5 3034,-420.55"/>
<polygon fill="#63b8ff" stroke="#63b8ff" points="2951.93,-429.34 2942.56,-434.28 2952.97,-436.26 2951.93,-429.34"/>
</g>
<!-- Node5 -->
<g id="node5" class="node">
<title>Node5</title>
<g id="a_node5"><a xlink:href="class_j_k_q_t_p_graph.html" target="_top" xlink:title="this virtual base class of the (data&#45;column based) graphs, which are part of a JKQTPlotter plot and w...">
<polygon fill="white" stroke="#666666" points="2727,-499.53 2638,-499.53 2638,-478.53 2727,-478.53 2727,-499.53"/>
<text text-anchor="middle" x="2682.5" y="-485.93" font-family="Helvetica,sans-Serif" font-size="12.00">JKQTPGraph</text>
</a>
</g>
</g>
<!-- Node5&#45;&gt;Node4 -->
<g id="edge4" class="edge">
<title>Node5&#45;&gt;Node4</title>
<path fill="none" stroke="#63b8ff" d="M2736.98,-476.8C2769.87,-469.28 2811.58,-459.74 2842.99,-452.55"/>
<polygon fill="#63b8ff" stroke="#63b8ff" points="2736.05,-473.42 2727.08,-479.06 2737.61,-480.24 2736.05,-473.42"/>
</g>
<!-- Node6 -->
<g id="node6" class="node">
<title>Node6</title>
<g id="a_node6"><a xlink:href="class_j_k_q_t_p_plot_element.html" target="_top" xlink:title="this virtual base class of every element, which is part of a JKQTPlotter plot and may appear in its k...">
<polygon fill="white" stroke="#666666" points="2483,-544.53 2358,-544.53 2358,-523.53 2483,-523.53 2483,-544.53"/>
<text text-anchor="middle" x="2420.5" y="-530.93" font-family="Helvetica,sans-Serif" font-size="12.00">JKQTPPlotElement</text>
</a>
</g>
</g>
<!-- Node6&#45;&gt;Node5 -->
<g id="edge5" class="edge">
<title>Node6&#45;&gt;Node5</title>
<path fill="none" stroke="#63b8ff" d="M2492.48,-521.74C2539,-513.69 2598.32,-503.43 2637.98,-496.56"/>
<polygon fill="#63b8ff" stroke="#63b8ff" points="2491.72,-518.32 2482.46,-523.48 2492.91,-525.22 2491.72,-518.32"/>
</g>
<!-- Node7 -->
<g id="node7" class="node">
<title>Node7</title>
<g id="a_node7"><a xlink:title=" ">
<polygon fill="white" stroke="#666666" points="1507.5,-414.53 1442.5,-414.53 1442.5,-393.53 1507.5,-393.53 1507.5,-414.53"/>
<text text-anchor="middle" x="1475" y="-400.93" font-family="Helvetica,sans-Serif" font-size="12.00">QObject</text>
</a>
</g>
</g>
<!-- Node7&#45;&gt;Node6 -->
<g id="edge6" class="edge">
<title>Node7&#45;&gt;Node6</title>
<path fill="none" stroke="#63b8ff" d="M1517.38,-417.51C1607.66,-446.23 1829.55,-513.1 2021,-541.03 2091.87,-551.37 2110.39,-546.47 2182,-548.03 2232.21,-549.12 2244.86,-550.84 2295,-548.03 2315.52,-546.88 2337.86,-544.67 2357.87,-542.34"/>
<polygon fill="#63b8ff" stroke="#63b8ff" points="1518.38,-414.15 1507.79,-414.44 1516.25,-420.82 1518.38,-414.15"/>
</g>
<!-- Node8 -->
<g id="node8" class="node">
<title>Node8</title>
<g id="a_node8"><a xlink:href="class_j_k_q_t_base_plotter.html" target="_top" xlink:title="base class for 2D plotter classes (used by the plotter widget JKQTPlotter)">
<polygon fill="white" stroke="#666666" points="2149.5,-378.53 2035.5,-378.53 2035.5,-357.53 2149.5,-357.53 2149.5,-378.53"/>
<text text-anchor="middle" x="2092.5" y="-364.93" font-family="Helvetica,sans-Serif" font-size="12.00">JKQTBasePlotter</text>
</a>
</g>
</g>
<!-- Node7&#45;&gt;Node8 -->
<g id="edge8" class="edge">
<title>Node7&#45;&gt;Node8</title>
<path fill="none" stroke="#63b8ff" d="M1517.97,-401.57C1625.96,-395.26 1913.46,-378.44 2035.48,-371.31"/>
<polygon fill="#63b8ff" stroke="#63b8ff" points="1517.57,-398.09 1507.8,-402.17 1517.98,-405.08 1517.57,-398.09"/>
</g>
<!-- Node21 -->
<g id="node21" class="node">
<title>Node21</title>
<g id="a_node21"><a xlink:href="class_j_k_q_t_math_text.html" target="_top" xlink:title="this class parses a mathematical markup string and can then draw the contained text/equation onto a Q...">
<polygon fill="white" stroke="#666666" points="1866,-441.53 1767,-441.53 1767,-420.53 1866,-420.53 1866,-441.53"/>
<text text-anchor="middle" x="1816.5" y="-427.93" font-family="Helvetica,sans-Serif" font-size="12.00">JKQTMathText</text>
</a>
</g>
</g>
<!-- Node7&#45;&gt;Node21 -->
<g id="edge27" class="edge">
<title>Node7&#45;&gt;Node21</title>
<path fill="none" stroke="#63b8ff" d="M1517.61,-407.34C1580.58,-412.35 1699.82,-421.83 1766.76,-427.15"/>
<polygon fill="#63b8ff" stroke="#63b8ff" points="1517.88,-403.85 1507.63,-406.55 1517.33,-410.83 1517.88,-403.85"/>
</g>
<!-- Node27 -->
<g id="node27" class="node">
<title>Node27</title>
<g id="a_node27"><a xlink:href="class_j_k_q_t_p_coordinate_axis.html" target="_top" xlink:title="this virtual class is the base for any type of coordinate axis, to be drawn by JKQTBasePlotter.">
<polygon fill="white" stroke="#666666" points="2491.5,-317.53 2349.5,-317.53 2349.5,-296.53 2491.5,-296.53 2491.5,-317.53"/>
<text text-anchor="middle" x="2420.5" y="-303.93" font-family="Helvetica,sans-Serif" font-size="12.00">JKQTPCoordinateAxis</text>
</a>
</g>
</g>
<!-- Node7&#45;&gt;Node27 -->
<g id="edge37" class="edge">
<title>Node7&#45;&gt;Node27</title>
<path fill="none" stroke="#63b8ff" d="M1517.72,-393.61C1594.15,-375.07 1761.99,-336.78 1906,-321.03 2063.8,-303.77 2250.42,-303.74 2349.49,-305.33"/>
<polygon fill="#63b8ff" stroke="#63b8ff" points="1516.44,-390.32 1507.56,-396.1 1518.1,-397.12 1516.44,-390.32"/>
</g>
<!-- Node8&#45;&gt;Node6 -->
<g id="edge7" class="edge">
<title>Node8&#45;&gt;Node6</title>
<path fill="none" stroke="#9a32cd" stroke-dasharray="5,2" d="M2117.83,-384.99C2132.99,-396.66 2151.85,-413.39 2164,-432.03 2177.82,-453.22 2163.05,-469.27 2182,-486.03 2230.05,-528.53 2305.13,-537.43 2357.99,-537.68"/>
<polygon fill="#9a32cd" stroke="#9a32cd" points="2119.53,-381.88 2109.42,-378.72 2115.35,-387.5 2119.53,-381.88"/>
<text text-anchor="middle" x="2238.5" y="-535.43" font-family="Helvetica,sans-Serif" font-size="12.00"> parent</text>
</g>
<!-- Node8&#45;&gt;Node8 -->
<g id="edge49" class="edge">
<title>Node8&#45;&gt;Node8</title>
<path fill="none" stroke="#9a32cd" stroke-dasharray="5,2" d="M2067.07,-388.1C2069.03,-392.94 2077.51,-396.53 2092.5,-396.53 2116.49,-396.53 2123.8,-387.34 2114.43,-378.55"/>
<polygon fill="#9a32cd" stroke="#9a32cd" points="2070.41,-389.15 2070.57,-378.55 2063.84,-386.73 2070.41,-389.15"/>
<text text-anchor="middle" x="2092.5" y="-412.93" font-family="Helvetica,sans-Serif" font-size="12.00"> masterPlotterX</text>
<text text-anchor="middle" x="2092.5" y="-399.93" font-family="Helvetica,sans-Serif" font-size="12.00">masterPlotterY</text>
</g>
<!-- Node23 -->
<g id="node23" class="node">
<title>Node23</title>
<g id="a_node23"><a xlink:href="class_j_k_q_t_p_graphs_model.html" target="_top" xlink:title="data model with all plots ina JKQTBasePlotter (+ allows to switch them visible/invisible)">
<polygon fill="white" stroke="#666666" points="2486,-483.53 2355,-483.53 2355,-462.53 2486,-462.53 2486,-483.53"/>
<text text-anchor="middle" x="2420.5" y="-469.93" font-family="Helvetica,sans-Serif" font-size="12.00">JKQTPGraphsModel</text>
</a>
</g>
</g>
<!-- Node8&#45;&gt;Node23 -->
<g id="edge33" class="edge">
<title>Node8&#45;&gt;Node23</title>
<path fill="none" stroke="#9a32cd" stroke-dasharray="5,2" d="M2113.49,-385.45C2127.81,-398.11 2147.41,-415.79 2164,-432.03 2172.31,-440.17 2171.54,-445.94 2182,-451.03 2211.47,-465.35 2295.26,-470.37 2354.95,-472.12"/>
<polygon fill="#9a32cd" stroke="#9a32cd" points="2115.55,-382.61 2105.73,-378.63 2110.93,-387.86 2115.55,-382.61"/>
<text text-anchor="middle" x="2238.5" y="-472.43" font-family="Helvetica,sans-Serif" font-size="12.00"> m_plotter</text>
</g>
<!-- Node8&#45;&gt;Node27 -->
<g id="edge38" class="edge">
<title>Node8&#45;&gt;Node27</title>
<path fill="none" stroke="#9a32cd" stroke-dasharray="5,2" d="M2133.45,-354.41C2148.53,-349.65 2165.92,-344.61 2182,-341.03 2237.7,-328.62 2301.8,-319.76 2349.36,-314.2"/>
<polygon fill="#9a32cd" stroke="#9a32cd" points="2132.36,-351.09 2123.91,-357.48 2134.5,-357.75 2132.36,-351.09"/>
<text text-anchor="middle" x="2238.5" y="-344.43" font-family="Helvetica,sans-Serif" font-size="12.00"> parent</text>
</g>
<!-- Node9 -->
<g id="node9" class="node">
<title>Node9</title>
<g id="a_node9"><a xlink:href="class_j_k_q_t_base_plotter_style.html" target="_top" xlink:title="Support Class for JKQTBasePlotter, which summarizes all properties that define the visual styling of ...">
<polygon fill="white" stroke="#666666" points="1888,-280.53 1745,-280.53 1745,-259.53 1888,-259.53 1888,-280.53"/>
<text text-anchor="middle" x="1816.5" y="-266.93" font-family="Helvetica,sans-Serif" font-size="12.00">JKQTBasePlotterStyle</text>
</a>
</g>
</g>
<!-- Node9&#45;&gt;Node8 -->
<g id="edge9" class="edge">
<title>Node9&#45;&gt;Node8</title>
<path fill="none" stroke="#9a32cd" stroke-dasharray="5,2" d="M1856.57,-284C1912.04,-303.84 2012.39,-339.73 2062.04,-357.49"/>
<polygon fill="#9a32cd" stroke="#9a32cd" points="1857.68,-280.68 1847.08,-280.61 1855.32,-287.27 1857.68,-280.68"/>
<text text-anchor="middle" x="1954.5" y="-339.43" font-family="Helvetica,sans-Serif" font-size="12.00"> plotterStyle</text>
</g>
<!-- Node10 -->
<g id="node10" class="node">
<title>Node10</title>
<g id="a_node10"><a xlink:href="class_j_k_q_t_p_key_style.html" target="_top" xlink:title="Support Class for JKQTBasePlotter, which summarizes all properties that define the visual styling of ...">
<polygon fill="white" stroke="#666666" points="1527,-302.53 1423,-302.53 1423,-281.53 1527,-281.53 1527,-302.53"/>
<text text-anchor="middle" x="1475" y="-288.93" font-family="Helvetica,sans-Serif" font-size="12.00">JKQTPKeyStyle</text>
</a>
</g>
</g>
<!-- Node10&#45;&gt;Node9 -->
<g id="edge10" class="edge">
<title>Node10&#45;&gt;Node9</title>
<path fill="none" stroke="#9a32cd" stroke-dasharray="5,2" d="M1532.5,-279.57C1550.76,-276.1 1571.15,-272.79 1590,-271.03 1641.65,-266.2 1700.24,-266.1 1744.75,-267.13"/>
<polygon fill="#9a32cd" stroke="#9a32cd" points="1531.75,-276.15 1522.61,-281.51 1533.09,-283.02 1531.75,-276.15"/>
<text text-anchor="middle" x="1658.5" y="-274.43" font-family="Helvetica,sans-Serif" font-size="12.00"> keyStyle</text>
</g>
<!-- Node11 -->
<g id="node11" class="node">
<title>Node11</title>
<g id="a_node11"><a xlink:href="class_j_k_q_t_p_coordinate_axis_style.html" target="_top" xlink:title="Support Class for JKQTPCoordinateAxis, which summarizes all properties that define the visual styling...">
<polygon fill="white" stroke="#666666" points="1234,-194.53 1063,-194.53 1063,-173.53 1234,-173.53 1234,-194.53"/>
<text text-anchor="middle" x="1148.5" y="-180.93" font-family="Helvetica,sans-Serif" font-size="12.00">JKQTPCoordinateAxisStyle</text>
</a>
</g>
</g>
<!-- Node11&#45;&gt;Node9 -->
<g id="edge11" class="edge">
<title>Node11&#45;&gt;Node9</title>
<path fill="none" stroke="#9a32cd" stroke-dasharray="5,2" d="M1241.1,-195.86C1375.52,-213.22 1623.37,-245.22 1744.76,-260.89"/>
<polygon fill="#9a32cd" stroke="#9a32cd" points="1241.2,-192.34 1230.83,-194.53 1240.3,-199.28 1241.2,-192.34"/>
<text text-anchor="middle" x="1475" y="-255.43" font-family="Helvetica,sans-Serif" font-size="12.00"> xAxisStyle</text>
<text text-anchor="middle" x="1475" y="-242.43" font-family="Helvetica,sans-Serif" font-size="12.00">yAxisStyle</text>
</g>
<!-- Node13 -->
<g id="node13" class="node">
<title>Node13</title>
<g id="a_node13"><a xlink:href="class_j_k_q_t_p_colorbar_coordinate_axis_style.html" target="_top" xlink:title="Support Class for JKQTPCoordinateAxis, which summarizes all properties that define the visual styling...">
<polygon fill="white" stroke="#666666" points="1572,-201.03 1378,-201.03 1378,-167.03 1572,-167.03 1572,-201.03"/>
<text text-anchor="start" x="1386" y="-187.43" font-family="Helvetica,sans-Serif" font-size="12.00">JKQTPColorbarCoordinateAxis</text>
<text text-anchor="middle" x="1475" y="-174.43" font-family="Helvetica,sans-Serif" font-size="12.00">Style</text>
</a>
</g>
</g>
<!-- Node11&#45;&gt;Node13 -->
<g id="edge14" class="edge">
<title>Node11&#45;&gt;Node13</title>
<path fill="none" stroke="#63b8ff" d="M1244.56,-184.03C1286.54,-184.03 1335.81,-184.03 1377.91,-184.03"/>
<polygon fill="#63b8ff" stroke="#63b8ff" points="1244.33,-180.53 1234.33,-184.03 1244.33,-187.53 1244.33,-180.53"/>
</g>
<!-- Node11&#45;&gt;Node27 -->
<g id="edge39" class="edge">
<title>Node11&#45;&gt;Node27</title>
<path fill="none" stroke="#9a32cd" stroke-dasharray="5,2" d="M1205.93,-171.4C1270.4,-158.08 1379.25,-139.03 1474,-139.03 1474,-139.03 1474,-139.03 2093.5,-139.03 2231.67,-139.03 2369.84,-259.74 2408.73,-296.52"/>
<polygon fill="#9a32cd" stroke="#9a32cd" points="1205.04,-168.01 1195.97,-173.48 1206.48,-174.86 1205.04,-168.01"/>
<text text-anchor="middle" x="1816.5" y="-142.43" font-family="Helvetica,sans-Serif" font-size="12.00"> axisStyle</text>
</g>
<!-- Node12 -->
<g id="node12" class="node">
<title>Node12</title>
<g id="a_node12"><a xlink:href="class_j_k_q_t_p_grid_style.html" target="_top" xlink:title="Support Class for JKQTPCoordinateAxis, and summarizes all properties that define the visual styling o...">
<polygon fill="white" stroke="#666666" points="805.5,-194.53 698.5,-194.53 698.5,-173.53 805.5,-173.53 805.5,-194.53"/>
<text text-anchor="middle" x="752" y="-180.93" font-family="Helvetica,sans-Serif" font-size="12.00">JKQTPGridStyle</text>
</a>
</g>
</g>
<!-- Node12&#45;&gt;Node11 -->
<g id="edge12" class="edge">
<title>Node12&#45;&gt;Node11</title>
<path fill="none" stroke="#9a32cd" stroke-dasharray="5,2" d="M816.18,-184.03C883.03,-184.03 988.9,-184.03 1062.92,-184.03"/>
<polygon fill="#9a32cd" stroke="#9a32cd" points="815.79,-180.53 805.79,-184.03 815.79,-187.53 815.79,-180.53"/>
<text text-anchor="middle" x="948.5" y="-200.43" font-family="Helvetica,sans-Serif" font-size="12.00"> majorGridStyle</text>
<text text-anchor="middle" x="948.5" y="-187.43" font-family="Helvetica,sans-Serif" font-size="12.00">minorGridStyle</text>
</g>
<!-- Node13&#45;&gt;Node9 -->
<g id="edge13" class="edge">
<title>Node13&#45;&gt;Node9</title>
<path fill="none" stroke="#9a32cd" stroke-dasharray="5,2" d="M1582.5,-174.93C1628.35,-174.68 1681.72,-179.43 1727,-197.03 1761.34,-210.38 1792.27,-242.56 1806.78,-259.38"/>
<polygon fill="#9a32cd" stroke="#9a32cd" points="1582.18,-171.43 1572.23,-175.07 1582.28,-178.43 1582.18,-171.43"/>
<text text-anchor="middle" x="1658.5" y="-213.43" font-family="Helvetica,sans-Serif" font-size="12.00"> rightColorbarAxisStyle</text>
<text text-anchor="middle" x="1658.5" y="-200.43" font-family="Helvetica,sans-Serif" font-size="12.00">topColorbarAxisStyle</text>
</g>
<!-- Node14 -->
<g id="node14" class="node">
<title>Node14</title>
<g id="a_node14"><a xlink:href="class_j_k_q_t_graphs_base_style.html" target="_top" xlink:title="Support Class for JKQTBasePlotter, which summarizes all properties that define the visual styling of ...">
<polygon fill="white" stroke="#666666" points="1548,-352.53 1402,-352.53 1402,-331.53 1548,-331.53 1548,-352.53"/>
<text text-anchor="middle" x="1475" y="-338.93" font-family="Helvetica,sans-Serif" font-size="12.00">JKQTGraphsBaseStyle</text>
</a>
</g>
</g>
<!-- Node14&#45;&gt;Node9 -->
<g id="edge15" class="edge">
<title>Node14&#45;&gt;Node9</title>
<path fill="none" stroke="#9a32cd" stroke-dasharray="5,2" d="M1516.19,-328.23C1537.86,-321.17 1565.18,-312.85 1590,-307.03 1597.83,-305.19 1686.32,-290.82 1750.08,-280.54"/>
<polygon fill="#9a32cd" stroke="#9a32cd" points="1515.06,-324.92 1506.66,-331.38 1517.25,-331.57 1515.06,-324.92"/>
<text text-anchor="middle" x="1658.5" y="-310.43" font-family="Helvetica,sans-Serif" font-size="12.00"> graphsStyle</text>
</g>
<!-- Node15 -->
<g id="node15" class="node">
<title>Node15</title>
<g id="a_node15"><a xlink:href="class_j_k_q_t_graphs_specific_style_properties.html" target="_top" xlink:title="Support Class for JKQTBasePlotter, which summarizes all properties that define the visual styling of ...">
<polygon fill="white" stroke="#666666" points="623,-342.53 399,-342.53 399,-321.53 623,-321.53 623,-342.53"/>
<text text-anchor="middle" x="511" y="-328.93" font-family="Helvetica,sans-Serif" font-size="12.00">JKQTGraphsSpecificStyleProperties</text>
</a>
</g>
</g>
<!-- Node15&#45;&gt;Node14 -->
<g id="edge16" class="edge">
<title>Node15&#45;&gt;Node14</title>
<path fill="none" stroke="#9a32cd" stroke-dasharray="5,2" d="M633.27,-337.82C635.87,-337.89 638.45,-337.96 641,-338.03 922.37,-345.25 1257.38,-343.8 1401.84,-342.69"/>
<polygon fill="#9a32cd" stroke="#9a32cd" points="633.27,-334.31 623.17,-337.49 633.05,-341.31 633.27,-334.31"/>
<text text-anchor="middle" x="948.5" y="-372.43" font-family="Helvetica,sans-Serif" font-size="12.00"> boxplotStyle</text>
<text text-anchor="middle" x="948.5" y="-359.43" font-family="Helvetica,sans-Serif" font-size="12.00">defaultGraphStyle</text>
<text text-anchor="middle" x="948.5" y="-346.43" font-family="Helvetica,sans-Serif" font-size="12.00">filledStyle</text>
</g>
<!-- Node17 -->
<g id="node17" class="node">
<title>Node17</title>
<g id="a_node17"><a xlink:href="class_j_k_q_t_barchart_specific_style_properties.html" target="_top" xlink:title="Support Class for JKQTBasePlotter, which summarizes all properties that define the visual styling of ...">
<polygon fill="white" stroke="#666666" points="1035,-329.03 862,-329.03 862,-295.03 1035,-295.03 1035,-329.03"/>
<text text-anchor="start" x="870" y="-315.43" font-family="Helvetica,sans-Serif" font-size="12.00">JKQTBarchartSpecificStyle</text>
<text text-anchor="middle" x="948.5" y="-302.43" font-family="Helvetica,sans-Serif" font-size="12.00">Properties</text>
</a>
</g>
</g>
<!-- Node15&#45;&gt;Node17 -->
<g id="edge19" class="edge">
<title>Node15&#45;&gt;Node17</title>
<path fill="none" stroke="#63b8ff" d="M633.15,-326.47C705.82,-323.13 796.5,-318.96 861.76,-315.97"/>
<polygon fill="#63b8ff" stroke="#63b8ff" points="632.85,-322.98 623.02,-326.93 633.17,-329.97 632.85,-322.98"/>
</g>
<!-- Node18 -->
<g id="node18" class="node">
<title>Node18</title>
<g id="a_node18"><a xlink:href="class_j_k_q_t_impulse_specific_style_properties.html" target="_top" xlink:title="Support Class for JKQTBasePlotter, which summarizes all properties that define the visual styling of ...">
<polygon fill="white" stroke="#666666" points="1032.5,-285.03 864.5,-285.03 864.5,-251.03 1032.5,-251.03 1032.5,-285.03"/>
<text text-anchor="start" x="872.5" y="-271.43" font-family="Helvetica,sans-Serif" font-size="12.00">JKQTImpulseSpecificStyle</text>
<text text-anchor="middle" x="948.5" y="-258.43" font-family="Helvetica,sans-Serif" font-size="12.00">Properties</text>
</a>
</g>
</g>
<!-- Node15&#45;&gt;Node18 -->
<g id="edge21" class="edge">
<title>Node15&#45;&gt;Node18</title>
<path fill="none" stroke="#63b8ff" d="M594.09,-319.97C671.4,-308.6 786.64,-291.67 864.31,-280.25"/>
<polygon fill="#63b8ff" stroke="#63b8ff" points="593.3,-316.54 583.91,-321.46 594.32,-323.47 593.3,-316.54"/>
</g>
<!-- Node19 -->
<g id="node19" class="node">
<title>Node19</title>
<g id="a_node19"><a xlink:href="class_j_k_q_t_geometric_specific_style_properties.html" target="_top" xlink:title="Support Class for JKQTBasePlotter, which summarizes all properties that define the visual styling of ...">
<polygon fill="white" stroke="#666666" points="844,-423.03 660,-423.03 660,-389.03 844,-389.03 844,-423.03"/>
<text text-anchor="start" x="668" y="-409.43" font-family="Helvetica,sans-Serif" font-size="12.00">JKQTGeometricSpecificStyle</text>
<text text-anchor="middle" x="752" y="-396.43" font-family="Helvetica,sans-Serif" font-size="12.00">Properties</text>
</a>
</g>
</g>
<!-- Node15&#45;&gt;Node19 -->
<g id="edge23" class="edge">
<title>Node15&#45;&gt;Node19</title>
<path fill="none" stroke="#63b8ff" d="M555.59,-345.53C595.02,-357.74 653.28,-375.77 695.93,-388.98"/>
<polygon fill="#63b8ff" stroke="#63b8ff" points="556.58,-342.17 545.99,-342.55 554.51,-348.85 556.58,-342.17"/>
</g>
<!-- Node16 -->
<g id="node16" class="node">
<title>Node16</title>
<g id="a_node16"><a xlink:href="struct_j_k_q_t_p_color_derivation_mode.html" target="_top" xlink:title="Specifies how a fill&#45;color is derived from a given color.">
<polygon fill="white" stroke="#666666" points="179,-342.53 0,-342.53 0,-321.53 179,-321.53 179,-342.53"/>
<text text-anchor="middle" x="89.5" y="-328.93" font-family="Helvetica,sans-Serif" font-size="12.00">JKQTPColorDerivationMode</text>
</a>
</g>
</g>
<!-- Node16&#45;&gt;Node15 -->
<g id="edge17" class="edge">
<title>Node16&#45;&gt;Node15</title>
<path fill="none" stroke="#9a32cd" stroke-dasharray="5,2" d="M189.53,-332.03C252.41,-332.03 333.9,-332.03 398.97,-332.03"/>
<polygon fill="#9a32cd" stroke="#9a32cd" points="189.21,-328.53 179.21,-332.03 189.21,-335.53 189.21,-328.53"/>
<text text-anchor="middle" x="289" y="-387.43" font-family="Helvetica,sans-Serif" font-size="12.00"> errorColorDerivationMode</text>
<text text-anchor="middle" x="289" y="-374.43" font-family="Helvetica,sans-Serif" font-size="12.00">errorFillColorDerivationMode</text>
<text text-anchor="middle" x="289" y="-361.43" font-family="Helvetica,sans-Serif" font-size="12.00">fillColorDerivationMode</text>
<text text-anchor="middle" x="289" y="-348.43" font-family="Helvetica,sans-Serif" font-size="12.00">graphColorDerivationMode</text>
<text text-anchor="middle" x="289" y="-335.43" font-family="Helvetica,sans-Serif" font-size="12.00">symbolFillColorDerivationMode</text>
</g>
<!-- Node17&#45;&gt;Node14 -->
<g id="edge18" class="edge">
<title>Node17&#45;&gt;Node14</title>
<path fill="none" stroke="#9a32cd" stroke-dasharray="5,2" d="M1045.41,-315.54C1103.01,-317.83 1177.73,-321.12 1244,-325.03 1296.86,-328.15 1356.49,-332.58 1401.78,-336.14"/>
<polygon fill="#9a32cd" stroke="#9a32cd" points="1045.36,-312.04 1035.23,-315.14 1045.09,-319.03 1045.36,-312.04"/>
<text text-anchor="middle" x="1148.5" y="-328.43" font-family="Helvetica,sans-Serif" font-size="12.00"> barchartStyle</text>
</g>
<!-- Node18&#45;&gt;Node14 -->
<g id="edge20" class="edge">
<title>Node18&#45;&gt;Node14</title>
<path fill="none" stroke="#9a32cd" stroke-dasharray="5,2" d="M1042.8,-275.93C1100.84,-281.32 1176.93,-289.25 1244,-299.03 1306.31,-308.12 1377.48,-321.96 1423.94,-331.48"/>
<polygon fill="#9a32cd" stroke="#9a32cd" points="1042.83,-272.42 1032.55,-274.99 1042.19,-279.39 1042.83,-272.42"/>
<text text-anchor="middle" x="1148.5" y="-302.43" font-family="Helvetica,sans-Serif" font-size="12.00"> impulseStyle</text>
</g>
<!-- Node19&#45;&gt;Node14 -->
<g id="edge22" class="edge">
<title>Node19&#45;&gt;Node14</title>
<path fill="none" stroke="#9a32cd" stroke-dasharray="5,2" d="M854.27,-417.82C953.75,-427.45 1109.73,-437.33 1244,-423.03 1296.44,-417.44 1311.82,-419.48 1360,-398.03 1369.02,-394.02 1369.45,-389.96 1378,-385.03 1400.15,-372.25 1426.78,-360.59 1446.37,-352.64"/>
<polygon fill="#9a32cd" stroke="#9a32cd" points="854.52,-414.32 844.22,-416.82 853.83,-421.29 854.52,-414.32"/>
<text text-anchor="middle" x="1148.5" y="-433.43" font-family="Helvetica,sans-Serif" font-size="12.00"> geometricStyle</text>
</g>
<!-- Node20 -->
<g id="node20" class="node">
<title>Node20</title>
<g id="a_node20"><a xlink:href="class_j_k_q_t_annotations_specific_style_properties.html" target="_top" xlink:title="Support Class for JKQTBasePlotter, which summarizes all properties that define the visual styling of ...">
<polygon fill="white" stroke="#666666" points="1244,-414.03 1053,-414.03 1053,-380.03 1244,-380.03 1244,-414.03"/>
<text text-anchor="start" x="1061" y="-400.43" font-family="Helvetica,sans-Serif" font-size="12.00">JKQTAnnotationsSpecificStyle</text>
<text text-anchor="middle" x="1148.5" y="-387.43" font-family="Helvetica,sans-Serif" font-size="12.00">Properties</text>
</a>
</g>
</g>
<!-- Node19&#45;&gt;Node20 -->
<g id="edge25" class="edge">
<title>Node19&#45;&gt;Node20</title>
<path fill="none" stroke="#63b8ff" d="M854.07,-403.72C915.27,-402.33 992.83,-400.56 1052.84,-399.19"/>
<polygon fill="#63b8ff" stroke="#63b8ff" points="853.92,-400.23 844,-403.95 854.08,-407.22 853.92,-400.23"/>
</g>
<!-- Node20&#45;&gt;Node14 -->
<g id="edge24" class="edge">
<title>Node20&#45;&gt;Node14</title>
<path fill="none" stroke="#9a32cd" stroke-dasharray="5,2" d="M1253.93,-382.94C1287.84,-378.02 1325.58,-372.18 1360,-366.03 1382.2,-362.06 1406.69,-357 1427.26,-352.54"/>
<polygon fill="#9a32cd" stroke="#9a32cd" points="1253.41,-379.48 1244.01,-384.37 1254.4,-386.41 1253.41,-379.48"/>
<text text-anchor="middle" x="1311" y="-384.43" font-family="Helvetica,sans-Serif" font-size="12.00"> annotationStyle</text>
</g>
<!-- Node21&#45;&gt;Node8 -->
<g id="edge26" class="edge">
<title>Node21&#45;&gt;Node8</title>
<path fill="none" stroke="#9a32cd" stroke-dasharray="5,2" d="M1873.19,-418.23C1923.94,-406.56 1998.02,-389.52 2045.49,-378.61"/>
<polygon fill="#9a32cd" stroke="#9a32cd" points="1872.32,-414.83 1863.36,-420.48 1873.89,-421.65 1872.32,-414.83"/>
<text text-anchor="middle" x="1954.5" y="-413.43" font-family="Helvetica,sans-Serif" font-size="12.00"> mathText</text>
</g>
<!-- Node22 -->
<g id="node22" class="node">
<title>Node22</title>
<g id="a_node22"><a xlink:href="class_j_k_q_t_math_text_node.html" target="_top" xlink:title="subclass representing one node in the syntax tree">
<polygon fill="white" stroke="#666666" points="2158,-461.53 2027,-461.53 2027,-440.53 2158,-440.53 2158,-461.53"/>
<text text-anchor="middle" x="2092.5" y="-447.93" font-family="Helvetica,sans-Serif" font-size="12.00">JKQTMathTextNode</text>
</a>
</g>
</g>
<!-- Node21&#45;&gt;Node22 -->
<g id="edge29" class="edge">
<title>Node21&#45;&gt;Node22</title>
<path fill="none" stroke="#9a32cd" stroke-dasharray="5,2" d="M1865.27,-443.86C1878.38,-446.82 1892.65,-449.54 1906,-451.03 1946.01,-455.49 1991.17,-455.6 2026.92,-454.54"/>
<polygon fill="#9a32cd" stroke="#9a32cd" points="1866.05,-440.45 1855.52,-441.57 1864.45,-447.27 1866.05,-440.45"/>
<text text-anchor="middle" x="1954.5" y="-458.43" font-family="Helvetica,sans-Serif" font-size="12.00"> parentMathText</text>
</g>
<!-- Node22&#45;&gt;Node21 -->
<g id="edge28" class="edge">
<title>Node22&#45;&gt;Node21</title>
<path fill="none" stroke="#9a32cd" stroke-dasharray="5,2" d="M2016.68,-439.46C2012.06,-438.93 2007.47,-438.44 2003,-438.03 1956.63,-433.76 1903.5,-432.08 1866.02,-431.43"/>
<polygon fill="#9a32cd" stroke="#9a32cd" points="2016.48,-442.96 2026.83,-440.71 2017.33,-436.01 2016.48,-442.96"/>
<text text-anchor="middle" x="1954.5" y="-441.43" font-family="Helvetica,sans-Serif" font-size="12.00"> parsedNode</text>
</g>
<!-- Node22&#45;&gt;Node22 -->
<g id="edge30" class="edge">
<title>Node22&#45;&gt;Node22</title>
<path fill="none" stroke="#9a32cd" stroke-dasharray="5,2" d="M2067.07,-471.1C2069.03,-475.94 2077.51,-479.53 2092.5,-479.53 2116.49,-479.53 2123.8,-470.34 2114.43,-461.55"/>
<polygon fill="#9a32cd" stroke="#9a32cd" points="2070.41,-472.15 2070.57,-461.55 2063.84,-469.73 2070.41,-472.15"/>
<text text-anchor="middle" x="2092.5" y="-482.93" font-family="Helvetica,sans-Serif" font-size="12.00"> parentNode</text>
</g>
<!-- Node23&#45;&gt;Node8 -->
<g id="edge31" class="edge">
<title>Node23&#45;&gt;Node8</title>
<path fill="none" stroke="#9a32cd" stroke-dasharray="5,2" d="M2374.8,-459.61C2351.18,-452.73 2321.64,-444.48 2295,-438.03 2245.19,-425.97 2230.24,-432.34 2182,-415.03 2155.47,-405.51 2127.08,-389.22 2109.8,-378.54"/>
<polygon fill="#9a32cd" stroke="#9a32cd" points="2373.95,-463 2384.53,-462.46 2375.92,-456.29 2373.95,-463"/>
<text text-anchor="middle" x="2238.5" y="-441.43" font-family="Helvetica,sans-Serif" font-size="12.00"> m_plotsModel</text>
</g>
<!-- Node24 -->
<g id="node24" class="node">
<title>Node24</title>
<g id="a_node24"><a xlink:title=" ">
<polygon fill="white" stroke="#666666" points="2164,-531.53 2021,-531.53 2021,-510.53 2164,-510.53 2164,-531.53"/>
<text text-anchor="middle" x="2092.5" y="-517.93" font-family="Helvetica,sans-Serif" font-size="12.00">QAbstractTableModel</text>
</a>
</g>
</g>
<!-- Node24&#45;&gt;Node23 -->
<g id="edge32" class="edge">
<title>Node24&#45;&gt;Node23</title>
<path fill="none" stroke="#63b8ff" d="M2174.43,-509.11C2230.15,-500.91 2303.18,-490.16 2354.99,-482.53"/>
<polygon fill="#63b8ff" stroke="#63b8ff" points="2173.62,-505.69 2164.24,-510.61 2174.64,-512.62 2173.62,-505.69"/>
</g>
<!-- Node25 -->
<g id="node25" class="node">
<title>Node25</title>
<g id="a_node25"><a xlink:href="class_j_k_q_t_p_horizontal_axis.html" target="_top" xlink:title="implements a horizontal axis, based on JKQTPCoordinateAxis (for most of documentation: see JKQTPCoord...">
<polygon fill="white" stroke="#666666" points="2958.5,-366.53 2821.5,-366.53 2821.5,-345.53 2958.5,-345.53 2958.5,-366.53"/>
<text text-anchor="middle" x="2890" y="-352.93" font-family="Helvetica,sans-Serif" font-size="12.00">JKQTPHorizontalAxis</text>
</a>
</g>
</g>
<!-- Node25&#45;&gt;Node8 -->
<g id="edge34" class="edge">
<title>Node25&#45;&gt;Node8</title>
<path fill="none" stroke="#9a32cd" stroke-dasharray="5,2" d="M2811.07,-357.2C2651.14,-359.62 2289.21,-365.08 2149.75,-367.18"/>
<polygon fill="#9a32cd" stroke="#9a32cd" points="2811.36,-360.7 2821.31,-357.05 2811.26,-353.7 2811.36,-360.7"/>
<text text-anchor="middle" x="2563.5" y="-364.43" font-family="Helvetica,sans-Serif" font-size="12.00"> xAxis</text>
</g>
<!-- Node26 -->
<g id="node26" class="node">
<title>Node26</title>
<g id="a_node26"><a xlink:href="class_j_k_q_t_p_horizontal_axis_base.html" target="_top" xlink:title="base class for horizontal axes, based on JKQTPCoordinateAxis (for most of documentation: see JKQTPCoo...">
<polygon fill="white" stroke="#666666" points="2766,-300.53 2599,-300.53 2599,-279.53 2766,-279.53 2766,-300.53"/>
<text text-anchor="middle" x="2682.5" y="-286.93" font-family="Helvetica,sans-Serif" font-size="12.00">JKQTPHorizontalAxisBase</text>
</a>
</g>
</g>
<!-- Node26&#45;&gt;Node25 -->
<g id="edge35" class="edge">
<title>Node26&#45;&gt;Node25</title>
<path fill="none" stroke="#63b8ff" d="M2749.56,-303.56C2755.22,-305.46 2760.77,-307.61 2766,-310.03 2784.47,-318.59 2784.44,-328.66 2803,-337.03 2810.39,-340.36 2818.4,-343.13 2826.47,-345.42"/>
<polygon fill="#63b8ff" stroke="#63b8ff" points="2750.57,-300.2 2739.98,-300.58 2748.5,-306.89 2750.57,-300.2"/>
</g>
<!-- Node27&#45;&gt;Node26 -->
<g id="edge36" class="edge">
<title>Node27&#45;&gt;Node26</title>
<path fill="none" stroke="#63b8ff" d="M2501.79,-301.78C2532.62,-299.76 2567.85,-297.46 2598.89,-295.43"/>
<polygon fill="#63b8ff" stroke="#63b8ff" points="2501.27,-298.31 2491.52,-302.45 2501.72,-305.29 2501.27,-298.31"/>
</g>
<!-- Node29 -->
<g id="node29" class="node">
<title>Node29</title>
<g id="a_node29"><a xlink:href="class_j_k_q_t_p_vertical_axis_base.html" target="_top" xlink:title="base class for vertical axes, based on JKQTPCoordinateAxis (for most of documentation: see JKQTPCoord...">
<polygon fill="white" stroke="#666666" points="2758,-339.53 2607,-339.53 2607,-318.53 2758,-318.53 2758,-339.53"/>
<text text-anchor="middle" x="2682.5" y="-325.93" font-family="Helvetica,sans-Serif" font-size="12.00">JKQTPVerticalAxisBase</text>
</a>
</g>
</g>
<!-- Node27&#45;&gt;Node29 -->
<g id="edge42" class="edge">
<title>Node27&#45;&gt;Node29</title>
<path fill="none" stroke="#63b8ff" d="M2501.73,-313.82C2535.23,-316.65 2573.92,-319.93 2606.8,-322.71"/>
<polygon fill="#63b8ff" stroke="#63b8ff" points="2501.78,-310.31 2491.52,-312.95 2501.19,-317.28 2501.78,-310.31"/>
</g>
<!-- Node28 -->
<g id="node28" class="node">
<title>Node28</title>
<g id="a_node28"><a xlink:href="class_j_k_q_t_p_vertical_axis.html" target="_top" xlink:title="implements a vertical axis for use as primary, secondary, ... axis of a JKQTPBasePlotter,...">
<polygon fill="white" stroke="#666666" points="2951,-410.53 2829,-410.53 2829,-389.53 2951,-389.53 2951,-410.53"/>
<text text-anchor="middle" x="2890" y="-396.93" font-family="Helvetica,sans-Serif" font-size="12.00">JKQTPVerticalAxis</text>
</a>
</g>
</g>
<!-- Node28&#45;&gt;Node8 -->
<g id="edge40" class="edge">
<title>Node28&#45;&gt;Node8</title>
<path fill="none" stroke="#9a32cd" stroke-dasharray="5,2" d="M2818.46,-400.13C2691.14,-399.81 2414.52,-396.89 2182,-379.03 2171.5,-378.22 2160.34,-377.07 2149.6,-375.81"/>
<polygon fill="#9a32cd" stroke="#9a32cd" points="2818.83,-403.63 2828.84,-400.15 2818.85,-396.63 2818.83,-403.63"/>
<text text-anchor="middle" x="2563.5" y="-400.43" font-family="Helvetica,sans-Serif" font-size="12.00"> yAxis</text>
</g>
<!-- Node29&#45;&gt;Node28 -->
<g id="edge41" class="edge">
<title>Node29&#45;&gt;Node28</title>
<path fill="none" stroke="#63b8ff" d="M2717.68,-343.55C2741.39,-353.36 2773.83,-366.25 2803,-376.03 2817.55,-380.91 2833.71,-385.6 2848.05,-389.52"/>
<polygon fill="#63b8ff" stroke="#63b8ff" points="2718.98,-340.3 2708.4,-339.69 2716.29,-346.76 2718.98,-340.3"/>
</g>
<!-- Node30 -->
<g id="node30" class="node">
<title>Node30</title>
<g id="a_node30"><a xlink:href="class_j_k_q_t_p_datastore.html" target="_top" xlink:title="This class manages data columns (with entries of type double ), used by JKQTPlotter/JKQTBasePlotter t...">
<polygon fill="white" stroke="#666666" points="1872,-46.53 1761,-46.53 1761,-25.53 1872,-25.53 1872,-46.53"/>
<text text-anchor="middle" x="1816.5" y="-32.93" font-family="Helvetica,sans-Serif" font-size="12.00">JKQTPDatastore</text>
</a>
</g>
</g>
<!-- Node30&#45;&gt;Node8 -->
<g id="edge43" class="edge">
<title>Node30&#45;&gt;Node8</title>
<path fill="none" stroke="#9a32cd" stroke-dasharray="5,2" d="M1881.39,-50.47C1883.71,-51.85 1885.92,-53.37 1888,-55.03 1901.36,-65.69 1897.26,-74.34 1906,-89.03 1970.11,-196.75 2057.73,-320.82 2083.85,-357.38"/>
<polygon fill="#9a32cd" stroke="#9a32cd" points="1882.58,-47.15 1872.08,-45.76 1879.42,-53.39 1882.58,-47.15"/>
<text text-anchor="middle" x="1954.5" y="-239.43" font-family="Helvetica,sans-Serif" font-size="12.00"> datastore</text>
</g>
<!-- Node32 -->
<g id="node32" class="node">
<title>Node32</title>
<g id="a_node32"><a xlink:href="class_j_k_q_t_p_column.html" target="_top" xlink:title="internally stores information about one data column. See JKQTPDatastore for more information.">
<polygon fill="white" stroke="#666666" points="2141.5,-46.53 2043.5,-46.53 2043.5,-25.53 2141.5,-25.53 2141.5,-46.53"/>
<text text-anchor="middle" x="2092.5" y="-32.93" font-family="Helvetica,sans-Serif" font-size="12.00">JKQTPColumn</text>
</a>
</g>
</g>
<!-- Node30&#45;&gt;Node32 -->
<g id="edge46" class="edge">
<title>Node30&#45;&gt;Node32</title>
<path fill="none" stroke="#9a32cd" stroke-dasharray="5,2" d="M1882.54,-36.03C1931.87,-36.03 1998.58,-36.03 2043.22,-36.03"/>
<polygon fill="#9a32cd" stroke="#9a32cd" points="1882.29,-32.53 1872.29,-36.03 1882.29,-39.53 1882.29,-32.53"/>
<text text-anchor="middle" x="1954.5" y="-39.43" font-family="Helvetica,sans-Serif" font-size="12.00"> datastore</text>
</g>
<!-- Node31 -->
<g id="node31" class="node">
<title>Node31</title>
<g id="a_node31"><a xlink:title=" ">
<polygon fill="white" stroke="#666666" points="2528,-46.53 2313,-46.53 2313,-25.53 2528,-25.53 2528,-46.53"/>
<text text-anchor="middle" x="2420.5" y="-32.93" font-family="Helvetica,sans-Serif" font-size="12.00">std::unique_ptr&lt; JKQTPColumn &gt;</text>
</a>
</g>
</g>
<!-- Node31&#45;&gt;Node30 -->
<g id="edge44" class="edge">
<title>Node31&#45;&gt;Node30</title>
<path fill="none" stroke="#9a32cd" stroke-dasharray="5,2" d="M2352.44,-23.79C2273.25,-10.89 2137.55,6.36 2021,-3.03 1968.56,-7.25 1909.24,-17.51 1868.24,-25.47"/>
<polygon fill="#9a32cd" stroke="#9a32cd" points="2352.32,-27.32 2362.75,-25.5 2353.46,-20.41 2352.32,-27.32"/>
<text text-anchor="middle" x="2092.5" y="-6.43" font-family="Helvetica,sans-Serif" font-size="12.00"> m_invalidColumn</text>
</g>
<!-- Node32&#45;&gt;Node31 -->
<g id="edge45" class="edge">
<title>Node32&#45;&gt;Node31</title>
<path fill="none" stroke="#9a32cd" stroke-dasharray="5,2" d="M2151.69,-36.03C2196.35,-36.03 2259.24,-36.03 2312.85,-36.03"/>
<polygon fill="#9a32cd" stroke="#9a32cd" points="2151.6,-32.53 2141.6,-36.03 2151.6,-39.53 2151.6,-32.53"/>
<text text-anchor="middle" x="2238.5" y="-39.43" font-family="Helvetica,sans-Serif" font-size="12.00"> ptr</text>
</g>
<!-- Node33 -->
<g id="node33" class="node">
<title>Node33</title>
<g id="a_node33"><a xlink:title=" ">
<polygon fill="white" stroke="#666666" points="2162.5,-85.53 2022.5,-85.53 2022.5,-64.53 2162.5,-64.53 2162.5,-85.53"/>
<text text-anchor="middle" x="2092.5" y="-71.93" font-family="Helvetica,sans-Serif" font-size="12.00">std::unique_ptr&lt; T &gt;</text>
</a>
</g>
</g>
<!-- Node33&#45;&gt;Node31 -->
<g id="edge47" class="edge">
<title>Node33&#45;&gt;Node31</title>
<path fill="none" stroke="orange" stroke-dasharray="5,2" d="M2172.8,-66.24C2209.93,-62.06 2254.74,-56.91 2295,-52.03 2309.17,-50.31 2324.24,-48.42 2338.82,-46.57"/>
<polygon fill="orange" stroke="orange" points="2172.09,-62.8 2162.54,-67.39 2172.87,-69.75 2172.09,-62.8"/>
<text text-anchor="middle" x="2238.5" y="-68.43" font-family="Helvetica,sans-Serif" font-size="12.00"> &lt; JKQTPColumn &gt;</text>
</g>
<!-- Node34 -->
<g id="node34" class="node">
<title>Node34</title>
<g id="a_node34"><a xlink:title=" ">
<polygon fill="white" stroke="#666666" points="1831,-85.53 1802,-85.53 1802,-64.53 1831,-64.53 1831,-85.53"/>
<text text-anchor="middle" x="1816.5" y="-71.93" font-family="Helvetica,sans-Serif" font-size="12.00">T</text>
</a>
</g>
</g>
<!-- Node34&#45;&gt;Node33 -->
<g id="edge48" class="edge">
<title>Node34&#45;&gt;Node33</title>
<path fill="none" stroke="#9a32cd" stroke-dasharray="5,2" d="M1841.17,-75.03C1881.06,-75.03 1963.14,-75.03 2022.46,-75.03"/>
<polygon fill="#9a32cd" stroke="#9a32cd" points="1841.09,-71.53 1831.09,-75.03 1841.09,-78.53 1841.09,-71.53"/>
<text text-anchor="middle" x="1954.5" y="-78.43" font-family="Helvetica,sans-Serif" font-size="12.00"> ptr</text>
</g>
<!-- Node35 -->
<g id="node35" class="node">
<title>Node35</title>
<g id="a_node35"><a xlink:href="class_j_k_q_t_p_graph_line_and_fill_style_mixin.html" target="_top" xlink:title="This Mix&#45;In class provides setter/getter methods, storage and other facilities for the graph line and...">
<polygon fill="white" stroke="#666666" points="3196,-300.03 3014,-300.03 3014,-266.03 3196,-266.03 3196,-300.03"/>
<text text-anchor="start" x="3022" y="-286.43" font-family="Helvetica,sans-Serif" font-size="12.00">JKQTPGraphLineAndFillStyle</text>
<text text-anchor="middle" x="3105" y="-273.43" font-family="Helvetica,sans-Serif" font-size="12.00">Mixin</text>
</a>
</g>
</g>
<!-- Node35&#45;&gt;Node2 -->
<g id="edge50" class="edge">
<title>Node35&#45;&gt;Node2</title>
<path fill="none" stroke="#63b8ff" d="M3185.98,-302.47C3217.99,-310.26 3253.6,-318.91 3280.63,-325.49"/>
<polygon fill="#63b8ff" stroke="#63b8ff" points="3186.72,-299.05 3176.18,-300.09 3185.07,-305.85 3186.72,-299.05"/>
</g>
<!-- Node36 -->
<g id="node36" class="node">
<title>Node36</title>
<g id="a_node36"><a xlink:href="class_j_k_q_t_p_graph_fill_style_mixin.html" target="_top" xlink:title="This Mix&#45;In class provides setter/getter methods, storage and other facilities for the graph filling ...">
<polygon fill="white" stroke="#666666" points="2972,-327.53 2808,-327.53 2808,-306.53 2972,-306.53 2972,-327.53"/>
<text text-anchor="middle" x="2890" y="-313.93" font-family="Helvetica,sans-Serif" font-size="12.00">JKQTPGraphFillStyleMixin</text>
</a>
</g>
</g>
<!-- Node36&#45;&gt;Node2 -->
<g id="edge53" class="edge">
<title>Node36&#45;&gt;Node2</title>
<path fill="none" stroke="#9a32cd" stroke-dasharray="5,2" d="M2982.38,-321.04C3056.03,-324.27 3159.08,-328.79 3232.7,-332.02"/>
<polygon fill="#9a32cd" stroke="#9a32cd" points="2982.33,-317.53 2972.19,-320.59 2982.03,-324.53 2982.33,-317.53"/>
<text text-anchor="middle" x="3105" y="-333.43" font-family="Helvetica,sans-Serif" font-size="12.00"> m_fillStyleBelow</text>
</g>
<!-- Node36&#45;&gt;Node35 -->
<g id="edge51" class="edge">
<title>Node36&#45;&gt;Node35</title>
<path fill="none" stroke="#63b8ff" d="M2967.21,-304.86C2982.28,-302.46 2998.24,-299.91 3013.73,-297.44"/>
<polygon fill="#63b8ff" stroke="#63b8ff" points="2966.26,-301.47 2956.94,-306.5 2967.36,-308.38 2966.26,-301.47"/>
</g>
<!-- Node37 -->
<g id="node37" class="node">
<title>Node37</title>
<g id="a_node37"><a xlink:href="class_j_k_q_t_p_graph_line_style_mixin.html" target="_top" xlink:title="This Mix&#45;In class provides setter/getter methods, storage and other facilities for the graph line sty...">
<polygon fill="white" stroke="#666666" points="2977,-288.53 2803,-288.53 2803,-267.53 2977,-267.53 2977,-288.53"/>
<text text-anchor="middle" x="2890" y="-274.93" font-family="Helvetica,sans-Serif" font-size="12.00">JKQTPGraphLineStyleMixin</text>
</a>
</g>
</g>
<!-- Node37&#45;&gt;Node35 -->
<g id="edge52" class="edge">
<title>Node37&#45;&gt;Node35</title>
<path fill="none" stroke="#63b8ff" d="M2987.04,-280.28C2995.95,-280.49 3004.97,-280.7 3013.83,-280.91"/>
<polygon fill="#63b8ff" stroke="#63b8ff" points="2987.1,-276.78 2977.02,-280.05 2986.94,-283.78 2987.1,-276.78"/>
</g>
</g>
</svg>
        <g id="navigator" transform="translate(0 0)" fill="#404254">
                <rect fill="#f2f5e9" fill-opacity="0.5" stroke="#606060" stroke-width=".5" x="0" y="0" width="60" height="60"/>
                <use id="zoomplus" xlink:href="#zoomPlus" x="17" y="9" onmousedown="handleZoom(evt,'in')"/>
                <use id="zoomminus" xlink:href="#zoomMin" x="42" y="9" onmousedown="handleZoom(evt,'out')"/>
                <use id="reset" xlink:href="#resetDef" x="30" y="36" onmousedown="handleReset()"/>
                <g id="arrowUp" xlink:href="#dirArrow" transform="translate(30 24)" onmousedown="handlePan(0,-1)">
                  <use xlink:href="#rim" fill="#404040">
                        <set attributeName="fill" to="#808080" begin="arrowUp.mouseover" end="arrowUp.mouseout"/>
                  </use>
                  <path fill="none" stroke="white" stroke-width="1.5" d="M0,-3.0v7 M-2.5,-0.5L0,-3.0L2.5,-0.5"/>
                </g>
                <g id="arrowRight" xlink:href="#dirArrow" transform="rotate(90) translate(36 -43)" onmousedown="handlePan(1,0)">
                  <use xlink:href="#rim" fill="#404040">
                        <set attributeName="fill" to="#808080" begin="arrowRight.mouseover" end="arrowRight.mouseout"/>
                  </use>
                  <path fill="none" stroke="white" stroke-width="1.5" d="M0,-3.0v7 M-2.5,-0.5L0,-3.0L2.5,-0.5"/>
                </g>
                <g id="arrowDown" xlink:href="#dirArrow" transform="rotate(180) translate(-30 -48)" onmousedown="handlePan(0,1)">
                  <use xlink:href="#rim" fill="#404040">
                        <set attributeName="fill" to="#808080" begin="arrowDown.mouseover" end="arrowDown.mouseout"/>
                  </use>
                  <path fill="none" stroke="white" stroke-width="1.5" d="M0,-3.0v7 M-2.5,-0.5L0,-3.0L2.5,-0.5"/>
                </g>
                <g id="arrowLeft" xlink:href="#dirArrow" transform="rotate(270) translate(-36 17)" onmousedown="handlePan(-1,0)">
                  <use xlink:href="#rim" fill="#404040">
                        <set attributeName="fill" to="#808080" begin="arrowLeft.mouseover" end="arrowLeft.mouseout"/>
                  </use>
                  <path fill="none" stroke="white" stroke-width="1.5" d="M0,-3.0v7 M-2.5,-0.5L0,-3.0L2.5,-0.5"/>
                </g>
        </g>
        <svg viewBox="0 0 15 15" width="100%" height="30px" preserveAspectRatio="xMaxYMin meet">
         <g id="arrow_out" transform="scale(0.3 0.3)">
          <a xlink:href="class_j_k_q_t_p_filled_curve_y_graph__coll__graph_org.svg" target="_base">
           <rect id="button" ry="5" rx="5" y="6" x="6" height="38" width="38"
                fill="#f2f5e9" fill-opacity="0.5" stroke="#606060" stroke-width="1.0"/>
           <path id="arrow"
             d="M 11.500037,31.436501 C 11.940474,20.09759 22.043105,11.32322 32.158766,21.979434 L 37.068811,17.246167 C 37.068811,17.246167 37.088388,32 37.088388,32 L 22.160133,31.978069 C 22.160133,31.978069 26.997745,27.140456 26.997745,27.140456 C 18.528582,18.264221 13.291696,25.230495 11.500037,31.436501 z"
             style="fill:#404040;"/>
          </a>
         </g>
        </svg>
</svg>
