<?xml version="1.0" encoding="UTF-8" standalone="no"?>
<!DOCTYPE svg PUBLIC "-//W3C//DTD SVG 1.1//EN"
 "http://www.w3.org/Graphics/SVG/1.1/DTD/svg11.dtd">
<!-- Generated by graphviz version 2.43.0 (0)
 -->
<!-- Title: JKQTMathTextSingleChildNode Pages: 1 -->
<svg width="861pt" height="224pt"
 viewBox="0.00 0.00 861.00 224.00" xmlns="http://www.w3.org/2000/svg" xmlns:xlink="http://www.w3.org/1999/xlink">
<g id="graph0" class="graph" transform="scale(1 1) rotate(0) translate(4 220)">
<title>JKQTMathTextSingleChildNode</title>
<!-- Node1 -->
<g id="node1" class="node">
<title>Node1</title>
<g id="a_node1"><a xlink:title="subclass representing a node in the syntax tree, that has one child">
<polygon fill="#999999" stroke="#666666" points="363,-118 167,-118 167,-97 363,-97 363,-118"/>
<text text-anchor="middle" x="265" y="-104.4" font-family="Helvetica,sans-Serif" font-size="12.00">JKQTMathTextSingleChildNode</text>
</a>
</g>
</g>
<!-- Node3 -->
<g id="node3" class="node">
<title>Node3</title>
<g id="a_node3"><a xlink:href="class_j_k_q_t_math_text_block_node.html" target="_top" xlink:title="subclass representing a {...} block">
<polygon fill="white" stroke="#666666" points="581.5,-216 418.5,-216 418.5,-195 581.5,-195 581.5,-216"/>
<text text-anchor="middle" x="500" y="-202.4" font-family="Helvetica,sans-Serif" font-size="12.00">JKQTMathTextBlockNode</text>
</a>
</g>
</g>
<!-- Node1&#45;&gt;Node3 -->
<g id="edge2" class="edge">
<title>Node1&#45;&gt;Node3</title>
<path fill="none" stroke="#63b8ff" d="M288.12,-123.95C313.56,-142.05 357.21,-170.68 399,-186.5 407.92,-189.88 417.53,-192.68 427.14,-194.99"/>
<polygon fill="#63b8ff" stroke="#63b8ff" points="290.07,-121.04 279.92,-118.02 285.97,-126.72 290.07,-121.04"/>
</g>
<!-- Node4 -->
<g id="node4" class="node">
<title>Node4</title>
<g id="a_node4"><a xlink:href="class_j_k_q_t_math_text_brace_node.html" target="_top" xlink:title="subclass representing a brace node">
<polygon fill="white" stroke="#666666" points="583,-177 417,-177 417,-156 583,-156 583,-177"/>
<text text-anchor="middle" x="500" y="-163.4" font-family="Helvetica,sans-Serif" font-size="12.00">JKQTMathTextBraceNode</text>
</a>
</g>
</g>
<!-- Node1&#45;&gt;Node4 -->
<g id="edge3" class="edge">
<title>Node1&#45;&gt;Node4</title>
<path fill="none" stroke="#63b8ff" d="M307.29,-121.13C333.4,-129.45 367.95,-139.9 399,-147.5 411.53,-150.57 425.05,-153.43 437.97,-155.95"/>
<polygon fill="#63b8ff" stroke="#63b8ff" points="308.31,-117.79 297.72,-118.06 306.17,-124.45 308.31,-117.79"/>
</g>
<!-- Node5 -->
<g id="node5" class="node">
<title>Node5</title>
<g id="a_node5"><a xlink:href="class_j_k_q_t_math_text_decorated_node.html" target="_top" xlink:title="subclass representing a decorated text m (e.g. \vec \hat ...) node">
<polygon fill="white" stroke="#666666" points="597,-138 403,-138 403,-117 597,-117 597,-138"/>
<text text-anchor="middle" x="500" y="-124.4" font-family="Helvetica,sans-Serif" font-size="12.00">JKQTMathTextDecoratedNode</text>
</a>
</g>
</g>
<!-- Node1&#45;&gt;Node5 -->
<g id="edge4" class="edge">
<title>Node1&#45;&gt;Node5</title>
<path fill="none" stroke="#63b8ff" d="M373.32,-116.71C383.15,-117.56 393.06,-118.41 402.78,-119.24"/>
<polygon fill="#63b8ff" stroke="#63b8ff" points="373.39,-113.21 363.13,-115.84 372.79,-120.18 373.39,-113.21"/>
</g>
<!-- Node6 -->
<g id="node6" class="node">
<title>Node6</title>
<g id="a_node6"><a xlink:href="class_j_k_q_t_math_text_instruction1_node.html" target="_top" xlink:title="subclass representing an instruction node with exactly one argument and possibly additional parameter...">
<polygon fill="white" stroke="#666666" points="601,-99 399,-99 399,-78 601,-78 601,-99"/>
<text text-anchor="middle" x="500" y="-85.4" font-family="Helvetica,sans-Serif" font-size="12.00">JKQTMathTextInstruction1Node</text>
</a>
</g>
</g>
<!-- Node1&#45;&gt;Node6 -->
<g id="edge5" class="edge">
<title>Node1&#45;&gt;Node6</title>
<path fill="none" stroke="#63b8ff" d="M373.36,-98.75C381.79,-98.06 390.28,-97.37 398.65,-96.68"/>
<polygon fill="#63b8ff" stroke="#63b8ff" points="372.81,-95.28 363.13,-99.58 373.38,-102.26 372.81,-95.28"/>
</g>
<!-- Node10 -->
<g id="node10" class="node">
<title>Node10</title>
<g id="a_node10"><a xlink:href="class_j_k_q_t_math_text_subscript_node.html" target="_top" xlink:title="subclass representing an subscript node with exactly one argument in the syntax tree">
<polygon fill="white" stroke="#666666" points="593,-60 407,-60 407,-39 593,-39 593,-60"/>
<text text-anchor="middle" x="500" y="-46.4" font-family="Helvetica,sans-Serif" font-size="12.00">JKQTMathTextSubscriptNode</text>
</a>
</g>
</g>
<!-- Node1&#45;&gt;Node10 -->
<g id="edge9" class="edge">
<title>Node1&#45;&gt;Node10</title>
<path fill="none" stroke="#63b8ff" d="M308.1,-94.01C334.12,-85.96 368.3,-75.9 399,-68.5 411.71,-65.44 425.43,-62.56 438.51,-60.01"/>
<polygon fill="#63b8ff" stroke="#63b8ff" points="307.06,-90.67 298.56,-96.99 309.14,-97.35 307.06,-90.67"/>
</g>
<!-- Node11 -->
<g id="node11" class="node">
<title>Node11</title>
<g id="a_node11"><a xlink:href="class_j_k_q_t_math_text_superscript_node.html" target="_top" xlink:title="subclass representing an superscript node with exactly one argument in the syntax tree">
<polygon fill="white" stroke="#666666" points="599.5,-21 400.5,-21 400.5,0 599.5,0 599.5,-21"/>
<text text-anchor="middle" x="500" y="-7.4" font-family="Helvetica,sans-Serif" font-size="12.00">JKQTMathTextSuperscriptNode</text>
</a>
</g>
</g>
<!-- Node1&#45;&gt;Node11 -->
<g id="edge10" class="edge">
<title>Node1&#45;&gt;Node11</title>
<path fill="none" stroke="#63b8ff" d="M288.57,-90.98C314.1,-73.1 357.53,-45.07 399,-29.5 407.93,-26.15 417.55,-23.36 427.16,-21.06"/>
<polygon fill="#63b8ff" stroke="#63b8ff" points="286.44,-88.2 280.32,-96.84 290.5,-93.9 286.44,-88.2"/>
</g>
<!-- Node2 -->
<g id="node2" class="node">
<title>Node2</title>
<g id="a_node2"><a xlink:href="class_j_k_q_t_math_text_node.html" target="_top" xlink:title="subclass representing one node in the syntax tree">
<polygon fill="white" stroke="#666666" points="131,-118 0,-118 0,-97 131,-97 131,-118"/>
<text text-anchor="middle" x="65.5" y="-104.4" font-family="Helvetica,sans-Serif" font-size="12.00">JKQTMathTextNode</text>
</a>
</g>
</g>
<!-- Node2&#45;&gt;Node1 -->
<g id="edge1" class="edge">
<title>Node2&#45;&gt;Node1</title>
<path fill="none" stroke="#63b8ff" d="M141.28,-107.5C149.68,-107.5 158.33,-107.5 166.96,-107.5"/>
<polygon fill="#63b8ff" stroke="#63b8ff" points="141.17,-104 131.17,-107.5 141.17,-111 141.17,-104"/>
</g>
<!-- Node7 -->
<g id="node7" class="node">
<title>Node7</title>
<g id="a_node7"><a xlink:href="class_j_k_q_t_math_text_box_instruction_node.html" target="_top" xlink:title="subclass representing an instruction node which draws a (possibly colored) box around it&#39;s contents i...">
<polygon fill="white" stroke="#666666" points="853,-145 637,-145 637,-124 853,-124 853,-145"/>
<text text-anchor="middle" x="745" y="-131.4" font-family="Helvetica,sans-Serif" font-size="12.00">JKQTMathTextBoxInstructionNode</text>
</a>
</g>
</g>
<!-- Node6&#45;&gt;Node7 -->
<g id="edge6" class="edge">
<title>Node6&#45;&gt;Node7</title>
<path fill="none" stroke="#63b8ff" d="M566.02,-100.99C588.5,-105.29 613.85,-110.12 637,-114.5 653.34,-117.59 671.09,-120.92 687.35,-123.96"/>
<polygon fill="#63b8ff" stroke="#63b8ff" points="566.39,-97.49 555.91,-99.05 565.08,-104.37 566.39,-97.49"/>
</g>
<!-- Node8 -->
<g id="node8" class="node">
<title>Node8</title>
<g id="a_node8"><a xlink:href="class_j_k_q_t_math_text_modified_text_props_instruction_node.html" target="_top" xlink:title="subclass representing an instruction node which modifies the current font (as defined in JKQTMathText...">
<polygon fill="white" stroke="#666666" points="832,-105.5 658,-105.5 658,-71.5 832,-71.5 832,-105.5"/>
<text text-anchor="start" x="666" y="-91.9" font-family="Helvetica,sans-Serif" font-size="12.00">JKQTMathTextModifiedText</text>
<text text-anchor="middle" x="745" y="-78.9" font-family="Helvetica,sans-Serif" font-size="12.00">PropsInstructionNode</text>
</a>
</g>
</g>
<!-- Node6&#45;&gt;Node8 -->
<g id="edge7" class="edge">
<title>Node6&#45;&gt;Node8</title>
<path fill="none" stroke="#63b8ff" d="M611.45,-88.5C627.05,-88.5 642.89,-88.5 657.94,-88.5"/>
<polygon fill="#63b8ff" stroke="#63b8ff" points="611.24,-85 601.24,-88.5 611.24,-92 611.24,-85"/>
</g>
<!-- Node9 -->
<g id="node9" class="node">
<title>Node9</title>
<g id="a_node9"><a xlink:href="class_j_k_q_t_math_text_phantom_node.html" target="_top" xlink:title="generates whitespace with the size of the contained node">
<polygon fill="white" stroke="#666666" points="837.5,-53 652.5,-53 652.5,-32 837.5,-32 837.5,-53"/>
<text text-anchor="middle" x="745" y="-39.4" font-family="Helvetica,sans-Serif" font-size="12.00">JKQTMathTextPhantomNode</text>
</a>
</g>
</g>
<!-- Node6&#45;&gt;Node9 -->
<g id="edge8" class="edge">
<title>Node6&#45;&gt;Node9</title>
<path fill="none" stroke="#63b8ff" d="M566.02,-76.01C588.5,-71.71 613.85,-66.88 637,-62.5 653.34,-59.41 671.09,-56.08 687.35,-53.04"/>
<polygon fill="#63b8ff" stroke="#63b8ff" points="565.08,-72.63 555.91,-77.95 566.39,-79.51 565.08,-72.63"/>
</g>
</g>
</svg>
