<?xml version="1.0" encoding="UTF-8" standalone="no"?>
<!DOCTYPE svg PUBLIC "-//W3C//DTD SVG 1.1//EN"
 "http://www.w3.org/Graphics/SVG/1.1/DTD/svg11.dtd">
<!-- Generated by graphviz version 2.43.0 (0)
 -->
<!-- Title: JKQTPColumnRGBMathImage Pages: 1 -->
<svg width="3517pt" height="548pt"
 viewBox="0.00 0.00 3517.00 547.97" xmlns="http://www.w3.org/2000/svg" xmlns:xlink="http://www.w3.org/1999/xlink">
<g id="graph0" class="graph" transform="scale(1 1) rotate(0) translate(4 543.97)">
<title>JKQTPColumnRGBMathImage</title>
<!-- Node1 -->
<g id="node1" class="node">
<title>Node1</title>
<g id="a_node1"><a xlink:title="like JKQTPRGBMathImage but reads images from columns of the datastore">
<polygon fill="#bfbfbf" stroke="black" points="3327,-315.5 3327,-336.5 3509,-336.5 3509,-315.5 3327,-315.5"/>
<text text-anchor="middle" x="3418" y="-322.9" font-family="FreeSans" font-size="12.00">JKQTPColumnRGBMathImage</text>
</a>
</g>
</g>
<!-- Node2 -->
<g id="node2" class="node">
<title>Node2</title>
<g id="a_node2"><a xlink:href="class_j_k_q_t_p_r_g_b_math_image.html" target="_top" xlink:title="class to plot an image from an 2&#45;dimensional array of RGB values">
<polygon fill="none" stroke="black" points="3149,-315.5 3149,-336.5 3290,-336.5 3290,-315.5 3149,-315.5"/>
<text text-anchor="middle" x="3219.5" y="-322.9" font-family="FreeSans" font-size="12.00">JKQTPRGBMathImage</text>
</a>
</g>
</g>
<!-- Node2&#45;&gt;Node1 -->
<g id="edge1" class="edge">
<title>Node2&#45;&gt;Node1</title>
<path fill="none" stroke="midnightblue" d="M3300.24,-326C3309.02,-326 3318,-326 3326.89,-326"/>
<polygon fill="midnightblue" stroke="midnightblue" points="3300.06,-322.5 3290.06,-326 3300.06,-329.5 3300.06,-322.5"/>
</g>
<!-- Node3 -->
<g id="node3" class="node">
<title>Node3</title>
<g id="a_node3"><a xlink:href="class_j_k_q_t_p_math_image_base.html" target="_top" xlink:title="base class to hold an image from an 2&#45;dimensional array of values">
<polygon fill="none" stroke="black" points="2969,-396.5 2969,-417.5 3112,-417.5 3112,-396.5 2969,-396.5"/>
<text text-anchor="middle" x="3040.5" y="-403.9" font-family="FreeSans" font-size="12.00">JKQTPMathImageBase</text>
</a>
</g>
</g>
<!-- Node3&#45;&gt;Node2 -->
<g id="edge2" class="edge">
<title>Node3&#45;&gt;Node2</title>
<path fill="none" stroke="midnightblue" d="M3084.03,-393.03C3093.34,-389.66 3103.08,-385.9 3112,-382 3143.96,-368.02 3179.54,-348.45 3200.42,-336.53"/>
<polygon fill="midnightblue" stroke="midnightblue" points="3082.79,-389.76 3074.52,-396.39 3085.12,-396.36 3082.79,-389.76"/>
</g>
<!-- Node4 -->
<g id="node4" class="node">
<title>Node4</title>
<g id="a_node4"><a xlink:href="class_j_k_q_t_p_image_base.html" target="_top" xlink:title="base class for plotting an image">
<polygon fill="none" stroke="black" points="2617,-396.5 2617,-417.5 2733,-417.5 2733,-396.5 2617,-396.5"/>
<text text-anchor="middle" x="2675" y="-403.9" font-family="FreeSans" font-size="12.00">JKQTPImageBase</text>
</a>
</g>
</g>
<!-- Node4&#45;&gt;Node3 -->
<g id="edge3" class="edge">
<title>Node4&#45;&gt;Node3</title>
<path fill="none" stroke="midnightblue" d="M2743.21,-407C2807.37,-407 2903.67,-407 2968.93,-407"/>
<polygon fill="midnightblue" stroke="midnightblue" points="2743.2,-403.5 2733.2,-407 2743.2,-410.5 2743.2,-403.5"/>
</g>
<!-- Node5 -->
<g id="node5" class="node">
<title>Node5</title>
<g id="a_node5"><a xlink:href="class_j_k_q_t_p_graph.html" target="_top" xlink:title="this virtual base class of the (data&#45;column based) graphs, which are part of a JKQTPlotter plot and w...">
<polygon fill="none" stroke="black" points="2469,-396.5 2469,-417.5 2558,-417.5 2558,-396.5 2469,-396.5"/>
<text text-anchor="middle" x="2513.5" y="-403.9" font-family="FreeSans" font-size="12.00">JKQTPGraph</text>
</a>
</g>
</g>
<!-- Node5&#45;&gt;Node4 -->
<g id="edge4" class="edge">
<title>Node5&#45;&gt;Node4</title>
<path fill="none" stroke="midnightblue" d="M2568.16,-407C2583.86,-407 2601.09,-407 2616.99,-407"/>
<polygon fill="midnightblue" stroke="midnightblue" points="2568.08,-403.5 2558.08,-407 2568.08,-410.5 2568.08,-403.5"/>
</g>
<!-- Node6 -->
<g id="node6" class="node">
<title>Node6</title>
<g id="a_node6"><a xlink:href="class_j_k_q_t_p_plot_element.html" target="_top" xlink:title="this virtual base class of every element, which is part of a JKQTPlotter plot and may appear in its k...">
<polygon fill="none" stroke="black" points="2254,-396.5 2254,-417.5 2372,-417.5 2372,-396.5 2254,-396.5"/>
<text text-anchor="middle" x="2313" y="-403.9" font-family="FreeSans" font-size="12.00">JKQTPPlotElement</text>
</a>
</g>
</g>
<!-- Node6&#45;&gt;Node5 -->
<g id="edge5" class="edge">
<title>Node6&#45;&gt;Node5</title>
<path fill="none" stroke="midnightblue" d="M2382.56,-407C2411.16,-407 2443.53,-407 2468.81,-407"/>
<polygon fill="midnightblue" stroke="midnightblue" points="2382.22,-403.5 2372.22,-407 2382.22,-410.5 2382.22,-403.5"/>
</g>
<!-- Node7 -->
<g id="node7" class="node">
<title>Node7</title>
<g id="a_node7"><a xlink:title=" ">
<polygon fill="none" stroke="black" points="1414,-444.5 1414,-465.5 1476,-465.5 1476,-444.5 1414,-444.5"/>
<text text-anchor="middle" x="1445" y="-451.9" font-family="FreeSans" font-size="12.00">QObject</text>
</a>
</g>
</g>
<!-- Node7&#45;&gt;Node6 -->
<g id="edge6" class="edge">
<title>Node7&#45;&gt;Node6</title>
<path fill="none" stroke="midnightblue" d="M1481.04,-469.02C1501.87,-476.59 1529.01,-485.16 1554,-489 1836.9,-532.48 1925.58,-576.8 2198,-489 2242.09,-474.79 2283.53,-436.5 2301.97,-417.71"/>
<polygon fill="midnightblue" stroke="midnightblue" points="1482.25,-465.74 1471.66,-465.52 1479.8,-472.3 1482.25,-465.74"/>
</g>
<!-- Node8 -->
<g id="node8" class="node">
<title>Node8</title>
<g id="a_node8"><a xlink:href="class_j_k_q_t_base_plotter.html" target="_top" xlink:title="base class for 2D plotter classes (used by the plotter widget JKQTPlotter)">
<polygon fill="none" stroke="black" points="1956,-234.5 1956,-255.5 2065,-255.5 2065,-234.5 1956,-234.5"/>
<text text-anchor="middle" x="2010.5" y="-241.9" font-family="FreeSans" font-size="12.00">JKQTBasePlotter</text>
</a>
</g>
</g>
<!-- Node7&#45;&gt;Node8 -->
<g id="edge8" class="edge">
<title>Node7&#45;&gt;Node8</title>
<path fill="none" stroke="midnightblue" d="M1485.74,-443.92C1543.99,-426.94 1648.55,-393.47 1675,-365 1693.37,-345.23 1672.92,-325.03 1693,-307 1694.23,-305.9 1865.7,-272.72 1955.71,-255.36"/>
<polygon fill="midnightblue" stroke="midnightblue" points="1484.75,-440.56 1476.11,-446.69 1486.69,-447.29 1484.75,-440.56"/>
</g>
<!-- Node19 -->
<g id="node19" class="node">
<title>Node19</title>
<g id="a_node19"><a xlink:href="class_j_k_q_t_math_text.html" target="_top" xlink:title="this class parses a LaTeX string and can then draw the contained text/equation onto a QPainter">
<polygon fill="none" stroke="black" points="1711.5,-406.5 1711.5,-427.5 1809.5,-427.5 1809.5,-406.5 1711.5,-406.5"/>
<text text-anchor="middle" x="1760.5" y="-413.9" font-family="FreeSans" font-size="12.00">JKQTMathText</text>
</a>
</g>
</g>
<!-- Node7&#45;&gt;Node19 -->
<g id="edge24" class="edge">
<title>Node7&#45;&gt;Node19</title>
<path fill="none" stroke="midnightblue" d="M1486.23,-450.12C1543.8,-443.15 1649.53,-430.33 1711.24,-422.85"/>
<polygon fill="midnightblue" stroke="midnightblue" points="1485.57,-446.68 1476.06,-451.36 1486.41,-453.63 1485.57,-446.68"/>
</g>
<!-- Node24 -->
<g id="node24" class="node">
<title>Node24</title>
<g id="a_node24"><a xlink:href="class_j_k_q_t_p_coordinate_axis.html" target="_top" xlink:title="this virtual class is the base for any type of coordinate axis, to be drawn by JKQTBasePlotter.">
<polygon fill="none" stroke="black" points="2244.5,-318.5 2244.5,-339.5 2381.5,-339.5 2381.5,-318.5 2244.5,-318.5"/>
<text text-anchor="middle" x="2313" y="-325.9" font-family="FreeSans" font-size="12.00">JKQTPCoordinateAxis</text>
</a>
</g>
</g>
<!-- Node7&#45;&gt;Node24 -->
<g id="edge32" class="edge">
<title>Node7&#45;&gt;Node24</title>
<path fill="none" stroke="midnightblue" d="M1486.18,-459.34C1587.15,-469.06 1859.01,-487.98 2077,-437 2164.01,-416.65 2257.75,-362.68 2295.18,-339.65"/>
<polygon fill="midnightblue" stroke="midnightblue" points="1486.41,-455.84 1476.11,-458.34 1485.72,-462.81 1486.41,-455.84"/>
</g>
<!-- Node8&#45;&gt;Node6 -->
<g id="edge7" class="edge">
<title>Node8&#45;&gt;Node6</title>
<path fill="none" stroke="#9a32cd" stroke-dasharray="5,2" d="M2028.15,-262.9C2044.08,-279.22 2069.4,-303.12 2095,-319 2154.08,-355.64 2231.05,-382.6 2275.66,-396.46"/>
<polygon fill="#9a32cd" stroke="#9a32cd" points="2030.58,-260.37 2021.13,-255.57 2025.52,-265.22 2030.58,-260.37"/>
<text text-anchor="middle" x="2146.5" y="-369.4" font-family="FreeSans" font-size="12.00"> parent</text>
</g>
<!-- Node8&#45;&gt;Node8 -->
<g id="edge43" class="edge">
<title>Node8&#45;&gt;Node8</title>
<path fill="none" stroke="#9a32cd" stroke-dasharray="5,2" d="M1987.65,-265.43C1989.41,-270.35 1997.03,-274 2010.5,-274 2032.05,-274 2038.62,-264.65 2030.2,-255.71"/>
<polygon fill="#9a32cd" stroke="#9a32cd" points="1991.04,-266.3 1990.8,-255.71 1984.39,-264.14 1991.04,-266.3"/>
<text text-anchor="middle" x="2010.5" y="-290.4" font-family="FreeSans" font-size="12.00"> masterPlotterX</text>
<text text-anchor="middle" x="2010.5" y="-277.4" font-family="FreeSans" font-size="12.00">masterPlotterY</text>
</g>
<!-- Node21 -->
<g id="node21" class="node">
<title>Node21</title>
<g id="a_node21"><a xlink:href="class_j_k_q_t_p_graphs_model.html" target="_top" xlink:title="data model with all plots ina JKQTBasePlotter (+ allows to switch them visible/invisible)">
<polygon fill="none" stroke="black" points="2249,-162.5 2249,-183.5 2377,-183.5 2377,-162.5 2249,-162.5"/>
<text text-anchor="middle" x="2313" y="-169.9" font-family="FreeSans" font-size="12.00">JKQTPGraphsModel</text>
</a>
</g>
</g>
<!-- Node8&#45;&gt;Node21 -->
<g id="edge29" class="edge">
<title>Node8&#45;&gt;Node21</title>
<path fill="none" stroke="#9a32cd" stroke-dasharray="5,2" d="M2042.12,-230.19C2057.65,-223.18 2077,-215.23 2095,-210 2145.83,-195.22 2205.17,-185.61 2248.94,-179.89"/>
<polygon fill="#9a32cd" stroke="#9a32cd" points="2040.6,-227.03 2032.98,-234.39 2043.53,-233.39 2040.6,-227.03"/>
<text text-anchor="middle" x="2146.5" y="-213.4" font-family="FreeSans" font-size="12.00"> m_plotter</text>
</g>
<!-- Node8&#45;&gt;Node24 -->
<g id="edge33" class="edge">
<title>Node8&#45;&gt;Node24</title>
<path fill="none" stroke="#9a32cd" stroke-dasharray="5,2" d="M2044.02,-259.72C2059.28,-266.24 2077.84,-273.63 2095,-279 2139.77,-293 2152.29,-291.48 2198,-302 2221.19,-307.34 2247,-313.43 2268.18,-318.48"/>
<polygon fill="#9a32cd" stroke="#9a32cd" points="2045.08,-256.36 2034.51,-255.59 2042.29,-262.78 2045.08,-256.36"/>
<text text-anchor="middle" x="2146.5" y="-305.4" font-family="FreeSans" font-size="12.00"> parent</text>
</g>
<!-- Node9 -->
<g id="node9" class="node">
<title>Node9</title>
<g id="a_node9"><a xlink:href="class_j_k_q_t_base_plotter_style.html" target="_top" xlink:title="Support Class for JKQTBasePlotter, which summarizes all properties that define the visual styling of ...">
<polygon fill="none" stroke="black" points="1693,-233.5 1693,-254.5 1828,-254.5 1828,-233.5 1693,-233.5"/>
<text text-anchor="middle" x="1760.5" y="-240.9" font-family="FreeSans" font-size="12.00">JKQTBasePlotterStyle</text>
</a>
</g>
</g>
<!-- Node9&#45;&gt;Node8 -->
<g id="edge9" class="edge">
<title>Node9&#45;&gt;Node8</title>
<path fill="none" stroke="#9a32cd" stroke-dasharray="5,2" d="M1838.33,-244.31C1876.46,-244.46 1921.59,-244.65 1955.94,-244.78"/>
<polygon fill="#9a32cd" stroke="#9a32cd" points="1838.3,-240.81 1828.29,-244.27 1838.27,-247.81 1838.3,-240.81"/>
<text text-anchor="middle" x="1886" y="-247.4" font-family="FreeSans" font-size="12.00"> plotterStyle</text>
</g>
<!-- Node10 -->
<g id="node10" class="node">
<title>Node10</title>
<g id="a_node10"><a xlink:href="class_j_k_q_t_p_key_style.html" target="_top" xlink:title="Support Class for JKQTBasePlotter, which summarizes all properties that define the visual styling of ...">
<polygon fill="none" stroke="black" points="1393.5,-279.5 1393.5,-300.5 1496.5,-300.5 1496.5,-279.5 1393.5,-279.5"/>
<text text-anchor="middle" x="1445" y="-286.9" font-family="FreeSans" font-size="12.00">JKQTPKeyStyle</text>
</a>
</g>
</g>
<!-- Node10&#45;&gt;Node9 -->
<g id="edge10" class="edge">
<title>Node10&#45;&gt;Node9</title>
<path fill="none" stroke="#9a32cd" stroke-dasharray="5,2" d="M1506.72,-281.09C1560.09,-273.26 1637.62,-261.88 1692.73,-253.8"/>
<polygon fill="#9a32cd" stroke="#9a32cd" points="1506.1,-277.64 1496.72,-282.56 1507.12,-284.57 1506.1,-277.64"/>
<text text-anchor="middle" x="1614.5" y="-276.4" font-family="FreeSans" font-size="12.00"> keyStyle</text>
</g>
<!-- Node11 -->
<g id="node11" class="node">
<title>Node11</title>
<g id="a_node11"><a xlink:href="class_j_k_q_t_p_coordinate_axis_style.html" target="_top" xlink:title="Support Class for JKQTPCoordinateAxis, which summarizes all properties that define the visual styling...">
<polygon fill="none" stroke="black" points="1060,-224.5 1060,-245.5 1224,-245.5 1224,-224.5 1060,-224.5"/>
<text text-anchor="middle" x="1142" y="-231.9" font-family="FreeSans" font-size="12.00">JKQTPCoordinateAxisStyle</text>
</a>
</g>
</g>
<!-- Node11&#45;&gt;Node9 -->
<g id="edge11" class="edge">
<title>Node11&#45;&gt;Node9</title>
<path fill="none" stroke="#9a32cd" stroke-dasharray="5,2" d="M1234.57,-236.34C1359.91,-238.17 1581.95,-241.41 1692.74,-243.03"/>
<polygon fill="#9a32cd" stroke="#9a32cd" points="1234.28,-232.83 1224.23,-236.19 1234.18,-239.83 1234.28,-232.83"/>
<text text-anchor="middle" x="1445" y="-256.4" font-family="FreeSans" font-size="12.00"> xAxisStyle</text>
<text text-anchor="middle" x="1445" y="-243.4" font-family="FreeSans" font-size="12.00">yAxisStyle</text>
</g>
<!-- Node13 -->
<g id="node13" class="node">
<title>Node13</title>
<g id="a_node13"><a xlink:href="class_j_k_q_t_p_colorbar_coordinate_axis_style.html" target="_top" xlink:title="Support Class for JKQTPCoordinateAxis, which summarizes all properties that define the visual styling...">
<polygon fill="none" stroke="black" points="1354,-164 1354,-198 1536,-198 1536,-164 1354,-164"/>
<text text-anchor="start" x="1362" y="-184.4" font-family="FreeSans" font-size="12.00">JKQTPColorbarCoordinateAxis</text>
<text text-anchor="middle" x="1445" y="-171.4" font-family="FreeSans" font-size="12.00">Style</text>
</a>
</g>
</g>
<!-- Node11&#45;&gt;Node13 -->
<g id="edge14" class="edge">
<title>Node11&#45;&gt;Node13</title>
<path fill="none" stroke="midnightblue" d="M1211.65,-222.68C1253.83,-215.12 1308.35,-205.34 1353.98,-197.15"/>
<polygon fill="midnightblue" stroke="midnightblue" points="1210.98,-219.25 1201.75,-224.46 1212.21,-226.14 1210.98,-219.25"/>
</g>
<!-- Node11&#45;&gt;Node24 -->
<g id="edge34" class="edge">
<title>Node11&#45;&gt;Node24</title>
<path fill="none" stroke="#9a32cd" stroke-dasharray="5,2" d="M1171.44,-250.26C1223.79,-276.87 1339.64,-329 1444,-329 1444,-329 1444,-329 2011.5,-329 2091.45,-329 2183.37,-329 2244.27,-329"/>
<polygon fill="#9a32cd" stroke="#9a32cd" points="1172.91,-247.08 1162.42,-245.6 1169.7,-253.3 1172.91,-247.08"/>
<text text-anchor="middle" x="1760.5" y="-332.4" font-family="FreeSans" font-size="12.00"> axisStyle</text>
</g>
<!-- Node12 -->
<g id="node12" class="node">
<title>Node12</title>
<g id="a_node12"><a xlink:href="class_j_k_q_t_p_grid_style.html" target="_top" xlink:title="Support Class for JKQTPCoordinateAxis, and summarizes all properties that define the visual styling o...">
<polygon fill="none" stroke="black" points="783.5,-224.5 783.5,-245.5 887.5,-245.5 887.5,-224.5 783.5,-224.5"/>
<text text-anchor="middle" x="835.5" y="-231.9" font-family="FreeSans" font-size="12.00">JKQTPGridStyle</text>
</a>
</g>
</g>
<!-- Node12&#45;&gt;Node11 -->
<g id="edge12" class="edge">
<title>Node12&#45;&gt;Node11</title>
<path fill="none" stroke="#9a32cd" stroke-dasharray="5,2" d="M898.06,-235C944.67,-235 1009.11,-235 1059.91,-235"/>
<polygon fill="#9a32cd" stroke="#9a32cd" points="897.81,-231.5 887.81,-235 897.81,-238.5 897.81,-231.5"/>
<text text-anchor="middle" x="986.5" y="-251.4" font-family="FreeSans" font-size="12.00"> majorGridStyle</text>
<text text-anchor="middle" x="986.5" y="-238.4" font-family="FreeSans" font-size="12.00">minorGridStyle</text>
</g>
<!-- Node13&#45;&gt;Node9 -->
<g id="edge13" class="edge">
<title>Node13&#45;&gt;Node9</title>
<path fill="none" stroke="#9a32cd" stroke-dasharray="5,2" d="M1546.25,-177.17C1586.95,-178.16 1633.96,-182.61 1675,-195 1702.11,-203.19 1729.81,-221.54 1745.79,-233.32"/>
<polygon fill="#9a32cd" stroke="#9a32cd" points="1546.1,-173.66 1536.04,-176.99 1545.98,-180.66 1546.1,-173.66"/>
<text text-anchor="middle" x="1614.5" y="-211.4" font-family="FreeSans" font-size="12.00"> rightColorbarAxisStyle</text>
<text text-anchor="middle" x="1614.5" y="-198.4" font-family="FreeSans" font-size="12.00">topColorbarAxisStyle</text>
</g>
<!-- Node14 -->
<g id="node14" class="node">
<title>Node14</title>
<g id="a_node14"><a xlink:href="class_j_k_q_t_graphs_base_style.html" target="_top" xlink:title="Support Class for JKQTBasePlotter, which summarizes all properties that define the visual styling of ...">
<polygon fill="none" stroke="black" points="1374.5,-368.5 1374.5,-389.5 1515.5,-389.5 1515.5,-368.5 1374.5,-368.5"/>
<text text-anchor="middle" x="1445" y="-375.9" font-family="FreeSans" font-size="12.00">JKQTGraphsBaseStyle</text>
</a>
</g>
</g>
<!-- Node14&#45;&gt;Node9 -->
<g id="edge15" class="edge">
<title>Node14&#45;&gt;Node9</title>
<path fill="none" stroke="#9a32cd" stroke-dasharray="5,2" d="M1501.11,-365.81C1549.95,-352.29 1621.6,-327.83 1675,-290 1685.03,-282.89 1682.93,-276.05 1693,-269 1701.59,-262.99 1711.8,-258.21 1721.62,-254.51"/>
<polygon fill="#9a32cd" stroke="#9a32cd" points="1500.09,-362.46 1491.35,-368.45 1501.92,-369.21 1500.09,-362.46"/>
<text text-anchor="middle" x="1614.5" y="-351.4" font-family="FreeSans" font-size="12.00"> graphsStyle</text>
</g>
<!-- Node15 -->
<g id="node15" class="node">
<title>Node15</title>
<g id="a_node15"><a xlink:href="class_j_k_q_t_graphs_specific_style_properties.html" target="_top" xlink:title="Support Class for JKQTBasePlotter, which summarizes all properties that define the visual styling of ...">
<polygon fill="none" stroke="black" points="370,-373.5 370,-394.5 579,-394.5 579,-373.5 370,-373.5"/>
<text text-anchor="middle" x="474.5" y="-380.9" font-family="FreeSans" font-size="12.00">JKQTGraphsSpecificStyleProperties</text>
</a>
</g>
</g>
<!-- Node15&#45;&gt;Node14 -->
<g id="edge16" class="edge">
<title>Node15&#45;&gt;Node14</title>
<path fill="none" stroke="#9a32cd" stroke-dasharray="5,2" d="M574.2,-395.62C581.91,-396.46 589.58,-397.26 597,-398 664.91,-404.8 681.82,-408.11 750,-411 964.1,-420.08 1017.91,-408.28 1232,-399 1278.23,-397 1289.92,-398.3 1336,-394 1348.63,-392.82 1362.04,-391.23 1374.97,-389.53"/>
<polygon fill="#9a32cd" stroke="#9a32cd" points="574.38,-392.12 564.06,-394.52 573.62,-399.08 574.38,-392.12"/>
<text text-anchor="middle" x="986.5" y="-468.4" font-family="FreeSans" font-size="12.00"> barchartStyle</text>
<text text-anchor="middle" x="986.5" y="-455.4" font-family="FreeSans" font-size="12.00">boxplotStyle</text>
<text text-anchor="middle" x="986.5" y="-442.4" font-family="FreeSans" font-size="12.00">defaultGraphStyle</text>
<text text-anchor="middle" x="986.5" y="-429.4" font-family="FreeSans" font-size="12.00">filledStyle</text>
<text text-anchor="middle" x="986.5" y="-416.4" font-family="FreeSans" font-size="12.00">impulseStyle</text>
</g>
<!-- Node17 -->
<g id="node17" class="node">
<title>Node17</title>
<g id="a_node17"><a xlink:href="class_j_k_q_t_geometric_specific_style_properties.html" target="_top" xlink:title="Support Class for JKQTBasePlotter, which summarizes all properties that define the visual styling of ...">
<polygon fill="none" stroke="black" points="750,-367 750,-401 921,-401 921,-367 750,-367"/>
<text text-anchor="start" x="758" y="-387.4" font-family="FreeSans" font-size="12.00">JKQTGeometricSpecificStyle</text>
<text text-anchor="middle" x="835.5" y="-374.4" font-family="FreeSans" font-size="12.00">Properties</text>
</a>
</g>
</g>
<!-- Node15&#45;&gt;Node17 -->
<g id="edge19" class="edge">
<title>Node15&#45;&gt;Node17</title>
<path fill="none" stroke="midnightblue" d="M589.62,-384C641.61,-384 702.08,-384 749.92,-384"/>
<polygon fill="midnightblue" stroke="midnightblue" points="589.34,-380.5 579.34,-384 589.34,-387.5 589.34,-380.5"/>
</g>
<!-- Node16 -->
<g id="node16" class="node">
<title>Node16</title>
<g id="a_node16"><a xlink:href="struct_j_k_q_t_p_color_derivation_mode.html" target="_top" xlink:title="Specifies how a fill&#45;color is derived from a given color.">
<polygon fill="none" stroke="black" points="0,-342.5 0,-363.5 168,-363.5 168,-342.5 0,-342.5"/>
<text text-anchor="middle" x="84" y="-349.9" font-family="FreeSans" font-size="12.00">JKQTPColorDerivationMode</text>
</a>
</g>
</g>
<!-- Node16&#45;&gt;Node15 -->
<g id="edge17" class="edge">
<title>Node16&#45;&gt;Node15</title>
<path fill="none" stroke="#9a32cd" stroke-dasharray="5,2" d="M178.55,-360.47C236.27,-365.07 310.37,-370.98 369.86,-375.73"/>
<polygon fill="#9a32cd" stroke="#9a32cd" points="178.59,-356.96 168.34,-359.65 178.03,-363.93 178.59,-356.96"/>
<text text-anchor="middle" x="269" y="-428.4" font-family="FreeSans" font-size="12.00"> errorColorDerivationMode</text>
<text text-anchor="middle" x="269" y="-415.4" font-family="FreeSans" font-size="12.00">errorFillColorDerivationMode</text>
<text text-anchor="middle" x="269" y="-402.4" font-family="FreeSans" font-size="12.00">fillColorDerivationMode</text>
<text text-anchor="middle" x="269" y="-389.4" font-family="FreeSans" font-size="12.00">graphColorDerivationMode</text>
<text text-anchor="middle" x="269" y="-376.4" font-family="FreeSans" font-size="12.00">symbolFillColorDerivationMode</text>
</g>
<!-- Node18 -->
<g id="node18" class="node">
<title>Node18</title>
<g id="a_node18"><a xlink:href="class_j_k_q_t_annotations_specific_style_properties.html" target="_top" xlink:title="Support Class for JKQTBasePlotter, which summarizes all properties that define the visual styling of ...">
<polygon fill="none" stroke="black" points="1052,-319 1052,-353 1232,-353 1232,-319 1052,-319"/>
<text text-anchor="start" x="1060" y="-339.4" font-family="FreeSans" font-size="12.00">JKQTAnnotationsSpecificStyle</text>
<text text-anchor="middle" x="1142" y="-326.4" font-family="FreeSans" font-size="12.00">Properties</text>
</a>
</g>
</g>
<!-- Node16&#45;&gt;Node18 -->
<g id="edge22" class="edge">
<title>Node16&#45;&gt;Node18</title>
<path fill="none" stroke="#9a32cd" stroke-dasharray="5,2" d="M178.58,-351.49C380.4,-348.24 854.29,-340.62 1051.96,-337.43"/>
<polygon fill="#9a32cd" stroke="#9a32cd" points="178.25,-348 168.3,-351.66 178.36,-355 178.25,-348"/>
<text text-anchor="middle" x="664.5" y="-347.4" font-family="FreeSans" font-size="12.00"> textColorDerivationMode</text>
</g>
<!-- Node17&#45;&gt;Node14 -->
<g id="edge18" class="edge">
<title>Node17&#45;&gt;Node14</title>
<path fill="none" stroke="#9a32cd" stroke-dasharray="5,2" d="M931.44,-383.22C1054.3,-382.21 1265.48,-380.47 1374.45,-379.57"/>
<polygon fill="#9a32cd" stroke="#9a32cd" points="931.26,-379.72 921.29,-383.3 931.32,-386.72 931.26,-379.72"/>
<text text-anchor="middle" x="1142" y="-385.4" font-family="FreeSans" font-size="12.00"> geometricStyle</text>
</g>
<!-- Node17&#45;&gt;Node18 -->
<g id="edge21" class="edge">
<title>Node17&#45;&gt;Node18</title>
<path fill="none" stroke="midnightblue" d="M931.48,-369.03C969.91,-362.97 1014.04,-356.01 1051.85,-350.05"/>
<polygon fill="midnightblue" stroke="midnightblue" points="930.65,-365.61 921.32,-370.63 931.74,-372.53 930.65,-365.61"/>
</g>
<!-- Node18&#45;&gt;Node14 -->
<g id="edge20" class="edge">
<title>Node18&#45;&gt;Node14</title>
<path fill="none" stroke="#9a32cd" stroke-dasharray="5,2" d="M1242.45,-349.76C1272.52,-353.96 1305.61,-358.62 1336,-363 1348.38,-364.78 1361.56,-366.71 1374.3,-368.59"/>
<polygon fill="#9a32cd" stroke="#9a32cd" points="1242.77,-346.27 1232.38,-348.35 1241.8,-353.2 1242.77,-346.27"/>
<text text-anchor="middle" x="1293" y="-366.4" font-family="FreeSans" font-size="12.00"> annotationStyle</text>
</g>
<!-- Node19&#45;&gt;Node8 -->
<g id="edge23" class="edge">
<title>Node19&#45;&gt;Node8</title>
<path fill="none" stroke="#9a32cd" stroke-dasharray="5,2" d="M1784.95,-400.74C1835.25,-365.85 1952.34,-284.65 1994.24,-255.58"/>
<polygon fill="#9a32cd" stroke="#9a32cd" points="1782.86,-397.92 1776.64,-406.5 1786.85,-403.68 1782.86,-397.92"/>
<text text-anchor="middle" x="1886" y="-359.4" font-family="FreeSans" font-size="12.00"> mathText</text>
</g>
<!-- Node20 -->
<g id="node20" class="node">
<title>Node20</title>
<g id="a_node20"><a xlink:href="class_j_k_q_t_math_text_node.html" target="_top" xlink:title="subclass representing one node in the syntax tree">
<polygon fill="none" stroke="black" points="1946.5,-406.5 1946.5,-427.5 2074.5,-427.5 2074.5,-406.5 1946.5,-406.5"/>
<text text-anchor="middle" x="2010.5" y="-413.9" font-family="FreeSans" font-size="12.00">JKQTMathTextNode</text>
</a>
</g>
</g>
<!-- Node19&#45;&gt;Node20 -->
<g id="edge26" class="edge">
<title>Node19&#45;&gt;Node20</title>
<path fill="none" stroke="#9a32cd" stroke-dasharray="5,2" d="M1819.86,-423.25C1828.61,-423.98 1837.54,-424.6 1846,-425 1881.52,-426.68 1890.48,-426.7 1926,-425 1932.55,-424.69 1939.37,-424.24 1946.17,-423.71"/>
<polygon fill="#9a32cd" stroke="#9a32cd" points="1819.97,-419.75 1809.7,-422.36 1819.36,-426.72 1819.97,-419.75"/>
<text text-anchor="middle" x="1886" y="-429.4" font-family="FreeSans" font-size="12.00"> parent</text>
</g>
<!-- Node20&#45;&gt;Node19 -->
<g id="edge25" class="edge">
<title>Node20&#45;&gt;Node19</title>
<path fill="none" stroke="#9a32cd" stroke-dasharray="5,2" d="M1959.22,-404.36C1948.34,-402.13 1936.84,-400.15 1926,-399 1890.64,-395.23 1881.36,-395.28 1846,-399 1831.68,-400.51 1816.22,-403.42 1802.48,-406.46"/>
<polygon fill="#9a32cd" stroke="#9a32cd" points="1958.5,-407.78 1969.01,-406.46 1959.97,-400.94 1958.5,-407.78"/>
<text text-anchor="middle" x="1886" y="-415.4" font-family="FreeSans" font-size="12.00"> parsedNode</text>
<text text-anchor="middle" x="1886" y="-402.4" font-family="FreeSans" font-size="12.00">unparsedNode</text>
</g>
<!-- Node21&#45;&gt;Node8 -->
<g id="edge27" class="edge">
<title>Node21&#45;&gt;Node8</title>
<path fill="none" stroke="#9a32cd" stroke-dasharray="5,2" d="M2242.07,-161.39C2198.44,-157.01 2141.87,-156.64 2095,-174 2061.99,-186.22 2033.08,-217.86 2019.59,-234.47"/>
<polygon fill="#9a32cd" stroke="#9a32cd" points="2241.69,-164.87 2252.02,-162.48 2242.46,-157.91 2241.69,-164.87"/>
<text text-anchor="middle" x="2146.5" y="-177.4" font-family="FreeSans" font-size="12.00"> m_plotsModel</text>
</g>
<!-- Node22 -->
<g id="node22" class="node">
<title>Node22</title>
<g id="a_node22"><a xlink:title=" ">
<polygon fill="none" stroke="black" points="1944,-129.5 1944,-150.5 2077,-150.5 2077,-129.5 1944,-129.5"/>
<text text-anchor="middle" x="2010.5" y="-136.9" font-family="FreeSans" font-size="12.00">QAbstractTableModel</text>
</a>
</g>
</g>
<!-- Node22&#45;&gt;Node21 -->
<g id="edge28" class="edge">
<title>Node22&#45;&gt;Node21</title>
<path fill="none" stroke="midnightblue" d="M2087.53,-144.15C2121.42,-146.4 2161.77,-149.63 2198,-154 2216.63,-156.25 2236.85,-159.39 2255.03,-162.47"/>
<polygon fill="midnightblue" stroke="midnightblue" points="2087.44,-140.64 2077.24,-143.48 2086.99,-147.62 2087.44,-140.64"/>
</g>
<!-- Node23 -->
<g id="node23" class="node">
<title>Node23</title>
<g id="a_node23"><a xlink:href="class_j_k_q_t_p_horizontal_axis.html" target="_top" xlink:title="implements a horizontal axis, based on JKQTPCoordinateAxis (for most of documentation: see JKQTPCoord...">
<polygon fill="none" stroke="black" points="2447,-227.5 2447,-248.5 2580,-248.5 2580,-227.5 2447,-227.5"/>
<text text-anchor="middle" x="2513.5" y="-234.9" font-family="FreeSans" font-size="12.00">JKQTPHorizontalAxis</text>
</a>
</g>
</g>
<!-- Node23&#45;&gt;Node8 -->
<g id="edge30" class="edge">
<title>Node23&#45;&gt;Node8</title>
<path fill="none" stroke="#9a32cd" stroke-dasharray="5,2" d="M2436.38,-239.06C2333.98,-240.49 2154.44,-243 2065.12,-244.25"/>
<polygon fill="#9a32cd" stroke="#9a32cd" points="2436.7,-242.56 2446.65,-238.92 2436.6,-235.56 2436.7,-242.56"/>
<text text-anchor="middle" x="2313" y="-245.4" font-family="FreeSans" font-size="12.00"> xAxis</text>
</g>
<!-- Node32 -->
<g id="node32" class="node">
<title>Node32</title>
<g id="a_node32"><a xlink:href="class_j_k_q_t_p_horizontal_independent_axis.html" target="_top" xlink:title="implements a position&#45;indipendent horizontal axis, based on JKQTPCoordinateAxis (for most of document...">
<polygon fill="none" stroke="black" points="2751,-227.5 2751,-248.5 2951,-248.5 2951,-227.5 2751,-227.5"/>
<text text-anchor="middle" x="2851" y="-234.9" font-family="FreeSans" font-size="12.00">JKQTPHorizontalIndependentAxis</text>
</a>
</g>
</g>
<!-- Node23&#45;&gt;Node32 -->
<g id="edge47" class="edge">
<title>Node23&#45;&gt;Node32</title>
<path fill="none" stroke="midnightblue" d="M2590.59,-238C2638.04,-238 2699.61,-238 2750.86,-238"/>
<polygon fill="midnightblue" stroke="midnightblue" points="2590.38,-234.5 2580.38,-238 2590.38,-241.5 2590.38,-234.5"/>
</g>
<!-- Node24&#45;&gt;Node23 -->
<g id="edge31" class="edge">
<title>Node24&#45;&gt;Node23</title>
<path fill="none" stroke="midnightblue" d="M2364.53,-315.63C2379.44,-311.04 2395.61,-305.42 2410,-299 2442.52,-284.48 2477.61,-261.94 2497.14,-248.7"/>
<polygon fill="midnightblue" stroke="midnightblue" points="2363.52,-312.28 2354.94,-318.5 2365.53,-318.99 2363.52,-312.28"/>
</g>
<!-- Node25 -->
<g id="node25" class="node">
<title>Node25</title>
<g id="a_node25"><a xlink:href="class_j_k_q_t_p_vertical_axis.html" target="_top" xlink:title="implements a vertical axis, based on JKQTPCoordinateAxis (for most of documentation: see JKQTPCoordin...">
<polygon fill="none" stroke="black" points="2454.5,-315.5 2454.5,-336.5 2572.5,-336.5 2572.5,-315.5 2454.5,-315.5"/>
<text text-anchor="middle" x="2513.5" y="-322.9" font-family="FreeSans" font-size="12.00">JKQTPVerticalAxis</text>
</a>
</g>
</g>
<!-- Node24&#45;&gt;Node25 -->
<g id="edge36" class="edge">
<title>Node24&#45;&gt;Node25</title>
<path fill="none" stroke="midnightblue" d="M2391.85,-327.82C2412.65,-327.51 2434.77,-327.17 2454.32,-326.88"/>
<polygon fill="midnightblue" stroke="midnightblue" points="2391.7,-324.33 2381.76,-327.98 2391.81,-331.32 2391.7,-324.33"/>
</g>
<!-- Node25&#45;&gt;Node8 -->
<g id="edge35" class="edge">
<title>Node25&#45;&gt;Node8</title>
<path fill="none" stroke="#9a32cd" stroke-dasharray="5,2" d="M2471.35,-312.35C2452.78,-306.6 2430.46,-300.28 2410,-296 2345.31,-282.48 2158.04,-261.03 2065.1,-250.8"/>
<polygon fill="#9a32cd" stroke="#9a32cd" points="2470.38,-315.71 2480.97,-315.37 2472.48,-309.03 2470.38,-315.71"/>
<text text-anchor="middle" x="2313" y="-299.4" font-family="FreeSans" font-size="12.00"> yAxis</text>
</g>
<!-- Node31 -->
<g id="node31" class="node">
<title>Node31</title>
<g id="a_node31"><a xlink:href="class_j_k_q_t_p_vertical_independent_axis.html" target="_top" xlink:title="implements a position&#45;indipendent vertical axis, based on JKQTPCoordinateAxis (for most of documentat...">
<polygon fill="none" stroke="black" points="2758.5,-315.5 2758.5,-336.5 2943.5,-336.5 2943.5,-315.5 2758.5,-315.5"/>
<text text-anchor="middle" x="2851" y="-322.9" font-family="FreeSans" font-size="12.00">JKQTPVerticalIndependentAxis</text>
</a>
</g>
</g>
<!-- Node25&#45;&gt;Node31 -->
<g id="edge45" class="edge">
<title>Node25&#45;&gt;Node31</title>
<path fill="none" stroke="midnightblue" d="M2582.73,-326C2633.3,-326 2702.78,-326 2758.22,-326"/>
<polygon fill="midnightblue" stroke="midnightblue" points="2582.56,-322.5 2572.56,-326 2582.56,-329.5 2582.56,-322.5"/>
</g>
<!-- Node26 -->
<g id="node26" class="node">
<title>Node26</title>
<g id="a_node26"><a xlink:href="class_j_k_q_t_p_datastore.html" target="_top" xlink:title="This class manages data columns (with entries of type double ), used by JKQTPlotter/JKQTBasePlotter t...">
<polygon fill="none" stroke="black" points="1707,-89.5 1707,-110.5 1814,-110.5 1814,-89.5 1707,-89.5"/>
<text text-anchor="middle" x="1760.5" y="-96.9" font-family="FreeSans" font-size="12.00">JKQTPDatastore</text>
</a>
</g>
</g>
<!-- Node26&#45;&gt;Node8 -->
<g id="edge37" class="edge">
<title>Node26&#45;&gt;Node8</title>
<path fill="none" stroke="#9a32cd" stroke-dasharray="5,2" d="M1788.53,-115.8C1839.38,-145.53 1948.03,-209.06 1991.24,-234.32"/>
<polygon fill="#9a32cd" stroke="#9a32cd" points="1790.14,-112.69 1779.74,-110.66 1786.6,-118.73 1790.14,-112.69"/>
<text text-anchor="middle" x="1886" y="-196.4" font-family="FreeSans" font-size="12.00"> datastore</text>
</g>
<!-- Node28 -->
<g id="node28" class="node">
<title>Node28</title>
<g id="a_node28"><a xlink:href="class_j_k_q_t_p_column.html" target="_top" xlink:title="internally stores information about one data column. See JKQTPDatastore for more information.">
<polygon fill="none" stroke="black" points="1962.5,-89.5 1962.5,-110.5 2058.5,-110.5 2058.5,-89.5 1962.5,-89.5"/>
<text text-anchor="middle" x="2010.5" y="-96.9" font-family="FreeSans" font-size="12.00">JKQTPColumn</text>
</a>
</g>
</g>
<!-- Node26&#45;&gt;Node28 -->
<g id="edge40" class="edge">
<title>Node26&#45;&gt;Node28</title>
<path fill="none" stroke="#9a32cd" stroke-dasharray="5,2" d="M1824.16,-100C1867.13,-100 1923.25,-100 1962.42,-100"/>
<polygon fill="#9a32cd" stroke="#9a32cd" points="1824.09,-96.5 1814.09,-100 1824.09,-103.5 1824.09,-96.5"/>
<text text-anchor="middle" x="1886" y="-103.4" font-family="FreeSans" font-size="12.00"> datastore</text>
</g>
<!-- Node27 -->
<g id="node27" class="node">
<title>Node27</title>
<g id="a_node27"><a xlink:title=" ">
<polygon fill="none" stroke="black" points="2216,-47.5 2216,-68.5 2410,-68.5 2410,-47.5 2216,-47.5"/>
<text text-anchor="middle" x="2313" y="-54.9" font-family="FreeSans" font-size="12.00">std::unique_ptr&lt; JKQTPColumn &gt;</text>
</a>
</g>
</g>
<!-- Node27&#45;&gt;Node26 -->
<g id="edge38" class="edge">
<title>Node27&#45;&gt;Node26</title>
<path fill="none" stroke="#9a32cd" stroke-dasharray="5,2" d="M2205.46,-56.27C2131.83,-56.13 2031.74,-58.05 1944,-67 1897.55,-71.74 1845.17,-81.7 1808.48,-89.44"/>
<polygon fill="#9a32cd" stroke="#9a32cd" points="2205.65,-59.77 2215.66,-56.3 2205.68,-52.77 2205.65,-59.77"/>
<text text-anchor="middle" x="2010.5" y="-70.4" font-family="FreeSans" font-size="12.00"> m_invalidColumn</text>
</g>
<!-- Node28&#45;&gt;Node27 -->
<g id="edge39" class="edge">
<title>Node28&#45;&gt;Node27</title>
<path fill="none" stroke="#9a32cd" stroke-dasharray="5,2" d="M2068.92,-91.97C2116.55,-85.32 2184.63,-75.8 2236.63,-68.53"/>
<polygon fill="#9a32cd" stroke="#9a32cd" points="2068.2,-88.54 2058.78,-93.39 2069.17,-95.47 2068.2,-88.54"/>
<text text-anchor="middle" x="2146.5" y="-90.4" font-family="FreeSans" font-size="12.00"> ptr</text>
</g>
<!-- Node29 -->
<g id="node29" class="node">
<title>Node29</title>
<g id="a_node29"><a xlink:title=" ">
<polygon fill="none" stroke="black" points="1949.5,-0.5 1949.5,-21.5 2071.5,-21.5 2071.5,-0.5 1949.5,-0.5"/>
<text text-anchor="middle" x="2010.5" y="-7.9" font-family="FreeSans" font-size="12.00">std::unique_ptr&lt; T &gt;</text>
</a>
</g>
</g>
<!-- Node29&#45;&gt;Node27 -->
<g id="edge41" class="edge">
<title>Node29&#45;&gt;Node27</title>
<path fill="none" stroke="orange" stroke-dasharray="5,2" d="M2081.95,-16.45C2116.98,-19.69 2159.88,-24.47 2198,-31 2223.16,-35.31 2251.05,-41.88 2272.94,-47.47"/>
<polygon fill="orange" stroke="orange" points="2082.09,-12.95 2071.82,-15.53 2081.46,-19.92 2082.09,-12.95"/>
<text text-anchor="middle" x="2146.5" y="-34.4" font-family="FreeSans" font-size="12.00"> &lt; JKQTPColumn &gt;</text>
</g>
<!-- Node30 -->
<g id="node30" class="node">
<title>Node30</title>
<g id="a_node30"><a xlink:title=" ">
<polygon fill="none" stroke="black" points="1746,-0.5 1746,-21.5 1775,-21.5 1775,-0.5 1746,-0.5"/>
<text text-anchor="middle" x="1760.5" y="-7.9" font-family="FreeSans" font-size="12.00">T</text>
</a>
</g>
</g>
<!-- Node30&#45;&gt;Node29 -->
<g id="edge42" class="edge">
<title>Node30&#45;&gt;Node29</title>
<path fill="none" stroke="#9a32cd" stroke-dasharray="5,2" d="M1785.62,-11C1823.18,-11 1896.78,-11 1949.34,-11"/>
<polygon fill="#9a32cd" stroke="#9a32cd" points="1785.19,-7.5 1775.19,-11 1785.19,-14.5 1785.19,-7.5"/>
<text text-anchor="middle" x="1886" y="-14.4" font-family="FreeSans" font-size="12.00"> ptr</text>
</g>
<!-- Node31&#45;&gt;Node2 -->
<g id="edge44" class="edge">
<title>Node31&#45;&gt;Node2</title>
<path fill="none" stroke="#9a32cd" stroke-dasharray="5,2" d="M2953.76,-326C3015.88,-326 3093.68,-326 3148.83,-326"/>
<polygon fill="#9a32cd" stroke="#9a32cd" points="2953.54,-322.5 2943.54,-326 2953.54,-329.5 2953.54,-322.5"/>
<text text-anchor="middle" x="3040.5" y="-368.4" font-family="FreeSans" font-size="12.00"> colorBarRightAxis</text>
<text text-anchor="middle" x="3040.5" y="-355.4" font-family="FreeSans" font-size="12.00">colorBarRightAxisB</text>
<text text-anchor="middle" x="3040.5" y="-342.4" font-family="FreeSans" font-size="12.00">colorBarRightAxisG</text>
<text text-anchor="middle" x="3040.5" y="-329.4" font-family="FreeSans" font-size="12.00">modifierColorBarTopAxis</text>
</g>
<!-- Node32&#45;&gt;Node2 -->
<g id="edge46" class="edge">
<title>Node32&#45;&gt;Node2</title>
<path fill="none" stroke="#9a32cd" stroke-dasharray="5,2" d="M2961.25,-242.65C3008.44,-246.89 3063.78,-254.91 3112,-270 3146.29,-280.73 3182.58,-302.32 3202.7,-315.33"/>
<polygon fill="#9a32cd" stroke="#9a32cd" points="2961.26,-239.14 2951,-241.77 2960.67,-246.11 2961.26,-239.14"/>
<text text-anchor="middle" x="3040.5" y="-312.4" font-family="FreeSans" font-size="12.00"> colorBarTopAxis</text>
<text text-anchor="middle" x="3040.5" y="-299.4" font-family="FreeSans" font-size="12.00">colorBarTopAxisB</text>
<text text-anchor="middle" x="3040.5" y="-286.4" font-family="FreeSans" font-size="12.00">colorBarTopAxisG</text>
<text text-anchor="middle" x="3040.5" y="-273.4" font-family="FreeSans" font-size="12.00">modifierColorBarRightAxis</text>
</g>
</g>
</svg>
