<?xml version="1.0" encoding="UTF-8" standalone="no"?>
<!DOCTYPE svg PUBLIC "-//W3C//DTD SVG 1.1//EN"
 "http://www.w3.org/Graphics/SVG/1.1/DTD/svg11.dtd">
<!-- Generated by graphviz version 2.43.0 (0)
 -->
<!-- Title: JKQTPXYLineErrorGraph Pages: 1 -->
<!--zoomable 710 -->
<svg id="main" version="1.1" xmlns="http://www.w3.org/2000/svg" xmlns:xlink="http://www.w3.org/1999/xlink" xml:space="preserve" onload="init(evt)">
<style type="text/css"><![CDATA[
.edge:hover path { stroke: red; }
.edge:hover polygon { stroke: red; fill: red; }
]]></style>
<script type="text/javascript"><![CDATA[
var edges = document.getElementsByTagName('g');
if (edges && edges.length) {
  for (var i=0;i<edges.length;i++) {
    if (edges[i].id.substr(0,4)=='edge') {
      edges[i].setAttribute('class','edge');
    }
  }
}
]]></script>
        <defs>
                <circle id="rim" cx="0" cy="0" r="7"/>
                <circle id="rim2" cx="0" cy="0" r="3.5"/>
                <g id="zoomPlus">
                        <use xlink:href="#rim" fill="#404040">
                                <set attributeName="fill" to="#808080" begin="zoomplus.mouseover" end="zoomplus.mouseout"/>
                        </use>
                        <path d="M-4,0h8M0,-4v8" fill="none" stroke="white" stroke-width="1.5" pointer-events="none"/>
                </g>
                <g id="zoomMin">
                        <use xlink:href="#rim" fill="#404040">
                                <set attributeName="fill" to="#808080" begin="zoomminus.mouseover" end="zoomminus.mouseout"/>
                        </use>
                        <path d="M-4,0h8" fill="none" stroke="white" stroke-width="1.5" pointer-events="none"/>
                </g>
                <g id="dirArrow">
                        <path fill="none" stroke="white" stroke-width="1.5" d="M0,-3.0v7 M-2.5,-0.5L0,-3.0L2.5,-0.5"/>
                </g>
               <g id="resetDef">
                       <use xlink:href="#rim2" fill="#404040">
                               <set attributeName="fill" to="#808080" begin="reset.mouseover" end="reset.mouseout"/>
                       </use>
               </g>
        </defs>

<script type="text/javascript">
var viewWidth = 3317;
var viewHeight = 710;
var sectionId = 'dynsection-1';
</script>
<script xlink:href="svgpan.js"/>
<svg id="graph" class="graph">
<g id="viewport">
<title>JKQTPXYLineErrorGraph</title>
<!-- Node1 -->
<g id="node1" class="node">
<title>Node1</title>
<g id="a_node1"><a xlink:title="This implements xy line plots with x and y error indicators.">
<polygon fill="#bfbfbf" stroke="black" points="3150,-542.53 3150,-563.53 3309,-563.53 3309,-542.53 3150,-542.53"/>
<text text-anchor="middle" x="3229.5" y="-549.93" font-family="Helvetica,sans-Serif" font-size="12.00">JKQTPXYLineErrorGraph</text>
</a>
</g>
</g>
<!-- Node2 -->
<g id="node2" class="node">
<title>Node2</title>
<g id="a_node2"><a xlink:href="class_j_k_q_t_p_x_y_line_graph.html" target="_top" xlink:title="This implements xy line plots. This also alows to draw symbols at the data points.">
<polygon fill="none" stroke="black" points="2978,-593.53 2978,-614.53 3108,-614.53 3108,-593.53 2978,-593.53"/>
<text text-anchor="middle" x="3043" y="-600.93" font-family="Helvetica,sans-Serif" font-size="12.00">JKQTPXYLineGraph</text>
</a>
</g>
</g>
<!-- Node2&#45;&gt;Node1 -->
<g id="edge1" class="edge">
<title>Node2&#45;&gt;Node1</title>
<path fill="none" stroke="midnightblue" d="M3092.25,-590.69C3122.85,-582.23 3161.88,-571.44 3190.32,-563.58"/>
<polygon fill="midnightblue" stroke="midnightblue" points="3090.93,-587.42 3082.23,-593.46 3092.8,-594.17 3090.93,-587.42"/>
</g>
<!-- Node3 -->
<g id="node3" class="node">
<title>Node3</title>
<g id="a_node3"><a xlink:href="class_j_k_q_t_p_x_y_graph.html" target="_top" xlink:title="This virtual JKQTPGraph descendent may be used as base for all graphs that use at least two columns t...">
<polygon fill="none" stroke="black" points="2785,-546.53 2785,-567.53 2890,-567.53 2890,-546.53 2785,-546.53"/>
<text text-anchor="middle" x="2837.5" y="-553.93" font-family="Helvetica,sans-Serif" font-size="12.00">JKQTPXYGraph</text>
</a>
</g>
</g>
<!-- Node3&#45;&gt;Node2 -->
<g id="edge2" class="edge">
<title>Node3&#45;&gt;Node2</title>
<path fill="none" stroke="midnightblue" d="M2898.47,-569.67C2910.89,-572.36 2923.88,-575.24 2936,-578.03 2957.23,-582.92 2980.78,-588.66 3000.28,-593.51"/>
<polygon fill="midnightblue" stroke="midnightblue" points="2899.18,-566.24 2888.66,-567.55 2897.7,-573.08 2899.18,-566.24"/>
</g>
<!-- Node4 -->
<g id="node4" class="node">
<title>Node4</title>
<g id="a_node4"><a xlink:href="class_j_k_q_t_p_graph.html" target="_top" xlink:title="this virtual base class of the (data&#45;column based) graphs, which are part of a JKQTPlotter plot and w...">
<polygon fill="none" stroke="black" points="2589,-546.53 2589,-567.53 2678,-567.53 2678,-546.53 2589,-546.53"/>
<text text-anchor="middle" x="2633.5" y="-553.93" font-family="Helvetica,sans-Serif" font-size="12.00">JKQTPGraph</text>
</a>
</g>
</g>
<!-- Node4&#45;&gt;Node3 -->
<g id="edge3" class="edge">
<title>Node4&#45;&gt;Node3</title>
<path fill="none" stroke="midnightblue" d="M2688.59,-557.03C2718.47,-557.03 2755.41,-557.03 2784.89,-557.03"/>
<polygon fill="midnightblue" stroke="midnightblue" points="2688.33,-553.53 2678.33,-557.03 2688.33,-560.53 2688.33,-553.53"/>
</g>
<!-- Node5 -->
<g id="node5" class="node">
<title>Node5</title>
<g id="a_node5"><a xlink:href="class_j_k_q_t_p_plot_element.html" target="_top" xlink:title="this virtual base class of every element, which is part of a JKQTPlotter plot and may appear in its k...">
<polygon fill="none" stroke="black" points="2358,-546.53 2358,-567.53 2483,-567.53 2483,-546.53 2358,-546.53"/>
<text text-anchor="middle" x="2420.5" y="-553.93" font-family="Helvetica,sans-Serif" font-size="12.00">JKQTPPlotElement</text>
</a>
</g>
</g>
<!-- Node5&#45;&gt;Node4 -->
<g id="edge4" class="edge">
<title>Node5&#45;&gt;Node4</title>
<path fill="none" stroke="midnightblue" d="M2493.23,-557.03C2525,-557.03 2561.34,-557.03 2588.92,-557.03"/>
<polygon fill="midnightblue" stroke="midnightblue" points="2493.1,-553.53 2483.1,-557.03 2493.1,-560.53 2493.1,-553.53"/>
</g>
<!-- Node6 -->
<g id="node6" class="node">
<title>Node6</title>
<g id="a_node6"><a xlink:title=" ">
<polygon fill="none" stroke="black" points="1442.5,-390.53 1442.5,-411.53 1507.5,-411.53 1507.5,-390.53 1442.5,-390.53"/>
<text text-anchor="middle" x="1475" y="-397.93" font-family="Helvetica,sans-Serif" font-size="12.00">QObject</text>
</a>
</g>
</g>
<!-- Node6&#45;&gt;Node5 -->
<g id="edge5" class="edge">
<title>Node6&#45;&gt;Node5</title>
<path fill="none" stroke="midnightblue" d="M1515.61,-414.85C1604.62,-445.16 1827.77,-517.09 2021,-546.03 2091.82,-556.63 2110.43,-549.94 2182,-552.03 2241.78,-553.77 2310.03,-555.14 2357.98,-556.01"/>
<polygon fill="midnightblue" stroke="midnightblue" points="1516.53,-411.46 1505.93,-411.53 1514.26,-418.08 1516.53,-411.46"/>
</g>
<!-- Node7 -->
<g id="node7" class="node">
<title>Node7</title>
<g id="a_node7"><a xlink:href="class_j_k_q_t_base_plotter.html" target="_top" xlink:title="base class for 2D plotter classes (used by the plotter widget JKQTPlotter)">
<polygon fill="none" stroke="black" points="2035.5,-360.53 2035.5,-381.53 2149.5,-381.53 2149.5,-360.53 2035.5,-360.53"/>
<text text-anchor="middle" x="2092.5" y="-367.93" font-family="Helvetica,sans-Serif" font-size="12.00">JKQTBasePlotter</text>
</a>
</g>
</g>
<!-- Node6&#45;&gt;Node7 -->
<g id="edge7" class="edge">
<title>Node6&#45;&gt;Node7</title>
<path fill="none" stroke="midnightblue" d="M1517.97,-398.98C1625.96,-393.72 1913.46,-379.71 2035.48,-373.76"/>
<polygon fill="midnightblue" stroke="midnightblue" points="1517.61,-395.5 1507.8,-399.48 1517.95,-402.49 1517.61,-395.5"/>
</g>
<!-- Node20 -->
<g id="node20" class="node">
<title>Node20</title>
<g id="a_node20"><a xlink:href="class_j_k_q_t_math_text.html" target="_top" xlink:title="this class parses a mathematical markup string and can then draw the contained text/equation onto a Q...">
<polygon fill="none" stroke="black" points="1767,-418.53 1767,-439.53 1866,-439.53 1866,-418.53 1767,-418.53"/>
<text text-anchor="middle" x="1816.5" y="-425.93" font-family="Helvetica,sans-Serif" font-size="12.00">JKQTMathText</text>
</a>
</g>
</g>
<!-- Node6&#45;&gt;Node20 -->
<g id="edge26" class="edge">
<title>Node6&#45;&gt;Node20</title>
<path fill="none" stroke="midnightblue" d="M1517.61,-404.46C1580.58,-409.65 1699.82,-419.49 1766.76,-425.01"/>
<polygon fill="midnightblue" stroke="midnightblue" points="1517.89,-400.97 1507.63,-403.64 1517.31,-407.95 1517.89,-400.97"/>
</g>
<!-- Node25 -->
<g id="node25" class="node">
<title>Node25</title>
<g id="a_node25"><a xlink:href="class_j_k_q_t_p_coordinate_axis.html" target="_top" xlink:title="this virtual class is the base for any type of coordinate axis, to be drawn by JKQTBasePlotter.">
<polygon fill="none" stroke="black" points="2349.5,-306.53 2349.5,-327.53 2491.5,-327.53 2491.5,-306.53 2349.5,-306.53"/>
<text text-anchor="middle" x="2420.5" y="-313.93" font-family="Helvetica,sans-Serif" font-size="12.00">JKQTPCoordinateAxis</text>
</a>
</g>
</g>
<!-- Node6&#45;&gt;Node25 -->
<g id="edge35" class="edge">
<title>Node6&#45;&gt;Node25</title>
<path fill="none" stroke="midnightblue" d="M1517.75,-391.2C1594.23,-373.73 1762.15,-337.8 1906,-324.03 2063.76,-308.93 2250,-311.43 2349.12,-314.36"/>
<polygon fill="midnightblue" stroke="midnightblue" points="1516.54,-387.89 1507.58,-393.54 1518.11,-394.71 1516.54,-387.89"/>
</g>
<!-- Node7&#45;&gt;Node5 -->
<g id="edge6" class="edge">
<title>Node7&#45;&gt;Node5</title>
<path fill="none" stroke="#9a32cd" stroke-dasharray="5,2" d="M2118.05,-387.84C2133.3,-399.46 2152.18,-416.18 2164,-435.03 2179.02,-458.97 2161.66,-476.4 2182,-496.03 2206.93,-520.09 2296.15,-538.21 2357.84,-548.22"/>
<polygon fill="#9a32cd" stroke="#9a32cd" points="2119.71,-384.72 2109.58,-381.61 2115.56,-390.36 2119.71,-384.72"/>
<text text-anchor="middle" x="2238.5" y="-538.43" font-family="Helvetica,sans-Serif" font-size="12.00"> parent</text>
</g>
<!-- Node7&#45;&gt;Node7 -->
<g id="edge46" class="edge">
<title>Node7&#45;&gt;Node7</title>
<path fill="none" stroke="#9a32cd" stroke-dasharray="5,2" d="M2066.93,-391.08C2068.61,-396.19 2077.13,-400.03 2092.5,-400.03 2116.49,-400.03 2123.8,-390.68 2114.43,-381.74"/>
<polygon fill="#9a32cd" stroke="#9a32cd" points="2070.21,-392.33 2070.57,-381.74 2063.68,-389.79 2070.21,-392.33"/>
<text text-anchor="middle" x="2092.5" y="-416.43" font-family="Helvetica,sans-Serif" font-size="12.00"> masterPlotterX</text>
<text text-anchor="middle" x="2092.5" y="-403.43" font-family="Helvetica,sans-Serif" font-size="12.00">masterPlotterY</text>
</g>
<!-- Node22 -->
<g id="node22" class="node">
<title>Node22</title>
<g id="a_node22"><a xlink:href="class_j_k_q_t_p_graphs_model.html" target="_top" xlink:title="data model with all plots ina JKQTBasePlotter (+ allows to switch them visible/invisible)">
<polygon fill="none" stroke="black" points="2355,-471.53 2355,-492.53 2486,-492.53 2486,-471.53 2355,-471.53"/>
<text text-anchor="middle" x="2420.5" y="-478.93" font-family="Helvetica,sans-Serif" font-size="12.00">JKQTPGraphsModel</text>
</a>
</g>
</g>
<!-- Node7&#45;&gt;Node22 -->
<g id="edge32" class="edge">
<title>Node7&#45;&gt;Node22</title>
<path fill="none" stroke="#9a32cd" stroke-dasharray="5,2" d="M2114.7,-388.24C2129.29,-400.55 2148.72,-417.92 2164,-435.03 2173.12,-445.24 2170.12,-453.23 2182,-460.03 2210.49,-476.32 2294.74,-480.87 2354.79,-481.98"/>
<polygon fill="#9a32cd" stroke="#9a32cd" points="2116.66,-385.32 2106.74,-381.61 2112.18,-390.7 2116.66,-385.32"/>
<text text-anchor="middle" x="2238.5" y="-482.43" font-family="Helvetica,sans-Serif" font-size="12.00"> m_plotter</text>
</g>
<!-- Node7&#45;&gt;Node25 -->
<g id="edge36" class="edge">
<title>Node7&#45;&gt;Node25</title>
<path fill="none" stroke="#9a32cd" stroke-dasharray="5,2" d="M2133.03,-357.28C2148.19,-352.45 2165.74,-347.4 2182,-344.03 2237.67,-332.48 2301.77,-325.56 2349.34,-321.62"/>
<polygon fill="#9a32cd" stroke="#9a32cd" points="2131.88,-353.97 2123.46,-360.4 2134.05,-360.63 2131.88,-353.97"/>
<text text-anchor="middle" x="2238.5" y="-347.43" font-family="Helvetica,sans-Serif" font-size="12.00"> parent</text>
</g>
<!-- Node8 -->
<g id="node8" class="node">
<title>Node8</title>
<g id="a_node8"><a xlink:href="class_j_k_q_t_base_plotter_style.html" target="_top" xlink:title="Support Class for JKQTBasePlotter, which summarizes all properties that define the visual styling of ...">
<polygon fill="none" stroke="black" points="1745,-262.53 1745,-283.53 1888,-283.53 1888,-262.53 1745,-262.53"/>
<text text-anchor="middle" x="1816.5" y="-269.93" font-family="Helvetica,sans-Serif" font-size="12.00">JKQTBasePlotterStyle</text>
</a>
</g>
</g>
<!-- Node8&#45;&gt;Node7 -->
<g id="edge8" class="edge">
<title>Node8&#45;&gt;Node7</title>
<path fill="none" stroke="#9a32cd" stroke-dasharray="5,2" d="M1856.57,-287C1912.04,-306.84 2012.39,-342.73 2062.04,-360.49"/>
<polygon fill="#9a32cd" stroke="#9a32cd" points="1857.68,-283.68 1847.08,-283.61 1855.32,-290.27 1857.68,-283.68"/>
<text text-anchor="middle" x="1954.5" y="-343.43" font-family="Helvetica,sans-Serif" font-size="12.00"> plotterStyle</text>
</g>
<!-- Node9 -->
<g id="node9" class="node">
<title>Node9</title>
<g id="a_node9"><a xlink:href="class_j_k_q_t_p_key_style.html" target="_top" xlink:title="Support Class for JKQTBasePlotter, which summarizes all properties that define the visual styling of ...">
<polygon fill="none" stroke="black" points="1423,-284.53 1423,-305.53 1527,-305.53 1527,-284.53 1423,-284.53"/>
<text text-anchor="middle" x="1475" y="-291.93" font-family="Helvetica,sans-Serif" font-size="12.00">JKQTPKeyStyle</text>
</a>
</g>
</g>
<!-- Node9&#45;&gt;Node8 -->
<g id="edge9" class="edge">
<title>Node9&#45;&gt;Node8</title>
<path fill="none" stroke="#9a32cd" stroke-dasharray="5,2" d="M1532.5,-282.57C1550.76,-279.1 1571.15,-275.79 1590,-274.03 1641.65,-269.2 1700.24,-269.1 1744.75,-270.13"/>
<polygon fill="#9a32cd" stroke="#9a32cd" points="1531.75,-279.15 1522.61,-284.51 1533.09,-286.02 1531.75,-279.15"/>
<text text-anchor="middle" x="1658.5" y="-277.43" font-family="Helvetica,sans-Serif" font-size="12.00"> keyStyle</text>
</g>
<!-- Node10 -->
<g id="node10" class="node">
<title>Node10</title>
<g id="a_node10"><a xlink:href="class_j_k_q_t_p_coordinate_axis_style.html" target="_top" xlink:title="Support Class for JKQTPCoordinateAxis, which summarizes all properties that define the visual styling...">
<polygon fill="none" stroke="black" points="1063,-175.53 1063,-196.53 1234,-196.53 1234,-175.53 1063,-175.53"/>
<text text-anchor="middle" x="1148.5" y="-182.93" font-family="Helvetica,sans-Serif" font-size="12.00">JKQTPCoordinateAxisStyle</text>
</a>
</g>
</g>
<!-- Node10&#45;&gt;Node8 -->
<g id="edge10" class="edge">
<title>Node10&#45;&gt;Node8</title>
<path fill="none" stroke="#9a32cd" stroke-dasharray="5,2" d="M1240.42,-197.91C1374.62,-215.44 1622.94,-247.87 1744.59,-263.77"/>
<polygon fill="#9a32cd" stroke="#9a32cd" points="1240.54,-194.39 1230.17,-196.57 1239.63,-201.33 1240.54,-194.39"/>
<text text-anchor="middle" x="1475" y="-257.43" font-family="Helvetica,sans-Serif" font-size="12.00"> xAxisStyle</text>
<text text-anchor="middle" x="1475" y="-244.43" font-family="Helvetica,sans-Serif" font-size="12.00">yAxisStyle</text>
</g>
<!-- Node12 -->
<g id="node12" class="node">
<title>Node12</title>
<g id="a_node12"><a xlink:href="class_j_k_q_t_p_colorbar_coordinate_axis_style.html" target="_top" xlink:title="Support Class for JKQTPCoordinateAxis, which summarizes all properties that define the visual styling...">
<polygon fill="none" stroke="black" points="1378,-169.03 1378,-203.03 1572,-203.03 1572,-169.03 1378,-169.03"/>
<text text-anchor="start" x="1386" y="-189.43" font-family="Helvetica,sans-Serif" font-size="12.00">JKQTPColorbarCoordinateAxis</text>
<text text-anchor="middle" x="1475" y="-176.43" font-family="Helvetica,sans-Serif" font-size="12.00">Style</text>
</a>
</g>
</g>
<!-- Node10&#45;&gt;Node12 -->
<g id="edge13" class="edge">
<title>Node10&#45;&gt;Node12</title>
<path fill="none" stroke="midnightblue" d="M1244.56,-186.03C1286.54,-186.03 1335.81,-186.03 1377.91,-186.03"/>
<polygon fill="midnightblue" stroke="midnightblue" points="1244.33,-182.53 1234.33,-186.03 1244.33,-189.53 1244.33,-182.53"/>
</g>
<!-- Node10&#45;&gt;Node25 -->
<g id="edge37" class="edge">
<title>Node10&#45;&gt;Node25</title>
<path fill="none" stroke="#9a32cd" stroke-dasharray="5,2" d="M1204.82,-173.35C1269.14,-159.73 1378.67,-140.03 1474,-140.03 1474,-140.03 1474,-140.03 2093.5,-140.03 2233.89,-140.03 2371.58,-268.38 2409.36,-306.49"/>
<polygon fill="#9a32cd" stroke="#9a32cd" points="1203.93,-169.96 1194.89,-175.48 1205.4,-176.8 1203.93,-169.96"/>
<text text-anchor="middle" x="1816.5" y="-143.43" font-family="Helvetica,sans-Serif" font-size="12.00"> axisStyle</text>
</g>
<!-- Node11 -->
<g id="node11" class="node">
<title>Node11</title>
<g id="a_node11"><a xlink:href="class_j_k_q_t_p_grid_style.html" target="_top" xlink:title="Support Class for JKQTPCoordinateAxis, and summarizes all properties that define the visual styling o...">
<polygon fill="none" stroke="black" points="698.5,-175.53 698.5,-196.53 805.5,-196.53 805.5,-175.53 698.5,-175.53"/>
<text text-anchor="middle" x="752" y="-182.93" font-family="Helvetica,sans-Serif" font-size="12.00">JKQTPGridStyle</text>
</a>
</g>
</g>
<!-- Node11&#45;&gt;Node10 -->
<g id="edge11" class="edge">
<title>Node11&#45;&gt;Node10</title>
<path fill="none" stroke="#9a32cd" stroke-dasharray="5,2" d="M816.18,-186.03C883.03,-186.03 988.9,-186.03 1062.92,-186.03"/>
<polygon fill="#9a32cd" stroke="#9a32cd" points="815.79,-182.53 805.79,-186.03 815.79,-189.53 815.79,-182.53"/>
<text text-anchor="middle" x="948.5" y="-202.43" font-family="Helvetica,sans-Serif" font-size="12.00"> majorGridStyle</text>
<text text-anchor="middle" x="948.5" y="-189.43" font-family="Helvetica,sans-Serif" font-size="12.00">minorGridStyle</text>
</g>
<!-- Node12&#45;&gt;Node8 -->
<g id="edge12" class="edge">
<title>Node12&#45;&gt;Node8</title>
<path fill="none" stroke="#9a32cd" stroke-dasharray="5,2" d="M1582.52,-177.44C1628.38,-177.38 1681.75,-182.34 1727,-200.03 1761.32,-213.45 1792.25,-245.59 1806.77,-262.39"/>
<polygon fill="#9a32cd" stroke="#9a32cd" points="1582.22,-173.94 1572.25,-177.53 1582.28,-180.94 1582.22,-173.94"/>
<text text-anchor="middle" x="1658.5" y="-216.43" font-family="Helvetica,sans-Serif" font-size="12.00"> rightColorbarAxisStyle</text>
<text text-anchor="middle" x="1658.5" y="-203.43" font-family="Helvetica,sans-Serif" font-size="12.00">topColorbarAxisStyle</text>
</g>
<!-- Node13 -->
<g id="node13" class="node">
<title>Node13</title>
<g id="a_node13"><a xlink:href="class_j_k_q_t_graphs_base_style.html" target="_top" xlink:title="Support Class for JKQTBasePlotter, which summarizes all properties that define the visual styling of ...">
<polygon fill="none" stroke="black" points="1402,-334.53 1402,-355.53 1548,-355.53 1548,-334.53 1402,-334.53"/>
<text text-anchor="middle" x="1475" y="-341.93" font-family="Helvetica,sans-Serif" font-size="12.00">JKQTGraphsBaseStyle</text>
</a>
</g>
</g>
<!-- Node13&#45;&gt;Node8 -->
<g id="edge14" class="edge">
<title>Node13&#45;&gt;Node8</title>
<path fill="none" stroke="#9a32cd" stroke-dasharray="5,2" d="M1519.18,-331.46C1548.36,-322.35 1582.82,-311.71 1590,-310.03 1597.83,-308.19 1686.32,-293.82 1750.08,-283.54"/>
<polygon fill="#9a32cd" stroke="#9a32cd" points="1518.04,-328.16 1509.54,-334.48 1520.13,-334.84 1518.04,-328.16"/>
<text text-anchor="middle" x="1658.5" y="-313.43" font-family="Helvetica,sans-Serif" font-size="12.00"> graphsStyle</text>
</g>
<!-- Node14 -->
<g id="node14" class="node">
<title>Node14</title>
<g id="a_node14"><a xlink:href="class_j_k_q_t_graphs_specific_style_properties.html" target="_top" xlink:title="Support Class for JKQTBasePlotter, which summarizes all properties that define the visual styling of ...">
<polygon fill="none" stroke="black" points="399,-324.53 399,-345.53 623,-345.53 623,-324.53 399,-324.53"/>
<text text-anchor="middle" x="511" y="-331.93" font-family="Helvetica,sans-Serif" font-size="12.00">JKQTGraphsSpecificStyleProperties</text>
</a>
</g>
</g>
<!-- Node14&#45;&gt;Node13 -->
<g id="edge15" class="edge">
<title>Node14&#45;&gt;Node13</title>
<path fill="none" stroke="#9a32cd" stroke-dasharray="5,2" d="M633.27,-340.82C635.87,-340.89 638.45,-340.96 641,-341.03 922.37,-348.25 1257.38,-346.8 1401.84,-345.69"/>
<polygon fill="#9a32cd" stroke="#9a32cd" points="633.27,-337.31 623.17,-340.49 633.05,-344.31 633.27,-337.31"/>
<text text-anchor="middle" x="948.5" y="-376.43" font-family="Helvetica,sans-Serif" font-size="12.00"> boxplotStyle</text>
<text text-anchor="middle" x="948.5" y="-363.43" font-family="Helvetica,sans-Serif" font-size="12.00">defaultGraphStyle</text>
<text text-anchor="middle" x="948.5" y="-350.43" font-family="Helvetica,sans-Serif" font-size="12.00">filledStyle</text>
</g>
<!-- Node16 -->
<g id="node16" class="node">
<title>Node16</title>
<g id="a_node16"><a xlink:href="class_j_k_q_t_barchart_specific_style_properties.html" target="_top" xlink:title="Support Class for JKQTBasePlotter, which summarizes all properties that define the visual styling of ...">
<polygon fill="none" stroke="black" points="862,-297.03 862,-331.03 1035,-331.03 1035,-297.03 862,-297.03"/>
<text text-anchor="start" x="870" y="-317.43" font-family="Helvetica,sans-Serif" font-size="12.00">JKQTBarchartSpecificStyle</text>
<text text-anchor="middle" x="948.5" y="-304.43" font-family="Helvetica,sans-Serif" font-size="12.00">Properties</text>
</a>
</g>
</g>
<!-- Node14&#45;&gt;Node16 -->
<g id="edge18" class="edge">
<title>Node14&#45;&gt;Node16</title>
<path fill="none" stroke="midnightblue" d="M633.15,-329.19C705.82,-325.68 796.5,-321.31 861.76,-318.16"/>
<polygon fill="midnightblue" stroke="midnightblue" points="632.84,-325.7 623.02,-329.68 633.18,-332.69 632.84,-325.7"/>
</g>
<!-- Node17 -->
<g id="node17" class="node">
<title>Node17</title>
<g id="a_node17"><a xlink:href="class_j_k_q_t_impulse_specific_style_properties.html" target="_top" xlink:title="Support Class for JKQTBasePlotter, which summarizes all properties that define the visual styling of ...">
<polygon fill="none" stroke="black" points="864.5,-253.03 864.5,-287.03 1032.5,-287.03 1032.5,-253.03 864.5,-253.03"/>
<text text-anchor="start" x="872.5" y="-273.43" font-family="Helvetica,sans-Serif" font-size="12.00">JKQTImpulseSpecificStyle</text>
<text text-anchor="middle" x="948.5" y="-260.43" font-family="Helvetica,sans-Serif" font-size="12.00">Properties</text>
</a>
</g>
</g>
<!-- Node14&#45;&gt;Node17 -->
<g id="edge20" class="edge">
<title>Node14&#45;&gt;Node17</title>
<path fill="none" stroke="midnightblue" d="M592.63,-322.99C670.01,-311.45 786.34,-294.08 864.5,-282.42"/>
<polygon fill="midnightblue" stroke="midnightblue" points="591.83,-319.58 582.45,-324.51 592.86,-326.5 591.83,-319.58"/>
</g>
<!-- Node18 -->
<g id="node18" class="node">
<title>Node18</title>
<g id="a_node18"><a xlink:href="class_j_k_q_t_geometric_specific_style_properties.html" target="_top" xlink:title="Support Class for JKQTBasePlotter, which summarizes all properties that define the visual styling of ...">
<polygon fill="none" stroke="black" points="660,-392.03 660,-426.03 844,-426.03 844,-392.03 660,-392.03"/>
<text text-anchor="start" x="668" y="-412.43" font-family="Helvetica,sans-Serif" font-size="12.00">JKQTGeometricSpecificStyle</text>
<text text-anchor="middle" x="752" y="-399.43" font-family="Helvetica,sans-Serif" font-size="12.00">Properties</text>
</a>
</g>
</g>
<!-- Node14&#45;&gt;Node18 -->
<g id="edge22" class="edge">
<title>Node14&#45;&gt;Node18</title>
<path fill="none" stroke="midnightblue" d="M555.59,-348.53C595.02,-360.74 653.28,-378.77 695.93,-391.98"/>
<polygon fill="midnightblue" stroke="midnightblue" points="556.58,-345.17 545.99,-345.55 554.51,-351.85 556.58,-345.17"/>
</g>
<!-- Node15 -->
<g id="node15" class="node">
<title>Node15</title>
<g id="a_node15"><a xlink:href="struct_j_k_q_t_p_color_derivation_mode.html" target="_top" xlink:title="Specifies how a fill&#45;color is derived from a given color.">
<polygon fill="none" stroke="black" points="0,-324.53 0,-345.53 179,-345.53 179,-324.53 0,-324.53"/>
<text text-anchor="middle" x="89.5" y="-331.93" font-family="Helvetica,sans-Serif" font-size="12.00">JKQTPColorDerivationMode</text>
</a>
</g>
</g>
<!-- Node15&#45;&gt;Node14 -->
<g id="edge16" class="edge">
<title>Node15&#45;&gt;Node14</title>
<path fill="none" stroke="#9a32cd" stroke-dasharray="5,2" d="M189.53,-335.03C252.41,-335.03 333.9,-335.03 398.97,-335.03"/>
<polygon fill="#9a32cd" stroke="#9a32cd" points="189.21,-331.53 179.21,-335.03 189.21,-338.53 189.21,-331.53"/>
<text text-anchor="middle" x="289" y="-390.43" font-family="Helvetica,sans-Serif" font-size="12.00"> errorColorDerivationMode</text>
<text text-anchor="middle" x="289" y="-377.43" font-family="Helvetica,sans-Serif" font-size="12.00">errorFillColorDerivationMode</text>
<text text-anchor="middle" x="289" y="-364.43" font-family="Helvetica,sans-Serif" font-size="12.00">fillColorDerivationMode</text>
<text text-anchor="middle" x="289" y="-351.43" font-family="Helvetica,sans-Serif" font-size="12.00">graphColorDerivationMode</text>
<text text-anchor="middle" x="289" y="-338.43" font-family="Helvetica,sans-Serif" font-size="12.00">symbolFillColorDerivationMode</text>
</g>
<!-- Node16&#45;&gt;Node13 -->
<g id="edge17" class="edge">
<title>Node16&#45;&gt;Node13</title>
<path fill="none" stroke="#9a32cd" stroke-dasharray="5,2" d="M1045.41,-317.95C1103.01,-320.47 1177.73,-324.01 1244,-328.03 1296.85,-331.24 1356.48,-335.67 1401.78,-339.2"/>
<polygon fill="#9a32cd" stroke="#9a32cd" points="1045.37,-314.45 1035.23,-317.51 1045.07,-321.44 1045.37,-314.45"/>
<text text-anchor="middle" x="1148.5" y="-331.43" font-family="Helvetica,sans-Serif" font-size="12.00"> barchartStyle</text>
</g>
<!-- Node17&#45;&gt;Node13 -->
<g id="edge19" class="edge">
<title>Node17&#45;&gt;Node13</title>
<path fill="none" stroke="#9a32cd" stroke-dasharray="5,2" d="M1042.8,-278.32C1100.83,-283.94 1176.92,-292.13 1244,-302.03 1306.29,-311.22 1377.47,-325.05 1423.93,-334.52"/>
<polygon fill="#9a32cd" stroke="#9a32cd" points="1042.83,-274.81 1032.55,-277.34 1042.17,-281.78 1042.83,-274.81"/>
<text text-anchor="middle" x="1148.5" y="-305.43" font-family="Helvetica,sans-Serif" font-size="12.00"> impulseStyle</text>
</g>
<!-- Node18&#45;&gt;Node13 -->
<g id="edge21" class="edge">
<title>Node18&#45;&gt;Node13</title>
<path fill="none" stroke="#9a32cd" stroke-dasharray="5,2" d="M854.24,-420.9C953.7,-430.64 1109.66,-440.78 1244,-427.03 1296.37,-421.67 1314.97,-430.3 1360,-403.03 1370.81,-396.48 1367.73,-388.39 1378,-381.03 1393.91,-369.62 1413.88,-361.37 1431.47,-355.67"/>
<polygon fill="#9a32cd" stroke="#9a32cd" points="854.49,-417.41 844.19,-419.9 853.8,-424.37 854.49,-417.41"/>
<text text-anchor="middle" x="1148.5" y="-437.43" font-family="Helvetica,sans-Serif" font-size="12.00"> geometricStyle</text>
</g>
<!-- Node19 -->
<g id="node19" class="node">
<title>Node19</title>
<g id="a_node19"><a xlink:href="class_j_k_q_t_annotations_specific_style_properties.html" target="_top" xlink:title="Support Class for JKQTBasePlotter, which summarizes all properties that define the visual styling of ...">
<polygon fill="none" stroke="black" points="1053,-384.03 1053,-418.03 1244,-418.03 1244,-384.03 1053,-384.03"/>
<text text-anchor="start" x="1061" y="-404.43" font-family="Helvetica,sans-Serif" font-size="12.00">JKQTAnnotationsSpecificStyle</text>
<text text-anchor="middle" x="1148.5" y="-391.43" font-family="Helvetica,sans-Serif" font-size="12.00">Properties</text>
</a>
</g>
</g>
<!-- Node18&#45;&gt;Node19 -->
<g id="edge24" class="edge">
<title>Node18&#45;&gt;Node19</title>
<path fill="none" stroke="midnightblue" d="M854.07,-406.98C915.27,-405.74 992.83,-404.17 1052.84,-402.95"/>
<polygon fill="midnightblue" stroke="midnightblue" points="853.93,-403.48 844,-407.18 854.07,-410.48 853.93,-403.48"/>
</g>
<!-- Node19&#45;&gt;Node13 -->
<g id="edge23" class="edge">
<title>Node19&#45;&gt;Node13</title>
<path fill="none" stroke="#9a32cd" stroke-dasharray="5,2" d="M1254.16,-386.31C1288,-381.24 1325.65,-375.25 1360,-369.03 1382.09,-365.03 1406.46,-359.98 1426.97,-355.56"/>
<polygon fill="#9a32cd" stroke="#9a32cd" points="1253.63,-382.85 1244.26,-387.79 1254.67,-389.78 1253.63,-382.85"/>
<text text-anchor="middle" x="1311" y="-389.43" font-family="Helvetica,sans-Serif" font-size="12.00"> annotationStyle</text>
</g>
<!-- Node20&#45;&gt;Node7 -->
<g id="edge25" class="edge">
<title>Node20&#45;&gt;Node7</title>
<path fill="none" stroke="#9a32cd" stroke-dasharray="5,2" d="M1876.03,-416.64C1925.23,-406.23 1994.78,-391.5 2041.43,-381.63"/>
<polygon fill="#9a32cd" stroke="#9a32cd" points="1875.23,-413.23 1866.17,-418.73 1876.68,-420.08 1875.23,-413.23"/>
<text text-anchor="middle" x="1954.5" y="-414.43" font-family="Helvetica,sans-Serif" font-size="12.00"> mathText</text>
</g>
<!-- Node21 -->
<g id="node21" class="node">
<title>Node21</title>
<g id="a_node21"><a xlink:href="class_j_k_q_t_math_text_node.html" target="_top" xlink:title="subclass representing one node in the syntax tree">
<polygon fill="none" stroke="black" points="2027,-444.53 2027,-465.53 2158,-465.53 2158,-444.53 2027,-444.53"/>
<text text-anchor="middle" x="2092.5" y="-451.93" font-family="Helvetica,sans-Serif" font-size="12.00">JKQTMathTextNode</text>
</a>
</g>
</g>
<!-- Node20&#45;&gt;Node21 -->
<g id="edge28" class="edge">
<title>Node20&#45;&gt;Node21</title>
<path fill="none" stroke="#9a32cd" stroke-dasharray="5,2" d="M1856.94,-442.63C1872.09,-447.2 1889.66,-451.72 1906,-454.03 1945.86,-459.66 1991.02,-460.03 2026.8,-458.94"/>
<polygon fill="#9a32cd" stroke="#9a32cd" points="1857.97,-439.29 1847.38,-439.65 1855.88,-445.97 1857.97,-439.29"/>
<text text-anchor="middle" x="1954.5" y="-463.43" font-family="Helvetica,sans-Serif" font-size="12.00"> parentMathText</text>
</g>
<!-- Node21&#45;&gt;Node20 -->
<g id="edge27" class="edge">
<title>Node21&#45;&gt;Node20</title>
<path fill="none" stroke="#9a32cd" stroke-dasharray="5,2" d="M2019.61,-443.09C2014,-442.33 2008.41,-441.63 2003,-441.03 1956.65,-435.88 1903.53,-432.72 1866.04,-430.94"/>
<polygon fill="#9a32cd" stroke="#9a32cd" points="2019.31,-446.58 2029.7,-444.51 2020.29,-439.65 2019.31,-446.58"/>
<text text-anchor="middle" x="1954.5" y="-444.43" font-family="Helvetica,sans-Serif" font-size="12.00"> parsedNode</text>
</g>
<!-- Node21&#45;&gt;Node21 -->
<g id="edge29" class="edge">
<title>Node21&#45;&gt;Node21</title>
<path fill="none" stroke="#9a32cd" stroke-dasharray="5,2" d="M2066.93,-475.08C2068.61,-480.19 2077.13,-484.03 2092.5,-484.03 2116.49,-484.03 2123.8,-474.68 2114.43,-465.74"/>
<polygon fill="#9a32cd" stroke="#9a32cd" points="2070.21,-476.33 2070.57,-465.74 2063.68,-473.79 2070.21,-476.33"/>
<text text-anchor="middle" x="2092.5" y="-487.43" font-family="Helvetica,sans-Serif" font-size="12.00"> parentNode</text>
</g>
<!-- Node22&#45;&gt;Node7 -->
<g id="edge30" class="edge">
<title>Node22&#45;&gt;Node7</title>
<path fill="none" stroke="#9a32cd" stroke-dasharray="5,2" d="M2374.8,-468.61C2351.18,-461.73 2321.64,-453.48 2295,-447.03 2245.19,-434.97 2229.78,-442.57 2182,-424.03 2153.95,-413.14 2124.6,-393.72 2107.74,-381.65"/>
<polygon fill="#9a32cd" stroke="#9a32cd" points="2373.95,-472 2384.53,-471.46 2375.92,-465.29 2373.95,-472"/>
<text text-anchor="middle" x="2238.5" y="-450.43" font-family="Helvetica,sans-Serif" font-size="12.00"> m_plotsModel</text>
</g>
<!-- Node23 -->
<g id="node23" class="node">
<title>Node23</title>
<g id="a_node23"><a xlink:title=" ">
<polygon fill="none" stroke="black" points="2021,-515.53 2021,-536.53 2164,-536.53 2164,-515.53 2021,-515.53"/>
<text text-anchor="middle" x="2092.5" y="-522.93" font-family="Helvetica,sans-Serif" font-size="12.00">QAbstractTableModel</text>
</a>
</g>
</g>
<!-- Node23&#45;&gt;Node22 -->
<g id="edge31" class="edge">
<title>Node23&#45;&gt;Node22</title>
<path fill="none" stroke="midnightblue" d="M2174.43,-515.11C2230.15,-507.59 2303.18,-497.73 2354.99,-490.74"/>
<polygon fill="midnightblue" stroke="midnightblue" points="2173.68,-511.68 2164.24,-516.48 2174.62,-518.61 2173.68,-511.68"/>
</g>
<!-- Node24 -->
<g id="node24" class="node">
<title>Node24</title>
<g id="a_node24"><a xlink:href="class_j_k_q_t_p_horizontal_axis.html" target="_top" xlink:title="implements a horizontal axis, based on JKQTPCoordinateAxis (for most of documentation: see JKQTPCoord...">
<polygon fill="none" stroke="black" points="2565,-339.53 2565,-360.53 2702,-360.53 2702,-339.53 2565,-339.53"/>
<text text-anchor="middle" x="2633.5" y="-346.93" font-family="Helvetica,sans-Serif" font-size="12.00">JKQTPHorizontalAxis</text>
</a>
</g>
</g>
<!-- Node24&#45;&gt;Node7 -->
<g id="edge33" class="edge">
<title>Node24&#45;&gt;Node7</title>
<path fill="none" stroke="#9a32cd" stroke-dasharray="5,2" d="M2554.66,-353.06C2444.67,-357.35 2246.4,-365.07 2149.66,-368.84"/>
<polygon fill="#9a32cd" stroke="#9a32cd" points="2554.85,-356.56 2564.7,-352.67 2554.57,-349.56 2554.85,-356.56"/>
<text text-anchor="middle" x="2420.5" y="-366.43" font-family="Helvetica,sans-Serif" font-size="12.00"> xAxis</text>
</g>
<!-- Node25&#45;&gt;Node24 -->
<g id="edge34" class="edge">
<title>Node25&#45;&gt;Node24</title>
<path fill="none" stroke="midnightblue" d="M2498.99,-329.15C2520.67,-332.54 2544.04,-336.19 2565.07,-339.48"/>
<polygon fill="midnightblue" stroke="midnightblue" points="2499.26,-325.65 2488.84,-327.56 2498.18,-332.56 2499.26,-325.65"/>
</g>
<!-- Node26 -->
<g id="node26" class="node">
<title>Node26</title>
<g id="a_node26"><a xlink:href="class_j_k_q_t_p_vertical_axis.html" target="_top" xlink:title="implements a vertical axis, based on JKQTPCoordinateAxis (for most of documentation: see JKQTPCoordin...">
<polygon fill="none" stroke="black" points="2572.5,-389.53 2572.5,-410.53 2694.5,-410.53 2694.5,-389.53 2572.5,-389.53"/>
<text text-anchor="middle" x="2633.5" y="-396.93" font-family="Helvetica,sans-Serif" font-size="12.00">JKQTPVerticalAxis</text>
</a>
</g>
</g>
<!-- Node25&#45;&gt;Node26 -->
<g id="edge39" class="edge">
<title>Node25&#45;&gt;Node26</title>
<path fill="none" stroke="midnightblue" d="M2495.52,-330.17C2506.67,-333.35 2517.83,-337.25 2528,-342.03 2546.67,-350.8 2547.24,-359.55 2565,-370.03 2577.59,-377.46 2592.35,-384.22 2604.86,-389.44"/>
<polygon fill="midnightblue" stroke="midnightblue" points="2496.32,-326.76 2485.76,-327.55 2494.51,-333.52 2496.32,-326.76"/>
</g>
<!-- Node26&#45;&gt;Node7 -->
<g id="edge38" class="edge">
<title>Node26&#45;&gt;Node7</title>
<path fill="none" stroke="#9a32cd" stroke-dasharray="5,2" d="M2562.11,-398.15C2473.39,-395.49 2316.25,-389.83 2182,-380.03 2171.53,-379.26 2160.37,-378.27 2149.64,-377.22"/>
<polygon fill="#9a32cd" stroke="#9a32cd" points="2562.22,-401.65 2572.32,-398.45 2562.43,-394.65 2562.22,-401.65"/>
<text text-anchor="middle" x="2420.5" y="-400.43" font-family="Helvetica,sans-Serif" font-size="12.00"> yAxis</text>
</g>
<!-- Node27 -->
<g id="node27" class="node">
<title>Node27</title>
<g id="a_node27"><a xlink:href="class_j_k_q_t_p_datastore.html" target="_top" xlink:title="This class manages data columns (with entries of type double ), used by JKQTPlotter/JKQTBasePlotter t...">
<polygon fill="none" stroke="black" points="1761,-25.53 1761,-46.53 1872,-46.53 1872,-25.53 1761,-25.53"/>
<text text-anchor="middle" x="1816.5" y="-32.93" font-family="Helvetica,sans-Serif" font-size="12.00">JKQTPDatastore</text>
</a>
</g>
</g>
<!-- Node27&#45;&gt;Node7 -->
<g id="edge40" class="edge">
<title>Node27&#45;&gt;Node7</title>
<path fill="none" stroke="#9a32cd" stroke-dasharray="5,2" d="M1881.4,-51.4C1883.71,-52.81 1885.92,-54.35 1888,-56.03 1901.29,-66.78 1897.28,-75.32 1906,-90.03 1970.25,-198.39 2057.78,-323.44 2083.86,-360.29"/>
<polygon fill="#9a32cd" stroke="#9a32cd" points="1882.58,-48.07 1872.09,-46.58 1879.36,-54.28 1882.58,-48.07"/>
<text text-anchor="middle" x="1954.5" y="-241.43" font-family="Helvetica,sans-Serif" font-size="12.00"> datastore</text>
</g>
<!-- Node29 -->
<g id="node29" class="node">
<title>Node29</title>
<g id="a_node29"><a xlink:href="class_j_k_q_t_p_column.html" target="_top" xlink:title="internally stores information about one data column. See JKQTPDatastore for more information.">
<polygon fill="none" stroke="black" points="2043.5,-25.53 2043.5,-46.53 2141.5,-46.53 2141.5,-25.53 2043.5,-25.53"/>
<text text-anchor="middle" x="2092.5" y="-32.93" font-family="Helvetica,sans-Serif" font-size="12.00">JKQTPColumn</text>
</a>
</g>
</g>
<!-- Node27&#45;&gt;Node29 -->
<g id="edge43" class="edge">
<title>Node27&#45;&gt;Node29</title>
<path fill="none" stroke="#9a32cd" stroke-dasharray="5,2" d="M1882.54,-36.03C1931.87,-36.03 1998.58,-36.03 2043.22,-36.03"/>
<polygon fill="#9a32cd" stroke="#9a32cd" points="1882.29,-32.53 1872.29,-36.03 1882.29,-39.53 1882.29,-32.53"/>
<text text-anchor="middle" x="1954.5" y="-39.43" font-family="Helvetica,sans-Serif" font-size="12.00"> datastore</text>
</g>
<!-- Node28 -->
<g id="node28" class="node">
<title>Node28</title>
<g id="a_node28"><a xlink:title=" ">
<polygon fill="none" stroke="black" points="2313,-25.53 2313,-46.53 2528,-46.53 2528,-25.53 2313,-25.53"/>
<text text-anchor="middle" x="2420.5" y="-32.93" font-family="Helvetica,sans-Serif" font-size="12.00">std::unique_ptr&lt; JKQTPColumn &gt;</text>
</a>
</g>
</g>
<!-- Node28&#45;&gt;Node27 -->
<g id="edge41" class="edge">
<title>Node28&#45;&gt;Node27</title>
<path fill="none" stroke="#9a32cd" stroke-dasharray="5,2" d="M2352.44,-23.79C2273.25,-10.89 2137.55,6.36 2021,-3.03 1968.56,-7.25 1909.24,-17.51 1868.24,-25.47"/>
<polygon fill="#9a32cd" stroke="#9a32cd" points="2352.32,-27.32 2362.75,-25.5 2353.46,-20.41 2352.32,-27.32"/>
<text text-anchor="middle" x="2092.5" y="-6.43" font-family="Helvetica,sans-Serif" font-size="12.00"> m_invalidColumn</text>
</g>
<!-- Node29&#45;&gt;Node28 -->
<g id="edge42" class="edge">
<title>Node29&#45;&gt;Node28</title>
<path fill="none" stroke="#9a32cd" stroke-dasharray="5,2" d="M2151.69,-36.03C2196.35,-36.03 2259.24,-36.03 2312.85,-36.03"/>
<polygon fill="#9a32cd" stroke="#9a32cd" points="2151.6,-32.53 2141.6,-36.03 2151.6,-39.53 2151.6,-32.53"/>
<text text-anchor="middle" x="2238.5" y="-39.43" font-family="Helvetica,sans-Serif" font-size="12.00"> ptr</text>
</g>
<!-- Node30 -->
<g id="node30" class="node">
<title>Node30</title>
<g id="a_node30"><a xlink:title=" ">
<polygon fill="none" stroke="black" points="2022.5,-65.53 2022.5,-86.53 2162.5,-86.53 2162.5,-65.53 2022.5,-65.53"/>
<text text-anchor="middle" x="2092.5" y="-72.93" font-family="Helvetica,sans-Serif" font-size="12.00">std::unique_ptr&lt; T &gt;</text>
</a>
</g>
</g>
<!-- Node30&#45;&gt;Node28 -->
<g id="edge44" class="edge">
<title>Node30&#45;&gt;Node28</title>
<path fill="none" stroke="orange" stroke-dasharray="5,2" d="M2172.79,-66.76C2209.91,-62.37 2254.73,-57.01 2295,-52.03 2309.06,-50.29 2324,-48.4 2338.48,-46.55"/>
<polygon fill="orange" stroke="orange" points="2172.05,-63.32 2162.53,-67.97 2172.87,-70.27 2172.05,-63.32"/>
<text text-anchor="middle" x="2238.5" y="-69.43" font-family="Helvetica,sans-Serif" font-size="12.00"> &lt; JKQTPColumn &gt;</text>
</g>
<!-- Node31 -->
<g id="node31" class="node">
<title>Node31</title>
<g id="a_node31"><a xlink:title=" ">
<polygon fill="none" stroke="black" points="1802,-65.53 1802,-86.53 1831,-86.53 1831,-65.53 1802,-65.53"/>
<text text-anchor="middle" x="1816.5" y="-72.93" font-family="Helvetica,sans-Serif" font-size="12.00">T</text>
</a>
</g>
</g>
<!-- Node31&#45;&gt;Node30 -->
<g id="edge45" class="edge">
<title>Node31&#45;&gt;Node30</title>
<path fill="none" stroke="#9a32cd" stroke-dasharray="5,2" d="M1841.17,-76.03C1881.06,-76.03 1963.14,-76.03 2022.46,-76.03"/>
<polygon fill="#9a32cd" stroke="#9a32cd" points="1841.09,-72.53 1831.09,-76.03 1841.09,-79.53 1841.09,-72.53"/>
<text text-anchor="middle" x="1954.5" y="-79.43" font-family="Helvetica,sans-Serif" font-size="12.00"> ptr</text>
</g>
<!-- Node32 -->
<g id="node32" class="node">
<title>Node32</title>
<g id="a_node32"><a xlink:href="class_j_k_q_t_p_graph_line_style_mixin.html" target="_top" xlink:title="This Mix&#45;In class provides setter/getter methods, storage and other facilities for the graph line sty...">
<polygon fill="none" stroke="black" points="2750.5,-680.53 2750.5,-701.53 2924.5,-701.53 2924.5,-680.53 2750.5,-680.53"/>
<text text-anchor="middle" x="2837.5" y="-687.93" font-family="Helvetica,sans-Serif" font-size="12.00">JKQTPGraphLineStyleMixin</text>
</a>
</g>
</g>
<!-- Node32&#45;&gt;Node2 -->
<g id="edge47" class="edge">
<title>Node32&#45;&gt;Node2</title>
<path fill="none" stroke="midnightblue" d="M2916.1,-677.8C2922.92,-675.84 2929.65,-673.59 2936,-671.03 2972.15,-656.47 3009.57,-629.51 3028.81,-614.61"/>
<polygon fill="midnightblue" stroke="midnightblue" points="2914.81,-674.53 2906.05,-680.5 2916.62,-681.29 2914.81,-674.53"/>
</g>
<!-- Node33 -->
<g id="node33" class="node">
<title>Node33</title>
<g id="a_node33"><a xlink:href="class_j_k_q_t_p_graph_symbol_style_mixin.html" target="_top" xlink:title="This Mix&#45;In class provides setter/getter methods, storage and other facilities for the graph symbols ...">
<polygon fill="none" stroke="black" points="2740.5,-640.53 2740.5,-661.53 2934.5,-661.53 2934.5,-640.53 2740.5,-640.53"/>
<text text-anchor="middle" x="2837.5" y="-647.93" font-family="Helvetica,sans-Serif" font-size="12.00">JKQTPGraphSymbolStyleMixin</text>
</a>
</g>
</g>
<!-- Node33&#45;&gt;Node2 -->
<g id="edge48" class="edge">
<title>Node33&#45;&gt;Node2</title>
<path fill="none" stroke="midnightblue" d="M2902.07,-638.44C2913.39,-636.07 2925.06,-633.54 2936,-631.03 2958.12,-625.95 2982.68,-619.73 3002.59,-614.54"/>
<polygon fill="midnightblue" stroke="midnightblue" points="2901.32,-635.02 2892.24,-640.48 2902.74,-641.88 2901.32,-635.02"/>
</g>
<!-- Node34 -->
<g id="node34" class="node">
<title>Node34</title>
<g id="a_node34"><a xlink:href="class_j_k_q_t_p_graph_lines_compression_mixin.html" target="_top" xlink:title="This Mix&#45;In class provides setter/getter methods, storage and other facilities for a line&#45;graph compr...">
<polygon fill="none" stroke="black" points="2739,-587.03 2739,-621.03 2936,-621.03 2936,-587.03 2739,-587.03"/>
<text text-anchor="start" x="2747" y="-607.43" font-family="Helvetica,sans-Serif" font-size="12.00">JKQTPGraphLinesCompression</text>
<text text-anchor="middle" x="2837.5" y="-594.43" font-family="Helvetica,sans-Serif" font-size="12.00">Mixin</text>
</a>
</g>
</g>
<!-- Node34&#45;&gt;Node2 -->
<g id="edge49" class="edge">
<title>Node34&#45;&gt;Node2</title>
<path fill="none" stroke="midnightblue" d="M2946.38,-604.03C2957.12,-604.03 2967.76,-604.03 2977.84,-604.03"/>
<polygon fill="midnightblue" stroke="midnightblue" points="2946.08,-600.53 2936.08,-604.03 2946.08,-607.53 2946.08,-600.53"/>
</g>
<!-- Node35 -->
<g id="node35" class="node">
<title>Node35</title>
<g id="a_node35"><a xlink:href="class_j_k_q_t_p_x_y_graph_errors.html" target="_top" xlink:title="This class is the base class for graphs that only display error indicators in x&#45; and y&#45;direction.">
<polygon fill="none" stroke="black" points="2973,-479.53 2973,-500.53 3113,-500.53 3113,-479.53 2973,-479.53"/>
<text text-anchor="middle" x="3043" y="-486.93" font-family="Helvetica,sans-Serif" font-size="12.00">JKQTPXYGraphErrors</text>
</a>
</g>
</g>
<!-- Node35&#45;&gt;Node1 -->
<g id="edge50" class="edge">
<title>Node35&#45;&gt;Node1</title>
<path fill="none" stroke="midnightblue" d="M3084.53,-503.87C3118.56,-515.49 3166.48,-531.85 3197.52,-542.45"/>
<polygon fill="midnightblue" stroke="midnightblue" points="3085.48,-500.49 3074.88,-500.57 3083.21,-507.12 3085.48,-500.49"/>
</g>
<!-- Node36 -->
<g id="node36" class="node">
<title>Node36</title>
<g id="a_node36"><a xlink:href="class_j_k_q_t_p_x_graph_error_data.html" target="_top" xlink:title="This class adds data fields for error indicators in x direction.">
<polygon fill="none" stroke="black" points="2760,-466.53 2760,-487.53 2915,-487.53 2915,-466.53 2760,-466.53"/>
<text text-anchor="middle" x="2837.5" y="-473.93" font-family="Helvetica,sans-Serif" font-size="12.00">JKQTPXGraphErrorData</text>
</a>
</g>
</g>
<!-- Node36&#45;&gt;Node35 -->
<g id="edge51" class="edge">
<title>Node36&#45;&gt;Node35</title>
<path fill="none" stroke="midnightblue" d="M2925.45,-482.58C2941.27,-483.59 2957.57,-484.64 2972.79,-485.61"/>
<polygon fill="midnightblue" stroke="midnightblue" points="2925.35,-479.07 2915.14,-481.93 2924.9,-486.06 2925.35,-479.07"/>
</g>
<!-- Node37 -->
<g id="node37" class="node">
<title>Node37</title>
<g id="a_node37"><a xlink:href="class_j_k_q_t_p_y_graph_error_data.html" target="_top" xlink:title="This class adds data fields for error indicators in y direction.">
<polygon fill="none" stroke="black" points="2760.5,-426.53 2760.5,-447.53 2914.5,-447.53 2914.5,-426.53 2760.5,-426.53"/>
<text text-anchor="middle" x="2837.5" y="-433.93" font-family="Helvetica,sans-Serif" font-size="12.00">JKQTPYGraphErrorData</text>
</a>
</g>
</g>
<!-- Node37&#45;&gt;Node35 -->
<g id="edge52" class="edge">
<title>Node37&#45;&gt;Node35</title>
<path fill="none" stroke="midnightblue" d="M2904.66,-449.67C2915.18,-451.95 2925.92,-454.43 2936,-457.03 2961.38,-463.57 2989.71,-472.47 3010.7,-479.38"/>
<polygon fill="midnightblue" stroke="midnightblue" points="2905.17,-446.2 2894.66,-447.56 2903.72,-453.05 2905.17,-446.2"/>
</g>
<!-- Node38 -->
<g id="node38" class="node">
<title>Node38</title>
<g id="a_node38"><a xlink:href="class_j_k_q_t_p_graph_error_style_mixin.html" target="_top" xlink:title="This mix&#45;in class assembles all styling properties applicable to error indicators.">
<polygon fill="none" stroke="black" points="2748,-506.53 2748,-527.53 2927,-527.53 2927,-506.53 2748,-506.53"/>
<text text-anchor="middle" x="2837.5" y="-513.93" font-family="Helvetica,sans-Serif" font-size="12.00">JKQTPGraphErrorStyleMixin</text>
</a>
</g>
</g>
<!-- Node38&#45;&gt;Node35 -->
<g id="edge53" class="edge">
<title>Node38&#45;&gt;Node35</title>
<path fill="none" stroke="midnightblue" d="M2928.08,-505.14C2943.1,-503.15 2958.48,-501.11 2972.88,-499.2"/>
<polygon fill="midnightblue" stroke="midnightblue" points="2927.21,-501.73 2917.76,-506.51 2928.13,-508.67 2927.21,-501.73"/>
</g>
</g>
</svg>
        <g id="navigator" transform="translate(0 0)" fill="#404254">
                <rect fill="#f2f5e9" fill-opacity="0.5" stroke="#606060" stroke-width=".5" x="0" y="0" width="60" height="60"/>
                <use id="zoomplus" xlink:href="#zoomPlus" x="17" y="9" onmousedown="handleZoom(evt,'in')"/>
                <use id="zoomminus" xlink:href="#zoomMin" x="42" y="9" onmousedown="handleZoom(evt,'out')"/>
                <use id="reset" xlink:href="#resetDef" x="30" y="36" onmousedown="handleReset()"/>
                <g id="arrowUp" xlink:href="#dirArrow" transform="translate(30 24)" onmousedown="handlePan(0,-1)">
                  <use xlink:href="#rim" fill="#404040">
                        <set attributeName="fill" to="#808080" begin="arrowUp.mouseover" end="arrowUp.mouseout"/>
                  </use>
                  <path fill="none" stroke="white" stroke-width="1.5" d="M0,-3.0v7 M-2.5,-0.5L0,-3.0L2.5,-0.5"/>
                </g>
                <g id="arrowRight" xlink:href="#dirArrow" transform="rotate(90) translate(36 -43)" onmousedown="handlePan(1,0)">
                  <use xlink:href="#rim" fill="#404040">
                        <set attributeName="fill" to="#808080" begin="arrowRight.mouseover" end="arrowRight.mouseout"/>
                  </use>
                  <path fill="none" stroke="white" stroke-width="1.5" d="M0,-3.0v7 M-2.5,-0.5L0,-3.0L2.5,-0.5"/>
                </g>
                <g id="arrowDown" xlink:href="#dirArrow" transform="rotate(180) translate(-30 -48)" onmousedown="handlePan(0,1)">
                  <use xlink:href="#rim" fill="#404040">
                        <set attributeName="fill" to="#808080" begin="arrowDown.mouseover" end="arrowDown.mouseout"/>
                  </use>
                  <path fill="none" stroke="white" stroke-width="1.5" d="M0,-3.0v7 M-2.5,-0.5L0,-3.0L2.5,-0.5"/>
                </g>
                <g id="arrowLeft" xlink:href="#dirArrow" transform="rotate(270) translate(-36 17)" onmousedown="handlePan(-1,0)">
                  <use xlink:href="#rim" fill="#404040">
                        <set attributeName="fill" to="#808080" begin="arrowLeft.mouseover" end="arrowLeft.mouseout"/>
                  </use>
                  <path fill="none" stroke="white" stroke-width="1.5" d="M0,-3.0v7 M-2.5,-0.5L0,-3.0L2.5,-0.5"/>
                </g>
        </g>
        <svg viewBox="0 0 15 15" width="100%" height="30px" preserveAspectRatio="xMaxYMin meet">
         <g id="arrow_out" transform="scale(0.3 0.3)">
          <a xlink:href="class_j_k_q_t_p_x_y_line_error_graph__coll__graph_org.svg" target="_base">
           <rect id="button" ry="5" rx="5" y="6" x="6" height="38" width="38"
                fill="#f2f5e9" fill-opacity="0.5" stroke="#606060" stroke-width="1.0"/>
           <path id="arrow"
             d="M 11.500037,31.436501 C 11.940474,20.09759 22.043105,11.32322 32.158766,21.979434 L 37.068811,17.246167 C 37.068811,17.246167 37.088388,32 37.088388,32 L 22.160133,31.978069 C 22.160133,31.978069 26.997745,27.140456 26.997745,27.140456 C 18.528582,18.264221 13.291696,25.230495 11.500037,31.436501 z"
             style="fill:#404040;"/>
          </a>
         </g>
        </svg>
</svg>
