<?xml version="1.0" encoding="UTF-8" standalone="no"?>
<!DOCTYPE svg PUBLIC "-//W3C//DTD SVG 1.1//EN"
 "http://www.w3.org/Graphics/SVG/1.1/DTD/svg11.dtd">
<!-- Generated by graphviz version 2.43.0 (0)
 -->
<!-- Title: JKQTPXYParametrizedScatterGraph Pages: 1 -->
<svg width="1248pt" height="164pt"
 viewBox="0.00 0.00 1248.00 163.50" xmlns="http://www.w3.org/2000/svg" xmlns:xlink="http://www.w3.org/1999/xlink">
<g id="graph0" class="graph" transform="scale(1 1) rotate(0) translate(4 159.5)">
<title>JKQTPXYParametrizedScatterGraph</title>
<!-- Node1 -->
<g id="node1" class="node">
<title>Node1</title>
<g id="a_node1"><a xlink:title="This implements xy scatter plots (like JKQTPXYLineGraph), but the color and size of the symbols may b...">
<polygon fill="#bfbfbf" stroke="black" points="834,-43.5 834,-77.5 1026,-77.5 1026,-43.5 834,-43.5"/>
<text text-anchor="start" x="842" y="-63.9" font-family="Helvetica,sans-Serif" font-size="12.00">JKQTPXYParametrizedScatter</text>
<text text-anchor="middle" x="930" y="-50.9" font-family="Helvetica,sans-Serif" font-size="12.00">Graph</text>
</a>
</g>
</g>
<!-- Node11 -->
<g id="node11" class="node">
<title>Node11</title>
<g id="a_node11"><a xlink:href="class_j_k_q_t_p_x_y_parametrized_error_scatter_graph.html" target="_top" xlink:title="This implements xy scatter plots (like JKQTPXYLineGraph), but the color and size of the symbols may b...">
<polygon fill="none" stroke="black" points="1062,-43.5 1062,-77.5 1240,-77.5 1240,-43.5 1062,-43.5"/>
<text text-anchor="start" x="1070" y="-63.9" font-family="Helvetica,sans-Serif" font-size="12.00">JKQTPXYParametrizedError</text>
<text text-anchor="middle" x="1151" y="-50.9" font-family="Helvetica,sans-Serif" font-size="12.00">ScatterGraph</text>
</a>
</g>
</g>
<!-- Node1&#45;&gt;Node11 -->
<g id="edge10" class="edge">
<title>Node1&#45;&gt;Node11</title>
<path fill="none" stroke="midnightblue" d="M1036.17,-60.5C1044.78,-60.5 1053.42,-60.5 1061.89,-60.5"/>
<polygon fill="midnightblue" stroke="midnightblue" points="1036.1,-57 1026.1,-60.5 1036.1,-64 1036.1,-57"/>
</g>
<!-- Node2 -->
<g id="node2" class="node">
<title>Node2</title>
<g id="a_node2"><a xlink:href="class_j_k_q_t_p_x_y_line_graph.html" target="_top" xlink:title="This implements xy line plots. This also alows to draw symbols at the data points.">
<polygon fill="none" stroke="black" points="644,-74 644,-95 774,-95 774,-74 644,-74"/>
<text text-anchor="middle" x="709" y="-81.4" font-family="Helvetica,sans-Serif" font-size="12.00">JKQTPXYLineGraph</text>
</a>
</g>
</g>
<!-- Node2&#45;&gt;Node1 -->
<g id="edge1" class="edge">
<title>Node2&#45;&gt;Node1</title>
<path fill="none" stroke="midnightblue" d="M784.49,-76.34C800.37,-74.6 817.34,-72.74 833.87,-70.93"/>
<polygon fill="midnightblue" stroke="midnightblue" points="783.79,-72.89 774.23,-77.46 784.55,-79.85 783.79,-72.89"/>
</g>
<!-- Node3 -->
<g id="node3" class="node">
<title>Node3</title>
<g id="a_node3"><a xlink:href="class_j_k_q_t_p_x_y_graph.html" target="_top" xlink:title="This virtual JKQTPGraph descendent may be used as base for all graphs that use at least two columns t...">
<polygon fill="none" stroke="black" points="433,-134 433,-155 538,-155 538,-134 433,-134"/>
<text text-anchor="middle" x="485.5" y="-141.4" font-family="Helvetica,sans-Serif" font-size="12.00">JKQTPXYGraph</text>
</a>
</g>
</g>
<!-- Node3&#45;&gt;Node2 -->
<g id="edge2" class="edge">
<title>Node3&#45;&gt;Node2</title>
<path fill="none" stroke="midnightblue" d="M548.04,-132.95C560.02,-130.4 572.45,-127.54 584,-124.5 616.7,-115.9 653.5,-103.7 678.45,-95.04"/>
<polygon fill="midnightblue" stroke="midnightblue" points="547.18,-129.55 538.11,-135.01 548.61,-136.4 547.18,-129.55"/>
</g>
<!-- Node4 -->
<g id="node4" class="node">
<title>Node4</title>
<g id="a_node4"><a xlink:href="class_j_k_q_t_p_graph.html" target="_top" xlink:title="this virtual base class of the (data&#45;column based) graphs, which are part of a JKQTPlotter plot and w...">
<polygon fill="none" stroke="black" points="262,-134 262,-155 351,-155 351,-134 262,-134"/>
<text text-anchor="middle" x="306.5" y="-141.4" font-family="Helvetica,sans-Serif" font-size="12.00">JKQTPGraph</text>
</a>
</g>
</g>
<!-- Node4&#45;&gt;Node3 -->
<g id="edge3" class="edge">
<title>Node4&#45;&gt;Node3</title>
<path fill="none" stroke="midnightblue" d="M361.39,-144.5C384.06,-144.5 410.33,-144.5 432.76,-144.5"/>
<polygon fill="midnightblue" stroke="midnightblue" points="361.25,-141 351.25,-144.5 361.25,-148 361.25,-141"/>
</g>
<!-- Node5 -->
<g id="node5" class="node">
<title>Node5</title>
<g id="a_node5"><a xlink:href="class_j_k_q_t_p_plot_element.html" target="_top" xlink:title="this virtual base class of every element, which is part of a JKQTPlotter plot and may appear in its k...">
<polygon fill="none" stroke="black" points="101,-134 101,-155 226,-155 226,-134 101,-134"/>
<text text-anchor="middle" x="163.5" y="-141.4" font-family="Helvetica,sans-Serif" font-size="12.00">JKQTPPlotElement</text>
</a>
</g>
</g>
<!-- Node5&#45;&gt;Node4 -->
<g id="edge4" class="edge">
<title>Node5&#45;&gt;Node4</title>
<path fill="none" stroke="midnightblue" d="M236.51,-144.5C245.18,-144.5 253.82,-144.5 261.91,-144.5"/>
<polygon fill="midnightblue" stroke="midnightblue" points="236.34,-141 226.34,-144.5 236.34,-148 236.34,-141"/>
</g>
<!-- Node6 -->
<g id="node6" class="node">
<title>Node6</title>
<g id="a_node6"><a xlink:title=" ">
<polygon fill="none" stroke="black" points="0,-134 0,-155 65,-155 65,-134 0,-134"/>
<text text-anchor="middle" x="32.5" y="-141.4" font-family="Helvetica,sans-Serif" font-size="12.00">QObject</text>
</a>
</g>
</g>
<!-- Node6&#45;&gt;Node5 -->
<g id="edge5" class="edge">
<title>Node6&#45;&gt;Node5</title>
<path fill="none" stroke="midnightblue" d="M75.09,-144.5C83.29,-144.5 92.05,-144.5 100.75,-144.5"/>
<polygon fill="midnightblue" stroke="midnightblue" points="75.06,-141 65.06,-144.5 75.06,-148 75.06,-141"/>
</g>
<!-- Node7 -->
<g id="node7" class="node">
<title>Node7</title>
<g id="a_node7"><a xlink:href="class_j_k_q_t_p_graph_line_style_mixin.html" target="_top" xlink:title="This Mix&#45;In class provides setter/getter methods, storage and other facilities for the graph line sty...">
<polygon fill="none" stroke="black" points="398.5,-94 398.5,-115 572.5,-115 572.5,-94 398.5,-94"/>
<text text-anchor="middle" x="485.5" y="-101.4" font-family="Helvetica,sans-Serif" font-size="12.00">JKQTPGraphLineStyleMixin</text>
</a>
</g>
</g>
<!-- Node7&#45;&gt;Node2 -->
<g id="edge6" class="edge">
<title>Node7&#45;&gt;Node2</title>
<path fill="none" stroke="midnightblue" d="M582.85,-95.8C603.5,-93.94 624.84,-92.01 643.92,-90.29"/>
<polygon fill="midnightblue" stroke="midnightblue" points="582.42,-92.33 572.77,-96.71 583.05,-99.3 582.42,-92.33"/>
</g>
<!-- Node8 -->
<g id="node8" class="node">
<title>Node8</title>
<g id="a_node8"><a xlink:href="class_j_k_q_t_p_graph_symbol_style_mixin.html" target="_top" xlink:title="This Mix&#45;In class provides setter/getter methods, storage and other facilities for the graph symbols ...">
<polygon fill="none" stroke="black" points="388.5,-54 388.5,-75 582.5,-75 582.5,-54 388.5,-54"/>
<text text-anchor="middle" x="485.5" y="-61.4" font-family="Helvetica,sans-Serif" font-size="12.00">JKQTPGraphSymbolStyleMixin</text>
</a>
</g>
</g>
<!-- Node8&#45;&gt;Node2 -->
<g id="edge7" class="edge">
<title>Node8&#45;&gt;Node2</title>
<path fill="none" stroke="midnightblue" d="M592.9,-74.11C610.3,-75.68 627.84,-77.26 643.8,-78.7"/>
<polygon fill="midnightblue" stroke="midnightblue" points="592.96,-70.6 582.69,-73.19 592.33,-77.57 592.96,-70.6"/>
</g>
<!-- Node9 -->
<g id="node9" class="node">
<title>Node9</title>
<g id="a_node9"><a xlink:href="class_j_k_q_t_p_graph_lines_compression_mixin.html" target="_top" xlink:title="This Mix&#45;In class provides setter/getter methods, storage and other facilities for a line&#45;graph compr...">
<polygon fill="none" stroke="black" points="387,-0.5 387,-34.5 584,-34.5 584,-0.5 387,-0.5"/>
<text text-anchor="start" x="395" y="-20.9" font-family="Helvetica,sans-Serif" font-size="12.00">JKQTPGraphLinesCompression</text>
<text text-anchor="middle" x="485.5" y="-7.9" font-family="Helvetica,sans-Serif" font-size="12.00">Mixin</text>
</a>
</g>
</g>
<!-- Node9&#45;&gt;Node2 -->
<g id="edge8" class="edge">
<title>Node9&#45;&gt;Node2</title>
<path fill="none" stroke="midnightblue" d="M565.74,-37.72C571.98,-39.84 578.13,-42.1 584,-44.5 600.94,-51.44 602.9,-57.96 620,-64.5 629.66,-68.19 640.19,-71.31 650.49,-73.91"/>
<polygon fill="midnightblue" stroke="midnightblue" points="566.49,-34.29 555.9,-34.53 564.33,-40.94 566.49,-34.29"/>
</g>
<!-- Node10 -->
<g id="node10" class="node">
<title>Node10</title>
<g id="a_node10"><a xlink:href="class_j_k_q_t_p_color_palette_style_and_tools_mixin.html" target="_top" xlink:title="if a class is derived from this class, it may use color bars">
<polygon fill="none" stroke="black" points="620,-20.5 620,-54.5 798,-54.5 798,-20.5 620,-20.5"/>
<text text-anchor="start" x="628" y="-40.9" font-family="Helvetica,sans-Serif" font-size="12.00">JKQTPColorPaletteStyleAnd</text>
<text text-anchor="middle" x="709" y="-27.9" font-family="Helvetica,sans-Serif" font-size="12.00">ToolsMixin</text>
</a>
</g>
</g>
<!-- Node10&#45;&gt;Node1 -->
<g id="edge9" class="edge">
<title>Node10&#45;&gt;Node1</title>
<path fill="none" stroke="midnightblue" d="M808.13,-47.81C816.69,-48.7 825.35,-49.61 833.88,-50.51"/>
<polygon fill="midnightblue" stroke="midnightblue" points="808.44,-44.32 798.13,-46.76 807.71,-51.28 808.44,-44.32"/>
</g>
</g>
</svg>
