<?xml version="1.0" encoding="UTF-8" standalone="no"?>
<!DOCTYPE svg PUBLIC "-//W3C//DTD SVG 1.1//EN"
 "http://www.w3.org/Graphics/SVG/1.1/DTD/svg11.dtd">
<!-- Generated by graphviz version 2.43.0 (0)
 -->
<!-- Title: JKQTMathTextWhitespaceNode Pages: 1 -->
<svg width="526pt" height="127pt"
 viewBox="0.00 0.00 525.50 127.00" xmlns="http://www.w3.org/2000/svg" xmlns:xlink="http://www.w3.org/1999/xlink">
<g id="graph0" class="graph" transform="scale(1 1) rotate(0) translate(4 123)">
<title>JKQTMathTextWhitespaceNode</title>
<!-- Node1 -->
<g id="node1" class="node">
<title>Node1</title>
<g id="a_node1"><a xlink:title="subclass representing one whitepsace node in the syntax tree">
<polygon fill="#bfbfbf" stroke="black" points="280.5,-0.5 280.5,-21.5 471.5,-21.5 471.5,-0.5 280.5,-0.5"/>
<text text-anchor="middle" x="376" y="-7.9" font-family="FreeSans" font-size="12.00">JKQTMathTextWhitespaceNode</text>
</a>
</g>
</g>
<!-- Node2 -->
<g id="node2" class="node">
<title>Node2</title>
<g id="a_node2"><a xlink:href="class_j_k_q_t_math_text_node.html" target="_top" xlink:title="subclass representing one node in the syntax tree">
<polygon fill="none" stroke="black" points="95,-91 95,-112 223,-112 223,-91 95,-91"/>
<text text-anchor="middle" x="159" y="-98.4" font-family="FreeSans" font-size="12.00">JKQTMathTextNode</text>
</a>
</g>
</g>
<!-- Node2&#45;&gt;Node1 -->
<g id="edge1" class="edge">
<title>Node2&#45;&gt;Node1</title>
<path fill="none" stroke="midnightblue" d="M193.37,-87.24C209.66,-80.9 229.37,-73.15 247,-66 284.58,-50.77 328.02,-32.43 353.69,-21.52"/>
<polygon fill="midnightblue" stroke="midnightblue" points="191.77,-84.1 183.72,-90.98 194.3,-90.63 191.77,-84.1"/>
</g>
<!-- Node2&#45;&gt;Node2 -->
<g id="edge5" class="edge">
<title>Node2&#45;&gt;Node2</title>
<path fill="none" stroke="#9a32cd" stroke-dasharray="5,2" d="M233.15,-107.93C238.04,-106.44 241,-104.29 241,-101.5 241,-97.14 233.79,-94.36 223.29,-93.17"/>
<polygon fill="#9a32cd" stroke="#9a32cd" points="232.45,-104.5 223.29,-109.83 233.77,-111.37 232.45,-104.5"/>
<text text-anchor="middle" x="274.5" y="-98.4" font-family="FreeSans" font-size="12.00"> parentNode</text>
</g>
<!-- Node3 -->
<g id="node3" class="node">
<title>Node3</title>
<g id="a_node3"><a xlink:href="class_j_k_q_t_math_text.html" target="_top" xlink:title="this class parses a LaTeX string and can then draw the contained text/equation onto a QPainter">
<polygon fill="none" stroke="black" points="15,-0.5 15,-21.5 113,-21.5 113,-0.5 15,-0.5"/>
<text text-anchor="middle" x="64" y="-7.9" font-family="FreeSans" font-size="12.00">JKQTMathText</text>
</a>
</g>
</g>
<!-- Node2&#45;&gt;Node3 -->
<g id="edge4" class="edge">
<title>Node2&#45;&gt;Node3</title>
<path fill="none" stroke="#9a32cd" stroke-dasharray="5,2" d="M162.25,-80.46C163.18,-67.55 162.06,-51.15 153,-40 143.19,-27.93 128.23,-20.98 113.35,-17"/>
<polygon fill="#9a32cd" stroke="#9a32cd" points="158.73,-80.35 161.04,-90.69 165.69,-81.17 158.73,-80.35"/>
<text text-anchor="middle" x="203" y="-56.4" font-family="FreeSans" font-size="12.00"> parsedNode</text>
<text text-anchor="middle" x="203" y="-43.4" font-family="FreeSans" font-size="12.00">unparsedNode</text>
</g>
<!-- Node3&#45;&gt;Node2 -->
<g id="edge2" class="edge">
<title>Node3&#45;&gt;Node2</title>
<path fill="none" stroke="#9a32cd" stroke-dasharray="5,2" d="M59.26,-31.8C57.79,-42.83 58.07,-56.26 65,-66 73.57,-78.04 86.81,-85.88 100.68,-91"/>
<polygon fill="#9a32cd" stroke="#9a32cd" points="62.73,-32.26 61.13,-21.79 55.85,-30.98 62.73,-32.26"/>
<text text-anchor="middle" x="109" y="-49.9" font-family="FreeSans" font-size="12.00"> parentMathText</text>
</g>
<!-- Node4 -->
<g id="node4" class="node">
<title>Node4</title>
<g id="a_node4"><a xlink:title=" ">
<polygon fill="none" stroke="black" points="0,-91 0,-112 62,-112 62,-91 0,-91"/>
<text text-anchor="middle" x="31" y="-98.4" font-family="FreeSans" font-size="12.00">QObject</text>
</a>
</g>
</g>
<!-- Node4&#45;&gt;Node3 -->
<g id="edge3" class="edge">
<title>Node4&#45;&gt;Node3</title>
<path fill="none" stroke="midnightblue" d="M33.68,-80.76C35.78,-68.64 39.32,-53.01 45,-40 47.87,-33.43 52.32,-26.77 56.19,-21.59"/>
<polygon fill="midnightblue" stroke="midnightblue" points="30.21,-80.3 32.14,-90.72 37.12,-81.38 30.21,-80.3"/>
</g>
<!-- Node5 -->
<g id="node5" class="node">
<title>Node5</title>
<g id="a_node5"><a xlink:href="struct_j_k_q_t_math_text_whitespace_node_1_1_whitespace_props.html" target="_top" xlink:title="describes a whitespace">
<polygon fill="none" stroke="black" points="326.5,-84.5 326.5,-118.5 517.5,-118.5 517.5,-84.5 326.5,-84.5"/>
<text text-anchor="start" x="334.5" y="-104.9" font-family="FreeSans" font-size="12.00">JKQTMathTextWhitespaceNode</text>
<text text-anchor="middle" x="422" y="-91.9" font-family="FreeSans" font-size="12.00">::WhitespaceProps</text>
</a>
</g>
</g>
<!-- Node5&#45;&gt;Node1 -->
<g id="edge6" class="edge">
<title>Node5&#45;&gt;Node1</title>
<path fill="none" stroke="#9a32cd" stroke-dasharray="5,2" d="M408.72,-74.96C399.44,-57.1 387.57,-34.26 380.98,-21.58"/>
<polygon fill="#9a32cd" stroke="#9a32cd" points="405.85,-77.01 413.56,-84.27 412.06,-73.78 405.85,-77.01"/>
<text text-anchor="middle" x="435" y="-49.9" font-family="FreeSans" font-size="12.00"> whitespace</text>
</g>
</g>
</svg>
