<?xml version="1.0" encoding="UTF-8" standalone="no"?>
<!DOCTYPE svg PUBLIC "-//W3C//DTD SVG 1.1//EN"
 "http://www.w3.org/Graphics/SVG/1.1/DTD/svg11.dtd">
<!-- Generated by graphviz version 2.43.0 (0)
 -->
<!-- Title: JKQTPGraphLineAndFillStyleMixin Pages: 1 -->
<!--zoomable 389 -->
<svg id="main" version="1.1" xmlns="http://www.w3.org/2000/svg" xmlns:xlink="http://www.w3.org/1999/xlink" xml:space="preserve" onload="init(evt)">
<style type="text/css"><![CDATA[
.edge:hover path { stroke: red; }
.edge:hover polygon { stroke: red; fill: red; }
]]></style>
<script type="text/javascript"><![CDATA[
var edges = document.getElementsByTagName('g');
if (edges && edges.length) {
  for (var i=0;i<edges.length;i++) {
    if (edges[i].id.substr(0,4)=='edge') {
      edges[i].setAttribute('class','edge');
    }
  }
}
]]></script>
        <defs>
                <circle id="rim" cx="0" cy="0" r="7"/>
                <circle id="rim2" cx="0" cy="0" r="3.5"/>
                <g id="zoomPlus">
                        <use xlink:href="#rim" fill="#404040">
                                <set attributeName="fill" to="#808080" begin="zoomplus.mouseover" end="zoomplus.mouseout"/>
                        </use>
                        <path d="M-4,0h8M0,-4v8" fill="none" stroke="white" stroke-width="1.5" pointer-events="none"/>
                </g>
                <g id="zoomMin">
                        <use xlink:href="#rim" fill="#404040">
                                <set attributeName="fill" to="#808080" begin="zoomminus.mouseover" end="zoomminus.mouseout"/>
                        </use>
                        <path d="M-4,0h8" fill="none" stroke="white" stroke-width="1.5" pointer-events="none"/>
                </g>
                <g id="dirArrow">
                        <path fill="none" stroke="white" stroke-width="1.5" d="M0,-3.0v7 M-2.5,-0.5L0,-3.0L2.5,-0.5"/>
                </g>
               <g id="resetDef">
                       <use xlink:href="#rim2" fill="#404040">
                               <set attributeName="fill" to="#808080" begin="reset.mouseover" end="reset.mouseout"/>
                       </use>
               </g>
        </defs>

<script type="text/javascript">
var viewWidth = 1122;
var viewHeight = 389;
var sectionId = 'dynsection-0';
</script>
<script xlink:href="svgpan.js"/>
<svg id="graph" class="graph">
<g id="viewport">
<title>JKQTPGraphLineAndFillStyleMixin</title>
<!-- Node1 -->
<g id="node1" class="node">
<title>Node1</title>
<g id="a_node1"><a xlink:title="This Mix&#45;In class provides setter/getter methods, storage and other facilities for the graph line and...">
<polygon fill="#999999" stroke="#666666" points="392,-158 210,-158 210,-124 392,-124 392,-158"/>
<text text-anchor="start" x="218" y="-144.4" font-family="Helvetica,sans-Serif" font-size="12.00">JKQTPGraphLineAndFillStyle</text>
<text text-anchor="middle" x="301" y="-131.4" font-family="Helvetica,sans-Serif" font-size="12.00">Mixin</text>
</a>
</g>
</g>
<!-- Node4 -->
<g id="node4" class="node">
<title>Node4</title>
<g id="a_node4"><a xlink:href="class_j_k_q_t_p_evaluated_function_with_errors_graph_drawing_base.html" target="_top" xlink:title="This class extends JKQTPEvaluatedFunctionWithErrorsGraphBase with functions to draw the graphs and se...">
<polygon fill="white" stroke="#666666" points="616,-276 428,-276 428,-242 616,-242 616,-276"/>
<text text-anchor="start" x="436" y="-262.4" font-family="Helvetica,sans-Serif" font-size="12.00">JKQTPEvaluatedFunctionWith</text>
<text text-anchor="middle" x="522" y="-249.4" font-family="Helvetica,sans-Serif" font-size="12.00">ErrorsGraphDrawingBase</text>
</a>
</g>
</g>
<!-- Node1&#45;&gt;Node4 -->
<g id="edge3" class="edge">
<title>Node1&#45;&gt;Node4</title>
<path fill="none" stroke="#63b8ff" d="M342.77,-162.97C385.09,-185.77 450.42,-220.97 489.12,-241.82"/>
<polygon fill="#63b8ff" stroke="#63b8ff" points="344.31,-159.82 333.84,-158.16 340.99,-165.98 344.31,-159.82"/>
</g>
<!-- Node11 -->
<g id="node11" class="node">
<title>Node11</title>
<g id="a_node11"><a xlink:href="class_j_k_q_t_p_filled_curve_graph_base.html" target="_top" xlink:title="a Base class for filled curve graphs like e.g. JKQTPFilledCurveXGraph">
<polygon fill="white" stroke="#666666" points="614,-197.5 430,-197.5 430,-176.5 614,-176.5 614,-197.5"/>
<text text-anchor="middle" x="522" y="-183.9" font-family="Helvetica,sans-Serif" font-size="12.00">JKQTPFilledCurveGraphBase</text>
</a>
</g>
</g>
<!-- Node1&#45;&gt;Node11 -->
<g id="edge10" class="edge">
<title>Node1&#45;&gt;Node11</title>
<path fill="none" stroke="#63b8ff" d="M393.3,-160.18C419.8,-165.74 447.75,-171.61 470.73,-176.44"/>
<polygon fill="#63b8ff" stroke="#63b8ff" points="393.74,-156.69 383.24,-158.06 392.3,-163.54 393.74,-156.69"/>
</g>
<!-- Node16 -->
<g id="node16" class="node">
<title>Node16</title>
<g id="a_node16"><a xlink:href="class_j_k_q_t_p_filled_horizontal_range_graph.html" target="_top" xlink:title="This implements filled curve plots where the area is filled between two data columns for each y&#45;value...">
<polygon fill="white" stroke="#666666" points="613,-158 431,-158 431,-124 613,-124 613,-158"/>
<text text-anchor="start" x="439" y="-144.4" font-family="Helvetica,sans-Serif" font-size="12.00">JKQTPFilledHorizontalRange</text>
<text text-anchor="middle" x="522" y="-131.4" font-family="Helvetica,sans-Serif" font-size="12.00">Graph</text>
</a>
</g>
</g>
<!-- Node1&#45;&gt;Node16 -->
<g id="edge15" class="edge">
<title>Node1&#45;&gt;Node16</title>
<path fill="none" stroke="#63b8ff" d="M402.03,-141C411.68,-141 421.43,-141 430.97,-141"/>
<polygon fill="#63b8ff" stroke="#63b8ff" points="402.02,-137.5 392.02,-141 402.02,-144.5 402.02,-137.5"/>
</g>
<!-- Node17 -->
<g id="node17" class="node">
<title>Node17</title>
<g id="a_node17"><a xlink:href="class_j_k_q_t_p_filled_vertical_range_graph.html" target="_top" xlink:title="This implements filled curve plots where the area is filled between two data columns for each x&#45;value...">
<polygon fill="white" stroke="#666666" points="605,-106 439,-106 439,-72 605,-72 605,-106"/>
<text text-anchor="start" x="447" y="-92.4" font-family="Helvetica,sans-Serif" font-size="12.00">JKQTPFilledVerticalRange</text>
<text text-anchor="middle" x="522" y="-79.4" font-family="Helvetica,sans-Serif" font-size="12.00">Graph</text>
</a>
</g>
</g>
<!-- Node1&#45;&gt;Node17 -->
<g id="edge16" class="edge">
<title>Node1&#45;&gt;Node17</title>
<path fill="none" stroke="#63b8ff" d="M383.49,-121.65C405.03,-116.54 428.13,-111.05 449.13,-106.06"/>
<polygon fill="#63b8ff" stroke="#63b8ff" points="382.63,-118.26 373.71,-123.97 384.25,-125.07 382.63,-118.26"/>
</g>
<!-- Node18 -->
<g id="node18" class="node">
<title>Node18</title>
<g id="a_node18"><a xlink:href="class_j_k_q_t_p_special_line_graph_base.html" target="_top" xlink:title="a Base class for special line graphs (steps ...) like e.g. JKQTPSpecialLineHorizontalGraph">
<polygon fill="white" stroke="#666666" points="615,-53.5 429,-53.5 429,-32.5 615,-32.5 615,-53.5"/>
<text text-anchor="middle" x="522" y="-39.9" font-family="Helvetica,sans-Serif" font-size="12.00">JKQTPSpecialLineGraphBase</text>
</a>
</g>
</g>
<!-- Node1&#45;&gt;Node18 -->
<g id="edge17" class="edge">
<title>Node1&#45;&gt;Node18</title>
<path fill="none" stroke="#63b8ff" d="M332.6,-117.88C357.17,-100.37 393.21,-77.02 428,-63 437.34,-59.23 447.52,-56.13 457.59,-53.58"/>
<polygon fill="#63b8ff" stroke="#63b8ff" points="330.46,-115.11 324.4,-123.8 334.56,-120.78 330.46,-115.11"/>
</g>
<!-- Node2 -->
<g id="node2" class="node">
<title>Node2</title>
<g id="a_node2"><a xlink:href="class_j_k_q_t_p_graph_fill_style_mixin.html" target="_top" xlink:title="This Mix&#45;In class provides setter/getter methods, storage and other facilities for the graph filling ...">
<polygon fill="white" stroke="#666666" points="169,-171.5 5,-171.5 5,-150.5 169,-150.5 169,-171.5"/>
<text text-anchor="middle" x="87" y="-157.9" font-family="Helvetica,sans-Serif" font-size="12.00">JKQTPGraphFillStyleMixin</text>
</a>
</g>
</g>
<!-- Node2&#45;&gt;Node1 -->
<g id="edge1" class="edge">
<title>Node2&#45;&gt;Node1</title>
<path fill="none" stroke="#63b8ff" d="M179.14,-152.4C189.3,-151.44 199.65,-150.47 209.8,-149.51"/>
<polygon fill="#63b8ff" stroke="#63b8ff" points="178.68,-148.93 169.06,-153.35 179.34,-155.9 178.68,-148.93"/>
</g>
<!-- Node3 -->
<g id="node3" class="node">
<title>Node3</title>
<g id="a_node3"><a xlink:href="class_j_k_q_t_p_graph_line_style_mixin.html" target="_top" xlink:title="This Mix&#45;In class provides setter/getter methods, storage and other facilities for the graph line sty...">
<polygon fill="white" stroke="#666666" points="174,-132.5 0,-132.5 0,-111.5 174,-111.5 174,-132.5"/>
<text text-anchor="middle" x="87" y="-118.9" font-family="Helvetica,sans-Serif" font-size="12.00">JKQTPGraphLineStyleMixin</text>
</a>
</g>
</g>
<!-- Node3&#45;&gt;Node1 -->
<g id="edge2" class="edge">
<title>Node3&#45;&gt;Node1</title>
<path fill="none" stroke="#63b8ff" d="M184.44,-130.64C192.85,-131.4 201.35,-132.16 209.71,-132.91"/>
<polygon fill="#63b8ff" stroke="#63b8ff" points="184.5,-127.13 174.23,-129.73 183.88,-134.11 184.5,-127.13"/>
</g>
<!-- Node5 -->
<g id="node5" class="node">
<title>Node5</title>
<g id="a_node5"><a xlink:href="class_j_k_q_t_p_functor_line_graph_base.html" target="_top" xlink:title="extends JKQTPEvaluatedFunctionWithErrorsGraphDrawingBase with the capabilities to define functions fr...">
<polygon fill="white" stroke="#666666" points="863,-341.5 675,-341.5 675,-320.5 863,-320.5 863,-341.5"/>
<text text-anchor="middle" x="769" y="-327.9" font-family="Helvetica,sans-Serif" font-size="12.00">JKQTPFunctorLineGraphBase</text>
</a>
</g>
</g>
<!-- Node4&#45;&gt;Node5 -->
<g id="edge4" class="edge">
<title>Node4&#45;&gt;Node5</title>
<path fill="none" stroke="#63b8ff" d="M590.9,-278.95C636.59,-292.38 695.02,-309.55 731.99,-320.42"/>
<polygon fill="#63b8ff" stroke="#63b8ff" points="591.64,-275.52 581.06,-276.06 589.67,-282.24 591.64,-275.52"/>
</g>
<!-- Node8 -->
<g id="node8" class="node">
<title>Node8</title>
<g id="a_node8"><a xlink:href="class_j_k_q_t_p_parsed_function_line_graph_base.html" target="_top" xlink:title="extends JKQTPEvaluatedFunctionWithErrorsGraphDrawingBase with the capabilities to define functions fr...">
<polygon fill="white" stroke="#666666" points="886,-269.5 652,-269.5 652,-248.5 886,-248.5 886,-269.5"/>
<text text-anchor="middle" x="769" y="-255.9" font-family="Helvetica,sans-Serif" font-size="12.00">JKQTPParsedFunctionLineGraphBase</text>
</a>
</g>
</g>
<!-- Node4&#45;&gt;Node8 -->
<g id="edge7" class="edge">
<title>Node4&#45;&gt;Node8</title>
<path fill="none" stroke="#63b8ff" d="M626.49,-259C634.88,-259 643.4,-259 651.88,-259"/>
<polygon fill="#63b8ff" stroke="#63b8ff" points="626.32,-255.5 616.32,-259 626.32,-262.5 626.32,-255.5"/>
</g>
<!-- Node6 -->
<g id="node6" class="node">
<title>Node6</title>
<g id="a_node6"><a xlink:href="class_j_k_q_t_p_x_function_line_graph.html" target="_top" xlink:title="This implements line plots where the data is taken from a user supplied function .">
<polygon fill="white" stroke="#666666" points="1104.5,-380.5 931.5,-380.5 931.5,-359.5 1104.5,-359.5 1104.5,-380.5"/>
<text text-anchor="middle" x="1018" y="-366.9" font-family="Helvetica,sans-Serif" font-size="12.00">JKQTPXFunctionLineGraph</text>
</a>
</g>
</g>
<!-- Node5&#45;&gt;Node6 -->
<g id="edge5" class="edge">
<title>Node5&#45;&gt;Node6</title>
<path fill="none" stroke="#63b8ff" d="M846.64,-343.1C879.85,-348.34 918.36,-354.43 950.36,-359.48"/>
<polygon fill="#63b8ff" stroke="#63b8ff" points="846.94,-339.61 836.52,-341.5 845.85,-346.52 846.94,-339.61"/>
</g>
<!-- Node7 -->
<g id="node7" class="node">
<title>Node7</title>
<g id="a_node7"><a xlink:href="class_j_k_q_t_p_y_function_line_graph.html" target="_top" xlink:title="This implements line plots where the data is taken from a user supplied function .">
<polygon fill="white" stroke="#666666" points="1103.5,-341.5 932.5,-341.5 932.5,-320.5 1103.5,-320.5 1103.5,-341.5"/>
<text text-anchor="middle" x="1018" y="-327.9" font-family="Helvetica,sans-Serif" font-size="12.00">JKQTPYFunctionLineGraph</text>
</a>
</g>
</g>
<!-- Node5&#45;&gt;Node7 -->
<g id="edge6" class="edge">
<title>Node5&#45;&gt;Node7</title>
<path fill="none" stroke="#63b8ff" d="M873.22,-331C892.86,-331 913.2,-331 932.19,-331"/>
<polygon fill="#63b8ff" stroke="#63b8ff" points="873.03,-327.5 863.03,-331 873.03,-334.5 873.03,-327.5"/>
</g>
<!-- Node9 -->
<g id="node9" class="node">
<title>Node9</title>
<g id="a_node9"><a xlink:href="class_j_k_q_t_p_x_parsed_function_line_graph.html" target="_top" xlink:title="This implements line plots where the data is taken from a user supplied function &#160;The function is def...">
<polygon fill="white" stroke="#666666" points="1106,-302 930,-302 930,-268 1106,-268 1106,-302"/>
<text text-anchor="start" x="938" y="-288.4" font-family="Helvetica,sans-Serif" font-size="12.00">JKQTPXParsedFunctionLine</text>
<text text-anchor="middle" x="1018" y="-275.4" font-family="Helvetica,sans-Serif" font-size="12.00">Graph</text>
</a>
</g>
</g>
<!-- Node8&#45;&gt;Node9 -->
<g id="edge8" class="edge">
<title>Node8&#45;&gt;Node9</title>
<path fill="none" stroke="#63b8ff" d="M880.1,-270.59C896.82,-272.35 913.86,-274.14 929.99,-275.84"/>
<polygon fill="#63b8ff" stroke="#63b8ff" points="880.06,-267.07 869.75,-269.5 879.33,-274.03 880.06,-267.07"/>
</g>
<!-- Node10 -->
<g id="node10" class="node">
<title>Node10</title>
<g id="a_node10"><a xlink:href="class_j_k_q_t_p_y_parsed_function_line_graph.html" target="_top" xlink:title="This implements line plots where the data is taken from a user supplied function &#160;The function is def...">
<polygon fill="white" stroke="#666666" points="1105.5,-250 930.5,-250 930.5,-216 1105.5,-216 1105.5,-250"/>
<text text-anchor="start" x="938.5" y="-236.4" font-family="Helvetica,sans-Serif" font-size="12.00">JKQTPYParsedFunctionLine</text>
<text text-anchor="middle" x="1018" y="-223.4" font-family="Helvetica,sans-Serif" font-size="12.00">Graph</text>
</a>
</g>
</g>
<!-- Node8&#45;&gt;Node10 -->
<g id="edge9" class="edge">
<title>Node8&#45;&gt;Node10</title>
<path fill="none" stroke="#63b8ff" d="M879.7,-247.45C896.67,-245.67 914,-243.84 930.38,-242.12"/>
<polygon fill="#63b8ff" stroke="#63b8ff" points="879.33,-243.97 869.75,-248.5 880.06,-250.93 879.33,-243.97"/>
</g>
<!-- Node12 -->
<g id="node12" class="node">
<title>Node12</title>
<g id="a_node12"><a xlink:href="class_j_k_q_t_p_filled_curve_x_graph.html" target="_top" xlink:title="This implements filled curve plots where the area is filled between the plot line and the x&#45;Axis.">
<polygon fill="white" stroke="#666666" points="850.5,-197.5 687.5,-197.5 687.5,-176.5 850.5,-176.5 850.5,-197.5"/>
<text text-anchor="middle" x="769" y="-183.9" font-family="Helvetica,sans-Serif" font-size="12.00">JKQTPFilledCurveXGraph</text>
</a>
</g>
</g>
<!-- Node11&#45;&gt;Node12 -->
<g id="edge11" class="edge">
<title>Node11&#45;&gt;Node12</title>
<path fill="none" stroke="#63b8ff" d="M624.42,-187C645.34,-187 667.11,-187 687.18,-187"/>
<polygon fill="#63b8ff" stroke="#63b8ff" points="624.23,-183.5 614.23,-187 624.23,-190.5 624.23,-183.5"/>
</g>
<!-- Node14 -->
<g id="node14" class="node">
<title>Node14</title>
<g id="a_node14"><a xlink:href="class_j_k_q_t_p_filled_curve_y_graph.html" target="_top" xlink:title="This implements filled curve plots where the area is filled between the plot line and y&#45;Axis.">
<polygon fill="white" stroke="#666666" points="850,-158.5 688,-158.5 688,-137.5 850,-137.5 850,-158.5"/>
<text text-anchor="middle" x="769" y="-144.9" font-family="Helvetica,sans-Serif" font-size="12.00">JKQTPFilledCurveYGraph</text>
</a>
</g>
</g>
<!-- Node11&#45;&gt;Node14 -->
<g id="edge13" class="edge">
<title>Node11&#45;&gt;Node14</title>
<path fill="none" stroke="#63b8ff" d="M599.02,-174.9C631.96,-169.66 670.16,-163.57 701.9,-158.52"/>
<polygon fill="#63b8ff" stroke="#63b8ff" points="598.3,-171.47 588.98,-176.5 599.4,-178.38 598.3,-171.47"/>
</g>
<!-- Node13 -->
<g id="node13" class="node">
<title>Node13</title>
<g id="a_node13"><a xlink:href="class_j_k_q_t_p_filled_curve_x_error_graph.html" target="_top" xlink:title="This implements filled curve plots with y errors where the area is filled between the plot line and t...">
<polygon fill="white" stroke="#666666" points="1114,-197.5 922,-197.5 922,-176.5 1114,-176.5 1114,-197.5"/>
<text text-anchor="middle" x="1018" y="-183.9" font-family="Helvetica,sans-Serif" font-size="12.00">JKQTPFilledCurveXErrorGraph</text>
</a>
</g>
</g>
<!-- Node12&#45;&gt;Node13 -->
<g id="edge12" class="edge">
<title>Node12&#45;&gt;Node13</title>
<path fill="none" stroke="#63b8ff" d="M860.55,-187C880.55,-187 901.79,-187 921.96,-187"/>
<polygon fill="#63b8ff" stroke="#63b8ff" points="860.54,-183.5 850.54,-187 860.54,-190.5 860.54,-183.5"/>
</g>
<!-- Node15 -->
<g id="node15" class="node">
<title>Node15</title>
<g id="a_node15"><a xlink:href="class_j_k_q_t_p_filled_curve_y_error_graph.html" target="_top" xlink:title="This implements filled curve plots with y errors where the area is filled between the plot line and t...">
<polygon fill="white" stroke="#666666" points="1113.5,-158.5 922.5,-158.5 922.5,-137.5 1113.5,-137.5 1113.5,-158.5"/>
<text text-anchor="middle" x="1018" y="-144.9" font-family="Helvetica,sans-Serif" font-size="12.00">JKQTPFilledCurveYErrorGraph</text>
</a>
</g>
</g>
<!-- Node14&#45;&gt;Node15 -->
<g id="edge14" class="edge">
<title>Node14&#45;&gt;Node15</title>
<path fill="none" stroke="#63b8ff" d="M860.28,-148C880.42,-148 901.83,-148 922.15,-148"/>
<polygon fill="#63b8ff" stroke="#63b8ff" points="860.19,-144.5 850.19,-148 860.19,-151.5 860.19,-144.5"/>
</g>
<!-- Node19 -->
<g id="node19" class="node">
<title>Node19</title>
<g id="a_node19"><a xlink:href="class_j_k_q_t_p_special_line_horizontal_graph.html" target="_top" xlink:title="This implements a step plot with values .">
<polygon fill="white" stroke="#666666" points="859.5,-86 678.5,-86 678.5,-52 859.5,-52 859.5,-86"/>
<text text-anchor="start" x="686.5" y="-72.4" font-family="Helvetica,sans-Serif" font-size="12.00">JKQTPSpecialLineHorizontal</text>
<text text-anchor="middle" x="769" y="-59.4" font-family="Helvetica,sans-Serif" font-size="12.00">Graph</text>
</a>
</g>
</g>
<!-- Node18&#45;&gt;Node19 -->
<g id="edge18" class="edge">
<title>Node18&#45;&gt;Node19</title>
<path fill="none" stroke="#63b8ff" d="M625.51,-53.88C643.02,-55.74 661.09,-57.65 678.24,-59.47"/>
<polygon fill="#63b8ff" stroke="#63b8ff" points="625.59,-50.37 615.27,-52.79 624.85,-57.33 625.59,-50.37"/>
</g>
<!-- Node20 -->
<g id="node20" class="node">
<title>Node20</title>
<g id="a_node20"><a xlink:href="class_j_k_q_t_p_special_line_vertical_graph.html" target="_top" xlink:title="This implements a step plot with values .">
<polygon fill="white" stroke="#666666" points="851.5,-34 686.5,-34 686.5,0 851.5,0 851.5,-34"/>
<text text-anchor="start" x="694.5" y="-20.4" font-family="Helvetica,sans-Serif" font-size="12.00">JKQTPSpecialLineVertical</text>
<text text-anchor="middle" x="769" y="-7.4" font-family="Helvetica,sans-Serif" font-size="12.00">Graph</text>
</a>
</g>
</g>
<!-- Node18&#45;&gt;Node20 -->
<g id="edge19" class="edge">
<title>Node18&#45;&gt;Node20</title>
<path fill="none" stroke="#63b8ff" d="M625.48,-32.12C645.76,-29.97 666.79,-27.74 686.27,-25.67"/>
<polygon fill="#63b8ff" stroke="#63b8ff" points="624.85,-28.67 615.27,-33.21 625.59,-35.63 624.85,-28.67"/>
</g>
</g>
</svg>
        <g id="navigator" transform="translate(0 0)" fill="#404254">
                <rect fill="#f2f5e9" fill-opacity="0.5" stroke="#606060" stroke-width=".5" x="0" y="0" width="60" height="60"/>
                <use id="zoomplus" xlink:href="#zoomPlus" x="17" y="9" onmousedown="handleZoom(evt,'in')"/>
                <use id="zoomminus" xlink:href="#zoomMin" x="42" y="9" onmousedown="handleZoom(evt,'out')"/>
                <use id="reset" xlink:href="#resetDef" x="30" y="36" onmousedown="handleReset()"/>
                <g id="arrowUp" xlink:href="#dirArrow" transform="translate(30 24)" onmousedown="handlePan(0,-1)">
                  <use xlink:href="#rim" fill="#404040">
                        <set attributeName="fill" to="#808080" begin="arrowUp.mouseover" end="arrowUp.mouseout"/>
                  </use>
                  <path fill="none" stroke="white" stroke-width="1.5" d="M0,-3.0v7 M-2.5,-0.5L0,-3.0L2.5,-0.5"/>
                </g>
                <g id="arrowRight" xlink:href="#dirArrow" transform="rotate(90) translate(36 -43)" onmousedown="handlePan(1,0)">
                  <use xlink:href="#rim" fill="#404040">
                        <set attributeName="fill" to="#808080" begin="arrowRight.mouseover" end="arrowRight.mouseout"/>
                  </use>
                  <path fill="none" stroke="white" stroke-width="1.5" d="M0,-3.0v7 M-2.5,-0.5L0,-3.0L2.5,-0.5"/>
                </g>
                <g id="arrowDown" xlink:href="#dirArrow" transform="rotate(180) translate(-30 -48)" onmousedown="handlePan(0,1)">
                  <use xlink:href="#rim" fill="#404040">
                        <set attributeName="fill" to="#808080" begin="arrowDown.mouseover" end="arrowDown.mouseout"/>
                  </use>
                  <path fill="none" stroke="white" stroke-width="1.5" d="M0,-3.0v7 M-2.5,-0.5L0,-3.0L2.5,-0.5"/>
                </g>
                <g id="arrowLeft" xlink:href="#dirArrow" transform="rotate(270) translate(-36 17)" onmousedown="handlePan(-1,0)">
                  <use xlink:href="#rim" fill="#404040">
                        <set attributeName="fill" to="#808080" begin="arrowLeft.mouseover" end="arrowLeft.mouseout"/>
                  </use>
                  <path fill="none" stroke="white" stroke-width="1.5" d="M0,-3.0v7 M-2.5,-0.5L0,-3.0L2.5,-0.5"/>
                </g>
        </g>
        <svg viewBox="0 0 15 15" width="100%" height="30px" preserveAspectRatio="xMaxYMin meet">
         <g id="arrow_out" transform="scale(0.3 0.3)">
          <a xlink:href="class_j_k_q_t_p_graph_line_and_fill_style_mixin__inherit__graph_org.svg" target="_base">
           <rect id="button" ry="5" rx="5" y="6" x="6" height="38" width="38"
                fill="#f2f5e9" fill-opacity="0.5" stroke="#606060" stroke-width="1.0"/>
           <path id="arrow"
             d="M 11.500037,31.436501 C 11.940474,20.09759 22.043105,11.32322 32.158766,21.979434 L 37.068811,17.246167 C 37.068811,17.246167 37.088388,32 37.088388,32 L 22.160133,31.978069 C 22.160133,31.978069 26.997745,27.140456 26.997745,27.140456 C 18.528582,18.264221 13.291696,25.230495 11.500037,31.436501 z"
             style="fill:#404040;"/>
          </a>
         </g>
        </svg>
</svg>
