<?xml version="1.0" encoding="UTF-8" standalone="no"?>
<!DOCTYPE svg PUBLIC "-//W3C//DTD SVG 1.1//EN"
 "http://www.w3.org/Graphics/SVG/1.1/DTD/svg11.dtd">
<!-- Generated by graphviz version 2.43.0 (0)
 -->
<!-- Title: JKQTMathTextSingleChildNode Pages: 1 -->
<svg width="585pt" height="230pt"
 viewBox="0.00 0.00 585.00 230.00" xmlns="http://www.w3.org/2000/svg" xmlns:xlink="http://www.w3.org/1999/xlink">
<g id="graph0" class="graph" transform="scale(1 1) rotate(0) translate(4 226)">
<title>JKQTMathTextSingleChildNode</title>
<!-- Node1 -->
<g id="node1" class="node">
<title>Node1</title>
<g id="a_node1"><a xlink:title="subclass representing a node in the syntax tree, that has one child">
<polygon fill="#bfbfbf" stroke="black" points="164,-100.5 164,-121.5 352,-121.5 352,-100.5 164,-100.5"/>
<text text-anchor="middle" x="258" y="-107.9" font-family="FreeSans" font-size="12.00">JKQTMathTextSingleChildNode</text>
</a>
</g>
</g>
<!-- Node3 -->
<g id="node3" class="node">
<title>Node3</title>
<g id="a_node3"><a xlink:href="class_j_k_q_t_math_text_brace_node.html" target="_top" xlink:title="subclass representing a brace node">
<polygon fill="none" stroke="black" points="403,-200.5 403,-221.5 562,-221.5 562,-200.5 403,-200.5"/>
<text text-anchor="middle" x="482.5" y="-207.9" font-family="FreeSans" font-size="12.00">JKQTMathTextBraceNode</text>
</a>
</g>
</g>
<!-- Node1&#45;&gt;Node3 -->
<g id="edge2" class="edge">
<title>Node1&#45;&gt;Node3</title>
<path fill="none" stroke="midnightblue" d="M280.73,-127.76C305.4,-145.99 347.51,-174.69 388,-191 397.39,-194.78 407.62,-197.9 417.75,-200.45"/>
<polygon fill="midnightblue" stroke="midnightblue" points="282.56,-124.76 272.46,-121.57 278.36,-130.36 282.56,-124.76"/>
</g>
<!-- Node4 -->
<g id="node4" class="node">
<title>Node4</title>
<g id="a_node4"><a xlink:href="class_j_k_q_t_math_text_decorated_node.html" target="_top" xlink:title="subclass representing a decorated text m (e.g. \vec \hat ...) node">
<polygon fill="none" stroke="black" points="391.5,-160.5 391.5,-181.5 573.5,-181.5 573.5,-160.5 391.5,-160.5"/>
<text text-anchor="middle" x="482.5" y="-167.9" font-family="FreeSans" font-size="12.00">JKQTMathTextDecoratedNode</text>
</a>
</g>
</g>
<!-- Node1&#45;&gt;Node4 -->
<g id="edge3" class="edge">
<title>Node1&#45;&gt;Node4</title>
<path fill="none" stroke="midnightblue" d="M299.92,-124.72C325.15,-132.92 358.26,-143.23 388,-151 400.85,-154.36 414.8,-157.57 427.9,-160.4"/>
<polygon fill="midnightblue" stroke="midnightblue" points="300.91,-121.36 290.32,-121.58 298.73,-128.02 300.91,-121.36"/>
</g>
<!-- Node5 -->
<g id="node5" class="node">
<title>Node5</title>
<g id="a_node5"><a xlink:href="class_j_k_q_t_math_text_instruction1_node.html" target="_top" xlink:title="subclass representing an instruction node with exactly one argument in the syntax tree">
<polygon fill="none" stroke="black" points="388,-120.5 388,-141.5 577,-141.5 577,-120.5 388,-120.5"/>
<text text-anchor="middle" x="482.5" y="-127.9" font-family="FreeSans" font-size="12.00">JKQTMathTextInstruction1Node</text>
</a>
</g>
</g>
<!-- Node1&#45;&gt;Node5 -->
<g id="edge4" class="edge">
<title>Node1&#45;&gt;Node5</title>
<path fill="none" stroke="midnightblue" d="M362.07,-120.26C370.63,-121.03 379.25,-121.81 387.73,-122.57"/>
<polygon fill="midnightblue" stroke="midnightblue" points="362.34,-116.78 352.07,-119.37 361.72,-123.75 362.34,-116.78"/>
</g>
<!-- Node6 -->
<g id="node6" class="node">
<title>Node6</title>
<g id="a_node6"><a xlink:href="class_j_k_q_t_math_text_sqrt_node.html" target="_top" xlink:title="subclass representing a sqrt node">
<polygon fill="none" stroke="black" points="408,-80.5 408,-101.5 557,-101.5 557,-80.5 408,-80.5"/>
<text text-anchor="middle" x="482.5" y="-87.9" font-family="FreeSans" font-size="12.00">JKQTMathTextSqrtNode</text>
</a>
</g>
</g>
<!-- Node1&#45;&gt;Node6 -->
<g id="edge5" class="edge">
<title>Node1&#45;&gt;Node6</title>
<path fill="none" stroke="midnightblue" d="M362.14,-101.73C377.53,-100.35 393.12,-98.94 407.74,-97.63"/>
<polygon fill="midnightblue" stroke="midnightblue" points="361.72,-98.25 352.07,-102.63 362.34,-105.22 361.72,-98.25"/>
</g>
<!-- Node7 -->
<g id="node7" class="node">
<title>Node7</title>
<g id="a_node7"><a xlink:href="class_j_k_q_t_math_text_subscript_node.html" target="_top" xlink:title="subclass representing an subscript node with exactly one argument in the syntax tree">
<polygon fill="none" stroke="black" points="393.5,-40.5 393.5,-61.5 571.5,-61.5 571.5,-40.5 393.5,-40.5"/>
<text text-anchor="middle" x="482.5" y="-47.9" font-family="FreeSans" font-size="12.00">JKQTMathTextSubscriptNode</text>
</a>
</g>
</g>
<!-- Node1&#45;&gt;Node7 -->
<g id="edge6" class="edge">
<title>Node1&#45;&gt;Node7</title>
<path fill="none" stroke="midnightblue" d="M299.92,-97.28C325.15,-89.08 358.26,-78.77 388,-71 400.85,-67.64 414.8,-64.43 427.9,-61.6"/>
<polygon fill="midnightblue" stroke="midnightblue" points="298.73,-93.98 290.32,-100.42 300.91,-100.64 298.73,-93.98"/>
</g>
<!-- Node8 -->
<g id="node8" class="node">
<title>Node8</title>
<g id="a_node8"><a xlink:href="class_j_k_q_t_math_text_superscript_node.html" target="_top" xlink:title="subclass representing an superscript node with exactly one argument in the syntax tree">
<polygon fill="none" stroke="black" points="388.5,-0.5 388.5,-21.5 576.5,-21.5 576.5,-0.5 388.5,-0.5"/>
<text text-anchor="middle" x="482.5" y="-7.9" font-family="FreeSans" font-size="12.00">JKQTMathTextSuperscriptNode</text>
</a>
</g>
</g>
<!-- Node1&#45;&gt;Node8 -->
<g id="edge7" class="edge">
<title>Node1&#45;&gt;Node8</title>
<path fill="none" stroke="midnightblue" d="M280.73,-94.24C305.4,-76.01 347.51,-47.31 388,-31 397.39,-27.22 407.62,-24.1 417.75,-21.55"/>
<polygon fill="midnightblue" stroke="midnightblue" points="278.36,-91.64 272.46,-100.43 282.56,-97.24 278.36,-91.64"/>
</g>
<!-- Node2 -->
<g id="node2" class="node">
<title>Node2</title>
<g id="a_node2"><a xlink:href="class_j_k_q_t_math_text_node.html" target="_top" xlink:title="subclass representing one node in the syntax tree">
<polygon fill="none" stroke="black" points="0,-100.5 0,-121.5 128,-121.5 128,-100.5 0,-100.5"/>
<text text-anchor="middle" x="64" y="-107.9" font-family="FreeSans" font-size="12.00">JKQTMathTextNode</text>
</a>
</g>
</g>
<!-- Node2&#45;&gt;Node1 -->
<g id="edge1" class="edge">
<title>Node2&#45;&gt;Node1</title>
<path fill="none" stroke="midnightblue" d="M138.25,-111C146.65,-111 155.3,-111 163.93,-111"/>
<polygon fill="midnightblue" stroke="midnightblue" points="138.13,-107.5 128.13,-111 138.13,-114.5 138.13,-107.5"/>
</g>
</g>
</svg>
