<?xml version="1.0" encoding="UTF-8" standalone="no"?>
<!DOCTYPE svg PUBLIC "-//W3C//DTD SVG 1.1//EN"
 "http://www.w3.org/Graphics/SVG/1.1/DTD/svg11.dtd">
<!-- Generated by graphviz version 2.43.0 (0)
 -->
<!-- Title: JKQTFPVCrossPlot Pages: 1 -->
<svg width="301pt" height="278pt"
 viewBox="0.00 0.00 301.00 278.00" xmlns="http://www.w3.org/2000/svg" xmlns:xlink="http://www.w3.org/1999/xlink">
<g id="graph0" class="graph" transform="scale(1 1) rotate(0) translate(4 274)">
<title>JKQTFPVCrossPlot</title>
<!-- Node1 -->
<g id="node1" class="node">
<title>Node1</title>
<g id="a_node1"><a xlink:title="a simple plot that draws a cross for every datapoint">
<polygon fill="#999999" stroke="#666666" points="127.5,-21 5.5,-21 5.5,0 127.5,0 127.5,-21"/>
<text text-anchor="middle" x="66.5" y="-7.4" font-family="Helvetica,sans-Serif" font-size="12.00">JKQTFPVCrossPlot</text>
</a>
</g>
</g>
<!-- Node2 -->
<g id="node2" class="node">
<title>Node2</title>
<g id="a_node2"><a xlink:href="class_j_k_q_t_f_p_line_plot.html" target="_top" xlink:title="a simple line plot for JKQTFastPlotter">
<polygon fill="white" stroke="#666666" points="120,-79 13,-79 13,-58 120,-58 120,-79"/>
<text text-anchor="middle" x="66.5" y="-65.4" font-family="Helvetica,sans-Serif" font-size="12.00">JKQTFPLinePlot</text>
</a>
</g>
</g>
<!-- Node2&#45;&gt;Node1 -->
<g id="edge1" class="edge">
<title>Node2&#45;&gt;Node1</title>
<path fill="none" stroke="#63b8ff" d="M66.5,-47.66C66.5,-38.66 66.5,-28.42 66.5,-21.14"/>
<polygon fill="#63b8ff" stroke="#63b8ff" points="63,-47.75 66.5,-57.75 70,-47.75 63,-47.75"/>
</g>
<!-- Node3 -->
<g id="node3" class="node">
<title>Node3</title>
<g id="a_node3"><a xlink:href="class_j_k_q_t_f_p_plot.html" target="_top" xlink:title="base class for all plots that may be plotted by JKQTFastPlotter">
<polygon fill="white" stroke="#666666" points="107.5,-137 25.5,-137 25.5,-116 107.5,-116 107.5,-137"/>
<text text-anchor="middle" x="66.5" y="-123.4" font-family="Helvetica,sans-Serif" font-size="12.00">JKQTFPPlot</text>
</a>
</g>
</g>
<!-- Node3&#45;&gt;Node2 -->
<g id="edge2" class="edge">
<title>Node3&#45;&gt;Node2</title>
<path fill="none" stroke="#63b8ff" d="M66.5,-105.66C66.5,-96.66 66.5,-86.42 66.5,-79.14"/>
<polygon fill="#63b8ff" stroke="#63b8ff" points="63,-105.75 66.5,-115.75 70,-105.75 63,-105.75"/>
</g>
<!-- Node4 -->
<g id="node4" class="node">
<title>Node4</title>
<g id="a_node4"><a xlink:title=" ">
<polygon fill="white" stroke="#666666" points="65,-209.5 0,-209.5 0,-188.5 65,-188.5 65,-209.5"/>
<text text-anchor="middle" x="32.5" y="-195.9" font-family="Helvetica,sans-Serif" font-size="12.00">QObject</text>
</a>
</g>
</g>
<!-- Node4&#45;&gt;Node3 -->
<g id="edge3" class="edge">
<title>Node4&#45;&gt;Node3</title>
<path fill="none" stroke="#63b8ff" d="M41.58,-179.17C48.08,-165.7 56.56,-148.1 61.77,-137.31"/>
<polygon fill="#63b8ff" stroke="#63b8ff" points="38.28,-177.96 37.09,-188.49 44.58,-181.01 38.28,-177.96"/>
</g>
<!-- Node5 -->
<g id="node5" class="node">
<title>Node5</title>
<g id="a_node5"><a xlink:href="class_j_k_q_t_fast_plotter.html" target="_top" xlink:title="a speed optimized plotter class">
<polygon fill="white" stroke="#666666" points="192,-209.5 83,-209.5 83,-188.5 192,-188.5 192,-209.5"/>
<text text-anchor="middle" x="137.5" y="-195.9" font-family="Helvetica,sans-Serif" font-size="12.00">JKQTFastPlotter</text>
</a>
</g>
</g>
<!-- Node5&#45;&gt;Node3 -->
<g id="edge4" class="edge">
<title>Node5&#45;&gt;Node3</title>
<path fill="none" stroke="#9a32cd" stroke-dasharray="5,2" d="M120.5,-181.12C106.72,-167.44 87.78,-148.63 76.38,-137.31"/>
<polygon fill="#9a32cd" stroke="#9a32cd" points="118.36,-183.93 127.92,-188.49 123.29,-178.96 118.36,-183.93"/>
<text text-anchor="middle" x="127" y="-158.4" font-family="Helvetica,sans-Serif" font-size="12.00"> parent</text>
</g>
<!-- Node5&#45;&gt;Node5 -->
<g id="edge6" class="edge">
<title>Node5&#45;&gt;Node5</title>
<path fill="none" stroke="#9a32cd" stroke-dasharray="5,2" d="M202.41,-203.15C207.12,-202.22 210,-200.83 210,-199 210,-196.07 202.62,-194.29 192.2,-193.64"/>
<polygon fill="#9a32cd" stroke="#9a32cd" points="201.72,-199.71 192.2,-204.36 202.54,-206.66 201.72,-199.71"/>
<text text-anchor="middle" x="251.5" y="-202.4" font-family="Helvetica,sans-Serif" font-size="12.00"> synchronizeX</text>
<text text-anchor="middle" x="251.5" y="-189.4" font-family="Helvetica,sans-Serif" font-size="12.00">synchronizeY</text>
</g>
<!-- Node6 -->
<g id="node6" class="node">
<title>Node6</title>
<g id="a_node6"><a xlink:title=" ">
<polygon fill="white" stroke="#666666" points="194.5,-270 80.5,-270 80.5,-249 194.5,-249 194.5,-270"/>
<text text-anchor="middle" x="137.5" y="-256.4" font-family="Helvetica,sans-Serif" font-size="12.00">QOpenGLWidget</text>
</a>
</g>
</g>
<!-- Node6&#45;&gt;Node5 -->
<g id="edge5" class="edge">
<title>Node6&#45;&gt;Node5</title>
<path fill="none" stroke="#63b8ff" d="M137.5,-238.8C137.5,-229.07 137.5,-217.76 137.5,-209.87"/>
<polygon fill="#63b8ff" stroke="#63b8ff" points="134,-238.84 137.5,-248.84 141,-238.84 134,-238.84"/>
</g>
</g>
</svg>
