<?xml version="1.0" encoding="UTF-8" standalone="no"?>
<!DOCTYPE svg PUBLIC "-//W3C//DTD SVG 1.1//EN"
 "http://www.w3.org/Graphics/SVG/1.1/DTD/svg11.dtd">
<!-- Generated by graphviz version 2.43.0 (0)
 -->
<!-- Title: JKQTPBoxplotVerticalElement Pages: 1 -->
<svg width="498pt" height="204pt"
 viewBox="0.00 0.00 497.50 204.00" xmlns="http://www.w3.org/2000/svg" xmlns:xlink="http://www.w3.org/1999/xlink">
<g id="graph0" class="graph" transform="scale(1 1) rotate(0) translate(4 200)">
<title>JKQTPBoxplotVerticalElement</title>
<!-- Node1 -->
<g id="node1" class="node">
<title>Node1</title>
<g id="a_node1"><a xlink:title="This implements a single vertical (notched) boxplot as a &quot;geometric element&quot;, where the data is direc...">
<polygon fill="#bfbfbf" stroke="black" points="56,-0.5 56,-21.5 247,-21.5 247,-0.5 56,-0.5"/>
<text text-anchor="middle" x="151.5" y="-7.9" font-family="Helvetica,sans-Serif" font-size="12.00">JKQTPBoxplotVerticalElement</text>
</a>
</g>
</g>
<!-- Node2 -->
<g id="node2" class="node">
<title>Node2</title>
<g id="a_node2"><a xlink:href="class_j_k_q_t_p_boxplot_element_base.html" target="_top" xlink:title="Tbaseclass for a single (notched) boxplot as a &quot;geometric element&quot;, where the data is directly given ...">
<polygon fill="none" stroke="black" points="63.5,-58.5 63.5,-79.5 239.5,-79.5 239.5,-58.5 63.5,-58.5"/>
<text text-anchor="middle" x="151.5" y="-65.9" font-family="Helvetica,sans-Serif" font-size="12.00">JKQTPBoxplotElementBase</text>
</a>
</g>
</g>
<!-- Node2&#45;&gt;Node1 -->
<g id="edge1" class="edge">
<title>Node2&#45;&gt;Node1</title>
<path fill="none" stroke="midnightblue" d="M151.5,-48.16C151.5,-39.16 151.5,-28.92 151.5,-21.64"/>
<polygon fill="midnightblue" stroke="midnightblue" points="148,-48.25 151.5,-58.25 155,-48.25 148,-48.25"/>
</g>
<!-- Node3 -->
<g id="node3" class="node">
<title>Node3</title>
<g id="a_node3"><a xlink:href="class_j_k_q_t_p_plot_element.html" target="_top" xlink:title="this virtual base class of every element, which is part of a JKQTPlotter plot and may appear in its k...">
<polygon fill="none" stroke="black" points="0,-116.5 0,-137.5 125,-137.5 125,-116.5 0,-116.5"/>
<text text-anchor="middle" x="62.5" y="-123.9" font-family="Helvetica,sans-Serif" font-size="12.00">JKQTPPlotElement</text>
</a>
</g>
</g>
<!-- Node3&#45;&gt;Node2 -->
<g id="edge2" class="edge">
<title>Node3&#45;&gt;Node2</title>
<path fill="none" stroke="midnightblue" d="M86.71,-110.77C102.48,-100.85 122.58,-88.2 136.18,-79.64"/>
<polygon fill="midnightblue" stroke="midnightblue" points="84.6,-107.96 78,-116.25 88.33,-113.88 84.6,-107.96"/>
</g>
<!-- Node4 -->
<g id="node4" class="node">
<title>Node4</title>
<g id="a_node4"><a xlink:title=" ">
<polygon fill="none" stroke="black" points="30,-174.5 30,-195.5 95,-195.5 95,-174.5 30,-174.5"/>
<text text-anchor="middle" x="62.5" y="-181.9" font-family="Helvetica,sans-Serif" font-size="12.00">QObject</text>
</a>
</g>
</g>
<!-- Node4&#45;&gt;Node3 -->
<g id="edge3" class="edge">
<title>Node4&#45;&gt;Node3</title>
<path fill="none" stroke="midnightblue" d="M62.5,-164.16C62.5,-155.16 62.5,-144.92 62.5,-137.64"/>
<polygon fill="midnightblue" stroke="midnightblue" points="59,-164.25 62.5,-174.25 66,-164.25 59,-164.25"/>
</g>
<!-- Node5 -->
<g id="node5" class="node">
<title>Node5</title>
<g id="a_node5"><a xlink:href="class_j_k_q_t_p_graph_boxplot_style_mixin.html" target="_top" xlink:title="Styling Mix&#45;In for Boxplots.">
<polygon fill="none" stroke="black" points="143.5,-116.5 143.5,-137.5 337.5,-137.5 337.5,-116.5 143.5,-116.5"/>
<text text-anchor="middle" x="240.5" y="-123.9" font-family="Helvetica,sans-Serif" font-size="12.00">JKQTPGraphBoxplotStyleMixin</text>
</a>
</g>
</g>
<!-- Node5&#45;&gt;Node2 -->
<g id="edge4" class="edge">
<title>Node5&#45;&gt;Node2</title>
<path fill="none" stroke="midnightblue" d="M216.29,-110.77C200.52,-100.85 180.42,-88.2 166.82,-79.64"/>
<polygon fill="midnightblue" stroke="midnightblue" points="214.67,-113.88 225,-116.25 218.4,-107.96 214.67,-113.88"/>
</g>
<!-- Node6 -->
<g id="node6" class="node">
<title>Node6</title>
<g id="a_node6"><a xlink:href="class_j_k_q_t_p_graph_line_style_mixin.html" target="_top" xlink:title="This Mix&#45;In class provides setter/getter methods, storage and other facilities for the graph line sty...">
<polygon fill="none" stroke="black" points="133.5,-174.5 133.5,-195.5 307.5,-195.5 307.5,-174.5 133.5,-174.5"/>
<text text-anchor="middle" x="220.5" y="-181.9" font-family="Helvetica,sans-Serif" font-size="12.00">JKQTPGraphLineStyleMixin</text>
</a>
</g>
</g>
<!-- Node6&#45;&gt;Node5 -->
<g id="edge5" class="edge">
<title>Node6&#45;&gt;Node5</title>
<path fill="none" stroke="midnightblue" d="M227.38,-164.75C230.64,-155.61 234.4,-145.08 237.06,-137.64"/>
<polygon fill="midnightblue" stroke="midnightblue" points="224.05,-163.65 223.98,-174.25 230.64,-166.01 224.05,-163.65"/>
</g>
<!-- Node7 -->
<g id="node7" class="node">
<title>Node7</title>
<g id="a_node7"><a xlink:href="class_j_k_q_t_p_graph_fill_style_mixin.html" target="_top" xlink:title="This Mix&#45;In class provides setter/getter methods, storage and other facilities for the graph filling ...">
<polygon fill="none" stroke="black" points="325.5,-174.5 325.5,-195.5 489.5,-195.5 489.5,-174.5 325.5,-174.5"/>
<text text-anchor="middle" x="407.5" y="-181.9" font-family="Helvetica,sans-Serif" font-size="12.00">JKQTPGraphFillStyleMixin</text>
</a>
</g>
</g>
<!-- Node7&#45;&gt;Node5 -->
<g id="edge6" class="edge">
<title>Node7&#45;&gt;Node5</title>
<path fill="none" stroke="midnightblue" d="M369.3,-171.19C338.7,-160.93 296.47,-146.77 268.83,-137.5"/>
<polygon fill="midnightblue" stroke="midnightblue" points="368.2,-174.51 378.79,-174.37 370.42,-167.88 368.2,-174.51"/>
</g>
</g>
</svg>
