<?xml version="1.0" encoding="UTF-8" standalone="no"?>
<!DOCTYPE svg PUBLIC "-//W3C//DTD SVG 1.1//EN"
 "http://www.w3.org/Graphics/SVG/1.1/DTD/svg11.dtd">
<!-- Generated by graphviz version 2.43.0 (0)
 -->
<!-- Title: JKQTPXYGraphErrors Pages: 1 -->
<svg width="533pt" height="159pt"
 viewBox="0.00 0.00 533.00 159.00" xmlns="http://www.w3.org/2000/svg" xmlns:xlink="http://www.w3.org/1999/xlink">
<g id="graph0" class="graph" transform="scale(1 1) rotate(0) translate(4 155)">
<title>JKQTPXYGraphErrors</title>
<!-- Node1 -->
<g id="node1" class="node">
<title>Node1</title>
<g id="a_node1"><a xlink:title="This class is the base class for graphs that only display error indicators in x&#45; and y&#45;direction.">
<polygon fill="#bfbfbf" stroke="black" points="180.5,-71.5 180.5,-92.5 320.5,-92.5 320.5,-71.5 180.5,-71.5"/>
<text text-anchor="middle" x="250.5" y="-78.9" font-family="Helvetica,sans-Serif" font-size="12.00">JKQTPXYGraphErrors</text>
</a>
</g>
</g>
<!-- Node5 -->
<g id="node5" class="node">
<title>Node5</title>
<g id="a_node5"><a xlink:href="class_j_k_q_t_p_x_y_line_error_graph.html" target="_top" xlink:title="This implements xy line plots with x and y error indicators.">
<polygon fill="none" stroke="black" points="78,-7 78,-28 237,-28 237,-7 78,-7"/>
<text text-anchor="middle" x="157.5" y="-14.4" font-family="Helvetica,sans-Serif" font-size="12.00">JKQTPXYLineErrorGraph</text>
</a>
</g>
</g>
<!-- Node1&#45;&gt;Node5 -->
<g id="edge4" class="edge">
<title>Node1&#45;&gt;Node5</title>
<path fill="none" stroke="midnightblue" d="M227.49,-65.54C210.1,-53.85 186.77,-38.17 171.93,-28.2"/>
<polygon fill="midnightblue" stroke="midnightblue" points="225.72,-68.56 235.97,-71.23 229.62,-62.75 225.72,-68.56"/>
</g>
<!-- Node6 -->
<g id="node6" class="node">
<title>Node6</title>
<g id="a_node6"><a xlink:href="class_j_k_q_t_p_x_y_parametrized_error_scatter_graph.html" target="_top" xlink:title="This implements xy scatter plots (like JKQTPXYLineGraph), but the color and size of the symbols may b...">
<polygon fill="none" stroke="black" points="254.5,-0.5 254.5,-34.5 432.5,-34.5 432.5,-0.5 254.5,-0.5"/>
<text text-anchor="start" x="262.5" y="-20.9" font-family="Helvetica,sans-Serif" font-size="12.00">JKQTPXYParametrizedError</text>
<text text-anchor="middle" x="343.5" y="-7.9" font-family="Helvetica,sans-Serif" font-size="12.00">ScatterGraph</text>
</a>
</g>
</g>
<!-- Node1&#45;&gt;Node6 -->
<g id="edge5" class="edge">
<title>Node1&#45;&gt;Node6</title>
<path fill="none" stroke="midnightblue" d="M273.62,-65.46C287.65,-56.04 305.51,-44.03 319.67,-34.51"/>
<polygon fill="midnightblue" stroke="midnightblue" points="271.38,-62.75 265.03,-71.23 275.28,-68.56 271.38,-62.75"/>
</g>
<!-- Node2 -->
<g id="node2" class="node">
<title>Node2</title>
<g id="a_node2"><a xlink:href="class_j_k_q_t_p_x_graph_error_data.html" target="_top" xlink:title="This class adds data fields for error indicators in x direction.">
<polygon fill="none" stroke="black" points="0,-129.5 0,-150.5 155,-150.5 155,-129.5 0,-129.5"/>
<text text-anchor="middle" x="77.5" y="-136.9" font-family="Helvetica,sans-Serif" font-size="12.00">JKQTPXGraphErrorData</text>
</a>
</g>
</g>
<!-- Node2&#45;&gt;Node1 -->
<g id="edge1" class="edge">
<title>Node2&#45;&gt;Node1</title>
<path fill="none" stroke="midnightblue" d="M117.07,-126.19C148.77,-115.93 192.52,-101.77 221.15,-92.5"/>
<polygon fill="midnightblue" stroke="midnightblue" points="115.68,-122.96 107.24,-129.37 117.83,-129.62 115.68,-122.96"/>
</g>
<!-- Node3 -->
<g id="node3" class="node">
<title>Node3</title>
<g id="a_node3"><a xlink:href="class_j_k_q_t_p_y_graph_error_data.html" target="_top" xlink:title="This class adds data fields for error indicators in y direction.">
<polygon fill="none" stroke="black" points="173.5,-129.5 173.5,-150.5 327.5,-150.5 327.5,-129.5 173.5,-129.5"/>
<text text-anchor="middle" x="250.5" y="-136.9" font-family="Helvetica,sans-Serif" font-size="12.00">JKQTPYGraphErrorData</text>
</a>
</g>
</g>
<!-- Node3&#45;&gt;Node1 -->
<g id="edge2" class="edge">
<title>Node3&#45;&gt;Node1</title>
<path fill="none" stroke="midnightblue" d="M250.5,-119.16C250.5,-110.16 250.5,-99.92 250.5,-92.64"/>
<polygon fill="midnightblue" stroke="midnightblue" points="247,-119.25 250.5,-129.25 254,-119.25 247,-119.25"/>
</g>
<!-- Node4 -->
<g id="node4" class="node">
<title>Node4</title>
<g id="a_node4"><a xlink:href="class_j_k_q_t_p_graph_error_style_mixin.html" target="_top" xlink:title="This mix&#45;in class assembles all styling properties applicable to error indicators.">
<polygon fill="none" stroke="black" points="346,-129.5 346,-150.5 525,-150.5 525,-129.5 346,-129.5"/>
<text text-anchor="middle" x="435.5" y="-136.9" font-family="Helvetica,sans-Serif" font-size="12.00">JKQTPGraphErrorStyleMixin</text>
</a>
</g>
</g>
<!-- Node4&#45;&gt;Node1 -->
<g id="edge3" class="edge">
<title>Node4&#45;&gt;Node1</title>
<path fill="none" stroke="midnightblue" d="M394.06,-126.46C360.1,-116.18 312.77,-101.85 281.89,-92.5"/>
<polygon fill="midnightblue" stroke="midnightblue" points="393.11,-129.83 403.7,-129.37 395.14,-123.13 393.11,-129.83"/>
</g>
</g>
</svg>
