<?xml version="1.0" encoding="UTF-8" standalone="no"?>
<!DOCTYPE svg PUBLIC "-//W3C//DTD SVG 1.1//EN"
 "http://www.w3.org/Graphics/SVG/1.1/DTD/svg11.dtd">
<!-- Generated by graphviz version 2.43.0 (0)
 -->
<!-- Title: JKQTMathTextVerticalListNode Pages: 1 -->
<svg width="408pt" height="173pt"
 viewBox="0.00 0.00 407.50 173.00" xmlns="http://www.w3.org/2000/svg" xmlns:xlink="http://www.w3.org/1999/xlink">
<g id="graph0" class="graph" transform="scale(1 1) rotate(0) translate(4 169)">
<title>JKQTMathTextVerticalListNode</title>
<!-- Node1 -->
<g id="node1" class="node">
<title>Node1</title>
<g id="a_node1"><a xlink:title="subclass representing a list of nodes in the syntax tree, layed out vertically">
<polygon fill="#bfbfbf" stroke="black" points="0,-0.5 0,-21.5 196,-21.5 196,-0.5 0,-0.5"/>
<text text-anchor="middle" x="98" y="-7.9" font-family="Helvetica,sans-Serif" font-size="12.00">JKQTMathTextVerticalListNode</text>
</a>
</g>
</g>
<!-- Node2 -->
<g id="node2" class="node">
<title>Node2</title>
<g id="a_node2"><a xlink:href="class_j_k_q_t_math_text_multi_child_node.html" target="_top" xlink:title="subclass representing a node in the syntax tree, that has two children">
<polygon fill="none" stroke="black" points="4,-59.5 4,-80.5 192,-80.5 192,-59.5 4,-59.5"/>
<text text-anchor="middle" x="98" y="-66.9" font-family="Helvetica,sans-Serif" font-size="12.00">JKQTMathTextMultiChildNode</text>
</a>
</g>
</g>
<!-- Node2&#45;&gt;Node1 -->
<g id="edge1" class="edge">
<title>Node2&#45;&gt;Node1</title>
<path fill="none" stroke="midnightblue" d="M98,-49.23C98,-39.85 98,-29.07 98,-21.53"/>
<polygon fill="midnightblue" stroke="midnightblue" points="94.5,-49.33 98,-59.33 101.5,-49.33 94.5,-49.33"/>
</g>
<!-- Node3 -->
<g id="node3" class="node">
<title>Node3</title>
<g id="a_node3"><a xlink:href="class_j_k_q_t_math_text_node.html" target="_top" xlink:title="subclass representing one node in the syntax tree">
<polygon fill="none" stroke="black" points="78.5,-143.5 78.5,-164.5 209.5,-164.5 209.5,-143.5 78.5,-143.5"/>
<text text-anchor="middle" x="144" y="-150.9" font-family="Helvetica,sans-Serif" font-size="12.00">JKQTMathTextNode</text>
</a>
</g>
</g>
<!-- Node3&#45;&gt;Node2 -->
<g id="edge2" class="edge">
<title>Node3&#45;&gt;Node2</title>
<path fill="none" stroke="midnightblue" d="M128.98,-135.22C126.5,-131.92 124.07,-128.43 122,-125 113.11,-110.24 105.55,-91.59 101.41,-80.52"/>
<polygon fill="midnightblue" stroke="midnightblue" points="126.46,-137.68 135.43,-143.33 131.94,-133.32 126.46,-137.68"/>
</g>
<!-- Node3&#45;&gt;Node3 -->
<g id="edge6" class="edge">
<title>Node3&#45;&gt;Node3</title>
<path fill="none" stroke="#9a32cd" stroke-dasharray="5,2" d="M219.67,-159.58C224.55,-158.28 227.5,-156.42 227.5,-154 227.5,-150.23 220.31,-147.81 209.81,-146.75"/>
<polygon fill="#9a32cd" stroke="#9a32cd" points="219.08,-156.13 209.81,-161.25 220.25,-163.03 219.08,-156.13"/>
<text text-anchor="middle" x="265" y="-150.9" font-family="Helvetica,sans-Serif" font-size="12.00"> parentNode</text>
</g>
<!-- Node4 -->
<g id="node4" class="node">
<title>Node4</title>
<g id="a_node4"><a xlink:href="class_j_k_q_t_math_text.html" target="_top" xlink:title="this class parses a LaTeX string and can then draw the contained text/equation onto a QPainter">
<polygon fill="none" stroke="black" points="210.5,-59.5 210.5,-80.5 309.5,-80.5 309.5,-59.5 210.5,-59.5"/>
<text text-anchor="middle" x="260" y="-66.9" font-family="Helvetica,sans-Serif" font-size="12.00">JKQTMathText</text>
</a>
</g>
</g>
<!-- Node3&#45;&gt;Node4 -->
<g id="edge5" class="edge">
<title>Node3&#45;&gt;Node4</title>
<path fill="none" stroke="#9a32cd" stroke-dasharray="5,2" d="M137.05,-133.68C134.32,-122.42 133.4,-108.59 141,-99 145.55,-93.26 179.77,-85.57 210.36,-79.7"/>
<polygon fill="#9a32cd" stroke="#9a32cd" points="133.76,-134.9 140,-143.46 140.46,-132.88 133.76,-134.9"/>
<text text-anchor="middle" x="185" y="-115.4" font-family="Helvetica,sans-Serif" font-size="12.00"> parsedNode</text>
<text text-anchor="middle" x="185" y="-102.4" font-family="Helvetica,sans-Serif" font-size="12.00">unparsedNode</text>
</g>
<!-- Node4&#45;&gt;Node3 -->
<g id="edge3" class="edge">
<title>Node4&#45;&gt;Node3</title>
<path fill="none" stroke="#9a32cd" stroke-dasharray="5,2" d="M254.51,-90.5C250.35,-102.01 243.5,-116.04 233,-125 223.14,-133.41 210.75,-139.29 198.38,-143.42"/>
<polygon fill="#9a32cd" stroke="#9a32cd" points="257.89,-91.44 257.62,-80.85 251.22,-89.3 257.89,-91.44"/>
<text text-anchor="middle" x="299.5" y="-108.9" font-family="Helvetica,sans-Serif" font-size="12.00"> parentMathText</text>
</g>
<!-- Node5 -->
<g id="node5" class="node">
<title>Node5</title>
<g id="a_node5"><a xlink:title=" ">
<polygon fill="none" stroke="black" points="334.5,-143.5 334.5,-164.5 399.5,-164.5 399.5,-143.5 334.5,-143.5"/>
<text text-anchor="middle" x="367" y="-150.9" font-family="Helvetica,sans-Serif" font-size="12.00">QObject</text>
</a>
</g>
</g>
<!-- Node5&#45;&gt;Node4 -->
<g id="edge4" class="edge">
<title>Node5&#45;&gt;Node4</title>
<path fill="none" stroke="midnightblue" d="M366.48,-132.96C365.15,-121.65 361.66,-108 353,-99 341.66,-87.21 325.56,-80.34 309.94,-76.35"/>
<polygon fill="midnightblue" stroke="midnightblue" points="363.01,-133.52 367.2,-143.25 369.99,-133.03 363.01,-133.52"/>
</g>
</g>
</svg>
