<?xml version="1.0" encoding="UTF-8" standalone="no"?>
<!DOCTYPE svg PUBLIC "-//W3C//DTD SVG 1.1//EN"
 "http://www.w3.org/Graphics/SVG/1.1/DTD/svg11.dtd">
<!-- Generated by graphviz version 2.43.0 (0)
 -->
<!-- Title: JKQTPMathImage Pages: 1 -->
<!--zoomable 462 -->
<svg id="main" version="1.1" xmlns="http://www.w3.org/2000/svg" xmlns:xlink="http://www.w3.org/1999/xlink" xml:space="preserve" onload="init(evt)">
<style type="text/css"><![CDATA[
.edge:hover path { stroke: red; }
.edge:hover polygon { stroke: red; fill: red; }
]]></style>
<script type="text/javascript"><![CDATA[
var edges = document.getElementsByTagName('g');
if (edges && edges.length) {
  for (var i=0;i<edges.length;i++) {
    if (edges[i].id.substr(0,4)=='edge') {
      edges[i].setAttribute('class','edge');
    }
  }
}
]]></script>
        <defs>
                <circle id="rim" cx="0" cy="0" r="7"/>
                <circle id="rim2" cx="0" cy="0" r="3.5"/>
                <g id="zoomPlus">
                        <use xlink:href="#rim" fill="#404040">
                                <set attributeName="fill" to="#808080" begin="zoomplus.mouseover" end="zoomplus.mouseout"/>
                        </use>
                        <path d="M-4,0h8M0,-4v8" fill="none" stroke="white" stroke-width="1.5" pointer-events="none"/>
                </g>
                <g id="zoomMin">
                        <use xlink:href="#rim" fill="#404040">
                                <set attributeName="fill" to="#808080" begin="zoomminus.mouseover" end="zoomminus.mouseout"/>
                        </use>
                        <path d="M-4,0h8" fill="none" stroke="white" stroke-width="1.5" pointer-events="none"/>
                </g>
                <g id="dirArrow">
                        <path fill="none" stroke="white" stroke-width="1.5" d="M0,-3.0v7 M-2.5,-0.5L0,-3.0L2.5,-0.5"/>
                </g>
               <g id="resetDef">
                       <use xlink:href="#rim2" fill="#404040">
                               <set attributeName="fill" to="#808080" begin="reset.mouseover" end="reset.mouseout"/>
                       </use>
               </g>
        </defs>

<script type="text/javascript">
var viewWidth = 376;
var viewHeight = 462;
var sectionId = 'dynsection-0';
</script>
<script xlink:href="svgpan.js"/>
<svg id="graph" class="graph">
<g id="viewport">
<title>JKQTPMathImage</title>
<!-- Node1 -->
<g id="node1" class="node">
<title>Node1</title>
<g id="a_node1"><a xlink:title="class to plot an image from an 2&#45;dimensional array of values">
<polygon fill="#bfbfbf" stroke="black" points="110.5,-116.5 110.5,-137.5 231.5,-137.5 231.5,-116.5 110.5,-116.5"/>
<text text-anchor="middle" x="171" y="-123.9" font-family="Helvetica,sans-Serif" font-size="12.00">JKQTPMathImage</text>
</a>
</g>
</g>
<!-- Node9 -->
<g id="node9" class="node">
<title>Node9</title>
<g id="a_node9"><a xlink:href="class_j_k_q_t_p_column_math_image.html" target="_top" xlink:title="class to plot an image from an 2&#45;dimensional array of values stored in a column of the datastore">
<polygon fill="none" stroke="black" points="6.5,-58.5 6.5,-79.5 173.5,-79.5 173.5,-58.5 6.5,-58.5"/>
<text text-anchor="middle" x="90" y="-65.9" font-family="Helvetica,sans-Serif" font-size="12.00">JKQTPColumnMathImage</text>
</a>
</g>
</g>
<!-- Node1&#45;&gt;Node9 -->
<g id="edge8" class="edge">
<title>Node1&#45;&gt;Node9</title>
<path fill="none" stroke="midnightblue" d="M148.57,-110.49C134.27,-100.61 116.21,-88.12 103.95,-79.64"/>
<polygon fill="midnightblue" stroke="midnightblue" points="146.67,-113.44 156.89,-116.25 150.66,-107.68 146.67,-113.44"/>
</g>
<!-- Node10 -->
<g id="node10" class="node">
<title>Node10</title>
<g id="a_node10"><a xlink:href="class_j_k_q_t_p_contour_plot.html" target="_top" xlink:title="class for a contour plot">
<polygon fill="none" stroke="black" points="191.5,-58.5 191.5,-79.5 314.5,-79.5 314.5,-58.5 191.5,-58.5"/>
<text text-anchor="middle" x="253" y="-65.9" font-family="Helvetica,sans-Serif" font-size="12.00">JKQTPContourPlot</text>
</a>
</g>
</g>
<!-- Node1&#45;&gt;Node10 -->
<g id="edge9" class="edge">
<title>Node1&#45;&gt;Node10</title>
<path fill="none" stroke="midnightblue" d="M193.71,-110.49C208.18,-100.61 226.47,-88.12 238.88,-79.64"/>
<polygon fill="midnightblue" stroke="midnightblue" points="191.57,-107.72 185.28,-116.25 195.52,-113.5 191.57,-107.72"/>
</g>
<!-- Node2 -->
<g id="node2" class="node">
<title>Node2</title>
<g id="a_node2"><a xlink:href="class_j_k_q_t_p_math_image_base.html" target="_top" xlink:title="base class to hold an image from an 2&#45;dimensional array of values">
<polygon fill="none" stroke="black" points="0,-181 0,-202 150,-202 150,-181 0,-181"/>
<text text-anchor="middle" x="75" y="-188.4" font-family="Helvetica,sans-Serif" font-size="12.00">JKQTPMathImageBase</text>
</a>
</g>
</g>
<!-- Node2&#45;&gt;Node1 -->
<g id="edge1" class="edge">
<title>Node2&#45;&gt;Node1</title>
<path fill="none" stroke="midnightblue" d="M98.75,-175.04C116.7,-163.35 140.79,-147.67 156.11,-137.7"/>
<polygon fill="midnightblue" stroke="midnightblue" points="96.47,-172.35 90,-180.73 100.29,-178.21 96.47,-172.35"/>
</g>
<!-- Node3 -->
<g id="node3" class="node">
<title>Node3</title>
<g id="a_node3"><a xlink:href="class_j_k_q_t_p_image_base.html" target="_top" xlink:title="base class for plotting an image">
<polygon fill="none" stroke="black" points="15,-252 15,-273 135,-273 135,-252 15,-252"/>
<text text-anchor="middle" x="75" y="-259.4" font-family="Helvetica,sans-Serif" font-size="12.00">JKQTPImageBase</text>
</a>
</g>
</g>
<!-- Node3&#45;&gt;Node2 -->
<g id="edge2" class="edge">
<title>Node3&#45;&gt;Node2</title>
<path fill="none" stroke="midnightblue" d="M75,-241.59C75,-228.58 75,-212.18 75,-202.01"/>
<polygon fill="midnightblue" stroke="midnightblue" points="71.5,-241.91 75,-251.91 78.5,-241.91 71.5,-241.91"/>
</g>
<!-- Node4 -->
<g id="node4" class="node">
<title>Node4</title>
<g id="a_node4"><a xlink:href="class_j_k_q_t_p_graph.html" target="_top" xlink:title="this virtual base class of the (data&#45;column based) graphs, which are part of a JKQTPlotter plot and w...">
<polygon fill="none" stroke="black" points="30.5,-316.5 30.5,-337.5 119.5,-337.5 119.5,-316.5 30.5,-316.5"/>
<text text-anchor="middle" x="75" y="-323.9" font-family="Helvetica,sans-Serif" font-size="12.00">JKQTPGraph</text>
</a>
</g>
</g>
<!-- Node4&#45;&gt;Node3 -->
<g id="edge3" class="edge">
<title>Node4&#45;&gt;Node3</title>
<path fill="none" stroke="midnightblue" d="M75,-305.93C75,-295.06 75,-282.11 75,-273.4"/>
<polygon fill="midnightblue" stroke="midnightblue" points="71.5,-306.23 75,-316.23 78.5,-306.23 71.5,-306.23"/>
</g>
<!-- Node5 -->
<g id="node5" class="node">
<title>Node5</title>
<g id="a_node5"><a xlink:href="class_j_k_q_t_p_plot_element.html" target="_top" xlink:title="this virtual base class of every element, which is part of a JKQTPlotter plot and may appear in its k...">
<polygon fill="none" stroke="black" points="12.5,-374.5 12.5,-395.5 137.5,-395.5 137.5,-374.5 12.5,-374.5"/>
<text text-anchor="middle" x="75" y="-381.9" font-family="Helvetica,sans-Serif" font-size="12.00">JKQTPPlotElement</text>
</a>
</g>
</g>
<!-- Node5&#45;&gt;Node4 -->
<g id="edge4" class="edge">
<title>Node5&#45;&gt;Node4</title>
<path fill="none" stroke="midnightblue" d="M75,-364.16C75,-355.16 75,-344.92 75,-337.64"/>
<polygon fill="midnightblue" stroke="midnightblue" points="71.5,-364.25 75,-374.25 78.5,-364.25 71.5,-364.25"/>
</g>
<!-- Node6 -->
<g id="node6" class="node">
<title>Node6</title>
<g id="a_node6"><a xlink:title=" ">
<polygon fill="none" stroke="black" points="42.5,-432.5 42.5,-453.5 107.5,-453.5 107.5,-432.5 42.5,-432.5"/>
<text text-anchor="middle" x="75" y="-439.9" font-family="Helvetica,sans-Serif" font-size="12.00">QObject</text>
</a>
</g>
</g>
<!-- Node6&#45;&gt;Node5 -->
<g id="edge5" class="edge">
<title>Node6&#45;&gt;Node5</title>
<path fill="none" stroke="midnightblue" d="M75,-422.16C75,-413.16 75,-402.92 75,-395.64"/>
<polygon fill="midnightblue" stroke="midnightblue" points="71.5,-422.25 75,-432.25 78.5,-422.25 71.5,-422.25"/>
</g>
<!-- Node7 -->
<g id="node7" class="node">
<title>Node7</title>
<g id="a_node7"><a xlink:href="class_j_k_q_t_p_color_palette_with_modifier_style_and_tools_mixin.html" target="_top" xlink:title="if a class is derived from this class, it may use color bars that have 2 axes (one &quot;data&quot;/color axis ...">
<polygon fill="none" stroke="black" points="168,-174.5 168,-208.5 368,-208.5 368,-174.5 168,-174.5"/>
<text text-anchor="start" x="176" y="-194.9" font-family="Helvetica,sans-Serif" font-size="12.00">JKQTPColorPaletteWithModifier</text>
<text text-anchor="middle" x="268" y="-181.9" font-family="Helvetica,sans-Serif" font-size="12.00">StyleAndToolsMixin</text>
</a>
</g>
</g>
<!-- Node7&#45;&gt;Node1 -->
<g id="edge6" class="edge">
<title>Node7&#45;&gt;Node1</title>
<path fill="none" stroke="midnightblue" d="M234.18,-168.71C217.71,-158.1 198.75,-145.88 185.93,-137.62"/>
<polygon fill="midnightblue" stroke="midnightblue" points="232.72,-171.93 243.02,-174.4 236.51,-166.05 232.72,-171.93"/>
</g>
<!-- Node8 -->
<g id="node8" class="node">
<title>Node8</title>
<g id="a_node8"><a xlink:href="class_j_k_q_t_p_color_palette_style_and_tools_mixin.html" target="_top" xlink:title="if a class is derived from this class, it may use color bars">
<polygon fill="none" stroke="black" points="179,-245.5 179,-279.5 357,-279.5 357,-245.5 179,-245.5"/>
<text text-anchor="start" x="187" y="-265.9" font-family="Helvetica,sans-Serif" font-size="12.00">JKQTPColorPaletteStyleAnd</text>
<text text-anchor="middle" x="268" y="-252.9" font-family="Helvetica,sans-Serif" font-size="12.00">ToolsMixin</text>
</a>
</g>
</g>
<!-- Node8&#45;&gt;Node7 -->
<g id="edge7" class="edge">
<title>Node8&#45;&gt;Node7</title>
<path fill="none" stroke="midnightblue" d="M268,-235.25C268,-226.39 268,-216.77 268,-208.9"/>
<polygon fill="midnightblue" stroke="midnightblue" points="264.5,-235.5 268,-245.5 271.5,-235.5 264.5,-235.5"/>
</g>
<!-- Node11 -->
<g id="node11" class="node">
<title>Node11</title>
<g id="a_node11"><a xlink:href="class_j_k_q_t_p_column_contour_plot.html" target="_top" xlink:title="class for a contour plots (same as JKQTPContourPlot) of images stored in a JKQTPDatastore column">
<polygon fill="none" stroke="black" points="168.5,-0.5 168.5,-21.5 337.5,-21.5 337.5,-0.5 168.5,-0.5"/>
<text text-anchor="middle" x="253" y="-7.9" font-family="Helvetica,sans-Serif" font-size="12.00">JKQTPColumnContourPlot</text>
</a>
</g>
</g>
<!-- Node10&#45;&gt;Node11 -->
<g id="edge10" class="edge">
<title>Node10&#45;&gt;Node11</title>
<path fill="none" stroke="midnightblue" d="M253,-48.16C253,-39.16 253,-28.92 253,-21.64"/>
<polygon fill="midnightblue" stroke="midnightblue" points="249.5,-48.25 253,-58.25 256.5,-48.25 249.5,-48.25"/>
</g>
</g>
</svg>
        <g id="navigator" transform="translate(0 0)" fill="#404254">
                <rect fill="#f2f5e9" fill-opacity="0.5" stroke="#606060" stroke-width=".5" x="0" y="0" width="60" height="60"/>
                <use id="zoomplus" xlink:href="#zoomPlus" x="17" y="9" onmousedown="handleZoom(evt,'in')"/>
                <use id="zoomminus" xlink:href="#zoomMin" x="42" y="9" onmousedown="handleZoom(evt,'out')"/>
                <use id="reset" xlink:href="#resetDef" x="30" y="36" onmousedown="handleReset()"/>
                <g id="arrowUp" xlink:href="#dirArrow" transform="translate(30 24)" onmousedown="handlePan(0,-1)">
                  <use xlink:href="#rim" fill="#404040">
                        <set attributeName="fill" to="#808080" begin="arrowUp.mouseover" end="arrowUp.mouseout"/>
                  </use>
                  <path fill="none" stroke="white" stroke-width="1.5" d="M0,-3.0v7 M-2.5,-0.5L0,-3.0L2.5,-0.5"/>
                </g>
                <g id="arrowRight" xlink:href="#dirArrow" transform="rotate(90) translate(36 -43)" onmousedown="handlePan(1,0)">
                  <use xlink:href="#rim" fill="#404040">
                        <set attributeName="fill" to="#808080" begin="arrowRight.mouseover" end="arrowRight.mouseout"/>
                  </use>
                  <path fill="none" stroke="white" stroke-width="1.5" d="M0,-3.0v7 M-2.5,-0.5L0,-3.0L2.5,-0.5"/>
                </g>
                <g id="arrowDown" xlink:href="#dirArrow" transform="rotate(180) translate(-30 -48)" onmousedown="handlePan(0,1)">
                  <use xlink:href="#rim" fill="#404040">
                        <set attributeName="fill" to="#808080" begin="arrowDown.mouseover" end="arrowDown.mouseout"/>
                  </use>
                  <path fill="none" stroke="white" stroke-width="1.5" d="M0,-3.0v7 M-2.5,-0.5L0,-3.0L2.5,-0.5"/>
                </g>
                <g id="arrowLeft" xlink:href="#dirArrow" transform="rotate(270) translate(-36 17)" onmousedown="handlePan(-1,0)">
                  <use xlink:href="#rim" fill="#404040">
                        <set attributeName="fill" to="#808080" begin="arrowLeft.mouseover" end="arrowLeft.mouseout"/>
                  </use>
                  <path fill="none" stroke="white" stroke-width="1.5" d="M0,-3.0v7 M-2.5,-0.5L0,-3.0L2.5,-0.5"/>
                </g>
        </g>
        <svg viewBox="0 0 15 15" width="100%" height="30px" preserveAspectRatio="xMaxYMin meet">
         <g id="arrow_out" transform="scale(0.3 0.3)">
          <a xlink:href="class_j_k_q_t_p_math_image__inherit__graph_org.svg" target="_base">
           <rect id="button" ry="5" rx="5" y="6" x="6" height="38" width="38"
                fill="#f2f5e9" fill-opacity="0.5" stroke="#606060" stroke-width="1.0"/>
           <path id="arrow"
             d="M 11.500037,31.436501 C 11.940474,20.09759 22.043105,11.32322 32.158766,21.979434 L 37.068811,17.246167 C 37.068811,17.246167 37.088388,32 37.088388,32 L 22.160133,31.978069 C 22.160133,31.978069 26.997745,27.140456 26.997745,27.140456 C 18.528582,18.264221 13.291696,25.230495 11.500037,31.436501 z"
             style="fill:#404040;"/>
          </a>
         </g>
        </svg>
</svg>
