<?xml version="1.0" encoding="UTF-8" standalone="no"?>
<!DOCTYPE svg PUBLIC "-//W3C//DTD SVG 1.1//EN"
 "http://www.w3.org/Graphics/SVG/1.1/DTD/svg11.dtd">
<!-- Generated by graphviz version 2.43.0 (0)
 -->
<!-- Title: JKQTPGeoSymbol Pages: 1 -->
<svg width="410pt" height="200pt"
 viewBox="0.00 0.00 410.00 200.00" xmlns="http://www.w3.org/2000/svg" xmlns:xlink="http://www.w3.org/1999/xlink">
<g id="graph0" class="graph" transform="scale(1 1) rotate(0) translate(4 196)">
<title>JKQTPGeoSymbol</title>
<!-- Node1 -->
<g id="node1" class="node">
<title>Node1</title>
<g id="a_node1"><a xlink:title="This virtual JKQTPPlotAnnotationElement descendent may be used to display a single symbol (marker).">
<polygon fill="#999999" stroke="#666666" points="260.5,-21 139.5,-21 139.5,0 260.5,0 260.5,-21"/>
<text text-anchor="middle" x="200" y="-7.4" font-family="Helvetica,sans-Serif" font-size="12.00">JKQTPGeoSymbol</text>
</a>
</g>
</g>
<!-- Node2 -->
<g id="node2" class="node">
<title>Node2</title>
<g id="a_node2"><a xlink:href="class_j_k_q_t_p_plot_annotation_element.html" target="_top" xlink:title="this is the virtual base class of all JKQTPPlotElement&#39;s in a JKQTPlotter plot that represent annotat...">
<polygon fill="white" stroke="#666666" points="190,-78 0,-78 0,-57 190,-57 190,-78"/>
<text text-anchor="middle" x="95" y="-64.4" font-family="Helvetica,sans-Serif" font-size="12.00">JKQTPPlotAnnotationElement</text>
</a>
</g>
</g>
<!-- Node2&#45;&gt;Node1 -->
<g id="edge1" class="edge">
<title>Node2&#45;&gt;Node1</title>
<path fill="none" stroke="#63b8ff" d="M122.2,-52.25C140.87,-42.47 165.14,-29.76 181.57,-21.16"/>
<polygon fill="#63b8ff" stroke="#63b8ff" points="120.52,-49.18 113.29,-56.92 123.77,-55.38 120.52,-49.18"/>
</g>
<!-- Node3 -->
<g id="node3" class="node">
<title>Node3</title>
<g id="a_node3"><a xlink:href="class_j_k_q_t_p_plot_element.html" target="_top" xlink:title="this virtual base class of every element, which is part of a JKQTPlotter plot and may appear in its k...">
<polygon fill="white" stroke="#666666" points="157.5,-135 32.5,-135 32.5,-114 157.5,-114 157.5,-135"/>
<text text-anchor="middle" x="95" y="-121.4" font-family="Helvetica,sans-Serif" font-size="12.00">JKQTPPlotElement</text>
</a>
</g>
</g>
<!-- Node3&#45;&gt;Node2 -->
<g id="edge2" class="edge">
<title>Node3&#45;&gt;Node2</title>
<path fill="none" stroke="#63b8ff" d="M95,-103.86C95,-95.2 95,-85.42 95,-78.34"/>
<polygon fill="#63b8ff" stroke="#63b8ff" points="91.5,-103.92 95,-113.92 98.5,-103.92 91.5,-103.92"/>
</g>
<!-- Node4 -->
<g id="node4" class="node">
<title>Node4</title>
<g id="a_node4"><a xlink:title=" ">
<polygon fill="white" stroke="#666666" points="127.5,-192 62.5,-192 62.5,-171 127.5,-171 127.5,-192"/>
<text text-anchor="middle" x="95" y="-178.4" font-family="Helvetica,sans-Serif" font-size="12.00">QObject</text>
</a>
</g>
</g>
<!-- Node4&#45;&gt;Node3 -->
<g id="edge3" class="edge">
<title>Node4&#45;&gt;Node3</title>
<path fill="none" stroke="#63b8ff" d="M95,-160.86C95,-152.2 95,-142.42 95,-135.34"/>
<polygon fill="#63b8ff" stroke="#63b8ff" points="91.5,-160.92 95,-170.92 98.5,-160.92 91.5,-160.92"/>
</g>
<!-- Node5 -->
<g id="node5" class="node">
<title>Node5</title>
<g id="a_node5"><a xlink:href="class_j_k_q_t_p_graph_symbol_style_mixin.html" target="_top" xlink:title="This Mix&#45;In class provides setter/getter methods, storage and other facilities for the graph symbols ...">
<polygon fill="white" stroke="#666666" points="402,-78 208,-78 208,-57 402,-57 402,-78"/>
<text text-anchor="middle" x="305" y="-64.4" font-family="Helvetica,sans-Serif" font-size="12.00">JKQTPGraphSymbolStyleMixin</text>
</a>
</g>
</g>
<!-- Node5&#45;&gt;Node1 -->
<g id="edge4" class="edge">
<title>Node5&#45;&gt;Node1</title>
<path fill="none" stroke="#63b8ff" d="M277.8,-52.25C259.13,-42.47 234.86,-29.76 218.43,-21.16"/>
<polygon fill="#63b8ff" stroke="#63b8ff" points="276.23,-55.38 286.71,-56.92 279.48,-49.18 276.23,-55.38"/>
</g>
</g>
</svg>
