<?xml version="1.0" encoding="UTF-8" standalone="no"?>
<!DOCTYPE svg PUBLIC "-//W3C//DTD SVG 1.1//EN"
 "http://www.w3.org/Graphics/SVG/1.1/DTD/svg11.dtd">
<!-- Generated by graphviz version 2.43.0 (0)
 -->
<!-- Title: JKQTPVerticalAxis Pages: 1 -->
<svg width="2710pt" height="549pt"
 viewBox="0.00 0.00 2710.00 548.50" xmlns="http://www.w3.org/2000/svg" xmlns:xlink="http://www.w3.org/1999/xlink">
<g id="graph0" class="graph" transform="scale(1 1) rotate(0) translate(4 544.5)">
<title>JKQTPVerticalAxis</title>
<!-- Node1 -->
<g id="node1" class="node">
<title>Node1</title>
<g id="a_node1"><a xlink:title="implements a vertical axis, based on JKQTPCoordinateAxis (for most of documentation: see JKQTPCoordin...">
<polygon fill="#999999" stroke="#666666" points="1877.5,-287 1755.5,-287 1755.5,-266 1877.5,-266 1877.5,-287"/>
<text text-anchor="middle" x="1816.5" y="-273.4" font-family="Helvetica,sans-Serif" font-size="12.00">JKQTPVerticalAxis</text>
</a>
</g>
</g>
<!-- Node4 -->
<g id="node4" class="node">
<title>Node4</title>
<g id="a_node4"><a xlink:href="class_j_k_q_t_base_plotter.html" target="_top" xlink:title="base class for 2D plotter classes (used by the plotter widget JKQTPlotter)">
<polygon fill="white" stroke="#666666" points="2149.5,-220 2035.5,-220 2035.5,-199 2149.5,-199 2149.5,-220"/>
<text text-anchor="middle" x="2092.5" y="-206.4" font-family="Helvetica,sans-Serif" font-size="12.00">JKQTBasePlotter</text>
</a>
</g>
</g>
<!-- Node1&#45;&gt;Node4 -->
<g id="edge32" class="edge">
<title>Node1&#45;&gt;Node4</title>
<path fill="none" stroke="#9a32cd" stroke-dasharray="5,2" d="M1851.88,-262.08C1868.08,-255.7 1887.8,-248.52 1906,-243.5 1948.77,-231.71 1998.23,-222.87 2035.32,-217.17"/>
<polygon fill="#9a32cd" stroke="#9a32cd" points="1850.27,-258.95 1842.29,-265.92 1852.88,-265.45 1850.27,-258.95"/>
<text text-anchor="middle" x="1954.5" y="-246.9" font-family="Helvetica,sans-Serif" font-size="12.00"> yAxis</text>
</g>
<!-- Node2 -->
<g id="node2" class="node">
<title>Node2</title>
<g id="a_node2"><a xlink:href="class_j_k_q_t_p_coordinate_axis.html" target="_top" xlink:title="this virtual class is the base for any type of coordinate axis, to be drawn by JKQTBasePlotter.">
<polygon fill="white" stroke="#666666" points="2491.5,-307 2349.5,-307 2349.5,-286 2491.5,-286 2491.5,-307"/>
<text text-anchor="middle" x="2420.5" y="-293.4" font-family="Helvetica,sans-Serif" font-size="12.00">JKQTPCoordinateAxis</text>
</a>
</g>
</g>
<!-- Node2&#45;&gt;Node1 -->
<g id="edge1" class="edge">
<title>Node2&#45;&gt;Node1</title>
<path fill="none" stroke="#63b8ff" d="M2338.97,-300.12C2237.68,-303.69 2058.54,-306.78 1906,-292.5 1893.41,-291.32 1879.92,-289.29 1867.37,-287.06"/>
<polygon fill="#63b8ff" stroke="#63b8ff" points="2339.26,-303.61 2349.12,-299.75 2339,-296.61 2339.26,-303.61"/>
</g>
<!-- Node21 -->
<g id="node21" class="node">
<title>Node21</title>
<g id="a_node21"><a xlink:href="class_j_k_q_t_p_horizontal_axis.html" target="_top" xlink:title="implements a horizontal axis, based on JKQTPCoordinateAxis (for most of documentation: see JKQTPCoord...">
<polygon fill="white" stroke="#666666" points="2702,-258 2565,-258 2565,-237 2702,-237 2702,-258"/>
<text text-anchor="middle" x="2633.5" y="-244.4" font-family="Helvetica,sans-Serif" font-size="12.00">JKQTPHorizontalAxis</text>
</a>
</g>
</g>
<!-- Node2&#45;&gt;Node21 -->
<g id="edge31" class="edge">
<title>Node2&#45;&gt;Node21</title>
<path fill="none" stroke="#63b8ff" d="M2476.64,-283.7C2510.97,-275.72 2554.59,-265.59 2586.95,-258.08"/>
<polygon fill="#63b8ff" stroke="#63b8ff" points="2475.71,-280.32 2466.76,-285.99 2477.3,-287.14 2475.71,-280.32"/>
</g>
<!-- Node3 -->
<g id="node3" class="node">
<title>Node3</title>
<g id="a_node3"><a xlink:title=" ">
<polygon fill="white" stroke="#666666" points="1507.5,-401 1442.5,-401 1442.5,-380 1507.5,-380 1507.5,-401"/>
<text text-anchor="middle" x="1475" y="-387.4" font-family="Helvetica,sans-Serif" font-size="12.00">QObject</text>
</a>
</g>
</g>
<!-- Node3&#45;&gt;Node2 -->
<g id="edge2" class="edge">
<title>Node3&#45;&gt;Node2</title>
<path fill="none" stroke="#63b8ff" d="M1517.65,-400.51C1625.97,-424.84 1924.7,-481.09 2164,-424.5 2262.73,-401.15 2366.77,-333.43 2404.63,-307.12"/>
<polygon fill="#63b8ff" stroke="#63b8ff" points="1518.3,-397.07 1507.77,-398.26 1516.74,-403.89 1518.3,-397.07"/>
</g>
<!-- Node3&#45;&gt;Node4 -->
<g id="edge4" class="edge">
<title>Node3&#45;&gt;Node4</title>
<path fill="none" stroke="#63b8ff" d="M1517.95,-384.83C1535.01,-381.85 1554.73,-377.53 1572,-371.5 1645.19,-345.94 1671.9,-346.03 1727,-291.5 1739.15,-279.47 1731.35,-267.79 1745,-257.5 1803.4,-213.47 1833.6,-233.83 1906,-223.5 1949.16,-217.34 1998.39,-213.78 2035.28,-211.8"/>
<polygon fill="#63b8ff" stroke="#63b8ff" points="1517.02,-381.43 1507.72,-386.51 1518.16,-388.34 1517.02,-381.43"/>
</g>
<!-- Node17 -->
<g id="node17" class="node">
<title>Node17</title>
<g id="a_node17"><a xlink:href="class_j_k_q_t_math_text.html" target="_top" xlink:title="this class parses a mathematical markup string and can then draw the contained text/equation onto a Q...">
<polygon fill="white" stroke="#666666" points="1866,-383 1767,-383 1767,-362 1866,-362 1866,-383"/>
<text text-anchor="middle" x="1816.5" y="-369.4" font-family="Helvetica,sans-Serif" font-size="12.00">JKQTMathText</text>
</a>
</g>
</g>
<!-- Node3&#45;&gt;Node17 -->
<g id="edge23" class="edge">
<title>Node3&#45;&gt;Node17</title>
<path fill="none" stroke="#63b8ff" d="M1518,-388.27C1581.07,-384.93 1699.96,-378.63 1766.76,-375.08"/>
<polygon fill="#63b8ff" stroke="#63b8ff" points="1517.44,-384.8 1507.63,-388.82 1517.81,-391.79 1517.44,-384.8"/>
</g>
<!-- Node4&#45;&gt;Node2 -->
<g id="edge3" class="edge">
<title>Node4&#45;&gt;Node2</title>
<path fill="none" stroke="#9a32cd" stroke-dasharray="5,2" d="M2124.88,-224.38C2141.55,-231.84 2162.57,-240.52 2182,-246.5 2230.99,-261.57 2244.84,-258.96 2295,-269.5 2320.32,-274.82 2348.51,-280.92 2371.64,-285.97"/>
<polygon fill="#9a32cd" stroke="#9a32cd" points="2126.16,-221.12 2115.61,-220.16 2123.26,-227.49 2126.16,-221.12"/>
<text text-anchor="middle" x="2238.5" y="-272.9" font-family="Helvetica,sans-Serif" font-size="12.00"> parent</text>
</g>
<!-- Node4&#45;&gt;Node4 -->
<g id="edge39" class="edge">
<title>Node4&#45;&gt;Node4</title>
<path fill="none" stroke="#9a32cd" stroke-dasharray="5,2" d="M2067.07,-229.57C2069.03,-234.41 2077.51,-238 2092.5,-238 2116.49,-238 2123.8,-228.81 2114.43,-220.02"/>
<polygon fill="#9a32cd" stroke="#9a32cd" points="2070.41,-230.62 2070.57,-220.02 2063.84,-228.21 2070.41,-230.62"/>
<text text-anchor="middle" x="2092.5" y="-254.4" font-family="Helvetica,sans-Serif" font-size="12.00"> masterPlotterX</text>
<text text-anchor="middle" x="2092.5" y="-241.4" font-family="Helvetica,sans-Serif" font-size="12.00">masterPlotterY</text>
</g>
<!-- Node19 -->
<g id="node19" class="node">
<title>Node19</title>
<g id="a_node19"><a xlink:href="class_j_k_q_t_p_graphs_model.html" target="_top" xlink:title="data model with all plots ina JKQTBasePlotter (+ allows to switch them visible/invisible)">
<polygon fill="white" stroke="#666666" points="2486,-182 2355,-182 2355,-161 2486,-161 2486,-182"/>
<text text-anchor="middle" x="2420.5" y="-168.4" font-family="Helvetica,sans-Serif" font-size="12.00">JKQTPGraphsModel</text>
</a>
</g>
</g>
<!-- Node4&#45;&gt;Node19 -->
<g id="edge29" class="edge">
<title>Node4&#45;&gt;Node19</title>
<path fill="none" stroke="#9a32cd" stroke-dasharray="5,2" d="M2159.53,-201.8C2216.54,-195.16 2298.4,-185.62 2354.97,-179.02"/>
<polygon fill="#9a32cd" stroke="#9a32cd" points="2159.07,-198.33 2149.54,-202.97 2159.88,-205.29 2159.07,-198.33"/>
<text text-anchor="middle" x="2238.5" y="-200.9" font-family="Helvetica,sans-Serif" font-size="12.00"> m_plotter</text>
</g>
<!-- Node5 -->
<g id="node5" class="node">
<title>Node5</title>
<g id="a_node5"><a xlink:href="class_j_k_q_t_base_plotter_style.html" target="_top" xlink:title="Support Class for JKQTBasePlotter, which summarizes all properties that define the visual styling of ...">
<polygon fill="white" stroke="#666666" points="1888,-192 1745,-192 1745,-171 1888,-171 1888,-192"/>
<text text-anchor="middle" x="1816.5" y="-178.4" font-family="Helvetica,sans-Serif" font-size="12.00">JKQTBasePlotterStyle</text>
</a>
</g>
</g>
<!-- Node5&#45;&gt;Node4 -->
<g id="edge5" class="edge">
<title>Node5&#45;&gt;Node4</title>
<path fill="none" stroke="#9a32cd" stroke-dasharray="5,2" d="M1898.73,-176.85C1931.31,-176.31 1969.1,-177.35 2003,-182.5 2023.96,-185.68 2046.84,-192.76 2064.08,-198.87"/>
<polygon fill="#9a32cd" stroke="#9a32cd" points="1898.26,-173.36 1888.34,-177.08 1898.42,-180.36 1898.26,-173.36"/>
<text text-anchor="middle" x="1954.5" y="-185.9" font-family="Helvetica,sans-Serif" font-size="12.00"> plotterStyle</text>
</g>
<!-- Node6 -->
<g id="node6" class="node">
<title>Node6</title>
<g id="a_node6"><a xlink:href="class_j_k_q_t_p_key_style.html" target="_top" xlink:title="Support Class for JKQTBasePlotter, which summarizes all properties that define the visual styling of ...">
<polygon fill="white" stroke="#666666" points="1527,-183 1423,-183 1423,-162 1527,-162 1527,-183"/>
<text text-anchor="middle" x="1475" y="-169.4" font-family="Helvetica,sans-Serif" font-size="12.00">JKQTPKeyStyle</text>
</a>
</g>
</g>
<!-- Node6&#45;&gt;Node5 -->
<g id="edge6" class="edge">
<title>Node6&#45;&gt;Node5</title>
<path fill="none" stroke="#9a32cd" stroke-dasharray="5,2" d="M1537.39,-174.13C1595.82,-175.68 1683.69,-178.01 1744.97,-179.63"/>
<polygon fill="#9a32cd" stroke="#9a32cd" points="1537.28,-170.62 1527.19,-173.86 1537.1,-177.62 1537.28,-170.62"/>
<text text-anchor="middle" x="1658.5" y="-181.9" font-family="Helvetica,sans-Serif" font-size="12.00"> keyStyle</text>
</g>
<!-- Node7 -->
<g id="node7" class="node">
<title>Node7</title>
<g id="a_node7"><a xlink:href="class_j_k_q_t_p_coordinate_axis_style.html" target="_top" xlink:title="Support Class for JKQTPCoordinateAxis, which summarizes all properties that define the visual styling...">
<polygon fill="white" stroke="#666666" points="1234,-230 1063,-230 1063,-209 1234,-209 1234,-230"/>
<text text-anchor="middle" x="1148.5" y="-216.4" font-family="Helvetica,sans-Serif" font-size="12.00">JKQTPCoordinateAxisStyle</text>
</a>
</g>
</g>
<!-- Node7&#45;&gt;Node2 -->
<g id="edge40" class="edge">
<title>Node7&#45;&gt;Node2</title>
<path fill="none" stroke="#9a32cd" stroke-dasharray="5,2" d="M1221.82,-231.61C1370.79,-255.65 1722.95,-307.73 2021,-315.5 2142.74,-318.67 2173.57,-324.71 2295,-315.5 2317.24,-313.81 2341.52,-310.45 2362.69,-307.02"/>
<polygon fill="#9a32cd" stroke="#9a32cd" points="1222.3,-228.15 1211.87,-230 1221.18,-235.06 1222.3,-228.15"/>
<text text-anchor="middle" x="1816.5" y="-311.9" font-family="Helvetica,sans-Serif" font-size="12.00"> axisStyle</text>
</g>
<!-- Node7&#45;&gt;Node5 -->
<g id="edge7" class="edge">
<title>Node7&#45;&gt;Node5</title>
<path fill="none" stroke="#9a32cd" stroke-dasharray="5,2" d="M1244.51,-218.91C1359.15,-217.41 1557.62,-212.36 1727,-195.5 1735.98,-194.61 1745.43,-193.4 1754.68,-192.07"/>
<polygon fill="#9a32cd" stroke="#9a32cd" points="1244.32,-215.41 1234.36,-219.03 1244.4,-222.41 1244.32,-215.41"/>
<text text-anchor="middle" x="1475" y="-231.9" font-family="Helvetica,sans-Serif" font-size="12.00"> xAxisStyle</text>
<text text-anchor="middle" x="1475" y="-218.9" font-family="Helvetica,sans-Serif" font-size="12.00">yAxisStyle</text>
</g>
<!-- Node9 -->
<g id="node9" class="node">
<title>Node9</title>
<g id="a_node9"><a xlink:href="class_j_k_q_t_p_colorbar_coordinate_axis_style.html" target="_top" xlink:title="Support Class for JKQTPCoordinateAxis, which summarizes all properties that define the visual styling...">
<polygon fill="white" stroke="#666666" points="1572,-143.5 1378,-143.5 1378,-109.5 1572,-109.5 1572,-143.5"/>
<text text-anchor="start" x="1386" y="-129.9" font-family="Helvetica,sans-Serif" font-size="12.00">JKQTPColorbarCoordinateAxis</text>
<text text-anchor="middle" x="1475" y="-116.9" font-family="Helvetica,sans-Serif" font-size="12.00">Style</text>
</a>
</g>
</g>
<!-- Node7&#45;&gt;Node9 -->
<g id="edge10" class="edge">
<title>Node7&#45;&gt;Node9</title>
<path fill="none" stroke="#63b8ff" d="M1195.59,-206.08C1241.72,-192.68 1314.74,-171.53 1378,-153.5 1389.41,-150.25 1401.58,-146.8 1413.3,-143.5"/>
<polygon fill="#63b8ff" stroke="#63b8ff" points="1194.51,-202.75 1185.89,-208.9 1196.47,-209.47 1194.51,-202.75"/>
</g>
<!-- Node8 -->
<g id="node8" class="node">
<title>Node8</title>
<g id="a_node8"><a xlink:href="class_j_k_q_t_p_grid_style.html" target="_top" xlink:title="Support Class for JKQTPCoordinateAxis, and summarizes all properties that define the visual styling o...">
<polygon fill="white" stroke="#666666" points="805.5,-230 698.5,-230 698.5,-209 805.5,-209 805.5,-230"/>
<text text-anchor="middle" x="752" y="-216.4" font-family="Helvetica,sans-Serif" font-size="12.00">JKQTPGridStyle</text>
</a>
</g>
</g>
<!-- Node8&#45;&gt;Node7 -->
<g id="edge8" class="edge">
<title>Node8&#45;&gt;Node7</title>
<path fill="none" stroke="#9a32cd" stroke-dasharray="5,2" d="M816.18,-219.5C883.03,-219.5 988.9,-219.5 1062.92,-219.5"/>
<polygon fill="#9a32cd" stroke="#9a32cd" points="815.79,-216 805.79,-219.5 815.79,-223 815.79,-216"/>
<text text-anchor="middle" x="948.5" y="-235.9" font-family="Helvetica,sans-Serif" font-size="12.00"> majorGridStyle</text>
<text text-anchor="middle" x="948.5" y="-222.9" font-family="Helvetica,sans-Serif" font-size="12.00">minorGridStyle</text>
</g>
<!-- Node9&#45;&gt;Node5 -->
<g id="edge9" class="edge">
<title>Node9&#45;&gt;Node5</title>
<path fill="none" stroke="#9a32cd" stroke-dasharray="5,2" d="M1582.22,-127.26C1627.34,-129.45 1680.23,-134.5 1727,-145.5 1751.06,-151.16 1777.09,-162.42 1794.65,-170.85"/>
<polygon fill="#9a32cd" stroke="#9a32cd" points="1582.26,-123.76 1572.12,-126.81 1581.95,-130.75 1582.26,-123.76"/>
<text text-anchor="middle" x="1658.5" y="-161.9" font-family="Helvetica,sans-Serif" font-size="12.00"> rightColorbarAxisStyle</text>
<text text-anchor="middle" x="1658.5" y="-148.9" font-family="Helvetica,sans-Serif" font-size="12.00">topColorbarAxisStyle</text>
</g>
<!-- Node10 -->
<g id="node10" class="node">
<title>Node10</title>
<g id="a_node10"><a xlink:href="class_j_k_q_t_graphs_base_style.html" target="_top" xlink:title="Support Class for JKQTBasePlotter, which summarizes all properties that define the visual styling of ...">
<polygon fill="white" stroke="#666666" points="1548,-362 1402,-362 1402,-341 1548,-341 1548,-362"/>
<text text-anchor="middle" x="1475" y="-348.4" font-family="Helvetica,sans-Serif" font-size="12.00">JKQTGraphsBaseStyle</text>
</a>
</g>
</g>
<!-- Node10&#45;&gt;Node5 -->
<g id="edge11" class="edge">
<title>Node10&#45;&gt;Node5</title>
<path fill="none" stroke="#9a32cd" stroke-dasharray="5,2" d="M1498.27,-335.02C1520.61,-319.03 1556.43,-294.85 1590,-278.5 1648,-250.25 1672.85,-265.57 1727,-230.5 1736.76,-224.18 1735.45,-218.14 1745,-211.5 1756.58,-203.45 1770.66,-196.93 1783.18,-192.04"/>
<polygon fill="#9a32cd" stroke="#9a32cd" points="1496.17,-332.22 1490.12,-340.92 1500.27,-337.89 1496.17,-332.22"/>
<text text-anchor="middle" x="1658.5" y="-281.9" font-family="Helvetica,sans-Serif" font-size="12.00"> graphsStyle</text>
</g>
<!-- Node11 -->
<g id="node11" class="node">
<title>Node11</title>
<g id="a_node11"><a xlink:href="class_j_k_q_t_graphs_specific_style_properties.html" target="_top" xlink:title="Support Class for JKQTBasePlotter, which summarizes all properties that define the visual styling of ...">
<polygon fill="white" stroke="#666666" points="623,-394 399,-394 399,-373 623,-373 623,-394"/>
<text text-anchor="middle" x="511" y="-380.4" font-family="Helvetica,sans-Serif" font-size="12.00">JKQTGraphsSpecificStyleProperties</text>
</a>
</g>
</g>
<!-- Node11&#45;&gt;Node10 -->
<g id="edge12" class="edge">
<title>Node11&#45;&gt;Node10</title>
<path fill="none" stroke="#9a32cd" stroke-dasharray="5,2" d="M555.3,-369.95C620.86,-350.21 749.6,-314.49 862,-301.5 1070.89,-277.36 1321.21,-320.1 1425.1,-340.99"/>
<polygon fill="#9a32cd" stroke="#9a32cd" points="553.88,-366.72 545.33,-372.97 555.92,-373.42 553.88,-366.72"/>
<text text-anchor="middle" x="948.5" y="-330.9" font-family="Helvetica,sans-Serif" font-size="12.00"> boxplotStyle</text>
<text text-anchor="middle" x="948.5" y="-317.9" font-family="Helvetica,sans-Serif" font-size="12.00">defaultGraphStyle</text>
<text text-anchor="middle" x="948.5" y="-304.9" font-family="Helvetica,sans-Serif" font-size="12.00">filledStyle</text>
</g>
<!-- Node13 -->
<g id="node13" class="node">
<title>Node13</title>
<g id="a_node13"><a xlink:href="class_j_k_q_t_barchart_specific_style_properties.html" target="_top" xlink:title="Support Class for JKQTBasePlotter, which summarizes all properties that define the visual styling of ...">
<polygon fill="white" stroke="#666666" points="1035,-509.5 862,-509.5 862,-475.5 1035,-475.5 1035,-509.5"/>
<text text-anchor="start" x="870" y="-495.9" font-family="Helvetica,sans-Serif" font-size="12.00">JKQTBarchartSpecificStyle</text>
<text text-anchor="middle" x="948.5" y="-482.9" font-family="Helvetica,sans-Serif" font-size="12.00">Properties</text>
</a>
</g>
</g>
<!-- Node11&#45;&gt;Node13 -->
<g id="edge15" class="edge">
<title>Node11&#45;&gt;Node13</title>
<path fill="none" stroke="#63b8ff" d="M546.48,-397.87C576.15,-409.81 620.32,-426.54 660,-437.5 726.86,-455.96 804.16,-470.38 861.76,-479.81"/>
<polygon fill="#63b8ff" stroke="#63b8ff" points="547.58,-394.54 537,-394.03 544.95,-401.03 547.58,-394.54"/>
</g>
<!-- Node14 -->
<g id="node14" class="node">
<title>Node14</title>
<g id="a_node14"><a xlink:href="class_j_k_q_t_impulse_specific_style_properties.html" target="_top" xlink:title="Support Class for JKQTBasePlotter, which summarizes all properties that define the visual styling of ...">
<polygon fill="white" stroke="#666666" points="1032.5,-383.5 864.5,-383.5 864.5,-349.5 1032.5,-349.5 1032.5,-383.5"/>
<text text-anchor="start" x="872.5" y="-369.9" font-family="Helvetica,sans-Serif" font-size="12.00">JKQTImpulseSpecificStyle</text>
<text text-anchor="middle" x="948.5" y="-356.9" font-family="Helvetica,sans-Serif" font-size="12.00">Properties</text>
</a>
</g>
</g>
<!-- Node11&#45;&gt;Node14 -->
<g id="edge17" class="edge">
<title>Node11&#45;&gt;Node14</title>
<path fill="none" stroke="#63b8ff" d="M633.27,-378.77C706.83,-375.89 798.8,-372.3 864.19,-369.75"/>
<polygon fill="#63b8ff" stroke="#63b8ff" points="632.88,-375.28 623.02,-379.17 633.15,-382.27 632.88,-375.28"/>
</g>
<!-- Node15 -->
<g id="node15" class="node">
<title>Node15</title>
<g id="a_node15"><a xlink:href="class_j_k_q_t_geometric_specific_style_properties.html" target="_top" xlink:title="Support Class for JKQTBasePlotter, which summarizes all properties that define the visual styling of ...">
<polygon fill="white" stroke="#666666" points="844,-428.5 660,-428.5 660,-394.5 844,-394.5 844,-428.5"/>
<text text-anchor="start" x="668" y="-414.9" font-family="Helvetica,sans-Serif" font-size="12.00">JKQTGeometricSpecificStyle</text>
<text text-anchor="middle" x="752" y="-401.9" font-family="Helvetica,sans-Serif" font-size="12.00">Properties</text>
</a>
</g>
</g>
<!-- Node11&#45;&gt;Node15 -->
<g id="edge19" class="edge">
<title>Node11&#45;&gt;Node15</title>
<path fill="none" stroke="#63b8ff" d="M611.98,-395.21C627.77,-397.06 644.04,-398.97 659.63,-400.8"/>
<polygon fill="#63b8ff" stroke="#63b8ff" points="612.01,-391.69 601.67,-394.01 611.2,-398.65 612.01,-391.69"/>
</g>
<!-- Node12 -->
<g id="node12" class="node">
<title>Node12</title>
<g id="a_node12"><a xlink:href="struct_j_k_q_t_p_color_derivation_mode.html" target="_top" xlink:title="Specifies how a fill&#45;color is derived from a given color.">
<polygon fill="white" stroke="#666666" points="179,-394 0,-394 0,-373 179,-373 179,-394"/>
<text text-anchor="middle" x="89.5" y="-380.4" font-family="Helvetica,sans-Serif" font-size="12.00">JKQTPColorDerivationMode</text>
</a>
</g>
</g>
<!-- Node12&#45;&gt;Node11 -->
<g id="edge13" class="edge">
<title>Node12&#45;&gt;Node11</title>
<path fill="none" stroke="#9a32cd" stroke-dasharray="5,2" d="M189.53,-383.5C252.41,-383.5 333.9,-383.5 398.97,-383.5"/>
<polygon fill="#9a32cd" stroke="#9a32cd" points="189.21,-380 179.21,-383.5 189.21,-387 189.21,-380"/>
<text text-anchor="middle" x="289" y="-438.9" font-family="Helvetica,sans-Serif" font-size="12.00"> errorColorDerivationMode</text>
<text text-anchor="middle" x="289" y="-425.9" font-family="Helvetica,sans-Serif" font-size="12.00">errorFillColorDerivationMode</text>
<text text-anchor="middle" x="289" y="-412.9" font-family="Helvetica,sans-Serif" font-size="12.00">fillColorDerivationMode</text>
<text text-anchor="middle" x="289" y="-399.9" font-family="Helvetica,sans-Serif" font-size="12.00">graphColorDerivationMode</text>
<text text-anchor="middle" x="289" y="-386.9" font-family="Helvetica,sans-Serif" font-size="12.00">symbolFillColorDerivationMode</text>
</g>
<!-- Node13&#45;&gt;Node10 -->
<g id="edge14" class="edge">
<title>Node13&#45;&gt;Node10</title>
<path fill="none" stroke="#9a32cd" stroke-dasharray="5,2" d="M1021.37,-511.77C1112.03,-531.35 1267.26,-548.4 1360,-466.5 1392.21,-438.05 1347.89,-402.16 1378,-371.5 1384.56,-364.82 1392.73,-360.09 1401.52,-356.77"/>
<polygon fill="#9a32cd" stroke="#9a32cd" points="1021.97,-508.32 1011.45,-509.57 1020.45,-515.16 1021.97,-508.32"/>
<text text-anchor="middle" x="1148.5" y="-530.9" font-family="Helvetica,sans-Serif" font-size="12.00"> barchartStyle</text>
</g>
<!-- Node14&#45;&gt;Node10 -->
<g id="edge16" class="edge">
<title>Node14&#45;&gt;Node10</title>
<path fill="none" stroke="#9a32cd" stroke-dasharray="5,2" d="M1042.54,-360.94C1046.07,-360.79 1049.57,-360.64 1053,-360.5 1175.36,-355.65 1317.83,-353.29 1401.71,-352.24"/>
<polygon fill="#9a32cd" stroke="#9a32cd" points="1042.35,-357.45 1032.53,-361.42 1042.68,-364.44 1042.35,-357.45"/>
<text text-anchor="middle" x="1148.5" y="-363.9" font-family="Helvetica,sans-Serif" font-size="12.00"> impulseStyle</text>
</g>
<!-- Node15&#45;&gt;Node10 -->
<g id="edge18" class="edge">
<title>Node15&#45;&gt;Node10</title>
<path fill="none" stroke="#9a32cd" stroke-dasharray="5,2" d="M854.3,-422.55C953.82,-431.48 1109.81,-440.35 1244,-425.5 1296.51,-419.69 1316.69,-429.77 1360,-399.5 1372.13,-391.03 1365.81,-379.88 1378,-371.5 1385.15,-366.58 1393.27,-362.83 1401.67,-359.97"/>
<polygon fill="#9a32cd" stroke="#9a32cd" points="854.53,-419.05 844.25,-421.63 853.89,-426.03 854.53,-419.05"/>
<text text-anchor="middle" x="1148.5" y="-435.9" font-family="Helvetica,sans-Serif" font-size="12.00"> geometricStyle</text>
</g>
<!-- Node16 -->
<g id="node16" class="node">
<title>Node16</title>
<g id="a_node16"><a xlink:href="class_j_k_q_t_annotations_specific_style_properties.html" target="_top" xlink:title="Support Class for JKQTBasePlotter, which summarizes all properties that define the visual styling of ...">
<polygon fill="white" stroke="#666666" points="1244,-416.5 1053,-416.5 1053,-382.5 1244,-382.5 1244,-416.5"/>
<text text-anchor="start" x="1061" y="-402.9" font-family="Helvetica,sans-Serif" font-size="12.00">JKQTAnnotationsSpecificStyle</text>
<text text-anchor="middle" x="1148.5" y="-389.9" font-family="Helvetica,sans-Serif" font-size="12.00">Properties</text>
</a>
</g>
</g>
<!-- Node15&#45;&gt;Node16 -->
<g id="edge21" class="edge">
<title>Node15&#45;&gt;Node16</title>
<path fill="none" stroke="#63b8ff" d="M854.07,-408.43C915.27,-406.56 992.83,-404.2 1052.84,-402.38"/>
<polygon fill="#63b8ff" stroke="#63b8ff" points="853.89,-404.93 844,-408.73 854.1,-411.93 853.89,-404.93"/>
</g>
<!-- Node16&#45;&gt;Node10 -->
<g id="edge20" class="edge">
<title>Node16&#45;&gt;Node10</title>
<path fill="none" stroke="#9a32cd" stroke-dasharray="5,2" d="M1254.16,-384.02C1302.78,-376.83 1359.33,-368.46 1402.9,-362.02"/>
<polygon fill="#9a32cd" stroke="#9a32cd" points="1253.61,-380.56 1244.23,-385.49 1254.64,-387.49 1253.61,-380.56"/>
<text text-anchor="middle" x="1311" y="-385.9" font-family="Helvetica,sans-Serif" font-size="12.00"> annotationStyle</text>
</g>
<!-- Node17&#45;&gt;Node4 -->
<g id="edge22" class="edge">
<title>Node17&#45;&gt;Node4</title>
<path fill="none" stroke="#9a32cd" stroke-dasharray="5,2" d="M1860.62,-358.46C1869.83,-354.95 1879.38,-350.91 1888,-346.5 1964.21,-307.51 2046.2,-245.29 2077.91,-220.35"/>
<polygon fill="#9a32cd" stroke="#9a32cd" points="1859.37,-355.19 1851.19,-361.92 1861.79,-361.76 1859.37,-355.19"/>
<text text-anchor="middle" x="1954.5" y="-336.9" font-family="Helvetica,sans-Serif" font-size="12.00"> mathText</text>
</g>
<!-- Node18 -->
<g id="node18" class="node">
<title>Node18</title>
<g id="a_node18"><a xlink:href="class_j_k_q_t_math_text_node.html" target="_top" xlink:title="subclass representing one node in the syntax tree">
<polygon fill="white" stroke="#666666" points="2158,-384 2027,-384 2027,-363 2158,-363 2158,-384"/>
<text text-anchor="middle" x="2092.5" y="-370.4" font-family="Helvetica,sans-Serif" font-size="12.00">JKQTMathTextNode</text>
</a>
</g>
</g>
<!-- Node17&#45;&gt;Node18 -->
<g id="edge25" class="edge">
<title>Node17&#45;&gt;Node18</title>
<path fill="none" stroke="#9a32cd" stroke-dasharray="5,2" d="M1876.32,-366.44C1886.21,-365.63 1896.39,-364.93 1906,-364.5 1949.07,-362.56 1959.94,-362.32 2003,-364.5 2010.71,-364.89 2018.79,-365.47 2026.79,-366.16"/>
<polygon fill="#9a32cd" stroke="#9a32cd" points="1875.8,-362.97 1866.14,-367.31 1876.4,-369.94 1875.8,-362.97"/>
<text text-anchor="middle" x="1954.5" y="-367.9" font-family="Helvetica,sans-Serif" font-size="12.00"> parentMathText</text>
</g>
<!-- Node18&#45;&gt;Node17 -->
<g id="edge24" class="edge">
<title>Node18&#45;&gt;Node17</title>
<path fill="none" stroke="#9a32cd" stroke-dasharray="5,2" d="M2016.65,-380.74C2012.03,-381.04 2007.45,-381.3 2003,-381.5 1959.93,-383.44 1949.06,-383.68 1906,-381.5 1893.04,-380.84 1879.06,-379.65 1866.12,-378.34"/>
<polygon fill="#9a32cd" stroke="#9a32cd" points="2017.05,-384.22 2026.78,-380.03 2016.56,-377.24 2017.05,-384.22"/>
<text text-anchor="middle" x="1954.5" y="-385.9" font-family="Helvetica,sans-Serif" font-size="12.00"> parsedNode</text>
</g>
<!-- Node18&#45;&gt;Node18 -->
<g id="edge26" class="edge">
<title>Node18&#45;&gt;Node18</title>
<path fill="none" stroke="#9a32cd" stroke-dasharray="5,2" d="M2067.07,-393.57C2069.03,-398.41 2077.51,-402 2092.5,-402 2116.49,-402 2123.8,-392.81 2114.43,-384.02"/>
<polygon fill="#9a32cd" stroke="#9a32cd" points="2070.41,-394.62 2070.57,-384.02 2063.84,-392.21 2070.41,-394.62"/>
<text text-anchor="middle" x="2092.5" y="-405.4" font-family="Helvetica,sans-Serif" font-size="12.00"> parentNode</text>
</g>
<!-- Node19&#45;&gt;Node4 -->
<g id="edge27" class="edge">
<title>Node19&#45;&gt;Node4</title>
<path fill="none" stroke="#9a32cd" stroke-dasharray="5,2" d="M2344.67,-164.41C2297.53,-161.75 2235.65,-161.62 2182,-172.5 2156.87,-177.6 2129.94,-189.95 2112.48,-198.99"/>
<polygon fill="#9a32cd" stroke="#9a32cd" points="2344.6,-167.91 2354.8,-165.03 2345.03,-160.92 2344.6,-167.91"/>
<text text-anchor="middle" x="2238.5" y="-175.9" font-family="Helvetica,sans-Serif" font-size="12.00"> m_plotsModel</text>
</g>
<!-- Node20 -->
<g id="node20" class="node">
<title>Node20</title>
<g id="a_node20"><a xlink:title=" ">
<polygon fill="white" stroke="#666666" points="2164,-149 2021,-149 2021,-128 2164,-128 2164,-149"/>
<text text-anchor="middle" x="2092.5" y="-135.4" font-family="Helvetica,sans-Serif" font-size="12.00">QAbstractTableModel</text>
</a>
</g>
</g>
<!-- Node20&#45;&gt;Node19 -->
<g id="edge28" class="edge">
<title>Node20&#45;&gt;Node19</title>
<path fill="none" stroke="#63b8ff" d="M2174.23,-142.59C2211.12,-144.85 2255.34,-148.1 2295,-152.5 2315.32,-154.75 2337.4,-157.89 2357.25,-160.97"/>
<polygon fill="#63b8ff" stroke="#63b8ff" points="2174.22,-139.08 2164.03,-141.98 2173.81,-146.07 2174.22,-139.08"/>
</g>
<!-- Node21&#45;&gt;Node4 -->
<g id="edge30" class="edge">
<title>Node21&#45;&gt;Node4</title>
<path fill="none" stroke="#9a32cd" stroke-dasharray="5,2" d="M2554.66,-242.01C2444.67,-234.26 2246.4,-220.28 2149.66,-213.46"/>
<polygon fill="#9a32cd" stroke="#9a32cd" points="2554.48,-245.51 2564.7,-242.72 2554.97,-238.53 2554.48,-245.51"/>
<text text-anchor="middle" x="2420.5" y="-242.9" font-family="Helvetica,sans-Serif" font-size="12.00"> xAxis</text>
</g>
<!-- Node22 -->
<g id="node22" class="node">
<title>Node22</title>
<g id="a_node22"><a xlink:href="class_j_k_q_t_p_datastore.html" target="_top" xlink:title="This class manages data columns (with entries of type double ), used by JKQTPlotter/JKQTBasePlotter t...">
<polygon fill="white" stroke="#666666" points="1872,-110 1761,-110 1761,-89 1872,-89 1872,-110"/>
<text text-anchor="middle" x="1816.5" y="-96.4" font-family="Helvetica,sans-Serif" font-size="12.00">JKQTPDatastore</text>
</a>
</g>
</g>
<!-- Node22&#45;&gt;Node4 -->
<g id="edge33" class="edge">
<title>Node22&#45;&gt;Node4</title>
<path fill="none" stroke="#9a32cd" stroke-dasharray="5,2" d="M1867.95,-112.84C1905.84,-123.56 1958.62,-140.02 2003,-159.5 2029.18,-170.99 2057.66,-187.96 2075.05,-198.87"/>
<polygon fill="#9a32cd" stroke="#9a32cd" points="1868.74,-109.42 1858.17,-110.1 1866.86,-116.16 1868.74,-109.42"/>
<text text-anchor="middle" x="1954.5" y="-162.9" font-family="Helvetica,sans-Serif" font-size="12.00"> datastore</text>
</g>
<!-- Node24 -->
<g id="node24" class="node">
<title>Node24</title>
<g id="a_node24"><a xlink:href="class_j_k_q_t_p_column.html" target="_top" xlink:title="internally stores information about one data column. See JKQTPDatastore for more information.">
<polygon fill="white" stroke="#666666" points="2141.5,-110 2043.5,-110 2043.5,-89 2141.5,-89 2141.5,-110"/>
<text text-anchor="middle" x="2092.5" y="-96.4" font-family="Helvetica,sans-Serif" font-size="12.00">JKQTPColumn</text>
</a>
</g>
</g>
<!-- Node22&#45;&gt;Node24 -->
<g id="edge36" class="edge">
<title>Node22&#45;&gt;Node24</title>
<path fill="none" stroke="#9a32cd" stroke-dasharray="5,2" d="M1882.54,-99.5C1931.87,-99.5 1998.58,-99.5 2043.22,-99.5"/>
<polygon fill="#9a32cd" stroke="#9a32cd" points="1882.29,-96 1872.29,-99.5 1882.29,-103 1882.29,-96"/>
<text text-anchor="middle" x="1954.5" y="-102.9" font-family="Helvetica,sans-Serif" font-size="12.00"> datastore</text>
</g>
<!-- Node23 -->
<g id="node23" class="node">
<title>Node23</title>
<g id="a_node23"><a xlink:title=" ">
<polygon fill="white" stroke="#666666" points="2528,-68 2313,-68 2313,-47 2528,-47 2528,-68"/>
<text text-anchor="middle" x="2420.5" y="-54.4" font-family="Helvetica,sans-Serif" font-size="12.00">std::unique_ptr&lt; JKQTPColumn &gt;</text>
</a>
</g>
</g>
<!-- Node23&#45;&gt;Node22 -->
<g id="edge34" class="edge">
<title>Node23&#45;&gt;Node22</title>
<path fill="none" stroke="#9a32cd" stroke-dasharray="5,2" d="M2302.67,-56.42C2223.12,-56.66 2115.52,-58.92 2021,-67.5 1970.25,-72.11 1912.94,-81.5 1872.1,-88.92"/>
<polygon fill="#9a32cd" stroke="#9a32cd" points="2302.73,-59.92 2312.72,-56.4 2302.72,-52.92 2302.73,-59.92"/>
<text text-anchor="middle" x="2092.5" y="-70.9" font-family="Helvetica,sans-Serif" font-size="12.00"> m_invalidColumn</text>
</g>
<!-- Node24&#45;&gt;Node23 -->
<g id="edge35" class="edge">
<title>Node24&#45;&gt;Node23</title>
<path fill="none" stroke="#9a32cd" stroke-dasharray="5,2" d="M2151.64,-92.01C2203.51,-85.33 2280.02,-75.47 2338,-68"/>
<polygon fill="#9a32cd" stroke="#9a32cd" points="2151.07,-88.55 2141.6,-93.3 2151.97,-95.5 2151.07,-88.55"/>
<text text-anchor="middle" x="2238.5" y="-89.9" font-family="Helvetica,sans-Serif" font-size="12.00"> ptr</text>
</g>
<!-- Node25 -->
<g id="node25" class="node">
<title>Node25</title>
<g id="a_node25"><a xlink:title=" ">
<polygon fill="white" stroke="#666666" points="2162.5,-21 2022.5,-21 2022.5,0 2162.5,0 2162.5,-21"/>
<text text-anchor="middle" x="2092.5" y="-7.4" font-family="Helvetica,sans-Serif" font-size="12.00">std::unique_ptr&lt; T &gt;</text>
</a>
</g>
</g>
<!-- Node25&#45;&gt;Node23 -->
<g id="edge37" class="edge">
<title>Node25&#45;&gt;Node23</title>
<path fill="none" stroke="orange" stroke-dasharray="5,2" d="M2173.04,-16.28C2210.21,-19.52 2255.01,-24.2 2295,-30.5 2322.42,-34.82 2352.88,-41.39 2376.8,-46.97"/>
<polygon fill="orange" stroke="orange" points="2173.02,-12.76 2162.76,-15.4 2172.43,-19.74 2173.02,-12.76"/>
<text text-anchor="middle" x="2238.5" y="-33.9" font-family="Helvetica,sans-Serif" font-size="12.00"> &lt; JKQTPColumn &gt;</text>
</g>
<!-- Node26 -->
<g id="node26" class="node">
<title>Node26</title>
<g id="a_node26"><a xlink:title=" ">
<polygon fill="white" stroke="#666666" points="1831,-21 1802,-21 1802,0 1831,0 1831,-21"/>
<text text-anchor="middle" x="1816.5" y="-7.4" font-family="Helvetica,sans-Serif" font-size="12.00">T</text>
</a>
</g>
</g>
<!-- Node26&#45;&gt;Node25 -->
<g id="edge38" class="edge">
<title>Node26&#45;&gt;Node25</title>
<path fill="none" stroke="#9a32cd" stroke-dasharray="5,2" d="M1841.17,-10.5C1881.06,-10.5 1963.14,-10.5 2022.46,-10.5"/>
<polygon fill="#9a32cd" stroke="#9a32cd" points="1841.09,-7 1831.09,-10.5 1841.09,-14 1841.09,-7"/>
<text text-anchor="middle" x="1954.5" y="-13.9" font-family="Helvetica,sans-Serif" font-size="12.00"> ptr</text>
</g>
</g>
</svg>
