<?xml version="1.0" encoding="UTF-8" standalone="no"?>
<!DOCTYPE svg PUBLIC "-//W3C//DTD SVG 1.1//EN"
 "http://www.w3.org/Graphics/SVG/1.1/DTD/svg11.dtd">
<!-- Generated by graphviz version 2.43.0 (0)
 -->
<!-- Title: JKQTMathTextDualChildNode Pages: 1 -->
<svg width="565pt" height="162pt"
 viewBox="0.00 0.00 564.50 162.00" xmlns="http://www.w3.org/2000/svg" xmlns:xlink="http://www.w3.org/1999/xlink">
<g id="graph0" class="graph" transform="scale(1 1) rotate(0) translate(4 158)">
<title>JKQTMathTextDualChildNode</title>
<!-- Node1 -->
<g id="node1" class="node">
<title>Node1</title>
<g id="a_node1"><a xlink:title="subclass representing a node in the syntax tree, that has two children">
<polygon fill="#999999" stroke="#666666" points="187,-21 0,-21 0,0 187,0 187,-21"/>
<text text-anchor="middle" x="93.5" y="-7.4" font-family="Helvetica,sans-Serif" font-size="12.00">JKQTMathTextDualChildNode</text>
</a>
</g>
</g>
<!-- Node2 -->
<g id="node2" class="node">
<title>Node2</title>
<g id="a_node2"><a xlink:href="class_j_k_q_t_math_text_multi_child_node.html" target="_top" xlink:title="subclass representing a node in the syntax tree, that has two children">
<polygon fill="white" stroke="#666666" points="295.5,-81.5 107.5,-81.5 107.5,-60.5 295.5,-60.5 295.5,-81.5"/>
<text text-anchor="middle" x="201.5" y="-67.9" font-family="Helvetica,sans-Serif" font-size="12.00">JKQTMathTextMultiChildNode</text>
</a>
</g>
</g>
<!-- Node2&#45;&gt;Node1 -->
<g id="edge1" class="edge">
<title>Node2&#45;&gt;Node1</title>
<path fill="none" stroke="#63b8ff" d="M174.83,-55.56C155.06,-44.84 128.64,-30.54 111.36,-21.17"/>
<polygon fill="#63b8ff" stroke="#63b8ff" points="173.21,-58.65 183.67,-60.34 176.54,-52.5 173.21,-58.65"/>
</g>
<!-- Node3 -->
<g id="node3" class="node">
<title>Node3</title>
<g id="a_node3"><a xlink:href="class_j_k_q_t_math_text_node.html" target="_top" xlink:title="subclass representing one node in the syntax tree">
<polygon fill="white" stroke="#666666" points="263,-154 132,-154 132,-133 263,-133 263,-154"/>
<text text-anchor="middle" x="197.5" y="-140.4" font-family="Helvetica,sans-Serif" font-size="12.00">JKQTMathTextNode</text>
</a>
</g>
</g>
<!-- Node3&#45;&gt;Node1 -->
<g id="edge8" class="edge">
<title>Node3&#45;&gt;Node1</title>
<path fill="none" stroke="#9a32cd" stroke-dasharray="5,2" d="M127.68,-130.12C101.43,-121.7 74.17,-107.6 58.5,-84 44.58,-63.04 67.54,-35.71 82.4,-21.33"/>
<polygon fill="#9a32cd" stroke="#9a32cd" points="126.7,-133.48 137.28,-132.97 128.69,-126.77 126.7,-133.48"/>
<text text-anchor="middle" x="78.5" y="-74.4" font-family="Helvetica,sans-Serif" font-size="12.00"> child1</text>
<text text-anchor="middle" x="78.5" y="-61.4" font-family="Helvetica,sans-Serif" font-size="12.00">child2</text>
</g>
<!-- Node3&#45;&gt;Node2 -->
<g id="edge2" class="edge">
<title>Node3&#45;&gt;Node2</title>
<path fill="none" stroke="#63b8ff" d="M195.08,-122.74C194.84,-120.14 194.64,-117.51 194.5,-115 194.19,-109.23 193.84,-107.74 194.5,-102 195.3,-95.09 197.09,-87.46 198.66,-81.63"/>
<polygon fill="#63b8ff" stroke="#63b8ff" points="191.62,-123.29 196.19,-132.85 198.58,-122.53 191.62,-123.29"/>
</g>
<!-- Node3&#45;&gt;Node3 -->
<g id="edge7" class="edge">
<title>Node3&#45;&gt;Node3</title>
<path fill="none" stroke="#9a32cd" stroke-dasharray="5,2" d="M273.52,-147.94C278.19,-146.89 281,-145.41 281,-143.5 281,-140.45 273.81,-138.49 263.31,-137.63"/>
<polygon fill="#9a32cd" stroke="#9a32cd" points="272.73,-144.52 263.31,-149.37 273.7,-151.45 272.73,-144.52"/>
<text text-anchor="middle" x="318.5" y="-140.4" font-family="Helvetica,sans-Serif" font-size="12.00"> parentNode</text>
</g>
<!-- Node4 -->
<g id="node4" class="node">
<title>Node4</title>
<g id="a_node4"><a xlink:href="class_j_k_q_t_math_text.html" target="_top" xlink:title="this class parses a mathematical markup string and can then draw the contained text/equation onto a Q...">
<polygon fill="white" stroke="#666666" points="454,-81.5 355,-81.5 355,-60.5 454,-60.5 454,-81.5"/>
<text text-anchor="middle" x="404.5" y="-67.9" font-family="Helvetica,sans-Serif" font-size="12.00">JKQTMathText</text>
</a>
</g>
</g>
<!-- Node3&#45;&gt;Node4 -->
<g id="edge5" class="edge">
<title>Node3&#45;&gt;Node4</title>
<path fill="none" stroke="#9a32cd" stroke-dasharray="5,2" d="M199.39,-122.89C201.13,-115.31 204.39,-107.22 210.5,-102 215.99,-97.31 299.26,-85.68 354.9,-78.35"/>
<polygon fill="#9a32cd" stroke="#9a32cd" points="195.91,-122.5 197.82,-132.92 202.83,-123.58 195.91,-122.5"/>
<text text-anchor="middle" x="249" y="-105.4" font-family="Helvetica,sans-Serif" font-size="12.00"> parsedNode</text>
</g>
<!-- Node4&#45;&gt;Node3 -->
<g id="edge3" class="edge">
<title>Node4&#45;&gt;Node3</title>
<path fill="none" stroke="#9a32cd" stroke-dasharray="5,2" d="M360.08,-84.53C345.03,-89.33 328.29,-95.29 313.5,-102 303.16,-106.69 301.92,-110.48 291.5,-115 274.65,-122.31 255.29,-128.34 238.53,-132.88"/>
<polygon fill="#9a32cd" stroke="#9a32cd" points="361.18,-87.86 369.7,-81.55 359.11,-81.17 361.18,-87.86"/>
<text text-anchor="middle" x="362" y="-105.4" font-family="Helvetica,sans-Serif" font-size="12.00"> parentMathText</text>
</g>
<!-- Node5 -->
<g id="node5" class="node">
<title>Node5</title>
<g id="a_node5"><a xlink:title=" ">
<polygon fill="white" stroke="#666666" points="458,-154 393,-154 393,-133 458,-133 458,-154"/>
<text text-anchor="middle" x="425.5" y="-140.4" font-family="Helvetica,sans-Serif" font-size="12.00">QObject</text>
</a>
</g>
</g>
<!-- Node5&#45;&gt;Node4 -->
<g id="edge4" class="edge">
<title>Node5&#45;&gt;Node4</title>
<path fill="none" stroke="#63b8ff" d="M419.77,-123.28C415.78,-109.85 410.6,-92.49 407.42,-81.81"/>
<polygon fill="#63b8ff" stroke="#63b8ff" points="416.46,-124.41 422.67,-132.99 423.17,-122.41 416.46,-124.41"/>
</g>
<!-- Node6 -->
<g id="node6" class="node">
<title>Node6</title>
<g id="a_node6"><a xlink:title=" ">
<polygon fill="white" stroke="#666666" points="556.5,-154 476.5,-154 476.5,-133 556.5,-133 556.5,-154"/>
<text text-anchor="middle" x="516.5" y="-140.4" font-family="Helvetica,sans-Serif" font-size="12.00">std::mutex</text>
</a>
</g>
</g>
<!-- Node6&#45;&gt;Node4 -->
<g id="edge6" class="edge">
<title>Node6&#45;&gt;Node4</title>
<path fill="none" stroke="#9a32cd" stroke-dasharray="5,2" d="M492.92,-127.66C470.86,-113.77 438.57,-93.44 419.72,-81.58"/>
<polygon fill="#9a32cd" stroke="#9a32cd" points="491.07,-130.63 501.4,-132.99 494.8,-124.7 491.07,-130.63"/>
<text text-anchor="middle" x="499" y="-105.4" font-family="Helvetica,sans-Serif" font-size="12.00"> s_mutex</text>
</g>
</g>
</svg>
