<?xml version="1.0" encoding="UTF-8" standalone="no"?>
<!DOCTYPE svg PUBLIC "-//W3C//DTD SVG 1.1//EN"
 "http://www.w3.org/Graphics/SVG/1.1/DTD/svg11.dtd">
<!-- Generated by graphviz version 2.43.0 (0)
 -->
<!-- Title: JKQTMathTextDualChildNode Pages: 1 -->
<svg width="498pt" height="177pt"
 viewBox="0.00 0.00 498.00 177.00" xmlns="http://www.w3.org/2000/svg" xmlns:xlink="http://www.w3.org/1999/xlink">
<g id="graph0" class="graph" transform="scale(1 1) rotate(0) translate(4 173)">
<title>JKQTMathTextDualChildNode</title>
<!-- Node1 -->
<g id="node1" class="node">
<title>Node1</title>
<g id="a_node1"><a xlink:title="subclass representing a node in the syntax tree, that has two children">
<polygon fill="#bfbfbf" stroke="black" points="0,-0.5 0,-21.5 187,-21.5 187,-0.5 0,-0.5"/>
<text text-anchor="middle" x="93.5" y="-7.9" font-family="Helvetica,sans-Serif" font-size="12.00">JKQTMathTextDualChildNode</text>
</a>
</g>
</g>
<!-- Node2 -->
<g id="node2" class="node">
<title>Node2</title>
<g id="a_node2"><a xlink:href="class_j_k_q_t_math_text_multi_child_node.html" target="_top" xlink:title="subclass representing a node in the syntax tree, that has two children">
<polygon fill="none" stroke="black" points="107.5,-61.5 107.5,-82.5 295.5,-82.5 295.5,-61.5 107.5,-61.5"/>
<text text-anchor="middle" x="201.5" y="-68.9" font-family="Helvetica,sans-Serif" font-size="12.00">JKQTMathTextMultiChildNode</text>
</a>
</g>
</g>
<!-- Node2&#45;&gt;Node1 -->
<g id="edge1" class="edge">
<title>Node2&#45;&gt;Node1</title>
<path fill="none" stroke="midnightblue" d="M174.78,-56.4C154.87,-45.53 128.26,-30.99 111,-21.56"/>
<polygon fill="midnightblue" stroke="midnightblue" points="173.21,-59.53 183.67,-61.26 176.57,-53.39 173.21,-59.53"/>
</g>
<!-- Node3 -->
<g id="node3" class="node">
<title>Node3</title>
<g id="a_node3"><a xlink:href="class_j_k_q_t_math_text_node.html" target="_top" xlink:title="subclass representing one node in the syntax tree">
<polygon fill="none" stroke="black" points="153,-147.5 153,-168.5 284,-168.5 284,-147.5 153,-147.5"/>
<text text-anchor="middle" x="218.5" y="-154.9" font-family="Helvetica,sans-Serif" font-size="12.00">JKQTMathTextNode</text>
</a>
</g>
</g>
<!-- Node3&#45;&gt;Node1 -->
<g id="edge7" class="edge">
<title>Node3&#45;&gt;Node1</title>
<path fill="none" stroke="#9a32cd" stroke-dasharray="5,2" d="M151.3,-144.67C117.33,-134.67 79.05,-116.78 58.5,-85 44.76,-63.76 67.65,-36.3 82.45,-21.86"/>
<polygon fill="#9a32cd" stroke="#9a32cd" points="150.64,-148.12 161.22,-147.41 152.51,-141.37 150.64,-148.12"/>
<text text-anchor="middle" x="78.5" y="-75.4" font-family="Helvetica,sans-Serif" font-size="12.00"> child1</text>
<text text-anchor="middle" x="78.5" y="-62.4" font-family="Helvetica,sans-Serif" font-size="12.00">child2</text>
</g>
<!-- Node3&#45;&gt;Node2 -->
<g id="edge2" class="edge">
<title>Node3&#45;&gt;Node2</title>
<path fill="none" stroke="midnightblue" d="M214.5,-137.24C211.01,-120.01 206.1,-95.75 203.43,-82.52"/>
<polygon fill="midnightblue" stroke="midnightblue" points="211.14,-138.26 216.55,-147.36 218,-136.87 211.14,-138.26"/>
</g>
<!-- Node3&#45;&gt;Node3 -->
<g id="edge6" class="edge">
<title>Node3&#45;&gt;Node3</title>
<path fill="none" stroke="#9a32cd" stroke-dasharray="5,2" d="M294.17,-163.58C299.05,-162.28 302,-160.42 302,-158 302,-154.23 294.81,-151.81 284.31,-150.75"/>
<polygon fill="#9a32cd" stroke="#9a32cd" points="293.58,-160.13 284.31,-165.25 294.75,-167.03 293.58,-160.13"/>
<text text-anchor="middle" x="339.5" y="-154.9" font-family="Helvetica,sans-Serif" font-size="12.00"> parentNode</text>
</g>
<!-- Node4 -->
<g id="node4" class="node">
<title>Node4</title>
<g id="a_node4"><a xlink:href="class_j_k_q_t_math_text.html" target="_top" xlink:title="this class parses a LaTeX string and can then draw the contained text/equation onto a QPainter">
<polygon fill="none" stroke="black" points="314,-61.5 314,-82.5 413,-82.5 413,-61.5 314,-61.5"/>
<text text-anchor="middle" x="363.5" y="-68.9" font-family="Helvetica,sans-Serif" font-size="12.00">JKQTMathText</text>
</a>
</g>
</g>
<!-- Node3&#45;&gt;Node4 -->
<g id="edge5" class="edge">
<title>Node3&#45;&gt;Node4</title>
<path fill="none" stroke="#9a32cd" stroke-dasharray="5,2" d="M218.36,-137.12C219.35,-125.67 222.56,-111.83 231.5,-103 233.12,-101.4 281.17,-90.74 318.83,-82.58"/>
<polygon fill="#9a32cd" stroke="#9a32cd" points="214.86,-137.01 217.97,-147.14 221.85,-137.28 214.86,-137.01"/>
<text text-anchor="middle" x="275.5" y="-119.4" font-family="Helvetica,sans-Serif" font-size="12.00"> parsedNode</text>
<text text-anchor="middle" x="275.5" y="-106.4" font-family="Helvetica,sans-Serif" font-size="12.00">unparsedNode</text>
</g>
<!-- Node4&#45;&gt;Node3 -->
<g id="edge3" class="edge">
<title>Node4&#45;&gt;Node3</title>
<path fill="none" stroke="#9a32cd" stroke-dasharray="5,2" d="M350.96,-90.85C339.6,-106.99 324.47,-128.33 323.5,-129 311.32,-137.43 296.74,-143.32 282.37,-147.44"/>
<polygon fill="#9a32cd" stroke="#9a32cd" points="353.89,-92.78 356.78,-82.59 348.16,-88.75 353.89,-92.78"/>
<text text-anchor="middle" x="391" y="-112.9" font-family="Helvetica,sans-Serif" font-size="12.00"> parentMathText</text>
</g>
<!-- Node5 -->
<g id="node5" class="node">
<title>Node5</title>
<g id="a_node5"><a xlink:title=" ">
<polygon fill="none" stroke="black" points="425,-147.5 425,-168.5 490,-168.5 490,-147.5 425,-147.5"/>
<text text-anchor="middle" x="457.5" y="-154.9" font-family="Helvetica,sans-Serif" font-size="12.00">QObject</text>
</a>
</g>
</g>
<!-- Node5&#45;&gt;Node4 -->
<g id="edge4" class="edge">
<title>Node5&#45;&gt;Node4</title>
<path fill="none" stroke="midnightblue" d="M456.75,-137.17C455.35,-125.93 451.86,-112.29 443.5,-103 434.97,-93.52 423.14,-87.02 411.19,-82.57"/>
<polygon fill="midnightblue" stroke="midnightblue" points="453.28,-137.68 457.57,-147.37 460.26,-137.13 453.28,-137.68"/>
</g>
</g>
</svg>
