<?xml version="1.0" encoding="UTF-8" standalone="no"?>
<!DOCTYPE svg PUBLIC "-//W3C//DTD SVG 1.1//EN"
 "http://www.w3.org/Graphics/SVG/1.1/DTD/svg11.dtd">
<!-- Generated by graphviz version 2.43.0 (0)
 -->
<!-- Title: JKQTMathTextNode Pages: 1 -->
<!--zoomable 390 -->
<svg id="main" version="1.1" xmlns="http://www.w3.org/2000/svg" xmlns:xlink="http://www.w3.org/1999/xlink" xml:space="preserve" onload="init(evt)">
<style type="text/css"><![CDATA[
.edge:hover path { stroke: red; }
.edge:hover polygon { stroke: red; fill: red; }
]]></style>
<script type="text/javascript"><![CDATA[
var edges = document.getElementsByTagName('g');
if (edges && edges.length) {
  for (var i=0;i<edges.length;i++) {
    if (edges[i].id.substr(0,4)=='edge') {
      edges[i].setAttribute('class','edge');
    }
  }
}
]]></script>
        <defs>
                <circle id="rim" cx="0" cy="0" r="7"/>
                <circle id="rim2" cx="0" cy="0" r="3.5"/>
                <g id="zoomPlus">
                        <use xlink:href="#rim" fill="#404040">
                                <set attributeName="fill" to="#808080" begin="zoomplus.mouseover" end="zoomplus.mouseout"/>
                        </use>
                        <path d="M-4,0h8M0,-4v8" fill="none" stroke="white" stroke-width="1.5" pointer-events="none"/>
                </g>
                <g id="zoomMin">
                        <use xlink:href="#rim" fill="#404040">
                                <set attributeName="fill" to="#808080" begin="zoomminus.mouseover" end="zoomminus.mouseout"/>
                        </use>
                        <path d="M-4,0h8" fill="none" stroke="white" stroke-width="1.5" pointer-events="none"/>
                </g>
                <g id="dirArrow">
                        <path fill="none" stroke="white" stroke-width="1.5" d="M0,-3.0v7 M-2.5,-0.5L0,-3.0L2.5,-0.5"/>
                </g>
               <g id="resetDef">
                       <use xlink:href="#rim2" fill="#404040">
                               <set attributeName="fill" to="#808080" begin="reset.mouseover" end="reset.mouseout"/>
                       </use>
               </g>
        </defs>

<script type="text/javascript">
var viewWidth = 910;
var viewHeight = 390;
var sectionId = 'dynsection-0';
</script>
<script xlink:href="svgpan.js"/>
<svg id="graph" class="graph">
<g id="viewport">
<title>JKQTMathTextNode</title>
<!-- Node1 -->
<g id="node1" class="node">
<title>Node1</title>
<g id="a_node1"><a xlink:title="subclass representing one node in the syntax tree">
<polygon fill="#bfbfbf" stroke="black" points="0,-180.5 0,-201.5 131,-201.5 131,-180.5 0,-180.5"/>
<text text-anchor="middle" x="65.5" y="-187.9" font-family="Helvetica,sans-Serif" font-size="12.00">JKQTMathTextNode</text>
</a>
</g>
</g>
<!-- Node2 -->
<g id="node2" class="node">
<title>Node2</title>
<g id="a_node2"><a xlink:href="class_j_k_q_t_math_text_empty_box_node.html" target="_top" xlink:title="subclass representing an empty bbox with defined width/height in the syntax tree">
<polygon fill="none" stroke="black" points="189,-320.5 189,-341.5 380,-341.5 380,-320.5 189,-320.5"/>
<text text-anchor="middle" x="284.5" y="-327.9" font-family="Helvetica,sans-Serif" font-size="12.00">JKQTMathTextEmptyBoxNode</text>
</a>
</g>
</g>
<!-- Node1&#45;&gt;Node2 -->
<g id="edge1" class="edge">
<title>Node1&#45;&gt;Node2</title>
<path fill="none" stroke="midnightblue" d="M77.09,-210.86C92.81,-238.22 125.04,-286.87 167,-311 173.85,-314.94 181.27,-318.14 188.94,-320.75"/>
<polygon fill="midnightblue" stroke="midnightblue" points="79.98,-208.86 72.06,-201.83 73.87,-212.26 79.98,-208.86"/>
</g>
<!-- Node3 -->
<g id="node3" class="node">
<title>Node3</title>
<g id="a_node3"><a xlink:href="class_j_k_q_t_math_text_matrix_node.html" target="_top" xlink:title="subclass representing a \begin{matrix} node">
<polygon fill="none" stroke="black" points="200.5,-280.5 200.5,-301.5 368.5,-301.5 368.5,-280.5 200.5,-280.5"/>
<text text-anchor="middle" x="284.5" y="-287.9" font-family="Helvetica,sans-Serif" font-size="12.00">JKQTMathTextMatrixNode</text>
</a>
</g>
</g>
<!-- Node1&#45;&gt;Node3 -->
<g id="edge2" class="edge">
<title>Node1&#45;&gt;Node3</title>
<path fill="none" stroke="midnightblue" d="M83.31,-208.9C101.91,-227.55 133.7,-256.08 167,-271 177.49,-275.7 188.96,-279.3 200.49,-282.06"/>
<polygon fill="midnightblue" stroke="midnightblue" points="85.66,-206.31 76.17,-201.59 80.65,-211.19 85.66,-206.31"/>
</g>
<!-- Node4 -->
<g id="node4" class="node">
<title>Node4</title>
<g id="a_node4"><a xlink:href="class_j_k_q_t_math_text_multi_child_node.html" target="_top" xlink:title="subclass representing a node in the syntax tree, that has two children">
<polygon fill="none" stroke="black" points="190.5,-240.5 190.5,-261.5 378.5,-261.5 378.5,-240.5 190.5,-240.5"/>
<text text-anchor="middle" x="284.5" y="-247.9" font-family="Helvetica,sans-Serif" font-size="12.00">JKQTMathTextMultiChildNode</text>
</a>
</g>
</g>
<!-- Node1&#45;&gt;Node4 -->
<g id="edge3" class="edge">
<title>Node1&#45;&gt;Node4</title>
<path fill="none" stroke="midnightblue" d="M98.48,-205.72C117.94,-214.17 143.49,-224.38 167,-231 180.24,-234.73 194.52,-237.87 208.4,-240.48"/>
<polygon fill="midnightblue" stroke="midnightblue" points="99.74,-202.45 89.18,-201.61 96.91,-208.85 99.74,-202.45"/>
</g>
<!-- Node10 -->
<g id="node10" class="node">
<title>Node10</title>
<g id="a_node10"><a xlink:href="class_j_k_q_t_math_text_simple_instruction_node.html" target="_top" xlink:title="subclass representing a simple instruction node which only accepts string arguments,...">
<polygon fill="none" stroke="black" points="167,-200.5 167,-221.5 402,-221.5 402,-200.5 167,-200.5"/>
<text text-anchor="middle" x="284.5" y="-207.9" font-family="Helvetica,sans-Serif" font-size="12.00">JKQTMathTextSimpleInstructionNode</text>
</a>
</g>
</g>
<!-- Node1&#45;&gt;Node10 -->
<g id="edge9" class="edge">
<title>Node1&#45;&gt;Node10</title>
<path fill="none" stroke="midnightblue" d="M141.14,-197.88C150.26,-198.72 159.72,-199.59 169.25,-200.47"/>
<polygon fill="midnightblue" stroke="midnightblue" points="141.3,-194.38 131.02,-196.95 140.66,-201.35 141.3,-194.38"/>
</g>
<!-- Node11 -->
<g id="node11" class="node">
<title>Node11</title>
<g id="a_node11"><a xlink:href="class_j_k_q_t_math_text_single_child_node.html" target="_top" xlink:title="subclass representing a node in the syntax tree, that has one child">
<polygon fill="none" stroke="black" points="186.5,-160.5 186.5,-181.5 382.5,-181.5 382.5,-160.5 186.5,-160.5"/>
<text text-anchor="middle" x="284.5" y="-167.9" font-family="Helvetica,sans-Serif" font-size="12.00">JKQTMathTextSingleChildNode</text>
</a>
</g>
</g>
<!-- Node1&#45;&gt;Node11 -->
<g id="edge10" class="edge">
<title>Node1&#45;&gt;Node11</title>
<path fill="none" stroke="midnightblue" d="M141.39,-184.1C155.86,-182.76 171.22,-181.35 186.28,-179.96"/>
<polygon fill="midnightblue" stroke="midnightblue" points="140.66,-180.65 131.02,-185.05 141.3,-187.62 140.66,-180.65"/>
</g>
<!-- Node19 -->
<g id="node19" class="node">
<title>Node19</title>
<g id="a_node19"><a xlink:href="class_j_k_q_t_math_text_symbol_node.html" target="_top" xlink:title="subclass representing one symbol (e.g. \alpha , \cdot ...) node in the syntax tree">
<polygon fill="none" stroke="black" points="197,-120.5 197,-141.5 372,-141.5 372,-120.5 197,-120.5"/>
<text text-anchor="middle" x="284.5" y="-127.9" font-family="Helvetica,sans-Serif" font-size="12.00">JKQTMathTextSymbolNode</text>
</a>
</g>
</g>
<!-- Node1&#45;&gt;Node19 -->
<g id="edge18" class="edge">
<title>Node1&#45;&gt;Node19</title>
<path fill="none" stroke="midnightblue" d="M98.48,-176.28C117.94,-167.83 143.49,-157.62 167,-151 180.24,-147.27 194.52,-144.13 208.4,-141.52"/>
<polygon fill="midnightblue" stroke="midnightblue" points="96.91,-173.15 89.18,-180.39 99.74,-179.55 96.91,-173.15"/>
</g>
<!-- Node20 -->
<g id="node20" class="node">
<title>Node20</title>
<g id="a_node20"><a xlink:href="class_j_k_q_t_math_text_text_node.html" target="_top" xlink:title="subclass representing one text node in the syntax tree">
<polygon fill="none" stroke="black" points="207,-80.5 207,-101.5 362,-101.5 362,-80.5 207,-80.5"/>
<text text-anchor="middle" x="284.5" y="-87.9" font-family="Helvetica,sans-Serif" font-size="12.00">JKQTMathTextTextNode</text>
</a>
</g>
</g>
<!-- Node1&#45;&gt;Node20 -->
<g id="edge19" class="edge">
<title>Node1&#45;&gt;Node20</title>
<path fill="none" stroke="midnightblue" d="M83.31,-173.1C101.91,-154.45 133.7,-125.92 167,-111 179.45,-105.42 193.3,-101.39 206.97,-98.48"/>
<polygon fill="midnightblue" stroke="midnightblue" points="80.65,-170.81 76.17,-180.41 85.66,-175.69 80.65,-170.81"/>
</g>
<!-- Node22 -->
<g id="node22" class="node">
<title>Node22</title>
<g id="a_node22"><a xlink:href="class_j_k_q_t_math_text_whitespace_node.html" target="_top" xlink:title="subclass representing one whitepsace node in the syntax tree">
<polygon fill="none" stroke="black" points="184.5,-40.5 184.5,-61.5 384.5,-61.5 384.5,-40.5 184.5,-40.5"/>
<text text-anchor="middle" x="284.5" y="-47.9" font-family="Helvetica,sans-Serif" font-size="12.00">JKQTMathTextWhitespaceNode</text>
</a>
</g>
</g>
<!-- Node1&#45;&gt;Node22 -->
<g id="edge21" class="edge">
<title>Node1&#45;&gt;Node22</title>
<path fill="none" stroke="midnightblue" d="M77.09,-171.14C92.81,-143.78 125.04,-95.13 167,-71 173.58,-67.22 180.7,-64.11 188.05,-61.56"/>
<polygon fill="midnightblue" stroke="midnightblue" points="73.87,-169.74 72.06,-180.17 79.98,-173.14 73.87,-169.74"/>
</g>
<!-- Node5 -->
<g id="node5" class="node">
<title>Node5</title>
<g id="a_node5"><a xlink:href="class_j_k_q_t_math_text_dual_child_node.html" target="_top" xlink:title="subclass representing a node in the syntax tree, that has two children">
<polygon fill="none" stroke="black" points="450.5,-360.5 450.5,-381.5 637.5,-381.5 637.5,-360.5 450.5,-360.5"/>
<text text-anchor="middle" x="544" y="-367.9" font-family="Helvetica,sans-Serif" font-size="12.00">JKQTMathTextDualChildNode</text>
</a>
</g>
</g>
<!-- Node4&#45;&gt;Node5 -->
<g id="edge4" class="edge">
<title>Node4&#45;&gt;Node5</title>
<path fill="none" stroke="midnightblue" d="M387.94,-262.27C392.91,-264.73 397.64,-267.62 402,-271 432.83,-294.87 407.39,-326.85 438,-351 442.73,-354.74 447.96,-357.85 453.47,-360.43"/>
<polygon fill="midnightblue" stroke="midnightblue" points="389.32,-259.05 378.75,-258.28 386.53,-265.47 389.32,-259.05"/>
</g>
<!-- Node7 -->
<g id="node7" class="node">
<title>Node7</title>
<g id="a_node7"><a xlink:href="class_j_k_q_t_math_text_horizontal_list_node.html" target="_top" xlink:title="subclass representing a list of nodes in the syntax tree, layed out horizontally">
<polygon fill="none" stroke="black" points="438,-320.5 438,-341.5 650,-341.5 650,-320.5 438,-320.5"/>
<text text-anchor="middle" x="544" y="-327.9" font-family="Helvetica,sans-Serif" font-size="12.00">JKQTMathTextHorizontalListNode</text>
</a>
</g>
</g>
<!-- Node4&#45;&gt;Node7 -->
<g id="edge6" class="edge">
<title>Node4&#45;&gt;Node7</title>
<path fill="none" stroke="midnightblue" d="M388.47,-264.63C393.14,-266.5 397.68,-268.62 402,-271 422.94,-282.55 417.16,-299.26 438,-311 444.79,-314.83 452.18,-317.93 459.79,-320.46"/>
<polygon fill="midnightblue" stroke="midnightblue" points="389.3,-261.21 378.7,-261.12 386.93,-267.8 389.3,-261.21"/>
</g>
<!-- Node8 -->
<g id="node8" class="node">
<title>Node8</title>
<g id="a_node8"><a xlink:href="class_j_k_q_t_math_text_sqrt_node.html" target="_top" xlink:title="subclass representing a sqrt node">
<polygon fill="none" stroke="black" points="466.5,-280.5 466.5,-301.5 621.5,-301.5 621.5,-280.5 466.5,-280.5"/>
<text text-anchor="middle" x="544" y="-287.9" font-family="Helvetica,sans-Serif" font-size="12.00">JKQTMathTextSqrtNode</text>
</a>
</g>
</g>
<!-- Node4&#45;&gt;Node8 -->
<g id="edge7" class="edge">
<title>Node4&#45;&gt;Node8</title>
<path fill="none" stroke="midnightblue" d="M363.06,-263.05C398.83,-268.6 440.89,-275.14 475.35,-280.49"/>
<polygon fill="midnightblue" stroke="midnightblue" points="363.57,-259.59 353.16,-261.51 362.5,-266.5 363.57,-259.59"/>
</g>
<!-- Node9 -->
<g id="node9" class="node">
<title>Node9</title>
<g id="a_node9"><a xlink:href="class_j_k_q_t_math_text_vertical_list_node.html" target="_top" xlink:title="subclass representing a list of nodes in the syntax tree, layed out vertically">
<polygon fill="none" stroke="black" points="446,-240.5 446,-261.5 642,-261.5 642,-240.5 446,-240.5"/>
<text text-anchor="middle" x="544" y="-247.9" font-family="Helvetica,sans-Serif" font-size="12.00">JKQTMathTextVerticalListNode</text>
</a>
</g>
</g>
<!-- Node4&#45;&gt;Node9 -->
<g id="edge8" class="edge">
<title>Node4&#45;&gt;Node9</title>
<path fill="none" stroke="midnightblue" d="M388.85,-251C407.6,-251 427.09,-251 445.66,-251"/>
<polygon fill="midnightblue" stroke="midnightblue" points="388.83,-247.5 378.83,-251 388.83,-254.5 388.83,-247.5"/>
</g>
<!-- Node6 -->
<g id="node6" class="node">
<title>Node6</title>
<g id="a_node6"><a xlink:href="class_j_k_q_t_math_text_frac_node.html" target="_top" xlink:title="subclass representing a \frac node">
<polygon fill="none" stroke="black" points="716,-360.5 716,-381.5 872,-381.5 872,-360.5 716,-360.5"/>
<text text-anchor="middle" x="794" y="-367.9" font-family="Helvetica,sans-Serif" font-size="12.00">JKQTMathTextFracNode</text>
</a>
</g>
</g>
<!-- Node5&#45;&gt;Node6 -->
<g id="edge5" class="edge">
<title>Node5&#45;&gt;Node6</title>
<path fill="none" stroke="midnightblue" d="M647.73,-371C670.51,-371 694.27,-371 715.81,-371"/>
<polygon fill="midnightblue" stroke="midnightblue" points="647.7,-367.5 637.7,-371 647.7,-374.5 647.7,-367.5"/>
</g>
<!-- Node12 -->
<g id="node12" class="node">
<title>Node12</title>
<g id="a_node12"><a xlink:href="class_j_k_q_t_math_text_brace_node.html" target="_top" xlink:title="subclass representing a brace node">
<polygon fill="none" stroke="black" points="461,-200.5 461,-221.5 627,-221.5 627,-200.5 461,-200.5"/>
<text text-anchor="middle" x="544" y="-207.9" font-family="Helvetica,sans-Serif" font-size="12.00">JKQTMathTextBraceNode</text>
</a>
</g>
</g>
<!-- Node11&#45;&gt;Node12 -->
<g id="edge11" class="edge">
<title>Node11&#45;&gt;Node12</title>
<path fill="none" stroke="midnightblue" d="M363.06,-183.05C398.83,-188.6 440.89,-195.14 475.35,-200.49"/>
<polygon fill="midnightblue" stroke="midnightblue" points="363.57,-179.59 353.16,-181.51 362.5,-186.5 363.57,-179.59"/>
</g>
<!-- Node13 -->
<g id="node13" class="node">
<title>Node13</title>
<g id="a_node13"><a xlink:href="class_j_k_q_t_math_text_decorated_node.html" target="_top" xlink:title="subclass representing a decorated text m (e.g. \vec \hat ...) node">
<polygon fill="none" stroke="black" points="447,-160.5 447,-181.5 641,-181.5 641,-160.5 447,-160.5"/>
<text text-anchor="middle" x="544" y="-167.9" font-family="Helvetica,sans-Serif" font-size="12.00">JKQTMathTextDecoratedNode</text>
</a>
</g>
</g>
<!-- Node11&#45;&gt;Node13 -->
<g id="edge12" class="edge">
<title>Node11&#45;&gt;Node13</title>
<path fill="none" stroke="midnightblue" d="M393.24,-171C411.01,-171 429.33,-171 446.79,-171"/>
<polygon fill="midnightblue" stroke="midnightblue" points="392.85,-167.5 382.85,-171 392.85,-174.5 392.85,-167.5"/>
</g>
<!-- Node14 -->
<g id="node14" class="node">
<title>Node14</title>
<g id="a_node14"><a xlink:href="class_j_k_q_t_math_text_instruction1_node.html" target="_top" xlink:title="subclass representing an instruction node with exactly one argument and possibly additional parameter...">
<polygon fill="none" stroke="black" points="443,-120.5 443,-141.5 645,-141.5 645,-120.5 443,-120.5"/>
<text text-anchor="middle" x="544" y="-127.9" font-family="Helvetica,sans-Serif" font-size="12.00">JKQTMathTextInstruction1Node</text>
</a>
</g>
</g>
<!-- Node11&#45;&gt;Node14 -->
<g id="edge13" class="edge">
<title>Node11&#45;&gt;Node14</title>
<path fill="none" stroke="midnightblue" d="M363.06,-158.95C398.83,-153.4 440.89,-146.86 475.35,-141.51"/>
<polygon fill="midnightblue" stroke="midnightblue" points="362.5,-155.5 353.16,-160.49 363.57,-162.41 362.5,-155.5"/>
</g>
<!-- Node17 -->
<g id="node17" class="node">
<title>Node17</title>
<g id="a_node17"><a xlink:href="class_j_k_q_t_math_text_subscript_node.html" target="_top" xlink:title="subclass representing an subscript node with exactly one argument in the syntax tree">
<polygon fill="none" stroke="black" points="451,-80.5 451,-101.5 637,-101.5 637,-80.5 451,-80.5"/>
<text text-anchor="middle" x="544" y="-87.9" font-family="Helvetica,sans-Serif" font-size="12.00">JKQTMathTextSubscriptNode</text>
</a>
</g>
</g>
<!-- Node11&#45;&gt;Node17 -->
<g id="edge16" class="edge">
<title>Node11&#45;&gt;Node17</title>
<path fill="none" stroke="midnightblue" d="M389.51,-156.94C393.82,-155.18 398,-153.21 402,-151 422.94,-139.45 417.16,-122.74 438,-111 444.79,-107.17 452.18,-104.07 459.79,-101.54"/>
<polygon fill="midnightblue" stroke="midnightblue" points="388.08,-153.74 379.91,-160.48 390.5,-160.31 388.08,-153.74"/>
</g>
<!-- Node18 -->
<g id="node18" class="node">
<title>Node18</title>
<g id="a_node18"><a xlink:href="class_j_k_q_t_math_text_superscript_node.html" target="_top" xlink:title="subclass representing an superscript node with exactly one argument in the syntax tree">
<polygon fill="none" stroke="black" points="444.5,-40.5 444.5,-61.5 643.5,-61.5 643.5,-40.5 444.5,-40.5"/>
<text text-anchor="middle" x="544" y="-47.9" font-family="Helvetica,sans-Serif" font-size="12.00">JKQTMathTextSuperscriptNode</text>
</a>
</g>
</g>
<!-- Node11&#45;&gt;Node18 -->
<g id="edge17" class="edge">
<title>Node11&#45;&gt;Node18</title>
<path fill="none" stroke="midnightblue" d="M391.73,-157.74C395.32,-155.75 398.76,-153.51 402,-151 432.83,-127.13 407.39,-95.15 438,-71 442.73,-67.26 447.96,-64.15 453.47,-61.57"/>
<polygon fill="midnightblue" stroke="midnightblue" points="389.98,-154.7 382.51,-162.22 393.03,-161 389.98,-154.7"/>
</g>
<!-- Node15 -->
<g id="node15" class="node">
<title>Node15</title>
<g id="a_node15"><a xlink:href="class_j_k_q_t_math_text_box_instruction_node.html" target="_top" xlink:title="subclass representing an instruction node which draws a (possibly colored) box around it&#39;s contents i...">
<polygon fill="none" stroke="black" points="686,-143.5 686,-164.5 902,-164.5 902,-143.5 686,-143.5"/>
<text text-anchor="middle" x="794" y="-150.9" font-family="Helvetica,sans-Serif" font-size="12.00">JKQTMathTextBoxInstructionNode</text>
</a>
</g>
</g>
<!-- Node14&#45;&gt;Node15 -->
<g id="edge14" class="edge">
<title>Node14&#45;&gt;Node15</title>
<path fill="none" stroke="midnightblue" d="M655.3,-141.23C665.5,-142.18 675.82,-143.13 685.99,-144.08"/>
<polygon fill="midnightblue" stroke="midnightblue" points="655.44,-137.73 645.16,-140.29 654.79,-144.7 655.44,-137.73"/>
</g>
<!-- Node16 -->
<g id="node16" class="node">
<title>Node16</title>
<g id="a_node16"><a xlink:href="class_j_k_q_t_math_text_modified_text_props_instruction_node.html" target="_top" xlink:title="subclass representing an instruction node which modifies the current font (as defined in JKQTMathText...">
<polygon fill="none" stroke="black" points="707,-90 707,-124 881,-124 881,-90 707,-90"/>
<text text-anchor="start" x="715" y="-110.4" font-family="Helvetica,sans-Serif" font-size="12.00">JKQTMathTextModifiedText</text>
<text text-anchor="middle" x="794" y="-97.4" font-family="Helvetica,sans-Serif" font-size="12.00">PropsInstructionNode</text>
</a>
</g>
</g>
<!-- Node14&#45;&gt;Node16 -->
<g id="edge15" class="edge">
<title>Node14&#45;&gt;Node16</title>
<path fill="none" stroke="midnightblue" d="M655.28,-120.33C672.55,-118.66 690.19,-116.95 706.82,-115.34"/>
<polygon fill="midnightblue" stroke="midnightblue" points="654.77,-116.86 645.16,-121.31 655.45,-123.83 654.77,-116.86"/>
</g>
<!-- Node21 -->
<g id="node21" class="node">
<title>Node21</title>
<g id="a_node21"><a xlink:href="class_m_tplain_text_node.html" target="_top" xlink:title="subclass representing one text node in the syntax tree">
<polygon fill="none" stroke="black" points="484.5,-0.5 484.5,-21.5 603.5,-21.5 603.5,-0.5 484.5,-0.5"/>
<text text-anchor="middle" x="544" y="-7.9" font-family="Helvetica,sans-Serif" font-size="12.00">MTplainTextNode</text>
</a>
</g>
</g>
<!-- Node20&#45;&gt;Node21 -->
<g id="edge20" class="edge">
<title>Node20&#45;&gt;Node21</title>
<path fill="none" stroke="midnightblue" d="M372.25,-82.81C382.64,-79.91 392.81,-76.07 402,-71 422.94,-59.45 417.16,-42.74 438,-31 451.98,-23.12 468.51,-18.28 484.25,-15.33"/>
<polygon fill="midnightblue" stroke="midnightblue" points="371.09,-79.5 362.24,-85.32 372.79,-86.29 371.09,-79.5"/>
</g>
</g>
</svg>
        <g id="navigator" transform="translate(0 0)" fill="#404254">
                <rect fill="#f2f5e9" fill-opacity="0.5" stroke="#606060" stroke-width=".5" x="0" y="0" width="60" height="60"/>
                <use id="zoomplus" xlink:href="#zoomPlus" x="17" y="9" onmousedown="handleZoom(evt,'in')"/>
                <use id="zoomminus" xlink:href="#zoomMin" x="42" y="9" onmousedown="handleZoom(evt,'out')"/>
                <use id="reset" xlink:href="#resetDef" x="30" y="36" onmousedown="handleReset()"/>
                <g id="arrowUp" xlink:href="#dirArrow" transform="translate(30 24)" onmousedown="handlePan(0,-1)">
                  <use xlink:href="#rim" fill="#404040">
                        <set attributeName="fill" to="#808080" begin="arrowUp.mouseover" end="arrowUp.mouseout"/>
                  </use>
                  <path fill="none" stroke="white" stroke-width="1.5" d="M0,-3.0v7 M-2.5,-0.5L0,-3.0L2.5,-0.5"/>
                </g>
                <g id="arrowRight" xlink:href="#dirArrow" transform="rotate(90) translate(36 -43)" onmousedown="handlePan(1,0)">
                  <use xlink:href="#rim" fill="#404040">
                        <set attributeName="fill" to="#808080" begin="arrowRight.mouseover" end="arrowRight.mouseout"/>
                  </use>
                  <path fill="none" stroke="white" stroke-width="1.5" d="M0,-3.0v7 M-2.5,-0.5L0,-3.0L2.5,-0.5"/>
                </g>
                <g id="arrowDown" xlink:href="#dirArrow" transform="rotate(180) translate(-30 -48)" onmousedown="handlePan(0,1)">
                  <use xlink:href="#rim" fill="#404040">
                        <set attributeName="fill" to="#808080" begin="arrowDown.mouseover" end="arrowDown.mouseout"/>
                  </use>
                  <path fill="none" stroke="white" stroke-width="1.5" d="M0,-3.0v7 M-2.5,-0.5L0,-3.0L2.5,-0.5"/>
                </g>
                <g id="arrowLeft" xlink:href="#dirArrow" transform="rotate(270) translate(-36 17)" onmousedown="handlePan(-1,0)">
                  <use xlink:href="#rim" fill="#404040">
                        <set attributeName="fill" to="#808080" begin="arrowLeft.mouseover" end="arrowLeft.mouseout"/>
                  </use>
                  <path fill="none" stroke="white" stroke-width="1.5" d="M0,-3.0v7 M-2.5,-0.5L0,-3.0L2.5,-0.5"/>
                </g>
        </g>
        <svg viewBox="0 0 15 15" width="100%" height="30px" preserveAspectRatio="xMaxYMin meet">
         <g id="arrow_out" transform="scale(0.3 0.3)">
          <a xlink:href="class_j_k_q_t_math_text_node__inherit__graph_org.svg" target="_base">
           <rect id="button" ry="5" rx="5" y="6" x="6" height="38" width="38"
                fill="#f2f5e9" fill-opacity="0.5" stroke="#606060" stroke-width="1.0"/>
           <path id="arrow"
             d="M 11.500037,31.436501 C 11.940474,20.09759 22.043105,11.32322 32.158766,21.979434 L 37.068811,17.246167 C 37.068811,17.246167 37.088388,32 37.088388,32 L 22.160133,31.978069 C 22.160133,31.978069 26.997745,27.140456 26.997745,27.140456 C 18.528582,18.264221 13.291696,25.230495 11.500037,31.436501 z"
             style="fill:#404040;"/>
          </a>
         </g>
        </svg>
</svg>
