<?xml version="1.0" encoding="UTF-8" standalone="no"?>
<!DOCTYPE svg PUBLIC "-//W3C//DTD SVG 1.1//EN"
 "http://www.w3.org/Graphics/SVG/1.1/DTD/svg11.dtd">
<!-- Generated by graphviz version 2.43.0 (0)
 -->
<!-- Title: JKQTPGeoLine Pages: 1 -->
<!--zoomable 554 -->
<svg id="main" version="1.1" xmlns="http://www.w3.org/2000/svg" xmlns:xlink="http://www.w3.org/1999/xlink" xml:space="preserve" onload="init(evt)">
<style type="text/css"><![CDATA[
.edge:hover path { stroke: red; }
.edge:hover polygon { stroke: red; fill: red; }
]]></style>
<script type="text/javascript"><![CDATA[
var edges = document.getElementsByTagName('g');
if (edges && edges.length) {
  for (var i=0;i<edges.length;i++) {
    if (edges[i].id.substr(0,4)=='edge') {
      edges[i].setAttribute('class','edge');
    }
  }
}
]]></script>
        <defs>
                <circle id="rim" cx="0" cy="0" r="7"/>
                <circle id="rim2" cx="0" cy="0" r="3.5"/>
                <g id="zoomPlus">
                        <use xlink:href="#rim" fill="#404040">
                                <set attributeName="fill" to="#808080" begin="zoomplus.mouseover" end="zoomplus.mouseout"/>
                        </use>
                        <path d="M-4,0h8M0,-4v8" fill="none" stroke="white" stroke-width="1.5" pointer-events="none"/>
                </g>
                <g id="zoomMin">
                        <use xlink:href="#rim" fill="#404040">
                                <set attributeName="fill" to="#808080" begin="zoomminus.mouseover" end="zoomminus.mouseout"/>
                        </use>
                        <path d="M-4,0h8" fill="none" stroke="white" stroke-width="1.5" pointer-events="none"/>
                </g>
                <g id="dirArrow">
                        <path fill="none" stroke="white" stroke-width="1.5" d="M0,-3.0v7 M-2.5,-0.5L0,-3.0L2.5,-0.5"/>
                </g>
               <g id="resetDef">
                       <use xlink:href="#rim2" fill="#404040">
                               <set attributeName="fill" to="#808080" begin="reset.mouseover" end="reset.mouseout"/>
                       </use>
               </g>
        </defs>

<script type="text/javascript">
var viewWidth = 3237;
var viewHeight = 554;
var sectionId = 'dynsection-1';
</script>
<script xlink:href="svgpan.js"/>
<svg id="graph" class="graph">
<g id="viewport">
<title>JKQTPGeoLine</title>
<!-- Node1 -->
<g id="node1" class="node">
<title>Node1</title>
<g id="a_node1"><a xlink:title="This JKQTPGeometricPlotElement is used to draw a line, optionally line&#45;end decorations (aka arrows) a...">
<polygon fill="#bfbfbf" stroke="black" points="3128,-253.86 3128,-274.86 3229,-274.86 3229,-253.86 3128,-253.86"/>
<text text-anchor="middle" x="3178.5" y="-261.26" font-family="Helvetica,sans-Serif" font-size="12.00">JKQTPGeoLine</text>
</a>
</g>
</g>
<!-- Node2 -->
<g id="node2" class="node">
<title>Node2</title>
<g id="a_node2"><a xlink:href="class_j_k_q_t_p_geo_base_decorated_line.html" target="_top" xlink:title="This JKQTPGeometricPlotElement is used as base class for geometric drawing elements that consist of l...">
<polygon fill="none" stroke="black" points="2897,-253.86 2897,-274.86 3091,-274.86 3091,-253.86 2897,-253.86"/>
<text text-anchor="middle" x="2994" y="-261.26" font-family="Helvetica,sans-Serif" font-size="12.00">JKQTPGeoBaseDecoratedLine</text>
</a>
</g>
</g>
<!-- Node2&#45;&gt;Node1 -->
<g id="edge1" class="edge">
<title>Node2&#45;&gt;Node1</title>
<path fill="none" stroke="midnightblue" d="M3101.14,-264.36C3110.38,-264.36 3119.4,-264.36 3127.82,-264.36"/>
<polygon fill="midnightblue" stroke="midnightblue" points="3101.06,-260.86 3091.06,-264.36 3101.06,-267.86 3101.06,-260.86"/>
</g>
<!-- Node3 -->
<g id="node3" class="node">
<title>Node3</title>
<g id="a_node3"><a xlink:href="class_j_k_q_t_p_geometric_plot_element.html" target="_top" xlink:title="this is the virtual base class of all JKQTPPlotElement&#39;s in a JKQTPlotter plot that represent geometr...">
<polygon fill="none" stroke="black" points="2663,-417.86 2663,-438.86 2851,-438.86 2851,-417.86 2663,-417.86"/>
<text text-anchor="middle" x="2757" y="-425.26" font-family="Helvetica,sans-Serif" font-size="12.00">JKQTPGeometricPlotElement</text>
</a>
</g>
</g>
<!-- Node3&#45;&gt;Node2 -->
<g id="edge2" class="edge">
<title>Node3&#45;&gt;Node2</title>
<path fill="none" stroke="midnightblue" d="M2834.35,-414.77C2843.3,-411.7 2852.06,-407.95 2860,-403.36 2919,-369.28 2968.42,-301.25 2986.07,-275.02"/>
<polygon fill="midnightblue" stroke="midnightblue" points="2833.09,-411.5 2824.6,-417.83 2835.19,-418.17 2833.09,-411.5"/>
</g>
<!-- Node4 -->
<g id="node4" class="node">
<title>Node4</title>
<g id="a_node4"><a xlink:href="class_j_k_q_t_p_plot_element.html" target="_top" xlink:title="this virtual base class of every element, which is part of a JKQTPlotter plot and may appear in its k...">
<polygon fill="none" stroke="black" points="2447,-519.86 2447,-540.86 2572,-540.86 2572,-519.86 2447,-519.86"/>
<text text-anchor="middle" x="2509.5" y="-527.26" font-family="Helvetica,sans-Serif" font-size="12.00">JKQTPPlotElement</text>
</a>
</g>
</g>
<!-- Node4&#45;&gt;Node3 -->
<g id="edge3" class="edge">
<title>Node4&#45;&gt;Node3</title>
<path fill="none" stroke="midnightblue" d="M2548.68,-516.15C2569.04,-508.45 2594.49,-498.63 2617,-489.36 2657.94,-472.51 2705.01,-451.51 2732.53,-439.06"/>
<polygon fill="midnightblue" stroke="midnightblue" points="2547.24,-512.95 2539.12,-519.75 2549.71,-519.5 2547.24,-512.95"/>
</g>
<!-- Node5 -->
<g id="node5" class="node">
<title>Node5</title>
<g id="a_node5"><a xlink:title=" ">
<polygon fill="none" stroke="black" points="1531.5,-376.86 1531.5,-397.86 1596.5,-397.86 1596.5,-376.86 1531.5,-376.86"/>
<text text-anchor="middle" x="1564" y="-384.26" font-family="Helvetica,sans-Serif" font-size="12.00">QObject</text>
</a>
</g>
</g>
<!-- Node5&#45;&gt;Node4 -->
<g id="edge4" class="edge">
<title>Node5&#45;&gt;Node4</title>
<path fill="none" stroke="midnightblue" d="M1602.94,-401.38C1690.69,-433.04 1915.05,-509.6 2110,-539.36 2180.77,-550.17 2199.42,-543.25 2271,-544.36 2321.22,-545.14 2333.86,-547.17 2384,-544.36 2404.52,-543.21 2426.86,-541 2446.87,-538.68"/>
<polygon fill="midnightblue" stroke="midnightblue" points="1604.01,-398.05 1593.42,-397.93 1601.62,-404.63 1604.01,-398.05"/>
</g>
<!-- Node6 -->
<g id="node6" class="node">
<title>Node6</title>
<g id="a_node6"><a xlink:href="class_j_k_q_t_base_plotter.html" target="_top" xlink:title="base class for 2D plotter classes (used by the plotter widget JKQTPlotter)">
<polygon fill="none" stroke="black" points="2124.5,-353.86 2124.5,-374.86 2238.5,-374.86 2238.5,-353.86 2124.5,-353.86"/>
<text text-anchor="middle" x="2181.5" y="-361.26" font-family="Helvetica,sans-Serif" font-size="12.00">JKQTBasePlotter</text>
</a>
</g>
</g>
<!-- Node5&#45;&gt;Node6 -->
<g id="edge6" class="edge">
<title>Node5&#45;&gt;Node6</title>
<path fill="none" stroke="midnightblue" d="M1606.97,-385.8C1714.96,-381.76 2002.46,-371.02 2124.48,-366.46"/>
<polygon fill="midnightblue" stroke="midnightblue" points="1606.66,-382.3 1596.8,-386.18 1606.92,-389.3 1606.66,-382.3"/>
</g>
<!-- Node17 -->
<g id="node17" class="node">
<title>Node17</title>
<g id="a_node17"><a xlink:href="class_j_k_q_t_math_text.html" target="_top" xlink:title="this class parses a mathematical markup string and can then draw the contained text/equation onto a Q...">
<polygon fill="none" stroke="black" points="1856,-407.86 1856,-428.86 1955,-428.86 1955,-407.86 1856,-407.86"/>
<text text-anchor="middle" x="1905.5" y="-415.26" font-family="Helvetica,sans-Serif" font-size="12.00">JKQTMathText</text>
</a>
</g>
</g>
<!-- Node5&#45;&gt;Node17 -->
<g id="edge22" class="edge">
<title>Node5&#45;&gt;Node17</title>
<path fill="none" stroke="midnightblue" d="M1606.61,-391.16C1669.58,-396.91 1788.82,-407.8 1855.76,-413.91"/>
<polygon fill="midnightblue" stroke="midnightblue" points="1606.91,-387.68 1596.63,-390.25 1606.27,-394.65 1606.91,-387.68"/>
</g>
<!-- Node22 -->
<g id="node22" class="node">
<title>Node22</title>
<g id="a_node22"><a xlink:href="class_j_k_q_t_p_coordinate_axis.html" target="_top" xlink:title="this virtual class is the base for any type of coordinate axis, to be drawn by JKQTBasePlotter.">
<polygon fill="none" stroke="black" points="2438.5,-293.86 2438.5,-314.86 2580.5,-314.86 2580.5,-293.86 2438.5,-293.86"/>
<text text-anchor="middle" x="2509.5" y="-301.26" font-family="Helvetica,sans-Serif" font-size="12.00">JKQTPCoordinateAxis</text>
</a>
</g>
</g>
<!-- Node5&#45;&gt;Node22 -->
<g id="edge31" class="edge">
<title>Node5&#45;&gt;Node22</title>
<path fill="none" stroke="midnightblue" d="M1606.82,-378.61C1683.41,-363.01 1851.51,-330.8 1995,-317.36 2152.82,-302.59 2339.04,-302.06 2438.14,-303.12"/>
<polygon fill="midnightblue" stroke="midnightblue" points="1605.73,-375.26 1596.64,-380.7 1607.14,-382.12 1605.73,-375.26"/>
</g>
<!-- Node6&#45;&gt;Node4 -->
<g id="edge5" class="edge">
<title>Node6&#45;&gt;Node4</title>
<path fill="none" stroke="#9a32cd" stroke-dasharray="5,2" d="M2206.83,-381.32C2221.99,-393 2240.85,-409.73 2253,-428.36 2266.82,-449.56 2252.05,-465.6 2271,-482.36 2319.05,-524.87 2394.13,-533.77 2446.99,-534.01"/>
<polygon fill="#9a32cd" stroke="#9a32cd" points="2208.53,-378.22 2198.42,-375.05 2204.35,-383.83 2208.53,-378.22"/>
<text text-anchor="middle" x="2327.5" y="-531.76" font-family="Helvetica,sans-Serif" font-size="12.00"> parent</text>
</g>
<!-- Node6&#45;&gt;Node6 -->
<g id="edge42" class="edge">
<title>Node6&#45;&gt;Node6</title>
<path fill="none" stroke="#9a32cd" stroke-dasharray="5,2" d="M2155.93,-384.42C2157.61,-389.53 2166.13,-393.36 2181.5,-393.36 2205.49,-393.36 2212.8,-384.02 2203.43,-375.07"/>
<polygon fill="#9a32cd" stroke="#9a32cd" points="2159.21,-385.66 2159.57,-375.07 2152.68,-383.12 2159.21,-385.66"/>
<text text-anchor="middle" x="2181.5" y="-409.76" font-family="Helvetica,sans-Serif" font-size="12.00"> masterPlotterX</text>
<text text-anchor="middle" x="2181.5" y="-396.76" font-family="Helvetica,sans-Serif" font-size="12.00">masterPlotterY</text>
</g>
<!-- Node19 -->
<g id="node19" class="node">
<title>Node19</title>
<g id="a_node19"><a xlink:href="class_j_k_q_t_p_graphs_model.html" target="_top" xlink:title="data model with all plots ina JKQTBasePlotter (+ allows to switch them visible/invisible)">
<polygon fill="none" stroke="black" points="2444,-458.86 2444,-479.86 2575,-479.86 2575,-458.86 2444,-458.86"/>
<text text-anchor="middle" x="2509.5" y="-466.26" font-family="Helvetica,sans-Serif" font-size="12.00">JKQTPGraphsModel</text>
</a>
</g>
</g>
<!-- Node6&#45;&gt;Node19 -->
<g id="edge28" class="edge">
<title>Node6&#45;&gt;Node19</title>
<path fill="none" stroke="#9a32cd" stroke-dasharray="5,2" d="M2202.49,-381.79C2216.81,-394.44 2236.41,-412.12 2253,-428.36 2261.31,-436.5 2260.54,-442.28 2271,-447.36 2300.47,-461.69 2384.26,-466.71 2443.95,-468.46"/>
<polygon fill="#9a32cd" stroke="#9a32cd" points="2204.55,-378.94 2194.73,-374.97 2199.93,-384.2 2204.55,-378.94"/>
<text text-anchor="middle" x="2327.5" y="-468.76" font-family="Helvetica,sans-Serif" font-size="12.00"> m_plotter</text>
</g>
<!-- Node6&#45;&gt;Node22 -->
<g id="edge32" class="edge">
<title>Node6&#45;&gt;Node22</title>
<path fill="none" stroke="#9a32cd" stroke-dasharray="5,2" d="M2222.44,-350.71C2237.52,-345.95 2254.92,-340.91 2271,-337.36 2326.69,-325.08 2390.8,-316.49 2438.36,-311.16"/>
<polygon fill="#9a32cd" stroke="#9a32cd" points="2221.35,-347.39 2212.9,-353.79 2223.49,-354.05 2221.35,-347.39"/>
<text text-anchor="middle" x="2327.5" y="-340.76" font-family="Helvetica,sans-Serif" font-size="12.00"> parent</text>
</g>
<!-- Node7 -->
<g id="node7" class="node">
<title>Node7</title>
<g id="a_node7"><a xlink:href="class_j_k_q_t_base_plotter_style.html" target="_top" xlink:title="Support Class for JKQTBasePlotter, which summarizes all properties that define the visual styling of ...">
<polygon fill="none" stroke="black" points="1834,-264.86 1834,-285.86 1977,-285.86 1977,-264.86 1834,-264.86"/>
<text text-anchor="middle" x="1905.5" y="-272.26" font-family="Helvetica,sans-Serif" font-size="12.00">JKQTBasePlotterStyle</text>
</a>
</g>
</g>
<!-- Node7&#45;&gt;Node6 -->
<g id="edge7" class="edge">
<title>Node7&#45;&gt;Node6</title>
<path fill="none" stroke="#9a32cd" stroke-dasharray="5,2" d="M1948.78,-289.1C2003.71,-306.94 2098.42,-337.7 2148.03,-353.82"/>
<polygon fill="#9a32cd" stroke="#9a32cd" points="1949.6,-285.68 1939.01,-285.92 1947.44,-292.34 1949.6,-285.68"/>
<text text-anchor="middle" x="2043.5" y="-338.76" font-family="Helvetica,sans-Serif" font-size="12.00"> plotterStyle</text>
</g>
<!-- Node8 -->
<g id="node8" class="node">
<title>Node8</title>
<g id="a_node8"><a xlink:href="class_j_k_q_t_p_key_style.html" target="_top" xlink:title="Support Class for JKQTBasePlotter, which summarizes all properties that define the visual styling of ...">
<polygon fill="none" stroke="black" points="1512,-278.86 1512,-299.86 1616,-299.86 1616,-278.86 1512,-278.86"/>
<text text-anchor="middle" x="1564" y="-286.26" font-family="Helvetica,sans-Serif" font-size="12.00">JKQTPKeyStyle</text>
</a>
</g>
</g>
<!-- Node8&#45;&gt;Node7 -->
<g id="edge8" class="edge">
<title>Node8&#45;&gt;Node7</title>
<path fill="none" stroke="#9a32cd" stroke-dasharray="5,2" d="M1626.6,-281.1C1643.55,-279.16 1661.96,-277.37 1679,-276.36 1730.78,-273.31 1789.37,-273.15 1833.85,-273.7"/>
<polygon fill="#9a32cd" stroke="#9a32cd" points="1625.78,-277.67 1616.25,-282.31 1626.6,-284.62 1625.78,-277.67"/>
<text text-anchor="middle" x="1747.5" y="-279.76" font-family="Helvetica,sans-Serif" font-size="12.00"> keyStyle</text>
</g>
<!-- Node9 -->
<g id="node9" class="node">
<title>Node9</title>
<g id="a_node9"><a xlink:href="class_j_k_q_t_p_coordinate_axis_style.html" target="_top" xlink:title="Support Class for JKQTPCoordinateAxis, which summarizes all properties that define the visual styling...">
<polygon fill="none" stroke="black" points="1152,-169.86 1152,-190.86 1323,-190.86 1323,-169.86 1152,-169.86"/>
<text text-anchor="middle" x="1237.5" y="-177.26" font-family="Helvetica,sans-Serif" font-size="12.00">JKQTPCoordinateAxisStyle</text>
</a>
</g>
</g>
<!-- Node9&#45;&gt;Node7 -->
<g id="edge9" class="edge">
<title>Node9&#45;&gt;Node7</title>
<path fill="none" stroke="#9a32cd" stroke-dasharray="5,2" d="M1333.45,-173.14C1450.82,-167.63 1654.79,-169.41 1816,-230.36 1841.47,-240 1869.22,-254.88 1886.72,-264.86"/>
<polygon fill="#9a32cd" stroke="#9a32cd" points="1333.23,-169.64 1323.41,-173.63 1333.57,-176.63 1333.23,-169.64"/>
<text text-anchor="middle" x="1564" y="-204.76" font-family="Helvetica,sans-Serif" font-size="12.00"> xAxisStyle</text>
<text text-anchor="middle" x="1564" y="-191.76" font-family="Helvetica,sans-Serif" font-size="12.00">yAxisStyle</text>
</g>
<!-- Node11 -->
<g id="node11" class="node">
<title>Node11</title>
<g id="a_node11"><a xlink:href="class_j_k_q_t_p_colorbar_coordinate_axis_style.html" target="_top" xlink:title="Support Class for JKQTPCoordinateAxis, which summarizes all properties that define the visual styling...">
<polygon fill="none" stroke="black" points="1467,-225.36 1467,-259.36 1661,-259.36 1661,-225.36 1467,-225.36"/>
<text text-anchor="start" x="1475" y="-245.76" font-family="Helvetica,sans-Serif" font-size="12.00">JKQTPColorbarCoordinateAxis</text>
<text text-anchor="middle" x="1564" y="-232.76" font-family="Helvetica,sans-Serif" font-size="12.00">Style</text>
</a>
</g>
</g>
<!-- Node9&#45;&gt;Node11 -->
<g id="edge12" class="edge">
<title>Node9&#45;&gt;Node11</title>
<path fill="none" stroke="midnightblue" d="M1303.38,-192.76C1352.3,-202.11 1419.96,-215.03 1473.94,-225.35"/>
<polygon fill="midnightblue" stroke="midnightblue" points="1304.03,-189.32 1293.55,-190.88 1302.71,-196.2 1304.03,-189.32"/>
</g>
<!-- Node9&#45;&gt;Node22 -->
<g id="edge33" class="edge">
<title>Node9&#45;&gt;Node22</title>
<path fill="none" stroke="#9a32cd" stroke-dasharray="5,2" d="M1293.82,-167.68C1358.14,-154.07 1467.67,-134.36 1563,-134.36 1563,-134.36 1563,-134.36 2182.5,-134.36 2321.01,-134.36 2458.94,-256.51 2497.75,-293.73"/>
<polygon fill="#9a32cd" stroke="#9a32cd" points="1292.93,-164.29 1283.89,-169.81 1294.4,-171.14 1292.93,-164.29"/>
<text text-anchor="middle" x="1905.5" y="-137.76" font-family="Helvetica,sans-Serif" font-size="12.00"> axisStyle</text>
</g>
<!-- Node10 -->
<g id="node10" class="node">
<title>Node10</title>
<g id="a_node10"><a xlink:href="class_j_k_q_t_p_grid_style.html" target="_top" xlink:title="Support Class for JKQTPCoordinateAxis, and summarizes all properties that define the visual styling o...">
<polygon fill="none" stroke="black" points="851.5,-169.86 851.5,-190.86 958.5,-190.86 958.5,-169.86 851.5,-169.86"/>
<text text-anchor="middle" x="905" y="-177.26" font-family="Helvetica,sans-Serif" font-size="12.00">JKQTPGridStyle</text>
</a>
</g>
</g>
<!-- Node10&#45;&gt;Node9 -->
<g id="edge10" class="edge">
<title>Node10&#45;&gt;Node9</title>
<path fill="none" stroke="#9a32cd" stroke-dasharray="5,2" d="M968.79,-180.36C1020.62,-180.36 1094.66,-180.36 1151.74,-180.36"/>
<polygon fill="#9a32cd" stroke="#9a32cd" points="968.73,-176.86 958.73,-180.36 968.73,-183.86 968.73,-176.86"/>
<text text-anchor="middle" x="1069.5" y="-196.76" font-family="Helvetica,sans-Serif" font-size="12.00"> majorGridStyle</text>
<text text-anchor="middle" x="1069.5" y="-183.76" font-family="Helvetica,sans-Serif" font-size="12.00">minorGridStyle</text>
</g>
<!-- Node11&#45;&gt;Node7 -->
<g id="edge11" class="edge">
<title>Node11&#45;&gt;Node7</title>
<path fill="none" stroke="#9a32cd" stroke-dasharray="5,2" d="M1671.11,-234.79C1716.11,-233.64 1768.93,-235.02 1816,-243.36 1839.17,-247.47 1864.27,-257.08 1881.81,-264.71"/>
<polygon fill="#9a32cd" stroke="#9a32cd" points="1670.93,-231.3 1661.04,-235.1 1671.14,-238.29 1670.93,-231.3"/>
<text text-anchor="middle" x="1747.5" y="-259.76" font-family="Helvetica,sans-Serif" font-size="12.00"> rightColorbarAxisStyle</text>
<text text-anchor="middle" x="1747.5" y="-246.76" font-family="Helvetica,sans-Serif" font-size="12.00">topColorbarAxisStyle</text>
</g>
<!-- Node12 -->
<g id="node12" class="node">
<title>Node12</title>
<g id="a_node12"><a xlink:href="class_j_k_q_t_graphs_base_style.html" target="_top" xlink:title="Support Class for JKQTBasePlotter, which summarizes all properties that define the visual styling of ...">
<polygon fill="none" stroke="black" points="1491,-318.86 1491,-339.86 1637,-339.86 1637,-318.86 1491,-318.86"/>
<text text-anchor="middle" x="1564" y="-326.26" font-family="Helvetica,sans-Serif" font-size="12.00">JKQTGraphsBaseStyle</text>
</a>
</g>
</g>
<!-- Node12&#45;&gt;Node7 -->
<g id="edge13" class="edge">
<title>Node12&#45;&gt;Node7</title>
<path fill="none" stroke="#9a32cd" stroke-dasharray="5,2" d="M1641.32,-317.22C1700.58,-307.8 1781.9,-294.86 1838.4,-285.88"/>
<polygon fill="#9a32cd" stroke="#9a32cd" points="1640.59,-313.8 1631.26,-318.82 1641.69,-320.71 1640.59,-313.8"/>
<text text-anchor="middle" x="1747.5" y="-312.76" font-family="Helvetica,sans-Serif" font-size="12.00"> graphsStyle</text>
</g>
<!-- Node13 -->
<g id="node13" class="node">
<title>Node13</title>
<g id="a_node13"><a xlink:href="class_j_k_q_t_graphs_specific_style_properties.html" target="_top" xlink:title="Support Class for JKQTBasePlotter, which summarizes all properties that define the visual styling of ...">
<polygon fill="none" stroke="black" points="399,-318.86 399,-339.86 623,-339.86 623,-318.86 399,-318.86"/>
<text text-anchor="middle" x="511" y="-326.26" font-family="Helvetica,sans-Serif" font-size="12.00">JKQTGraphsSpecificStyleProperties</text>
</a>
</g>
</g>
<!-- Node13&#45;&gt;Node12 -->
<g id="edge14" class="edge">
<title>Node13&#45;&gt;Node12</title>
<path fill="none" stroke="#9a32cd" stroke-dasharray="5,2" d="M633.8,-329.36C854.33,-329.36 1313.34,-329.36 1490.79,-329.36"/>
<polygon fill="#9a32cd" stroke="#9a32cd" points="633.48,-325.86 623.48,-329.36 633.48,-332.86 633.48,-325.86"/>
<text text-anchor="middle" x="1069.5" y="-384.76" font-family="Helvetica,sans-Serif" font-size="12.00"> barchartStyle</text>
<text text-anchor="middle" x="1069.5" y="-371.76" font-family="Helvetica,sans-Serif" font-size="12.00">boxplotStyle</text>
<text text-anchor="middle" x="1069.5" y="-358.76" font-family="Helvetica,sans-Serif" font-size="12.00">defaultGraphStyle</text>
<text text-anchor="middle" x="1069.5" y="-345.76" font-family="Helvetica,sans-Serif" font-size="12.00">filledStyle</text>
<text text-anchor="middle" x="1069.5" y="-332.76" font-family="Helvetica,sans-Serif" font-size="12.00">impulseStyle</text>
</g>
<!-- Node15 -->
<g id="node15" class="node">
<title>Node15</title>
<g id="a_node15"><a xlink:href="class_j_k_q_t_geometric_specific_style_properties.html" target="_top" xlink:title="Support Class for JKQTBasePlotter, which summarizes all properties that define the visual styling of ...">
<polygon fill="none" stroke="black" points="813,-266.36 813,-300.36 997,-300.36 997,-266.36 813,-266.36"/>
<text text-anchor="start" x="821" y="-286.76" font-family="Helvetica,sans-Serif" font-size="12.00">JKQTGeometricSpecificStyle</text>
<text text-anchor="middle" x="905" y="-273.76" font-family="Helvetica,sans-Serif" font-size="12.00">Properties</text>
</a>
</g>
</g>
<!-- Node13&#45;&gt;Node15 -->
<g id="edge17" class="edge">
<title>Node13&#45;&gt;Node15</title>
<path fill="none" stroke="midnightblue" d="M612.1,-317.62C673.94,-310.36 752.68,-301.12 812.79,-294.07"/>
<polygon fill="midnightblue" stroke="midnightblue" points="611.46,-314.17 601.93,-318.81 612.27,-321.12 611.46,-314.17"/>
</g>
<!-- Node14 -->
<g id="node14" class="node">
<title>Node14</title>
<g id="a_node14"><a xlink:href="struct_j_k_q_t_p_color_derivation_mode.html" target="_top" xlink:title="Specifies how a fill&#45;color is derived from a given color.">
<polygon fill="none" stroke="black" points="0,-371.86 0,-392.86 179,-392.86 179,-371.86 0,-371.86"/>
<text text-anchor="middle" x="89.5" y="-379.26" font-family="Helvetica,sans-Serif" font-size="12.00">JKQTPColorDerivationMode</text>
</a>
</g>
</g>
<!-- Node14&#45;&gt;Node13 -->
<g id="edge15" class="edge">
<title>Node14&#45;&gt;Node13</title>
<path fill="none" stroke="#9a32cd" stroke-dasharray="5,2" d="M135.94,-369.08C154.69,-364.06 176.75,-358.75 197,-355.36 263.55,-344.24 338.9,-337.8 398.99,-334.11"/>
<polygon fill="#9a32cd" stroke="#9a32cd" points="134.9,-365.74 126.17,-371.75 136.74,-372.49 134.9,-365.74"/>
<text text-anchor="middle" x="289" y="-410.76" font-family="Helvetica,sans-Serif" font-size="12.00"> errorColorDerivationMode</text>
<text text-anchor="middle" x="289" y="-397.76" font-family="Helvetica,sans-Serif" font-size="12.00">errorFillColorDerivationMode</text>
<text text-anchor="middle" x="289" y="-384.76" font-family="Helvetica,sans-Serif" font-size="12.00">fillColorDerivationMode</text>
<text text-anchor="middle" x="289" y="-371.76" font-family="Helvetica,sans-Serif" font-size="12.00">graphColorDerivationMode</text>
<text text-anchor="middle" x="289" y="-358.76" font-family="Helvetica,sans-Serif" font-size="12.00">symbolFillColorDerivationMode</text>
</g>
<!-- Node16 -->
<g id="node16" class="node">
<title>Node16</title>
<g id="a_node16"><a xlink:href="class_j_k_q_t_annotations_specific_style_properties.html" target="_top" xlink:title="Support Class for JKQTBasePlotter, which summarizes all properties that define the visual styling of ...">
<polygon fill="none" stroke="black" points="1142,-392.36 1142,-426.36 1333,-426.36 1333,-392.36 1142,-392.36"/>
<text text-anchor="start" x="1150" y="-412.76" font-family="Helvetica,sans-Serif" font-size="12.00">JKQTAnnotationsSpecificStyle</text>
<text text-anchor="middle" x="1237.5" y="-399.76" font-family="Helvetica,sans-Serif" font-size="12.00">Properties</text>
</a>
</g>
</g>
<!-- Node14&#45;&gt;Node16 -->
<g id="edge20" class="edge">
<title>Node14&#45;&gt;Node16</title>
<path fill="none" stroke="#9a32cd" stroke-dasharray="5,2" d="M122.44,-397.01C143.19,-405.71 171.12,-415.88 197,-420.36 540.67,-479.84 957.83,-443.25 1141.7,-421.74"/>
<polygon fill="#9a32cd" stroke="#9a32cd" points="123.72,-393.75 113.15,-393.02 120.96,-400.18 123.72,-393.75"/>
<text text-anchor="middle" x="718" y="-455.76" font-family="Helvetica,sans-Serif" font-size="12.00"> textColorDerivationMode</text>
</g>
<!-- Node15&#45;&gt;Node12 -->
<g id="edge16" class="edge">
<title>Node15&#45;&gt;Node12</title>
<path fill="none" stroke="#9a32cd" stroke-dasharray="5,2" d="M1007.41,-285.96C1094,-288.63 1221.81,-293.67 1333,-302.36 1384.72,-306.41 1397.48,-309.31 1449,-315.36 1462.57,-316.96 1477.03,-318.7 1490.95,-320.4"/>
<polygon fill="#9a32cd" stroke="#9a32cd" points="1007.42,-282.46 997.32,-285.65 1007.21,-289.46 1007.42,-282.46"/>
<text text-anchor="middle" x="1237.5" y="-305.76" font-family="Helvetica,sans-Serif" font-size="12.00"> geometricStyle</text>
</g>
<!-- Node15&#45;&gt;Node16 -->
<g id="edge19" class="edge">
<title>Node15&#45;&gt;Node16</title>
<path fill="none" stroke="midnightblue" d="M922.31,-308.95C941.04,-335.83 974.47,-376.72 1015,-395.36 1054.03,-413.31 1101.08,-418.28 1141.76,-418.18"/>
<polygon fill="midnightblue" stroke="midnightblue" points="925.04,-306.74 916.53,-300.43 919.24,-310.67 925.04,-306.74"/>
</g>
<!-- Node16&#45;&gt;Node12 -->
<g id="edge18" class="edge">
<title>Node16&#45;&gt;Node12</title>
<path fill="none" stroke="#9a32cd" stroke-dasharray="5,2" d="M1317.75,-389.83C1381.56,-374.1 1468.81,-352.58 1520.21,-339.91"/>
<polygon fill="#9a32cd" stroke="#9a32cd" points="1316.59,-386.51 1307.72,-392.3 1318.26,-393.3 1316.59,-386.51"/>
<text text-anchor="middle" x="1400" y="-383.76" font-family="Helvetica,sans-Serif" font-size="12.00"> annotationStyle</text>
</g>
<!-- Node17&#45;&gt;Node6 -->
<g id="edge21" class="edge">
<title>Node17&#45;&gt;Node6</title>
<path fill="none" stroke="#9a32cd" stroke-dasharray="5,2" d="M1965.11,-406.81C2013.15,-397.34 2080.58,-384.06 2127.13,-374.88"/>
<polygon fill="#9a32cd" stroke="#9a32cd" points="1964.3,-403.4 1955.17,-408.77 1965.66,-410.27 1964.3,-403.4"/>
<text text-anchor="middle" x="2043.5" y="-403.76" font-family="Helvetica,sans-Serif" font-size="12.00"> mathText</text>
</g>
<!-- Node18 -->
<g id="node18" class="node">
<title>Node18</title>
<g id="a_node18"><a xlink:href="class_j_k_q_t_math_text_node.html" target="_top" xlink:title="subclass representing one node in the syntax tree">
<polygon fill="none" stroke="black" points="2116,-437.86 2116,-458.86 2247,-458.86 2247,-437.86 2116,-437.86"/>
<text text-anchor="middle" x="2181.5" y="-445.26" font-family="Helvetica,sans-Serif" font-size="12.00">JKQTMathTextNode</text>
</a>
</g>
</g>
<!-- Node17&#45;&gt;Node18 -->
<g id="edge24" class="edge">
<title>Node17&#45;&gt;Node18</title>
<path fill="none" stroke="#9a32cd" stroke-dasharray="5,2" d="M1941.07,-432.46C1957.17,-438.3 1976.76,-444.4 1995,-447.36 2034.74,-453.82 2079.89,-454.21 2115.71,-452.92"/>
<polygon fill="#9a32cd" stroke="#9a32cd" points="1942.13,-429.12 1931.54,-428.89 1939.67,-435.68 1942.13,-429.12"/>
<text text-anchor="middle" x="2043.5" y="-456.76" font-family="Helvetica,sans-Serif" font-size="12.00"> parentMathText</text>
</g>
<!-- Node18&#45;&gt;Node17 -->
<g id="edge23" class="edge">
<title>Node18&#45;&gt;Node17</title>
<path fill="none" stroke="#9a32cd" stroke-dasharray="5,2" d="M2107.29,-436.37C2102.12,-435.65 2096.99,-434.97 2092,-434.36 2045.64,-428.7 1992.51,-424.34 1955.03,-421.6"/>
<polygon fill="#9a32cd" stroke="#9a32cd" points="2106.85,-439.84 2117.25,-437.8 2107.85,-432.91 2106.85,-439.84"/>
<text text-anchor="middle" x="2043.5" y="-437.76" font-family="Helvetica,sans-Serif" font-size="12.00"> parsedNode</text>
</g>
<!-- Node18&#45;&gt;Node18 -->
<g id="edge25" class="edge">
<title>Node18&#45;&gt;Node18</title>
<path fill="none" stroke="#9a32cd" stroke-dasharray="5,2" d="M2155.93,-468.42C2157.61,-473.53 2166.13,-477.36 2181.5,-477.36 2205.49,-477.36 2212.8,-468.02 2203.43,-459.07"/>
<polygon fill="#9a32cd" stroke="#9a32cd" points="2159.21,-469.66 2159.57,-459.07 2152.68,-467.12 2159.21,-469.66"/>
<text text-anchor="middle" x="2181.5" y="-480.76" font-family="Helvetica,sans-Serif" font-size="12.00"> parentNode</text>
</g>
<!-- Node19&#45;&gt;Node6 -->
<g id="edge26" class="edge">
<title>Node19&#45;&gt;Node6</title>
<path fill="none" stroke="#9a32cd" stroke-dasharray="5,2" d="M2463.8,-455.94C2440.18,-449.07 2410.64,-440.81 2384,-434.36 2334.19,-422.31 2319.24,-428.67 2271,-411.36 2244.47,-401.85 2216.08,-385.55 2198.8,-374.87"/>
<polygon fill="#9a32cd" stroke="#9a32cd" points="2462.95,-459.34 2473.53,-458.79 2464.92,-452.62 2462.95,-459.34"/>
<text text-anchor="middle" x="2327.5" y="-437.76" font-family="Helvetica,sans-Serif" font-size="12.00"> m_plotsModel</text>
</g>
<!-- Node20 -->
<g id="node20" class="node">
<title>Node20</title>
<g id="a_node20"><a xlink:title=" ">
<polygon fill="none" stroke="black" points="2110,-508.86 2110,-529.86 2253,-529.86 2253,-508.86 2110,-508.86"/>
<text text-anchor="middle" x="2181.5" y="-516.26" font-family="Helvetica,sans-Serif" font-size="12.00">QAbstractTableModel</text>
</a>
</g>
</g>
<!-- Node20&#45;&gt;Node19 -->
<g id="edge27" class="edge">
<title>Node20&#45;&gt;Node19</title>
<path fill="none" stroke="midnightblue" d="M2261.45,-507.25C2317.32,-498.69 2391.34,-487.33 2443.74,-479.3"/>
<polygon fill="midnightblue" stroke="midnightblue" points="2260.59,-503.85 2251.24,-508.82 2261.65,-510.76 2260.59,-503.85"/>
</g>
<!-- Node21 -->
<g id="node21" class="node">
<title>Node21</title>
<g id="a_node21"><a xlink:href="class_j_k_q_t_p_horizontal_axis.html" target="_top" xlink:title="implements a horizontal axis, based on JKQTPCoordinateAxis (for most of documentation: see JKQTPCoord...">
<polygon fill="none" stroke="black" points="2688.5,-372.86 2688.5,-393.86 2825.5,-393.86 2825.5,-372.86 2688.5,-372.86"/>
<text text-anchor="middle" x="2757" y="-380.26" font-family="Helvetica,sans-Serif" font-size="12.00">JKQTPHorizontalAxis</text>
</a>
</g>
</g>
<!-- Node21&#45;&gt;Node6 -->
<g id="edge29" class="edge">
<title>Node21&#45;&gt;Node6</title>
<path fill="none" stroke="#9a32cd" stroke-dasharray="5,2" d="M2678.18,-386.06C2582.25,-388.58 2414.3,-390.37 2271,-378.36 2260.46,-377.48 2249.27,-376.08 2238.53,-374.5"/>
<polygon fill="#9a32cd" stroke="#9a32cd" points="2678.48,-389.56 2688.38,-385.78 2678.29,-382.56 2678.48,-389.56"/>
<text text-anchor="middle" x="2509.5" y="-390.76" font-family="Helvetica,sans-Serif" font-size="12.00"> xAxis</text>
</g>
<!-- Node22&#45;&gt;Node21 -->
<g id="edge30" class="edge">
<title>Node22&#45;&gt;Node21</title>
<path fill="none" stroke="midnightblue" d="M2576.57,-317.22C2590.12,-320.6 2604.16,-324.64 2617,-329.36 2634.35,-335.75 2636.99,-341.12 2654,-348.36 2675.88,-357.68 2701.15,-366.36 2721.07,-372.75"/>
<polygon fill="midnightblue" stroke="midnightblue" points="2577.35,-313.81 2566.81,-314.89 2575.72,-320.62 2577.35,-313.81"/>
</g>
<!-- Node23 -->
<g id="node23" class="node">
<title>Node23</title>
<g id="a_node23"><a xlink:href="class_j_k_q_t_p_vertical_axis.html" target="_top" xlink:title="implements a vertical axis, based on JKQTPCoordinateAxis (for most of documentation: see JKQTPCoordin...">
<polygon fill="none" stroke="black" points="2696,-317.86 2696,-338.86 2818,-338.86 2818,-317.86 2696,-317.86"/>
<text text-anchor="middle" x="2757" y="-325.26" font-family="Helvetica,sans-Serif" font-size="12.00">JKQTPVerticalAxis</text>
</a>
</g>
</g>
<!-- Node22&#45;&gt;Node23 -->
<g id="edge35" class="edge">
<title>Node22&#45;&gt;Node23</title>
<path fill="none" stroke="midnightblue" d="M2590.51,-312.19C2624.79,-315.54 2664.15,-319.38 2695.88,-322.49"/>
<polygon fill="midnightblue" stroke="midnightblue" points="2590.82,-308.7 2580.52,-311.21 2590.13,-315.67 2590.82,-308.7"/>
</g>
<!-- Node23&#45;&gt;Node6 -->
<g id="edge34" class="edge">
<title>Node23&#45;&gt;Node6</title>
<path fill="none" stroke="#9a32cd" stroke-dasharray="5,2" d="M2685.75,-332.77C2570.54,-340.01 2343.73,-354.24 2238.53,-360.85"/>
<polygon fill="#9a32cd" stroke="#9a32cd" points="2686.11,-336.26 2695.87,-332.14 2685.68,-329.27 2686.11,-336.26"/>
<text text-anchor="middle" x="2509.5" y="-353.76" font-family="Helvetica,sans-Serif" font-size="12.00"> yAxis</text>
</g>
<!-- Node24 -->
<g id="node24" class="node">
<title>Node24</title>
<g id="a_node24"><a xlink:href="class_j_k_q_t_p_datastore.html" target="_top" xlink:title="This class manages data columns (with entries of type double ), used by JKQTPlotter/JKQTBasePlotter t...">
<polygon fill="none" stroke="black" points="1850,-19.86 1850,-40.86 1961,-40.86 1961,-19.86 1850,-19.86"/>
<text text-anchor="middle" x="1905.5" y="-27.26" font-family="Helvetica,sans-Serif" font-size="12.00">JKQTPDatastore</text>
</a>
</g>
</g>
<!-- Node24&#45;&gt;Node6 -->
<g id="edge36" class="edge">
<title>Node24&#45;&gt;Node6</title>
<path fill="none" stroke="#9a32cd" stroke-dasharray="5,2" d="M1970.4,-45.73C1972.71,-47.14 1974.92,-48.68 1977,-50.36 1990.29,-61.12 1986.27,-69.66 1995,-84.36 2059.18,-192.4 2146.75,-316.96 2172.86,-353.67"/>
<polygon fill="#9a32cd" stroke="#9a32cd" points="1971.58,-42.4 1961.09,-40.91 1968.36,-48.62 1971.58,-42.4"/>
<text text-anchor="middle" x="2043.5" y="-233.76" font-family="Helvetica,sans-Serif" font-size="12.00"> datastore</text>
</g>
<!-- Node26 -->
<g id="node26" class="node">
<title>Node26</title>
<g id="a_node26"><a xlink:href="class_j_k_q_t_p_column.html" target="_top" xlink:title="internally stores information about one data column. See JKQTPDatastore for more information.">
<polygon fill="none" stroke="black" points="2132.5,-26.86 2132.5,-47.86 2230.5,-47.86 2230.5,-26.86 2132.5,-26.86"/>
<text text-anchor="middle" x="2181.5" y="-34.26" font-family="Helvetica,sans-Serif" font-size="12.00">JKQTPColumn</text>
</a>
</g>
</g>
<!-- Node24&#45;&gt;Node26 -->
<g id="edge39" class="edge">
<title>Node24&#45;&gt;Node26</title>
<path fill="none" stroke="#9a32cd" stroke-dasharray="5,2" d="M1971.54,-32.03C2020.87,-33.29 2087.58,-34.99 2132.22,-36.13"/>
<polygon fill="#9a32cd" stroke="#9a32cd" points="1971.38,-28.52 1961.29,-31.76 1971.2,-35.52 1971.38,-28.52"/>
<text text-anchor="middle" x="2043.5" y="-38.76" font-family="Helvetica,sans-Serif" font-size="12.00"> datastore</text>
</g>
<!-- Node25 -->
<g id="node25" class="node">
<title>Node25</title>
<g id="a_node25"><a xlink:title=" ">
<polygon fill="none" stroke="black" points="2402,-45.86 2402,-66.86 2617,-66.86 2617,-45.86 2402,-45.86"/>
<text text-anchor="middle" x="2509.5" y="-53.26" font-family="Helvetica,sans-Serif" font-size="12.00">std::unique_ptr&lt; JKQTPColumn &gt;</text>
</a>
</g>
</g>
<!-- Node25&#45;&gt;Node24 -->
<g id="edge37" class="edge">
<title>Node25&#45;&gt;Node24</title>
<path fill="none" stroke="#9a32cd" stroke-dasharray="5,2" d="M2440.76,-43.92C2427.88,-41.47 2414.52,-38.88 2402,-36.36 2335.6,-23 2320.35,-11.52 2253,-4.36 2189.8,2.35 2173.43,-0.33 2110,-4.36 2059.35,-7.59 2002.03,-15.28 1961.16,-21.46"/>
<polygon fill="#9a32cd" stroke="#9a32cd" points="2440.49,-47.43 2450.96,-45.84 2441.79,-40.55 2440.49,-47.43"/>
<text text-anchor="middle" x="2181.5" y="-7.76" font-family="Helvetica,sans-Serif" font-size="12.00"> m_invalidColumn</text>
</g>
<!-- Node26&#45;&gt;Node25 -->
<g id="edge38" class="edge">
<title>Node26&#45;&gt;Node25</title>
<path fill="none" stroke="#9a32cd" stroke-dasharray="5,2" d="M2240.78,-36.49C2281.06,-36.32 2335.85,-36.92 2384,-40.36 2401.39,-41.61 2420.07,-43.64 2437.53,-45.84"/>
<polygon fill="#9a32cd" stroke="#9a32cd" points="2240.59,-33 2230.61,-36.56 2240.63,-40 2240.59,-33"/>
<text text-anchor="middle" x="2327.5" y="-43.76" font-family="Helvetica,sans-Serif" font-size="12.00"> ptr</text>
</g>
<!-- Node27 -->
<g id="node27" class="node">
<title>Node27</title>
<g id="a_node27"><a xlink:title=" ">
<polygon fill="none" stroke="black" points="2111.5,-66.86 2111.5,-87.86 2251.5,-87.86 2251.5,-66.86 2111.5,-66.86"/>
<text text-anchor="middle" x="2181.5" y="-74.26" font-family="Helvetica,sans-Serif" font-size="12.00">std::unique_ptr&lt; T &gt;</text>
</a>
</g>
</g>
<!-- Node27&#45;&gt;Node25 -->
<g id="edge40" class="edge">
<title>Node27&#45;&gt;Node25</title>
<path fill="none" stroke="orange" stroke-dasharray="5,2" d="M2261.84,-72.25C2303.96,-69.54 2356.3,-66.17 2401.92,-63.23"/>
<polygon fill="orange" stroke="orange" points="2261.39,-68.77 2251.64,-72.91 2261.84,-75.76 2261.39,-68.77"/>
<text text-anchor="middle" x="2327.5" y="-74.76" font-family="Helvetica,sans-Serif" font-size="12.00"> &lt; JKQTPColumn &gt;</text>
</g>
<!-- Node28 -->
<g id="node28" class="node">
<title>Node28</title>
<g id="a_node28"><a xlink:title=" ">
<polygon fill="none" stroke="black" points="1891,-59.86 1891,-80.86 1920,-80.86 1920,-59.86 1891,-59.86"/>
<text text-anchor="middle" x="1905.5" y="-67.26" font-family="Helvetica,sans-Serif" font-size="12.00">T</text>
</a>
</g>
</g>
<!-- Node28&#45;&gt;Node27 -->
<g id="edge41" class="edge">
<title>Node28&#45;&gt;Node27</title>
<path fill="none" stroke="#9a32cd" stroke-dasharray="5,2" d="M1930.25,-70.02C1965.54,-69.61 2033.92,-69.24 2092,-71.36 2098.31,-71.59 2104.87,-71.91 2111.43,-72.26"/>
<polygon fill="#9a32cd" stroke="#9a32cd" points="1929.96,-66.52 1920.01,-70.15 1930.05,-73.52 1929.96,-66.52"/>
<text text-anchor="middle" x="2043.5" y="-74.76" font-family="Helvetica,sans-Serif" font-size="12.00"> ptr</text>
</g>
<!-- Node29 -->
<g id="node29" class="node">
<title>Node29</title>
<g id="a_node29"><a xlink:href="class_j_k_q_t_p_graph_decorated_line_style_mixin.html" target="_top" xlink:title="This Mix&#45;In class provides setter/getter methods, storage and other facilities for the graph line sty...">
<polygon fill="none" stroke="black" points="2654,-164.36 2654,-198.36 2860,-198.36 2860,-164.36 2654,-164.36"/>
<text text-anchor="start" x="2662" y="-184.76" font-family="Helvetica,sans-Serif" font-size="12.00">JKQTPGraphDecoratedLineStyle</text>
<text text-anchor="middle" x="2757" y="-171.76" font-family="Helvetica,sans-Serif" font-size="12.00">Mixin</text>
</a>
</g>
</g>
<!-- Node29&#45;&gt;Node2 -->
<g id="edge43" class="edge">
<title>Node29&#45;&gt;Node2</title>
<path fill="none" stroke="midnightblue" d="M2816.09,-201.88C2862.76,-218.36 2926.38,-240.84 2963.24,-253.85"/>
<polygon fill="midnightblue" stroke="midnightblue" points="2817,-198.49 2806.41,-198.46 2814.67,-205.09 2817,-198.49"/>
</g>
<!-- Node30 -->
<g id="node30" class="node">
<title>Node30</title>
<g id="a_node30"><a xlink:href="class_j_k_q_t_p_graph_line_style_mixin.html" target="_top" xlink:title="This Mix&#45;In class provides setter/getter methods, storage and other facilities for the graph line sty...">
<polygon fill="none" stroke="black" points="2422.5,-5.86 2422.5,-26.86 2596.5,-26.86 2596.5,-5.86 2422.5,-5.86"/>
<text text-anchor="middle" x="2509.5" y="-13.26" font-family="Helvetica,sans-Serif" font-size="12.00">JKQTPGraphLineStyleMixin</text>
</a>
</g>
</g>
<!-- Node30&#45;&gt;Node29 -->
<g id="edge44" class="edge">
<title>Node30&#45;&gt;Node29</title>
<path fill="none" stroke="midnightblue" d="M2603.76,-30.25C2608.33,-32.05 2612.78,-34.08 2617,-36.36 2675.58,-68.07 2724.12,-133.18 2745,-164.2"/>
<polygon fill="midnightblue" stroke="midnightblue" points="2604.81,-26.91 2594.22,-26.86 2602.47,-33.51 2604.81,-26.91"/>
</g>
</g>
</svg>
        <g id="navigator" transform="translate(0 0)" fill="#404254">
                <rect fill="#f2f5e9" fill-opacity="0.5" stroke="#606060" stroke-width=".5" x="0" y="0" width="60" height="60"/>
                <use id="zoomplus" xlink:href="#zoomPlus" x="17" y="9" onmousedown="handleZoom(evt,'in')"/>
                <use id="zoomminus" xlink:href="#zoomMin" x="42" y="9" onmousedown="handleZoom(evt,'out')"/>
                <use id="reset" xlink:href="#resetDef" x="30" y="36" onmousedown="handleReset()"/>
                <g id="arrowUp" xlink:href="#dirArrow" transform="translate(30 24)" onmousedown="handlePan(0,-1)">
                  <use xlink:href="#rim" fill="#404040">
                        <set attributeName="fill" to="#808080" begin="arrowUp.mouseover" end="arrowUp.mouseout"/>
                  </use>
                  <path fill="none" stroke="white" stroke-width="1.5" d="M0,-3.0v7 M-2.5,-0.5L0,-3.0L2.5,-0.5"/>
                </g>
                <g id="arrowRight" xlink:href="#dirArrow" transform="rotate(90) translate(36 -43)" onmousedown="handlePan(1,0)">
                  <use xlink:href="#rim" fill="#404040">
                        <set attributeName="fill" to="#808080" begin="arrowRight.mouseover" end="arrowRight.mouseout"/>
                  </use>
                  <path fill="none" stroke="white" stroke-width="1.5" d="M0,-3.0v7 M-2.5,-0.5L0,-3.0L2.5,-0.5"/>
                </g>
                <g id="arrowDown" xlink:href="#dirArrow" transform="rotate(180) translate(-30 -48)" onmousedown="handlePan(0,1)">
                  <use xlink:href="#rim" fill="#404040">
                        <set attributeName="fill" to="#808080" begin="arrowDown.mouseover" end="arrowDown.mouseout"/>
                  </use>
                  <path fill="none" stroke="white" stroke-width="1.5" d="M0,-3.0v7 M-2.5,-0.5L0,-3.0L2.5,-0.5"/>
                </g>
                <g id="arrowLeft" xlink:href="#dirArrow" transform="rotate(270) translate(-36 17)" onmousedown="handlePan(-1,0)">
                  <use xlink:href="#rim" fill="#404040">
                        <set attributeName="fill" to="#808080" begin="arrowLeft.mouseover" end="arrowLeft.mouseout"/>
                  </use>
                  <path fill="none" stroke="white" stroke-width="1.5" d="M0,-3.0v7 M-2.5,-0.5L0,-3.0L2.5,-0.5"/>
                </g>
        </g>
        <svg viewBox="0 0 15 15" width="100%" height="30px" preserveAspectRatio="xMaxYMin meet">
         <g id="arrow_out" transform="scale(0.3 0.3)">
          <a xlink:href="class_j_k_q_t_p_geo_line__coll__graph_org.svg" target="_base">
           <rect id="button" ry="5" rx="5" y="6" x="6" height="38" width="38"
                fill="#f2f5e9" fill-opacity="0.5" stroke="#606060" stroke-width="1.0"/>
           <path id="arrow"
             d="M 11.500037,31.436501 C 11.940474,20.09759 22.043105,11.32322 32.158766,21.979434 L 37.068811,17.246167 C 37.068811,17.246167 37.088388,32 37.088388,32 L 22.160133,31.978069 C 22.160133,31.978069 26.997745,27.140456 26.997745,27.140456 C 18.528582,18.264221 13.291696,25.230495 11.500037,31.436501 z"
             style="fill:#404040;"/>
          </a>
         </g>
        </svg>
</svg>
