<?xml version="1.0" encoding="UTF-8" standalone="no"?>
<!DOCTYPE svg PUBLIC "-//W3C//DTD SVG 1.1//EN"
 "http://www.w3.org/Graphics/SVG/1.1/DTD/svg11.dtd">
<!-- Generated by graphviz version 2.43.0 (0)
 -->
<!-- Title: JKQTPBoxplotHorizontalElement Pages: 1 -->
<svg width="2892pt" height="611pt"
 viewBox="0.00 0.00 2892.00 611.17" xmlns="http://www.w3.org/2000/svg" xmlns:xlink="http://www.w3.org/1999/xlink">
<g id="graph0" class="graph" transform="scale(1 1) rotate(0) translate(4 607.17)">
<title>JKQTPBoxplotHorizontalElement</title>
<!-- Node1 -->
<g id="node1" class="node">
<title>Node1</title>
<g id="a_node1"><a xlink:title="This implements a horizontal (notched) boxplot where the data is directly given to the object and not...">
<polygon fill="#bfbfbf" stroke="black" points="2692,-498.67 2692,-519.67 2884,-519.67 2884,-498.67 2692,-498.67"/>
<text text-anchor="middle" x="2788" y="-506.07" font-family="FreeSans" font-size="12.00">JKQTPBoxplotHorizontalElement</text>
</a>
</g>
</g>
<!-- Node2 -->
<g id="node2" class="node">
<title>Node2</title>
<g id="a_node2"><a xlink:href="class_j_k_q_t_p_boxplot_element_base.html" target="_top" xlink:title="Tbaseclass for a single (notched) boxplot as a &quot;geometric element&quot;, where the data is directly given ...">
<polygon fill="none" stroke="black" points="2489,-498.67 2489,-519.67 2655,-519.67 2655,-498.67 2489,-498.67"/>
<text text-anchor="middle" x="2572" y="-506.07" font-family="FreeSans" font-size="12.00">JKQTPBoxplotElementBase</text>
</a>
</g>
</g>
<!-- Node2&#45;&gt;Node1 -->
<g id="edge1" class="edge">
<title>Node2&#45;&gt;Node1</title>
<path fill="none" stroke="midnightblue" d="M2665.36,-509.17C2674.14,-509.17 2683.06,-509.17 2691.87,-509.17"/>
<polygon fill="midnightblue" stroke="midnightblue" points="2665.13,-505.67 2655.13,-509.17 2665.13,-512.67 2665.13,-505.67"/>
</g>
<!-- Node3 -->
<g id="node3" class="node">
<title>Node3</title>
<g id="a_node3"><a xlink:href="class_j_k_q_t_p_plot_element.html" target="_top" xlink:title="this virtual base class of every element, which is part of a JKQTPlotter plot and may appear in its k...">
<polygon fill="none" stroke="black" points="2296,-456.67 2296,-477.67 2414,-477.67 2414,-456.67 2296,-456.67"/>
<text text-anchor="middle" x="2355" y="-464.07" font-family="FreeSans" font-size="12.00">JKQTPPlotElement</text>
</a>
</g>
</g>
<!-- Node3&#45;&gt;Node2 -->
<g id="edge2" class="edge">
<title>Node3&#45;&gt;Node2</title>
<path fill="none" stroke="midnightblue" d="M2419.8,-479.63C2450.73,-485.67 2487.48,-492.85 2517,-498.62"/>
<polygon fill="midnightblue" stroke="midnightblue" points="2420.46,-476.19 2409.98,-477.71 2419.12,-483.06 2420.46,-476.19"/>
</g>
<!-- Node4 -->
<g id="node4" class="node">
<title>Node4</title>
<g id="a_node4"><a xlink:title=" ">
<polygon fill="none" stroke="black" points="1414,-398.67 1414,-419.67 1476,-419.67 1476,-398.67 1414,-398.67"/>
<text text-anchor="middle" x="1445" y="-406.07" font-family="FreeSans" font-size="12.00">QObject</text>
</a>
</g>
</g>
<!-- Node4&#45;&gt;Node3 -->
<g id="edge3" class="edge">
<title>Node4&#45;&gt;Node3</title>
<path fill="none" stroke="midnightblue" d="M1485.95,-417.43C1506.24,-421.31 1531.34,-425.63 1554,-428.17 1830.38,-459.09 2163.2,-465.5 2295.58,-466.83"/>
<polygon fill="midnightblue" stroke="midnightblue" points="1486.6,-413.99 1476.11,-415.51 1485.26,-420.86 1486.6,-413.99"/>
</g>
<!-- Node5 -->
<g id="node5" class="node">
<title>Node5</title>
<g id="a_node5"><a xlink:href="class_j_k_q_t_base_plotter.html" target="_top" xlink:title="base class for 2D plotter classes (used by the plotter widget JKQTPlotter)">
<polygon fill="none" stroke="black" points="1981,-264.67 1981,-285.67 2090,-285.67 2090,-264.67 1981,-264.67"/>
<text text-anchor="middle" x="2035.5" y="-272.07" font-family="FreeSans" font-size="12.00">JKQTBasePlotter</text>
</a>
</g>
</g>
<!-- Node4&#45;&gt;Node5 -->
<g id="edge5" class="edge">
<title>Node4&#45;&gt;Node5</title>
<path fill="none" stroke="midnightblue" d="M1486.1,-397.93C1506.43,-392.25 1531.51,-385.29 1554,-379.17 1683.6,-343.86 1714.32,-327.73 1846,-301.17 1891.17,-292.06 1943.09,-285.15 1980.98,-280.76"/>
<polygon fill="midnightblue" stroke="midnightblue" points="1484.93,-394.62 1476.24,-400.68 1486.81,-401.36 1484.93,-394.62"/>
</g>
<!-- Node16 -->
<g id="node16" class="node">
<title>Node16</title>
<g id="a_node16"><a xlink:href="class_j_k_q_t_math_text.html" target="_top" xlink:title="this class parses a LaTeX string and can then draw the contained text/equation onto a QPainter">
<polygon fill="none" stroke="black" points="1711.5,-360.67 1711.5,-381.67 1809.5,-381.67 1809.5,-360.67 1711.5,-360.67"/>
<text text-anchor="middle" x="1760.5" y="-368.07" font-family="FreeSans" font-size="12.00">JKQTMathText</text>
</a>
</g>
</g>
<!-- Node4&#45;&gt;Node16 -->
<g id="edge21" class="edge">
<title>Node4&#45;&gt;Node16</title>
<path fill="none" stroke="midnightblue" d="M1486.23,-404.29C1543.8,-397.31 1649.53,-384.5 1711.24,-377.02"/>
<polygon fill="midnightblue" stroke="midnightblue" points="1485.57,-400.85 1476.06,-405.52 1486.41,-407.8 1485.57,-400.85"/>
</g>
<!-- Node21 -->
<g id="node21" class="node">
<title>Node21</title>
<g id="a_node21"><a xlink:href="class_j_k_q_t_p_coordinate_axis.html" target="_top" xlink:title="this virtual class is the base for any type of coordinate axis, to be drawn by JKQTBasePlotter.">
<polygon fill="none" stroke="black" points="2286.5,-380.67 2286.5,-401.67 2423.5,-401.67 2423.5,-380.67 2286.5,-380.67"/>
<text text-anchor="middle" x="2355" y="-388.07" font-family="FreeSans" font-size="12.00">JKQTPCoordinateAxis</text>
</a>
</g>
</g>
<!-- Node4&#45;&gt;Node21 -->
<g id="edge30" class="edge">
<title>Node4&#45;&gt;Node21</title>
<path fill="none" stroke="midnightblue" d="M1486.31,-410.4C1590.83,-413.35 1879.15,-419.85 2119,-410.17 2175.54,-407.89 2239.55,-402.53 2286.47,-398.08"/>
<polygon fill="midnightblue" stroke="midnightblue" points="1486.3,-406.9 1476.2,-410.11 1486.1,-413.9 1486.3,-406.9"/>
</g>
<!-- Node5&#45;&gt;Node3 -->
<g id="edge4" class="edge">
<title>Node5&#45;&gt;Node3</title>
<path fill="none" stroke="#9a32cd" stroke-dasharray="5,2" d="M2065.14,-291.23C2082.93,-302.53 2105.01,-319.19 2119,-339.17 2134,-360.58 2118.6,-376.6 2137,-395.17 2160.88,-419.28 2249.68,-443.3 2306.02,-456.6"/>
<polygon fill="#9a32cd" stroke="#9a32cd" points="2066.65,-288.04 2056.29,-285.81 2062.99,-294.02 2066.65,-288.04"/>
<text text-anchor="middle" x="2188.5" y="-440.57" font-family="FreeSans" font-size="12.00"> parent</text>
</g>
<!-- Node5&#45;&gt;Node5 -->
<g id="edge41" class="edge">
<title>Node5&#45;&gt;Node5</title>
<path fill="none" stroke="#9a32cd" stroke-dasharray="5,2" d="M2008.82,-295.22C2010.57,-300.33 2019.46,-304.17 2035.5,-304.17 2060.53,-304.17 2068.16,-294.82 2058.38,-285.88"/>
<polygon fill="#9a32cd" stroke="#9a32cd" points="2012.1,-296.46 2012.62,-285.88 2005.61,-293.82 2012.1,-296.46"/>
<text text-anchor="middle" x="2035.5" y="-320.57" font-family="FreeSans" font-size="12.00"> masterPlotterX</text>
<text text-anchor="middle" x="2035.5" y="-307.57" font-family="FreeSans" font-size="12.00">masterPlotterY</text>
</g>
<!-- Node18 -->
<g id="node18" class="node">
<title>Node18</title>
<g id="a_node18"><a xlink:href="class_j_k_q_t_p_graphs_model.html" target="_top" xlink:title="data model with all plots ina JKQTBasePlotter (+ allows to switch them visible/invisible)">
<polygon fill="none" stroke="black" points="2291,-275.67 2291,-296.67 2419,-296.67 2419,-275.67 2291,-275.67"/>
<text text-anchor="middle" x="2355" y="-283.07" font-family="FreeSans" font-size="12.00">JKQTPGraphsModel</text>
</a>
</g>
</g>
<!-- Node5&#45;&gt;Node18 -->
<g id="edge27" class="edge">
<title>Node5&#45;&gt;Node18</title>
<path fill="none" stroke="#9a32cd" stroke-dasharray="5,2" d="M2100.31,-274.44C2112.49,-274.33 2125.14,-274.23 2137,-274.17 2182.78,-273.94 2194.29,-271.77 2240,-274.17 2256.5,-275.03 2274.28,-276.6 2290.78,-278.32"/>
<polygon fill="#9a32cd" stroke="#9a32cd" points="2100.19,-270.94 2090.22,-274.53 2100.25,-277.94 2100.19,-270.94"/>
<text text-anchor="middle" x="2188.5" y="-277.57" font-family="FreeSans" font-size="12.00"> m_plotter</text>
</g>
<!-- Node5&#45;&gt;Node21 -->
<g id="edge31" class="edge">
<title>Node5&#45;&gt;Node21</title>
<path fill="none" stroke="#9a32cd" stroke-dasharray="5,2" d="M2058.86,-291.87C2075.63,-304.56 2099.05,-322.6 2119,-339.17 2127.23,-346.01 2127.34,-350.56 2137,-355.17 2162.85,-367.51 2232.9,-377.75 2286.49,-384.11"/>
<polygon fill="#9a32cd" stroke="#9a32cd" points="2060.83,-288.98 2050.74,-285.76 2056.62,-294.57 2060.83,-288.98"/>
<text text-anchor="middle" x="2188.5" y="-381.57" font-family="FreeSans" font-size="12.00"> parent</text>
</g>
<!-- Node6 -->
<g id="node6" class="node">
<title>Node6</title>
<g id="a_node6"><a xlink:href="class_j_k_q_t_base_plotter_style.html" target="_top" xlink:title="Support Class for JKQTBasePlotter, which summarizes all properties that define the visual styling of ...">
<polygon fill="none" stroke="black" points="1693,-211.67 1693,-232.67 1828,-232.67 1828,-211.67 1693,-211.67"/>
<text text-anchor="middle" x="1760.5" y="-219.07" font-family="FreeSans" font-size="12.00">JKQTBasePlotterStyle</text>
</a>
</g>
</g>
<!-- Node6&#45;&gt;Node5 -->
<g id="edge6" class="edge">
<title>Node6&#45;&gt;Node5</title>
<path fill="none" stroke="#9a32cd" stroke-dasharray="5,2" d="M1825.87,-234.67C1873.05,-243.82 1936.35,-256.11 1980.81,-264.74"/>
<polygon fill="#9a32cd" stroke="#9a32cd" points="1826.25,-231.17 1815.76,-232.7 1824.91,-238.04 1826.25,-231.17"/>
<text text-anchor="middle" x="1890" y="-258.57" font-family="FreeSans" font-size="12.00"> plotterStyle</text>
</g>
<!-- Node7 -->
<g id="node7" class="node">
<title>Node7</title>
<g id="a_node7"><a xlink:href="class_j_k_q_t_p_key_style.html" target="_top" xlink:title="Support Class for JKQTBasePlotter, which summarizes all properties that define the visual styling of ...">
<polygon fill="none" stroke="black" points="1393.5,-266.67 1393.5,-287.67 1496.5,-287.67 1496.5,-266.67 1393.5,-266.67"/>
<text text-anchor="middle" x="1445" y="-274.07" font-family="FreeSans" font-size="12.00">JKQTPKeyStyle</text>
</a>
</g>
</g>
<!-- Node7&#45;&gt;Node6 -->
<g id="edge7" class="edge">
<title>Node7&#45;&gt;Node6</title>
<path fill="none" stroke="#9a32cd" stroke-dasharray="5,2" d="M1506.71,-265.05C1522.12,-262.06 1538.66,-258.93 1554,-256.17 1600.27,-247.84 1652.54,-239.21 1692.78,-232.72"/>
<polygon fill="#9a32cd" stroke="#9a32cd" points="1505.91,-261.64 1496.77,-266.99 1507.25,-268.51 1505.91,-261.64"/>
<text text-anchor="middle" x="1614.5" y="-259.57" font-family="FreeSans" font-size="12.00"> keyStyle</text>
</g>
<!-- Node8 -->
<g id="node8" class="node">
<title>Node8</title>
<g id="a_node8"><a xlink:href="class_j_k_q_t_p_coordinate_axis_style.html" target="_top" xlink:title="Support Class for JKQTPCoordinateAxis, which summarizes all properties that define the visual styling...">
<polygon fill="none" stroke="black" points="1060,-211.67 1060,-232.67 1224,-232.67 1224,-211.67 1060,-211.67"/>
<text text-anchor="middle" x="1142" y="-219.07" font-family="FreeSans" font-size="12.00">JKQTPCoordinateAxisStyle</text>
</a>
</g>
</g>
<!-- Node8&#45;&gt;Node6 -->
<g id="edge8" class="edge">
<title>Node8&#45;&gt;Node6</title>
<path fill="none" stroke="#9a32cd" stroke-dasharray="5,2" d="M1234.57,-222.17C1359.91,-222.17 1581.95,-222.17 1692.74,-222.17"/>
<polygon fill="#9a32cd" stroke="#9a32cd" points="1234.23,-218.67 1224.23,-222.17 1234.23,-225.67 1234.23,-218.67"/>
<text text-anchor="middle" x="1445" y="-238.57" font-family="FreeSans" font-size="12.00"> xAxisStyle</text>
<text text-anchor="middle" x="1445" y="-225.57" font-family="FreeSans" font-size="12.00">yAxisStyle</text>
</g>
<!-- Node10 -->
<g id="node10" class="node">
<title>Node10</title>
<g id="a_node10"><a xlink:href="class_j_k_q_t_p_colorbar_coordinate_axis_style.html" target="_top" xlink:title="Support Class for JKQTPCoordinateAxis, which summarizes all properties that define the visual styling...">
<polygon fill="none" stroke="black" points="1354,-151.17 1354,-185.17 1536,-185.17 1536,-151.17 1354,-151.17"/>
<text text-anchor="start" x="1362" y="-171.57" font-family="FreeSans" font-size="12.00">JKQTPColorbarCoordinateAxis</text>
<text text-anchor="middle" x="1445" y="-158.57" font-family="FreeSans" font-size="12.00">Style</text>
</a>
</g>
</g>
<!-- Node8&#45;&gt;Node10 -->
<g id="edge11" class="edge">
<title>Node8&#45;&gt;Node10</title>
<path fill="none" stroke="midnightblue" d="M1211.65,-209.85C1253.83,-202.28 1308.35,-192.5 1353.98,-184.32"/>
<polygon fill="midnightblue" stroke="midnightblue" points="1210.98,-206.42 1201.75,-211.63 1212.21,-213.31 1210.98,-206.42"/>
</g>
<!-- Node8&#45;&gt;Node21 -->
<g id="edge32" class="edge">
<title>Node8&#45;&gt;Node21</title>
<path fill="none" stroke="#9a32cd" stroke-dasharray="5,2" d="M1151.66,-242.17C1181.64,-307.92 1287.73,-513.17 1444,-513.17 1444,-513.17 1444,-513.17 2036.5,-513.17 2130.67,-513.17 2153.03,-490.28 2240,-454.17 2276.34,-439.08 2315.94,-415.4 2337.59,-401.77"/>
<polygon fill="#9a32cd" stroke="#9a32cd" points="1154.78,-240.57 1147.51,-232.87 1148.39,-243.43 1154.78,-240.57"/>
<text text-anchor="middle" x="1760.5" y="-516.57" font-family="FreeSans" font-size="12.00"> axisStyle</text>
</g>
<!-- Node9 -->
<g id="node9" class="node">
<title>Node9</title>
<g id="a_node9"><a xlink:href="class_j_k_q_t_p_grid_style.html" target="_top" xlink:title="Support Class for JKQTPCoordinateAxis, and summarizes all properties that define the visual styling o...">
<polygon fill="none" stroke="black" points="783.5,-211.67 783.5,-232.67 887.5,-232.67 887.5,-211.67 783.5,-211.67"/>
<text text-anchor="middle" x="835.5" y="-219.07" font-family="FreeSans" font-size="12.00">JKQTPGridStyle</text>
</a>
</g>
</g>
<!-- Node9&#45;&gt;Node8 -->
<g id="edge9" class="edge">
<title>Node9&#45;&gt;Node8</title>
<path fill="none" stroke="#9a32cd" stroke-dasharray="5,2" d="M898.06,-222.17C944.67,-222.17 1009.11,-222.17 1059.91,-222.17"/>
<polygon fill="#9a32cd" stroke="#9a32cd" points="897.81,-218.67 887.81,-222.17 897.81,-225.67 897.81,-218.67"/>
<text text-anchor="middle" x="986.5" y="-238.57" font-family="FreeSans" font-size="12.00"> majorGridStyle</text>
<text text-anchor="middle" x="986.5" y="-225.57" font-family="FreeSans" font-size="12.00">minorGridStyle</text>
</g>
<!-- Node10&#45;&gt;Node6 -->
<g id="edge10" class="edge">
<title>Node10&#45;&gt;Node6</title>
<path fill="none" stroke="#9a32cd" stroke-dasharray="5,2" d="M1546.14,-160.87C1587.33,-161.25 1634.73,-166.18 1675,-182.17 1684.68,-186.01 1684,-191.93 1693,-197.17 1702.81,-202.88 1714.15,-207.71 1724.67,-211.56"/>
<polygon fill="#9a32cd" stroke="#9a32cd" points="1546.09,-157.37 1536.08,-160.87 1546.08,-164.37 1546.09,-157.37"/>
<text text-anchor="middle" x="1614.5" y="-198.57" font-family="FreeSans" font-size="12.00"> rightColorbarAxisStyle</text>
<text text-anchor="middle" x="1614.5" y="-185.57" font-family="FreeSans" font-size="12.00">topColorbarAxisStyle</text>
</g>
<!-- Node11 -->
<g id="node11" class="node">
<title>Node11</title>
<g id="a_node11"><a xlink:href="class_j_k_q_t_graphs_base_style.html" target="_top" xlink:title="Support Class for JKQTBasePlotter, which summarizes all properties that define the visual styling of ...">
<polygon fill="none" stroke="black" points="1374.5,-109.67 1374.5,-130.67 1515.5,-130.67 1515.5,-109.67 1374.5,-109.67"/>
<text text-anchor="middle" x="1445" y="-117.07" font-family="FreeSans" font-size="12.00">JKQTGraphsBaseStyle</text>
</a>
</g>
</g>
<!-- Node11&#45;&gt;Node6 -->
<g id="edge12" class="edge">
<title>Node11&#45;&gt;Node6</title>
<path fill="none" stroke="#9a32cd" stroke-dasharray="5,2" d="M1519.45,-108.83C1568.56,-105.45 1631.84,-109.7 1675,-144.17 1694.44,-159.69 1675.69,-179.3 1693,-197.17 1699.01,-203.37 1706.7,-208.05 1714.71,-211.58"/>
<polygon fill="#9a32cd" stroke="#9a32cd" points="1518.88,-105.37 1509.2,-109.67 1519.45,-112.35 1518.88,-105.37"/>
<text text-anchor="middle" x="1614.5" y="-147.57" font-family="FreeSans" font-size="12.00"> graphsStyle</text>
</g>
<!-- Node12 -->
<g id="node12" class="node">
<title>Node12</title>
<g id="a_node12"><a xlink:href="class_j_k_q_t_graphs_specific_style_properties.html" target="_top" xlink:title="Support Class for JKQTBasePlotter, which summarizes all properties that define the visual styling of ...">
<polygon fill="none" stroke="black" points="370,-57.67 370,-78.67 579,-78.67 579,-57.67 370,-57.67"/>
<text text-anchor="middle" x="474.5" y="-65.07" font-family="FreeSans" font-size="12.00">JKQTGraphsSpecificStyleProperties</text>
</a>
</g>
</g>
<!-- Node12&#45;&gt;Node11 -->
<g id="edge13" class="edge">
<title>Node12&#45;&gt;Node11</title>
<path fill="none" stroke="#9a32cd" stroke-dasharray="5,2" d="M589.14,-62.38C702.09,-57.8 880.23,-53.73 1034,-64.17 1122.61,-70.18 1144,-79.15 1232,-91.17 1279.48,-97.65 1332.94,-104.97 1374.3,-110.63"/>
<polygon fill="#9a32cd" stroke="#9a32cd" points="588.94,-58.88 579.09,-62.8 589.23,-65.88 588.94,-58.88"/>
<text text-anchor="middle" x="986.5" y="-119.57" font-family="FreeSans" font-size="12.00"> barchartStyle</text>
<text text-anchor="middle" x="986.5" y="-106.57" font-family="FreeSans" font-size="12.00">boxplotStyle</text>
<text text-anchor="middle" x="986.5" y="-93.57" font-family="FreeSans" font-size="12.00">defaultGraphStyle</text>
<text text-anchor="middle" x="986.5" y="-80.57" font-family="FreeSans" font-size="12.00">filledStyle</text>
<text text-anchor="middle" x="986.5" y="-67.57" font-family="FreeSans" font-size="12.00">impulseStyle</text>
</g>
<!-- Node14 -->
<g id="node14" class="node">
<title>Node14</title>
<g id="a_node14"><a xlink:href="class_j_k_q_t_geometric_specific_style_properties.html" target="_top" xlink:title="Support Class for JKQTBasePlotter, which summarizes all properties that define the visual styling of ...">
<polygon fill="none" stroke="black" points="750,-130.17 750,-164.17 921,-164.17 921,-130.17 750,-130.17"/>
<text text-anchor="start" x="758" y="-150.57" font-family="FreeSans" font-size="12.00">JKQTGeometricSpecificStyle</text>
<text text-anchor="middle" x="835.5" y="-137.57" font-family="FreeSans" font-size="12.00">Properties</text>
</a>
</g>
</g>
<!-- Node12&#45;&gt;Node14 -->
<g id="edge16" class="edge">
<title>Node12&#45;&gt;Node14</title>
<path fill="none" stroke="midnightblue" d="M533.35,-80.9C594.11,-94.27 689.98,-115.37 757.19,-130.16"/>
<polygon fill="midnightblue" stroke="midnightblue" points="534.06,-77.47 523.54,-78.74 532.56,-84.31 534.06,-77.47"/>
</g>
<!-- Node13 -->
<g id="node13" class="node">
<title>Node13</title>
<g id="a_node13"><a xlink:href="struct_j_k_q_t_p_color_derivation_mode.html" target="_top" xlink:title="Specifies how a fill&#45;color is derived from a given color.">
<polygon fill="none" stroke="black" points="0,-34.67 0,-55.67 168,-55.67 168,-34.67 0,-34.67"/>
<text text-anchor="middle" x="84" y="-42.07" font-family="FreeSans" font-size="12.00">JKQTPColorDerivationMode</text>
</a>
</g>
</g>
<!-- Node13&#45;&gt;Node12 -->
<g id="edge14" class="edge">
<title>Node13&#45;&gt;Node12</title>
<path fill="none" stroke="#9a32cd" stroke-dasharray="5,2" d="M178.55,-50.71C236.27,-54.12 310.37,-58.51 369.86,-62.03"/>
<polygon fill="#9a32cd" stroke="#9a32cd" points="178.53,-47.2 168.34,-50.1 178.12,-54.19 178.53,-47.2"/>
<text text-anchor="middle" x="269" y="-116.57" font-family="FreeSans" font-size="12.00"> errorColorDerivationMode</text>
<text text-anchor="middle" x="269" y="-103.57" font-family="FreeSans" font-size="12.00">errorFillColorDerivationMode</text>
<text text-anchor="middle" x="269" y="-90.57" font-family="FreeSans" font-size="12.00">fillColorDerivationMode</text>
<text text-anchor="middle" x="269" y="-77.57" font-family="FreeSans" font-size="12.00">graphColorDerivationMode</text>
<text text-anchor="middle" x="269" y="-64.57" font-family="FreeSans" font-size="12.00">symbolFillColorDerivationMode</text>
</g>
<!-- Node15 -->
<g id="node15" class="node">
<title>Node15</title>
<g id="a_node15"><a xlink:href="class_j_k_q_t_annotations_specific_style_properties.html" target="_top" xlink:title="Support Class for JKQTBasePlotter, which summarizes all properties that define the visual styling of ...">
<polygon fill="none" stroke="black" points="1052,-101.17 1052,-135.17 1232,-135.17 1232,-101.17 1052,-101.17"/>
<text text-anchor="start" x="1060" y="-121.57" font-family="FreeSans" font-size="12.00">JKQTAnnotationsSpecificStyle</text>
<text text-anchor="middle" x="1142" y="-108.57" font-family="FreeSans" font-size="12.00">Properties</text>
</a>
</g>
</g>
<!-- Node13&#45;&gt;Node15 -->
<g id="edge19" class="edge">
<title>Node13&#45;&gt;Node15</title>
<path fill="none" stroke="#9a32cd" stroke-dasharray="5,2" d="M156.61,-33.09C317.5,-8.7 718.24,36.6 1034,-56.17 1065.72,-65.49 1098,-86.03 1118.68,-100.92"/>
<polygon fill="#9a32cd" stroke="#9a32cd" points="155.71,-29.68 146.36,-34.66 156.77,-36.6 155.71,-29.68"/>
<text text-anchor="middle" x="664.5" y="-9.57" font-family="FreeSans" font-size="12.00"> textColorDerivationMode</text>
</g>
<!-- Node14&#45;&gt;Node11 -->
<g id="edge15" class="edge">
<title>Node14&#45;&gt;Node11</title>
<path fill="none" stroke="#9a32cd" stroke-dasharray="5,2" d="M931.31,-151C933.9,-151.06 936.47,-151.12 939,-151.17 1115.52,-154.61 1160.55,-156.84 1336,-137.17 1351.37,-135.44 1367.9,-133.09 1383.3,-130.69"/>
<polygon fill="#9a32cd" stroke="#9a32cd" points="931.32,-147.5 921.23,-150.73 931.14,-154.5 931.32,-147.5"/>
<text text-anchor="middle" x="1142" y="-157.57" font-family="FreeSans" font-size="12.00"> geometricStyle</text>
</g>
<!-- Node14&#45;&gt;Node15 -->
<g id="edge18" class="edge">
<title>Node14&#45;&gt;Node15</title>
<path fill="none" stroke="midnightblue" d="M931.17,-141.78C963.8,-139.57 1000.54,-136.69 1034,-133.17 1039.78,-132.56 1045.73,-131.88 1051.73,-131.15"/>
<polygon fill="midnightblue" stroke="midnightblue" points="930.93,-138.29 921.19,-142.44 931.4,-145.27 930.93,-138.29"/>
</g>
<!-- Node15&#45;&gt;Node11 -->
<g id="edge17" class="edge">
<title>Node15&#45;&gt;Node11</title>
<path fill="none" stroke="#9a32cd" stroke-dasharray="5,2" d="M1242.34,-118.83C1285.52,-119.11 1335.07,-119.44 1374.25,-119.7"/>
<polygon fill="#9a32cd" stroke="#9a32cd" points="1242.11,-115.33 1232.09,-118.76 1242.06,-122.33 1242.11,-115.33"/>
<text text-anchor="middle" x="1293" y="-123.57" font-family="FreeSans" font-size="12.00"> annotationStyle</text>
</g>
<!-- Node16&#45;&gt;Node5 -->
<g id="edge20" class="edge">
<title>Node16&#45;&gt;Node5</title>
<path fill="none" stroke="#9a32cd" stroke-dasharray="5,2" d="M1793.09,-356.35C1808.83,-349.23 1828.24,-340.81 1846,-334.17 1897.39,-314.94 1958.17,-296.7 1996.54,-285.72"/>
<polygon fill="#9a32cd" stroke="#9a32cd" points="1791.46,-353.25 1783.82,-360.6 1794.37,-359.62 1791.46,-353.25"/>
<text text-anchor="middle" x="1890" y="-337.57" font-family="FreeSans" font-size="12.00"> mathText</text>
</g>
<!-- Node17 -->
<g id="node17" class="node">
<title>Node17</title>
<g id="a_node17"><a xlink:href="class_j_k_q_t_math_text_node.html" target="_top" xlink:title="subclass representing one node in the syntax tree">
<polygon fill="none" stroke="black" points="1971.5,-348.67 1971.5,-369.67 2099.5,-369.67 2099.5,-348.67 1971.5,-348.67"/>
<text text-anchor="middle" x="2035.5" y="-356.07" font-family="FreeSans" font-size="12.00">JKQTMathTextNode</text>
</a>
</g>
</g>
<!-- Node16&#45;&gt;Node17 -->
<g id="edge23" class="edge">
<title>Node16&#45;&gt;Node17</title>
<path fill="none" stroke="#9a32cd" stroke-dasharray="5,2" d="M1819.86,-377.42C1828.61,-378.14 1837.54,-378.77 1846,-379.17 1885.07,-381.01 1895.08,-383 1934,-379.17 1952.94,-377.3 1973.61,-373.5 1991.25,-369.71"/>
<polygon fill="#9a32cd" stroke="#9a32cd" points="1819.97,-373.91 1809.7,-376.52 1819.36,-380.89 1819.97,-373.91"/>
<text text-anchor="middle" x="1890" y="-385.57" font-family="FreeSans" font-size="12.00"> parentMathText</text>
</g>
<!-- Node17&#45;&gt;Node16 -->
<g id="edge22" class="edge">
<title>Node17&#45;&gt;Node16</title>
<path fill="none" stroke="#9a32cd" stroke-dasharray="5,2" d="M1960.97,-352.18C1926.05,-350.05 1883.79,-349.19 1846,-353.17 1831.68,-354.68 1816.22,-357.58 1802.48,-360.63"/>
<polygon fill="#9a32cd" stroke="#9a32cd" points="1960.87,-355.68 1971.08,-352.84 1961.33,-348.7 1960.87,-355.68"/>
<text text-anchor="middle" x="1890" y="-369.57" font-family="FreeSans" font-size="12.00"> parsedNode</text>
<text text-anchor="middle" x="1890" y="-356.57" font-family="FreeSans" font-size="12.00">unparsedNode</text>
</g>
<!-- Node17&#45;&gt;Node17 -->
<g id="edge24" class="edge">
<title>Node17&#45;&gt;Node17</title>
<path fill="none" stroke="#9a32cd" stroke-dasharray="5,2" d="M2008.82,-379.22C2010.57,-384.33 2019.46,-388.17 2035.5,-388.17 2060.53,-388.17 2068.16,-378.82 2058.38,-369.88"/>
<polygon fill="#9a32cd" stroke="#9a32cd" points="2012.1,-380.46 2012.62,-369.88 2005.61,-377.82 2012.1,-380.46"/>
<text text-anchor="middle" x="2035.5" y="-391.57" font-family="FreeSans" font-size="12.00"> parentNode</text>
</g>
<!-- Node18&#45;&gt;Node5 -->
<g id="edge25" class="edge">
<title>Node18&#45;&gt;Node5</title>
<path fill="none" stroke="#9a32cd" stroke-dasharray="5,2" d="M2280.6,-291.57C2238.51,-293.74 2184.72,-294.94 2137,-291.17 2121.68,-289.96 2105.16,-287.72 2090.03,-285.3"/>
<polygon fill="#9a32cd" stroke="#9a32cd" points="2280.97,-295.06 2290.76,-291.02 2280.58,-288.07 2280.97,-295.06"/>
<text text-anchor="middle" x="2188.5" y="-297.57" font-family="FreeSans" font-size="12.00"> m_plotsModel</text>
</g>
<!-- Node19 -->
<g id="node19" class="node">
<title>Node19</title>
<g id="a_node19"><a xlink:title=" ">
<polygon fill="none" stroke="black" points="1969,-208.67 1969,-229.67 2102,-229.67 2102,-208.67 1969,-208.67"/>
<text text-anchor="middle" x="2035.5" y="-216.07" font-family="FreeSans" font-size="12.00">QAbstractTableModel</text>
</a>
</g>
</g>
<!-- Node19&#45;&gt;Node18 -->
<g id="edge26" class="edge">
<title>Node19&#45;&gt;Node18</title>
<path fill="none" stroke="midnightblue" d="M2096.55,-231.84C2156.6,-244.51 2247.87,-263.77 2304.07,-275.63"/>
<polygon fill="midnightblue" stroke="midnightblue" points="2096.97,-228.35 2086.46,-229.71 2095.52,-235.2 2096.97,-228.35"/>
</g>
<!-- Node20 -->
<g id="node20" class="node">
<title>Node20</title>
<g id="a_node20"><a xlink:href="class_j_k_q_t_p_horizontal_axis.html" target="_top" xlink:title="implements a horizontal axis, based on JKQTPCoordinateAxis (for most of documentation: see JKQTPCoord...">
<polygon fill="none" stroke="black" points="2505.5,-355.67 2505.5,-376.67 2638.5,-376.67 2638.5,-355.67 2505.5,-355.67"/>
<text text-anchor="middle" x="2572" y="-363.07" font-family="FreeSans" font-size="12.00">JKQTPHorizontalAxis</text>
</a>
</g>
</g>
<!-- Node20&#45;&gt;Node5 -->
<g id="edge28" class="edge">
<title>Node20&#45;&gt;Node5</title>
<path fill="none" stroke="#9a32cd" stroke-dasharray="5,2" d="M2495.42,-361.6C2408.11,-355.17 2260.63,-340.77 2137,-311.17 2110.5,-304.82 2081.3,-293.9 2061.23,-285.74"/>
<polygon fill="#9a32cd" stroke="#9a32cd" points="2495.27,-365.1 2505.5,-362.33 2495.78,-358.12 2495.27,-365.1"/>
<text text-anchor="middle" x="2355" y="-361.57" font-family="FreeSans" font-size="12.00"> xAxis</text>
</g>
<!-- Node21&#45;&gt;Node20 -->
<g id="edge29" class="edge">
<title>Node21&#45;&gt;Node20</title>
<path fill="none" stroke="midnightblue" d="M2433.67,-382.14C2457.2,-379.4 2482.8,-376.42 2505.45,-373.79"/>
<polygon fill="midnightblue" stroke="midnightblue" points="2433.26,-378.66 2423.73,-383.29 2434.07,-385.61 2433.26,-378.66"/>
</g>
<!-- Node22 -->
<g id="node22" class="node">
<title>Node22</title>
<g id="a_node22"><a xlink:href="class_j_k_q_t_p_vertical_axis.html" target="_top" xlink:title="implements a vertical axis, based on JKQTPCoordinateAxis (for most of documentation: see JKQTPCoordin...">
<polygon fill="none" stroke="black" points="2513,-287.67 2513,-308.67 2631,-308.67 2631,-287.67 2513,-287.67"/>
<text text-anchor="middle" x="2572" y="-295.07" font-family="FreeSans" font-size="12.00">JKQTPVerticalAxis</text>
</a>
</g>
</g>
<!-- Node21&#45;&gt;Node22 -->
<g id="edge34" class="edge">
<title>Node21&#45;&gt;Node22</title>
<path fill="none" stroke="midnightblue" d="M2400.11,-377.4C2416.58,-371.9 2435.32,-365.2 2452,-358.17 2488.24,-342.89 2528.83,-321.44 2552,-308.76"/>
<polygon fill="midnightblue" stroke="midnightblue" points="2398.59,-374.22 2390.19,-380.67 2400.78,-380.87 2398.59,-374.22"/>
</g>
<!-- Node22&#45;&gt;Node5 -->
<g id="edge33" class="edge">
<title>Node22&#45;&gt;Node5</title>
<path fill="none" stroke="#9a32cd" stroke-dasharray="5,2" d="M2541.06,-283.38C2517.51,-272.6 2483.51,-258.93 2452,-253.17 2323.2,-229.63 2168.51,-250.45 2089.15,-264.62"/>
<polygon fill="#9a32cd" stroke="#9a32cd" points="2539.63,-286.57 2550.17,-287.64 2542.6,-280.23 2539.63,-286.57"/>
<text text-anchor="middle" x="2355" y="-256.57" font-family="FreeSans" font-size="12.00"> yAxis</text>
</g>
<!-- Node23 -->
<g id="node23" class="node">
<title>Node23</title>
<g id="a_node23"><a xlink:href="class_j_k_q_t_p_datastore.html" target="_top" xlink:title="This class manages data columns (with entries of type double ), used by JKQTPlotter/JKQTBasePlotter t...">
<polygon fill="none" stroke="black" points="1707,-166.67 1707,-187.67 1814,-187.67 1814,-166.67 1707,-166.67"/>
<text text-anchor="middle" x="1760.5" y="-174.07" font-family="FreeSans" font-size="12.00">JKQTPDatastore</text>
</a>
</g>
</g>
<!-- Node23&#45;&gt;Node5 -->
<g id="edge35" class="edge">
<title>Node23&#45;&gt;Node5</title>
<path fill="none" stroke="#9a32cd" stroke-dasharray="5,2" d="M1823.86,-186.53C1857.86,-193.39 1899.84,-204.79 1934,-223.17 1943.43,-228.24 1942.98,-233.4 1952,-239.17 1968.32,-249.61 1988.19,-258.38 2004.34,-264.65"/>
<polygon fill="#9a32cd" stroke="#9a32cd" points="1824.52,-183.09 1814.04,-184.63 1823.19,-189.97 1824.52,-183.09"/>
<text text-anchor="middle" x="1890" y="-226.57" font-family="FreeSans" font-size="12.00"> datastore</text>
</g>
<!-- Node25 -->
<g id="node25" class="node">
<title>Node25</title>
<g id="a_node25"><a xlink:href="class_j_k_q_t_p_column.html" target="_top" xlink:title="internally stores information about one data column. See JKQTPDatastore for more information.">
<polygon fill="none" stroke="black" points="1987.5,-119.67 1987.5,-140.67 2083.5,-140.67 2083.5,-119.67 1987.5,-119.67"/>
<text text-anchor="middle" x="2035.5" y="-127.07" font-family="FreeSans" font-size="12.00">JKQTPColumn</text>
</a>
</g>
</g>
<!-- Node23&#45;&gt;Node25 -->
<g id="edge38" class="edge">
<title>Node23&#45;&gt;Node25</title>
<path fill="none" stroke="#9a32cd" stroke-dasharray="5,2" d="M1799.26,-163.29C1813.71,-158.46 1830.45,-153.44 1846,-150.17 1893.5,-140.17 1948.84,-135.05 1987.22,-132.51"/>
<polygon fill="#9a32cd" stroke="#9a32cd" points="1797.99,-160.03 1789.67,-166.58 1800.26,-166.65 1797.99,-160.03"/>
<text text-anchor="middle" x="1890" y="-153.57" font-family="FreeSans" font-size="12.00"> datastore</text>
</g>
<!-- Node24 -->
<g id="node24" class="node">
<title>Node24</title>
<g id="a_node24"><a xlink:title=" ">
<polygon fill="none" stroke="black" points="2258,-119.67 2258,-140.67 2452,-140.67 2452,-119.67 2258,-119.67"/>
<text text-anchor="middle" x="2355" y="-127.07" font-family="FreeSans" font-size="12.00">std::unique_ptr&lt; JKQTPColumn &gt;</text>
</a>
</g>
</g>
<!-- Node24&#45;&gt;Node23 -->
<g id="edge36" class="edge">
<title>Node24&#45;&gt;Node23</title>
<path fill="none" stroke="#9a32cd" stroke-dasharray="5,2" d="M2279.88,-142.16C2266.63,-144.03 2252.92,-145.8 2240,-147.17 2085.63,-163.49 1902.22,-171.95 1814.02,-175.34"/>
<polygon fill="#9a32cd" stroke="#9a32cd" points="2280.52,-145.6 2289.91,-140.71 2279.51,-138.67 2280.52,-145.6"/>
<text text-anchor="middle" x="2035.5" y="-172.57" font-family="FreeSans" font-size="12.00"> m_invalidColumn</text>
</g>
<!-- Node25&#45;&gt;Node24 -->
<g id="edge37" class="edge">
<title>Node25&#45;&gt;Node24</title>
<path fill="none" stroke="#9a32cd" stroke-dasharray="5,2" d="M2093.7,-130.17C2139.36,-130.17 2204.33,-130.17 2257.93,-130.17"/>
<polygon fill="#9a32cd" stroke="#9a32cd" points="2093.69,-126.67 2083.69,-130.17 2093.69,-133.67 2093.69,-126.67"/>
<text text-anchor="middle" x="2188.5" y="-133.57" font-family="FreeSans" font-size="12.00"> ptr</text>
</g>
<!-- Node26 -->
<g id="node26" class="node">
<title>Node26</title>
<g id="a_node26"><a xlink:title=" ">
<polygon fill="none" stroke="black" points="1974.5,-79.67 1974.5,-100.67 2096.5,-100.67 2096.5,-79.67 1974.5,-79.67"/>
<text text-anchor="middle" x="2035.5" y="-87.07" font-family="FreeSans" font-size="12.00">std::unique_ptr&lt; T &gt;</text>
</a>
</g>
</g>
<!-- Node26&#45;&gt;Node24 -->
<g id="edge39" class="edge">
<title>Node26&#45;&gt;Node24</title>
<path fill="none" stroke="orange" stroke-dasharray="5,2" d="M2106.67,-97.48C2145.93,-101.72 2195.73,-107.37 2240,-113.17 2254.98,-115.13 2271.04,-117.41 2286.24,-119.66"/>
<polygon fill="orange" stroke="orange" points="2106.99,-93.99 2096.67,-96.4 2106.24,-100.95 2106.99,-93.99"/>
<text text-anchor="middle" x="2188.5" y="-116.57" font-family="FreeSans" font-size="12.00"> &lt; JKQTPColumn &gt;</text>
</g>
<!-- Node27 -->
<g id="node27" class="node">
<title>Node27</title>
<g id="a_node27"><a xlink:title=" ">
<polygon fill="none" stroke="black" points="1746,-79.67 1746,-100.67 1775,-100.67 1775,-79.67 1746,-79.67"/>
<text text-anchor="middle" x="1760.5" y="-87.07" font-family="FreeSans" font-size="12.00">T</text>
</a>
</g>
</g>
<!-- Node27&#45;&gt;Node26 -->
<g id="edge40" class="edge">
<title>Node27&#45;&gt;Node26</title>
<path fill="none" stroke="#9a32cd" stroke-dasharray="5,2" d="M1785.06,-90.17C1826.78,-90.17 1914.86,-90.17 1974.38,-90.17"/>
<polygon fill="#9a32cd" stroke="#9a32cd" points="1785.04,-86.67 1775.04,-90.17 1785.04,-93.67 1785.04,-86.67"/>
<text text-anchor="middle" x="1890" y="-93.57" font-family="FreeSans" font-size="12.00"> ptr</text>
</g>
<!-- Node28 -->
<g id="node28" class="node">
<title>Node28</title>
<g id="a_node28"><a xlink:href="class_j_k_q_t_p_graph_boxplot_style_mixin.html" target="_top" xlink:title="Styling Mix&#45;In for Boxplots.">
<polygon fill="none" stroke="black" points="2263,-541.67 2263,-562.67 2447,-562.67 2447,-541.67 2263,-541.67"/>
<text text-anchor="middle" x="2355" y="-549.07" font-family="FreeSans" font-size="12.00">JKQTPGraphBoxplotStyleMixin</text>
</a>
</g>
</g>
<!-- Node28&#45;&gt;Node2 -->
<g id="edge42" class="edge">
<title>Node28&#45;&gt;Node2</title>
<path fill="none" stroke="midnightblue" d="M2418.61,-539.65C2450.21,-533.33 2488.1,-525.75 2518.2,-519.73"/>
<polygon fill="midnightblue" stroke="midnightblue" points="2417.71,-536.26 2408.59,-541.65 2419.09,-543.12 2417.71,-536.26"/>
</g>
<!-- Node29 -->
<g id="node29" class="node">
<title>Node29</title>
<g id="a_node29"><a xlink:href="class_j_k_q_t_p_graph_line_style_mixin.html" target="_top" xlink:title="This Mix&#45;In class provides setter/getter methods, storage and other facilities for the graph line sty...">
<polygon fill="none" stroke="black" points="1952,-581.67 1952,-602.67 2119,-602.67 2119,-581.67 1952,-581.67"/>
<text text-anchor="middle" x="2035.5" y="-589.07" font-family="FreeSans" font-size="12.00">JKQTPGraphLineStyleMixin</text>
</a>
</g>
</g>
<!-- Node29&#45;&gt;Node28 -->
<g id="edge43" class="edge">
<title>Node29&#45;&gt;Node28</title>
<path fill="none" stroke="midnightblue" d="M2129.08,-580.5C2173.77,-574.87 2226.99,-568.17 2270.44,-562.69"/>
<polygon fill="midnightblue" stroke="midnightblue" points="2128.57,-577.04 2119.09,-581.76 2129.45,-583.99 2128.57,-577.04"/>
</g>
<!-- Node30 -->
<g id="node30" class="node">
<title>Node30</title>
<g id="a_node30"><a xlink:href="class_j_k_q_t_p_graph_fill_style_mixin.html" target="_top" xlink:title="This Mix&#45;In class provides setter/getter methods, storage and other facilities for the graph filling ...">
<polygon fill="none" stroke="black" points="1956,-541.67 1956,-562.67 2115,-562.67 2115,-541.67 1956,-541.67"/>
<text text-anchor="middle" x="2035.5" y="-549.07" font-family="FreeSans" font-size="12.00">JKQTPGraphFillStyleMixin</text>
</a>
</g>
</g>
<!-- Node30&#45;&gt;Node28 -->
<g id="edge44" class="edge">
<title>Node30&#45;&gt;Node28</title>
<path fill="none" stroke="midnightblue" d="M2125.53,-552.17C2168.39,-552.17 2219.72,-552.17 2262.86,-552.17"/>
<polygon fill="midnightblue" stroke="midnightblue" points="2125.39,-548.67 2115.39,-552.17 2125.39,-555.67 2125.39,-548.67"/>
</g>
</g>
</svg>
