<?xml version="1.0" encoding="UTF-8" standalone="no"?>
<!DOCTYPE svg PUBLIC "-//W3C//DTD SVG 1.1//EN"
 "http://www.w3.org/Graphics/SVG/1.1/DTD/svg11.dtd">
<!-- Generated by graphviz version 2.43.0 (0)
 -->
<!-- Title: JKQTPMathParser::jkmpNodeList Pages: 1 -->
<svg width="2577pt" height="506pt"
 viewBox="0.00 0.00 2577.00 506.09" xmlns="http://www.w3.org/2000/svg" xmlns:xlink="http://www.w3.org/1999/xlink">
<g id="graph0" class="graph" transform="scale(1 1) rotate(0) translate(4 502.09)">
<title>JKQTPMathParser::jkmpNodeList</title>
<!-- Node1 -->
<g id="node1" class="node">
<title>Node1</title>
<g id="a_node1"><a xlink:title="This class represents a list of jkmpNode.">
<polygon fill="#bfbfbf" stroke="black" points="2360,-224.09 2360,-245.09 2569,-245.09 2569,-224.09 2360,-224.09"/>
<text text-anchor="middle" x="2464.5" y="-231.49" font-family="Helvetica,sans-Serif" font-size="12.00">JKQTPMathParser::jkmpNodeList</text>
</a>
</g>
</g>
<!-- Node2 -->
<g id="node2" class="node">
<title>Node2</title>
<g id="a_node2"><a xlink:href="class_j_k_q_t_p_math_parser_1_1jkmp_node.html" target="_top" xlink:title="This class is the abstract base class for nodes. All allowed node types must inherit from jkmpNode.">
<polygon fill="none" stroke="black" points="1821,-247.09 1821,-268.09 2009,-268.09 2009,-247.09 1821,-247.09"/>
<text text-anchor="middle" x="1915" y="-254.49" font-family="Helvetica,sans-Serif" font-size="12.00">JKQTPMathParser::jkmpNode</text>
</a>
</g>
</g>
<!-- Node2&#45;&gt;Node1 -->
<g id="edge1" class="edge">
<title>Node2&#45;&gt;Node1</title>
<path fill="none" stroke="midnightblue" d="M2019.14,-253.75C2105.42,-250.47 2231.75,-245.51 2342,-240.59 2347.8,-240.33 2353.76,-240.06 2359.77,-239.78"/>
<polygon fill="midnightblue" stroke="midnightblue" points="2018.95,-250.25 2009.09,-254.13 2019.21,-257.25 2018.95,-250.25"/>
</g>
<!-- Node2&#45;&gt;Node2 -->
<g id="edge29" class="edge">
<title>Node2&#45;&gt;Node2</title>
<path fill="none" stroke="#9a32cd" stroke-dasharray="5,2" d="M1890.67,-278.02C1892.55,-282.94 1900.66,-286.59 1915,-286.59 1937.95,-286.59 1944.94,-277.24 1935.97,-268.3"/>
<polygon fill="#9a32cd" stroke="#9a32cd" points="1894.07,-278.89 1894.03,-268.3 1887.46,-276.61 1894.07,-278.89"/>
<text text-anchor="middle" x="1915" y="-289.99" font-family="Helvetica,sans-Serif" font-size="12.00"> parent</text>
</g>
<!-- Node22 -->
<g id="node22" class="node">
<title>Node22</title>
<g id="a_node22"><a xlink:title=" ">
<polygon fill="none" stroke="black" points="2105,-194.59 2105,-228.59 2303,-228.59 2303,-194.59 2105,-194.59"/>
<text text-anchor="start" x="2113" y="-214.99" font-family="Helvetica,sans-Serif" font-size="12.00">std::vector&lt; JKQTPMathParser</text>
<text text-anchor="middle" x="2204" y="-201.99" font-family="Helvetica,sans-Serif" font-size="12.00">::jkmpNode * &gt;</text>
</a>
</g>
</g>
<!-- Node2&#45;&gt;Node22 -->
<g id="edge31" class="edge">
<title>Node2&#45;&gt;Node22</title>
<path fill="none" stroke="#9a32cd" stroke-dasharray="5,2" d="M1963.86,-244.49C1983.33,-239.55 2006.12,-234.24 2027,-230.59 2052.13,-226.2 2079.46,-222.65 2104.93,-219.87"/>
<polygon fill="#9a32cd" stroke="#9a32cd" points="1962.82,-241.15 1954.01,-247.04 1964.57,-247.92 1962.82,-241.15"/>
<text text-anchor="middle" x="2057" y="-233.99" font-family="Helvetica,sans-Serif" font-size="12.00"> elements</text>
</g>
<!-- Node3 -->
<g id="node3" class="node">
<title>Node3</title>
<g id="a_node3"><a xlink:href="class_j_k_q_t_p_math_parser.html" target="_top" xlink:title="A simple function parser to parse (build memory tree representation) and evaluate simple mathematical...">
<polygon fill="none" stroke="black" points="1617,-300.09 1617,-321.09 1738,-321.09 1738,-300.09 1617,-300.09"/>
<text text-anchor="middle" x="1677.5" y="-307.49" font-family="Helvetica,sans-Serif" font-size="12.00">JKQTPMathParser</text>
</a>
</g>
</g>
<!-- Node3&#45;&gt;Node2 -->
<g id="edge2" class="edge">
<title>Node3&#45;&gt;Node2</title>
<path fill="none" stroke="#9a32cd" stroke-dasharray="5,2" d="M1735.28,-297.81C1775.69,-288.72 1829.34,-276.64 1867.28,-268.1"/>
<polygon fill="#9a32cd" stroke="#9a32cd" points="1734.3,-294.44 1725.31,-300.05 1735.83,-301.27 1734.3,-294.44"/>
<text text-anchor="middle" x="1781.5" y="-295.99" font-family="Helvetica,sans-Serif" font-size="12.00"> parser</text>
</g>
<!-- Node4 -->
<g id="node4" class="node">
<title>Node4</title>
<g id="a_node4"><a xlink:title=" ">
<polygon fill="none" stroke="black" points="196.5,-261.09 196.5,-282.09 272.5,-282.09 272.5,-261.09 196.5,-261.09"/>
<text text-anchor="middle" x="234.5" y="-268.49" font-family="Helvetica,sans-Serif" font-size="12.00">std::string</text>
</a>
</g>
</g>
<!-- Node4&#45;&gt;Node3 -->
<g id="edge3" class="edge">
<title>Node4&#45;&gt;Node3</title>
<path fill="none" stroke="#9a32cd" stroke-dasharray="5,2" d="M249.3,-290.53C265.72,-311.7 295.07,-345.5 328,-364.59 388.72,-399.79 410.32,-405.59 480.5,-405.59 480.5,-405.59 480.5,-405.59 1376.5,-405.59 1487.4,-405.59 1611.06,-345.85 1657.51,-321.12"/>
<polygon fill="#9a32cd" stroke="#9a32cd" points="251.91,-288.18 243.08,-282.31 246.32,-292.4 251.91,-288.18"/>
<text text-anchor="middle" x="923.5" y="-434.99" font-family="Helvetica,sans-Serif" font-size="12.00"> StringValue</text>
<text text-anchor="start" x="851" y="-421.99" font-family="Helvetica,sans-Serif" font-size="12.00">jkmathparser_exception</text>
<text text-anchor="middle" x="923.5" y="-408.99" font-family="Helvetica,sans-Serif" font-size="12.00">_function</text>
</g>
<!-- Node12 -->
<g id="node12" class="node">
<title>Node12</title>
<g id="a_node12"><a xlink:href="group__jkqtptools__math__parser.html#struct_j_k_q_t_p_math_parser_1_1jkmp_temp_variable" target="_top" xlink:title="This struct is for managing temporary variables. It is generally like jkmpVariable.">
<polygon fill="none" stroke="black" points="604.5,-337.59 604.5,-371.59 793.5,-371.59 793.5,-337.59 604.5,-337.59"/>
<text text-anchor="start" x="612.5" y="-357.99" font-family="Helvetica,sans-Serif" font-size="12.00">JKQTPMathParser::jkmpTemp</text>
<text text-anchor="middle" x="699" y="-344.99" font-family="Helvetica,sans-Serif" font-size="12.00">Variable</text>
</a>
</g>
</g>
<!-- Node4&#45;&gt;Node12 -->
<g id="edge12" class="edge">
<title>Node4&#45;&gt;Node12</title>
<path fill="none" stroke="#9a32cd" stroke-dasharray="5,2" d="M257.9,-288.2C275.87,-300.56 302.26,-316.61 328,-324.59 418.95,-352.78 528.16,-358.43 604.26,-358.16"/>
<polygon fill="#9a32cd" stroke="#9a32cd" points="259.51,-285.05 249.32,-282.14 255.47,-290.77 259.51,-285.05"/>
<text text-anchor="middle" x="347.5" y="-350.99" font-family="Helvetica,sans-Serif" font-size="12.00"> name</text>
<text text-anchor="middle" x="347.5" y="-337.99" font-family="Helvetica,sans-Serif" font-size="12.00">str</text>
</g>
<!-- Node15 -->
<g id="node15" class="node">
<title>Node15</title>
<g id="a_node15"><a xlink:title=" ">
<polygon fill="none" stroke="black" points="1264,-75.59 1264,-109.59 1487,-109.59 1487,-75.59 1264,-75.59"/>
<text text-anchor="start" x="1272" y="-95.99" font-family="Helvetica,sans-Serif" font-size="12.00">std::map&lt; std::string,</text>
<text text-anchor="middle" x="1375.5" y="-82.99" font-family="Helvetica,sans-Serif" font-size="12.00"> JKQTPMathParser::jkmpVariable &gt;</text>
</a>
</g>
</g>
<!-- Node4&#45;&gt;Node15 -->
<g id="edge16" class="edge">
<title>Node4&#45;&gt;Node15</title>
<path fill="none" stroke="#9a32cd" stroke-dasharray="5,2" d="M241.93,-251.29C257.6,-206.01 302.64,-98.17 385,-65.59 715.59,65.19 1158.06,-33.03 1315.69,-75.54"/>
<polygon fill="#9a32cd" stroke="#9a32cd" points="238.57,-250.31 238.73,-260.9 245.21,-252.52 238.57,-250.31"/>
<text text-anchor="middle" x="699" y="-14.99" font-family="Helvetica,sans-Serif" font-size="12.00"> keys</text>
</g>
<!-- Node16 -->
<g id="node16" class="node">
<title>Node16</title>
<g id="a_node16"><a xlink:href="struct_j_k_q_t_p_math_parser_1_1jkmp_variable.html" target="_top" xlink:title="This struct is for managing variables. Unlike jkmpResult this struct only contains pointers to the da...">
<polygon fill="none" stroke="black" points="596,-70.09 596,-91.09 802,-91.09 802,-70.09 596,-70.09"/>
<text text-anchor="middle" x="699" y="-77.49" font-family="Helvetica,sans-Serif" font-size="12.00">JKQTPMathParser::jkmpVariable</text>
</a>
</g>
</g>
<!-- Node4&#45;&gt;Node16 -->
<g id="edge18" class="edge">
<title>Node4&#45;&gt;Node16</title>
<path fill="none" stroke="#9a32cd" stroke-dasharray="5,2" d="M246,-252C266.89,-215.31 317.51,-136.9 385,-103.59 455.72,-68.68 546.54,-65.9 612.11,-70.07"/>
<polygon fill="#9a32cd" stroke="#9a32cd" points="242.92,-250.34 241.12,-260.78 249.04,-253.74 242.92,-250.34"/>
<text text-anchor="middle" x="347.5" y="-147.99" font-family="Helvetica,sans-Serif" font-size="12.00"> str</text>
</g>
<!-- Node19 -->
<g id="node19" class="node">
<title>Node19</title>
<g id="a_node19"><a xlink:title=" ">
<polygon fill="none" stroke="black" points="1270,-260.09 1270,-307.09 1481,-307.09 1481,-260.09 1270,-260.09"/>
<text text-anchor="start" x="1278" y="-293.49" font-family="Helvetica,sans-Serif" font-size="12.00">std::map&lt; std::string,</text>
<text text-anchor="start" x="1278" y="-280.49" font-family="Helvetica,sans-Serif" font-size="12.00"> JKQTPMathParser::jkmpFunction</text>
<text text-anchor="middle" x="1375.5" y="-267.49" font-family="Helvetica,sans-Serif" font-size="12.00">Descriptor &gt;</text>
</a>
</g>
</g>
<!-- Node4&#45;&gt;Node19 -->
<g id="edge23" class="edge">
<title>Node4&#45;&gt;Node19</title>
<path fill="none" stroke="#9a32cd" stroke-dasharray="5,2" d="M282.89,-281.51C297.31,-284.21 313.25,-286.85 328,-288.59 353.19,-291.55 359.64,-290.85 385,-291.59 678.21,-300.19 751.66,-294.7 1045,-295.59 1134.33,-295.86 1156.76,-299.75 1246,-295.59 1253.72,-295.23 1261.7,-294.75 1269.71,-294.19"/>
<polygon fill="#9a32cd" stroke="#9a32cd" points="283.17,-278 272.69,-279.56 281.85,-284.88 283.17,-278"/>
<text text-anchor="middle" x="699" y="-299.99" font-family="Helvetica,sans-Serif" font-size="12.00"> keys</text>
</g>
<!-- Node20 -->
<g id="node20" class="node">
<title>Node20</title>
<g id="a_node20"><a xlink:href="group__jkqtptools__math__parser.html#struct_j_k_q_t_p_math_parser_1_1jkmp_function_descriptor" target="_top" xlink:title="description of a user registered function">
<polygon fill="none" stroke="black" points="820,-247.59 820,-281.59 1027,-281.59 1027,-247.59 820,-247.59"/>
<text text-anchor="start" x="828" y="-267.99" font-family="Helvetica,sans-Serif" font-size="12.00">JKQTPMathParser::jkmpFunction</text>
<text text-anchor="middle" x="923.5" y="-254.99" font-family="Helvetica,sans-Serif" font-size="12.00">Descriptor</text>
</a>
</g>
</g>
<!-- Node4&#45;&gt;Node20 -->
<g id="edge27" class="edge">
<title>Node4&#45;&gt;Node20</title>
<path fill="none" stroke="#9a32cd" stroke-dasharray="5,2" d="M282.53,-258.45C311.76,-250.98 350.25,-242.38 385,-238.59 535.8,-222.14 711.55,-237.02 819.92,-250.1"/>
<polygon fill="#9a32cd" stroke="#9a32cd" points="281.4,-255.13 272.6,-261.04 283.16,-261.91 281.4,-255.13"/>
<text text-anchor="middle" x="481.5" y="-241.99" font-family="Helvetica,sans-Serif" font-size="12.00"> name</text>
</g>
<!-- Node21 -->
<g id="node21" class="node">
<title>Node21</title>
<g id="a_node21"><a xlink:href="struct_j_k_q_t_p_math_parser_1_1jkmp_result.html" target="_top" xlink:title="result of any expression">
<polygon fill="none" stroke="black" points="385,-261.09 385,-282.09 578,-282.09 578,-261.09 385,-261.09"/>
<text text-anchor="middle" x="481.5" y="-268.49" font-family="Helvetica,sans-Serif" font-size="12.00">JKQTPMathParser::jkmpResult</text>
</a>
</g>
</g>
<!-- Node4&#45;&gt;Node21 -->
<g id="edge26" class="edge">
<title>Node4&#45;&gt;Node21</title>
<path fill="none" stroke="#9a32cd" stroke-dasharray="5,2" d="M282.94,-271.59C311.89,-271.59 349.93,-271.59 384.9,-271.59"/>
<polygon fill="#9a32cd" stroke="#9a32cd" points="282.71,-268.09 272.71,-271.59 282.71,-275.09 282.71,-268.09"/>
<text text-anchor="middle" x="347.5" y="-274.99" font-family="Helvetica,sans-Serif" font-size="12.00"> str</text>
</g>
<!-- Node5 -->
<g id="node5" class="node">
<title>Node5</title>
<g id="a_node5"><a xlink:title=" ">
<polygon fill="none" stroke="black" points="0,-254.59 0,-288.59 122,-288.59 122,-254.59 0,-254.59"/>
<text text-anchor="start" x="8" y="-274.99" font-family="Helvetica,sans-Serif" font-size="12.00">std::basic_string&lt;</text>
<text text-anchor="middle" x="61" y="-261.99" font-family="Helvetica,sans-Serif" font-size="12.00"> Char &gt;</text>
</a>
</g>
</g>
<!-- Node5&#45;&gt;Node4 -->
<g id="edge4" class="edge">
<title>Node5&#45;&gt;Node4</title>
<path fill="none" stroke="midnightblue" d="M132.74,-271.59C154.63,-271.59 177.86,-271.59 196.5,-271.59"/>
<polygon fill="midnightblue" stroke="midnightblue" points="132.46,-268.09 122.46,-271.59 132.46,-275.09 132.46,-268.09"/>
</g>
<!-- Node6 -->
<g id="node6" class="node">
<title>Node6</title>
<g id="a_node6"><a xlink:title=" ">
<polygon fill="none" stroke="black" points="1315,-443.09 1315,-464.09 1436,-464.09 1436,-443.09 1315,-443.09"/>
<text text-anchor="middle" x="1375.5" y="-450.49" font-family="Helvetica,sans-Serif" font-size="12.00">std::istringstream</text>
</a>
</g>
</g>
<!-- Node6&#45;&gt;Node3 -->
<g id="edge5" class="edge">
<title>Node6&#45;&gt;Node3</title>
<path fill="none" stroke="#9a32cd" stroke-dasharray="5,2" d="M1446.3,-455.91C1491.62,-454.39 1550.35,-446.45 1595,-419.59 1635.09,-395.47 1661.92,-343.46 1672.02,-321.13"/>
<polygon fill="#9a32cd" stroke="#9a32cd" points="1446.17,-452.41 1436.25,-456.15 1446.34,-459.41 1446.17,-452.41"/>
<text text-anchor="middle" x="1550" y="-452.99" font-family="Helvetica,sans-Serif" font-size="12.00"> program</text>
</g>
<!-- Node7 -->
<g id="node7" class="node">
<title>Node7</title>
<g id="a_node7"><a xlink:title=" ">
<polygon fill="none" stroke="black" points="844.5,-463.59 844.5,-497.59 1002.5,-497.59 1002.5,-463.59 844.5,-463.59"/>
<text text-anchor="start" x="852.5" y="-483.99" font-family="Helvetica,sans-Serif" font-size="12.00">std::basic_istringstream</text>
<text text-anchor="middle" x="923.5" y="-470.99" font-family="Helvetica,sans-Serif" font-size="12.00">&lt; Char &gt;</text>
</a>
</g>
</g>
<!-- Node7&#45;&gt;Node6 -->
<g id="edge6" class="edge">
<title>Node7&#45;&gt;Node6</title>
<path fill="none" stroke="midnightblue" d="M1012.74,-475.29C1102.01,-469.94 1237.56,-461.81 1314.89,-457.17"/>
<polygon fill="midnightblue" stroke="midnightblue" points="1012.4,-471.81 1002.63,-475.9 1012.82,-478.8 1012.4,-471.81"/>
</g>
<!-- Node8 -->
<g id="node8" class="node">
<title>Node8</title>
<g id="a_node8"><a xlink:title=" ">
<polygon fill="none" stroke="black" points="419.5,-463.59 419.5,-497.59 543.5,-497.59 543.5,-463.59 419.5,-463.59"/>
<text text-anchor="start" x="427.5" y="-483.99" font-family="Helvetica,sans-Serif" font-size="12.00">std::basic_istream</text>
<text text-anchor="middle" x="481.5" y="-470.99" font-family="Helvetica,sans-Serif" font-size="12.00">&lt; Char &gt;</text>
</a>
</g>
</g>
<!-- Node8&#45;&gt;Node7 -->
<g id="edge7" class="edge">
<title>Node8&#45;&gt;Node7</title>
<path fill="none" stroke="midnightblue" d="M554.11,-480.59C633.81,-480.59 762.19,-480.59 844.42,-480.59"/>
<polygon fill="midnightblue" stroke="midnightblue" points="553.68,-477.09 543.68,-480.59 553.68,-484.09 553.68,-477.09"/>
</g>
<!-- Node9 -->
<g id="node9" class="node">
<title>Node9</title>
<g id="a_node9"><a xlink:title=" ">
<polygon fill="none" stroke="black" points="159,-470.09 159,-491.09 310,-491.09 310,-470.09 159,-470.09"/>
<text text-anchor="middle" x="234.5" y="-477.49" font-family="Helvetica,sans-Serif" font-size="12.00">std::basic_ios&lt; Char &gt;</text>
</a>
</g>
</g>
<!-- Node9&#45;&gt;Node8 -->
<g id="edge8" class="edge">
<title>Node9&#45;&gt;Node8</title>
<path fill="none" stroke="midnightblue" d="M320.4,-480.59C352.87,-480.59 389.24,-480.59 419.11,-480.59"/>
<polygon fill="midnightblue" stroke="midnightblue" points="320.01,-477.09 310.01,-480.59 320.01,-484.09 320.01,-477.09"/>
</g>
<!-- Node10 -->
<g id="node10" class="node">
<title>Node10</title>
<g id="a_node10"><a xlink:title=" ">
<polygon fill="none" stroke="black" points="14.5,-470.09 14.5,-491.09 107.5,-491.09 107.5,-470.09 14.5,-470.09"/>
<text text-anchor="middle" x="61" y="-477.49" font-family="Helvetica,sans-Serif" font-size="12.00">std::ios_base</text>
</a>
</g>
</g>
<!-- Node10&#45;&gt;Node9 -->
<g id="edge9" class="edge">
<title>Node10&#45;&gt;Node9</title>
<path fill="none" stroke="midnightblue" d="M117.78,-480.59C130.91,-480.59 145.11,-480.59 158.91,-480.59"/>
<polygon fill="midnightblue" stroke="midnightblue" points="117.51,-477.09 107.51,-480.59 117.51,-484.09 117.51,-477.09"/>
</g>
<!-- Node11 -->
<g id="node11" class="node">
<title>Node11</title>
<g id="a_node11"><a xlink:title=" ">
<polygon fill="none" stroke="black" points="1276.5,-326.59 1276.5,-360.59 1474.5,-360.59 1474.5,-326.59 1276.5,-326.59"/>
<text text-anchor="start" x="1284.5" y="-346.99" font-family="Helvetica,sans-Serif" font-size="12.00">std::vector&lt; JKQTPMathParser</text>
<text text-anchor="middle" x="1375.5" y="-333.99" font-family="Helvetica,sans-Serif" font-size="12.00">::jkmpTempVariable &gt;</text>
</a>
</g>
</g>
<!-- Node11&#45;&gt;Node3 -->
<g id="edge10" class="edge">
<title>Node11&#45;&gt;Node3</title>
<path fill="none" stroke="#9a32cd" stroke-dasharray="5,2" d="M1484.71,-331.69C1529.15,-326.8 1578.9,-321.33 1616.59,-317.18"/>
<polygon fill="#9a32cd" stroke="#9a32cd" points="1484.29,-328.21 1474.73,-332.78 1485.05,-335.17 1484.29,-328.21"/>
<text text-anchor="middle" x="1550" y="-332.99" font-family="Helvetica,sans-Serif" font-size="12.00"> tempvariables</text>
</g>
<!-- Node12&#45;&gt;Node11 -->
<g id="edge11" class="edge">
<title>Node12&#45;&gt;Node11</title>
<path fill="none" stroke="#9a32cd" stroke-dasharray="5,2" d="M804.05,-352.89C932.78,-350.79 1150.35,-347.24 1276.31,-345.19"/>
<polygon fill="#9a32cd" stroke="#9a32cd" points="803.73,-349.4 793.79,-353.06 803.84,-356.4 803.73,-349.4"/>
<text text-anchor="middle" x="923.5" y="-356.99" font-family="Helvetica,sans-Serif" font-size="12.00"> elements</text>
</g>
<!-- Node13 -->
<g id="node13" class="node">
<title>Node13</title>
<g id="a_node13"><a xlink:title=" ">
<polygon fill="none" stroke="black" points="866,-185.09 866,-206.09 981,-206.09 981,-185.09 866,-185.09"/>
<text text-anchor="middle" x="923.5" y="-192.49" font-family="Helvetica,sans-Serif" font-size="12.00">std::vector&lt; T &gt;</text>
</a>
</g>
</g>
<!-- Node13&#45;&gt;Node11 -->
<g id="edge13" class="edge">
<title>Node13&#45;&gt;Node11</title>
<path fill="none" stroke="orange" stroke-dasharray="5,2" d="M991.31,-205.04C1008.78,-207.5 1027.6,-210.15 1045,-212.59 1089.66,-218.85 1212.65,-210.24 1246,-240.59 1271.67,-263.95 1239.54,-291.96 1264,-316.59 1267.76,-320.37 1271.95,-323.66 1276.45,-326.51"/>
<polygon fill="orange" stroke="orange" points="991.59,-201.54 981.2,-203.61 990.61,-208.47 991.59,-201.54"/>
<text text-anchor="start" x="1081" y="-256.99" font-family="Helvetica,sans-Serif" font-size="12.00"> &lt; JKQTPMathParser::</text>
<text text-anchor="middle" x="1145.5" y="-243.99" font-family="Helvetica,sans-Serif" font-size="12.00">jkmpTempVariable &gt;</text>
</g>
<!-- Node13&#45;&gt;Node22 -->
<g id="edge32" class="edge">
<title>Node13&#45;&gt;Node22</title>
<path fill="none" stroke="orange" stroke-dasharray="5,2" d="M970.16,-182.39C992.52,-176.5 1019.96,-170.1 1045,-166.59 1190.16,-146.23 1227.92,-152.59 1374.5,-152.59 1374.5,-152.59 1374.5,-152.59 1916,-152.59 1999.93,-152.59 2094.9,-177.1 2151.8,-194.52"/>
<polygon fill="orange" stroke="orange" points="969.02,-179.08 960.27,-185.05 970.83,-185.84 969.02,-179.08"/>
<text text-anchor="start" x="1613" y="-168.99" font-family="Helvetica,sans-Serif" font-size="12.00"> &lt; JKQTPMathParser::</text>
<text text-anchor="middle" x="1677.5" y="-155.99" font-family="Helvetica,sans-Serif" font-size="12.00">jkmpNode * &gt;</text>
</g>
<!-- Node14 -->
<g id="node14" class="node">
<title>Node14</title>
<g id="a_node14"><a xlink:title=" ">
<polygon fill="none" stroke="black" points="467,-163.09 467,-184.09 496,-184.09 496,-163.09 467,-163.09"/>
<text text-anchor="middle" x="481.5" y="-170.49" font-family="Helvetica,sans-Serif" font-size="12.00">T</text>
</a>
</g>
</g>
<!-- Node14&#45;&gt;Node13 -->
<g id="edge14" class="edge">
<title>Node14&#45;&gt;Node13</title>
<path fill="none" stroke="#9a32cd" stroke-dasharray="5,2" d="M506.21,-174.77C573.78,-178.15 768.68,-187.9 865.93,-192.76"/>
<polygon fill="#9a32cd" stroke="#9a32cd" points="506.31,-171.28 496.15,-174.27 505.96,-178.27 506.31,-171.28"/>
<text text-anchor="middle" x="699" y="-192.99" font-family="Helvetica,sans-Serif" font-size="12.00"> elements</text>
</g>
<!-- Node17 -->
<g id="node17" class="node">
<title>Node17</title>
<g id="a_node17"><a xlink:title=" ">
<polygon fill="none" stroke="black" points="864,-131.09 864,-152.09 983,-152.09 983,-131.09 864,-131.09"/>
<text text-anchor="middle" x="923.5" y="-138.49" font-family="Helvetica,sans-Serif" font-size="12.00">std::map&lt; K, T &gt;</text>
</a>
</g>
</g>
<!-- Node14&#45;&gt;Node17 -->
<g id="edge21" class="edge">
<title>Node14&#45;&gt;Node17</title>
<path fill="none" stroke="#9a32cd" stroke-dasharray="5,2" d="M506.28,-171.06C529.23,-168.67 564.97,-165.09 596,-162.59 689.56,-155.05 798.38,-148.49 863.77,-144.79"/>
<polygon fill="#9a32cd" stroke="#9a32cd" points="505.69,-167.6 496.11,-172.13 506.43,-174.56 505.69,-167.6"/>
<text text-anchor="middle" x="699" y="-165.99" font-family="Helvetica,sans-Serif" font-size="12.00"> elements</text>
</g>
<!-- Node15&#45;&gt;Node3 -->
<g id="edge15" class="edge">
<title>Node15&#45;&gt;Node3</title>
<path fill="none" stroke="#9a32cd" stroke-dasharray="5,2" d="M1408.19,-115.62C1472.34,-162.23 1615.42,-266.21 1661.73,-299.86"/>
<polygon fill="#9a32cd" stroke="#9a32cd" points="1410.19,-112.74 1400.04,-109.7 1406.07,-118.41 1410.19,-112.74"/>
<text text-anchor="middle" x="1550" y="-249.99" font-family="Helvetica,sans-Serif" font-size="12.00"> variables</text>
</g>
<!-- Node16&#45;&gt;Node15 -->
<g id="edge17" class="edge">
<title>Node16&#45;&gt;Node15</title>
<path fill="none" stroke="#9a32cd" stroke-dasharray="5,2" d="M812.09,-82.58C937.45,-84.81 1139.22,-88.4 1263.95,-90.62"/>
<polygon fill="#9a32cd" stroke="#9a32cd" points="812.14,-79.08 802.08,-82.41 812.01,-86.08 812.14,-79.08"/>
<text text-anchor="middle" x="923.5" y="-89.99" font-family="Helvetica,sans-Serif" font-size="12.00"> elements</text>
</g>
<!-- Node17&#45;&gt;Node15 -->
<g id="edge19" class="edge">
<title>Node17&#45;&gt;Node15</title>
<path fill="none" stroke="orange" stroke-dasharray="5,2" d="M970.68,-128.46C992.96,-122.65 1020.18,-116.3 1045,-112.59 1117.41,-101.76 1199.6,-96.76 1263.79,-94.47"/>
<polygon fill="orange" stroke="orange" points="969.59,-125.13 960.82,-131.08 971.39,-131.9 969.59,-125.13"/>
<text text-anchor="start" x="1070" y="-128.99" font-family="Helvetica,sans-Serif" font-size="12.00"> &lt; std::string, JKQTPMath</text>
<text text-anchor="middle" x="1145.5" y="-115.99" font-family="Helvetica,sans-Serif" font-size="12.00">Parser::jkmpVariable &gt;</text>
</g>
<!-- Node17&#45;&gt;Node19 -->
<g id="edge28" class="edge">
<title>Node17&#45;&gt;Node19</title>
<path fill="none" stroke="orange" stroke-dasharray="5,2" d="M993.13,-141.32C1060.07,-143.31 1163.54,-152.42 1246,-186.59 1287.06,-203.6 1326.68,-236.9 1350.82,-259.69"/>
<polygon fill="orange" stroke="orange" points="993.21,-137.82 983.12,-141.07 993.03,-144.82 993.21,-137.82"/>
<text text-anchor="start" x="1045" y="-202.99" font-family="Helvetica,sans-Serif" font-size="12.00"> &lt; std::string, JKQTPMath</text>
<text text-anchor="middle" x="1145.5" y="-189.99" font-family="Helvetica,sans-Serif" font-size="12.00">Parser::jkmpFunctionDescriptor &gt;</text>
</g>
<!-- Node18 -->
<g id="node18" class="node">
<title>Node18</title>
<g id="a_node18"><a xlink:title=" ">
<polygon fill="none" stroke="black" points="467,-113.09 467,-134.09 496,-134.09 496,-113.09 467,-113.09"/>
<text text-anchor="middle" x="481.5" y="-120.49" font-family="Helvetica,sans-Serif" font-size="12.00">K</text>
</a>
</g>
</g>
<!-- Node18&#45;&gt;Node17 -->
<g id="edge20" class="edge">
<title>Node18&#45;&gt;Node17</title>
<path fill="none" stroke="#9a32cd" stroke-dasharray="5,2" d="M506.33,-122.55C559.48,-120.48 691.72,-116.67 802,-124.59 822.23,-126.04 844.23,-128.79 863.83,-131.67"/>
<polygon fill="#9a32cd" stroke="#9a32cd" points="506.08,-119.06 496.23,-122.96 506.36,-126.05 506.08,-119.06"/>
<text text-anchor="middle" x="699" y="-127.99" font-family="Helvetica,sans-Serif" font-size="12.00"> keys</text>
</g>
<!-- Node19&#45;&gt;Node3 -->
<g id="edge22" class="edge">
<title>Node19&#45;&gt;Node3</title>
<path fill="none" stroke="#9a32cd" stroke-dasharray="5,2" d="M1491.45,-288.04C1524.91,-289.98 1561.47,-292.72 1595,-296.59 1603.13,-297.53 1611.68,-298.74 1620.06,-300.06"/>
<polygon fill="#9a32cd" stroke="#9a32cd" points="1491.36,-284.52 1481.18,-287.46 1490.97,-291.51 1491.36,-284.52"/>
<text text-anchor="middle" x="1550" y="-299.99" font-family="Helvetica,sans-Serif" font-size="12.00"> functions</text>
</g>
<!-- Node20&#45;&gt;Node19 -->
<g id="edge24" class="edge">
<title>Node20&#45;&gt;Node19</title>
<path fill="none" stroke="#9a32cd" stroke-dasharray="5,2" d="M1037.55,-269.36C1108.85,-272.37 1200.3,-276.23 1269.93,-279.17"/>
<polygon fill="#9a32cd" stroke="#9a32cd" points="1037.31,-265.85 1027.18,-268.92 1037.02,-272.84 1037.31,-265.85"/>
<text text-anchor="middle" x="1145.5" y="-281.99" font-family="Helvetica,sans-Serif" font-size="12.00"> elements</text>
</g>
<!-- Node21&#45;&gt;Node20 -->
<g id="edge25" class="edge">
<title>Node21&#45;&gt;Node20</title>
<path fill="none" stroke="#9a32cd" stroke-dasharray="5,2" d="M588.44,-269.9C658.59,-268.79 750.15,-267.33 819.66,-266.23"/>
<polygon fill="#9a32cd" stroke="#9a32cd" points="588.19,-266.41 578.24,-270.07 588.3,-273.41 588.19,-266.41"/>
<text text-anchor="middle" x="699" y="-273.99" font-family="Helvetica,sans-Serif" font-size="12.00"> function</text>
</g>
<!-- Node22&#45;&gt;Node1 -->
<g id="edge30" class="edge">
<title>Node22&#45;&gt;Node1</title>
<path fill="none" stroke="#9a32cd" stroke-dasharray="5,2" d="M2313.18,-221.21C2328.64,-222.59 2344.51,-224 2359.88,-225.37"/>
<polygon fill="#9a32cd" stroke="#9a32cd" points="2313.37,-217.72 2303.1,-220.32 2312.75,-224.69 2313.37,-217.72"/>
<text text-anchor="middle" x="2331.5" y="-226.99" font-family="Helvetica,sans-Serif" font-size="12.00"> list</text>
</g>
</g>
</svg>
