<?xml version="1.0" encoding="UTF-8" standalone="no"?>
<!DOCTYPE svg PUBLIC "-//W3C//DTD SVG 1.1//EN"
 "http://www.w3.org/Graphics/SVG/1.1/DTD/svg11.dtd">
<!-- Generated by graphviz version 2.43.0 (0)
 -->
<!-- Title: JKQTMathTextVerbatimNode Pages: 1 -->
<svg width="398pt" height="157pt"
 viewBox="0.00 0.00 398.00 157.00" xmlns="http://www.w3.org/2000/svg" xmlns:xlink="http://www.w3.org/1999/xlink">
<g id="graph0" class="graph" transform="scale(1 1) rotate(0) translate(4 153)">
<title>JKQTMathTextVerbatimNode</title>
<!-- Node1 -->
<g id="node1" class="node">
<title>Node1</title>
<g id="a_node1"><a xlink:title="subclass representing a verbatim (plain&#45;text) node with support for line&#45;breaks in the syntax tree">
<polygon fill="#999999" stroke="#666666" points="185,-21 0,-21 0,0 185,0 185,-21"/>
<text text-anchor="middle" x="92.5" y="-7.4" font-family="Helvetica,sans-Serif" font-size="12.00">JKQTMathTextVerbatimNode</text>
</a>
</g>
</g>
<!-- Node2 -->
<g id="node2" class="node">
<title>Node2</title>
<g id="a_node2"><a xlink:href="class_j_k_q_t_math_text_text_base_node.html" target="_top" xlink:title="base class for nodes representing text in the syntax tree">
<polygon fill="white" stroke="#666666" points="184.5,-79 0.5,-79 0.5,-58 184.5,-58 184.5,-79"/>
<text text-anchor="middle" x="92.5" y="-65.4" font-family="Helvetica,sans-Serif" font-size="12.00">JKQTMathTextTextBaseNode</text>
</a>
</g>
</g>
<!-- Node2&#45;&gt;Node1 -->
<g id="edge1" class="edge">
<title>Node2&#45;&gt;Node1</title>
<path fill="none" stroke="#63b8ff" d="M92.5,-47.66C92.5,-38.66 92.5,-28.42 92.5,-21.14"/>
<polygon fill="#63b8ff" stroke="#63b8ff" points="89,-47.75 92.5,-57.75 96,-47.75 89,-47.75"/>
</g>
<!-- Node3 -->
<g id="node3" class="node">
<title>Node3</title>
<g id="a_node3"><a xlink:href="class_j_k_q_t_math_text_node.html" target="_top" xlink:title="subclass representing one node in the syntax tree">
<polygon fill="white" stroke="#666666" points="211,-149 80,-149 80,-128 211,-128 211,-149"/>
<text text-anchor="middle" x="145.5" y="-135.4" font-family="Helvetica,sans-Serif" font-size="12.00">JKQTMathTextNode</text>
</a>
</g>
</g>
<!-- Node3&#45;&gt;Node2 -->
<g id="edge2" class="edge">
<title>Node3&#45;&gt;Node2</title>
<path fill="none" stroke="#63b8ff" d="M131.46,-120.06C128.8,-116.73 126.06,-113.27 123.5,-110 115.31,-99.54 106.08,-87.43 99.83,-79.2"/>
<polygon fill="#63b8ff" stroke="#63b8ff" points="128.73,-122.25 137.71,-127.87 134.19,-117.88 128.73,-122.25"/>
</g>
<!-- Node3&#45;&gt;Node3 -->
<g id="edge6" class="edge">
<title>Node3&#45;&gt;Node3</title>
<path fill="none" stroke="#9a32cd" stroke-dasharray="5,2" d="M221.52,-142.94C226.19,-141.89 229,-140.41 229,-138.5 229,-135.45 221.81,-133.49 211.31,-132.63"/>
<polygon fill="#9a32cd" stroke="#9a32cd" points="220.73,-139.52 211.31,-144.37 221.7,-146.45 220.73,-139.52"/>
<text text-anchor="middle" x="266.5" y="-135.4" font-family="Helvetica,sans-Serif" font-size="12.00"> parentNode</text>
</g>
<!-- Node4 -->
<g id="node4" class="node">
<title>Node4</title>
<g id="a_node4"><a xlink:href="class_j_k_q_t_math_text.html" target="_top" xlink:title="this class parses a mathematical markup string and can then draw the contained text/equation onto a Q...">
<polygon fill="white" stroke="#666666" points="302,-79 203,-79 203,-58 302,-58 302,-79"/>
<text text-anchor="middle" x="252.5" y="-65.4" font-family="Helvetica,sans-Serif" font-size="12.00">JKQTMathText</text>
</a>
</g>
</g>
<!-- Node3&#45;&gt;Node4 -->
<g id="edge5" class="edge">
<title>Node3&#45;&gt;Node4</title>
<path fill="none" stroke="#9a32cd" stroke-dasharray="5,2" d="M138.84,-117.9C137.63,-110.67 137.95,-102.82 142.5,-97 146.5,-91.88 175.62,-84.73 202.89,-79"/>
<polygon fill="#9a32cd" stroke="#9a32cd" points="135.49,-118.95 141.39,-127.76 142.27,-117.2 135.49,-118.95"/>
<text text-anchor="middle" x="181" y="-100.4" font-family="Helvetica,sans-Serif" font-size="12.00"> parsedNode</text>
</g>
<!-- Node4&#45;&gt;Node3 -->
<g id="edge3" class="edge">
<title>Node4&#45;&gt;Node3</title>
<path fill="none" stroke="#9a32cd" stroke-dasharray="5,2" d="M242.69,-87.94C237.8,-95.65 231.27,-104.17 223.5,-110 212.94,-117.93 199.89,-123.72 187.51,-127.87"/>
<polygon fill="#9a32cd" stroke="#9a32cd" points="245.8,-89.56 247.81,-79.15 239.75,-86.03 245.8,-89.56"/>
<text text-anchor="middle" x="285" y="-100.4" font-family="Helvetica,sans-Serif" font-size="12.00"> parentMathText</text>
</g>
<!-- Node5 -->
<g id="node5" class="node">
<title>Node5</title>
<g id="a_node5"><a xlink:title=" ">
<polygon fill="white" stroke="#666666" points="390,-149 325,-149 325,-128 390,-128 390,-149"/>
<text text-anchor="middle" x="357.5" y="-135.4" font-family="Helvetica,sans-Serif" font-size="12.00">QObject</text>
</a>
</g>
</g>
<!-- Node5&#45;&gt;Node4 -->
<g id="edge4" class="edge">
<title>Node5&#45;&gt;Node4</title>
<path fill="none" stroke="#63b8ff" d="M354.65,-118C352.65,-110.56 349.26,-102.54 343.5,-97 332.32,-86.25 317.08,-79.68 302.27,-75.68"/>
<polygon fill="#63b8ff" stroke="#63b8ff" points="351.22,-118.72 356.64,-127.82 358.08,-117.32 351.22,-118.72"/>
</g>
</g>
</svg>
