<?xml version="1.0" encoding="UTF-8" standalone="no"?>
<!DOCTYPE svg PUBLIC "-//W3C//DTD SVG 1.1//EN"
 "http://www.w3.org/Graphics/SVG/1.1/DTD/svg11.dtd">
<!-- Generated by graphviz version 2.43.0 (0)
 -->
<!-- Title: JKQTPColumnMathImage Pages: 1 -->
<svg width="4032pt" height="656pt"
 viewBox="0.00 0.00 4032.00 656.00" xmlns="http://www.w3.org/2000/svg" xmlns:xlink="http://www.w3.org/1999/xlink">
<g id="graph0" class="graph" transform="scale(1 1) rotate(0) translate(4 652)">
<title>JKQTPColumnMathImage</title>
<!-- Node1 -->
<g id="node1" class="node">
<title>Node1</title>
<g id="a_node1"><a xlink:title="class to plot an image from an 2&#45;dimensional array of values stored in a column of the datastore">
<polygon fill="#999999" stroke="#666666" points="4024,-432.5 3857,-432.5 3857,-411.5 4024,-411.5 4024,-432.5"/>
<text text-anchor="middle" x="3940.5" y="-418.9" font-family="Helvetica,sans-Serif" font-size="12.00">JKQTPColumnMathImage</text>
</a>
</g>
</g>
<!-- Node2 -->
<g id="node2" class="node">
<title>Node2</title>
<g id="a_node2"><a xlink:href="class_j_k_q_t_p_math_image.html" target="_top" xlink:title="class to plot an image from an 2&#45;dimensional array of values">
<polygon fill="white" stroke="#666666" points="3820,-432.5 3699,-432.5 3699,-411.5 3820,-411.5 3820,-432.5"/>
<text text-anchor="middle" x="3759.5" y="-418.9" font-family="Helvetica,sans-Serif" font-size="12.00">JKQTPMathImage</text>
</a>
</g>
</g>
<!-- Node2&#45;&gt;Node1 -->
<g id="edge1" class="edge">
<title>Node2&#45;&gt;Node1</title>
<path fill="none" stroke="#63b8ff" d="M3830.22,-422C3838.96,-422 3847.97,-422 3856.89,-422"/>
<polygon fill="#63b8ff" stroke="#63b8ff" points="3830.1,-418.5 3820.1,-422 3830.1,-425.5 3830.1,-418.5"/>
</g>
<!-- Node3 -->
<g id="node3" class="node">
<title>Node3</title>
<g id="a_node3"><a xlink:href="class_j_k_q_t_p_math_image_base.html" target="_top" xlink:title="base class to hold an image from an 2&#45;dimensional array of values">
<polygon fill="white" stroke="#666666" points="3444,-401.5 3294,-401.5 3294,-380.5 3444,-380.5 3444,-401.5"/>
<text text-anchor="middle" x="3369" y="-387.9" font-family="Helvetica,sans-Serif" font-size="12.00">JKQTPMathImageBase</text>
</a>
</g>
</g>
<!-- Node3&#45;&gt;Node2 -->
<g id="edge2" class="edge">
<title>Node3&#45;&gt;Node2</title>
<path fill="none" stroke="#63b8ff" d="M3454.65,-397.75C3528.46,-403.64 3633.66,-412.04 3698.93,-417.25"/>
<polygon fill="#63b8ff" stroke="#63b8ff" points="3454.69,-394.25 3444.45,-396.94 3454.14,-401.22 3454.69,-394.25"/>
</g>
<!-- Node4 -->
<g id="node4" class="node">
<title>Node4</title>
<g id="a_node4"><a xlink:href="class_j_k_q_t_p_image_base.html" target="_top" xlink:title="base class for plotting an image">
<polygon fill="white" stroke="#666666" points="2905.5,-397.5 2785.5,-397.5 2785.5,-376.5 2905.5,-376.5 2905.5,-397.5"/>
<text text-anchor="middle" x="2845.5" y="-383.9" font-family="Helvetica,sans-Serif" font-size="12.00">JKQTPImageBase</text>
</a>
</g>
</g>
<!-- Node4&#45;&gt;Node3 -->
<g id="edge3" class="edge">
<title>Node4&#45;&gt;Node3</title>
<path fill="none" stroke="#63b8ff" d="M2915.67,-387.53C3013.79,-388.28 3192.65,-389.66 3293.57,-390.43"/>
<polygon fill="#63b8ff" stroke="#63b8ff" points="2915.59,-384.03 2905.56,-387.45 2915.53,-391.03 2915.59,-384.03"/>
</g>
<!-- Node5 -->
<g id="node5" class="node">
<title>Node5</title>
<g id="a_node5"><a xlink:href="class_j_k_q_t_p_graph.html" target="_top" xlink:title="this virtual base class of the (data&#45;column based) graphs, which are part of a JKQTPlotter plot and w...">
<polygon fill="white" stroke="#666666" points="2678,-402.5 2589,-402.5 2589,-381.5 2678,-381.5 2678,-402.5"/>
<text text-anchor="middle" x="2633.5" y="-388.9" font-family="Helvetica,sans-Serif" font-size="12.00">JKQTPGraph</text>
</a>
</g>
</g>
<!-- Node5&#45;&gt;Node4 -->
<g id="edge4" class="edge">
<title>Node5&#45;&gt;Node4</title>
<path fill="none" stroke="#63b8ff" d="M2688.17,-390.72C2717.79,-390.02 2754.63,-389.14 2785.12,-388.41"/>
<polygon fill="#63b8ff" stroke="#63b8ff" points="2687.93,-387.23 2678.01,-390.96 2688.09,-394.22 2687.93,-387.23"/>
</g>
<!-- Node6 -->
<g id="node6" class="node">
<title>Node6</title>
<g id="a_node6"><a xlink:href="class_j_k_q_t_p_plot_element.html" target="_top" xlink:title="this virtual base class of every element, which is part of a JKQTPlotter plot and may appear in its k...">
<polygon fill="white" stroke="#666666" points="2483,-403.5 2358,-403.5 2358,-382.5 2483,-382.5 2483,-403.5"/>
<text text-anchor="middle" x="2420.5" y="-389.9" font-family="Helvetica,sans-Serif" font-size="12.00">JKQTPPlotElement</text>
</a>
</g>
</g>
<!-- Node6&#45;&gt;Node5 -->
<g id="edge5" class="edge">
<title>Node6&#45;&gt;Node5</title>
<path fill="none" stroke="#63b8ff" d="M2493.23,-392.66C2525,-392.51 2561.34,-392.34 2588.92,-392.21"/>
<polygon fill="#63b8ff" stroke="#63b8ff" points="2493.08,-389.16 2483.1,-392.71 2493.11,-396.16 2493.08,-389.16"/>
</g>
<!-- Node7 -->
<g id="node7" class="node">
<title>Node7</title>
<g id="a_node7"><a xlink:title=" ">
<polygon fill="white" stroke="#666666" points="1507.5,-443.5 1442.5,-443.5 1442.5,-422.5 1507.5,-422.5 1507.5,-443.5"/>
<text text-anchor="middle" x="1475" y="-429.9" font-family="Helvetica,sans-Serif" font-size="12.00">QObject</text>
</a>
</g>
</g>
<!-- Node7&#45;&gt;Node6 -->
<g id="edge6" class="edge">
<title>Node7&#45;&gt;Node6</title>
<path fill="none" stroke="#63b8ff" d="M1517.9,-424.72C1594.61,-409.82 1762.89,-378.34 1906,-360 2028.13,-344.35 2058.99,-341.34 2182,-336 2232.17,-333.82 2252.56,-309.14 2295,-336 2310.79,-345.99 2298.15,-362.65 2313,-374 2325.83,-383.81 2342.06,-389.17 2357.96,-391.97"/>
<polygon fill="#63b8ff" stroke="#63b8ff" points="1516.84,-421.36 1507.69,-426.71 1518.18,-428.23 1516.84,-421.36"/>
</g>
<!-- Node8 -->
<g id="node8" class="node">
<title>Node8</title>
<g id="a_node8"><a xlink:href="class_j_k_q_t_base_plotter.html" target="_top" xlink:title="base class for 2D plotter classes (used by the plotter widget JKQTPlotter)">
<polygon fill="white" stroke="#666666" points="2149.5,-437.5 2035.5,-437.5 2035.5,-416.5 2149.5,-416.5 2149.5,-437.5"/>
<text text-anchor="middle" x="2092.5" y="-423.9" font-family="Helvetica,sans-Serif" font-size="12.00">JKQTBasePlotter</text>
</a>
</g>
</g>
<!-- Node7&#45;&gt;Node8 -->
<g id="edge8" class="edge">
<title>Node7&#45;&gt;Node8</title>
<path fill="none" stroke="#63b8ff" d="M1517.97,-432.59C1625.96,-431.54 1913.46,-428.74 2035.48,-427.55"/>
<polygon fill="#63b8ff" stroke="#63b8ff" points="1517.76,-429.09 1507.8,-432.69 1517.83,-436.09 1517.76,-429.09"/>
</g>
<!-- Node21 -->
<g id="node21" class="node">
<title>Node21</title>
<g id="a_node21"><a xlink:href="class_j_k_q_t_math_text.html" target="_top" xlink:title="this class parses a mathematical markup string and can then draw the contained text/equation onto a Q...">
<polygon fill="white" stroke="#666666" points="1866,-483.5 1767,-483.5 1767,-462.5 1866,-462.5 1866,-483.5"/>
<text text-anchor="middle" x="1816.5" y="-469.9" font-family="Helvetica,sans-Serif" font-size="12.00">JKQTMathText</text>
</a>
</g>
</g>
<!-- Node7&#45;&gt;Node21 -->
<g id="edge27" class="edge">
<title>Node7&#45;&gt;Node21</title>
<path fill="none" stroke="#63b8ff" d="M1517.61,-437.9C1580.58,-445.32 1699.82,-459.37 1766.76,-467.26"/>
<polygon fill="#63b8ff" stroke="#63b8ff" points="1517.98,-434.42 1507.63,-436.73 1517.16,-441.37 1517.98,-434.42"/>
</g>
<!-- Node26 -->
<g id="node26" class="node">
<title>Node26</title>
<g id="a_node26"><a xlink:href="class_j_k_q_t_p_coordinate_axis.html" target="_top" xlink:title="this virtual class is the base for any type of coordinate axis, to be drawn by JKQTBasePlotter.">
<polygon fill="white" stroke="#666666" points="2491.5,-599.5 2349.5,-599.5 2349.5,-578.5 2491.5,-578.5 2491.5,-599.5"/>
<text text-anchor="middle" x="2420.5" y="-585.9" font-family="Helvetica,sans-Serif" font-size="12.00">JKQTPCoordinateAxis</text>
</a>
</g>
</g>
<!-- Node7&#45;&gt;Node26 -->
<g id="edge36" class="edge">
<title>Node7&#45;&gt;Node26</title>
<path fill="none" stroke="#63b8ff" d="M1517.56,-446.55C1539.07,-453.36 1565.83,-461.52 1590,-468 1779.85,-518.88 1826.39,-539.48 2021,-567 2135.23,-583.15 2269.44,-587.6 2349.32,-588.74"/>
<polygon fill="#63b8ff" stroke="#63b8ff" points="1518.35,-443.13 1507.76,-443.42 1516.23,-449.8 1518.35,-443.13"/>
</g>
<!-- Node8&#45;&gt;Node6 -->
<g id="edge7" class="edge">
<title>Node8&#45;&gt;Node6</title>
<path fill="none" stroke="#9a32cd" stroke-dasharray="5,2" d="M2159.69,-420.1C2217.66,-414.05 2301.23,-405.33 2357.81,-399.43"/>
<polygon fill="#9a32cd" stroke="#9a32cd" points="2159.12,-416.64 2149.54,-421.16 2159.85,-423.6 2159.12,-416.64"/>
<text text-anchor="middle" x="2238.5" y="-419.4" font-family="Helvetica,sans-Serif" font-size="12.00"> parent</text>
</g>
<!-- Node8&#45;&gt;Node8 -->
<g id="edge47" class="edge">
<title>Node8&#45;&gt;Node8</title>
<path fill="none" stroke="#9a32cd" stroke-dasharray="5,2" d="M2067.07,-447.07C2069.03,-451.91 2077.51,-455.5 2092.5,-455.5 2116.49,-455.5 2123.8,-446.31 2114.43,-437.52"/>
<polygon fill="#9a32cd" stroke="#9a32cd" points="2070.41,-448.12 2070.57,-437.52 2063.84,-445.71 2070.41,-448.12"/>
<text text-anchor="middle" x="2092.5" y="-471.9" font-family="Helvetica,sans-Serif" font-size="12.00"> masterPlotterX</text>
<text text-anchor="middle" x="2092.5" y="-458.9" font-family="Helvetica,sans-Serif" font-size="12.00">masterPlotterY</text>
</g>
<!-- Node23 -->
<g id="node23" class="node">
<title>Node23</title>
<g id="a_node23"><a xlink:href="class_j_k_q_t_p_graphs_model.html" target="_top" xlink:title="data model with all plots ina JKQTBasePlotter (+ allows to switch them visible/invisible)">
<polygon fill="white" stroke="#666666" points="2486,-364.5 2355,-364.5 2355,-343.5 2486,-343.5 2486,-364.5"/>
<text text-anchor="middle" x="2420.5" y="-350.9" font-family="Helvetica,sans-Serif" font-size="12.00">JKQTPGraphsModel</text>
</a>
</g>
</g>
<!-- Node8&#45;&gt;Node23 -->
<g id="edge33" class="edge">
<title>Node8&#45;&gt;Node23</title>
<path fill="none" stroke="#9a32cd" stroke-dasharray="5,2" d="M2108.1,-408.69C2124.01,-390.34 2151.34,-363.25 2182,-352 2243.17,-329.57 2319.3,-335.59 2368.62,-343.48"/>
<polygon fill="#9a32cd" stroke="#9a32cd" points="2105.36,-406.51 2101.62,-416.42 2110.72,-411 2105.36,-406.51"/>
<text text-anchor="middle" x="2238.5" y="-355.4" font-family="Helvetica,sans-Serif" font-size="12.00"> m_plotter</text>
</g>
<!-- Node8&#45;&gt;Node26 -->
<g id="edge37" class="edge">
<title>Node8&#45;&gt;Node26</title>
<path fill="none" stroke="#9a32cd" stroke-dasharray="5,2" d="M2114.88,-444.3C2130.12,-457.49 2150.26,-476.78 2164,-497 2175.42,-513.8 2166.25,-526.18 2182,-539 2221.74,-571.36 2244.84,-551.46 2295,-562 2320.32,-567.32 2348.51,-573.42 2371.64,-578.47"/>
<polygon fill="#9a32cd" stroke="#9a32cd" points="2116.89,-441.41 2106.99,-437.63 2112.37,-446.76 2116.89,-441.41"/>
<text text-anchor="middle" x="2238.5" y="-565.4" font-family="Helvetica,sans-Serif" font-size="12.00"> parent</text>
</g>
<!-- Node34 -->
<g id="node34" class="node">
<title>Node34</title>
<g id="a_node34"><a xlink:href="class_j_k_q_t_p_color_palette_style_and_tools_mixin.html" target="_top" xlink:title="if a class is derived from this class, it may use color bars">
<polygon fill="white" stroke="#666666" points="3276,-498 3098,-498 3098,-464 3276,-464 3276,-498"/>
<text text-anchor="start" x="3106" y="-484.4" font-family="Helvetica,sans-Serif" font-size="12.00">JKQTPColorPaletteStyleAnd</text>
<text text-anchor="middle" x="3187" y="-471.4" font-family="Helvetica,sans-Serif" font-size="12.00">ToolsMixin</text>
</a>
</g>
</g>
<!-- Node8&#45;&gt;Node34 -->
<g id="edge50" class="edge">
<title>Node8&#45;&gt;Node34</title>
<path fill="none" stroke="#9a32cd" stroke-dasharray="5,2" d="M2159.64,-432.95C2247.73,-440.34 2408.45,-452 2546,-452 2546,-452 2546,-452 2846.5,-452 2932.13,-452 3029.46,-461.27 3097.89,-469.33"/>
<polygon fill="#9a32cd" stroke="#9a32cd" points="2159.79,-429.45 2149.53,-432.09 2159.2,-436.42 2159.79,-429.45"/>
<text text-anchor="middle" x="2633.5" y="-455.4" font-family="Helvetica,sans-Serif" font-size="12.00"> cbParent</text>
</g>
<!-- Node9 -->
<g id="node9" class="node">
<title>Node9</title>
<g id="a_node9"><a xlink:href="class_j_k_q_t_base_plotter_style.html" target="_top" xlink:title="Support Class for JKQTBasePlotter, which summarizes all properties that define the visual styling of ...">
<polygon fill="white" stroke="#666666" points="1888,-285.5 1745,-285.5 1745,-264.5 1888,-264.5 1888,-285.5"/>
<text text-anchor="middle" x="1816.5" y="-271.9" font-family="Helvetica,sans-Serif" font-size="12.00">JKQTBasePlotterStyle</text>
</a>
</g>
</g>
<!-- Node9&#45;&gt;Node8 -->
<g id="edge9" class="edge">
<title>Node9&#45;&gt;Node8</title>
<path fill="none" stroke="#9a32cd" stroke-dasharray="5,2" d="M1845.75,-290.67C1901.58,-321.64 2024.72,-389.95 2072.25,-416.32"/>
<polygon fill="#9a32cd" stroke="#9a32cd" points="1847.21,-287.48 1836.77,-285.69 1843.81,-293.6 1847.21,-287.48"/>
<text text-anchor="middle" x="1954.5" y="-380.4" font-family="Helvetica,sans-Serif" font-size="12.00"> plotterStyle</text>
</g>
<!-- Node10 -->
<g id="node10" class="node">
<title>Node10</title>
<g id="a_node10"><a xlink:href="class_j_k_q_t_p_key_style.html" target="_top" xlink:title="Support Class for JKQTBasePlotter, which summarizes all properties that define the visual styling of ...">
<polygon fill="white" stroke="#666666" points="1527,-346.5 1423,-346.5 1423,-325.5 1527,-325.5 1527,-346.5"/>
<text text-anchor="middle" x="1475" y="-332.9" font-family="Helvetica,sans-Serif" font-size="12.00">JKQTPKeyStyle</text>
</a>
</g>
</g>
<!-- Node10&#45;&gt;Node9 -->
<g id="edge10" class="edge">
<title>Node10&#45;&gt;Node9</title>
<path fill="none" stroke="#9a32cd" stroke-dasharray="5,2" d="M1537.56,-329.97C1588.65,-324.36 1663.02,-314.78 1727,-301 1746.1,-296.89 1767.09,-290.79 1783.84,-285.53"/>
<polygon fill="#9a32cd" stroke="#9a32cd" points="1536.91,-326.52 1527.34,-331.08 1537.66,-333.48 1536.91,-326.52"/>
<text text-anchor="middle" x="1658.5" y="-326.4" font-family="Helvetica,sans-Serif" font-size="12.00"> keyStyle</text>
</g>
<!-- Node11 -->
<g id="node11" class="node">
<title>Node11</title>
<g id="a_node11"><a xlink:href="class_j_k_q_t_p_coordinate_axis_style.html" target="_top" xlink:title="Support Class for JKQTPCoordinateAxis, which summarizes all properties that define the visual styling...">
<polygon fill="white" stroke="#666666" points="1234,-300.5 1063,-300.5 1063,-279.5 1234,-279.5 1234,-300.5"/>
<text text-anchor="middle" x="1148.5" y="-286.9" font-family="Helvetica,sans-Serif" font-size="12.00">JKQTPCoordinateAxisStyle</text>
</a>
</g>
</g>
<!-- Node11&#45;&gt;Node9 -->
<g id="edge11" class="edge">
<title>Node11&#45;&gt;Node9</title>
<path fill="none" stroke="#9a32cd" stroke-dasharray="5,2" d="M1194.59,-276.59C1240.31,-263.74 1313.35,-245.26 1378,-238 1518.33,-222.23 1684.66,-248.66 1765.88,-264.47"/>
<polygon fill="#9a32cd" stroke="#9a32cd" points="1193.36,-273.3 1184.7,-279.4 1195.27,-280.03 1193.36,-273.3"/>
<text text-anchor="middle" x="1475" y="-254.4" font-family="Helvetica,sans-Serif" font-size="12.00"> xAxisStyle</text>
<text text-anchor="middle" x="1475" y="-241.4" font-family="Helvetica,sans-Serif" font-size="12.00">yAxisStyle</text>
</g>
<!-- Node13 -->
<g id="node13" class="node">
<title>Node13</title>
<g id="a_node13"><a xlink:href="class_j_k_q_t_p_colorbar_coordinate_axis_style.html" target="_top" xlink:title="Support Class for JKQTPCoordinateAxis, which summarizes all properties that define the visual styling...">
<polygon fill="white" stroke="#666666" points="1572,-307 1378,-307 1378,-273 1572,-273 1572,-307"/>
<text text-anchor="start" x="1386" y="-293.4" font-family="Helvetica,sans-Serif" font-size="12.00">JKQTPColorbarCoordinateAxis</text>
<text text-anchor="middle" x="1475" y="-280.4" font-family="Helvetica,sans-Serif" font-size="12.00">Style</text>
</a>
</g>
</g>
<!-- Node11&#45;&gt;Node13 -->
<g id="edge14" class="edge">
<title>Node11&#45;&gt;Node13</title>
<path fill="none" stroke="#63b8ff" d="M1244.56,-290C1286.54,-290 1335.81,-290 1377.91,-290"/>
<polygon fill="#63b8ff" stroke="#63b8ff" points="1244.33,-286.5 1234.33,-290 1244.33,-293.5 1244.33,-286.5"/>
</g>
<!-- Node11&#45;&gt;Node26 -->
<g id="edge38" class="edge">
<title>Node11&#45;&gt;Node26</title>
<path fill="none" stroke="#9a32cd" stroke-dasharray="5,2" d="M1156.87,-310.28C1185.2,-384.21 1294.53,-635 1474,-635 1474,-635 1474,-635 2093.5,-635 2194.38,-635 2311.12,-613.13 2373.9,-599.55"/>
<polygon fill="#9a32cd" stroke="#9a32cd" points="1160.07,-308.84 1153.28,-300.7 1153.52,-311.3 1160.07,-308.84"/>
<text text-anchor="middle" x="1816.5" y="-638.4" font-family="Helvetica,sans-Serif" font-size="12.00"> axisStyle</text>
</g>
<!-- Node12 -->
<g id="node12" class="node">
<title>Node12</title>
<g id="a_node12"><a xlink:href="class_j_k_q_t_p_grid_style.html" target="_top" xlink:title="Support Class for JKQTPCoordinateAxis, and summarizes all properties that define the visual styling o...">
<polygon fill="white" stroke="#666666" points="805.5,-300.5 698.5,-300.5 698.5,-279.5 805.5,-279.5 805.5,-300.5"/>
<text text-anchor="middle" x="752" y="-286.9" font-family="Helvetica,sans-Serif" font-size="12.00">JKQTPGridStyle</text>
</a>
</g>
</g>
<!-- Node12&#45;&gt;Node11 -->
<g id="edge12" class="edge">
<title>Node12&#45;&gt;Node11</title>
<path fill="none" stroke="#9a32cd" stroke-dasharray="5,2" d="M816.18,-290C883.03,-290 988.9,-290 1062.92,-290"/>
<polygon fill="#9a32cd" stroke="#9a32cd" points="815.79,-286.5 805.79,-290 815.79,-293.5 815.79,-286.5"/>
<text text-anchor="middle" x="948.5" y="-306.4" font-family="Helvetica,sans-Serif" font-size="12.00"> majorGridStyle</text>
<text text-anchor="middle" x="948.5" y="-293.4" font-family="Helvetica,sans-Serif" font-size="12.00">minorGridStyle</text>
</g>
<!-- Node13&#45;&gt;Node9 -->
<g id="edge13" class="edge">
<title>Node13&#45;&gt;Node9</title>
<path fill="none" stroke="#9a32cd" stroke-dasharray="5,2" d="M1582.21,-275.57C1584.83,-275.36 1587.43,-275.17 1590,-275 1641.76,-271.61 1700.35,-271.73 1744.83,-272.63"/>
<polygon fill="#9a32cd" stroke="#9a32cd" points="1581.67,-272.1 1572.01,-276.46 1582.27,-279.07 1581.67,-272.1"/>
<text text-anchor="middle" x="1658.5" y="-291.4" font-family="Helvetica,sans-Serif" font-size="12.00"> rightColorbarAxisStyle</text>
<text text-anchor="middle" x="1658.5" y="-278.4" font-family="Helvetica,sans-Serif" font-size="12.00">topColorbarAxisStyle</text>
</g>
<!-- Node14 -->
<g id="node14" class="node">
<title>Node14</title>
<g id="a_node14"><a xlink:href="class_j_k_q_t_graphs_base_style.html" target="_top" xlink:title="Support Class for JKQTBasePlotter, which summarizes all properties that define the visual styling of ...">
<polygon fill="white" stroke="#666666" points="1548,-139.5 1402,-139.5 1402,-118.5 1548,-118.5 1548,-139.5"/>
<text text-anchor="middle" x="1475" y="-125.9" font-family="Helvetica,sans-Serif" font-size="12.00">JKQTGraphsBaseStyle</text>
</a>
</g>
</g>
<!-- Node14&#45;&gt;Node9 -->
<g id="edge15" class="edge">
<title>Node14&#45;&gt;Node9</title>
<path fill="none" stroke="#9a32cd" stroke-dasharray="5,2" d="M1558.15,-133.57C1612.54,-140.78 1681.89,-158.61 1727,-202 1745.23,-219.54 1726.6,-238.64 1745,-256 1748.5,-259.31 1752.52,-262.05 1756.82,-264.32"/>
<polygon fill="#9a32cd" stroke="#9a32cd" points="1558.54,-130.09 1548.18,-132.34 1557.68,-137.04 1558.54,-130.09"/>
<text text-anchor="middle" x="1658.5" y="-205.4" font-family="Helvetica,sans-Serif" font-size="12.00"> graphsStyle</text>
</g>
<!-- Node15 -->
<g id="node15" class="node">
<title>Node15</title>
<g id="a_node15"><a xlink:href="class_j_k_q_t_graphs_specific_style_properties.html" target="_top" xlink:title="Support Class for JKQTBasePlotter, which summarizes all properties that define the visual styling of ...">
<polygon fill="white" stroke="#666666" points="623,-94.5 399,-94.5 399,-73.5 623,-73.5 623,-94.5"/>
<text text-anchor="middle" x="511" y="-80.9" font-family="Helvetica,sans-Serif" font-size="12.00">JKQTGraphsSpecificStyleProperties</text>
</a>
</g>
</g>
<!-- Node15&#45;&gt;Node14 -->
<g id="edge16" class="edge">
<title>Node15&#45;&gt;Node14</title>
<path fill="none" stroke="#9a32cd" stroke-dasharray="5,2" d="M617.18,-72.54C760.01,-59.33 1022.84,-43.33 1244,-76 1312.71,-86.15 1391.26,-106.09 1436.5,-118.41"/>
<polygon fill="#9a32cd" stroke="#9a32cd" points="616.74,-69.07 607.11,-73.49 617.39,-76.04 616.74,-69.07"/>
<text text-anchor="middle" x="948.5" y="-88.4" font-family="Helvetica,sans-Serif" font-size="12.00"> boxplotStyle</text>
<text text-anchor="middle" x="948.5" y="-75.4" font-family="Helvetica,sans-Serif" font-size="12.00">defaultGraphStyle</text>
<text text-anchor="middle" x="948.5" y="-62.4" font-family="Helvetica,sans-Serif" font-size="12.00">filledStyle</text>
</g>
<!-- Node17 -->
<g id="node17" class="node">
<title>Node17</title>
<g id="a_node17"><a xlink:href="class_j_k_q_t_barchart_specific_style_properties.html" target="_top" xlink:title="Support Class for JKQTBasePlotter, which summarizes all properties that define the visual styling of ...">
<polygon fill="white" stroke="#666666" points="1035,-34 862,-34 862,0 1035,0 1035,-34"/>
<text text-anchor="start" x="870" y="-20.4" font-family="Helvetica,sans-Serif" font-size="12.00">JKQTBarchartSpecificStyle</text>
<text text-anchor="middle" x="948.5" y="-7.4" font-family="Helvetica,sans-Serif" font-size="12.00">Properties</text>
</a>
</g>
</g>
<!-- Node15&#45;&gt;Node17 -->
<g id="edge19" class="edge">
<title>Node15&#45;&gt;Node17</title>
<path fill="none" stroke="#63b8ff" d="M548.84,-69.87C574.33,-60.7 609.26,-49.31 641,-43 714.72,-28.35 800.03,-21.95 861.9,-19.16"/>
<polygon fill="#63b8ff" stroke="#63b8ff" points="547.4,-66.67 539.21,-73.39 549.81,-73.24 547.4,-66.67"/>
</g>
<!-- Node18 -->
<g id="node18" class="node">
<title>Node18</title>
<g id="a_node18"><a xlink:href="class_j_k_q_t_impulse_specific_style_properties.html" target="_top" xlink:title="Support Class for JKQTBasePlotter, which summarizes all properties that define the visual styling of ...">
<polygon fill="white" stroke="#666666" points="1032.5,-213 864.5,-213 864.5,-179 1032.5,-179 1032.5,-213"/>
<text text-anchor="start" x="872.5" y="-199.4" font-family="Helvetica,sans-Serif" font-size="12.00">JKQTImpulseSpecificStyle</text>
<text text-anchor="middle" x="948.5" y="-186.4" font-family="Helvetica,sans-Serif" font-size="12.00">Properties</text>
</a>
</g>
</g>
<!-- Node15&#45;&gt;Node18 -->
<g id="edge21" class="edge">
<title>Node15&#45;&gt;Node18</title>
<path fill="none" stroke="#63b8ff" d="M547.35,-98.25C577.05,-109.85 620.81,-126.02 660,-137 727.95,-156.04 806.53,-171.74 864.35,-182.15"/>
<polygon fill="#63b8ff" stroke="#63b8ff" points="548.43,-94.92 537.84,-94.51 545.86,-101.43 548.43,-94.92"/>
</g>
<!-- Node19 -->
<g id="node19" class="node">
<title>Node19</title>
<g id="a_node19"><a xlink:href="class_j_k_q_t_geometric_specific_style_properties.html" target="_top" xlink:title="Support Class for JKQTBasePlotter, which summarizes all properties that define the visual styling of ...">
<polygon fill="white" stroke="#666666" points="844,-128 660,-128 660,-94 844,-94 844,-128"/>
<text text-anchor="start" x="668" y="-114.4" font-family="Helvetica,sans-Serif" font-size="12.00">JKQTGeometricSpecificStyle</text>
<text text-anchor="middle" x="752" y="-101.4" font-family="Helvetica,sans-Serif" font-size="12.00">Properties</text>
</a>
</g>
</g>
<!-- Node15&#45;&gt;Node19 -->
<g id="edge23" class="edge">
<title>Node15&#45;&gt;Node19</title>
<path fill="none" stroke="#63b8ff" d="M615.27,-95.67C630.06,-97.34 645.19,-99.05 659.74,-100.69"/>
<polygon fill="#63b8ff" stroke="#63b8ff" points="615.42,-92.16 605.09,-94.52 614.63,-99.12 615.42,-92.16"/>
</g>
<!-- Node16 -->
<g id="node16" class="node">
<title>Node16</title>
<g id="a_node16"><a xlink:href="struct_j_k_q_t_p_color_derivation_mode.html" target="_top" xlink:title="Specifies how a fill&#45;color is derived from a given color.">
<polygon fill="white" stroke="#666666" points="179,-94.5 0,-94.5 0,-73.5 179,-73.5 179,-94.5"/>
<text text-anchor="middle" x="89.5" y="-80.9" font-family="Helvetica,sans-Serif" font-size="12.00">JKQTPColorDerivationMode</text>
</a>
</g>
</g>
<!-- Node16&#45;&gt;Node15 -->
<g id="edge17" class="edge">
<title>Node16&#45;&gt;Node15</title>
<path fill="none" stroke="#9a32cd" stroke-dasharray="5,2" d="M189.53,-84C252.41,-84 333.9,-84 398.97,-84"/>
<polygon fill="#9a32cd" stroke="#9a32cd" points="189.21,-80.5 179.21,-84 189.21,-87.5 189.21,-80.5"/>
<text text-anchor="middle" x="289" y="-139.4" font-family="Helvetica,sans-Serif" font-size="12.00"> errorColorDerivationMode</text>
<text text-anchor="middle" x="289" y="-126.4" font-family="Helvetica,sans-Serif" font-size="12.00">errorFillColorDerivationMode</text>
<text text-anchor="middle" x="289" y="-113.4" font-family="Helvetica,sans-Serif" font-size="12.00">fillColorDerivationMode</text>
<text text-anchor="middle" x="289" y="-100.4" font-family="Helvetica,sans-Serif" font-size="12.00">graphColorDerivationMode</text>
<text text-anchor="middle" x="289" y="-87.4" font-family="Helvetica,sans-Serif" font-size="12.00">symbolFillColorDerivationMode</text>
</g>
<!-- Node17&#45;&gt;Node14 -->
<g id="edge18" class="edge">
<title>Node17&#45;&gt;Node14</title>
<path fill="none" stroke="#9a32cd" stroke-dasharray="5,2" d="M1045.23,-6.66C1130.85,-1.18 1258.16,-2.45 1360,-43 1403.76,-60.43 1445.36,-99.36 1463.9,-118.27"/>
<polygon fill="#9a32cd" stroke="#9a32cd" points="1044.74,-3.19 1035,-7.37 1045.22,-10.17 1044.74,-3.19"/>
<text text-anchor="middle" x="1148.5" y="-15.4" font-family="Helvetica,sans-Serif" font-size="12.00"> barchartStyle</text>
</g>
<!-- Node18&#45;&gt;Node14 -->
<g id="edge20" class="edge">
<title>Node18&#45;&gt;Node14</title>
<path fill="none" stroke="#9a32cd" stroke-dasharray="5,2" d="M1042.55,-197.04C1126.38,-196.28 1252.58,-190.95 1360,-169 1392.06,-162.45 1427.38,-149.03 1450.08,-139.54"/>
<polygon fill="#9a32cd" stroke="#9a32cd" points="1042.52,-193.54 1032.54,-197.11 1042.57,-200.54 1042.52,-193.54"/>
<text text-anchor="middle" x="1148.5" y="-199.4" font-family="Helvetica,sans-Serif" font-size="12.00"> impulseStyle</text>
</g>
<!-- Node19&#45;&gt;Node14 -->
<g id="edge22" class="edge">
<title>Node19&#45;&gt;Node14</title>
<path fill="none" stroke="#9a32cd" stroke-dasharray="5,2" d="M854.32,-120.47C856.91,-120.66 859.47,-120.83 862,-121 1082.97,-135.55 1138.69,-144.76 1360,-137 1373.58,-136.52 1388.06,-135.73 1401.98,-134.82"/>
<polygon fill="#9a32cd" stroke="#9a32cd" points="854.5,-116.98 844.26,-119.72 853.98,-123.96 854.5,-116.98"/>
<text text-anchor="middle" x="1148.5" y="-143.4" font-family="Helvetica,sans-Serif" font-size="12.00"> geometricStyle</text>
</g>
<!-- Node20 -->
<g id="node20" class="node">
<title>Node20</title>
<g id="a_node20"><a xlink:href="class_j_k_q_t_annotations_specific_style_properties.html" target="_top" xlink:title="Support Class for JKQTBasePlotter, which summarizes all properties that define the visual styling of ...">
<polygon fill="white" stroke="#666666" points="1244,-119 1053,-119 1053,-85 1244,-85 1244,-119"/>
<text text-anchor="start" x="1061" y="-105.4" font-family="Helvetica,sans-Serif" font-size="12.00">JKQTAnnotationsSpecificStyle</text>
<text text-anchor="middle" x="1148.5" y="-92.4" font-family="Helvetica,sans-Serif" font-size="12.00">Properties</text>
</a>
</g>
</g>
<!-- Node19&#45;&gt;Node20 -->
<g id="edge25" class="edge">
<title>Node19&#45;&gt;Node20</title>
<path fill="none" stroke="#63b8ff" d="M854.07,-108.69C915.27,-107.3 992.83,-105.53 1052.84,-104.16"/>
<polygon fill="#63b8ff" stroke="#63b8ff" points="853.92,-105.2 844,-108.92 854.08,-112.19 853.92,-105.2"/>
</g>
<!-- Node20&#45;&gt;Node14 -->
<g id="edge24" class="edge">
<title>Node20&#45;&gt;Node14</title>
<path fill="none" stroke="#9a32cd" stroke-dasharray="5,2" d="M1254.39,-110.73C1302.57,-114.74 1358.51,-119.39 1401.86,-123"/>
<polygon fill="#9a32cd" stroke="#9a32cd" points="1254.49,-107.22 1244.23,-109.88 1253.91,-114.2 1254.49,-107.22"/>
<text text-anchor="middle" x="1311" y="-123.4" font-family="Helvetica,sans-Serif" font-size="12.00"> annotationStyle</text>
</g>
<!-- Node21&#45;&gt;Node8 -->
<g id="edge26" class="edge">
<title>Node21&#45;&gt;Node8</title>
<path fill="none" stroke="#9a32cd" stroke-dasharray="5,2" d="M1876.21,-463.14C1923.26,-455.24 1988.86,-444.23 2035.25,-436.44"/>
<polygon fill="#9a32cd" stroke="#9a32cd" points="1875.45,-459.72 1866.17,-464.83 1876.61,-466.63 1875.45,-459.72"/>
<text text-anchor="middle" x="1954.5" y="-461.4" font-family="Helvetica,sans-Serif" font-size="12.00"> mathText</text>
</g>
<!-- Node22 -->
<g id="node22" class="node">
<title>Node22</title>
<g id="a_node22"><a xlink:href="class_j_k_q_t_math_text_node.html" target="_top" xlink:title="subclass representing one node in the syntax tree">
<polygon fill="white" stroke="#666666" points="2158,-526.5 2027,-526.5 2027,-505.5 2158,-505.5 2158,-526.5"/>
<text text-anchor="middle" x="2092.5" y="-512.9" font-family="Helvetica,sans-Serif" font-size="12.00">JKQTMathTextNode</text>
</a>
</g>
</g>
<!-- Node21&#45;&gt;Node22 -->
<g id="edge29" class="edge">
<title>Node21&#45;&gt;Node22</title>
<path fill="none" stroke="#9a32cd" stroke-dasharray="5,2" d="M1853.58,-487.01C1869.43,-492.59 1888.4,-498.51 1906,-502 1945.6,-509.86 1990.75,-513.38 2026.6,-514.93"/>
<polygon fill="#9a32cd" stroke="#9a32cd" points="1854.76,-483.71 1844.16,-483.61 1852.38,-490.3 1854.76,-483.71"/>
<text text-anchor="middle" x="1954.5" y="-516.4" font-family="Helvetica,sans-Serif" font-size="12.00"> parentMathText</text>
</g>
<!-- Node22&#45;&gt;Node21 -->
<g id="edge28" class="edge">
<title>Node22&#45;&gt;Node21</title>
<path fill="none" stroke="#9a32cd" stroke-dasharray="5,2" d="M2052.74,-502.24C2037.42,-497.32 2019.56,-492.2 2003,-489 1957.14,-480.13 1903.95,-476.17 1866.32,-474.41"/>
<polygon fill="#9a32cd" stroke="#9a32cd" points="2051.8,-505.62 2062.39,-505.43 2053.99,-498.97 2051.8,-505.62"/>
<text text-anchor="middle" x="1954.5" y="-492.4" font-family="Helvetica,sans-Serif" font-size="12.00"> parsedNode</text>
</g>
<!-- Node22&#45;&gt;Node22 -->
<g id="edge30" class="edge">
<title>Node22&#45;&gt;Node22</title>
<path fill="none" stroke="#9a32cd" stroke-dasharray="5,2" d="M2067.07,-536.07C2069.03,-540.91 2077.51,-544.5 2092.5,-544.5 2116.49,-544.5 2123.8,-535.31 2114.43,-526.52"/>
<polygon fill="#9a32cd" stroke="#9a32cd" points="2070.41,-537.12 2070.57,-526.52 2063.84,-534.71 2070.41,-537.12"/>
<text text-anchor="middle" x="2092.5" y="-547.9" font-family="Helvetica,sans-Serif" font-size="12.00"> parentNode</text>
</g>
<!-- Node23&#45;&gt;Node8 -->
<g id="edge31" class="edge">
<title>Node23&#45;&gt;Node8</title>
<path fill="none" stroke="#9a32cd" stroke-dasharray="5,2" d="M2344.6,-362.89C2286.76,-370.16 2211.74,-380.58 2182,-389 2157.87,-395.83 2131.63,-407.71 2114.04,-416.37"/>
<polygon fill="#9a32cd" stroke="#9a32cd" points="2345.33,-366.33 2354.82,-361.62 2344.46,-359.38 2345.33,-366.33"/>
<text text-anchor="middle" x="2238.5" y="-392.4" font-family="Helvetica,sans-Serif" font-size="12.00"> m_plotsModel</text>
</g>
<!-- Node24 -->
<g id="node24" class="node">
<title>Node24</title>
<g id="a_node24"><a xlink:title=" ">
<polygon fill="white" stroke="#666666" points="2164,-307.5 2021,-307.5 2021,-286.5 2164,-286.5 2164,-307.5"/>
<text text-anchor="middle" x="2092.5" y="-293.9" font-family="Helvetica,sans-Serif" font-size="12.00">QAbstractTableModel</text>
</a>
</g>
</g>
<!-- Node24&#45;&gt;Node23 -->
<g id="edge32" class="edge">
<title>Node24&#45;&gt;Node23</title>
<path fill="none" stroke="#63b8ff" d="M2174.31,-297.77C2211.39,-299.35 2255.74,-303 2295,-311 2330.85,-318.3 2370.52,-333.27 2395.23,-343.48"/>
<polygon fill="#63b8ff" stroke="#63b8ff" points="2174.18,-294.26 2164.05,-297.37 2173.91,-301.25 2174.18,-294.26"/>
</g>
<!-- Node25 -->
<g id="node25" class="node">
<title>Node25</title>
<g id="a_node25"><a xlink:href="class_j_k_q_t_p_horizontal_axis.html" target="_top" xlink:title="implements a horizontal axis, based on JKQTPCoordinateAxis (for most of documentation: see JKQTPCoord...">
<polygon fill="white" stroke="#666666" points="2702,-558.5 2565,-558.5 2565,-537.5 2702,-537.5 2702,-558.5"/>
<text text-anchor="middle" x="2633.5" y="-544.9" font-family="Helvetica,sans-Serif" font-size="12.00">JKQTPHorizontalAxis</text>
</a>
</g>
</g>
<!-- Node25&#45;&gt;Node8 -->
<g id="edge34" class="edge">
<title>Node25&#45;&gt;Node8</title>
<path fill="none" stroke="#9a32cd" stroke-dasharray="5,2" d="M2554.59,-551.99C2461.78,-553.77 2303.96,-547.23 2182,-493 2150.65,-479.06 2119.87,-452.35 2104.19,-437.54"/>
<polygon fill="#9a32cd" stroke="#9a32cd" points="2554.83,-555.49 2564.75,-551.76 2554.67,-548.49 2554.83,-555.49"/>
<text text-anchor="middle" x="2420.5" y="-555.4" font-family="Helvetica,sans-Serif" font-size="12.00"> xAxis</text>
</g>
<!-- Node36 -->
<g id="node36" class="node">
<title>Node36</title>
<g id="a_node36"><a xlink:href="class_j_k_q_t_p_horizontal_independent_axis.html" target="_top" xlink:title="implements a position&#45;indipendent horizontal axis, based on JKQTPCoordinateAxis (for most of document...">
<polygon fill="white" stroke="#666666" points="2952,-558.5 2739,-558.5 2739,-537.5 2952,-537.5 2952,-558.5"/>
<text text-anchor="middle" x="2845.5" y="-544.9" font-family="Helvetica,sans-Serif" font-size="12.00">JKQTPHorizontalIndependentAxis</text>
</a>
</g>
</g>
<!-- Node25&#45;&gt;Node36 -->
<g id="edge54" class="edge">
<title>Node25&#45;&gt;Node36</title>
<path fill="none" stroke="#63b8ff" d="M2712.17,-548C2720.87,-548 2729.83,-548 2738.8,-548"/>
<polygon fill="#63b8ff" stroke="#63b8ff" points="2712.1,-544.5 2702.1,-548 2712.1,-551.5 2712.1,-544.5"/>
</g>
<!-- Node26&#45;&gt;Node25 -->
<g id="edge35" class="edge">
<title>Node26&#45;&gt;Node25</title>
<path fill="none" stroke="#63b8ff" d="M2485.4,-576.58C2515.03,-570.83 2549.87,-564.06 2578.21,-558.55"/>
<polygon fill="#63b8ff" stroke="#63b8ff" points="2484.71,-573.15 2475.56,-578.49 2486.05,-580.02 2484.71,-573.15"/>
</g>
<!-- Node27 -->
<g id="node27" class="node">
<title>Node27</title>
<g id="a_node27"><a xlink:href="class_j_k_q_t_p_vertical_axis.html" target="_top" xlink:title="implements a vertical axis, based on JKQTPCoordinateAxis (for most of documentation: see JKQTPCoordin...">
<polygon fill="white" stroke="#666666" points="2694.5,-508.5 2572.5,-508.5 2572.5,-487.5 2694.5,-487.5 2694.5,-508.5"/>
<text text-anchor="middle" x="2633.5" y="-494.9" font-family="Helvetica,sans-Serif" font-size="12.00">JKQTPVerticalAxis</text>
</a>
</g>
</g>
<!-- Node26&#45;&gt;Node27 -->
<g id="edge40" class="edge">
<title>Node26&#45;&gt;Node27</title>
<path fill="none" stroke="#63b8ff" d="M2499.97,-575.62C2509.7,-572.51 2519.28,-568.69 2528,-564 2547.93,-553.27 2546.24,-541.67 2565,-529 2577.08,-520.84 2591.64,-513.85 2604.15,-508.58"/>
<polygon fill="#63b8ff" stroke="#63b8ff" points="2498.81,-572.31 2490.21,-578.49 2500.79,-579.03 2498.81,-572.31"/>
</g>
<!-- Node27&#45;&gt;Node8 -->
<g id="edge39" class="edge">
<title>Node27&#45;&gt;Node8</title>
<path fill="none" stroke="#9a32cd" stroke-dasharray="5,2" d="M2562.28,-501.57C2472.54,-504.31 2313.12,-503 2182,-469 2155.82,-462.21 2128.02,-447.66 2110.71,-437.6"/>
<polygon fill="#9a32cd" stroke="#9a32cd" points="2562.46,-505.07 2572.34,-501.24 2562.23,-498.07 2562.46,-505.07"/>
<text text-anchor="middle" x="2420.5" y="-505.4" font-family="Helvetica,sans-Serif" font-size="12.00"> yAxis</text>
</g>
<!-- Node35 -->
<g id="node35" class="node">
<title>Node35</title>
<g id="a_node35"><a xlink:href="class_j_k_q_t_p_vertical_independent_axis.html" target="_top" xlink:title="implements a position&#45;indipendent vertical axis, based on JKQTPCoordinateAxis (for most of documentat...">
<polygon fill="white" stroke="#666666" points="2944,-501.5 2747,-501.5 2747,-480.5 2944,-480.5 2944,-501.5"/>
<text text-anchor="middle" x="2845.5" y="-487.9" font-family="Helvetica,sans-Serif" font-size="12.00">JKQTPVerticalIndependentAxis</text>
</a>
</g>
</g>
<!-- Node27&#45;&gt;Node35 -->
<g id="edge52" class="edge">
<title>Node27&#45;&gt;Node35</title>
<path fill="none" stroke="#63b8ff" d="M2704.78,-495.66C2718.22,-495.21 2732.52,-494.73 2746.65,-494.26"/>
<polygon fill="#63b8ff" stroke="#63b8ff" points="2704.56,-492.16 2694.68,-495.99 2704.79,-499.16 2704.56,-492.16"/>
</g>
<!-- Node28 -->
<g id="node28" class="node">
<title>Node28</title>
<g id="a_node28"><a xlink:href="class_j_k_q_t_p_datastore.html" target="_top" xlink:title="This class manages data columns (with entries of type double ), used by JKQTPlotter/JKQTBasePlotter t...">
<polygon fill="white" stroke="#666666" points="1872,-246.5 1761,-246.5 1761,-225.5 1872,-225.5 1872,-246.5"/>
<text text-anchor="middle" x="1816.5" y="-232.9" font-family="Helvetica,sans-Serif" font-size="12.00">JKQTPDatastore</text>
</a>
</g>
</g>
<!-- Node28&#45;&gt;Node8 -->
<g id="edge41" class="edge">
<title>Node28&#45;&gt;Node8</title>
<path fill="none" stroke="#9a32cd" stroke-dasharray="5,2" d="M1878.76,-249.18C1917.48,-259.85 1966.84,-277.97 2003,-307 2042.97,-339.08 2074.05,-393.32 2086.09,-416.25"/>
<polygon fill="#9a32cd" stroke="#9a32cd" points="1879.22,-245.68 1868.66,-246.5 1877.43,-252.45 1879.22,-245.68"/>
<text text-anchor="middle" x="1954.5" y="-310.4" font-family="Helvetica,sans-Serif" font-size="12.00"> datastore</text>
</g>
<!-- Node30 -->
<g id="node30" class="node">
<title>Node30</title>
<g id="a_node30"><a xlink:href="class_j_k_q_t_p_column.html" target="_top" xlink:title="internally stores information about one data column. See JKQTPDatastore for more information.">
<polygon fill="white" stroke="#666666" points="2141.5,-251.5 2043.5,-251.5 2043.5,-230.5 2141.5,-230.5 2141.5,-251.5"/>
<text text-anchor="middle" x="2092.5" y="-237.9" font-family="Helvetica,sans-Serif" font-size="12.00">JKQTPColumn</text>
</a>
</g>
</g>
<!-- Node28&#45;&gt;Node30 -->
<g id="edge44" class="edge">
<title>Node28&#45;&gt;Node30</title>
<path fill="none" stroke="#9a32cd" stroke-dasharray="5,2" d="M1882.54,-237.19C1931.87,-238.09 1998.58,-239.3 2043.22,-240.12"/>
<polygon fill="#9a32cd" stroke="#9a32cd" points="1882.35,-233.68 1872.29,-237 1882.22,-240.68 1882.35,-233.68"/>
<text text-anchor="middle" x="1954.5" y="-242.4" font-family="Helvetica,sans-Serif" font-size="12.00"> datastore</text>
</g>
<!-- Node29 -->
<g id="node29" class="node">
<title>Node29</title>
<g id="a_node29"><a xlink:title=" ">
<polygon fill="white" stroke="#666666" points="2528,-209.5 2313,-209.5 2313,-188.5 2528,-188.5 2528,-209.5"/>
<text text-anchor="middle" x="2420.5" y="-195.9" font-family="Helvetica,sans-Serif" font-size="12.00">std::unique_ptr&lt; JKQTPColumn &gt;</text>
</a>
</g>
</g>
<!-- Node29&#45;&gt;Node28 -->
<g id="edge42" class="edge">
<title>Node29&#45;&gt;Node28</title>
<path fill="none" stroke="#9a32cd" stroke-dasharray="5,2" d="M2302.74,-198.65C2223.21,-199.22 2115.61,-201.56 2021,-209 1970.37,-212.98 1913.05,-220.9 1872.18,-227.13"/>
<polygon fill="#9a32cd" stroke="#9a32cd" points="2302.8,-202.15 2312.78,-198.59 2302.76,-195.15 2302.8,-202.15"/>
<text text-anchor="middle" x="2092.5" y="-212.4" font-family="Helvetica,sans-Serif" font-size="12.00"> m_invalidColumn</text>
</g>
<!-- Node30&#45;&gt;Node29 -->
<g id="edge43" class="edge">
<title>Node30&#45;&gt;Node29</title>
<path fill="none" stroke="#9a32cd" stroke-dasharray="5,2" d="M2151.64,-233.51C2203.51,-226.83 2280.02,-216.97 2338,-209.5"/>
<polygon fill="#9a32cd" stroke="#9a32cd" points="2151.07,-230.05 2141.6,-234.8 2151.97,-237 2151.07,-230.05"/>
<text text-anchor="middle" x="2238.5" y="-231.4" font-family="Helvetica,sans-Serif" font-size="12.00"> ptr</text>
</g>
<!-- Node31 -->
<g id="node31" class="node">
<title>Node31</title>
<g id="a_node31"><a xlink:title=" ">
<polygon fill="white" stroke="#666666" points="2162.5,-162.5 2022.5,-162.5 2022.5,-141.5 2162.5,-141.5 2162.5,-162.5"/>
<text text-anchor="middle" x="2092.5" y="-148.9" font-family="Helvetica,sans-Serif" font-size="12.00">std::unique_ptr&lt; T &gt;</text>
</a>
</g>
</g>
<!-- Node31&#45;&gt;Node29 -->
<g id="edge45" class="edge">
<title>Node31&#45;&gt;Node29</title>
<path fill="none" stroke="orange" stroke-dasharray="5,2" d="M2173.04,-157.78C2210.21,-161.02 2255.01,-165.7 2295,-172 2322.42,-176.32 2352.88,-182.89 2376.8,-188.47"/>
<polygon fill="orange" stroke="orange" points="2173.02,-154.26 2162.76,-156.9 2172.43,-161.24 2173.02,-154.26"/>
<text text-anchor="middle" x="2238.5" y="-175.4" font-family="Helvetica,sans-Serif" font-size="12.00"> &lt; JKQTPColumn &gt;</text>
</g>
<!-- Node32 -->
<g id="node32" class="node">
<title>Node32</title>
<g id="a_node32"><a xlink:title=" ">
<polygon fill="white" stroke="#666666" points="1831,-162.5 1802,-162.5 1802,-141.5 1831,-141.5 1831,-162.5"/>
<text text-anchor="middle" x="1816.5" y="-148.9" font-family="Helvetica,sans-Serif" font-size="12.00">T</text>
</a>
</g>
</g>
<!-- Node32&#45;&gt;Node31 -->
<g id="edge46" class="edge">
<title>Node32&#45;&gt;Node31</title>
<path fill="none" stroke="#9a32cd" stroke-dasharray="5,2" d="M1841.17,-152C1881.06,-152 1963.14,-152 2022.46,-152"/>
<polygon fill="#9a32cd" stroke="#9a32cd" points="1841.09,-148.5 1831.09,-152 1841.09,-155.5 1841.09,-148.5"/>
<text text-anchor="middle" x="1954.5" y="-155.4" font-family="Helvetica,sans-Serif" font-size="12.00"> ptr</text>
</g>
<!-- Node33 -->
<g id="node33" class="node">
<title>Node33</title>
<g id="a_node33"><a xlink:href="class_j_k_q_t_p_color_palette_with_modifier_style_and_tools_mixin.html" target="_top" xlink:title="if a class is derived from this class, it may use color bars that have 2 axes (one &quot;data&quot;/color axis ...">
<polygon fill="white" stroke="#666666" points="3662,-479 3462,-479 3462,-445 3662,-445 3662,-479"/>
<text text-anchor="start" x="3470" y="-465.4" font-family="Helvetica,sans-Serif" font-size="12.00">JKQTPColorPaletteWithModifier</text>
<text text-anchor="middle" x="3562" y="-452.4" font-family="Helvetica,sans-Serif" font-size="12.00">StyleAndToolsMixin</text>
</a>
</g>
</g>
<!-- Node33&#45;&gt;Node2 -->
<g id="edge48" class="edge">
<title>Node33&#45;&gt;Node2</title>
<path fill="none" stroke="#63b8ff" d="M3656.43,-442.88C3673.87,-439.31 3691.5,-435.71 3707.09,-432.52"/>
<polygon fill="#63b8ff" stroke="#63b8ff" points="3655.29,-439.54 3646.19,-444.98 3656.69,-446.4 3655.29,-439.54"/>
</g>
<!-- Node34&#45;&gt;Node33 -->
<g id="edge49" class="edge">
<title>Node34&#45;&gt;Node33</title>
<path fill="none" stroke="#63b8ff" d="M3286.68,-475.97C3340.75,-473.22 3407.58,-469.82 3461.74,-467.06"/>
<polygon fill="#63b8ff" stroke="#63b8ff" points="3286.2,-472.49 3276.4,-476.5 3286.56,-479.48 3286.2,-472.49"/>
</g>
<!-- Node35&#45;&gt;Node33 -->
<g id="edge55" class="edge">
<title>Node35&#45;&gt;Node33</title>
<path fill="none" stroke="#9a32cd" stroke-dasharray="5,2" d="M2897.54,-478.06C2948.06,-465.96 3027.79,-448.78 3098,-442 3223.13,-429.92 3368,-440.04 3461.89,-449.76"/>
<polygon fill="#9a32cd" stroke="#9a32cd" points="2896.43,-474.72 2887.53,-480.48 2898.07,-481.53 2896.43,-474.72"/>
<text text-anchor="middle" x="3187" y="-445.4" font-family="Helvetica,sans-Serif" font-size="12.00"> modifierColorBarTopAxis</text>
</g>
<!-- Node35&#45;&gt;Node34 -->
<g id="edge51" class="edge">
<title>Node35&#45;&gt;Node34</title>
<path fill="none" stroke="#9a32cd" stroke-dasharray="5,2" d="M2954.42,-486.52C2959.69,-486.34 2964.9,-486.16 2970,-486 3012.08,-484.66 3058.79,-483.54 3097.98,-482.69"/>
<polygon fill="#9a32cd" stroke="#9a32cd" points="2954.11,-483.03 2944.24,-486.89 2954.36,-490.03 2954.11,-483.03"/>
<text text-anchor="middle" x="3025" y="-489.4" font-family="Helvetica,sans-Serif" font-size="12.00"> colorBarRightAxis</text>
</g>
<!-- Node36&#45;&gt;Node33 -->
<g id="edge56" class="edge">
<title>Node36&#45;&gt;Node33</title>
<path fill="none" stroke="#9a32cd" stroke-dasharray="5,2" d="M2962.59,-543.39C3000.1,-541.41 3041.86,-538.68 3080,-535 3242.54,-519.34 3282.93,-511.87 3444,-485 3454.82,-483.19 3466.18,-481.15 3477.38,-479.04"/>
<polygon fill="#9a32cd" stroke="#9a32cd" points="2961.93,-539.92 2952.12,-543.93 2962.29,-546.91 2961.93,-539.92"/>
<text text-anchor="middle" x="3187" y="-535.4" font-family="Helvetica,sans-Serif" font-size="12.00"> modifierColorBarRightAxis</text>
</g>
<!-- Node36&#45;&gt;Node34 -->
<g id="edge53" class="edge">
<title>Node36&#45;&gt;Node34</title>
<path fill="none" stroke="#9a32cd" stroke-dasharray="5,2" d="M2905.25,-535.38C2925.72,-531.05 2948.86,-526.23 2970,-522 3012.01,-513.59 3058.71,-504.67 3097.91,-497.31"/>
<polygon fill="#9a32cd" stroke="#9a32cd" points="2904.49,-531.97 2895.44,-537.46 2905.94,-538.81 2904.49,-531.97"/>
<text text-anchor="middle" x="3025" y="-525.4" font-family="Helvetica,sans-Serif" font-size="12.00"> colorBarTopAxis</text>
</g>
</g>
</svg>
