<?xml version="1.0" encoding="UTF-8" standalone="no"?>
<!DOCTYPE svg PUBLIC "-//W3C//DTD SVG 1.1//EN"
 "http://www.w3.org/Graphics/SVG/1.1/DTD/svg11.dtd">
<!-- Generated by graphviz version 2.43.0 (0)
 -->
<!-- Title: JKQTPHorizontalIndependentAxis Pages: 1 -->
<!--zoomable 544 -->
<svg id="main" version="1.1" xmlns="http://www.w3.org/2000/svg" xmlns:xlink="http://www.w3.org/1999/xlink" xml:space="preserve" onload="init(evt)">
<style type="text/css"><![CDATA[
.edge:hover path { stroke: red; }
.edge:hover polygon { stroke: red; fill: red; }
]]></style>
<script type="text/javascript"><![CDATA[
var edges = document.getElementsByTagName('g');
if (edges && edges.length) {
  for (var i=0;i<edges.length;i++) {
    if (edges[i].id.substr(0,4)=='edge') {
      edges[i].setAttribute('class','edge');
    }
  }
}
]]></script>
        <defs>
                <circle id="rim" cx="0" cy="0" r="7"/>
                <circle id="rim2" cx="0" cy="0" r="3.5"/>
                <g id="zoomPlus">
                        <use xlink:href="#rim" fill="#404040">
                                <set attributeName="fill" to="#808080" begin="zoomplus.mouseover" end="zoomplus.mouseout"/>
                        </use>
                        <path d="M-4,0h8M0,-4v8" fill="none" stroke="white" stroke-width="1.5" pointer-events="none"/>
                </g>
                <g id="zoomMin">
                        <use xlink:href="#rim" fill="#404040">
                                <set attributeName="fill" to="#808080" begin="zoomminus.mouseover" end="zoomminus.mouseout"/>
                        </use>
                        <path d="M-4,0h8" fill="none" stroke="white" stroke-width="1.5" pointer-events="none"/>
                </g>
                <g id="dirArrow">
                        <path fill="none" stroke="white" stroke-width="1.5" d="M0,-3.0v7 M-2.5,-0.5L0,-3.0L2.5,-0.5"/>
                </g>
               <g id="resetDef">
                       <use xlink:href="#rim2" fill="#404040">
                               <set attributeName="fill" to="#808080" begin="reset.mouseover" end="reset.mouseout"/>
                       </use>
               </g>
        </defs>

<script type="text/javascript">
var viewWidth = 2648;
var viewHeight = 544;
var sectionId = 'dynsection-1';
</script>
<script xlink:href="svgpan.js"/>
<svg id="graph" class="graph">
<g id="viewport">
<title>JKQTPHorizontalIndependentAxis</title>
<!-- Node1 -->
<g id="node1" class="node">
<title>Node1</title>
<g id="a_node1"><a xlink:title="implements a position&#45;indipendent horizontal axis, based on JKQTPCoordinateAxis (for most of document...">
<polygon fill="#bfbfbf" stroke="black" points="1952,-192.5 1952,-213.5 2152,-213.5 2152,-192.5 1952,-192.5"/>
<text text-anchor="middle" x="2052" y="-199.9" font-family="FreeSans" font-size="12.00">JKQTPHorizontalIndependentAxis</text>
</a>
</g>
</g>
<!-- Node2 -->
<g id="node2" class="node">
<title>Node2</title>
<g id="a_node2"><a xlink:href="class_j_k_q_t_p_horizontal_axis.html" target="_top" xlink:title="implements a horizontal axis, based on JKQTPCoordinateAxis (for most of documentation: see JKQTPCoord...">
<polygon fill="none" stroke="black" points="1694,-250.5 1694,-271.5 1827,-271.5 1827,-250.5 1694,-250.5"/>
<text text-anchor="middle" x="1760.5" y="-257.9" font-family="FreeSans" font-size="12.00">JKQTPHorizontalAxis</text>
</a>
</g>
</g>
<!-- Node2&#45;&gt;Node1 -->
<g id="edge1" class="edge">
<title>Node2&#45;&gt;Node1</title>
<path fill="none" stroke="midnightblue" d="M1785.73,-244.95C1802.04,-235.02 1824.44,-223.06 1846,-217 1879.74,-207.51 1917.78,-203.24 1951.84,-201.59"/>
<polygon fill="midnightblue" stroke="midnightblue" points="1783.49,-242.22 1776.88,-250.49 1787.21,-248.15 1783.49,-242.22"/>
</g>
<!-- Node5 -->
<g id="node5" class="node">
<title>Node5</title>
<g id="a_node5"><a xlink:href="class_j_k_q_t_base_plotter.html" target="_top" xlink:title="base class for 2D plotter classes (used by the plotter widget JKQTPlotter)">
<polygon fill="none" stroke="black" points="1997.5,-347.5 1997.5,-368.5 2106.5,-368.5 2106.5,-347.5 1997.5,-347.5"/>
<text text-anchor="middle" x="2052" y="-354.9" font-family="FreeSans" font-size="12.00">JKQTBasePlotter</text>
</a>
</g>
</g>
<!-- Node2&#45;&gt;Node5 -->
<g id="edge28" class="edge">
<title>Node2&#45;&gt;Node5</title>
<path fill="none" stroke="#9a32cd" stroke-dasharray="5,2" d="M1834.7,-273.54C1865.79,-279.89 1902.15,-288.69 1934,-300 1970.53,-312.98 2010.46,-334.5 2032.95,-347.36"/>
<polygon fill="#9a32cd" stroke="#9a32cd" points="1835.29,-270.09 1824.8,-271.56 1833.92,-276.95 1835.29,-270.09"/>
<text text-anchor="middle" x="1890" y="-303.4" font-family="FreeSans" font-size="12.00"> xAxis</text>
</g>
<!-- Node3 -->
<g id="node3" class="node">
<title>Node3</title>
<g id="a_node3"><a xlink:href="class_j_k_q_t_p_coordinate_axis.html" target="_top" xlink:title="this virtual class is the base for any type of coordinate axis, to be drawn by JKQTBasePlotter.">
<polygon fill="none" stroke="black" points="2319.5,-285.5 2319.5,-306.5 2456.5,-306.5 2456.5,-285.5 2319.5,-285.5"/>
<text text-anchor="middle" x="2388" y="-292.9" font-family="FreeSans" font-size="12.00">JKQTPCoordinateAxis</text>
</a>
</g>
</g>
<!-- Node3&#45;&gt;Node2 -->
<g id="edge2" class="edge">
<title>Node3&#45;&gt;Node2</title>
<path fill="none" stroke="midnightblue" d="M2309.2,-285.59C2297.1,-284.22 2284.72,-282.96 2273,-282 2113.11,-268.92 1924.41,-263.85 1827.01,-261.99"/>
<polygon fill="midnightblue" stroke="midnightblue" points="2308.94,-289.08 2319.28,-286.77 2309.75,-282.13 2308.94,-289.08"/>
</g>
<!-- Node20 -->
<g id="node20" class="node">
<title>Node20</title>
<g id="a_node20"><a xlink:href="class_j_k_q_t_p_vertical_axis.html" target="_top" xlink:title="implements a vertical axis, based on JKQTPCoordinateAxis (for most of documentation: see JKQTPCoordin...">
<polygon fill="none" stroke="black" points="2522,-315.5 2522,-336.5 2640,-336.5 2640,-315.5 2522,-315.5"/>
<text text-anchor="middle" x="2581" y="-322.9" font-family="FreeSans" font-size="12.00">JKQTPVerticalAxis</text>
</a>
</g>
</g>
<!-- Node3&#45;&gt;Node20 -->
<g id="edge30" class="edge">
<title>Node3&#45;&gt;Node20</title>
<path fill="none" stroke="midnightblue" d="M2466.03,-308.1C2484.7,-311.03 2504.35,-314.12 2521.98,-316.89"/>
<polygon fill="midnightblue" stroke="midnightblue" points="2466.49,-304.63 2456.07,-306.53 2465.41,-311.54 2466.49,-304.63"/>
</g>
<!-- Node4 -->
<g id="node4" class="node">
<title>Node4</title>
<g id="a_node4"><a xlink:title=" ">
<polygon fill="none" stroke="black" points="1414,-376.5 1414,-397.5 1476,-397.5 1476,-376.5 1414,-376.5"/>
<text text-anchor="middle" x="1445" y="-383.9" font-family="FreeSans" font-size="12.00">QObject</text>
</a>
</g>
</g>
<!-- Node4&#45;&gt;Node3 -->
<g id="edge3" class="edge">
<title>Node4&#45;&gt;Node3</title>
<path fill="none" stroke="midnightblue" d="M1486.07,-381.79C1558.05,-372.51 1714.06,-352.82 1846,-339 1989.79,-323.94 2025.85,-321.1 2170,-310 2219.87,-306.16 2276.25,-302.54 2319.04,-299.95"/>
<polygon fill="midnightblue" stroke="midnightblue" points="1485.54,-378.32 1476.07,-383.08 1486.44,-385.27 1485.54,-378.32"/>
</g>
<!-- Node4&#45;&gt;Node5 -->
<g id="edge5" class="edge">
<title>Node4&#45;&gt;Node5</title>
<path fill="none" stroke="midnightblue" d="M1486.25,-385.07C1592.05,-380 1878,-366.29 1997.44,-360.57"/>
<polygon fill="midnightblue" stroke="midnightblue" points="1485.82,-381.59 1476,-385.56 1486.16,-388.58 1485.82,-381.59"/>
</g>
<!-- Node16 -->
<g id="node16" class="node">
<title>Node16</title>
<g id="a_node16"><a xlink:href="class_j_k_q_t_math_text.html" target="_top" xlink:title="this class parses a LaTeX string and can then draw the contained text/equation onto a QPainter">
<polygon fill="none" stroke="black" points="1711.5,-430.5 1711.5,-451.5 1809.5,-451.5 1809.5,-430.5 1711.5,-430.5"/>
<text text-anchor="middle" x="1760.5" y="-437.9" font-family="FreeSans" font-size="12.00">JKQTMathText</text>
</a>
</g>
</g>
<!-- Node4&#45;&gt;Node16 -->
<g id="edge21" class="edge">
<title>Node4&#45;&gt;Node16</title>
<path fill="none" stroke="midnightblue" d="M1486.23,-393.93C1543.8,-403.85 1649.53,-422.06 1711.24,-432.69"/>
<polygon fill="midnightblue" stroke="midnightblue" points="1486.51,-390.43 1476.06,-392.18 1485.32,-397.32 1486.51,-390.43"/>
</g>
<!-- Node5&#45;&gt;Node3 -->
<g id="edge4" class="edge">
<title>Node5&#45;&gt;Node3</title>
<path fill="none" stroke="#9a32cd" stroke-dasharray="5,2" d="M2103.24,-345.05C2123.85,-339.98 2147.99,-334.35 2170,-330 2219.75,-320.16 2276.38,-311.37 2319.31,-305.19"/>
<polygon fill="#9a32cd" stroke="#9a32cd" points="2102.3,-341.68 2093.44,-347.49 2103.99,-348.47 2102.3,-341.68"/>
<text text-anchor="middle" x="2221.5" y="-333.4" font-family="FreeSans" font-size="12.00"> parent</text>
</g>
<!-- Node5&#45;&gt;Node5 -->
<g id="edge37" class="edge">
<title>Node5&#45;&gt;Node5</title>
<path fill="none" stroke="#9a32cd" stroke-dasharray="5,2" d="M2021.99,-378.06C2023.96,-383.16 2033.96,-387 2052,-387 2080.16,-387 2088.74,-377.65 2077.74,-368.71"/>
<polygon fill="#9a32cd" stroke="#9a32cd" points="2025.29,-379.26 2026.26,-368.71 2018.92,-376.35 2025.29,-379.26"/>
<text text-anchor="middle" x="2052" y="-403.4" font-family="FreeSans" font-size="12.00"> masterPlotterX</text>
<text text-anchor="middle" x="2052" y="-390.4" font-family="FreeSans" font-size="12.00">masterPlotterY</text>
</g>
<!-- Node18 -->
<g id="node18" class="node">
<title>Node18</title>
<g id="a_node18"><a xlink:href="class_j_k_q_t_p_graphs_model.html" target="_top" xlink:title="data model with all plots ina JKQTBasePlotter (+ allows to switch them visible/invisible)">
<polygon fill="none" stroke="black" points="2324,-415.5 2324,-436.5 2452,-436.5 2452,-415.5 2324,-415.5"/>
<text text-anchor="middle" x="2388" y="-422.9" font-family="FreeSans" font-size="12.00">JKQTPGraphsModel</text>
</a>
</g>
</g>
<!-- Node5&#45;&gt;Node18 -->
<g id="edge27" class="edge">
<title>Node5&#45;&gt;Node18</title>
<path fill="none" stroke="#9a32cd" stroke-dasharray="5,2" d="M2116.92,-363.05C2161.15,-367.36 2221.15,-374.84 2273,-387 2303.75,-394.21 2337.89,-406.48 2360.72,-415.34"/>
<polygon fill="#9a32cd" stroke="#9a32cd" points="2117.17,-359.55 2106.88,-362.1 2116.51,-366.52 2117.17,-359.55"/>
<text text-anchor="middle" x="2221.5" y="-390.4" font-family="FreeSans" font-size="12.00"> m_plotter</text>
</g>
<!-- Node6 -->
<g id="node6" class="node">
<title>Node6</title>
<g id="a_node6"><a xlink:href="class_j_k_q_t_base_plotter_style.html" target="_top" xlink:title="Support Class for JKQTBasePlotter, which summarizes all properties that define the visual styling of ...">
<polygon fill="none" stroke="black" points="1693,-290.5 1693,-311.5 1828,-311.5 1828,-290.5 1693,-290.5"/>
<text text-anchor="middle" x="1760.5" y="-297.9" font-family="FreeSans" font-size="12.00">JKQTBasePlotterStyle</text>
</a>
</g>
</g>
<!-- Node6&#45;&gt;Node5 -->
<g id="edge6" class="edge">
<title>Node6&#45;&gt;Node5</title>
<path fill="none" stroke="#9a32cd" stroke-dasharray="5,2" d="M1824.98,-313.5C1876.6,-323.66 1948.62,-337.84 1997.39,-347.44"/>
<polygon fill="#9a32cd" stroke="#9a32cd" points="1825.42,-310.02 1814.94,-311.52 1824.07,-316.89 1825.42,-310.02"/>
<text text-anchor="middle" x="1890" y="-337.4" font-family="FreeSans" font-size="12.00"> plotterStyle</text>
</g>
<!-- Node7 -->
<g id="node7" class="node">
<title>Node7</title>
<g id="a_node7"><a xlink:href="class_j_k_q_t_p_key_style.html" target="_top" xlink:title="Support Class for JKQTBasePlotter, which summarizes all properties that define the visual styling of ...">
<polygon fill="none" stroke="black" points="1393.5,-287.5 1393.5,-308.5 1496.5,-308.5 1496.5,-287.5 1393.5,-287.5"/>
<text text-anchor="middle" x="1445" y="-294.9" font-family="FreeSans" font-size="12.00">JKQTPKeyStyle</text>
</a>
</g>
</g>
<!-- Node7&#45;&gt;Node6 -->
<g id="edge7" class="edge">
<title>Node7&#45;&gt;Node6</title>
<path fill="none" stroke="#9a32cd" stroke-dasharray="5,2" d="M1507.07,-297.95C1553.2,-297.98 1618.08,-298.2 1675,-299 1680.72,-299.08 1686.66,-299.18 1692.62,-299.3"/>
<polygon fill="#9a32cd" stroke="#9a32cd" points="1506.94,-294.45 1496.94,-297.94 1506.93,-301.45 1506.94,-294.45"/>
<text text-anchor="middle" x="1614.5" y="-302.4" font-family="FreeSans" font-size="12.00"> keyStyle</text>
</g>
<!-- Node8 -->
<g id="node8" class="node">
<title>Node8</title>
<g id="a_node8"><a xlink:href="class_j_k_q_t_p_coordinate_axis_style.html" target="_top" xlink:title="Support Class for JKQTPCoordinateAxis, which summarizes all properties that define the visual styling...">
<polygon fill="none" stroke="black" points="1060,-178.5 1060,-199.5 1224,-199.5 1224,-178.5 1060,-178.5"/>
<text text-anchor="middle" x="1142" y="-185.9" font-family="FreeSans" font-size="12.00">JKQTPCoordinateAxisStyle</text>
</a>
</g>
</g>
<!-- Node8&#45;&gt;Node3 -->
<g id="edge38" class="edge">
<title>Node8&#45;&gt;Node3</title>
<path fill="none" stroke="#9a32cd" stroke-dasharray="5,2" d="M1195,-176.15C1254.71,-162.54 1355.8,-143 1444,-143 1444,-143 1444,-143 2053,-143 2190.13,-143 2332.51,-250.92 2374.59,-285.48"/>
<polygon fill="#9a32cd" stroke="#9a32cd" points="1194.02,-172.78 1185.06,-178.45 1195.59,-179.6 1194.02,-172.78"/>
<text text-anchor="middle" x="1760.5" y="-146.4" font-family="FreeSans" font-size="12.00"> axisStyle</text>
</g>
<!-- Node8&#45;&gt;Node6 -->
<g id="edge8" class="edge">
<title>Node8&#45;&gt;Node6</title>
<path fill="none" stroke="#9a32cd" stroke-dasharray="5,2" d="M1234.23,-184.12C1314.32,-181.55 1433.68,-181.86 1536,-199 1599.91,-209.71 1626.18,-200.39 1675,-243 1689.08,-255.29 1678.83,-268.81 1693,-281 1697.48,-284.85 1702.68,-287.96 1708.16,-290.47"/>
<polygon fill="#9a32cd" stroke="#9a32cd" points="1234.04,-180.63 1224.17,-184.47 1234.28,-187.62 1234.04,-180.63"/>
<text text-anchor="middle" x="1445" y="-215.4" font-family="FreeSans" font-size="12.00"> xAxisStyle</text>
<text text-anchor="middle" x="1445" y="-202.4" font-family="FreeSans" font-size="12.00">yAxisStyle</text>
</g>
<!-- Node10 -->
<g id="node10" class="node">
<title>Node10</title>
<g id="a_node10"><a xlink:href="class_j_k_q_t_p_colorbar_coordinate_axis_style.html" target="_top" xlink:title="Support Class for JKQTPCoordinateAxis, which summarizes all properties that define the visual styling...">
<polygon fill="none" stroke="black" points="1354,-234 1354,-268 1536,-268 1536,-234 1354,-234"/>
<text text-anchor="start" x="1362" y="-254.4" font-family="FreeSans" font-size="12.00">JKQTPColorbarCoordinateAxis</text>
<text text-anchor="middle" x="1445" y="-241.4" font-family="FreeSans" font-size="12.00">Style</text>
</a>
</g>
</g>
<!-- Node8&#45;&gt;Node10 -->
<g id="edge11" class="edge">
<title>Node8&#45;&gt;Node10</title>
<path fill="none" stroke="midnightblue" d="M1204.04,-201.57C1249.34,-210.9 1311.63,-223.73 1361.39,-233.98"/>
<polygon fill="midnightblue" stroke="midnightblue" points="1204.56,-198.11 1194.06,-199.52 1203.15,-204.96 1204.56,-198.11"/>
</g>
<!-- Node9 -->
<g id="node9" class="node">
<title>Node9</title>
<g id="a_node9"><a xlink:href="class_j_k_q_t_p_grid_style.html" target="_top" xlink:title="Support Class for JKQTPCoordinateAxis, and summarizes all properties that define the visual styling o...">
<polygon fill="none" stroke="black" points="783.5,-178.5 783.5,-199.5 887.5,-199.5 887.5,-178.5 783.5,-178.5"/>
<text text-anchor="middle" x="835.5" y="-185.9" font-family="FreeSans" font-size="12.00">JKQTPGridStyle</text>
</a>
</g>
</g>
<!-- Node9&#45;&gt;Node8 -->
<g id="edge9" class="edge">
<title>Node9&#45;&gt;Node8</title>
<path fill="none" stroke="#9a32cd" stroke-dasharray="5,2" d="M898.06,-189C944.67,-189 1009.11,-189 1059.91,-189"/>
<polygon fill="#9a32cd" stroke="#9a32cd" points="897.81,-185.5 887.81,-189 897.81,-192.5 897.81,-185.5"/>
<text text-anchor="middle" x="986.5" y="-205.4" font-family="FreeSans" font-size="12.00"> majorGridStyle</text>
<text text-anchor="middle" x="986.5" y="-192.4" font-family="FreeSans" font-size="12.00">minorGridStyle</text>
</g>
<!-- Node10&#45;&gt;Node6 -->
<g id="edge10" class="edge">
<title>Node10&#45;&gt;Node6</title>
<path fill="none" stroke="#9a32cd" stroke-dasharray="5,2" d="M1546.2,-246.67C1587.2,-247.88 1634.43,-253.2 1675,-268 1684.27,-271.38 1684.15,-276.63 1693,-281 1700.46,-284.68 1708.73,-287.84 1716.83,-290.47"/>
<polygon fill="#9a32cd" stroke="#9a32cd" points="1546.27,-243.17 1536.19,-246.45 1546.11,-250.17 1546.27,-243.17"/>
<text text-anchor="middle" x="1614.5" y="-284.4" font-family="FreeSans" font-size="12.00"> rightColorbarAxisStyle</text>
<text text-anchor="middle" x="1614.5" y="-271.4" font-family="FreeSans" font-size="12.00">topColorbarAxisStyle</text>
</g>
<!-- Node11 -->
<g id="node11" class="node">
<title>Node11</title>
<g id="a_node11"><a xlink:href="class_j_k_q_t_graphs_base_style.html" target="_top" xlink:title="Support Class for JKQTBasePlotter, which summarizes all properties that define the visual styling of ...">
<polygon fill="none" stroke="black" points="1374.5,-327.5 1374.5,-348.5 1515.5,-348.5 1515.5,-327.5 1374.5,-327.5"/>
<text text-anchor="middle" x="1445" y="-334.9" font-family="FreeSans" font-size="12.00">JKQTGraphsBaseStyle</text>
</a>
</g>
</g>
<!-- Node11&#45;&gt;Node6 -->
<g id="edge12" class="edge">
<title>Node11&#45;&gt;Node6</title>
<path fill="none" stroke="#9a32cd" stroke-dasharray="5,2" d="M1525.76,-329.27C1569.79,-324.37 1625.44,-318.04 1675,-312 1680.73,-311.3 1686.67,-310.56 1692.63,-309.81"/>
<polygon fill="#9a32cd" stroke="#9a32cd" points="1525.24,-325.81 1515.69,-330.39 1526.01,-332.76 1525.24,-325.81"/>
<text text-anchor="middle" x="1614.5" y="-328.4" font-family="FreeSans" font-size="12.00"> graphsStyle</text>
</g>
<!-- Node12 -->
<g id="node12" class="node">
<title>Node12</title>
<g id="a_node12"><a xlink:href="class_j_k_q_t_graphs_specific_style_properties.html" target="_top" xlink:title="Support Class for JKQTBasePlotter, which summarizes all properties that define the visual styling of ...">
<polygon fill="none" stroke="black" points="370,-327.5 370,-348.5 579,-348.5 579,-327.5 370,-327.5"/>
<text text-anchor="middle" x="474.5" y="-334.9" font-family="FreeSans" font-size="12.00">JKQTGraphsSpecificStyleProperties</text>
</a>
</g>
</g>
<!-- Node12&#45;&gt;Node11 -->
<g id="edge13" class="edge">
<title>Node12&#45;&gt;Node11</title>
<path fill="none" stroke="#9a32cd" stroke-dasharray="5,2" d="M589.21,-338C791.67,-338 1208.85,-338 1374.24,-338"/>
<polygon fill="#9a32cd" stroke="#9a32cd" points="589.15,-334.5 579.15,-338 589.15,-341.5 589.15,-334.5"/>
<text text-anchor="middle" x="986.5" y="-393.4" font-family="FreeSans" font-size="12.00"> barchartStyle</text>
<text text-anchor="middle" x="986.5" y="-380.4" font-family="FreeSans" font-size="12.00">boxplotStyle</text>
<text text-anchor="middle" x="986.5" y="-367.4" font-family="FreeSans" font-size="12.00">defaultGraphStyle</text>
<text text-anchor="middle" x="986.5" y="-354.4" font-family="FreeSans" font-size="12.00">filledStyle</text>
<text text-anchor="middle" x="986.5" y="-341.4" font-family="FreeSans" font-size="12.00">impulseStyle</text>
</g>
<!-- Node14 -->
<g id="node14" class="node">
<title>Node14</title>
<g id="a_node14"><a xlink:href="class_j_k_q_t_geometric_specific_style_properties.html" target="_top" xlink:title="Support Class for JKQTBasePlotter, which summarizes all properties that define the visual styling of ...">
<polygon fill="none" stroke="black" points="750,-275 750,-309 921,-309 921,-275 750,-275"/>
<text text-anchor="start" x="758" y="-295.4" font-family="FreeSans" font-size="12.00">JKQTGeometricSpecificStyle</text>
<text text-anchor="middle" x="835.5" y="-282.4" font-family="FreeSans" font-size="12.00">Properties</text>
</a>
</g>
</g>
<!-- Node12&#45;&gt;Node14 -->
<g id="edge16" class="edge">
<title>Node12&#45;&gt;Node14</title>
<path fill="none" stroke="midnightblue" d="M567.8,-326.17C623.91,-318.98 695.03,-309.87 749.72,-302.86"/>
<polygon fill="midnightblue" stroke="midnightblue" points="567.34,-322.7 557.86,-327.45 568.23,-329.65 567.34,-322.7"/>
</g>
<!-- Node13 -->
<g id="node13" class="node">
<title>Node13</title>
<g id="a_node13"><a xlink:href="struct_j_k_q_t_p_color_derivation_mode.html" target="_top" xlink:title="Specifies how a fill&#45;color is derived from a given color.">
<polygon fill="none" stroke="black" points="0,-380.5 0,-401.5 168,-401.5 168,-380.5 0,-380.5"/>
<text text-anchor="middle" x="84" y="-387.9" font-family="FreeSans" font-size="12.00">JKQTPColorDerivationMode</text>
</a>
</g>
</g>
<!-- Node13&#45;&gt;Node12 -->
<g id="edge14" class="edge">
<title>Node13&#45;&gt;Node12</title>
<path fill="none" stroke="#9a32cd" stroke-dasharray="5,2" d="M128.8,-377.54C146.42,-372.59 167.03,-367.37 186,-364 246.45,-353.27 314.88,-346.85 369.81,-343.08"/>
<polygon fill="#9a32cd" stroke="#9a32cd" points="127.45,-374.29 118.8,-380.41 129.38,-381.02 127.45,-374.29"/>
<text text-anchor="middle" x="269" y="-419.4" font-family="FreeSans" font-size="12.00"> errorColorDerivationMode</text>
<text text-anchor="middle" x="269" y="-406.4" font-family="FreeSans" font-size="12.00">errorFillColorDerivationMode</text>
<text text-anchor="middle" x="269" y="-393.4" font-family="FreeSans" font-size="12.00">fillColorDerivationMode</text>
<text text-anchor="middle" x="269" y="-380.4" font-family="FreeSans" font-size="12.00">graphColorDerivationMode</text>
<text text-anchor="middle" x="269" y="-367.4" font-family="FreeSans" font-size="12.00">symbolFillColorDerivationMode</text>
</g>
<!-- Node15 -->
<g id="node15" class="node">
<title>Node15</title>
<g id="a_node15"><a xlink:href="class_j_k_q_t_annotations_specific_style_properties.html" target="_top" xlink:title="Support Class for JKQTBasePlotter, which summarizes all properties that define the visual styling of ...">
<polygon fill="none" stroke="black" points="1052,-401 1052,-435 1232,-435 1232,-401 1052,-401"/>
<text text-anchor="start" x="1060" y="-421.4" font-family="FreeSans" font-size="12.00">JKQTAnnotationsSpecificStyle</text>
<text text-anchor="middle" x="1142" y="-408.4" font-family="FreeSans" font-size="12.00">Properties</text>
</a>
</g>
</g>
<!-- Node13&#45;&gt;Node15 -->
<g id="edge19" class="edge">
<title>Node13&#45;&gt;Node15</title>
<path fill="none" stroke="#9a32cd" stroke-dasharray="5,2" d="M115.74,-405.88C135.34,-414.52 161.56,-424.55 186,-429 258.59,-442.2 278.22,-429.05 352,-429 655.11,-428.78 731.23,-442.34 1034,-428 1039.78,-427.73 1045.72,-427.37 1051.72,-426.96"/>
<polygon fill="#9a32cd" stroke="#9a32cd" points="116.97,-402.59 106.42,-401.65 114.08,-408.97 116.97,-402.59"/>
<text text-anchor="middle" x="664.5" y="-437.4" font-family="FreeSans" font-size="12.00"> textColorDerivationMode</text>
</g>
<!-- Node14&#45;&gt;Node11 -->
<g id="edge15" class="edge">
<title>Node14&#45;&gt;Node11</title>
<path fill="none" stroke="#9a32cd" stroke-dasharray="5,2" d="M931.19,-294.52C1011.39,-297.14 1129.38,-302.13 1232,-311 1278.41,-315.01 1289.79,-318.12 1336,-324 1348.38,-325.58 1361.55,-327.27 1374.29,-328.92"/>
<polygon fill="#9a32cd" stroke="#9a32cd" points="931.21,-291.02 921.11,-294.2 930.99,-298.01 931.21,-291.02"/>
<text text-anchor="middle" x="1142" y="-314.4" font-family="FreeSans" font-size="12.00"> geometricStyle</text>
</g>
<!-- Node14&#45;&gt;Node15 -->
<g id="edge18" class="edge">
<title>Node14&#45;&gt;Node15</title>
<path fill="none" stroke="midnightblue" d="M851.48,-317.52C868.79,-344.33 899.97,-385.17 939,-404 973.51,-420.65 1015.26,-425.66 1051.82,-425.92"/>
<polygon fill="midnightblue" stroke="midnightblue" points="854.43,-315.63 846.15,-309.02 848.5,-319.35 854.43,-315.63"/>
</g>
<!-- Node15&#45;&gt;Node11 -->
<g id="edge17" class="edge">
<title>Node15&#45;&gt;Node11</title>
<path fill="none" stroke="#9a32cd" stroke-dasharray="5,2" d="M1216.87,-398.37C1276.03,-382.64 1356.73,-361.19 1404.3,-348.55"/>
<polygon fill="#9a32cd" stroke="#9a32cd" points="1215.97,-394.98 1207.2,-400.94 1217.77,-401.75 1215.97,-394.98"/>
<text text-anchor="middle" x="1293" y="-390.4" font-family="FreeSans" font-size="12.00"> annotationStyle</text>
</g>
<!-- Node16&#45;&gt;Node5 -->
<g id="edge20" class="edge">
<title>Node16&#45;&gt;Node5</title>
<path fill="none" stroke="#9a32cd" stroke-dasharray="5,2" d="M1818.43,-428.1C1852.21,-420.12 1895.77,-409.28 1934,-398 1964.47,-389.01 1998.82,-377.05 2022.37,-368.55"/>
<polygon fill="#9a32cd" stroke="#9a32cd" points="1817.22,-424.79 1808.28,-430.48 1818.82,-431.6 1817.22,-424.79"/>
<text text-anchor="middle" x="1890" y="-423.4" font-family="FreeSans" font-size="12.00"> mathText</text>
</g>
<!-- Node17 -->
<g id="node17" class="node">
<title>Node17</title>
<g id="a_node17"><a xlink:href="class_j_k_q_t_math_text_node.html" target="_top" xlink:title="subclass representing one node in the syntax tree">
<polygon fill="none" stroke="black" points="1988,-483.5 1988,-504.5 2116,-504.5 2116,-483.5 1988,-483.5"/>
<text text-anchor="middle" x="2052" y="-490.9" font-family="FreeSans" font-size="12.00">JKQTMathTextNode</text>
</a>
</g>
</g>
<!-- Node16&#45;&gt;Node17 -->
<g id="edge23" class="edge">
<title>Node16&#45;&gt;Node17</title>
<path fill="none" stroke="#9a32cd" stroke-dasharray="5,2" d="M1820.07,-440.3C1862.1,-440.69 1914.61,-443.25 1934,-453 1944.98,-458.52 1941.4,-467.78 1952,-474 1962.89,-480.39 1975.48,-484.77 1987.96,-487.76"/>
<polygon fill="#9a32cd" stroke="#9a32cd" points="1819.93,-436.8 1809.91,-440.25 1819.89,-443.8 1819.93,-436.8"/>
<text text-anchor="middle" x="1890" y="-456.4" font-family="FreeSans" font-size="12.00"> parentMathText</text>
</g>
<!-- Node17&#45;&gt;Node16 -->
<g id="edge22" class="edge">
<title>Node17&#45;&gt;Node16</title>
<path fill="none" stroke="#9a32cd" stroke-dasharray="5,2" d="M1977.56,-489.23C1938.2,-485.72 1889.07,-479.79 1846,-470 1826.04,-465.46 1804.19,-457.89 1787.72,-451.63"/>
<polygon fill="#9a32cd" stroke="#9a32cd" points="1977.34,-492.73 1987.6,-490.1 1977.94,-485.75 1977.34,-492.73"/>
<text text-anchor="middle" x="1890" y="-500.4" font-family="FreeSans" font-size="12.00"> parsedNode</text>
<text text-anchor="middle" x="1890" y="-487.4" font-family="FreeSans" font-size="12.00">unparsedNode</text>
</g>
<!-- Node17&#45;&gt;Node17 -->
<g id="edge24" class="edge">
<title>Node17&#45;&gt;Node17</title>
<path fill="none" stroke="#9a32cd" stroke-dasharray="5,2" d="M2021.99,-514.06C2023.96,-519.16 2033.96,-523 2052,-523 2080.16,-523 2088.74,-513.65 2077.74,-504.71"/>
<polygon fill="#9a32cd" stroke="#9a32cd" points="2025.29,-515.26 2026.26,-504.71 2018.92,-512.35 2025.29,-515.26"/>
<text text-anchor="middle" x="2052" y="-526.4" font-family="FreeSans" font-size="12.00"> parentNode</text>
</g>
<!-- Node18&#45;&gt;Node5 -->
<g id="edge25" class="edge">
<title>Node18&#45;&gt;Node5</title>
<path fill="none" stroke="#9a32cd" stroke-dasharray="5,2" d="M2313.32,-423.53C2270.92,-420.87 2216.92,-415.37 2170,-404 2135.64,-395.67 2097.91,-379.46 2074.84,-368.68"/>
<polygon fill="#9a32cd" stroke="#9a32cd" points="2313.37,-427.04 2323.56,-424.13 2313.78,-420.05 2313.37,-427.04"/>
<text text-anchor="middle" x="2221.5" y="-423.4" font-family="FreeSans" font-size="12.00"> m_plotsModel</text>
</g>
<!-- Node19 -->
<g id="node19" class="node">
<title>Node19</title>
<g id="a_node19"><a xlink:title=" ">
<polygon fill="none" stroke="black" points="1985.5,-443.5 1985.5,-464.5 2118.5,-464.5 2118.5,-443.5 1985.5,-443.5"/>
<text text-anchor="middle" x="2052" y="-450.9" font-family="FreeSans" font-size="12.00">QAbstractTableModel</text>
</a>
</g>
</g>
<!-- Node19&#45;&gt;Node18 -->
<g id="edge26" class="edge">
<title>Node19&#45;&gt;Node18</title>
<path fill="none" stroke="midnightblue" d="M2128.53,-450.29C2171.02,-447.93 2225.02,-444.47 2273,-440 2289.48,-438.47 2307.26,-436.45 2323.76,-434.44"/>
<polygon fill="midnightblue" stroke="midnightblue" points="2128.33,-446.8 2118.54,-450.84 2128.72,-453.79 2128.33,-446.8"/>
</g>
<!-- Node20&#45;&gt;Node5 -->
<g id="edge29" class="edge">
<title>Node20&#45;&gt;Node5</title>
<path fill="none" stroke="#9a32cd" stroke-dasharray="5,2" d="M2511.48,-330.16C2405.35,-336.61 2203.4,-348.87 2106.92,-354.73"/>
<polygon fill="#9a32cd" stroke="#9a32cd" points="2511.99,-333.64 2521.76,-329.54 2511.56,-326.65 2511.99,-333.64"/>
<text text-anchor="middle" x="2388" y="-346.4" font-family="FreeSans" font-size="12.00"> yAxis</text>
</g>
<!-- Node21 -->
<g id="node21" class="node">
<title>Node21</title>
<g id="a_node21"><a xlink:href="class_j_k_q_t_p_datastore.html" target="_top" xlink:title="This class manages data columns (with entries of type double ), used by JKQTPlotter/JKQTBasePlotter t...">
<polygon fill="none" stroke="black" points="1707,-85.5 1707,-106.5 1814,-106.5 1814,-85.5 1707,-85.5"/>
<text text-anchor="middle" x="1760.5" y="-92.9" font-family="FreeSans" font-size="12.00">JKQTPDatastore</text>
</a>
</g>
</g>
<!-- Node21&#45;&gt;Node5 -->
<g id="edge31" class="edge">
<title>Node21&#45;&gt;Node5</title>
<path fill="none" stroke="#9a32cd" stroke-dasharray="5,2" d="M1807.99,-110.34C1814.96,-113.37 1821.86,-116.91 1828,-121 1929.56,-188.66 2018.49,-310.87 2043.81,-347.41"/>
<polygon fill="#9a32cd" stroke="#9a32cd" points="1809.09,-107.01 1798.5,-106.52 1806.48,-113.5 1809.09,-107.01"/>
<text text-anchor="middle" x="1890" y="-210.4" font-family="FreeSans" font-size="12.00"> datastore</text>
</g>
<!-- Node23 -->
<g id="node23" class="node">
<title>Node23</title>
<g id="a_node23"><a xlink:href="class_j_k_q_t_p_column.html" target="_top" xlink:title="internally stores information about one data column. See JKQTPDatastore for more information.">
<polygon fill="none" stroke="black" points="2004,-89.5 2004,-110.5 2100,-110.5 2100,-89.5 2004,-89.5"/>
<text text-anchor="middle" x="2052" y="-96.9" font-family="FreeSans" font-size="12.00">JKQTPColumn</text>
</a>
</g>
</g>
<!-- Node21&#45;&gt;Node23 -->
<g id="edge34" class="edge">
<title>Node21&#45;&gt;Node23</title>
<path fill="none" stroke="#9a32cd" stroke-dasharray="5,2" d="M1824.41,-96.87C1878.4,-97.62 1955.02,-98.67 2003.87,-99.35"/>
<polygon fill="#9a32cd" stroke="#9a32cd" points="1824.31,-93.37 1814.26,-96.73 1824.21,-100.37 1824.31,-93.37"/>
<text text-anchor="middle" x="1890" y="-101.4" font-family="FreeSans" font-size="12.00"> datastore</text>
</g>
<!-- Node22 -->
<g id="node22" class="node">
<title>Node22</title>
<g id="a_node22"><a xlink:title=" ">
<polygon fill="none" stroke="black" points="2291,-47.5 2291,-68.5 2485,-68.5 2485,-47.5 2291,-47.5"/>
<text text-anchor="middle" x="2388" y="-54.9" font-family="FreeSans" font-size="12.00">std::unique_ptr&lt; JKQTPColumn &gt;</text>
</a>
</g>
</g>
<!-- Node22&#45;&gt;Node21 -->
<g id="edge32" class="edge">
<title>Node22&#45;&gt;Node21</title>
<path fill="none" stroke="#9a32cd" stroke-dasharray="5,2" d="M2280.9,-56.34C2192.69,-55.89 2063.96,-57.36 1952,-67 1905.17,-71.03 1852.36,-79.37 1814.24,-86.08"/>
<polygon fill="#9a32cd" stroke="#9a32cd" points="2280.89,-59.84 2290.91,-56.4 2280.94,-52.84 2280.89,-59.84"/>
<text text-anchor="middle" x="2052" y="-70.4" font-family="FreeSans" font-size="12.00"> m_invalidColumn</text>
</g>
<!-- Node23&#45;&gt;Node22 -->
<g id="edge33" class="edge">
<title>Node23&#45;&gt;Node22</title>
<path fill="none" stroke="#9a32cd" stroke-dasharray="5,2" d="M2110.07,-92.82C2163.21,-86.14 2243.05,-76.1 2303.37,-68.52"/>
<polygon fill="#9a32cd" stroke="#9a32cd" points="2109.63,-89.35 2100.15,-94.07 2110.5,-96.3 2109.63,-89.35"/>
<text text-anchor="middle" x="2221.5" y="-88.4" font-family="FreeSans" font-size="12.00"> ptr</text>
</g>
<!-- Node24 -->
<g id="node24" class="node">
<title>Node24</title>
<g id="a_node24"><a xlink:title=" ">
<polygon fill="none" stroke="black" points="1991,-0.5 1991,-21.5 2113,-21.5 2113,-0.5 1991,-0.5"/>
<text text-anchor="middle" x="2052" y="-7.9" font-family="FreeSans" font-size="12.00">std::unique_ptr&lt; T &gt;</text>
</a>
</g>
</g>
<!-- Node24&#45;&gt;Node22 -->
<g id="edge35" class="edge">
<title>Node24&#45;&gt;Node22</title>
<path fill="none" stroke="orange" stroke-dasharray="5,2" d="M2123.21,-14.83C2166.57,-17.83 2223.24,-22.89 2273,-31 2298.39,-35.14 2326.53,-41.78 2348.49,-47.44"/>
<polygon fill="orange" stroke="orange" points="2123.26,-11.33 2113.05,-14.15 2122.79,-18.31 2123.26,-11.33"/>
<text text-anchor="middle" x="2221.5" y="-34.4" font-family="FreeSans" font-size="12.00"> &lt; JKQTPColumn &gt;</text>
</g>
<!-- Node25 -->
<g id="node25" class="node">
<title>Node25</title>
<g id="a_node25"><a xlink:title=" ">
<polygon fill="none" stroke="black" points="1746,-0.5 1746,-21.5 1775,-21.5 1775,-0.5 1746,-0.5"/>
<text text-anchor="middle" x="1760.5" y="-7.9" font-family="FreeSans" font-size="12.00">T</text>
</a>
</g>
</g>
<!-- Node25&#45;&gt;Node24 -->
<g id="edge36" class="edge">
<title>Node25&#45;&gt;Node24</title>
<path fill="none" stroke="#9a32cd" stroke-dasharray="5,2" d="M1785.2,-11C1829.71,-11 1927.05,-11 1990.76,-11"/>
<polygon fill="#9a32cd" stroke="#9a32cd" points="1785.07,-7.5 1775.07,-11 1785.07,-14.5 1785.07,-7.5"/>
<text text-anchor="middle" x="1890" y="-14.4" font-family="FreeSans" font-size="12.00"> ptr</text>
</g>
</g>
</svg>
        <g id="navigator" transform="translate(0 0)" fill="#404254">
                <rect fill="#f2f5e9" fill-opacity="0.5" stroke="#606060" stroke-width=".5" x="0" y="0" width="60" height="60"/>
                <use id="zoomplus" xlink:href="#zoomPlus" x="17" y="9" onmousedown="handleZoom(evt,'in')"/>
                <use id="zoomminus" xlink:href="#zoomMin" x="42" y="9" onmousedown="handleZoom(evt,'out')"/>
                <use id="reset" xlink:href="#resetDef" x="30" y="36" onmousedown="handleReset()"/>
                <g id="arrowUp" xlink:href="#dirArrow" transform="translate(30 24)" onmousedown="handlePan(0,-1)">
                  <use xlink:href="#rim" fill="#404040">
                        <set attributeName="fill" to="#808080" begin="arrowUp.mouseover" end="arrowUp.mouseout"/>
                  </use>
                  <path fill="none" stroke="white" stroke-width="1.5" d="M0,-3.0v7 M-2.5,-0.5L0,-3.0L2.5,-0.5"/>
                </g>
                <g id="arrowRight" xlink:href="#dirArrow" transform="rotate(90) translate(36 -43)" onmousedown="handlePan(1,0)">
                  <use xlink:href="#rim" fill="#404040">
                        <set attributeName="fill" to="#808080" begin="arrowRight.mouseover" end="arrowRight.mouseout"/>
                  </use>
                  <path fill="none" stroke="white" stroke-width="1.5" d="M0,-3.0v7 M-2.5,-0.5L0,-3.0L2.5,-0.5"/>
                </g>
                <g id="arrowDown" xlink:href="#dirArrow" transform="rotate(180) translate(-30 -48)" onmousedown="handlePan(0,1)">
                  <use xlink:href="#rim" fill="#404040">
                        <set attributeName="fill" to="#808080" begin="arrowDown.mouseover" end="arrowDown.mouseout"/>
                  </use>
                  <path fill="none" stroke="white" stroke-width="1.5" d="M0,-3.0v7 M-2.5,-0.5L0,-3.0L2.5,-0.5"/>
                </g>
                <g id="arrowLeft" xlink:href="#dirArrow" transform="rotate(270) translate(-36 17)" onmousedown="handlePan(-1,0)">
                  <use xlink:href="#rim" fill="#404040">
                        <set attributeName="fill" to="#808080" begin="arrowLeft.mouseover" end="arrowLeft.mouseout"/>
                  </use>
                  <path fill="none" stroke="white" stroke-width="1.5" d="M0,-3.0v7 M-2.5,-0.5L0,-3.0L2.5,-0.5"/>
                </g>
        </g>
        <svg viewBox="0 0 15 15" width="100%" height="30px" preserveAspectRatio="xMaxYMin meet">
         <g id="arrow_out" transform="scale(0.3 0.3)">
          <a xlink:href="class_j_k_q_t_p_horizontal_independent_axis__coll__graph_org.svg" target="_base">
           <rect id="button" ry="5" rx="5" y="6" x="6" height="38" width="38"
                fill="#f2f5e9" fill-opacity="0.5" stroke="#606060" stroke-width="1.0"/>
           <path id="arrow"
             d="M 11.500037,31.436501 C 11.940474,20.09759 22.043105,11.32322 32.158766,21.979434 L 37.068811,17.246167 C 37.068811,17.246167 37.088388,32 37.088388,32 L 22.160133,31.978069 C 22.160133,31.978069 26.997745,27.140456 26.997745,27.140456 C 18.528582,18.264221 13.291696,25.230495 11.500037,31.436501 z"
             style="fill:#404040;"/>
          </a>
         </g>
        </svg>
</svg>
