<?xml version="1.0" encoding="UTF-8" standalone="no"?>
<!DOCTYPE svg PUBLIC "-//W3C//DTD SVG 1.1//EN"
 "http://www.w3.org/Graphics/SVG/1.1/DTD/svg11.dtd">
<!-- Generated by graphviz version 2.43.0 (0)
 -->
<!-- Title: JKQTPColorPaletteStyleAndToolsMixin Pages: 1 -->
<svg width="3284pt" height="515pt"
 viewBox="0.00 0.00 3284.00 515.00" xmlns="http://www.w3.org/2000/svg" xmlns:xlink="http://www.w3.org/1999/xlink">
<g id="graph0" class="graph" transform="scale(1 1) rotate(0) translate(4 511)">
<title>JKQTPColorPaletteStyleAndToolsMixin</title>
<!-- Node1 -->
<g id="node1" class="node">
<title>Node1</title>
<g id="a_node1"><a xlink:title="if a class is derived from this class, it may use color bars">
<polygon fill="#bfbfbf" stroke="black" points="3098,-243 3098,-277 3276,-277 3276,-243 3098,-243"/>
<text text-anchor="start" x="3106" y="-263.4" font-family="Helvetica,sans-Serif" font-size="12.00">JKQTPColorPaletteStyleAnd</text>
<text text-anchor="middle" x="3187" y="-250.4" font-family="Helvetica,sans-Serif" font-size="12.00">ToolsMixin</text>
</a>
</g>
</g>
<!-- Node2 -->
<g id="node2" class="node">
<title>Node2</title>
<g id="a_node2"><a xlink:href="class_j_k_q_t_base_plotter.html" target="_top" xlink:title="base class for 2D plotter classes (used by the plotter widget JKQTPlotter)">
<polygon fill="none" stroke="black" points="2035.5,-246.5 2035.5,-267.5 2149.5,-267.5 2149.5,-246.5 2035.5,-246.5"/>
<text text-anchor="middle" x="2092.5" y="-253.9" font-family="Helvetica,sans-Serif" font-size="12.00">JKQTBasePlotter</text>
</a>
</g>
</g>
<!-- Node2&#45;&gt;Node1 -->
<g id="edge1" class="edge">
<title>Node2&#45;&gt;Node1</title>
<path fill="none" stroke="#9a32cd" stroke-dasharray="5,2" d="M2108.52,-238.84C2124.61,-220.85 2151.92,-194.27 2182,-182 2279.99,-142.04 2313.67,-165 2419.5,-165 2419.5,-165 2419.5,-165 2846.5,-165 2960.65,-165 3088.66,-215.42 3149.76,-242.8"/>
<polygon fill="#9a32cd" stroke="#9a32cd" points="2105.86,-236.57 2101.95,-246.42 2111.15,-241.16 2105.86,-236.57"/>
<text text-anchor="middle" x="2633.5" y="-168.4" font-family="Helvetica,sans-Serif" font-size="12.00"> cbParent</text>
</g>
<!-- Node2&#45;&gt;Node2 -->
<g id="edge39" class="edge">
<title>Node2&#45;&gt;Node2</title>
<path fill="none" stroke="#9a32cd" stroke-dasharray="5,2" d="M2066.93,-277.06C2068.61,-282.16 2077.13,-286 2092.5,-286 2116.49,-286 2123.8,-276.65 2114.43,-267.71"/>
<polygon fill="#9a32cd" stroke="#9a32cd" points="2070.21,-278.3 2070.57,-267.71 2063.68,-275.76 2070.21,-278.3"/>
<text text-anchor="middle" x="2092.5" y="-302.4" font-family="Helvetica,sans-Serif" font-size="12.00"> masterPlotterX</text>
<text text-anchor="middle" x="2092.5" y="-289.4" font-family="Helvetica,sans-Serif" font-size="12.00">masterPlotterY</text>
</g>
<!-- Node17 -->
<g id="node17" class="node">
<title>Node17</title>
<g id="a_node17"><a xlink:href="class_j_k_q_t_p_graphs_model.html" target="_top" xlink:title="data model with all plots ina JKQTBasePlotter (+ allows to switch them visible/invisible)">
<polygon fill="none" stroke="black" points="2355,-193.5 2355,-214.5 2486,-214.5 2486,-193.5 2355,-193.5"/>
<text text-anchor="middle" x="2420.5" y="-200.9" font-family="Helvetica,sans-Serif" font-size="12.00">JKQTPGraphsModel</text>
</a>
</g>
</g>
<!-- Node2&#45;&gt;Node17 -->
<g id="edge25" class="edge">
<title>Node2&#45;&gt;Node17</title>
<path fill="none" stroke="#9a32cd" stroke-dasharray="5,2" d="M2142.14,-243.85C2155.03,-240.66 2168.99,-237.46 2182,-235 2240.12,-224.02 2306.98,-215.67 2354.92,-210.42"/>
<polygon fill="#9a32cd" stroke="#9a32cd" points="2140.9,-240.56 2132.06,-246.4 2142.61,-247.34 2140.9,-240.56"/>
<text text-anchor="middle" x="2238.5" y="-238.4" font-family="Helvetica,sans-Serif" font-size="12.00"> m_plotter</text>
</g>
<!-- Node20 -->
<g id="node20" class="node">
<title>Node20</title>
<g id="a_node20"><a xlink:href="class_j_k_q_t_p_coordinate_axis.html" target="_top" xlink:title="this virtual class is the base for any type of coordinate axis, to be drawn by JKQTBasePlotter.">
<polygon fill="none" stroke="black" points="2349.5,-344.5 2349.5,-365.5 2491.5,-365.5 2491.5,-344.5 2349.5,-344.5"/>
<text text-anchor="middle" x="2420.5" y="-351.9" font-family="Helvetica,sans-Serif" font-size="12.00">JKQTPCoordinateAxis</text>
</a>
</g>
</g>
<!-- Node2&#45;&gt;Node20 -->
<g id="edge29" class="edge">
<title>Node2&#45;&gt;Node20</title>
<path fill="none" stroke="#9a32cd" stroke-dasharray="5,2" d="M2116.73,-273.22C2134,-284.56 2158.53,-299.19 2182,-308 2186.32,-309.62 2296.33,-331.11 2365.1,-344.46"/>
<polygon fill="#9a32cd" stroke="#9a32cd" points="2118.66,-270.3 2108.41,-267.64 2114.76,-276.12 2118.66,-270.3"/>
<text text-anchor="middle" x="2238.5" y="-332.4" font-family="Helvetica,sans-Serif" font-size="12.00"> parent</text>
</g>
<!-- Node3 -->
<g id="node3" class="node">
<title>Node3</title>
<g id="a_node3"><a xlink:title=" ">
<polygon fill="none" stroke="black" points="1442.5,-347.5 1442.5,-368.5 1507.5,-368.5 1507.5,-347.5 1442.5,-347.5"/>
<text text-anchor="middle" x="1475" y="-354.9" font-family="Helvetica,sans-Serif" font-size="12.00">QObject</text>
</a>
</g>
</g>
<!-- Node3&#45;&gt;Node2 -->
<g id="edge2" class="edge">
<title>Node3&#45;&gt;Node2</title>
<path fill="none" stroke="midnightblue" d="M1517.97,-351.11C1625.96,-333.39 1913.46,-286.21 2035.48,-266.19"/>
<polygon fill="midnightblue" stroke="midnightblue" points="1517.1,-347.71 1507.8,-352.78 1518.23,-354.62 1517.1,-347.71"/>
</g>
<!-- Node15 -->
<g id="node15" class="node">
<title>Node15</title>
<g id="a_node15"><a xlink:href="class_j_k_q_t_math_text.html" target="_top" xlink:title="this class parses a mathematical markup string and can then draw the contained text/equation onto a Q...">
<polygon fill="none" stroke="black" points="1767,-401.5 1767,-422.5 1866,-422.5 1866,-401.5 1767,-401.5"/>
<text text-anchor="middle" x="1816.5" y="-408.9" font-family="Helvetica,sans-Serif" font-size="12.00">JKQTMathText</text>
</a>
</g>
</g>
<!-- Node3&#45;&gt;Node15 -->
<g id="edge19" class="edge">
<title>Node3&#45;&gt;Node15</title>
<path fill="none" stroke="midnightblue" d="M1517.61,-364.62C1580.58,-374.63 1699.82,-393.6 1766.76,-404.25"/>
<polygon fill="midnightblue" stroke="midnightblue" points="1518.06,-361.15 1507.63,-363.03 1516.96,-368.06 1518.06,-361.15"/>
</g>
<!-- Node3&#45;&gt;Node20 -->
<g id="edge28" class="edge">
<title>Node3&#45;&gt;Node20</title>
<path fill="none" stroke="midnightblue" d="M1517.67,-357.87C1665.25,-357.4 2164.11,-355.81 2349.43,-355.22"/>
<polygon fill="midnightblue" stroke="midnightblue" points="1517.65,-354.37 1507.66,-357.9 1517.67,-361.37 1517.65,-354.37"/>
</g>
<!-- Node4 -->
<g id="node4" class="node">
<title>Node4</title>
<g id="a_node4"><a xlink:href="class_j_k_q_t_base_plotter_style.html" target="_top" xlink:title="Support Class for JKQTBasePlotter, which summarizes all properties that define the visual styling of ...">
<polygon fill="none" stroke="black" points="1745,-232.5 1745,-253.5 1888,-253.5 1888,-232.5 1745,-232.5"/>
<text text-anchor="middle" x="1816.5" y="-239.9" font-family="Helvetica,sans-Serif" font-size="12.00">JKQTBasePlotterStyle</text>
</a>
</g>
</g>
<!-- Node4&#45;&gt;Node2 -->
<g id="edge3" class="edge">
<title>Node4&#45;&gt;Node2</title>
<path fill="none" stroke="#9a32cd" stroke-dasharray="5,2" d="M1898.19,-247.12C1942.32,-249.38 1995.88,-252.11 2035.42,-254.13"/>
<polygon fill="#9a32cd" stroke="#9a32cd" points="1898.23,-243.62 1888.06,-246.61 1897.87,-250.61 1898.23,-243.62"/>
<text text-anchor="middle" x="1954.5" y="-255.4" font-family="Helvetica,sans-Serif" font-size="12.00"> plotterStyle</text>
</g>
<!-- Node5 -->
<g id="node5" class="node">
<title>Node5</title>
<g id="a_node5"><a xlink:href="class_j_k_q_t_p_key_style.html" target="_top" xlink:title="Support Class for JKQTBasePlotter, which summarizes all properties that define the visual styling of ...">
<polygon fill="none" stroke="black" points="1423,-243.5 1423,-264.5 1527,-264.5 1527,-243.5 1423,-243.5"/>
<text text-anchor="middle" x="1475" y="-250.9" font-family="Helvetica,sans-Serif" font-size="12.00">JKQTPKeyStyle</text>
</a>
</g>
</g>
<!-- Node5&#45;&gt;Node4 -->
<g id="edge4" class="edge">
<title>Node5&#45;&gt;Node4</title>
<path fill="none" stroke="#9a32cd" stroke-dasharray="5,2" d="M1537.39,-247.67C1554.41,-246.18 1572.91,-244.79 1590,-244 1641.82,-241.62 1700.41,-241.43 1744.87,-241.81"/>
<polygon fill="#9a32cd" stroke="#9a32cd" points="1536.66,-244.22 1527.01,-248.61 1537.29,-251.2 1536.66,-244.22"/>
<text text-anchor="middle" x="1658.5" y="-247.4" font-family="Helvetica,sans-Serif" font-size="12.00"> keyStyle</text>
</g>
<!-- Node6 -->
<g id="node6" class="node">
<title>Node6</title>
<g id="a_node6"><a xlink:href="class_j_k_q_t_p_coordinate_axis_style.html" target="_top" xlink:title="Support Class for JKQTPCoordinateAxis, which summarizes all properties that define the visual styling...">
<polygon fill="none" stroke="black" points="1063,-290.5 1063,-311.5 1234,-311.5 1234,-290.5 1063,-290.5"/>
<text text-anchor="middle" x="1148.5" y="-297.9" font-family="Helvetica,sans-Serif" font-size="12.00">JKQTPCoordinateAxisStyle</text>
</a>
</g>
</g>
<!-- Node6&#45;&gt;Node4 -->
<g id="edge5" class="edge">
<title>Node6&#45;&gt;Node4</title>
<path fill="none" stroke="#9a32cd" stroke-dasharray="5,2" d="M1177.32,-285.53C1219.28,-263.17 1301.96,-222.88 1378,-208 1522.14,-179.79 1697.24,-213.9 1774.97,-232.48"/>
<polygon fill="#9a32cd" stroke="#9a32cd" points="1175.42,-282.58 1168.28,-290.41 1178.74,-288.74 1175.42,-282.58"/>
<text text-anchor="middle" x="1475" y="-224.4" font-family="Helvetica,sans-Serif" font-size="12.00"> xAxisStyle</text>
<text text-anchor="middle" x="1475" y="-211.4" font-family="Helvetica,sans-Serif" font-size="12.00">yAxisStyle</text>
</g>
<!-- Node8 -->
<g id="node8" class="node">
<title>Node8</title>
<g id="a_node8"><a xlink:href="class_j_k_q_t_p_colorbar_coordinate_axis_style.html" target="_top" xlink:title="Support Class for JKQTPCoordinateAxis, which summarizes all properties that define the visual styling...">
<polygon fill="none" stroke="black" points="1378,-284 1378,-318 1572,-318 1572,-284 1378,-284"/>
<text text-anchor="start" x="1386" y="-304.4" font-family="Helvetica,sans-Serif" font-size="12.00">JKQTPColorbarCoordinateAxis</text>
<text text-anchor="middle" x="1475" y="-291.4" font-family="Helvetica,sans-Serif" font-size="12.00">Style</text>
</a>
</g>
</g>
<!-- Node6&#45;&gt;Node8 -->
<g id="edge8" class="edge">
<title>Node6&#45;&gt;Node8</title>
<path fill="none" stroke="midnightblue" d="M1244.56,-301C1286.54,-301 1335.81,-301 1377.91,-301"/>
<polygon fill="midnightblue" stroke="midnightblue" points="1244.33,-297.5 1234.33,-301 1244.33,-304.5 1244.33,-297.5"/>
</g>
<!-- Node6&#45;&gt;Node20 -->
<g id="edge30" class="edge">
<title>Node6&#45;&gt;Node20</title>
<path fill="none" stroke="#9a32cd" stroke-dasharray="5,2" d="M1165.39,-319.16C1209.28,-367.21 1337.99,-494 1474,-494 1474,-494 1474,-494 2093.5,-494 2224.25,-494 2362.56,-398.22 2405.79,-365.68"/>
<polygon fill="#9a32cd" stroke="#9a32cd" points="1167.92,-316.75 1158.63,-311.65 1162.72,-321.43 1167.92,-316.75"/>
<text text-anchor="middle" x="1816.5" y="-497.4" font-family="Helvetica,sans-Serif" font-size="12.00"> axisStyle</text>
</g>
<!-- Node7 -->
<g id="node7" class="node">
<title>Node7</title>
<g id="a_node7"><a xlink:href="class_j_k_q_t_p_grid_style.html" target="_top" xlink:title="Support Class for JKQTPCoordinateAxis, and summarizes all properties that define the visual styling o...">
<polygon fill="none" stroke="black" points="698.5,-290.5 698.5,-311.5 805.5,-311.5 805.5,-290.5 698.5,-290.5"/>
<text text-anchor="middle" x="752" y="-297.9" font-family="Helvetica,sans-Serif" font-size="12.00">JKQTPGridStyle</text>
</a>
</g>
</g>
<!-- Node7&#45;&gt;Node6 -->
<g id="edge6" class="edge">
<title>Node7&#45;&gt;Node6</title>
<path fill="none" stroke="#9a32cd" stroke-dasharray="5,2" d="M816.18,-301C883.03,-301 988.9,-301 1062.92,-301"/>
<polygon fill="#9a32cd" stroke="#9a32cd" points="815.79,-297.5 805.79,-301 815.79,-304.5 815.79,-297.5"/>
<text text-anchor="middle" x="948.5" y="-317.4" font-family="Helvetica,sans-Serif" font-size="12.00"> majorGridStyle</text>
<text text-anchor="middle" x="948.5" y="-304.4" font-family="Helvetica,sans-Serif" font-size="12.00">minorGridStyle</text>
</g>
<!-- Node8&#45;&gt;Node4 -->
<g id="edge7" class="edge">
<title>Node8&#45;&gt;Node4</title>
<path fill="none" stroke="#9a32cd" stroke-dasharray="5,2" d="M1577.41,-282.21C1581.66,-281.46 1585.87,-280.72 1590,-280 1643.55,-270.68 1704.36,-260.74 1749.33,-253.51"/>
<polygon fill="#9a32cd" stroke="#9a32cd" points="1576.67,-278.79 1567.44,-283.99 1577.9,-285.68 1576.67,-278.79"/>
<text text-anchor="middle" x="1658.5" y="-296.4" font-family="Helvetica,sans-Serif" font-size="12.00"> rightColorbarAxisStyle</text>
<text text-anchor="middle" x="1658.5" y="-283.4" font-family="Helvetica,sans-Serif" font-size="12.00">topColorbarAxisStyle</text>
</g>
<!-- Node9 -->
<g id="node9" class="node">
<title>Node9</title>
<g id="a_node9"><a xlink:href="class_j_k_q_t_graphs_base_style.html" target="_top" xlink:title="Support Class for JKQTBasePlotter, which summarizes all properties that define the visual styling of ...">
<polygon fill="none" stroke="black" points="1402,-127.5 1402,-148.5 1548,-148.5 1548,-127.5 1402,-127.5"/>
<text text-anchor="middle" x="1475" y="-134.9" font-family="Helvetica,sans-Serif" font-size="12.00">JKQTGraphsBaseStyle</text>
</a>
</g>
</g>
<!-- Node9&#45;&gt;Node4 -->
<g id="edge9" class="edge">
<title>Node9&#45;&gt;Node4</title>
<path fill="none" stroke="#9a32cd" stroke-dasharray="5,2" d="M1558.44,-138.11C1608.91,-140.83 1673.79,-149.16 1727,-172 1760.13,-186.22 1791.12,-216.39 1806.1,-232.44"/>
<polygon fill="#9a32cd" stroke="#9a32cd" points="1558.38,-134.6 1548.23,-137.63 1558.05,-141.6 1558.38,-134.6"/>
<text text-anchor="middle" x="1658.5" y="-175.4" font-family="Helvetica,sans-Serif" font-size="12.00"> graphsStyle</text>
</g>
<!-- Node10 -->
<g id="node10" class="node">
<title>Node10</title>
<g id="a_node10"><a xlink:href="class_j_k_q_t_graphs_specific_style_properties.html" target="_top" xlink:title="Support Class for JKQTBasePlotter, which summarizes all properties that define the visual styling of ...">
<polygon fill="none" stroke="black" points="399,-60.5 399,-81.5 623,-81.5 623,-60.5 399,-60.5"/>
<text text-anchor="middle" x="511" y="-67.9" font-family="Helvetica,sans-Serif" font-size="12.00">JKQTGraphsSpecificStyleProperties</text>
</a>
</g>
</g>
<!-- Node10&#45;&gt;Node9 -->
<g id="edge10" class="edge">
<title>Node10&#45;&gt;Node9</title>
<path fill="none" stroke="#9a32cd" stroke-dasharray="5,2" d="M633.22,-69.92C739.33,-69.84 897.58,-71.82 1035,-82 1168.32,-91.88 1323.22,-114.2 1408.77,-127.48"/>
<polygon fill="#9a32cd" stroke="#9a32cd" points="633.11,-66.42 623.12,-69.93 633.12,-73.42 633.11,-66.42"/>
<text text-anchor="middle" x="948.5" y="-124.4" font-family="Helvetica,sans-Serif" font-size="12.00"> boxplotStyle</text>
<text text-anchor="middle" x="948.5" y="-111.4" font-family="Helvetica,sans-Serif" font-size="12.00">defaultGraphStyle</text>
<text text-anchor="middle" x="948.5" y="-98.4" font-family="Helvetica,sans-Serif" font-size="12.00">filledStyle</text>
<text text-anchor="middle" x="948.5" y="-85.4" font-family="Helvetica,sans-Serif" font-size="12.00">impulseStyle</text>
</g>
<!-- Node12 -->
<g id="node12" class="node">
<title>Node12</title>
<g id="a_node12"><a xlink:href="class_j_k_q_t_barchart_specific_style_properties.html" target="_top" xlink:title="Support Class for JKQTBasePlotter, which summarizes all properties that define the visual styling of ...">
<polygon fill="none" stroke="black" points="862,-13 862,-47 1035,-47 1035,-13 862,-13"/>
<text text-anchor="start" x="870" y="-33.4" font-family="Helvetica,sans-Serif" font-size="12.00">JKQTBarchartSpecificStyle</text>
<text text-anchor="middle" x="948.5" y="-20.4" font-family="Helvetica,sans-Serif" font-size="12.00">Properties</text>
</a>
</g>
</g>
<!-- Node10&#45;&gt;Node12 -->
<g id="edge13" class="edge">
<title>Node10&#45;&gt;Node12</title>
<path fill="none" stroke="midnightblue" d="M616.75,-59.45C624.95,-58.6 633.11,-57.78 641,-57 715.56,-49.67 800.42,-42.27 861.91,-37.07"/>
<polygon fill="midnightblue" stroke="midnightblue" points="616.32,-55.98 606.73,-60.5 617.04,-62.94 616.32,-55.98"/>
</g>
<!-- Node13 -->
<g id="node13" class="node">
<title>Node13</title>
<g id="a_node13"><a xlink:href="class_j_k_q_t_geometric_specific_style_properties.html" target="_top" xlink:title="Support Class for JKQTBasePlotter, which summarizes all properties that define the visual styling of ...">
<polygon fill="none" stroke="black" points="660,-121 660,-155 844,-155 844,-121 660,-121"/>
<text text-anchor="start" x="668" y="-141.4" font-family="Helvetica,sans-Serif" font-size="12.00">JKQTGeometricSpecificStyle</text>
<text text-anchor="middle" x="752" y="-128.4" font-family="Helvetica,sans-Serif" font-size="12.00">Properties</text>
</a>
</g>
</g>
<!-- Node10&#45;&gt;Node13 -->
<g id="edge15" class="edge">
<title>Node10&#45;&gt;Node13</title>
<path fill="none" stroke="midnightblue" d="M559.26,-84.25C596.69,-94.74 649.27,-109.48 689.9,-120.87"/>
<polygon fill="midnightblue" stroke="midnightblue" points="560.18,-80.87 549.61,-81.54 558.29,-87.61 560.18,-80.87"/>
</g>
<!-- Node11 -->
<g id="node11" class="node">
<title>Node11</title>
<g id="a_node11"><a xlink:href="struct_j_k_q_t_p_color_derivation_mode.html" target="_top" xlink:title="Specifies how a fill&#45;color is derived from a given color.">
<polygon fill="none" stroke="black" points="0,-60.5 0,-81.5 179,-81.5 179,-60.5 0,-60.5"/>
<text text-anchor="middle" x="89.5" y="-67.9" font-family="Helvetica,sans-Serif" font-size="12.00">JKQTPColorDerivationMode</text>
</a>
</g>
</g>
<!-- Node11&#45;&gt;Node10 -->
<g id="edge11" class="edge">
<title>Node11&#45;&gt;Node10</title>
<path fill="none" stroke="#9a32cd" stroke-dasharray="5,2" d="M189.53,-71C252.41,-71 333.9,-71 398.97,-71"/>
<polygon fill="#9a32cd" stroke="#9a32cd" points="189.21,-67.5 179.21,-71 189.21,-74.5 189.21,-67.5"/>
<text text-anchor="middle" x="289" y="-126.4" font-family="Helvetica,sans-Serif" font-size="12.00"> errorColorDerivationMode</text>
<text text-anchor="middle" x="289" y="-113.4" font-family="Helvetica,sans-Serif" font-size="12.00">errorFillColorDerivationMode</text>
<text text-anchor="middle" x="289" y="-100.4" font-family="Helvetica,sans-Serif" font-size="12.00">fillColorDerivationMode</text>
<text text-anchor="middle" x="289" y="-87.4" font-family="Helvetica,sans-Serif" font-size="12.00">graphColorDerivationMode</text>
<text text-anchor="middle" x="289" y="-74.4" font-family="Helvetica,sans-Serif" font-size="12.00">symbolFillColorDerivationMode</text>
</g>
<!-- Node12&#45;&gt;Node9 -->
<g id="edge12" class="edge">
<title>Node12&#45;&gt;Node9</title>
<path fill="none" stroke="#9a32cd" stroke-dasharray="5,2" d="M1045.35,-20.69C1130.78,-15.99 1257.73,-17.96 1360,-57 1402.64,-73.28 1444.13,-109.33 1463.17,-127.34"/>
<polygon fill="#9a32cd" stroke="#9a32cd" points="1044.92,-17.21 1035.15,-21.3 1045.34,-24.2 1044.92,-17.21"/>
<text text-anchor="middle" x="1148.5" y="-31.4" font-family="Helvetica,sans-Serif" font-size="12.00"> barchartStyle</text>
</g>
<!-- Node13&#45;&gt;Node9 -->
<g id="edge14" class="edge">
<title>Node13&#45;&gt;Node9</title>
<path fill="none" stroke="#9a32cd" stroke-dasharray="5,2" d="M854.74,-138C1002.5,-138 1272.9,-138 1401.86,-138"/>
<polygon fill="#9a32cd" stroke="#9a32cd" points="854.32,-134.5 844.32,-138 854.32,-141.5 854.32,-134.5"/>
<text text-anchor="middle" x="1148.5" y="-141.4" font-family="Helvetica,sans-Serif" font-size="12.00"> geometricStyle</text>
</g>
<!-- Node14 -->
<g id="node14" class="node">
<title>Node14</title>
<g id="a_node14"><a xlink:href="class_j_k_q_t_annotations_specific_style_properties.html" target="_top" xlink:title="Support Class for JKQTBasePlotter, which summarizes all properties that define the visual styling of ...">
<polygon fill="none" stroke="black" points="1053,-170 1053,-204 1244,-204 1244,-170 1053,-170"/>
<text text-anchor="start" x="1061" y="-190.4" font-family="Helvetica,sans-Serif" font-size="12.00">JKQTAnnotationsSpecificStyle</text>
<text text-anchor="middle" x="1148.5" y="-177.4" font-family="Helvetica,sans-Serif" font-size="12.00">Properties</text>
</a>
</g>
</g>
<!-- Node13&#45;&gt;Node14 -->
<g id="edge17" class="edge">
<title>Node13&#45;&gt;Node14</title>
<path fill="none" stroke="midnightblue" d="M854.33,-151.04C856.92,-151.36 859.47,-151.68 862,-152 925.67,-159.99 997.35,-168.78 1052.97,-175.55"/>
<polygon fill="midnightblue" stroke="midnightblue" points="854.65,-147.55 844.29,-149.76 853.77,-154.49 854.65,-147.55"/>
</g>
<!-- Node14&#45;&gt;Node9 -->
<g id="edge16" class="edge">
<title>Node14&#45;&gt;Node9</title>
<path fill="none" stroke="#9a32cd" stroke-dasharray="5,2" d="M1254.27,-171.18C1303.44,-163.75 1360.7,-155.11 1404.44,-148.5"/>
<polygon fill="#9a32cd" stroke="#9a32cd" points="1253.6,-167.74 1244.23,-172.7 1254.64,-174.66 1253.6,-167.74"/>
<text text-anchor="middle" x="1311" y="-172.4" font-family="Helvetica,sans-Serif" font-size="12.00"> annotationStyle</text>
</g>
<!-- Node15&#45;&gt;Node2 -->
<g id="edge18" class="edge">
<title>Node15&#45;&gt;Node2</title>
<path fill="none" stroke="#9a32cd" stroke-dasharray="5,2" d="M1861.16,-398.08C1900,-384.69 1957.54,-362.31 2003,-334 2034.46,-314.4 2065.92,-283.75 2081.48,-267.67"/>
<polygon fill="#9a32cd" stroke="#9a32cd" points="1859.56,-394.93 1851.22,-401.46 1861.81,-401.56 1859.56,-394.93"/>
<text text-anchor="middle" x="1954.5" y="-382.4" font-family="Helvetica,sans-Serif" font-size="12.00"> mathText</text>
</g>
<!-- Node16 -->
<g id="node16" class="node">
<title>Node16</title>
<g id="a_node16"><a xlink:href="class_j_k_q_t_math_text_node.html" target="_top" xlink:title="subclass representing one node in the syntax tree">
<polygon fill="none" stroke="black" points="2027,-413.5 2027,-434.5 2158,-434.5 2158,-413.5 2027,-413.5"/>
<text text-anchor="middle" x="2092.5" y="-420.9" font-family="Helvetica,sans-Serif" font-size="12.00">JKQTMathTextNode</text>
</a>
</g>
</g>
<!-- Node15&#45;&gt;Node16 -->
<g id="edge21" class="edge">
<title>Node15&#45;&gt;Node16</title>
<path fill="none" stroke="#9a32cd" stroke-dasharray="5,2" d="M1856.58,-425.54C1871.8,-430.15 1889.52,-434.72 1906,-437 1947.57,-442.76 1994.76,-439.32 2031.14,-434.53"/>
<polygon fill="#9a32cd" stroke="#9a32cd" points="1857.56,-422.18 1846.97,-422.53 1855.46,-428.86 1857.56,-422.18"/>
<text text-anchor="middle" x="1954.5" y="-443.4" font-family="Helvetica,sans-Serif" font-size="12.00"> parentMathText</text>
</g>
<!-- Node16&#45;&gt;Node15 -->
<g id="edge20" class="edge">
<title>Node16&#45;&gt;Node15</title>
<path fill="none" stroke="#9a32cd" stroke-dasharray="5,2" d="M2016.78,-420.73C1968.83,-418.63 1907.95,-415.96 1866.17,-414.13"/>
<polygon fill="#9a32cd" stroke="#9a32cd" points="2016.67,-424.23 2026.81,-421.17 2016.97,-417.23 2016.67,-424.23"/>
<text text-anchor="middle" x="1954.5" y="-423.4" font-family="Helvetica,sans-Serif" font-size="12.00"> parsedNode</text>
</g>
<!-- Node16&#45;&gt;Node16 -->
<g id="edge22" class="edge">
<title>Node16&#45;&gt;Node16</title>
<path fill="none" stroke="#9a32cd" stroke-dasharray="5,2" d="M2066.93,-444.06C2068.61,-449.16 2077.13,-453 2092.5,-453 2116.49,-453 2123.8,-443.65 2114.43,-434.71"/>
<polygon fill="#9a32cd" stroke="#9a32cd" points="2070.21,-445.3 2070.57,-434.71 2063.68,-442.76 2070.21,-445.3"/>
<text text-anchor="middle" x="2092.5" y="-456.4" font-family="Helvetica,sans-Serif" font-size="12.00"> parentNode</text>
</g>
<!-- Node17&#45;&gt;Node2 -->
<g id="edge23" class="edge">
<title>Node17&#45;&gt;Node2</title>
<path fill="none" stroke="#9a32cd" stroke-dasharray="5,2" d="M2354.4,-192.06C2305.84,-185.66 2238.45,-182.15 2182,-199 2150.84,-208.3 2120.46,-232.47 2104.68,-246.5"/>
<polygon fill="#9a32cd" stroke="#9a32cd" points="2354.07,-195.54 2364.46,-193.46 2355.04,-188.61 2354.07,-195.54"/>
<text text-anchor="middle" x="2238.5" y="-202.4" font-family="Helvetica,sans-Serif" font-size="12.00"> m_plotsModel</text>
</g>
<!-- Node18 -->
<g id="node18" class="node">
<title>Node18</title>
<g id="a_node18"><a xlink:title=" ">
<polygon fill="none" stroke="black" points="2021,-129.5 2021,-150.5 2164,-150.5 2164,-129.5 2021,-129.5"/>
<text text-anchor="middle" x="2092.5" y="-136.9" font-family="Helvetica,sans-Serif" font-size="12.00">QAbstractTableModel</text>
</a>
</g>
</g>
<!-- Node18&#45;&gt;Node17 -->
<g id="edge24" class="edge">
<title>Node18&#45;&gt;Node17</title>
<path fill="none" stroke="midnightblue" d="M2157.2,-152.51C2218.02,-164.45 2308.63,-182.23 2365.86,-193.47"/>
<polygon fill="midnightblue" stroke="midnightblue" points="2157.82,-149.06 2147.33,-150.57 2156.47,-155.93 2157.82,-149.06"/>
</g>
<!-- Node19 -->
<g id="node19" class="node">
<title>Node19</title>
<g id="a_node19"><a xlink:href="class_j_k_q_t_p_horizontal_axis.html" target="_top" xlink:title="implements a horizontal axis, based on JKQTPCoordinateAxis (for most of documentation: see JKQTPCoord...">
<polygon fill="none" stroke="black" points="2565,-294.5 2565,-315.5 2702,-315.5 2702,-294.5 2565,-294.5"/>
<text text-anchor="middle" x="2633.5" y="-301.9" font-family="Helvetica,sans-Serif" font-size="12.00">JKQTPHorizontalAxis</text>
</a>
</g>
</g>
<!-- Node19&#45;&gt;Node2 -->
<g id="edge26" class="edge">
<title>Node19&#45;&gt;Node2</title>
<path fill="none" stroke="#9a32cd" stroke-dasharray="5,2" d="M2554.67,-301.06C2464.72,-296.06 2312.34,-286.2 2182,-271 2171.49,-269.77 2160.32,-268.21 2149.59,-266.58"/>
<polygon fill="#9a32cd" stroke="#9a32cd" points="2554.61,-304.56 2564.79,-301.62 2555,-297.57 2554.61,-304.56"/>
<text text-anchor="middle" x="2420.5" y="-302.4" font-family="Helvetica,sans-Serif" font-size="12.00"> xAxis</text>
</g>
<!-- Node28 -->
<g id="node28" class="node">
<title>Node28</title>
<g id="a_node28"><a xlink:href="class_j_k_q_t_p_horizontal_independent_axis.html" target="_top" xlink:title="implements a position&#45;indipendent horizontal axis, based on JKQTPCoordinateAxis (for most of document...">
<polygon fill="none" stroke="black" points="2739,-291.5 2739,-312.5 2952,-312.5 2952,-291.5 2739,-291.5"/>
<text text-anchor="middle" x="2845.5" y="-298.9" font-family="Helvetica,sans-Serif" font-size="12.00">JKQTPHorizontalIndependentAxis</text>
</a>
</g>
</g>
<!-- Node19&#45;&gt;Node28 -->
<g id="edge43" class="edge">
<title>Node19&#45;&gt;Node28</title>
<path fill="none" stroke="midnightblue" d="M2712.17,-303.89C2720.87,-303.77 2729.83,-303.64 2738.8,-303.51"/>
<polygon fill="midnightblue" stroke="midnightblue" points="2712.05,-300.39 2702.1,-304.03 2712.15,-307.39 2712.05,-300.39"/>
</g>
<!-- Node20&#45;&gt;Node19 -->
<g id="edge27" class="edge">
<title>Node20&#45;&gt;Node19</title>
<path fill="none" stroke="midnightblue" d="M2501.47,-349.56C2516.73,-347.55 2532.47,-344.79 2547,-341 2570.07,-334.99 2595.04,-323.9 2612,-315.61"/>
<polygon fill="midnightblue" stroke="midnightblue" points="2501.02,-346.09 2491.52,-350.78 2501.88,-353.04 2501.02,-346.09"/>
</g>
<!-- Node21 -->
<g id="node21" class="node">
<title>Node21</title>
<g id="a_node21"><a xlink:href="class_j_k_q_t_p_vertical_axis.html" target="_top" xlink:title="implements a vertical axis, based on JKQTPCoordinateAxis (for most of documentation: see JKQTPCoordin...">
<polygon fill="none" stroke="black" points="2572.5,-249.5 2572.5,-270.5 2694.5,-270.5 2694.5,-249.5 2572.5,-249.5"/>
<text text-anchor="middle" x="2633.5" y="-256.9" font-family="Helvetica,sans-Serif" font-size="12.00">JKQTPVerticalAxis</text>
</a>
</g>
</g>
<!-- Node20&#45;&gt;Node21 -->
<g id="edge32" class="edge">
<title>Node20&#45;&gt;Node21</title>
<path fill="none" stroke="midnightblue" d="M2482.91,-341.5C2498.27,-336.66 2514.27,-330.29 2528,-322 2547.91,-309.98 2545.42,-297.55 2565,-285 2574.26,-279.07 2585.13,-274.26 2595.41,-270.5"/>
<polygon fill="midnightblue" stroke="midnightblue" points="2481.53,-338.26 2472.94,-344.47 2483.52,-344.97 2481.53,-338.26"/>
</g>
<!-- Node21&#45;&gt;Node2 -->
<g id="edge31" class="edge">
<title>Node21&#45;&gt;Node2</title>
<path fill="none" stroke="#9a32cd" stroke-dasharray="5,2" d="M2562.2,-259.61C2453.96,-259.01 2248.65,-257.86 2149.66,-257.31"/>
<polygon fill="#9a32cd" stroke="#9a32cd" points="2562.35,-263.11 2572.37,-259.67 2562.39,-256.11 2562.35,-263.11"/>
<text text-anchor="middle" x="2420.5" y="-262.4" font-family="Helvetica,sans-Serif" font-size="12.00"> yAxis</text>
</g>
<!-- Node27 -->
<g id="node27" class="node">
<title>Node27</title>
<g id="a_node27"><a xlink:href="class_j_k_q_t_p_vertical_independent_axis.html" target="_top" xlink:title="implements a position&#45;indipendent vertical axis, based on JKQTPCoordinateAxis (for most of documentat...">
<polygon fill="none" stroke="black" points="2747,-249.5 2747,-270.5 2944,-270.5 2944,-249.5 2747,-249.5"/>
<text text-anchor="middle" x="2845.5" y="-256.9" font-family="Helvetica,sans-Serif" font-size="12.00">JKQTPVerticalIndependentAxis</text>
</a>
</g>
</g>
<!-- Node21&#45;&gt;Node27 -->
<g id="edge41" class="edge">
<title>Node21&#45;&gt;Node27</title>
<path fill="none" stroke="midnightblue" d="M2704.78,-260C2718.22,-260 2732.52,-260 2746.65,-260"/>
<polygon fill="midnightblue" stroke="midnightblue" points="2704.68,-256.5 2694.68,-260 2704.68,-263.5 2704.68,-256.5"/>
</g>
<!-- Node22 -->
<g id="node22" class="node">
<title>Node22</title>
<g id="a_node22"><a xlink:href="class_j_k_q_t_p_datastore.html" target="_top" xlink:title="This class manages data columns (with entries of type double ), used by JKQTPlotter/JKQTBasePlotter t...">
<polygon fill="none" stroke="black" points="1761,-89.5 1761,-110.5 1872,-110.5 1872,-89.5 1761,-89.5"/>
<text text-anchor="middle" x="1816.5" y="-96.9" font-family="Helvetica,sans-Serif" font-size="12.00">JKQTPDatastore</text>
</a>
</g>
</g>
<!-- Node22&#45;&gt;Node2 -->
<g id="edge33" class="edge">
<title>Node22&#45;&gt;Node2</title>
<path fill="none" stroke="#9a32cd" stroke-dasharray="5,2" d="M1844.83,-115.66C1900.42,-147.51 2025.44,-219.15 2072.82,-246.29"/>
<polygon fill="#9a32cd" stroke="#9a32cd" points="1846.32,-112.48 1835.9,-110.54 1842.84,-118.55 1846.32,-112.48"/>
<text text-anchor="middle" x="1954.5" y="-209.4" font-family="Helvetica,sans-Serif" font-size="12.00"> datastore</text>
</g>
<!-- Node24 -->
<g id="node24" class="node">
<title>Node24</title>
<g id="a_node24"><a xlink:href="class_j_k_q_t_p_column.html" target="_top" xlink:title="internally stores information about one data column. See JKQTPDatastore for more information.">
<polygon fill="none" stroke="black" points="2043.5,-89.5 2043.5,-110.5 2141.5,-110.5 2141.5,-89.5 2043.5,-89.5"/>
<text text-anchor="middle" x="2092.5" y="-96.9" font-family="Helvetica,sans-Serif" font-size="12.00">JKQTPColumn</text>
</a>
</g>
</g>
<!-- Node22&#45;&gt;Node24 -->
<g id="edge36" class="edge">
<title>Node22&#45;&gt;Node24</title>
<path fill="none" stroke="#9a32cd" stroke-dasharray="5,2" d="M1882.54,-100C1931.87,-100 1998.58,-100 2043.22,-100"/>
<polygon fill="#9a32cd" stroke="#9a32cd" points="1882.29,-96.5 1872.29,-100 1882.29,-103.5 1882.29,-96.5"/>
<text text-anchor="middle" x="1954.5" y="-103.4" font-family="Helvetica,sans-Serif" font-size="12.00"> datastore</text>
</g>
<!-- Node23 -->
<g id="node23" class="node">
<title>Node23</title>
<g id="a_node23"><a xlink:title=" ">
<polygon fill="none" stroke="black" points="2313,-47.5 2313,-68.5 2528,-68.5 2528,-47.5 2313,-47.5"/>
<text text-anchor="middle" x="2420.5" y="-54.9" font-family="Helvetica,sans-Serif" font-size="12.00">std::unique_ptr&lt; JKQTPColumn &gt;</text>
</a>
</g>
</g>
<!-- Node23&#45;&gt;Node22 -->
<g id="edge34" class="edge">
<title>Node23&#45;&gt;Node22</title>
<path fill="none" stroke="#9a32cd" stroke-dasharray="5,2" d="M2302.66,-56.4C2223.11,-56.35 2115.5,-58.31 2021,-67 1969.32,-71.75 1910.9,-81.71 1869.95,-89.45"/>
<polygon fill="#9a32cd" stroke="#9a32cd" points="2302.71,-59.9 2312.71,-56.42 2302.72,-52.9 2302.71,-59.9"/>
<text text-anchor="middle" x="2092.5" y="-70.4" font-family="Helvetica,sans-Serif" font-size="12.00"> m_invalidColumn</text>
</g>
<!-- Node24&#45;&gt;Node23 -->
<g id="edge35" class="edge">
<title>Node24&#45;&gt;Node23</title>
<path fill="none" stroke="#9a32cd" stroke-dasharray="5,2" d="M2151.64,-92.51C2203.51,-85.83 2280.02,-75.97 2338,-68.5"/>
<polygon fill="#9a32cd" stroke="#9a32cd" points="2151.07,-89.05 2141.6,-93.8 2151.97,-96 2151.07,-89.05"/>
<text text-anchor="middle" x="2238.5" y="-90.4" font-family="Helvetica,sans-Serif" font-size="12.00"> ptr</text>
</g>
<!-- Node25 -->
<g id="node25" class="node">
<title>Node25</title>
<g id="a_node25"><a xlink:title=" ">
<polygon fill="none" stroke="black" points="2022.5,-0.5 2022.5,-21.5 2162.5,-21.5 2162.5,-0.5 2022.5,-0.5"/>
<text text-anchor="middle" x="2092.5" y="-7.9" font-family="Helvetica,sans-Serif" font-size="12.00">std::unique_ptr&lt; T &gt;</text>
</a>
</g>
</g>
<!-- Node25&#45;&gt;Node23 -->
<g id="edge37" class="edge">
<title>Node25&#45;&gt;Node23</title>
<path fill="none" stroke="orange" stroke-dasharray="5,2" d="M2173.04,-16.78C2210.21,-20.02 2255.01,-24.7 2295,-31 2322.42,-35.32 2352.88,-41.89 2376.8,-47.47"/>
<polygon fill="orange" stroke="orange" points="2173.02,-13.26 2162.76,-15.9 2172.43,-20.24 2173.02,-13.26"/>
<text text-anchor="middle" x="2238.5" y="-34.4" font-family="Helvetica,sans-Serif" font-size="12.00"> &lt; JKQTPColumn &gt;</text>
</g>
<!-- Node26 -->
<g id="node26" class="node">
<title>Node26</title>
<g id="a_node26"><a xlink:title=" ">
<polygon fill="none" stroke="black" points="1802,-0.5 1802,-21.5 1831,-21.5 1831,-0.5 1802,-0.5"/>
<text text-anchor="middle" x="1816.5" y="-7.9" font-family="Helvetica,sans-Serif" font-size="12.00">T</text>
</a>
</g>
</g>
<!-- Node26&#45;&gt;Node25 -->
<g id="edge38" class="edge">
<title>Node26&#45;&gt;Node25</title>
<path fill="none" stroke="#9a32cd" stroke-dasharray="5,2" d="M1841.17,-11C1881.06,-11 1963.14,-11 2022.46,-11"/>
<polygon fill="#9a32cd" stroke="#9a32cd" points="1841.09,-7.5 1831.09,-11 1841.09,-14.5 1841.09,-7.5"/>
<text text-anchor="middle" x="1954.5" y="-14.4" font-family="Helvetica,sans-Serif" font-size="12.00"> ptr</text>
</g>
<!-- Node27&#45;&gt;Node1 -->
<g id="edge40" class="edge">
<title>Node27&#45;&gt;Node1</title>
<path fill="none" stroke="#9a32cd" stroke-dasharray="5,2" d="M2954.31,-260C3000.62,-260 3054.05,-260 3097.92,-260"/>
<polygon fill="#9a32cd" stroke="#9a32cd" points="2954.24,-256.5 2944.24,-260 2954.24,-263.5 2954.24,-256.5"/>
<text text-anchor="middle" x="3025" y="-263.4" font-family="Helvetica,sans-Serif" font-size="12.00"> colorBarRightAxis</text>
</g>
<!-- Node28&#45;&gt;Node1 -->
<g id="edge42" class="edge">
<title>Node28&#45;&gt;Node1</title>
<path fill="none" stroke="#9a32cd" stroke-dasharray="5,2" d="M2962.11,-290.83C2999.75,-286.87 3041.7,-282.12 3080,-277 3085.82,-276.22 3091.81,-275.38 3097.85,-274.5"/>
<polygon fill="#9a32cd" stroke="#9a32cd" points="2961.71,-287.36 2952.13,-291.87 2962.43,-294.32 2961.71,-287.36"/>
<text text-anchor="middle" x="3025" y="-292.4" font-family="Helvetica,sans-Serif" font-size="12.00"> colorBarTopAxis</text>
</g>
</g>
</svg>
