<?xml version="1.0" encoding="UTF-8" standalone="no"?>
<!DOCTYPE svg PUBLIC "-//W3C//DTD SVG 1.1//EN"
 "http://www.w3.org/Graphics/SVG/1.1/DTD/svg11.dtd">
<!-- Generated by graphviz version 2.43.0 (0)
 -->
<!-- Title: JKQTPMathParser::jkmpNode Pages: 1 -->
<svg width="475pt" height="391pt"
 viewBox="0.00 0.00 475.00 390.50" xmlns="http://www.w3.org/2000/svg" xmlns:xlink="http://www.w3.org/1999/xlink">
<g id="graph0" class="graph" transform="scale(1 1) rotate(0) translate(4 386.5)">
<title>JKQTPMathParser::jkmpNode</title>
<!-- Node1 -->
<g id="node1" class="node">
<title>Node1</title>
<g id="a_node1"><a xlink:title="This class is the abstract base class for nodes. All allowed node types must inherit from jkmpNode.">
<polygon fill="#bfbfbf" stroke="black" points="0,-174.5 0,-195.5 188,-195.5 188,-174.5 0,-174.5"/>
<text text-anchor="middle" x="94" y="-181.9" font-family="Helvetica,sans-Serif" font-size="12.00">JKQTPMathParser::jkmpNode</text>
</a>
</g>
</g>
<!-- Node2 -->
<g id="node2" class="node">
<title>Node2</title>
<g id="a_node2"><a xlink:href="class_j_k_q_t_p_math_parser_1_1jkmp_binary_arithmetic_node.html" target="_top" xlink:title="This class represents a binary arithmetic operation: add (+), subtract (&#45;), multiply (*),...">
<polygon fill="none" stroke="black" points="248,-348 248,-382 443,-382 443,-348 248,-348"/>
<text text-anchor="start" x="256" y="-368.4" font-family="Helvetica,sans-Serif" font-size="12.00">JKQTPMathParser::jkmpBinary</text>
<text text-anchor="middle" x="345.5" y="-355.4" font-family="Helvetica,sans-Serif" font-size="12.00">ArithmeticNode</text>
</a>
</g>
</g>
<!-- Node1&#45;&gt;Node2 -->
<g id="edge1" class="edge">
<title>Node1&#45;&gt;Node2</title>
<path fill="none" stroke="midnightblue" d="M105.47,-204.44C124.42,-237.66 167.74,-305.05 224,-339 231.42,-343.48 239.51,-347.19 247.87,-350.27"/>
<polygon fill="midnightblue" stroke="midnightblue" points="108.5,-202.7 100.58,-195.67 102.39,-206.1 108.5,-202.7"/>
</g>
<!-- Node3 -->
<g id="node3" class="node">
<title>Node3</title>
<g id="a_node3"><a xlink:href="class_j_k_q_t_p_math_parser_1_1jkmp_binary_bool_node.html" target="_top" xlink:title="This class represents a binary boolean operation: and, or, xor, nor, nand.">
<polygon fill="none" stroke="black" points="248,-295 248,-329 443,-329 443,-295 248,-295"/>
<text text-anchor="start" x="256" y="-315.4" font-family="Helvetica,sans-Serif" font-size="12.00">JKQTPMathParser::jkmpBinary</text>
<text text-anchor="middle" x="345.5" y="-302.4" font-family="Helvetica,sans-Serif" font-size="12.00">BoolNode</text>
</a>
</g>
</g>
<!-- Node1&#45;&gt;Node3 -->
<g id="edge2" class="edge">
<title>Node1&#45;&gt;Node3</title>
<path fill="none" stroke="midnightblue" d="M112.68,-202.92C136.06,-225.56 179.51,-264.06 224,-285 232.15,-288.83 240.86,-292.14 249.75,-294.98"/>
<polygon fill="midnightblue" stroke="midnightblue" points="114.86,-200.16 105.28,-195.64 109.95,-205.15 114.86,-200.16"/>
</g>
<!-- Node4 -->
<g id="node4" class="node">
<title>Node4</title>
<g id="a_node4"><a xlink:href="class_j_k_q_t_p_math_parser_1_1jkmp_compare_node.html" target="_top" xlink:title="This class represents a binary compare operation: !=, ==, &gt;=, &lt;=, &gt;, &lt;.">
<polygon fill="none" stroke="black" points="224,-254.5 224,-275.5 467,-275.5 467,-254.5 224,-254.5"/>
<text text-anchor="middle" x="345.5" y="-261.9" font-family="Helvetica,sans-Serif" font-size="12.00">JKQTPMathParser::jkmpCompareNode</text>
</a>
</g>
</g>
<!-- Node1&#45;&gt;Node4 -->
<g id="edge3" class="edge">
<title>Node1&#45;&gt;Node4</title>
<path fill="none" stroke="midnightblue" d="M122.67,-200.56C148.21,-214.26 187.59,-233.74 224,-245 236.26,-248.79 249.45,-251.91 262.45,-254.45"/>
<polygon fill="midnightblue" stroke="midnightblue" points="124.05,-197.32 113.59,-195.62 120.7,-203.47 124.05,-197.32"/>
</g>
<!-- Node5 -->
<g id="node5" class="node">
<title>Node5</title>
<g id="a_node5"><a xlink:href="class_j_k_q_t_p_math_parser_1_1jkmp_constant_node.html" target="_top" xlink:title="This class represents a number, a string contant or a boolean contant (true/false)">
<polygon fill="none" stroke="black" points="224.5,-214.5 224.5,-235.5 466.5,-235.5 466.5,-214.5 224.5,-214.5"/>
<text text-anchor="middle" x="345.5" y="-221.9" font-family="Helvetica,sans-Serif" font-size="12.00">JKQTPMathParser::jkmpConstantNode</text>
</a>
</g>
</g>
<!-- Node1&#45;&gt;Node5 -->
<g id="edge4" class="edge">
<title>Node1&#45;&gt;Node5</title>
<path fill="none" stroke="midnightblue" d="M170.6,-197.12C205.16,-202.66 245.71,-209.16 278.95,-214.49"/>
<polygon fill="midnightblue" stroke="midnightblue" points="170.98,-193.64 160.55,-195.51 169.87,-200.55 170.98,-193.64"/>
</g>
<!-- Node6 -->
<g id="node6" class="node">
<title>Node6</title>
<g id="a_node6"><a xlink:href="class_j_k_q_t_p_math_parser_1_1jkmp_function_node.html" target="_top" xlink:title="This class represents an arbitrary function.">
<polygon fill="none" stroke="black" points="226,-174.5 226,-195.5 465,-195.5 465,-174.5 226,-174.5"/>
<text text-anchor="middle" x="345.5" y="-181.9" font-family="Helvetica,sans-Serif" font-size="12.00">JKQTPMathParser::jkmpFunctionNode</text>
</a>
</g>
</g>
<!-- Node1&#45;&gt;Node6 -->
<g id="edge5" class="edge">
<title>Node1&#45;&gt;Node6</title>
<path fill="none" stroke="midnightblue" d="M198.34,-185C207.33,-185 216.47,-185 225.58,-185"/>
<polygon fill="midnightblue" stroke="midnightblue" points="198.26,-181.5 188.26,-185 198.26,-188.5 198.26,-181.5"/>
</g>
<!-- Node7 -->
<g id="node7" class="node">
<title>Node7</title>
<g id="a_node7"><a xlink:href="class_j_k_q_t_p_math_parser_1_1jkmp_node_list.html" target="_top" xlink:title="This class represents a list of jkmpNode.">
<polygon fill="none" stroke="black" points="241,-134.5 241,-155.5 450,-155.5 450,-134.5 241,-134.5"/>
<text text-anchor="middle" x="345.5" y="-141.9" font-family="Helvetica,sans-Serif" font-size="12.00">JKQTPMathParser::jkmpNodeList</text>
</a>
</g>
</g>
<!-- Node1&#45;&gt;Node7 -->
<g id="edge6" class="edge">
<title>Node1&#45;&gt;Node7</title>
<path fill="none" stroke="midnightblue" d="M170.6,-172.88C205.16,-167.34 245.71,-160.84 278.95,-155.51"/>
<polygon fill="midnightblue" stroke="midnightblue" points="169.87,-169.45 160.55,-174.49 170.98,-176.36 169.87,-169.45"/>
</g>
<!-- Node8 -->
<g id="node8" class="node">
<title>Node8</title>
<g id="a_node8"><a xlink:href="class_j_k_q_t_p_math_parser_1_1jkmp_unary_node.html" target="_top" xlink:title="This class represents a unary operations: ! (bool negation), &#45; (arithmetic negation)">
<polygon fill="none" stroke="black" points="233.5,-94.5 233.5,-115.5 457.5,-115.5 457.5,-94.5 233.5,-94.5"/>
<text text-anchor="middle" x="345.5" y="-101.9" font-family="Helvetica,sans-Serif" font-size="12.00">JKQTPMathParser::jkmpUnaryNode</text>
</a>
</g>
</g>
<!-- Node1&#45;&gt;Node8 -->
<g id="edge7" class="edge">
<title>Node1&#45;&gt;Node8</title>
<path fill="none" stroke="midnightblue" d="M122.67,-169.44C148.21,-155.74 187.59,-136.26 224,-125 236.26,-121.21 249.45,-118.09 262.45,-115.55"/>
<polygon fill="midnightblue" stroke="midnightblue" points="120.7,-166.53 113.59,-174.38 124.05,-172.68 120.7,-166.53"/>
</g>
<!-- Node9 -->
<g id="node9" class="node">
<title>Node9</title>
<g id="a_node9"><a xlink:href="class_j_k_q_t_p_math_parser_1_1jkmp_variable_assign_node.html" target="_top" xlink:title="This class represents a variable assignment (a = expression)">
<polygon fill="none" stroke="black" points="242.5,-41 242.5,-75 448.5,-75 448.5,-41 242.5,-41"/>
<text text-anchor="start" x="250.5" y="-61.4" font-family="Helvetica,sans-Serif" font-size="12.00">JKQTPMathParser::jkmpVariable</text>
<text text-anchor="middle" x="345.5" y="-48.4" font-family="Helvetica,sans-Serif" font-size="12.00">AssignNode</text>
</a>
</g>
</g>
<!-- Node1&#45;&gt;Node9 -->
<g id="edge8" class="edge">
<title>Node1&#45;&gt;Node9</title>
<path fill="none" stroke="midnightblue" d="M112.68,-167.08C136.06,-144.44 179.51,-105.94 224,-85 232.15,-81.17 240.86,-77.86 249.75,-75.02"/>
<polygon fill="midnightblue" stroke="midnightblue" points="109.95,-164.85 105.28,-174.36 114.86,-169.84 109.95,-164.85"/>
</g>
<!-- Node10 -->
<g id="node10" class="node">
<title>Node10</title>
<g id="a_node10"><a xlink:href="class_j_k_q_t_p_math_parser_1_1jkmp_variable_node.html" target="_top" xlink:title="This class represents a variable.">
<polygon fill="none" stroke="black" points="227,-0.5 227,-21.5 464,-21.5 464,-0.5 227,-0.5"/>
<text text-anchor="middle" x="345.5" y="-7.9" font-family="Helvetica,sans-Serif" font-size="12.00">JKQTPMathParser::jkmpVariableNode</text>
</a>
</g>
</g>
<!-- Node1&#45;&gt;Node10 -->
<g id="edge9" class="edge">
<title>Node1&#45;&gt;Node10</title>
<path fill="none" stroke="midnightblue" d="M105.36,-165.45C124.16,-132.09 167.24,-64.61 224,-32 231.37,-27.77 239.37,-24.35 247.64,-21.59"/>
<polygon fill="midnightblue" stroke="midnightblue" points="102.26,-163.82 100.51,-174.27 108.4,-167.19 102.26,-163.82"/>
</g>
</g>
</svg>
