<?xml version="1.0" encoding="UTF-8" standalone="no"?>
<!DOCTYPE svg PUBLIC "-//W3C//DTD SVG 1.1//EN"
 "http://www.w3.org/Graphics/SVG/1.1/DTD/svg11.dtd">
<!-- Generated by graphviz version 2.43.0 (0)
 -->
<!-- Title: JKQTMathTextNonDrawingBaseNode Pages: 1 -->
<svg width="427pt" height="101pt"
 viewBox="0.00 0.00 427.00 101.00" xmlns="http://www.w3.org/2000/svg" xmlns:xlink="http://www.w3.org/1999/xlink">
<g id="graph0" class="graph" transform="scale(1 1) rotate(0) translate(4 97)">
<title>JKQTMathTextNonDrawingBaseNode</title>
<!-- Node1 -->
<g id="node1" class="node">
<title>Node1</title>
<g id="a_node1"><a xlink:title="base class for all derived classes that do not draw anything">
<polygon fill="#bfbfbf" stroke="black" points="0,-0.5 0,-21.5 233,-21.5 233,-0.5 0,-0.5"/>
<text text-anchor="middle" x="116.5" y="-7.9" font-family="Helvetica,sans-Serif" font-size="12.00">JKQTMathTextNonDrawingBaseNode</text>
</a>
</g>
</g>
<!-- Node2 -->
<g id="node2" class="node">
<title>Node2</title>
<g id="a_node2"><a xlink:href="class_j_k_q_t_math_text_node.html" target="_top" xlink:title="subclass representing one node in the syntax tree">
<polygon fill="none" stroke="black" points="109,-71.5 109,-92.5 240,-92.5 240,-71.5 109,-71.5"/>
<text text-anchor="middle" x="174.5" y="-78.9" font-family="Helvetica,sans-Serif" font-size="12.00">JKQTMathTextNode</text>
</a>
</g>
</g>
<!-- Node2&#45;&gt;Node1 -->
<g id="edge1" class="edge">
<title>Node2&#45;&gt;Node1</title>
<path fill="none" stroke="midnightblue" d="M159.72,-63.41C148.52,-50.09 133.56,-32.29 124.5,-21.51"/>
<polygon fill="midnightblue" stroke="midnightblue" points="157.32,-66 166.44,-71.41 162.68,-61.5 157.32,-66"/>
</g>
<!-- Node2&#45;&gt;Node2 -->
<g id="edge5" class="edge">
<title>Node2&#45;&gt;Node2</title>
<path fill="none" stroke="#9a32cd" stroke-dasharray="5,2" d="M250.52,-86.44C255.19,-85.39 258,-83.91 258,-82 258,-78.95 250.81,-76.99 240.31,-76.13"/>
<polygon fill="#9a32cd" stroke="#9a32cd" points="249.73,-83.02 240.31,-87.87 250.7,-89.95 249.73,-83.02"/>
<text text-anchor="middle" x="295.5" y="-78.9" font-family="Helvetica,sans-Serif" font-size="12.00"> parentNode</text>
</g>
<!-- Node3 -->
<g id="node3" class="node">
<title>Node3</title>
<g id="a_node3"><a xlink:href="class_j_k_q_t_math_text.html" target="_top" xlink:title="this class parses a mathematical markup string and can then draw the contained text/equation onto a Q...">
<polygon fill="none" stroke="black" points="251,-0.5 251,-21.5 350,-21.5 350,-0.5 251,-0.5"/>
<text text-anchor="middle" x="300.5" y="-7.9" font-family="Helvetica,sans-Serif" font-size="12.00">JKQTMathText</text>
</a>
</g>
</g>
<!-- Node2&#45;&gt;Node3 -->
<g id="edge4" class="edge">
<title>Node2&#45;&gt;Node3</title>
<path fill="none" stroke="#9a32cd" stroke-dasharray="5,2" d="M167.78,-61.62C166.44,-54.14 166.69,-45.97 171.5,-40 174.13,-36.74 215.71,-28.09 250.97,-21.26"/>
<polygon fill="#9a32cd" stroke="#9a32cd" points="164.44,-62.68 170.41,-71.43 171.2,-60.87 164.44,-62.68"/>
<text text-anchor="middle" x="210" y="-43.4" font-family="Helvetica,sans-Serif" font-size="12.00"> parsedNode</text>
</g>
<!-- Node3&#45;&gt;Node2 -->
<g id="edge2" class="edge">
<title>Node3&#45;&gt;Node2</title>
<path fill="none" stroke="#9a32cd" stroke-dasharray="5,2" d="M284.1,-28.63C275.31,-36.83 263.97,-46.35 252.5,-53 239.18,-60.73 223.37,-66.89 209.48,-71.44"/>
<polygon fill="#9a32cd" stroke="#9a32cd" points="286.61,-31.07 291.37,-21.6 281.75,-26.04 286.61,-31.07"/>
<text text-anchor="middle" x="319" y="-43.4" font-family="Helvetica,sans-Serif" font-size="12.00"> parentMathText</text>
</g>
<!-- Node4 -->
<g id="node4" class="node">
<title>Node4</title>
<g id="a_node4"><a xlink:title=" ">
<polygon fill="none" stroke="black" points="354,-71.5 354,-92.5 419,-92.5 419,-71.5 354,-71.5"/>
<text text-anchor="middle" x="386.5" y="-78.9" font-family="Helvetica,sans-Serif" font-size="12.00">QObject</text>
</a>
</g>
</g>
<!-- Node4&#45;&gt;Node3 -->
<g id="edge3" class="edge">
<title>Node4&#45;&gt;Node3</title>
<path fill="none" stroke="midnightblue" d="M383.48,-61.49C381.45,-53.98 378.09,-45.83 372.5,-40 364.52,-31.68 353.77,-25.78 343.02,-21.63"/>
<polygon fill="midnightblue" stroke="midnightblue" points="380.06,-62.27 385.53,-71.35 386.92,-60.84 380.06,-62.27"/>
</g>
</g>
</svg>
