<?xml version="1.0" encoding="UTF-8" standalone="no"?>
<!DOCTYPE svg PUBLIC "-//W3C//DTD SVG 1.1//EN"
 "http://www.w3.org/Graphics/SVG/1.1/DTD/svg11.dtd">
<!-- Generated by graphviz version 2.43.0 (0)
 -->
<!-- Title: JKQTBasePlotterStyle Pages: 1 -->
<svg width="1986pt" height="324pt"
 viewBox="0.00 0.00 1986.00 323.50" xmlns="http://www.w3.org/2000/svg" xmlns:xlink="http://www.w3.org/1999/xlink">
<g id="graph0" class="graph" transform="scale(1 1) rotate(0) translate(4 319.5)">
<title>JKQTBasePlotterStyle</title>
<!-- Node1 -->
<g id="Node000001" class="node">
<title>Node1</title>
<g id="a_Node000001"><a xlink:title="Support Class for JKQTBasePlotter, which summarizes all properties that define the visual styling of ...">
<polygon fill="#999999" stroke="#666666" points="1978,-239.5 1835,-239.5 1835,-218.5 1978,-218.5 1978,-239.5"/>
<text text-anchor="middle" x="1906.5" y="-225.9" font-family="Helvetica,sans-Serif" font-size="12.00">JKQTBasePlotterStyle</text>
</a>
</g>
</g>
<!-- Node2 -->
<g id="Node000002" class="node">
<title>Node2</title>
<g id="a_Node000002"><a xlink:href="class_j_k_q_t_p_key_style.html" target="_top" xlink:title="Support Class for JKQTBasePlotter, which summarizes all properties that define the visual styling of ...">
<polygon fill="white" stroke="#666666" points="1617,-315.5 1513,-315.5 1513,-294.5 1617,-294.5 1617,-315.5"/>
<text text-anchor="middle" x="1565" y="-301.9" font-family="Helvetica,sans-Serif" font-size="12.00">JKQTPKeyStyle</text>
</a>
</g>
</g>
<!-- Node2&#45;&gt;Node1 -->
<g id="edge1_Node000001_Node000002" class="edge">
<title>Node2&#45;&gt;Node1</title>
<g id="a_edge1_Node000001_Node000002"><a xlink:title=" ">
<path fill="none" stroke="#9a32cd" stroke-dasharray="5,2" d="M1627.11,-298.74C1678.42,-292.6 1753.36,-281.56 1817,-264 1839.94,-257.67 1865.07,-247.39 1882.67,-239.6"/>
<polygon fill="#9a32cd" stroke="#9a32cd" points="1626.69,-295.26 1617.17,-299.9 1627.51,-302.21 1626.69,-295.26"/>
</a>
</g>
<text text-anchor="middle" x="1748.5" y="-294.4" font-family="Helvetica,sans-Serif" font-size="12.00" fill="grey"> keyStyle</text>
</g>
<!-- Node3 -->
<g id="Node000003" class="node">
<title>Node3</title>
<g id="a_Node000003"><a xlink:href="class_j_k_q_t_p_coordinate_axis_style.html" target="_top" xlink:title="Support Class for JKQTPCoordinateAxis, which summarizes all properties that define the visual styling...">
<polygon fill="white" stroke="#666666" points="1324,-256.5 1153,-256.5 1153,-235.5 1324,-235.5 1324,-256.5"/>
<text text-anchor="middle" x="1238.5" y="-242.9" font-family="Helvetica,sans-Serif" font-size="12.00">JKQTPCoordinateAxisStyle</text>
</a>
</g>
</g>
<!-- Node3&#45;&gt;Node1 -->
<g id="edge2_Node000001_Node000003" class="edge">
<title>Node3&#45;&gt;Node1</title>
<g id="a_edge2_Node000001_Node000003"><a xlink:title=" ">
<path fill="none" stroke="#9a32cd" stroke-dasharray="5,2" d="M1334.33,-246.15C1448.8,-245.91 1647.1,-244.18 1817,-236 1822.85,-235.72 1828.91,-235.37 1835,-234.97"/>
<polygon fill="#9a32cd" stroke="#9a32cd" points="1334.19,-242.65 1324.2,-246.16 1334.21,-249.65 1334.19,-242.65"/>
</a>
</g>
<text text-anchor="middle" x="1565" y="-261.4" font-family="Helvetica,sans-Serif" font-size="12.00" fill="grey"> xAxisStyle</text>
<text text-anchor="middle" x="1565" y="-248.4" font-family="Helvetica,sans-Serif" font-size="12.00" fill="grey">yAxisStyle</text>
</g>
<!-- Node5 -->
<g id="Node000005" class="node">
<title>Node5</title>
<g id="a_Node000005"><a xlink:href="class_j_k_q_t_p_colorbar_coordinate_axis_style.html" target="_top" xlink:title="Support Class for JKQTPCoordinateAxis, which summarizes all properties that define the visual styling...">
<polygon fill="white" stroke="#666666" points="1662,-214 1468,-214 1468,-180 1662,-180 1662,-214"/>
<text text-anchor="start" x="1476" y="-200.4" font-family="Helvetica,sans-Serif" font-size="12.00">JKQTPColorbarCoordinateAxis</text>
<text text-anchor="middle" x="1565" y="-187.4" font-family="Helvetica,sans-Serif" font-size="12.00">Style</text>
</a>
</g>
</g>
<!-- Node3&#45;&gt;Node5 -->
<g id="edge5_Node000005_Node000003" class="edge">
<title>Node3&#45;&gt;Node5</title>
<g id="a_edge5_Node000005_Node000003"><a xlink:title=" ">
<path fill="none" stroke="#63b8ff" d="M1319.09,-233.98C1363.97,-227.2 1420.37,-218.69 1467.73,-211.54"/>
<polygon fill="#63b8ff" stroke="#63b8ff" points="1318.48,-230.53 1309.11,-235.49 1319.52,-237.46 1318.48,-230.53"/>
</a>
</g>
</g>
<!-- Node4 -->
<g id="Node000004" class="node">
<title>Node4</title>
<g id="a_Node000004"><a xlink:href="class_j_k_q_t_p_grid_style.html" target="_top" xlink:title="Support Class for JKQTPCoordinateAxis, and summarizes all properties that define the visual styling o...">
<polygon fill="white" stroke="#666666" points="895.5,-256.5 788.5,-256.5 788.5,-235.5 895.5,-235.5 895.5,-256.5"/>
<text text-anchor="middle" x="842" y="-242.9" font-family="Helvetica,sans-Serif" font-size="12.00">JKQTPGridStyle</text>
</a>
</g>
</g>
<!-- Node4&#45;&gt;Node3 -->
<g id="edge3_Node000003_Node000004" class="edge">
<title>Node4&#45;&gt;Node3</title>
<g id="a_edge3_Node000003_Node000004"><a xlink:title=" ">
<path fill="none" stroke="#9a32cd" stroke-dasharray="5,2" d="M906.18,-246C973.03,-246 1078.9,-246 1152.92,-246"/>
<polygon fill="#9a32cd" stroke="#9a32cd" points="905.79,-242.5 895.79,-246 905.79,-249.5 905.79,-242.5"/>
</a>
</g>
<text text-anchor="middle" x="1038.5" y="-262.4" font-family="Helvetica,sans-Serif" font-size="12.00" fill="grey"> majorGridStyle</text>
<text text-anchor="middle" x="1038.5" y="-249.4" font-family="Helvetica,sans-Serif" font-size="12.00" fill="grey">minorGridStyle</text>
</g>
<!-- Node5&#45;&gt;Node1 -->
<g id="edge4_Node000001_Node000005" class="edge">
<title>Node5&#45;&gt;Node1</title>
<g id="a_edge4_Node000001_Node000005"><a xlink:title=" ">
<path fill="none" stroke="#9a32cd" stroke-dasharray="5,2" d="M1672.3,-198.75C1717.12,-200.46 1769.75,-203.74 1817,-210 1832.11,-212 1848.48,-215.21 1862.98,-218.43"/>
<polygon fill="#9a32cd" stroke="#9a32cd" points="1672.4,-195.25 1662.28,-198.39 1672.14,-202.25 1672.4,-195.25"/>
</a>
</g>
<text text-anchor="middle" x="1748.5" y="-226.4" font-family="Helvetica,sans-Serif" font-size="12.00" fill="grey"> rightColorbarAxisStyle</text>
<text text-anchor="middle" x="1748.5" y="-213.4" font-family="Helvetica,sans-Serif" font-size="12.00" fill="grey">topColorbarAxisStyle</text>
</g>
<!-- Node6 -->
<g id="Node000006" class="node">
<title>Node6</title>
<g id="a_Node000006"><a xlink:href="class_j_k_q_t_graphs_base_style.html" target="_top" xlink:title="Support Class for JKQTBasePlotter, which summarizes all properties that define the visual styling of ...">
<polygon fill="white" stroke="#666666" points="1638,-132.5 1492,-132.5 1492,-111.5 1638,-111.5 1638,-132.5"/>
<text text-anchor="middle" x="1565" y="-118.9" font-family="Helvetica,sans-Serif" font-size="12.00">JKQTGraphsBaseStyle</text>
</a>
</g>
</g>
<!-- Node6&#45;&gt;Node1 -->
<g id="edge6_Node000001_Node000006" class="edge">
<title>Node6&#45;&gt;Node1</title>
<g id="a_edge6_Node000001_Node000006"><a xlink:title=" ">
<path fill="none" stroke="#9a32cd" stroke-dasharray="5,2" d="M1639.13,-134.4C1690,-144.24 1758.85,-160.02 1817,-182 1843.2,-191.9 1871.45,-207.94 1888.81,-218.48"/>
<polygon fill="#9a32cd" stroke="#9a32cd" points="1639.69,-130.94 1629.21,-132.51 1638.38,-137.82 1639.69,-130.94"/>
</a>
</g>
<text text-anchor="middle" x="1748.5" y="-185.4" font-family="Helvetica,sans-Serif" font-size="12.00" fill="grey"> graphsStyle</text>
</g>
<!-- Node7 -->
<g id="Node000007" class="node">
<title>Node7</title>
<g id="a_Node000007"><a xlink:href="class_j_k_q_t_graphs_specific_style_properties.html" target="_top" xlink:title="Support Class for JKQTBasePlotter, which summarizes all properties that define the visual styling of ...">
<polygon fill="white" stroke="#666666" points="623,-93.5 399,-93.5 399,-72.5 623,-72.5 623,-93.5"/>
<text text-anchor="middle" x="511" y="-79.9" font-family="Helvetica,sans-Serif" font-size="12.00">JKQTGraphsSpecificStyleProperties</text>
</a>
</g>
</g>
<!-- Node7&#45;&gt;Node6 -->
<g id="edge7_Node000006_Node000007" class="edge">
<title>Node7&#45;&gt;Node6</title>
<g id="a_edge7_Node000006_Node000007"><a xlink:title=" ">
<path fill="none" stroke="#9a32cd" stroke-dasharray="5,2" d="M633.28,-87.71C635.88,-87.81 638.45,-87.9 641,-88 958.07,-99.98 1336.43,-113.76 1491.9,-119.39"/>
<polygon fill="#9a32cd" stroke="#9a32cd" points="633.3,-84.21 623.18,-87.32 633.04,-91.2 633.3,-84.21"/>
</a>
</g>
<text text-anchor="middle" x="1038.5" y="-135.4" font-family="Helvetica,sans-Serif" font-size="12.00" fill="grey"> boxplotStyle</text>
<text text-anchor="middle" x="1038.5" y="-122.4" font-family="Helvetica,sans-Serif" font-size="12.00" fill="grey">defaultGraphStyle</text>
<text text-anchor="middle" x="1038.5" y="-109.4" font-family="Helvetica,sans-Serif" font-size="12.00" fill="grey">filledStyle</text>
</g>
<!-- Node9 -->
<g id="Node000009" class="node">
<title>Node9</title>
<g id="a_Node000009"><a xlink:href="class_j_k_q_t_barchart_specific_style_properties.html" target="_top" xlink:title="Support Class for JKQTBasePlotter, which summarizes all properties that define the visual styling of ...">
<polygon fill="white" stroke="#666666" points="1125,-78 952,-78 952,-44 1125,-44 1125,-78"/>
<text text-anchor="start" x="960" y="-64.4" font-family="Helvetica,sans-Serif" font-size="12.00">JKQTBarchartSpecificStyle</text>
<text text-anchor="middle" x="1038.5" y="-51.4" font-family="Helvetica,sans-Serif" font-size="12.00">Properties</text>
</a>
</g>
</g>
<!-- Node7&#45;&gt;Node9 -->
<g id="edge10_Node000009_Node000007" class="edge">
<title>Node7&#45;&gt;Node9</title>
<g id="a_edge10_Node000009_Node000007"><a xlink:title=" ">
<path fill="none" stroke="#63b8ff" d="M633.32,-77.92C730.73,-73.84 865.09,-68.22 951.64,-64.59"/>
<polygon fill="#63b8ff" stroke="#63b8ff" points="632.97,-74.43 623.12,-78.35 633.26,-81.43 632.97,-74.43"/>
</a>
</g>
</g>
<!-- Node10 -->
<g id="Node000010" class="node">
<title>Node10</title>
<g id="a_Node000010"><a xlink:href="class_j_k_q_t_impulse_specific_style_properties.html" target="_top" xlink:title="Support Class for JKQTBasePlotter, which summarizes all properties that define the visual styling of ...">
<polygon fill="white" stroke="#666666" points="1122.5,-34 954.5,-34 954.5,0 1122.5,0 1122.5,-34"/>
<text text-anchor="start" x="962.5" y="-20.4" font-family="Helvetica,sans-Serif" font-size="12.00">JKQTImpulseSpecificStyle</text>
<text text-anchor="middle" x="1038.5" y="-7.4" font-family="Helvetica,sans-Serif" font-size="12.00">Properties</text>
</a>
</g>
</g>
<!-- Node7&#45;&gt;Node10 -->
<g id="edge12_Node000010_Node000007" class="edge">
<title>Node7&#45;&gt;Node10</title>
<g id="a_edge12_Node000010_Node000007"><a xlink:title=" ">
<path fill="none" stroke="#63b8ff" d="M605.85,-71.21C704.92,-58.77 859.58,-39.35 954.38,-27.44"/>
<polygon fill="#63b8ff" stroke="#63b8ff" points="605.33,-67.75 595.85,-72.47 606.21,-74.7 605.33,-67.75"/>
</a>
</g>
</g>
<!-- Node11 -->
<g id="Node000011" class="node">
<title>Node11</title>
<g id="a_Node000011"><a xlink:href="class_j_k_q_t_geometric_specific_style_properties.html" target="_top" xlink:title="Support Class for JKQTBasePlotter, which summarizes all properties that define the visual styling of ...">
<polygon fill="white" stroke="#666666" points="934,-176 750,-176 750,-142 934,-142 934,-176"/>
<text text-anchor="start" x="758" y="-162.4" font-family="Helvetica,sans-Serif" font-size="12.00">JKQTGeometricSpecificStyle</text>
<text text-anchor="middle" x="842" y="-149.4" font-family="Helvetica,sans-Serif" font-size="12.00">Properties</text>
</a>
</g>
</g>
<!-- Node7&#45;&gt;Node11 -->
<g id="edge14_Node000011_Node000007" class="edge">
<title>Node7&#45;&gt;Node11</title>
<g id="a_edge14_Node000011_Node000007"><a xlink:title=" ">
<path fill="none" stroke="#63b8ff" d="M566.95,-95.81C589.84,-101.14 616.7,-107.38 641,-113 682.48,-122.59 728.82,-133.25 766.43,-141.9"/>
<polygon fill="#63b8ff" stroke="#63b8ff" points="567.6,-92.37 557.07,-93.51 566.01,-99.19 567.6,-92.37"/>
</a>
</g>
</g>
<!-- Node8 -->
<g id="Node000008" class="node">
<title>Node8</title>
<g id="a_Node000008"><a xlink:href="struct_j_k_q_t_p_color_derivation_mode.html" target="_top" xlink:title="Specifies how a fill&#45;color is derived from a given color.">
<polygon fill="white" stroke="#666666" points="179,-93.5 0,-93.5 0,-72.5 179,-72.5 179,-93.5"/>
<text text-anchor="middle" x="89.5" y="-79.9" font-family="Helvetica,sans-Serif" font-size="12.00">JKQTPColorDerivationMode</text>
</a>
</g>
</g>
<!-- Node8&#45;&gt;Node7 -->
<g id="edge8_Node000007_Node000008" class="edge">
<title>Node8&#45;&gt;Node7</title>
<g id="a_edge8_Node000007_Node000008"><a xlink:title=" ">
<path fill="none" stroke="#9a32cd" stroke-dasharray="5,2" d="M189.53,-83C252.41,-83 333.9,-83 398.97,-83"/>
<polygon fill="#9a32cd" stroke="#9a32cd" points="189.21,-79.5 179.21,-83 189.21,-86.5 189.21,-79.5"/>
</a>
</g>
<text text-anchor="middle" x="289" y="-138.4" font-family="Helvetica,sans-Serif" font-size="12.00" fill="grey"> errorColorDerivationMode</text>
<text text-anchor="middle" x="289" y="-125.4" font-family="Helvetica,sans-Serif" font-size="12.00" fill="grey">errorFillColorDerivationMode</text>
<text text-anchor="middle" x="289" y="-112.4" font-family="Helvetica,sans-Serif" font-size="12.00" fill="grey">fillColorDerivationMode</text>
<text text-anchor="middle" x="289" y="-99.4" font-family="Helvetica,sans-Serif" font-size="12.00" fill="grey">graphColorDerivationMode</text>
<text text-anchor="middle" x="289" y="-86.4" font-family="Helvetica,sans-Serif" font-size="12.00" fill="grey">symbolFillColorDerivationMode</text>
</g>
<!-- Node9&#45;&gt;Node6 -->
<g id="edge9_Node000006_Node000009" class="edge">
<title>Node9&#45;&gt;Node6</title>
<g id="a_edge9_Node000006_Node000009"><a xlink:title=" ">
<path fill="none" stroke="#9a32cd" stroke-dasharray="5,2" d="M1135.31,-60.03C1219.13,-60.91 1343.74,-66.38 1450,-88 1478.94,-93.89 1511.12,-103.81 1533.89,-111.42"/>
<polygon fill="#9a32cd" stroke="#9a32cd" points="1135.33,-56.53 1125.3,-59.95 1135.27,-63.53 1135.33,-56.53"/>
</a>
</g>
<text text-anchor="middle" x="1238.5" y="-74.4" font-family="Helvetica,sans-Serif" font-size="12.00" fill="grey"> barchartStyle</text>
</g>
<!-- Node10&#45;&gt;Node6 -->
<g id="edge11_Node000006_Node000010" class="edge">
<title>Node10&#45;&gt;Node6</title>
<g id="a_edge11_Node000006_Node000010"><a xlink:title=" ">
<path fill="none" stroke="#9a32cd" stroke-dasharray="5,2" d="M1132.73,-18.73C1217.48,-22.69 1344.95,-34.69 1450,-70 1484.02,-81.43 1521.55,-99.73 1543.92,-111.29"/>
<polygon fill="#9a32cd" stroke="#9a32cd" points="1132.76,-15.23 1122.62,-18.28 1132.45,-22.22 1132.76,-15.23"/>
</a>
</g>
<text text-anchor="middle" x="1238.5" y="-44.4" font-family="Helvetica,sans-Serif" font-size="12.00" fill="grey"> impulseStyle</text>
</g>
<!-- Node11&#45;&gt;Node6 -->
<g id="edge13_Node000006_Node000011" class="edge">
<title>Node11&#45;&gt;Node6</title>
<g id="a_edge13_Node000006_Node000011"><a xlink:title=" ">
<path fill="none" stroke="#9a32cd" stroke-dasharray="5,2" d="M944.11,-171.14C1065.77,-182.83 1275.49,-193.63 1450,-155 1477.76,-148.85 1508.72,-139.75 1531.36,-132.65"/>
<polygon fill="#9a32cd" stroke="#9a32cd" points="944.35,-167.65 934.06,-170.15 943.67,-174.61 944.35,-167.65"/>
</a>
</g>
<text text-anchor="middle" x="1238.5" y="-184.4" font-family="Helvetica,sans-Serif" font-size="12.00" fill="grey"> geometricStyle</text>
</g>
<!-- Node13 -->
<g id="Node000013" class="node">
<title>Node13</title>
<g id="a_Node000013"><a xlink:href="class_j_k_q_t_annotations_specific_style_properties.html" target="_top" xlink:title="Support Class for JKQTBasePlotter, which summarizes all properties that define the visual styling of ...">
<polygon fill="white" stroke="#666666" points="1334,-164 1143,-164 1143,-130 1334,-130 1334,-164"/>
<text text-anchor="start" x="1151" y="-150.4" font-family="Helvetica,sans-Serif" font-size="12.00">JKQTAnnotationsSpecificStyle</text>
<text text-anchor="middle" x="1238.5" y="-137.4" font-family="Helvetica,sans-Serif" font-size="12.00">Properties</text>
</a>
</g>
</g>
<!-- Node11&#45;&gt;Node13 -->
<g id="edge17_Node000013_Node000011" class="edge">
<title>Node11&#45;&gt;Node13</title>
<g id="a_edge17_Node000013_Node000011"><a xlink:title=" ">
<path fill="none" stroke="#63b8ff" d="M944.07,-155.93C1005.27,-154.06 1082.83,-151.7 1142.84,-149.88"/>
<polygon fill="#63b8ff" stroke="#63b8ff" points="943.89,-152.43 934,-156.23 944.1,-159.43 943.89,-152.43"/>
</a>
</g>
</g>
<!-- Node12 -->
<g id="Node000012" class="node">
<title>Node12</title>
<g id="a_Node000012"><a xlink:href="class_j_k_q_t_fill_style_summmary.html" target="_top" xlink:title="Support Class for JKQTBasePlotter, which summarizes a fill style.">
<polygon fill="white" stroke="#666666" points="591,-170.5 431,-170.5 431,-149.5 591,-149.5 591,-170.5"/>
<text text-anchor="middle" x="511" y="-156.9" font-family="Helvetica,sans-Serif" font-size="12.00">JKQTFillStyleSummmary</text>
</a>
</g>
</g>
<!-- Node12&#45;&gt;Node11 -->
<g id="edge15_Node000011_Node000012" class="edge">
<title>Node12&#45;&gt;Node11</title>
<g id="a_edge15_Node000011_Node000012"><a xlink:title=" ">
<path fill="none" stroke="#9a32cd" stroke-dasharray="5,2" d="M601.5,-159.73C647.58,-159.59 703.65,-159.42 749.96,-159.28"/>
<polygon fill="#9a32cd" stroke="#9a32cd" points="601.21,-156.23 591.22,-159.76 601.23,-163.23 601.21,-156.23"/>
</a>
</g>
<text text-anchor="middle" x="686.5" y="-162.4" font-family="Helvetica,sans-Serif" font-size="12.00" fill="grey"> defaultFillStyle</text>
</g>
<!-- Node13&#45;&gt;Node6 -->
<g id="edge16_Node000006_Node000013" class="edge">
<title>Node13&#45;&gt;Node6</title>
<g id="a_edge16_Node000006_Node000013"><a xlink:title=" ">
<path fill="none" stroke="#9a32cd" stroke-dasharray="5,2" d="M1344.39,-138.92C1392.57,-135.21 1448.51,-130.9 1491.86,-127.56"/>
<polygon fill="#9a32cd" stroke="#9a32cd" points="1343.93,-135.44 1334.23,-139.7 1344.47,-142.42 1343.93,-135.44"/>
</a>
</g>
<text text-anchor="middle" x="1401" y="-141.4" font-family="Helvetica,sans-Serif" font-size="12.00" fill="grey"> annotationStyle</text>
</g>
</g>
</svg>
