<?xml version="1.0" encoding="UTF-8" standalone="no"?>
<!DOCTYPE svg PUBLIC "-//W3C//DTD SVG 1.1//EN"
 "http://www.w3.org/Graphics/SVG/1.1/DTD/svg11.dtd">
<!-- Generated by graphviz version 2.43.0 (0)
 -->
<!-- Title: JKQTMathTextTextNode Pages: 1 -->
<svg width="330pt" height="146pt"
 viewBox="0.00 0.00 330.00 146.00" xmlns="http://www.w3.org/2000/svg" xmlns:xlink="http://www.w3.org/1999/xlink">
<g id="graph0" class="graph" transform="scale(1 1) rotate(0) translate(4 142)">
<title>JKQTMathTextTextNode</title>
<!-- Node1 -->
<g id="node1" class="node">
<title>Node1</title>
<g id="a_node1"><a xlink:title="subclass representing one text node in the syntax tree">
<polygon fill="#bfbfbf" stroke="black" points="105,-58.5 105,-79.5 256,-79.5 256,-58.5 105,-58.5"/>
<text text-anchor="middle" x="180.5" y="-65.9" font-family="FreeSans" font-size="12.00">JKQTMathTextTextNode</text>
</a>
</g>
</g>
<!-- Node3 -->
<g id="node3" class="node">
<title>Node3</title>
<g id="a_node3"><a xlink:href="class_j_k_q_t_math_text_whitespace_node.html" target="_top" xlink:title="subclass representing one whitepsace node in the syntax tree">
<polygon fill="none" stroke="black" points="0,-0.5 0,-21.5 191,-21.5 191,-0.5 0,-0.5"/>
<text text-anchor="middle" x="95.5" y="-7.9" font-family="FreeSans" font-size="12.00">JKQTMathTextWhitespaceNode</text>
</a>
</g>
</g>
<!-- Node1&#45;&gt;Node3 -->
<g id="edge2" class="edge">
<title>Node1&#45;&gt;Node3</title>
<path fill="none" stroke="midnightblue" d="M156.96,-52.49C141.96,-42.61 123,-30.12 110.14,-21.64"/>
<polygon fill="midnightblue" stroke="midnightblue" points="155.42,-55.67 165.69,-58.25 159.27,-49.82 155.42,-55.67"/>
</g>
<!-- Node4 -->
<g id="node4" class="node">
<title>Node4</title>
<g id="a_node4"><a xlink:href="class_m_tplain_text_node.html" target="_top" xlink:title="subclass representing one text node in the syntax tree">
<polygon fill="none" stroke="black" points="209,-0.5 209,-21.5 322,-21.5 322,-0.5 209,-0.5"/>
<text text-anchor="middle" x="265.5" y="-7.9" font-family="FreeSans" font-size="12.00">MTplainTextNode</text>
</a>
</g>
</g>
<!-- Node1&#45;&gt;Node4 -->
<g id="edge3" class="edge">
<title>Node1&#45;&gt;Node4</title>
<path fill="none" stroke="midnightblue" d="M204.04,-52.49C219.04,-42.61 238,-30.12 250.86,-21.64"/>
<polygon fill="midnightblue" stroke="midnightblue" points="201.73,-49.82 195.31,-58.25 205.58,-55.67 201.73,-49.82"/>
</g>
<!-- Node2 -->
<g id="node2" class="node">
<title>Node2</title>
<g id="a_node2"><a xlink:href="class_j_k_q_t_math_text_node.html" target="_top" xlink:title="subclass representing one node in the syntax tree">
<polygon fill="none" stroke="black" points="116.5,-116.5 116.5,-137.5 244.5,-137.5 244.5,-116.5 116.5,-116.5"/>
<text text-anchor="middle" x="180.5" y="-123.9" font-family="FreeSans" font-size="12.00">JKQTMathTextNode</text>
</a>
</g>
</g>
<!-- Node2&#45;&gt;Node1 -->
<g id="edge1" class="edge">
<title>Node2&#45;&gt;Node1</title>
<path fill="none" stroke="midnightblue" d="M180.5,-106.16C180.5,-97.16 180.5,-86.92 180.5,-79.64"/>
<polygon fill="midnightblue" stroke="midnightblue" points="177,-106.25 180.5,-116.25 184,-106.25 177,-106.25"/>
</g>
</g>
</svg>
