<?xml version="1.0" encoding="UTF-8" standalone="no"?>
<!DOCTYPE svg PUBLIC "-//W3C//DTD SVG 1.1//EN"
 "http://www.w3.org/Graphics/SVG/1.1/DTD/svg11.dtd">
<!-- Generated by graphviz version 2.43.0 (0)
 -->
<!-- Title: JKQTMathTextVerticalListNode Pages: 1 -->
<svg width="204pt" height="146pt"
 viewBox="0.00 0.00 204.00 146.00" xmlns="http://www.w3.org/2000/svg" xmlns:xlink="http://www.w3.org/1999/xlink">
<g id="graph0" class="graph" transform="scale(1 1) rotate(0) translate(4 142)">
<title>JKQTMathTextVerticalListNode</title>
<!-- Node1 -->
<g id="node1" class="node">
<title>Node1</title>
<g id="a_node1"><a xlink:title="subclass representing a list of nodes in the syntax tree, layed out vertically">
<polygon fill="#bfbfbf" stroke="black" points="0,-0.5 0,-21.5 196,-21.5 196,-0.5 0,-0.5"/>
<text text-anchor="middle" x="98" y="-7.9" font-family="Helvetica,sans-Serif" font-size="12.00">JKQTMathTextVerticalListNode</text>
</a>
</g>
</g>
<!-- Node2 -->
<g id="node2" class="node">
<title>Node2</title>
<g id="a_node2"><a xlink:href="class_j_k_q_t_math_text_multi_child_node.html" target="_top" xlink:title="subclass representing a node in the syntax tree, that has two children">
<polygon fill="none" stroke="black" points="4,-58.5 4,-79.5 192,-79.5 192,-58.5 4,-58.5"/>
<text text-anchor="middle" x="98" y="-65.9" font-family="Helvetica,sans-Serif" font-size="12.00">JKQTMathTextMultiChildNode</text>
</a>
</g>
</g>
<!-- Node2&#45;&gt;Node1 -->
<g id="edge1" class="edge">
<title>Node2&#45;&gt;Node1</title>
<path fill="none" stroke="midnightblue" d="M98,-48.16C98,-39.16 98,-28.92 98,-21.64"/>
<polygon fill="midnightblue" stroke="midnightblue" points="94.5,-48.25 98,-58.25 101.5,-48.25 94.5,-48.25"/>
</g>
<!-- Node3 -->
<g id="node3" class="node">
<title>Node3</title>
<g id="a_node3"><a xlink:href="class_j_k_q_t_math_text_node.html" target="_top" xlink:title="subclass representing one node in the syntax tree">
<polygon fill="none" stroke="black" points="32.5,-116.5 32.5,-137.5 163.5,-137.5 163.5,-116.5 32.5,-116.5"/>
<text text-anchor="middle" x="98" y="-123.9" font-family="Helvetica,sans-Serif" font-size="12.00">JKQTMathTextNode</text>
</a>
</g>
</g>
<!-- Node3&#45;&gt;Node2 -->
<g id="edge2" class="edge">
<title>Node3&#45;&gt;Node2</title>
<path fill="none" stroke="midnightblue" d="M98,-106.16C98,-97.16 98,-86.92 98,-79.64"/>
<polygon fill="midnightblue" stroke="midnightblue" points="94.5,-106.25 98,-116.25 101.5,-106.25 94.5,-106.25"/>
</g>
</g>
</svg>
