<?xml version="1.0" encoding="UTF-8" standalone="no"?>
<!DOCTYPE svg PUBLIC "-//W3C//DTD SVG 1.1//EN"
 "http://www.w3.org/Graphics/SVG/1.1/DTD/svg11.dtd">
<!-- Generated by graphviz version 2.43.0 (0)
 -->
<!-- Title: JKQTPCoordinateAxis Pages: 1 -->
<svg width="3113pt" height="865pt"
 viewBox="0.00 0.00 3113.00 864.50" xmlns="http://www.w3.org/2000/svg" xmlns:xlink="http://www.w3.org/1999/xlink">
<g id="graph0" class="graph" transform="scale(1 1) rotate(0) translate(4 860.5)">
<title>JKQTPCoordinateAxis</title>
<!-- Node1 -->
<g id="Node000001" class="node">
<title>Node1</title>
<g id="a_Node000001"><a xlink:title="this virtual class is the base for any type of coordinate axis, to be drawn by JKQTBasePlotter.">
<polygon fill="#999999" stroke="#666666" points="1546,-462 1404,-462 1404,-441 1546,-441 1546,-462"/>
<text text-anchor="middle" x="1475" y="-448.4" font-family="Helvetica,sans-Serif" font-size="12.00">JKQTPCoordinateAxis</text>
</a>
</g>
</g>
<!-- Node22 -->
<g id="Node000022" class="node">
<title>Node22</title>
<g id="a_Node000022"><a xlink:href="class_j_k_q_t_p_horizontal_axis_base.html" target="_top" xlink:title="base class for horizontal axes, based on JKQTPCoordinateAxis (for most of documentation: see JKQTPCoo...">
<polygon fill="white" stroke="#666666" points="1912,-407 1745,-407 1745,-386 1912,-386 1912,-407"/>
<text text-anchor="middle" x="1828.5" y="-393.4" font-family="Helvetica,sans-Serif" font-size="12.00">JKQTPHorizontalAxisBase</text>
</a>
</g>
</g>
<!-- Node1&#45;&gt;Node22 -->
<g id="edge32_Node000022_Node000001" class="edge">
<title>Node1&#45;&gt;Node22</title>
<g id="a_edge32_Node000022_Node000001"><a xlink:title=" ">
<path fill="none" stroke="#63b8ff" d="M1523.69,-438.35C1544,-433.12 1568.03,-427.43 1590,-423.5 1641.16,-414.35 1699.11,-407.69 1744.96,-403.27"/>
<polygon fill="#63b8ff" stroke="#63b8ff" points="1522.53,-435.03 1513.74,-440.95 1524.3,-441.8 1522.53,-435.03"/>
</a>
</g>
</g>
<!-- Node24 -->
<g id="Node000024" class="node">
<title>Node24</title>
<g id="a_Node000024"><a xlink:href="class_j_k_q_t_p_vertical_axis_base.html" target="_top" xlink:title="base class for vertical axes, based on JKQTPCoordinateAxis (for most of documentation: see JKQTPCoord...">
<polygon fill="white" stroke="#666666" points="1904,-485 1753,-485 1753,-464 1904,-464 1904,-485"/>
<text text-anchor="middle" x="1828.5" y="-471.4" font-family="Helvetica,sans-Serif" font-size="12.00">JKQTPVerticalAxisBase</text>
</a>
</g>
</g>
<!-- Node1&#45;&gt;Node24 -->
<g id="edge35_Node000024_Node000001" class="edge">
<title>Node1&#45;&gt;Node24</title>
<g id="a_edge35_Node000024_Node000001"><a xlink:title=" ">
<path fill="none" stroke="#63b8ff" d="M1556.32,-456.76C1615.38,-460.62 1695.08,-465.84 1752.78,-469.61"/>
<polygon fill="#63b8ff" stroke="#63b8ff" points="1556.49,-453.26 1546.29,-456.1 1556.04,-460.24 1556.49,-453.26"/>
</a>
</g>
</g>
<!-- Node2 -->
<g id="Node000002" class="node">
<title>Node2</title>
<g id="a_Node000002"><a xlink:title=" ">
<polygon fill="white" stroke="#666666" points="1181,-462 1116,-462 1116,-441 1181,-441 1181,-462"/>
<text text-anchor="middle" x="1148.5" y="-448.4" font-family="Helvetica,sans-Serif" font-size="12.00">QObject</text>
</a>
</g>
</g>
<!-- Node2&#45;&gt;Node1 -->
<g id="edge1_Node000001_Node000002" class="edge">
<title>Node2&#45;&gt;Node1</title>
<g id="a_edge1_Node000001_Node000002"><a xlink:title=" ">
<path fill="none" stroke="#63b8ff" d="M1191.4,-451.5C1245.14,-451.5 1339.12,-451.5 1403.86,-451.5"/>
<polygon fill="#63b8ff" stroke="#63b8ff" points="1191.21,-448 1181.21,-451.5 1191.21,-455 1191.21,-448"/>
</a>
</g>
</g>
<!-- Node3 -->
<g id="Node000003" class="node">
<title>Node3</title>
<g id="a_Node000003"><a xlink:href="class_j_k_q_t_base_plotter.html" target="_top" xlink:title="base class for 2D plotter classes (used by the plotter widget JKQTPlotter)">
<polygon fill="white" stroke="#666666" points="2726.5,-386 2612.5,-386 2612.5,-365 2726.5,-365 2726.5,-386"/>
<text text-anchor="middle" x="2669.5" y="-372.4" font-family="Helvetica,sans-Serif" font-size="12.00">JKQTBasePlotter</text>
</a>
</g>
</g>
<!-- Node2&#45;&gt;Node3 -->
<g id="edge3_Node000003_Node000002" class="edge">
<title>Node2&#45;&gt;Node3</title>
<g id="a_edge3_Node000003_Node000002"><a xlink:title=" ">
<path fill="none" stroke="#63b8ff" d="M1191.04,-464.65C1252.3,-482.85 1370.77,-513.5 1474,-513.5 1474,-513.5 1474,-513.5 2279,-513.5 2346,-513.5 2521.14,-528.49 2580,-496.5 2626.19,-471.39 2654.59,-410.57 2664.51,-386.03"/>
<polygon fill="#63b8ff" stroke="#63b8ff" points="1191.94,-461.27 1181.35,-461.74 1189.92,-467.97 1191.94,-461.27"/>
</a>
</g>
</g>
<!-- Node16 -->
<g id="Node000016" class="node">
<title>Node16</title>
<g id="a_Node000016"><a xlink:href="class_j_k_q_t_math_text.html" target="_top" xlink:title="this class parses a mathematical markup string and can then draw the contained text/equation onto a Q...">
<polygon fill="white" stroke="#666666" points="1878,-293 1779,-293 1779,-272 1878,-272 1878,-293"/>
<text text-anchor="middle" x="1828.5" y="-279.4" font-family="Helvetica,sans-Serif" font-size="12.00">JKQTMathText</text>
</a>
</g>
</g>
<!-- Node2&#45;&gt;Node16 -->
<g id="edge22_Node000016_Node000002" class="edge">
<title>Node2&#45;&gt;Node16</title>
<g id="a_edge22_Node000016_Node000002"><a xlink:title=" ">
<path fill="none" stroke="#63b8ff" d="M1191.3,-441.08C1312.56,-410.86 1663.55,-323.37 1785.31,-293.02"/>
<polygon fill="#63b8ff" stroke="#63b8ff" points="1190.15,-437.76 1181.29,-443.58 1191.84,-444.55 1190.15,-437.76"/>
</a>
</g>
</g>
<!-- Node3&#45;&gt;Node1 -->
<g id="edge2_Node000001_Node000003" class="edge">
<title>Node3&#45;&gt;Node1</title>
<g id="a_edge2_Node000001_Node000003"><a xlink:title=" ">
<path fill="none" stroke="#9a32cd" stroke-dasharray="5,2" d="M2632.78,-389.45C2616.87,-395.07 2597.74,-401.04 2580,-404.5 2503.48,-419.42 2482.85,-412.37 2405,-416.5 2084.47,-433.52 1701.3,-445.22 1546.25,-449.59"/>
<polygon fill="#9a32cd" stroke="#9a32cd" points="2634.03,-392.72 2642.23,-386.01 2631.64,-386.14 2634.03,-392.72"/>
</a>
</g>
<text text-anchor="middle" x="2031.5" y="-439.9" font-family="Helvetica,sans-Serif" font-size="12.00" fill="grey"> parent</text>
</g>
<!-- Node3&#45;&gt;Node3 -->
<g id="edge42_Node000003_Node000003" class="edge">
<title>Node3&#45;&gt;Node3</title>
<g id="a_edge42_Node000003_Node000003"><a xlink:title=" ">
<path fill="none" stroke="#9a32cd" stroke-dasharray="5,2" d="M2642.59,-395.57C2644.67,-400.41 2653.64,-404 2669.5,-404 2694.88,-404 2702.61,-394.81 2692.7,-386.02"/>
<polygon fill="#9a32cd" stroke="#9a32cd" points="2645.95,-396.61 2646.3,-386.02 2639.42,-394.08 2645.95,-396.61"/>
</a>
</g>
<text text-anchor="middle" x="2669.5" y="-420.4" font-family="Helvetica,sans-Serif" font-size="12.00" fill="grey"> masterPlotterX</text>
<text text-anchor="middle" x="2669.5" y="-407.4" font-family="Helvetica,sans-Serif" font-size="12.00" fill="grey">masterPlotterY</text>
</g>
<!-- Node19 -->
<g id="Node000019" class="node">
<title>Node19</title>
<g id="a_Node000019"><a xlink:href="class_j_k_q_t_p_graphs_model.html" target="_top" xlink:title="data model with all plots ina JKQTBasePlotter (+ allows to switch them visible/invisible)">
<polygon fill="white" stroke="#666666" points="3063,-365 2932,-365 2932,-344 3063,-344 3063,-365"/>
<text text-anchor="middle" x="2997.5" y="-351.4" font-family="Helvetica,sans-Serif" font-size="12.00">JKQTPGraphsModel</text>
</a>
</g>
</g>
<!-- Node3&#45;&gt;Node19 -->
<g id="edge29_Node000019_Node000003" class="edge">
<title>Node3&#45;&gt;Node19</title>
<g id="a_edge29_Node000019_Node000003"><a xlink:title=" ">
<path fill="none" stroke="#9a32cd" stroke-dasharray="5,2" d="M2736.59,-374.49C2775.96,-373.57 2826.88,-371.82 2872,-368.5 2891.52,-367.07 2912.71,-364.91 2931.97,-362.72"/>
<polygon fill="#9a32cd" stroke="#9a32cd" points="2736.51,-370.99 2726.59,-374.71 2736.66,-377.99 2736.51,-370.99"/>
</a>
</g>
<text text-anchor="middle" x="2815.5" y="-376.9" font-family="Helvetica,sans-Serif" font-size="12.00" fill="grey"> m_plotter</text>
</g>
<!-- Node4 -->
<g id="Node000004" class="node">
<title>Node4</title>
<g id="a_Node000004"><a xlink:href="class_j_k_q_t_base_plotter_style.html" target="_top" xlink:title="Support Class for JKQTBasePlotter, which summarizes all properties that define the visual styling of ...">
<polygon fill="white" stroke="#666666" points="1900,-622 1757,-622 1757,-601 1900,-601 1900,-622"/>
<text text-anchor="middle" x="1828.5" y="-608.4" font-family="Helvetica,sans-Serif" font-size="12.00">JKQTBasePlotterStyle</text>
</a>
</g>
</g>
<!-- Node4&#45;&gt;Node3 -->
<g id="edge4_Node000003_Node000004" class="edge">
<title>Node4&#45;&gt;Node3</title>
<g id="a_edge4_Node000003_Node000004"><a xlink:title=" ">
<path fill="none" stroke="#9a32cd" stroke-dasharray="5,2" d="M1901.73,-623.4C2044.26,-642.89 2366.39,-666.69 2580,-527.5 2632.96,-492.99 2658.14,-414.91 2665.83,-386.28"/>
<polygon fill="#9a32cd" stroke="#9a32cd" points="1902.17,-619.93 1891.78,-622.01 1901.2,-626.86 1902.17,-619.93"/>
</a>
</g>
<text text-anchor="middle" x="2278" y="-640.9" font-family="Helvetica,sans-Serif" font-size="12.00" fill="grey"> plotterStyle</text>
</g>
<!-- Node5 -->
<g id="Node000005" class="node">
<title>Node5</title>
<g id="a_Node000005"><a xlink:href="class_j_k_q_t_p_key_style.html" target="_top" xlink:title="Support Class for JKQTBasePlotter, which summarizes all properties that define the visual styling of ...">
<polygon fill="white" stroke="#666666" points="1527,-677 1423,-677 1423,-656 1527,-656 1527,-677"/>
<text text-anchor="middle" x="1475" y="-663.4" font-family="Helvetica,sans-Serif" font-size="12.00">JKQTPKeyStyle</text>
</a>
</g>
</g>
<!-- Node5&#45;&gt;Node4 -->
<g id="edge5_Node000004_Node000005" class="edge">
<title>Node5&#45;&gt;Node4</title>
<g id="a_edge5_Node000004_Node000005"><a xlink:title=" ">
<path fill="none" stroke="#9a32cd" stroke-dasharray="5,2" d="M1537.2,-656.92C1599.54,-647.17 1695.97,-632.08 1760.38,-622"/>
<polygon fill="#9a32cd" stroke="#9a32cd" points="1536.45,-653.5 1527.11,-658.5 1537.53,-660.41 1536.45,-653.5"/>
</a>
</g>
<text text-anchor="middle" x="1658.5" y="-649.9" font-family="Helvetica,sans-Serif" font-size="12.00" fill="grey"> keyStyle</text>
</g>
<!-- Node6 -->
<g id="Node000006" class="node">
<title>Node6</title>
<g id="a_Node000006"><a xlink:href="class_j_k_q_t_p_coordinate_axis_style.html" target="_top" xlink:title="Support Class for JKQTPCoordinateAxis, which summarizes all properties that define the visual styling...">
<polygon fill="white" stroke="#666666" points="1234,-585 1063,-585 1063,-564 1234,-564 1234,-585"/>
<text text-anchor="middle" x="1148.5" y="-571.4" font-family="Helvetica,sans-Serif" font-size="12.00">JKQTPCoordinateAxisStyle</text>
</a>
</g>
</g>
<!-- Node6&#45;&gt;Node1 -->
<g id="edge51_Node000001_Node000006" class="edge">
<title>Node6&#45;&gt;Node1</title>
<g id="a_edge51_Node000001_Node000006"><a xlink:title=" ">
<path fill="none" stroke="#9a32cd" stroke-dasharray="5,2" d="M1187.02,-560.28C1252.83,-535.33 1387.62,-484.24 1446,-462.11"/>
<polygon fill="#9a32cd" stroke="#9a32cd" points="1185.56,-557.09 1177.45,-563.91 1188.04,-563.63 1185.56,-557.09"/>
</a>
</g>
<text text-anchor="middle" x="1311" y="-533.9" font-family="Helvetica,sans-Serif" font-size="12.00" fill="grey"> axisStyle</text>
</g>
<!-- Node6&#45;&gt;Node4 -->
<g id="edge6_Node000004_Node000006" class="edge">
<title>Node6&#45;&gt;Node4</title>
<g id="a_edge6_Node000004_Node000006"><a xlink:title=" ">
<path fill="none" stroke="#9a32cd" stroke-dasharray="5,2" d="M1244.47,-579.68C1382.24,-587.2 1634.45,-600.96 1756.97,-607.65"/>
<polygon fill="#9a32cd" stroke="#9a32cd" points="1244.52,-576.18 1234.34,-579.13 1244.13,-583.17 1244.52,-576.18"/>
</a>
</g>
<text text-anchor="middle" x="1475" y="-612.9" font-family="Helvetica,sans-Serif" font-size="12.00" fill="grey"> xAxisStyle</text>
<text text-anchor="middle" x="1475" y="-599.9" font-family="Helvetica,sans-Serif" font-size="12.00" fill="grey">yAxisStyle</text>
</g>
<!-- Node8 -->
<g id="Node000008" class="node">
<title>Node8</title>
<g id="a_Node000008"><a xlink:href="class_j_k_q_t_p_colorbar_coordinate_axis_style.html" target="_top" xlink:title="Support Class for JKQTPCoordinateAxis, which summarizes all properties that define the visual styling...">
<polygon fill="white" stroke="#666666" points="1572,-575.5 1378,-575.5 1378,-541.5 1572,-541.5 1572,-575.5"/>
<text text-anchor="start" x="1386" y="-561.9" font-family="Helvetica,sans-Serif" font-size="12.00">JKQTPColorbarCoordinateAxis</text>
<text text-anchor="middle" x="1475" y="-548.9" font-family="Helvetica,sans-Serif" font-size="12.00">Style</text>
</a>
</g>
</g>
<!-- Node6&#45;&gt;Node8 -->
<g id="edge9_Node000008_Node000006" class="edge">
<title>Node6&#45;&gt;Node8</title>
<g id="a_edge9_Node000008_Node000006"><a xlink:title=" ">
<path fill="none" stroke="#63b8ff" d="M1244.56,-569.81C1286.54,-567.74 1335.81,-565.31 1377.91,-563.24"/>
<polygon fill="#63b8ff" stroke="#63b8ff" points="1244.15,-566.33 1234.33,-570.32 1244.49,-573.32 1244.15,-566.33"/>
</a>
</g>
</g>
<!-- Node7 -->
<g id="Node000007" class="node">
<title>Node7</title>
<g id="a_Node000007"><a xlink:href="class_j_k_q_t_p_grid_style.html" target="_top" xlink:title="Support Class for JKQTPCoordinateAxis, and summarizes all properties that define the visual styling o...">
<polygon fill="white" stroke="#666666" points="805.5,-585 698.5,-585 698.5,-564 805.5,-564 805.5,-585"/>
<text text-anchor="middle" x="752" y="-571.4" font-family="Helvetica,sans-Serif" font-size="12.00">JKQTPGridStyle</text>
</a>
</g>
</g>
<!-- Node7&#45;&gt;Node6 -->
<g id="edge7_Node000006_Node000007" class="edge">
<title>Node7&#45;&gt;Node6</title>
<g id="a_edge7_Node000006_Node000007"><a xlink:title=" ">
<path fill="none" stroke="#9a32cd" stroke-dasharray="5,2" d="M816.18,-574.5C883.03,-574.5 988.9,-574.5 1062.92,-574.5"/>
<polygon fill="#9a32cd" stroke="#9a32cd" points="815.79,-571 805.79,-574.5 815.79,-578 815.79,-571"/>
</a>
</g>
<text text-anchor="middle" x="948.5" y="-590.9" font-family="Helvetica,sans-Serif" font-size="12.00" fill="grey"> majorGridStyle</text>
<text text-anchor="middle" x="948.5" y="-577.9" font-family="Helvetica,sans-Serif" font-size="12.00" fill="grey">minorGridStyle</text>
</g>
<!-- Node8&#45;&gt;Node4 -->
<g id="edge8_Node000004_Node000008" class="edge">
<title>Node8&#45;&gt;Node4</title>
<g id="a_edge8_Node000004_Node000008"><a xlink:title=" ">
<path fill="none" stroke="#9a32cd" stroke-dasharray="5,2" d="M1582.12,-556.36C1627.24,-557.41 1680.14,-561.25 1727,-571.5 1755.62,-577.76 1786.68,-591.24 1806.58,-600.82"/>
<polygon fill="#9a32cd" stroke="#9a32cd" points="1582.09,-552.86 1572.03,-556.17 1581.96,-559.86 1582.09,-552.86"/>
</a>
</g>
<text text-anchor="middle" x="1658.5" y="-587.9" font-family="Helvetica,sans-Serif" font-size="12.00" fill="grey"> rightColorbarAxisStyle</text>
<text text-anchor="middle" x="1658.5" y="-574.9" font-family="Helvetica,sans-Serif" font-size="12.00" fill="grey">topColorbarAxisStyle</text>
</g>
<!-- Node9 -->
<g id="Node000009" class="node">
<title>Node9</title>
<g id="a_Node000009"><a xlink:href="class_j_k_q_t_graphs_base_style.html" target="_top" xlink:title="Support Class for JKQTBasePlotter, which summarizes all properties that define the visual styling of ...">
<polygon fill="white" stroke="#666666" points="1548,-733 1402,-733 1402,-712 1548,-712 1548,-733"/>
<text text-anchor="middle" x="1475" y="-719.4" font-family="Helvetica,sans-Serif" font-size="12.00">JKQTGraphsBaseStyle</text>
</a>
</g>
</g>
<!-- Node9&#45;&gt;Node4 -->
<g id="edge10_Node000004_Node000009" class="edge">
<title>Node9&#45;&gt;Node4</title>
<g id="a_edge10_Node000004_Node000009"><a xlink:title=" ">
<path fill="none" stroke="#9a32cd" stroke-dasharray="5,2" d="M1549.84,-710.12C1600.6,-700.41 1669.04,-684.93 1727,-663.5 1757.59,-652.19 1790.76,-633.68 1810.31,-622.07"/>
<polygon fill="#9a32cd" stroke="#9a32cd" points="1549.11,-706.69 1539.93,-711.98 1550.41,-713.57 1549.11,-706.69"/>
</a>
</g>
<text text-anchor="middle" x="1658.5" y="-703.9" font-family="Helvetica,sans-Serif" font-size="12.00" fill="grey"> graphsStyle</text>
</g>
<!-- Node10 -->
<g id="Node000010" class="node">
<title>Node10</title>
<g id="a_Node000010"><a xlink:href="class_j_k_q_t_graphs_specific_style_properties.html" target="_top" xlink:title="Support Class for JKQTBasePlotter, which summarizes all properties that define the visual styling of ...">
<polygon fill="white" stroke="#666666" points="623,-776 399,-776 399,-755 623,-755 623,-776"/>
<text text-anchor="middle" x="511" y="-762.4" font-family="Helvetica,sans-Serif" font-size="12.00">JKQTGraphsSpecificStyleProperties</text>
</a>
</g>
</g>
<!-- Node10&#45;&gt;Node9 -->
<g id="edge11_Node000009_Node000010" class="edge">
<title>Node10&#45;&gt;Node9</title>
<g id="a_edge11_Node000009_Node000010"><a xlink:title=" ">
<path fill="none" stroke="#9a32cd" stroke-dasharray="5,2" d="M633.39,-768.34C778.71,-770.85 1029.37,-772.37 1244,-759.5 1295.79,-756.39 1308.78,-754.74 1360,-746.5 1382.86,-742.82 1408.08,-737.63 1428.97,-733.02"/>
<polygon fill="#9a32cd" stroke="#9a32cd" points="633.17,-764.83 623.11,-768.16 633.05,-771.83 633.17,-764.83"/>
</a>
</g>
<text text-anchor="middle" x="948.5" y="-798.9" font-family="Helvetica,sans-Serif" font-size="12.00" fill="grey"> boxplotStyle</text>
<text text-anchor="middle" x="948.5" y="-785.9" font-family="Helvetica,sans-Serif" font-size="12.00" fill="grey">defaultGraphStyle</text>
<text text-anchor="middle" x="948.5" y="-772.9" font-family="Helvetica,sans-Serif" font-size="12.00" fill="grey">filledStyle</text>
</g>
<!-- Node12 -->
<g id="Node000012" class="node">
<title>Node12</title>
<g id="a_Node000012"><a xlink:href="class_j_k_q_t_barchart_specific_style_properties.html" target="_top" xlink:title="Support Class for JKQTBasePlotter, which summarizes all properties that define the visual styling of ...">
<polygon fill="white" stroke="#666666" points="1035,-662.5 862,-662.5 862,-628.5 1035,-628.5 1035,-662.5"/>
<text text-anchor="start" x="870" y="-648.9" font-family="Helvetica,sans-Serif" font-size="12.00">JKQTBarchartSpecificStyle</text>
<text text-anchor="middle" x="948.5" y="-635.9" font-family="Helvetica,sans-Serif" font-size="12.00">Properties</text>
</a>
</g>
</g>
<!-- Node10&#45;&gt;Node12 -->
<g id="edge14_Node000012_Node000010" class="edge">
<title>Node10&#45;&gt;Node12</title>
<g id="a_edge14_Node000012_Node000010"><a xlink:title=" ">
<path fill="none" stroke="#63b8ff" d="M544.86,-750.86C574.5,-738.07 619.53,-719.71 660,-707.5 726.85,-687.34 804.32,-671.02 861.98,-660.2"/>
<polygon fill="#63b8ff" stroke="#63b8ff" points="543.2,-747.76 535.42,-754.96 545.99,-754.18 543.2,-747.76"/>
</a>
</g>
</g>
<!-- Node13 -->
<g id="Node000013" class="node">
<title>Node13</title>
<g id="a_Node000013"><a xlink:href="class_j_k_q_t_impulse_specific_style_properties.html" target="_top" xlink:title="Support Class for JKQTBasePlotter, which summarizes all properties that define the visual styling of ...">
<polygon fill="white" stroke="#666666" points="1032.5,-856.5 864.5,-856.5 864.5,-822.5 1032.5,-822.5 1032.5,-856.5"/>
<text text-anchor="start" x="872.5" y="-842.9" font-family="Helvetica,sans-Serif" font-size="12.00">JKQTImpulseSpecificStyle</text>
<text text-anchor="middle" x="948.5" y="-829.9" font-family="Helvetica,sans-Serif" font-size="12.00">Properties</text>
</a>
</g>
</g>
<!-- Node10&#45;&gt;Node13 -->
<g id="edge16_Node000013_Node000010" class="edge">
<title>Node10&#45;&gt;Node13</title>
<g id="a_edge16_Node000013_Node000010"><a xlink:title=" ">
<path fill="none" stroke="#63b8ff" d="M569.35,-778.2C591.66,-782.96 617.47,-788.24 641,-792.5 716.35,-806.15 802.6,-819.14 864.37,-827.99"/>
<polygon fill="#63b8ff" stroke="#63b8ff" points="569.87,-774.73 559.36,-776.05 568.4,-781.58 569.87,-774.73"/>
</a>
</g>
</g>
<!-- Node14 -->
<g id="Node000014" class="node">
<title>Node14</title>
<g id="a_Node000014"><a xlink:href="class_j_k_q_t_geometric_specific_style_properties.html" target="_top" xlink:title="Support Class for JKQTBasePlotter, which summarizes all properties that define the visual styling of ...">
<polygon fill="white" stroke="#666666" points="844,-750.5 660,-750.5 660,-716.5 844,-716.5 844,-750.5"/>
<text text-anchor="start" x="668" y="-736.9" font-family="Helvetica,sans-Serif" font-size="12.00">JKQTGeometricSpecificStyle</text>
<text text-anchor="middle" x="752" y="-723.9" font-family="Helvetica,sans-Serif" font-size="12.00">Properties</text>
</a>
</g>
</g>
<!-- Node10&#45;&gt;Node14 -->
<g id="edge18_Node000014_Node000010" class="edge">
<title>Node10&#45;&gt;Node14</title>
<g id="a_edge18_Node000014_Node000010"><a xlink:title=" ">
<path fill="none" stroke="#63b8ff" d="M600.59,-753.64C619.95,-751.05 640.47,-748.3 659.92,-745.69"/>
<polygon fill="#63b8ff" stroke="#63b8ff" points="600.04,-750.18 590.59,-754.98 600.96,-757.12 600.04,-750.18"/>
</a>
</g>
</g>
<!-- Node11 -->
<g id="Node000011" class="node">
<title>Node11</title>
<g id="a_Node000011"><a xlink:href="struct_j_k_q_t_p_color_derivation_mode.html" target="_top" xlink:title="Specifies how a fill&#45;color is derived from a given color.">
<polygon fill="white" stroke="#666666" points="179,-776 0,-776 0,-755 179,-755 179,-776"/>
<text text-anchor="middle" x="89.5" y="-762.4" font-family="Helvetica,sans-Serif" font-size="12.00">JKQTPColorDerivationMode</text>
</a>
</g>
</g>
<!-- Node11&#45;&gt;Node10 -->
<g id="edge12_Node000010_Node000011" class="edge">
<title>Node11&#45;&gt;Node10</title>
<g id="a_edge12_Node000010_Node000011"><a xlink:title=" ">
<path fill="none" stroke="#9a32cd" stroke-dasharray="5,2" d="M189.53,-765.5C252.41,-765.5 333.9,-765.5 398.97,-765.5"/>
<polygon fill="#9a32cd" stroke="#9a32cd" points="189.21,-762 179.21,-765.5 189.21,-769 189.21,-762"/>
</a>
</g>
<text text-anchor="middle" x="289" y="-820.9" font-family="Helvetica,sans-Serif" font-size="12.00" fill="grey"> errorColorDerivationMode</text>
<text text-anchor="middle" x="289" y="-807.9" font-family="Helvetica,sans-Serif" font-size="12.00" fill="grey">errorFillColorDerivationMode</text>
<text text-anchor="middle" x="289" y="-794.9" font-family="Helvetica,sans-Serif" font-size="12.00" fill="grey">fillColorDerivationMode</text>
<text text-anchor="middle" x="289" y="-781.9" font-family="Helvetica,sans-Serif" font-size="12.00" fill="grey">graphColorDerivationMode</text>
<text text-anchor="middle" x="289" y="-768.9" font-family="Helvetica,sans-Serif" font-size="12.00" fill="grey">symbolFillColorDerivationMode</text>
</g>
<!-- Node12&#45;&gt;Node9 -->
<g id="edge13_Node000009_Node000012" class="edge">
<title>Node12&#45;&gt;Node9</title>
<g id="a_edge13_Node000009_Node000012"><a xlink:title=" ">
<path fill="none" stroke="#9a32cd" stroke-dasharray="5,2" d="M1045.37,-632.45C1131.8,-625.01 1260.26,-624.92 1360,-671.5 1369.44,-675.91 1369,-681.26 1378,-686.5 1396.46,-697.24 1418.71,-705.82 1437.14,-711.91"/>
<polygon fill="#9a32cd" stroke="#9a32cd" points="1044.95,-628.98 1035.31,-633.37 1045.58,-635.95 1044.95,-628.98"/>
</a>
</g>
<text text-anchor="middle" x="1148.5" y="-638.9" font-family="Helvetica,sans-Serif" font-size="12.00" fill="grey"> barchartStyle</text>
</g>
<!-- Node13&#45;&gt;Node9 -->
<g id="edge15_Node000009_Node000013" class="edge">
<title>Node13&#45;&gt;Node9</title>
<g id="a_edge15_Node000009_Node000013"><a xlink:title=" ">
<path fill="none" stroke="#9a32cd" stroke-dasharray="5,2" d="M1042.96,-840.24C1127.86,-838.26 1255.42,-828.59 1360,-792.5 1399.96,-778.71 1440.72,-749.15 1460.95,-733.21"/>
<polygon fill="#9a32cd" stroke="#9a32cd" points="1042.75,-836.74 1032.82,-840.44 1042.89,-843.74 1042.75,-836.74"/>
</a>
</g>
<text text-anchor="middle" x="1148.5" y="-842.9" font-family="Helvetica,sans-Serif" font-size="12.00" fill="grey"> impulseStyle</text>
</g>
<!-- Node14&#45;&gt;Node9 -->
<g id="edge17_Node000009_Node000014" class="edge">
<title>Node14&#45;&gt;Node9</title>
<g id="a_edge17_Node000009_Node000014"><a xlink:title=" ">
<path fill="none" stroke="#9a32cd" stroke-dasharray="5,2" d="M854.18,-717.03C912.19,-708.43 986.48,-698.81 1053,-694.5 1137.71,-689.02 1159.27,-689.36 1244,-694.5 1298.61,-697.81 1360.11,-705.51 1405.76,-711.99"/>
<polygon fill="#9a32cd" stroke="#9a32cd" points="853.65,-713.57 844.28,-718.52 854.69,-720.5 853.65,-713.57"/>
</a>
</g>
<text text-anchor="middle" x="1148.5" y="-697.9" font-family="Helvetica,sans-Serif" font-size="12.00" fill="grey"> geometricStyle</text>
</g>
<!-- Node15 -->
<g id="Node000015" class="node">
<title>Node15</title>
<g id="a_Node000015"><a xlink:href="class_j_k_q_t_annotations_specific_style_properties.html" target="_top" xlink:title="Support Class for JKQTBasePlotter, which summarizes all properties that define the visual styling of ...">
<polygon fill="white" stroke="#666666" points="1244,-750.5 1053,-750.5 1053,-716.5 1244,-716.5 1244,-750.5"/>
<text text-anchor="start" x="1061" y="-736.9" font-family="Helvetica,sans-Serif" font-size="12.00">JKQTAnnotationsSpecificStyle</text>
<text text-anchor="middle" x="1148.5" y="-723.9" font-family="Helvetica,sans-Serif" font-size="12.00">Properties</text>
</a>
</g>
</g>
<!-- Node14&#45;&gt;Node15 -->
<g id="edge20_Node000015_Node000014" class="edge">
<title>Node14&#45;&gt;Node15</title>
<g id="a_edge20_Node000015_Node000014"><a xlink:title=" ">
<path fill="none" stroke="#63b8ff" d="M854.07,-733.5C915.27,-733.5 992.83,-733.5 1052.84,-733.5"/>
<polygon fill="#63b8ff" stroke="#63b8ff" points="854,-730 844,-733.5 854,-737 854,-730"/>
</a>
</g>
</g>
<!-- Node15&#45;&gt;Node9 -->
<g id="edge19_Node000009_Node000015" class="edge">
<title>Node15&#45;&gt;Node9</title>
<g id="a_edge19_Node000009_Node000015"><a xlink:title=" ">
<path fill="none" stroke="#9a32cd" stroke-dasharray="5,2" d="M1254.39,-729.94C1302.57,-728.31 1358.51,-726.42 1401.86,-724.95"/>
<polygon fill="#9a32cd" stroke="#9a32cd" points="1254.11,-726.45 1244.23,-730.29 1254.34,-733.45 1254.11,-726.45"/>
</a>
</g>
<text text-anchor="middle" x="1311" y="-732.9" font-family="Helvetica,sans-Serif" font-size="12.00" fill="grey"> annotationStyle</text>
</g>
<!-- Node16&#45;&gt;Node3 -->
<g id="edge21_Node000003_Node000016" class="edge">
<title>Node16&#45;&gt;Node3</title>
<g id="a_edge21_Node000003_Node000016"><a xlink:title=" ">
<path fill="none" stroke="#9a32cd" stroke-dasharray="5,2" d="M1887.62,-269.98C1992.41,-249.57 2219.35,-215.22 2405,-255.5 2430.48,-261.03 2587.77,-336.43 2646.45,-364.81"/>
<polygon fill="#9a32cd" stroke="#9a32cd" points="1886.7,-266.6 1877.57,-271.97 1888.06,-273.46 1886.7,-266.6"/>
</a>
</g>
<text text-anchor="middle" x="2278" y="-258.9" font-family="Helvetica,sans-Serif" font-size="12.00" fill="grey"> mathText</text>
</g>
<!-- Node17 -->
<g id="Node000017" class="node">
<title>Node17</title>
<g id="a_Node000017"><a xlink:href="class_j_k_q_t_math_text_node.html" target="_top" xlink:title="subclass representing one node in the syntax tree">
<polygon fill="white" stroke="#666666" points="2343.5,-298 2212.5,-298 2212.5,-277 2343.5,-277 2343.5,-298"/>
<text text-anchor="middle" x="2278" y="-284.4" font-family="Helvetica,sans-Serif" font-size="12.00">JKQTMathTextNode</text>
</a>
</g>
</g>
<!-- Node16&#45;&gt;Node17 -->
<g id="edge24_Node000017_Node000016" class="edge">
<title>Node16&#45;&gt;Node17</title>
<g id="a_edge24_Node000017_Node000016"><a xlink:title=" ">
<path fill="none" stroke="#9a32cd" stroke-dasharray="5,2" d="M1888.32,-280.45C1902,-280.05 1916.51,-279.7 1930,-279.5 2020.21,-278.15 2042.81,-277 2133,-279.5 2158.9,-280.22 2187.4,-281.66 2212.16,-283.13"/>
<polygon fill="#9a32cd" stroke="#9a32cd" points="1887.95,-276.96 1878.06,-280.76 1888.16,-283.96 1887.95,-276.96"/>
</a>
</g>
<text text-anchor="middle" x="2031.5" y="-282.9" font-family="Helvetica,sans-Serif" font-size="12.00" fill="grey"> parentMathText</text>
</g>
<!-- Node17&#45;&gt;Node16 -->
<g id="edge23_Node000016_Node000017" class="edge">
<title>Node17&#45;&gt;Node16</title>
<g id="a_edge23_Node000016_Node000017"><a xlink:title=" ">
<path fill="none" stroke="#9a32cd" stroke-dasharray="5,2" d="M2202.23,-293.54C2131.9,-298.25 2023.69,-302.99 1930,-296.5 1913.04,-295.32 1894.59,-293.05 1878.17,-290.66"/>
<polygon fill="#9a32cd" stroke="#9a32cd" points="2202.59,-297.02 2212.33,-292.84 2202.11,-290.04 2202.59,-297.02"/>
</a>
</g>
<text text-anchor="middle" x="2031.5" y="-302.9" font-family="Helvetica,sans-Serif" font-size="12.00" fill="grey"> parsedNode</text>
</g>
<!-- Node17&#45;&gt;Node17 -->
<g id="edge25_Node000017_Node000017" class="edge">
<title>Node17&#45;&gt;Node17</title>
<g id="a_edge25_Node000017_Node000017"><a xlink:title=" ">
<path fill="none" stroke="#9a32cd" stroke-dasharray="5,2" d="M2236.46,-306.09C2237.62,-311.66 2251.47,-316 2278,-316 2316.59,-316 2328.35,-306.81 2313.27,-298.02"/>
<polygon fill="#9a32cd" stroke="#9a32cd" points="2239.35,-308.07 2242.73,-298.02 2233.82,-303.77 2239.35,-308.07"/>
</a>
</g>
<text text-anchor="middle" x="2278" y="-319.4" font-family="Helvetica,sans-Serif" font-size="12.00" fill="grey"> parentNode</text>
</g>
<!-- Node18 -->
<g id="Node000018" class="node">
<title>Node18</title>
<g id="a_Node000018"><a xlink:title=" ">
<polygon fill="white" stroke="#666666" points="1515,-235 1435,-235 1435,-214 1515,-214 1515,-235"/>
<text text-anchor="middle" x="1475" y="-221.4" font-family="Helvetica,sans-Serif" font-size="12.00">std::mutex</text>
</a>
</g>
</g>
<!-- Node18&#45;&gt;Node3 -->
<g id="edge43_Node000003_Node000018" class="edge">
<title>Node18&#45;&gt;Node3</title>
<g id="a_edge43_Node000003_Node000018"><a xlink:title=" ">
<path fill="none" stroke="#9a32cd" stroke-dasharray="5,2" d="M1501.52,-240.33C1523.98,-253.5 1557.99,-271.63 1590,-281.5 1656.43,-301.99 1675.91,-294.76 1745,-302.5 2072.85,-339.22 2468.23,-363.97 2612.42,-372.35"/>
<polygon fill="#9a32cd" stroke="#9a32cd" points="1503.02,-237.15 1492.64,-235.03 1499.43,-243.16 1503.02,-237.15"/>
</a>
</g>
<text text-anchor="middle" x="2031.5" y="-340.9" font-family="Helvetica,sans-Serif" font-size="12.00" fill="grey"> globalUserSettingsMutex</text>
</g>
<!-- Node18&#45;&gt;Node16 -->
<g id="edge26_Node000016_Node000018" class="edge">
<title>Node18&#45;&gt;Node16</title>
<g id="a_edge26_Node000016_Node000018"><a xlink:title=" ">
<path fill="none" stroke="#9a32cd" stroke-dasharray="5,2" d="M1525.22,-232.62C1592.4,-243.71 1712.08,-263.46 1778.93,-274.49"/>
<polygon fill="#9a32cd" stroke="#9a32cd" points="1525.73,-229.16 1515.3,-230.98 1524.6,-236.07 1525.73,-229.16"/>
</a>
</g>
<text text-anchor="middle" x="1658.5" y="-267.9" font-family="Helvetica,sans-Serif" font-size="12.00" fill="grey"> s_mutex</text>
</g>
<!-- Node30 -->
<g id="Node000030" class="node">
<title>Node30</title>
<g id="a_Node000030"><a xlink:href="class_j_k_q_t_p_synchronized.html" target="_top" xlink:title=" ">
<polygon fill="white" stroke="#666666" points="2405,-209.5 2151,-209.5 2151,-175.5 2405,-175.5 2405,-209.5"/>
<text text-anchor="start" x="2159" y="-195.9" font-family="Helvetica,sans-Serif" font-size="12.00">JKQTPSynchronized&lt;</text>
<text text-anchor="middle" x="2278" y="-182.9" font-family="Helvetica,sans-Serif" font-size="12.00"> QList&lt; JKQTPPaintDeviceAdapter * &gt; &gt;</text>
</a>
</g>
</g>
<!-- Node18&#45;&gt;Node30 -->
<g id="edge45_Node000030_Node000018" class="edge">
<title>Node18&#45;&gt;Node30</title>
<g id="a_edge45_Node000030_Node000018"><a xlink:title=" ">
<path fill="none" stroke="#9a32cd" stroke-dasharray="5,2" d="M1525.4,-225.18C1634.95,-226.32 1906.48,-227.03 2133,-210.5 2138.78,-210.08 2144.68,-209.59 2150.64,-209.04"/>
<polygon fill="#9a32cd" stroke="#9a32cd" points="1525.35,-221.68 1515.31,-225.07 1525.28,-228.68 1525.35,-221.68"/>
</a>
</g>
<text text-anchor="middle" x="1828.5" y="-227.9" font-family="Helvetica,sans-Serif" font-size="12.00" fill="grey"> m_mutex</text>
</g>
<!-- Node31 -->
<g id="Node000031" class="node">
<title>Node31</title>
<g id="a_Node000031"><a xlink:href="class_j_k_q_t_p_synchronized.html" target="_top" xlink:title="template class that wraps any datatype and combines it with a mutex, exposes the lock()/unlock() inte...">
<polygon fill="white" stroke="#666666" points="1912,-188 1745,-188 1745,-167 1912,-167 1912,-188"/>
<text text-anchor="middle" x="1828.5" y="-174.4" font-family="Helvetica,sans-Serif" font-size="12.00">JKQTPSynchronized&lt; T &gt;</text>
</a>
</g>
</g>
<!-- Node18&#45;&gt;Node31 -->
<g id="edge47_Node000031_Node000018" class="edge">
<title>Node18&#45;&gt;Node31</title>
<g id="a_edge47_Node000031_Node000018"><a xlink:title=" ">
<path fill="none" stroke="#9a32cd" stroke-dasharray="5,2" d="M1524.14,-211.42C1544.35,-206.37 1568.18,-200.98 1590,-197.5 1641.18,-189.33 1699.13,-184.37 1744.97,-181.43"/>
<polygon fill="#9a32cd" stroke="#9a32cd" points="1523.07,-208.09 1514.24,-213.94 1524.79,-214.87 1523.07,-208.09"/>
</a>
</g>
<text text-anchor="middle" x="1658.5" y="-200.9" font-family="Helvetica,sans-Serif" font-size="12.00" fill="grey"> m_mutex</text>
</g>
<!-- Node32 -->
<g id="Node000032" class="node">
<title>Node32</title>
<g id="a_Node000032"><a xlink:href="class_j_k_q_t_p_synchronized.html" target="_top" xlink:title=" ">
<polygon fill="white" stroke="#666666" points="2399,-156.5 2157,-156.5 2157,-122.5 2399,-122.5 2399,-156.5"/>
<text text-anchor="start" x="2165" y="-142.9" font-family="Helvetica,sans-Serif" font-size="12.00">JKQTPSynchronized&lt;</text>
<text text-anchor="middle" x="2278" y="-129.9" font-family="Helvetica,sans-Serif" font-size="12.00"> QList&lt; JKQTPSaveDataAdapter * &gt; &gt;</text>
</a>
</g>
</g>
<!-- Node18&#45;&gt;Node32 -->
<g id="edge49_Node000032_Node000018" class="edge">
<title>Node18&#45;&gt;Node32</title>
<g id="a_edge49_Node000032_Node000018"><a xlink:title=" ">
<path fill="none" stroke="#9a32cd" stroke-dasharray="5,2" d="M1508.13,-209.79C1530.68,-199.9 1561.73,-187.14 1590,-178.5 1821.69,-107.68 1890.84,-122.94 2133,-130.5 2140.76,-130.74 2148.75,-131.06 2156.81,-131.43"/>
<polygon fill="#9a32cd" stroke="#9a32cd" points="1506.44,-206.71 1498.72,-213.96 1509.28,-213.11 1506.44,-206.71"/>
</a>
</g>
<text text-anchor="middle" x="1828.5" y="-140.9" font-family="Helvetica,sans-Serif" font-size="12.00" fill="grey"> m_mutex</text>
</g>
<!-- Node19&#45;&gt;Node3 -->
<g id="edge27_Node000003_Node000019" class="edge">
<title>Node19&#45;&gt;Node3</title>
<g id="a_edge27_Node000003_Node000019"><a xlink:title=" ">
<path fill="none" stroke="#9a32cd" stroke-dasharray="5,2" d="M2921.69,-350.66C2874.81,-349.28 2813.2,-349.34 2759,-355.5 2742.25,-357.4 2724.04,-361.21 2708.52,-365"/>
<polygon fill="#9a32cd" stroke="#9a32cd" points="2921.66,-354.16 2931.76,-350.98 2921.88,-347.16 2921.66,-354.16"/>
</a>
</g>
<text text-anchor="middle" x="2815.5" y="-358.9" font-family="Helvetica,sans-Serif" font-size="12.00" fill="grey"> m_plotsModel</text>
</g>
<!-- Node20 -->
<g id="Node000020" class="node">
<title>Node20</title>
<g id="a_Node000020"><a xlink:title=" ">
<polygon fill="white" stroke="#666666" points="2741,-332 2598,-332 2598,-311 2741,-311 2741,-332"/>
<text text-anchor="middle" x="2669.5" y="-318.4" font-family="Helvetica,sans-Serif" font-size="12.00">QAbstractTableModel</text>
</a>
</g>
</g>
<!-- Node20&#45;&gt;Node19 -->
<g id="edge28_Node000019_Node000020" class="edge">
<title>Node20&#45;&gt;Node19</title>
<g id="a_edge28_Node000019_Node000020"><a xlink:title=" ">
<path fill="none" stroke="#63b8ff" d="M2751.43,-329.69C2807.15,-335.33 2880.18,-342.73 2931.99,-347.97"/>
<polygon fill="#63b8ff" stroke="#63b8ff" points="2751.54,-326.19 2741.24,-328.66 2750.83,-333.15 2751.54,-326.19"/>
</a>
</g>
</g>
<!-- Node21 -->
<g id="Node000021" class="node">
<title>Node21</title>
<g id="a_Node000021"><a xlink:href="class_j_k_q_t_p_horizontal_axis.html" target="_top" xlink:title="implements a horizontal axis, based on JKQTPCoordinateAxis (for most of documentation: see JKQTPCoord...">
<polygon fill="white" stroke="#666666" points="2346.5,-407 2209.5,-407 2209.5,-386 2346.5,-386 2346.5,-407"/>
<text text-anchor="middle" x="2278" y="-393.4" font-family="Helvetica,sans-Serif" font-size="12.00">JKQTPHorizontalAxis</text>
</a>
</g>
</g>
<!-- Node21&#45;&gt;Node3 -->
<g id="edge30_Node000003_Node000021" class="edge">
<title>Node21&#45;&gt;Node3</title>
<g id="a_edge30_Node000003_Node000021"><a xlink:title=" ">
<path fill="none" stroke="#9a32cd" stroke-dasharray="5,2" d="M2357.26,-392.28C2432.84,-388.21 2545.44,-382.13 2612.47,-378.52"/>
<polygon fill="#9a32cd" stroke="#9a32cd" points="2356.64,-388.81 2346.85,-392.84 2357.02,-395.8 2356.64,-388.81"/>
</a>
</g>
<text text-anchor="middle" x="2501.5" y="-390.9" font-family="Helvetica,sans-Serif" font-size="12.00" fill="grey"> xAxis</text>
</g>
<!-- Node22&#45;&gt;Node21 -->
<g id="edge31_Node000021_Node000022" class="edge">
<title>Node22&#45;&gt;Node21</title>
<g id="a_edge31_Node000021_Node000022"><a xlink:title=" ">
<path fill="none" stroke="#63b8ff" d="M1922.34,-396.5C2007.96,-396.5 2133.03,-396.5 2209.49,-396.5"/>
<polygon fill="#63b8ff" stroke="#63b8ff" points="1922.1,-393 1912.1,-396.5 1922.1,-400 1922.1,-393"/>
</a>
</g>
</g>
<!-- Node23 -->
<g id="Node000023" class="node">
<title>Node23</title>
<g id="a_Node000023"><a xlink:href="class_j_k_q_t_p_vertical_axis.html" target="_top" xlink:title="implements a vertical axis for use as primary, secondary, ... axis of a JKQTPBasePlotter,...">
<polygon fill="white" stroke="#666666" points="2339,-485 2217,-485 2217,-464 2339,-464 2339,-485"/>
<text text-anchor="middle" x="2278" y="-471.4" font-family="Helvetica,sans-Serif" font-size="12.00">JKQTPVerticalAxis</text>
</a>
</g>
</g>
<!-- Node23&#45;&gt;Node3 -->
<g id="edge33_Node000003_Node000023" class="edge">
<title>Node23&#45;&gt;Node3</title>
<g id="a_edge33_Node000003_Node000023"><a xlink:title=" ">
<path fill="none" stroke="#9a32cd" stroke-dasharray="5,2" d="M2349.36,-480.39C2412.21,-482.97 2505.56,-480.07 2580,-449.5 2614.27,-435.43 2645.23,-403.05 2659.76,-386.17"/>
<polygon fill="#9a32cd" stroke="#9a32cd" points="2349.31,-476.89 2339.16,-479.91 2348.99,-483.88 2349.31,-476.89"/>
</a>
</g>
<text text-anchor="middle" x="2501.5" y="-482.9" font-family="Helvetica,sans-Serif" font-size="12.00" fill="grey"> yAxis</text>
</g>
<!-- Node24&#45;&gt;Node23 -->
<g id="edge34_Node000023_Node000024" class="edge">
<title>Node24&#45;&gt;Node23</title>
<g id="a_edge34_Node000023_Node000024"><a xlink:title=" ">
<path fill="none" stroke="#63b8ff" d="M1914.42,-474.5C2002.81,-474.5 2138.99,-474.5 2216.86,-474.5"/>
<polygon fill="#63b8ff" stroke="#63b8ff" points="1914.15,-471 1904.15,-474.5 1914.15,-478 1914.15,-471"/>
</a>
</g>
</g>
<!-- Node25 -->
<g id="Node000025" class="node">
<title>Node25</title>
<g id="a_Node000025"><a xlink:href="class_j_k_q_t_p_datastore.html" target="_top" xlink:title="This class manages data columns (with entries of type double ), used by JKQTPlotter/JKQTBasePlotter t...">
<polygon fill="white" stroke="#666666" points="2333.5,-104 2222.5,-104 2222.5,-83 2333.5,-83 2333.5,-104"/>
<text text-anchor="middle" x="2278" y="-90.4" font-family="Helvetica,sans-Serif" font-size="12.00">JKQTPDatastore</text>
</a>
</g>
</g>
<!-- Node25&#45;&gt;Node3 -->
<g id="edge36_Node000003_Node000025" class="edge">
<title>Node25&#45;&gt;Node3</title>
<g id="a_edge36_Node000003_Node000025"><a xlink:title=" ">
<path fill="none" stroke="#9a32cd" stroke-dasharray="5,2" d="M2343.89,-102.91C2431.76,-115.73 2577.98,-137.35 2580,-139.5 2610.85,-172.35 2572.36,-304.44 2598,-341.5 2605.5,-352.34 2617.44,-359.85 2629.37,-364.99"/>
<polygon fill="#9a32cd" stroke="#9a32cd" points="2344.14,-99.41 2333.74,-101.43 2343.13,-106.34 2344.14,-99.41"/>
</a>
</g>
<text text-anchor="middle" x="2501.5" y="-142.9" font-family="Helvetica,sans-Serif" font-size="12.00" fill="grey"> datastore</text>
</g>
<!-- Node27 -->
<g id="Node000027" class="node">
<title>Node27</title>
<g id="a_Node000027"><a xlink:href="class_j_k_q_t_p_column.html" target="_top" xlink:title="internally stores information about one data column. See JKQTPDatastore for more information.">
<polygon fill="white" stroke="#666666" points="2718.5,-110 2620.5,-110 2620.5,-89 2718.5,-89 2718.5,-110"/>
<text text-anchor="middle" x="2669.5" y="-96.4" font-family="Helvetica,sans-Serif" font-size="12.00">JKQTPColumn</text>
</a>
</g>
</g>
<!-- Node25&#45;&gt;Node27 -->
<g id="edge39_Node000027_Node000025" class="edge">
<title>Node25&#45;&gt;Node27</title>
<g id="a_edge39_Node000027_Node000025"><a xlink:title=" ">
<path fill="none" stroke="#9a32cd" stroke-dasharray="5,2" d="M2343.75,-94.5C2421.7,-95.7 2550.79,-97.69 2620.42,-98.76"/>
<polygon fill="#9a32cd" stroke="#9a32cd" points="2343.62,-91 2333.57,-94.34 2343.51,-97.99 2343.62,-91"/>
</a>
</g>
<text text-anchor="middle" x="2501.5" y="-100.9" font-family="Helvetica,sans-Serif" font-size="12.00" fill="grey"> datastore</text>
</g>
<!-- Node26 -->
<g id="Node000026" class="node">
<title>Node26</title>
<g id="a_Node000026"><a xlink:title=" ">
<polygon fill="white" stroke="#666666" points="3105,-68 2890,-68 2890,-47 3105,-47 3105,-68"/>
<text text-anchor="middle" x="2997.5" y="-54.4" font-family="Helvetica,sans-Serif" font-size="12.00">std::unique_ptr&lt; JKQTPColumn &gt;</text>
</a>
</g>
</g>
<!-- Node26&#45;&gt;Node25 -->
<g id="edge37_Node000025_Node000026" class="edge">
<title>Node26&#45;&gt;Node25</title>
<g id="a_edge37_Node000025_Node000026"><a xlink:title=" ">
<path fill="none" stroke="#9a32cd" stroke-dasharray="5,2" d="M2879.84,-58.7C2800.36,-59.94 2692.77,-62.45 2598,-67.5 2505.06,-72.45 2397.17,-82.05 2333.69,-88.1"/>
<polygon fill="#9a32cd" stroke="#9a32cd" points="2879.93,-62.2 2889.88,-58.55 2879.83,-55.2 2879.93,-62.2"/>
</a>
</g>
<text text-anchor="middle" x="2669.5" y="-70.9" font-family="Helvetica,sans-Serif" font-size="12.00" fill="grey"> m_invalidColumn</text>
</g>
<!-- Node27&#45;&gt;Node26 -->
<g id="edge38_Node000026_Node000027" class="edge">
<title>Node27&#45;&gt;Node26</title>
<g id="a_edge38_Node000026_Node000027"><a xlink:title=" ">
<path fill="none" stroke="#9a32cd" stroke-dasharray="5,2" d="M2728.64,-92.01C2780.51,-85.33 2857.02,-75.47 2915,-68"/>
<polygon fill="#9a32cd" stroke="#9a32cd" points="2728.07,-88.55 2718.6,-93.3 2728.97,-95.5 2728.07,-88.55"/>
</a>
</g>
<text text-anchor="middle" x="2815.5" y="-89.9" font-family="Helvetica,sans-Serif" font-size="12.00" fill="grey"> ptr</text>
</g>
<!-- Node28 -->
<g id="Node000028" class="node">
<title>Node28</title>
<g id="a_Node000028"><a xlink:title=" ">
<polygon fill="white" stroke="#666666" points="2739.5,-21 2599.5,-21 2599.5,0 2739.5,0 2739.5,-21"/>
<text text-anchor="middle" x="2669.5" y="-7.4" font-family="Helvetica,sans-Serif" font-size="12.00">std::unique_ptr&lt; T &gt;</text>
</a>
</g>
</g>
<!-- Node28&#45;&gt;Node26 -->
<g id="edge40_Node000026_Node000028" class="edge">
<title>Node28&#45;&gt;Node26</title>
<g id="a_edge40_Node000026_Node000028"><a xlink:title=" ">
<path fill="none" stroke="orange" stroke-dasharray="5,2" d="M2750.04,-16.28C2787.21,-19.52 2832.01,-24.2 2872,-30.5 2899.42,-34.82 2929.88,-41.39 2953.8,-46.97"/>
<polygon fill="orange" stroke="orange" points="2750.02,-12.76 2739.76,-15.4 2749.43,-19.74 2750.02,-12.76"/>
</a>
</g>
<text text-anchor="middle" x="2815.5" y="-33.9" font-family="Helvetica,sans-Serif" font-size="12.00" fill="grey"> &lt; JKQTPColumn &gt;</text>
</g>
<!-- Node29 -->
<g id="Node000029" class="node">
<title>Node29</title>
<g id="a_Node000029"><a xlink:title=" ">
<polygon fill="white" stroke="#666666" points="2292.5,-21 2263.5,-21 2263.5,0 2292.5,0 2292.5,-21"/>
<text text-anchor="middle" x="2278" y="-7.4" font-family="Helvetica,sans-Serif" font-size="12.00">T</text>
</a>
</g>
</g>
<!-- Node29&#45;&gt;Node28 -->
<g id="edge41_Node000028_Node000029" class="edge">
<title>Node29&#45;&gt;Node28</title>
<g id="a_edge41_Node000028_Node000029"><a xlink:title=" ">
<path fill="none" stroke="#9a32cd" stroke-dasharray="5,2" d="M2302.88,-10.5C2360.79,-10.5 2510.51,-10.5 2599.37,-10.5"/>
<polygon fill="#9a32cd" stroke="#9a32cd" points="2302.86,-7 2292.86,-10.5 2302.86,-14 2302.86,-7"/>
</a>
</g>
<text text-anchor="middle" x="2501.5" y="-13.9" font-family="Helvetica,sans-Serif" font-size="12.00" fill="grey"> ptr</text>
</g>
<!-- Node30&#45;&gt;Node3 -->
<g id="edge44_Node000003_Node000030" class="edge">
<title>Node30&#45;&gt;Node3</title>
<g id="a_edge44_Node000003_Node000030"><a xlink:title=" ">
<path fill="none" stroke="#9a32cd" stroke-dasharray="5,2" d="M2415.53,-196.63C2489.16,-200.2 2567.51,-206.73 2580,-218.5 2620.2,-256.39 2565.3,-296.97 2598,-341.5 2605.88,-352.23 2618.06,-359.73 2630.09,-364.9"/>
<polygon fill="#9a32cd" stroke="#9a32cd" points="2415.33,-193.12 2405.18,-196.14 2415,-200.11 2415.33,-193.12"/>
</a>
</g>
<text text-anchor="middle" x="2501.5" y="-221.9" font-family="Helvetica,sans-Serif" font-size="12.00" fill="grey"> jkqtpPaintDeviceAdapters</text>
</g>
<!-- Node31&#45;&gt;Node30 -->
<g id="edge46_Node000030_Node000031" class="edge">
<title>Node31&#45;&gt;Node30</title>
<g id="a_edge46_Node000030_Node000031"><a xlink:title=" ">
<path fill="none" stroke="orange" stroke-dasharray="5,2" d="M1922.51,-178.86C1982.59,-179.94 2062.43,-181.73 2133,-184.5 2138.88,-184.73 2144.89,-184.99 2150.97,-185.26"/>
<polygon fill="orange" stroke="orange" points="1922.35,-175.36 1912.29,-178.69 1922.22,-182.36 1922.35,-175.36"/>
</a>
</g>
<text text-anchor="start" x="1948" y="-200.9" font-family="Helvetica,sans-Serif" font-size="12.00" fill="grey"> &lt; QList&lt; JKQTPPaintDevice</text>
<text text-anchor="middle" x="2031.5" y="-187.9" font-family="Helvetica,sans-Serif" font-size="12.00" fill="grey">Adapter * &gt; &gt;</text>
</g>
<!-- Node31&#45;&gt;Node32 -->
<g id="edge50_Node000032_Node000031" class="edge">
<title>Node31&#45;&gt;Node32</title>
<g id="a_edge50_Node000032_Node000031"><a xlink:title=" ">
<path fill="none" stroke="orange" stroke-dasharray="5,2" d="M1868.06,-163.87C1886.55,-157.99 1909.16,-151.72 1930,-148.5 2004.74,-136.94 2089.6,-134.55 2156.69,-135.12"/>
<polygon fill="orange" stroke="orange" points="1866.94,-160.56 1858.52,-166.99 1869.11,-167.21 1866.94,-160.56"/>
</a>
</g>
<text text-anchor="start" x="1930" y="-164.9" font-family="Helvetica,sans-Serif" font-size="12.00" fill="grey"> &lt; QList&lt; JKQTPSaveDataAdapter</text>
<text text-anchor="middle" x="2031.5" y="-151.9" font-family="Helvetica,sans-Serif" font-size="12.00" fill="grey"> * &gt; &gt;</text>
</g>
<!-- Node32&#45;&gt;Node3 -->
<g id="edge48_Node000003_Node000032" class="edge">
<title>Node32&#45;&gt;Node3</title>
<g id="a_edge48_Node000003_Node000032"><a xlink:title=" ">
<path fill="none" stroke="#9a32cd" stroke-dasharray="5,2" d="M2409.29,-155.02C2489.18,-164.83 2576.81,-176.24 2580,-179.5 2605.34,-205.39 2577.07,-311.94 2598,-341.5 2605.62,-352.26 2617.58,-359.74 2629.51,-364.89"/>
<polygon fill="#9a32cd" stroke="#9a32cd" points="2409.45,-151.51 2399.09,-153.77 2408.59,-158.46 2409.45,-151.51"/>
</a>
</g>
<text text-anchor="middle" x="2501.5" y="-182.9" font-family="Helvetica,sans-Serif" font-size="12.00" fill="grey"> jkqtpSaveDataAdapters</text>
</g>
</g>
</svg>
