<?xml version="1.0" encoding="UTF-8" standalone="no"?>
<!DOCTYPE svg PUBLIC "-//W3C//DTD SVG 1.1//EN"
 "http://www.w3.org/Graphics/SVG/1.1/DTD/svg11.dtd">
<!-- Generated by graphviz version 2.43.0 (0)
 -->
<!-- Title: JKQTMathTextHorizontalListNode Pages: 1 -->
<svg width="416pt" height="173pt"
 viewBox="0.00 0.00 415.50 173.00" xmlns="http://www.w3.org/2000/svg" xmlns:xlink="http://www.w3.org/1999/xlink">
<g id="graph0" class="graph" transform="scale(1 1) rotate(0) translate(4 169)">
<title>JKQTMathTextHorizontalListNode</title>
<!-- Node1 -->
<g id="node1" class="node">
<title>Node1</title>
<g id="a_node1"><a xlink:title="subclass representing a list of nodes in the syntax tree, layed out horizontally">
<polygon fill="#bfbfbf" stroke="black" points="0,-0.5 0,-21.5 212,-21.5 212,-0.5 0,-0.5"/>
<text text-anchor="middle" x="106" y="-7.9" font-family="Helvetica,sans-Serif" font-size="12.00">JKQTMathTextHorizontalListNode</text>
</a>
</g>
</g>
<!-- Node2 -->
<g id="node2" class="node">
<title>Node2</title>
<g id="a_node2"><a xlink:href="class_j_k_q_t_math_text_multi_child_node.html" target="_top" xlink:title="subclass representing a node in the syntax tree, that has two children">
<polygon fill="none" stroke="black" points="12,-59.5 12,-80.5 200,-80.5 200,-59.5 12,-59.5"/>
<text text-anchor="middle" x="106" y="-66.9" font-family="Helvetica,sans-Serif" font-size="12.00">JKQTMathTextMultiChildNode</text>
</a>
</g>
</g>
<!-- Node2&#45;&gt;Node1 -->
<g id="edge1" class="edge">
<title>Node2&#45;&gt;Node1</title>
<path fill="none" stroke="midnightblue" d="M106,-49.23C106,-39.85 106,-29.07 106,-21.53"/>
<polygon fill="midnightblue" stroke="midnightblue" points="102.5,-49.33 106,-59.33 109.5,-49.33 102.5,-49.33"/>
</g>
<!-- Node3 -->
<g id="node3" class="node">
<title>Node3</title>
<g id="a_node3"><a xlink:href="class_j_k_q_t_math_text_node.html" target="_top" xlink:title="subclass representing one node in the syntax tree">
<polygon fill="none" stroke="black" points="86.5,-143.5 86.5,-164.5 217.5,-164.5 217.5,-143.5 86.5,-143.5"/>
<text text-anchor="middle" x="152" y="-150.9" font-family="Helvetica,sans-Serif" font-size="12.00">JKQTMathTextNode</text>
</a>
</g>
</g>
<!-- Node3&#45;&gt;Node2 -->
<g id="edge2" class="edge">
<title>Node3&#45;&gt;Node2</title>
<path fill="none" stroke="midnightblue" d="M136.98,-135.22C134.5,-131.92 132.07,-128.43 130,-125 121.11,-110.24 113.55,-91.59 109.41,-80.52"/>
<polygon fill="midnightblue" stroke="midnightblue" points="134.46,-137.68 143.43,-143.33 139.94,-133.32 134.46,-137.68"/>
</g>
<!-- Node3&#45;&gt;Node3 -->
<g id="edge6" class="edge">
<title>Node3&#45;&gt;Node3</title>
<path fill="none" stroke="#9a32cd" stroke-dasharray="5,2" d="M227.67,-159.58C232.55,-158.28 235.5,-156.42 235.5,-154 235.5,-150.23 228.31,-147.81 217.81,-146.75"/>
<polygon fill="#9a32cd" stroke="#9a32cd" points="227.08,-156.13 217.81,-161.25 228.25,-163.03 227.08,-156.13"/>
<text text-anchor="middle" x="273" y="-150.9" font-family="Helvetica,sans-Serif" font-size="12.00"> parentNode</text>
</g>
<!-- Node4 -->
<g id="node4" class="node">
<title>Node4</title>
<g id="a_node4"><a xlink:href="class_j_k_q_t_math_text.html" target="_top" xlink:title="this class parses a LaTeX string and can then draw the contained text/equation onto a QPainter">
<polygon fill="none" stroke="black" points="218.5,-59.5 218.5,-80.5 317.5,-80.5 317.5,-59.5 218.5,-59.5"/>
<text text-anchor="middle" x="268" y="-66.9" font-family="Helvetica,sans-Serif" font-size="12.00">JKQTMathText</text>
</a>
</g>
</g>
<!-- Node3&#45;&gt;Node4 -->
<g id="edge5" class="edge">
<title>Node3&#45;&gt;Node4</title>
<path fill="none" stroke="#9a32cd" stroke-dasharray="5,2" d="M145.05,-133.68C142.32,-122.42 141.4,-108.59 149,-99 153.55,-93.26 187.77,-85.57 218.36,-79.7"/>
<polygon fill="#9a32cd" stroke="#9a32cd" points="141.76,-134.9 148,-143.46 148.46,-132.88 141.76,-134.9"/>
<text text-anchor="middle" x="193" y="-115.4" font-family="Helvetica,sans-Serif" font-size="12.00"> parsedNode</text>
<text text-anchor="middle" x="193" y="-102.4" font-family="Helvetica,sans-Serif" font-size="12.00">unparsedNode</text>
</g>
<!-- Node4&#45;&gt;Node3 -->
<g id="edge3" class="edge">
<title>Node4&#45;&gt;Node3</title>
<path fill="none" stroke="#9a32cd" stroke-dasharray="5,2" d="M262.51,-90.5C258.35,-102.01 251.5,-116.04 241,-125 231.14,-133.41 218.75,-139.29 206.38,-143.42"/>
<polygon fill="#9a32cd" stroke="#9a32cd" points="265.89,-91.44 265.62,-80.85 259.22,-89.3 265.89,-91.44"/>
<text text-anchor="middle" x="307.5" y="-108.9" font-family="Helvetica,sans-Serif" font-size="12.00"> parentMathText</text>
</g>
<!-- Node5 -->
<g id="node5" class="node">
<title>Node5</title>
<g id="a_node5"><a xlink:title=" ">
<polygon fill="none" stroke="black" points="342.5,-143.5 342.5,-164.5 407.5,-164.5 407.5,-143.5 342.5,-143.5"/>
<text text-anchor="middle" x="375" y="-150.9" font-family="Helvetica,sans-Serif" font-size="12.00">QObject</text>
</a>
</g>
</g>
<!-- Node5&#45;&gt;Node4 -->
<g id="edge4" class="edge">
<title>Node5&#45;&gt;Node4</title>
<path fill="none" stroke="midnightblue" d="M374.48,-132.96C373.15,-121.65 369.66,-108 361,-99 349.66,-87.21 333.56,-80.34 317.94,-76.35"/>
<polygon fill="midnightblue" stroke="midnightblue" points="371.01,-133.52 375.2,-143.25 377.99,-133.03 371.01,-133.52"/>
</g>
</g>
</svg>
