<?xml version="1.0" encoding="UTF-8" standalone="no"?>
<!DOCTYPE svg PUBLIC "-//W3C//DTD SVG 1.1//EN"
 "http://www.w3.org/Graphics/SVG/1.1/DTD/svg11.dtd">
<!-- Generated by graphviz version 2.43.0 (0)
 -->
<!-- Title: JKQTFPVCrossPlot Pages: 1 -->
<svg width="130pt" height="204pt"
 viewBox="0.00 0.00 130.00 204.00" xmlns="http://www.w3.org/2000/svg" xmlns:xlink="http://www.w3.org/1999/xlink">
<g id="graph0" class="graph" transform="scale(1 1) rotate(0) translate(4 200)">
<title>JKQTFPVCrossPlot</title>
<!-- Node1 -->
<g id="node1" class="node">
<title>Node1</title>
<g id="a_node1"><a xlink:title="a simple plot that draws a cross for every datapoint">
<polygon fill="#bfbfbf" stroke="black" points="0,-0.5 0,-21.5 122,-21.5 122,-0.5 0,-0.5"/>
<text text-anchor="middle" x="61" y="-7.9" font-family="Helvetica,sans-Serif" font-size="12.00">JKQTFPVCrossPlot</text>
</a>
</g>
</g>
<!-- Node2 -->
<g id="node2" class="node">
<title>Node2</title>
<g id="a_node2"><a xlink:href="class_j_k_q_t_f_p_line_plot.html" target="_top" xlink:title="a simple line plot for JKQTFastPlotter">
<polygon fill="none" stroke="black" points="7.5,-58.5 7.5,-79.5 114.5,-79.5 114.5,-58.5 7.5,-58.5"/>
<text text-anchor="middle" x="61" y="-65.9" font-family="Helvetica,sans-Serif" font-size="12.00">JKQTFPLinePlot</text>
</a>
</g>
</g>
<!-- Node2&#45;&gt;Node1 -->
<g id="edge1" class="edge">
<title>Node2&#45;&gt;Node1</title>
<path fill="none" stroke="midnightblue" d="M61,-48.16C61,-39.16 61,-28.92 61,-21.64"/>
<polygon fill="midnightblue" stroke="midnightblue" points="57.5,-48.25 61,-58.25 64.5,-48.25 57.5,-48.25"/>
</g>
<!-- Node3 -->
<g id="node3" class="node">
<title>Node3</title>
<g id="a_node3"><a xlink:href="class_j_k_q_t_f_p_plot.html" target="_top" xlink:title="base class for all plots that may be plotted by JKQTFastPlotter">
<polygon fill="none" stroke="black" points="20,-116.5 20,-137.5 102,-137.5 102,-116.5 20,-116.5"/>
<text text-anchor="middle" x="61" y="-123.9" font-family="Helvetica,sans-Serif" font-size="12.00">JKQTFPPlot</text>
</a>
</g>
</g>
<!-- Node3&#45;&gt;Node2 -->
<g id="edge2" class="edge">
<title>Node3&#45;&gt;Node2</title>
<path fill="none" stroke="midnightblue" d="M61,-106.16C61,-97.16 61,-86.92 61,-79.64"/>
<polygon fill="midnightblue" stroke="midnightblue" points="57.5,-106.25 61,-116.25 64.5,-106.25 57.5,-106.25"/>
</g>
<!-- Node4 -->
<g id="node4" class="node">
<title>Node4</title>
<g id="a_node4"><a xlink:title=" ">
<polygon fill="none" stroke="black" points="28.5,-174.5 28.5,-195.5 93.5,-195.5 93.5,-174.5 28.5,-174.5"/>
<text text-anchor="middle" x="61" y="-181.9" font-family="Helvetica,sans-Serif" font-size="12.00">QObject</text>
</a>
</g>
</g>
<!-- Node4&#45;&gt;Node3 -->
<g id="edge3" class="edge">
<title>Node4&#45;&gt;Node3</title>
<path fill="none" stroke="midnightblue" d="M61,-164.16C61,-155.16 61,-144.92 61,-137.64"/>
<polygon fill="midnightblue" stroke="midnightblue" points="57.5,-164.25 61,-174.25 64.5,-164.25 57.5,-164.25"/>
</g>
</g>
</svg>
