<?xml version="1.0" encoding="UTF-8" standalone="no"?>
<!DOCTYPE svg PUBLIC "-//W3C//DTD SVG 1.1//EN"
 "http://www.w3.org/Graphics/SVG/1.1/DTD/svg11.dtd">
<!-- Generated by graphviz version 2.43.0 (0)
 -->
<!-- Title: JKQTPHorizontalAxis Pages: 1 -->
<!--zoomable 432 -->
<svg id="main" version="1.1" xmlns="http://www.w3.org/2000/svg" xmlns:xlink="http://www.w3.org/1999/xlink" xml:space="preserve" onload="init(evt)">
<style type="text/css"><![CDATA[
.edge:hover path { stroke: red; }
.edge:hover polygon { stroke: red; fill: red; }
]]></style>
<script type="text/javascript"><![CDATA[
var edges = document.getElementsByTagName('g');
if (edges && edges.length) {
  for (var i=0;i<edges.length;i++) {
    if (edges[i].id.substr(0,4)=='edge') {
      edges[i].setAttribute('class','edge');
    }
  }
}
]]></script>
        <defs>
                <circle id="rim" cx="0" cy="0" r="7"/>
                <circle id="rim2" cx="0" cy="0" r="3.5"/>
                <g id="zoomPlus">
                        <use xlink:href="#rim" fill="#404040">
                                <set attributeName="fill" to="#808080" begin="zoomplus.mouseover" end="zoomplus.mouseout"/>
                        </use>
                        <path d="M-4,0h8M0,-4v8" fill="none" stroke="white" stroke-width="1.5" pointer-events="none"/>
                </g>
                <g id="zoomMin">
                        <use xlink:href="#rim" fill="#404040">
                                <set attributeName="fill" to="#808080" begin="zoomminus.mouseover" end="zoomminus.mouseout"/>
                        </use>
                        <path d="M-4,0h8" fill="none" stroke="white" stroke-width="1.5" pointer-events="none"/>
                </g>
                <g id="dirArrow">
                        <path fill="none" stroke="white" stroke-width="1.5" d="M0,-3.0v7 M-2.5,-0.5L0,-3.0L2.5,-0.5"/>
                </g>
               <g id="resetDef">
                       <use xlink:href="#rim2" fill="#404040">
                               <set attributeName="fill" to="#808080" begin="reset.mouseover" end="reset.mouseout"/>
                       </use>
               </g>
        </defs>

<script type="text/javascript">
var viewWidth = 2573;
var viewHeight = 432;
var sectionId = 'dynsection-1';
</script>
<script xlink:href="svgpan.js"/>
<svg id="graph" class="graph">
<g id="viewport">
<title>JKQTPHorizontalAxis</title>
<!-- Node1 -->
<g id="node1" class="node">
<title>Node1</title>
<g id="a_node1"><a xlink:title="implements a horizontal axis, based on JKQTPCoordinateAxis (for most of documentation: see JKQTPCoord...">
<polygon fill="#bfbfbf" stroke="black" points="1694,-255.5 1694,-276.5 1827,-276.5 1827,-255.5 1694,-255.5"/>
<text text-anchor="middle" x="1760.5" y="-262.9" font-family="FreeSans" font-size="12.00">JKQTPHorizontalAxis</text>
</a>
</g>
</g>
<!-- Node4 -->
<g id="node4" class="node">
<title>Node4</title>
<g id="a_node4"><a xlink:href="class_j_k_q_t_base_plotter.html" target="_top" xlink:title="base class for 2D plotter classes (used by the plotter widget JKQTPlotter)">
<polygon fill="none" stroke="black" points="1956,-198.5 1956,-219.5 2065,-219.5 2065,-198.5 1956,-198.5"/>
<text text-anchor="middle" x="2010.5" y="-205.9" font-family="FreeSans" font-size="12.00">JKQTBasePlotter</text>
</a>
</g>
</g>
<!-- Node1&#45;&gt;Node4 -->
<g id="edge26" class="edge">
<title>Node1&#45;&gt;Node4</title>
<path fill="none" stroke="#9a32cd" stroke-dasharray="5,2" d="M1795.73,-251.72C1810.92,-245.84 1829.13,-239.39 1846,-235 1882.16,-225.59 1923.76,-219.03 1955.94,-214.85"/>
<polygon fill="#9a32cd" stroke="#9a32cd" points="1794.25,-248.55 1786.24,-255.48 1796.82,-255.06 1794.25,-248.55"/>
<text text-anchor="middle" x="1886" y="-238.4" font-family="FreeSans" font-size="12.00"> xAxis</text>
</g>
<!-- Node2 -->
<g id="node2" class="node">
<title>Node2</title>
<g id="a_node2"><a xlink:href="class_j_k_q_t_p_coordinate_axis.html" target="_top" xlink:title="this virtual class is the base for any type of coordinate axis, to be drawn by JKQTBasePlotter.">
<polygon fill="none" stroke="black" points="2244.5,-287.5 2244.5,-308.5 2381.5,-308.5 2381.5,-287.5 2244.5,-287.5"/>
<text text-anchor="middle" x="2313" y="-294.9" font-family="FreeSans" font-size="12.00">JKQTPCoordinateAxis</text>
</a>
</g>
</g>
<!-- Node2&#45;&gt;Node1 -->
<g id="edge1" class="edge">
<title>Node2&#45;&gt;Node1</title>
<path fill="none" stroke="midnightblue" d="M2234.04,-299.92C2141.23,-301.23 1981.74,-300.36 1846,-284 1832.15,-282.33 1817.21,-279.5 1803.8,-276.57"/>
<polygon fill="midnightblue" stroke="midnightblue" points="2234.24,-303.42 2244.19,-299.77 2234.14,-296.42 2234.24,-303.42"/>
</g>
<!-- Node19 -->
<g id="node19" class="node">
<title>Node19</title>
<g id="a_node19"><a xlink:href="class_j_k_q_t_p_vertical_axis.html" target="_top" xlink:title="implements a vertical axis, based on JKQTPCoordinateAxis (for most of documentation: see JKQTPCoordin...">
<polygon fill="none" stroke="black" points="2447,-238.5 2447,-259.5 2565,-259.5 2565,-238.5 2447,-238.5"/>
<text text-anchor="middle" x="2506" y="-245.9" font-family="FreeSans" font-size="12.00">JKQTPVerticalAxis</text>
</a>
</g>
</g>
<!-- Node2&#45;&gt;Node19 -->
<g id="edge28" class="edge">
<title>Node2&#45;&gt;Node19</title>
<path fill="none" stroke="midnightblue" d="M2364.71,-284.99C2395.66,-277.05 2434.72,-267.03 2463.76,-259.58"/>
<polygon fill="midnightblue" stroke="midnightblue" points="2363.79,-281.61 2354.97,-287.49 2365.53,-288.39 2363.79,-281.61"/>
</g>
<!-- Node3 -->
<g id="node3" class="node">
<title>Node3</title>
<g id="a_node3"><a xlink:title=" ">
<polygon fill="none" stroke="black" points="1414,-353.5 1414,-374.5 1476,-374.5 1476,-353.5 1414,-353.5"/>
<text text-anchor="middle" x="1445" y="-360.9" font-family="FreeSans" font-size="12.00">QObject</text>
</a>
</g>
</g>
<!-- Node3&#45;&gt;Node2 -->
<g id="edge2" class="edge">
<title>Node3&#45;&gt;Node2</title>
<path fill="none" stroke="midnightblue" d="M1485.75,-374.07C1586.19,-397.89 1857.79,-452.22 2077,-404 2163.99,-384.87 2257.74,-331.43 2295.17,-308.58"/>
<polygon fill="midnightblue" stroke="midnightblue" points="1486.56,-370.66 1476.02,-371.73 1484.92,-377.47 1486.56,-370.66"/>
</g>
<!-- Node3&#45;&gt;Node4 -->
<g id="edge4" class="edge">
<title>Node3&#45;&gt;Node4</title>
<path fill="none" stroke="midnightblue" d="M1486.17,-359.49C1536.03,-351.95 1621.06,-332.5 1675,-284 1688.9,-271.51 1678.28,-257.52 1693,-246 1747.63,-203.23 1777.1,-223.19 1846,-215 1882.53,-210.66 1923.94,-209.17 1955.94,-208.77"/>
<polygon fill="midnightblue" stroke="midnightblue" points="1485.5,-356.05 1476.09,-360.92 1486.48,-362.98 1485.5,-356.05"/>
</g>
<!-- Node15 -->
<g id="node15" class="node">
<title>Node15</title>
<g id="a_node15"><a xlink:href="class_j_k_q_t_math_text.html" target="_top" xlink:title="this class parses a LaTeX string and can then draw the contained text/equation onto a QPainter">
<polygon fill="none" stroke="black" points="1711.5,-350.5 1711.5,-371.5 1809.5,-371.5 1809.5,-350.5 1711.5,-350.5"/>
<text text-anchor="middle" x="1760.5" y="-357.9" font-family="FreeSans" font-size="12.00">JKQTMathText</text>
</a>
</g>
</g>
<!-- Node3&#45;&gt;Node15 -->
<g id="edge20" class="edge">
<title>Node3&#45;&gt;Node15</title>
<path fill="none" stroke="midnightblue" d="M1486.23,-363.62C1543.8,-363.06 1649.53,-362.05 1711.24,-361.46"/>
<polygon fill="midnightblue" stroke="midnightblue" points="1486.03,-360.12 1476.06,-363.71 1486.09,-367.12 1486.03,-360.12"/>
</g>
<!-- Node4&#45;&gt;Node2 -->
<g id="edge3" class="edge">
<title>Node4&#45;&gt;Node2</title>
<path fill="none" stroke="#9a32cd" stroke-dasharray="5,2" d="M2040.14,-224.27C2055.97,-232.22 2076.19,-241.59 2095,-248 2139.4,-263.12 2152.29,-260.48 2198,-271 2221.19,-276.34 2247,-282.43 2268.18,-287.48"/>
<polygon fill="#9a32cd" stroke="#9a32cd" points="2041.4,-220.98 2030.91,-219.54 2038.21,-227.21 2041.4,-220.98"/>
<text text-anchor="middle" x="2146.5" y="-274.4" font-family="FreeSans" font-size="12.00"> parent</text>
</g>
<!-- Node4&#45;&gt;Node4 -->
<g id="edge35" class="edge">
<title>Node4&#45;&gt;Node4</title>
<path fill="none" stroke="#9a32cd" stroke-dasharray="5,2" d="M1987.65,-229.43C1989.41,-234.35 1997.03,-238 2010.5,-238 2032.05,-238 2038.62,-228.65 2030.2,-219.71"/>
<polygon fill="#9a32cd" stroke="#9a32cd" points="1991.04,-230.3 1990.8,-219.71 1984.39,-228.14 1991.04,-230.3"/>
<text text-anchor="middle" x="2010.5" y="-254.4" font-family="FreeSans" font-size="12.00"> masterPlotterX</text>
<text text-anchor="middle" x="2010.5" y="-241.4" font-family="FreeSans" font-size="12.00">masterPlotterY</text>
</g>
<!-- Node17 -->
<g id="node17" class="node">
<title>Node17</title>
<g id="a_node17"><a xlink:href="class_j_k_q_t_p_graphs_model.html" target="_top" xlink:title="data model with all plots ina JKQTBasePlotter (+ allows to switch them visible/invisible)">
<polygon fill="none" stroke="black" points="2249,-162.5 2249,-183.5 2377,-183.5 2377,-162.5 2249,-162.5"/>
<text text-anchor="middle" x="2313" y="-169.9" font-family="FreeSans" font-size="12.00">JKQTPGraphsModel</text>
</a>
</g>
</g>
<!-- Node4&#45;&gt;Node17 -->
<g id="edge25" class="edge">
<title>Node4&#45;&gt;Node17</title>
<path fill="none" stroke="#9a32cd" stroke-dasharray="5,2" d="M2075.72,-201.5C2111.69,-197.28 2157.34,-191.89 2198,-187 2214.53,-185.01 2232.41,-182.83 2248.99,-180.79"/>
<polygon fill="#9a32cd" stroke="#9a32cd" points="2074.9,-198.07 2065.37,-202.71 2075.71,-205.03 2074.9,-198.07"/>
<text text-anchor="middle" x="2146.5" y="-202.4" font-family="FreeSans" font-size="12.00"> m_plotter</text>
</g>
<!-- Node5 -->
<g id="node5" class="node">
<title>Node5</title>
<g id="a_node5"><a xlink:href="class_j_k_q_t_base_plotter_style.html" target="_top" xlink:title="Support Class for JKQTBasePlotter, which summarizes all properties that define the visual styling of ...">
<polygon fill="none" stroke="black" points="1693,-162.5 1693,-183.5 1828,-183.5 1828,-162.5 1693,-162.5"/>
<text text-anchor="middle" x="1760.5" y="-169.9" font-family="FreeSans" font-size="12.00">JKQTBasePlotterStyle</text>
</a>
</g>
</g>
<!-- Node5&#45;&gt;Node4 -->
<g id="edge5" class="edge">
<title>Node5&#45;&gt;Node4</title>
<path fill="none" stroke="#9a32cd" stroke-dasharray="5,2" d="M1838.24,-167.31C1866.12,-166.85 1897.71,-168.22 1926,-174 1949.1,-178.72 1973.8,-189.92 1990.29,-198.39"/>
<polygon fill="#9a32cd" stroke="#9a32cd" points="1838.06,-163.81 1828.14,-167.55 1838.23,-170.81 1838.06,-163.81"/>
<text text-anchor="middle" x="1886" y="-177.4" font-family="FreeSans" font-size="12.00"> plotterStyle</text>
</g>
<!-- Node6 -->
<g id="node6" class="node">
<title>Node6</title>
<g id="a_node6"><a xlink:href="class_j_k_q_t_p_key_style.html" target="_top" xlink:title="Support Class for JKQTBasePlotter, which summarizes all properties that define the visual styling of ...">
<polygon fill="none" stroke="black" points="1393.5,-148.5 1393.5,-169.5 1496.5,-169.5 1496.5,-148.5 1393.5,-148.5"/>
<text text-anchor="middle" x="1445" y="-155.9" font-family="FreeSans" font-size="12.00">JKQTPKeyStyle</text>
</a>
</g>
</g>
<!-- Node6&#45;&gt;Node5 -->
<g id="edge6" class="edge">
<title>Node6&#45;&gt;Node5</title>
<path fill="none" stroke="#9a32cd" stroke-dasharray="5,2" d="M1506.72,-161.71C1560.09,-164.1 1637.62,-167.56 1692.73,-170.02"/>
<polygon fill="#9a32cd" stroke="#9a32cd" points="1506.86,-158.21 1496.72,-161.26 1506.55,-165.21 1506.86,-158.21"/>
<text text-anchor="middle" x="1614.5" y="-171.4" font-family="FreeSans" font-size="12.00"> keyStyle</text>
</g>
<!-- Node7 -->
<g id="node7" class="node">
<title>Node7</title>
<g id="a_node7"><a xlink:href="class_j_k_q_t_p_coordinate_axis_style.html" target="_top" xlink:title="Support Class for JKQTPCoordinateAxis, which summarizes all properties that define the visual styling...">
<polygon fill="none" stroke="black" points="1060,-257.5 1060,-278.5 1224,-278.5 1224,-257.5 1060,-257.5"/>
<text text-anchor="middle" x="1142" y="-264.9" font-family="FreeSans" font-size="12.00">JKQTPCoordinateAxisStyle</text>
</a>
</g>
</g>
<!-- Node7&#45;&gt;Node2 -->
<g id="edge36" class="edge">
<title>Node7&#45;&gt;Node2</title>
<path fill="none" stroke="#9a32cd" stroke-dasharray="5,2" d="M1220.91,-279.95C1260.64,-285.54 1309.79,-291.68 1354,-295 1682.51,-319.65 1765.59,-309.73 2095,-313 2140.78,-313.45 2152.32,-315.99 2198,-313 2213.04,-312.01 2229.12,-310.31 2244.33,-308.39"/>
<polygon fill="#9a32cd" stroke="#9a32cd" points="1221.15,-276.45 1210.76,-278.5 1220.17,-283.38 1221.15,-276.45"/>
<text text-anchor="middle" x="1760.5" y="-315.4" font-family="FreeSans" font-size="12.00"> axisStyle</text>
</g>
<!-- Node7&#45;&gt;Node5 -->
<g id="edge7" class="edge">
<title>Node7&#45;&gt;Node5</title>
<path fill="none" stroke="#9a32cd" stroke-dasharray="5,2" d="M1188.64,-254.71C1231.11,-242.84 1296.33,-225.84 1354,-216 1495.29,-191.9 1532.68,-201.97 1675,-185 1680.74,-184.32 1686.69,-183.56 1692.65,-182.77"/>
<polygon fill="#9a32cd" stroke="#9a32cd" points="1187.56,-251.38 1178.88,-257.46 1189.46,-258.12 1187.56,-251.38"/>
<text text-anchor="middle" x="1445" y="-232.4" font-family="FreeSans" font-size="12.00"> xAxisStyle</text>
<text text-anchor="middle" x="1445" y="-219.4" font-family="FreeSans" font-size="12.00">yAxisStyle</text>
</g>
<!-- Node9 -->
<g id="node9" class="node">
<title>Node9</title>
<g id="a_node9"><a xlink:href="class_j_k_q_t_p_colorbar_coordinate_axis_style.html" target="_top" xlink:title="Support Class for JKQTPCoordinateAxis, which summarizes all properties that define the visual styling...">
<polygon fill="none" stroke="black" points="1354,-251 1354,-285 1536,-285 1536,-251 1354,-251"/>
<text text-anchor="start" x="1362" y="-271.4" font-family="FreeSans" font-size="12.00">JKQTPColorbarCoordinateAxis</text>
<text text-anchor="middle" x="1445" y="-258.4" font-family="FreeSans" font-size="12.00">Style</text>
</a>
</g>
</g>
<!-- Node7&#45;&gt;Node9 -->
<g id="edge10" class="edge">
<title>Node7&#45;&gt;Node9</title>
<path fill="none" stroke="midnightblue" d="M1234.08,-268C1272.01,-268 1315.94,-268 1353.78,-268"/>
<polygon fill="midnightblue" stroke="midnightblue" points="1234.06,-264.5 1224.06,-268 1234.06,-271.5 1234.06,-264.5"/>
</g>
<!-- Node8 -->
<g id="node8" class="node">
<title>Node8</title>
<g id="a_node8"><a xlink:href="class_j_k_q_t_p_grid_style.html" target="_top" xlink:title="Support Class for JKQTPCoordinateAxis, and summarizes all properties that define the visual styling o...">
<polygon fill="none" stroke="black" points="783.5,-257.5 783.5,-278.5 887.5,-278.5 887.5,-257.5 783.5,-257.5"/>
<text text-anchor="middle" x="835.5" y="-264.9" font-family="FreeSans" font-size="12.00">JKQTPGridStyle</text>
</a>
</g>
</g>
<!-- Node8&#45;&gt;Node7 -->
<g id="edge8" class="edge">
<title>Node8&#45;&gt;Node7</title>
<path fill="none" stroke="#9a32cd" stroke-dasharray="5,2" d="M898.06,-268C944.67,-268 1009.11,-268 1059.91,-268"/>
<polygon fill="#9a32cd" stroke="#9a32cd" points="897.81,-264.5 887.81,-268 897.81,-271.5 897.81,-264.5"/>
<text text-anchor="middle" x="986.5" y="-284.4" font-family="FreeSans" font-size="12.00"> majorGridStyle</text>
<text text-anchor="middle" x="986.5" y="-271.4" font-family="FreeSans" font-size="12.00">minorGridStyle</text>
</g>
<!-- Node9&#45;&gt;Node5 -->
<g id="edge9" class="edge">
<title>Node9&#45;&gt;Node5</title>
<path fill="none" stroke="#9a32cd" stroke-dasharray="5,2" d="M1546.32,-257.06C1587.54,-250.03 1634.91,-238.57 1675,-220 1684.2,-215.74 1684.42,-211.39 1693,-206 1706.42,-197.57 1722.3,-189.62 1735.17,-183.64"/>
<polygon fill="#9a32cd" stroke="#9a32cd" points="1545.55,-253.64 1536.25,-258.71 1546.69,-260.55 1545.55,-253.64"/>
<text text-anchor="middle" x="1614.5" y="-270.4" font-family="FreeSans" font-size="12.00"> rightColorbarAxisStyle</text>
<text text-anchor="middle" x="1614.5" y="-257.4" font-family="FreeSans" font-size="12.00">topColorbarAxisStyle</text>
</g>
<!-- Node10 -->
<g id="node10" class="node">
<title>Node10</title>
<g id="a_node10"><a xlink:href="class_j_k_q_t_graphs_base_style.html" target="_top" xlink:title="Support Class for JKQTBasePlotter, which summarizes all properties that define the visual styling of ...">
<polygon fill="none" stroke="black" points="1374.5,-108.5 1374.5,-129.5 1515.5,-129.5 1515.5,-108.5 1374.5,-108.5"/>
<text text-anchor="middle" x="1445" y="-115.9" font-family="FreeSans" font-size="12.00">JKQTGraphsBaseStyle</text>
</a>
</g>
</g>
<!-- Node10&#45;&gt;Node5 -->
<g id="edge11" class="edge">
<title>Node10&#45;&gt;Node5</title>
<path fill="none" stroke="#9a32cd" stroke-dasharray="5,2" d="M1525.85,-124.63C1570.13,-128.69 1626,-135.39 1675,-146 1694.12,-150.14 1715.06,-156.82 1731.32,-162.5"/>
<polygon fill="#9a32cd" stroke="#9a32cd" points="1525.99,-121.13 1515.72,-123.73 1525.37,-128.1 1525.99,-121.13"/>
<text text-anchor="middle" x="1614.5" y="-149.4" font-family="FreeSans" font-size="12.00"> graphsStyle</text>
</g>
<!-- Node11 -->
<g id="node11" class="node">
<title>Node11</title>
<g id="a_node11"><a xlink:href="class_j_k_q_t_graphs_specific_style_properties.html" target="_top" xlink:title="Support Class for JKQTBasePlotter, which summarizes all properties that define the visual styling of ...">
<polygon fill="none" stroke="black" points="370,-102.5 370,-123.5 579,-123.5 579,-102.5 370,-102.5"/>
<text text-anchor="middle" x="474.5" y="-109.9" font-family="FreeSans" font-size="12.00">JKQTGraphsSpecificStyleProperties</text>
</a>
</g>
</g>
<!-- Node11&#45;&gt;Node10 -->
<g id="edge12" class="edge">
<title>Node11&#45;&gt;Node10</title>
<path fill="none" stroke="#9a32cd" stroke-dasharray="5,2" d="M568,-124.69C621.14,-130.75 689.21,-137.42 750,-140 895.18,-146.16 1316.43,-132.3 1336,-131 1348.42,-130.18 1361.62,-128.98 1374.36,-127.66"/>
<polygon fill="#9a32cd" stroke="#9a32cd" points="568.25,-121.19 557.91,-123.52 567.45,-128.15 568.25,-121.19"/>
<text text-anchor="middle" x="986.5" y="-195.4" font-family="FreeSans" font-size="12.00"> barchartStyle</text>
<text text-anchor="middle" x="986.5" y="-182.4" font-family="FreeSans" font-size="12.00">boxplotStyle</text>
<text text-anchor="middle" x="986.5" y="-169.4" font-family="FreeSans" font-size="12.00">defaultGraphStyle</text>
<text text-anchor="middle" x="986.5" y="-156.4" font-family="FreeSans" font-size="12.00">filledStyle</text>
<text text-anchor="middle" x="986.5" y="-143.4" font-family="FreeSans" font-size="12.00">impulseStyle</text>
</g>
<!-- Node13 -->
<g id="node13" class="node">
<title>Node13</title>
<g id="a_node13"><a xlink:href="class_j_k_q_t_geometric_specific_style_properties.html" target="_top" xlink:title="Support Class for JKQTBasePlotter, which summarizes all properties that define the visual styling of ...">
<polygon fill="none" stroke="black" points="750,-96 750,-130 921,-130 921,-96 750,-96"/>
<text text-anchor="start" x="758" y="-116.4" font-family="FreeSans" font-size="12.00">JKQTGeometricSpecificStyle</text>
<text text-anchor="middle" x="835.5" y="-103.4" font-family="FreeSans" font-size="12.00">Properties</text>
</a>
</g>
</g>
<!-- Node11&#45;&gt;Node13 -->
<g id="edge15" class="edge">
<title>Node11&#45;&gt;Node13</title>
<path fill="none" stroke="midnightblue" d="M589.62,-113C641.61,-113 702.08,-113 749.92,-113"/>
<polygon fill="midnightblue" stroke="midnightblue" points="589.34,-109.5 579.34,-113 589.34,-116.5 589.34,-109.5"/>
</g>
<!-- Node12 -->
<g id="node12" class="node">
<title>Node12</title>
<g id="a_node12"><a xlink:href="struct_j_k_q_t_p_color_derivation_mode.html" target="_top" xlink:title="Specifies how a fill&#45;color is derived from a given color.">
<polygon fill="none" stroke="black" points="0,-71.5 0,-92.5 168,-92.5 168,-71.5 0,-71.5"/>
<text text-anchor="middle" x="84" y="-78.9" font-family="FreeSans" font-size="12.00">JKQTPColorDerivationMode</text>
</a>
</g>
</g>
<!-- Node12&#45;&gt;Node11 -->
<g id="edge13" class="edge">
<title>Node12&#45;&gt;Node11</title>
<path fill="none" stroke="#9a32cd" stroke-dasharray="5,2" d="M178.55,-89.47C236.27,-94.07 310.37,-99.98 369.86,-104.73"/>
<polygon fill="#9a32cd" stroke="#9a32cd" points="178.59,-85.96 168.34,-88.65 178.03,-92.93 178.59,-85.96"/>
<text text-anchor="middle" x="269" y="-157.4" font-family="FreeSans" font-size="12.00"> errorColorDerivationMode</text>
<text text-anchor="middle" x="269" y="-144.4" font-family="FreeSans" font-size="12.00">errorFillColorDerivationMode</text>
<text text-anchor="middle" x="269" y="-131.4" font-family="FreeSans" font-size="12.00">fillColorDerivationMode</text>
<text text-anchor="middle" x="269" y="-118.4" font-family="FreeSans" font-size="12.00">graphColorDerivationMode</text>
<text text-anchor="middle" x="269" y="-105.4" font-family="FreeSans" font-size="12.00">symbolFillColorDerivationMode</text>
</g>
<!-- Node14 -->
<g id="node14" class="node">
<title>Node14</title>
<g id="a_node14"><a xlink:href="class_j_k_q_t_annotations_specific_style_properties.html" target="_top" xlink:title="Support Class for JKQTBasePlotter, which summarizes all properties that define the visual styling of ...">
<polygon fill="none" stroke="black" points="1052,-48 1052,-82 1232,-82 1232,-48 1052,-48"/>
<text text-anchor="start" x="1060" y="-68.4" font-family="FreeSans" font-size="12.00">JKQTAnnotationsSpecificStyle</text>
<text text-anchor="middle" x="1142" y="-55.4" font-family="FreeSans" font-size="12.00">Properties</text>
</a>
</g>
</g>
<!-- Node12&#45;&gt;Node14 -->
<g id="edge18" class="edge">
<title>Node12&#45;&gt;Node14</title>
<path fill="none" stroke="#9a32cd" stroke-dasharray="5,2" d="M178.58,-80.49C380.4,-77.24 854.29,-69.62 1051.96,-66.43"/>
<polygon fill="#9a32cd" stroke="#9a32cd" points="178.25,-77 168.3,-80.66 178.36,-84 178.25,-77"/>
<text text-anchor="middle" x="664.5" y="-76.4" font-family="FreeSans" font-size="12.00"> textColorDerivationMode</text>
</g>
<!-- Node13&#45;&gt;Node10 -->
<g id="edge14" class="edge">
<title>Node13&#45;&gt;Node10</title>
<path fill="none" stroke="#9a32cd" stroke-dasharray="5,2" d="M931.44,-113.94C1054.3,-115.15 1265.48,-117.24 1374.45,-118.31"/>
<polygon fill="#9a32cd" stroke="#9a32cd" points="931.32,-110.44 921.29,-113.84 931.25,-117.44 931.32,-110.44"/>
<text text-anchor="middle" x="1142" y="-119.4" font-family="FreeSans" font-size="12.00"> geometricStyle</text>
</g>
<!-- Node13&#45;&gt;Node14 -->
<g id="edge17" class="edge">
<title>Node13&#45;&gt;Node14</title>
<path fill="none" stroke="midnightblue" d="M931.48,-98.03C969.91,-91.97 1014.04,-85.01 1051.85,-79.05"/>
<polygon fill="midnightblue" stroke="midnightblue" points="930.65,-94.61 921.32,-99.63 931.74,-101.53 930.65,-94.61"/>
</g>
<!-- Node14&#45;&gt;Node10 -->
<g id="edge16" class="edge">
<title>Node14&#45;&gt;Node10</title>
<path fill="none" stroke="#9a32cd" stroke-dasharray="5,2" d="M1242.32,-76.84C1272.51,-80.99 1305.71,-86.11 1336,-92 1359.43,-96.55 1385.39,-103 1405.98,-108.45"/>
<polygon fill="#9a32cd" stroke="#9a32cd" points="1242.58,-73.35 1232.21,-75.47 1241.64,-80.28 1242.58,-73.35"/>
<text text-anchor="middle" x="1293" y="-95.4" font-family="FreeSans" font-size="12.00"> annotationStyle</text>
</g>
<!-- Node15&#45;&gt;Node4 -->
<g id="edge19" class="edge">
<title>Node15&#45;&gt;Node4</title>
<path fill="none" stroke="#9a32cd" stroke-dasharray="5,2" d="M1801.14,-346.55C1810.15,-342.82 1819.54,-338.56 1828,-334 1894.68,-298.05 1966.79,-242.94 1996.04,-219.81"/>
<polygon fill="#9a32cd" stroke="#9a32cd" points="1799.57,-343.41 1791.59,-350.38 1802.18,-349.91 1799.57,-343.41"/>
<text text-anchor="middle" x="1886" y="-325.4" font-family="FreeSans" font-size="12.00"> mathText</text>
</g>
<!-- Node16 -->
<g id="node16" class="node">
<title>Node16</title>
<g id="a_node16"><a xlink:href="class_j_k_q_t_math_text_node.html" target="_top" xlink:title="subclass representing one node in the syntax tree">
<polygon fill="none" stroke="black" points="1946.5,-373.5 1946.5,-394.5 2074.5,-394.5 2074.5,-373.5 1946.5,-373.5"/>
<text text-anchor="middle" x="2010.5" y="-380.9" font-family="FreeSans" font-size="12.00">JKQTMathTextNode</text>
</a>
</g>
</g>
<!-- Node15&#45;&gt;Node16 -->
<g id="edge22" class="edge">
<title>Node15&#45;&gt;Node16</title>
<path fill="none" stroke="#9a32cd" stroke-dasharray="5,2" d="M1819.72,-351.82C1851.37,-348.41 1891.08,-346.73 1926,-353 1947.76,-356.91 1971.27,-366.12 1987.78,-373.5"/>
<polygon fill="#9a32cd" stroke="#9a32cd" points="1819.27,-348.35 1809.74,-352.98 1820.07,-355.3 1819.27,-348.35"/>
<text text-anchor="middle" x="1886" y="-356.4" font-family="FreeSans" font-size="12.00"> parent</text>
</g>
<!-- Node16&#45;&gt;Node15 -->
<g id="edge21" class="edge">
<title>Node16&#45;&gt;Node15</title>
<path fill="none" stroke="#9a32cd" stroke-dasharray="5,2" d="M1936.02,-378.03C1907.86,-375.66 1875.42,-372.83 1846,-370 1834.25,-368.87 1821.59,-367.57 1809.74,-366.31"/>
<polygon fill="#9a32cd" stroke="#9a32cd" points="1935.94,-381.54 1946.19,-378.89 1936.52,-374.56 1935.94,-381.54"/>
<text text-anchor="middle" x="1886" y="-392.4" font-family="FreeSans" font-size="12.00"> parsedNode</text>
<text text-anchor="middle" x="1886" y="-379.4" font-family="FreeSans" font-size="12.00">unparsedNode</text>
</g>
<!-- Node17&#45;&gt;Node4 -->
<g id="edge23" class="edge">
<title>Node17&#45;&gt;Node4</title>
<path fill="none" stroke="#9a32cd" stroke-dasharray="5,2" d="M2238.43,-166.26C2196.07,-164.14 2142.07,-164.42 2095,-174 2071.9,-178.7 2047.2,-189.91 2030.71,-198.39"/>
<polygon fill="#9a32cd" stroke="#9a32cd" points="2238.48,-169.77 2248.66,-166.83 2238.87,-162.78 2238.48,-169.77"/>
<text text-anchor="middle" x="2146.5" y="-177.4" font-family="FreeSans" font-size="12.00"> m_plotsModel</text>
</g>
<!-- Node18 -->
<g id="node18" class="node">
<title>Node18</title>
<g id="a_node18"><a xlink:title=" ">
<polygon fill="none" stroke="black" points="1944,-129.5 1944,-150.5 2077,-150.5 2077,-129.5 1944,-129.5"/>
<text text-anchor="middle" x="2010.5" y="-136.9" font-family="FreeSans" font-size="12.00">QAbstractTableModel</text>
</a>
</g>
</g>
<!-- Node18&#45;&gt;Node17 -->
<g id="edge24" class="edge">
<title>Node18&#45;&gt;Node17</title>
<path fill="none" stroke="midnightblue" d="M2087.53,-144.15C2121.42,-146.4 2161.77,-149.63 2198,-154 2216.63,-156.25 2236.85,-159.39 2255.03,-162.47"/>
<polygon fill="midnightblue" stroke="midnightblue" points="2087.44,-140.64 2077.24,-143.48 2086.99,-147.62 2087.44,-140.64"/>
</g>
<!-- Node19&#45;&gt;Node4 -->
<g id="edge27" class="edge">
<title>Node19&#45;&gt;Node4</title>
<path fill="none" stroke="#9a32cd" stroke-dasharray="5,2" d="M2436.83,-243.58C2355.47,-237.1 2215.29,-225.88 2095,-216 2085.43,-215.21 2075.25,-214.37 2065.4,-213.54"/>
<polygon fill="#9a32cd" stroke="#9a32cd" points="2436.7,-247.08 2446.94,-244.39 2437.25,-240.11 2436.7,-247.08"/>
<text text-anchor="middle" x="2313" y="-244.4" font-family="FreeSans" font-size="12.00"> yAxis</text>
</g>
<!-- Node20 -->
<g id="node20" class="node">
<title>Node20</title>
<g id="a_node20"><a xlink:href="class_j_k_q_t_p_datastore.html" target="_top" xlink:title="This class manages data columns (with entries of type double ), used by JKQTPlotter/JKQTBasePlotter t...">
<polygon fill="none" stroke="black" points="1707,-89.5 1707,-110.5 1814,-110.5 1814,-89.5 1707,-89.5"/>
<text text-anchor="middle" x="1760.5" y="-96.9" font-family="FreeSans" font-size="12.00">JKQTPDatastore</text>
</a>
</g>
</g>
<!-- Node20&#45;&gt;Node4 -->
<g id="edge29" class="edge">
<title>Node20&#45;&gt;Node4</title>
<path fill="none" stroke="#9a32cd" stroke-dasharray="5,2" d="M1820.27,-112.98C1852.44,-121.28 1892.47,-133.59 1926,-150 1940.35,-157.02 1975.8,-183.34 1995.59,-198.34"/>
<polygon fill="#9a32cd" stroke="#9a32cd" points="1821.1,-109.58 1810.55,-110.54 1819.39,-116.37 1821.1,-109.58"/>
<text text-anchor="middle" x="1886" y="-153.4" font-family="FreeSans" font-size="12.00"> datastore</text>
</g>
<!-- Node22 -->
<g id="node22" class="node">
<title>Node22</title>
<g id="a_node22"><a xlink:href="class_j_k_q_t_p_column.html" target="_top" xlink:title="internally stores information about one data column. See JKQTPDatastore for more information.">
<polygon fill="none" stroke="black" points="1962.5,-89.5 1962.5,-110.5 2058.5,-110.5 2058.5,-89.5 1962.5,-89.5"/>
<text text-anchor="middle" x="2010.5" y="-96.9" font-family="FreeSans" font-size="12.00">JKQTPColumn</text>
</a>
</g>
</g>
<!-- Node20&#45;&gt;Node22 -->
<g id="edge32" class="edge">
<title>Node20&#45;&gt;Node22</title>
<path fill="none" stroke="#9a32cd" stroke-dasharray="5,2" d="M1824.16,-100C1867.13,-100 1923.25,-100 1962.42,-100"/>
<polygon fill="#9a32cd" stroke="#9a32cd" points="1824.09,-96.5 1814.09,-100 1824.09,-103.5 1824.09,-96.5"/>
<text text-anchor="middle" x="1886" y="-103.4" font-family="FreeSans" font-size="12.00"> datastore</text>
</g>
<!-- Node21 -->
<g id="node21" class="node">
<title>Node21</title>
<g id="a_node21"><a xlink:title=" ">
<polygon fill="none" stroke="black" points="2216,-47.5 2216,-68.5 2410,-68.5 2410,-47.5 2216,-47.5"/>
<text text-anchor="middle" x="2313" y="-54.9" font-family="FreeSans" font-size="12.00">std::unique_ptr&lt; JKQTPColumn &gt;</text>
</a>
</g>
</g>
<!-- Node21&#45;&gt;Node20 -->
<g id="edge30" class="edge">
<title>Node21&#45;&gt;Node20</title>
<path fill="none" stroke="#9a32cd" stroke-dasharray="5,2" d="M2205.46,-56.27C2131.83,-56.13 2031.74,-58.05 1944,-67 1897.55,-71.74 1845.17,-81.7 1808.48,-89.44"/>
<polygon fill="#9a32cd" stroke="#9a32cd" points="2205.65,-59.77 2215.66,-56.3 2205.68,-52.77 2205.65,-59.77"/>
<text text-anchor="middle" x="2010.5" y="-70.4" font-family="FreeSans" font-size="12.00"> m_invalidColumn</text>
</g>
<!-- Node22&#45;&gt;Node21 -->
<g id="edge31" class="edge">
<title>Node22&#45;&gt;Node21</title>
<path fill="none" stroke="#9a32cd" stroke-dasharray="5,2" d="M2068.92,-91.97C2116.55,-85.32 2184.63,-75.8 2236.63,-68.53"/>
<polygon fill="#9a32cd" stroke="#9a32cd" points="2068.2,-88.54 2058.78,-93.39 2069.17,-95.47 2068.2,-88.54"/>
<text text-anchor="middle" x="2146.5" y="-90.4" font-family="FreeSans" font-size="12.00"> ptr</text>
</g>
<!-- Node23 -->
<g id="node23" class="node">
<title>Node23</title>
<g id="a_node23"><a xlink:title=" ">
<polygon fill="none" stroke="black" points="1949.5,-0.5 1949.5,-21.5 2071.5,-21.5 2071.5,-0.5 1949.5,-0.5"/>
<text text-anchor="middle" x="2010.5" y="-7.9" font-family="FreeSans" font-size="12.00">std::unique_ptr&lt; T &gt;</text>
</a>
</g>
</g>
<!-- Node23&#45;&gt;Node21 -->
<g id="edge33" class="edge">
<title>Node23&#45;&gt;Node21</title>
<path fill="none" stroke="orange" stroke-dasharray="5,2" d="M2081.95,-16.45C2116.98,-19.69 2159.88,-24.47 2198,-31 2223.16,-35.31 2251.05,-41.88 2272.94,-47.47"/>
<polygon fill="orange" stroke="orange" points="2082.09,-12.95 2071.82,-15.53 2081.46,-19.92 2082.09,-12.95"/>
<text text-anchor="middle" x="2146.5" y="-34.4" font-family="FreeSans" font-size="12.00"> &lt; JKQTPColumn &gt;</text>
</g>
<!-- Node24 -->
<g id="node24" class="node">
<title>Node24</title>
<g id="a_node24"><a xlink:title=" ">
<polygon fill="none" stroke="black" points="1746,-0.5 1746,-21.5 1775,-21.5 1775,-0.5 1746,-0.5"/>
<text text-anchor="middle" x="1760.5" y="-7.9" font-family="FreeSans" font-size="12.00">T</text>
</a>
</g>
</g>
<!-- Node24&#45;&gt;Node23 -->
<g id="edge34" class="edge">
<title>Node24&#45;&gt;Node23</title>
<path fill="none" stroke="#9a32cd" stroke-dasharray="5,2" d="M1785.62,-11C1823.18,-11 1896.78,-11 1949.34,-11"/>
<polygon fill="#9a32cd" stroke="#9a32cd" points="1785.19,-7.5 1775.19,-11 1785.19,-14.5 1785.19,-7.5"/>
<text text-anchor="middle" x="1886" y="-14.4" font-family="FreeSans" font-size="12.00"> ptr</text>
</g>
</g>
</svg>
        <g id="navigator" transform="translate(0 0)" fill="#404254">
                <rect fill="#f2f5e9" fill-opacity="0.5" stroke="#606060" stroke-width=".5" x="0" y="0" width="60" height="60"/>
                <use id="zoomplus" xlink:href="#zoomPlus" x="17" y="9" onmousedown="handleZoom(evt,'in')"/>
                <use id="zoomminus" xlink:href="#zoomMin" x="42" y="9" onmousedown="handleZoom(evt,'out')"/>
                <use id="reset" xlink:href="#resetDef" x="30" y="36" onmousedown="handleReset()"/>
                <g id="arrowUp" xlink:href="#dirArrow" transform="translate(30 24)" onmousedown="handlePan(0,-1)">
                  <use xlink:href="#rim" fill="#404040">
                        <set attributeName="fill" to="#808080" begin="arrowUp.mouseover" end="arrowUp.mouseout"/>
                  </use>
                  <path fill="none" stroke="white" stroke-width="1.5" d="M0,-3.0v7 M-2.5,-0.5L0,-3.0L2.5,-0.5"/>
                </g>
                <g id="arrowRight" xlink:href="#dirArrow" transform="rotate(90) translate(36 -43)" onmousedown="handlePan(1,0)">
                  <use xlink:href="#rim" fill="#404040">
                        <set attributeName="fill" to="#808080" begin="arrowRight.mouseover" end="arrowRight.mouseout"/>
                  </use>
                  <path fill="none" stroke="white" stroke-width="1.5" d="M0,-3.0v7 M-2.5,-0.5L0,-3.0L2.5,-0.5"/>
                </g>
                <g id="arrowDown" xlink:href="#dirArrow" transform="rotate(180) translate(-30 -48)" onmousedown="handlePan(0,1)">
                  <use xlink:href="#rim" fill="#404040">
                        <set attributeName="fill" to="#808080" begin="arrowDown.mouseover" end="arrowDown.mouseout"/>
                  </use>
                  <path fill="none" stroke="white" stroke-width="1.5" d="M0,-3.0v7 M-2.5,-0.5L0,-3.0L2.5,-0.5"/>
                </g>
                <g id="arrowLeft" xlink:href="#dirArrow" transform="rotate(270) translate(-36 17)" onmousedown="handlePan(-1,0)">
                  <use xlink:href="#rim" fill="#404040">
                        <set attributeName="fill" to="#808080" begin="arrowLeft.mouseover" end="arrowLeft.mouseout"/>
                  </use>
                  <path fill="none" stroke="white" stroke-width="1.5" d="M0,-3.0v7 M-2.5,-0.5L0,-3.0L2.5,-0.5"/>
                </g>
        </g>
        <svg viewBox="0 0 15 15" width="100%" height="30px" preserveAspectRatio="xMaxYMin meet">
         <g id="arrow_out" transform="scale(0.3 0.3)">
          <a xlink:href="class_j_k_q_t_p_horizontal_axis__coll__graph_org.svg" target="_base">
           <rect id="button" ry="5" rx="5" y="6" x="6" height="38" width="38"
                fill="#f2f5e9" fill-opacity="0.5" stroke="#606060" stroke-width="1.0"/>
           <path id="arrow"
             d="M 11.500037,31.436501 C 11.940474,20.09759 22.043105,11.32322 32.158766,21.979434 L 37.068811,17.246167 C 37.068811,17.246167 37.088388,32 37.088388,32 L 22.160133,31.978069 C 22.160133,31.978069 26.997745,27.140456 26.997745,27.140456 C 18.528582,18.264221 13.291696,25.230495 11.500037,31.436501 z"
             style="fill:#404040;"/>
          </a>
         </g>
        </svg>
</svg>
