<?xml version="1.0" encoding="UTF-8" standalone="no"?>
<!DOCTYPE svg PUBLIC "-//W3C//DTD SVG 1.1//EN"
 "http://www.w3.org/Graphics/SVG/1.1/DTD/svg11.dtd">
<!-- Generated by graphviz version 2.43.0 (0)
 -->
<!-- Title: JKQTPMathParser::jkmpNodeList Pages: 1 -->
<svg width="2577pt" height="506pt"
 viewBox="0.00 0.00 2577.00 506.17" xmlns="http://www.w3.org/2000/svg" xmlns:xlink="http://www.w3.org/1999/xlink">
<g id="graph0" class="graph" transform="scale(1 1) rotate(0) translate(4 502.17)">
<title>JKQTPMathParser::jkmpNodeList</title>
<!-- Node1 -->
<g id="node1" class="node">
<title>Node1</title>
<g id="a_node1"><a xlink:title="This class represents a list of jkmpNode.">
<polygon fill="#999999" stroke="#666666" points="2569,-246.67 2360,-246.67 2360,-225.67 2569,-225.67 2569,-246.67"/>
<text text-anchor="middle" x="2464.5" y="-233.07" font-family="Helvetica,sans-Serif" font-size="12.00">JKQTPMathParser::jkmpNodeList</text>
</a>
</g>
</g>
<!-- Node2 -->
<g id="node2" class="node">
<title>Node2</title>
<g id="a_node2"><a xlink:href="class_j_k_q_t_p_math_parser_1_1jkmp_node.html" target="_top" xlink:title="This class is the abstract base class for nodes. All allowed node types must inherit from jkmpNode.">
<polygon fill="white" stroke="#666666" points="2009,-268.67 1821,-268.67 1821,-247.67 2009,-247.67 2009,-268.67"/>
<text text-anchor="middle" x="1915" y="-255.07" font-family="Helvetica,sans-Serif" font-size="12.00">JKQTPMathParser::jkmpNode</text>
</a>
</g>
</g>
<!-- Node2&#45;&gt;Node1 -->
<g id="edge1" class="edge">
<title>Node2&#45;&gt;Node1</title>
<path fill="none" stroke="#63b8ff" d="M2019.14,-254.64C2105.43,-251.6 2231.76,-246.96 2342,-242.17 2347.8,-241.92 2353.76,-241.65 2359.77,-241.37"/>
<polygon fill="#63b8ff" stroke="#63b8ff" points="2018.96,-251.14 2009.09,-254.99 2019.2,-258.14 2018.96,-251.14"/>
</g>
<!-- Node2&#45;&gt;Node2 -->
<g id="edge29" class="edge">
<title>Node2&#45;&gt;Node2</title>
<path fill="none" stroke="#9a32cd" stroke-dasharray="5,2" d="M1890.67,-278.24C1892.55,-283.08 1900.66,-286.67 1915,-286.67 1937.95,-286.67 1944.94,-277.48 1935.97,-268.69"/>
<polygon fill="#9a32cd" stroke="#9a32cd" points="1894.02,-279.29 1894.03,-268.69 1887.41,-276.97 1894.02,-279.29"/>
<text text-anchor="middle" x="1915" y="-290.07" font-family="Helvetica,sans-Serif" font-size="12.00"> parent</text>
</g>
<!-- Node22 -->
<g id="node22" class="node">
<title>Node22</title>
<g id="a_node22"><a xlink:title=" ">
<polygon fill="white" stroke="#666666" points="2303,-230.17 2105,-230.17 2105,-196.17 2303,-196.17 2303,-230.17"/>
<text text-anchor="start" x="2113" y="-216.57" font-family="Helvetica,sans-Serif" font-size="12.00">std::vector&lt; JKQTPMathParser</text>
<text text-anchor="middle" x="2204" y="-203.57" font-family="Helvetica,sans-Serif" font-size="12.00">::jkmpNode * &gt;</text>
</a>
</g>
</g>
<!-- Node2&#45;&gt;Node22 -->
<g id="edge31" class="edge">
<title>Node2&#45;&gt;Node22</title>
<path fill="none" stroke="#9a32cd" stroke-dasharray="5,2" d="M1963.62,-245.07C1983.14,-240.1 2006.03,-234.77 2027,-231.17 2052.12,-226.85 2079.46,-223.44 2104.93,-220.8"/>
<polygon fill="#9a32cd" stroke="#9a32cd" points="1962.55,-241.73 1953.75,-247.63 1964.31,-248.51 1962.55,-241.73"/>
<text text-anchor="middle" x="2057" y="-234.57" font-family="Helvetica,sans-Serif" font-size="12.00"> elements</text>
</g>
<!-- Node3 -->
<g id="node3" class="node">
<title>Node3</title>
<g id="a_node3"><a xlink:href="class_j_k_q_t_p_math_parser.html" target="_top" xlink:title="A simple function parser to parse (build memory tree representation) and evaluate simple mathematical...">
<polygon fill="white" stroke="#666666" points="1738,-322.67 1617,-322.67 1617,-301.67 1738,-301.67 1738,-322.67"/>
<text text-anchor="middle" x="1677.5" y="-309.07" font-family="Helvetica,sans-Serif" font-size="12.00">JKQTPMathParser</text>
</a>
</g>
</g>
<!-- Node3&#45;&gt;Node2 -->
<g id="edge2" class="edge">
<title>Node3&#45;&gt;Node2</title>
<path fill="none" stroke="#9a32cd" stroke-dasharray="5,2" d="M1734.27,-299.38C1775.1,-290.02 1829.85,-277.46 1868.15,-268.68"/>
<polygon fill="#9a32cd" stroke="#9a32cd" points="1733.43,-295.98 1724.47,-301.63 1735,-302.8 1733.43,-295.98"/>
<text text-anchor="middle" x="1781.5" y="-296.57" font-family="Helvetica,sans-Serif" font-size="12.00"> parser</text>
</g>
<!-- Node4 -->
<g id="node4" class="node">
<title>Node4</title>
<g id="a_node4"><a xlink:title=" ">
<polygon fill="white" stroke="#666666" points="272.5,-283.67 196.5,-283.67 196.5,-262.67 272.5,-262.67 272.5,-283.67"/>
<text text-anchor="middle" x="234.5" y="-270.07" font-family="Helvetica,sans-Serif" font-size="12.00">std::string</text>
</a>
</g>
</g>
<!-- Node4&#45;&gt;Node3 -->
<g id="edge3" class="edge">
<title>Node4&#45;&gt;Node3</title>
<path fill="none" stroke="#9a32cd" stroke-dasharray="5,2" d="M249.3,-292.11C265.72,-313.28 295.07,-347.08 328,-366.17 388.72,-401.37 410.32,-407.17 480.5,-407.17 480.5,-407.17 480.5,-407.17 1376.5,-407.17 1487.4,-407.17 1611.06,-347.43 1657.51,-322.7"/>
<polygon fill="#9a32cd" stroke="#9a32cd" points="251.91,-289.76 243.08,-283.89 246.32,-293.98 251.91,-289.76"/>
<text text-anchor="middle" x="923.5" y="-436.57" font-family="Helvetica,sans-Serif" font-size="12.00"> StringValue</text>
<text text-anchor="start" x="851" y="-423.57" font-family="Helvetica,sans-Serif" font-size="12.00">jkmathparser_exception</text>
<text text-anchor="middle" x="923.5" y="-410.57" font-family="Helvetica,sans-Serif" font-size="12.00">_function</text>
</g>
<!-- Node12 -->
<g id="node12" class="node">
<title>Node12</title>
<g id="a_node12"><a xlink:href="group__jkqtptools__math__parser.html#struct_j_k_q_t_p_math_parser_1_1jkmp_temp_variable" target="_top" xlink:title="This struct is for managing temporary variables. It is generally like jkmpVariable.">
<polygon fill="white" stroke="#666666" points="793.5,-373.17 604.5,-373.17 604.5,-339.17 793.5,-339.17 793.5,-373.17"/>
<text text-anchor="start" x="612.5" y="-359.57" font-family="Helvetica,sans-Serif" font-size="12.00">JKQTPMathParser::jkmpTemp</text>
<text text-anchor="middle" x="699" y="-346.57" font-family="Helvetica,sans-Serif" font-size="12.00">Variable</text>
</a>
</g>
</g>
<!-- Node4&#45;&gt;Node12 -->
<g id="edge12" class="edge">
<title>Node4&#45;&gt;Node12</title>
<path fill="none" stroke="#9a32cd" stroke-dasharray="5,2" d="M257.9,-289.78C275.87,-302.14 302.26,-318.19 328,-326.17 418.95,-354.36 528.16,-360.01 604.26,-359.74"/>
<polygon fill="#9a32cd" stroke="#9a32cd" points="259.51,-286.63 249.32,-283.72 255.47,-292.35 259.51,-286.63"/>
<text text-anchor="middle" x="347.5" y="-352.57" font-family="Helvetica,sans-Serif" font-size="12.00"> name</text>
<text text-anchor="middle" x="347.5" y="-339.57" font-family="Helvetica,sans-Serif" font-size="12.00">str</text>
</g>
<!-- Node15 -->
<g id="node15" class="node">
<title>Node15</title>
<g id="a_node15"><a xlink:title=" ">
<polygon fill="white" stroke="#666666" points="1487,-112.17 1264,-112.17 1264,-78.17 1487,-78.17 1487,-112.17"/>
<text text-anchor="start" x="1272" y="-98.57" font-family="Helvetica,sans-Serif" font-size="12.00">std::map&lt; std::string,</text>
<text text-anchor="middle" x="1375.5" y="-85.57" font-family="Helvetica,sans-Serif" font-size="12.00"> JKQTPMathParser::jkmpVariable &gt;</text>
</a>
</g>
</g>
<!-- Node4&#45;&gt;Node15 -->
<g id="edge16" class="edge">
<title>Node4&#45;&gt;Node15</title>
<path fill="none" stroke="#9a32cd" stroke-dasharray="5,2" d="M241.92,-252.83C257.57,-207.44 302.55,-99.29 385,-66.17 715.9,66.79 1160.47,-34.84 1317.04,-78.12"/>
<polygon fill="#9a32cd" stroke="#9a32cd" points="238.55,-251.87 238.72,-262.46 245.19,-254.07 238.55,-251.87"/>
<text text-anchor="middle" x="699" y="-14.57" font-family="Helvetica,sans-Serif" font-size="12.00"> keys</text>
</g>
<!-- Node16 -->
<g id="node16" class="node">
<title>Node16</title>
<g id="a_node16"><a xlink:href="struct_j_k_q_t_p_math_parser_1_1jkmp_variable.html" target="_top" xlink:title="This struct is for managing variables. Unlike jkmpResult this struct only contains pointers to the da...">
<polygon fill="white" stroke="#666666" points="802,-91.67 596,-91.67 596,-70.67 802,-70.67 802,-91.67"/>
<text text-anchor="middle" x="699" y="-78.07" font-family="Helvetica,sans-Serif" font-size="12.00">JKQTPMathParser::jkmpVariable</text>
</a>
</g>
</g>
<!-- Node4&#45;&gt;Node16 -->
<g id="edge18" class="edge">
<title>Node4&#45;&gt;Node16</title>
<path fill="none" stroke="#9a32cd" stroke-dasharray="5,2" d="M246.01,-253.6C266.92,-216.94 317.56,-138.59 385,-105.17 453.61,-71.17 541.19,-67.26 606.25,-70.65"/>
<polygon fill="#9a32cd" stroke="#9a32cd" points="242.94,-251.93 241.13,-262.37 249.05,-255.34 242.94,-251.93"/>
<text text-anchor="middle" x="347.5" y="-149.57" font-family="Helvetica,sans-Serif" font-size="12.00"> str</text>
</g>
<!-- Node19 -->
<g id="node19" class="node">
<title>Node19</title>
<g id="a_node19"><a xlink:title=" ">
<polygon fill="white" stroke="#666666" points="1481,-308.67 1270,-308.67 1270,-261.67 1481,-261.67 1481,-308.67"/>
<text text-anchor="start" x="1278" y="-295.07" font-family="Helvetica,sans-Serif" font-size="12.00">std::map&lt; std::string,</text>
<text text-anchor="start" x="1278" y="-282.07" font-family="Helvetica,sans-Serif" font-size="12.00"> JKQTPMathParser::jkmpFunction</text>
<text text-anchor="middle" x="1375.5" y="-269.07" font-family="Helvetica,sans-Serif" font-size="12.00">Descriptor &gt;</text>
</a>
</g>
</g>
<!-- Node4&#45;&gt;Node19 -->
<g id="edge23" class="edge">
<title>Node4&#45;&gt;Node19</title>
<path fill="none" stroke="#9a32cd" stroke-dasharray="5,2" d="M282.87,-283.25C297.3,-285.95 313.24,-288.56 328,-290.17 353.2,-292.91 359.66,-291.63 385,-292.17 678.28,-298.42 751.66,-296.06 1045,-297.17 1134.33,-297.51 1156.76,-301.33 1246,-297.17 1253.72,-296.81 1261.7,-296.33 1269.71,-295.77"/>
<polygon fill="#9a32cd" stroke="#9a32cd" points="283.15,-279.74 272.67,-281.29 281.83,-286.62 283.15,-279.74"/>
<text text-anchor="middle" x="699" y="-300.57" font-family="Helvetica,sans-Serif" font-size="12.00"> keys</text>
</g>
<!-- Node20 -->
<g id="node20" class="node">
<title>Node20</title>
<g id="a_node20"><a xlink:href="group__jkqtptools__math__parser.html#struct_j_k_q_t_p_math_parser_1_1jkmp_function_descriptor" target="_top" xlink:title="description of a user registered function">
<polygon fill="white" stroke="#666666" points="1027,-284.17 820,-284.17 820,-250.17 1027,-250.17 1027,-284.17"/>
<text text-anchor="start" x="828" y="-270.57" font-family="Helvetica,sans-Serif" font-size="12.00">JKQTPMathParser::jkmpFunction</text>
<text text-anchor="middle" x="923.5" y="-257.57" font-family="Helvetica,sans-Serif" font-size="12.00">Descriptor</text>
</a>
</g>
</g>
<!-- Node4&#45;&gt;Node20 -->
<g id="edge27" class="edge">
<title>Node4&#45;&gt;Node20</title>
<path fill="none" stroke="#9a32cd" stroke-dasharray="5,2" d="M282.53,-260.03C311.76,-252.56 350.25,-243.96 385,-240.17 535.82,-223.72 711.56,-239 819.93,-252.38"/>
<polygon fill="#9a32cd" stroke="#9a32cd" points="281.4,-256.71 272.6,-262.62 283.16,-263.49 281.4,-256.71"/>
<text text-anchor="middle" x="481.5" y="-243.57" font-family="Helvetica,sans-Serif" font-size="12.00"> name</text>
</g>
<!-- Node21 -->
<g id="node21" class="node">
<title>Node21</title>
<g id="a_node21"><a xlink:href="struct_j_k_q_t_p_math_parser_1_1jkmp_result.html" target="_top" xlink:title="result of any expression">
<polygon fill="white" stroke="#666666" points="578,-283.67 385,-283.67 385,-262.67 578,-262.67 578,-283.67"/>
<text text-anchor="middle" x="481.5" y="-270.07" font-family="Helvetica,sans-Serif" font-size="12.00">JKQTPMathParser::jkmpResult</text>
</a>
</g>
</g>
<!-- Node4&#45;&gt;Node21 -->
<g id="edge26" class="edge">
<title>Node4&#45;&gt;Node21</title>
<path fill="none" stroke="#9a32cd" stroke-dasharray="5,2" d="M282.94,-273.17C311.89,-273.17 349.93,-273.17 384.9,-273.17"/>
<polygon fill="#9a32cd" stroke="#9a32cd" points="282.71,-269.67 272.71,-273.17 282.71,-276.67 282.71,-269.67"/>
<text text-anchor="middle" x="347.5" y="-276.57" font-family="Helvetica,sans-Serif" font-size="12.00"> str</text>
</g>
<!-- Node5 -->
<g id="node5" class="node">
<title>Node5</title>
<g id="a_node5"><a xlink:title=" ">
<polygon fill="white" stroke="#666666" points="122,-290.17 0,-290.17 0,-256.17 122,-256.17 122,-290.17"/>
<text text-anchor="start" x="8" y="-276.57" font-family="Helvetica,sans-Serif" font-size="12.00">std::basic_string&lt;</text>
<text text-anchor="middle" x="61" y="-263.57" font-family="Helvetica,sans-Serif" font-size="12.00"> Char &gt;</text>
</a>
</g>
</g>
<!-- Node5&#45;&gt;Node4 -->
<g id="edge4" class="edge">
<title>Node5&#45;&gt;Node4</title>
<path fill="none" stroke="#63b8ff" d="M132.74,-273.17C154.63,-273.17 177.86,-273.17 196.5,-273.17"/>
<polygon fill="#63b8ff" stroke="#63b8ff" points="132.46,-269.67 122.46,-273.17 132.46,-276.67 132.46,-269.67"/>
</g>
<!-- Node6 -->
<g id="node6" class="node">
<title>Node6</title>
<g id="a_node6"><a xlink:title=" ">
<polygon fill="white" stroke="#666666" points="1436,-465.67 1315,-465.67 1315,-444.67 1436,-444.67 1436,-465.67"/>
<text text-anchor="middle" x="1375.5" y="-452.07" font-family="Helvetica,sans-Serif" font-size="12.00">std::istringstream</text>
</a>
</g>
</g>
<!-- Node6&#45;&gt;Node3 -->
<g id="edge5" class="edge">
<title>Node6&#45;&gt;Node3</title>
<path fill="none" stroke="#9a32cd" stroke-dasharray="5,2" d="M1446.3,-457.49C1491.62,-455.96 1550.35,-448.03 1595,-421.17 1635.09,-397.05 1661.92,-345.04 1672.02,-322.7"/>
<polygon fill="#9a32cd" stroke="#9a32cd" points="1446.17,-453.99 1436.25,-457.73 1446.34,-460.99 1446.17,-453.99"/>
<text text-anchor="middle" x="1550" y="-454.57" font-family="Helvetica,sans-Serif" font-size="12.00"> program</text>
</g>
<!-- Node7 -->
<g id="node7" class="node">
<title>Node7</title>
<g id="a_node7"><a xlink:title=" ">
<polygon fill="white" stroke="#666666" points="1002.5,-498.17 844.5,-498.17 844.5,-464.17 1002.5,-464.17 1002.5,-498.17"/>
<text text-anchor="start" x="852.5" y="-484.57" font-family="Helvetica,sans-Serif" font-size="12.00">std::basic_istringstream</text>
<text text-anchor="middle" x="923.5" y="-471.57" font-family="Helvetica,sans-Serif" font-size="12.00">&lt; Char &gt;</text>
</a>
</g>
</g>
<!-- Node7&#45;&gt;Node6 -->
<g id="edge6" class="edge">
<title>Node7&#45;&gt;Node6</title>
<path fill="none" stroke="#63b8ff" d="M1012.74,-476.07C1102.01,-470.91 1237.56,-463.08 1314.89,-458.61"/>
<polygon fill="#63b8ff" stroke="#63b8ff" points="1012.41,-472.58 1002.63,-476.65 1012.81,-479.57 1012.41,-472.58"/>
</g>
<!-- Node8 -->
<g id="node8" class="node">
<title>Node8</title>
<g id="a_node8"><a xlink:title=" ">
<polygon fill="white" stroke="#666666" points="543.5,-498.17 419.5,-498.17 419.5,-464.17 543.5,-464.17 543.5,-498.17"/>
<text text-anchor="start" x="427.5" y="-484.57" font-family="Helvetica,sans-Serif" font-size="12.00">std::basic_istream</text>
<text text-anchor="middle" x="481.5" y="-471.57" font-family="Helvetica,sans-Serif" font-size="12.00">&lt; Char &gt;</text>
</a>
</g>
</g>
<!-- Node8&#45;&gt;Node7 -->
<g id="edge7" class="edge">
<title>Node8&#45;&gt;Node7</title>
<path fill="none" stroke="#63b8ff" d="M554.11,-481.17C633.81,-481.17 762.19,-481.17 844.42,-481.17"/>
<polygon fill="#63b8ff" stroke="#63b8ff" points="553.68,-477.67 543.68,-481.17 553.68,-484.67 553.68,-477.67"/>
</g>
<!-- Node9 -->
<g id="node9" class="node">
<title>Node9</title>
<g id="a_node9"><a xlink:title=" ">
<polygon fill="white" stroke="#666666" points="310,-491.67 159,-491.67 159,-470.67 310,-470.67 310,-491.67"/>
<text text-anchor="middle" x="234.5" y="-478.07" font-family="Helvetica,sans-Serif" font-size="12.00">std::basic_ios&lt; Char &gt;</text>
</a>
</g>
</g>
<!-- Node9&#45;&gt;Node8 -->
<g id="edge8" class="edge">
<title>Node9&#45;&gt;Node8</title>
<path fill="none" stroke="#63b8ff" d="M320.4,-481.17C352.87,-481.17 389.24,-481.17 419.11,-481.17"/>
<polygon fill="#63b8ff" stroke="#63b8ff" points="320.01,-477.67 310.01,-481.17 320.01,-484.67 320.01,-477.67"/>
</g>
<!-- Node10 -->
<g id="node10" class="node">
<title>Node10</title>
<g id="a_node10"><a xlink:title=" ">
<polygon fill="white" stroke="#666666" points="107.5,-491.67 14.5,-491.67 14.5,-470.67 107.5,-470.67 107.5,-491.67"/>
<text text-anchor="middle" x="61" y="-478.07" font-family="Helvetica,sans-Serif" font-size="12.00">std::ios_base</text>
</a>
</g>
</g>
<!-- Node10&#45;&gt;Node9 -->
<g id="edge9" class="edge">
<title>Node10&#45;&gt;Node9</title>
<path fill="none" stroke="#63b8ff" d="M117.78,-481.17C130.91,-481.17 145.11,-481.17 158.91,-481.17"/>
<polygon fill="#63b8ff" stroke="#63b8ff" points="117.51,-477.67 107.51,-481.17 117.51,-484.67 117.51,-477.67"/>
</g>
<!-- Node11 -->
<g id="node11" class="node">
<title>Node11</title>
<g id="a_node11"><a xlink:title=" ">
<polygon fill="white" stroke="#666666" points="1474.5,-361.17 1276.5,-361.17 1276.5,-327.17 1474.5,-327.17 1474.5,-361.17"/>
<text text-anchor="start" x="1284.5" y="-347.57" font-family="Helvetica,sans-Serif" font-size="12.00">std::vector&lt; JKQTPMathParser</text>
<text text-anchor="middle" x="1375.5" y="-334.57" font-family="Helvetica,sans-Serif" font-size="12.00">::jkmpTempVariable &gt;</text>
</a>
</g>
</g>
<!-- Node11&#45;&gt;Node3 -->
<g id="edge10" class="edge">
<title>Node11&#45;&gt;Node3</title>
<path fill="none" stroke="#9a32cd" stroke-dasharray="5,2" d="M1484.71,-332.63C1529.15,-327.89 1578.9,-322.58 1616.59,-318.56"/>
<polygon fill="#9a32cd" stroke="#9a32cd" points="1484.3,-329.15 1474.73,-333.69 1485.05,-336.11 1484.3,-329.15"/>
<text text-anchor="middle" x="1550" y="-333.57" font-family="Helvetica,sans-Serif" font-size="12.00"> tempvariables</text>
</g>
<!-- Node12&#45;&gt;Node11 -->
<g id="edge11" class="edge">
<title>Node12&#45;&gt;Node11</title>
<path fill="none" stroke="#9a32cd" stroke-dasharray="5,2" d="M804.05,-354.32C932.78,-352.03 1150.35,-348.16 1276.31,-345.92"/>
<polygon fill="#9a32cd" stroke="#9a32cd" points="803.72,-350.82 793.79,-354.5 803.85,-357.82 803.72,-350.82"/>
<text text-anchor="middle" x="923.5" y="-357.57" font-family="Helvetica,sans-Serif" font-size="12.00"> elements</text>
</g>
<!-- Node13 -->
<g id="node13" class="node">
<title>Node13</title>
<g id="a_node13"><a xlink:title=" ">
<polygon fill="white" stroke="#666666" points="981,-207.67 866,-207.67 866,-186.67 981,-186.67 981,-207.67"/>
<text text-anchor="middle" x="923.5" y="-194.07" font-family="Helvetica,sans-Serif" font-size="12.00">std::vector&lt; T &gt;</text>
</a>
</g>
</g>
<!-- Node13&#45;&gt;Node11 -->
<g id="edge13" class="edge">
<title>Node13&#45;&gt;Node11</title>
<path fill="none" stroke="orange" stroke-dasharray="5,2" d="M991.31,-206.62C1008.78,-209.08 1027.6,-211.73 1045,-214.17 1089.66,-220.43 1212.6,-211.87 1246,-242.17 1271.39,-265.2 1239.81,-292.88 1264,-317.17 1267.76,-320.95 1271.96,-324.23 1276.46,-327.08"/>
<polygon fill="orange" stroke="orange" points="991.59,-203.12 981.2,-205.19 990.61,-210.05 991.59,-203.12"/>
<text text-anchor="start" x="1081" y="-258.57" font-family="Helvetica,sans-Serif" font-size="12.00"> &lt; JKQTPMathParser::</text>
<text text-anchor="middle" x="1145.5" y="-245.57" font-family="Helvetica,sans-Serif" font-size="12.00">jkmpTempVariable &gt;</text>
</g>
<!-- Node13&#45;&gt;Node22 -->
<g id="edge32" class="edge">
<title>Node13&#45;&gt;Node22</title>
<path fill="none" stroke="orange" stroke-dasharray="5,2" d="M970.16,-183.97C992.52,-178.08 1019.96,-171.68 1045,-168.17 1190.16,-147.81 1227.92,-154.17 1374.5,-154.17 1374.5,-154.17 1374.5,-154.17 1916,-154.17 1999.93,-154.17 2094.9,-178.68 2151.8,-196.1"/>
<polygon fill="orange" stroke="orange" points="969.02,-180.65 960.27,-186.63 970.83,-187.41 969.02,-180.65"/>
<text text-anchor="start" x="1613" y="-170.57" font-family="Helvetica,sans-Serif" font-size="12.00"> &lt; JKQTPMathParser::</text>
<text text-anchor="middle" x="1677.5" y="-157.57" font-family="Helvetica,sans-Serif" font-size="12.00">jkmpNode * &gt;</text>
</g>
<!-- Node14 -->
<g id="node14" class="node">
<title>Node14</title>
<g id="a_node14"><a xlink:title=" ">
<polygon fill="white" stroke="#666666" points="496,-184.67 467,-184.67 467,-163.67 496,-163.67 496,-184.67"/>
<text text-anchor="middle" x="481.5" y="-171.07" font-family="Helvetica,sans-Serif" font-size="12.00">T</text>
</a>
</g>
</g>
<!-- Node14&#45;&gt;Node13 -->
<g id="edge14" class="edge">
<title>Node14&#45;&gt;Node13</title>
<path fill="none" stroke="#9a32cd" stroke-dasharray="5,2" d="M506.21,-175.41C573.78,-178.94 768.68,-189.13 865.93,-194.21"/>
<polygon fill="#9a32cd" stroke="#9a32cd" points="506.32,-171.91 496.15,-174.88 505.95,-178.9 506.32,-171.91"/>
<text text-anchor="middle" x="699" y="-194.57" font-family="Helvetica,sans-Serif" font-size="12.00"> elements</text>
</g>
<!-- Node17 -->
<g id="node17" class="node">
<title>Node17</title>
<g id="a_node17"><a xlink:title=" ">
<polygon fill="white" stroke="#666666" points="983,-153.67 864,-153.67 864,-132.67 983,-132.67 983,-153.67"/>
<text text-anchor="middle" x="923.5" y="-140.07" font-family="Helvetica,sans-Serif" font-size="12.00">std::map&lt; K, T &gt;</text>
</a>
</g>
</g>
<!-- Node14&#45;&gt;Node17 -->
<g id="edge21" class="edge">
<title>Node14&#45;&gt;Node17</title>
<path fill="none" stroke="#9a32cd" stroke-dasharray="5,2" d="M506.28,-171.91C529.24,-169.77 564.98,-166.53 596,-164.17 689.59,-157.04 798.4,-150.36 863.78,-146.53"/>
<polygon fill="#9a32cd" stroke="#9a32cd" points="505.75,-168.44 496.12,-172.86 506.4,-175.41 505.75,-168.44"/>
<text text-anchor="middle" x="699" y="-167.57" font-family="Helvetica,sans-Serif" font-size="12.00"> elements</text>
</g>
<!-- Node15&#45;&gt;Node3 -->
<g id="edge15" class="edge">
<title>Node15&#45;&gt;Node3</title>
<path fill="none" stroke="#9a32cd" stroke-dasharray="5,2" d="M1408.19,-118.09C1472.34,-164.49 1615.42,-267.99 1661.73,-301.49"/>
<polygon fill="#9a32cd" stroke="#9a32cd" points="1410.19,-115.22 1400.04,-112.2 1406.09,-120.89 1410.19,-115.22"/>
<text text-anchor="middle" x="1550" y="-251.57" font-family="Helvetica,sans-Serif" font-size="12.00"> variables</text>
</g>
<!-- Node16&#45;&gt;Node15 -->
<g id="edge17" class="edge">
<title>Node16&#45;&gt;Node15</title>
<path fill="none" stroke="#9a32cd" stroke-dasharray="5,2" d="M812.09,-83.49C937.45,-86.1 1139.22,-90.28 1263.95,-92.87"/>
<polygon fill="#9a32cd" stroke="#9a32cd" points="812.15,-80 802.08,-83.29 812,-86.99 812.15,-80"/>
<text text-anchor="middle" x="923.5" y="-91.57" font-family="Helvetica,sans-Serif" font-size="12.00"> elements</text>
</g>
<!-- Node17&#45;&gt;Node15 -->
<g id="edge19" class="edge">
<title>Node17&#45;&gt;Node15</title>
<path fill="none" stroke="orange" stroke-dasharray="5,2" d="M970.68,-130.01C992.96,-124.19 1020.17,-117.84 1045,-114.17 1117.41,-103.45 1199.61,-98.7 1263.79,-96.63"/>
<polygon fill="orange" stroke="orange" points="969.58,-126.68 960.82,-132.63 971.38,-133.44 969.58,-126.68"/>
<text text-anchor="start" x="1070" y="-130.57" font-family="Helvetica,sans-Serif" font-size="12.00"> &lt; std::string, JKQTPMath</text>
<text text-anchor="middle" x="1145.5" y="-117.57" font-family="Helvetica,sans-Serif" font-size="12.00">Parser::jkmpVariable &gt;</text>
</g>
<!-- Node17&#45;&gt;Node19 -->
<g id="edge28" class="edge">
<title>Node17&#45;&gt;Node19</title>
<path fill="none" stroke="orange" stroke-dasharray="5,2" d="M993.13,-142.9C1060.07,-144.89 1163.54,-154 1246,-188.17 1287.06,-205.18 1326.68,-238.48 1350.82,-261.27"/>
<polygon fill="orange" stroke="orange" points="993.21,-139.4 983.12,-142.65 993.03,-146.4 993.21,-139.4"/>
<text text-anchor="start" x="1045" y="-204.57" font-family="Helvetica,sans-Serif" font-size="12.00"> &lt; std::string, JKQTPMath</text>
<text text-anchor="middle" x="1145.5" y="-191.57" font-family="Helvetica,sans-Serif" font-size="12.00">Parser::jkmpFunctionDescriptor &gt;</text>
</g>
<!-- Node18 -->
<g id="node18" class="node">
<title>Node18</title>
<g id="a_node18"><a xlink:title=" ">
<polygon fill="white" stroke="#666666" points="496,-135.67 467,-135.67 467,-114.67 496,-114.67 496,-135.67"/>
<text text-anchor="middle" x="481.5" y="-122.07" font-family="Helvetica,sans-Serif" font-size="12.00">K</text>
</a>
</g>
</g>
<!-- Node18&#45;&gt;Node17 -->
<g id="edge20" class="edge">
<title>Node18&#45;&gt;Node17</title>
<path fill="none" stroke="#9a32cd" stroke-dasharray="5,2" d="M506.33,-124.13C559.48,-122.06 691.72,-118.25 802,-126.17 822.23,-127.62 844.23,-130.37 863.83,-133.25"/>
<polygon fill="#9a32cd" stroke="#9a32cd" points="506.08,-120.64 496.23,-124.54 506.36,-127.63 506.08,-120.64"/>
<text text-anchor="middle" x="699" y="-129.57" font-family="Helvetica,sans-Serif" font-size="12.00"> keys</text>
</g>
<!-- Node19&#45;&gt;Node3 -->
<g id="edge22" class="edge">
<title>Node19&#45;&gt;Node3</title>
<path fill="none" stroke="#9a32cd" stroke-dasharray="5,2" d="M1491.45,-289.61C1524.91,-291.56 1561.47,-294.3 1595,-298.17 1603.13,-299.11 1611.68,-300.32 1620.06,-301.64"/>
<polygon fill="#9a32cd" stroke="#9a32cd" points="1491.36,-286.1 1481.18,-289.04 1490.97,-293.09 1491.36,-286.1"/>
<text text-anchor="middle" x="1550" y="-301.57" font-family="Helvetica,sans-Serif" font-size="12.00"> functions</text>
</g>
<!-- Node20&#45;&gt;Node19 -->
<g id="edge24" class="edge">
<title>Node20&#45;&gt;Node19</title>
<path fill="none" stroke="#9a32cd" stroke-dasharray="5,2" d="M1037.55,-271.69C1108.85,-274.54 1200.3,-278.2 1269.93,-280.99"/>
<polygon fill="#9a32cd" stroke="#9a32cd" points="1037.31,-268.18 1027.18,-271.28 1037.03,-275.17 1037.31,-268.18"/>
<text text-anchor="middle" x="1145.5" y="-283.57" font-family="Helvetica,sans-Serif" font-size="12.00"> elements</text>
</g>
<!-- Node21&#45;&gt;Node20 -->
<g id="edge25" class="edge">
<title>Node21&#45;&gt;Node20</title>
<path fill="none" stroke="#9a32cd" stroke-dasharray="5,2" d="M588.44,-271.72C658.59,-270.77 750.15,-269.52 819.66,-268.57"/>
<polygon fill="#9a32cd" stroke="#9a32cd" points="588.2,-268.23 578.24,-271.86 588.29,-275.23 588.2,-268.23"/>
<text text-anchor="middle" x="699" y="-275.57" font-family="Helvetica,sans-Serif" font-size="12.00"> function</text>
</g>
<!-- Node22&#45;&gt;Node1 -->
<g id="edge30" class="edge">
<title>Node22&#45;&gt;Node1</title>
<path fill="none" stroke="#9a32cd" stroke-dasharray="5,2" d="M2313.18,-222.79C2328.64,-224.17 2344.51,-225.58 2359.88,-226.95"/>
<polygon fill="#9a32cd" stroke="#9a32cd" points="2313.37,-219.3 2303.1,-221.9 2312.75,-226.27 2313.37,-219.3"/>
<text text-anchor="middle" x="2331.5" y="-228.57" font-family="Helvetica,sans-Serif" font-size="12.00"> list</text>
</g>
</g>
</svg>
