<?xml version="1.0" encoding="UTF-8" standalone="no"?>
<!DOCTYPE svg PUBLIC "-//W3C//DTD SVG 1.1//EN"
 "http://www.w3.org/Graphics/SVG/1.1/DTD/svg11.dtd">
<!-- Generated by graphviz version 2.43.0 (0)
 -->
<!-- Title: JKQTMathTextDualChildNode Pages: 1 -->
<svg width="499pt" height="177pt"
 viewBox="0.00 0.00 498.50 177.00" xmlns="http://www.w3.org/2000/svg" xmlns:xlink="http://www.w3.org/1999/xlink">
<g id="graph0" class="graph" transform="scale(1 1) rotate(0) translate(4 173)">
<title>JKQTMathTextDualChildNode</title>
<!-- Node1 -->
<g id="node1" class="node">
<title>Node1</title>
<g id="a_node1"><a xlink:title="subclass representing a node in the syntax tree, that has two children">
<polygon fill="#bfbfbf" stroke="black" points="0,-0.5 0,-21.5 179,-21.5 179,-0.5 0,-0.5"/>
<text text-anchor="middle" x="89.5" y="-7.9" font-family="FreeSans" font-size="12.00">JKQTMathTextDualChildNode</text>
</a>
</g>
</g>
<!-- Node2 -->
<g id="node2" class="node">
<title>Node2</title>
<g id="a_node2"><a xlink:href="class_j_k_q_t_math_text_multi_child_node.html" target="_top" xlink:title="subclass representing a node in the syntax tree, that has two children">
<polygon fill="none" stroke="black" points="130.5,-61.5 130.5,-82.5 310.5,-82.5 310.5,-61.5 130.5,-61.5"/>
<text text-anchor="middle" x="220.5" y="-68.9" font-family="FreeSans" font-size="12.00">JKQTMathTextMultiChildNode</text>
</a>
</g>
</g>
<!-- Node2&#45;&gt;Node1 -->
<g id="edge1" class="edge">
<title>Node2&#45;&gt;Node1</title>
<path fill="none" stroke="midnightblue" d="M190.02,-57.27C165.73,-46.33 132.33,-31.29 110.83,-21.61"/>
<polygon fill="midnightblue" stroke="midnightblue" points="188.61,-60.47 199.16,-61.39 191.48,-54.09 188.61,-60.47"/>
</g>
<!-- Node3 -->
<g id="node3" class="node">
<title>Node3</title>
<g id="a_node3"><a xlink:href="class_j_k_q_t_math_text_node.html" target="_top" xlink:title="subclass representing one node in the syntax tree">
<polygon fill="none" stroke="black" points="172.5,-147.5 172.5,-168.5 300.5,-168.5 300.5,-147.5 172.5,-147.5"/>
<text text-anchor="middle" x="236.5" y="-154.9" font-family="FreeSans" font-size="12.00">JKQTMathTextNode</text>
</a>
</g>
</g>
<!-- Node3&#45;&gt;Node1 -->
<g id="edge7" class="edge">
<title>Node3&#45;&gt;Node1</title>
<path fill="none" stroke="#9a32cd" stroke-dasharray="5,2" d="M176.45,-144.53C143.83,-134.36 106.23,-116.35 86.5,-85 74.21,-65.46 80.91,-36.81 85.81,-21.87"/>
<polygon fill="#9a32cd" stroke="#9a32cd" points="175.8,-147.99 186.39,-147.44 177.77,-141.27 175.8,-147.99"/>
<text text-anchor="middle" x="104" y="-75.4" font-family="FreeSans" font-size="12.00"> child1</text>
<text text-anchor="middle" x="104" y="-62.4" font-family="FreeSans" font-size="12.00">child2</text>
</g>
<!-- Node3&#45;&gt;Node2 -->
<g id="edge2" class="edge">
<title>Node3&#45;&gt;Node2</title>
<path fill="none" stroke="midnightblue" d="M232.74,-137.24C229.45,-120.01 224.83,-95.75 222.31,-82.52"/>
<polygon fill="midnightblue" stroke="midnightblue" points="229.36,-138.2 234.66,-147.36 236.23,-136.89 229.36,-138.2"/>
</g>
<!-- Node3&#45;&gt;Node3 -->
<g id="edge6" class="edge">
<title>Node3&#45;&gt;Node3</title>
<path fill="none" stroke="#9a32cd" stroke-dasharray="5,2" d="M310.65,-163.62C315.54,-162.32 318.5,-160.44 318.5,-158 318.5,-154.19 311.29,-151.76 300.79,-150.71"/>
<polygon fill="#9a32cd" stroke="#9a32cd" points="310.07,-160.17 300.79,-165.29 311.23,-167.08 310.07,-160.17"/>
<text text-anchor="middle" x="352" y="-154.9" font-family="FreeSans" font-size="12.00"> parentNode</text>
</g>
<!-- Node4 -->
<g id="node4" class="node">
<title>Node4</title>
<g id="a_node4"><a xlink:href="class_j_k_q_t_math_text.html" target="_top" xlink:title="this class parses a LaTeX string and can then draw the contained text/equation onto a QPainter">
<polygon fill="none" stroke="black" points="328.5,-61.5 328.5,-82.5 426.5,-82.5 426.5,-61.5 328.5,-61.5"/>
<text text-anchor="middle" x="377.5" y="-68.9" font-family="FreeSans" font-size="12.00">JKQTMathText</text>
</a>
</g>
</g>
<!-- Node3&#45;&gt;Node4 -->
<g id="edge5" class="edge">
<title>Node3&#45;&gt;Node4</title>
<path fill="none" stroke="#9a32cd" stroke-dasharray="5,2" d="M236.79,-137.12C238.01,-125.67 241.48,-111.83 250.5,-103 253.55,-100.02 296.9,-90.17 332.12,-82.57"/>
<polygon fill="#9a32cd" stroke="#9a32cd" points="233.29,-136.95 236.19,-147.14 240.28,-137.36 233.29,-136.95"/>
<text text-anchor="middle" x="290.5" y="-119.4" font-family="FreeSans" font-size="12.00"> parsedNode</text>
<text text-anchor="middle" x="290.5" y="-106.4" font-family="FreeSans" font-size="12.00">unparsedNode</text>
</g>
<!-- Node4&#45;&gt;Node3 -->
<g id="edge3" class="edge">
<title>Node4&#45;&gt;Node3</title>
<path fill="none" stroke="#9a32cd" stroke-dasharray="5,2" d="M363.31,-90.48C360.05,-94.56 356.63,-98.91 353.5,-103 344.81,-114.37 346.24,-120.81 334.5,-129 322.45,-137.4 307.92,-143.3 293.77,-147.43"/>
<polygon fill="#9a32cd" stroke="#9a32cd" points="366.07,-92.63 369.61,-82.64 360.61,-88.24 366.07,-92.63"/>
<text text-anchor="middle" x="397.5" y="-112.9" font-family="FreeSans" font-size="12.00"> parentMathText</text>
</g>
<!-- Node5 -->
<g id="node5" class="node">
<title>Node5</title>
<g id="a_node5"><a xlink:title=" ">
<polygon fill="none" stroke="black" points="428.5,-147.5 428.5,-168.5 490.5,-168.5 490.5,-147.5 428.5,-147.5"/>
<text text-anchor="middle" x="459.5" y="-154.9" font-family="FreeSans" font-size="12.00">QObject</text>
</a>
</g>
</g>
<!-- Node5&#45;&gt;Node4 -->
<g id="edge4" class="edge">
<title>Node5&#45;&gt;Node4</title>
<path fill="none" stroke="midnightblue" d="M458.56,-137.34C457.08,-126.16 453.59,-112.52 445.5,-103 437.56,-93.66 426.15,-87.12 414.94,-82.59"/>
<polygon fill="midnightblue" stroke="midnightblue" points="455.08,-137.82 459.45,-147.47 462.06,-137.2 455.08,-137.82"/>
</g>
</g>
</svg>
