<?xml version="1.0" encoding="UTF-8" standalone="no"?>
<!DOCTYPE svg PUBLIC "-//W3C//DTD SVG 1.1//EN"
 "http://www.w3.org/Graphics/SVG/1.1/DTD/svg11.dtd">
<!-- Generated by graphviz version 2.43.0 (0)
 -->
<!-- Title: JKQTPSpecialLineGraphBase Pages: 1 -->
<svg width="576pt" height="404pt"
 viewBox="0.00 0.00 575.50 404.00" xmlns="http://www.w3.org/2000/svg" xmlns:xlink="http://www.w3.org/1999/xlink">
<g id="graph0" class="graph" transform="scale(1 1) rotate(0) translate(4 400)">
<title>JKQTPSpecialLineGraphBase</title>
<!-- Node1 -->
<g id="node1" class="node">
<title>Node1</title>
<g id="a_node1"><a xlink:title="a Base class for special line graphs (steps ...) like e.g. JKQTPSpecialLineHorizontalGraph">
<polygon fill="#bfbfbf" stroke="black" points="171.5,-71.5 171.5,-92.5 357.5,-92.5 357.5,-71.5 171.5,-71.5"/>
<text text-anchor="middle" x="264.5" y="-78.9" font-family="Helvetica,sans-Serif" font-size="12.00">JKQTPSpecialLineGraphBase</text>
</a>
</g>
</g>
<!-- Node11 -->
<g id="node11" class="node">
<title>Node11</title>
<g id="a_node11"><a xlink:href="class_j_k_q_t_p_special_line_horizontal_graph.html" target="_top" xlink:title="This implements a step plot with values .">
<polygon fill="none" stroke="black" points="79,-0.5 79,-34.5 260,-34.5 260,-0.5 79,-0.5"/>
<text text-anchor="start" x="87" y="-20.9" font-family="Helvetica,sans-Serif" font-size="12.00">JKQTPSpecialLineHorizontal</text>
<text text-anchor="middle" x="169.5" y="-7.9" font-family="Helvetica,sans-Serif" font-size="12.00">Graph</text>
</a>
</g>
</g>
<!-- Node1&#45;&gt;Node11 -->
<g id="edge10" class="edge">
<title>Node1&#45;&gt;Node11</title>
<path fill="none" stroke="midnightblue" d="M241.29,-65.73C226.9,-56.26 208.44,-44.12 193.84,-34.51"/>
<polygon fill="midnightblue" stroke="midnightblue" points="239.38,-68.66 249.66,-71.23 243.23,-62.81 239.38,-68.66"/>
</g>
<!-- Node12 -->
<g id="node12" class="node">
<title>Node12</title>
<g id="a_node12"><a xlink:href="class_j_k_q_t_p_special_line_vertical_graph.html" target="_top" xlink:title="This implements a step plot with values .">
<polygon fill="none" stroke="black" points="278,-0.5 278,-34.5 443,-34.5 443,-0.5 278,-0.5"/>
<text text-anchor="start" x="286" y="-20.9" font-family="Helvetica,sans-Serif" font-size="12.00">JKQTPSpecialLineVertical</text>
<text text-anchor="middle" x="360.5" y="-7.9" font-family="Helvetica,sans-Serif" font-size="12.00">Graph</text>
</a>
</g>
</g>
<!-- Node1&#45;&gt;Node12 -->
<g id="edge11" class="edge">
<title>Node1&#45;&gt;Node12</title>
<path fill="none" stroke="midnightblue" d="M287.95,-65.73C302.49,-56.26 321.15,-44.12 335.9,-34.51"/>
<polygon fill="midnightblue" stroke="midnightblue" points="285.97,-62.85 279.5,-71.23 289.79,-68.71 285.97,-62.85"/>
</g>
<!-- Node2 -->
<g id="node2" class="node">
<title>Node2</title>
<g id="a_node2"><a xlink:href="class_j_k_q_t_p_x_y_baseline_graph.html" target="_top" xlink:title="This virtual JKQTPGraph descendent extends JKQTPXYGraph adds a baseline&#45;property, which is necessary,...">
<polygon fill="none" stroke="black" points="0,-136 0,-157 155,-157 155,-136 0,-136"/>
<text text-anchor="middle" x="77.5" y="-143.4" font-family="Helvetica,sans-Serif" font-size="12.00">JKQTPXYBaselineGraph</text>
</a>
</g>
</g>
<!-- Node2&#45;&gt;Node1 -->
<g id="edge1" class="edge">
<title>Node2&#45;&gt;Node1</title>
<path fill="none" stroke="midnightblue" d="M115.9,-132.67C151.56,-120.75 203.87,-103.27 235.97,-92.54"/>
<polygon fill="midnightblue" stroke="midnightblue" points="114.68,-129.38 106.31,-135.87 116.9,-136.02 114.68,-129.38"/>
</g>
<!-- Node3 -->
<g id="node3" class="node">
<title>Node3</title>
<g id="a_node3"><a xlink:href="class_j_k_q_t_p_x_y_graph.html" target="_top" xlink:title="This virtual JKQTPGraph descendent may be used as base for all graphs that use at least two columns t...">
<polygon fill="none" stroke="black" points="25,-200.5 25,-221.5 130,-221.5 130,-200.5 25,-200.5"/>
<text text-anchor="middle" x="77.5" y="-207.9" font-family="Helvetica,sans-Serif" font-size="12.00">JKQTPXYGraph</text>
</a>
</g>
</g>
<!-- Node3&#45;&gt;Node2 -->
<g id="edge2" class="edge">
<title>Node3&#45;&gt;Node2</title>
<path fill="none" stroke="midnightblue" d="M77.5,-189.93C77.5,-179.06 77.5,-166.11 77.5,-157.4"/>
<polygon fill="midnightblue" stroke="midnightblue" points="74,-190.23 77.5,-200.23 81,-190.23 74,-190.23"/>
</g>
<!-- Node4 -->
<g id="node4" class="node">
<title>Node4</title>
<g id="a_node4"><a xlink:href="class_j_k_q_t_p_graph.html" target="_top" xlink:title="this virtual base class of the (data&#45;column based) graphs, which are part of a JKQTPlotter plot and w...">
<polygon fill="none" stroke="black" points="33,-258.5 33,-279.5 122,-279.5 122,-258.5 33,-258.5"/>
<text text-anchor="middle" x="77.5" y="-265.9" font-family="Helvetica,sans-Serif" font-size="12.00">JKQTPGraph</text>
</a>
</g>
</g>
<!-- Node4&#45;&gt;Node3 -->
<g id="edge3" class="edge">
<title>Node4&#45;&gt;Node3</title>
<path fill="none" stroke="midnightblue" d="M77.5,-248.16C77.5,-239.16 77.5,-228.92 77.5,-221.64"/>
<polygon fill="midnightblue" stroke="midnightblue" points="74,-248.25 77.5,-258.25 81,-248.25 74,-248.25"/>
</g>
<!-- Node5 -->
<g id="node5" class="node">
<title>Node5</title>
<g id="a_node5"><a xlink:href="class_j_k_q_t_p_plot_element.html" target="_top" xlink:title="this virtual base class of every element, which is part of a JKQTPlotter plot and may appear in its k...">
<polygon fill="none" stroke="black" points="15,-316.5 15,-337.5 140,-337.5 140,-316.5 15,-316.5"/>
<text text-anchor="middle" x="77.5" y="-323.9" font-family="Helvetica,sans-Serif" font-size="12.00">JKQTPPlotElement</text>
</a>
</g>
</g>
<!-- Node5&#45;&gt;Node4 -->
<g id="edge4" class="edge">
<title>Node5&#45;&gt;Node4</title>
<path fill="none" stroke="midnightblue" d="M77.5,-306.16C77.5,-297.16 77.5,-286.92 77.5,-279.64"/>
<polygon fill="midnightblue" stroke="midnightblue" points="74,-306.25 77.5,-316.25 81,-306.25 74,-306.25"/>
</g>
<!-- Node6 -->
<g id="node6" class="node">
<title>Node6</title>
<g id="a_node6"><a xlink:title=" ">
<polygon fill="none" stroke="black" points="45,-374.5 45,-395.5 110,-395.5 110,-374.5 45,-374.5"/>
<text text-anchor="middle" x="77.5" y="-381.9" font-family="Helvetica,sans-Serif" font-size="12.00">QObject</text>
</a>
</g>
</g>
<!-- Node6&#45;&gt;Node5 -->
<g id="edge5" class="edge">
<title>Node6&#45;&gt;Node5</title>
<path fill="none" stroke="midnightblue" d="M77.5,-364.16C77.5,-355.16 77.5,-344.92 77.5,-337.64"/>
<polygon fill="midnightblue" stroke="midnightblue" points="74,-364.25 77.5,-374.25 81,-364.25 74,-364.25"/>
</g>
<!-- Node7 -->
<g id="node7" class="node">
<title>Node7</title>
<g id="a_node7"><a xlink:href="class_j_k_q_t_p_graph_line_and_fill_style_mixin.html" target="_top" xlink:title="This Mix&#45;In class provides setter/getter methods, storage and other facilities for the graph line and...">
<polygon fill="none" stroke="black" points="173.5,-129.5 173.5,-163.5 355.5,-163.5 355.5,-129.5 173.5,-129.5"/>
<text text-anchor="start" x="181.5" y="-149.9" font-family="Helvetica,sans-Serif" font-size="12.00">JKQTPGraphLineAndFillStyle</text>
<text text-anchor="middle" x="264.5" y="-136.9" font-family="Helvetica,sans-Serif" font-size="12.00">Mixin</text>
</a>
</g>
</g>
<!-- Node7&#45;&gt;Node1 -->
<g id="edge6" class="edge">
<title>Node7&#45;&gt;Node1</title>
<path fill="none" stroke="midnightblue" d="M264.5,-119.28C264.5,-109.91 264.5,-99.92 264.5,-92.8"/>
<polygon fill="midnightblue" stroke="midnightblue" points="261,-119.4 264.5,-129.4 268,-119.4 261,-119.4"/>
</g>
<!-- Node8 -->
<g id="node8" class="node">
<title>Node8</title>
<g id="a_node8"><a xlink:href="class_j_k_q_t_p_graph_fill_style_mixin.html" target="_top" xlink:title="This Mix&#45;In class provides setter/getter methods, storage and other facilities for the graph filling ...">
<polygon fill="none" stroke="black" points="165.5,-200.5 165.5,-221.5 329.5,-221.5 329.5,-200.5 165.5,-200.5"/>
<text text-anchor="middle" x="247.5" y="-207.9" font-family="Helvetica,sans-Serif" font-size="12.00">JKQTPGraphFillStyleMixin</text>
</a>
</g>
</g>
<!-- Node8&#45;&gt;Node7 -->
<g id="edge7" class="edge">
<title>Node8&#45;&gt;Node7</title>
<path fill="none" stroke="midnightblue" d="M252.84,-190.36C255.17,-181.8 257.87,-171.89 260.08,-163.76"/>
<polygon fill="midnightblue" stroke="midnightblue" points="249.4,-189.67 250.16,-200.23 256.16,-191.5 249.4,-189.67"/>
</g>
<!-- Node9 -->
<g id="node9" class="node">
<title>Node9</title>
<g id="a_node9"><a xlink:href="class_j_k_q_t_p_graph_line_style_mixin.html" target="_top" xlink:title="This Mix&#45;In class provides setter/getter methods, storage and other facilities for the graph line sty...">
<polygon fill="none" stroke="black" points="347.5,-200.5 347.5,-221.5 521.5,-221.5 521.5,-200.5 347.5,-200.5"/>
<text text-anchor="middle" x="434.5" y="-207.9" font-family="Helvetica,sans-Serif" font-size="12.00">JKQTPGraphLineStyleMixin</text>
</a>
</g>
</g>
<!-- Node9&#45;&gt;Node7 -->
<g id="edge8" class="edge">
<title>Node9&#45;&gt;Node7</title>
<path fill="none" stroke="midnightblue" d="M398.71,-196.84C372.34,-187.15 336.33,-173.91 308.25,-163.59"/>
<polygon fill="midnightblue" stroke="midnightblue" points="397.72,-200.21 408.31,-200.37 400.13,-193.64 397.72,-200.21"/>
</g>
<!-- Node10 -->
<g id="node10" class="node">
<title>Node10</title>
<g id="a_node10"><a xlink:href="class_j_k_q_t_p_graph_symbol_style_mixin.html" target="_top" xlink:title="This Mix&#45;In class provides setter/getter methods, storage and other facilities for the graph symbols ...">
<polygon fill="none" stroke="black" points="373.5,-136 373.5,-157 567.5,-157 567.5,-136 373.5,-136"/>
<text text-anchor="middle" x="470.5" y="-143.4" font-family="Helvetica,sans-Serif" font-size="12.00">JKQTPGraphSymbolStyleMixin</text>
</a>
</g>
</g>
<!-- Node10&#45;&gt;Node1 -->
<g id="edge9" class="edge">
<title>Node10&#45;&gt;Node1</title>
<path fill="none" stroke="midnightblue" d="M428.95,-132.9C389.65,-120.97 331.52,-103.33 295.93,-92.54"/>
<polygon fill="midnightblue" stroke="midnightblue" points="428.18,-136.32 438.76,-135.87 430.21,-129.62 428.18,-136.32"/>
</g>
</g>
</svg>
