<?xml version="1.0" encoding="UTF-8" standalone="no"?>
<!DOCTYPE svg PUBLIC "-//W3C//DTD SVG 1.1//EN"
 "http://www.w3.org/Graphics/SVG/1.1/DTD/svg11.dtd">
<!-- Generated by graphviz version 2.43.0 (0)
 -->
<!-- Title: JKQTPContourPlot Pages: 1 -->
<!--zoomable 520 -->
<svg id="main" version="1.1" xmlns="http://www.w3.org/2000/svg" xmlns:xlink="http://www.w3.org/1999/xlink" xml:space="preserve" onload="init(evt)">
<style type="text/css"><![CDATA[
.edge:hover path { stroke: red; }
.edge:hover polygon { stroke: red; fill: red; }
]]></style>
<script type="text/javascript"><![CDATA[
var edges = document.getElementsByTagName('g');
if (edges && edges.length) {
  for (var i=0;i<edges.length;i++) {
    if (edges[i].id.substr(0,4)=='edge') {
      edges[i].setAttribute('class','edge');
    }
  }
}
]]></script>
        <defs>
                <circle id="rim" cx="0" cy="0" r="7"/>
                <circle id="rim2" cx="0" cy="0" r="3.5"/>
                <g id="zoomPlus">
                        <use xlink:href="#rim" fill="#404040">
                                <set attributeName="fill" to="#808080" begin="zoomplus.mouseover" end="zoomplus.mouseout"/>
                        </use>
                        <path d="M-4,0h8M0,-4v8" fill="none" stroke="white" stroke-width="1.5" pointer-events="none"/>
                </g>
                <g id="zoomMin">
                        <use xlink:href="#rim" fill="#404040">
                                <set attributeName="fill" to="#808080" begin="zoomminus.mouseover" end="zoomminus.mouseout"/>
                        </use>
                        <path d="M-4,0h8" fill="none" stroke="white" stroke-width="1.5" pointer-events="none"/>
                </g>
                <g id="dirArrow">
                        <path fill="none" stroke="white" stroke-width="1.5" d="M0,-3.0v7 M-2.5,-0.5L0,-3.0L2.5,-0.5"/>
                </g>
               <g id="resetDef">
                       <use xlink:href="#rim2" fill="#404040">
                               <set attributeName="fill" to="#808080" begin="reset.mouseover" end="reset.mouseout"/>
                       </use>
               </g>
        </defs>

<script type="text/javascript">
var viewWidth = 3850;
var viewHeight = 520;
var sectionId = 'dynsection-1';
</script>
<script xlink:href="svgpan.js"/>
<svg id="graph" class="graph">
<g id="viewport">
<title>JKQTPContourPlot</title>
<!-- Node1 -->
<g id="node1" class="node">
<title>Node1</title>
<g id="a_node1"><a xlink:title="class for a contour plot">
<polygon fill="#bfbfbf" stroke="black" points="3725,-267.5 3725,-288.5 3842,-288.5 3842,-267.5 3725,-267.5"/>
<text text-anchor="middle" x="3783.5" y="-274.9" font-family="FreeSans" font-size="12.00">JKQTPContourPlot</text>
</a>
</g>
</g>
<!-- Node2 -->
<g id="node2" class="node">
<title>Node2</title>
<g id="a_node2"><a xlink:href="class_j_k_q_t_p_math_image.html" target="_top" xlink:title="class to plot an image from an 2&#45;dimensional array of values">
<polygon fill="none" stroke="black" points="3546.5,-295.5 3546.5,-316.5 3662.5,-316.5 3662.5,-295.5 3546.5,-295.5"/>
<text text-anchor="middle" x="3604.5" y="-302.9" font-family="FreeSans" font-size="12.00">JKQTPMathImage</text>
</a>
</g>
</g>
<!-- Node2&#45;&gt;Node1 -->
<g id="edge1" class="edge">
<title>Node2&#45;&gt;Node1</title>
<path fill="none" stroke="midnightblue" d="M3672.88,-295.34C3689.96,-292.64 3708.16,-289.76 3724.72,-287.14"/>
<polygon fill="midnightblue" stroke="midnightblue" points="3672.3,-291.89 3662.97,-296.91 3673.39,-298.8 3672.3,-291.89"/>
</g>
<!-- Node3 -->
<g id="node3" class="node">
<title>Node3</title>
<g id="a_node3"><a xlink:href="class_j_k_q_t_p_math_image_base.html" target="_top" xlink:title="base class to hold an image from an 2&#45;dimensional array of values">
<polygon fill="none" stroke="black" points="3137,-264.5 3137,-285.5 3280,-285.5 3280,-264.5 3137,-264.5"/>
<text text-anchor="middle" x="3208.5" y="-271.9" font-family="FreeSans" font-size="12.00">JKQTPMathImageBase</text>
</a>
</g>
</g>
<!-- Node3&#45;&gt;Node2 -->
<g id="edge2" class="edge">
<title>Node3&#45;&gt;Node2</title>
<path fill="none" stroke="midnightblue" d="M3290.44,-281.37C3366.67,-287.37 3478.94,-296.2 3546.28,-301.5"/>
<polygon fill="midnightblue" stroke="midnightblue" points="3290.64,-277.87 3280.39,-280.58 3290.09,-284.85 3290.64,-277.87"/>
</g>
<!-- Node4 -->
<g id="node4" class="node">
<title>Node4</title>
<g id="a_node4"><a xlink:href="class_j_k_q_t_p_image_base.html" target="_top" xlink:title="base class for plotting an image">
<polygon fill="none" stroke="black" points="2659,-257.5 2659,-278.5 2775,-278.5 2775,-257.5 2659,-257.5"/>
<text text-anchor="middle" x="2717" y="-264.9" font-family="FreeSans" font-size="12.00">JKQTPImageBase</text>
</a>
</g>
</g>
<!-- Node4&#45;&gt;Node3 -->
<g id="edge3" class="edge">
<title>Node4&#45;&gt;Node3</title>
<path fill="none" stroke="midnightblue" d="M2785.18,-268.96C2877.52,-270.28 3042.88,-272.65 3136.95,-273.99"/>
<polygon fill="midnightblue" stroke="midnightblue" points="2785.16,-265.46 2775.11,-268.82 2785.06,-272.46 2785.16,-265.46"/>
</g>
<!-- Node5 -->
<g id="node5" class="node">
<title>Node5</title>
<g id="a_node5"><a xlink:href="class_j_k_q_t_p_graph.html" target="_top" xlink:title="this virtual base class of the (data&#45;column based) graphs, which are part of a JKQTPlotter plot and w...">
<polygon fill="none" stroke="black" points="2469,-272.5 2469,-293.5 2558,-293.5 2558,-272.5 2469,-272.5"/>
<text text-anchor="middle" x="2513.5" y="-279.9" font-family="FreeSans" font-size="12.00">JKQTPGraph</text>
</a>
</g>
</g>
<!-- Node5&#45;&gt;Node4 -->
<g id="edge4" class="edge">
<title>Node5&#45;&gt;Node4</title>
<path fill="none" stroke="midnightblue" d="M2568.23,-279C2596.24,-276.92 2630.49,-274.37 2658.96,-272.25"/>
<polygon fill="midnightblue" stroke="midnightblue" points="2567.94,-275.51 2558.22,-279.75 2568.45,-282.49 2567.94,-275.51"/>
</g>
<!-- Node6 -->
<g id="node6" class="node">
<title>Node6</title>
<g id="a_node6"><a xlink:href="class_j_k_q_t_p_plot_element.html" target="_top" xlink:title="this virtual base class of every element, which is part of a JKQTPlotter plot and may appear in its k...">
<polygon fill="none" stroke="black" points="2254,-303.5 2254,-324.5 2372,-324.5 2372,-303.5 2254,-303.5"/>
<text text-anchor="middle" x="2313" y="-310.9" font-family="FreeSans" font-size="12.00">JKQTPPlotElement</text>
</a>
</g>
</g>
<!-- Node6&#45;&gt;Node5 -->
<g id="edge5" class="edge">
<title>Node6&#45;&gt;Node5</title>
<path fill="none" stroke="midnightblue" d="M2382.18,-303.35C2410.88,-298.87 2443.42,-293.79 2468.81,-289.82"/>
<polygon fill="midnightblue" stroke="midnightblue" points="2381.56,-299.91 2372.22,-304.91 2382.64,-306.82 2381.56,-299.91"/>
</g>
<!-- Node7 -->
<g id="node7" class="node">
<title>Node7</title>
<g id="a_node7"><a xlink:title=" ">
<polygon fill="none" stroke="black" points="1414,-383.5 1414,-404.5 1476,-404.5 1476,-383.5 1414,-383.5"/>
<text text-anchor="middle" x="1445" y="-390.9" font-family="FreeSans" font-size="12.00">QObject</text>
</a>
</g>
</g>
<!-- Node7&#45;&gt;Node6 -->
<g id="edge6" class="edge">
<title>Node7&#45;&gt;Node6</title>
<path fill="none" stroke="midnightblue" d="M1486.24,-401.65C1506.49,-405.17 1531.46,-408.99 1554,-411 1615.55,-416.48 1631.22,-412.93 1693,-414 1917.46,-417.89 2022.05,-542.43 2198,-403 2220.82,-384.91 2195.27,-360.45 2216,-340 2226.2,-329.94 2239.88,-323.67 2253.71,-319.79"/>
<polygon fill="midnightblue" stroke="midnightblue" points="1486.58,-398.16 1476.12,-399.86 1485.36,-405.05 1486.58,-398.16"/>
</g>
<!-- Node8 -->
<g id="node8" class="node">
<title>Node8</title>
<g id="a_node8"><a xlink:href="class_j_k_q_t_base_plotter.html" target="_top" xlink:title="base class for 2D plotter classes (used by the plotter widget JKQTPlotter)">
<polygon fill="none" stroke="black" points="1956,-258.5 1956,-279.5 2065,-279.5 2065,-258.5 1956,-258.5"/>
<text text-anchor="middle" x="2010.5" y="-265.9" font-family="FreeSans" font-size="12.00">JKQTBasePlotter</text>
</a>
</g>
</g>
<!-- Node7&#45;&gt;Node8 -->
<g id="edge8" class="edge">
<title>Node7&#45;&gt;Node8</title>
<path fill="none" stroke="midnightblue" d="M1486.03,-382.15C1506.35,-376.23 1531.44,-369.06 1554,-363 1683.2,-328.32 1714.54,-314.79 1846,-290 1882.42,-283.13 1923.83,-277.84 1955.87,-274.29"/>
<polygon fill="midnightblue" stroke="midnightblue" points="1484.8,-378.87 1476.18,-385.03 1486.76,-385.59 1484.8,-378.87"/>
</g>
<!-- Node19 -->
<g id="node19" class="node">
<title>Node19</title>
<g id="a_node19"><a xlink:href="class_j_k_q_t_math_text.html" target="_top" xlink:title="this class parses a LaTeX string and can then draw the contained text/equation onto a QPainter">
<polygon fill="none" stroke="black" points="1711.5,-345.5 1711.5,-366.5 1809.5,-366.5 1809.5,-345.5 1711.5,-345.5"/>
<text text-anchor="middle" x="1760.5" y="-352.9" font-family="FreeSans" font-size="12.00">JKQTMathText</text>
</a>
</g>
</g>
<!-- Node7&#45;&gt;Node19 -->
<g id="edge24" class="edge">
<title>Node7&#45;&gt;Node19</title>
<path fill="none" stroke="midnightblue" d="M1486.23,-389.12C1543.8,-382.15 1649.53,-369.33 1711.24,-361.85"/>
<polygon fill="midnightblue" stroke="midnightblue" points="1485.57,-385.68 1476.06,-390.36 1486.41,-392.63 1485.57,-385.68"/>
</g>
<!-- Node24 -->
<g id="node24" class="node">
<title>Node24</title>
<g id="a_node24"><a xlink:href="class_j_k_q_t_p_coordinate_axis.html" target="_top" xlink:title="this virtual class is the base for any type of coordinate axis, to be drawn by JKQTBasePlotter.">
<polygon fill="none" stroke="black" points="2244.5,-400.5 2244.5,-421.5 2381.5,-421.5 2381.5,-400.5 2244.5,-400.5"/>
<text text-anchor="middle" x="2313" y="-407.9" font-family="FreeSans" font-size="12.00">JKQTPCoordinateAxis</text>
</a>
</g>
</g>
<!-- Node7&#45;&gt;Node24 -->
<g id="edge32" class="edge">
<title>Node7&#45;&gt;Node24</title>
<path fill="none" stroke="midnightblue" d="M1486.11,-394.79C1622.99,-397.47 2072.68,-406.3 2244.47,-409.67"/>
<polygon fill="midnightblue" stroke="midnightblue" points="1486.13,-391.29 1476.06,-394.59 1485.99,-398.29 1486.13,-391.29"/>
</g>
<!-- Node8&#45;&gt;Node6 -->
<g id="edge7" class="edge">
<title>Node8&#45;&gt;Node6</title>
<path fill="none" stroke="#9a32cd" stroke-dasharray="5,2" d="M2070.37,-281.54C2078.62,-283.14 2087.01,-284.67 2095,-286 2148.59,-294.9 2210.02,-302.59 2253.81,-307.65"/>
<polygon fill="#9a32cd" stroke="#9a32cd" points="2070.89,-278.08 2060.4,-279.57 2069.53,-284.94 2070.89,-278.08"/>
<text text-anchor="middle" x="2146.5" y="-303.4" font-family="FreeSans" font-size="12.00"> parent</text>
</g>
<!-- Node8&#45;&gt;Node8 -->
<g id="edge43" class="edge">
<title>Node8&#45;&gt;Node8</title>
<path fill="none" stroke="#9a32cd" stroke-dasharray="5,2" d="M1987.65,-289.43C1989.41,-294.35 1997.03,-298 2010.5,-298 2032.05,-298 2038.62,-288.65 2030.2,-279.71"/>
<polygon fill="#9a32cd" stroke="#9a32cd" points="1991.04,-290.3 1990.8,-279.71 1984.39,-288.14 1991.04,-290.3"/>
<text text-anchor="middle" x="2010.5" y="-314.4" font-family="FreeSans" font-size="12.00"> masterPlotterX</text>
<text text-anchor="middle" x="2010.5" y="-301.4" font-family="FreeSans" font-size="12.00">masterPlotterY</text>
</g>
<!-- Node21 -->
<g id="node21" class="node">
<title>Node21</title>
<g id="a_node21"><a xlink:href="class_j_k_q_t_p_graphs_model.html" target="_top" xlink:title="data model with all plots ina JKQTBasePlotter (+ allows to switch them visible/invisible)">
<polygon fill="none" stroke="black" points="2249,-162.5 2249,-183.5 2377,-183.5 2377,-162.5 2249,-162.5"/>
<text text-anchor="middle" x="2313" y="-169.9" font-family="FreeSans" font-size="12.00">JKQTPGraphsModel</text>
</a>
</g>
</g>
<!-- Node8&#45;&gt;Node21 -->
<g id="edge29" class="edge">
<title>Node8&#45;&gt;Node21</title>
<path fill="none" stroke="#9a32cd" stroke-dasharray="5,2" d="M2021.41,-249.27C2034.55,-225.59 2060.2,-187.07 2095,-171 2151.27,-145.02 2224.82,-153.25 2270.22,-162.46"/>
<polygon fill="#9a32cd" stroke="#9a32cd" points="2018.16,-247.93 2016.56,-258.4 2024.34,-251.21 2018.16,-247.93"/>
<text text-anchor="middle" x="2146.5" y="-174.4" font-family="FreeSans" font-size="12.00"> m_plotter</text>
</g>
<!-- Node8&#45;&gt;Node24 -->
<g id="edge33" class="edge">
<title>Node8&#45;&gt;Node24</title>
<path fill="none" stroke="#9a32cd" stroke-dasharray="5,2" d="M2027.56,-287.3C2040.85,-302.46 2060.2,-324.59 2077,-344 2085.04,-353.3 2084.43,-358.73 2095,-365 2098.6,-367.13 2197.27,-387.56 2260.31,-400.47"/>
<polygon fill="#9a32cd" stroke="#9a32cd" points="2030.08,-284.86 2020.86,-279.65 2024.82,-289.48 2030.08,-284.86"/>
<text text-anchor="middle" x="2146.5" y="-389.4" font-family="FreeSans" font-size="12.00"> parent</text>
</g>
<!-- Node32 -->
<g id="node32" class="node">
<title>Node32</title>
<g id="a_node32"><a xlink:href="class_j_k_q_t_p_color_palette_style_and_tools_mixin.html" target="_top" xlink:title="if a class is derived from this class, it may use color bars">
<polygon fill="none" stroke="black" points="2952,-343 2952,-377 3119,-377 3119,-343 2952,-343"/>
<text text-anchor="start" x="2960" y="-363.4" font-family="FreeSans" font-size="12.00">JKQTPColorPaletteStyleAnd</text>
<text text-anchor="middle" x="3035.5" y="-350.4" font-family="FreeSans" font-size="12.00">ToolsMixin</text>
</a>
</g>
</g>
<!-- Node8&#45;&gt;Node32 -->
<g id="edge46" class="edge">
<title>Node8&#45;&gt;Node32</title>
<path fill="none" stroke="#9a32cd" stroke-dasharray="5,2" d="M2064.87,-256.36C2074.84,-254.32 2085.2,-252.42 2095,-251 2241.89,-229.76 2279.58,-226 2428,-226 2428,-226 2428,-226 2718,-226 2763.07,-226 2775.54,-230.31 2817,-248 2883.32,-276.3 2886.28,-308.31 2952,-338 2955.92,-339.77 2960.01,-341.42 2964.18,-342.96"/>
<polygon fill="#9a32cd" stroke="#9a32cd" points="2064.13,-252.94 2055.06,-258.43 2065.57,-259.78 2064.13,-252.94"/>
<text text-anchor="middle" x="2513.5" y="-229.4" font-family="FreeSans" font-size="12.00"> cbParent</text>
</g>
<!-- Node9 -->
<g id="node9" class="node">
<title>Node9</title>
<g id="a_node9"><a xlink:href="class_j_k_q_t_base_plotter_style.html" target="_top" xlink:title="Support Class for JKQTBasePlotter, which summarizes all properties that define the visual styling of ...">
<polygon fill="none" stroke="black" points="1693,-197.5 1693,-218.5 1828,-218.5 1828,-197.5 1693,-197.5"/>
<text text-anchor="middle" x="1760.5" y="-204.9" font-family="FreeSans" font-size="12.00">JKQTBasePlotterStyle</text>
</a>
</g>
</g>
<!-- Node9&#45;&gt;Node8 -->
<g id="edge9" class="edge">
<title>Node9&#45;&gt;Node8</title>
<path fill="none" stroke="#9a32cd" stroke-dasharray="5,2" d="M1829.95,-220.42C1859.65,-226.25 1894.72,-233.74 1926,-242 1943.97,-246.75 1963.78,-253.1 1979.59,-258.45"/>
<polygon fill="#9a32cd" stroke="#9a32cd" points="1830.58,-216.97 1820.1,-218.5 1829.25,-223.85 1830.58,-216.97"/>
<text text-anchor="middle" x="1886" y="-245.4" font-family="FreeSans" font-size="12.00"> plotterStyle</text>
</g>
<!-- Node10 -->
<g id="node10" class="node">
<title>Node10</title>
<g id="a_node10"><a xlink:href="class_j_k_q_t_p_key_style.html" target="_top" xlink:title="Support Class for JKQTBasePlotter, which summarizes all properties that define the visual styling of ...">
<polygon fill="none" stroke="black" points="1393.5,-252.5 1393.5,-273.5 1496.5,-273.5 1496.5,-252.5 1393.5,-252.5"/>
<text text-anchor="middle" x="1445" y="-259.9" font-family="FreeSans" font-size="12.00">JKQTPKeyStyle</text>
</a>
</g>
</g>
<!-- Node10&#45;&gt;Node9 -->
<g id="edge10" class="edge">
<title>Node10&#45;&gt;Node9</title>
<path fill="none" stroke="#9a32cd" stroke-dasharray="5,2" d="M1506.71,-250.89C1522.12,-247.9 1538.66,-244.76 1554,-242 1600.27,-233.68 1652.54,-225.04 1692.78,-218.55"/>
<polygon fill="#9a32cd" stroke="#9a32cd" points="1505.91,-247.47 1496.77,-252.82 1507.25,-254.35 1505.91,-247.47"/>
<text text-anchor="middle" x="1614.5" y="-245.4" font-family="FreeSans" font-size="12.00"> keyStyle</text>
</g>
<!-- Node11 -->
<g id="node11" class="node">
<title>Node11</title>
<g id="a_node11"><a xlink:href="class_j_k_q_t_p_coordinate_axis_style.html" target="_top" xlink:title="Support Class for JKQTPCoordinateAxis, which summarizes all properties that define the visual styling...">
<polygon fill="none" stroke="black" points="1060,-200.5 1060,-221.5 1224,-221.5 1224,-200.5 1060,-200.5"/>
<text text-anchor="middle" x="1142" y="-207.9" font-family="FreeSans" font-size="12.00">JKQTPCoordinateAxisStyle</text>
</a>
</g>
</g>
<!-- Node11&#45;&gt;Node9 -->
<g id="edge11" class="edge">
<title>Node11&#45;&gt;Node9</title>
<path fill="none" stroke="#9a32cd" stroke-dasharray="5,2" d="M1234.57,-210.55C1359.91,-209.94 1581.95,-208.86 1692.74,-208.32"/>
<polygon fill="#9a32cd" stroke="#9a32cd" points="1234.21,-207.06 1224.23,-210.6 1234.25,-214.06 1234.21,-207.06"/>
<text text-anchor="middle" x="1445" y="-226.4" font-family="FreeSans" font-size="12.00"> xAxisStyle</text>
<text text-anchor="middle" x="1445" y="-213.4" font-family="FreeSans" font-size="12.00">yAxisStyle</text>
</g>
<!-- Node13 -->
<g id="node13" class="node">
<title>Node13</title>
<g id="a_node13"><a xlink:href="class_j_k_q_t_p_colorbar_coordinate_axis_style.html" target="_top" xlink:title="Support Class for JKQTPCoordinateAxis, which summarizes all properties that define the visual styling...">
<polygon fill="none" stroke="black" points="1354,-137 1354,-171 1536,-171 1536,-137 1354,-137"/>
<text text-anchor="start" x="1362" y="-157.4" font-family="FreeSans" font-size="12.00">JKQTPColorbarCoordinateAxis</text>
<text text-anchor="middle" x="1445" y="-144.4" font-family="FreeSans" font-size="12.00">Style</text>
</a>
</g>
</g>
<!-- Node11&#45;&gt;Node13 -->
<g id="edge14" class="edge">
<title>Node11&#45;&gt;Node13</title>
<path fill="none" stroke="midnightblue" d="M1208.54,-198.59C1251.2,-190.51 1307.4,-179.87 1354.19,-171.01"/>
<polygon fill="midnightblue" stroke="midnightblue" points="1207.73,-195.18 1198.56,-200.48 1209.04,-202.06 1207.73,-195.18"/>
</g>
<!-- Node11&#45;&gt;Node24 -->
<g id="edge34" class="edge">
<title>Node11&#45;&gt;Node24</title>
<path fill="none" stroke="#9a32cd" stroke-dasharray="5,2" d="M1151.72,-230.8C1181.89,-295.87 1288.5,-499 1444,-499 1444,-499 1444,-499 2011.5,-499 2120.49,-499 2243.09,-445.02 2291.12,-421.61"/>
<polygon fill="#9a32cd" stroke="#9a32cd" points="1154.87,-229.25 1147.54,-221.59 1148.49,-232.14 1154.87,-229.25"/>
<text text-anchor="middle" x="1760.5" y="-502.4" font-family="FreeSans" font-size="12.00"> axisStyle</text>
</g>
<!-- Node12 -->
<g id="node12" class="node">
<title>Node12</title>
<g id="a_node12"><a xlink:href="class_j_k_q_t_p_grid_style.html" target="_top" xlink:title="Support Class for JKQTPCoordinateAxis, and summarizes all properties that define the visual styling o...">
<polygon fill="none" stroke="black" points="783.5,-204.5 783.5,-225.5 887.5,-225.5 887.5,-204.5 783.5,-204.5"/>
<text text-anchor="middle" x="835.5" y="-211.9" font-family="FreeSans" font-size="12.00">JKQTPGridStyle</text>
</a>
</g>
</g>
<!-- Node12&#45;&gt;Node11 -->
<g id="edge12" class="edge">
<title>Node12&#45;&gt;Node11</title>
<path fill="none" stroke="#9a32cd" stroke-dasharray="5,2" d="M898.06,-214.19C944.67,-213.58 1009.11,-212.73 1059.91,-212.07"/>
<polygon fill="#9a32cd" stroke="#9a32cd" points="897.76,-210.69 887.81,-214.33 897.86,-217.69 897.76,-210.69"/>
<text text-anchor="middle" x="986.5" y="-230.4" font-family="FreeSans" font-size="12.00"> majorGridStyle</text>
<text text-anchor="middle" x="986.5" y="-217.4" font-family="FreeSans" font-size="12.00">minorGridStyle</text>
</g>
<!-- Node13&#45;&gt;Node9 -->
<g id="edge13" class="edge">
<title>Node13&#45;&gt;Node9</title>
<path fill="none" stroke="#9a32cd" stroke-dasharray="5,2" d="M1546.28,-151.92C1586.8,-153.19 1633.66,-157.37 1675,-168 1699.52,-174.3 1725.54,-187.78 1742.12,-197.34"/>
<polygon fill="#9a32cd" stroke="#9a32cd" points="1546.22,-148.42 1536.13,-151.66 1546.03,-155.41 1546.22,-148.42"/>
<text text-anchor="middle" x="1614.5" y="-184.4" font-family="FreeSans" font-size="12.00"> rightColorbarAxisStyle</text>
<text text-anchor="middle" x="1614.5" y="-171.4" font-family="FreeSans" font-size="12.00">topColorbarAxisStyle</text>
</g>
<!-- Node14 -->
<g id="node14" class="node">
<title>Node14</title>
<g id="a_node14"><a xlink:href="class_j_k_q_t_graphs_base_style.html" target="_top" xlink:title="Support Class for JKQTBasePlotter, which summarizes all properties that define the visual styling of ...">
<polygon fill="none" stroke="black" points="1374.5,-89.5 1374.5,-110.5 1515.5,-110.5 1515.5,-89.5 1374.5,-89.5"/>
<text text-anchor="middle" x="1445" y="-96.9" font-family="FreeSans" font-size="12.00">JKQTGraphsBaseStyle</text>
</a>
</g>
</g>
<!-- Node14&#45;&gt;Node9 -->
<g id="edge15" class="edge">
<title>Node14&#45;&gt;Node9</title>
<path fill="none" stroke="#9a32cd" stroke-dasharray="5,2" d="M1525.82,-101.9C1571.3,-105.54 1628.34,-114.55 1675,-136 1707.05,-150.73 1736.46,-181.19 1750.62,-197.37"/>
<polygon fill="#9a32cd" stroke="#9a32cd" points="1525.94,-98.4 1515.71,-101.16 1525.43,-105.38 1525.94,-98.4"/>
<text text-anchor="middle" x="1614.5" y="-139.4" font-family="FreeSans" font-size="12.00"> graphsStyle</text>
</g>
<!-- Node15 -->
<g id="node15" class="node">
<title>Node15</title>
<g id="a_node15"><a xlink:href="class_j_k_q_t_graphs_specific_style_properties.html" target="_top" xlink:title="Support Class for JKQTBasePlotter, which summarizes all properties that define the visual styling of ...">
<polygon fill="none" stroke="black" points="370,-69.5 370,-90.5 579,-90.5 579,-69.5 370,-69.5"/>
<text text-anchor="middle" x="474.5" y="-76.9" font-family="FreeSans" font-size="12.00">JKQTGraphsSpecificStyleProperties</text>
</a>
</g>
</g>
<!-- Node15&#45;&gt;Node14 -->
<g id="edge16" class="edge">
<title>Node15&#45;&gt;Node14</title>
<path fill="none" stroke="#9a32cd" stroke-dasharray="5,2" d="M573.37,-91.6C625.69,-97.22 691.26,-103.31 750,-106 1010.18,-117.91 1075.83,-122.02 1336,-110 1348.41,-109.43 1361.61,-108.48 1374.35,-107.4"/>
<polygon fill="#9a32cd" stroke="#9a32cd" points="573.75,-88.12 563.43,-90.53 572.99,-95.08 573.75,-88.12"/>
<text text-anchor="middle" x="986.5" y="-172.4" font-family="FreeSans" font-size="12.00"> barchartStyle</text>
<text text-anchor="middle" x="986.5" y="-159.4" font-family="FreeSans" font-size="12.00">boxplotStyle</text>
<text text-anchor="middle" x="986.5" y="-146.4" font-family="FreeSans" font-size="12.00">defaultGraphStyle</text>
<text text-anchor="middle" x="986.5" y="-133.4" font-family="FreeSans" font-size="12.00">filledStyle</text>
<text text-anchor="middle" x="986.5" y="-120.4" font-family="FreeSans" font-size="12.00">impulseStyle</text>
</g>
<!-- Node17 -->
<g id="node17" class="node">
<title>Node17</title>
<g id="a_node17"><a xlink:href="class_j_k_q_t_geometric_specific_style_properties.html" target="_top" xlink:title="Support Class for JKQTBasePlotter, which summarizes all properties that define the visual styling of ...">
<polygon fill="none" stroke="black" points="750,-63 750,-97 921,-97 921,-63 750,-63"/>
<text text-anchor="start" x="758" y="-83.4" font-family="FreeSans" font-size="12.00">JKQTGeometricSpecificStyle</text>
<text text-anchor="middle" x="835.5" y="-70.4" font-family="FreeSans" font-size="12.00">Properties</text>
</a>
</g>
</g>
<!-- Node15&#45;&gt;Node17 -->
<g id="edge19" class="edge">
<title>Node15&#45;&gt;Node17</title>
<path fill="none" stroke="midnightblue" d="M589.62,-80C641.61,-80 702.08,-80 749.92,-80"/>
<polygon fill="midnightblue" stroke="midnightblue" points="589.34,-76.5 579.34,-80 589.34,-83.5 589.34,-76.5"/>
</g>
<!-- Node16 -->
<g id="node16" class="node">
<title>Node16</title>
<g id="a_node16"><a xlink:href="struct_j_k_q_t_p_color_derivation_mode.html" target="_top" xlink:title="Specifies how a fill&#45;color is derived from a given color.">
<polygon fill="none" stroke="black" points="0,-38.5 0,-59.5 168,-59.5 168,-38.5 0,-38.5"/>
<text text-anchor="middle" x="84" y="-45.9" font-family="FreeSans" font-size="12.00">JKQTPColorDerivationMode</text>
</a>
</g>
</g>
<!-- Node16&#45;&gt;Node15 -->
<g id="edge17" class="edge">
<title>Node16&#45;&gt;Node15</title>
<path fill="none" stroke="#9a32cd" stroke-dasharray="5,2" d="M178.55,-56.47C236.27,-61.07 310.37,-66.98 369.86,-71.73"/>
<polygon fill="#9a32cd" stroke="#9a32cd" points="178.59,-52.96 168.34,-55.65 178.03,-59.93 178.59,-52.96"/>
<text text-anchor="middle" x="269" y="-125.4" font-family="FreeSans" font-size="12.00"> errorColorDerivationMode</text>
<text text-anchor="middle" x="269" y="-112.4" font-family="FreeSans" font-size="12.00">errorFillColorDerivationMode</text>
<text text-anchor="middle" x="269" y="-99.4" font-family="FreeSans" font-size="12.00">fillColorDerivationMode</text>
<text text-anchor="middle" x="269" y="-86.4" font-family="FreeSans" font-size="12.00">graphColorDerivationMode</text>
<text text-anchor="middle" x="269" y="-73.4" font-family="FreeSans" font-size="12.00">symbolFillColorDerivationMode</text>
</g>
<!-- Node18 -->
<g id="node18" class="node">
<title>Node18</title>
<g id="a_node18"><a xlink:href="class_j_k_q_t_annotations_specific_style_properties.html" target="_top" xlink:title="Support Class for JKQTBasePlotter, which summarizes all properties that define the visual styling of ...">
<polygon fill="none" stroke="black" points="1052,-15 1052,-49 1232,-49 1232,-15 1052,-15"/>
<text text-anchor="start" x="1060" y="-35.4" font-family="FreeSans" font-size="12.00">JKQTAnnotationsSpecificStyle</text>
<text text-anchor="middle" x="1142" y="-22.4" font-family="FreeSans" font-size="12.00">Properties</text>
</a>
</g>
</g>
<!-- Node16&#45;&gt;Node18 -->
<g id="edge22" class="edge">
<title>Node16&#45;&gt;Node18</title>
<path fill="none" stroke="#9a32cd" stroke-dasharray="5,2" d="M178.58,-47.49C380.4,-44.24 854.29,-36.62 1051.96,-33.43"/>
<polygon fill="#9a32cd" stroke="#9a32cd" points="178.25,-44 168.3,-47.66 178.36,-51 178.25,-44"/>
<text text-anchor="middle" x="664.5" y="-44.4" font-family="FreeSans" font-size="12.00"> textColorDerivationMode</text>
</g>
<!-- Node17&#45;&gt;Node14 -->
<g id="edge18" class="edge">
<title>Node17&#45;&gt;Node14</title>
<path fill="none" stroke="#9a32cd" stroke-dasharray="5,2" d="M931.44,-83.13C1054.3,-87.17 1265.48,-94.12 1374.45,-97.71"/>
<polygon fill="#9a32cd" stroke="#9a32cd" points="931.4,-79.62 921.29,-82.79 931.17,-86.62 931.4,-79.62"/>
<text text-anchor="middle" x="1142" y="-96.4" font-family="FreeSans" font-size="12.00"> geometricStyle</text>
</g>
<!-- Node17&#45;&gt;Node18 -->
<g id="edge21" class="edge">
<title>Node17&#45;&gt;Node18</title>
<path fill="none" stroke="midnightblue" d="M931.48,-65.03C969.91,-58.97 1014.04,-52.01 1051.85,-46.05"/>
<polygon fill="midnightblue" stroke="midnightblue" points="930.65,-61.61 921.32,-66.63 931.74,-68.53 930.65,-61.61"/>
</g>
<!-- Node18&#45;&gt;Node14 -->
<g id="edge20" class="edge">
<title>Node18&#45;&gt;Node14</title>
<path fill="none" stroke="#9a32cd" stroke-dasharray="5,2" d="M1242.37,-41.58C1272.7,-45.66 1305.97,-51.3 1336,-59 1366.11,-66.72 1399.35,-80.12 1420.89,-89.49"/>
<polygon fill="#9a32cd" stroke="#9a32cd" points="1242.57,-38.08 1232.21,-40.25 1241.67,-45.02 1242.57,-38.08"/>
<text text-anchor="middle" x="1293" y="-62.4" font-family="FreeSans" font-size="12.00"> annotationStyle</text>
</g>
<!-- Node19&#45;&gt;Node8 -->
<g id="edge23" class="edge">
<title>Node19&#45;&gt;Node8</title>
<path fill="none" stroke="#9a32cd" stroke-dasharray="5,2" d="M1794.95,-341.38C1810.37,-334.84 1828.99,-327.21 1846,-321 1889.23,-305.21 1939.83,-289.54 1973.16,-279.59"/>
<polygon fill="#9a32cd" stroke="#9a32cd" points="1793.14,-338.34 1785.33,-345.5 1795.9,-344.78 1793.14,-338.34"/>
<text text-anchor="middle" x="1886" y="-324.4" font-family="FreeSans" font-size="12.00"> mathText</text>
</g>
<!-- Node20 -->
<g id="node20" class="node">
<title>Node20</title>
<g id="a_node20"><a xlink:href="class_j_k_q_t_math_text_node.html" target="_top" xlink:title="subclass representing one node in the syntax tree">
<polygon fill="none" stroke="black" points="1946.5,-353.5 1946.5,-374.5 2074.5,-374.5 2074.5,-353.5 1946.5,-353.5"/>
<text text-anchor="middle" x="2010.5" y="-360.9" font-family="FreeSans" font-size="12.00">JKQTMathTextNode</text>
</a>
</g>
</g>
<!-- Node19&#45;&gt;Node20 -->
<g id="edge26" class="edge">
<title>Node19&#45;&gt;Node20</title>
<path fill="none" stroke="#9a32cd" stroke-dasharray="5,2" d="M1819.79,-344.3C1851.31,-339.59 1890.87,-336.25 1926,-341 1943.88,-343.42 1963.35,-348.62 1978.98,-353.47"/>
<polygon fill="#9a32cd" stroke="#9a32cd" points="1819.18,-340.86 1809.85,-345.88 1820.28,-347.77 1819.18,-340.86"/>
<text text-anchor="middle" x="1886" y="-344.4" font-family="FreeSans" font-size="12.00"> parent</text>
</g>
<!-- Node20&#45;&gt;Node19 -->
<g id="edge25" class="edge">
<title>Node20&#45;&gt;Node19</title>
<path fill="none" stroke="#9a32cd" stroke-dasharray="5,2" d="M1936.29,-361.64C1895.39,-360.32 1845.58,-358.71 1809.61,-357.55"/>
<polygon fill="#9a32cd" stroke="#9a32cd" points="1936.38,-365.14 1946.49,-361.97 1936.6,-358.15 1936.38,-365.14"/>
<text text-anchor="middle" x="1886" y="-377.4" font-family="FreeSans" font-size="12.00"> parsedNode</text>
<text text-anchor="middle" x="1886" y="-364.4" font-family="FreeSans" font-size="12.00">unparsedNode</text>
</g>
<!-- Node21&#45;&gt;Node8 -->
<g id="edge27" class="edge">
<title>Node21&#45;&gt;Node8</title>
<path fill="none" stroke="#9a32cd" stroke-dasharray="5,2" d="M2238.82,-181.95C2186.31,-189.03 2120.51,-199.46 2095,-210 2066.46,-221.8 2038.14,-244.82 2022.93,-258.35"/>
<polygon fill="#9a32cd" stroke="#9a32cd" points="2239.34,-185.41 2248.79,-180.62 2238.42,-178.47 2239.34,-185.41"/>
<text text-anchor="middle" x="2146.5" y="-213.4" font-family="FreeSans" font-size="12.00"> m_plotsModel</text>
</g>
<!-- Node22 -->
<g id="node22" class="node">
<title>Node22</title>
<g id="a_node22"><a xlink:title=" ">
<polygon fill="none" stroke="black" points="1944,-129.5 1944,-150.5 2077,-150.5 2077,-129.5 1944,-129.5"/>
<text text-anchor="middle" x="2010.5" y="-136.9" font-family="FreeSans" font-size="12.00">QAbstractTableModel</text>
</a>
</g>
</g>
<!-- Node22&#45;&gt;Node21 -->
<g id="edge28" class="edge">
<title>Node22&#45;&gt;Node21</title>
<path fill="none" stroke="midnightblue" d="M2087.53,-144.15C2121.42,-146.4 2161.77,-149.63 2198,-154 2216.63,-156.25 2236.85,-159.39 2255.03,-162.47"/>
<polygon fill="midnightblue" stroke="midnightblue" points="2087.44,-140.64 2077.24,-143.48 2086.99,-147.62 2087.44,-140.64"/>
</g>
<!-- Node23 -->
<g id="node23" class="node">
<title>Node23</title>
<g id="a_node23"><a xlink:href="class_j_k_q_t_p_horizontal_axis.html" target="_top" xlink:title="implements a horizontal axis, based on JKQTPCoordinateAxis (for most of documentation: see JKQTPCoord...">
<polygon fill="none" stroke="black" points="2447,-375.5 2447,-396.5 2580,-396.5 2580,-375.5 2447,-375.5"/>
<text text-anchor="middle" x="2513.5" y="-382.9" font-family="FreeSans" font-size="12.00">JKQTPHorizontalAxis</text>
</a>
</g>
</g>
<!-- Node23&#45;&gt;Node8 -->
<g id="edge30" class="edge">
<title>Node23&#45;&gt;Node8</title>
<path fill="none" stroke="#9a32cd" stroke-dasharray="5,2" d="M2436.7,-376.77C2334.03,-363.7 2156.52,-338.95 2095,-317 2069.17,-307.78 2042.17,-290.68 2026.09,-279.57"/>
<polygon fill="#9a32cd" stroke="#9a32cd" points="2436.34,-380.25 2446.7,-378.03 2437.22,-373.31 2436.34,-380.25"/>
<text text-anchor="middle" x="2313" y="-376.4" font-family="FreeSans" font-size="12.00"> xAxis</text>
</g>
<!-- Node34 -->
<g id="node34" class="node">
<title>Node34</title>
<g id="a_node34"><a xlink:href="class_j_k_q_t_p_horizontal_independent_axis.html" target="_top" xlink:title="implements a position&#45;indipendent horizontal axis, based on JKQTPCoordinateAxis (for most of document...">
<polygon fill="none" stroke="black" points="2617,-375.5 2617,-396.5 2817,-396.5 2817,-375.5 2617,-375.5"/>
<text text-anchor="middle" x="2717" y="-382.9" font-family="FreeSans" font-size="12.00">JKQTPHorizontalIndependentAxis</text>
</a>
</g>
</g>
<!-- Node23&#45;&gt;Node34 -->
<g id="edge50" class="edge">
<title>Node23&#45;&gt;Node34</title>
<path fill="none" stroke="midnightblue" d="M2590.24,-386C2598.91,-386 2607.84,-386 2616.76,-386"/>
<polygon fill="midnightblue" stroke="midnightblue" points="2590.2,-382.5 2580.2,-386 2590.2,-389.5 2590.2,-382.5"/>
</g>
<!-- Node24&#45;&gt;Node23 -->
<g id="edge31" class="edge">
<title>Node24&#45;&gt;Node23</title>
<path fill="none" stroke="midnightblue" d="M2391.49,-401.67C2404.03,-400.13 2416.88,-398.54 2429,-397 2434.8,-396.26 2440.83,-395.49 2446.87,-394.71"/>
<polygon fill="midnightblue" stroke="midnightblue" points="2391.01,-398.2 2381.51,-402.89 2391.86,-405.15 2391.01,-398.2"/>
</g>
<!-- Node25 -->
<g id="node25" class="node">
<title>Node25</title>
<g id="a_node25"><a xlink:href="class_j_k_q_t_p_vertical_axis.html" target="_top" xlink:title="implements a vertical axis, based on JKQTPCoordinateAxis (for most of documentation: see JKQTPCoordin...">
<polygon fill="none" stroke="black" points="2454.5,-318.5 2454.5,-339.5 2572.5,-339.5 2572.5,-318.5 2454.5,-318.5"/>
<text text-anchor="middle" x="2513.5" y="-325.9" font-family="FreeSans" font-size="12.00">JKQTPVerticalAxis</text>
</a>
</g>
</g>
<!-- Node24&#45;&gt;Node25 -->
<g id="edge36" class="edge">
<title>Node24&#45;&gt;Node25</title>
<path fill="none" stroke="midnightblue" d="M2357.17,-397.34C2373.83,-391.76 2392.96,-384.98 2410,-378 2439.02,-366.12 2471.53,-350.1 2492.01,-339.66"/>
<polygon fill="midnightblue" stroke="midnightblue" points="2356.07,-394.01 2347.67,-400.48 2358.26,-400.66 2356.07,-394.01"/>
</g>
<!-- Node25&#45;&gt;Node8 -->
<g id="edge35" class="edge">
<title>Node25&#45;&gt;Node8</title>
<path fill="none" stroke="#9a32cd" stroke-dasharray="5,2" d="M2473.65,-314.76C2464.77,-311.18 2455.47,-307.16 2447,-303 2429.83,-294.56 2428.37,-286.35 2410,-281 2290.71,-246.27 2142.79,-254.35 2065.03,-262.27"/>
<polygon fill="#9a32cd" stroke="#9a32cd" points="2472.46,-318.05 2483.05,-318.45 2475.02,-311.54 2472.46,-318.05"/>
<text text-anchor="middle" x="2313" y="-284.4" font-family="FreeSans" font-size="12.00"> yAxis</text>
</g>
<!-- Node33 -->
<g id="node33" class="node">
<title>Node33</title>
<g id="a_node33"><a xlink:href="class_j_k_q_t_p_vertical_independent_axis.html" target="_top" xlink:title="implements a position&#45;indipendent vertical axis, based on JKQTPCoordinateAxis (for most of documentat...">
<polygon fill="none" stroke="black" points="2624.5,-318.5 2624.5,-339.5 2809.5,-339.5 2809.5,-318.5 2624.5,-318.5"/>
<text text-anchor="middle" x="2717" y="-325.9" font-family="FreeSans" font-size="12.00">JKQTPVerticalIndependentAxis</text>
</a>
</g>
</g>
<!-- Node25&#45;&gt;Node33 -->
<g id="edge48" class="edge">
<title>Node25&#45;&gt;Node33</title>
<path fill="none" stroke="midnightblue" d="M2582.56,-329C2595.95,-329 2610.21,-329 2624.23,-329"/>
<polygon fill="midnightblue" stroke="midnightblue" points="2582.51,-325.5 2572.51,-329 2582.51,-332.5 2582.51,-325.5"/>
</g>
<!-- Node26 -->
<g id="node26" class="node">
<title>Node26</title>
<g id="a_node26"><a xlink:href="class_j_k_q_t_p_datastore.html" target="_top" xlink:title="This class manages data columns (with entries of type double ), used by JKQTPlotter/JKQTBasePlotter t...">
<polygon fill="none" stroke="black" points="1707,-89.5 1707,-110.5 1814,-110.5 1814,-89.5 1707,-89.5"/>
<text text-anchor="middle" x="1760.5" y="-96.9" font-family="FreeSans" font-size="12.00">JKQTPDatastore</text>
</a>
</g>
</g>
<!-- Node26&#45;&gt;Node8 -->
<g id="edge37" class="edge">
<title>Node26&#45;&gt;Node8</title>
<path fill="none" stroke="#9a32cd" stroke-dasharray="5,2" d="M1786.98,-116.17C1819.54,-136.96 1877.49,-174.39 1926,-208 1950.79,-225.18 1979,-246.08 1995.47,-258.42"/>
<polygon fill="#9a32cd" stroke="#9a32cd" points="1788.81,-113.19 1778.5,-110.76 1785.05,-119.09 1788.81,-113.19"/>
<text text-anchor="middle" x="1886" y="-211.4" font-family="FreeSans" font-size="12.00"> datastore</text>
</g>
<!-- Node28 -->
<g id="node28" class="node">
<title>Node28</title>
<g id="a_node28"><a xlink:href="class_j_k_q_t_p_column.html" target="_top" xlink:title="internally stores information about one data column. See JKQTPDatastore for more information.">
<polygon fill="none" stroke="black" points="1962.5,-89.5 1962.5,-110.5 2058.5,-110.5 2058.5,-89.5 1962.5,-89.5"/>
<text text-anchor="middle" x="2010.5" y="-96.9" font-family="FreeSans" font-size="12.00">JKQTPColumn</text>
</a>
</g>
</g>
<!-- Node26&#45;&gt;Node28 -->
<g id="edge40" class="edge">
<title>Node26&#45;&gt;Node28</title>
<path fill="none" stroke="#9a32cd" stroke-dasharray="5,2" d="M1824.16,-100C1867.13,-100 1923.25,-100 1962.42,-100"/>
<polygon fill="#9a32cd" stroke="#9a32cd" points="1824.09,-96.5 1814.09,-100 1824.09,-103.5 1824.09,-96.5"/>
<text text-anchor="middle" x="1886" y="-103.4" font-family="FreeSans" font-size="12.00"> datastore</text>
</g>
<!-- Node27 -->
<g id="node27" class="node">
<title>Node27</title>
<g id="a_node27"><a xlink:title=" ">
<polygon fill="none" stroke="black" points="2216,-47.5 2216,-68.5 2410,-68.5 2410,-47.5 2216,-47.5"/>
<text text-anchor="middle" x="2313" y="-54.9" font-family="FreeSans" font-size="12.00">std::unique_ptr&lt; JKQTPColumn &gt;</text>
</a>
</g>
</g>
<!-- Node27&#45;&gt;Node26 -->
<g id="edge38" class="edge">
<title>Node27&#45;&gt;Node26</title>
<path fill="none" stroke="#9a32cd" stroke-dasharray="5,2" d="M2205.46,-56.27C2131.83,-56.13 2031.74,-58.05 1944,-67 1897.55,-71.74 1845.17,-81.7 1808.48,-89.44"/>
<polygon fill="#9a32cd" stroke="#9a32cd" points="2205.65,-59.77 2215.66,-56.3 2205.68,-52.77 2205.65,-59.77"/>
<text text-anchor="middle" x="2010.5" y="-70.4" font-family="FreeSans" font-size="12.00"> m_invalidColumn</text>
</g>
<!-- Node28&#45;&gt;Node27 -->
<g id="edge39" class="edge">
<title>Node28&#45;&gt;Node27</title>
<path fill="none" stroke="#9a32cd" stroke-dasharray="5,2" d="M2068.92,-91.97C2116.55,-85.32 2184.63,-75.8 2236.63,-68.53"/>
<polygon fill="#9a32cd" stroke="#9a32cd" points="2068.2,-88.54 2058.78,-93.39 2069.17,-95.47 2068.2,-88.54"/>
<text text-anchor="middle" x="2146.5" y="-91.4" font-family="FreeSans" font-size="12.00"> ptr</text>
</g>
<!-- Node29 -->
<g id="node29" class="node">
<title>Node29</title>
<g id="a_node29"><a xlink:title=" ">
<polygon fill="none" stroke="black" points="1949.5,-0.5 1949.5,-21.5 2071.5,-21.5 2071.5,-0.5 1949.5,-0.5"/>
<text text-anchor="middle" x="2010.5" y="-7.9" font-family="FreeSans" font-size="12.00">std::unique_ptr&lt; T &gt;</text>
</a>
</g>
</g>
<!-- Node29&#45;&gt;Node27 -->
<g id="edge41" class="edge">
<title>Node29&#45;&gt;Node27</title>
<path fill="none" stroke="orange" stroke-dasharray="5,2" d="M2081.95,-16.45C2116.98,-19.69 2159.88,-24.47 2198,-31 2223.16,-35.31 2251.05,-41.88 2272.94,-47.47"/>
<polygon fill="orange" stroke="orange" points="2082.09,-12.95 2071.82,-15.53 2081.46,-19.92 2082.09,-12.95"/>
<text text-anchor="middle" x="2146.5" y="-34.4" font-family="FreeSans" font-size="12.00"> &lt; JKQTPColumn &gt;</text>
</g>
<!-- Node30 -->
<g id="node30" class="node">
<title>Node30</title>
<g id="a_node30"><a xlink:title=" ">
<polygon fill="none" stroke="black" points="1746,-0.5 1746,-21.5 1775,-21.5 1775,-0.5 1746,-0.5"/>
<text text-anchor="middle" x="1760.5" y="-7.9" font-family="FreeSans" font-size="12.00">T</text>
</a>
</g>
</g>
<!-- Node30&#45;&gt;Node29 -->
<g id="edge42" class="edge">
<title>Node30&#45;&gt;Node29</title>
<path fill="none" stroke="#9a32cd" stroke-dasharray="5,2" d="M1785.62,-11C1823.18,-11 1896.78,-11 1949.34,-11"/>
<polygon fill="#9a32cd" stroke="#9a32cd" points="1785.19,-7.5 1775.19,-11 1785.19,-14.5 1785.19,-7.5"/>
<text text-anchor="middle" x="1886" y="-14.4" font-family="FreeSans" font-size="12.00"> ptr</text>
</g>
<!-- Node31 -->
<g id="node31" class="node">
<title>Node31</title>
<g id="a_node31"><a xlink:href="class_j_k_q_t_p_color_palette_with_modifier_style_and_tools_mixin.html" target="_top" xlink:title="if a class is derived from this class, it may use color bars that have 2 axes (one &quot;data&quot;/color axis ...">
<polygon fill="none" stroke="black" points="3298,-325 3298,-359 3484,-359 3484,-325 3298,-325"/>
<text text-anchor="start" x="3306" y="-345.4" font-family="FreeSans" font-size="12.00">JKQTPColorPaletteWithModifier</text>
<text text-anchor="middle" x="3391" y="-332.4" font-family="FreeSans" font-size="12.00">StyleAndToolsMixin</text>
</a>
</g>
</g>
<!-- Node31&#45;&gt;Node2 -->
<g id="edge44" class="edge">
<title>Node31&#45;&gt;Node2</title>
<path fill="none" stroke="midnightblue" d="M3494.11,-324.62C3512.08,-321.56 3530.19,-318.48 3546.36,-315.73"/>
<polygon fill="midnightblue" stroke="midnightblue" points="3493.42,-321.19 3484.15,-326.31 3494.6,-328.09 3493.42,-321.19"/>
</g>
<!-- Node32&#45;&gt;Node31 -->
<g id="edge45" class="edge">
<title>Node32&#45;&gt;Node31</title>
<path fill="none" stroke="midnightblue" d="M3129.59,-355.26C3181.49,-352.62 3245.91,-349.34 3297.69,-346.7"/>
<polygon fill="midnightblue" stroke="midnightblue" points="3129.19,-351.78 3119.38,-355.78 3129.55,-358.77 3129.19,-351.78"/>
</g>
<!-- Node33&#45;&gt;Node31 -->
<g id="edge51" class="edge">
<title>Node33&#45;&gt;Node31</title>
<path fill="none" stroke="#9a32cd" stroke-dasharray="5,2" d="M2819.68,-324.77C2860.77,-323.25 2908.63,-321.74 2952,-321 3026.21,-319.73 3044.83,-318.13 3119,-321 3178.65,-323.31 3245.52,-328.46 3297.91,-333.09"/>
<polygon fill="#9a32cd" stroke="#9a32cd" points="2819.53,-321.27 2809.67,-325.14 2819.79,-328.27 2819.53,-321.27"/>
<text text-anchor="middle" x="3035.5" y="-324.4" font-family="FreeSans" font-size="12.00"> modifierColorBarTopAxis</text>
</g>
<!-- Node33&#45;&gt;Node32 -->
<g id="edge47" class="edge">
<title>Node33&#45;&gt;Node32</title>
<path fill="none" stroke="#9a32cd" stroke-dasharray="5,2" d="M2819.68,-338.96C2862.37,-343.14 2911.38,-347.94 2951.8,-351.9"/>
<polygon fill="#9a32cd" stroke="#9a32cd" points="2819.84,-335.46 2809.54,-337.97 2819.16,-342.42 2819.84,-335.46"/>
<text text-anchor="middle" x="2884.5" y="-352.4" font-family="FreeSans" font-size="12.00"> colorBarRightAxis</text>
</g>
<!-- Node34&#45;&gt;Node31 -->
<g id="edge52" class="edge">
<title>Node34&#45;&gt;Node31</title>
<path fill="none" stroke="#9a32cd" stroke-dasharray="5,2" d="M2827.31,-392.75C2829.9,-392.84 2832.46,-392.92 2835,-393 3033.08,-398.92 3084.72,-398.71 3280,-365 3290.38,-363.21 3301.28,-361.15 3312.01,-359.01"/>
<polygon fill="#9a32cd" stroke="#9a32cd" points="2827.37,-389.25 2817.24,-392.35 2827.09,-396.24 2827.37,-389.25"/>
<text text-anchor="middle" x="3035.5" y="-398.4" font-family="FreeSans" font-size="12.00"> modifierColorBarRightAxis</text>
</g>
<!-- Node34&#45;&gt;Node32 -->
<g id="edge49" class="edge">
<title>Node34&#45;&gt;Node32</title>
<path fill="none" stroke="#9a32cd" stroke-dasharray="5,2" d="M2827.27,-377.02C2868.09,-373.67 2913.74,-369.92 2951.78,-366.8"/>
<polygon fill="#9a32cd" stroke="#9a32cd" points="2826.95,-373.54 2817.27,-377.84 2827.53,-380.51 2826.95,-373.54"/>
<text text-anchor="middle" x="2884.5" y="-379.4" font-family="FreeSans" font-size="12.00"> colorBarTopAxis</text>
</g>
<!-- Node35 -->
<g id="node35" class="node">
<title>Node35</title>
<g id="a_node35"><a xlink:href="class_j_k_q_t_p_graph_line_style_mixin.html" target="_top" xlink:title="This Mix&#45;In class provides setter/getter methods, storage and other facilities for the graph line sty...">
<polygon fill="none" stroke="black" points="3521,-255.5 3521,-276.5 3688,-276.5 3688,-255.5 3521,-255.5"/>
<text text-anchor="middle" x="3604.5" y="-262.9" font-family="FreeSans" font-size="12.00">JKQTPGraphLineStyleMixin</text>
</a>
</g>
</g>
<!-- Node35&#45;&gt;Node1 -->
<g id="edge53" class="edge">
<title>Node35&#45;&gt;Node1</title>
<path fill="none" stroke="midnightblue" d="M3698.26,-272.29C3707.3,-272.9 3716.29,-273.51 3724.84,-274.09"/>
<polygon fill="midnightblue" stroke="midnightblue" points="3698.25,-268.78 3688.04,-271.6 3697.78,-275.76 3698.25,-268.78"/>
</g>
</g>
</svg>
        <g id="navigator" transform="translate(0 0)" fill="#404254">
                <rect fill="#f2f5e9" fill-opacity="0.5" stroke="#606060" stroke-width=".5" x="0" y="0" width="60" height="60"/>
                <use id="zoomplus" xlink:href="#zoomPlus" x="17" y="9" onmousedown="handleZoom(evt,'in')"/>
                <use id="zoomminus" xlink:href="#zoomMin" x="42" y="9" onmousedown="handleZoom(evt,'out')"/>
                <use id="reset" xlink:href="#resetDef" x="30" y="36" onmousedown="handleReset()"/>
                <g id="arrowUp" xlink:href="#dirArrow" transform="translate(30 24)" onmousedown="handlePan(0,-1)">
                  <use xlink:href="#rim" fill="#404040">
                        <set attributeName="fill" to="#808080" begin="arrowUp.mouseover" end="arrowUp.mouseout"/>
                  </use>
                  <path fill="none" stroke="white" stroke-width="1.5" d="M0,-3.0v7 M-2.5,-0.5L0,-3.0L2.5,-0.5"/>
                </g>
                <g id="arrowRight" xlink:href="#dirArrow" transform="rotate(90) translate(36 -43)" onmousedown="handlePan(1,0)">
                  <use xlink:href="#rim" fill="#404040">
                        <set attributeName="fill" to="#808080" begin="arrowRight.mouseover" end="arrowRight.mouseout"/>
                  </use>
                  <path fill="none" stroke="white" stroke-width="1.5" d="M0,-3.0v7 M-2.5,-0.5L0,-3.0L2.5,-0.5"/>
                </g>
                <g id="arrowDown" xlink:href="#dirArrow" transform="rotate(180) translate(-30 -48)" onmousedown="handlePan(0,1)">
                  <use xlink:href="#rim" fill="#404040">
                        <set attributeName="fill" to="#808080" begin="arrowDown.mouseover" end="arrowDown.mouseout"/>
                  </use>
                  <path fill="none" stroke="white" stroke-width="1.5" d="M0,-3.0v7 M-2.5,-0.5L0,-3.0L2.5,-0.5"/>
                </g>
                <g id="arrowLeft" xlink:href="#dirArrow" transform="rotate(270) translate(-36 17)" onmousedown="handlePan(-1,0)">
                  <use xlink:href="#rim" fill="#404040">
                        <set attributeName="fill" to="#808080" begin="arrowLeft.mouseover" end="arrowLeft.mouseout"/>
                  </use>
                  <path fill="none" stroke="white" stroke-width="1.5" d="M0,-3.0v7 M-2.5,-0.5L0,-3.0L2.5,-0.5"/>
                </g>
        </g>
        <svg viewBox="0 0 15 15" width="100%" height="30px" preserveAspectRatio="xMaxYMin meet">
         <g id="arrow_out" transform="scale(0.3 0.3)">
          <a xlink:href="class_j_k_q_t_p_contour_plot__coll__graph_org.svg" target="_base">
           <rect id="button" ry="5" rx="5" y="6" x="6" height="38" width="38"
                fill="#f2f5e9" fill-opacity="0.5" stroke="#606060" stroke-width="1.0"/>
           <path id="arrow"
             d="M 11.500037,31.436501 C 11.940474,20.09759 22.043105,11.32322 32.158766,21.979434 L 37.068811,17.246167 C 37.068811,17.246167 37.088388,32 37.088388,32 L 22.160133,31.978069 C 22.160133,31.978069 26.997745,27.140456 26.997745,27.140456 C 18.528582,18.264221 13.291696,25.230495 11.500037,31.436501 z"
             style="fill:#404040;"/>
          </a>
         </g>
        </svg>
</svg>
