<?xml version="1.0" encoding="UTF-8" standalone="no"?>
<!DOCTYPE svg PUBLIC "-//W3C//DTD SVG 1.1//EN"
 "http://www.w3.org/Graphics/SVG/1.1/DTD/svg11.dtd">
<!-- Generated by graphviz version 2.43.0 (0)
 -->
<!-- Title: JKQTPCoordinateAxis Pages: 1 -->
<svg width="2512pt" height="673pt"
 viewBox="0.00 0.00 2512.00 673.00" xmlns="http://www.w3.org/2000/svg" xmlns:xlink="http://www.w3.org/1999/xlink">
<g id="graph0" class="graph" transform="scale(1 1) rotate(0) translate(4 669)">
<title>JKQTPCoordinateAxis</title>
<!-- Node1 -->
<g id="node1" class="node">
<title>Node1</title>
<g id="a_node1"><a xlink:title="this virtual class is the base for any type of coordinate axis, to be drawn by JKQTBasePlotter.">
<polygon fill="#bfbfbf" stroke="black" points="1404,-311.5 1404,-332.5 1546,-332.5 1546,-311.5 1404,-311.5"/>
<text text-anchor="middle" x="1475" y="-318.9" font-family="Helvetica,sans-Serif" font-size="12.00">JKQTPCoordinateAxis</text>
</a>
</g>
</g>
<!-- Node20 -->
<g id="node20" class="node">
<title>Node20</title>
<g id="a_node20"><a xlink:href="class_j_k_q_t_p_horizontal_axis.html" target="_top" xlink:title="implements a horizontal axis, based on JKQTPCoordinateAxis (for most of documentation: see JKQTPCoord...">
<polygon fill="none" stroke="black" points="1748,-266.5 1748,-287.5 1885,-287.5 1885,-266.5 1748,-266.5"/>
<text text-anchor="middle" x="1816.5" y="-273.9" font-family="Helvetica,sans-Serif" font-size="12.00">JKQTPHorizontalAxis</text>
</a>
</g>
</g>
<!-- Node1&#45;&gt;Node20 -->
<g id="edge30" class="edge">
<title>Node1&#45;&gt;Node20</title>
<path fill="none" stroke="midnightblue" d="M1556.26,-311.36C1614.6,-303.63 1692.67,-293.28 1747.85,-285.97"/>
<polygon fill="midnightblue" stroke="midnightblue" points="1555.8,-307.89 1546.34,-312.68 1556.72,-314.83 1555.8,-307.89"/>
</g>
<!-- Node21 -->
<g id="node21" class="node">
<title>Node21</title>
<g id="a_node21"><a xlink:href="class_j_k_q_t_p_vertical_axis.html" target="_top" xlink:title="implements a vertical axis, based on JKQTPCoordinateAxis (for most of documentation: see JKQTPCoordin...">
<polygon fill="none" stroke="black" points="1755.5,-355.5 1755.5,-376.5 1877.5,-376.5 1877.5,-355.5 1755.5,-355.5"/>
<text text-anchor="middle" x="1816.5" y="-362.9" font-family="Helvetica,sans-Serif" font-size="12.00">JKQTPVerticalAxis</text>
</a>
</g>
</g>
<!-- Node1&#45;&gt;Node21 -->
<g id="edge32" class="edge">
<title>Node1&#45;&gt;Node21</title>
<path fill="none" stroke="midnightblue" d="M1556.33,-332.41C1617.4,-340.33 1700.06,-351.04 1755.46,-358.22"/>
<polygon fill="midnightblue" stroke="midnightblue" points="1556.71,-328.93 1546.34,-331.12 1555.81,-335.87 1556.71,-328.93"/>
</g>
<!-- Node2 -->
<g id="node2" class="node">
<title>Node2</title>
<g id="a_node2"><a xlink:title=" ">
<polygon fill="none" stroke="black" points="1116,-227.5 1116,-248.5 1181,-248.5 1181,-227.5 1116,-227.5"/>
<text text-anchor="middle" x="1148.5" y="-234.9" font-family="Helvetica,sans-Serif" font-size="12.00">QObject</text>
</a>
</g>
</g>
<!-- Node2&#45;&gt;Node1 -->
<g id="edge1" class="edge">
<title>Node2&#45;&gt;Node1</title>
<path fill="none" stroke="midnightblue" d="M1191.13,-248.78C1253.72,-264.98 1371.32,-295.42 1433.34,-311.47"/>
<polygon fill="midnightblue" stroke="midnightblue" points="1191.76,-245.32 1181.21,-246.21 1190.01,-252.1 1191.76,-245.32"/>
</g>
<!-- Node3 -->
<g id="node3" class="node">
<title>Node3</title>
<g id="a_node3"><a xlink:href="class_j_k_q_t_base_plotter.html" target="_top" xlink:title="base class for 2D plotter classes (used by the plotter widget JKQTPlotter)">
<polygon fill="none" stroke="black" points="2011.5,-266.5 2011.5,-287.5 2125.5,-287.5 2125.5,-266.5 2011.5,-266.5"/>
<text text-anchor="middle" x="2068.5" y="-273.9" font-family="Helvetica,sans-Serif" font-size="12.00">JKQTBasePlotter</text>
</a>
</g>
</g>
<!-- Node2&#45;&gt;Node3 -->
<g id="edge3" class="edge">
<title>Node2&#45;&gt;Node3</title>
<path fill="none" stroke="midnightblue" d="M1191.48,-237.83C1304.29,-237.64 1623.35,-238.89 1888,-257 1929.45,-259.84 1976.08,-265.1 2011.42,-269.51"/>
<polygon fill="midnightblue" stroke="midnightblue" points="1191.21,-234.33 1181.22,-237.85 1191.22,-241.33 1191.21,-234.33"/>
</g>
<!-- Node16 -->
<g id="node16" class="node">
<title>Node16</title>
<g id="a_node16"><a xlink:href="class_j_k_q_t_math_text.html" target="_top" xlink:title="this class parses a mathematical markup string and can then draw the contained text/equation onto a Q...">
<polygon fill="none" stroke="black" points="1425.5,-172.5 1425.5,-193.5 1524.5,-193.5 1524.5,-172.5 1425.5,-172.5"/>
<text text-anchor="middle" x="1475" y="-179.9" font-family="Helvetica,sans-Serif" font-size="12.00">JKQTMathText</text>
</a>
</g>
</g>
<!-- Node2&#45;&gt;Node16 -->
<g id="edge22" class="edge">
<title>Node2&#45;&gt;Node16</title>
<path fill="none" stroke="midnightblue" d="M1191.09,-230.95C1251.09,-220.78 1361.71,-202.03 1425.4,-191.24"/>
<polygon fill="midnightblue" stroke="midnightblue" points="1190.48,-227.5 1181.21,-232.63 1191.65,-234.41 1190.48,-227.5"/>
</g>
<!-- Node3&#45;&gt;Node1 -->
<g id="edge2" class="edge">
<title>Node3&#45;&gt;Node1</title>
<path fill="none" stroke="#9a32cd" stroke-dasharray="5,2" d="M2008.45,-289.42C1998.64,-291.17 1988.56,-292.78 1979,-294 1825.43,-313.55 1643.76,-319.45 1546.27,-321.23"/>
<polygon fill="#9a32cd" stroke="#9a32cd" points="2009.33,-292.81 2018.53,-287.55 2008.06,-285.93 2009.33,-292.81"/>
<text text-anchor="middle" x="1816.5" y="-316.4" font-family="Helvetica,sans-Serif" font-size="12.00"> parent</text>
</g>
<!-- Node3&#45;&gt;Node3 -->
<g id="edge39" class="edge">
<title>Node3&#45;&gt;Node3</title>
<path fill="none" stroke="#9a32cd" stroke-dasharray="5,2" d="M2045.28,-297.43C2047.07,-302.35 2054.81,-306 2068.5,-306 2090.4,-306 2097.08,-296.65 2088.52,-287.71"/>
<polygon fill="#9a32cd" stroke="#9a32cd" points="2048.68,-298.3 2048.48,-287.71 2042.03,-296.11 2048.68,-298.3"/>
<text text-anchor="middle" x="2068.5" y="-322.4" font-family="Helvetica,sans-Serif" font-size="12.00"> masterPlotterX</text>
<text text-anchor="middle" x="2068.5" y="-309.4" font-family="Helvetica,sans-Serif" font-size="12.00">masterPlotterY</text>
</g>
<!-- Node18 -->
<g id="node18" class="node">
<title>Node18</title>
<g id="a_node18"><a xlink:href="class_j_k_q_t_p_graphs_model.html" target="_top" xlink:title="data model with all plots ina JKQTBasePlotter (+ allows to switch them visible/invisible)">
<polygon fill="none" stroke="black" points="2331,-302.5 2331,-323.5 2462,-323.5 2462,-302.5 2331,-302.5"/>
<text text-anchor="middle" x="2396.5" y="-309.9" font-family="Helvetica,sans-Serif" font-size="12.00">JKQTPGraphsModel</text>
</a>
</g>
</g>
<!-- Node3&#45;&gt;Node18 -->
<g id="edge28" class="edge">
<title>Node3&#45;&gt;Node18</title>
<path fill="none" stroke="#9a32cd" stroke-dasharray="5,2" d="M2135.51,-287.92C2143.08,-289.03 2150.7,-290.09 2158,-291 2216.34,-298.31 2283.04,-304.28 2330.86,-308.15"/>
<polygon fill="#9a32cd" stroke="#9a32cd" points="2136.01,-284.46 2125.6,-286.43 2134.97,-291.38 2136.01,-284.46"/>
<text text-anchor="middle" x="2214.5" y="-305.4" font-family="Helvetica,sans-Serif" font-size="12.00"> m_plotter</text>
</g>
<!-- Node4 -->
<g id="node4" class="node">
<title>Node4</title>
<g id="a_node4"><a xlink:href="class_j_k_q_t_base_plotter_style.html" target="_top" xlink:title="Support Class for JKQTBasePlotter, which summarizes all properties that define the visual styling of ...">
<polygon fill="none" stroke="black" points="1745,-412.5 1745,-433.5 1888,-433.5 1888,-412.5 1745,-412.5"/>
<text text-anchor="middle" x="1816.5" y="-419.9" font-family="Helvetica,sans-Serif" font-size="12.00">JKQTBasePlotterStyle</text>
</a>
</g>
</g>
<!-- Node4&#45;&gt;Node3 -->
<g id="edge4" class="edge">
<title>Node4&#45;&gt;Node3</title>
<path fill="none" stroke="#9a32cd" stroke-dasharray="5,2" d="M1897.99,-410.71C1925.88,-403.36 1955.92,-391.64 1979,-373 1991.7,-362.75 1986.83,-353.76 1997,-341 2013.9,-319.8 2038.08,-299.5 2053.28,-287.64"/>
<polygon fill="#9a32cd" stroke="#9a32cd" points="1897.09,-407.33 1888.22,-413.13 1898.77,-414.12 1897.09,-407.33"/>
<text text-anchor="middle" x="1942.5" y="-410.4" font-family="Helvetica,sans-Serif" font-size="12.00"> plotterStyle</text>
</g>
<!-- Node5 -->
<g id="node5" class="node">
<title>Node5</title>
<g id="a_node5"><a xlink:href="class_j_k_q_t_p_key_style.html" target="_top" xlink:title="Support Class for JKQTBasePlotter, which summarizes all properties that define the visual styling of ...">
<polygon fill="none" stroke="black" points="1423,-526.5 1423,-547.5 1527,-547.5 1527,-526.5 1423,-526.5"/>
<text text-anchor="middle" x="1475" y="-533.9" font-family="Helvetica,sans-Serif" font-size="12.00">JKQTPKeyStyle</text>
</a>
</g>
</g>
<!-- Node5&#45;&gt;Node4 -->
<g id="edge5" class="edge">
<title>Node5&#45;&gt;Node4</title>
<path fill="none" stroke="#9a32cd" stroke-dasharray="5,2" d="M1537.55,-532.14C1589.76,-526.31 1665.72,-513.73 1727,-487 1757.76,-473.58 1788.29,-448.12 1804.21,-433.69"/>
<polygon fill="#9a32cd" stroke="#9a32cd" points="1537.01,-528.68 1527.44,-533.22 1537.75,-535.64 1537.01,-528.68"/>
<text text-anchor="middle" x="1658.5" y="-527.4" font-family="Helvetica,sans-Serif" font-size="12.00"> keyStyle</text>
</g>
<!-- Node6 -->
<g id="node6" class="node">
<title>Node6</title>
<g id="a_node6"><a xlink:href="class_j_k_q_t_p_coordinate_axis_style.html" target="_top" xlink:title="Support Class for JKQTPCoordinateAxis, which summarizes all properties that define the visual styling...">
<polygon fill="none" stroke="black" points="1063,-358.5 1063,-379.5 1234,-379.5 1234,-358.5 1063,-358.5"/>
<text text-anchor="middle" x="1148.5" y="-365.9" font-family="Helvetica,sans-Serif" font-size="12.00">JKQTPCoordinateAxisStyle</text>
</a>
</g>
</g>
<!-- Node6&#45;&gt;Node1 -->
<g id="edge40" class="edge">
<title>Node6&#45;&gt;Node1</title>
<path fill="none" stroke="#9a32cd" stroke-dasharray="5,2" d="M1228.7,-356.94C1239.88,-355.26 1251.23,-353.58 1262,-352 1309.26,-345.09 1362.49,-337.55 1403.79,-331.77"/>
<polygon fill="#9a32cd" stroke="#9a32cd" points="1227.87,-353.52 1218.5,-358.47 1228.91,-360.44 1227.87,-353.52"/>
<text text-anchor="middle" x="1311" y="-355.4" font-family="Helvetica,sans-Serif" font-size="12.00"> axisStyle</text>
</g>
<!-- Node6&#45;&gt;Node4 -->
<g id="edge6" class="edge">
<title>Node6&#45;&gt;Node4</title>
<path fill="none" stroke="#9a32cd" stroke-dasharray="5,2" d="M1243.1,-380.74C1249.5,-381.51 1255.84,-382.27 1262,-383 1313.52,-389.09 1326.32,-391.51 1378,-396 1507.26,-407.22 1658.41,-415.47 1744.95,-419.73"/>
<polygon fill="#9a32cd" stroke="#9a32cd" points="1243.39,-377.25 1233.04,-379.51 1242.54,-384.19 1243.39,-377.25"/>
<text text-anchor="middle" x="1475" y="-426.4" font-family="Helvetica,sans-Serif" font-size="12.00"> xAxisStyle</text>
<text text-anchor="middle" x="1475" y="-413.4" font-family="Helvetica,sans-Serif" font-size="12.00">yAxisStyle</text>
</g>
<!-- Node8 -->
<g id="node8" class="node">
<title>Node8</title>
<g id="a_node8"><a xlink:href="class_j_k_q_t_p_colorbar_coordinate_axis_style.html" target="_top" xlink:title="Support Class for JKQTPCoordinateAxis, which summarizes all properties that define the visual styling...">
<polygon fill="none" stroke="black" points="1378,-352 1378,-386 1572,-386 1572,-352 1378,-352"/>
<text text-anchor="start" x="1386" y="-372.4" font-family="Helvetica,sans-Serif" font-size="12.00">JKQTPColorbarCoordinateAxis</text>
<text text-anchor="middle" x="1475" y="-359.4" font-family="Helvetica,sans-Serif" font-size="12.00">Style</text>
</a>
</g>
</g>
<!-- Node6&#45;&gt;Node8 -->
<g id="edge9" class="edge">
<title>Node6&#45;&gt;Node8</title>
<path fill="none" stroke="midnightblue" d="M1244.56,-369C1286.54,-369 1335.81,-369 1377.91,-369"/>
<polygon fill="midnightblue" stroke="midnightblue" points="1244.33,-365.5 1234.33,-369 1244.33,-372.5 1244.33,-365.5"/>
</g>
<!-- Node7 -->
<g id="node7" class="node">
<title>Node7</title>
<g id="a_node7"><a xlink:href="class_j_k_q_t_p_grid_style.html" target="_top" xlink:title="Support Class for JKQTPCoordinateAxis, and summarizes all properties that define the visual styling o...">
<polygon fill="none" stroke="black" points="698.5,-358.5 698.5,-379.5 805.5,-379.5 805.5,-358.5 698.5,-358.5"/>
<text text-anchor="middle" x="752" y="-365.9" font-family="Helvetica,sans-Serif" font-size="12.00">JKQTPGridStyle</text>
</a>
</g>
</g>
<!-- Node7&#45;&gt;Node6 -->
<g id="edge7" class="edge">
<title>Node7&#45;&gt;Node6</title>
<path fill="none" stroke="#9a32cd" stroke-dasharray="5,2" d="M816.18,-369C883.03,-369 988.9,-369 1062.92,-369"/>
<polygon fill="#9a32cd" stroke="#9a32cd" points="815.79,-365.5 805.79,-369 815.79,-372.5 815.79,-365.5"/>
<text text-anchor="middle" x="948.5" y="-385.4" font-family="Helvetica,sans-Serif" font-size="12.00"> majorGridStyle</text>
<text text-anchor="middle" x="948.5" y="-372.4" font-family="Helvetica,sans-Serif" font-size="12.00">minorGridStyle</text>
</g>
<!-- Node8&#45;&gt;Node4 -->
<g id="edge8" class="edge">
<title>Node8&#45;&gt;Node4</title>
<path fill="none" stroke="#9a32cd" stroke-dasharray="5,2" d="M1582.38,-366.33C1627.53,-367.4 1680.4,-371.59 1727,-383 1752.55,-389.26 1779.82,-402.74 1797.23,-412.32"/>
<polygon fill="#9a32cd" stroke="#9a32cd" points="1582.33,-362.83 1572.27,-366.14 1582.2,-369.83 1582.33,-362.83"/>
<text text-anchor="middle" x="1658.5" y="-399.4" font-family="Helvetica,sans-Serif" font-size="12.00"> rightColorbarAxisStyle</text>
<text text-anchor="middle" x="1658.5" y="-386.4" font-family="Helvetica,sans-Serif" font-size="12.00">topColorbarAxisStyle</text>
</g>
<!-- Node9 -->
<g id="node9" class="node">
<title>Node9</title>
<g id="a_node9"><a xlink:href="class_j_k_q_t_graphs_base_style.html" target="_top" xlink:title="Support Class for JKQTBasePlotter, which summarizes all properties that define the visual styling of ...">
<polygon fill="none" stroke="black" points="1402,-486.5 1402,-507.5 1548,-507.5 1548,-486.5 1402,-486.5"/>
<text text-anchor="middle" x="1475" y="-493.9" font-family="Helvetica,sans-Serif" font-size="12.00">JKQTGraphsBaseStyle</text>
</a>
</g>
</g>
<!-- Node9&#45;&gt;Node4 -->
<g id="edge10" class="edge">
<title>Node9&#45;&gt;Node4</title>
<path fill="none" stroke="#9a32cd" stroke-dasharray="5,2" d="M1534.07,-484.34C1599.8,-470.02 1705.68,-446.94 1767.11,-433.55"/>
<polygon fill="#9a32cd" stroke="#9a32cd" points="1533.31,-480.93 1524.28,-486.48 1534.8,-487.77 1533.31,-480.93"/>
<text text-anchor="middle" x="1658.5" y="-473.4" font-family="Helvetica,sans-Serif" font-size="12.00"> graphsStyle</text>
</g>
<!-- Node10 -->
<g id="node10" class="node">
<title>Node10</title>
<g id="a_node10"><a xlink:href="class_j_k_q_t_graphs_specific_style_properties.html" target="_top" xlink:title="Support Class for JKQTBasePlotter, which summarizes all properties that define the visual styling of ...">
<polygon fill="none" stroke="black" points="399,-512.5 399,-533.5 623,-533.5 623,-512.5 399,-512.5"/>
<text text-anchor="middle" x="511" y="-519.9" font-family="Helvetica,sans-Serif" font-size="12.00">JKQTGraphsSpecificStyleProperties</text>
</a>
</g>
</g>
<!-- Node10&#45;&gt;Node9 -->
<g id="edge11" class="edge">
<title>Node10&#45;&gt;Node9</title>
<path fill="none" stroke="#9a32cd" stroke-dasharray="5,2" d="M547.49,-537.25C577.11,-548.59 620.69,-564.01 660,-573 913.91,-631.09 983.73,-632.08 1244,-622 1295.67,-620 1321.52,-647.54 1360,-613 1392.31,-584 1347.61,-548 1378,-517 1384.67,-510.19 1393.02,-505.4 1401.99,-502.08"/>
<polygon fill="#9a32cd" stroke="#9a32cd" points="548.6,-533.92 538.01,-533.57 546.07,-540.45 548.6,-533.92"/>
<text text-anchor="middle" x="948.5" y="-655.4" font-family="Helvetica,sans-Serif" font-size="12.00"> boxplotStyle</text>
<text text-anchor="middle" x="948.5" y="-642.4" font-family="Helvetica,sans-Serif" font-size="12.00">defaultGraphStyle</text>
<text text-anchor="middle" x="948.5" y="-629.4" font-family="Helvetica,sans-Serif" font-size="12.00">filledStyle</text>
</g>
<!-- Node12 -->
<g id="node12" class="node">
<title>Node12</title>
<g id="a_node12"><a xlink:href="class_j_k_q_t_barchart_specific_style_properties.html" target="_top" xlink:title="Support Class for JKQTBasePlotter, which summarizes all properties that define the visual styling of ...">
<polygon fill="none" stroke="black" points="862,-481 862,-515 1035,-515 1035,-481 862,-481"/>
<text text-anchor="start" x="870" y="-501.4" font-family="Helvetica,sans-Serif" font-size="12.00">JKQTBarchartSpecificStyle</text>
<text text-anchor="middle" x="948.5" y="-488.4" font-family="Helvetica,sans-Serif" font-size="12.00">Properties</text>
</a>
</g>
</g>
<!-- Node10&#45;&gt;Node12 -->
<g id="edge14" class="edge">
<title>Node10&#45;&gt;Node12</title>
<path fill="none" stroke="midnightblue" d="M633.15,-516.05C705.82,-511.87 796.5,-506.67 861.76,-502.92"/>
<polygon fill="midnightblue" stroke="midnightblue" points="632.8,-512.56 623.02,-516.63 633.21,-519.55 632.8,-512.56"/>
</g>
<!-- Node13 -->
<g id="node13" class="node">
<title>Node13</title>
<g id="a_node13"><a xlink:href="class_j_k_q_t_impulse_specific_style_properties.html" target="_top" xlink:title="Support Class for JKQTBasePlotter, which summarizes all properties that define the visual styling of ...">
<polygon fill="none" stroke="black" points="864.5,-436 864.5,-470 1032.5,-470 1032.5,-436 864.5,-436"/>
<text text-anchor="start" x="872.5" y="-456.4" font-family="Helvetica,sans-Serif" font-size="12.00">JKQTImpulseSpecificStyle</text>
<text text-anchor="middle" x="948.5" y="-443.4" font-family="Helvetica,sans-Serif" font-size="12.00">Properties</text>
</a>
</g>
</g>
<!-- Node10&#45;&gt;Node13 -->
<g id="edge16" class="edge">
<title>Node10&#45;&gt;Node13</title>
<path fill="none" stroke="midnightblue" d="M586.72,-510.85C610.17,-507.05 636.16,-502.84 660,-499 728.87,-487.91 807.03,-475.41 864.46,-466.24"/>
<polygon fill="midnightblue" stroke="midnightblue" points="586.14,-507.4 576.83,-512.46 587.26,-514.31 586.14,-507.4"/>
</g>
<!-- Node14 -->
<g id="node14" class="node">
<title>Node14</title>
<g id="a_node14"><a xlink:href="class_j_k_q_t_geometric_specific_style_properties.html" target="_top" xlink:title="Support Class for JKQTBasePlotter, which summarizes all properties that define the visual styling of ...">
<polygon fill="none" stroke="black" points="660,-529 660,-563 844,-563 844,-529 660,-529"/>
<text text-anchor="start" x="668" y="-549.4" font-family="Helvetica,sans-Serif" font-size="12.00">JKQTGeometricSpecificStyle</text>
<text text-anchor="middle" x="752" y="-536.4" font-family="Helvetica,sans-Serif" font-size="12.00">Properties</text>
</a>
</g>
</g>
<!-- Node10&#45;&gt;Node14 -->
<g id="edge18" class="edge">
<title>Node10&#45;&gt;Node14</title>
<path fill="none" stroke="midnightblue" d="M631.36,-534.49C640.97,-535.41 650.58,-536.34 659.94,-537.24"/>
<polygon fill="midnightblue" stroke="midnightblue" points="631.65,-531 621.36,-533.52 630.98,-537.97 631.65,-531"/>
</g>
<!-- Node11 -->
<g id="node11" class="node">
<title>Node11</title>
<g id="a_node11"><a xlink:href="struct_j_k_q_t_p_color_derivation_mode.html" target="_top" xlink:title="Specifies how a fill&#45;color is derived from a given color.">
<polygon fill="none" stroke="black" points="0,-512.5 0,-533.5 179,-533.5 179,-512.5 0,-512.5"/>
<text text-anchor="middle" x="89.5" y="-519.9" font-family="Helvetica,sans-Serif" font-size="12.00">JKQTPColorDerivationMode</text>
</a>
</g>
</g>
<!-- Node11&#45;&gt;Node10 -->
<g id="edge12" class="edge">
<title>Node11&#45;&gt;Node10</title>
<path fill="none" stroke="#9a32cd" stroke-dasharray="5,2" d="M189.53,-523C252.41,-523 333.9,-523 398.97,-523"/>
<polygon fill="#9a32cd" stroke="#9a32cd" points="189.21,-519.5 179.21,-523 189.21,-526.5 189.21,-519.5"/>
<text text-anchor="middle" x="289" y="-578.4" font-family="Helvetica,sans-Serif" font-size="12.00"> errorColorDerivationMode</text>
<text text-anchor="middle" x="289" y="-565.4" font-family="Helvetica,sans-Serif" font-size="12.00">errorFillColorDerivationMode</text>
<text text-anchor="middle" x="289" y="-552.4" font-family="Helvetica,sans-Serif" font-size="12.00">fillColorDerivationMode</text>
<text text-anchor="middle" x="289" y="-539.4" font-family="Helvetica,sans-Serif" font-size="12.00">graphColorDerivationMode</text>
<text text-anchor="middle" x="289" y="-526.4" font-family="Helvetica,sans-Serif" font-size="12.00">symbolFillColorDerivationMode</text>
</g>
<!-- Node12&#45;&gt;Node9 -->
<g id="edge13" class="edge">
<title>Node12&#45;&gt;Node9</title>
<path fill="none" stroke="#9a32cd" stroke-dasharray="5,2" d="M1045.3,-497.82C1148.12,-497.62 1309.12,-497.31 1401.78,-497.14"/>
<polygon fill="#9a32cd" stroke="#9a32cd" points="1045.22,-494.32 1035.23,-497.84 1045.24,-501.32 1045.22,-494.32"/>
<text text-anchor="middle" x="1148.5" y="-500.4" font-family="Helvetica,sans-Serif" font-size="12.00"> barchartStyle</text>
</g>
<!-- Node13&#45;&gt;Node9 -->
<g id="edge15" class="edge">
<title>Node13&#45;&gt;Node9</title>
<path fill="none" stroke="#9a32cd" stroke-dasharray="5,2" d="M1042.66,-460.82C1145.36,-469.43 1308.38,-483.11 1401.83,-490.95"/>
<polygon fill="#9a32cd" stroke="#9a32cd" points="1042.87,-457.32 1032.61,-459.97 1042.28,-464.3 1042.87,-457.32"/>
<text text-anchor="middle" x="1148.5" y="-479.4" font-family="Helvetica,sans-Serif" font-size="12.00"> impulseStyle</text>
</g>
<!-- Node14&#45;&gt;Node9 -->
<g id="edge17" class="edge">
<title>Node14&#45;&gt;Node9</title>
<path fill="none" stroke="#9a32cd" stroke-dasharray="5,2" d="M854.47,-542.15C975.12,-537.12 1182.51,-527 1360,-511 1373.5,-509.78 1387.88,-508.22 1401.71,-506.59"/>
<polygon fill="#9a32cd" stroke="#9a32cd" points="853.99,-538.67 844.15,-542.58 854.28,-545.67 853.99,-538.67"/>
<text text-anchor="middle" x="1148.5" y="-535.4" font-family="Helvetica,sans-Serif" font-size="12.00"> geometricStyle</text>
</g>
<!-- Node15 -->
<g id="node15" class="node">
<title>Node15</title>
<g id="a_node15"><a xlink:href="class_j_k_q_t_annotations_specific_style_properties.html" target="_top" xlink:title="Support Class for JKQTBasePlotter, which summarizes all properties that define the visual styling of ...">
<polygon fill="none" stroke="black" points="1053,-578 1053,-612 1244,-612 1244,-578 1053,-578"/>
<text text-anchor="start" x="1061" y="-598.4" font-family="Helvetica,sans-Serif" font-size="12.00">JKQTAnnotationsSpecificStyle</text>
<text text-anchor="middle" x="1148.5" y="-585.4" font-family="Helvetica,sans-Serif" font-size="12.00">Properties</text>
</a>
</g>
</g>
<!-- Node14&#45;&gt;Node15 -->
<g id="edge20" class="edge">
<title>Node14&#45;&gt;Node15</title>
<path fill="none" stroke="midnightblue" d="M854.33,-559.04C856.92,-559.36 859.47,-559.68 862,-560 925.67,-567.99 997.35,-576.78 1052.97,-583.55"/>
<polygon fill="midnightblue" stroke="midnightblue" points="854.65,-555.55 844.29,-557.76 853.77,-562.49 854.65,-555.55"/>
</g>
<!-- Node15&#45;&gt;Node9 -->
<g id="edge19" class="edge">
<title>Node15&#45;&gt;Node9</title>
<path fill="none" stroke="#9a32cd" stroke-dasharray="5,2" d="M1254.3,-597.69C1291,-593.76 1330.39,-583.43 1360,-560 1376.24,-547.14 1362.02,-530.19 1378,-517 1384.96,-511.26 1393.15,-507.04 1401.77,-503.95"/>
<polygon fill="#9a32cd" stroke="#9a32cd" points="1253.67,-594.24 1244.03,-598.64 1254.31,-601.21 1253.67,-594.24"/>
<text text-anchor="middle" x="1311" y="-599.4" font-family="Helvetica,sans-Serif" font-size="12.00"> annotationStyle</text>
</g>
<!-- Node16&#45;&gt;Node3 -->
<g id="edge21" class="edge">
<title>Node16&#45;&gt;Node3</title>
<path fill="none" stroke="#9a32cd" stroke-dasharray="5,2" d="M1534.93,-184.02C1649.62,-186.64 1898.62,-195.5 1979,-224 2007.53,-234.11 2036.96,-253.97 2053.67,-266.3"/>
<polygon fill="#9a32cd" stroke="#9a32cd" points="1534.67,-180.52 1524.59,-183.8 1534.51,-187.52 1534.67,-180.52"/>
<text text-anchor="middle" x="1816.5" y="-208.4" font-family="Helvetica,sans-Serif" font-size="12.00"> mathText</text>
</g>
<!-- Node17 -->
<g id="node17" class="node">
<title>Node17</title>
<g id="a_node17"><a xlink:href="class_j_k_q_t_math_text_node.html" target="_top" xlink:title="subclass representing one node in the syntax tree">
<polygon fill="none" stroke="black" points="1751,-108.5 1751,-129.5 1882,-129.5 1882,-108.5 1751,-108.5"/>
<text text-anchor="middle" x="1816.5" y="-115.9" font-family="Helvetica,sans-Serif" font-size="12.00">JKQTMathTextNode</text>
</a>
</g>
</g>
<!-- Node16&#45;&gt;Node17 -->
<g id="edge24" class="edge">
<title>Node16&#45;&gt;Node17</title>
<path fill="none" stroke="#9a32cd" stroke-dasharray="5,2" d="M1498.94,-166.78C1521.06,-152.17 1556.11,-131.69 1590,-123 1642.91,-109.43 1705.12,-109.46 1750.78,-112.3"/>
<polygon fill="#9a32cd" stroke="#9a32cd" points="1496.89,-163.94 1490.56,-172.44 1500.81,-169.74 1496.89,-163.94"/>
<text text-anchor="middle" x="1658.5" y="-126.4" font-family="Helvetica,sans-Serif" font-size="12.00"> parentMathText</text>
</g>
<!-- Node17&#45;&gt;Node16 -->
<g id="edge23" class="edge">
<title>Node17&#45;&gt;Node16</title>
<path fill="none" stroke="#9a32cd" stroke-dasharray="5,2" d="M1763.47,-131.93C1751.52,-134.73 1738.85,-137.58 1727,-140 1657.04,-154.28 1575.46,-167.65 1524.76,-175.58"/>
<polygon fill="#9a32cd" stroke="#9a32cd" points="1764.39,-135.31 1773.31,-129.59 1762.77,-128.5 1764.39,-135.31"/>
<text text-anchor="middle" x="1658.5" y="-167.4" font-family="Helvetica,sans-Serif" font-size="12.00"> parsedNode</text>
</g>
<!-- Node17&#45;&gt;Node17 -->
<g id="edge25" class="edge">
<title>Node17&#45;&gt;Node17</title>
<path fill="none" stroke="#9a32cd" stroke-dasharray="5,2" d="M1793.28,-139.43C1795.07,-144.35 1802.81,-148 1816.5,-148 1838.4,-148 1845.08,-138.65 1836.52,-129.71"/>
<polygon fill="#9a32cd" stroke="#9a32cd" points="1796.68,-140.3 1796.48,-129.71 1790.03,-138.11 1796.68,-140.3"/>
<text text-anchor="middle" x="1816.5" y="-151.4" font-family="Helvetica,sans-Serif" font-size="12.00"> parentNode</text>
</g>
<!-- Node18&#45;&gt;Node3 -->
<g id="edge26" class="edge">
<title>Node18&#45;&gt;Node3</title>
<path fill="none" stroke="#9a32cd" stroke-dasharray="5,2" d="M2356.73,-299.19C2332.45,-291.28 2300.31,-282.12 2271,-278 2222.33,-271.17 2166.39,-271.53 2125.82,-273.25"/>
<polygon fill="#9a32cd" stroke="#9a32cd" points="2355.7,-302.54 2366.29,-302.38 2357.91,-295.89 2355.7,-302.54"/>
<text text-anchor="middle" x="2214.5" y="-281.4" font-family="Helvetica,sans-Serif" font-size="12.00"> m_plotsModel</text>
</g>
<!-- Node19 -->
<g id="node19" class="node">
<title>Node19</title>
<g id="a_node19"><a xlink:title=" ">
<polygon fill="none" stroke="black" points="1997,-350.5 1997,-371.5 2140,-371.5 2140,-350.5 1997,-350.5"/>
<text text-anchor="middle" x="2068.5" y="-357.9" font-family="Helvetica,sans-Serif" font-size="12.00">QAbstractTableModel</text>
</a>
</g>
</g>
<!-- Node19&#45;&gt;Node18 -->
<g id="edge27" class="edge">
<title>Node19&#45;&gt;Node18</title>
<path fill="none" stroke="midnightblue" d="M2150.43,-349.08C2206.15,-340.88 2279.18,-330.13 2330.99,-322.5"/>
<polygon fill="midnightblue" stroke="midnightblue" points="2149.62,-345.67 2140.24,-350.58 2150.64,-352.59 2149.62,-345.67"/>
</g>
<!-- Node20&#45;&gt;Node3 -->
<g id="edge29" class="edge">
<title>Node20&#45;&gt;Node3</title>
<path fill="none" stroke="#9a32cd" stroke-dasharray="5,2" d="M1895.53,-277C1933,-277 1977.06,-277 2011.2,-277"/>
<polygon fill="#9a32cd" stroke="#9a32cd" points="1895.15,-273.5 1885.15,-277 1895.15,-280.5 1895.15,-273.5"/>
<text text-anchor="middle" x="1942.5" y="-280.4" font-family="Helvetica,sans-Serif" font-size="12.00"> xAxis</text>
</g>
<!-- Node21&#45;&gt;Node3 -->
<g id="edge31" class="edge">
<title>Node21&#45;&gt;Node3</title>
<path fill="none" stroke="#9a32cd" stroke-dasharray="5,2" d="M1887.59,-360.52C1916.66,-356.56 1950.25,-349.74 1979,-338 2009.41,-325.59 2039.83,-301.41 2055.88,-287.51"/>
<polygon fill="#9a32cd" stroke="#9a32cd" points="1886.98,-357.06 1877.5,-361.8 1887.87,-364.01 1886.98,-357.06"/>
<text text-anchor="middle" x="1942.5" y="-359.4" font-family="Helvetica,sans-Serif" font-size="12.00"> yAxis</text>
</g>
<!-- Node22 -->
<g id="node22" class="node">
<title>Node22</title>
<g id="a_node22"><a xlink:href="class_j_k_q_t_p_datastore.html" target="_top" xlink:title="This class manages data columns (with entries of type double ), used by JKQTPlotter/JKQTBasePlotter t...">
<polygon fill="none" stroke="black" points="1761,-68.5 1761,-89.5 1872,-89.5 1872,-68.5 1761,-68.5"/>
<text text-anchor="middle" x="1816.5" y="-75.9" font-family="Helvetica,sans-Serif" font-size="12.00">JKQTPDatastore</text>
</a>
</g>
</g>
<!-- Node22&#45;&gt;Node3 -->
<g id="edge33" class="edge">
<title>Node22&#45;&gt;Node3</title>
<path fill="none" stroke="#9a32cd" stroke-dasharray="5,2" d="M1873.83,-92.82C1878.71,-94.67 1883.51,-96.72 1888,-99 1970.58,-140.9 2038.97,-234.65 2060.47,-266.32"/>
<polygon fill="#9a32cd" stroke="#9a32cd" points="1874.95,-89.51 1864.36,-89.54 1872.66,-96.12 1874.95,-89.51"/>
<text text-anchor="middle" x="1942.5" y="-167.4" font-family="Helvetica,sans-Serif" font-size="12.00"> datastore</text>
</g>
<!-- Node24 -->
<g id="node24" class="node">
<title>Node24</title>
<g id="a_node24"><a xlink:href="class_j_k_q_t_p_column.html" target="_top" xlink:title="internally stores information about one data column. See JKQTPDatastore for more information.">
<polygon fill="none" stroke="black" points="2019.5,-89.5 2019.5,-110.5 2117.5,-110.5 2117.5,-89.5 2019.5,-89.5"/>
<text text-anchor="middle" x="2068.5" y="-96.9" font-family="Helvetica,sans-Serif" font-size="12.00">JKQTPColumn</text>
</a>
</g>
</g>
<!-- Node22&#45;&gt;Node24 -->
<g id="edge36" class="edge">
<title>Node22&#45;&gt;Node24</title>
<path fill="none" stroke="#9a32cd" stroke-dasharray="5,2" d="M1882.11,-84.43C1925,-88.03 1980.37,-92.68 2019.39,-95.96"/>
<polygon fill="#9a32cd" stroke="#9a32cd" points="1882.31,-80.93 1872.05,-83.58 1881.73,-87.91 1882.31,-80.93"/>
<text text-anchor="middle" x="1942.5" y="-94.4" font-family="Helvetica,sans-Serif" font-size="12.00"> datastore</text>
</g>
<!-- Node23 -->
<g id="node23" class="node">
<title>Node23</title>
<g id="a_node23"><a xlink:title=" ">
<polygon fill="none" stroke="black" points="2289,-47.5 2289,-68.5 2504,-68.5 2504,-47.5 2289,-47.5"/>
<text text-anchor="middle" x="2396.5" y="-54.9" font-family="Helvetica,sans-Serif" font-size="12.00">std::unique_ptr&lt; JKQTPColumn &gt;</text>
</a>
</g>
</g>
<!-- Node23&#45;&gt;Node22 -->
<g id="edge34" class="edge">
<title>Node23&#45;&gt;Node22</title>
<path fill="none" stroke="#9a32cd" stroke-dasharray="5,2" d="M2278.86,-59.28C2199.39,-60.48 2091.8,-62.76 1997,-67 1955.03,-68.88 1907.62,-72.09 1872.06,-74.72"/>
<polygon fill="#9a32cd" stroke="#9a32cd" points="2278.95,-62.78 2288.9,-59.13 2278.85,-55.78 2278.95,-62.78"/>
<text text-anchor="middle" x="2068.5" y="-70.4" font-family="Helvetica,sans-Serif" font-size="12.00"> m_invalidColumn</text>
</g>
<!-- Node24&#45;&gt;Node23 -->
<g id="edge35" class="edge">
<title>Node24&#45;&gt;Node23</title>
<path fill="none" stroke="#9a32cd" stroke-dasharray="5,2" d="M2127.64,-92.51C2179.51,-85.83 2256.02,-75.97 2314,-68.5"/>
<polygon fill="#9a32cd" stroke="#9a32cd" points="2127.07,-89.05 2117.6,-93.8 2127.97,-96 2127.07,-89.05"/>
<text text-anchor="middle" x="2214.5" y="-90.4" font-family="Helvetica,sans-Serif" font-size="12.00"> ptr</text>
</g>
<!-- Node25 -->
<g id="node25" class="node">
<title>Node25</title>
<g id="a_node25"><a xlink:title=" ">
<polygon fill="none" stroke="black" points="1998.5,-0.5 1998.5,-21.5 2138.5,-21.5 2138.5,-0.5 1998.5,-0.5"/>
<text text-anchor="middle" x="2068.5" y="-7.9" font-family="Helvetica,sans-Serif" font-size="12.00">std::unique_ptr&lt; T &gt;</text>
</a>
</g>
</g>
<!-- Node25&#45;&gt;Node23 -->
<g id="edge37" class="edge">
<title>Node25&#45;&gt;Node23</title>
<path fill="none" stroke="orange" stroke-dasharray="5,2" d="M2149.04,-16.78C2186.21,-20.02 2231.01,-24.7 2271,-31 2298.42,-35.32 2328.88,-41.89 2352.8,-47.47"/>
<polygon fill="orange" stroke="orange" points="2149.02,-13.26 2138.76,-15.9 2148.43,-20.24 2149.02,-13.26"/>
<text text-anchor="middle" x="2214.5" y="-34.4" font-family="Helvetica,sans-Serif" font-size="12.00"> &lt; JKQTPColumn &gt;</text>
</g>
<!-- Node26 -->
<g id="node26" class="node">
<title>Node26</title>
<g id="a_node26"><a xlink:title=" ">
<polygon fill="none" stroke="black" points="1802,-0.5 1802,-21.5 1831,-21.5 1831,-0.5 1802,-0.5"/>
<text text-anchor="middle" x="1816.5" y="-7.9" font-family="Helvetica,sans-Serif" font-size="12.00">T</text>
</a>
</g>
</g>
<!-- Node26&#45;&gt;Node25 -->
<g id="edge38" class="edge">
<title>Node26&#45;&gt;Node25</title>
<path fill="none" stroke="#9a32cd" stroke-dasharray="5,2" d="M1841.73,-11C1877.62,-11 1946.27,-11 1998.49,-11"/>
<polygon fill="#9a32cd" stroke="#9a32cd" points="1841.3,-7.5 1831.3,-11 1841.3,-14.5 1841.3,-7.5"/>
<text text-anchor="middle" x="1942.5" y="-14.4" font-family="Helvetica,sans-Serif" font-size="12.00"> ptr</text>
</g>
</g>
</svg>
