<?xml version="1.0" encoding="UTF-8" standalone="no"?>
<!DOCTYPE svg PUBLIC "-//W3C//DTD SVG 1.1//EN"
 "http://www.w3.org/Graphics/SVG/1.1/DTD/svg11.dtd">
<!-- Generated by graphviz version 2.43.0 (0)
 -->
<!-- Title: JKQTPYGraphErrorData Pages: 1 -->
<svg width="566pt" height="252pt"
 viewBox="0.00 0.00 566.00 251.50" xmlns="http://www.w3.org/2000/svg" xmlns:xlink="http://www.w3.org/1999/xlink">
<g id="graph0" class="graph" transform="scale(1 1) rotate(0) translate(4 247.5)">
<title>JKQTPYGraphErrorData</title>
<!-- Node1 -->
<g id="node1" class="node">
<title>Node1</title>
<g id="a_node1"><a xlink:title="This class adds data fields for error indicators in y direction.">
<polygon fill="#999999" stroke="#666666" points="154,-121.5 0,-121.5 0,-100.5 154,-100.5 154,-121.5"/>
<text text-anchor="middle" x="77" y="-107.9" font-family="Helvetica,sans-Serif" font-size="12.00">JKQTPYGraphErrorData</text>
</a>
</g>
</g>
<!-- Node2 -->
<g id="node2" class="node">
<title>Node2</title>
<g id="a_node2"><a xlink:href="class_j_k_q_t_p_x_y_graph_errors.html" target="_top" xlink:title="This class is the base class for graphs that only display error indicators in x&#45; and y&#45;direction.">
<polygon fill="white" stroke="#666666" points="330,-160.5 190,-160.5 190,-139.5 330,-139.5 330,-160.5"/>
<text text-anchor="middle" x="260" y="-146.9" font-family="Helvetica,sans-Serif" font-size="12.00">JKQTPXYGraphErrors</text>
</a>
</g>
</g>
<!-- Node1&#45;&gt;Node2 -->
<g id="edge1" class="edge">
<title>Node1&#45;&gt;Node2</title>
<path fill="none" stroke="#63b8ff" d="M136.89,-123.69C160.52,-128.78 187.44,-134.58 209.98,-139.44"/>
<polygon fill="#63b8ff" stroke="#63b8ff" points="137.49,-120.24 126.98,-121.55 136.02,-127.08 137.49,-120.24"/>
</g>
<!-- Node6 -->
<g id="node6" class="node">
<title>Node6</title>
<g id="a_node6"><a xlink:href="class_j_k_q_t_p_y_graph_errors.html" target="_top" xlink:title="This class is the base class for graphs that only display error indicators in y&#45;direction.">
<polygon fill="white" stroke="#666666" points="325.5,-102.5 194.5,-102.5 194.5,-81.5 325.5,-81.5 325.5,-102.5"/>
<text text-anchor="middle" x="260" y="-88.9" font-family="Helvetica,sans-Serif" font-size="12.00">JKQTPYGraphErrors</text>
</a>
</g>
</g>
<!-- Node1&#45;&gt;Node6 -->
<g id="edge5" class="edge">
<title>Node1&#45;&gt;Node6</title>
<path fill="none" stroke="#63b8ff" d="M164.3,-101.94C174.4,-100.88 184.57,-99.81 194.31,-98.79"/>
<polygon fill="#63b8ff" stroke="#63b8ff" points="163.82,-98.47 154.24,-103 164.55,-105.43 163.82,-98.47"/>
</g>
<!-- Node3 -->
<g id="node3" class="node">
<title>Node3</title>
<g id="a_node3"><a xlink:href="class_j_k_q_t_p_x_y_line_error_graph.html" target="_top" xlink:title="This implements xy line plots with x and y error indicators.">
<polygon fill="white" stroke="#666666" points="541.5,-243.5 382.5,-243.5 382.5,-222.5 541.5,-222.5 541.5,-243.5"/>
<text text-anchor="middle" x="462" y="-229.9" font-family="Helvetica,sans-Serif" font-size="12.00">JKQTPXYLineErrorGraph</text>
</a>
</g>
</g>
<!-- Node2&#45;&gt;Node3 -->
<g id="edge2" class="edge">
<title>Node2&#45;&gt;Node3</title>
<path fill="none" stroke="#63b8ff" d="M283.48,-166.53C304,-180.85 335.66,-201.09 366,-213 375.65,-216.79 386.14,-219.91 396.52,-222.47"/>
<polygon fill="#63b8ff" stroke="#63b8ff" points="285.33,-163.55 275.15,-160.61 281.27,-169.25 285.33,-163.55"/>
</g>
<!-- Node4 -->
<g id="node4" class="node">
<title>Node4</title>
<g id="a_node4"><a xlink:href="class_j_k_q_t_p_x_y_parametrized_error_scatter_graph.html" target="_top" xlink:title="This implements xy scatter plots (like JKQTPXYScatterGraph), but the color and size of the symbols ma...">
<polygon fill="white" stroke="#666666" points="551,-204 373,-204 373,-170 551,-170 551,-204"/>
<text text-anchor="start" x="381" y="-190.4" font-family="Helvetica,sans-Serif" font-size="12.00">JKQTPXYParametrizedError</text>
<text text-anchor="middle" x="462" y="-177.4" font-family="Helvetica,sans-Serif" font-size="12.00">ScatterGraph</text>
</a>
</g>
</g>
<!-- Node2&#45;&gt;Node4 -->
<g id="edge3" class="edge">
<title>Node2&#45;&gt;Node4</title>
<path fill="none" stroke="#63b8ff" d="M328.01,-162.4C342.34,-165.05 357.69,-167.89 372.68,-170.66"/>
<polygon fill="#63b8ff" stroke="#63b8ff" points="328.25,-158.88 317.78,-160.5 326.97,-165.76 328.25,-158.88"/>
</g>
<!-- Node5 -->
<g id="node5" class="node">
<title>Node5</title>
<g id="a_node5"><a xlink:href="class_j_k_q_t_p_x_y_scatter_error_graph.html" target="_top" xlink:title="This implements xy scatter plots with x and y error indicators.">
<polygon fill="white" stroke="#666666" points="551,-151.5 373,-151.5 373,-130.5 551,-130.5 551,-151.5"/>
<text text-anchor="middle" x="462" y="-137.9" font-family="Helvetica,sans-Serif" font-size="12.00">JKQTPXYScatterErrorGraph</text>
</a>
</g>
</g>
<!-- Node2&#45;&gt;Node5 -->
<g id="edge4" class="edge">
<title>Node2&#45;&gt;Node5</title>
<path fill="none" stroke="#63b8ff" d="M340.25,-146.43C350.96,-145.95 361.99,-145.46 372.84,-144.97"/>
<polygon fill="#63b8ff" stroke="#63b8ff" points="339.94,-142.94 330.11,-146.89 340.26,-149.94 339.94,-142.94"/>
</g>
<!-- Node7 -->
<g id="node7" class="node">
<title>Node7</title>
<g id="a_node7"><a xlink:href="class_j_k_q_t_p_bar_vertical_error_graph.html" target="_top" xlink:title="This implements a vertical bar graph with bars between &#160;and &#160;and error indicator.">
<polygon fill="white" stroke="#666666" points="554.5,-112.5 369.5,-112.5 369.5,-91.5 554.5,-91.5 554.5,-112.5"/>
<text text-anchor="middle" x="462" y="-98.9" font-family="Helvetica,sans-Serif" font-size="12.00">JKQTPBarVerticalErrorGraph</text>
</a>
</g>
</g>
<!-- Node6&#45;&gt;Node7 -->
<g id="edge6" class="edge">
<title>Node6&#45;&gt;Node7</title>
<path fill="none" stroke="#63b8ff" d="M335.94,-95.75C346.82,-96.29 358.12,-96.86 369.29,-97.41"/>
<polygon fill="#63b8ff" stroke="#63b8ff" points="335.82,-92.24 325.66,-95.23 335.47,-99.23 335.82,-92.24"/>
</g>
<!-- Node8 -->
<g id="node8" class="node">
<title>Node8</title>
<g id="a_node8"><a xlink:href="class_j_k_q_t_p_filled_curve_x_error_graph.html" target="_top" xlink:title="This implements filled curve plots with y errors where the area is filled between the plot line and t...">
<polygon fill="white" stroke="#666666" points="558,-73.5 366,-73.5 366,-52.5 558,-52.5 558,-73.5"/>
<text text-anchor="middle" x="462" y="-59.9" font-family="Helvetica,sans-Serif" font-size="12.00">JKQTPFilledCurveXErrorGraph</text>
</a>
</g>
</g>
<!-- Node6&#45;&gt;Node8 -->
<g id="edge7" class="edge">
<title>Node6&#45;&gt;Node8</title>
<path fill="none" stroke="#63b8ff" d="M335.65,-81.18C352.85,-78.68 371.12,-76.03 388.24,-73.55"/>
<polygon fill="#63b8ff" stroke="#63b8ff" points="335.05,-77.73 325.66,-82.62 336.06,-84.65 335.05,-77.73"/>
</g>
<!-- Node9 -->
<g id="node9" class="node">
<title>Node9</title>
<g id="a_node9"><a xlink:href="class_j_k_q_t_p_impulses_vertical_error_graph.html" target="_top" xlink:title="This implements an impulse plot with impulses in direction of the X axis (i.e. from x=0 to x=f(y) )">
<polygon fill="white" stroke="#666666" points="552,-34 372,-34 372,0 552,0 552,-34"/>
<text text-anchor="start" x="380" y="-20.4" font-family="Helvetica,sans-Serif" font-size="12.00">JKQTPImpulsesVerticalError</text>
<text text-anchor="middle" x="462" y="-7.4" font-family="Helvetica,sans-Serif" font-size="12.00">Graph</text>
</a>
</g>
</g>
<!-- Node6&#45;&gt;Node9 -->
<g id="edge8" class="edge">
<title>Node6&#45;&gt;Node9</title>
<path fill="none" stroke="#63b8ff" d="M290.76,-76.93C311.51,-66.78 340.02,-53.57 366,-44 375.57,-40.47 385.83,-37.13 395.93,-34.07"/>
<polygon fill="#63b8ff" stroke="#63b8ff" points="288.94,-73.92 281.53,-81.49 292.04,-80.2 288.94,-73.92"/>
</g>
</g>
</svg>
