<?xml version="1.0" encoding="UTF-8" standalone="no"?>
<!DOCTYPE svg PUBLIC "-//W3C//DTD SVG 1.1//EN"
 "http://www.w3.org/Graphics/SVG/1.1/DTD/svg11.dtd">
<!-- Generated by graphviz version 2.43.0 (0)
 -->
<!-- Title: JKQTPMathImageBase Pages: 1 -->
<!--zoomable 436 -->
<svg id="main" version="1.1" xmlns="http://www.w3.org/2000/svg" xmlns:xlink="http://www.w3.org/1999/xlink" xml:space="preserve" onload="init(evt)">
<style type="text/css"><![CDATA[
.edge:hover path { stroke: red; }
.edge:hover polygon { stroke: red; fill: red; }
]]></style>
<script type="text/javascript"><![CDATA[
var edges = document.getElementsByTagName('g');
if (edges && edges.length) {
  for (var i=0;i<edges.length;i++) {
    if (edges[i].id.substr(0,4)=='edge') {
      edges[i].setAttribute('class','edge');
    }
  }
}
]]></script>
        <defs>
                <circle id="rim" cx="0" cy="0" r="7"/>
                <circle id="rim2" cx="0" cy="0" r="3.5"/>
                <g id="zoomPlus">
                        <use xlink:href="#rim" fill="#404040">
                                <set attributeName="fill" to="#808080" begin="zoomplus.mouseover" end="zoomplus.mouseout"/>
                        </use>
                        <path d="M-4,0h8M0,-4v8" fill="none" stroke="white" stroke-width="1.5" pointer-events="none"/>
                </g>
                <g id="zoomMin">
                        <use xlink:href="#rim" fill="#404040">
                                <set attributeName="fill" to="#808080" begin="zoomminus.mouseover" end="zoomminus.mouseout"/>
                        </use>
                        <path d="M-4,0h8" fill="none" stroke="white" stroke-width="1.5" pointer-events="none"/>
                </g>
                <g id="dirArrow">
                        <path fill="none" stroke="white" stroke-width="1.5" d="M0,-3.0v7 M-2.5,-0.5L0,-3.0L2.5,-0.5"/>
                </g>
               <g id="resetDef">
                       <use xlink:href="#rim2" fill="#404040">
                               <set attributeName="fill" to="#808080" begin="reset.mouseover" end="reset.mouseout"/>
                       </use>
               </g>
        </defs>

<script type="text/javascript">
var viewWidth = 527;
var viewHeight = 436;
var sectionId = 'dynsection-0';
</script>
<script xlink:href="svgpan.js"/>
<svg id="graph" class="graph">
<g id="viewport">
<title>JKQTPMathImageBase</title>
<!-- Node1 -->
<g id="node1" class="node">
<title>Node1</title>
<g id="a_node1"><a xlink:title="base class to hold an image from an 2&#45;dimensional array of values">
<polygon fill="#bfbfbf" stroke="black" points="247.5,-174.5 247.5,-195.5 397.5,-195.5 397.5,-174.5 247.5,-174.5"/>
<text text-anchor="middle" x="322.5" y="-181.9" font-family="Helvetica,sans-Serif" font-size="12.00">JKQTPMathImageBase</text>
</a>
</g>
</g>
<!-- Node6 -->
<g id="node6" class="node">
<title>Node6</title>
<g id="a_node6"><a xlink:href="class_j_k_q_t_p_math_image.html" target="_top" xlink:title="class to plot an image from an 2&#45;dimensional array of values">
<polygon fill="none" stroke="black" points="186,-116.5 186,-137.5 307,-137.5 307,-116.5 186,-116.5"/>
<text text-anchor="middle" x="246.5" y="-123.9" font-family="Helvetica,sans-Serif" font-size="12.00">JKQTPMathImage</text>
</a>
</g>
</g>
<!-- Node1&#45;&gt;Node6 -->
<g id="edge5" class="edge">
<title>Node1&#45;&gt;Node6</title>
<path fill="none" stroke="midnightblue" d="M301.07,-168.21C287.72,-158.37 270.98,-146.04 259.59,-137.64"/>
<polygon fill="midnightblue" stroke="midnightblue" points="299.14,-171.13 309.26,-174.25 303.29,-165.5 299.14,-171.13"/>
</g>
<!-- Node10 -->
<g id="node10" class="node">
<title>Node10</title>
<g id="a_node10"><a xlink:href="class_j_k_q_t_p_r_g_b_math_image.html" target="_top" xlink:title="class to plot an image from an 2&#45;dimensional array of RGB values">
<polygon fill="none" stroke="black" points="337.5,-116.5 337.5,-137.5 483.5,-137.5 483.5,-116.5 337.5,-116.5"/>
<text text-anchor="middle" x="410.5" y="-123.9" font-family="Helvetica,sans-Serif" font-size="12.00">JKQTPRGBMathImage</text>
</a>
</g>
</g>
<!-- Node1&#45;&gt;Node10 -->
<g id="edge9" class="edge">
<title>Node1&#45;&gt;Node10</title>
<path fill="none" stroke="midnightblue" d="M346.43,-168.77C362.03,-158.85 381.9,-146.2 395.35,-137.64"/>
<polygon fill="midnightblue" stroke="midnightblue" points="344.39,-165.92 337.83,-174.25 348.14,-171.83 344.39,-165.92"/>
</g>
<!-- Node2 -->
<g id="node2" class="node">
<title>Node2</title>
<g id="a_node2"><a xlink:href="class_j_k_q_t_p_image_base.html" target="_top" xlink:title="base class for plotting an image">
<polygon fill="none" stroke="black" points="262.5,-232.5 262.5,-253.5 382.5,-253.5 382.5,-232.5 262.5,-232.5"/>
<text text-anchor="middle" x="322.5" y="-239.9" font-family="Helvetica,sans-Serif" font-size="12.00">JKQTPImageBase</text>
</a>
</g>
</g>
<!-- Node2&#45;&gt;Node1 -->
<g id="edge1" class="edge">
<title>Node2&#45;&gt;Node1</title>
<path fill="none" stroke="midnightblue" d="M322.5,-222.16C322.5,-213.16 322.5,-202.92 322.5,-195.64"/>
<polygon fill="midnightblue" stroke="midnightblue" points="319,-222.25 322.5,-232.25 326,-222.25 319,-222.25"/>
</g>
<!-- Node3 -->
<g id="node3" class="node">
<title>Node3</title>
<g id="a_node3"><a xlink:href="class_j_k_q_t_p_graph.html" target="_top" xlink:title="this virtual base class of the (data&#45;column based) graphs, which are part of a JKQTPlotter plot and w...">
<polygon fill="none" stroke="black" points="278,-290.5 278,-311.5 367,-311.5 367,-290.5 278,-290.5"/>
<text text-anchor="middle" x="322.5" y="-297.9" font-family="Helvetica,sans-Serif" font-size="12.00">JKQTPGraph</text>
</a>
</g>
</g>
<!-- Node3&#45;&gt;Node2 -->
<g id="edge2" class="edge">
<title>Node3&#45;&gt;Node2</title>
<path fill="none" stroke="midnightblue" d="M322.5,-280.16C322.5,-271.16 322.5,-260.92 322.5,-253.64"/>
<polygon fill="midnightblue" stroke="midnightblue" points="319,-280.25 322.5,-290.25 326,-280.25 319,-280.25"/>
</g>
<!-- Node4 -->
<g id="node4" class="node">
<title>Node4</title>
<g id="a_node4"><a xlink:href="class_j_k_q_t_p_plot_element.html" target="_top" xlink:title="this virtual base class of every element, which is part of a JKQTPlotter plot and may appear in its k...">
<polygon fill="none" stroke="black" points="260,-348.5 260,-369.5 385,-369.5 385,-348.5 260,-348.5"/>
<text text-anchor="middle" x="322.5" y="-355.9" font-family="Helvetica,sans-Serif" font-size="12.00">JKQTPPlotElement</text>
</a>
</g>
</g>
<!-- Node4&#45;&gt;Node3 -->
<g id="edge3" class="edge">
<title>Node4&#45;&gt;Node3</title>
<path fill="none" stroke="midnightblue" d="M322.5,-338.16C322.5,-329.16 322.5,-318.92 322.5,-311.64"/>
<polygon fill="midnightblue" stroke="midnightblue" points="319,-338.25 322.5,-348.25 326,-338.25 319,-338.25"/>
</g>
<!-- Node5 -->
<g id="node5" class="node">
<title>Node5</title>
<g id="a_node5"><a xlink:title=" ">
<polygon fill="none" stroke="black" points="290,-406.5 290,-427.5 355,-427.5 355,-406.5 290,-406.5"/>
<text text-anchor="middle" x="322.5" y="-413.9" font-family="Helvetica,sans-Serif" font-size="12.00">QObject</text>
</a>
</g>
</g>
<!-- Node5&#45;&gt;Node4 -->
<g id="edge4" class="edge">
<title>Node5&#45;&gt;Node4</title>
<path fill="none" stroke="midnightblue" d="M322.5,-396.16C322.5,-387.16 322.5,-376.92 322.5,-369.64"/>
<polygon fill="midnightblue" stroke="midnightblue" points="319,-396.25 322.5,-406.25 326,-396.25 319,-396.25"/>
</g>
<!-- Node7 -->
<g id="node7" class="node">
<title>Node7</title>
<g id="a_node7"><a xlink:href="class_j_k_q_t_p_column_math_image.html" target="_top" xlink:title="class to plot an image from an 2&#45;dimensional array of values stored in a column of the datastore">
<polygon fill="none" stroke="black" points="0,-58.5 0,-79.5 167,-79.5 167,-58.5 0,-58.5"/>
<text text-anchor="middle" x="83.5" y="-65.9" font-family="Helvetica,sans-Serif" font-size="12.00">JKQTPColumnMathImage</text>
</a>
</g>
</g>
<!-- Node6&#45;&gt;Node7 -->
<g id="edge6" class="edge">
<title>Node6&#45;&gt;Node7</title>
<path fill="none" stroke="midnightblue" d="M208.83,-113.06C179,-102.81 138.01,-88.73 111.16,-79.5"/>
<polygon fill="midnightblue" stroke="midnightblue" points="207.88,-116.43 218.48,-116.37 210.16,-109.81 207.88,-116.43"/>
</g>
<!-- Node8 -->
<g id="node8" class="node">
<title>Node8</title>
<g id="a_node8"><a xlink:href="class_j_k_q_t_p_contour_plot.html" target="_top" xlink:title="class for a contour plot">
<polygon fill="none" stroke="black" points="185,-58.5 185,-79.5 308,-79.5 308,-58.5 185,-58.5"/>
<text text-anchor="middle" x="246.5" y="-65.9" font-family="Helvetica,sans-Serif" font-size="12.00">JKQTPContourPlot</text>
</a>
</g>
</g>
<!-- Node6&#45;&gt;Node8 -->
<g id="edge7" class="edge">
<title>Node6&#45;&gt;Node8</title>
<path fill="none" stroke="midnightblue" d="M246.5,-106.16C246.5,-97.16 246.5,-86.92 246.5,-79.64"/>
<polygon fill="midnightblue" stroke="midnightblue" points="243,-106.25 246.5,-116.25 250,-106.25 243,-106.25"/>
</g>
<!-- Node9 -->
<g id="node9" class="node">
<title>Node9</title>
<g id="a_node9"><a xlink:href="class_j_k_q_t_p_column_contour_plot.html" target="_top" xlink:title="class for a contour plots (same as JKQTPContourPlot) of images stored in a JKQTPDatastore column">
<polygon fill="none" stroke="black" points="162,-0.5 162,-21.5 331,-21.5 331,-0.5 162,-0.5"/>
<text text-anchor="middle" x="246.5" y="-7.9" font-family="Helvetica,sans-Serif" font-size="12.00">JKQTPColumnContourPlot</text>
</a>
</g>
</g>
<!-- Node8&#45;&gt;Node9 -->
<g id="edge8" class="edge">
<title>Node8&#45;&gt;Node9</title>
<path fill="none" stroke="midnightblue" d="M246.5,-48.16C246.5,-39.16 246.5,-28.92 246.5,-21.64"/>
<polygon fill="midnightblue" stroke="midnightblue" points="243,-48.25 246.5,-58.25 250,-48.25 243,-48.25"/>
</g>
<!-- Node11 -->
<g id="node11" class="node">
<title>Node11</title>
<g id="a_node11"><a xlink:href="class_j_k_q_t_p_column_r_g_b_math_image.html" target="_top" xlink:title="like JKQTPRGBMathImage but reads images from columns of the datastore">
<polygon fill="none" stroke="black" points="326.5,-58.5 326.5,-79.5 518.5,-79.5 518.5,-58.5 326.5,-58.5"/>
<text text-anchor="middle" x="422.5" y="-65.9" font-family="Helvetica,sans-Serif" font-size="12.00">JKQTPColumnRGBMathImage</text>
</a>
</g>
</g>
<!-- Node10&#45;&gt;Node11 -->
<g id="edge10" class="edge">
<title>Node10&#45;&gt;Node11</title>
<path fill="none" stroke="midnightblue" d="M414.69,-106.45C416.63,-97.38 418.86,-87 420.43,-79.64"/>
<polygon fill="midnightblue" stroke="midnightblue" points="411.26,-105.73 412.59,-116.25 418.11,-107.2 411.26,-105.73"/>
</g>
</g>
</svg>
        <g id="navigator" transform="translate(0 0)" fill="#404254">
                <rect fill="#f2f5e9" fill-opacity="0.5" stroke="#606060" stroke-width=".5" x="0" y="0" width="60" height="60"/>
                <use id="zoomplus" xlink:href="#zoomPlus" x="17" y="9" onmousedown="handleZoom(evt,'in')"/>
                <use id="zoomminus" xlink:href="#zoomMin" x="42" y="9" onmousedown="handleZoom(evt,'out')"/>
                <use id="reset" xlink:href="#resetDef" x="30" y="36" onmousedown="handleReset()"/>
                <g id="arrowUp" xlink:href="#dirArrow" transform="translate(30 24)" onmousedown="handlePan(0,-1)">
                  <use xlink:href="#rim" fill="#404040">
                        <set attributeName="fill" to="#808080" begin="arrowUp.mouseover" end="arrowUp.mouseout"/>
                  </use>
                  <path fill="none" stroke="white" stroke-width="1.5" d="M0,-3.0v7 M-2.5,-0.5L0,-3.0L2.5,-0.5"/>
                </g>
                <g id="arrowRight" xlink:href="#dirArrow" transform="rotate(90) translate(36 -43)" onmousedown="handlePan(1,0)">
                  <use xlink:href="#rim" fill="#404040">
                        <set attributeName="fill" to="#808080" begin="arrowRight.mouseover" end="arrowRight.mouseout"/>
                  </use>
                  <path fill="none" stroke="white" stroke-width="1.5" d="M0,-3.0v7 M-2.5,-0.5L0,-3.0L2.5,-0.5"/>
                </g>
                <g id="arrowDown" xlink:href="#dirArrow" transform="rotate(180) translate(-30 -48)" onmousedown="handlePan(0,1)">
                  <use xlink:href="#rim" fill="#404040">
                        <set attributeName="fill" to="#808080" begin="arrowDown.mouseover" end="arrowDown.mouseout"/>
                  </use>
                  <path fill="none" stroke="white" stroke-width="1.5" d="M0,-3.0v7 M-2.5,-0.5L0,-3.0L2.5,-0.5"/>
                </g>
                <g id="arrowLeft" xlink:href="#dirArrow" transform="rotate(270) translate(-36 17)" onmousedown="handlePan(-1,0)">
                  <use xlink:href="#rim" fill="#404040">
                        <set attributeName="fill" to="#808080" begin="arrowLeft.mouseover" end="arrowLeft.mouseout"/>
                  </use>
                  <path fill="none" stroke="white" stroke-width="1.5" d="M0,-3.0v7 M-2.5,-0.5L0,-3.0L2.5,-0.5"/>
                </g>
        </g>
        <svg viewBox="0 0 15 15" width="100%" height="30px" preserveAspectRatio="xMaxYMin meet">
         <g id="arrow_out" transform="scale(0.3 0.3)">
          <a xlink:href="class_j_k_q_t_p_math_image_base__inherit__graph_org.svg" target="_base">
           <rect id="button" ry="5" rx="5" y="6" x="6" height="38" width="38"
                fill="#f2f5e9" fill-opacity="0.5" stroke="#606060" stroke-width="1.0"/>
           <path id="arrow"
             d="M 11.500037,31.436501 C 11.940474,20.09759 22.043105,11.32322 32.158766,21.979434 L 37.068811,17.246167 C 37.068811,17.246167 37.088388,32 37.088388,32 L 22.160133,31.978069 C 22.160133,31.978069 26.997745,27.140456 26.997745,27.140456 C 18.528582,18.264221 13.291696,25.230495 11.500037,31.436501 z"
             style="fill:#404040;"/>
          </a>
         </g>
        </svg>
</svg>
