<?xml version="1.0" encoding="UTF-8" standalone="no"?>
<!DOCTYPE svg PUBLIC "-//W3C//DTD SVG 1.1//EN"
 "http://www.w3.org/Graphics/SVG/1.1/DTD/svg11.dtd">
<!-- Generated by graphviz version 2.43.0 (0)
 -->
<!-- Title: JKQTPXYBaselineGraph Pages: 1 -->
<!--zoomable 448 -->
<svg id="main" version="1.1" xmlns="http://www.w3.org/2000/svg" xmlns:xlink="http://www.w3.org/1999/xlink" xml:space="preserve" onload="init(evt)">
<style type="text/css"><![CDATA[
.edge:hover path { stroke: red; }
.edge:hover polygon { stroke: red; fill: red; }
]]></style>
<script type="text/javascript"><![CDATA[
var edges = document.getElementsByTagName('g');
if (edges && edges.length) {
  for (var i=0;i<edges.length;i++) {
    if (edges[i].id.substr(0,4)=='edge') {
      edges[i].setAttribute('class','edge');
    }
  }
}
]]></script>
        <defs>
                <circle id="rim" cx="0" cy="0" r="7"/>
                <circle id="rim2" cx="0" cy="0" r="3.5"/>
                <g id="zoomPlus">
                        <use xlink:href="#rim" fill="#404040">
                                <set attributeName="fill" to="#808080" begin="zoomplus.mouseover" end="zoomplus.mouseout"/>
                        </use>
                        <path d="M-4,0h8M0,-4v8" fill="none" stroke="white" stroke-width="1.5" pointer-events="none"/>
                </g>
                <g id="zoomMin">
                        <use xlink:href="#rim" fill="#404040">
                                <set attributeName="fill" to="#808080" begin="zoomminus.mouseover" end="zoomminus.mouseout"/>
                        </use>
                        <path d="M-4,0h8" fill="none" stroke="white" stroke-width="1.5" pointer-events="none"/>
                </g>
                <g id="dirArrow">
                        <path fill="none" stroke="white" stroke-width="1.5" d="M0,-3.0v7 M-2.5,-0.5L0,-3.0L2.5,-0.5"/>
                </g>
               <g id="resetDef">
                       <use xlink:href="#rim2" fill="#404040">
                               <set attributeName="fill" to="#808080" begin="reset.mouseover" end="reset.mouseout"/>
                       </use>
               </g>
        </defs>

<script type="text/javascript">
var viewWidth = 1388;
var viewHeight = 448;
var sectionId = 'dynsection-0';
</script>
<script xlink:href="svgpan.js"/>
<svg id="graph" class="graph">
<g id="viewport">
<title>JKQTPXYBaselineGraph</title>
<!-- Node1 -->
<g id="node1" class="node">
<title>Node1</title>
<g id="a_node1"><a xlink:title="This virtual JKQTPGraph descendent extends JKQTPXYGraph adds a baseline&#45;property, which is necessary,...">
<polygon fill="#bfbfbf" stroke="black" points="528,-167 528,-188 683,-188 683,-167 528,-167"/>
<text text-anchor="middle" x="605.5" y="-174.4" font-family="Helvetica,sans-Serif" font-size="12.00">JKQTPXYBaselineGraph</text>
</a>
</g>
</g>
<!-- Node6 -->
<g id="node6" class="node">
<title>Node6</title>
<g id="a_node6"><a xlink:href="class_j_k_q_t_p_bar_graph_base.html" target="_top" xlink:title="This is a base&#45;class for all bar graphs with vertical or horizontal orientation (the orientation is i...">
<polygon fill="none" stroke="black" points="742,-300 742,-321 882,-321 882,-300 742,-300"/>
<text text-anchor="middle" x="812" y="-307.4" font-family="Helvetica,sans-Serif" font-size="12.00">JKQTPBarGraphBase</text>
</a>
</g>
</g>
<!-- Node1&#45;&gt;Node6 -->
<g id="edge5" class="edge">
<title>Node1&#45;&gt;Node6</title>
<path fill="none" stroke="midnightblue" d="M631.52,-193.77C674.05,-221.43 759.25,-276.84 794.82,-299.97"/>
<polygon fill="midnightblue" stroke="midnightblue" points="633.18,-190.68 622.89,-188.16 629.36,-196.55 633.18,-190.68"/>
</g>
<!-- Node13 -->
<g id="node13" class="node">
<title>Node13</title>
<g id="a_node13"><a xlink:href="class_j_k_q_t_p_filled_curve_graph_base.html" target="_top" xlink:title="a Base class for filled curve graphs like e.g. JKQTPFilledCurveXGraph">
<polygon fill="none" stroke="black" points="720,-190 720,-211 904,-211 904,-190 720,-190"/>
<text text-anchor="middle" x="812" y="-197.4" font-family="Helvetica,sans-Serif" font-size="12.00">JKQTPFilledCurveGraphBase</text>
</a>
</g>
</g>
<!-- Node1&#45;&gt;Node13 -->
<g id="edge12" class="edge">
<title>Node1&#45;&gt;Node13</title>
<path fill="none" stroke="midnightblue" d="M693.37,-187.27C702.08,-188.25 710.95,-189.25 719.71,-190.23"/>
<polygon fill="midnightblue" stroke="midnightblue" points="693.56,-183.77 683.23,-186.13 692.78,-190.73 693.56,-183.77"/>
</g>
<!-- Node18 -->
<g id="node18" class="node">
<title>Node18</title>
<g id="a_node18"><a xlink:href="class_j_k_q_t_p_impulses_graph_base.html" target="_top" xlink:title="This is a base class for all impulse graphs.">
<polygon fill="none" stroke="black" points="726,-147 726,-168 898,-168 898,-147 726,-147"/>
<text text-anchor="middle" x="812" y="-154.4" font-family="Helvetica,sans-Serif" font-size="12.00">JKQTPImpulsesGraphBase</text>
</a>
</g>
</g>
<!-- Node1&#45;&gt;Node18 -->
<g id="edge17" class="edge">
<title>Node1&#45;&gt;Node18</title>
<path fill="none" stroke="midnightblue" d="M693.46,-169C704.22,-167.94 715.22,-166.87 725.95,-165.82"/>
<polygon fill="midnightblue" stroke="midnightblue" points="692.84,-165.54 683.23,-170 693.52,-172.51 692.84,-165.54"/>
</g>
<!-- Node23 -->
<g id="node23" class="node">
<title>Node23</title>
<g id="a_node23"><a xlink:href="class_j_k_q_t_p_special_line_graph_base.html" target="_top" xlink:title="a Base class for special line graphs (steps ...) like e.g. JKQTPSpecialLineHorizontalGraph">
<polygon fill="none" stroke="black" points="719,-60 719,-81 905,-81 905,-60 719,-60"/>
<text text-anchor="middle" x="812" y="-67.4" font-family="Helvetica,sans-Serif" font-size="12.00">JKQTPSpecialLineGraphBase</text>
</a>
</g>
</g>
<!-- Node1&#45;&gt;Node23 -->
<g id="edge22" class="edge">
<title>Node1&#45;&gt;Node23</title>
<path fill="none" stroke="midnightblue" d="M635.78,-162.18C677.85,-140.17 754.34,-100.14 790.73,-81.11"/>
<polygon fill="midnightblue" stroke="midnightblue" points="634.09,-159.11 626.86,-166.85 637.34,-165.31 634.09,-159.11"/>
</g>
<!-- Node2 -->
<g id="node2" class="node">
<title>Node2</title>
<g id="a_node2"><a xlink:href="class_j_k_q_t_p_x_y_graph.html" target="_top" xlink:title="This virtual JKQTPGraph descendent may be used as base for all graphs that use at least two columns t...">
<polygon fill="none" stroke="black" points="387,-167 387,-188 492,-188 492,-167 387,-167"/>
<text text-anchor="middle" x="439.5" y="-174.4" font-family="Helvetica,sans-Serif" font-size="12.00">JKQTPXYGraph</text>
</a>
</g>
</g>
<!-- Node2&#45;&gt;Node1 -->
<g id="edge1" class="edge">
<title>Node2&#45;&gt;Node1</title>
<path fill="none" stroke="midnightblue" d="M502.63,-177.5C510.85,-177.5 519.35,-177.5 527.78,-177.5"/>
<polygon fill="midnightblue" stroke="midnightblue" points="502.39,-174 492.39,-177.5 502.39,-181 502.39,-174"/>
</g>
<!-- Node3 -->
<g id="node3" class="node">
<title>Node3</title>
<g id="a_node3"><a xlink:href="class_j_k_q_t_p_graph.html" target="_top" xlink:title="this virtual base class of the (data&#45;column based) graphs, which are part of a JKQTPlotter plot and w...">
<polygon fill="none" stroke="black" points="262,-167 262,-188 351,-188 351,-167 262,-167"/>
<text text-anchor="middle" x="306.5" y="-174.4" font-family="Helvetica,sans-Serif" font-size="12.00">JKQTPGraph</text>
</a>
</g>
</g>
<!-- Node3&#45;&gt;Node2 -->
<g id="edge2" class="edge">
<title>Node3&#45;&gt;Node2</title>
<path fill="none" stroke="midnightblue" d="M361.27,-177.5C369.74,-177.5 378.48,-177.5 386.89,-177.5"/>
<polygon fill="midnightblue" stroke="midnightblue" points="361.12,-174 351.12,-177.5 361.12,-181 361.12,-174"/>
</g>
<!-- Node4 -->
<g id="node4" class="node">
<title>Node4</title>
<g id="a_node4"><a xlink:href="class_j_k_q_t_p_plot_element.html" target="_top" xlink:title="this virtual base class of every element, which is part of a JKQTPlotter plot and may appear in its k...">
<polygon fill="none" stroke="black" points="101,-167 101,-188 226,-188 226,-167 101,-167"/>
<text text-anchor="middle" x="163.5" y="-174.4" font-family="Helvetica,sans-Serif" font-size="12.00">JKQTPPlotElement</text>
</a>
</g>
</g>
<!-- Node4&#45;&gt;Node3 -->
<g id="edge3" class="edge">
<title>Node4&#45;&gt;Node3</title>
<path fill="none" stroke="midnightblue" d="M236.51,-177.5C245.18,-177.5 253.82,-177.5 261.91,-177.5"/>
<polygon fill="midnightblue" stroke="midnightblue" points="236.34,-174 226.34,-177.5 236.34,-181 236.34,-174"/>
</g>
<!-- Node5 -->
<g id="node5" class="node">
<title>Node5</title>
<g id="a_node5"><a xlink:title=" ">
<polygon fill="none" stroke="black" points="0,-167 0,-188 65,-188 65,-167 0,-167"/>
<text text-anchor="middle" x="32.5" y="-174.4" font-family="Helvetica,sans-Serif" font-size="12.00">QObject</text>
</a>
</g>
</g>
<!-- Node5&#45;&gt;Node4 -->
<g id="edge4" class="edge">
<title>Node5&#45;&gt;Node4</title>
<path fill="none" stroke="midnightblue" d="M75.09,-177.5C83.29,-177.5 92.05,-177.5 100.75,-177.5"/>
<polygon fill="midnightblue" stroke="midnightblue" points="75.06,-174 65.06,-177.5 75.06,-181 75.06,-174"/>
</g>
<!-- Node7 -->
<g id="node7" class="node">
<title>Node7</title>
<g id="a_node7"><a xlink:href="class_j_k_q_t_p_bar_horizontal_graph.html" target="_top" xlink:title="This implements a bar graph with bars starting at &#160;to .">
<polygon fill="none" stroke="black" points="957,-371 957,-392 1128,-392 1128,-371 957,-371"/>
<text text-anchor="middle" x="1042.5" y="-378.4" font-family="Helvetica,sans-Serif" font-size="12.00">JKQTPBarHorizontalGraph</text>
</a>
</g>
</g>
<!-- Node6&#45;&gt;Node7 -->
<g id="edge6" class="edge">
<title>Node6&#45;&gt;Node7</title>
<path fill="none" stroke="midnightblue" d="M857.03,-324.18C900.93,-337.82 967.41,-358.48 1007.43,-370.91"/>
<polygon fill="midnightblue" stroke="midnightblue" points="857.8,-320.75 847.21,-321.13 855.72,-327.44 857.8,-320.75"/>
</g>
<!-- Node10 -->
<g id="node10" class="node">
<title>Node10</title>
<g id="a_node10"><a xlink:href="class_j_k_q_t_p_bar_vertical_graph.html" target="_top" xlink:title="This implements a bar graph with bars starting at &#160;to .">
<polygon fill="none" stroke="black" points="965,-300 965,-321 1120,-321 1120,-300 965,-300"/>
<text text-anchor="middle" x="1042.5" y="-307.4" font-family="Helvetica,sans-Serif" font-size="12.00">JKQTPBarVerticalGraph</text>
</a>
</g>
</g>
<!-- Node6&#45;&gt;Node10 -->
<g id="edge9" class="edge">
<title>Node6&#45;&gt;Node10</title>
<path fill="none" stroke="midnightblue" d="M892.46,-310.5C915.97,-310.5 941.66,-310.5 964.98,-310.5"/>
<polygon fill="midnightblue" stroke="midnightblue" points="892.18,-307 882.18,-310.5 892.18,-314 892.18,-307"/>
</g>
<!-- Node8 -->
<g id="node8" class="node">
<title>Node8</title>
<g id="a_node8"><a xlink:href="class_j_k_q_t_p_bar_horizontal_error_graph.html" target="_top" xlink:title="This implements a bar graph with bars starting at &#160;to &#160;and error indicator.">
<polygon fill="none" stroke="black" points="1180,-418 1180,-439 1380,-439 1380,-418 1180,-418"/>
<text text-anchor="middle" x="1280" y="-425.4" font-family="Helvetica,sans-Serif" font-size="12.00">JKQTPBarHorizontalErrorGraph</text>
</a>
</g>
</g>
<!-- Node7&#45;&gt;Node8 -->
<g id="edge7" class="edge">
<title>Node7&#45;&gt;Node8</title>
<path fill="none" stroke="midnightblue" d="M1106.64,-394.1C1144.05,-401.57 1190.91,-410.92 1226.33,-417.99"/>
<polygon fill="midnightblue" stroke="midnightblue" points="1106.84,-390.57 1096.35,-392.05 1105.47,-397.44 1106.84,-390.57"/>
</g>
<!-- Node9 -->
<g id="node9" class="node">
<title>Node9</title>
<g id="a_node9"><a xlink:href="class_j_k_q_t_p_bar_horizontal_stackable_graph.html" target="_top" xlink:title="This implements a bar graph with bars starting at &#160;to &#160;Optionally several graphs of this type may be ...">
<polygon fill="none" stroke="black" points="1183.5,-364.5 1183.5,-398.5 1376.5,-398.5 1376.5,-364.5 1183.5,-364.5"/>
<text text-anchor="start" x="1191.5" y="-384.9" font-family="Helvetica,sans-Serif" font-size="12.00">JKQTPBarHorizontalStackable</text>
<text text-anchor="middle" x="1280" y="-371.9" font-family="Helvetica,sans-Serif" font-size="12.00">Graph</text>
</a>
</g>
</g>
<!-- Node7&#45;&gt;Node9 -->
<g id="edge8" class="edge">
<title>Node7&#45;&gt;Node9</title>
<path fill="none" stroke="midnightblue" d="M1138.38,-381.5C1153.24,-381.5 1168.6,-381.5 1183.47,-381.5"/>
<polygon fill="midnightblue" stroke="midnightblue" points="1138.19,-378 1128.19,-381.5 1138.19,-385 1138.19,-378"/>
</g>
<!-- Node11 -->
<g id="node11" class="node">
<title>Node11</title>
<g id="a_node11"><a xlink:href="class_j_k_q_t_p_bar_vertical_error_graph.html" target="_top" xlink:title="This implements a bar graph with bars starting at &#160;to &#160;and error indicator.">
<polygon fill="none" stroke="black" points="1187.5,-324 1187.5,-345 1372.5,-345 1372.5,-324 1187.5,-324"/>
<text text-anchor="middle" x="1280" y="-331.4" font-family="Helvetica,sans-Serif" font-size="12.00">JKQTPBarVerticalErrorGraph</text>
</a>
</g>
</g>
<!-- Node10&#45;&gt;Node11 -->
<g id="edge10" class="edge">
<title>Node10&#45;&gt;Node11</title>
<path fill="none" stroke="midnightblue" d="M1130.43,-319.36C1148.91,-321.24 1168.48,-323.24 1187.13,-325.14"/>
<polygon fill="midnightblue" stroke="midnightblue" points="1130.59,-315.86 1120.29,-318.33 1129.88,-322.82 1130.59,-315.86"/>
</g>
<!-- Node12 -->
<g id="node12" class="node">
<title>Node12</title>
<g id="a_node12"><a xlink:href="class_j_k_q_t_p_bar_vertical_stackable_graph.html" target="_top" xlink:title="This implements a bar graph with bars starting at &#160;to &#160;Optionally several graphs of this type may be ...">
<polygon fill="none" stroke="black" points="1191.5,-270.5 1191.5,-304.5 1368.5,-304.5 1368.5,-270.5 1191.5,-270.5"/>
<text text-anchor="start" x="1199.5" y="-290.9" font-family="Helvetica,sans-Serif" font-size="12.00">JKQTPBarVerticalStackable</text>
<text text-anchor="middle" x="1280" y="-277.9" font-family="Helvetica,sans-Serif" font-size="12.00">Graph</text>
</a>
</g>
</g>
<!-- Node10&#45;&gt;Node12 -->
<g id="edge11" class="edge">
<title>Node10&#45;&gt;Node12</title>
<path fill="none" stroke="midnightblue" d="M1130.25,-302.03C1150.16,-300.08 1171.34,-298.01 1191.29,-296.07"/>
<polygon fill="midnightblue" stroke="midnightblue" points="1129.9,-298.55 1120.29,-303 1130.58,-305.51 1129.9,-298.55"/>
</g>
<!-- Node14 -->
<g id="node14" class="node">
<title>Node14</title>
<g id="a_node14"><a xlink:href="class_j_k_q_t_p_filled_curve_x_graph.html" target="_top" xlink:title="This implements filled curve plots where the area is filled between the plot line and the x&#45;Axis.">
<polygon fill="none" stroke="black" points="961,-230 961,-251 1124,-251 1124,-230 961,-230"/>
<text text-anchor="middle" x="1042.5" y="-237.4" font-family="Helvetica,sans-Serif" font-size="12.00">JKQTPFilledCurveXGraph</text>
</a>
</g>
</g>
<!-- Node13&#45;&gt;Node14 -->
<g id="edge13" class="edge">
<title>Node13&#45;&gt;Node14</title>
<path fill="none" stroke="midnightblue" d="M883.05,-212.76C914.52,-218.27 951.28,-224.71 981.47,-229.99"/>
<polygon fill="midnightblue" stroke="midnightblue" points="883.49,-209.29 873.04,-211.01 882.28,-216.18 883.49,-209.29"/>
</g>
<!-- Node16 -->
<g id="node16" class="node">
<title>Node16</title>
<g id="a_node16"><a xlink:href="class_j_k_q_t_p_filled_curve_y_graph.html" target="_top" xlink:title="This implements filled curve plots where the area is filled between the plot line and y&#45;Axis.">
<polygon fill="none" stroke="black" points="961.5,-190 961.5,-211 1123.5,-211 1123.5,-190 961.5,-190"/>
<text text-anchor="middle" x="1042.5" y="-197.4" font-family="Helvetica,sans-Serif" font-size="12.00">JKQTPFilledCurveYGraph</text>
</a>
</g>
</g>
<!-- Node13&#45;&gt;Node16 -->
<g id="edge15" class="edge">
<title>Node13&#45;&gt;Node16</title>
<path fill="none" stroke="midnightblue" d="M914.55,-200.5C930.25,-200.5 946.27,-200.5 961.42,-200.5"/>
<polygon fill="midnightblue" stroke="midnightblue" points="914.29,-197 904.29,-200.5 914.29,-204 914.29,-197"/>
</g>
<!-- Node15 -->
<g id="node15" class="node">
<title>Node15</title>
<g id="a_node15"><a xlink:href="class_j_k_q_t_p_filled_curve_x_error_graph.html" target="_top" xlink:title="This implements filled curve plots with y errors where the area is filled between the plot line and t...">
<polygon fill="none" stroke="black" points="1184,-230 1184,-251 1376,-251 1376,-230 1184,-230"/>
<text text-anchor="middle" x="1280" y="-237.4" font-family="Helvetica,sans-Serif" font-size="12.00">JKQTPFilledCurveXErrorGraph</text>
</a>
</g>
</g>
<!-- Node14&#45;&gt;Node15 -->
<g id="edge14" class="edge">
<title>Node14&#45;&gt;Node15</title>
<path fill="none" stroke="midnightblue" d="M1134.22,-240.5C1150.46,-240.5 1167.42,-240.5 1183.78,-240.5"/>
<polygon fill="midnightblue" stroke="midnightblue" points="1134.22,-237 1124.22,-240.5 1134.22,-244 1134.22,-237"/>
</g>
<!-- Node17 -->
<g id="node17" class="node">
<title>Node17</title>
<g id="a_node17"><a xlink:href="class_j_k_q_t_p_filled_curve_y_error_graph.html" target="_top" xlink:title="This implements filled curve plots with y errors where the area is filled between the plot line and t...">
<polygon fill="none" stroke="black" points="1184.5,-190 1184.5,-211 1375.5,-211 1375.5,-190 1184.5,-190"/>
<text text-anchor="middle" x="1280" y="-197.4" font-family="Helvetica,sans-Serif" font-size="12.00">JKQTPFilledCurveYErrorGraph</text>
</a>
</g>
</g>
<!-- Node16&#45;&gt;Node17 -->
<g id="edge16" class="edge">
<title>Node16&#45;&gt;Node17</title>
<path fill="none" stroke="midnightblue" d="M1133.72,-200.5C1150.22,-200.5 1167.48,-200.5 1184.11,-200.5"/>
<polygon fill="midnightblue" stroke="midnightblue" points="1133.56,-197 1123.56,-200.5 1133.56,-204 1133.56,-197"/>
</g>
<!-- Node19 -->
<g id="node19" class="node">
<title>Node19</title>
<g id="a_node19"><a xlink:href="class_j_k_q_t_p_impulses_horizontal_graph.html" target="_top" xlink:title="This implements an impulse plot with horizontal impulses in direction of the X axis (i....">
<polygon fill="none" stroke="black" points="941,-147 941,-168 1144,-168 1144,-147 941,-147"/>
<text text-anchor="middle" x="1042.5" y="-154.4" font-family="Helvetica,sans-Serif" font-size="12.00">JKQTPImpulsesHorizontalGraph</text>
</a>
</g>
</g>
<!-- Node18&#45;&gt;Node19 -->
<g id="edge18" class="edge">
<title>Node18&#45;&gt;Node19</title>
<path fill="none" stroke="midnightblue" d="M908.32,-157.5C919.09,-157.5 930.08,-157.5 940.91,-157.5"/>
<polygon fill="midnightblue" stroke="midnightblue" points="908.09,-154 898.08,-157.5 908.08,-161 908.09,-154"/>
</g>
<!-- Node21 -->
<g id="node21" class="node">
<title>Node21</title>
<g id="a_node21"><a xlink:href="class_j_k_q_t_p_impulses_vertical_graph.html" target="_top" xlink:title="This implements an impulse plot with impulses in direction of the Y axis (i.e. from y=0 to y=f(x) )">
<polygon fill="none" stroke="black" points="948.5,-107 948.5,-128 1136.5,-128 1136.5,-107 948.5,-107"/>
<text text-anchor="middle" x="1042.5" y="-114.4" font-family="Helvetica,sans-Serif" font-size="12.00">JKQTPImpulsesVerticalGraph</text>
</a>
</g>
</g>
<!-- Node18&#45;&gt;Node21 -->
<g id="edge20" class="edge">
<title>Node18&#45;&gt;Node21</title>
<path fill="none" stroke="midnightblue" d="M883.05,-145.24C914.52,-139.73 951.28,-133.29 981.47,-128.01"/>
<polygon fill="midnightblue" stroke="midnightblue" points="882.28,-141.82 873.04,-146.99 883.49,-148.71 882.28,-141.82"/>
</g>
<!-- Node20 -->
<g id="node20" class="node">
<title>Node20</title>
<g id="a_node20"><a xlink:href="class_j_k_q_t_p_impulses_horizontal_error_graph.html" target="_top" xlink:title="This implements an impulse plot with horizontal impulses in direction of the X axis (i....">
<polygon fill="none" stroke="black" points="1182,-136.5 1182,-170.5 1378,-170.5 1378,-136.5 1182,-136.5"/>
<text text-anchor="start" x="1190" y="-156.9" font-family="Helvetica,sans-Serif" font-size="12.00">JKQTPImpulsesHorizontalError</text>
<text text-anchor="middle" x="1280" y="-143.9" font-family="Helvetica,sans-Serif" font-size="12.00">Graph</text>
</a>
</g>
</g>
<!-- Node19&#45;&gt;Node20 -->
<g id="edge19" class="edge">
<title>Node19&#45;&gt;Node20</title>
<path fill="none" stroke="midnightblue" d="M1154.06,-155.62C1163.32,-155.46 1172.63,-155.31 1181.77,-155.15"/>
<polygon fill="midnightblue" stroke="midnightblue" points="1154,-152.12 1144.06,-155.79 1154.11,-159.12 1154,-152.12"/>
</g>
<!-- Node22 -->
<g id="node22" class="node">
<title>Node22</title>
<g id="a_node22"><a xlink:href="class_j_k_q_t_p_impulses_vertical_error_graph.html" target="_top" xlink:title="This implements an impulse plot with impulses in direction of the X axis (i.e. from x=0 to x=f(y) )">
<polygon fill="none" stroke="black" points="1190,-83.5 1190,-117.5 1370,-117.5 1370,-83.5 1190,-83.5"/>
<text text-anchor="start" x="1198" y="-103.9" font-family="Helvetica,sans-Serif" font-size="12.00">JKQTPImpulsesVerticalError</text>
<text text-anchor="middle" x="1280" y="-90.9" font-family="Helvetica,sans-Serif" font-size="12.00">Graph</text>
</a>
</g>
</g>
<!-- Node21&#45;&gt;Node22 -->
<g id="edge21" class="edge">
<title>Node21&#45;&gt;Node22</title>
<path fill="none" stroke="midnightblue" d="M1146.9,-110.04C1161.15,-109.01 1175.7,-107.96 1189.67,-106.95"/>
<polygon fill="midnightblue" stroke="midnightblue" points="1146.3,-106.57 1136.58,-110.78 1146.8,-113.55 1146.3,-106.57"/>
</g>
<!-- Node24 -->
<g id="node24" class="node">
<title>Node24</title>
<g id="a_node24"><a xlink:href="class_j_k_q_t_p_special_line_horizontal_graph.html" target="_top" xlink:title="This implements a step plot with values .">
<polygon fill="none" stroke="black" points="952,-53.5 952,-87.5 1133,-87.5 1133,-53.5 952,-53.5"/>
<text text-anchor="start" x="960" y="-73.9" font-family="Helvetica,sans-Serif" font-size="12.00">JKQTPSpecialLineHorizontal</text>
<text text-anchor="middle" x="1042.5" y="-60.9" font-family="Helvetica,sans-Serif" font-size="12.00">Graph</text>
</a>
</g>
</g>
<!-- Node23&#45;&gt;Node24 -->
<g id="edge23" class="edge">
<title>Node23&#45;&gt;Node24</title>
<path fill="none" stroke="midnightblue" d="M915.43,-70.5C927.57,-70.5 939.89,-70.5 951.84,-70.5"/>
<polygon fill="midnightblue" stroke="midnightblue" points="915.28,-67 905.28,-70.5 915.28,-74 915.28,-67"/>
</g>
<!-- Node25 -->
<g id="node25" class="node">
<title>Node25</title>
<g id="a_node25"><a xlink:href="class_j_k_q_t_p_special_line_vertical_graph.html" target="_top" xlink:title="This implements a step plot with values .">
<polygon fill="none" stroke="black" points="960,-0.5 960,-34.5 1125,-34.5 1125,-0.5 960,-0.5"/>
<text text-anchor="start" x="968" y="-20.9" font-family="Helvetica,sans-Serif" font-size="12.00">JKQTPSpecialLineVertical</text>
<text text-anchor="middle" x="1042.5" y="-7.9" font-family="Helvetica,sans-Serif" font-size="12.00">Graph</text>
</a>
</g>
</g>
<!-- Node23&#45;&gt;Node25 -->
<g id="edge24" class="edge">
<title>Node23&#45;&gt;Node25</title>
<path fill="none" stroke="midnightblue" d="M868.26,-57.68C898.16,-50.75 935.49,-42.09 967.84,-34.59"/>
<polygon fill="midnightblue" stroke="midnightblue" points="867.37,-54.3 858.42,-59.97 868.95,-61.12 867.37,-54.3"/>
</g>
</g>
</svg>
        <g id="navigator" transform="translate(0 0)" fill="#404254">
                <rect fill="#f2f5e9" fill-opacity="0.5" stroke="#606060" stroke-width=".5" x="0" y="0" width="60" height="60"/>
                <use id="zoomplus" xlink:href="#zoomPlus" x="17" y="9" onmousedown="handleZoom(evt,'in')"/>
                <use id="zoomminus" xlink:href="#zoomMin" x="42" y="9" onmousedown="handleZoom(evt,'out')"/>
                <use id="reset" xlink:href="#resetDef" x="30" y="36" onmousedown="handleReset()"/>
                <g id="arrowUp" xlink:href="#dirArrow" transform="translate(30 24)" onmousedown="handlePan(0,-1)">
                  <use xlink:href="#rim" fill="#404040">
                        <set attributeName="fill" to="#808080" begin="arrowUp.mouseover" end="arrowUp.mouseout"/>
                  </use>
                  <path fill="none" stroke="white" stroke-width="1.5" d="M0,-3.0v7 M-2.5,-0.5L0,-3.0L2.5,-0.5"/>
                </g>
                <g id="arrowRight" xlink:href="#dirArrow" transform="rotate(90) translate(36 -43)" onmousedown="handlePan(1,0)">
                  <use xlink:href="#rim" fill="#404040">
                        <set attributeName="fill" to="#808080" begin="arrowRight.mouseover" end="arrowRight.mouseout"/>
                  </use>
                  <path fill="none" stroke="white" stroke-width="1.5" d="M0,-3.0v7 M-2.5,-0.5L0,-3.0L2.5,-0.5"/>
                </g>
                <g id="arrowDown" xlink:href="#dirArrow" transform="rotate(180) translate(-30 -48)" onmousedown="handlePan(0,1)">
                  <use xlink:href="#rim" fill="#404040">
                        <set attributeName="fill" to="#808080" begin="arrowDown.mouseover" end="arrowDown.mouseout"/>
                  </use>
                  <path fill="none" stroke="white" stroke-width="1.5" d="M0,-3.0v7 M-2.5,-0.5L0,-3.0L2.5,-0.5"/>
                </g>
                <g id="arrowLeft" xlink:href="#dirArrow" transform="rotate(270) translate(-36 17)" onmousedown="handlePan(-1,0)">
                  <use xlink:href="#rim" fill="#404040">
                        <set attributeName="fill" to="#808080" begin="arrowLeft.mouseover" end="arrowLeft.mouseout"/>
                  </use>
                  <path fill="none" stroke="white" stroke-width="1.5" d="M0,-3.0v7 M-2.5,-0.5L0,-3.0L2.5,-0.5"/>
                </g>
        </g>
        <svg viewBox="0 0 15 15" width="100%" height="30px" preserveAspectRatio="xMaxYMin meet">
         <g id="arrow_out" transform="scale(0.3 0.3)">
          <a xlink:href="class_j_k_q_t_p_x_y_baseline_graph__inherit__graph_org.svg" target="_base">
           <rect id="button" ry="5" rx="5" y="6" x="6" height="38" width="38"
                fill="#f2f5e9" fill-opacity="0.5" stroke="#606060" stroke-width="1.0"/>
           <path id="arrow"
             d="M 11.500037,31.436501 C 11.940474,20.09759 22.043105,11.32322 32.158766,21.979434 L 37.068811,17.246167 C 37.068811,17.246167 37.088388,32 37.088388,32 L 22.160133,31.978069 C 22.160133,31.978069 26.997745,27.140456 26.997745,27.140456 C 18.528582,18.264221 13.291696,25.230495 11.500037,31.436501 z"
             style="fill:#404040;"/>
          </a>
         </g>
        </svg>
</svg>
