<?xml version="1.0" encoding="UTF-8" standalone="no"?>
<!DOCTYPE svg PUBLIC "-//W3C//DTD SVG 1.1//EN"
 "http://www.w3.org/Graphics/SVG/1.1/DTD/svg11.dtd">
<!-- Generated by graphviz version 2.43.0 (0)
 -->
<!-- Title: JKQTPVerticalIndependentAxis Pages: 1 -->
<svg width="2853pt" height="544pt"
 viewBox="0.00 0.00 2853.00 544.00" xmlns="http://www.w3.org/2000/svg" xmlns:xlink="http://www.w3.org/1999/xlink">
<g id="graph0" class="graph" transform="scale(1 1) rotate(0) translate(4 540)">
<title>JKQTPVerticalIndependentAxis</title>
<!-- Node1 -->
<g id="node1" class="node">
<title>Node1</title>
<g id="a_node1"><a xlink:title="implements a position&#45;indipendent vertical axis, based on JKQTPCoordinateAxis (for most of documentat...">
<polygon fill="#bfbfbf" stroke="black" points="2110,-192.5 2110,-213.5 2307,-213.5 2307,-192.5 2110,-192.5"/>
<text text-anchor="middle" x="2208.5" y="-199.9" font-family="Helvetica,sans-Serif" font-size="12.00">JKQTPVerticalIndependentAxis</text>
</a>
</g>
</g>
<!-- Node2 -->
<g id="node2" class="node">
<title>Node2</title>
<g id="a_node2"><a xlink:href="class_j_k_q_t_p_vertical_axis.html" target="_top" xlink:title="implements a vertical axis, based on JKQTPCoordinateAxis (for most of documentation: see JKQTPCoordin...">
<polygon fill="none" stroke="black" points="1844.5,-250.5 1844.5,-271.5 1966.5,-271.5 1966.5,-250.5 1844.5,-250.5"/>
<text text-anchor="middle" x="1905.5" y="-257.9" font-family="Helvetica,sans-Serif" font-size="12.00">JKQTPVerticalAxis</text>
</a>
</g>
</g>
<!-- Node2&#45;&gt;Node1 -->
<g id="edge1" class="edge">
<title>Node2&#45;&gt;Node1</title>
<path fill="none" stroke="midnightblue" d="M1931.5,-245.22C1948.66,-235.24 1972.36,-223.11 1995,-217 2031.77,-207.08 2073.35,-202.87 2109.92,-201.39"/>
<polygon fill="midnightblue" stroke="midnightblue" points="1929.47,-242.35 1922.68,-250.49 1933.06,-248.36 1929.47,-242.35"/>
</g>
<!-- Node5 -->
<g id="node5" class="node">
<title>Node5</title>
<g id="a_node5"><a xlink:href="class_j_k_q_t_base_plotter.html" target="_top" xlink:title="base class for 2D plotter classes (used by the plotter widget JKQTPlotter)">
<polygon fill="none" stroke="black" points="2151.5,-347.5 2151.5,-368.5 2265.5,-368.5 2265.5,-347.5 2151.5,-347.5"/>
<text text-anchor="middle" x="2208.5" y="-354.9" font-family="Helvetica,sans-Serif" font-size="12.00">JKQTBasePlotter</text>
</a>
</g>
</g>
<!-- Node2&#45;&gt;Node5 -->
<g id="edge30" class="edge">
<title>Node2&#45;&gt;Node5</title>
<path fill="none" stroke="#9a32cd" stroke-dasharray="5,2" d="M1974.52,-273.4C2018.16,-281.72 2070.53,-292.49 2092,-300 2128.43,-312.74 2168.05,-334.54 2190.12,-347.48"/>
<polygon fill="#9a32cd" stroke="#9a32cd" points="1974.98,-269.93 1964.5,-271.5 1973.67,-276.8 1974.98,-269.93"/>
<text text-anchor="middle" x="2043.5" y="-303.4" font-family="Helvetica,sans-Serif" font-size="12.00"> yAxis</text>
</g>
<!-- Node3 -->
<g id="node3" class="node">
<title>Node3</title>
<g id="a_node3"><a xlink:href="class_j_k_q_t_p_coordinate_axis.html" target="_top" xlink:title="this virtual class is the base for any type of coordinate axis, to be drawn by JKQTBasePlotter.">
<polygon fill="none" stroke="black" points="2492.5,-285.5 2492.5,-306.5 2634.5,-306.5 2634.5,-285.5 2492.5,-285.5"/>
<text text-anchor="middle" x="2563.5" y="-292.9" font-family="Helvetica,sans-Serif" font-size="12.00">JKQTPCoordinateAxis</text>
</a>
</g>
</g>
<!-- Node3&#45;&gt;Node2 -->
<g id="edge2" class="edge">
<title>Node3&#45;&gt;Node2</title>
<path fill="none" stroke="midnightblue" d="M2482.36,-286.12C2467.62,-284.55 2452.36,-283.09 2438,-282 2267.42,-269.06 2065.4,-263.85 1966.76,-261.96"/>
<polygon fill="midnightblue" stroke="midnightblue" points="2482.14,-289.62 2492.46,-287.22 2482.9,-282.66 2482.14,-289.62"/>
</g>
<!-- Node20 -->
<g id="node20" class="node">
<title>Node20</title>
<g id="a_node20"><a xlink:href="class_j_k_q_t_p_horizontal_axis.html" target="_top" xlink:title="implements a horizontal axis, based on JKQTPCoordinateAxis (for most of documentation: see JKQTPCoord...">
<polygon fill="none" stroke="black" points="2708,-315.5 2708,-336.5 2845,-336.5 2845,-315.5 2708,-315.5"/>
<text text-anchor="middle" x="2776.5" y="-322.9" font-family="Helvetica,sans-Serif" font-size="12.00">JKQTPHorizontalAxis</text>
</a>
</g>
</g>
<!-- Node3&#45;&gt;Node20 -->
<g id="edge29" class="edge">
<title>Node3&#45;&gt;Node20</title>
<path fill="none" stroke="midnightblue" d="M2644.81,-307.42C2665.55,-310.37 2687.67,-313.51 2707.7,-316.36"/>
<polygon fill="midnightblue" stroke="midnightblue" points="2645.15,-303.93 2634.76,-305.99 2644.17,-310.86 2645.15,-303.93"/>
</g>
<!-- Node4 -->
<g id="node4" class="node">
<title>Node4</title>
<g id="a_node4"><a xlink:title=" ">
<polygon fill="none" stroke="black" points="1531.5,-376.5 1531.5,-397.5 1596.5,-397.5 1596.5,-376.5 1531.5,-376.5"/>
<text text-anchor="middle" x="1564" y="-383.9" font-family="Helvetica,sans-Serif" font-size="12.00">QObject</text>
</a>
</g>
</g>
<!-- Node4&#45;&gt;Node3 -->
<g id="edge3" class="edge">
<title>Node4&#45;&gt;Node3</title>
<path fill="none" stroke="midnightblue" d="M1606.74,-382.01C1683.54,-372.9 1852.4,-353.22 1995,-339 2141.5,-324.39 2178.16,-320.78 2325,-310 2381.23,-305.87 2445.02,-302.17 2492.32,-299.61"/>
<polygon fill="midnightblue" stroke="midnightblue" points="1606.05,-378.57 1596.53,-383.22 1606.88,-385.52 1606.05,-378.57"/>
</g>
<!-- Node4&#45;&gt;Node5 -->
<g id="edge5" class="edge">
<title>Node4&#45;&gt;Node5</title>
<path fill="none" stroke="midnightblue" d="M1607.08,-385.1C1719.04,-380.05 2024.3,-366.27 2151.11,-360.55"/>
<polygon fill="midnightblue" stroke="midnightblue" points="1606.69,-381.61 1596.86,-385.56 1607.01,-388.61 1606.69,-381.61"/>
</g>
<!-- Node16 -->
<g id="node16" class="node">
<title>Node16</title>
<g id="a_node16"><a xlink:href="class_j_k_q_t_math_text.html" target="_top" xlink:title="this class parses a mathematical markup string and can then draw the contained text/equation onto a Q...">
<polygon fill="none" stroke="black" points="1856,-430.5 1856,-451.5 1955,-451.5 1955,-430.5 1856,-430.5"/>
<text text-anchor="middle" x="1905.5" y="-437.9" font-family="Helvetica,sans-Serif" font-size="12.00">JKQTMathText</text>
</a>
</g>
</g>
<!-- Node4&#45;&gt;Node16 -->
<g id="edge21" class="edge">
<title>Node4&#45;&gt;Node16</title>
<path fill="none" stroke="midnightblue" d="M1606.61,-393.62C1669.58,-403.63 1788.82,-422.6 1855.76,-433.25"/>
<polygon fill="midnightblue" stroke="midnightblue" points="1607.06,-390.15 1596.63,-392.03 1605.96,-397.06 1607.06,-390.15"/>
</g>
<!-- Node5&#45;&gt;Node3 -->
<g id="edge4" class="edge">
<title>Node5&#45;&gt;Node3</title>
<path fill="none" stroke="#9a32cd" stroke-dasharray="5,2" d="M2258.57,-345.01C2279.02,-339.88 2303.06,-334.22 2325,-330 2380.94,-319.24 2444.88,-310.28 2492.32,-304.26"/>
<polygon fill="#9a32cd" stroke="#9a32cd" points="2257.69,-341.62 2248.85,-347.47 2259.41,-348.41 2257.69,-341.62"/>
<text text-anchor="middle" x="2381.5" y="-333.4" font-family="Helvetica,sans-Serif" font-size="12.00"> parent</text>
</g>
<!-- Node5&#45;&gt;Node5 -->
<g id="edge37" class="edge">
<title>Node5&#45;&gt;Node5</title>
<path fill="none" stroke="#9a32cd" stroke-dasharray="5,2" d="M2177.98,-377.68C2179.62,-382.97 2189.79,-387 2208.5,-387 2237.01,-387 2245.69,-377.65 2234.56,-368.71"/>
<polygon fill="#9a32cd" stroke="#9a32cd" points="2181.13,-379.22 2182.44,-368.71 2174.86,-376.11 2181.13,-379.22"/>
<text text-anchor="middle" x="2208.5" y="-403.4" font-family="Helvetica,sans-Serif" font-size="12.00"> masterPlotterX</text>
<text text-anchor="middle" x="2208.5" y="-390.4" font-family="Helvetica,sans-Serif" font-size="12.00">masterPlotterY</text>
</g>
<!-- Node18 -->
<g id="node18" class="node">
<title>Node18</title>
<g id="a_node18"><a xlink:href="class_j_k_q_t_p_graphs_model.html" target="_top" xlink:title="data model with all plots ina JKQTBasePlotter (+ allows to switch them visible/invisible)">
<polygon fill="none" stroke="black" points="2498,-415.5 2498,-436.5 2629,-436.5 2629,-415.5 2498,-415.5"/>
<text text-anchor="middle" x="2563.5" y="-422.9" font-family="Helvetica,sans-Serif" font-size="12.00">JKQTPGraphsModel</text>
</a>
</g>
</g>
<!-- Node5&#45;&gt;Node18 -->
<g id="edge27" class="edge">
<title>Node5&#45;&gt;Node18</title>
<path fill="none" stroke="#9a32cd" stroke-dasharray="5,2" d="M2275.97,-363.3C2321.85,-367.72 2384.06,-375.23 2438,-387 2471.42,-394.29 2508.73,-406.55 2533.71,-415.38"/>
<polygon fill="#9a32cd" stroke="#9a32cd" points="2276.13,-359.8 2265.85,-362.35 2275.48,-366.77 2276.13,-359.8"/>
<text text-anchor="middle" x="2381.5" y="-390.4" font-family="Helvetica,sans-Serif" font-size="12.00"> m_plotter</text>
</g>
<!-- Node6 -->
<g id="node6" class="node">
<title>Node6</title>
<g id="a_node6"><a xlink:href="class_j_k_q_t_base_plotter_style.html" target="_top" xlink:title="Support Class for JKQTBasePlotter, which summarizes all properties that define the visual styling of ...">
<polygon fill="none" stroke="black" points="1834,-290.5 1834,-311.5 1977,-311.5 1977,-290.5 1834,-290.5"/>
<text text-anchor="middle" x="1905.5" y="-297.9" font-family="Helvetica,sans-Serif" font-size="12.00">JKQTBasePlotterStyle</text>
</a>
</g>
</g>
<!-- Node6&#45;&gt;Node5 -->
<g id="edge6" class="edge">
<title>Node6&#45;&gt;Node5</title>
<path fill="none" stroke="#9a32cd" stroke-dasharray="5,2" d="M1972.18,-313.44C2025.96,-323.62 2101.21,-337.87 2152.01,-347.49"/>
<polygon fill="#9a32cd" stroke="#9a32cd" points="1972.54,-309.94 1962.06,-311.52 1971.23,-316.82 1972.54,-309.94"/>
<text text-anchor="middle" x="2043.5" y="-337.4" font-family="Helvetica,sans-Serif" font-size="12.00"> plotterStyle</text>
</g>
<!-- Node7 -->
<g id="node7" class="node">
<title>Node7</title>
<g id="a_node7"><a xlink:href="class_j_k_q_t_p_key_style.html" target="_top" xlink:title="Support Class for JKQTBasePlotter, which summarizes all properties that define the visual styling of ...">
<polygon fill="none" stroke="black" points="1512,-287.5 1512,-308.5 1616,-308.5 1616,-287.5 1512,-287.5"/>
<text text-anchor="middle" x="1564" y="-294.9" font-family="Helvetica,sans-Serif" font-size="12.00">JKQTPKeyStyle</text>
</a>
</g>
</g>
<!-- Node7&#45;&gt;Node6 -->
<g id="edge7" class="edge">
<title>Node7&#45;&gt;Node6</title>
<path fill="none" stroke="#9a32cd" stroke-dasharray="5,2" d="M1626.6,-297.93C1677.41,-297.94 1751.39,-298.14 1816,-299 1821.84,-299.08 1827.9,-299.18 1833.97,-299.29"/>
<polygon fill="#9a32cd" stroke="#9a32cd" points="1626.44,-294.43 1616.44,-297.93 1626.44,-301.43 1626.44,-294.43"/>
<text text-anchor="middle" x="1747.5" y="-302.4" font-family="Helvetica,sans-Serif" font-size="12.00"> keyStyle</text>
</g>
<!-- Node8 -->
<g id="node8" class="node">
<title>Node8</title>
<g id="a_node8"><a xlink:href="class_j_k_q_t_p_coordinate_axis_style.html" target="_top" xlink:title="Support Class for JKQTPCoordinateAxis, which summarizes all properties that define the visual styling...">
<polygon fill="none" stroke="black" points="1152,-178.5 1152,-199.5 1323,-199.5 1323,-178.5 1152,-178.5"/>
<text text-anchor="middle" x="1237.5" y="-185.9" font-family="Helvetica,sans-Serif" font-size="12.00">JKQTPCoordinateAxisStyle</text>
</a>
</g>
</g>
<!-- Node8&#45;&gt;Node3 -->
<g id="edge38" class="edge">
<title>Node8&#45;&gt;Node3</title>
<path fill="none" stroke="#9a32cd" stroke-dasharray="5,2" d="M1293.82,-176.32C1358.14,-162.7 1467.67,-143 1563,-143 1563,-143 1563,-143 2209.5,-143 2353.11,-143 2504.48,-250.92 2549.29,-285.48"/>
<polygon fill="#9a32cd" stroke="#9a32cd" points="1292.93,-172.93 1283.89,-178.45 1294.4,-179.77 1292.93,-172.93"/>
<text text-anchor="middle" x="1905.5" y="-146.4" font-family="Helvetica,sans-Serif" font-size="12.00"> axisStyle</text>
</g>
<!-- Node8&#45;&gt;Node6 -->
<g id="edge8" class="edge">
<title>Node8&#45;&gt;Node6</title>
<path fill="none" stroke="#9a32cd" stroke-dasharray="5,2" d="M1333.22,-184.76C1478.15,-180.33 1745.56,-180.91 1816,-241 1830.83,-253.65 1819.24,-268.26 1834,-281 1838.43,-284.82 1843.54,-287.92 1848.95,-290.43"/>
<polygon fill="#9a32cd" stroke="#9a32cd" points="1332.89,-181.27 1323,-185.09 1333.11,-188.26 1332.89,-181.27"/>
<text text-anchor="middle" x="1564" y="-209.4" font-family="Helvetica,sans-Serif" font-size="12.00"> xAxisStyle</text>
<text text-anchor="middle" x="1564" y="-196.4" font-family="Helvetica,sans-Serif" font-size="12.00">yAxisStyle</text>
</g>
<!-- Node10 -->
<g id="node10" class="node">
<title>Node10</title>
<g id="a_node10"><a xlink:href="class_j_k_q_t_p_colorbar_coordinate_axis_style.html" target="_top" xlink:title="Support Class for JKQTPCoordinateAxis, which summarizes all properties that define the visual styling...">
<polygon fill="none" stroke="black" points="1467,-234 1467,-268 1661,-268 1661,-234 1467,-234"/>
<text text-anchor="start" x="1475" y="-254.4" font-family="Helvetica,sans-Serif" font-size="12.00">JKQTPColorbarCoordinateAxis</text>
<text text-anchor="middle" x="1564" y="-241.4" font-family="Helvetica,sans-Serif" font-size="12.00">Style</text>
</a>
</g>
</g>
<!-- Node8&#45;&gt;Node10 -->
<g id="edge11" class="edge">
<title>Node8&#45;&gt;Node10</title>
<path fill="none" stroke="midnightblue" d="M1303.38,-201.4C1352.3,-210.74 1419.96,-223.67 1473.94,-233.98"/>
<polygon fill="midnightblue" stroke="midnightblue" points="1304.03,-197.96 1293.55,-199.52 1302.71,-204.83 1304.03,-197.96"/>
</g>
<!-- Node9 -->
<g id="node9" class="node">
<title>Node9</title>
<g id="a_node9"><a xlink:href="class_j_k_q_t_p_grid_style.html" target="_top" xlink:title="Support Class for JKQTPCoordinateAxis, and summarizes all properties that define the visual styling o...">
<polygon fill="none" stroke="black" points="851.5,-178.5 851.5,-199.5 958.5,-199.5 958.5,-178.5 851.5,-178.5"/>
<text text-anchor="middle" x="905" y="-185.9" font-family="Helvetica,sans-Serif" font-size="12.00">JKQTPGridStyle</text>
</a>
</g>
</g>
<!-- Node9&#45;&gt;Node8 -->
<g id="edge9" class="edge">
<title>Node9&#45;&gt;Node8</title>
<path fill="none" stroke="#9a32cd" stroke-dasharray="5,2" d="M968.79,-189C1020.62,-189 1094.66,-189 1151.74,-189"/>
<polygon fill="#9a32cd" stroke="#9a32cd" points="968.73,-185.5 958.73,-189 968.73,-192.5 968.73,-185.5"/>
<text text-anchor="middle" x="1069.5" y="-205.4" font-family="Helvetica,sans-Serif" font-size="12.00"> majorGridStyle</text>
<text text-anchor="middle" x="1069.5" y="-192.4" font-family="Helvetica,sans-Serif" font-size="12.00">minorGridStyle</text>
</g>
<!-- Node10&#45;&gt;Node6 -->
<g id="edge10" class="edge">
<title>Node10&#45;&gt;Node6</title>
<path fill="none" stroke="#9a32cd" stroke-dasharray="5,2" d="M1671.35,-245.33C1717.06,-246.14 1770.36,-251.52 1816,-268 1825.28,-271.35 1825.12,-276.7 1834,-281 1841.67,-284.72 1850.16,-287.86 1858.5,-290.47"/>
<polygon fill="#9a32cd" stroke="#9a32cd" points="1671.15,-241.83 1661.11,-245.23 1671.08,-248.83 1671.15,-241.83"/>
<text text-anchor="middle" x="1747.5" y="-284.4" font-family="Helvetica,sans-Serif" font-size="12.00"> rightColorbarAxisStyle</text>
<text text-anchor="middle" x="1747.5" y="-271.4" font-family="Helvetica,sans-Serif" font-size="12.00">topColorbarAxisStyle</text>
</g>
<!-- Node11 -->
<g id="node11" class="node">
<title>Node11</title>
<g id="a_node11"><a xlink:href="class_j_k_q_t_graphs_base_style.html" target="_top" xlink:title="Support Class for JKQTBasePlotter, which summarizes all properties that define the visual styling of ...">
<polygon fill="none" stroke="black" points="1491,-327.5 1491,-348.5 1637,-348.5 1637,-327.5 1491,-327.5"/>
<text text-anchor="middle" x="1564" y="-334.9" font-family="Helvetica,sans-Serif" font-size="12.00">JKQTGraphsBaseStyle</text>
</a>
</g>
</g>
<!-- Node11&#45;&gt;Node6 -->
<g id="edge12" class="edge">
<title>Node11&#45;&gt;Node6</title>
<path fill="none" stroke="#9a32cd" stroke-dasharray="5,2" d="M1647.49,-329.88C1696.49,-324.96 1759.82,-318.4 1816,-312 1821.85,-311.33 1827.91,-310.62 1833.99,-309.9"/>
<polygon fill="#9a32cd" stroke="#9a32cd" points="1646.86,-326.43 1637.26,-330.91 1647.56,-333.39 1646.86,-326.43"/>
<text text-anchor="middle" x="1747.5" y="-329.4" font-family="Helvetica,sans-Serif" font-size="12.00"> graphsStyle</text>
</g>
<!-- Node12 -->
<g id="node12" class="node">
<title>Node12</title>
<g id="a_node12"><a xlink:href="class_j_k_q_t_graphs_specific_style_properties.html" target="_top" xlink:title="Support Class for JKQTBasePlotter, which summarizes all properties that define the visual styling of ...">
<polygon fill="none" stroke="black" points="399,-327.5 399,-348.5 623,-348.5 623,-327.5 399,-327.5"/>
<text text-anchor="middle" x="511" y="-334.9" font-family="Helvetica,sans-Serif" font-size="12.00">JKQTGraphsSpecificStyleProperties</text>
</a>
</g>
</g>
<!-- Node12&#45;&gt;Node11 -->
<g id="edge13" class="edge">
<title>Node12&#45;&gt;Node11</title>
<path fill="none" stroke="#9a32cd" stroke-dasharray="5,2" d="M633.8,-338C854.33,-338 1313.34,-338 1490.79,-338"/>
<polygon fill="#9a32cd" stroke="#9a32cd" points="633.48,-334.5 623.48,-338 633.48,-341.5 633.48,-334.5"/>
<text text-anchor="middle" x="1069.5" y="-393.4" font-family="Helvetica,sans-Serif" font-size="12.00"> barchartStyle</text>
<text text-anchor="middle" x="1069.5" y="-380.4" font-family="Helvetica,sans-Serif" font-size="12.00">boxplotStyle</text>
<text text-anchor="middle" x="1069.5" y="-367.4" font-family="Helvetica,sans-Serif" font-size="12.00">defaultGraphStyle</text>
<text text-anchor="middle" x="1069.5" y="-354.4" font-family="Helvetica,sans-Serif" font-size="12.00">filledStyle</text>
<text text-anchor="middle" x="1069.5" y="-341.4" font-family="Helvetica,sans-Serif" font-size="12.00">impulseStyle</text>
</g>
<!-- Node14 -->
<g id="node14" class="node">
<title>Node14</title>
<g id="a_node14"><a xlink:href="class_j_k_q_t_geometric_specific_style_properties.html" target="_top" xlink:title="Support Class for JKQTBasePlotter, which summarizes all properties that define the visual styling of ...">
<polygon fill="none" stroke="black" points="813,-275 813,-309 997,-309 997,-275 813,-275"/>
<text text-anchor="start" x="821" y="-295.4" font-family="Helvetica,sans-Serif" font-size="12.00">JKQTGeometricSpecificStyle</text>
<text text-anchor="middle" x="905" y="-282.4" font-family="Helvetica,sans-Serif" font-size="12.00">Properties</text>
</a>
</g>
</g>
<!-- Node12&#45;&gt;Node14 -->
<g id="edge16" class="edge">
<title>Node12&#45;&gt;Node14</title>
<path fill="none" stroke="midnightblue" d="M612.1,-326.25C673.94,-319 752.68,-309.76 812.79,-302.7"/>
<polygon fill="midnightblue" stroke="midnightblue" points="611.46,-322.8 601.93,-327.45 612.27,-329.76 611.46,-322.8"/>
</g>
<!-- Node13 -->
<g id="node13" class="node">
<title>Node13</title>
<g id="a_node13"><a xlink:href="struct_j_k_q_t_p_color_derivation_mode.html" target="_top" xlink:title="Specifies how a fill&#45;color is derived from a given color.">
<polygon fill="none" stroke="black" points="0,-380.5 0,-401.5 179,-401.5 179,-380.5 0,-380.5"/>
<text text-anchor="middle" x="89.5" y="-387.9" font-family="Helvetica,sans-Serif" font-size="12.00">JKQTPColorDerivationMode</text>
</a>
</g>
</g>
<!-- Node13&#45;&gt;Node12 -->
<g id="edge14" class="edge">
<title>Node13&#45;&gt;Node12</title>
<path fill="none" stroke="#9a32cd" stroke-dasharray="5,2" d="M135.94,-377.72C154.69,-372.7 176.75,-367.38 197,-364 263.55,-352.88 338.9,-346.43 398.99,-342.74"/>
<polygon fill="#9a32cd" stroke="#9a32cd" points="134.9,-374.37 126.17,-380.38 136.74,-381.13 134.9,-374.37"/>
<text text-anchor="middle" x="289" y="-419.4" font-family="Helvetica,sans-Serif" font-size="12.00"> errorColorDerivationMode</text>
<text text-anchor="middle" x="289" y="-406.4" font-family="Helvetica,sans-Serif" font-size="12.00">errorFillColorDerivationMode</text>
<text text-anchor="middle" x="289" y="-393.4" font-family="Helvetica,sans-Serif" font-size="12.00">fillColorDerivationMode</text>
<text text-anchor="middle" x="289" y="-380.4" font-family="Helvetica,sans-Serif" font-size="12.00">graphColorDerivationMode</text>
<text text-anchor="middle" x="289" y="-367.4" font-family="Helvetica,sans-Serif" font-size="12.00">symbolFillColorDerivationMode</text>
</g>
<!-- Node15 -->
<g id="node15" class="node">
<title>Node15</title>
<g id="a_node15"><a xlink:href="class_j_k_q_t_annotations_specific_style_properties.html" target="_top" xlink:title="Support Class for JKQTBasePlotter, which summarizes all properties that define the visual styling of ...">
<polygon fill="none" stroke="black" points="1142,-401 1142,-435 1333,-435 1333,-401 1142,-401"/>
<text text-anchor="start" x="1150" y="-421.4" font-family="Helvetica,sans-Serif" font-size="12.00">JKQTAnnotationsSpecificStyle</text>
<text text-anchor="middle" x="1237.5" y="-408.4" font-family="Helvetica,sans-Serif" font-size="12.00">Properties</text>
</a>
</g>
</g>
<!-- Node13&#45;&gt;Node15 -->
<g id="edge19" class="edge">
<title>Node13&#45;&gt;Node15</title>
<path fill="none" stroke="#9a32cd" stroke-dasharray="5,2" d="M122.44,-405.65C143.19,-414.34 171.12,-424.52 197,-429 540.67,-488.48 957.83,-451.89 1141.7,-430.38"/>
<polygon fill="#9a32cd" stroke="#9a32cd" points="123.72,-402.39 113.15,-401.65 120.96,-408.82 123.72,-402.39"/>
<text text-anchor="middle" x="718" y="-464.4" font-family="Helvetica,sans-Serif" font-size="12.00"> textColorDerivationMode</text>
</g>
<!-- Node14&#45;&gt;Node11 -->
<g id="edge15" class="edge">
<title>Node14&#45;&gt;Node11</title>
<path fill="none" stroke="#9a32cd" stroke-dasharray="5,2" d="M1007.41,-294.6C1094,-297.27 1221.81,-302.31 1333,-311 1384.72,-315.04 1397.48,-317.95 1449,-324 1462.57,-325.59 1477.03,-327.34 1490.95,-329.03"/>
<polygon fill="#9a32cd" stroke="#9a32cd" points="1007.42,-291.09 997.32,-294.29 1007.21,-298.09 1007.42,-291.09"/>
<text text-anchor="middle" x="1237.5" y="-314.4" font-family="Helvetica,sans-Serif" font-size="12.00"> geometricStyle</text>
</g>
<!-- Node14&#45;&gt;Node15 -->
<g id="edge18" class="edge">
<title>Node14&#45;&gt;Node15</title>
<path fill="none" stroke="midnightblue" d="M922.31,-317.59C941.04,-344.47 974.47,-385.36 1015,-404 1054.03,-421.95 1101.08,-426.92 1141.76,-426.81"/>
<polygon fill="midnightblue" stroke="midnightblue" points="925.04,-315.38 916.53,-309.07 919.24,-319.31 925.04,-315.38"/>
</g>
<!-- Node15&#45;&gt;Node11 -->
<g id="edge17" class="edge">
<title>Node15&#45;&gt;Node11</title>
<path fill="none" stroke="#9a32cd" stroke-dasharray="5,2" d="M1317.75,-398.46C1381.56,-382.73 1468.81,-361.22 1520.21,-348.55"/>
<polygon fill="#9a32cd" stroke="#9a32cd" points="1316.59,-395.14 1307.72,-400.94 1318.26,-401.94 1316.59,-395.14"/>
<text text-anchor="middle" x="1400" y="-392.4" font-family="Helvetica,sans-Serif" font-size="12.00"> annotationStyle</text>
</g>
<!-- Node16&#45;&gt;Node5 -->
<g id="edge20" class="edge">
<title>Node16&#45;&gt;Node5</title>
<path fill="none" stroke="#9a32cd" stroke-dasharray="5,2" d="M1965.32,-429.03C2002,-421.15 2050.04,-410.09 2092,-398 2122.38,-389.24 2156.52,-377.13 2179.76,-368.53"/>
<polygon fill="#9a32cd" stroke="#9a32cd" points="1964.34,-425.66 1955.29,-431.16 1965.8,-432.5 1964.34,-425.66"/>
<text text-anchor="middle" x="2043.5" y="-425.4" font-family="Helvetica,sans-Serif" font-size="12.00"> mathText</text>
</g>
<!-- Node17 -->
<g id="node17" class="node">
<title>Node17</title>
<g id="a_node17"><a xlink:href="class_j_k_q_t_math_text_node.html" target="_top" xlink:title="subclass representing one node in the syntax tree">
<polygon fill="none" stroke="black" points="2143,-483.5 2143,-504.5 2274,-504.5 2274,-483.5 2143,-483.5"/>
<text text-anchor="middle" x="2208.5" y="-490.9" font-family="Helvetica,sans-Serif" font-size="12.00">JKQTMathTextNode</text>
</a>
</g>
</g>
<!-- Node16&#45;&gt;Node17 -->
<g id="edge23" class="edge">
<title>Node16&#45;&gt;Node17</title>
<path fill="none" stroke="#9a32cd" stroke-dasharray="5,2" d="M1965.16,-439.9C2011.01,-439.94 2070.46,-442.24 2092,-453 2103,-458.49 2099.41,-467.76 2110,-474 2119.98,-479.88 2131.41,-484.04 2142.85,-487"/>
<polygon fill="#9a32cd" stroke="#9a32cd" points="1965,-436.4 1955.01,-439.93 1965.02,-443.4 1965,-436.4"/>
<text text-anchor="middle" x="2043.5" y="-456.4" font-family="Helvetica,sans-Serif" font-size="12.00"> parentMathText</text>
</g>
<!-- Node17&#45;&gt;Node16 -->
<g id="edge22" class="edge">
<title>Node17&#45;&gt;Node16</title>
<path fill="none" stroke="#9a32cd" stroke-dasharray="5,2" d="M2132.6,-489.29C2091.62,-485.78 2040.15,-479.84 1995,-470 1974.15,-465.46 1951.27,-457.89 1934,-451.62"/>
<polygon fill="#9a32cd" stroke="#9a32cd" points="2132.52,-492.8 2142.78,-490.14 2133.1,-485.82 2132.52,-492.8"/>
<text text-anchor="middle" x="2043.5" y="-487.4" font-family="Helvetica,sans-Serif" font-size="12.00"> parsedNode</text>
</g>
<!-- Node17&#45;&gt;Node17 -->
<g id="edge24" class="edge">
<title>Node17&#45;&gt;Node17</title>
<path fill="none" stroke="#9a32cd" stroke-dasharray="5,2" d="M2177.98,-513.68C2179.62,-518.97 2189.79,-523 2208.5,-523 2237.01,-523 2245.69,-513.65 2234.56,-504.71"/>
<polygon fill="#9a32cd" stroke="#9a32cd" points="2181.13,-515.22 2182.44,-504.71 2174.86,-512.11 2181.13,-515.22"/>
<text text-anchor="middle" x="2208.5" y="-526.4" font-family="Helvetica,sans-Serif" font-size="12.00"> parentNode</text>
</g>
<!-- Node18&#45;&gt;Node5 -->
<g id="edge25" class="edge">
<title>Node18&#45;&gt;Node5</title>
<path fill="none" stroke="#9a32cd" stroke-dasharray="5,2" d="M2487.78,-424.55C2440.56,-422.3 2378.55,-416.86 2325,-404 2290.79,-395.78 2253.32,-379.38 2230.61,-368.55"/>
<polygon fill="#9a32cd" stroke="#9a32cd" points="2487.79,-428.05 2497.93,-425 2488.09,-421.06 2487.79,-428.05"/>
<text text-anchor="middle" x="2381.5" y="-423.4" font-family="Helvetica,sans-Serif" font-size="12.00"> m_plotsModel</text>
</g>
<!-- Node19 -->
<g id="node19" class="node">
<title>Node19</title>
<g id="a_node19"><a xlink:title=" ">
<polygon fill="none" stroke="black" points="2137,-443.5 2137,-464.5 2280,-464.5 2280,-443.5 2137,-443.5"/>
<text text-anchor="middle" x="2208.5" y="-450.9" font-family="Helvetica,sans-Serif" font-size="12.00">QAbstractTableModel</text>
</a>
</g>
</g>
<!-- Node19&#45;&gt;Node18 -->
<g id="edge26" class="edge">
<title>Node19&#45;&gt;Node18</title>
<path fill="none" stroke="midnightblue" d="M2290.1,-450.06C2333.89,-447.67 2388.96,-444.26 2438,-440 2457.5,-438.31 2478.68,-436.07 2497.94,-433.89"/>
<polygon fill="midnightblue" stroke="midnightblue" points="2289.88,-446.57 2280.08,-450.6 2290.25,-453.56 2289.88,-446.57"/>
</g>
<!-- Node20&#45;&gt;Node5 -->
<g id="edge28" class="edge">
<title>Node20&#45;&gt;Node5</title>
<path fill="none" stroke="#9a32cd" stroke-dasharray="5,2" d="M2697.34,-330.42C2581.52,-336.97 2367.1,-349.09 2265.58,-354.83"/>
<polygon fill="#9a32cd" stroke="#9a32cd" points="2697.77,-333.9 2707.55,-329.84 2697.37,-326.91 2697.77,-333.9"/>
<text text-anchor="middle" x="2563.5" y="-347.4" font-family="Helvetica,sans-Serif" font-size="12.00"> xAxis</text>
</g>
<!-- Node21 -->
<g id="node21" class="node">
<title>Node21</title>
<g id="a_node21"><a xlink:href="class_j_k_q_t_p_datastore.html" target="_top" xlink:title="This class manages data columns (with entries of type double ), used by JKQTPlotter/JKQTBasePlotter t...">
<polygon fill="none" stroke="black" points="1850,-85.5 1850,-106.5 1961,-106.5 1961,-85.5 1850,-85.5"/>
<text text-anchor="middle" x="1905.5" y="-92.9" font-family="Helvetica,sans-Serif" font-size="12.00">JKQTPDatastore</text>
</a>
</g>
</g>
<!-- Node21&#45;&gt;Node5 -->
<g id="edge31" class="edge">
<title>Node21&#45;&gt;Node5</title>
<path fill="none" stroke="#9a32cd" stroke-dasharray="5,2" d="M1955.75,-110.17C1963.14,-113.22 1970.47,-116.81 1977,-121 2081.37,-187.91 2173.71,-310.63 2200.02,-347.35"/>
<polygon fill="#9a32cd" stroke="#9a32cd" points="1957,-106.89 1946.41,-106.59 1954.49,-113.43 1957,-106.89"/>
<text text-anchor="middle" x="2043.5" y="-216.4" font-family="Helvetica,sans-Serif" font-size="12.00"> datastore</text>
</g>
<!-- Node23 -->
<g id="node23" class="node">
<title>Node23</title>
<g id="a_node23"><a xlink:href="class_j_k_q_t_p_column.html" target="_top" xlink:title="internally stores information about one data column. See JKQTPDatastore for more information.">
<polygon fill="none" stroke="black" points="2159.5,-89.5 2159.5,-110.5 2257.5,-110.5 2257.5,-89.5 2159.5,-89.5"/>
<text text-anchor="middle" x="2208.5" y="-96.9" font-family="Helvetica,sans-Serif" font-size="12.00">JKQTPColumn</text>
</a>
</g>
</g>
<!-- Node21&#45;&gt;Node23 -->
<g id="edge34" class="edge">
<title>Node21&#45;&gt;Node23</title>
<path fill="none" stroke="#9a32cd" stroke-dasharray="5,2" d="M1971.26,-96.86C2027.75,-97.61 2108.42,-98.68 2159.36,-99.36"/>
<polygon fill="#9a32cd" stroke="#9a32cd" points="1971.05,-93.36 1961.01,-96.72 1970.96,-100.36 1971.05,-93.36"/>
<text text-anchor="middle" x="2043.5" y="-101.4" font-family="Helvetica,sans-Serif" font-size="12.00"> datastore</text>
</g>
<!-- Node22 -->
<g id="node22" class="node">
<title>Node22</title>
<g id="a_node22"><a xlink:title=" ">
<polygon fill="none" stroke="black" points="2456,-47.5 2456,-68.5 2671,-68.5 2671,-47.5 2456,-47.5"/>
<text text-anchor="middle" x="2563.5" y="-54.9" font-family="Helvetica,sans-Serif" font-size="12.00">std::unique_ptr&lt; JKQTPColumn &gt;</text>
</a>
</g>
</g>
<!-- Node22&#45;&gt;Node21 -->
<g id="edge32" class="edge">
<title>Node22&#45;&gt;Node21</title>
<path fill="none" stroke="#9a32cd" stroke-dasharray="5,2" d="M2445.68,-56.43C2354.19,-56.14 2223.8,-57.79 2110,-67 2059.31,-71.1 2002,-79.62 1961.14,-86.37"/>
<polygon fill="#9a32cd" stroke="#9a32cd" points="2445.79,-59.93 2455.8,-56.47 2445.82,-52.93 2445.79,-59.93"/>
<text text-anchor="middle" x="2208.5" y="-70.4" font-family="Helvetica,sans-Serif" font-size="12.00"> m_invalidColumn</text>
</g>
<!-- Node23&#45;&gt;Node22 -->
<g id="edge33" class="edge">
<title>Node23&#45;&gt;Node22</title>
<path fill="none" stroke="#9a32cd" stroke-dasharray="5,2" d="M2267.97,-93.04C2324.08,-86.37 2409.58,-76.19 2474.03,-68.53"/>
<polygon fill="#9a32cd" stroke="#9a32cd" points="2267.36,-89.59 2257.84,-94.25 2268.19,-96.54 2267.36,-89.59"/>
<text text-anchor="middle" x="2381.5" y="-88.4" font-family="Helvetica,sans-Serif" font-size="12.00"> ptr</text>
</g>
<!-- Node24 -->
<g id="node24" class="node">
<title>Node24</title>
<g id="a_node24"><a xlink:title=" ">
<polygon fill="none" stroke="black" points="2138.5,-0.5 2138.5,-21.5 2278.5,-21.5 2278.5,-0.5 2138.5,-0.5"/>
<text text-anchor="middle" x="2208.5" y="-7.9" font-family="Helvetica,sans-Serif" font-size="12.00">std::unique_ptr&lt; T &gt;</text>
</a>
</g>
</g>
<!-- Node24&#45;&gt;Node22 -->
<g id="edge35" class="edge">
<title>Node24&#45;&gt;Node22</title>
<path fill="none" stroke="orange" stroke-dasharray="5,2" d="M2288.6,-15.46C2332.73,-18.56 2388.6,-23.51 2438,-31 2465.66,-35.19 2496.39,-41.83 2520.39,-47.48"/>
<polygon fill="orange" stroke="orange" points="2288.73,-11.96 2278.51,-14.76 2288.25,-18.94 2288.73,-11.96"/>
<text text-anchor="middle" x="2381.5" y="-34.4" font-family="Helvetica,sans-Serif" font-size="12.00"> &lt; JKQTPColumn &gt;</text>
</g>
<!-- Node25 -->
<g id="node25" class="node">
<title>Node25</title>
<g id="a_node25"><a xlink:title=" ">
<polygon fill="none" stroke="black" points="1891,-0.5 1891,-21.5 1920,-21.5 1920,-0.5 1891,-0.5"/>
<text text-anchor="middle" x="1905.5" y="-7.9" font-family="Helvetica,sans-Serif" font-size="12.00">T</text>
</a>
</g>
</g>
<!-- Node25&#45;&gt;Node24 -->
<g id="edge36" class="edge">
<title>Node25&#45;&gt;Node24</title>
<path fill="none" stroke="#9a32cd" stroke-dasharray="5,2" d="M1930.33,-11C1974.78,-11 2071.86,-11 2138.46,-11"/>
<polygon fill="#9a32cd" stroke="#9a32cd" points="1930.22,-7.5 1920.22,-11 1930.22,-14.5 1930.22,-7.5"/>
<text text-anchor="middle" x="2043.5" y="-14.4" font-family="Helvetica,sans-Serif" font-size="12.00"> ptr</text>
</g>
</g>
</svg>
