<?xml version="1.0" encoding="UTF-8" standalone="no"?>
<!DOCTYPE svg PUBLIC "-//W3C//DTD SVG 1.1//EN"
 "http://www.w3.org/Graphics/SVG/1.1/DTD/svg11.dtd">
<!-- Generated by graphviz version 2.43.0 (0)
 -->
<!-- Title: JKQTMathTextInstruction1Node Pages: 1 -->
<svg width="411pt" height="173pt"
 viewBox="0.00 0.00 410.50 173.00" xmlns="http://www.w3.org/2000/svg" xmlns:xlink="http://www.w3.org/1999/xlink">
<g id="graph0" class="graph" transform="scale(1 1) rotate(0) translate(4 169)">
<title>JKQTMathTextInstruction1Node</title>
<!-- Node1 -->
<g id="node1" class="node">
<title>Node1</title>
<g id="a_node1"><a xlink:title="subclass representing an instruction node with exactly one argument and possibly additional parameter...">
<polygon fill="#bfbfbf" stroke="black" points="0,-0.5 0,-21.5 189,-21.5 189,-0.5 0,-0.5"/>
<text text-anchor="middle" x="94.5" y="-7.9" font-family="FreeSans" font-size="12.00">JKQTMathTextInstruction1Node</text>
</a>
</g>
</g>
<!-- Node2 -->
<g id="node2" class="node">
<title>Node2</title>
<g id="a_node2"><a xlink:href="class_j_k_q_t_math_text_single_child_node.html" target="_top" xlink:title="subclass representing a node in the syntax tree, that has one child">
<polygon fill="none" stroke="black" points="0.5,-59.5 0.5,-80.5 188.5,-80.5 188.5,-59.5 0.5,-59.5"/>
<text text-anchor="middle" x="94.5" y="-66.9" font-family="FreeSans" font-size="12.00">JKQTMathTextSingleChildNode</text>
</a>
</g>
</g>
<!-- Node2&#45;&gt;Node1 -->
<g id="edge1" class="edge">
<title>Node2&#45;&gt;Node1</title>
<path fill="none" stroke="midnightblue" d="M94.5,-49.23C94.5,-39.85 94.5,-29.07 94.5,-21.53"/>
<polygon fill="midnightblue" stroke="midnightblue" points="91,-49.33 94.5,-59.33 98,-49.33 91,-49.33"/>
</g>
<!-- Node3 -->
<g id="node3" class="node">
<title>Node3</title>
<g id="a_node3"><a xlink:href="class_j_k_q_t_math_text_node.html" target="_top" xlink:title="subclass representing one node in the syntax tree">
<polygon fill="none" stroke="black" points="75.5,-143.5 75.5,-164.5 203.5,-164.5 203.5,-143.5 75.5,-143.5"/>
<text text-anchor="middle" x="139.5" y="-150.9" font-family="FreeSans" font-size="12.00">JKQTMathTextNode</text>
</a>
</g>
</g>
<!-- Node3&#45;&gt;Node2 -->
<g id="edge2" class="edge">
<title>Node3&#45;&gt;Node2</title>
<path fill="none" stroke="midnightblue" d="M106.83,-137.65C102.31,-134.13 98.27,-129.94 95.5,-125 87.79,-111.26 89.77,-92.3 92.04,-80.89"/>
<polygon fill="midnightblue" stroke="midnightblue" points="105.06,-140.68 115.33,-143.28 108.93,-134.84 105.06,-140.68"/>
</g>
<!-- Node3&#45;&gt;Node2 -->
<g id="edge7" class="edge">
<title>Node3&#45;&gt;Node2</title>
<path fill="none" stroke="#9a32cd" stroke-dasharray="5,2" d="M123.01,-135.56C120.29,-132.2 117.66,-128.6 115.5,-125 106.82,-110.5 100.49,-91.78 97.16,-80.62"/>
<polygon fill="#9a32cd" stroke="#9a32cd" points="120.51,-138.02 129.72,-143.27 125.79,-133.43 120.51,-138.02"/>
<text text-anchor="middle" x="129.5" y="-108.9" font-family="FreeSans" font-size="12.00"> child</text>
</g>
<!-- Node3&#45;&gt;Node3 -->
<g id="edge6" class="edge">
<title>Node3&#45;&gt;Node3</title>
<path fill="none" stroke="#9a32cd" stroke-dasharray="5,2" d="M213.65,-159.62C218.54,-158.32 221.5,-156.44 221.5,-154 221.5,-150.19 214.29,-147.76 203.79,-146.71"/>
<polygon fill="#9a32cd" stroke="#9a32cd" points="213.07,-156.17 203.79,-161.29 214.23,-163.08 213.07,-156.17"/>
<text text-anchor="middle" x="255" y="-150.9" font-family="FreeSans" font-size="12.00"> parentNode</text>
</g>
<!-- Node4 -->
<g id="node4" class="node">
<title>Node4</title>
<g id="a_node4"><a xlink:href="class_j_k_q_t_math_text.html" target="_top" xlink:title="this class parses a LaTeX string and can then draw the contained text/equation onto a QPainter">
<polygon fill="none" stroke="black" points="219.5,-59.5 219.5,-80.5 317.5,-80.5 317.5,-59.5 219.5,-59.5"/>
<text text-anchor="middle" x="268.5" y="-66.9" font-family="FreeSans" font-size="12.00">JKQTMathText</text>
</a>
</g>
</g>
<!-- Node3&#45;&gt;Node4 -->
<g id="edge5" class="edge">
<title>Node3&#45;&gt;Node4</title>
<path fill="none" stroke="#9a32cd" stroke-dasharray="5,2" d="M143.31,-133.42C146.54,-121.85 152.34,-107.79 162.5,-99 171.32,-91.37 195.97,-84.63 219.28,-79.68"/>
<polygon fill="#9a32cd" stroke="#9a32cd" points="139.82,-132.96 140.94,-143.5 146.64,-134.57 139.82,-132.96"/>
<text text-anchor="middle" x="202.5" y="-115.4" font-family="FreeSans" font-size="12.00"> parsedNode</text>
<text text-anchor="middle" x="202.5" y="-102.4" font-family="FreeSans" font-size="12.00">unparsedNode</text>
</g>
<!-- Node4&#45;&gt;Node3 -->
<g id="edge3" class="edge">
<title>Node4&#45;&gt;Node3</title>
<path fill="none" stroke="#9a32cd" stroke-dasharray="5,2" d="M264.97,-90.97C261.94,-102.46 256.42,-116.3 246.5,-125 234.52,-135.51 219.06,-142.15 203.63,-146.32"/>
<polygon fill="#9a32cd" stroke="#9a32cd" points="268.45,-91.44 267.18,-80.92 261.62,-89.94 268.45,-91.44"/>
<text text-anchor="middle" x="305.5" y="-108.9" font-family="FreeSans" font-size="12.00"> parentMathText</text>
</g>
<!-- Node5 -->
<g id="node5" class="node">
<title>Node5</title>
<g id="a_node5"><a xlink:title=" ">
<polygon fill="none" stroke="black" points="340.5,-143.5 340.5,-164.5 402.5,-164.5 402.5,-143.5 340.5,-143.5"/>
<text text-anchor="middle" x="371.5" y="-150.9" font-family="FreeSans" font-size="12.00">QObject</text>
</a>
</g>
</g>
<!-- Node5&#45;&gt;Node4 -->
<g id="edge4" class="edge">
<title>Node5&#45;&gt;Node4</title>
<path fill="none" stroke="midnightblue" d="M370.94,-133C369.59,-121.7 366.11,-108.06 357.5,-99 347.01,-87.96 332.23,-81.25 317.71,-77.19"/>
<polygon fill="midnightblue" stroke="midnightblue" points="367.47,-133.55 371.67,-143.27 374.45,-133.05 367.47,-133.55"/>
</g>
</g>
</svg>
