<?xml version="1.0" encoding="UTF-8" standalone="no"?>
<!DOCTYPE svg PUBLIC "-//W3C//DTD SVG 1.1//EN"
 "http://www.w3.org/Graphics/SVG/1.1/DTD/svg11.dtd">
<!-- Generated by graphviz version 2.43.0 (0)
 -->
<!-- Title: JKQTPBarVerticalStackableGraph Pages: 1 -->
<!--zoomable 593 -->
<svg id="main" version="1.1" xmlns="http://www.w3.org/2000/svg" xmlns:xlink="http://www.w3.org/1999/xlink" xml:space="preserve" onload="init(evt)">
<style type="text/css"><![CDATA[
.edge:hover path { stroke: red; }
.edge:hover polygon { stroke: red; fill: red; }
]]></style>
<script type="text/javascript"><![CDATA[
var edges = document.getElementsByTagName('g');
if (edges && edges.length) {
  for (var i=0;i<edges.length;i++) {
    if (edges[i].id.substr(0,4)=='edge') {
      edges[i].setAttribute('class','edge');
    }
  }
}
]]></script>
        <defs>
                <circle id="rim" cx="0" cy="0" r="7"/>
                <circle id="rim2" cx="0" cy="0" r="3.5"/>
                <g id="zoomPlus">
                        <use xlink:href="#rim" fill="#404040">
                                <set attributeName="fill" to="#808080" begin="zoomplus.mouseover" end="zoomplus.mouseout"/>
                        </use>
                        <path d="M-4,0h8M0,-4v8" fill="none" stroke="white" stroke-width="1.5" pointer-events="none"/>
                </g>
                <g id="zoomMin">
                        <use xlink:href="#rim" fill="#404040">
                                <set attributeName="fill" to="#808080" begin="zoomminus.mouseover" end="zoomminus.mouseout"/>
                        </use>
                        <path d="M-4,0h8" fill="none" stroke="white" stroke-width="1.5" pointer-events="none"/>
                </g>
                <g id="dirArrow">
                        <path fill="none" stroke="white" stroke-width="1.5" d="M0,-3.0v7 M-2.5,-0.5L0,-3.0L2.5,-0.5"/>
                </g>
               <g id="resetDef">
                       <use xlink:href="#rim2" fill="#404040">
                               <set attributeName="fill" to="#808080" begin="reset.mouseover" end="reset.mouseout"/>
                       </use>
               </g>
        </defs>

<script type="text/javascript">
var viewWidth = 3818;
var viewHeight = 593;
var sectionId = 'dynsection-1';
</script>
<script xlink:href="svgpan.js"/>
<svg id="graph" class="graph">
<g id="viewport">
<title>JKQTPBarVerticalStackableGraph</title>
<!-- Node1 -->
<g id="node1" class="node">
<title>Node1</title>
<g id="a_node1"><a xlink:title="This implements a vertical bar graph with bars between &#160;and &#160;Optionally several graphs of this type m...">
<polygon fill="#bfbfbf" stroke="black" points="3633,-83 3633,-117 3810,-117 3810,-83 3633,-83"/>
<text text-anchor="start" x="3641" y="-103.4" font-family="Helvetica,sans-Serif" font-size="12.00">JKQTPBarVerticalStackable</text>
<text text-anchor="middle" x="3721.5" y="-90.4" font-family="Helvetica,sans-Serif" font-size="12.00">Graph</text>
</a>
</g>
</g>
<!-- Node1&#45;&gt;Node1 -->
<g id="edge54" class="edge">
<title>Node1&#45;&gt;Node1</title>
<path fill="none" stroke="#9a32cd" stroke-dasharray="5,2" d="M3702.94,-127.53C3705.47,-132.24 3711.66,-135.5 3721.5,-135.5 3737.65,-135.5 3743.96,-126.71 3740.42,-117.17"/>
<polygon fill="#9a32cd" stroke="#9a32cd" points="3706.43,-127.04 3702.58,-117.17 3699.43,-127.29 3706.43,-127.04"/>
<text text-anchor="middle" x="3721.5" y="-138.9" font-family="Helvetica,sans-Serif" font-size="12.00"> stackParent</text>
</g>
<!-- Node2 -->
<g id="node2" class="node">
<title>Node2</title>
<g id="a_node2"><a xlink:href="class_j_k_q_t_p_bar_vertical_graph.html" target="_top" xlink:title="This implements a vertical bar graph with bars between &#160;and .">
<polygon fill="none" stroke="black" points="3441,-89.5 3441,-110.5 3596,-110.5 3596,-89.5 3441,-89.5"/>
<text text-anchor="middle" x="3518.5" y="-96.9" font-family="Helvetica,sans-Serif" font-size="12.00">JKQTPBarVerticalGraph</text>
</a>
</g>
</g>
<!-- Node2&#45;&gt;Node1 -->
<g id="edge1" class="edge">
<title>Node2&#45;&gt;Node1</title>
<path fill="none" stroke="midnightblue" d="M3606.27,-100C3615.04,-100 3623.94,-100 3632.72,-100"/>
<polygon fill="midnightblue" stroke="midnightblue" points="3606.06,-96.5 3596.06,-100 3606.06,-103.5 3606.06,-96.5"/>
</g>
<!-- Node3 -->
<g id="node3" class="node">
<title>Node3</title>
<g id="a_node3"><a xlink:href="class_j_k_q_t_p_bar_graph_base.html" target="_top" xlink:title="This is a base&#45;class for all bar graphs with vertical or horizontal orientation (the orientation is i...">
<polygon fill="none" stroke="black" points="3264,-89.5 3264,-110.5 3404,-110.5 3404,-89.5 3264,-89.5"/>
<text text-anchor="middle" x="3334" y="-96.9" font-family="Helvetica,sans-Serif" font-size="12.00">JKQTPBarGraphBase</text>
</a>
</g>
</g>
<!-- Node3&#45;&gt;Node2 -->
<g id="edge2" class="edge">
<title>Node3&#45;&gt;Node2</title>
<path fill="none" stroke="midnightblue" d="M3414.49,-100C3423.28,-100 3432.22,-100 3440.97,-100"/>
<polygon fill="midnightblue" stroke="midnightblue" points="3414.26,-96.5 3404.26,-100 3414.26,-103.5 3414.26,-96.5"/>
</g>
<!-- Node4 -->
<g id="node4" class="node">
<title>Node4</title>
<g id="a_node4"><a xlink:href="class_j_k_q_t_p_x_y_baseline_graph.html" target="_top" xlink:title="This virtual JKQTPGraph descendent extends JKQTPXYGraph adds a baseline&#45;property, which is necessary,...">
<polygon fill="none" stroke="black" points="2962.5,-167.5 2962.5,-188.5 3117.5,-188.5 3117.5,-167.5 2962.5,-167.5"/>
<text text-anchor="middle" x="3040" y="-174.9" font-family="Helvetica,sans-Serif" font-size="12.00">JKQTPXYBaselineGraph</text>
</a>
</g>
</g>
<!-- Node4&#45;&gt;Node3 -->
<g id="edge3" class="edge">
<title>Node4&#45;&gt;Node3</title>
<path fill="none" stroke="midnightblue" d="M3128.02,-175.56C3165.18,-172.44 3208.54,-166.01 3246,-153 3274.4,-143.14 3303.45,-123 3319.76,-110.59"/>
<polygon fill="midnightblue" stroke="midnightblue" points="3127.41,-172.09 3117.71,-176.35 3127.95,-179.07 3127.41,-172.09"/>
</g>
<!-- Node5 -->
<g id="node5" class="node">
<title>Node5</title>
<g id="a_node5"><a xlink:href="class_j_k_q_t_p_x_y_graph.html" target="_top" xlink:title="This virtual JKQTPGraph descendent may be used as base for all graphs that use at least two columns t...">
<polygon fill="none" stroke="black" points="2811,-271.5 2811,-292.5 2916,-292.5 2916,-271.5 2811,-271.5"/>
<text text-anchor="middle" x="2863.5" y="-278.9" font-family="Helvetica,sans-Serif" font-size="12.00">JKQTPXYGraph</text>
</a>
</g>
</g>
<!-- Node5&#45;&gt;Node4 -->
<g id="edge4" class="edge">
<title>Node5&#45;&gt;Node4</title>
<path fill="none" stroke="midnightblue" d="M2891.16,-266.11C2927.21,-244.62 2990.53,-206.89 3021.26,-188.57"/>
<polygon fill="midnightblue" stroke="midnightblue" points="2888.99,-263.33 2882.19,-271.46 2892.57,-269.34 2888.99,-263.33"/>
</g>
<!-- Node6 -->
<g id="node6" class="node">
<title>Node6</title>
<g id="a_node6"><a xlink:href="class_j_k_q_t_p_graph.html" target="_top" xlink:title="this virtual base class of the (data&#45;column based) graphs, which are part of a JKQTPlotter plot and w...">
<polygon fill="none" stroke="black" points="2661,-376.5 2661,-397.5 2750,-397.5 2750,-376.5 2661,-376.5"/>
<text text-anchor="middle" x="2705.5" y="-383.9" font-family="Helvetica,sans-Serif" font-size="12.00">JKQTPGraph</text>
</a>
</g>
</g>
<!-- Node6&#45;&gt;Node5 -->
<g id="edge5" class="edge">
<title>Node6&#45;&gt;Node5</title>
<path fill="none" stroke="midnightblue" d="M2730.75,-370.68C2763.05,-348.94 2819.28,-311.09 2846.64,-292.67"/>
<polygon fill="midnightblue" stroke="midnightblue" points="2728.66,-367.87 2722.32,-376.35 2732.57,-373.67 2728.66,-367.87"/>
</g>
<!-- Node7 -->
<g id="node7" class="node">
<title>Node7</title>
<g id="a_node7"><a xlink:href="class_j_k_q_t_p_plot_element.html" target="_top" xlink:title="this virtual base class of every element, which is part of a JKQTPlotter plot and may appear in its k...">
<polygon fill="none" stroke="black" points="2430,-450.5 2430,-471.5 2555,-471.5 2555,-450.5 2430,-450.5"/>
<text text-anchor="middle" x="2492.5" y="-457.9" font-family="Helvetica,sans-Serif" font-size="12.00">JKQTPPlotElement</text>
</a>
</g>
</g>
<!-- Node7&#45;&gt;Node6 -->
<g id="edge6" class="edge">
<title>Node7&#45;&gt;Node6</title>
<path fill="none" stroke="midnightblue" d="M2533.4,-447.01C2574.39,-432.63 2637.3,-410.57 2674.32,-397.58"/>
<polygon fill="midnightblue" stroke="midnightblue" points="2532.01,-443.79 2523.73,-450.4 2534.33,-450.39 2532.01,-443.79"/>
</g>
<!-- Node8 -->
<g id="node8" class="node">
<title>Node8</title>
<g id="a_node8"><a xlink:title=" ">
<polygon fill="none" stroke="black" points="1442.5,-453.5 1442.5,-474.5 1507.5,-474.5 1507.5,-453.5 1442.5,-453.5"/>
<text text-anchor="middle" x="1475" y="-460.9" font-family="Helvetica,sans-Serif" font-size="12.00">QObject</text>
</a>
</g>
</g>
<!-- Node8&#45;&gt;Node7 -->
<g id="edge7" class="edge">
<title>Node8&#45;&gt;Node7</title>
<path fill="none" stroke="midnightblue" d="M1517.87,-465.78C1615.49,-469.71 1865.79,-478.52 2075,-475 2201.05,-472.88 2348.47,-467.16 2429.77,-463.72"/>
<polygon fill="midnightblue" stroke="midnightblue" points="1517.95,-462.28 1507.82,-465.37 1517.67,-469.28 1517.95,-462.28"/>
</g>
<!-- Node9 -->
<g id="node9" class="node">
<title>Node9</title>
<g id="a_node9"><a xlink:href="class_j_k_q_t_base_plotter.html" target="_top" xlink:title="base class for 2D plotter classes (used by the plotter widget JKQTPlotter)">
<polygon fill="none" stroke="black" points="2107.5,-327.5 2107.5,-348.5 2221.5,-348.5 2221.5,-327.5 2107.5,-327.5"/>
<text text-anchor="middle" x="2164.5" y="-334.9" font-family="Helvetica,sans-Serif" font-size="12.00">JKQTBasePlotter</text>
</a>
</g>
</g>
<!-- Node8&#45;&gt;Node9 -->
<g id="edge9" class="edge">
<title>Node8&#45;&gt;Node9</title>
<path fill="none" stroke="midnightblue" d="M1517.47,-457.04C1591.82,-444.51 1752.65,-417.09 1888,-392 1966,-377.54 2056.17,-359.64 2111.51,-348.52"/>
<polygon fill="midnightblue" stroke="midnightblue" points="1516.85,-453.6 1507.57,-458.71 1518.01,-460.5 1516.85,-453.6"/>
</g>
<!-- Node22 -->
<g id="node22" class="node">
<title>Node22</title>
<g id="a_node22"><a xlink:href="class_j_k_q_t_math_text.html" target="_top" xlink:title="this class parses a mathematical markup string and can then draw the contained text/equation onto a Q...">
<polygon fill="none" stroke="black" points="1767,-517.5 1767,-538.5 1866,-538.5 1866,-517.5 1767,-517.5"/>
<text text-anchor="middle" x="1816.5" y="-524.9" font-family="Helvetica,sans-Serif" font-size="12.00">JKQTMathText</text>
</a>
</g>
</g>
<!-- Node8&#45;&gt;Node22 -->
<g id="edge28" class="edge">
<title>Node8&#45;&gt;Node22</title>
<path fill="none" stroke="midnightblue" d="M1511.16,-478.27C1533.41,-486.73 1562.97,-496.96 1590,-503 1649.97,-516.41 1720.58,-522.76 1766.61,-525.68"/>
<polygon fill="midnightblue" stroke="midnightblue" points="1512.38,-474.99 1501.79,-474.64 1509.86,-481.52 1512.38,-474.99"/>
</g>
<!-- Node27 -->
<g id="node27" class="node">
<title>Node27</title>
<g id="a_node27"><a xlink:href="class_j_k_q_t_p_coordinate_axis.html" target="_top" xlink:title="this virtual class is the base for any type of coordinate axis, to be drawn by JKQTBasePlotter.">
<polygon fill="none" stroke="black" points="2421.5,-234.5 2421.5,-255.5 2563.5,-255.5 2563.5,-234.5 2421.5,-234.5"/>
<text text-anchor="middle" x="2492.5" y="-241.9" font-family="Helvetica,sans-Serif" font-size="12.00">JKQTPCoordinateAxis</text>
</a>
</g>
</g>
<!-- Node8&#45;&gt;Node27 -->
<g id="edge37" class="edge">
<title>Node8&#45;&gt;Node27</title>
<path fill="none" stroke="midnightblue" d="M1507.35,-449.19C1529.93,-438.99 1561.34,-425.75 1590,-417 1649.44,-398.85 1666.51,-403.25 1727,-389 1799.09,-372.02 1825.31,-385.44 1888,-346 1898.4,-339.45 1895.36,-331.16 1906,-325 2042.24,-246.12 2097.77,-278.34 2254,-259 2310.06,-252.06 2373.99,-248.54 2421.4,-246.77"/>
<polygon fill="midnightblue" stroke="midnightblue" points="1505.89,-446.01 1498.25,-453.35 1508.8,-452.37 1505.89,-446.01"/>
</g>
<!-- Node9&#45;&gt;Node7 -->
<g id="edge8" class="edge">
<title>Node9&#45;&gt;Node7</title>
<path fill="none" stroke="#9a32cd" stroke-dasharray="5,2" d="M2182.18,-356.42C2198.72,-373.51 2225.64,-398.3 2254,-412 2309.92,-439.01 2380.24,-451.16 2429.81,-456.61"/>
<polygon fill="#9a32cd" stroke="#9a32cd" points="2184.34,-353.61 2174.93,-348.73 2179.25,-358.41 2184.34,-353.61"/>
<text text-anchor="middle" x="2310.5" y="-448.4" font-family="Helvetica,sans-Serif" font-size="12.00"> parent</text>
</g>
<!-- Node9&#45;&gt;Node9 -->
<g id="edge48" class="edge">
<title>Node9&#45;&gt;Node9</title>
<path fill="none" stroke="#9a32cd" stroke-dasharray="5,2" d="M2137.45,-358.06C2139.23,-363.16 2148.24,-367 2164.5,-367 2189.88,-367 2197.61,-357.65 2187.7,-348.71"/>
<polygon fill="#9a32cd" stroke="#9a32cd" points="2140.73,-359.29 2141.3,-348.71 2134.26,-356.62 2140.73,-359.29"/>
<text text-anchor="middle" x="2164.5" y="-383.4" font-family="Helvetica,sans-Serif" font-size="12.00"> masterPlotterX</text>
<text text-anchor="middle" x="2164.5" y="-370.4" font-family="Helvetica,sans-Serif" font-size="12.00">masterPlotterY</text>
</g>
<!-- Node24 -->
<g id="node24" class="node">
<title>Node24</title>
<g id="a_node24"><a xlink:href="class_j_k_q_t_p_graphs_model.html" target="_top" xlink:title="data model with all plots ina JKQTBasePlotter (+ allows to switch them visible/invisible)">
<polygon fill="none" stroke="black" points="2427,-389.5 2427,-410.5 2558,-410.5 2558,-389.5 2427,-389.5"/>
<text text-anchor="middle" x="2492.5" y="-396.9" font-family="Helvetica,sans-Serif" font-size="12.00">JKQTPGraphsModel</text>
</a>
</g>
</g>
<!-- Node9&#45;&gt;Node24 -->
<g id="edge34" class="edge">
<title>Node9&#45;&gt;Node24</title>
<path fill="none" stroke="#9a32cd" stroke-dasharray="5,2" d="M2193.48,-353.55C2210.47,-362.24 2232.88,-372.42 2254,-378 2311.25,-393.13 2378.65,-398.22 2426.99,-399.77"/>
<polygon fill="#9a32cd" stroke="#9a32cd" points="2194.64,-350.2 2184.16,-348.65 2191.38,-356.4 2194.64,-350.2"/>
<text text-anchor="middle" x="2310.5" y="-398.4" font-family="Helvetica,sans-Serif" font-size="12.00"> m_plotter</text>
</g>
<!-- Node9&#45;&gt;Node27 -->
<g id="edge38" class="edge">
<title>Node9&#45;&gt;Node27</title>
<path fill="none" stroke="#9a32cd" stroke-dasharray="5,2" d="M2188.05,-321.29C2209.44,-305.75 2240.28,-284.24 2254,-279 2283.72,-267.64 2362.53,-257.73 2421.26,-251.59"/>
<polygon fill="#9a32cd" stroke="#9a32cd" points="2185.82,-318.58 2179.82,-327.31 2189.96,-324.23 2185.82,-318.58"/>
<text text-anchor="middle" x="2310.5" y="-282.4" font-family="Helvetica,sans-Serif" font-size="12.00"> parent</text>
</g>
<!-- Node10 -->
<g id="node10" class="node">
<title>Node10</title>
<g id="a_node10"><a xlink:href="class_j_k_q_t_base_plotter_style.html" target="_top" xlink:title="Support Class for JKQTBasePlotter, which summarizes all properties that define the visual styling of ...">
<polygon fill="none" stroke="black" points="1745,-315.5 1745,-336.5 1888,-336.5 1888,-315.5 1745,-315.5"/>
<text text-anchor="middle" x="1816.5" y="-322.9" font-family="Helvetica,sans-Serif" font-size="12.00">JKQTBasePlotterStyle</text>
</a>
</g>
</g>
<!-- Node10&#45;&gt;Node9 -->
<g id="edge10" class="edge">
<title>Node10&#45;&gt;Node9</title>
<path fill="none" stroke="#9a32cd" stroke-dasharray="5,2" d="M1898.44,-328.81C1962.61,-331.03 2050.63,-334.09 2107.29,-336.05"/>
<polygon fill="#9a32cd" stroke="#9a32cd" points="1898.47,-325.31 1888.35,-328.46 1898.23,-332.3 1898.47,-325.31"/>
<text text-anchor="middle" x="1990.5" y="-337.4" font-family="Helvetica,sans-Serif" font-size="12.00"> plotterStyle</text>
</g>
<!-- Node11 -->
<g id="node11" class="node">
<title>Node11</title>
<g id="a_node11"><a xlink:href="class_j_k_q_t_p_key_style.html" target="_top" xlink:title="Support Class for JKQTBasePlotter, which summarizes all properties that define the visual styling of ...">
<polygon fill="none" stroke="black" points="1423,-290.5 1423,-311.5 1527,-311.5 1527,-290.5 1423,-290.5"/>
<text text-anchor="middle" x="1475" y="-297.9" font-family="Helvetica,sans-Serif" font-size="12.00">JKQTPKeyStyle</text>
</a>
</g>
</g>
<!-- Node11&#45;&gt;Node10 -->
<g id="edge11" class="edge">
<title>Node11&#45;&gt;Node10</title>
<path fill="none" stroke="#9a32cd" stroke-dasharray="5,2" d="M1537.38,-298.28C1588.36,-296.91 1662.67,-296.95 1727,-305 1744.24,-307.16 1763,-311.34 1778.8,-315.4"/>
<polygon fill="#9a32cd" stroke="#9a32cd" points="1537.08,-294.79 1527.18,-298.58 1537.28,-301.78 1537.08,-294.79"/>
<text text-anchor="middle" x="1658.5" y="-308.4" font-family="Helvetica,sans-Serif" font-size="12.00"> keyStyle</text>
</g>
<!-- Node12 -->
<g id="node12" class="node">
<title>Node12</title>
<g id="a_node12"><a xlink:href="class_j_k_q_t_p_coordinate_axis_style.html" target="_top" xlink:title="Support Class for JKQTPCoordinateAxis, which summarizes all properties that define the visual styling...">
<polygon fill="none" stroke="black" points="1063,-235.5 1063,-256.5 1234,-256.5 1234,-235.5 1063,-235.5"/>
<text text-anchor="middle" x="1148.5" y="-242.9" font-family="Helvetica,sans-Serif" font-size="12.00">JKQTPCoordinateAxisStyle</text>
</a>
</g>
</g>
<!-- Node12&#45;&gt;Node10 -->
<g id="edge12" class="edge">
<title>Node12&#45;&gt;Node10</title>
<path fill="none" stroke="#9a32cd" stroke-dasharray="5,2" d="M1244.34,-242.12C1330.26,-240 1460.16,-240.28 1572,-255 1642.32,-264.26 1659.21,-272.13 1727,-293 1748.31,-299.56 1771.96,-308.47 1789.44,-315.37"/>
<polygon fill="#9a32cd" stroke="#9a32cd" points="1243.99,-238.62 1234.08,-242.39 1244.17,-245.62 1243.99,-238.62"/>
<text text-anchor="middle" x="1475" y="-271.4" font-family="Helvetica,sans-Serif" font-size="12.00"> xAxisStyle</text>
<text text-anchor="middle" x="1475" y="-258.4" font-family="Helvetica,sans-Serif" font-size="12.00">yAxisStyle</text>
</g>
<!-- Node14 -->
<g id="node14" class="node">
<title>Node14</title>
<g id="a_node14"><a xlink:href="class_j_k_q_t_p_colorbar_coordinate_axis_style.html" target="_top" xlink:title="Support Class for JKQTPCoordinateAxis, which summarizes all properties that define the visual styling...">
<polygon fill="none" stroke="black" points="1378,-331 1378,-365 1572,-365 1572,-331 1378,-331"/>
<text text-anchor="start" x="1386" y="-351.4" font-family="Helvetica,sans-Serif" font-size="12.00">JKQTPColorbarCoordinateAxis</text>
<text text-anchor="middle" x="1475" y="-338.4" font-family="Helvetica,sans-Serif" font-size="12.00">Style</text>
</a>
</g>
</g>
<!-- Node12&#45;&gt;Node14 -->
<g id="edge15" class="edge">
<title>Node12&#45;&gt;Node14</title>
<path fill="none" stroke="midnightblue" d="M1244.02,-255.23C1290.92,-261.43 1341.46,-271.05 1360,-285 1374.29,-295.76 1364.21,-309.6 1378,-321 1382.54,-324.75 1387.56,-327.98 1392.87,-330.76"/>
<polygon fill="midnightblue" stroke="midnightblue" points="1244.44,-251.76 1234.08,-253.96 1243.55,-258.7 1244.44,-251.76"/>
</g>
<!-- Node12&#45;&gt;Node27 -->
<g id="edge39" class="edge">
<title>Node12&#45;&gt;Node27</title>
<path fill="none" stroke="#9a32cd" stroke-dasharray="5,2" d="M1244.32,-237.87C1250.3,-237.53 1256.23,-237.23 1262,-237 1399.67,-231.5 1434.22,-236.4 1572,-237 1889.08,-238.38 2267.66,-242.43 2421.42,-244.18"/>
<polygon fill="#9a32cd" stroke="#9a32cd" points="1243.99,-234.38 1234.23,-238.49 1244.42,-241.37 1243.99,-234.38"/>
<text text-anchor="middle" x="1816.5" y="-241.4" font-family="Helvetica,sans-Serif" font-size="12.00"> axisStyle</text>
</g>
<!-- Node13 -->
<g id="node13" class="node">
<title>Node13</title>
<g id="a_node13"><a xlink:href="class_j_k_q_t_p_grid_style.html" target="_top" xlink:title="Support Class for JKQTPCoordinateAxis, and summarizes all properties that define the visual styling o...">
<polygon fill="none" stroke="black" points="698.5,-235.5 698.5,-256.5 805.5,-256.5 805.5,-235.5 698.5,-235.5"/>
<text text-anchor="middle" x="752" y="-242.9" font-family="Helvetica,sans-Serif" font-size="12.00">JKQTPGridStyle</text>
</a>
</g>
</g>
<!-- Node13&#45;&gt;Node12 -->
<g id="edge13" class="edge">
<title>Node13&#45;&gt;Node12</title>
<path fill="none" stroke="#9a32cd" stroke-dasharray="5,2" d="M816.18,-246C883.03,-246 988.9,-246 1062.92,-246"/>
<polygon fill="#9a32cd" stroke="#9a32cd" points="815.79,-242.5 805.79,-246 815.79,-249.5 815.79,-242.5"/>
<text text-anchor="middle" x="948.5" y="-262.4" font-family="Helvetica,sans-Serif" font-size="12.00"> majorGridStyle</text>
<text text-anchor="middle" x="948.5" y="-249.4" font-family="Helvetica,sans-Serif" font-size="12.00">minorGridStyle</text>
</g>
<!-- Node14&#45;&gt;Node10 -->
<g id="edge14" class="edge">
<title>Node14&#45;&gt;Node10</title>
<path fill="none" stroke="#9a32cd" stroke-dasharray="5,2" d="M1569.18,-329.45C1576.2,-328.47 1583.2,-327.64 1590,-327 1641.65,-322.17 1700.24,-322.07 1744.75,-323.1"/>
<polygon fill="#9a32cd" stroke="#9a32cd" points="1568.26,-326.04 1558.88,-330.96 1569.28,-332.97 1568.26,-326.04"/>
<text text-anchor="middle" x="1658.5" y="-343.4" font-family="Helvetica,sans-Serif" font-size="12.00"> rightColorbarAxisStyle</text>
<text text-anchor="middle" x="1658.5" y="-330.4" font-family="Helvetica,sans-Serif" font-size="12.00">topColorbarAxisStyle</text>
</g>
<!-- Node15 -->
<g id="node15" class="node">
<title>Node15</title>
<g id="a_node15"><a xlink:href="class_j_k_q_t_graphs_base_style.html" target="_top" xlink:title="Support Class for JKQTBasePlotter, which summarizes all properties that define the visual styling of ...">
<polygon fill="none" stroke="black" points="1402,-386.5 1402,-407.5 1548,-407.5 1548,-386.5 1402,-386.5"/>
<text text-anchor="middle" x="1475" y="-393.9" font-family="Helvetica,sans-Serif" font-size="12.00">JKQTGraphsBaseStyle</text>
</a>
</g>
</g>
<!-- Node15&#45;&gt;Node10 -->
<g id="edge16" class="edge">
<title>Node15&#45;&gt;Node10</title>
<path fill="none" stroke="#9a32cd" stroke-dasharray="5,2" d="M1542.32,-384.6C1557.95,-381.73 1574.55,-378.72 1590,-376 1650.81,-365.3 1666.9,-367.15 1727,-353 1746.23,-348.47 1767.41,-342.06 1784.23,-336.62"/>
<polygon fill="#9a32cd" stroke="#9a32cd" points="1541.41,-381.21 1532.21,-386.46 1542.68,-388.09 1541.41,-381.21"/>
<text text-anchor="middle" x="1658.5" y="-379.4" font-family="Helvetica,sans-Serif" font-size="12.00"> graphsStyle</text>
</g>
<!-- Node16 -->
<g id="node16" class="node">
<title>Node16</title>
<g id="a_node16"><a xlink:href="class_j_k_q_t_graphs_specific_style_properties.html" target="_top" xlink:title="Support Class for JKQTBasePlotter, which summarizes all properties that define the visual styling of ...">
<polygon fill="none" stroke="black" points="399,-374.5 399,-395.5 623,-395.5 623,-374.5 399,-374.5"/>
<text text-anchor="middle" x="511" y="-381.9" font-family="Helvetica,sans-Serif" font-size="12.00">JKQTGraphsSpecificStyleProperties</text>
</a>
</g>
</g>
<!-- Node16&#45;&gt;Node15 -->
<g id="edge17" class="edge">
<title>Node16&#45;&gt;Node15</title>
<path fill="none" stroke="#9a32cd" stroke-dasharray="5,2" d="M548.11,-399.11C577.77,-410.23 621.08,-425.42 660,-435 912.13,-497.09 986.37,-484.47 1244,-452 1295.98,-445.45 1309.04,-443.17 1360,-431 1387.92,-424.33 1419.13,-414.88 1441.83,-407.63"/>
<polygon fill="#9a32cd" stroke="#9a32cd" points="549.19,-395.78 538.6,-395.51 546.71,-402.32 549.19,-395.78"/>
<text text-anchor="middle" x="948.5" y="-507.4" font-family="Helvetica,sans-Serif" font-size="12.00"> boxplotStyle</text>
<text text-anchor="middle" x="948.5" y="-494.4" font-family="Helvetica,sans-Serif" font-size="12.00">defaultGraphStyle</text>
<text text-anchor="middle" x="948.5" y="-481.4" font-family="Helvetica,sans-Serif" font-size="12.00">filledStyle</text>
</g>
<!-- Node18 -->
<g id="node18" class="node">
<title>Node18</title>
<g id="a_node18"><a xlink:href="class_j_k_q_t_barchart_specific_style_properties.html" target="_top" xlink:title="Support Class for JKQTBasePlotter, which summarizes all properties that define the visual styling of ...">
<polygon fill="none" stroke="black" points="862,-423 862,-457 1035,-457 1035,-423 862,-423"/>
<text text-anchor="start" x="870" y="-443.4" font-family="Helvetica,sans-Serif" font-size="12.00">JKQTBarchartSpecificStyle</text>
<text text-anchor="middle" x="948.5" y="-430.4" font-family="Helvetica,sans-Serif" font-size="12.00">Properties</text>
</a>
</g>
</g>
<!-- Node16&#45;&gt;Node18 -->
<g id="edge20" class="edge">
<title>Node16&#45;&gt;Node18</title>
<path fill="none" stroke="midnightblue" d="M573.78,-397.46C600.25,-402.49 631.56,-408.03 660,-412 727.55,-421.43 804.47,-428.75 861.73,-433.53"/>
<polygon fill="midnightblue" stroke="midnightblue" points="574.36,-394.01 563.88,-395.56 573.05,-400.88 574.36,-394.01"/>
</g>
<!-- Node19 -->
<g id="node19" class="node">
<title>Node19</title>
<g id="a_node19"><a xlink:href="class_j_k_q_t_impulse_specific_style_properties.html" target="_top" xlink:title="Support Class for JKQTBasePlotter, which summarizes all properties that define the visual styling of ...">
<polygon fill="none" stroke="black" points="864.5,-286 864.5,-320 1032.5,-320 1032.5,-286 864.5,-286"/>
<text text-anchor="start" x="872.5" y="-306.4" font-family="Helvetica,sans-Serif" font-size="12.00">JKQTImpulseSpecificStyle</text>
<text text-anchor="middle" x="948.5" y="-293.4" font-family="Helvetica,sans-Serif" font-size="12.00">Properties</text>
</a>
</g>
</g>
<!-- Node16&#45;&gt;Node19 -->
<g id="edge22" class="edge">
<title>Node16&#45;&gt;Node19</title>
<path fill="none" stroke="midnightblue" d="M578.06,-372.56C654.73,-358.13 781.26,-334.3 864.5,-318.63"/>
<polygon fill="midnightblue" stroke="midnightblue" points="577.22,-369.16 568.04,-374.45 578.52,-376.04 577.22,-369.16"/>
</g>
<!-- Node20 -->
<g id="node20" class="node">
<title>Node20</title>
<g id="a_node20"><a xlink:href="class_j_k_q_t_geometric_specific_style_properties.html" target="_top" xlink:title="Support Class for JKQTBasePlotter, which summarizes all properties that define the visual styling of ...">
<polygon fill="none" stroke="black" points="660,-368 660,-402 844,-402 844,-368 660,-368"/>
<text text-anchor="start" x="668" y="-388.4" font-family="Helvetica,sans-Serif" font-size="12.00">JKQTGeometricSpecificStyle</text>
<text text-anchor="middle" x="752" y="-375.4" font-family="Helvetica,sans-Serif" font-size="12.00">Properties</text>
</a>
</g>
</g>
<!-- Node16&#45;&gt;Node20 -->
<g id="edge24" class="edge">
<title>Node16&#45;&gt;Node20</title>
<path fill="none" stroke="midnightblue" d="M633.22,-385C642.18,-385 651.14,-385 659.87,-385"/>
<polygon fill="midnightblue" stroke="midnightblue" points="633.1,-381.5 623.1,-385 633.1,-388.5 633.1,-381.5"/>
</g>
<!-- Node17 -->
<g id="node17" class="node">
<title>Node17</title>
<g id="a_node17"><a xlink:href="struct_j_k_q_t_p_color_derivation_mode.html" target="_top" xlink:title="Specifies how a fill&#45;color is derived from a given color.">
<polygon fill="none" stroke="black" points="0,-144.5 0,-165.5 179,-165.5 179,-144.5 0,-144.5"/>
<text text-anchor="middle" x="89.5" y="-151.9" font-family="Helvetica,sans-Serif" font-size="12.00">JKQTPColorDerivationMode</text>
</a>
</g>
</g>
<!-- Node17&#45;&gt;Node3 -->
<g id="edge53" class="edge">
<title>Node17&#45;&gt;Node3</title>
<path fill="none" stroke="#9a32cd" stroke-dasharray="5,2" d="M189.41,-149.1C274.39,-144.54 400.22,-139 510,-139 510,-139 510,-139 3041,-139 3127.31,-139 3226.71,-122.05 3284.44,-110.5"/>
<polygon fill="#9a32cd" stroke="#9a32cd" points="189.05,-145.61 179.26,-149.65 189.43,-152.6 189.05,-145.61"/>
<text text-anchor="start" x="1906" y="-155.4" font-family="Helvetica,sans-Serif" font-size="12.00"> m_lineColorDerivationMode</text>
<text text-anchor="middle" x="1990.5" y="-142.4" font-family="Helvetica,sans-Serif" font-size="12.00">ForSpecialFill</text>
</g>
<!-- Node17&#45;&gt;Node16 -->
<g id="edge18" class="edge">
<title>Node17&#45;&gt;Node16</title>
<path fill="none" stroke="#9a32cd" stroke-dasharray="5,2" d="M118.89,-170.56C198.7,-214.32 423.62,-337.64 490.81,-374.48"/>
<polygon fill="#9a32cd" stroke="#9a32cd" points="120.34,-167.37 109.89,-165.63 116.98,-173.51 120.34,-167.37"/>
<text text-anchor="middle" x="289" y="-365.4" font-family="Helvetica,sans-Serif" font-size="12.00"> errorColorDerivationMode</text>
<text text-anchor="middle" x="289" y="-352.4" font-family="Helvetica,sans-Serif" font-size="12.00">errorFillColorDerivationMode</text>
<text text-anchor="middle" x="289" y="-339.4" font-family="Helvetica,sans-Serif" font-size="12.00">fillColorDerivationMode</text>
<text text-anchor="middle" x="289" y="-326.4" font-family="Helvetica,sans-Serif" font-size="12.00">graphColorDerivationMode</text>
<text text-anchor="middle" x="289" y="-313.4" font-family="Helvetica,sans-Serif" font-size="12.00">symbolFillColorDerivationMode</text>
</g>
<!-- Node18&#45;&gt;Node15 -->
<g id="edge19" class="edge">
<title>Node18&#45;&gt;Node15</title>
<path fill="none" stroke="#9a32cd" stroke-dasharray="5,2" d="M1045.56,-435.69C1128.86,-431.47 1252.58,-424.06 1360,-413 1374.61,-411.5 1390.23,-409.54 1405.07,-407.51"/>
<polygon fill="#9a32cd" stroke="#9a32cd" points="1045.17,-432.2 1035.35,-436.2 1045.52,-439.19 1045.17,-432.2"/>
<text text-anchor="middle" x="1148.5" y="-438.4" font-family="Helvetica,sans-Serif" font-size="12.00"> barchartStyle</text>
</g>
<!-- Node19&#45;&gt;Node15 -->
<g id="edge21" class="edge">
<title>Node19&#45;&gt;Node15</title>
<path fill="none" stroke="#9a32cd" stroke-dasharray="5,2" d="M1042.86,-295.12C1101.24,-292.37 1177.67,-292.72 1244,-306 1298.54,-316.92 1315.22,-320 1360,-353 1370.17,-360.49 1367.26,-368.34 1378,-375 1385.7,-379.78 1394.33,-383.52 1403.17,-386.45"/>
<polygon fill="#9a32cd" stroke="#9a32cd" points="1042.36,-291.65 1032.55,-295.65 1042.72,-298.64 1042.36,-291.65"/>
<text text-anchor="middle" x="1148.5" y="-309.4" font-family="Helvetica,sans-Serif" font-size="12.00"> impulseStyle</text>
</g>
<!-- Node20&#45;&gt;Node15 -->
<g id="edge23" class="edge">
<title>Node20&#45;&gt;Node15</title>
<path fill="none" stroke="#9a32cd" stroke-dasharray="5,2" d="M854.74,-386.69C1002.5,-389.15 1272.9,-393.65 1401.86,-395.8"/>
<polygon fill="#9a32cd" stroke="#9a32cd" points="854.37,-383.19 844.32,-386.52 854.26,-390.19 854.37,-383.19"/>
<text text-anchor="middle" x="1148.5" y="-396.4" font-family="Helvetica,sans-Serif" font-size="12.00"> geometricStyle</text>
</g>
<!-- Node21 -->
<g id="node21" class="node">
<title>Node21</title>
<g id="a_node21"><a xlink:href="class_j_k_q_t_annotations_specific_style_properties.html" target="_top" xlink:title="Support Class for JKQTBasePlotter, which summarizes all properties that define the visual styling of ...">
<polygon fill="none" stroke="black" points="1053,-328 1053,-362 1244,-362 1244,-328 1053,-328"/>
<text text-anchor="start" x="1061" y="-348.4" font-family="Helvetica,sans-Serif" font-size="12.00">JKQTAnnotationsSpecificStyle</text>
<text text-anchor="middle" x="1148.5" y="-335.4" font-family="Helvetica,sans-Serif" font-size="12.00">Properties</text>
</a>
</g>
</g>
<!-- Node20&#45;&gt;Node21 -->
<g id="edge26" class="edge">
<title>Node20&#45;&gt;Node21</title>
<path fill="none" stroke="midnightblue" d="M854.07,-374.75C915.27,-368.55 992.83,-360.68 1052.84,-354.6"/>
<polygon fill="midnightblue" stroke="midnightblue" points="853.6,-371.28 844,-375.77 854.3,-378.25 853.6,-371.28"/>
</g>
<!-- Node21&#45;&gt;Node15 -->
<g id="edge25" class="edge">
<title>Node21&#45;&gt;Node15</title>
<path fill="none" stroke="#9a32cd" stroke-dasharray="5,2" d="M1254.43,-356.61C1288.23,-360.84 1325.78,-366.07 1360,-372 1383.36,-376.05 1409.18,-381.62 1430.33,-386.48"/>
<polygon fill="#9a32cd" stroke="#9a32cd" points="1254.43,-353.08 1244.07,-355.33 1253.57,-360.03 1254.43,-353.08"/>
<text text-anchor="middle" x="1311" y="-375.4" font-family="Helvetica,sans-Serif" font-size="12.00"> annotationStyle</text>
</g>
<!-- Node22&#45;&gt;Node9 -->
<g id="edge27" class="edge">
<title>Node22&#45;&gt;Node9</title>
<path fill="none" stroke="#9a32cd" stroke-dasharray="5,2" d="M1862.14,-514.44C1931.29,-493.15 2058.12,-452.9 2075,-439 2087.3,-428.87 2083.26,-420.61 2093,-408 2110.92,-384.79 2136.13,-361.54 2151.04,-348.53"/>
<polygon fill="#9a32cd" stroke="#9a32cd" points="1860.91,-511.15 1852.38,-517.43 1862.97,-517.84 1860.91,-511.15"/>
<text text-anchor="middle" x="1990.5" y="-502.4" font-family="Helvetica,sans-Serif" font-size="12.00"> mathText</text>
</g>
<!-- Node23 -->
<g id="node23" class="node">
<title>Node23</title>
<g id="a_node23"><a xlink:href="class_j_k_q_t_math_text_node.html" target="_top" xlink:title="subclass representing one node in the syntax tree">
<polygon fill="none" stroke="black" points="2099,-532.5 2099,-553.5 2230,-553.5 2230,-532.5 2099,-532.5"/>
<text text-anchor="middle" x="2164.5" y="-539.9" font-family="Helvetica,sans-Serif" font-size="12.00">JKQTMathTextNode</text>
</a>
</g>
</g>
<!-- Node22&#45;&gt;Node23 -->
<g id="edge30" class="edge">
<title>Node22&#45;&gt;Node23</title>
<path fill="none" stroke="#9a32cd" stroke-dasharray="5,2" d="M1876.28,-536.21C1886.18,-537.33 1896.37,-538.33 1906,-539 1971.56,-543.57 2046.74,-544.21 2098.87,-543.93"/>
<polygon fill="#9a32cd" stroke="#9a32cd" points="1876.44,-532.7 1866.1,-535 1875.62,-539.65 1876.44,-532.7"/>
<text text-anchor="middle" x="1990.5" y="-546.4" font-family="Helvetica,sans-Serif" font-size="12.00"> parentMathText</text>
</g>
<!-- Node23&#45;&gt;Node22 -->
<g id="edge29" class="edge">
<title>Node23&#45;&gt;Node22</title>
<path fill="none" stroke="#9a32cd" stroke-dasharray="5,2" d="M2107.29,-530.55C2096.62,-528.65 2085.5,-527 2075,-526 2002.46,-519.1 1917.9,-521.79 1866.04,-524.67"/>
<polygon fill="#9a32cd" stroke="#9a32cd" points="2106.88,-534.03 2117.35,-532.42 2108.16,-527.15 2106.88,-534.03"/>
<text text-anchor="middle" x="1990.5" y="-529.4" font-family="Helvetica,sans-Serif" font-size="12.00"> parsedNode</text>
</g>
<!-- Node23&#45;&gt;Node23 -->
<g id="edge31" class="edge">
<title>Node23&#45;&gt;Node23</title>
<path fill="none" stroke="#9a32cd" stroke-dasharray="5,2" d="M2137.45,-563.06C2139.23,-568.16 2148.24,-572 2164.5,-572 2189.88,-572 2197.61,-562.65 2187.7,-553.71"/>
<polygon fill="#9a32cd" stroke="#9a32cd" points="2140.73,-564.29 2141.3,-553.71 2134.26,-561.62 2140.73,-564.29"/>
<text text-anchor="middle" x="2164.5" y="-575.4" font-family="Helvetica,sans-Serif" font-size="12.00"> parentNode</text>
</g>
<!-- Node24&#45;&gt;Node9 -->
<g id="edge32" class="edge">
<title>Node24&#45;&gt;Node9</title>
<path fill="none" stroke="#9a32cd" stroke-dasharray="5,2" d="M2448.98,-386.44C2425.09,-379.23 2394.61,-370.7 2367,-365 2318.43,-354.97 2262.48,-347.82 2221.88,-343.4"/>
<polygon fill="#9a32cd" stroke="#9a32cd" points="2448.2,-389.86 2458.78,-389.44 2450.24,-383.17 2448.2,-389.86"/>
<text text-anchor="middle" x="2310.5" y="-368.4" font-family="Helvetica,sans-Serif" font-size="12.00"> m_plotsModel</text>
</g>
<!-- Node25 -->
<g id="node25" class="node">
<title>Node25</title>
<g id="a_node25"><a xlink:title=" ">
<polygon fill="none" stroke="black" points="2093,-417.5 2093,-438.5 2236,-438.5 2236,-417.5 2093,-417.5"/>
<text text-anchor="middle" x="2164.5" y="-424.9" font-family="Helvetica,sans-Serif" font-size="12.00">QAbstractTableModel</text>
</a>
</g>
</g>
<!-- Node25&#45;&gt;Node24 -->
<g id="edge33" class="edge">
<title>Node25&#45;&gt;Node24</title>
<path fill="none" stroke="midnightblue" d="M2246.6,-423.16C2283.39,-420.76 2327.42,-417.6 2367,-414 2386.5,-412.23 2407.67,-409.97 2426.94,-407.79"/>
<polygon fill="midnightblue" stroke="midnightblue" points="2246.18,-419.68 2236.43,-423.81 2246.64,-426.66 2246.18,-419.68"/>
</g>
<!-- Node26 -->
<g id="node26" class="node">
<title>Node26</title>
<g id="a_node26"><a xlink:href="class_j_k_q_t_p_horizontal_axis.html" target="_top" xlink:title="implements a horizontal axis, based on JKQTPCoordinateAxis (for most of documentation: see JKQTPCoord...">
<polygon fill="none" stroke="black" points="2637,-258.5 2637,-279.5 2774,-279.5 2774,-258.5 2637,-258.5"/>
<text text-anchor="middle" x="2705.5" y="-265.9" font-family="Helvetica,sans-Serif" font-size="12.00">JKQTPHorizontalAxis</text>
</a>
</g>
</g>
<!-- Node26&#45;&gt;Node9 -->
<g id="edge35" class="edge">
<title>Node26&#45;&gt;Node9</title>
<path fill="none" stroke="#9a32cd" stroke-dasharray="5,2" d="M2626.69,-277.77C2561.96,-285.18 2467.42,-296.28 2385,-307 2329.47,-314.22 2266.16,-323.25 2221.85,-329.7"/>
<polygon fill="#9a32cd" stroke="#9a32cd" points="2627.28,-281.23 2636.82,-276.61 2626.49,-274.27 2627.28,-281.23"/>
<text text-anchor="middle" x="2492.5" y="-310.4" font-family="Helvetica,sans-Serif" font-size="12.00"> xAxis</text>
</g>
<!-- Node27&#45;&gt;Node26 -->
<g id="edge36" class="edge">
<title>Node27&#45;&gt;Node26</title>
<path fill="none" stroke="midnightblue" d="M2573.81,-254.14C2594.55,-256.49 2616.67,-259.01 2636.7,-261.29"/>
<polygon fill="midnightblue" stroke="midnightblue" points="2574.09,-250.64 2563.76,-252.99 2573.3,-257.6 2574.09,-250.64"/>
</g>
<!-- Node28 -->
<g id="node28" class="node">
<title>Node28</title>
<g id="a_node28"><a xlink:href="class_j_k_q_t_p_vertical_axis.html" target="_top" xlink:title="implements a vertical axis, based on JKQTPCoordinateAxis (for most of documentation: see JKQTPCoordin...">
<polygon fill="none" stroke="black" points="2644.5,-310.5 2644.5,-331.5 2766.5,-331.5 2766.5,-310.5 2644.5,-310.5"/>
<text text-anchor="middle" x="2705.5" y="-317.9" font-family="Helvetica,sans-Serif" font-size="12.00">JKQTPVerticalAxis</text>
</a>
</g>
</g>
<!-- Node27&#45;&gt;Node28 -->
<g id="edge41" class="edge">
<title>Node27&#45;&gt;Node28</title>
<path fill="none" stroke="midnightblue" d="M2559.57,-257.86C2573.12,-261.23 2587.16,-265.28 2600,-270 2617.35,-276.38 2620.42,-280.82 2637,-289 2651.77,-296.29 2668.5,-304.22 2681.61,-310.37"/>
<polygon fill="midnightblue" stroke="midnightblue" points="2560.35,-254.45 2549.81,-255.52 2558.72,-261.26 2560.35,-254.45"/>
</g>
<!-- Node28&#45;&gt;Node9 -->
<g id="edge40" class="edge">
<title>Node28&#45;&gt;Node9</title>
<path fill="none" stroke="#9a32cd" stroke-dasharray="5,2" d="M2634.2,-323.22C2525.96,-326.63 2320.65,-333.11 2221.66,-336.23"/>
<polygon fill="#9a32cd" stroke="#9a32cd" points="2634.49,-326.71 2644.37,-322.9 2634.26,-319.71 2634.49,-326.71"/>
<text text-anchor="middle" x="2492.5" y="-334.4" font-family="Helvetica,sans-Serif" font-size="12.00"> yAxis</text>
</g>
<!-- Node29 -->
<g id="node29" class="node">
<title>Node29</title>
<g id="a_node29"><a xlink:href="class_j_k_q_t_p_datastore.html" target="_top" xlink:title="This class manages data columns (with entries of type double ), used by JKQTPlotter/JKQTBasePlotter t...">
<polygon fill="none" stroke="black" points="1761,-87.5 1761,-108.5 1872,-108.5 1872,-87.5 1761,-87.5"/>
<text text-anchor="middle" x="1816.5" y="-94.9" font-family="Helvetica,sans-Serif" font-size="12.00">JKQTPDatastore</text>
</a>
</g>
</g>
<!-- Node29&#45;&gt;Node9 -->
<g id="edge42" class="edge">
<title>Node29&#45;&gt;Node9</title>
<path fill="none" stroke="#9a32cd" stroke-dasharray="5,2" d="M1838.78,-114.98C1856.52,-128.99 1882.59,-149.21 1906,-166 1994.91,-229.75 2105.18,-300.83 2146.67,-327.31"/>
<polygon fill="#9a32cd" stroke="#9a32cd" points="1840.8,-112.12 1830.79,-108.65 1836.45,-117.6 1840.8,-112.12"/>
<text text-anchor="middle" x="1990.5" y="-281.4" font-family="Helvetica,sans-Serif" font-size="12.00"> datastore</text>
</g>
<!-- Node31 -->
<g id="node31" class="node">
<title>Node31</title>
<g id="a_node31"><a xlink:href="class_j_k_q_t_p_column.html" target="_top" xlink:title="internally stores information about one data column. See JKQTPDatastore for more information.">
<polygon fill="none" stroke="black" points="2115.5,-40.5 2115.5,-61.5 2213.5,-61.5 2213.5,-40.5 2115.5,-40.5"/>
<text text-anchor="middle" x="2164.5" y="-47.9" font-family="Helvetica,sans-Serif" font-size="12.00">JKQTPColumn</text>
</a>
</g>
</g>
<!-- Node29&#45;&gt;Node31 -->
<g id="edge45" class="edge">
<title>Node29&#45;&gt;Node31</title>
<path fill="none" stroke="#9a32cd" stroke-dasharray="5,2" d="M1855.89,-84.29C1871.28,-79.32 1889.3,-74.16 1906,-71 1978.04,-57.38 2063.09,-53 2115.15,-51.61"/>
<polygon fill="#9a32cd" stroke="#9a32cd" points="1854.59,-81.03 1846.2,-87.5 1856.79,-87.67 1854.59,-81.03"/>
<text text-anchor="middle" x="1990.5" y="-74.4" font-family="Helvetica,sans-Serif" font-size="12.00"> datastore</text>
</g>
<!-- Node30 -->
<g id="node30" class="node">
<title>Node30</title>
<g id="a_node30"><a xlink:title=" ">
<polygon fill="none" stroke="black" points="2385,-40.5 2385,-61.5 2600,-61.5 2600,-40.5 2385,-40.5"/>
<text text-anchor="middle" x="2492.5" y="-47.9" font-family="Helvetica,sans-Serif" font-size="12.00">std::unique_ptr&lt; JKQTPColumn &gt;</text>
</a>
</g>
</g>
<!-- Node30&#45;&gt;Node29 -->
<g id="edge43" class="edge">
<title>Node30&#45;&gt;Node29</title>
<path fill="none" stroke="#9a32cd" stroke-dasharray="5,2" d="M2411.66,-62.88C2396.84,-64.8 2381.47,-66.62 2367,-68 2186.29,-85.26 1971.14,-93.42 1872.21,-96.49"/>
<polygon fill="#9a32cd" stroke="#9a32cd" points="2412.37,-66.31 2421.82,-61.53 2411.44,-59.37 2412.37,-66.31"/>
<text text-anchor="middle" x="2164.5" y="-89.4" font-family="Helvetica,sans-Serif" font-size="12.00"> m_invalidColumn</text>
</g>
<!-- Node31&#45;&gt;Node30 -->
<g id="edge44" class="edge">
<title>Node31&#45;&gt;Node30</title>
<path fill="none" stroke="#9a32cd" stroke-dasharray="5,2" d="M2223.69,-51C2268.35,-51 2331.24,-51 2384.85,-51"/>
<polygon fill="#9a32cd" stroke="#9a32cd" points="2223.6,-47.5 2213.6,-51 2223.6,-54.5 2223.6,-47.5"/>
<text text-anchor="middle" x="2310.5" y="-54.4" font-family="Helvetica,sans-Serif" font-size="12.00"> ptr</text>
</g>
<!-- Node32 -->
<g id="node32" class="node">
<title>Node32</title>
<g id="a_node32"><a xlink:title=" ">
<polygon fill="none" stroke="black" points="2094.5,-0.5 2094.5,-21.5 2234.5,-21.5 2234.5,-0.5 2094.5,-0.5"/>
<text text-anchor="middle" x="2164.5" y="-7.9" font-family="Helvetica,sans-Serif" font-size="12.00">std::unique_ptr&lt; T &gt;</text>
</a>
</g>
</g>
<!-- Node32&#45;&gt;Node30 -->
<g id="edge46" class="edge">
<title>Node32&#45;&gt;Node30</title>
<path fill="none" stroke="orange" stroke-dasharray="5,2" d="M2244.82,-19.64C2281.95,-23.8 2326.76,-28.96 2367,-34 2383.02,-36.01 2400.18,-38.27 2416.48,-40.48"/>
<polygon fill="orange" stroke="orange" points="2244.88,-16.13 2234.56,-18.5 2244.11,-23.09 2244.88,-16.13"/>
<text text-anchor="middle" x="2310.5" y="-37.4" font-family="Helvetica,sans-Serif" font-size="12.00"> &lt; JKQTPColumn &gt;</text>
</g>
<!-- Node33 -->
<g id="node33" class="node">
<title>Node33</title>
<g id="a_node33"><a xlink:title=" ">
<polygon fill="none" stroke="black" points="1802,-0.5 1802,-21.5 1831,-21.5 1831,-0.5 1802,-0.5"/>
<text text-anchor="middle" x="1816.5" y="-7.9" font-family="Helvetica,sans-Serif" font-size="12.00">T</text>
</a>
</g>
</g>
<!-- Node33&#45;&gt;Node32 -->
<g id="edge47" class="edge">
<title>Node33&#45;&gt;Node32</title>
<path fill="none" stroke="#9a32cd" stroke-dasharray="5,2" d="M1841.16,-11C1892.51,-11 2015.87,-11 2094.23,-11"/>
<polygon fill="#9a32cd" stroke="#9a32cd" points="1841.06,-7.5 1831.06,-11 1841.06,-14.5 1841.06,-7.5"/>
<text text-anchor="middle" x="1990.5" y="-14.4" font-family="Helvetica,sans-Serif" font-size="12.00"> ptr</text>
</g>
<!-- Node34 -->
<g id="node34" class="node">
<title>Node34</title>
<g id="a_node34"><a xlink:href="class_j_k_q_t_p_graph_line_style_mixin.html" target="_top" xlink:title="This Mix&#45;In class provides setter/getter methods, storage and other facilities for the graph line sty...">
<polygon fill="none" stroke="black" points="2953,-86.5 2953,-107.5 3127,-107.5 3127,-86.5 2953,-86.5"/>
<text text-anchor="middle" x="3040" y="-93.9" font-family="Helvetica,sans-Serif" font-size="12.00">JKQTPGraphLineStyleMixin</text>
</a>
</g>
</g>
<!-- Node34&#45;&gt;Node3 -->
<g id="edge49" class="edge">
<title>Node34&#45;&gt;Node3</title>
<path fill="none" stroke="midnightblue" d="M3137.32,-99.88C3139.91,-99.92 3142.47,-99.96 3145,-100 3184.33,-100.57 3228.28,-100.6 3263.8,-100.48"/>
<polygon fill="midnightblue" stroke="midnightblue" points="3137.32,-96.38 3127.26,-99.68 3137.19,-103.37 3137.32,-96.38"/>
</g>
<!-- Node34&#45;&gt;Node3 -->
<g id="edge51" class="edge">
<title>Node34&#45;&gt;Node3</title>
<path fill="none" stroke="#9a32cd" stroke-dasharray="5,2" d="M3119.46,-85.3C3128.06,-84.36 3136.7,-83.56 3145,-83 3189.79,-80 3201.32,-78.68 3246,-83 3259.63,-84.32 3274.3,-86.78 3287.64,-89.42"/>
<polygon fill="#9a32cd" stroke="#9a32cd" points="3118.93,-81.84 3109.4,-86.47 3119.73,-88.79 3118.93,-81.84"/>
<text text-anchor="middle" x="3195.5" y="-86.4" font-family="Helvetica,sans-Serif" font-size="12.00"> m_baselineStyle</text>
</g>
<!-- Node35 -->
<g id="node35" class="node">
<title>Node35</title>
<g id="a_node35"><a xlink:href="class_j_k_q_t_p_graph_fill_style_mixin.html" target="_top" xlink:title="This Mix&#45;In class provides setter/getter methods, storage and other facilities for the graph filling ...">
<polygon fill="none" stroke="black" points="2958,-28.5 2958,-49.5 3122,-49.5 3122,-28.5 2958,-28.5"/>
<text text-anchor="middle" x="3040" y="-35.9" font-family="Helvetica,sans-Serif" font-size="12.00">JKQTPGraphFillStyleMixin</text>
</a>
</g>
</g>
<!-- Node35&#45;&gt;Node3 -->
<g id="edge50" class="edge">
<title>Node35&#45;&gt;Node3</title>
<path fill="none" stroke="midnightblue" d="M3118.36,-51.26C3156.89,-57.8 3204.08,-66.46 3246,-76 3263.11,-79.9 3281.9,-84.98 3297.63,-89.46"/>
<polygon fill="midnightblue" stroke="midnightblue" points="3118.69,-47.77 3108.25,-49.56 3117.53,-54.67 3118.69,-47.77"/>
</g>
<!-- Node35&#45;&gt;Node3 -->
<g id="edge52" class="edge">
<title>Node35&#45;&gt;Node3</title>
<path fill="none" stroke="#9a32cd" stroke-dasharray="5,2" d="M3123.79,-27.77C3161.84,-25.43 3207.06,-26.71 3246,-39 3277.49,-48.94 3307.48,-74.8 3322.67,-89.46"/>
<polygon fill="#9a32cd" stroke="#9a32cd" points="3123.5,-24.28 3113.78,-28.48 3124,-31.27 3123.5,-24.28"/>
<text text-anchor="middle" x="3195.5" y="-42.4" font-family="Helvetica,sans-Serif" font-size="12.00"> m_fillStyleBelow</text>
</g>
</g>
</svg>
        <g id="navigator" transform="translate(0 0)" fill="#404254">
                <rect fill="#f2f5e9" fill-opacity="0.5" stroke="#606060" stroke-width=".5" x="0" y="0" width="60" height="60"/>
                <use id="zoomplus" xlink:href="#zoomPlus" x="17" y="9" onmousedown="handleZoom(evt,'in')"/>
                <use id="zoomminus" xlink:href="#zoomMin" x="42" y="9" onmousedown="handleZoom(evt,'out')"/>
                <use id="reset" xlink:href="#resetDef" x="30" y="36" onmousedown="handleReset()"/>
                <g id="arrowUp" xlink:href="#dirArrow" transform="translate(30 24)" onmousedown="handlePan(0,-1)">
                  <use xlink:href="#rim" fill="#404040">
                        <set attributeName="fill" to="#808080" begin="arrowUp.mouseover" end="arrowUp.mouseout"/>
                  </use>
                  <path fill="none" stroke="white" stroke-width="1.5" d="M0,-3.0v7 M-2.5,-0.5L0,-3.0L2.5,-0.5"/>
                </g>
                <g id="arrowRight" xlink:href="#dirArrow" transform="rotate(90) translate(36 -43)" onmousedown="handlePan(1,0)">
                  <use xlink:href="#rim" fill="#404040">
                        <set attributeName="fill" to="#808080" begin="arrowRight.mouseover" end="arrowRight.mouseout"/>
                  </use>
                  <path fill="none" stroke="white" stroke-width="1.5" d="M0,-3.0v7 M-2.5,-0.5L0,-3.0L2.5,-0.5"/>
                </g>
                <g id="arrowDown" xlink:href="#dirArrow" transform="rotate(180) translate(-30 -48)" onmousedown="handlePan(0,1)">
                  <use xlink:href="#rim" fill="#404040">
                        <set attributeName="fill" to="#808080" begin="arrowDown.mouseover" end="arrowDown.mouseout"/>
                  </use>
                  <path fill="none" stroke="white" stroke-width="1.5" d="M0,-3.0v7 M-2.5,-0.5L0,-3.0L2.5,-0.5"/>
                </g>
                <g id="arrowLeft" xlink:href="#dirArrow" transform="rotate(270) translate(-36 17)" onmousedown="handlePan(-1,0)">
                  <use xlink:href="#rim" fill="#404040">
                        <set attributeName="fill" to="#808080" begin="arrowLeft.mouseover" end="arrowLeft.mouseout"/>
                  </use>
                  <path fill="none" stroke="white" stroke-width="1.5" d="M0,-3.0v7 M-2.5,-0.5L0,-3.0L2.5,-0.5"/>
                </g>
        </g>
        <svg viewBox="0 0 15 15" width="100%" height="30px" preserveAspectRatio="xMaxYMin meet">
         <g id="arrow_out" transform="scale(0.3 0.3)">
          <a xlink:href="class_j_k_q_t_p_bar_vertical_stackable_graph__coll__graph_org.svg" target="_base">
           <rect id="button" ry="5" rx="5" y="6" x="6" height="38" width="38"
                fill="#f2f5e9" fill-opacity="0.5" stroke="#606060" stroke-width="1.0"/>
           <path id="arrow"
             d="M 11.500037,31.436501 C 11.940474,20.09759 22.043105,11.32322 32.158766,21.979434 L 37.068811,17.246167 C 37.068811,17.246167 37.088388,32 37.088388,32 L 22.160133,31.978069 C 22.160133,31.978069 26.997745,27.140456 26.997745,27.140456 C 18.528582,18.264221 13.291696,25.230495 11.500037,31.436501 z"
             style="fill:#404040;"/>
          </a>
         </g>
        </svg>
</svg>
