<?xml version="1.0" encoding="UTF-8" standalone="no"?>
<!DOCTYPE svg PUBLIC "-//W3C//DTD SVG 1.1//EN"
 "http://www.w3.org/Graphics/SVG/1.1/DTD/svg11.dtd">
<!-- Generated by graphviz version 2.43.0 (0)
 -->
<!-- Title: JKQTPHorizontalRange Pages: 1 -->
<svg width="2899pt" height="684pt"
 viewBox="0.00 0.00 2899.00 683.50" xmlns="http://www.w3.org/2000/svg" xmlns:xlink="http://www.w3.org/1999/xlink">
<g id="graph0" class="graph" transform="scale(1 1) rotate(0) translate(4 679.5)">
<title>JKQTPHorizontalRange</title>
<!-- Node1 -->
<g id="node1" class="node">
<title>Node1</title>
<g id="a_node1"><a xlink:title="simply marks a range (and possibly a centerline) in a plot. This may be used to display e....">
<polygon fill="#999999" stroke="#666666" points="2891,-60 2739,-60 2739,-39 2891,-39 2891,-60"/>
<text text-anchor="middle" x="2815" y="-46.4" font-family="Helvetica,sans-Serif" font-size="12.00">JKQTPHorizontalRange</text>
</a>
</g>
</g>
<!-- Node2 -->
<g id="node2" class="node">
<title>Node2</title>
<g id="a_node2"><a xlink:href="class_j_k_q_t_p_range_base.html" target="_top" xlink:title="simply marks a range (and possibly a centerline) in a plot. This may be used to display e....">
<polygon fill="white" stroke="#666666" points="2693.5,-60 2573.5,-60 2573.5,-39 2693.5,-39 2693.5,-60"/>
<text text-anchor="middle" x="2633.5" y="-46.4" font-family="Helvetica,sans-Serif" font-size="12.00">JKQTPRangeBase</text>
</a>
</g>
</g>
<!-- Node2&#45;&gt;Node1 -->
<g id="edge1" class="edge">
<title>Node2&#45;&gt;Node1</title>
<path fill="none" stroke="#63b8ff" d="M2704.07,-49.5C2715.45,-49.5 2727.28,-49.5 2738.78,-49.5"/>
<polygon fill="#63b8ff" stroke="#63b8ff" points="2703.77,-46 2693.77,-49.5 2703.77,-53 2703.77,-46"/>
</g>
<!-- Node3 -->
<g id="node3" class="node">
<title>Node3</title>
<g id="a_node3"><a xlink:href="class_j_k_q_t_p_plot_element.html" target="_top" xlink:title="this virtual base class of every element, which is part of a JKQTPlotter plot and may appear in its k...">
<polygon fill="white" stroke="#666666" points="2483,-187 2358,-187 2358,-166 2483,-166 2483,-187"/>
<text text-anchor="middle" x="2420.5" y="-173.4" font-family="Helvetica,sans-Serif" font-size="12.00">JKQTPPlotElement</text>
</a>
</g>
</g>
<!-- Node3&#45;&gt;Node2 -->
<g id="edge2" class="edge">
<title>Node3&#45;&gt;Node2</title>
<path fill="none" stroke="#63b8ff" d="M2447.75,-160.7C2491.36,-134.45 2577.61,-82.54 2614.77,-60.17"/>
<polygon fill="#63b8ff" stroke="#63b8ff" points="2445.89,-157.73 2439.13,-165.89 2449.5,-163.73 2445.89,-157.73"/>
</g>
<!-- Node4 -->
<g id="node4" class="node">
<title>Node4</title>
<g id="a_node4"><a xlink:title=" ">
<polygon fill="white" stroke="#666666" points="1507.5,-262 1442.5,-262 1442.5,-241 1507.5,-241 1507.5,-262"/>
<text text-anchor="middle" x="1475" y="-248.4" font-family="Helvetica,sans-Serif" font-size="12.00">QObject</text>
</a>
</g>
</g>
<!-- Node4&#45;&gt;Node3 -->
<g id="edge3" class="edge">
<title>Node4&#45;&gt;Node3</title>
<path fill="none" stroke="#63b8ff" d="M1517.83,-248.17C1667.88,-236.25 2179.61,-195.57 2357.75,-181.41"/>
<polygon fill="#63b8ff" stroke="#63b8ff" points="1517.35,-244.7 1507.66,-248.98 1517.91,-251.68 1517.35,-244.7"/>
</g>
<!-- Node5 -->
<g id="node5" class="node">
<title>Node5</title>
<g id="a_node5"><a xlink:href="class_j_k_q_t_base_plotter.html" target="_top" xlink:title="base class for 2D plotter classes (used by the plotter widget JKQTPlotter)">
<polygon fill="white" stroke="#666666" points="2149.5,-370 2035.5,-370 2035.5,-349 2149.5,-349 2149.5,-370"/>
<text text-anchor="middle" x="2092.5" y="-356.4" font-family="Helvetica,sans-Serif" font-size="12.00">JKQTBasePlotter</text>
</a>
</g>
</g>
<!-- Node4&#45;&gt;Node5 -->
<g id="edge5" class="edge">
<title>Node4&#45;&gt;Node5</title>
<path fill="none" stroke="#63b8ff" d="M1507.39,-266.19C1529.99,-276.33 1561.4,-289.54 1590,-298.5 1767.46,-354.07 1817.15,-371.79 2003,-365.5 2013.47,-365.15 2024.62,-364.56 2035.35,-363.88"/>
<polygon fill="#63b8ff" stroke="#63b8ff" points="1508.83,-263 1498.28,-262.05 1505.94,-269.37 1508.83,-263"/>
</g>
<!-- Node18 -->
<g id="node18" class="node">
<title>Node18</title>
<g id="a_node18"><a xlink:href="class_j_k_q_t_math_text.html" target="_top" xlink:title="this class parses a mathematical markup string and can then draw the contained text/equation onto a Q...">
<polygon fill="white" stroke="#666666" points="1866,-323 1767,-323 1767,-302 1866,-302 1866,-323"/>
<text text-anchor="middle" x="1816.5" y="-309.4" font-family="Helvetica,sans-Serif" font-size="12.00">JKQTMathText</text>
</a>
</g>
</g>
<!-- Node4&#45;&gt;Node18 -->
<g id="edge24" class="edge">
<title>Node4&#45;&gt;Node18</title>
<path fill="none" stroke="#63b8ff" d="M1517.61,-258.98C1580.58,-270.29 1699.82,-291.72 1766.76,-303.74"/>
<polygon fill="#63b8ff" stroke="#63b8ff" points="1518.1,-255.51 1507.63,-257.18 1516.86,-262.4 1518.1,-255.51"/>
</g>
<!-- Node23 -->
<g id="node23" class="node">
<title>Node23</title>
<g id="a_node23"><a xlink:href="class_j_k_q_t_p_coordinate_axis.html" target="_top" xlink:title="this virtual class is the base for any type of coordinate axis, to be drawn by JKQTBasePlotter.">
<polygon fill="white" stroke="#666666" points="2491.5,-284 2349.5,-284 2349.5,-263 2491.5,-263 2491.5,-284"/>
<text text-anchor="middle" x="2420.5" y="-270.4" font-family="Helvetica,sans-Serif" font-size="12.00">JKQTPCoordinateAxis</text>
</a>
</g>
</g>
<!-- Node4&#45;&gt;Node23 -->
<g id="edge33" class="edge">
<title>Node4&#45;&gt;Node23</title>
<path fill="none" stroke="#63b8ff" d="M1517.93,-250.62C1627.24,-248.37 1929.91,-242.46 2182,-240.5 2232.22,-240.11 2245.2,-234.01 2295,-240.5 2327.6,-244.75 2363.81,-255 2388.74,-262.96"/>
<polygon fill="#63b8ff" stroke="#63b8ff" points="1517.59,-247.13 1507.66,-250.83 1517.73,-254.12 1517.59,-247.13"/>
</g>
<!-- Node5&#45;&gt;Node3 -->
<g id="edge4" class="edge">
<title>Node5&#45;&gt;Node3</title>
<path fill="none" stroke="#9a32cd" stroke-dasharray="5,2" d="M2146.37,-344.41C2152.99,-340.72 2159.13,-336.15 2164,-330.5 2185.81,-305.18 2159.42,-282.13 2182,-257.5 2227.26,-208.12 2303.82,-188.84 2357.76,-181.31"/>
<polygon fill="#9a32cd" stroke="#9a32cd" points="2144.57,-341.39 2137.12,-348.92 2147.64,-347.68 2144.57,-341.39"/>
<text text-anchor="middle" x="2238.5" y="-260.9" font-family="Helvetica,sans-Serif" font-size="12.00"> parent</text>
</g>
<!-- Node5&#45;&gt;Node5 -->
<g id="edge44" class="edge">
<title>Node5&#45;&gt;Node5</title>
<path fill="none" stroke="#9a32cd" stroke-dasharray="5,2" d="M2067.07,-379.57C2069.03,-384.41 2077.51,-388 2092.5,-388 2116.49,-388 2123.8,-378.81 2114.43,-370.02"/>
<polygon fill="#9a32cd" stroke="#9a32cd" points="2070.41,-380.62 2070.57,-370.02 2063.84,-378.21 2070.41,-380.62"/>
<text text-anchor="middle" x="2092.5" y="-404.4" font-family="Helvetica,sans-Serif" font-size="12.00"> masterPlotterX</text>
<text text-anchor="middle" x="2092.5" y="-391.4" font-family="Helvetica,sans-Serif" font-size="12.00">masterPlotterY</text>
</g>
<!-- Node20 -->
<g id="node20" class="node">
<title>Node20</title>
<g id="a_node20"><a xlink:href="class_j_k_q_t_p_graphs_model.html" target="_top" xlink:title="data model with all plots ina JKQTBasePlotter (+ allows to switch them visible/invisible)">
<polygon fill="white" stroke="#666666" points="2486,-384 2355,-384 2355,-363 2486,-363 2486,-384"/>
<text text-anchor="middle" x="2420.5" y="-370.4" font-family="Helvetica,sans-Serif" font-size="12.00">JKQTPGraphsModel</text>
</a>
</g>
</g>
<!-- Node5&#45;&gt;Node20 -->
<g id="edge30" class="edge">
<title>Node5&#45;&gt;Node20</title>
<path fill="none" stroke="#9a32cd" stroke-dasharray="5,2" d="M2159.75,-368.55C2167.24,-369.33 2174.78,-370.01 2182,-370.5 2240.42,-374.49 2307.1,-374.97 2354.91,-374.62"/>
<polygon fill="#9a32cd" stroke="#9a32cd" points="2159.91,-365.04 2149.59,-367.42 2159.15,-372 2159.91,-365.04"/>
<text text-anchor="middle" x="2238.5" y="-376.9" font-family="Helvetica,sans-Serif" font-size="12.00"> m_plotter</text>
</g>
<!-- Node5&#45;&gt;Node23 -->
<g id="edge34" class="edge">
<title>Node5&#45;&gt;Node23</title>
<path fill="none" stroke="#9a32cd" stroke-dasharray="5,2" d="M2141.89,-344.89C2149.85,-341.06 2157.59,-336.32 2164,-330.5 2176.66,-319.01 2167.79,-306.02 2182,-296.5 2208.54,-278.72 2289.33,-274.02 2349.35,-273.09"/>
<polygon fill="#9a32cd" stroke="#9a32cd" points="2140.27,-341.77 2132.49,-348.98 2143.06,-348.19 2140.27,-341.77"/>
<text text-anchor="middle" x="2238.5" y="-299.9" font-family="Helvetica,sans-Serif" font-size="12.00"> parent</text>
</g>
<!-- Node6 -->
<g id="node6" class="node">
<title>Node6</title>
<g id="a_node6"><a xlink:href="class_j_k_q_t_base_plotter_style.html" target="_top" xlink:title="Support Class for JKQTBasePlotter, which summarizes all properties that define the visual styling of ...">
<polygon fill="white" stroke="#666666" points="1888,-480 1745,-480 1745,-459 1888,-459 1888,-480"/>
<text text-anchor="middle" x="1816.5" y="-466.4" font-family="Helvetica,sans-Serif" font-size="12.00">JKQTBasePlotterStyle</text>
</a>
</g>
</g>
<!-- Node6&#45;&gt;Node5 -->
<g id="edge6" class="edge">
<title>Node6&#45;&gt;Node5</title>
<path fill="none" stroke="#9a32cd" stroke-dasharray="5,2" d="M1867.95,-456.16C1905.84,-445.44 1958.62,-428.98 2003,-409.5 2029.18,-398.01 2057.66,-381.04 2075.05,-370.13"/>
<polygon fill="#9a32cd" stroke="#9a32cd" points="1866.86,-452.84 1858.17,-458.9 1868.74,-459.58 1866.86,-452.84"/>
<text text-anchor="middle" x="1954.5" y="-446.9" font-family="Helvetica,sans-Serif" font-size="12.00"> plotterStyle</text>
</g>
<!-- Node7 -->
<g id="node7" class="node">
<title>Node7</title>
<g id="a_node7"><a xlink:href="class_j_k_q_t_p_key_style.html" target="_top" xlink:title="Support Class for JKQTBasePlotter, which summarizes all properties that define the visual styling of ...">
<polygon fill="white" stroke="#666666" points="1527,-535 1423,-535 1423,-514 1527,-514 1527,-535"/>
<text text-anchor="middle" x="1475" y="-521.4" font-family="Helvetica,sans-Serif" font-size="12.00">JKQTPKeyStyle</text>
</a>
</g>
</g>
<!-- Node7&#45;&gt;Node6 -->
<g id="edge7" class="edge">
<title>Node7&#45;&gt;Node6</title>
<path fill="none" stroke="#9a32cd" stroke-dasharray="5,2" d="M1537.32,-514.57C1597.53,-504.81 1689.05,-489.99 1750.5,-480.03"/>
<polygon fill="#9a32cd" stroke="#9a32cd" points="1536.51,-511.15 1527.19,-516.21 1537.63,-518.06 1536.51,-511.15"/>
<text text-anchor="middle" x="1658.5" y="-507.9" font-family="Helvetica,sans-Serif" font-size="12.00"> keyStyle</text>
</g>
<!-- Node8 -->
<g id="node8" class="node">
<title>Node8</title>
<g id="a_node8"><a xlink:href="class_j_k_q_t_p_coordinate_axis_style.html" target="_top" xlink:title="Support Class for JKQTPCoordinateAxis, which summarizes all properties that define the visual styling...">
<polygon fill="white" stroke="#666666" points="1234,-427 1063,-427 1063,-406 1234,-406 1234,-427"/>
<text text-anchor="middle" x="1148.5" y="-413.4" font-family="Helvetica,sans-Serif" font-size="12.00">JKQTPCoordinateAxisStyle</text>
</a>
</g>
</g>
<!-- Node8&#45;&gt;Node6 -->
<g id="edge8" class="edge">
<title>Node8&#45;&gt;Node6</title>
<path fill="none" stroke="#9a32cd" stroke-dasharray="5,2" d="M1242.7,-428.25C1249.23,-429.03 1255.71,-429.78 1262,-430.5 1313.5,-436.37 1326.35,-438.24 1378,-442.5 1507.31,-453.17 1658.44,-461.61 1744.97,-466.05"/>
<polygon fill="#9a32cd" stroke="#9a32cd" points="1242.76,-424.73 1232.42,-427.02 1241.93,-431.68 1242.76,-424.73"/>
<text text-anchor="middle" x="1475" y="-471.9" font-family="Helvetica,sans-Serif" font-size="12.00"> xAxisStyle</text>
<text text-anchor="middle" x="1475" y="-458.9" font-family="Helvetica,sans-Serif" font-size="12.00">yAxisStyle</text>
</g>
<!-- Node10 -->
<g id="node10" class="node">
<title>Node10</title>
<g id="a_node10"><a xlink:href="class_j_k_q_t_p_colorbar_coordinate_axis_style.html" target="_top" xlink:title="Support Class for JKQTPCoordinateAxis, which summarizes all properties that define the visual styling...">
<polygon fill="white" stroke="#666666" points="1572,-433.5 1378,-433.5 1378,-399.5 1572,-399.5 1572,-433.5"/>
<text text-anchor="start" x="1386" y="-419.9" font-family="Helvetica,sans-Serif" font-size="12.00">JKQTPColorbarCoordinateAxis</text>
<text text-anchor="middle" x="1475" y="-406.9" font-family="Helvetica,sans-Serif" font-size="12.00">Style</text>
</a>
</g>
</g>
<!-- Node8&#45;&gt;Node10 -->
<g id="edge11" class="edge">
<title>Node8&#45;&gt;Node10</title>
<path fill="none" stroke="#63b8ff" d="M1244.56,-416.5C1286.54,-416.5 1335.81,-416.5 1377.91,-416.5"/>
<polygon fill="#63b8ff" stroke="#63b8ff" points="1244.33,-413 1234.33,-416.5 1244.33,-420 1244.33,-413"/>
</g>
<!-- Node8&#45;&gt;Node23 -->
<g id="edge35" class="edge">
<title>Node8&#45;&gt;Node23</title>
<path fill="none" stroke="#9a32cd" stroke-dasharray="5,2" d="M1160.46,-397C1196.58,-335.64 1318.42,-150.5 1474,-150.5 1474,-150.5 1474,-150.5 1955.5,-150.5 2130.09,-150.5 2329.67,-232.87 2396.42,-262.8"/>
<polygon fill="#9a32cd" stroke="#9a32cd" points="1157.39,-395.33 1155.41,-405.74 1163.45,-398.84 1157.39,-395.33"/>
<text text-anchor="middle" x="1816.5" y="-153.9" font-family="Helvetica,sans-Serif" font-size="12.00"> axisStyle</text>
</g>
<!-- Node9 -->
<g id="node9" class="node">
<title>Node9</title>
<g id="a_node9"><a xlink:href="class_j_k_q_t_p_grid_style.html" target="_top" xlink:title="Support Class for JKQTPCoordinateAxis, and summarizes all properties that define the visual styling o...">
<polygon fill="white" stroke="#666666" points="805.5,-427 698.5,-427 698.5,-406 805.5,-406 805.5,-427"/>
<text text-anchor="middle" x="752" y="-413.4" font-family="Helvetica,sans-Serif" font-size="12.00">JKQTPGridStyle</text>
</a>
</g>
</g>
<!-- Node9&#45;&gt;Node8 -->
<g id="edge9" class="edge">
<title>Node9&#45;&gt;Node8</title>
<path fill="none" stroke="#9a32cd" stroke-dasharray="5,2" d="M816.18,-416.5C883.03,-416.5 988.9,-416.5 1062.92,-416.5"/>
<polygon fill="#9a32cd" stroke="#9a32cd" points="815.79,-413 805.79,-416.5 815.79,-420 815.79,-413"/>
<text text-anchor="middle" x="948.5" y="-432.9" font-family="Helvetica,sans-Serif" font-size="12.00"> majorGridStyle</text>
<text text-anchor="middle" x="948.5" y="-419.9" font-family="Helvetica,sans-Serif" font-size="12.00">minorGridStyle</text>
</g>
<!-- Node10&#45;&gt;Node6 -->
<g id="edge10" class="edge">
<title>Node10&#45;&gt;Node6</title>
<path fill="none" stroke="#9a32cd" stroke-dasharray="5,2" d="M1582.36,-413.32C1627.52,-414.19 1680.38,-418.18 1727,-429.5 1752.72,-435.74 1780.18,-449.37 1797.57,-458.98"/>
<polygon fill="#9a32cd" stroke="#9a32cd" points="1582.31,-409.82 1572.26,-413.17 1582.21,-416.81 1582.31,-409.82"/>
<text text-anchor="middle" x="1658.5" y="-445.9" font-family="Helvetica,sans-Serif" font-size="12.00"> rightColorbarAxisStyle</text>
<text text-anchor="middle" x="1658.5" y="-432.9" font-family="Helvetica,sans-Serif" font-size="12.00">topColorbarAxisStyle</text>
</g>
<!-- Node11 -->
<g id="node11" class="node">
<title>Node11</title>
<g id="a_node11"><a xlink:href="class_j_k_q_t_graphs_base_style.html" target="_top" xlink:title="Support Class for JKQTBasePlotter, which summarizes all properties that define the visual styling of ...">
<polygon fill="white" stroke="#666666" points="1548,-589 1402,-589 1402,-568 1548,-568 1548,-589"/>
<text text-anchor="middle" x="1475" y="-575.4" font-family="Helvetica,sans-Serif" font-size="12.00">JKQTGraphsBaseStyle</text>
</a>
</g>
</g>
<!-- Node11&#45;&gt;Node6 -->
<g id="edge12" class="edge">
<title>Node11&#45;&gt;Node6</title>
<path fill="none" stroke="#9a32cd" stroke-dasharray="5,2" d="M1558.19,-566.42C1608.15,-557.48 1672.59,-543.06 1727,-521.5 1754.67,-510.54 1783.9,-491.75 1800.88,-480.01"/>
<polygon fill="#9a32cd" stroke="#9a32cd" points="1557.32,-563.02 1548.08,-568.19 1558.53,-569.91 1557.32,-563.02"/>
<text text-anchor="middle" x="1658.5" y="-562.9" font-family="Helvetica,sans-Serif" font-size="12.00"> graphsStyle</text>
</g>
<!-- Node12 -->
<g id="node12" class="node">
<title>Node12</title>
<g id="a_node12"><a xlink:href="class_j_k_q_t_graphs_specific_style_properties.html" target="_top" xlink:title="Support Class for JKQTBasePlotter, which summarizes all properties that define the visual styling of ...">
<polygon fill="white" stroke="#666666" points="623,-575 399,-575 399,-554 623,-554 623,-575"/>
<text text-anchor="middle" x="511" y="-561.4" font-family="Helvetica,sans-Serif" font-size="12.00">JKQTGraphsSpecificStyleProperties</text>
</a>
</g>
</g>
<!-- Node12&#45;&gt;Node11 -->
<g id="edge13" class="edge">
<title>Node12&#45;&gt;Node11</title>
<path fill="none" stroke="#9a32cd" stroke-dasharray="5,2" d="M633.28,-570.27C635.87,-570.35 638.45,-570.43 641,-570.5 922.37,-578.39 1257.37,-578.91 1401.84,-578.7"/>
<polygon fill="#9a32cd" stroke="#9a32cd" points="633.28,-566.77 623.17,-569.93 633.05,-573.76 633.28,-566.77"/>
<text text-anchor="middle" x="948.5" y="-605.9" font-family="Helvetica,sans-Serif" font-size="12.00"> boxplotStyle</text>
<text text-anchor="middle" x="948.5" y="-592.9" font-family="Helvetica,sans-Serif" font-size="12.00">defaultGraphStyle</text>
<text text-anchor="middle" x="948.5" y="-579.9" font-family="Helvetica,sans-Serif" font-size="12.00">filledStyle</text>
</g>
<!-- Node14 -->
<g id="node14" class="node">
<title>Node14</title>
<g id="a_node14"><a xlink:href="class_j_k_q_t_barchart_specific_style_properties.html" target="_top" xlink:title="Support Class for JKQTBasePlotter, which summarizes all properties that define the visual styling of ...">
<polygon fill="white" stroke="#666666" points="1035,-560.5 862,-560.5 862,-526.5 1035,-526.5 1035,-560.5"/>
<text text-anchor="start" x="870" y="-546.9" font-family="Helvetica,sans-Serif" font-size="12.00">JKQTBarchartSpecificStyle</text>
<text text-anchor="middle" x="948.5" y="-533.9" font-family="Helvetica,sans-Serif" font-size="12.00">Properties</text>
</a>
</g>
</g>
<!-- Node12&#45;&gt;Node14 -->
<g id="edge16" class="edge">
<title>Node12&#45;&gt;Node14</title>
<path fill="none" stroke="#63b8ff" d="M633.15,-558.66C705.82,-555.15 796.5,-550.78 861.76,-547.63"/>
<polygon fill="#63b8ff" stroke="#63b8ff" points="632.84,-555.17 623.02,-559.15 633.18,-562.16 632.84,-555.17"/>
</g>
<!-- Node15 -->
<g id="node15" class="node">
<title>Node15</title>
<g id="a_node15"><a xlink:href="class_j_k_q_t_impulse_specific_style_properties.html" target="_top" xlink:title="Support Class for JKQTBasePlotter, which summarizes all properties that define the visual styling of ...">
<polygon fill="white" stroke="#666666" points="1032.5,-516.5 864.5,-516.5 864.5,-482.5 1032.5,-482.5 1032.5,-516.5"/>
<text text-anchor="start" x="872.5" y="-502.9" font-family="Helvetica,sans-Serif" font-size="12.00">JKQTImpulseSpecificStyle</text>
<text text-anchor="middle" x="948.5" y="-489.9" font-family="Helvetica,sans-Serif" font-size="12.00">Properties</text>
</a>
</g>
</g>
<!-- Node12&#45;&gt;Node15 -->
<g id="edge18" class="edge">
<title>Node12&#45;&gt;Node15</title>
<path fill="none" stroke="#63b8ff" d="M592.63,-552.47C670.01,-540.92 786.34,-523.55 864.5,-511.89"/>
<polygon fill="#63b8ff" stroke="#63b8ff" points="591.83,-549.05 582.45,-553.98 592.86,-555.97 591.83,-549.05"/>
</g>
<!-- Node16 -->
<g id="node16" class="node">
<title>Node16</title>
<g id="a_node16"><a xlink:href="class_j_k_q_t_geometric_specific_style_properties.html" target="_top" xlink:title="Support Class for JKQTBasePlotter, which summarizes all properties that define the visual styling of ...">
<polygon fill="white" stroke="#666666" points="844,-655.5 660,-655.5 660,-621.5 844,-621.5 844,-655.5"/>
<text text-anchor="start" x="668" y="-641.9" font-family="Helvetica,sans-Serif" font-size="12.00">JKQTGeometricSpecificStyle</text>
<text text-anchor="middle" x="752" y="-628.9" font-family="Helvetica,sans-Serif" font-size="12.00">Properties</text>
</a>
</g>
</g>
<!-- Node12&#45;&gt;Node16 -->
<g id="edge20" class="edge">
<title>Node12&#45;&gt;Node16</title>
<path fill="none" stroke="#63b8ff" d="M555.59,-578C595.02,-590.21 653.28,-608.24 695.93,-621.45"/>
<polygon fill="#63b8ff" stroke="#63b8ff" points="556.58,-574.64 545.99,-575.02 554.51,-581.32 556.58,-574.64"/>
</g>
<!-- Node13 -->
<g id="node13" class="node">
<title>Node13</title>
<g id="a_node13"><a xlink:href="struct_j_k_q_t_p_color_derivation_mode.html" target="_top" xlink:title="Specifies how a fill&#45;color is derived from a given color.">
<polygon fill="white" stroke="#666666" points="179,-575 0,-575 0,-554 179,-554 179,-575"/>
<text text-anchor="middle" x="89.5" y="-561.4" font-family="Helvetica,sans-Serif" font-size="12.00">JKQTPColorDerivationMode</text>
</a>
</g>
</g>
<!-- Node13&#45;&gt;Node12 -->
<g id="edge14" class="edge">
<title>Node13&#45;&gt;Node12</title>
<path fill="none" stroke="#9a32cd" stroke-dasharray="5,2" d="M189.53,-564.5C252.41,-564.5 333.9,-564.5 398.97,-564.5"/>
<polygon fill="#9a32cd" stroke="#9a32cd" points="189.21,-561 179.21,-564.5 189.21,-568 189.21,-561"/>
<text text-anchor="middle" x="289" y="-619.9" font-family="Helvetica,sans-Serif" font-size="12.00"> errorColorDerivationMode</text>
<text text-anchor="middle" x="289" y="-606.9" font-family="Helvetica,sans-Serif" font-size="12.00">errorFillColorDerivationMode</text>
<text text-anchor="middle" x="289" y="-593.9" font-family="Helvetica,sans-Serif" font-size="12.00">fillColorDerivationMode</text>
<text text-anchor="middle" x="289" y="-580.9" font-family="Helvetica,sans-Serif" font-size="12.00">graphColorDerivationMode</text>
<text text-anchor="middle" x="289" y="-567.9" font-family="Helvetica,sans-Serif" font-size="12.00">symbolFillColorDerivationMode</text>
</g>
<!-- Node14&#45;&gt;Node11 -->
<g id="edge15" class="edge">
<title>Node14&#45;&gt;Node11</title>
<path fill="none" stroke="#9a32cd" stroke-dasharray="5,2" d="M1045.44,-547C1103.04,-549.37 1177.76,-552.9 1244,-557.5 1296.9,-561.17 1356.53,-566.65 1401.81,-571.1"/>
<polygon fill="#9a32cd" stroke="#9a32cd" points="1045.39,-543.5 1035.25,-546.59 1045.1,-550.49 1045.39,-543.5"/>
<text text-anchor="middle" x="1148.5" y="-560.9" font-family="Helvetica,sans-Serif" font-size="12.00"> barchartStyle</text>
</g>
<!-- Node15&#45;&gt;Node11 -->
<g id="edge17" class="edge">
<title>Node15&#45;&gt;Node11</title>
<path fill="none" stroke="#9a32cd" stroke-dasharray="5,2" d="M1042.87,-506.95C1100.93,-512.16 1177.03,-520.07 1244,-530.5 1296.02,-538.6 1308.46,-543.74 1360,-554.5 1380.99,-558.88 1404.14,-563.75 1424.07,-567.95"/>
<polygon fill="#9a32cd" stroke="#9a32cd" points="1042.88,-503.43 1032.61,-506.03 1042.27,-510.41 1042.88,-503.43"/>
<text text-anchor="middle" x="1148.5" y="-533.9" font-family="Helvetica,sans-Serif" font-size="12.00"> impulseStyle</text>
</g>
<!-- Node16&#45;&gt;Node11 -->
<g id="edge19" class="edge">
<title>Node16&#45;&gt;Node11</title>
<path fill="none" stroke="#9a32cd" stroke-dasharray="5,2" d="M854.27,-650.29C953.75,-659.92 1109.73,-669.8 1244,-655.5 1296.44,-649.91 1309.94,-647.1 1360,-630.5 1394.28,-619.14 1432.03,-600.65 1454.35,-589.05"/>
<polygon fill="#9a32cd" stroke="#9a32cd" points="854.52,-646.79 844.22,-649.3 853.83,-653.76 854.52,-646.79"/>
<text text-anchor="middle" x="1148.5" y="-665.9" font-family="Helvetica,sans-Serif" font-size="12.00"> geometricStyle</text>
</g>
<!-- Node17 -->
<g id="node17" class="node">
<title>Node17</title>
<g id="a_node17"><a xlink:href="class_j_k_q_t_annotations_specific_style_properties.html" target="_top" xlink:title="Support Class for JKQTBasePlotter, which summarizes all properties that define the visual styling of ...">
<polygon fill="white" stroke="#666666" points="1244,-646.5 1053,-646.5 1053,-612.5 1244,-612.5 1244,-646.5"/>
<text text-anchor="start" x="1061" y="-632.9" font-family="Helvetica,sans-Serif" font-size="12.00">JKQTAnnotationsSpecificStyle</text>
<text text-anchor="middle" x="1148.5" y="-619.9" font-family="Helvetica,sans-Serif" font-size="12.00">Properties</text>
</a>
</g>
</g>
<!-- Node16&#45;&gt;Node17 -->
<g id="edge22" class="edge">
<title>Node16&#45;&gt;Node17</title>
<path fill="none" stroke="#63b8ff" d="M854.07,-636.19C915.27,-634.8 992.83,-633.03 1052.84,-631.66"/>
<polygon fill="#63b8ff" stroke="#63b8ff" points="853.92,-632.7 844,-636.42 854.08,-639.69 853.92,-632.7"/>
</g>
<!-- Node17&#45;&gt;Node11 -->
<g id="edge21" class="edge">
<title>Node17&#45;&gt;Node11</title>
<path fill="none" stroke="#9a32cd" stroke-dasharray="5,2" d="M1254.06,-614.68C1287.89,-609.73 1325.56,-604.06 1360,-598.5 1378.15,-595.57 1397.89,-592.18 1415.76,-589.03"/>
<polygon fill="#9a32cd" stroke="#9a32cd" points="1253.55,-611.22 1244.15,-616.12 1254.56,-618.14 1253.55,-611.22"/>
<text text-anchor="middle" x="1311" y="-616.9" font-family="Helvetica,sans-Serif" font-size="12.00"> annotationStyle</text>
</g>
<!-- Node18&#45;&gt;Node5 -->
<g id="edge23" class="edge">
<title>Node18&#45;&gt;Node5</title>
<path fill="none" stroke="#9a32cd" stroke-dasharray="5,2" d="M1868.38,-325.43C1880.65,-328.31 1893.75,-331.19 1906,-333.5 1949.14,-341.62 1998.37,-348.41 2035.27,-353.01"/>
<polygon fill="#9a32cd" stroke="#9a32cd" points="1868.85,-321.95 1858.31,-323.03 1867.22,-328.76 1868.85,-321.95"/>
<text text-anchor="middle" x="1954.5" y="-351.9" font-family="Helvetica,sans-Serif" font-size="12.00"> mathText</text>
</g>
<!-- Node19 -->
<g id="node19" class="node">
<title>Node19</title>
<g id="a_node19"><a xlink:href="class_j_k_q_t_math_text_node.html" target="_top" xlink:title="subclass representing one node in the syntax tree">
<polygon fill="white" stroke="#666666" points="2158,-290 2027,-290 2027,-269 2158,-269 2158,-290"/>
<text text-anchor="middle" x="2092.5" y="-276.4" font-family="Helvetica,sans-Serif" font-size="12.00">JKQTMathTextNode</text>
</a>
</g>
</g>
<!-- Node18&#45;&gt;Node19 -->
<g id="edge26" class="edge">
<title>Node18&#45;&gt;Node19</title>
<path fill="none" stroke="#9a32cd" stroke-dasharray="5,2" d="M1838.41,-295.85C1855.48,-283.39 1880.81,-267.35 1906,-260.5 1958.01,-246.35 2020.84,-258.64 2058.41,-268.97"/>
<polygon fill="#9a32cd" stroke="#9a32cd" points="1836.16,-293.16 1830.28,-301.98 1840.37,-298.75 1836.16,-293.16"/>
<text text-anchor="middle" x="1954.5" y="-263.9" font-family="Helvetica,sans-Serif" font-size="12.00"> parentMathText</text>
</g>
<!-- Node19&#45;&gt;Node18 -->
<g id="edge25" class="edge">
<title>Node19&#45;&gt;Node18</title>
<path fill="none" stroke="#9a32cd" stroke-dasharray="5,2" d="M2057.66,-293.73C2041.43,-299.83 2021.53,-306.29 2003,-309.5 1957.14,-317.44 1903.95,-317.37 1866.32,-315.81"/>
<polygon fill="#9a32cd" stroke="#9a32cd" points="2059.19,-296.89 2067.24,-290.01 2056.65,-290.37 2059.19,-296.89"/>
<text text-anchor="middle" x="1954.5" y="-319.9" font-family="Helvetica,sans-Serif" font-size="12.00"> parsedNode</text>
</g>
<!-- Node19&#45;&gt;Node19 -->
<g id="edge27" class="edge">
<title>Node19&#45;&gt;Node19</title>
<path fill="none" stroke="#9a32cd" stroke-dasharray="5,2" d="M2067.07,-299.57C2069.03,-304.41 2077.51,-308 2092.5,-308 2116.49,-308 2123.8,-298.81 2114.43,-290.02"/>
<polygon fill="#9a32cd" stroke="#9a32cd" points="2070.41,-300.62 2070.57,-290.02 2063.84,-298.21 2070.41,-300.62"/>
<text text-anchor="middle" x="2092.5" y="-311.4" font-family="Helvetica,sans-Serif" font-size="12.00"> parentNode</text>
</g>
<!-- Node20&#45;&gt;Node5 -->
<g id="edge28" class="edge">
<title>Node20&#45;&gt;Node5</title>
<path fill="none" stroke="#9a32cd" stroke-dasharray="5,2" d="M2344.67,-362.31C2328.34,-360.31 2311.12,-358.53 2295,-357.5 2244.88,-354.29 2232.22,-356.93 2182,-357.5 2171.55,-357.62 2160.41,-357.81 2149.68,-358.04"/>
<polygon fill="#9a32cd" stroke="#9a32cd" points="2344.35,-365.8 2354.71,-363.58 2345.23,-358.85 2344.35,-365.8"/>
<text text-anchor="middle" x="2238.5" y="-360.9" font-family="Helvetica,sans-Serif" font-size="12.00"> m_plotsModel</text>
</g>
<!-- Node21 -->
<g id="node21" class="node">
<title>Node21</title>
<g id="a_node21"><a xlink:title=" ">
<polygon fill="white" stroke="#666666" points="2164,-456 2021,-456 2021,-435 2164,-435 2164,-456"/>
<text text-anchor="middle" x="2092.5" y="-442.4" font-family="Helvetica,sans-Serif" font-size="12.00">QAbstractTableModel</text>
</a>
</g>
</g>
<!-- Node21&#45;&gt;Node20 -->
<g id="edge29" class="edge">
<title>Node21&#45;&gt;Node20</title>
<path fill="none" stroke="#63b8ff" d="M2151.4,-432.71C2214.23,-418.84 2313.4,-396.93 2371.89,-384.02"/>
<polygon fill="#63b8ff" stroke="#63b8ff" points="2150.26,-429.38 2141.25,-434.95 2151.77,-436.21 2150.26,-429.38"/>
</g>
<!-- Node22 -->
<g id="node22" class="node">
<title>Node22</title>
<g id="a_node22"><a xlink:href="class_j_k_q_t_p_horizontal_axis.html" target="_top" xlink:title="implements a horizontal axis, based on JKQTPCoordinateAxis (for most of documentation: see JKQTPCoord...">
<polygon fill="white" stroke="#666666" points="2702,-309 2565,-309 2565,-288 2702,-288 2702,-309"/>
<text text-anchor="middle" x="2633.5" y="-295.4" font-family="Helvetica,sans-Serif" font-size="12.00">JKQTPHorizontalAxis</text>
</a>
</g>
</g>
<!-- Node22&#45;&gt;Node5 -->
<g id="edge31" class="edge">
<title>Node22&#45;&gt;Node5</title>
<path fill="none" stroke="#9a32cd" stroke-dasharray="5,2" d="M2554.66,-307.31C2444.67,-319.76 2246.4,-342.2 2149.66,-353.14"/>
<polygon fill="#9a32cd" stroke="#9a32cd" points="2555.16,-310.78 2564.7,-306.17 2554.37,-303.82 2555.16,-310.78"/>
<text text-anchor="middle" x="2420.5" y="-337.9" font-family="Helvetica,sans-Serif" font-size="12.00"> xAxis</text>
</g>
<!-- Node23&#45;&gt;Node22 -->
<g id="edge32" class="edge">
<title>Node23&#45;&gt;Node22</title>
<path fill="none" stroke="#63b8ff" d="M2501.84,-282.26C2516.86,-283.95 2532.41,-285.75 2547,-287.5 2552.8,-288.2 2558.81,-288.94 2564.84,-289.69"/>
<polygon fill="#63b8ff" stroke="#63b8ff" points="2501.88,-278.74 2491.55,-281.1 2501.1,-285.7 2501.88,-278.74"/>
</g>
<!-- Node24 -->
<g id="node24" class="node">
<title>Node24</title>
<g id="a_node24"><a xlink:href="class_j_k_q_t_p_vertical_axis.html" target="_top" xlink:title="implements a vertical axis, based on JKQTPCoordinateAxis (for most of documentation: see JKQTPCoordin...">
<polygon fill="white" stroke="#666666" points="2694.5,-402 2572.5,-402 2572.5,-381 2694.5,-381 2694.5,-402"/>
<text text-anchor="middle" x="2633.5" y="-388.4" font-family="Helvetica,sans-Serif" font-size="12.00">JKQTPVerticalAxis</text>
</a>
</g>
</g>
<!-- Node23&#45;&gt;Node24 -->
<g id="edge37" class="edge">
<title>Node23&#45;&gt;Node24</title>
<path fill="none" stroke="#63b8ff" d="M2490.53,-286.75C2503.38,-290.56 2516.4,-295.4 2528,-301.5 2568.27,-322.67 2606.33,-361.99 2623.27,-380.86"/>
<polygon fill="#63b8ff" stroke="#63b8ff" points="2491.34,-283.34 2480.77,-284.02 2489.46,-290.08 2491.34,-283.34"/>
</g>
<!-- Node24&#45;&gt;Node5 -->
<g id="edge36" class="edge">
<title>Node24&#45;&gt;Node5</title>
<path fill="none" stroke="#9a32cd" stroke-dasharray="5,2" d="M2562.5,-398.94C2473.32,-406.69 2314.81,-414.66 2182,-390.5 2159.26,-386.36 2134.51,-377.28 2116.99,-370.01"/>
<polygon fill="#9a32cd" stroke="#9a32cd" points="2562.85,-402.43 2572.5,-398.05 2562.22,-395.45 2562.85,-402.43"/>
<text text-anchor="middle" x="2420.5" y="-409.9" font-family="Helvetica,sans-Serif" font-size="12.00"> yAxis</text>
</g>
<!-- Node25 -->
<g id="node25" class="node">
<title>Node25</title>
<g id="a_node25"><a xlink:href="class_j_k_q_t_p_datastore.html" target="_top" xlink:title="This class manages data columns (with entries of type double ), used by JKQTPlotter/JKQTBasePlotter t...">
<polygon fill="white" stroke="#666666" points="1872,-75 1761,-75 1761,-54 1872,-54 1872,-75"/>
<text text-anchor="middle" x="1816.5" y="-61.4" font-family="Helvetica,sans-Serif" font-size="12.00">JKQTPDatastore</text>
</a>
</g>
</g>
<!-- Node25&#45;&gt;Node5 -->
<g id="edge38" class="edge">
<title>Node25&#45;&gt;Node5</title>
<path fill="none" stroke="#9a32cd" stroke-dasharray="5,2" d="M1880.69,-77.66C1883.38,-79.64 1885.84,-81.91 1888,-84.5 1915.01,-116.91 1877.67,-242.23 1906,-273.5 1935.5,-306.05 1968.32,-265.53 2003,-292.5 2017.75,-303.97 2007.45,-317.63 2021,-330.5 2029.54,-338.61 2040.67,-344.58 2051.54,-348.93"/>
<polygon fill="#9a32cd" stroke="#9a32cd" points="1882.43,-74.62 1872.04,-72.51 1878.85,-80.63 1882.43,-74.62"/>
<text text-anchor="middle" x="1954.5" y="-295.9" font-family="Helvetica,sans-Serif" font-size="12.00"> datastore</text>
</g>
<!-- Node27 -->
<g id="node27" class="node">
<title>Node27</title>
<g id="a_node27"><a xlink:href="class_j_k_q_t_p_column.html" target="_top" xlink:title="internally stores information about one data column. See JKQTPDatastore for more information.">
<polygon fill="white" stroke="#666666" points="2141.5,-80 2043.5,-80 2043.5,-59 2141.5,-59 2141.5,-80"/>
<text text-anchor="middle" x="2092.5" y="-66.4" font-family="Helvetica,sans-Serif" font-size="12.00">JKQTPColumn</text>
</a>
</g>
</g>
<!-- Node25&#45;&gt;Node27 -->
<g id="edge41" class="edge">
<title>Node25&#45;&gt;Node27</title>
<path fill="none" stroke="#9a32cd" stroke-dasharray="5,2" d="M1882.54,-65.69C1931.87,-66.59 1998.58,-67.8 2043.22,-68.62"/>
<polygon fill="#9a32cd" stroke="#9a32cd" points="1882.35,-62.18 1872.29,-65.5 1882.22,-69.18 1882.35,-62.18"/>
<text text-anchor="middle" x="1954.5" y="-70.9" font-family="Helvetica,sans-Serif" font-size="12.00"> datastore</text>
</g>
<!-- Node26 -->
<g id="node26" class="node">
<title>Node26</title>
<g id="a_node26"><a xlink:title=" ">
<polygon fill="white" stroke="#666666" points="2528,-99 2313,-99 2313,-78 2528,-78 2528,-99"/>
<text text-anchor="middle" x="2420.5" y="-85.4" font-family="Helvetica,sans-Serif" font-size="12.00">std::unique_ptr&lt; JKQTPColumn &gt;</text>
</a>
</g>
</g>
<!-- Node26&#45;&gt;Node25 -->
<g id="edge39" class="edge">
<title>Node26&#45;&gt;Node25</title>
<path fill="none" stroke="#9a32cd" stroke-dasharray="5,2" d="M2344.66,-76.07C2334,-74.03 2323.2,-71.82 2313,-69.5 2304.9,-67.66 2303.07,-66.45 2295,-64.5 2237.22,-50.54 2223.14,-43.53 2164,-37.5 2100.77,-31.05 2084.42,-33.31 2021,-37.5 1970.32,-40.85 1913.01,-48.83 1872.15,-55.26"/>
<polygon fill="#9a32cd" stroke="#9a32cd" points="2344.34,-79.57 2354.82,-77.97 2345.63,-72.69 2344.34,-79.57"/>
<text text-anchor="middle" x="2092.5" y="-40.9" font-family="Helvetica,sans-Serif" font-size="12.00"> m_invalidColumn</text>
</g>
<!-- Node27&#45;&gt;Node26 -->
<g id="edge40" class="edge">
<title>Node27&#45;&gt;Node26</title>
<path fill="none" stroke="#9a32cd" stroke-dasharray="5,2" d="M2151.78,-68.63C2192.06,-68.46 2246.85,-69.06 2295,-72.5 2312.39,-73.74 2331.07,-75.77 2348.53,-77.97"/>
<polygon fill="#9a32cd" stroke="#9a32cd" points="2151.59,-65.13 2141.61,-68.69 2151.63,-72.13 2151.59,-65.13"/>
<text text-anchor="middle" x="2238.5" y="-75.9" font-family="Helvetica,sans-Serif" font-size="12.00"> ptr</text>
</g>
<!-- Node28 -->
<g id="node28" class="node">
<title>Node28</title>
<g id="a_node28"><a xlink:title=" ">
<polygon fill="white" stroke="#666666" points="2162.5,-119 2022.5,-119 2022.5,-98 2162.5,-98 2162.5,-119"/>
<text text-anchor="middle" x="2092.5" y="-105.4" font-family="Helvetica,sans-Serif" font-size="12.00">std::unique_ptr&lt; T &gt;</text>
</a>
</g>
</g>
<!-- Node28&#45;&gt;Node26 -->
<g id="edge42" class="edge">
<title>Node28&#45;&gt;Node26</title>
<path fill="none" stroke="orange" stroke-dasharray="5,2" d="M2172.84,-103.63C2214.96,-101.05 2267.3,-97.84 2312.92,-95.04"/>
<polygon fill="orange" stroke="orange" points="2172.4,-100.15 2162.64,-104.26 2172.83,-107.14 2172.4,-100.15"/>
<text text-anchor="middle" x="2238.5" y="-105.9" font-family="Helvetica,sans-Serif" font-size="12.00"> &lt; JKQTPColumn &gt;</text>
</g>
<!-- Node29 -->
<g id="node29" class="node">
<title>Node29</title>
<g id="a_node29"><a xlink:title=" ">
<polygon fill="white" stroke="#666666" points="1831,-114 1802,-114 1802,-93 1831,-93 1831,-114"/>
<text text-anchor="middle" x="1816.5" y="-100.4" font-family="Helvetica,sans-Serif" font-size="12.00">T</text>
</a>
</g>
</g>
<!-- Node29&#45;&gt;Node28 -->
<g id="edge43" class="edge">
<title>Node29&#45;&gt;Node28</title>
<path fill="none" stroke="#9a32cd" stroke-dasharray="5,2" d="M1841.17,-103.93C1881.06,-104.66 1963.14,-106.16 2022.46,-107.24"/>
<polygon fill="#9a32cd" stroke="#9a32cd" points="1841.15,-100.43 1831.09,-103.75 1841.02,-107.43 1841.15,-100.43"/>
<text text-anchor="middle" x="1954.5" y="-109.9" font-family="Helvetica,sans-Serif" font-size="12.00"> ptr</text>
</g>
<!-- Node30 -->
<g id="node30" class="node">
<title>Node30</title>
<g id="a_node30"><a xlink:href="class_j_k_q_t_p_graph_line_style_mixin.html" target="_top" xlink:title="This Mix&#45;In class provides setter/getter methods, storage and other facilities for the graph line sty...">
<polygon fill="white" stroke="#666666" points="2507.5,-60 2333.5,-60 2333.5,-39 2507.5,-39 2507.5,-60"/>
<text text-anchor="middle" x="2420.5" y="-46.4" font-family="Helvetica,sans-Serif" font-size="12.00">JKQTPGraphLineStyleMixin</text>
</a>
</g>
</g>
<!-- Node30&#45;&gt;Node2 -->
<g id="edge45" class="edge">
<title>Node30&#45;&gt;Node2</title>
<path fill="none" stroke="#63b8ff" d="M2517.8,-49.5C2536.76,-49.5 2556.12,-49.5 2573.41,-49.5"/>
<polygon fill="#63b8ff" stroke="#63b8ff" points="2517.63,-46 2507.63,-49.5 2517.63,-53 2517.63,-46"/>
</g>
<!-- Node31 -->
<g id="node31" class="node">
<title>Node31</title>
<g id="a_node31"><a xlink:href="class_j_k_q_t_p_graph_fill_style_mixin.html" target="_top" xlink:title="This Mix&#45;In class provides setter/getter methods, storage and other facilities for the graph filling ...">
<polygon fill="white" stroke="#666666" points="2502.5,-21 2338.5,-21 2338.5,0 2502.5,0 2502.5,-21"/>
<text text-anchor="middle" x="2420.5" y="-7.4" font-family="Helvetica,sans-Serif" font-size="12.00">JKQTPGraphFillStyleMixin</text>
</a>
</g>
</g>
<!-- Node31&#45;&gt;Node2 -->
<g id="edge46" class="edge">
<title>Node31&#45;&gt;Node2</title>
<path fill="none" stroke="#63b8ff" d="M2488.44,-22.87C2516.47,-28.05 2548.71,-34.01 2575.58,-38.98"/>
<polygon fill="#63b8ff" stroke="#63b8ff" points="2488.79,-19.38 2478.32,-21 2487.52,-26.26 2488.79,-19.38"/>
</g>
</g>
</svg>
