<?xml version="1.0" encoding="UTF-8" standalone="no"?>
<!DOCTYPE svg PUBLIC "-//W3C//DTD SVG 1.1//EN"
 "http://www.w3.org/Graphics/SVG/1.1/DTD/svg11.dtd">
<!-- Generated by graphviz version 2.43.0 (0)
 -->
<!-- Title: JKQTFPimageOverlayPlot Pages: 1 -->
<svg width="317pt" height="223pt"
 viewBox="0.00 0.00 317.00 223.00" xmlns="http://www.w3.org/2000/svg" xmlns:xlink="http://www.w3.org/1999/xlink">
<g id="graph0" class="graph" transform="scale(1 1) rotate(0) translate(4 219)">
<title>JKQTFPimageOverlayPlot</title>
<!-- Node1 -->
<g id="node1" class="node">
<title>Node1</title>
<g id="a_node1"><a xlink:title="plots an image overlay, i.e. a boolean image where each true pixel is drawn with a given color and th...">
<polygon fill="#bfbfbf" stroke="black" points="0,-0.5 0,-21.5 165,-21.5 165,-0.5 0,-0.5"/>
<text text-anchor="middle" x="82.5" y="-7.9" font-family="Helvetica,sans-Serif" font-size="12.00">JKQTFPimageOverlayPlot</text>
</a>
</g>
</g>
<!-- Node2 -->
<g id="node2" class="node">
<title>Node2</title>
<g id="a_node2"><a xlink:href="class_j_k_q_t_f_p_plot.html" target="_top" xlink:title="base class for all plots that may be plotted by JKQTFastPlotter">
<polygon fill="none" stroke="black" points="41.5,-59.5 41.5,-80.5 123.5,-80.5 123.5,-59.5 41.5,-59.5"/>
<text text-anchor="middle" x="82.5" y="-66.9" font-family="Helvetica,sans-Serif" font-size="12.00">JKQTFPPlot</text>
</a>
</g>
</g>
<!-- Node2&#45;&gt;Node1 -->
<g id="edge1" class="edge">
<title>Node2&#45;&gt;Node1</title>
<path fill="none" stroke="midnightblue" d="M82.5,-49.23C82.5,-39.85 82.5,-29.07 82.5,-21.53"/>
<polygon fill="midnightblue" stroke="midnightblue" points="79,-49.33 82.5,-59.33 86,-49.33 79,-49.33"/>
</g>
<!-- Node3 -->
<g id="node3" class="node">
<title>Node3</title>
<g id="a_node3"><a xlink:title=" ">
<polygon fill="none" stroke="black" points="16,-132.5 16,-153.5 81,-153.5 81,-132.5 16,-132.5"/>
<text text-anchor="middle" x="48.5" y="-139.9" font-family="Helvetica,sans-Serif" font-size="12.00">QObject</text>
</a>
</g>
</g>
<!-- Node3&#45;&gt;Node2 -->
<g id="edge2" class="edge">
<title>Node3&#45;&gt;Node2</title>
<path fill="none" stroke="midnightblue" d="M57.58,-123.04C64.08,-109.47 72.56,-91.75 77.77,-80.88"/>
<polygon fill="midnightblue" stroke="midnightblue" points="54.25,-121.89 53.09,-132.42 60.56,-124.92 54.25,-121.89"/>
</g>
<!-- Node4 -->
<g id="node4" class="node">
<title>Node4</title>
<g id="a_node4"><a xlink:href="class_j_k_q_t_fast_plotter.html" target="_top" xlink:title="a speed optimized plotter class">
<polygon fill="none" stroke="black" points="99,-132.5 99,-153.5 208,-153.5 208,-132.5 99,-132.5"/>
<text text-anchor="middle" x="153.5" y="-139.9" font-family="Helvetica,sans-Serif" font-size="12.00">JKQTFastPlotter</text>
</a>
</g>
</g>
<!-- Node4&#45;&gt;Node2 -->
<g id="edge3" class="edge">
<title>Node4&#45;&gt;Node2</title>
<path fill="none" stroke="#9a32cd" stroke-dasharray="5,2" d="M136.5,-125C122.72,-111.22 103.78,-92.28 92.38,-80.88"/>
<polygon fill="#9a32cd" stroke="#9a32cd" points="134.38,-127.83 143.92,-132.42 139.33,-122.88 134.38,-127.83"/>
<text text-anchor="middle" x="143" y="-102.4" font-family="Helvetica,sans-Serif" font-size="12.00"> parent</text>
</g>
<!-- Node4&#45;&gt;Node4 -->
<g id="edge5" class="edge">
<title>Node4&#45;&gt;Node4</title>
<path fill="none" stroke="#9a32cd" stroke-dasharray="5,2" d="M218.41,-147.15C223.12,-146.22 226,-144.83 226,-143 226,-140.07 218.62,-138.29 208.2,-137.64"/>
<polygon fill="#9a32cd" stroke="#9a32cd" points="217.72,-143.71 208.2,-148.36 218.54,-150.66 217.72,-143.71"/>
<text text-anchor="middle" x="267.5" y="-146.4" font-family="Helvetica,sans-Serif" font-size="12.00"> synchronizeX</text>
<text text-anchor="middle" x="267.5" y="-133.4" font-family="Helvetica,sans-Serif" font-size="12.00">synchronizeY</text>
</g>
<!-- Node5 -->
<g id="node5" class="node">
<title>Node5</title>
<g id="a_node5"><a xlink:title=" ">
<polygon fill="none" stroke="black" points="96.5,-193.5 96.5,-214.5 210.5,-214.5 210.5,-193.5 96.5,-193.5"/>
<text text-anchor="middle" x="153.5" y="-200.9" font-family="Helvetica,sans-Serif" font-size="12.00">QOpenGLWidget</text>
</a>
</g>
</g>
<!-- Node5&#45;&gt;Node4 -->
<g id="edge4" class="edge">
<title>Node5&#45;&gt;Node4</title>
<path fill="none" stroke="midnightblue" d="M153.5,-182.99C153.5,-173.05 153.5,-161.5 153.5,-153.56"/>
<polygon fill="midnightblue" stroke="midnightblue" points="150,-183.26 153.5,-193.26 157,-183.26 150,-183.26"/>
</g>
</g>
</svg>
