<?xml version="1.0" encoding="UTF-8" standalone="no"?>
<!DOCTYPE svg PUBLIC "-//W3C//DTD SVG 1.1//EN"
 "http://www.w3.org/Graphics/SVG/1.1/DTD/svg11.dtd">
<!-- Generated by graphviz version 2.43.0 (0)
 -->
<!-- Title: JKQTPGeoArc Pages: 1 -->
<!--zoomable 563 -->
<svg id="main" version="1.1" xmlns="http://www.w3.org/2000/svg" xmlns:xlink="http://www.w3.org/1999/xlink" xml:space="preserve" onload="init(evt)">
<style type="text/css"><![CDATA[
.edge:hover path { stroke: red; }
.edge:hover polygon { stroke: red; fill: red; }
]]></style>
<script type="text/javascript"><![CDATA[
var edges = document.getElementsByTagName('g');
if (edges && edges.length) {
  for (var i=0;i<edges.length;i++) {
    if (edges[i].id.substr(0,4)=='edge') {
      edges[i].setAttribute('class','edge');
    }
  }
}
]]></script>
        <defs>
                <circle id="rim" cx="0" cy="0" r="7"/>
                <circle id="rim2" cx="0" cy="0" r="3.5"/>
                <g id="zoomPlus">
                        <use xlink:href="#rim" fill="#404040">
                                <set attributeName="fill" to="#808080" begin="zoomplus.mouseover" end="zoomplus.mouseout"/>
                        </use>
                        <path d="M-4,0h8M0,-4v8" fill="none" stroke="white" stroke-width="1.5" pointer-events="none"/>
                </g>
                <g id="zoomMin">
                        <use xlink:href="#rim" fill="#404040">
                                <set attributeName="fill" to="#808080" begin="zoomminus.mouseover" end="zoomminus.mouseout"/>
                        </use>
                        <path d="M-4,0h8" fill="none" stroke="white" stroke-width="1.5" pointer-events="none"/>
                </g>
                <g id="dirArrow">
                        <path fill="none" stroke="white" stroke-width="1.5" d="M0,-3.0v7 M-2.5,-0.5L0,-3.0L2.5,-0.5"/>
                </g>
               <g id="resetDef">
                       <use xlink:href="#rim2" fill="#404040">
                               <set attributeName="fill" to="#808080" begin="reset.mouseover" end="reset.mouseout"/>
                       </use>
               </g>
        </defs>

<script type="text/javascript">
var viewWidth = 3062;
var viewHeight = 563;
var sectionId = 'dynsection-1';
</script>
<script xlink:href="svgpan.js"/>
<svg id="graph" class="graph">
<g id="viewport">
<title>JKQTPGeoArc</title>
<!-- Node1 -->
<g id="node1" class="node">
<title>Node1</title>
<g id="a_node1"><a xlink:title="This JKQTPGeometricPlotElement is used to draw an arc.">
<polygon fill="#999999" stroke="#666666" points="3054,-346.53 2958,-346.53 2958,-325.53 3054,-325.53 3054,-346.53"/>
<text text-anchor="middle" x="3006" y="-332.93" font-family="Helvetica,sans-Serif" font-size="12.00">JKQTPGeoArc</text>
</a>
</g>
</g>
<!-- Node2 -->
<g id="node2" class="node">
<title>Node2</title>
<g id="a_node2"><a xlink:href="class_j_k_q_t_p_geo_base_line.html" target="_top" xlink:title="This JKQTPGeometricPlotElement is used as base class for geometric drawing elements that only consist...">
<polygon fill="white" stroke="#666666" points="2921,-346.53 2790,-346.53 2790,-325.53 2921,-325.53 2921,-346.53"/>
<text text-anchor="middle" x="2855.5" y="-332.93" font-family="Helvetica,sans-Serif" font-size="12.00">JKQTPGeoBaseLine</text>
</a>
</g>
</g>
<!-- Node2&#45;&gt;Node1 -->
<g id="edge1" class="edge">
<title>Node2&#45;&gt;Node1</title>
<path fill="none" stroke="#63b8ff" d="M2931.38,-336.03C2940.42,-336.03 2949.45,-336.03 2957.93,-336.03"/>
<polygon fill="#63b8ff" stroke="#63b8ff" points="2931.2,-332.53 2921.2,-336.03 2931.2,-339.53 2931.2,-332.53"/>
</g>
<!-- Node3 -->
<g id="node3" class="node">
<title>Node3</title>
<g id="a_node3"><a xlink:href="class_j_k_q_t_p_geometric_plot_element.html" target="_top" xlink:title="this is the virtual base class of all JKQTPPlotElement&#39;s in a JKQTPlotter plot that represent geometr...">
<polygon fill="white" stroke="#666666" points="2753,-497.53 2565,-497.53 2565,-476.53 2753,-476.53 2753,-497.53"/>
<text text-anchor="middle" x="2659" y="-483.93" font-family="Helvetica,sans-Serif" font-size="12.00">JKQTPGeometricPlotElement</text>
</a>
</g>
</g>
<!-- Node3&#45;&gt;Node2 -->
<g id="edge2" class="edge">
<title>Node3&#45;&gt;Node2</title>
<path fill="none" stroke="#63b8ff" d="M2686.37,-471.16C2705.38,-459.38 2731.38,-442.56 2753,-426.03 2787.79,-399.42 2825.61,-363.96 2843.69,-346.57"/>
<polygon fill="#63b8ff" stroke="#63b8ff" points="2684.35,-468.3 2677.65,-476.51 2688.01,-474.26 2684.35,-468.3"/>
</g>
<!-- Node4 -->
<g id="node4" class="node">
<title>Node4</title>
<g id="a_node4"><a xlink:href="class_j_k_q_t_p_plot_element.html" target="_top" xlink:title="this virtual base class of every element, which is part of a JKQTPlotter plot and may appear in its k...">
<polygon fill="white" stroke="#666666" points="2483,-549.53 2358,-549.53 2358,-528.53 2483,-528.53 2483,-549.53"/>
<text text-anchor="middle" x="2420.5" y="-535.93" font-family="Helvetica,sans-Serif" font-size="12.00">JKQTPPlotElement</text>
</a>
</g>
</g>
<!-- Node4&#45;&gt;Node3 -->
<g id="edge3" class="edge">
<title>Node4&#45;&gt;Node3</title>
<path fill="none" stroke="#63b8ff" d="M2479.28,-526.32C2519.47,-517.49 2572.4,-505.85 2610.21,-497.54"/>
<polygon fill="#63b8ff" stroke="#63b8ff" points="2478.37,-522.94 2469.36,-528.51 2479.88,-529.78 2478.37,-522.94"/>
</g>
<!-- Node5 -->
<g id="node5" class="node">
<title>Node5</title>
<g id="a_node5"><a xlink:title=" ">
<polygon fill="white" stroke="#666666" points="1507.5,-408.53 1442.5,-408.53 1442.5,-387.53 1507.5,-387.53 1507.5,-408.53"/>
<text text-anchor="middle" x="1475" y="-394.93" font-family="Helvetica,sans-Serif" font-size="12.00">QObject</text>
</a>
</g>
</g>
<!-- Node5&#45;&gt;Node4 -->
<g id="edge4" class="edge">
<title>Node5&#45;&gt;Node4</title>
<path fill="none" stroke="#63b8ff" d="M1517.07,-411.57C1607.17,-440.64 1829.42,-509.03 2021,-541.03 2091.77,-552.85 2110.3,-550.36 2182,-553.03 2232.19,-554.9 2244.86,-555.84 2295,-553.03 2315.52,-551.88 2337.86,-549.67 2357.87,-547.34"/>
<polygon fill="#63b8ff" stroke="#63b8ff" points="1518.1,-408.22 1507.5,-408.46 1515.94,-414.88 1518.1,-408.22"/>
</g>
<!-- Node6 -->
<g id="node6" class="node">
<title>Node6</title>
<g id="a_node6"><a xlink:href="class_j_k_q_t_base_plotter.html" target="_top" xlink:title="base class for 2D plotter classes (used by the plotter widget JKQTPlotter)">
<polygon fill="white" stroke="#666666" points="2149.5,-378.53 2035.5,-378.53 2035.5,-357.53 2149.5,-357.53 2149.5,-378.53"/>
<text text-anchor="middle" x="2092.5" y="-364.93" font-family="Helvetica,sans-Serif" font-size="12.00">JKQTBasePlotter</text>
</a>
</g>
</g>
<!-- Node5&#45;&gt;Node6 -->
<g id="edge6" class="edge">
<title>Node5&#45;&gt;Node6</title>
<path fill="none" stroke="#63b8ff" d="M1517.97,-395.98C1625.96,-390.72 1913.46,-376.71 2035.48,-370.76"/>
<polygon fill="#63b8ff" stroke="#63b8ff" points="1517.61,-392.5 1507.8,-396.48 1517.95,-399.49 1517.61,-392.5"/>
</g>
<!-- Node19 -->
<g id="node19" class="node">
<title>Node19</title>
<g id="a_node19"><a xlink:href="class_j_k_q_t_math_text.html" target="_top" xlink:title="this class parses a mathematical markup string and can then draw the contained text/equation onto a Q...">
<polygon fill="white" stroke="#666666" points="1866,-436.53 1767,-436.53 1767,-415.53 1866,-415.53 1866,-436.53"/>
<text text-anchor="middle" x="1816.5" y="-422.93" font-family="Helvetica,sans-Serif" font-size="12.00">JKQTMathText</text>
</a>
</g>
</g>
<!-- Node5&#45;&gt;Node19 -->
<g id="edge25" class="edge">
<title>Node5&#45;&gt;Node19</title>
<path fill="none" stroke="#63b8ff" d="M1517.61,-401.46C1580.58,-406.65 1699.82,-416.49 1766.76,-422.01"/>
<polygon fill="#63b8ff" stroke="#63b8ff" points="1517.89,-397.97 1507.63,-400.64 1517.31,-404.95 1517.89,-397.97"/>
</g>
<!-- Node24 -->
<g id="node24" class="node">
<title>Node24</title>
<g id="a_node24"><a xlink:href="class_j_k_q_t_p_coordinate_axis.html" target="_top" xlink:title="this virtual class is the base for any type of coordinate axis, to be drawn by JKQTBasePlotter.">
<polygon fill="white" stroke="#666666" points="2491.5,-327.53 2349.5,-327.53 2349.5,-306.53 2491.5,-306.53 2491.5,-327.53"/>
<text text-anchor="middle" x="2420.5" y="-313.93" font-family="Helvetica,sans-Serif" font-size="12.00">JKQTPCoordinateAxis</text>
</a>
</g>
</g>
<!-- Node5&#45;&gt;Node24 -->
<g id="edge34" class="edge">
<title>Node5&#45;&gt;Node24</title>
<path fill="none" stroke="#63b8ff" d="M1517.75,-388.12C1594.21,-370.51 1762.11,-334.38 1906,-321.03 2063.79,-306.39 2250.02,-310.15 2349.13,-313.82"/>
<polygon fill="#63b8ff" stroke="#63b8ff" points="1516.53,-384.81 1507.58,-390.47 1518.11,-391.63 1516.53,-384.81"/>
</g>
<!-- Node6&#45;&gt;Node4 -->
<g id="edge5" class="edge">
<title>Node6&#45;&gt;Node4</title>
<path fill="none" stroke="#9a32cd" stroke-dasharray="5,2" d="M2118.02,-384.86C2133.26,-396.49 2152.13,-413.21 2164,-432.03 2178.85,-455.58 2161.39,-473.31 2182,-492.03 2229.53,-535.2 2304.89,-543.58 2357.96,-543.33"/>
<polygon fill="#9a32cd" stroke="#9a32cd" points="2119.68,-381.74 2109.56,-378.63 2115.53,-387.38 2119.68,-381.74"/>
<text text-anchor="middle" x="2238.5" y="-541.43" font-family="Helvetica,sans-Serif" font-size="12.00"> parent</text>
</g>
<!-- Node6&#45;&gt;Node6 -->
<g id="edge45" class="edge">
<title>Node6&#45;&gt;Node6</title>
<path fill="none" stroke="#9a32cd" stroke-dasharray="5,2" d="M2067.07,-388.1C2069.03,-392.94 2077.51,-396.53 2092.5,-396.53 2116.49,-396.53 2123.8,-387.34 2114.43,-378.55"/>
<polygon fill="#9a32cd" stroke="#9a32cd" points="2070.41,-389.15 2070.57,-378.55 2063.84,-386.73 2070.41,-389.15"/>
<text text-anchor="middle" x="2092.5" y="-412.93" font-family="Helvetica,sans-Serif" font-size="12.00"> masterPlotterX</text>
<text text-anchor="middle" x="2092.5" y="-399.93" font-family="Helvetica,sans-Serif" font-size="12.00">masterPlotterY</text>
</g>
<!-- Node21 -->
<g id="node21" class="node">
<title>Node21</title>
<g id="a_node21"><a xlink:href="class_j_k_q_t_p_graphs_model.html" target="_top" xlink:title="data model with all plots ina JKQTBasePlotter (+ allows to switch them visible/invisible)">
<polygon fill="white" stroke="#666666" points="2486,-488.53 2355,-488.53 2355,-467.53 2486,-467.53 2486,-488.53"/>
<text text-anchor="middle" x="2420.5" y="-474.93" font-family="Helvetica,sans-Serif" font-size="12.00">JKQTPGraphsModel</text>
</a>
</g>
</g>
<!-- Node6&#45;&gt;Node21 -->
<g id="edge31" class="edge">
<title>Node6&#45;&gt;Node21</title>
<path fill="none" stroke="#9a32cd" stroke-dasharray="5,2" d="M2114.6,-385.33C2129.14,-397.69 2148.56,-415.07 2164,-432.03 2172.98,-441.89 2170.36,-449.52 2182,-456.03 2210.64,-472.04 2294.86,-476.66 2354.86,-477.86"/>
<polygon fill="#9a32cd" stroke="#9a32cd" points="2116.57,-382.42 2106.66,-378.67 2112.08,-387.78 2116.57,-382.42"/>
<text text-anchor="middle" x="2238.5" y="-478.43" font-family="Helvetica,sans-Serif" font-size="12.00"> m_plotter</text>
</g>
<!-- Node6&#45;&gt;Node24 -->
<g id="edge35" class="edge">
<title>Node6&#45;&gt;Node24</title>
<path fill="none" stroke="#9a32cd" stroke-dasharray="5,2" d="M2132.65,-354.28C2147.88,-349.41 2165.59,-344.33 2182,-341.03 2237.66,-329.84 2301.77,-323.75 2349.34,-320.51"/>
<polygon fill="#9a32cd" stroke="#9a32cd" points="2131.45,-351 2123.03,-357.43 2133.63,-357.65 2131.45,-351"/>
<text text-anchor="middle" x="2238.5" y="-344.43" font-family="Helvetica,sans-Serif" font-size="12.00"> parent</text>
</g>
<!-- Node7 -->
<g id="node7" class="node">
<title>Node7</title>
<g id="a_node7"><a xlink:href="class_j_k_q_t_base_plotter_style.html" target="_top" xlink:title="Support Class for JKQTBasePlotter, which summarizes all properties that define the visual styling of ...">
<polygon fill="white" stroke="#666666" points="1888,-280.53 1745,-280.53 1745,-259.53 1888,-259.53 1888,-280.53"/>
<text text-anchor="middle" x="1816.5" y="-266.93" font-family="Helvetica,sans-Serif" font-size="12.00">JKQTBasePlotterStyle</text>
</a>
</g>
</g>
<!-- Node7&#45;&gt;Node6 -->
<g id="edge7" class="edge">
<title>Node7&#45;&gt;Node6</title>
<path fill="none" stroke="#9a32cd" stroke-dasharray="5,2" d="M1856.57,-284C1912.04,-303.84 2012.39,-339.73 2062.04,-357.49"/>
<polygon fill="#9a32cd" stroke="#9a32cd" points="1857.68,-280.68 1847.08,-280.61 1855.32,-287.27 1857.68,-280.68"/>
<text text-anchor="middle" x="1954.5" y="-340.43" font-family="Helvetica,sans-Serif" font-size="12.00"> plotterStyle</text>
</g>
<!-- Node8 -->
<g id="node8" class="node">
<title>Node8</title>
<g id="a_node8"><a xlink:href="class_j_k_q_t_p_key_style.html" target="_top" xlink:title="Support Class for JKQTBasePlotter, which summarizes all properties that define the visual styling of ...">
<polygon fill="white" stroke="#666666" points="1527,-302.53 1423,-302.53 1423,-281.53 1527,-281.53 1527,-302.53"/>
<text text-anchor="middle" x="1475" y="-288.93" font-family="Helvetica,sans-Serif" font-size="12.00">JKQTPKeyStyle</text>
</a>
</g>
</g>
<!-- Node8&#45;&gt;Node7 -->
<g id="edge8" class="edge">
<title>Node8&#45;&gt;Node7</title>
<path fill="none" stroke="#9a32cd" stroke-dasharray="5,2" d="M1532.5,-279.57C1550.76,-276.1 1571.15,-272.79 1590,-271.03 1641.65,-266.2 1700.24,-266.1 1744.75,-267.13"/>
<polygon fill="#9a32cd" stroke="#9a32cd" points="1531.75,-276.15 1522.61,-281.51 1533.09,-283.02 1531.75,-276.15"/>
<text text-anchor="middle" x="1658.5" y="-274.43" font-family="Helvetica,sans-Serif" font-size="12.00"> keyStyle</text>
</g>
<!-- Node9 -->
<g id="node9" class="node">
<title>Node9</title>
<g id="a_node9"><a xlink:href="class_j_k_q_t_p_coordinate_axis_style.html" target="_top" xlink:title="Support Class for JKQTPCoordinateAxis, which summarizes all properties that define the visual styling...">
<polygon fill="white" stroke="#666666" points="1234,-194.53 1063,-194.53 1063,-173.53 1234,-173.53 1234,-194.53"/>
<text text-anchor="middle" x="1148.5" y="-180.93" font-family="Helvetica,sans-Serif" font-size="12.00">JKQTPCoordinateAxisStyle</text>
</a>
</g>
</g>
<!-- Node9&#45;&gt;Node7 -->
<g id="edge9" class="edge">
<title>Node9&#45;&gt;Node7</title>
<path fill="none" stroke="#9a32cd" stroke-dasharray="5,2" d="M1241.1,-195.86C1375.52,-213.22 1623.37,-245.22 1744.76,-260.89"/>
<polygon fill="#9a32cd" stroke="#9a32cd" points="1241.2,-192.34 1230.83,-194.53 1240.3,-199.28 1241.2,-192.34"/>
<text text-anchor="middle" x="1475" y="-255.43" font-family="Helvetica,sans-Serif" font-size="12.00"> xAxisStyle</text>
<text text-anchor="middle" x="1475" y="-242.43" font-family="Helvetica,sans-Serif" font-size="12.00">yAxisStyle</text>
</g>
<!-- Node11 -->
<g id="node11" class="node">
<title>Node11</title>
<g id="a_node11"><a xlink:href="class_j_k_q_t_p_colorbar_coordinate_axis_style.html" target="_top" xlink:title="Support Class for JKQTPCoordinateAxis, which summarizes all properties that define the visual styling...">
<polygon fill="white" stroke="#666666" points="1572,-201.03 1378,-201.03 1378,-167.03 1572,-167.03 1572,-201.03"/>
<text text-anchor="start" x="1386" y="-187.43" font-family="Helvetica,sans-Serif" font-size="12.00">JKQTPColorbarCoordinateAxis</text>
<text text-anchor="middle" x="1475" y="-174.43" font-family="Helvetica,sans-Serif" font-size="12.00">Style</text>
</a>
</g>
</g>
<!-- Node9&#45;&gt;Node11 -->
<g id="edge12" class="edge">
<title>Node9&#45;&gt;Node11</title>
<path fill="none" stroke="#63b8ff" d="M1244.56,-184.03C1286.54,-184.03 1335.81,-184.03 1377.91,-184.03"/>
<polygon fill="#63b8ff" stroke="#63b8ff" points="1244.33,-180.53 1234.33,-184.03 1244.33,-187.53 1244.33,-180.53"/>
</g>
<!-- Node9&#45;&gt;Node24 -->
<g id="edge36" class="edge">
<title>Node9&#45;&gt;Node24</title>
<path fill="none" stroke="#9a32cd" stroke-dasharray="5,2" d="M1205.93,-171.4C1270.4,-158.08 1379.25,-139.03 1474,-139.03 1474,-139.03 1474,-139.03 2093.5,-139.03 2234.08,-139.03 2371.64,-268.11 2409.38,-306.43"/>
<polygon fill="#9a32cd" stroke="#9a32cd" points="1205.04,-168.01 1195.97,-173.48 1206.48,-174.86 1205.04,-168.01"/>
<text text-anchor="middle" x="1816.5" y="-142.43" font-family="Helvetica,sans-Serif" font-size="12.00"> axisStyle</text>
</g>
<!-- Node10 -->
<g id="node10" class="node">
<title>Node10</title>
<g id="a_node10"><a xlink:href="class_j_k_q_t_p_grid_style.html" target="_top" xlink:title="Support Class for JKQTPCoordinateAxis, and summarizes all properties that define the visual styling o...">
<polygon fill="white" stroke="#666666" points="805.5,-194.53 698.5,-194.53 698.5,-173.53 805.5,-173.53 805.5,-194.53"/>
<text text-anchor="middle" x="752" y="-180.93" font-family="Helvetica,sans-Serif" font-size="12.00">JKQTPGridStyle</text>
</a>
</g>
</g>
<!-- Node10&#45;&gt;Node9 -->
<g id="edge10" class="edge">
<title>Node10&#45;&gt;Node9</title>
<path fill="none" stroke="#9a32cd" stroke-dasharray="5,2" d="M816.18,-184.03C883.03,-184.03 988.9,-184.03 1062.92,-184.03"/>
<polygon fill="#9a32cd" stroke="#9a32cd" points="815.79,-180.53 805.79,-184.03 815.79,-187.53 815.79,-180.53"/>
<text text-anchor="middle" x="948.5" y="-200.43" font-family="Helvetica,sans-Serif" font-size="12.00"> majorGridStyle</text>
<text text-anchor="middle" x="948.5" y="-187.43" font-family="Helvetica,sans-Serif" font-size="12.00">minorGridStyle</text>
</g>
<!-- Node11&#45;&gt;Node7 -->
<g id="edge11" class="edge">
<title>Node11&#45;&gt;Node7</title>
<path fill="none" stroke="#9a32cd" stroke-dasharray="5,2" d="M1582.5,-174.93C1628.35,-174.68 1681.72,-179.43 1727,-197.03 1761.34,-210.38 1792.27,-242.56 1806.78,-259.38"/>
<polygon fill="#9a32cd" stroke="#9a32cd" points="1582.18,-171.43 1572.23,-175.07 1582.28,-178.43 1582.18,-171.43"/>
<text text-anchor="middle" x="1658.5" y="-213.43" font-family="Helvetica,sans-Serif" font-size="12.00"> rightColorbarAxisStyle</text>
<text text-anchor="middle" x="1658.5" y="-200.43" font-family="Helvetica,sans-Serif" font-size="12.00">topColorbarAxisStyle</text>
</g>
<!-- Node12 -->
<g id="node12" class="node">
<title>Node12</title>
<g id="a_node12"><a xlink:href="class_j_k_q_t_graphs_base_style.html" target="_top" xlink:title="Support Class for JKQTBasePlotter, which summarizes all properties that define the visual styling of ...">
<polygon fill="white" stroke="#666666" points="1548,-352.53 1402,-352.53 1402,-331.53 1548,-331.53 1548,-352.53"/>
<text text-anchor="middle" x="1475" y="-338.93" font-family="Helvetica,sans-Serif" font-size="12.00">JKQTGraphsBaseStyle</text>
</a>
</g>
</g>
<!-- Node12&#45;&gt;Node7 -->
<g id="edge13" class="edge">
<title>Node12&#45;&gt;Node7</title>
<path fill="none" stroke="#9a32cd" stroke-dasharray="5,2" d="M1516.19,-328.23C1537.86,-321.17 1565.18,-312.85 1590,-307.03 1597.83,-305.19 1686.32,-290.82 1750.08,-280.54"/>
<polygon fill="#9a32cd" stroke="#9a32cd" points="1515.06,-324.92 1506.66,-331.38 1517.25,-331.57 1515.06,-324.92"/>
<text text-anchor="middle" x="1658.5" y="-310.43" font-family="Helvetica,sans-Serif" font-size="12.00"> graphsStyle</text>
</g>
<!-- Node13 -->
<g id="node13" class="node">
<title>Node13</title>
<g id="a_node13"><a xlink:href="class_j_k_q_t_graphs_specific_style_properties.html" target="_top" xlink:title="Support Class for JKQTBasePlotter, which summarizes all properties that define the visual styling of ...">
<polygon fill="white" stroke="#666666" points="623,-342.53 399,-342.53 399,-321.53 623,-321.53 623,-342.53"/>
<text text-anchor="middle" x="511" y="-328.93" font-family="Helvetica,sans-Serif" font-size="12.00">JKQTGraphsSpecificStyleProperties</text>
</a>
</g>
</g>
<!-- Node13&#45;&gt;Node12 -->
<g id="edge14" class="edge">
<title>Node13&#45;&gt;Node12</title>
<path fill="none" stroke="#9a32cd" stroke-dasharray="5,2" d="M633.27,-337.82C635.87,-337.89 638.45,-337.96 641,-338.03 922.37,-345.25 1257.38,-343.8 1401.84,-342.69"/>
<polygon fill="#9a32cd" stroke="#9a32cd" points="633.27,-334.31 623.17,-337.49 633.05,-341.31 633.27,-334.31"/>
<text text-anchor="middle" x="948.5" y="-373.43" font-family="Helvetica,sans-Serif" font-size="12.00"> boxplotStyle</text>
<text text-anchor="middle" x="948.5" y="-360.43" font-family="Helvetica,sans-Serif" font-size="12.00">defaultGraphStyle</text>
<text text-anchor="middle" x="948.5" y="-347.43" font-family="Helvetica,sans-Serif" font-size="12.00">filledStyle</text>
</g>
<!-- Node15 -->
<g id="node15" class="node">
<title>Node15</title>
<g id="a_node15"><a xlink:href="class_j_k_q_t_barchart_specific_style_properties.html" target="_top" xlink:title="Support Class for JKQTBasePlotter, which summarizes all properties that define the visual styling of ...">
<polygon fill="white" stroke="#666666" points="1035,-329.03 862,-329.03 862,-295.03 1035,-295.03 1035,-329.03"/>
<text text-anchor="start" x="870" y="-315.43" font-family="Helvetica,sans-Serif" font-size="12.00">JKQTBarchartSpecificStyle</text>
<text text-anchor="middle" x="948.5" y="-302.43" font-family="Helvetica,sans-Serif" font-size="12.00">Properties</text>
</a>
</g>
</g>
<!-- Node13&#45;&gt;Node15 -->
<g id="edge17" class="edge">
<title>Node13&#45;&gt;Node15</title>
<path fill="none" stroke="#63b8ff" d="M633.15,-326.47C705.82,-323.13 796.5,-318.96 861.76,-315.97"/>
<polygon fill="#63b8ff" stroke="#63b8ff" points="632.85,-322.98 623.02,-326.93 633.17,-329.97 632.85,-322.98"/>
</g>
<!-- Node16 -->
<g id="node16" class="node">
<title>Node16</title>
<g id="a_node16"><a xlink:href="class_j_k_q_t_impulse_specific_style_properties.html" target="_top" xlink:title="Support Class for JKQTBasePlotter, which summarizes all properties that define the visual styling of ...">
<polygon fill="white" stroke="#666666" points="1032.5,-285.03 864.5,-285.03 864.5,-251.03 1032.5,-251.03 1032.5,-285.03"/>
<text text-anchor="start" x="872.5" y="-271.43" font-family="Helvetica,sans-Serif" font-size="12.00">JKQTImpulseSpecificStyle</text>
<text text-anchor="middle" x="948.5" y="-258.43" font-family="Helvetica,sans-Serif" font-size="12.00">Properties</text>
</a>
</g>
</g>
<!-- Node13&#45;&gt;Node16 -->
<g id="edge19" class="edge">
<title>Node13&#45;&gt;Node16</title>
<path fill="none" stroke="#63b8ff" d="M594.09,-319.97C671.4,-308.6 786.64,-291.67 864.31,-280.25"/>
<polygon fill="#63b8ff" stroke="#63b8ff" points="593.3,-316.54 583.91,-321.46 594.32,-323.47 593.3,-316.54"/>
</g>
<!-- Node17 -->
<g id="node17" class="node">
<title>Node17</title>
<g id="a_node17"><a xlink:href="class_j_k_q_t_geometric_specific_style_properties.html" target="_top" xlink:title="Support Class for JKQTBasePlotter, which summarizes all properties that define the visual styling of ...">
<polygon fill="white" stroke="#666666" points="844,-423.03 660,-423.03 660,-389.03 844,-389.03 844,-423.03"/>
<text text-anchor="start" x="668" y="-409.43" font-family="Helvetica,sans-Serif" font-size="12.00">JKQTGeometricSpecificStyle</text>
<text text-anchor="middle" x="752" y="-396.43" font-family="Helvetica,sans-Serif" font-size="12.00">Properties</text>
</a>
</g>
</g>
<!-- Node13&#45;&gt;Node17 -->
<g id="edge21" class="edge">
<title>Node13&#45;&gt;Node17</title>
<path fill="none" stroke="#63b8ff" d="M555.59,-345.53C595.02,-357.74 653.28,-375.77 695.93,-388.98"/>
<polygon fill="#63b8ff" stroke="#63b8ff" points="556.58,-342.17 545.99,-342.55 554.51,-348.85 556.58,-342.17"/>
</g>
<!-- Node14 -->
<g id="node14" class="node">
<title>Node14</title>
<g id="a_node14"><a xlink:href="struct_j_k_q_t_p_color_derivation_mode.html" target="_top" xlink:title="Specifies how a fill&#45;color is derived from a given color.">
<polygon fill="white" stroke="#666666" points="179,-342.53 0,-342.53 0,-321.53 179,-321.53 179,-342.53"/>
<text text-anchor="middle" x="89.5" y="-328.93" font-family="Helvetica,sans-Serif" font-size="12.00">JKQTPColorDerivationMode</text>
</a>
</g>
</g>
<!-- Node14&#45;&gt;Node13 -->
<g id="edge15" class="edge">
<title>Node14&#45;&gt;Node13</title>
<path fill="none" stroke="#9a32cd" stroke-dasharray="5,2" d="M189.53,-332.03C252.41,-332.03 333.9,-332.03 398.97,-332.03"/>
<polygon fill="#9a32cd" stroke="#9a32cd" points="189.21,-328.53 179.21,-332.03 189.21,-335.53 189.21,-328.53"/>
<text text-anchor="middle" x="289" y="-387.43" font-family="Helvetica,sans-Serif" font-size="12.00"> errorColorDerivationMode</text>
<text text-anchor="middle" x="289" y="-374.43" font-family="Helvetica,sans-Serif" font-size="12.00">errorFillColorDerivationMode</text>
<text text-anchor="middle" x="289" y="-361.43" font-family="Helvetica,sans-Serif" font-size="12.00">fillColorDerivationMode</text>
<text text-anchor="middle" x="289" y="-348.43" font-family="Helvetica,sans-Serif" font-size="12.00">graphColorDerivationMode</text>
<text text-anchor="middle" x="289" y="-335.43" font-family="Helvetica,sans-Serif" font-size="12.00">symbolFillColorDerivationMode</text>
</g>
<!-- Node15&#45;&gt;Node12 -->
<g id="edge16" class="edge">
<title>Node15&#45;&gt;Node12</title>
<path fill="none" stroke="#9a32cd" stroke-dasharray="5,2" d="M1045.41,-315.54C1103.01,-317.83 1177.73,-321.12 1244,-325.03 1296.86,-328.15 1356.49,-332.58 1401.78,-336.14"/>
<polygon fill="#9a32cd" stroke="#9a32cd" points="1045.36,-312.04 1035.23,-315.14 1045.09,-319.03 1045.36,-312.04"/>
<text text-anchor="middle" x="1148.5" y="-328.43" font-family="Helvetica,sans-Serif" font-size="12.00"> barchartStyle</text>
</g>
<!-- Node16&#45;&gt;Node12 -->
<g id="edge18" class="edge">
<title>Node16&#45;&gt;Node12</title>
<path fill="none" stroke="#9a32cd" stroke-dasharray="5,2" d="M1042.78,-276.42C1100.81,-282.08 1176.9,-290.27 1244,-300.03 1305.46,-308.97 1375.61,-322.22 1422.11,-331.44"/>
<polygon fill="#9a32cd" stroke="#9a32cd" points="1042.82,-272.91 1032.53,-275.43 1042.15,-279.88 1042.82,-272.91"/>
<text text-anchor="middle" x="1148.5" y="-303.43" font-family="Helvetica,sans-Serif" font-size="12.00"> impulseStyle</text>
</g>
<!-- Node17&#45;&gt;Node12 -->
<g id="edge20" class="edge">
<title>Node17&#45;&gt;Node12</title>
<path fill="none" stroke="#9a32cd" stroke-dasharray="5,2" d="M854.24,-417.57C953.71,-427.02 1109.67,-436.78 1244,-423.03 1296.37,-417.67 1314.66,-425.78 1360,-399.03 1370.59,-392.78 1367.93,-385.08 1378,-378.03 1394.34,-366.6 1414.75,-358.28 1432.55,-352.54"/>
<polygon fill="#9a32cd" stroke="#9a32cd" points="854.49,-414.08 844.2,-416.6 853.81,-421.05 854.49,-414.08"/>
<text text-anchor="middle" x="1148.5" y="-432.43" font-family="Helvetica,sans-Serif" font-size="12.00"> geometricStyle</text>
</g>
<!-- Node18 -->
<g id="node18" class="node">
<title>Node18</title>
<g id="a_node18"><a xlink:href="class_j_k_q_t_annotations_specific_style_properties.html" target="_top" xlink:title="Support Class for JKQTBasePlotter, which summarizes all properties that define the visual styling of ...">
<polygon fill="white" stroke="#666666" points="1244,-414.03 1053,-414.03 1053,-380.03 1244,-380.03 1244,-414.03"/>
<text text-anchor="start" x="1061" y="-400.43" font-family="Helvetica,sans-Serif" font-size="12.00">JKQTAnnotationsSpecificStyle</text>
<text text-anchor="middle" x="1148.5" y="-387.43" font-family="Helvetica,sans-Serif" font-size="12.00">Properties</text>
</a>
</g>
</g>
<!-- Node17&#45;&gt;Node18 -->
<g id="edge23" class="edge">
<title>Node17&#45;&gt;Node18</title>
<path fill="none" stroke="#63b8ff" d="M854.07,-403.72C915.27,-402.33 992.83,-400.56 1052.84,-399.19"/>
<polygon fill="#63b8ff" stroke="#63b8ff" points="853.92,-400.23 844,-403.95 854.08,-407.22 853.92,-400.23"/>
</g>
<!-- Node18&#45;&gt;Node12 -->
<g id="edge22" class="edge">
<title>Node18&#45;&gt;Node12</title>
<path fill="none" stroke="#9a32cd" stroke-dasharray="5,2" d="M1253.93,-382.94C1287.84,-378.02 1325.58,-372.18 1360,-366.03 1382.2,-362.06 1406.69,-357 1427.26,-352.54"/>
<polygon fill="#9a32cd" stroke="#9a32cd" points="1253.41,-379.48 1244.01,-384.37 1254.4,-386.41 1253.41,-379.48"/>
<text text-anchor="middle" x="1311" y="-385.43" font-family="Helvetica,sans-Serif" font-size="12.00"> annotationStyle</text>
</g>
<!-- Node19&#45;&gt;Node6 -->
<g id="edge24" class="edge">
<title>Node19&#45;&gt;Node6</title>
<path fill="none" stroke="#9a32cd" stroke-dasharray="5,2" d="M1876.03,-413.64C1925.23,-403.23 1994.78,-388.5 2041.43,-378.63"/>
<polygon fill="#9a32cd" stroke="#9a32cd" points="1875.23,-410.23 1866.17,-415.73 1876.68,-417.08 1875.23,-410.23"/>
<text text-anchor="middle" x="1954.5" y="-411.43" font-family="Helvetica,sans-Serif" font-size="12.00"> mathText</text>
</g>
<!-- Node20 -->
<g id="node20" class="node">
<title>Node20</title>
<g id="a_node20"><a xlink:href="class_j_k_q_t_math_text_node.html" target="_top" xlink:title="subclass representing one node in the syntax tree">
<polygon fill="white" stroke="#666666" points="2158,-461.53 2027,-461.53 2027,-440.53 2158,-440.53 2158,-461.53"/>
<text text-anchor="middle" x="2092.5" y="-447.93" font-family="Helvetica,sans-Serif" font-size="12.00">JKQTMathTextNode</text>
</a>
</g>
</g>
<!-- Node19&#45;&gt;Node20 -->
<g id="edge27" class="edge">
<title>Node19&#45;&gt;Node20</title>
<path fill="none" stroke="#9a32cd" stroke-dasharray="5,2" d="M1856.58,-439.57C1871.8,-444.18 1889.52,-448.75 1906,-451.03 1945.88,-456.55 1991.04,-456.68 2026.81,-455.37"/>
<polygon fill="#9a32cd" stroke="#9a32cd" points="1857.56,-436.21 1846.97,-436.56 1855.46,-442.89 1857.56,-436.21"/>
<text text-anchor="middle" x="1954.5" y="-459.43" font-family="Helvetica,sans-Serif" font-size="12.00"> parentMathText</text>
</g>
<!-- Node20&#45;&gt;Node19 -->
<g id="edge26" class="edge">
<title>Node20&#45;&gt;Node19</title>
<path fill="none" stroke="#9a32cd" stroke-dasharray="5,2" d="M2016.67,-439.6C2012.05,-439.03 2007.46,-438.5 2003,-438.03 1956.62,-433.13 1903.5,-429.94 1866.02,-428.09"/>
<polygon fill="#9a32cd" stroke="#9a32cd" points="2016.44,-443.1 2026.81,-440.91 2017.34,-436.16 2016.44,-443.1"/>
<text text-anchor="middle" x="1954.5" y="-441.43" font-family="Helvetica,sans-Serif" font-size="12.00"> parsedNode</text>
</g>
<!-- Node20&#45;&gt;Node20 -->
<g id="edge28" class="edge">
<title>Node20&#45;&gt;Node20</title>
<path fill="none" stroke="#9a32cd" stroke-dasharray="5,2" d="M2067.07,-471.1C2069.03,-475.94 2077.51,-479.53 2092.5,-479.53 2116.49,-479.53 2123.8,-470.34 2114.43,-461.55"/>
<polygon fill="#9a32cd" stroke="#9a32cd" points="2070.41,-472.15 2070.57,-461.55 2063.84,-469.73 2070.41,-472.15"/>
<text text-anchor="middle" x="2092.5" y="-482.93" font-family="Helvetica,sans-Serif" font-size="12.00"> parentNode</text>
</g>
<!-- Node21&#45;&gt;Node6 -->
<g id="edge29" class="edge">
<title>Node21&#45;&gt;Node6</title>
<path fill="none" stroke="#9a32cd" stroke-dasharray="5,2" d="M2374.8,-464.61C2351.18,-457.73 2321.64,-449.48 2295,-443.03 2245.19,-430.97 2229.86,-438.37 2182,-420.03 2154.21,-409.38 2125.02,-390.49 2108.08,-378.65"/>
<polygon fill="#9a32cd" stroke="#9a32cd" points="2373.95,-468 2384.53,-467.46 2375.92,-461.29 2373.95,-468"/>
<text text-anchor="middle" x="2238.5" y="-446.43" font-family="Helvetica,sans-Serif" font-size="12.00"> m_plotsModel</text>
</g>
<!-- Node22 -->
<g id="node22" class="node">
<title>Node22</title>
<g id="a_node22"><a xlink:title=" ">
<polygon fill="white" stroke="#666666" points="2164,-531.53 2021,-531.53 2021,-510.53 2164,-510.53 2164,-531.53"/>
<text text-anchor="middle" x="2092.5" y="-517.93" font-family="Helvetica,sans-Serif" font-size="12.00">QAbstractTableModel</text>
</a>
</g>
</g>
<!-- Node22&#45;&gt;Node21 -->
<g id="edge30" class="edge">
<title>Node22&#45;&gt;Node21</title>
<path fill="none" stroke="#63b8ff" d="M2174.43,-510.35C2230.15,-503 2303.18,-493.37 2354.99,-486.54"/>
<polygon fill="#63b8ff" stroke="#63b8ff" points="2173.69,-506.92 2164.24,-511.7 2174.61,-513.86 2173.69,-506.92"/>
</g>
<!-- Node23 -->
<g id="node23" class="node">
<title>Node23</title>
<g id="a_node23"><a xlink:href="class_j_k_q_t_p_horizontal_axis.html" target="_top" xlink:title="implements a horizontal axis, based on JKQTPCoordinateAxis (for most of documentation: see JKQTPCoord...">
<polygon fill="white" stroke="#666666" points="2727.5,-417.53 2590.5,-417.53 2590.5,-396.53 2727.5,-396.53 2727.5,-417.53"/>
<text text-anchor="middle" x="2659" y="-403.93" font-family="Helvetica,sans-Serif" font-size="12.00">JKQTPHorizontalAxis</text>
</a>
</g>
</g>
<!-- Node23&#45;&gt;Node6 -->
<g id="edge32" class="edge">
<title>Node23&#45;&gt;Node6</title>
<path fill="none" stroke="#9a32cd" stroke-dasharray="5,2" d="M2580.42,-404.97C2486.07,-401.96 2322.03,-395.11 2182,-381.03 2171.49,-379.97 2160.32,-378.56 2149.58,-377.06"/>
<polygon fill="#9a32cd" stroke="#9a32cd" points="2580.35,-408.47 2590.45,-405.28 2580.57,-401.47 2580.35,-408.47"/>
<text text-anchor="middle" x="2420.5" y="-407.43" font-family="Helvetica,sans-Serif" font-size="12.00"> xAxis</text>
</g>
<!-- Node24&#45;&gt;Node23 -->
<g id="edge33" class="edge">
<title>Node24&#45;&gt;Node23</title>
<path fill="none" stroke="#63b8ff" d="M2501.4,-330.24C2510.7,-333.37 2519.78,-337.24 2528,-342.03 2548.93,-354.22 2544.27,-369.51 2565,-382.03 2575.3,-388.25 2587.17,-392.96 2598.9,-396.5"/>
<polygon fill="#63b8ff" stroke="#63b8ff" points="2502.26,-326.84 2491.67,-327.24 2500.2,-333.53 2502.26,-326.84"/>
</g>
<!-- Node25 -->
<g id="node25" class="node">
<title>Node25</title>
<g id="a_node25"><a xlink:href="class_j_k_q_t_p_vertical_axis.html" target="_top" xlink:title="implements a vertical axis, based on JKQTPCoordinateAxis (for most of documentation: see JKQTPCoordin...">
<polygon fill="white" stroke="#666666" points="2720,-373.53 2598,-373.53 2598,-352.53 2720,-352.53 2720,-373.53"/>
<text text-anchor="middle" x="2659" y="-359.93" font-family="Helvetica,sans-Serif" font-size="12.00">JKQTPVerticalAxis</text>
</a>
</g>
</g>
<!-- Node24&#45;&gt;Node25 -->
<g id="edge38" class="edge">
<title>Node24&#45;&gt;Node25</title>
<path fill="none" stroke="#63b8ff" d="M2485.94,-329.56C2522.95,-336.76 2568.89,-345.7 2603.99,-352.53"/>
<polygon fill="#63b8ff" stroke="#63b8ff" points="2486.24,-326.06 2475.76,-327.58 2484.91,-332.93 2486.24,-326.06"/>
</g>
<!-- Node25&#45;&gt;Node6 -->
<g id="edge37" class="edge">
<title>Node25&#45;&gt;Node6</title>
<path fill="none" stroke="#9a32cd" stroke-dasharray="5,2" d="M2587.49,-363.65C2474.05,-364.66 2253.27,-366.61 2149.69,-367.53"/>
<polygon fill="#9a32cd" stroke="#9a32cd" points="2587.83,-367.15 2597.8,-363.56 2587.77,-360.15 2587.83,-367.15"/>
<text text-anchor="middle" x="2420.5" y="-370.43" font-family="Helvetica,sans-Serif" font-size="12.00"> yAxis</text>
</g>
<!-- Node26 -->
<g id="node26" class="node">
<title>Node26</title>
<g id="a_node26"><a xlink:href="class_j_k_q_t_p_datastore.html" target="_top" xlink:title="This class manages data columns (with entries of type double ), used by JKQTPlotter/JKQTBasePlotter t...">
<polygon fill="white" stroke="#666666" points="1872,-46.53 1761,-46.53 1761,-25.53 1872,-25.53 1872,-46.53"/>
<text text-anchor="middle" x="1816.5" y="-32.93" font-family="Helvetica,sans-Serif" font-size="12.00">JKQTPDatastore</text>
</a>
</g>
</g>
<!-- Node26&#45;&gt;Node6 -->
<g id="edge39" class="edge">
<title>Node26&#45;&gt;Node6</title>
<path fill="none" stroke="#9a32cd" stroke-dasharray="5,2" d="M1881.39,-50.47C1883.71,-51.85 1885.92,-53.37 1888,-55.03 1901.36,-65.69 1897.26,-74.34 1906,-89.03 1970.11,-196.75 2057.73,-320.82 2083.85,-357.38"/>
<polygon fill="#9a32cd" stroke="#9a32cd" points="1882.58,-47.15 1872.08,-45.76 1879.42,-53.39 1882.58,-47.15"/>
<text text-anchor="middle" x="1954.5" y="-239.43" font-family="Helvetica,sans-Serif" font-size="12.00"> datastore</text>
</g>
<!-- Node28 -->
<g id="node28" class="node">
<title>Node28</title>
<g id="a_node28"><a xlink:href="class_j_k_q_t_p_column.html" target="_top" xlink:title="internally stores information about one data column. See JKQTPDatastore for more information.">
<polygon fill="white" stroke="#666666" points="2141.5,-46.53 2043.5,-46.53 2043.5,-25.53 2141.5,-25.53 2141.5,-46.53"/>
<text text-anchor="middle" x="2092.5" y="-32.93" font-family="Helvetica,sans-Serif" font-size="12.00">JKQTPColumn</text>
</a>
</g>
</g>
<!-- Node26&#45;&gt;Node28 -->
<g id="edge42" class="edge">
<title>Node26&#45;&gt;Node28</title>
<path fill="none" stroke="#9a32cd" stroke-dasharray="5,2" d="M1882.54,-36.03C1931.87,-36.03 1998.58,-36.03 2043.22,-36.03"/>
<polygon fill="#9a32cd" stroke="#9a32cd" points="1882.29,-32.53 1872.29,-36.03 1882.29,-39.53 1882.29,-32.53"/>
<text text-anchor="middle" x="1954.5" y="-39.43" font-family="Helvetica,sans-Serif" font-size="12.00"> datastore</text>
</g>
<!-- Node27 -->
<g id="node27" class="node">
<title>Node27</title>
<g id="a_node27"><a xlink:title=" ">
<polygon fill="white" stroke="#666666" points="2528,-46.53 2313,-46.53 2313,-25.53 2528,-25.53 2528,-46.53"/>
<text text-anchor="middle" x="2420.5" y="-32.93" font-family="Helvetica,sans-Serif" font-size="12.00">std::unique_ptr&lt; JKQTPColumn &gt;</text>
</a>
</g>
</g>
<!-- Node27&#45;&gt;Node26 -->
<g id="edge40" class="edge">
<title>Node27&#45;&gt;Node26</title>
<path fill="none" stroke="#9a32cd" stroke-dasharray="5,2" d="M2352.44,-23.79C2273.25,-10.89 2137.55,6.36 2021,-3.03 1968.56,-7.25 1909.24,-17.51 1868.24,-25.47"/>
<polygon fill="#9a32cd" stroke="#9a32cd" points="2352.32,-27.32 2362.75,-25.5 2353.46,-20.41 2352.32,-27.32"/>
<text text-anchor="middle" x="2092.5" y="-6.43" font-family="Helvetica,sans-Serif" font-size="12.00"> m_invalidColumn</text>
</g>
<!-- Node28&#45;&gt;Node27 -->
<g id="edge41" class="edge">
<title>Node28&#45;&gt;Node27</title>
<path fill="none" stroke="#9a32cd" stroke-dasharray="5,2" d="M2151.69,-36.03C2196.35,-36.03 2259.24,-36.03 2312.85,-36.03"/>
<polygon fill="#9a32cd" stroke="#9a32cd" points="2151.6,-32.53 2141.6,-36.03 2151.6,-39.53 2151.6,-32.53"/>
<text text-anchor="middle" x="2238.5" y="-39.43" font-family="Helvetica,sans-Serif" font-size="12.00"> ptr</text>
</g>
<!-- Node29 -->
<g id="node29" class="node">
<title>Node29</title>
<g id="a_node29"><a xlink:title=" ">
<polygon fill="white" stroke="#666666" points="2162.5,-85.53 2022.5,-85.53 2022.5,-64.53 2162.5,-64.53 2162.5,-85.53"/>
<text text-anchor="middle" x="2092.5" y="-71.93" font-family="Helvetica,sans-Serif" font-size="12.00">std::unique_ptr&lt; T &gt;</text>
</a>
</g>
</g>
<!-- Node29&#45;&gt;Node27 -->
<g id="edge43" class="edge">
<title>Node29&#45;&gt;Node27</title>
<path fill="none" stroke="orange" stroke-dasharray="5,2" d="M2172.77,-65.61C2209.89,-61.2 2254.71,-55.86 2295,-51.03 2307.11,-49.58 2319.87,-48.05 2332.43,-46.53"/>
<polygon fill="orange" stroke="orange" points="2172.03,-62.18 2162.51,-66.83 2172.86,-69.13 2172.03,-62.18"/>
<text text-anchor="middle" x="2238.5" y="-68.43" font-family="Helvetica,sans-Serif" font-size="12.00"> &lt; JKQTPColumn &gt;</text>
</g>
<!-- Node30 -->
<g id="node30" class="node">
<title>Node30</title>
<g id="a_node30"><a xlink:title=" ">
<polygon fill="white" stroke="#666666" points="1831,-85.53 1802,-85.53 1802,-64.53 1831,-64.53 1831,-85.53"/>
<text text-anchor="middle" x="1816.5" y="-71.93" font-family="Helvetica,sans-Serif" font-size="12.00">T</text>
</a>
</g>
</g>
<!-- Node30&#45;&gt;Node29 -->
<g id="edge44" class="edge">
<title>Node30&#45;&gt;Node29</title>
<path fill="none" stroke="#9a32cd" stroke-dasharray="5,2" d="M1841.17,-75.03C1881.06,-75.03 1963.14,-75.03 2022.46,-75.03"/>
<polygon fill="#9a32cd" stroke="#9a32cd" points="1841.09,-71.53 1831.09,-75.03 1841.09,-78.53 1841.09,-71.53"/>
<text text-anchor="middle" x="1954.5" y="-78.43" font-family="Helvetica,sans-Serif" font-size="12.00"> ptr</text>
</g>
<!-- Node31 -->
<g id="node31" class="node">
<title>Node31</title>
<g id="a_node31"><a xlink:href="class_j_k_q_t_p_graph_line_style_mixin.html" target="_top" xlink:title="This Mix&#45;In class provides setter/getter methods, storage and other facilities for the graph line sty...">
<polygon fill="white" stroke="#666666" points="2746,-334.53 2572,-334.53 2572,-313.53 2746,-313.53 2746,-334.53"/>
<text text-anchor="middle" x="2659" y="-320.93" font-family="Helvetica,sans-Serif" font-size="12.00">JKQTPGraphLineStyleMixin</text>
</a>
</g>
</g>
<!-- Node31&#45;&gt;Node2 -->
<g id="edge46" class="edge">
<title>Node31&#45;&gt;Node2</title>
<path fill="none" stroke="#63b8ff" d="M2756.14,-329.96C2767.52,-330.66 2778.93,-331.37 2789.73,-332.03"/>
<polygon fill="#63b8ff" stroke="#63b8ff" points="2756.36,-326.47 2746.16,-329.35 2755.93,-333.45 2756.36,-326.47"/>
</g>
</g>
</svg>
        <g id="navigator" transform="translate(0 0)" fill="#404254">
                <rect fill="#f2f5e9" fill-opacity="0.5" stroke="#606060" stroke-width=".5" x="0" y="0" width="60" height="60"/>
                <use id="zoomplus" xlink:href="#zoomPlus" x="17" y="9" onmousedown="handleZoom(evt,'in')"/>
                <use id="zoomminus" xlink:href="#zoomMin" x="42" y="9" onmousedown="handleZoom(evt,'out')"/>
                <use id="reset" xlink:href="#resetDef" x="30" y="36" onmousedown="handleReset()"/>
                <g id="arrowUp" xlink:href="#dirArrow" transform="translate(30 24)" onmousedown="handlePan(0,-1)">
                  <use xlink:href="#rim" fill="#404040">
                        <set attributeName="fill" to="#808080" begin="arrowUp.mouseover" end="arrowUp.mouseout"/>
                  </use>
                  <path fill="none" stroke="white" stroke-width="1.5" d="M0,-3.0v7 M-2.5,-0.5L0,-3.0L2.5,-0.5"/>
                </g>
                <g id="arrowRight" xlink:href="#dirArrow" transform="rotate(90) translate(36 -43)" onmousedown="handlePan(1,0)">
                  <use xlink:href="#rim" fill="#404040">
                        <set attributeName="fill" to="#808080" begin="arrowRight.mouseover" end="arrowRight.mouseout"/>
                  </use>
                  <path fill="none" stroke="white" stroke-width="1.5" d="M0,-3.0v7 M-2.5,-0.5L0,-3.0L2.5,-0.5"/>
                </g>
                <g id="arrowDown" xlink:href="#dirArrow" transform="rotate(180) translate(-30 -48)" onmousedown="handlePan(0,1)">
                  <use xlink:href="#rim" fill="#404040">
                        <set attributeName="fill" to="#808080" begin="arrowDown.mouseover" end="arrowDown.mouseout"/>
                  </use>
                  <path fill="none" stroke="white" stroke-width="1.5" d="M0,-3.0v7 M-2.5,-0.5L0,-3.0L2.5,-0.5"/>
                </g>
                <g id="arrowLeft" xlink:href="#dirArrow" transform="rotate(270) translate(-36 17)" onmousedown="handlePan(-1,0)">
                  <use xlink:href="#rim" fill="#404040">
                        <set attributeName="fill" to="#808080" begin="arrowLeft.mouseover" end="arrowLeft.mouseout"/>
                  </use>
                  <path fill="none" stroke="white" stroke-width="1.5" d="M0,-3.0v7 M-2.5,-0.5L0,-3.0L2.5,-0.5"/>
                </g>
        </g>
        <svg viewBox="0 0 15 15" width="100%" height="30px" preserveAspectRatio="xMaxYMin meet">
         <g id="arrow_out" transform="scale(0.3 0.3)">
          <a xlink:href="class_j_k_q_t_p_geo_arc__coll__graph_org.svg" target="_base">
           <rect id="button" ry="5" rx="5" y="6" x="6" height="38" width="38"
                fill="#f2f5e9" fill-opacity="0.5" stroke="#606060" stroke-width="1.0"/>
           <path id="arrow"
             d="M 11.500037,31.436501 C 11.940474,20.09759 22.043105,11.32322 32.158766,21.979434 L 37.068811,17.246167 C 37.068811,17.246167 37.088388,32 37.088388,32 L 22.160133,31.978069 C 22.160133,31.978069 26.997745,27.140456 26.997745,27.140456 C 18.528582,18.264221 13.291696,25.230495 11.500037,31.436501 z"
             style="fill:#404040;"/>
          </a>
         </g>
        </svg>
</svg>
