<?xml version="1.0" encoding="UTF-8" standalone="no"?>
<!DOCTYPE svg PUBLIC "-//W3C//DTD SVG 1.1//EN"
 "http://www.w3.org/Graphics/SVG/1.1/DTD/svg11.dtd">
<!-- Generated by graphviz version 2.43.0 (0)
 -->
<!-- Title: JKQTPGraphLinesCompressionMixin Pages: 1 -->
<svg width="205pt" height="159pt"
 viewBox="0.00 0.00 205.00 159.00" xmlns="http://www.w3.org/2000/svg" xmlns:xlink="http://www.w3.org/1999/xlink">
<g id="graph0" class="graph" transform="scale(1 1) rotate(0) translate(4 155)">
<title>JKQTPGraphLinesCompressionMixin</title>
<!-- Node1 -->
<g id="node1" class="node">
<title>Node1</title>
<g id="a_node1"><a xlink:title="This Mix&#45;In class provides setter/getter methods, storage and other facilities for a line&#45;graph compr...">
<polygon fill="#bfbfbf" stroke="black" points="0,-116.5 0,-150.5 197,-150.5 197,-116.5 0,-116.5"/>
<text text-anchor="start" x="8" y="-136.9" font-family="Helvetica,sans-Serif" font-size="12.00">JKQTPGraphLinesCompression</text>
<text text-anchor="middle" x="98.5" y="-123.9" font-family="Helvetica,sans-Serif" font-size="12.00">Mixin</text>
</a>
</g>
</g>
<!-- Node2 -->
<g id="node2" class="node">
<title>Node2</title>
<g id="a_node2"><a xlink:href="class_j_k_q_t_p_x_y_line_graph.html" target="_top" xlink:title="This implements xy line plots. This also alows to draw symbols at the data points.">
<polygon fill="none" stroke="black" points="33.5,-58.5 33.5,-79.5 163.5,-79.5 163.5,-58.5 33.5,-58.5"/>
<text text-anchor="middle" x="98.5" y="-65.9" font-family="Helvetica,sans-Serif" font-size="12.00">JKQTPXYLineGraph</text>
</a>
</g>
</g>
<!-- Node1&#45;&gt;Node2 -->
<g id="edge1" class="edge">
<title>Node1&#45;&gt;Node2</title>
<path fill="none" stroke="midnightblue" d="M98.5,-106.28C98.5,-96.91 98.5,-86.92 98.5,-79.8"/>
<polygon fill="midnightblue" stroke="midnightblue" points="95,-106.4 98.5,-116.4 102,-106.4 95,-106.4"/>
</g>
<!-- Node3 -->
<g id="node3" class="node">
<title>Node3</title>
<g id="a_node3"><a xlink:href="class_j_k_q_t_p_x_y_line_error_graph.html" target="_top" xlink:title="This implements xy line plots with x and y error indicators.">
<polygon fill="none" stroke="black" points="19,-0.5 19,-21.5 178,-21.5 178,-0.5 19,-0.5"/>
<text text-anchor="middle" x="98.5" y="-7.9" font-family="Helvetica,sans-Serif" font-size="12.00">JKQTPXYLineErrorGraph</text>
</a>
</g>
</g>
<!-- Node2&#45;&gt;Node3 -->
<g id="edge2" class="edge">
<title>Node2&#45;&gt;Node3</title>
<path fill="none" stroke="midnightblue" d="M98.5,-48.16C98.5,-39.16 98.5,-28.92 98.5,-21.64"/>
<polygon fill="midnightblue" stroke="midnightblue" points="95,-48.25 98.5,-58.25 102,-48.25 95,-48.25"/>
</g>
</g>
</svg>
