<?xml version="1.0" encoding="UTF-8" standalone="no"?>
<!DOCTYPE svg PUBLIC "-//W3C//DTD SVG 1.1//EN"
 "http://www.w3.org/Graphics/SVG/1.1/DTD/svg11.dtd">
<!-- Generated by graphviz version 2.43.0 (0)
 -->
<!-- Title: JKQTPFilledCurveYErrorGraph Pages: 1 -->
<svg width="3788pt" height="597pt"
 viewBox="0.00 0.00 3788.00 597.03" xmlns="http://www.w3.org/2000/svg" xmlns:xlink="http://www.w3.org/1999/xlink">
<g id="graph0" class="graph" transform="scale(1 1) rotate(0) translate(4 593.03)">
<title>JKQTPFilledCurveYErrorGraph</title>
<!-- Node1 -->
<g id="node1" class="node">
<title>Node1</title>
<g id="a_node1"><a xlink:title="This implements filled curve plots with y errors where the area is filled between the plot line and t...">
<polygon fill="#bfbfbf" stroke="black" points="3589,-504.53 3589,-525.53 3780,-525.53 3780,-504.53 3589,-504.53"/>
<text text-anchor="middle" x="3684.5" y="-511.93" font-family="Helvetica,sans-Serif" font-size="12.00">JKQTPFilledCurveYErrorGraph</text>
</a>
</g>
</g>
<!-- Node2 -->
<g id="node2" class="node">
<title>Node2</title>
<g id="a_node2"><a xlink:href="class_j_k_q_t_p_filled_curve_y_graph.html" target="_top" xlink:title="This implements filled curve plots where the area is filled between the plot line and y&#45;Axis.">
<polygon fill="none" stroke="black" points="3390,-525.53 3390,-546.53 3552,-546.53 3552,-525.53 3390,-525.53"/>
<text text-anchor="middle" x="3471" y="-532.93" font-family="Helvetica,sans-Serif" font-size="12.00">JKQTPFilledCurveYGraph</text>
</a>
</g>
</g>
<!-- Node2&#45;&gt;Node1 -->
<g id="edge1" class="edge">
<title>Node2&#45;&gt;Node1</title>
<path fill="none" stroke="midnightblue" d="M3562.41,-527.05C3571.13,-526.19 3579.99,-525.31 3588.74,-524.44"/>
<polygon fill="midnightblue" stroke="midnightblue" points="3561.87,-523.59 3552.26,-528.06 3562.56,-530.55 3561.87,-523.59"/>
</g>
<!-- Node3 -->
<g id="node3" class="node">
<title>Node3</title>
<g id="a_node3"><a xlink:href="class_j_k_q_t_p_filled_curve_graph_base.html" target="_top" xlink:title="a Base class for filled curve graphs like e.g. JKQTPFilledCurveXGraph">
<polygon fill="none" stroke="black" points="3169,-525.53 3169,-546.53 3353,-546.53 3353,-525.53 3169,-525.53"/>
<text text-anchor="middle" x="3261" y="-532.93" font-family="Helvetica,sans-Serif" font-size="12.00">JKQTPFilledCurveGraphBase</text>
</a>
</g>
</g>
<!-- Node3&#45;&gt;Node2 -->
<g id="edge2" class="edge">
<title>Node3&#45;&gt;Node2</title>
<path fill="none" stroke="midnightblue" d="M3363.3,-536.03C3372.24,-536.03 3381.21,-536.03 3389.94,-536.03"/>
<polygon fill="midnightblue" stroke="midnightblue" points="3363.23,-532.53 3353.23,-536.03 3363.23,-539.53 3363.23,-532.53"/>
</g>
<!-- Node4 -->
<g id="node4" class="node">
<title>Node4</title>
<g id="a_node4"><a xlink:href="class_j_k_q_t_p_x_y_baseline_graph.html" target="_top" xlink:title="This virtual JKQTPGraph descendent extends JKQTPXYGraph adds a baseline&#45;property, which is necessary,...">
<polygon fill="none" stroke="black" points="2963.5,-567.53 2963.5,-588.53 3118.5,-588.53 3118.5,-567.53 2963.5,-567.53"/>
<text text-anchor="middle" x="3041" y="-574.93" font-family="Helvetica,sans-Serif" font-size="12.00">JKQTPXYBaselineGraph</text>
</a>
</g>
</g>
<!-- Node4&#45;&gt;Node3 -->
<g id="edge3" class="edge">
<title>Node4&#45;&gt;Node3</title>
<path fill="none" stroke="midnightblue" d="M3106.69,-565.57C3138.05,-559.52 3175.31,-552.35 3205.25,-546.58"/>
<polygon fill="midnightblue" stroke="midnightblue" points="3105.89,-562.16 3096.73,-567.49 3107.21,-569.03 3105.89,-562.16"/>
</g>
<!-- Node5 -->
<g id="node5" class="node">
<title>Node5</title>
<g id="a_node5"><a xlink:href="class_j_k_q_t_p_x_y_graph.html" target="_top" xlink:title="This virtual JKQTPGraph descendent may be used as base for all graphs that use at least two columns t...">
<polygon fill="none" stroke="black" points="2773.5,-567.53 2773.5,-588.53 2878.5,-588.53 2878.5,-567.53 2773.5,-567.53"/>
<text text-anchor="middle" x="2826" y="-574.93" font-family="Helvetica,sans-Serif" font-size="12.00">JKQTPXYGraph</text>
</a>
</g>
</g>
<!-- Node5&#45;&gt;Node4 -->
<g id="edge4" class="edge">
<title>Node5&#45;&gt;Node4</title>
<path fill="none" stroke="midnightblue" d="M2888.64,-578.03C2911.89,-578.03 2938.63,-578.03 2963.11,-578.03"/>
<polygon fill="midnightblue" stroke="midnightblue" points="2888.56,-574.53 2878.56,-578.03 2888.56,-581.53 2888.56,-574.53"/>
</g>
<!-- Node6 -->
<g id="node6" class="node">
<title>Node6</title>
<g id="a_node6"><a xlink:href="class_j_k_q_t_p_graph.html" target="_top" xlink:title="this virtual base class of the (data&#45;column based) graphs, which are part of a JKQTPlotter plot and w...">
<polygon fill="none" stroke="black" points="2589,-567.53 2589,-588.53 2678,-588.53 2678,-567.53 2589,-567.53"/>
<text text-anchor="middle" x="2633.5" y="-574.93" font-family="Helvetica,sans-Serif" font-size="12.00">JKQTPGraph</text>
</a>
</g>
</g>
<!-- Node6&#45;&gt;Node5 -->
<g id="edge5" class="edge">
<title>Node6&#45;&gt;Node5</title>
<path fill="none" stroke="midnightblue" d="M2688.5,-578.03C2715.13,-578.03 2747.09,-578.03 2773.39,-578.03"/>
<polygon fill="midnightblue" stroke="midnightblue" points="2688.2,-574.53 2678.2,-578.03 2688.2,-581.53 2688.2,-574.53"/>
</g>
<!-- Node7 -->
<g id="node7" class="node">
<title>Node7</title>
<g id="a_node7"><a xlink:href="class_j_k_q_t_p_plot_element.html" target="_top" xlink:title="this virtual base class of every element, which is part of a JKQTPlotter plot and may appear in its k...">
<polygon fill="none" stroke="black" points="2358,-567.53 2358,-588.53 2483,-588.53 2483,-567.53 2358,-567.53"/>
<text text-anchor="middle" x="2420.5" y="-574.93" font-family="Helvetica,sans-Serif" font-size="12.00">JKQTPPlotElement</text>
</a>
</g>
</g>
<!-- Node7&#45;&gt;Node6 -->
<g id="edge6" class="edge">
<title>Node7&#45;&gt;Node6</title>
<path fill="none" stroke="midnightblue" d="M2493.23,-578.03C2525,-578.03 2561.34,-578.03 2588.92,-578.03"/>
<polygon fill="midnightblue" stroke="midnightblue" points="2493.1,-574.53 2483.1,-578.03 2493.1,-581.53 2493.1,-574.53"/>
</g>
<!-- Node8 -->
<g id="node8" class="node">
<title>Node8</title>
<g id="a_node8"><a xlink:title=" ">
<polygon fill="none" stroke="black" points="1442.5,-408.53 1442.5,-429.53 1507.5,-429.53 1507.5,-408.53 1442.5,-408.53"/>
<text text-anchor="middle" x="1475" y="-415.93" font-family="Helvetica,sans-Serif" font-size="12.00">QObject</text>
</a>
</g>
</g>
<!-- Node8&#45;&gt;Node7 -->
<g id="edge7" class="edge">
<title>Node8&#45;&gt;Node7</title>
<path fill="none" stroke="midnightblue" d="M1514.95,-432.92C1603.46,-463.74 1827.11,-537.49 2021,-567.03 2091.79,-577.82 2110.43,-570.94 2182,-573.03 2241.78,-574.77 2310.03,-576.14 2357.98,-577.01"/>
<polygon fill="midnightblue" stroke="midnightblue" points="1515.92,-429.55 1505.32,-429.55 1513.61,-436.16 1515.92,-429.55"/>
</g>
<!-- Node9 -->
<g id="node9" class="node">
<title>Node9</title>
<g id="a_node9"><a xlink:href="class_j_k_q_t_base_plotter.html" target="_top" xlink:title="base class for 2D plotter classes (used by the plotter widget JKQTPlotter)">
<polygon fill="none" stroke="black" points="2035.5,-381.53 2035.5,-402.53 2149.5,-402.53 2149.5,-381.53 2035.5,-381.53"/>
<text text-anchor="middle" x="2092.5" y="-388.93" font-family="Helvetica,sans-Serif" font-size="12.00">JKQTBasePlotter</text>
</a>
</g>
</g>
<!-- Node8&#45;&gt;Node9 -->
<g id="edge9" class="edge">
<title>Node8&#45;&gt;Node9</title>
<path fill="none" stroke="midnightblue" d="M1517.97,-417.19C1625.96,-412.45 1913.46,-399.84 2035.48,-394.49"/>
<polygon fill="midnightblue" stroke="midnightblue" points="1517.63,-413.7 1507.8,-417.63 1517.94,-420.69 1517.63,-413.7"/>
</g>
<!-- Node21 -->
<g id="node21" class="node">
<title>Node21</title>
<g id="a_node21"><a xlink:href="class_j_k_q_t_math_text.html" target="_top" xlink:title="this class parses a mathematical markup string and can then draw the contained text/equation onto a Q...">
<polygon fill="none" stroke="black" points="1767,-435.53 1767,-456.53 1866,-456.53 1866,-435.53 1767,-435.53"/>
<text text-anchor="middle" x="1816.5" y="-442.93" font-family="Helvetica,sans-Serif" font-size="12.00">JKQTMathText</text>
</a>
</g>
</g>
<!-- Node8&#45;&gt;Node21 -->
<g id="edge26" class="edge">
<title>Node8&#45;&gt;Node21</title>
<path fill="none" stroke="midnightblue" d="M1517.61,-422.34C1580.58,-427.35 1699.82,-436.83 1766.76,-442.15"/>
<polygon fill="midnightblue" stroke="midnightblue" points="1517.88,-418.85 1507.63,-421.55 1517.33,-425.83 1517.88,-418.85"/>
</g>
<!-- Node26 -->
<g id="node26" class="node">
<title>Node26</title>
<g id="a_node26"><a xlink:href="class_j_k_q_t_p_coordinate_axis.html" target="_top" xlink:title="this virtual class is the base for any type of coordinate axis, to be drawn by JKQTBasePlotter.">
<polygon fill="none" stroke="black" points="2349.5,-327.53 2349.5,-348.53 2491.5,-348.53 2491.5,-327.53 2349.5,-327.53"/>
<text text-anchor="middle" x="2420.5" y="-334.93" font-family="Helvetica,sans-Serif" font-size="12.00">JKQTPCoordinateAxis</text>
</a>
</g>
</g>
<!-- Node8&#45;&gt;Node26 -->
<g id="edge35" class="edge">
<title>Node8&#45;&gt;Node26</title>
<path fill="none" stroke="midnightblue" d="M1517.78,-409.59C1594.29,-392.81 1762.28,-358.29 1906,-345.03 2063.81,-330.47 2250.03,-332.75 2349.13,-335.51"/>
<polygon fill="midnightblue" stroke="midnightblue" points="1516.61,-406.26 1507.6,-411.84 1518.12,-413.1 1516.61,-406.26"/>
</g>
<!-- Node9&#45;&gt;Node7 -->
<g id="edge8" class="edge">
<title>Node9&#45;&gt;Node7</title>
<path fill="none" stroke="#9a32cd" stroke-dasharray="5,2" d="M2118.05,-408.84C2133.3,-420.46 2152.18,-437.18 2164,-456.03 2179.02,-479.97 2161.66,-497.4 2182,-517.03 2206.93,-541.09 2296.15,-559.21 2357.84,-569.22"/>
<polygon fill="#9a32cd" stroke="#9a32cd" points="2119.71,-405.72 2109.58,-402.61 2115.56,-411.36 2119.71,-405.72"/>
<text text-anchor="middle" x="2238.5" y="-559.43" font-family="Helvetica,sans-Serif" font-size="12.00"> parent</text>
</g>
<!-- Node9&#45;&gt;Node9 -->
<g id="edge46" class="edge">
<title>Node9&#45;&gt;Node9</title>
<path fill="none" stroke="#9a32cd" stroke-dasharray="5,2" d="M2066.93,-412.08C2068.61,-417.19 2077.13,-421.03 2092.5,-421.03 2116.49,-421.03 2123.8,-411.68 2114.43,-402.74"/>
<polygon fill="#9a32cd" stroke="#9a32cd" points="2070.21,-413.33 2070.57,-402.74 2063.68,-410.79 2070.21,-413.33"/>
<text text-anchor="middle" x="2092.5" y="-437.43" font-family="Helvetica,sans-Serif" font-size="12.00"> masterPlotterX</text>
<text text-anchor="middle" x="2092.5" y="-424.43" font-family="Helvetica,sans-Serif" font-size="12.00">masterPlotterY</text>
</g>
<!-- Node23 -->
<g id="node23" class="node">
<title>Node23</title>
<g id="a_node23"><a xlink:href="class_j_k_q_t_p_graphs_model.html" target="_top" xlink:title="data model with all plots ina JKQTBasePlotter (+ allows to switch them visible/invisible)">
<polygon fill="none" stroke="black" points="2355,-492.53 2355,-513.53 2486,-513.53 2486,-492.53 2355,-492.53"/>
<text text-anchor="middle" x="2420.5" y="-499.93" font-family="Helvetica,sans-Serif" font-size="12.00">JKQTPGraphsModel</text>
</a>
</g>
</g>
<!-- Node9&#45;&gt;Node23 -->
<g id="edge32" class="edge">
<title>Node9&#45;&gt;Node23</title>
<path fill="none" stroke="#9a32cd" stroke-dasharray="5,2" d="M2114.7,-409.24C2129.29,-421.55 2148.72,-438.92 2164,-456.03 2173.12,-466.24 2170.12,-474.23 2182,-481.03 2210.49,-497.32 2294.74,-501.87 2354.79,-502.98"/>
<polygon fill="#9a32cd" stroke="#9a32cd" points="2116.66,-406.32 2106.74,-402.61 2112.18,-411.7 2116.66,-406.32"/>
<text text-anchor="middle" x="2238.5" y="-503.43" font-family="Helvetica,sans-Serif" font-size="12.00"> m_plotter</text>
</g>
<!-- Node9&#45;&gt;Node26 -->
<g id="edge36" class="edge">
<title>Node9&#45;&gt;Node26</title>
<path fill="none" stroke="#9a32cd" stroke-dasharray="5,2" d="M2133.03,-378.28C2148.19,-373.45 2165.74,-368.4 2182,-365.03 2237.67,-353.48 2301.77,-346.56 2349.34,-342.62"/>
<polygon fill="#9a32cd" stroke="#9a32cd" points="2131.88,-374.97 2123.46,-381.4 2134.05,-381.63 2131.88,-374.97"/>
<text text-anchor="middle" x="2238.5" y="-368.43" font-family="Helvetica,sans-Serif" font-size="12.00"> parent</text>
</g>
<!-- Node10 -->
<g id="node10" class="node">
<title>Node10</title>
<g id="a_node10"><a xlink:href="class_j_k_q_t_base_plotter_style.html" target="_top" xlink:title="Support Class for JKQTBasePlotter, which summarizes all properties that define the visual styling of ...">
<polygon fill="none" stroke="black" points="1745,-284.53 1745,-305.53 1888,-305.53 1888,-284.53 1745,-284.53"/>
<text text-anchor="middle" x="1816.5" y="-291.93" font-family="Helvetica,sans-Serif" font-size="12.00">JKQTBasePlotterStyle</text>
</a>
</g>
</g>
<!-- Node10&#45;&gt;Node9 -->
<g id="edge10" class="edge">
<title>Node10&#45;&gt;Node9</title>
<path fill="none" stroke="#9a32cd" stroke-dasharray="5,2" d="M1856.82,-308.95C1912.21,-328.56 2012,-363.88 2061.69,-381.48"/>
<polygon fill="#9a32cd" stroke="#9a32cd" points="1857.94,-305.63 1847.34,-305.59 1855.6,-312.23 1857.94,-305.63"/>
<text text-anchor="middle" x="1954.5" y="-364.43" font-family="Helvetica,sans-Serif" font-size="12.00"> plotterStyle</text>
</g>
<!-- Node11 -->
<g id="node11" class="node">
<title>Node11</title>
<g id="a_node11"><a xlink:href="class_j_k_q_t_p_key_style.html" target="_top" xlink:title="Support Class for JKQTBasePlotter, which summarizes all properties that define the visual styling of ...">
<polygon fill="none" stroke="black" points="1423,-284.53 1423,-305.53 1527,-305.53 1527,-284.53 1423,-284.53"/>
<text text-anchor="middle" x="1475" y="-291.93" font-family="Helvetica,sans-Serif" font-size="12.00">JKQTPKeyStyle</text>
</a>
</g>
</g>
<!-- Node11&#45;&gt;Node10 -->
<g id="edge11" class="edge">
<title>Node11&#45;&gt;Node10</title>
<path fill="none" stroke="#9a32cd" stroke-dasharray="5,2" d="M1537.39,-295.03C1595.82,-295.03 1683.69,-295.03 1744.97,-295.03"/>
<polygon fill="#9a32cd" stroke="#9a32cd" points="1537.19,-291.53 1527.19,-295.03 1537.19,-298.53 1537.19,-291.53"/>
<text text-anchor="middle" x="1658.5" y="-298.43" font-family="Helvetica,sans-Serif" font-size="12.00"> keyStyle</text>
</g>
<!-- Node12 -->
<g id="node12" class="node">
<title>Node12</title>
<g id="a_node12"><a xlink:href="class_j_k_q_t_p_coordinate_axis_style.html" target="_top" xlink:title="Support Class for JKQTPCoordinateAxis, which summarizes all properties that define the visual styling...">
<polygon fill="none" stroke="black" points="1063,-175.53 1063,-196.53 1234,-196.53 1234,-175.53 1063,-175.53"/>
<text text-anchor="middle" x="1148.5" y="-182.93" font-family="Helvetica,sans-Serif" font-size="12.00">JKQTPCoordinateAxisStyle</text>
</a>
</g>
</g>
<!-- Node12&#45;&gt;Node10 -->
<g id="edge12" class="edge">
<title>Node12&#45;&gt;Node10</title>
<path fill="none" stroke="#9a32cd" stroke-dasharray="5,2" d="M1244.39,-180.09C1330.52,-176.58 1460.7,-175.97 1572,-195.03 1643.48,-207.27 1660.54,-217 1727,-246.03 1752.91,-257.35 1781.24,-273.81 1798.69,-284.47"/>
<polygon fill="#9a32cd" stroke="#9a32cd" points="1244.21,-176.59 1234.37,-180.52 1244.51,-183.59 1244.21,-176.59"/>
<text text-anchor="middle" x="1475" y="-211.43" font-family="Helvetica,sans-Serif" font-size="12.00"> xAxisStyle</text>
<text text-anchor="middle" x="1475" y="-198.43" font-family="Helvetica,sans-Serif" font-size="12.00">yAxisStyle</text>
</g>
<!-- Node14 -->
<g id="node14" class="node">
<title>Node14</title>
<g id="a_node14"><a xlink:href="class_j_k_q_t_p_colorbar_coordinate_axis_style.html" target="_top" xlink:title="Support Class for JKQTPCoordinateAxis, which summarizes all properties that define the visual styling...">
<polygon fill="none" stroke="black" points="1378,-231.03 1378,-265.03 1572,-265.03 1572,-231.03 1378,-231.03"/>
<text text-anchor="start" x="1386" y="-251.43" font-family="Helvetica,sans-Serif" font-size="12.00">JKQTPColorbarCoordinateAxis</text>
<text text-anchor="middle" x="1475" y="-238.43" font-family="Helvetica,sans-Serif" font-size="12.00">Style</text>
</a>
</g>
</g>
<!-- Node12&#45;&gt;Node14 -->
<g id="edge15" class="edge">
<title>Node12&#45;&gt;Node14</title>
<path fill="none" stroke="midnightblue" d="M1214.38,-198.43C1263.3,-207.77 1330.96,-220.7 1384.94,-231.01"/>
<polygon fill="midnightblue" stroke="midnightblue" points="1215.03,-194.99 1204.55,-196.55 1213.71,-201.86 1215.03,-194.99"/>
</g>
<!-- Node12&#45;&gt;Node26 -->
<g id="edge37" class="edge">
<title>Node12&#45;&gt;Node26</title>
<path fill="none" stroke="#9a32cd" stroke-dasharray="5,2" d="M1204.82,-173.35C1269.14,-159.73 1378.67,-140.03 1474,-140.03 1474,-140.03 1474,-140.03 2093.5,-140.03 2239.18,-140.03 2375.23,-286.26 2410.62,-327.38"/>
<polygon fill="#9a32cd" stroke="#9a32cd" points="1203.93,-169.96 1194.89,-175.48 1205.4,-176.8 1203.93,-169.96"/>
<text text-anchor="middle" x="1816.5" y="-143.43" font-family="Helvetica,sans-Serif" font-size="12.00"> axisStyle</text>
</g>
<!-- Node13 -->
<g id="node13" class="node">
<title>Node13</title>
<g id="a_node13"><a xlink:href="class_j_k_q_t_p_grid_style.html" target="_top" xlink:title="Support Class for JKQTPCoordinateAxis, and summarizes all properties that define the visual styling o...">
<polygon fill="none" stroke="black" points="698.5,-175.53 698.5,-196.53 805.5,-196.53 805.5,-175.53 698.5,-175.53"/>
<text text-anchor="middle" x="752" y="-182.93" font-family="Helvetica,sans-Serif" font-size="12.00">JKQTPGridStyle</text>
</a>
</g>
</g>
<!-- Node13&#45;&gt;Node12 -->
<g id="edge13" class="edge">
<title>Node13&#45;&gt;Node12</title>
<path fill="none" stroke="#9a32cd" stroke-dasharray="5,2" d="M816.18,-186.03C883.03,-186.03 988.9,-186.03 1062.92,-186.03"/>
<polygon fill="#9a32cd" stroke="#9a32cd" points="815.79,-182.53 805.79,-186.03 815.79,-189.53 815.79,-182.53"/>
<text text-anchor="middle" x="948.5" y="-202.43" font-family="Helvetica,sans-Serif" font-size="12.00"> majorGridStyle</text>
<text text-anchor="middle" x="948.5" y="-189.43" font-family="Helvetica,sans-Serif" font-size="12.00">minorGridStyle</text>
</g>
<!-- Node14&#45;&gt;Node10 -->
<g id="edge14" class="edge">
<title>Node14&#45;&gt;Node10</title>
<path fill="none" stroke="#9a32cd" stroke-dasharray="5,2" d="M1582.19,-249.14C1627.21,-251.18 1680.01,-255.64 1727,-265.03 1748.8,-269.38 1772.61,-277.67 1790.04,-284.43"/>
<polygon fill="#9a32cd" stroke="#9a32cd" points="1582.26,-245.64 1572.12,-248.72 1581.96,-252.63 1582.26,-245.64"/>
<text text-anchor="middle" x="1658.5" y="-281.43" font-family="Helvetica,sans-Serif" font-size="12.00"> rightColorbarAxisStyle</text>
<text text-anchor="middle" x="1658.5" y="-268.43" font-family="Helvetica,sans-Serif" font-size="12.00">topColorbarAxisStyle</text>
</g>
<!-- Node15 -->
<g id="node15" class="node">
<title>Node15</title>
<g id="a_node15"><a xlink:href="class_j_k_q_t_graphs_base_style.html" target="_top" xlink:title="Support Class for JKQTBasePlotter, which summarizes all properties that define the visual styling of ...">
<polygon fill="none" stroke="black" points="1402,-324.53 1402,-345.53 1548,-345.53 1548,-324.53 1402,-324.53"/>
<text text-anchor="middle" x="1475" y="-331.93" font-family="Helvetica,sans-Serif" font-size="12.00">JKQTGraphsBaseStyle</text>
</a>
</g>
</g>
<!-- Node15&#45;&gt;Node10 -->
<g id="edge16" class="edge">
<title>Node15&#45;&gt;Node10</title>
<path fill="none" stroke="#9a32cd" stroke-dasharray="5,2" d="M1558.31,-327.63C1607.37,-322.93 1670.83,-316.38 1727,-309.03 1735.02,-307.98 1743.43,-306.78 1751.75,-305.53"/>
<polygon fill="#9a32cd" stroke="#9a32cd" points="1557.69,-324.17 1548.07,-328.6 1558.35,-331.14 1557.69,-324.17"/>
<text text-anchor="middle" x="1658.5" y="-328.43" font-family="Helvetica,sans-Serif" font-size="12.00"> graphsStyle</text>
</g>
<!-- Node16 -->
<g id="node16" class="node">
<title>Node16</title>
<g id="a_node16"><a xlink:href="class_j_k_q_t_graphs_specific_style_properties.html" target="_top" xlink:title="Support Class for JKQTBasePlotter, which summarizes all properties that define the visual styling of ...">
<polygon fill="none" stroke="black" points="399,-304.53 399,-325.53 623,-325.53 623,-304.53 399,-304.53"/>
<text text-anchor="middle" x="511" y="-311.93" font-family="Helvetica,sans-Serif" font-size="12.00">JKQTGraphsSpecificStyleProperties</text>
</a>
</g>
</g>
<!-- Node16&#45;&gt;Node15 -->
<g id="edge17" class="edge">
<title>Node16&#45;&gt;Node15</title>
<path fill="none" stroke="#9a32cd" stroke-dasharray="5,2" d="M633.35,-313.73C700.71,-313.08 785.99,-312.36 862,-312.03 938.89,-311.7 958.14,-310.02 1035,-312.03 1164.32,-315.41 1314.84,-324.4 1401.8,-330.09"/>
<polygon fill="#9a32cd" stroke="#9a32cd" points="633.09,-310.24 623.13,-313.83 633.16,-317.24 633.09,-310.24"/>
<text text-anchor="middle" x="948.5" y="-354.43" font-family="Helvetica,sans-Serif" font-size="12.00"> boxplotStyle</text>
<text text-anchor="middle" x="948.5" y="-341.43" font-family="Helvetica,sans-Serif" font-size="12.00">defaultGraphStyle</text>
<text text-anchor="middle" x="948.5" y="-328.43" font-family="Helvetica,sans-Serif" font-size="12.00">filledStyle</text>
<text text-anchor="middle" x="948.5" y="-315.43" font-family="Helvetica,sans-Serif" font-size="12.00">impulseStyle</text>
</g>
<!-- Node18 -->
<g id="node18" class="node">
<title>Node18</title>
<g id="a_node18"><a xlink:href="class_j_k_q_t_barchart_specific_style_properties.html" target="_top" xlink:title="Support Class for JKQTBasePlotter, which summarizes all properties that define the visual styling of ...">
<polygon fill="none" stroke="black" points="862,-257.03 862,-291.03 1035,-291.03 1035,-257.03 862,-257.03"/>
<text text-anchor="start" x="870" y="-277.43" font-family="Helvetica,sans-Serif" font-size="12.00">JKQTBarchartSpecificStyle</text>
<text text-anchor="middle" x="948.5" y="-264.43" font-family="Helvetica,sans-Serif" font-size="12.00">Properties</text>
</a>
</g>
</g>
<!-- Node16&#45;&gt;Node18 -->
<g id="edge20" class="edge">
<title>Node16&#45;&gt;Node18</title>
<path fill="none" stroke="midnightblue" d="M616.75,-303.48C624.95,-302.63 633.11,-301.8 641,-301.03 715.56,-293.7 800.42,-286.3 861.91,-281.1"/>
<polygon fill="midnightblue" stroke="midnightblue" points="616.32,-300.01 606.73,-304.53 617.04,-306.97 616.32,-300.01"/>
</g>
<!-- Node19 -->
<g id="node19" class="node">
<title>Node19</title>
<g id="a_node19"><a xlink:href="class_j_k_q_t_geometric_specific_style_properties.html" target="_top" xlink:title="Support Class for JKQTBasePlotter, which summarizes all properties that define the visual styling of ...">
<polygon fill="none" stroke="black" points="660,-365.03 660,-399.03 844,-399.03 844,-365.03 660,-365.03"/>
<text text-anchor="start" x="668" y="-385.43" font-family="Helvetica,sans-Serif" font-size="12.00">JKQTGeometricSpecificStyle</text>
<text text-anchor="middle" x="752" y="-372.43" font-family="Helvetica,sans-Serif" font-size="12.00">Properties</text>
</a>
</g>
</g>
<!-- Node16&#45;&gt;Node19 -->
<g id="edge22" class="edge">
<title>Node16&#45;&gt;Node19</title>
<path fill="none" stroke="midnightblue" d="M559.26,-328.28C596.69,-338.77 649.27,-353.51 689.9,-364.9"/>
<polygon fill="midnightblue" stroke="midnightblue" points="560.18,-324.9 549.61,-325.57 558.29,-331.64 560.18,-324.9"/>
</g>
<!-- Node17 -->
<g id="node17" class="node">
<title>Node17</title>
<g id="a_node17"><a xlink:href="struct_j_k_q_t_p_color_derivation_mode.html" target="_top" xlink:title="Specifies how a fill&#45;color is derived from a given color.">
<polygon fill="none" stroke="black" points="0,-304.53 0,-325.53 179,-325.53 179,-304.53 0,-304.53"/>
<text text-anchor="middle" x="89.5" y="-311.93" font-family="Helvetica,sans-Serif" font-size="12.00">JKQTPColorDerivationMode</text>
</a>
</g>
</g>
<!-- Node17&#45;&gt;Node16 -->
<g id="edge18" class="edge">
<title>Node17&#45;&gt;Node16</title>
<path fill="none" stroke="#9a32cd" stroke-dasharray="5,2" d="M189.53,-315.03C252.41,-315.03 333.9,-315.03 398.97,-315.03"/>
<polygon fill="#9a32cd" stroke="#9a32cd" points="189.21,-311.53 179.21,-315.03 189.21,-318.53 189.21,-311.53"/>
<text text-anchor="middle" x="289" y="-370.43" font-family="Helvetica,sans-Serif" font-size="12.00"> errorColorDerivationMode</text>
<text text-anchor="middle" x="289" y="-357.43" font-family="Helvetica,sans-Serif" font-size="12.00">errorFillColorDerivationMode</text>
<text text-anchor="middle" x="289" y="-344.43" font-family="Helvetica,sans-Serif" font-size="12.00">fillColorDerivationMode</text>
<text text-anchor="middle" x="289" y="-331.43" font-family="Helvetica,sans-Serif" font-size="12.00">graphColorDerivationMode</text>
<text text-anchor="middle" x="289" y="-318.43" font-family="Helvetica,sans-Serif" font-size="12.00">symbolFillColorDerivationMode</text>
</g>
<!-- Node18&#45;&gt;Node15 -->
<g id="edge19" class="edge">
<title>Node18&#45;&gt;Node15</title>
<path fill="none" stroke="#9a32cd" stroke-dasharray="5,2" d="M1045.11,-263.7C1130.82,-258.24 1258.34,-259.68 1360,-301.03 1369.39,-304.85 1368.8,-310.77 1378,-315.03 1386.27,-318.85 1395.27,-321.95 1404.34,-324.46"/>
<polygon fill="#9a32cd" stroke="#9a32cd" points="1044.87,-260.21 1035.13,-264.38 1045.34,-267.19 1044.87,-260.21"/>
<text text-anchor="middle" x="1148.5" y="-273.43" font-family="Helvetica,sans-Serif" font-size="12.00"> barchartStyle</text>
</g>
<!-- Node19&#45;&gt;Node15 -->
<g id="edge21" class="edge">
<title>Node19&#45;&gt;Node15</title>
<path fill="none" stroke="#9a32cd" stroke-dasharray="5,2" d="M854.37,-377.62C908.07,-375.13 975.14,-371.76 1035,-368.03 1164.3,-359.96 1314.83,-348.11 1401.79,-341.02"/>
<polygon fill="#9a32cd" stroke="#9a32cd" points="853.98,-374.13 844.16,-378.09 854.31,-381.13 853.98,-374.13"/>
<text text-anchor="middle" x="1148.5" y="-370.43" font-family="Helvetica,sans-Serif" font-size="12.00"> geometricStyle</text>
</g>
<!-- Node20 -->
<g id="node20" class="node">
<title>Node20</title>
<g id="a_node20"><a xlink:href="class_j_k_q_t_annotations_specific_style_properties.html" target="_top" xlink:title="Support Class for JKQTBasePlotter, which summarizes all properties that define the visual styling of ...">
<polygon fill="none" stroke="black" points="1053,-414.03 1053,-448.03 1244,-448.03 1244,-414.03 1053,-414.03"/>
<text text-anchor="start" x="1061" y="-434.43" font-family="Helvetica,sans-Serif" font-size="12.00">JKQTAnnotationsSpecificStyle</text>
<text text-anchor="middle" x="1148.5" y="-421.43" font-family="Helvetica,sans-Serif" font-size="12.00">Properties</text>
</a>
</g>
</g>
<!-- Node19&#45;&gt;Node20 -->
<g id="edge24" class="edge">
<title>Node19&#45;&gt;Node20</title>
<path fill="none" stroke="midnightblue" d="M854.33,-395.06C856.92,-395.39 859.47,-395.71 862,-396.03 925.67,-404.02 997.35,-412.81 1052.97,-419.58"/>
<polygon fill="midnightblue" stroke="midnightblue" points="854.65,-391.58 844.29,-393.79 853.77,-398.52 854.65,-391.58"/>
</g>
<!-- Node20&#45;&gt;Node15 -->
<g id="edge23" class="edge">
<title>Node20&#45;&gt;Node15</title>
<path fill="none" stroke="#9a32cd" stroke-dasharray="5,2" d="M1254.16,-420.5C1288.48,-415.24 1326.4,-407.46 1360,-396.03 1397.19,-383.37 1436.8,-359.51 1458.15,-345.68"/>
<polygon fill="#9a32cd" stroke="#9a32cd" points="1253.5,-417.06 1244.11,-421.98 1254.52,-423.98 1253.5,-417.06"/>
<text text-anchor="middle" x="1311" y="-422.43" font-family="Helvetica,sans-Serif" font-size="12.00"> annotationStyle</text>
</g>
<!-- Node21&#45;&gt;Node9 -->
<g id="edge25" class="edge">
<title>Node21&#45;&gt;Node9</title>
<path fill="none" stroke="#9a32cd" stroke-dasharray="5,2" d="M1876.11,-434.48C1924.15,-425.01 1991.58,-411.72 2038.13,-402.55"/>
<polygon fill="#9a32cd" stroke="#9a32cd" points="1875.3,-431.07 1866.17,-436.44 1876.66,-437.94 1875.3,-431.07"/>
<text text-anchor="middle" x="1954.5" y="-432.43" font-family="Helvetica,sans-Serif" font-size="12.00"> mathText</text>
</g>
<!-- Node22 -->
<g id="node22" class="node">
<title>Node22</title>
<g id="a_node22"><a xlink:href="class_j_k_q_t_math_text_node.html" target="_top" xlink:title="subclass representing one node in the syntax tree">
<polygon fill="none" stroke="black" points="2027,-465.53 2027,-486.53 2158,-486.53 2158,-465.53 2027,-465.53"/>
<text text-anchor="middle" x="2092.5" y="-472.93" font-family="Helvetica,sans-Serif" font-size="12.00">JKQTMathTextNode</text>
</a>
</g>
</g>
<!-- Node21&#45;&gt;Node22 -->
<g id="edge28" class="edge">
<title>Node21&#45;&gt;Node22</title>
<path fill="none" stroke="#9a32cd" stroke-dasharray="5,2" d="M1852.07,-460.13C1868.17,-465.97 1887.76,-472.07 1906,-475.03 1945.74,-481.48 1990.89,-481.87 2026.71,-480.58"/>
<polygon fill="#9a32cd" stroke="#9a32cd" points="1853.13,-456.79 1842.54,-456.55 1850.67,-463.34 1853.13,-456.79"/>
<text text-anchor="middle" x="1954.5" y="-484.43" font-family="Helvetica,sans-Serif" font-size="12.00"> parentMathText</text>
</g>
<!-- Node22&#45;&gt;Node21 -->
<g id="edge27" class="edge">
<title>Node22&#45;&gt;Node21</title>
<path fill="none" stroke="#9a32cd" stroke-dasharray="5,2" d="M2018.29,-464.04C2013.12,-463.32 2007.99,-462.64 2003,-462.03 1956.64,-456.37 1903.51,-452 1866.03,-449.27"/>
<polygon fill="#9a32cd" stroke="#9a32cd" points="2017.85,-467.51 2028.25,-465.47 2018.85,-460.58 2017.85,-467.51"/>
<text text-anchor="middle" x="1954.5" y="-465.43" font-family="Helvetica,sans-Serif" font-size="12.00"> parsedNode</text>
</g>
<!-- Node22&#45;&gt;Node22 -->
<g id="edge29" class="edge">
<title>Node22&#45;&gt;Node22</title>
<path fill="none" stroke="#9a32cd" stroke-dasharray="5,2" d="M2066.93,-496.08C2068.61,-501.19 2077.13,-505.03 2092.5,-505.03 2116.49,-505.03 2123.8,-495.68 2114.43,-486.74"/>
<polygon fill="#9a32cd" stroke="#9a32cd" points="2070.21,-497.33 2070.57,-486.74 2063.68,-494.79 2070.21,-497.33"/>
<text text-anchor="middle" x="2092.5" y="-508.43" font-family="Helvetica,sans-Serif" font-size="12.00"> parentNode</text>
</g>
<!-- Node23&#45;&gt;Node9 -->
<g id="edge30" class="edge">
<title>Node23&#45;&gt;Node9</title>
<path fill="none" stroke="#9a32cd" stroke-dasharray="5,2" d="M2374.8,-489.61C2351.18,-482.73 2321.64,-474.48 2295,-468.03 2245.19,-455.97 2229.78,-463.57 2182,-445.03 2153.95,-434.14 2124.6,-414.72 2107.74,-402.65"/>
<polygon fill="#9a32cd" stroke="#9a32cd" points="2373.95,-493 2384.53,-492.46 2375.92,-486.29 2373.95,-493"/>
<text text-anchor="middle" x="2238.5" y="-471.43" font-family="Helvetica,sans-Serif" font-size="12.00"> m_plotsModel</text>
</g>
<!-- Node24 -->
<g id="node24" class="node">
<title>Node24</title>
<g id="a_node24"><a xlink:title=" ">
<polygon fill="none" stroke="black" points="2021,-536.53 2021,-557.53 2164,-557.53 2164,-536.53 2021,-536.53"/>
<text text-anchor="middle" x="2092.5" y="-543.93" font-family="Helvetica,sans-Serif" font-size="12.00">QAbstractTableModel</text>
</a>
</g>
</g>
<!-- Node24&#45;&gt;Node23 -->
<g id="edge31" class="edge">
<title>Node24&#45;&gt;Node23</title>
<path fill="none" stroke="midnightblue" d="M2174.43,-536.11C2230.15,-528.59 2303.18,-518.73 2354.99,-511.74"/>
<polygon fill="midnightblue" stroke="midnightblue" points="2173.68,-532.68 2164.24,-537.48 2174.62,-539.61 2173.68,-532.68"/>
</g>
<!-- Node25 -->
<g id="node25" class="node">
<title>Node25</title>
<g id="a_node25"><a xlink:href="class_j_k_q_t_p_horizontal_axis.html" target="_top" xlink:title="implements a horizontal axis, based on JKQTPCoordinateAxis (for most of documentation: see JKQTPCoord...">
<polygon fill="none" stroke="black" points="2565,-356.53 2565,-377.53 2702,-377.53 2702,-356.53 2565,-356.53"/>
<text text-anchor="middle" x="2633.5" y="-363.93" font-family="Helvetica,sans-Serif" font-size="12.00">JKQTPHorizontalAxis</text>
</a>
</g>
</g>
<!-- Node25&#45;&gt;Node9 -->
<g id="edge33" class="edge">
<title>Node25&#45;&gt;Node9</title>
<path fill="none" stroke="#9a32cd" stroke-dasharray="5,2" d="M2554.66,-370.64C2444.67,-375.74 2246.4,-384.94 2149.66,-389.42"/>
<polygon fill="#9a32cd" stroke="#9a32cd" points="2554.88,-374.13 2564.7,-370.17 2554.55,-367.14 2554.88,-374.13"/>
<text text-anchor="middle" x="2420.5" y="-385.43" font-family="Helvetica,sans-Serif" font-size="12.00"> xAxis</text>
</g>
<!-- Node26&#45;&gt;Node25 -->
<g id="edge34" class="edge">
<title>Node26&#45;&gt;Node25</title>
<path fill="none" stroke="midnightblue" d="M2501.81,-349.07C2522.55,-351.92 2544.67,-354.96 2564.7,-357.71"/>
<polygon fill="midnightblue" stroke="midnightblue" points="2502.14,-345.58 2491.76,-347.69 2501.19,-352.52 2502.14,-345.58"/>
</g>
<!-- Node27 -->
<g id="node27" class="node">
<title>Node27</title>
<g id="a_node27"><a xlink:href="class_j_k_q_t_p_vertical_axis.html" target="_top" xlink:title="implements a vertical axis, based on JKQTPCoordinateAxis (for most of documentation: see JKQTPCoordin...">
<polygon fill="none" stroke="black" points="2572.5,-411.53 2572.5,-432.53 2694.5,-432.53 2694.5,-411.53 2572.5,-411.53"/>
<text text-anchor="middle" x="2633.5" y="-418.93" font-family="Helvetica,sans-Serif" font-size="12.00">JKQTPVerticalAxis</text>
</a>
</g>
</g>
<!-- Node26&#45;&gt;Node27 -->
<g id="edge39" class="edge">
<title>Node26&#45;&gt;Node27</title>
<path fill="none" stroke="midnightblue" d="M2492.68,-351.13C2504.7,-354.36 2516.88,-358.29 2528,-363.03 2546.03,-370.72 2548.06,-377.17 2565,-387.03 2580.06,-395.79 2597.54,-404.82 2610.93,-411.52"/>
<polygon fill="midnightblue" stroke="midnightblue" points="2493.2,-347.65 2482.64,-348.58 2491.47,-354.43 2493.2,-347.65"/>
</g>
<!-- Node27&#45;&gt;Node9 -->
<g id="edge38" class="edge">
<title>Node27&#45;&gt;Node9</title>
<path fill="none" stroke="#9a32cd" stroke-dasharray="5,2" d="M2562.13,-419.49C2473.43,-416.09 2316.31,-409.38 2182,-400.03 2171.53,-399.3 2160.38,-398.4 2149.65,-397.46"/>
<polygon fill="#9a32cd" stroke="#9a32cd" points="2562.21,-423 2572.34,-419.88 2562.48,-416 2562.21,-423"/>
<text text-anchor="middle" x="2420.5" y="-422.43" font-family="Helvetica,sans-Serif" font-size="12.00"> yAxis</text>
</g>
<!-- Node28 -->
<g id="node28" class="node">
<title>Node28</title>
<g id="a_node28"><a xlink:href="class_j_k_q_t_p_datastore.html" target="_top" xlink:title="This class manages data columns (with entries of type double ), used by JKQTPlotter/JKQTBasePlotter t...">
<polygon fill="none" stroke="black" points="1761,-25.53 1761,-46.53 1872,-46.53 1872,-25.53 1761,-25.53"/>
<text text-anchor="middle" x="1816.5" y="-32.93" font-family="Helvetica,sans-Serif" font-size="12.00">JKQTPDatastore</text>
</a>
</g>
</g>
<!-- Node28&#45;&gt;Node9 -->
<g id="edge40" class="edge">
<title>Node28&#45;&gt;Node9</title>
<path fill="none" stroke="#9a32cd" stroke-dasharray="5,2" d="M1881.4,-51.4C1883.71,-52.81 1885.92,-54.35 1888,-56.03 1901.29,-66.78 1897.52,-75.18 1906,-90.03 1972.37,-206.25 2059.86,-342.98 2084.68,-381.48"/>
<polygon fill="#9a32cd" stroke="#9a32cd" points="1882.58,-48.07 1872.09,-46.58 1879.36,-54.28 1882.58,-48.07"/>
<text text-anchor="middle" x="1954.5" y="-251.43" font-family="Helvetica,sans-Serif" font-size="12.00"> datastore</text>
</g>
<!-- Node30 -->
<g id="node30" class="node">
<title>Node30</title>
<g id="a_node30"><a xlink:href="class_j_k_q_t_p_column.html" target="_top" xlink:title="internally stores information about one data column. See JKQTPDatastore for more information.">
<polygon fill="none" stroke="black" points="2043.5,-25.53 2043.5,-46.53 2141.5,-46.53 2141.5,-25.53 2043.5,-25.53"/>
<text text-anchor="middle" x="2092.5" y="-32.93" font-family="Helvetica,sans-Serif" font-size="12.00">JKQTPColumn</text>
</a>
</g>
</g>
<!-- Node28&#45;&gt;Node30 -->
<g id="edge43" class="edge">
<title>Node28&#45;&gt;Node30</title>
<path fill="none" stroke="#9a32cd" stroke-dasharray="5,2" d="M1882.54,-36.03C1931.87,-36.03 1998.58,-36.03 2043.22,-36.03"/>
<polygon fill="#9a32cd" stroke="#9a32cd" points="1882.29,-32.53 1872.29,-36.03 1882.29,-39.53 1882.29,-32.53"/>
<text text-anchor="middle" x="1954.5" y="-39.43" font-family="Helvetica,sans-Serif" font-size="12.00"> datastore</text>
</g>
<!-- Node29 -->
<g id="node29" class="node">
<title>Node29</title>
<g id="a_node29"><a xlink:title=" ">
<polygon fill="none" stroke="black" points="2313,-25.53 2313,-46.53 2528,-46.53 2528,-25.53 2313,-25.53"/>
<text text-anchor="middle" x="2420.5" y="-32.93" font-family="Helvetica,sans-Serif" font-size="12.00">std::unique_ptr&lt; JKQTPColumn &gt;</text>
</a>
</g>
</g>
<!-- Node29&#45;&gt;Node28 -->
<g id="edge41" class="edge">
<title>Node29&#45;&gt;Node28</title>
<path fill="none" stroke="#9a32cd" stroke-dasharray="5,2" d="M2352.44,-23.79C2273.25,-10.89 2137.55,6.36 2021,-3.03 1968.56,-7.25 1909.24,-17.51 1868.24,-25.47"/>
<polygon fill="#9a32cd" stroke="#9a32cd" points="2352.32,-27.32 2362.75,-25.5 2353.46,-20.41 2352.32,-27.32"/>
<text text-anchor="middle" x="2092.5" y="-6.43" font-family="Helvetica,sans-Serif" font-size="12.00"> m_invalidColumn</text>
</g>
<!-- Node30&#45;&gt;Node29 -->
<g id="edge42" class="edge">
<title>Node30&#45;&gt;Node29</title>
<path fill="none" stroke="#9a32cd" stroke-dasharray="5,2" d="M2151.69,-36.03C2196.35,-36.03 2259.24,-36.03 2312.85,-36.03"/>
<polygon fill="#9a32cd" stroke="#9a32cd" points="2151.6,-32.53 2141.6,-36.03 2151.6,-39.53 2151.6,-32.53"/>
<text text-anchor="middle" x="2238.5" y="-39.43" font-family="Helvetica,sans-Serif" font-size="12.00"> ptr</text>
</g>
<!-- Node31 -->
<g id="node31" class="node">
<title>Node31</title>
<g id="a_node31"><a xlink:title=" ">
<polygon fill="none" stroke="black" points="2022.5,-65.53 2022.5,-86.53 2162.5,-86.53 2162.5,-65.53 2022.5,-65.53"/>
<text text-anchor="middle" x="2092.5" y="-72.93" font-family="Helvetica,sans-Serif" font-size="12.00">std::unique_ptr&lt; T &gt;</text>
</a>
</g>
</g>
<!-- Node31&#45;&gt;Node29 -->
<g id="edge44" class="edge">
<title>Node31&#45;&gt;Node29</title>
<path fill="none" stroke="orange" stroke-dasharray="5,2" d="M2172.79,-66.76C2209.91,-62.37 2254.73,-57.01 2295,-52.03 2309.06,-50.29 2324,-48.4 2338.48,-46.55"/>
<polygon fill="orange" stroke="orange" points="2172.05,-63.32 2162.53,-67.97 2172.87,-70.27 2172.05,-63.32"/>
<text text-anchor="middle" x="2238.5" y="-69.43" font-family="Helvetica,sans-Serif" font-size="12.00"> &lt; JKQTPColumn &gt;</text>
</g>
<!-- Node32 -->
<g id="node32" class="node">
<title>Node32</title>
<g id="a_node32"><a xlink:title=" ">
<polygon fill="none" stroke="black" points="1802,-65.53 1802,-86.53 1831,-86.53 1831,-65.53 1802,-65.53"/>
<text text-anchor="middle" x="1816.5" y="-72.93" font-family="Helvetica,sans-Serif" font-size="12.00">T</text>
</a>
</g>
</g>
<!-- Node32&#45;&gt;Node31 -->
<g id="edge45" class="edge">
<title>Node32&#45;&gt;Node31</title>
<path fill="none" stroke="#9a32cd" stroke-dasharray="5,2" d="M1841.17,-76.03C1881.06,-76.03 1963.14,-76.03 2022.46,-76.03"/>
<polygon fill="#9a32cd" stroke="#9a32cd" points="1841.09,-72.53 1831.09,-76.03 1841.09,-79.53 1841.09,-72.53"/>
<text text-anchor="middle" x="1954.5" y="-79.43" font-family="Helvetica,sans-Serif" font-size="12.00"> ptr</text>
</g>
<!-- Node33 -->
<g id="node33" class="node">
<title>Node33</title>
<g id="a_node33"><a xlink:href="class_j_k_q_t_p_graph_line_and_fill_style_mixin.html" target="_top" xlink:title="This Mix&#45;In class provides setter/getter methods, storage and other facilities for the graph line and...">
<polygon fill="none" stroke="black" points="2950,-465.03 2950,-499.03 3132,-499.03 3132,-465.03 2950,-465.03"/>
<text text-anchor="start" x="2958" y="-485.43" font-family="Helvetica,sans-Serif" font-size="12.00">JKQTPGraphLineAndFillStyle</text>
<text text-anchor="middle" x="3041" y="-472.43" font-family="Helvetica,sans-Serif" font-size="12.00">Mixin</text>
</a>
</g>
</g>
<!-- Node33&#45;&gt;Node3 -->
<g id="edge47" class="edge">
<title>Node33&#45;&gt;Node3</title>
<path fill="none" stroke="midnightblue" d="M3113.44,-501.76C3131.53,-506.59 3150.94,-511.63 3169,-516.03 3182.2,-519.25 3196.54,-522.5 3209.84,-525.43"/>
<polygon fill="midnightblue" stroke="midnightblue" points="3114.11,-498.32 3103.55,-499.11 3112.3,-505.08 3114.11,-498.32"/>
</g>
<!-- Node34 -->
<g id="node34" class="node">
<title>Node34</title>
<g id="a_node34"><a xlink:href="class_j_k_q_t_p_graph_fill_style_mixin.html" target="_top" xlink:title="This Mix&#45;In class provides setter/getter methods, storage and other facilities for the graph filling ...">
<polygon fill="none" stroke="black" points="2744,-518.53 2744,-539.53 2908,-539.53 2908,-518.53 2744,-518.53"/>
<text text-anchor="middle" x="2826" y="-525.93" font-family="Helvetica,sans-Serif" font-size="12.00">JKQTPGraphFillStyleMixin</text>
</a>
</g>
</g>
<!-- Node34&#45;&gt;Node3 -->
<g id="edge50" class="edge">
<title>Node34&#45;&gt;Node3</title>
<path fill="none" stroke="#9a32cd" stroke-dasharray="5,2" d="M2918.38,-530.51C2992.03,-531.7 3095.08,-533.36 3168.7,-534.55"/>
<polygon fill="#9a32cd" stroke="#9a32cd" points="2918.25,-527 2908.19,-530.34 2918.13,-534 2918.25,-527"/>
<text text-anchor="middle" x="3041" y="-536.43" font-family="Helvetica,sans-Serif" font-size="12.00"> m_fillStyleBelow</text>
</g>
<!-- Node34&#45;&gt;Node33 -->
<g id="edge48" class="edge">
<title>Node34&#45;&gt;Node33</title>
<path fill="none" stroke="midnightblue" d="M2884.8,-516.27C2908.78,-510.98 2936.96,-504.77 2962.68,-499.09"/>
<polygon fill="midnightblue" stroke="midnightblue" points="2883.81,-512.91 2874.8,-518.48 2885.32,-519.74 2883.81,-512.91"/>
</g>
<!-- Node35 -->
<g id="node35" class="node">
<title>Node35</title>
<g id="a_node35"><a xlink:href="class_j_k_q_t_p_graph_line_style_mixin.html" target="_top" xlink:title="This Mix&#45;In class provides setter/getter methods, storage and other facilities for the graph line sty...">
<polygon fill="none" stroke="black" points="2739,-471.53 2739,-492.53 2913,-492.53 2913,-471.53 2739,-471.53"/>
<text text-anchor="middle" x="2826" y="-478.93" font-family="Helvetica,sans-Serif" font-size="12.00">JKQTPGraphLineStyleMixin</text>
</a>
</g>
</g>
<!-- Node35&#45;&gt;Node33 -->
<g id="edge49" class="edge">
<title>Node35&#45;&gt;Node33</title>
<path fill="none" stroke="midnightblue" d="M2923.04,-482.03C2931.95,-482.03 2940.97,-482.03 2949.83,-482.03"/>
<polygon fill="midnightblue" stroke="midnightblue" points="2923.02,-478.53 2913.02,-482.03 2923.02,-485.53 2923.02,-478.53"/>
</g>
<!-- Node36 -->
<g id="node36" class="node">
<title>Node36</title>
<g id="a_node36"><a xlink:href="class_j_k_q_t_p_x_graph_errors.html" target="_top" xlink:title="This class is the base class for graphs that only display error indicators in x&#45;direction.">
<polygon fill="none" stroke="black" points="3404.5,-485.53 3404.5,-506.53 3537.5,-506.53 3537.5,-485.53 3404.5,-485.53"/>
<text text-anchor="middle" x="3471" y="-492.93" font-family="Helvetica,sans-Serif" font-size="12.00">JKQTPXGraphErrors</text>
</a>
</g>
</g>
<!-- Node36&#45;&gt;Node1 -->
<g id="edge51" class="edge">
<title>Node36&#45;&gt;Node1</title>
<path fill="none" stroke="midnightblue" d="M3547.75,-502.83C3561.02,-504.03 3574.96,-505.28 3588.67,-506.51"/>
<polygon fill="midnightblue" stroke="midnightblue" points="3548.03,-499.35 3537.76,-501.94 3547.41,-506.32 3548.03,-499.35"/>
</g>
<!-- Node37 -->
<g id="node37" class="node">
<title>Node37</title>
<g id="a_node37"><a xlink:href="class_j_k_q_t_p_x_graph_error_data.html" target="_top" xlink:title="This class adds data fields for error indicators in x direction.">
<polygon fill="none" stroke="black" points="3183.5,-445.53 3183.5,-466.53 3338.5,-466.53 3338.5,-445.53 3183.5,-445.53"/>
<text text-anchor="middle" x="3261" y="-452.93" font-family="Helvetica,sans-Serif" font-size="12.00">JKQTPXGraphErrorData</text>
</a>
</g>
</g>
<!-- Node37&#45;&gt;Node36 -->
<g id="edge52" class="edge">
<title>Node37&#45;&gt;Node36</title>
<path fill="none" stroke="midnightblue" d="M3326.51,-468.44C3354.99,-473.91 3388.11,-480.28 3415.35,-485.52"/>
<polygon fill="midnightblue" stroke="midnightblue" points="3327.13,-464.99 3316.65,-466.54 3325.81,-471.86 3327.13,-464.99"/>
</g>
<!-- Node38 -->
<g id="node38" class="node">
<title>Node38</title>
<g id="a_node38"><a xlink:href="class_j_k_q_t_p_graph_error_style_mixin.html" target="_top" xlink:title="This mix&#45;in class assembles all styling properties applicable to error indicators.">
<polygon fill="none" stroke="black" points="3171.5,-485.53 3171.5,-506.53 3350.5,-506.53 3350.5,-485.53 3171.5,-485.53"/>
<text text-anchor="middle" x="3261" y="-492.93" font-family="Helvetica,sans-Serif" font-size="12.00">JKQTPGraphErrorStyleMixin</text>
</a>
</g>
</g>
<!-- Node38&#45;&gt;Node36 -->
<g id="edge53" class="edge">
<title>Node38&#45;&gt;Node36</title>
<path fill="none" stroke="midnightblue" d="M3360.7,-496.03C3375.48,-496.03 3390.39,-496.03 3404.25,-496.03"/>
<polygon fill="midnightblue" stroke="midnightblue" points="3360.51,-492.53 3350.51,-496.03 3360.51,-499.53 3360.51,-492.53"/>
</g>
</g>
</svg>
