<?xml version="1.0" encoding="UTF-8" standalone="no"?>
<!DOCTYPE svg PUBLIC "-//W3C//DTD SVG 1.1//EN"
 "http://www.w3.org/Graphics/SVG/1.1/DTD/svg11.dtd">
<!-- Generated by graphviz version 2.43.0 (0)
 -->
<!-- Title: JKQTMathTextModifiedTextPropsInstructionNode Pages: 1 -->
<svg width="210pt" height="213pt"
 viewBox="0.00 0.00 210.00 213.00" xmlns="http://www.w3.org/2000/svg" xmlns:xlink="http://www.w3.org/1999/xlink">
<g id="graph0" class="graph" transform="scale(1 1) rotate(0) translate(4 209)">
<title>JKQTMathTextModifiedTextPropsInstructionNode</title>
<!-- Node1 -->
<g id="node1" class="node">
<title>Node1</title>
<g id="a_node1"><a xlink:title="subclass representing an instruction node which modifies the current font (as defined in JKQTMathText...">
<polygon fill="#999999" stroke="#666666" points="188,-34 14,-34 14,0 188,0 188,-34"/>
<text text-anchor="start" x="22" y="-20.4" font-family="Helvetica,sans-Serif" font-size="12.00">JKQTMathTextModifiedText</text>
<text text-anchor="middle" x="101" y="-7.4" font-family="Helvetica,sans-Serif" font-size="12.00">PropsInstructionNode</text>
</a>
</g>
</g>
<!-- Node2 -->
<g id="node2" class="node">
<title>Node2</title>
<g id="a_node2"><a xlink:href="class_j_k_q_t_math_text_instruction1_node.html" target="_top" xlink:title="subclass representing an instruction node with exactly one argument and possibly additional parameter...">
<polygon fill="white" stroke="#666666" points="202,-91 0,-91 0,-70 202,-70 202,-91"/>
<text text-anchor="middle" x="101" y="-77.4" font-family="Helvetica,sans-Serif" font-size="12.00">JKQTMathTextInstruction1Node</text>
</a>
</g>
</g>
<!-- Node2&#45;&gt;Node1 -->
<g id="edge1" class="edge">
<title>Node2&#45;&gt;Node1</title>
<path fill="none" stroke="#63b8ff" d="M101,-59.77C101,-51.61 101,-42.26 101,-34.48"/>
<polygon fill="#63b8ff" stroke="#63b8ff" points="97.5,-59.89 101,-69.89 104.5,-59.89 97.5,-59.89"/>
</g>
<!-- Node3 -->
<g id="node3" class="node">
<title>Node3</title>
<g id="a_node3"><a xlink:href="class_j_k_q_t_math_text_single_child_node.html" target="_top" xlink:title="subclass representing a node in the syntax tree, that has one child">
<polygon fill="white" stroke="#666666" points="199,-148 3,-148 3,-127 199,-127 199,-148"/>
<text text-anchor="middle" x="101" y="-134.4" font-family="Helvetica,sans-Serif" font-size="12.00">JKQTMathTextSingleChildNode</text>
</a>
</g>
</g>
<!-- Node3&#45;&gt;Node2 -->
<g id="edge2" class="edge">
<title>Node3&#45;&gt;Node2</title>
<path fill="none" stroke="#63b8ff" d="M101,-116.86C101,-108.2 101,-98.42 101,-91.34"/>
<polygon fill="#63b8ff" stroke="#63b8ff" points="97.5,-116.92 101,-126.92 104.5,-116.92 97.5,-116.92"/>
</g>
<!-- Node4 -->
<g id="node4" class="node">
<title>Node4</title>
<g id="a_node4"><a xlink:href="class_j_k_q_t_math_text_node.html" target="_top" xlink:title="subclass representing one node in the syntax tree">
<polygon fill="white" stroke="#666666" points="166.5,-205 35.5,-205 35.5,-184 166.5,-184 166.5,-205"/>
<text text-anchor="middle" x="101" y="-191.4" font-family="Helvetica,sans-Serif" font-size="12.00">JKQTMathTextNode</text>
</a>
</g>
</g>
<!-- Node4&#45;&gt;Node3 -->
<g id="edge3" class="edge">
<title>Node4&#45;&gt;Node3</title>
<path fill="none" stroke="#63b8ff" d="M101,-173.86C101,-165.2 101,-155.42 101,-148.34"/>
<polygon fill="#63b8ff" stroke="#63b8ff" points="97.5,-173.92 101,-183.92 104.5,-173.92 97.5,-173.92"/>
</g>
</g>
</svg>
