<?xml version="1.0" encoding="UTF-8" standalone="no"?>
<!DOCTYPE svg PUBLIC "-//W3C//DTD SVG 1.1//EN"
 "http://www.w3.org/Graphics/SVG/1.1/DTD/svg11.dtd">
<!-- Generated by graphviz version 2.43.0 (0)
 -->
<!-- Title: JKQTMathTextBoxInstructionNode Pages: 1 -->
<svg width="438pt" height="219pt"
 viewBox="0.00 0.00 437.50 219.00" xmlns="http://www.w3.org/2000/svg" xmlns:xlink="http://www.w3.org/1999/xlink">
<g id="graph0" class="graph" transform="scale(1 1) rotate(0) translate(4 215)">
<title>JKQTMathTextBoxInstructionNode</title>
<!-- Node1 -->
<g id="node1" class="node">
<title>Node1</title>
<g id="a_node1"><a xlink:title="subclass representing an instruction node which draws a (possibly colored) box around it&#39;s contents i...">
<polygon fill="#bfbfbf" stroke="black" points="0,-0.5 0,-21.5 216,-21.5 216,-0.5 0,-0.5"/>
<text text-anchor="middle" x="108" y="-7.9" font-family="Helvetica,sans-Serif" font-size="12.00">JKQTMathTextBoxInstructionNode</text>
</a>
</g>
</g>
<!-- Node2 -->
<g id="node2" class="node">
<title>Node2</title>
<g id="a_node2"><a xlink:href="class_j_k_q_t_math_text_instruction1_node.html" target="_top" xlink:title="subclass representing an instruction node with exactly one argument and possibly additional parameter...">
<polygon fill="none" stroke="black" points="7,-59.5 7,-80.5 209,-80.5 209,-59.5 7,-59.5"/>
<text text-anchor="middle" x="108" y="-66.9" font-family="Helvetica,sans-Serif" font-size="12.00">JKQTMathTextInstruction1Node</text>
</a>
</g>
</g>
<!-- Node2&#45;&gt;Node1 -->
<g id="edge1" class="edge">
<title>Node2&#45;&gt;Node1</title>
<path fill="none" stroke="midnightblue" d="M108,-49.23C108,-39.85 108,-29.07 108,-21.53"/>
<polygon fill="midnightblue" stroke="midnightblue" points="104.5,-49.33 108,-59.33 111.5,-49.33 104.5,-49.33"/>
</g>
<!-- Node3 -->
<g id="node3" class="node">
<title>Node3</title>
<g id="a_node3"><a xlink:href="class_j_k_q_t_math_text_single_child_node.html" target="_top" xlink:title="subclass representing a node in the syntax tree, that has one child">
<polygon fill="none" stroke="black" points="10,-118.5 10,-139.5 206,-139.5 206,-118.5 10,-118.5"/>
<text text-anchor="middle" x="108" y="-125.9" font-family="Helvetica,sans-Serif" font-size="12.00">JKQTMathTextSingleChildNode</text>
</a>
</g>
</g>
<!-- Node3&#45;&gt;Node2 -->
<g id="edge2" class="edge">
<title>Node3&#45;&gt;Node2</title>
<path fill="none" stroke="midnightblue" d="M108,-108.23C108,-98.85 108,-88.07 108,-80.53"/>
<polygon fill="midnightblue" stroke="midnightblue" points="104.5,-108.33 108,-118.33 111.5,-108.33 104.5,-108.33"/>
</g>
<!-- Node4 -->
<g id="node4" class="node">
<title>Node4</title>
<g id="a_node4"><a xlink:href="class_j_k_q_t_math_text_node.html" target="_top" xlink:title="subclass representing one node in the syntax tree">
<polygon fill="none" stroke="black" points="92.5,-189.5 92.5,-210.5 223.5,-210.5 223.5,-189.5 92.5,-189.5"/>
<text text-anchor="middle" x="158" y="-196.9" font-family="Helvetica,sans-Serif" font-size="12.00">JKQTMathTextNode</text>
</a>
</g>
</g>
<!-- Node4&#45;&gt;Node3 -->
<g id="edge3" class="edge">
<title>Node4&#45;&gt;Node3</title>
<path fill="none" stroke="midnightblue" d="M123.75,-184.11C118.74,-180.52 114.2,-176.18 111,-171 105.15,-161.53 105.32,-148.37 106.34,-139.54"/>
<polygon fill="midnightblue" stroke="midnightblue" points="122.12,-187.22 132.47,-189.48 125.79,-181.26 122.12,-187.22"/>
</g>
<!-- Node4&#45;&gt;Node3 -->
<g id="edge8" class="edge">
<title>Node4&#45;&gt;Node3</title>
<path fill="none" stroke="#9a32cd" stroke-dasharray="5,2" d="M140.49,-182.22C137.17,-178.66 133.84,-174.82 131,-171 123.5,-160.91 116.7,-148.12 112.47,-139.54"/>
<polygon fill="#9a32cd" stroke="#9a32cd" points="138.09,-184.77 147.59,-189.45 143.08,-179.86 138.09,-184.77"/>
<text text-anchor="middle" x="147" y="-161.4" font-family="Helvetica,sans-Serif" font-size="12.00"> child</text>
</g>
<!-- Node4&#45;&gt;Node4 -->
<g id="edge7" class="edge">
<title>Node4&#45;&gt;Node4</title>
<path fill="none" stroke="#9a32cd" stroke-dasharray="5,2" d="M234.02,-204.44C238.69,-203.39 241.5,-201.91 241.5,-200 241.5,-196.95 234.31,-194.99 223.81,-194.13"/>
<polygon fill="#9a32cd" stroke="#9a32cd" points="233.23,-201.02 223.81,-205.87 234.2,-207.95 233.23,-201.02"/>
<text text-anchor="middle" x="279" y="-196.9" font-family="Helvetica,sans-Serif" font-size="12.00"> parentNode</text>
</g>
<!-- Node5 -->
<g id="node5" class="node">
<title>Node5</title>
<g id="a_node5"><a xlink:href="class_j_k_q_t_math_text.html" target="_top" xlink:title="this class parses a LaTeX string and can then draw the contained text/equation onto a QPainter">
<polygon fill="none" stroke="black" points="235.5,-118.5 235.5,-139.5 334.5,-139.5 334.5,-118.5 235.5,-118.5"/>
<text text-anchor="middle" x="285" y="-125.9" font-family="Helvetica,sans-Serif" font-size="12.00">JKQTMathText</text>
</a>
</g>
</g>
<!-- Node4&#45;&gt;Node5 -->
<g id="edge6" class="edge">
<title>Node4&#45;&gt;Node5</title>
<path fill="none" stroke="#9a32cd" stroke-dasharray="5,2" d="M165.22,-180.11C169.1,-172.24 174.63,-163.64 182,-158 197.3,-146.29 217.17,-139.47 235.37,-135.5"/>
<polygon fill="#9a32cd" stroke="#9a32cd" points="161.96,-178.85 161.17,-189.41 168.37,-181.64 161.96,-178.85"/>
<text text-anchor="middle" x="220.5" y="-161.4" font-family="Helvetica,sans-Serif" font-size="12.00"> parsedNode</text>
</g>
<!-- Node5&#45;&gt;Node4 -->
<g id="edge4" class="edge">
<title>Node5&#45;&gt;Node4</title>
<path fill="none" stroke="#9a32cd" stroke-dasharray="5,2" d="M278.61,-149.15C275.12,-156.95 270.05,-165.42 263,-171 251.61,-180.01 237.57,-186.14 223.51,-190.3"/>
<polygon fill="#9a32cd" stroke="#9a32cd" points="281.97,-150.18 282.31,-139.59 275.44,-147.65 281.97,-150.18"/>
<text text-anchor="middle" x="322.5" y="-161.4" font-family="Helvetica,sans-Serif" font-size="12.00"> parentMathText</text>
</g>
<!-- Node6 -->
<g id="node6" class="node">
<title>Node6</title>
<g id="a_node6"><a xlink:title=" ">
<polygon fill="none" stroke="black" points="364.5,-189.5 364.5,-210.5 429.5,-210.5 429.5,-189.5 364.5,-189.5"/>
<text text-anchor="middle" x="397" y="-196.9" font-family="Helvetica,sans-Serif" font-size="12.00">QObject</text>
</a>
</g>
</g>
<!-- Node6&#45;&gt;Node5 -->
<g id="edge5" class="edge">
<title>Node6&#45;&gt;Node5</title>
<path fill="none" stroke="midnightblue" d="M394.24,-179.22C392.26,-171.68 388.85,-163.56 383,-158 369.92,-145.57 351.7,-138.59 334.52,-134.71"/>
<polygon fill="midnightblue" stroke="midnightblue" points="390.84,-180.04 396.2,-189.17 397.71,-178.69 390.84,-180.04"/>
</g>
</g>
</svg>
