<?xml version="1.0" encoding="UTF-8" standalone="no"?>
<!DOCTYPE svg PUBLIC "-//W3C//DTD SVG 1.1//EN"
 "http://www.w3.org/Graphics/SVG/1.1/DTD/svg11.dtd">
<!-- Generated by graphviz version 2.43.0 (0)
 -->
<!-- Title: JKQTMathTextNoopNode Pages: 1 -->
<svg width="440pt" height="160pt"
 viewBox="0.00 0.00 440.00 160.00" xmlns="http://www.w3.org/2000/svg" xmlns:xlink="http://www.w3.org/1999/xlink">
<g id="graph0" class="graph" transform="scale(1 1) rotate(0) translate(4 156)">
<title>JKQTMathTextNoopNode</title>
<!-- Node1 -->
<g id="node1" class="node">
<title>Node1</title>
<g id="a_node1"><a xlink:title="subclass representing a node that outputs nothing">
<polygon fill="#bfbfbf" stroke="black" points="35.5,-0.5 35.5,-21.5 197.5,-21.5 197.5,-0.5 35.5,-0.5"/>
<text text-anchor="middle" x="116.5" y="-7.9" font-family="Helvetica,sans-Serif" font-size="12.00">JKQTMathTextNoopNode</text>
</a>
</g>
</g>
<!-- Node2 -->
<g id="node2" class="node">
<title>Node2</title>
<g id="a_node2"><a xlink:href="class_j_k_q_t_math_text_non_drawing_base_node.html" target="_top" xlink:title="base class for all derived classes that do not draw anything">
<polygon fill="none" stroke="black" points="0,-59.5 0,-80.5 233,-80.5 233,-59.5 0,-59.5"/>
<text text-anchor="middle" x="116.5" y="-66.9" font-family="Helvetica,sans-Serif" font-size="12.00">JKQTMathTextNonDrawingBaseNode</text>
</a>
</g>
</g>
<!-- Node2&#45;&gt;Node1 -->
<g id="edge1" class="edge">
<title>Node2&#45;&gt;Node1</title>
<path fill="none" stroke="midnightblue" d="M116.5,-49.23C116.5,-39.85 116.5,-29.07 116.5,-21.53"/>
<polygon fill="midnightblue" stroke="midnightblue" points="113,-49.33 116.5,-59.33 120,-49.33 113,-49.33"/>
</g>
<!-- Node3 -->
<g id="node3" class="node">
<title>Node3</title>
<g id="a_node3"><a xlink:href="class_j_k_q_t_math_text_node.html" target="_top" xlink:title="subclass representing one node in the syntax tree">
<polygon fill="none" stroke="black" points="122,-130.5 122,-151.5 253,-151.5 253,-130.5 122,-130.5"/>
<text text-anchor="middle" x="187.5" y="-137.9" font-family="Helvetica,sans-Serif" font-size="12.00">JKQTMathTextNode</text>
</a>
</g>
</g>
<!-- Node3&#45;&gt;Node2 -->
<g id="edge2" class="edge">
<title>Node3&#45;&gt;Node2</title>
<path fill="none" stroke="midnightblue" d="M170.18,-123.17C156.39,-109.77 137.59,-91.5 126.29,-80.51"/>
<polygon fill="midnightblue" stroke="midnightblue" points="168.02,-125.95 177.63,-130.41 172.9,-120.93 168.02,-125.95"/>
</g>
<!-- Node3&#45;&gt;Node3 -->
<g id="edge6" class="edge">
<title>Node3&#45;&gt;Node3</title>
<path fill="none" stroke="#9a32cd" stroke-dasharray="5,2" d="M263.52,-145.44C268.19,-144.39 271,-142.91 271,-141 271,-137.95 263.81,-135.99 253.31,-135.13"/>
<polygon fill="#9a32cd" stroke="#9a32cd" points="262.73,-142.02 253.31,-146.87 263.7,-148.95 262.73,-142.02"/>
<text text-anchor="middle" x="308.5" y="-137.9" font-family="Helvetica,sans-Serif" font-size="12.00"> parentNode</text>
</g>
<!-- Node4 -->
<g id="node4" class="node">
<title>Node4</title>
<g id="a_node4"><a xlink:href="class_j_k_q_t_math_text.html" target="_top" xlink:title="this class parses a LaTeX string and can then draw the contained text/equation onto a QPainter">
<polygon fill="none" stroke="black" points="251,-59.5 251,-80.5 350,-80.5 350,-59.5 251,-59.5"/>
<text text-anchor="middle" x="300.5" y="-66.9" font-family="Helvetica,sans-Serif" font-size="12.00">JKQTMathText</text>
</a>
</g>
</g>
<!-- Node3&#45;&gt;Node4 -->
<g id="edge5" class="edge">
<title>Node3&#45;&gt;Node4</title>
<path fill="none" stroke="#9a32cd" stroke-dasharray="5,2" d="M180.85,-120.68C179.52,-113.21 179.76,-105.02 184.5,-99 188.86,-93.47 221.32,-85.91 250.8,-80.04"/>
<polygon fill="#9a32cd" stroke="#9a32cd" points="177.5,-121.71 183.45,-130.47 184.26,-119.91 177.5,-121.71"/>
<text text-anchor="middle" x="223" y="-102.4" font-family="Helvetica,sans-Serif" font-size="12.00"> parsedNode</text>
</g>
<!-- Node4&#45;&gt;Node3 -->
<g id="edge3" class="edge">
<title>Node4&#45;&gt;Node3</title>
<path fill="none" stroke="#9a32cd" stroke-dasharray="5,2" d="M288.37,-89.09C282.29,-97.02 274.34,-105.89 265.5,-112 253.78,-120.09 239.46,-126.12 226.3,-130.46"/>
<polygon fill="#9a32cd" stroke="#9a32cd" points="291.39,-90.89 294.39,-80.73 285.7,-86.8 291.39,-90.89"/>
<text text-anchor="middle" x="328" y="-102.4" font-family="Helvetica,sans-Serif" font-size="12.00"> parentMathText</text>
</g>
<!-- Node5 -->
<g id="node5" class="node">
<title>Node5</title>
<g id="a_node5"><a xlink:title=" ">
<polygon fill="none" stroke="black" points="367,-130.5 367,-151.5 432,-151.5 432,-130.5 367,-130.5"/>
<text text-anchor="middle" x="399.5" y="-137.9" font-family="Helvetica,sans-Serif" font-size="12.00">QObject</text>
</a>
</g>
</g>
<!-- Node5&#45;&gt;Node4 -->
<g id="edge4" class="edge">
<title>Node5&#45;&gt;Node4</title>
<path fill="none" stroke="midnightblue" d="M396.63,-120.33C394.63,-112.81 391.24,-104.68 385.5,-99 375.89,-89.49 363,-83.22 350.16,-79.07"/>
<polygon fill="midnightblue" stroke="midnightblue" points="393.22,-121.14 398.63,-130.25 400.08,-119.75 393.22,-121.14"/>
</g>
</g>
</svg>
