<?xml version="1.0" encoding="UTF-8" standalone="no"?>
<!DOCTYPE svg PUBLIC "-//W3C//DTD SVG 1.1//EN"
 "http://www.w3.org/Graphics/SVG/1.1/DTD/svg11.dtd">
<!-- Generated by graphviz version 2.43.0 (0)
 -->
<!-- Title: JKQTPGeoArrow Pages: 1 -->
<svg width="3154pt" height="539pt"
 viewBox="0.00 0.00 3154.00 539.28" xmlns="http://www.w3.org/2000/svg" xmlns:xlink="http://www.w3.org/1999/xlink">
<g id="graph0" class="graph" transform="scale(1 1) rotate(0) translate(4 535.28)">
<title>JKQTPGeoArrow</title>
<!-- Node1 -->
<g id="node1" class="node">
<title>Node1</title>
<g id="a_node1"><a xlink:title="This convenience specialisation of JKQTPGeoLine is used to draw a line with decorations (e....">
<polygon fill="#bfbfbf" stroke="black" points="3036,-229.78 3036,-250.78 3146,-250.78 3146,-229.78 3036,-229.78"/>
<text text-anchor="middle" x="3091" y="-237.18" font-family="FreeSans" font-size="12.00">JKQTPGeoArrow</text>
</a>
</g>
</g>
<!-- Node2 -->
<g id="node2" class="node">
<title>Node2</title>
<g id="a_node2"><a xlink:href="class_j_k_q_t_p_geo_line.html" target="_top" xlink:title="This JKQTPGeometricPlotElement is used to draw a line, optionally line&#45;end decorations (aka arrows) a...">
<polygon fill="none" stroke="black" points="2898,-229.78 2898,-250.78 2999,-250.78 2999,-229.78 2898,-229.78"/>
<text text-anchor="middle" x="2948.5" y="-237.18" font-family="FreeSans" font-size="12.00">JKQTPGeoLine</text>
</a>
</g>
</g>
<!-- Node2&#45;&gt;Node1 -->
<g id="edge1" class="edge">
<title>Node2&#45;&gt;Node1</title>
<path fill="none" stroke="midnightblue" d="M3009.21,-240.28C3017.99,-240.28 3026.99,-240.28 3035.66,-240.28"/>
<polygon fill="midnightblue" stroke="midnightblue" points="3009.04,-236.78 2999.04,-240.28 3009.04,-243.78 3009.04,-236.78"/>
</g>
<!-- Node3 -->
<g id="node3" class="node">
<title>Node3</title>
<g id="a_node3"><a xlink:href="class_j_k_q_t_p_geo_base_decorated_line.html" target="_top" xlink:title="This JKQTPGeometricPlotElement is used as base class for geometric drawing elements that consist of l...">
<polygon fill="none" stroke="black" points="2677,-229.78 2677,-250.78 2861,-250.78 2861,-229.78 2677,-229.78"/>
<text text-anchor="middle" x="2769" y="-237.18" font-family="FreeSans" font-size="12.00">JKQTPGeoBaseDecoratedLine</text>
</a>
</g>
</g>
<!-- Node3&#45;&gt;Node2 -->
<g id="edge2" class="edge">
<title>Node3&#45;&gt;Node2</title>
<path fill="none" stroke="midnightblue" d="M2871.1,-240.28C2880.27,-240.28 2889.27,-240.28 2897.68,-240.28"/>
<polygon fill="midnightblue" stroke="midnightblue" points="2871.09,-236.78 2861.09,-240.28 2871.09,-243.78 2871.09,-236.78"/>
</g>
<!-- Node4 -->
<g id="node4" class="node">
<title>Node4</title>
<g id="a_node4"><a xlink:href="class_j_k_q_t_p_geometric_plot_element.html" target="_top" xlink:title="this is the virtual base class of all JKQTPPlotElement&#39;s in a JKQTPlotter plot that represent geometr...">
<polygon fill="none" stroke="black" points="2457,-418.78 2457,-439.78 2630,-439.78 2630,-418.78 2457,-418.78"/>
<text text-anchor="middle" x="2543.5" y="-426.18" font-family="FreeSans" font-size="12.00">JKQTPGeometricPlotElement</text>
</a>
</g>
</g>
<!-- Node4&#45;&gt;Node3 -->
<g id="edge3" class="edge">
<title>Node4&#45;&gt;Node3</title>
<path fill="none" stroke="midnightblue" d="M2617.93,-415.41C2625.71,-412.4 2633.23,-408.74 2640,-404.28 2702.75,-362.98 2748.03,-280.53 2762.81,-251.06"/>
<polygon fill="midnightblue" stroke="midnightblue" points="2616.64,-412.15 2608.37,-418.76 2618.96,-418.76 2616.64,-412.15"/>
</g>
<!-- Node5 -->
<g id="node5" class="node">
<title>Node5</title>
<g id="a_node5"><a xlink:href="class_j_k_q_t_p_plot_element.html" target="_top" xlink:title="this virtual base class of every element, which is part of a JKQTPlotter plot and may appear in its k...">
<polygon fill="none" stroke="black" points="2254,-509.78 2254,-530.78 2372,-530.78 2372,-509.78 2254,-509.78"/>
<text text-anchor="middle" x="2313" y="-517.18" font-family="FreeSans" font-size="12.00">JKQTPPlotElement</text>
</a>
</g>
</g>
<!-- Node5&#45;&gt;Node4 -->
<g id="edge4" class="edge">
<title>Node5&#45;&gt;Node4</title>
<path fill="none" stroke="midnightblue" d="M2349.98,-505.95C2396.11,-487.58 2475.01,-456.16 2516.01,-439.83"/>
<polygon fill="midnightblue" stroke="midnightblue" points="2348.65,-502.71 2340.66,-509.66 2351.24,-509.22 2348.65,-502.71"/>
</g>
<!-- Node6 -->
<g id="node6" class="node">
<title>Node6</title>
<g id="a_node6"><a xlink:title=" ">
<polygon fill="none" stroke="black" points="1414,-376.78 1414,-397.78 1476,-397.78 1476,-376.78 1414,-376.78"/>
<text text-anchor="middle" x="1445" y="-384.18" font-family="FreeSans" font-size="12.00">QObject</text>
</a>
</g>
</g>
<!-- Node6&#45;&gt;Node5 -->
<g id="edge5" class="edge">
<title>Node6&#45;&gt;Node5</title>
<path fill="none" stroke="midnightblue" d="M1486.05,-400.36C1586.89,-432.32 1860,-513.02 2095,-529.28 2148.79,-533 2210.2,-529.76 2253.93,-526.17"/>
<polygon fill="midnightblue" stroke="midnightblue" points="1486.87,-396.94 1476.28,-397.24 1484.74,-403.61 1486.87,-396.94"/>
</g>
<!-- Node7 -->
<g id="node7" class="node">
<title>Node7</title>
<g id="a_node7"><a xlink:href="class_j_k_q_t_base_plotter.html" target="_top" xlink:title="base class for 2D plotter classes (used by the plotter widget JKQTPlotter)">
<polygon fill="none" stroke="black" points="1956,-353.78 1956,-374.78 2065,-374.78 2065,-353.78 1956,-353.78"/>
<text text-anchor="middle" x="2010.5" y="-361.18" font-family="FreeSans" font-size="12.00">JKQTBasePlotter</text>
</a>
</g>
</g>
<!-- Node6&#45;&gt;Node7 -->
<g id="edge7" class="edge">
<title>Node6&#45;&gt;Node7</title>
<path fill="none" stroke="midnightblue" d="M1486.56,-385.63C1586.35,-381.55 1843.78,-371.05 1955.94,-366.47"/>
<polygon fill="midnightblue" stroke="midnightblue" points="1486.15,-382.14 1476.3,-386.04 1486.43,-389.13 1486.15,-382.14"/>
</g>
<!-- Node18 -->
<g id="node18" class="node">
<title>Node18</title>
<g id="a_node18"><a xlink:href="class_j_k_q_t_math_text.html" target="_top" xlink:title="this class parses a LaTeX string and can then draw the contained text/equation onto a QPainter">
<polygon fill="none" stroke="black" points="1711.5,-407.78 1711.5,-428.78 1809.5,-428.78 1809.5,-407.78 1711.5,-407.78"/>
<text text-anchor="middle" x="1760.5" y="-415.18" font-family="FreeSans" font-size="12.00">JKQTMathText</text>
</a>
</g>
</g>
<!-- Node6&#45;&gt;Node18 -->
<g id="edge23" class="edge">
<title>Node6&#45;&gt;Node18</title>
<path fill="none" stroke="midnightblue" d="M1486.23,-391.26C1543.8,-396.95 1649.53,-407.41 1711.24,-413.51"/>
<polygon fill="midnightblue" stroke="midnightblue" points="1486.36,-387.75 1476.06,-390.25 1485.67,-394.72 1486.36,-387.75"/>
</g>
<!-- Node23 -->
<g id="node23" class="node">
<title>Node23</title>
<g id="a_node23"><a xlink:href="class_j_k_q_t_p_coordinate_axis.html" target="_top" xlink:title="this virtual class is the base for any type of coordinate axis, to be drawn by JKQTBasePlotter.">
<polygon fill="none" stroke="black" points="2244.5,-292.78 2244.5,-313.78 2381.5,-313.78 2381.5,-292.78 2244.5,-292.78"/>
<text text-anchor="middle" x="2313" y="-300.18" font-family="FreeSans" font-size="12.00">JKQTPCoordinateAxis</text>
</a>
</g>
</g>
<!-- Node6&#45;&gt;Node23 -->
<g id="edge31" class="edge">
<title>Node6&#45;&gt;Node23</title>
<path fill="none" stroke="midnightblue" d="M1486.12,-378.29C1557.88,-362.66 1713.14,-330.83 1846,-317.28 1987.11,-302.89 2153.41,-301.64 2244.28,-302.29"/>
<polygon fill="midnightblue" stroke="midnightblue" points="1485.17,-374.92 1476.15,-380.48 1486.67,-381.75 1485.17,-374.92"/>
</g>
<!-- Node7&#45;&gt;Node5 -->
<g id="edge6" class="edge">
<title>Node7&#45;&gt;Node5</title>
<path fill="none" stroke="#9a32cd" stroke-dasharray="5,2" d="M2032.79,-381.24C2046.77,-393.23 2064.68,-410.3 2077,-428.28 2088.48,-445.03 2079.42,-457.26 2095,-470.28 2139.35,-507.35 2205.9,-518.17 2253.61,-520.77"/>
<polygon fill="#9a32cd" stroke="#9a32cd" points="2035,-378.53 2025.09,-374.8 2030.52,-383.9 2035,-378.53"/>
<text text-anchor="middle" x="2146.5" y="-515.68" font-family="FreeSans" font-size="12.00"> parent</text>
</g>
<!-- Node7&#45;&gt;Node7 -->
<g id="edge42" class="edge">
<title>Node7&#45;&gt;Node7</title>
<path fill="none" stroke="#9a32cd" stroke-dasharray="5,2" d="M1987.65,-384.71C1989.41,-389.63 1997.03,-393.28 2010.5,-393.28 2032.05,-393.28 2038.62,-383.93 2030.2,-374.99"/>
<polygon fill="#9a32cd" stroke="#9a32cd" points="1991.04,-385.58 1990.8,-374.99 1984.39,-383.42 1991.04,-385.58"/>
<text text-anchor="middle" x="2010.5" y="-409.68" font-family="FreeSans" font-size="12.00"> masterPlotterX</text>
<text text-anchor="middle" x="2010.5" y="-396.68" font-family="FreeSans" font-size="12.00">masterPlotterY</text>
</g>
<!-- Node20 -->
<g id="node20" class="node">
<title>Node20</title>
<g id="a_node20"><a xlink:href="class_j_k_q_t_p_graphs_model.html" target="_top" xlink:title="data model with all plots ina JKQTBasePlotter (+ allows to switch them visible/invisible)">
<polygon fill="none" stroke="black" points="2249,-448.78 2249,-469.78 2377,-469.78 2377,-448.78 2249,-448.78"/>
<text text-anchor="middle" x="2313" y="-456.18" font-family="FreeSans" font-size="12.00">JKQTPGraphsModel</text>
</a>
</g>
</g>
<!-- Node7&#45;&gt;Node20 -->
<g id="edge28" class="edge">
<title>Node7&#45;&gt;Node20</title>
<path fill="none" stroke="#9a32cd" stroke-dasharray="5,2" d="M2026.54,-382.81C2041.79,-400.16 2067.07,-425.15 2095,-437.28 2121.74,-448.9 2194.84,-454.5 2248.84,-457.12"/>
<polygon fill="#9a32cd" stroke="#9a32cd" points="2029.04,-380.35 2019.89,-375.01 2023.71,-384.89 2029.04,-380.35"/>
<text text-anchor="middle" x="2146.5" y="-456.68" font-family="FreeSans" font-size="12.00"> m_plotter</text>
</g>
<!-- Node7&#45;&gt;Node23 -->
<g id="edge32" class="edge">
<title>Node7&#45;&gt;Node23</title>
<path fill="none" stroke="#9a32cd" stroke-dasharray="5,2" d="M2049.98,-350.44C2064.01,-345.77 2080.09,-340.84 2095,-337.28 2144.33,-325.52 2200.98,-316.8 2244.02,-311.14"/>
<polygon fill="#9a32cd" stroke="#9a32cd" points="2048.51,-347.24 2040.16,-353.78 2050.76,-353.87 2048.51,-347.24"/>
<text text-anchor="middle" x="2146.5" y="-340.68" font-family="FreeSans" font-size="12.00"> parent</text>
</g>
<!-- Node8 -->
<g id="node8" class="node">
<title>Node8</title>
<g id="a_node8"><a xlink:href="class_j_k_q_t_base_plotter_style.html" target="_top" xlink:title="Support Class for JKQTBasePlotter, which summarizes all properties that define the visual styling of ...">
<polygon fill="none" stroke="black" points="1693,-264.78 1693,-285.78 1828,-285.78 1828,-264.78 1693,-264.78"/>
<text text-anchor="middle" x="1760.5" y="-272.18" font-family="FreeSans" font-size="12.00">JKQTBasePlotterStyle</text>
</a>
</g>
</g>
<!-- Node8&#45;&gt;Node7 -->
<g id="edge8" class="edge">
<title>Node8&#45;&gt;Node7</title>
<path fill="none" stroke="#9a32cd" stroke-dasharray="5,2" d="M1800.39,-289.24C1850.19,-307.11 1935.39,-337.69 1980.12,-353.74"/>
<polygon fill="#9a32cd" stroke="#9a32cd" points="1801.52,-285.92 1790.92,-285.84 1799.15,-292.51 1801.52,-285.92"/>
<text text-anchor="middle" x="1886" y="-335.68" font-family="FreeSans" font-size="12.00"> plotterStyle</text>
</g>
<!-- Node9 -->
<g id="node9" class="node">
<title>Node9</title>
<g id="a_node9"><a xlink:href="class_j_k_q_t_p_key_style.html" target="_top" xlink:title="Support Class for JKQTBasePlotter, which summarizes all properties that define the visual styling of ...">
<polygon fill="none" stroke="black" points="1393.5,-278.78 1393.5,-299.78 1496.5,-299.78 1496.5,-278.78 1393.5,-278.78"/>
<text text-anchor="middle" x="1445" y="-286.18" font-family="FreeSans" font-size="12.00">JKQTPKeyStyle</text>
</a>
</g>
</g>
<!-- Node9&#45;&gt;Node8 -->
<g id="edge9" class="edge">
<title>Node9&#45;&gt;Node8</title>
<path fill="none" stroke="#9a32cd" stroke-dasharray="5,2" d="M1506.65,-280.74C1522.06,-278.91 1538.62,-277.24 1554,-276.28 1600.29,-273.39 1652.56,-273.18 1692.8,-273.67"/>
<polygon fill="#9a32cd" stroke="#9a32cd" points="1506.21,-277.27 1496.71,-281.96 1507.06,-284.21 1506.21,-277.27"/>
<text text-anchor="middle" x="1614.5" y="-279.68" font-family="FreeSans" font-size="12.00"> keyStyle</text>
</g>
<!-- Node10 -->
<g id="node10" class="node">
<title>Node10</title>
<g id="a_node10"><a xlink:href="class_j_k_q_t_p_coordinate_axis_style.html" target="_top" xlink:title="Support Class for JKQTPCoordinateAxis, which summarizes all properties that define the visual styling...">
<polygon fill="none" stroke="black" points="1060,-169.78 1060,-190.78 1224,-190.78 1224,-169.78 1060,-169.78"/>
<text text-anchor="middle" x="1142" y="-177.18" font-family="FreeSans" font-size="12.00">JKQTPCoordinateAxisStyle</text>
</a>
</g>
</g>
<!-- Node10&#45;&gt;Node8 -->
<g id="edge10" class="edge">
<title>Node10&#45;&gt;Node8</title>
<path fill="none" stroke="#9a32cd" stroke-dasharray="5,2" d="M1234.12,-176.07C1314.15,-173.92 1433.47,-174.49 1536,-190.28 1599.54,-200.07 1615.42,-206.15 1675,-230.28 1699.19,-240.08 1725.49,-254.78 1742.21,-264.69"/>
<polygon fill="#9a32cd" stroke="#9a32cd" points="1233.96,-172.58 1224.07,-176.36 1234.17,-179.57 1233.96,-172.58"/>
<text text-anchor="middle" x="1445" y="-206.68" font-family="FreeSans" font-size="12.00"> xAxisStyle</text>
<text text-anchor="middle" x="1445" y="-193.68" font-family="FreeSans" font-size="12.00">yAxisStyle</text>
</g>
<!-- Node12 -->
<g id="node12" class="node">
<title>Node12</title>
<g id="a_node12"><a xlink:href="class_j_k_q_t_p_colorbar_coordinate_axis_style.html" target="_top" xlink:title="Support Class for JKQTPCoordinateAxis, which summarizes all properties that define the visual styling...">
<polygon fill="none" stroke="black" points="1354,-225.28 1354,-259.28 1536,-259.28 1536,-225.28 1354,-225.28"/>
<text text-anchor="start" x="1362" y="-245.68" font-family="FreeSans" font-size="12.00">JKQTPColorbarCoordinateAxis</text>
<text text-anchor="middle" x="1445" y="-232.68" font-family="FreeSans" font-size="12.00">Style</text>
</a>
</g>
</g>
<!-- Node10&#45;&gt;Node12 -->
<g id="edge13" class="edge">
<title>Node10&#45;&gt;Node12</title>
<path fill="none" stroke="midnightblue" d="M1204.04,-192.85C1249.34,-202.19 1311.63,-215.02 1361.39,-225.27"/>
<polygon fill="midnightblue" stroke="midnightblue" points="1204.56,-189.39 1194.06,-190.8 1203.15,-196.24 1204.56,-189.39"/>
</g>
<!-- Node10&#45;&gt;Node23 -->
<g id="edge33" class="edge">
<title>Node10&#45;&gt;Node23</title>
<path fill="none" stroke="#9a32cd" stroke-dasharray="5,2" d="M1195,-167.43C1254.71,-153.82 1355.8,-134.28 1444,-134.28 1444,-134.28 1444,-134.28 2011.5,-134.28 2141.38,-134.28 2266.99,-255.71 2302.25,-292.71"/>
<polygon fill="#9a32cd" stroke="#9a32cd" points="1194.02,-164.06 1185.06,-169.73 1195.59,-170.88 1194.02,-164.06"/>
<text text-anchor="middle" x="1760.5" y="-137.68" font-family="FreeSans" font-size="12.00"> axisStyle</text>
</g>
<!-- Node11 -->
<g id="node11" class="node">
<title>Node11</title>
<g id="a_node11"><a xlink:href="class_j_k_q_t_p_grid_style.html" target="_top" xlink:title="Support Class for JKQTPCoordinateAxis, and summarizes all properties that define the visual styling o...">
<polygon fill="none" stroke="black" points="783.5,-169.78 783.5,-190.78 887.5,-190.78 887.5,-169.78 783.5,-169.78"/>
<text text-anchor="middle" x="835.5" y="-177.18" font-family="FreeSans" font-size="12.00">JKQTPGridStyle</text>
</a>
</g>
</g>
<!-- Node11&#45;&gt;Node10 -->
<g id="edge11" class="edge">
<title>Node11&#45;&gt;Node10</title>
<path fill="none" stroke="#9a32cd" stroke-dasharray="5,2" d="M898.06,-180.28C944.67,-180.28 1009.11,-180.28 1059.91,-180.28"/>
<polygon fill="#9a32cd" stroke="#9a32cd" points="897.81,-176.78 887.81,-180.28 897.81,-183.78 897.81,-176.78"/>
<text text-anchor="middle" x="986.5" y="-196.68" font-family="FreeSans" font-size="12.00"> majorGridStyle</text>
<text text-anchor="middle" x="986.5" y="-183.68" font-family="FreeSans" font-size="12.00">minorGridStyle</text>
</g>
<!-- Node12&#45;&gt;Node8 -->
<g id="edge12" class="edge">
<title>Node12&#45;&gt;Node8</title>
<path fill="none" stroke="#9a32cd" stroke-dasharray="5,2" d="M1546.25,-235.02C1586.56,-234.09 1633.29,-235.55 1675,-243.28 1697.21,-247.4 1721.17,-257.01 1737.88,-264.63"/>
<polygon fill="#9a32cd" stroke="#9a32cd" points="1546.04,-231.52 1536.14,-235.3 1546.24,-238.52 1546.04,-231.52"/>
<text text-anchor="middle" x="1614.5" y="-259.68" font-family="FreeSans" font-size="12.00"> rightColorbarAxisStyle</text>
<text text-anchor="middle" x="1614.5" y="-246.68" font-family="FreeSans" font-size="12.00">topColorbarAxisStyle</text>
</g>
<!-- Node13 -->
<g id="node13" class="node">
<title>Node13</title>
<g id="a_node13"><a xlink:href="class_j_k_q_t_graphs_base_style.html" target="_top" xlink:title="Support Class for JKQTBasePlotter, which summarizes all properties that define the visual styling of ...">
<polygon fill="none" stroke="black" points="1374.5,-318.78 1374.5,-339.78 1515.5,-339.78 1515.5,-318.78 1374.5,-318.78"/>
<text text-anchor="middle" x="1445" y="-326.18" font-family="FreeSans" font-size="12.00">JKQTGraphsBaseStyle</text>
</a>
</g>
</g>
<!-- Node13&#45;&gt;Node8 -->
<g id="edge14" class="edge">
<title>Node13&#45;&gt;Node8</title>
<path fill="none" stroke="#9a32cd" stroke-dasharray="5,2" d="M1517.15,-317.02C1571.82,-307.61 1646.51,-294.74 1698.46,-285.79"/>
<polygon fill="#9a32cd" stroke="#9a32cd" points="1516.45,-313.59 1507.19,-318.74 1517.64,-320.49 1516.45,-313.59"/>
<text text-anchor="middle" x="1614.5" y="-312.68" font-family="FreeSans" font-size="12.00"> graphsStyle</text>
</g>
<!-- Node14 -->
<g id="node14" class="node">
<title>Node14</title>
<g id="a_node14"><a xlink:href="class_j_k_q_t_graphs_specific_style_properties.html" target="_top" xlink:title="Support Class for JKQTBasePlotter, which summarizes all properties that define the visual styling of ...">
<polygon fill="none" stroke="black" points="370,-318.78 370,-339.78 579,-339.78 579,-318.78 370,-318.78"/>
<text text-anchor="middle" x="474.5" y="-326.18" font-family="FreeSans" font-size="12.00">JKQTGraphsSpecificStyleProperties</text>
</a>
</g>
</g>
<!-- Node14&#45;&gt;Node13 -->
<g id="edge15" class="edge">
<title>Node14&#45;&gt;Node13</title>
<path fill="none" stroke="#9a32cd" stroke-dasharray="5,2" d="M589.21,-329.28C791.67,-329.28 1208.85,-329.28 1374.24,-329.28"/>
<polygon fill="#9a32cd" stroke="#9a32cd" points="589.15,-325.78 579.15,-329.28 589.15,-332.78 589.15,-325.78"/>
<text text-anchor="middle" x="986.5" y="-384.68" font-family="FreeSans" font-size="12.00"> barchartStyle</text>
<text text-anchor="middle" x="986.5" y="-371.68" font-family="FreeSans" font-size="12.00">boxplotStyle</text>
<text text-anchor="middle" x="986.5" y="-358.68" font-family="FreeSans" font-size="12.00">defaultGraphStyle</text>
<text text-anchor="middle" x="986.5" y="-345.68" font-family="FreeSans" font-size="12.00">filledStyle</text>
<text text-anchor="middle" x="986.5" y="-332.68" font-family="FreeSans" font-size="12.00">impulseStyle</text>
</g>
<!-- Node16 -->
<g id="node16" class="node">
<title>Node16</title>
<g id="a_node16"><a xlink:href="class_j_k_q_t_geometric_specific_style_properties.html" target="_top" xlink:title="Support Class for JKQTBasePlotter, which summarizes all properties that define the visual styling of ...">
<polygon fill="none" stroke="black" points="750,-266.28 750,-300.28 921,-300.28 921,-266.28 750,-266.28"/>
<text text-anchor="start" x="758" y="-286.68" font-family="FreeSans" font-size="12.00">JKQTGeometricSpecificStyle</text>
<text text-anchor="middle" x="835.5" y="-273.68" font-family="FreeSans" font-size="12.00">Properties</text>
</a>
</g>
</g>
<!-- Node14&#45;&gt;Node16 -->
<g id="edge18" class="edge">
<title>Node14&#45;&gt;Node16</title>
<path fill="none" stroke="midnightblue" d="M567.8,-317.45C623.91,-310.27 695.03,-301.15 749.72,-294.14"/>
<polygon fill="midnightblue" stroke="midnightblue" points="567.34,-313.98 557.86,-318.73 568.23,-320.93 567.34,-313.98"/>
</g>
<!-- Node15 -->
<g id="node15" class="node">
<title>Node15</title>
<g id="a_node15"><a xlink:href="struct_j_k_q_t_p_color_derivation_mode.html" target="_top" xlink:title="Specifies how a fill&#45;color is derived from a given color.">
<polygon fill="none" stroke="black" points="0,-371.78 0,-392.78 168,-392.78 168,-371.78 0,-371.78"/>
<text text-anchor="middle" x="84" y="-379.18" font-family="FreeSans" font-size="12.00">JKQTPColorDerivationMode</text>
</a>
</g>
</g>
<!-- Node15&#45;&gt;Node14 -->
<g id="edge16" class="edge">
<title>Node15&#45;&gt;Node14</title>
<path fill="none" stroke="#9a32cd" stroke-dasharray="5,2" d="M128.8,-368.82C146.42,-363.87 167.03,-358.65 186,-355.28 246.45,-344.55 314.88,-338.13 369.81,-334.36"/>
<polygon fill="#9a32cd" stroke="#9a32cd" points="127.45,-365.57 118.8,-371.69 129.38,-372.3 127.45,-365.57"/>
<text text-anchor="middle" x="269" y="-410.68" font-family="FreeSans" font-size="12.00"> errorColorDerivationMode</text>
<text text-anchor="middle" x="269" y="-397.68" font-family="FreeSans" font-size="12.00">errorFillColorDerivationMode</text>
<text text-anchor="middle" x="269" y="-384.68" font-family="FreeSans" font-size="12.00">fillColorDerivationMode</text>
<text text-anchor="middle" x="269" y="-371.68" font-family="FreeSans" font-size="12.00">graphColorDerivationMode</text>
<text text-anchor="middle" x="269" y="-358.68" font-family="FreeSans" font-size="12.00">symbolFillColorDerivationMode</text>
</g>
<!-- Node17 -->
<g id="node17" class="node">
<title>Node17</title>
<g id="a_node17"><a xlink:href="class_j_k_q_t_annotations_specific_style_properties.html" target="_top" xlink:title="Support Class for JKQTBasePlotter, which summarizes all properties that define the visual styling of ...">
<polygon fill="none" stroke="black" points="1052,-392.28 1052,-426.28 1232,-426.28 1232,-392.28 1052,-392.28"/>
<text text-anchor="start" x="1060" y="-412.68" font-family="FreeSans" font-size="12.00">JKQTAnnotationsSpecificStyle</text>
<text text-anchor="middle" x="1142" y="-399.68" font-family="FreeSans" font-size="12.00">Properties</text>
</a>
</g>
</g>
<!-- Node15&#45;&gt;Node17 -->
<g id="edge21" class="edge">
<title>Node15&#45;&gt;Node17</title>
<path fill="none" stroke="#9a32cd" stroke-dasharray="5,2" d="M115.74,-397.16C135.34,-405.8 161.56,-415.84 186,-420.28 258.59,-433.48 278.22,-420.34 352,-420.28 655.11,-420.06 731.23,-433.62 1034,-419.28 1039.78,-419.01 1045.72,-418.65 1051.72,-418.24"/>
<polygon fill="#9a32cd" stroke="#9a32cd" points="116.97,-393.87 106.42,-392.93 114.08,-400.25 116.97,-393.87"/>
<text text-anchor="middle" x="664.5" y="-428.68" font-family="FreeSans" font-size="12.00"> textColorDerivationMode</text>
</g>
<!-- Node16&#45;&gt;Node13 -->
<g id="edge17" class="edge">
<title>Node16&#45;&gt;Node13</title>
<path fill="none" stroke="#9a32cd" stroke-dasharray="5,2" d="M931.19,-285.8C1011.39,-288.42 1129.38,-293.42 1232,-302.28 1278.41,-306.29 1289.79,-309.4 1336,-315.28 1348.38,-316.86 1361.55,-318.55 1374.29,-320.2"/>
<polygon fill="#9a32cd" stroke="#9a32cd" points="931.21,-282.3 921.11,-285.48 930.99,-289.29 931.21,-282.3"/>
<text text-anchor="middle" x="1142" y="-305.68" font-family="FreeSans" font-size="12.00"> geometricStyle</text>
</g>
<!-- Node16&#45;&gt;Node17 -->
<g id="edge20" class="edge">
<title>Node16&#45;&gt;Node17</title>
<path fill="none" stroke="midnightblue" d="M851.48,-308.8C868.79,-335.61 899.97,-376.45 939,-395.28 973.51,-411.93 1015.26,-416.94 1051.82,-417.2"/>
<polygon fill="midnightblue" stroke="midnightblue" points="854.43,-306.91 846.15,-300.3 848.5,-310.63 854.43,-306.91"/>
</g>
<!-- Node17&#45;&gt;Node13 -->
<g id="edge19" class="edge">
<title>Node17&#45;&gt;Node13</title>
<path fill="none" stroke="#9a32cd" stroke-dasharray="5,2" d="M1216.87,-389.65C1276.03,-373.92 1356.73,-352.48 1404.3,-339.83"/>
<polygon fill="#9a32cd" stroke="#9a32cd" points="1215.97,-386.27 1207.2,-392.22 1217.77,-393.03 1215.97,-386.27"/>
<text text-anchor="middle" x="1293" y="-381.68" font-family="FreeSans" font-size="12.00"> annotationStyle</text>
</g>
<!-- Node18&#45;&gt;Node7 -->
<g id="edge22" class="edge">
<title>Node18&#45;&gt;Node7</title>
<path fill="none" stroke="#9a32cd" stroke-dasharray="5,2" d="M1819.65,-405.62C1862.68,-396.25 1920.59,-383.64 1961.1,-374.82"/>
<polygon fill="#9a32cd" stroke="#9a32cd" points="1818.64,-402.26 1809.61,-407.81 1820.13,-409.1 1818.64,-402.26"/>
<text text-anchor="middle" x="1886" y="-401.68" font-family="FreeSans" font-size="12.00"> mathText</text>
</g>
<!-- Node19 -->
<g id="node19" class="node">
<title>Node19</title>
<g id="a_node19"><a xlink:href="class_j_k_q_t_math_text_node.html" target="_top" xlink:title="subclass representing one node in the syntax tree">
<polygon fill="none" stroke="black" points="1946.5,-437.78 1946.5,-458.78 2074.5,-458.78 2074.5,-437.78 1946.5,-437.78"/>
<text text-anchor="middle" x="2010.5" y="-445.18" font-family="FreeSans" font-size="12.00">JKQTMathTextNode</text>
</a>
</g>
</g>
<!-- Node18&#45;&gt;Node19 -->
<g id="edge25" class="edge">
<title>Node18&#45;&gt;Node19</title>
<path fill="none" stroke="#9a32cd" stroke-dasharray="5,2" d="M1786.01,-434.26C1802.29,-443.89 1824.54,-455.24 1846,-460.28 1885.35,-469.52 1931.35,-464.82 1964.52,-458.8"/>
<polygon fill="#9a32cd" stroke="#9a32cd" points="1787.52,-431.08 1777.17,-428.85 1783.87,-437.05 1787.52,-431.08"/>
<text text-anchor="middle" x="1886" y="-468.68" font-family="FreeSans" font-size="12.00"> parent</text>
</g>
<!-- Node19&#45;&gt;Node18 -->
<g id="edge24" class="edge">
<title>Node19&#45;&gt;Node18</title>
<path fill="none" stroke="#9a32cd" stroke-dasharray="5,2" d="M1939.68,-436.21C1935.06,-435.52 1930.46,-434.87 1926,-434.28 1887.03,-429.12 1842.66,-424.91 1809.83,-422.1"/>
<polygon fill="#9a32cd" stroke="#9a32cd" points="1939.41,-439.71 1949.82,-437.76 1940.47,-432.79 1939.41,-439.71"/>
<text text-anchor="middle" x="1886" y="-450.68" font-family="FreeSans" font-size="12.00"> parsedNode</text>
<text text-anchor="middle" x="1886" y="-437.68" font-family="FreeSans" font-size="12.00">unparsedNode</text>
</g>
<!-- Node20&#45;&gt;Node7 -->
<g id="edge26" class="edge">
<title>Node20&#45;&gt;Node7</title>
<path fill="none" stroke="#9a32cd" stroke-dasharray="5,2" d="M2270,-445.52C2248.56,-438.73 2222.02,-430.64 2198,-424.28 2152.66,-412.28 2139.55,-415.96 2095,-401.28 2073.01,-394.03 2048.95,-383.02 2032.32,-374.89"/>
<polygon fill="#9a32cd" stroke="#9a32cd" points="2269.17,-448.94 2279.76,-448.65 2271.3,-442.27 2269.17,-448.94"/>
<text text-anchor="middle" x="2146.5" y="-427.68" font-family="FreeSans" font-size="12.00"> m_plotsModel</text>
</g>
<!-- Node21 -->
<g id="node21" class="node">
<title>Node21</title>
<g id="a_node21"><a xlink:title=" ">
<polygon fill="none" stroke="black" points="1944,-477.78 1944,-498.78 2077,-498.78 2077,-477.78 1944,-477.78"/>
<text text-anchor="middle" x="2010.5" y="-485.18" font-family="FreeSans" font-size="12.00">QAbstractTableModel</text>
</a>
</g>
</g>
<!-- Node21&#45;&gt;Node20 -->
<g id="edge27" class="edge">
<title>Node21&#45;&gt;Node20</title>
<path fill="none" stroke="midnightblue" d="M2087.45,-482.9C2121.31,-480.31 2161.68,-476.97 2198,-473.28 2214.47,-471.61 2232.24,-469.55 2248.74,-467.53"/>
<polygon fill="midnightblue" stroke="midnightblue" points="2086.86,-479.43 2077.16,-483.68 2087.39,-486.41 2086.86,-479.43"/>
</g>
<!-- Node22 -->
<g id="node22" class="node">
<title>Node22</title>
<g id="a_node22"><a xlink:href="class_j_k_q_t_p_horizontal_axis.html" target="_top" xlink:title="implements a horizontal axis, based on JKQTPCoordinateAxis (for most of documentation: see JKQTPCoord...">
<polygon fill="none" stroke="black" points="2477,-373.78 2477,-394.78 2610,-394.78 2610,-373.78 2477,-373.78"/>
<text text-anchor="middle" x="2543.5" y="-381.18" font-family="FreeSans" font-size="12.00">JKQTPHorizontalAxis</text>
</a>
</g>
</g>
<!-- Node22&#45;&gt;Node7 -->
<g id="edge29" class="edge">
<title>Node22&#45;&gt;Node7</title>
<path fill="none" stroke="#9a32cd" stroke-dasharray="5,2" d="M2466.77,-385.8C2377.66,-386.93 2225.33,-386.77 2095,-376.28 2085.37,-375.51 2075.15,-374.33 2065.29,-373.02"/>
<polygon fill="#9a32cd" stroke="#9a32cd" points="2466.83,-389.3 2476.78,-385.67 2466.74,-382.3 2466.83,-389.3"/>
<text text-anchor="middle" x="2313" y="-388.68" font-family="FreeSans" font-size="12.00"> xAxis</text>
</g>
<!-- Node23&#45;&gt;Node22 -->
<g id="edge30" class="edge">
<title>Node23&#45;&gt;Node22</title>
<path fill="none" stroke="midnightblue" d="M2381.26,-316.72C2391.17,-319.85 2401.05,-323.66 2410,-328.28 2429.07,-338.11 2427.94,-349.44 2447,-359.28 2458.88,-365.42 2472.38,-370.13 2485.42,-373.73"/>
<polygon fill="midnightblue" stroke="midnightblue" points="2381.96,-313.27 2371.38,-313.8 2379.98,-319.99 2381.96,-313.27"/>
</g>
<!-- Node24 -->
<g id="node24" class="node">
<title>Node24</title>
<g id="a_node24"><a xlink:href="class_j_k_q_t_p_vertical_axis.html" target="_top" xlink:title="implements a vertical axis, based on JKQTPCoordinateAxis (for most of documentation: see JKQTPCoordin...">
<polygon fill="none" stroke="black" points="2484.5,-328.78 2484.5,-349.78 2602.5,-349.78 2602.5,-328.78 2484.5,-328.78"/>
<text text-anchor="middle" x="2543.5" y="-336.18" font-family="FreeSans" font-size="12.00">JKQTPVerticalAxis</text>
</a>
</g>
</g>
<!-- Node23&#45;&gt;Node24 -->
<g id="edge35" class="edge">
<title>Node23&#45;&gt;Node24</title>
<path fill="none" stroke="midnightblue" d="M2390.88,-315.39C2421.38,-320.2 2455.88,-325.63 2484.25,-330.1"/>
<polygon fill="midnightblue" stroke="midnightblue" points="2391.13,-311.89 2380.71,-313.79 2390.04,-318.8 2391.13,-311.89"/>
</g>
<!-- Node24&#45;&gt;Node7 -->
<g id="edge34" class="edge">
<title>Node24&#45;&gt;Node7</title>
<path fill="none" stroke="#9a32cd" stroke-dasharray="5,2" d="M2474.05,-342.5C2367.09,-347.54 2162.53,-357.17 2065.34,-361.75"/>
<polygon fill="#9a32cd" stroke="#9a32cd" points="2474.27,-346 2484.09,-342.03 2473.94,-339.01 2474.27,-346"/>
<text text-anchor="middle" x="2313" y="-357.68" font-family="FreeSans" font-size="12.00"> yAxis</text>
</g>
<!-- Node25 -->
<g id="node25" class="node">
<title>Node25</title>
<g id="a_node25"><a xlink:href="class_j_k_q_t_p_datastore.html" target="_top" xlink:title="This class manages data columns (with entries of type double ), used by JKQTPlotter/JKQTBasePlotter t...">
<polygon fill="none" stroke="black" points="1707,-19.78 1707,-40.78 1814,-40.78 1814,-19.78 1707,-19.78"/>
<text text-anchor="middle" x="1760.5" y="-27.18" font-family="FreeSans" font-size="12.00">JKQTPDatastore</text>
</a>
</g>
</g>
<!-- Node25&#45;&gt;Node7 -->
<g id="edge36" class="edge">
<title>Node25&#45;&gt;Node7</title>
<path fill="none" stroke="#9a32cd" stroke-dasharray="5,2" d="M1821.51,-45.67C1823.79,-47.07 1825.96,-48.61 1828,-50.28 1841.21,-61.14 1837.69,-69.34 1846,-84.28 1905.11,-190.53 1980.87,-316.82 2003.1,-353.69"/>
<polygon fill="#9a32cd" stroke="#9a32cd" points="1822.82,-42.4 1812.33,-40.85 1819.57,-48.6 1822.82,-42.4"/>
<text text-anchor="middle" x="1886" y="-225.68" font-family="FreeSans" font-size="12.00"> datastore</text>
</g>
<!-- Node27 -->
<g id="node27" class="node">
<title>Node27</title>
<g id="a_node27"><a xlink:href="class_j_k_q_t_p_column.html" target="_top" xlink:title="internally stores information about one data column. See JKQTPDatastore for more information.">
<polygon fill="none" stroke="black" points="1962.5,-26.78 1962.5,-47.78 2058.5,-47.78 2058.5,-26.78 1962.5,-26.78"/>
<text text-anchor="middle" x="2010.5" y="-34.18" font-family="FreeSans" font-size="12.00">JKQTPColumn</text>
</a>
</g>
</g>
<!-- Node25&#45;&gt;Node27 -->
<g id="edge39" class="edge">
<title>Node25&#45;&gt;Node27</title>
<path fill="none" stroke="#9a32cd" stroke-dasharray="5,2" d="M1824.16,-32.05C1867.13,-33.26 1923.25,-34.85 1962.42,-35.95"/>
<polygon fill="#9a32cd" stroke="#9a32cd" points="1824.19,-28.55 1814.09,-31.77 1823.99,-35.55 1824.19,-28.55"/>
<text text-anchor="middle" x="1886" y="-38.68" font-family="FreeSans" font-size="12.00"> datastore</text>
</g>
<!-- Node26 -->
<g id="node26" class="node">
<title>Node26</title>
<g id="a_node26"><a xlink:title=" ">
<polygon fill="none" stroke="black" points="2216,-44.78 2216,-65.78 2410,-65.78 2410,-44.78 2216,-44.78"/>
<text text-anchor="middle" x="2313" y="-52.18" font-family="FreeSans" font-size="12.00">std::unique_ptr&lt; JKQTPColumn &gt;</text>
</a>
</g>
</g>
<!-- Node26&#45;&gt;Node25 -->
<g id="edge37" class="edge">
<title>Node26&#45;&gt;Node25</title>
<path fill="none" stroke="#9a32cd" stroke-dasharray="5,2" d="M2250.67,-42.64C2239.14,-40.22 2227.2,-37.7 2216,-35.28 2154.13,-21.94 2139.91,-11.21 2077,-4.28 2018.24,2.19 2002.96,-0.1 1944,-4.28 1900.1,-7.39 1850.71,-14.66 1814.39,-20.73"/>
<polygon fill="#9a32cd" stroke="#9a32cd" points="2250.15,-46.1 2260.66,-44.72 2251.58,-39.25 2250.15,-46.1"/>
<text text-anchor="middle" x="2010.5" y="-7.68" font-family="FreeSans" font-size="12.00"> m_invalidColumn</text>
</g>
<!-- Node27&#45;&gt;Node26 -->
<g id="edge38" class="edge">
<title>Node27&#45;&gt;Node26</title>
<path fill="none" stroke="#9a32cd" stroke-dasharray="5,2" d="M2068.79,-36.51C2105.72,-36.42 2154.75,-37.1 2198,-40.28 2212.23,-41.33 2227.41,-42.96 2241.89,-44.77"/>
<polygon fill="#9a32cd" stroke="#9a32cd" points="2068.69,-33.01 2058.71,-36.55 2068.72,-40.01 2068.69,-33.01"/>
<text text-anchor="middle" x="2146.5" y="-43.68" font-family="FreeSans" font-size="12.00"> ptr</text>
</g>
<!-- Node28 -->
<g id="node28" class="node">
<title>Node28</title>
<g id="a_node28"><a xlink:title=" ">
<polygon fill="none" stroke="black" points="1949.5,-66.78 1949.5,-87.78 2071.5,-87.78 2071.5,-66.78 1949.5,-66.78"/>
<text text-anchor="middle" x="2010.5" y="-74.18" font-family="FreeSans" font-size="12.00">std::unique_ptr&lt; T &gt;</text>
</a>
</g>
</g>
<!-- Node28&#45;&gt;Node26 -->
<g id="edge40" class="edge">
<title>Node28&#45;&gt;Node26</title>
<path fill="none" stroke="orange" stroke-dasharray="5,2" d="M2081.77,-72.14C2121.73,-69.21 2172.34,-65.51 2215.93,-62.31"/>
<polygon fill="orange" stroke="orange" points="2081.31,-68.66 2071.59,-72.88 2081.82,-75.64 2081.31,-68.66"/>
<text text-anchor="middle" x="2146.5" y="-74.68" font-family="FreeSans" font-size="12.00"> &lt; JKQTPColumn &gt;</text>
</g>
<!-- Node29 -->
<g id="node29" class="node">
<title>Node29</title>
<g id="a_node29"><a xlink:title=" ">
<polygon fill="none" stroke="black" points="1746,-59.78 1746,-80.78 1775,-80.78 1775,-59.78 1746,-59.78"/>
<text text-anchor="middle" x="1760.5" y="-67.18" font-family="FreeSans" font-size="12.00">T</text>
</a>
</g>
</g>
<!-- Node29&#45;&gt;Node28 -->
<g id="edge41" class="edge">
<title>Node29&#45;&gt;Node28</title>
<path fill="none" stroke="#9a32cd" stroke-dasharray="5,2" d="M1785.3,-69.94C1817.31,-69.58 1875.96,-69.33 1926,-71.28 1933.55,-71.57 1941.48,-72 1949.32,-72.48"/>
<polygon fill="#9a32cd" stroke="#9a32cd" points="1785.11,-66.44 1775.16,-70.06 1785.2,-73.44 1785.11,-66.44"/>
<text text-anchor="middle" x="1886" y="-74.68" font-family="FreeSans" font-size="12.00"> ptr</text>
</g>
<!-- Node30 -->
<g id="node30" class="node">
<title>Node30</title>
<g id="a_node30"><a xlink:href="class_j_k_q_t_p_graph_decorated_line_style_mixin.html" target="_top" xlink:title="This Mix&#45;In class provides setter/getter methods, storage and other facilities for the graph line sty...">
<polygon fill="none" stroke="black" points="2447,-160.28 2447,-194.28 2640,-194.28 2640,-160.28 2447,-160.28"/>
<text text-anchor="start" x="2455" y="-180.68" font-family="FreeSans" font-size="12.00">JKQTPGraphDecoratedLineStyle</text>
<text text-anchor="middle" x="2543.5" y="-167.68" font-family="FreeSans" font-size="12.00">Mixin</text>
</a>
</g>
</g>
<!-- Node30&#45;&gt;Node3 -->
<g id="edge43" class="edge">
<title>Node30&#45;&gt;Node3</title>
<path fill="none" stroke="midnightblue" d="M2615.06,-197.17C2653.36,-207.97 2699.18,-220.88 2730.61,-229.74"/>
<polygon fill="midnightblue" stroke="midnightblue" points="2615.56,-193.67 2604.98,-194.33 2613.66,-200.41 2615.56,-193.67"/>
</g>
<!-- Node31 -->
<g id="node31" class="node">
<title>Node31</title>
<g id="a_node31"><a xlink:href="class_j_k_q_t_p_graph_line_style_mixin.html" target="_top" xlink:title="This Mix&#45;In class provides setter/getter methods, storage and other facilities for the graph line sty...">
<polygon fill="none" stroke="black" points="2229.5,-4.78 2229.5,-25.78 2396.5,-25.78 2396.5,-4.78 2229.5,-4.78"/>
<text text-anchor="middle" x="2313" y="-12.18" font-family="FreeSans" font-size="12.00">JKQTPGraphLineStyleMixin</text>
</a>
</g>
</g>
<!-- Node31&#45;&gt;Node30 -->
<g id="edge44" class="edge">
<title>Node31&#45;&gt;Node30</title>
<path fill="none" stroke="midnightblue" d="M2397.6,-29.33C2401.89,-31.08 2406.05,-33.06 2410,-35.28 2465.83,-66.71 2511.77,-129.7 2531.75,-160.1"/>
<polygon fill="midnightblue" stroke="midnightblue" points="2398.63,-25.98 2388.04,-25.82 2396.22,-32.55 2398.63,-25.98"/>
</g>
</g>
</svg>
