<?xml version="1.0" encoding="UTF-8" standalone="no"?>
<!DOCTYPE svg PUBLIC "-//W3C//DTD SVG 1.1//EN"
 "http://www.w3.org/Graphics/SVG/1.1/DTD/svg11.dtd">
<!-- Generated by graphviz version 2.43.0 (0)
 -->
<!-- Title: JKQTMathTextSimpleInstructionNode Pages: 1 -->
<svg width="429pt" height="99pt"
 viewBox="0.00 0.00 429.00 99.00" xmlns="http://www.w3.org/2000/svg" xmlns:xlink="http://www.w3.org/1999/xlink">
<g id="graph0" class="graph" transform="scale(1 1) rotate(0) translate(4 95)">
<title>JKQTMathTextSimpleInstructionNode</title>
<!-- Node1 -->
<g id="node1" class="node">
<title>Node1</title>
<g id="a_node1"><a xlink:title="subclass representing a simple instruction node which only accepts string arguments,...">
<polygon fill="#999999" stroke="#666666" points="235,-21 0,-21 0,0 235,0 235,-21"/>
<text text-anchor="middle" x="117.5" y="-7.4" font-family="Helvetica,sans-Serif" font-size="12.00">JKQTMathTextSimpleInstructionNode</text>
</a>
</g>
</g>
<!-- Node2 -->
<g id="node2" class="node">
<title>Node2</title>
<g id="a_node2"><a xlink:href="class_j_k_q_t_math_text_node.html" target="_top" xlink:title="subclass representing one node in the syntax tree">
<polygon fill="white" stroke="#666666" points="242,-91 111,-91 111,-70 242,-70 242,-91"/>
<text text-anchor="middle" x="176.5" y="-77.4" font-family="Helvetica,sans-Serif" font-size="12.00">JKQTMathTextNode</text>
</a>
</g>
</g>
<!-- Node2&#45;&gt;Node1 -->
<g id="edge1" class="edge">
<title>Node2&#45;&gt;Node1</title>
<path fill="none" stroke="#63b8ff" d="M161.28,-61.96C150.03,-48.99 135.13,-31.82 125.94,-21.22"/>
<polygon fill="#63b8ff" stroke="#63b8ff" points="158.85,-64.5 168.05,-69.76 164.14,-59.91 158.85,-64.5"/>
</g>
<!-- Node2&#45;&gt;Node2 -->
<g id="edge5" class="edge">
<title>Node2&#45;&gt;Node2</title>
<path fill="none" stroke="#9a32cd" stroke-dasharray="5,2" d="M252.52,-84.94C257.19,-83.89 260,-82.41 260,-80.5 260,-77.45 252.81,-75.49 242.31,-74.63"/>
<polygon fill="#9a32cd" stroke="#9a32cd" points="251.73,-81.52 242.31,-86.37 252.7,-88.45 251.73,-81.52"/>
<text text-anchor="middle" x="297.5" y="-77.4" font-family="Helvetica,sans-Serif" font-size="12.00"> parentNode</text>
</g>
<!-- Node3 -->
<g id="node3" class="node">
<title>Node3</title>
<g id="a_node3"><a xlink:href="class_j_k_q_t_math_text.html" target="_top" xlink:title="this class parses a mathematical markup string and can then draw the contained text/equation onto a Q...">
<polygon fill="white" stroke="#666666" points="352,-21 253,-21 253,0 352,0 352,-21"/>
<text text-anchor="middle" x="302.5" y="-7.4" font-family="Helvetica,sans-Serif" font-size="12.00">JKQTMathText</text>
</a>
</g>
</g>
<!-- Node2&#45;&gt;Node3 -->
<g id="edge4" class="edge">
<title>Node2&#45;&gt;Node3</title>
<path fill="none" stroke="#9a32cd" stroke-dasharray="5,2" d="M169.73,-59.82C168.51,-52.57 168.85,-44.74 173.5,-39 176.13,-35.75 217.72,-27.26 252.97,-20.57"/>
<polygon fill="#9a32cd" stroke="#9a32cd" points="166.4,-60.91 172.32,-69.7 173.17,-59.14 166.4,-60.91"/>
<text text-anchor="middle" x="212" y="-42.4" font-family="Helvetica,sans-Serif" font-size="12.00"> parsedNode</text>
</g>
<!-- Node3&#45;&gt;Node2 -->
<g id="edge2" class="edge">
<title>Node3&#45;&gt;Node2</title>
<path fill="none" stroke="#9a32cd" stroke-dasharray="5,2" d="M285.74,-28.26C277.01,-36.28 265.8,-45.53 254.5,-52 241.42,-59.49 225.94,-65.46 212.24,-69.9"/>
<polygon fill="#9a32cd" stroke="#9a32cd" points="288.18,-30.77 293.01,-21.34 283.35,-25.7 288.18,-30.77"/>
<text text-anchor="middle" x="321" y="-42.4" font-family="Helvetica,sans-Serif" font-size="12.00"> parentMathText</text>
</g>
<!-- Node4 -->
<g id="node4" class="node">
<title>Node4</title>
<g id="a_node4"><a xlink:title=" ">
<polygon fill="white" stroke="#666666" points="421,-91 356,-91 356,-70 421,-70 421,-91"/>
<text text-anchor="middle" x="388.5" y="-77.4" font-family="Helvetica,sans-Serif" font-size="12.00">QObject</text>
</a>
</g>
</g>
<!-- Node4&#45;&gt;Node3 -->
<g id="edge3" class="edge">
<title>Node4&#45;&gt;Node3</title>
<path fill="none" stroke="#63b8ff" d="M385.37,-59.95C383.34,-52.61 379.99,-44.67 374.5,-39 366.68,-30.93 356.24,-25.19 345.74,-21.13"/>
<polygon fill="#63b8ff" stroke="#63b8ff" points="382,-60.9 387.51,-69.95 388.84,-59.44 382,-60.9"/>
</g>
</g>
</svg>
