<?xml version="1.0" encoding="UTF-8" standalone="no"?>
<!DOCTYPE svg PUBLIC "-//W3C//DTD SVG 1.1//EN"
 "http://www.w3.org/Graphics/SVG/1.1/DTD/svg11.dtd">
<!-- Generated by graphviz version 2.43.0 (0)
 -->
<!-- Title: JKQTPGeometricPlotElement Pages: 1 -->
<svg width="805pt" height="485pt"
 viewBox="0.00 0.00 804.50 485.00" xmlns="http://www.w3.org/2000/svg" xmlns:xlink="http://www.w3.org/1999/xlink">
<g id="graph0" class="graph" transform="scale(1 1) rotate(0) translate(4 481)">
<title>JKQTPGeometricPlotElement</title>
<!-- Node1 -->
<g id="node1" class="node">
<title>Node1</title>
<g id="a_node1"><a xlink:title="this is the virtual base class of all JKQTPPlotElement&#39;s in a JKQTPlotter plot that represent geometr...">
<polygon fill="#999999" stroke="#666666" points="434.5,-363 246.5,-363 246.5,-342 434.5,-342 434.5,-363"/>
<text text-anchor="middle" x="340.5" y="-349.4" font-family="Helvetica,sans-Serif" font-size="12.00">JKQTPGeometricPlotElement</text>
</a>
</g>
</g>
<!-- Node4 -->
<g id="node4" class="node">
<title>Node4</title>
<g id="a_node4"><a xlink:href="class_j_k_q_t_p_geo_base_decorated_head_line.html" target="_top" xlink:title="This JKQTPGeometricPlotElement is used as base class for geometric drawing elements that consist of l...">
<polygon fill="white" stroke="#666666" points="225,-306 0,-306 0,-285 225,-285 225,-306"/>
<text text-anchor="middle" x="112.5" y="-292.4" font-family="Helvetica,sans-Serif" font-size="12.00">JKQTPGeoBaseDecoratedHeadLine</text>
</a>
</g>
</g>
<!-- Node1&#45;&gt;Node4 -->
<g id="edge3" class="edge">
<title>Node1&#45;&gt;Node4</title>
<path fill="none" stroke="#63b8ff" d="M291.13,-339.59C249.55,-329.56 190.84,-315.4 152.24,-306.09"/>
<polygon fill="#63b8ff" stroke="#63b8ff" points="290.5,-343.04 301.05,-341.98 292.15,-336.24 290.5,-343.04"/>
</g>
<!-- Node6 -->
<g id="node6" class="node">
<title>Node6</title>
<g id="a_node6"><a xlink:href="class_j_k_q_t_p_geo_base_decorated_line.html" target="_top" xlink:title="This JKQTPGeometricPlotElement is used as base class for geometric drawing elements that consist of l...">
<polygon fill="white" stroke="#666666" points="437.5,-306 243.5,-306 243.5,-285 437.5,-285 437.5,-306"/>
<text text-anchor="middle" x="340.5" y="-292.4" font-family="Helvetica,sans-Serif" font-size="12.00">JKQTPGeoBaseDecoratedLine</text>
</a>
</g>
</g>
<!-- Node1&#45;&gt;Node6 -->
<g id="edge5" class="edge">
<title>Node1&#45;&gt;Node6</title>
<path fill="none" stroke="#63b8ff" d="M340.5,-331.86C340.5,-323.2 340.5,-313.42 340.5,-306.34"/>
<polygon fill="#63b8ff" stroke="#63b8ff" points="337,-331.92 340.5,-341.92 344,-331.92 337,-331.92"/>
</g>
<!-- Node10 -->
<g id="node10" class="node">
<title>Node10</title>
<g id="a_node10"><a xlink:href="class_j_k_q_t_p_geo_base_line.html" target="_top" xlink:title="This JKQTPGeometricPlotElement is used as base class for geometric drawing elements that only consist...">
<polygon fill="white" stroke="#666666" points="587,-306 456,-306 456,-285 587,-285 587,-306"/>
<text text-anchor="middle" x="521.5" y="-292.4" font-family="Helvetica,sans-Serif" font-size="12.00">JKQTPGeoBaseLine</text>
</a>
</g>
</g>
<!-- Node1&#45;&gt;Node10 -->
<g id="edge9" class="edge">
<title>Node1&#45;&gt;Node10</title>
<path fill="none" stroke="#63b8ff" d="M381.8,-338.95C414.69,-328.96 460.04,-315.18 490.03,-306.06"/>
<polygon fill="#63b8ff" stroke="#63b8ff" points="380.58,-335.66 372.03,-341.92 382.61,-342.36 380.58,-335.66"/>
</g>
<!-- Node2 -->
<g id="node2" class="node">
<title>Node2</title>
<g id="a_node2"><a xlink:href="class_j_k_q_t_p_plot_element.html" target="_top" xlink:title="this virtual base class of every element, which is part of a JKQTPlotter plot and may appear in its k...">
<polygon fill="white" stroke="#666666" points="403,-420 278,-420 278,-399 403,-399 403,-420"/>
<text text-anchor="middle" x="340.5" y="-406.4" font-family="Helvetica,sans-Serif" font-size="12.00">JKQTPPlotElement</text>
</a>
</g>
</g>
<!-- Node2&#45;&gt;Node1 -->
<g id="edge1" class="edge">
<title>Node2&#45;&gt;Node1</title>
<path fill="none" stroke="#63b8ff" d="M340.5,-388.86C340.5,-380.2 340.5,-370.42 340.5,-363.34"/>
<polygon fill="#63b8ff" stroke="#63b8ff" points="337,-388.92 340.5,-398.92 344,-388.92 337,-388.92"/>
</g>
<!-- Node3 -->
<g id="node3" class="node">
<title>Node3</title>
<g id="a_node3"><a xlink:title=" ">
<polygon fill="white" stroke="#666666" points="373,-477 308,-477 308,-456 373,-456 373,-477"/>
<text text-anchor="middle" x="340.5" y="-463.4" font-family="Helvetica,sans-Serif" font-size="12.00">QObject</text>
</a>
</g>
</g>
<!-- Node3&#45;&gt;Node2 -->
<g id="edge2" class="edge">
<title>Node3&#45;&gt;Node2</title>
<path fill="none" stroke="#63b8ff" d="M340.5,-445.86C340.5,-437.2 340.5,-427.42 340.5,-420.34"/>
<polygon fill="#63b8ff" stroke="#63b8ff" points="337,-445.92 340.5,-455.92 344,-445.92 337,-445.92"/>
</g>
<!-- Node5 -->
<g id="node5" class="node">
<title>Node5</title>
<g id="a_node5"><a xlink:href="class_j_k_q_t_p_geo_infinite_line.html" target="_top" xlink:title="This JKQTPGeometricPlotElement is used to draw an infinite line.">
<polygon fill="white" stroke="#666666" points="184,-249 41,-249 41,-228 184,-228 184,-249"/>
<text text-anchor="middle" x="112.5" y="-235.4" font-family="Helvetica,sans-Serif" font-size="12.00">JKQTPGeoInfiniteLine</text>
</a>
</g>
</g>
<!-- Node4&#45;&gt;Node5 -->
<g id="edge4" class="edge">
<title>Node4&#45;&gt;Node5</title>
<path fill="none" stroke="#63b8ff" d="M112.5,-274.86C112.5,-266.2 112.5,-256.42 112.5,-249.34"/>
<polygon fill="#63b8ff" stroke="#63b8ff" points="109,-274.92 112.5,-284.92 116,-274.92 109,-274.92"/>
</g>
<!-- Node7 -->
<g id="node7" class="node">
<title>Node7</title>
<g id="a_node7"><a xlink:href="class_j_k_q_t_p_geo_line.html" target="_top" xlink:title="This JKQTPGeometricPlotElement is used to draw a line, optionally line&#45;end decorations (aka arrows) a...">
<polygon fill="white" stroke="#666666" points="304,-249 203,-249 203,-228 304,-228 304,-249"/>
<text text-anchor="middle" x="253.5" y="-235.4" font-family="Helvetica,sans-Serif" font-size="12.00">JKQTPGeoLine</text>
</a>
</g>
</g>
<!-- Node6&#45;&gt;Node7 -->
<g id="edge6" class="edge">
<title>Node6&#45;&gt;Node7</title>
<path fill="none" stroke="#63b8ff" d="M316.89,-279.58C301.58,-269.9 282.08,-257.57 268.77,-249.16"/>
<polygon fill="#63b8ff" stroke="#63b8ff" points="315.02,-282.53 325.35,-284.92 318.76,-276.62 315.02,-282.53"/>
</g>
<!-- Node9 -->
<g id="node9" class="node">
<title>Node9</title>
<g id="a_node9"><a xlink:href="class_j_k_q_t_p_geo_poly_lines.html" target="_top" xlink:title="This JKQTPGeometricPlotElement is used to draw a poly line.">
<polygon fill="white" stroke="#666666" points="453,-249 322,-249 322,-228 453,-228 453,-249"/>
<text text-anchor="middle" x="387.5" y="-235.4" font-family="Helvetica,sans-Serif" font-size="12.00">JKQTPGeoPolyLines</text>
</a>
</g>
</g>
<!-- Node6&#45;&gt;Node9 -->
<g id="edge8" class="edge">
<title>Node6&#45;&gt;Node9</title>
<path fill="none" stroke="#63b8ff" d="M355.34,-277.13C363.18,-267.96 372.5,-257.05 379.09,-249.34"/>
<polygon fill="#63b8ff" stroke="#63b8ff" points="352.52,-275.04 348.69,-284.92 357.84,-279.59 352.52,-275.04"/>
</g>
<!-- Node8 -->
<g id="node8" class="node">
<title>Node8</title>
<g id="a_node8"><a xlink:href="class_j_k_q_t_p_geo_arrow.html" target="_top" xlink:title="This convenience specialisation of JKQTPGeoLine is used to draw a line with decorations (e....">
<polygon fill="white" stroke="#666666" points="309,-192 198,-192 198,-171 309,-171 309,-192"/>
<text text-anchor="middle" x="253.5" y="-178.4" font-family="Helvetica,sans-Serif" font-size="12.00">JKQTPGeoArrow</text>
</a>
</g>
</g>
<!-- Node7&#45;&gt;Node8 -->
<g id="edge7" class="edge">
<title>Node7&#45;&gt;Node8</title>
<path fill="none" stroke="#63b8ff" d="M253.5,-217.86C253.5,-209.2 253.5,-199.42 253.5,-192.34"/>
<polygon fill="#63b8ff" stroke="#63b8ff" points="250,-217.92 253.5,-227.92 257,-217.92 250,-217.92"/>
</g>
<!-- Node11 -->
<g id="node11" class="node">
<title>Node11</title>
<g id="a_node11"><a xlink:href="class_j_k_q_t_p_geo_arc.html" target="_top" xlink:title="This JKQTPGeometricPlotElement is used to draw an arc.">
<polygon fill="white" stroke="#666666" points="568.5,-249 472.5,-249 472.5,-228 568.5,-228 568.5,-249"/>
<text text-anchor="middle" x="520.5" y="-235.4" font-family="Helvetica,sans-Serif" font-size="12.00">JKQTPGeoArc</text>
</a>
</g>
</g>
<!-- Node10&#45;&gt;Node11 -->
<g id="edge10" class="edge">
<title>Node10&#45;&gt;Node11</title>
<path fill="none" stroke="#63b8ff" d="M521.14,-274.86C520.99,-266.2 520.81,-256.42 520.68,-249.34"/>
<polygon fill="#63b8ff" stroke="#63b8ff" points="517.64,-274.99 521.33,-284.92 524.64,-274.86 517.64,-274.99"/>
</g>
<!-- Node12 -->
<g id="node12" class="node">
<title>Node12</title>
<g id="a_node12"><a xlink:href="class_j_k_q_t_p_geo_base_filled.html" target="_top" xlink:title="This JKQTPGeometricPlotElement is used as base class for geometric drawing elements that only consist...">
<polygon fill="white" stroke="#666666" points="722.5,-249 586.5,-249 586.5,-228 722.5,-228 722.5,-249"/>
<text text-anchor="middle" x="654.5" y="-235.4" font-family="Helvetica,sans-Serif" font-size="12.00">JKQTPGeoBaseFilled</text>
</a>
</g>
</g>
<!-- Node10&#45;&gt;Node12 -->
<g id="edge11" class="edge">
<title>Node10&#45;&gt;Node12</title>
<path fill="none" stroke="#63b8ff" d="M554.03,-281.05C577.91,-271.17 609.77,-258 631.15,-249.16"/>
<polygon fill="#63b8ff" stroke="#63b8ff" points="552.57,-277.86 544.67,-284.92 555.25,-284.33 552.57,-277.86"/>
</g>
<!-- Node13 -->
<g id="node13" class="node">
<title>Node13</title>
<g id="a_node13"><a xlink:href="class_j_k_q_t_p_geo_polygon.html" target="_top" xlink:title="This JKQTPGeometricPlotElement is used to draw a polygon.">
<polygon fill="white" stroke="#666666" points="642,-192 519,-192 519,-171 642,-171 642,-192"/>
<text text-anchor="middle" x="580.5" y="-178.4" font-family="Helvetica,sans-Serif" font-size="12.00">JKQTPGeoPolygon</text>
</a>
</g>
</g>
<!-- Node12&#45;&gt;Node13 -->
<g id="edge12" class="edge">
<title>Node12&#45;&gt;Node13</title>
<path fill="none" stroke="#63b8ff" d="M633.37,-221.8C620.61,-212.31 604.75,-200.52 593.74,-192.34"/>
<polygon fill="#63b8ff" stroke="#63b8ff" points="631.5,-224.76 641.61,-227.92 635.67,-219.15 631.5,-224.76"/>
</g>
<!-- Node14 -->
<g id="node14" class="node">
<title>Node14</title>
<g id="a_node14"><a xlink:href="class_j_k_q_t_p_geo_rectangle.html" target="_top" xlink:title="This JKQTPGeometricPlotElement is used to draw a rectangle.">
<polygon fill="white" stroke="#666666" points="796.5,-192 660.5,-192 660.5,-171 796.5,-171 796.5,-192"/>
<text text-anchor="middle" x="728.5" y="-178.4" font-family="Helvetica,sans-Serif" font-size="12.00">JKQTPGeoRectangle</text>
</a>
</g>
</g>
<!-- Node12&#45;&gt;Node14 -->
<g id="edge13" class="edge">
<title>Node12&#45;&gt;Node14</title>
<path fill="none" stroke="#63b8ff" d="M675.63,-221.8C688.39,-212.31 704.25,-200.52 715.26,-192.34"/>
<polygon fill="#63b8ff" stroke="#63b8ff" points="673.33,-219.15 667.39,-227.92 677.5,-224.76 673.33,-219.15"/>
</g>
<!-- Node15 -->
<g id="node15" class="node">
<title>Node15</title>
<g id="a_node15"><a xlink:href="class_j_k_q_t_p_geo_ellipse.html" target="_top" xlink:title="This JKQTPGeometricPlotElement is used to draw an ellipse.">
<polygon fill="white" stroke="#666666" points="785.5,-135 671.5,-135 671.5,-114 785.5,-114 785.5,-135"/>
<text text-anchor="middle" x="728.5" y="-121.4" font-family="Helvetica,sans-Serif" font-size="12.00">JKQTPGeoEllipse</text>
</a>
</g>
</g>
<!-- Node14&#45;&gt;Node15 -->
<g id="edge14" class="edge">
<title>Node14&#45;&gt;Node15</title>
<path fill="none" stroke="#63b8ff" d="M728.5,-160.86C728.5,-152.2 728.5,-142.42 728.5,-135.34"/>
<polygon fill="#63b8ff" stroke="#63b8ff" points="725,-160.92 728.5,-170.92 732,-160.92 725,-160.92"/>
</g>
<!-- Node16 -->
<g id="node16" class="node">
<title>Node16</title>
<g id="a_node16"><a xlink:href="class_j_k_q_t_p_geo_pie.html" target="_top" xlink:title="This JKQTPGeometricPlotElement is used to draw a pie.">
<polygon fill="white" stroke="#666666" points="775.5,-78 681.5,-78 681.5,-57 775.5,-57 775.5,-78"/>
<text text-anchor="middle" x="728.5" y="-64.4" font-family="Helvetica,sans-Serif" font-size="12.00">JKQTPGeoPie</text>
</a>
</g>
</g>
<!-- Node15&#45;&gt;Node16 -->
<g id="edge15" class="edge">
<title>Node15&#45;&gt;Node16</title>
<path fill="none" stroke="#63b8ff" d="M728.5,-103.86C728.5,-95.2 728.5,-85.42 728.5,-78.34"/>
<polygon fill="#63b8ff" stroke="#63b8ff" points="725,-103.92 728.5,-113.92 732,-103.92 725,-103.92"/>
</g>
<!-- Node17 -->
<g id="node17" class="node">
<title>Node17</title>
<g id="a_node17"><a xlink:href="class_j_k_q_t_p_geo_chord.html" target="_top" xlink:title="This JKQTPGeometricPlotElement is used to draw a chord.">
<polygon fill="white" stroke="#666666" points="784.5,-21 672.5,-21 672.5,0 784.5,0 784.5,-21"/>
<text text-anchor="middle" x="728.5" y="-7.4" font-family="Helvetica,sans-Serif" font-size="12.00">JKQTPGeoChord</text>
</a>
</g>
</g>
<!-- Node16&#45;&gt;Node17 -->
<g id="edge16" class="edge">
<title>Node16&#45;&gt;Node17</title>
<path fill="none" stroke="#63b8ff" d="M728.5,-46.86C728.5,-38.2 728.5,-28.42 728.5,-21.34"/>
<polygon fill="#63b8ff" stroke="#63b8ff" points="725,-46.92 728.5,-56.92 732,-46.92 725,-46.92"/>
</g>
</g>
</svg>
