<?xml version="1.0" encoding="UTF-8" standalone="no"?>
<!DOCTYPE svg PUBLIC "-//W3C//DTD SVG 1.1//EN"
 "http://www.w3.org/Graphics/SVG/1.1/DTD/svg11.dtd">
<!-- Generated by graphviz version 2.43.0 (0)
 -->
<!-- Title: JKQTPColorPaletteWithModifierStyleAndToolsMixin Pages: 1 -->
<!--zoomable 523 -->
<svg id="main" version="1.1" xmlns="http://www.w3.org/2000/svg" xmlns:xlink="http://www.w3.org/1999/xlink" xml:space="preserve" onload="init(evt)">
<style type="text/css"><![CDATA[
.edge:hover path { stroke: red; }
.edge:hover polygon { stroke: red; fill: red; }
]]></style>
<script type="text/javascript"><![CDATA[
var edges = document.getElementsByTagName('g');
if (edges && edges.length) {
  for (var i=0;i<edges.length;i++) {
    if (edges[i].id.substr(0,4)=='edge') {
      edges[i].setAttribute('class','edge');
    }
  }
}
]]></script>
        <defs>
                <circle id="rim" cx="0" cy="0" r="7"/>
                <circle id="rim2" cx="0" cy="0" r="3.5"/>
                <g id="zoomPlus">
                        <use xlink:href="#rim" fill="#404040">
                                <set attributeName="fill" to="#808080" begin="zoomplus.mouseover" end="zoomplus.mouseout"/>
                        </use>
                        <path d="M-4,0h8M0,-4v8" fill="none" stroke="white" stroke-width="1.5" pointer-events="none"/>
                </g>
                <g id="zoomMin">
                        <use xlink:href="#rim" fill="#404040">
                                <set attributeName="fill" to="#808080" begin="zoomminus.mouseover" end="zoomminus.mouseout"/>
                        </use>
                        <path d="M-4,0h8" fill="none" stroke="white" stroke-width="1.5" pointer-events="none"/>
                </g>
                <g id="dirArrow">
                        <path fill="none" stroke="white" stroke-width="1.5" d="M0,-3.0v7 M-2.5,-0.5L0,-3.0L2.5,-0.5"/>
                </g>
               <g id="resetDef">
                       <use xlink:href="#rim2" fill="#404040">
                               <set attributeName="fill" to="#808080" begin="reset.mouseover" end="reset.mouseout"/>
                       </use>
               </g>
        </defs>

<script type="text/javascript">
var viewWidth = 3358;
var viewHeight = 523;
var sectionId = 'dynsection-1';
</script>
<script xlink:href="svgpan.js"/>
<svg id="graph" class="graph">
<g id="viewport">
<title>JKQTPColorPaletteWithModifierStyleAndToolsMixin</title>
<!-- Node1 -->
<g id="node1" class="node">
<title>Node1</title>
<g id="a_node1"><a xlink:title="if a class is derived from this class, it may use color bars that have 2 axes (one &quot;data&quot;/color axis ...">
<polygon fill="#bfbfbf" stroke="black" points="3164,-238 3164,-272 3350,-272 3350,-238 3164,-238"/>
<text text-anchor="start" x="3172" y="-258.4" font-family="FreeSans" font-size="12.00">JKQTPColorPaletteWithModifier</text>
<text text-anchor="middle" x="3257" y="-245.4" font-family="FreeSans" font-size="12.00">StyleAndToolsMixin</text>
</a>
</g>
</g>
<!-- Node2 -->
<g id="node2" class="node">
<title>Node2</title>
<g id="a_node2"><a xlink:href="class_j_k_q_t_p_color_palette_style_and_tools_mixin.html" target="_top" xlink:title="if a class is derived from this class, it may use color bars">
<polygon fill="none" stroke="black" points="2960,-238 2960,-272 3127,-272 3127,-238 2960,-238"/>
<text text-anchor="start" x="2968" y="-258.4" font-family="FreeSans" font-size="12.00">JKQTPColorPaletteStyleAnd</text>
<text text-anchor="middle" x="3043.5" y="-245.4" font-family="FreeSans" font-size="12.00">ToolsMixin</text>
</a>
</g>
</g>
<!-- Node2&#45;&gt;Node1 -->
<g id="edge1" class="edge">
<title>Node2&#45;&gt;Node1</title>
<path fill="none" stroke="midnightblue" d="M3137.43,-255C3146.22,-255 3155.14,-255 3163.92,-255"/>
<polygon fill="midnightblue" stroke="midnightblue" points="3137.18,-251.5 3127.18,-255 3137.18,-258.5 3137.18,-251.5"/>
</g>
<!-- Node3 -->
<g id="node3" class="node">
<title>Node3</title>
<g id="a_node3"><a xlink:href="class_j_k_q_t_base_plotter.html" target="_top" xlink:title="base class for 2D plotter classes (used by the plotter widget JKQTPlotter)">
<polygon fill="none" stroke="black" points="1964,-250.5 1964,-271.5 2073,-271.5 2073,-250.5 1964,-250.5"/>
<text text-anchor="middle" x="2018.5" y="-257.9" font-family="FreeSans" font-size="12.00">JKQTBasePlotter</text>
</a>
</g>
</g>
<!-- Node3&#45;&gt;Node2 -->
<g id="edge2" class="edge">
<title>Node3&#45;&gt;Node2</title>
<path fill="none" stroke="#9a32cd" stroke-dasharray="5,2" d="M2032.97,-242.28C2047.77,-223.38 2073.4,-195.15 2103,-182 2191.41,-142.73 2223.26,-165 2320,-165 2320,-165 2320,-165 2726,-165 2834.3,-165 2855.67,-203.93 2960,-233 2965.85,-234.63 2971.95,-236.3 2978.06,-237.96"/>
<polygon fill="#9a32cd" stroke="#9a32cd" points="2030.03,-240.38 2026.79,-250.46 2035.61,-244.6 2030.03,-240.38"/>
<text text-anchor="middle" x="2521.5" y="-168.4" font-family="FreeSans" font-size="12.00"> cbParent</text>
</g>
<!-- Node3&#45;&gt;Node3 -->
<g id="edge39" class="edge">
<title>Node3&#45;&gt;Node3</title>
<path fill="none" stroke="#9a32cd" stroke-dasharray="5,2" d="M1994.91,-281.43C1996.73,-286.35 2004.59,-290 2018.5,-290 2040.75,-290 2047.53,-280.65 2038.84,-271.71"/>
<polygon fill="#9a32cd" stroke="#9a32cd" points="1998.31,-282.3 1998.16,-271.71 1991.67,-280.08 1998.31,-282.3"/>
<text text-anchor="middle" x="2018.5" y="-306.4" font-family="FreeSans" font-size="12.00"> masterPlotterX</text>
<text text-anchor="middle" x="2018.5" y="-293.4" font-family="FreeSans" font-size="12.00">masterPlotterY</text>
</g>
<!-- Node17 -->
<g id="node17" class="node">
<title>Node17</title>
<g id="a_node17"><a xlink:href="class_j_k_q_t_p_graphs_model.html" target="_top" xlink:title="data model with all plots ina JKQTBasePlotter (+ allows to switch them visible/invisible)">
<polygon fill="none" stroke="black" points="2257,-193.5 2257,-214.5 2385,-214.5 2385,-193.5 2257,-193.5"/>
<text text-anchor="middle" x="2321" y="-200.9" font-family="FreeSans" font-size="12.00">JKQTPGraphsModel</text>
</a>
</g>
</g>
<!-- Node3&#45;&gt;Node17 -->
<g id="edge25" class="edge">
<title>Node3&#45;&gt;Node17</title>
<path fill="none" stroke="#9a32cd" stroke-dasharray="5,2" d="M2059,-247.28C2072.79,-242.87 2088.46,-238.28 2103,-235 2154.23,-223.44 2213.29,-215.34 2256.84,-210.32"/>
<polygon fill="#9a32cd" stroke="#9a32cd" points="2057.75,-244 2049.33,-250.44 2059.92,-250.66 2057.75,-244"/>
<text text-anchor="middle" x="2154.5" y="-238.4" font-family="FreeSans" font-size="12.00"> m_plotter</text>
</g>
<!-- Node20 -->
<g id="node20" class="node">
<title>Node20</title>
<g id="a_node20"><a xlink:href="class_j_k_q_t_p_coordinate_axis.html" target="_top" xlink:title="this virtual class is the base for any type of coordinate axis, to be drawn by JKQTBasePlotter.">
<polygon fill="none" stroke="black" points="2252.5,-344.5 2252.5,-365.5 2389.5,-365.5 2389.5,-344.5 2252.5,-344.5"/>
<text text-anchor="middle" x="2321" y="-351.9" font-family="FreeSans" font-size="12.00">JKQTPCoordinateAxis</text>
</a>
</g>
</g>
<!-- Node3&#45;&gt;Node20 -->
<g id="edge29" class="edge">
<title>Node3&#45;&gt;Node20</title>
<path fill="none" stroke="#9a32cd" stroke-dasharray="5,2" d="M2044.62,-276.9C2060.77,-286.51 2082.49,-298.35 2103,-306 2146.95,-322.39 2160.25,-318.67 2206,-329 2228.38,-334.05 2253.21,-339.71 2273.97,-344.45"/>
<polygon fill="#9a32cd" stroke="#9a32cd" points="2046.18,-273.75 2035.81,-271.54 2042.54,-279.73 2046.18,-273.75"/>
<text text-anchor="middle" x="2154.5" y="-332.4" font-family="FreeSans" font-size="12.00"> parent</text>
</g>
<!-- Node4 -->
<g id="node4" class="node">
<title>Node4</title>
<g id="a_node4"><a xlink:title=" ">
<polygon fill="none" stroke="black" points="1414,-345.5 1414,-366.5 1476,-366.5 1476,-345.5 1414,-345.5"/>
<text text-anchor="middle" x="1445" y="-352.9" font-family="FreeSans" font-size="12.00">QObject</text>
</a>
</g>
</g>
<!-- Node4&#45;&gt;Node3 -->
<g id="edge3" class="edge">
<title>Node4&#45;&gt;Node3</title>
<path fill="none" stroke="midnightblue" d="M1486.07,-349.64C1569.49,-336.36 1767.86,-304.54 1934,-276 1943.58,-274.35 1953.77,-272.56 1963.62,-270.8"/>
<polygon fill="midnightblue" stroke="midnightblue" points="1485.34,-346.22 1476.01,-351.24 1486.44,-353.13 1485.34,-346.22"/>
</g>
<!-- Node15 -->
<g id="node15" class="node">
<title>Node15</title>
<g id="a_node15"><a xlink:href="class_j_k_q_t_math_text.html" target="_top" xlink:title="this class parses a LaTeX string and can then draw the contained text/equation onto a QPainter">
<polygon fill="none" stroke="black" points="1711.5,-399.5 1711.5,-420.5 1809.5,-420.5 1809.5,-399.5 1711.5,-399.5"/>
<text text-anchor="middle" x="1760.5" y="-406.9" font-family="FreeSans" font-size="12.00">JKQTMathText</text>
</a>
</g>
</g>
<!-- Node4&#45;&gt;Node15 -->
<g id="edge19" class="edge">
<title>Node4&#45;&gt;Node15</title>
<path fill="none" stroke="midnightblue" d="M1486.23,-362.93C1543.8,-372.85 1649.53,-391.06 1711.24,-401.69"/>
<polygon fill="midnightblue" stroke="midnightblue" points="1486.51,-359.43 1476.06,-361.18 1485.32,-366.32 1486.51,-359.43"/>
</g>
<!-- Node4&#45;&gt;Node20 -->
<g id="edge28" class="edge">
<title>Node4&#45;&gt;Node20</title>
<path fill="none" stroke="midnightblue" d="M1486.21,-355.95C1624.19,-355.8 2079.36,-355.28 2252.42,-355.08"/>
<polygon fill="midnightblue" stroke="midnightblue" points="1486.08,-352.45 1476.09,-355.97 1486.09,-359.45 1486.08,-352.45"/>
</g>
<!-- Node5 -->
<g id="node5" class="node">
<title>Node5</title>
<g id="a_node5"><a xlink:href="class_j_k_q_t_base_plotter_style.html" target="_top" xlink:title="Support Class for JKQTBasePlotter, which summarizes all properties that define the visual styling of ...">
<polygon fill="none" stroke="black" points="1693,-246.5 1693,-267.5 1828,-267.5 1828,-246.5 1693,-246.5"/>
<text text-anchor="middle" x="1760.5" y="-253.9" font-family="FreeSans" font-size="12.00">JKQTBasePlotterStyle</text>
</a>
</g>
</g>
<!-- Node5&#45;&gt;Node3 -->
<g id="edge4" class="edge">
<title>Node5&#45;&gt;Node3</title>
<path fill="none" stroke="#9a32cd" stroke-dasharray="5,2" d="M1838.19,-258.2C1878.65,-258.83 1927.31,-259.59 1963.72,-260.16"/>
<polygon fill="#9a32cd" stroke="#9a32cd" points="1838.15,-254.7 1828.09,-258.04 1838.04,-261.7 1838.15,-254.7"/>
<text text-anchor="middle" x="1890" y="-262.4" font-family="FreeSans" font-size="12.00"> plotterStyle</text>
</g>
<!-- Node6 -->
<g id="node6" class="node">
<title>Node6</title>
<g id="a_node6"><a xlink:href="class_j_k_q_t_p_key_style.html" target="_top" xlink:title="Support Class for JKQTBasePlotter, which summarizes all properties that define the visual styling of ...">
<polygon fill="none" stroke="black" points="1393.5,-301.5 1393.5,-322.5 1496.5,-322.5 1496.5,-301.5 1393.5,-301.5"/>
<text text-anchor="middle" x="1445" y="-308.9" font-family="FreeSans" font-size="12.00">JKQTPKeyStyle</text>
</a>
</g>
</g>
<!-- Node6&#45;&gt;Node5 -->
<g id="edge5" class="edge">
<title>Node6&#45;&gt;Node5</title>
<path fill="none" stroke="#9a32cd" stroke-dasharray="5,2" d="M1506.71,-299.89C1522.12,-296.9 1538.66,-293.76 1554,-291 1600.27,-282.68 1652.54,-274.04 1692.78,-267.55"/>
<polygon fill="#9a32cd" stroke="#9a32cd" points="1505.91,-296.47 1496.77,-301.82 1507.25,-303.35 1505.91,-296.47"/>
<text text-anchor="middle" x="1614.5" y="-294.4" font-family="FreeSans" font-size="12.00"> keyStyle</text>
</g>
<!-- Node7 -->
<g id="node7" class="node">
<title>Node7</title>
<g id="a_node7"><a xlink:href="class_j_k_q_t_p_coordinate_axis_style.html" target="_top" xlink:title="Support Class for JKQTPCoordinateAxis, which summarizes all properties that define the visual styling...">
<polygon fill="none" stroke="black" points="1060,-250.5 1060,-271.5 1224,-271.5 1224,-250.5 1060,-250.5"/>
<text text-anchor="middle" x="1142" y="-257.9" font-family="FreeSans" font-size="12.00">JKQTPCoordinateAxisStyle</text>
</a>
</g>
</g>
<!-- Node7&#45;&gt;Node5 -->
<g id="edge6" class="edge">
<title>Node7&#45;&gt;Node5</title>
<path fill="none" stroke="#9a32cd" stroke-dasharray="5,2" d="M1234.57,-260.41C1359.91,-259.59 1581.95,-258.15 1692.74,-257.43"/>
<polygon fill="#9a32cd" stroke="#9a32cd" points="1234.21,-256.91 1224.23,-260.47 1234.25,-263.91 1234.21,-256.91"/>
<text text-anchor="middle" x="1445" y="-275.4" font-family="FreeSans" font-size="12.00"> xAxisStyle</text>
<text text-anchor="middle" x="1445" y="-262.4" font-family="FreeSans" font-size="12.00">yAxisStyle</text>
</g>
<!-- Node9 -->
<g id="node9" class="node">
<title>Node9</title>
<g id="a_node9"><a xlink:href="class_j_k_q_t_p_colorbar_coordinate_axis_style.html" target="_top" xlink:title="Support Class for JKQTPCoordinateAxis, which summarizes all properties that define the visual styling...">
<polygon fill="none" stroke="black" points="1354,-186 1354,-220 1536,-220 1536,-186 1354,-186"/>
<text text-anchor="start" x="1362" y="-206.4" font-family="FreeSans" font-size="12.00">JKQTPColorbarCoordinateAxis</text>
<text text-anchor="middle" x="1445" y="-193.4" font-family="FreeSans" font-size="12.00">Style</text>
</a>
</g>
</g>
<!-- Node7&#45;&gt;Node9 -->
<g id="edge9" class="edge">
<title>Node7&#45;&gt;Node9</title>
<path fill="none" stroke="midnightblue" d="M1207.34,-248.6C1250.58,-240.27 1308.13,-229.18 1355.65,-220.02"/>
<polygon fill="midnightblue" stroke="midnightblue" points="1206.67,-245.17 1197.51,-250.5 1207.99,-252.04 1206.67,-245.17"/>
</g>
<!-- Node7&#45;&gt;Node20 -->
<g id="edge30" class="edge">
<title>Node7&#45;&gt;Node20</title>
<path fill="none" stroke="#9a32cd" stroke-dasharray="5,2" d="M1154.4,-280.5C1189.56,-337.85 1302.56,-502 1444,-502 1444,-502 1444,-502 2019.5,-502 2143.79,-502 2270.27,-399.28 2308.42,-365.57"/>
<polygon fill="#9a32cd" stroke="#9a32cd" points="1157.24,-278.43 1149.09,-271.67 1151.24,-282.04 1157.24,-278.43"/>
<text text-anchor="middle" x="1760.5" y="-505.4" font-family="FreeSans" font-size="12.00"> axisStyle</text>
</g>
<!-- Node8 -->
<g id="node8" class="node">
<title>Node8</title>
<g id="a_node8"><a xlink:href="class_j_k_q_t_p_grid_style.html" target="_top" xlink:title="Support Class for JKQTPCoordinateAxis, and summarizes all properties that define the visual styling o...">
<polygon fill="none" stroke="black" points="783.5,-253.5 783.5,-274.5 887.5,-274.5 887.5,-253.5 783.5,-253.5"/>
<text text-anchor="middle" x="835.5" y="-260.9" font-family="FreeSans" font-size="12.00">JKQTPGridStyle</text>
</a>
</g>
</g>
<!-- Node8&#45;&gt;Node7 -->
<g id="edge7" class="edge">
<title>Node8&#45;&gt;Node7</title>
<path fill="none" stroke="#9a32cd" stroke-dasharray="5,2" d="M898.06,-263.39C944.67,-262.93 1009.11,-262.3 1059.91,-261.8"/>
<polygon fill="#9a32cd" stroke="#9a32cd" points="897.77,-259.9 887.81,-263.49 897.84,-266.9 897.77,-259.9"/>
<text text-anchor="middle" x="986.5" y="-278.4" font-family="FreeSans" font-size="12.00"> majorGridStyle</text>
<text text-anchor="middle" x="986.5" y="-265.4" font-family="FreeSans" font-size="12.00">minorGridStyle</text>
</g>
<!-- Node9&#45;&gt;Node5 -->
<g id="edge8" class="edge">
<title>Node9&#45;&gt;Node5</title>
<path fill="none" stroke="#9a32cd" stroke-dasharray="5,2" d="M1546.28,-200.92C1586.8,-202.19 1633.66,-206.37 1675,-217 1699.52,-223.3 1725.54,-236.78 1742.12,-246.34"/>
<polygon fill="#9a32cd" stroke="#9a32cd" points="1546.22,-197.42 1536.13,-200.66 1546.03,-204.41 1546.22,-197.42"/>
<text text-anchor="middle" x="1614.5" y="-233.4" font-family="FreeSans" font-size="12.00"> rightColorbarAxisStyle</text>
<text text-anchor="middle" x="1614.5" y="-220.4" font-family="FreeSans" font-size="12.00">topColorbarAxisStyle</text>
</g>
<!-- Node10 -->
<g id="node10" class="node">
<title>Node10</title>
<g id="a_node10"><a xlink:href="class_j_k_q_t_graphs_base_style.html" target="_top" xlink:title="Support Class for JKQTBasePlotter, which summarizes all properties that define the visual styling of ...">
<polygon fill="none" stroke="black" points="1374.5,-138.5 1374.5,-159.5 1515.5,-159.5 1515.5,-138.5 1374.5,-138.5"/>
<text text-anchor="middle" x="1445" y="-145.9" font-family="FreeSans" font-size="12.00">JKQTGraphsBaseStyle</text>
</a>
</g>
</g>
<!-- Node10&#45;&gt;Node5 -->
<g id="edge10" class="edge">
<title>Node10&#45;&gt;Node5</title>
<path fill="none" stroke="#9a32cd" stroke-dasharray="5,2" d="M1525.87,-150.36C1571.36,-153.75 1628.4,-162.51 1675,-184 1707.39,-198.94 1736.87,-230.11 1750.89,-246.47"/>
<polygon fill="#9a32cd" stroke="#9a32cd" points="1525.96,-146.86 1515.75,-149.68 1525.5,-153.85 1525.96,-146.86"/>
<text text-anchor="middle" x="1614.5" y="-187.4" font-family="FreeSans" font-size="12.00"> graphsStyle</text>
</g>
<!-- Node11 -->
<g id="node11" class="node">
<title>Node11</title>
<g id="a_node11"><a xlink:href="class_j_k_q_t_graphs_specific_style_properties.html" target="_top" xlink:title="Support Class for JKQTBasePlotter, which summarizes all properties that define the visual styling of ...">
<polygon fill="none" stroke="black" points="370,-118.5 370,-139.5 579,-139.5 579,-118.5 370,-118.5"/>
<text text-anchor="middle" x="474.5" y="-125.9" font-family="FreeSans" font-size="12.00">JKQTGraphsSpecificStyleProperties</text>
</a>
</g>
</g>
<!-- Node11&#45;&gt;Node10 -->
<g id="edge11" class="edge">
<title>Node11&#45;&gt;Node10</title>
<path fill="none" stroke="#9a32cd" stroke-dasharray="5,2" d="M569.18,-140.67C622.16,-146.65 689.67,-153.24 750,-156 1010.17,-167.9 1075.78,-168.82 1336,-158 1348.41,-157.48 1361.6,-156.64 1374.34,-155.66"/>
<polygon fill="#9a32cd" stroke="#9a32cd" points="569.46,-137.18 559.13,-139.52 568.67,-144.13 569.46,-137.18"/>
<text text-anchor="middle" x="986.5" y="-220.4" font-family="FreeSans" font-size="12.00"> barchartStyle</text>
<text text-anchor="middle" x="986.5" y="-207.4" font-family="FreeSans" font-size="12.00">boxplotStyle</text>
<text text-anchor="middle" x="986.5" y="-194.4" font-family="FreeSans" font-size="12.00">defaultGraphStyle</text>
<text text-anchor="middle" x="986.5" y="-181.4" font-family="FreeSans" font-size="12.00">filledStyle</text>
<text text-anchor="middle" x="986.5" y="-168.4" font-family="FreeSans" font-size="12.00">impulseStyle</text>
</g>
<!-- Node13 -->
<g id="node13" class="node">
<title>Node13</title>
<g id="a_node13"><a xlink:href="class_j_k_q_t_geometric_specific_style_properties.html" target="_top" xlink:title="Support Class for JKQTBasePlotter, which summarizes all properties that define the visual styling of ...">
<polygon fill="none" stroke="black" points="750,-112 750,-146 921,-146 921,-112 750,-112"/>
<text text-anchor="start" x="758" y="-132.4" font-family="FreeSans" font-size="12.00">JKQTGeometricSpecificStyle</text>
<text text-anchor="middle" x="835.5" y="-119.4" font-family="FreeSans" font-size="12.00">Properties</text>
</a>
</g>
</g>
<!-- Node11&#45;&gt;Node13 -->
<g id="edge14" class="edge">
<title>Node11&#45;&gt;Node13</title>
<path fill="none" stroke="midnightblue" d="M589.62,-129C641.61,-129 702.08,-129 749.92,-129"/>
<polygon fill="midnightblue" stroke="midnightblue" points="589.34,-125.5 579.34,-129 589.34,-132.5 589.34,-125.5"/>
</g>
<!-- Node12 -->
<g id="node12" class="node">
<title>Node12</title>
<g id="a_node12"><a xlink:href="struct_j_k_q_t_p_color_derivation_mode.html" target="_top" xlink:title="Specifies how a fill&#45;color is derived from a given color.">
<polygon fill="none" stroke="black" points="0,-87.5 0,-108.5 168,-108.5 168,-87.5 0,-87.5"/>
<text text-anchor="middle" x="84" y="-94.9" font-family="FreeSans" font-size="12.00">JKQTPColorDerivationMode</text>
</a>
</g>
</g>
<!-- Node12&#45;&gt;Node11 -->
<g id="edge12" class="edge">
<title>Node12&#45;&gt;Node11</title>
<path fill="none" stroke="#9a32cd" stroke-dasharray="5,2" d="M178.55,-105.47C236.27,-110.07 310.37,-115.98 369.86,-120.73"/>
<polygon fill="#9a32cd" stroke="#9a32cd" points="178.59,-101.96 168.34,-104.65 178.03,-108.93 178.59,-101.96"/>
<text text-anchor="middle" x="269" y="-173.4" font-family="FreeSans" font-size="12.00"> errorColorDerivationMode</text>
<text text-anchor="middle" x="269" y="-160.4" font-family="FreeSans" font-size="12.00">errorFillColorDerivationMode</text>
<text text-anchor="middle" x="269" y="-147.4" font-family="FreeSans" font-size="12.00">fillColorDerivationMode</text>
<text text-anchor="middle" x="269" y="-134.4" font-family="FreeSans" font-size="12.00">graphColorDerivationMode</text>
<text text-anchor="middle" x="269" y="-121.4" font-family="FreeSans" font-size="12.00">symbolFillColorDerivationMode</text>
</g>
<!-- Node14 -->
<g id="node14" class="node">
<title>Node14</title>
<g id="a_node14"><a xlink:href="class_j_k_q_t_annotations_specific_style_properties.html" target="_top" xlink:title="Support Class for JKQTBasePlotter, which summarizes all properties that define the visual styling of ...">
<polygon fill="none" stroke="black" points="1052,-64 1052,-98 1232,-98 1232,-64 1052,-64"/>
<text text-anchor="start" x="1060" y="-84.4" font-family="FreeSans" font-size="12.00">JKQTAnnotationsSpecificStyle</text>
<text text-anchor="middle" x="1142" y="-71.4" font-family="FreeSans" font-size="12.00">Properties</text>
</a>
</g>
</g>
<!-- Node12&#45;&gt;Node14 -->
<g id="edge17" class="edge">
<title>Node12&#45;&gt;Node14</title>
<path fill="none" stroke="#9a32cd" stroke-dasharray="5,2" d="M178.58,-96.49C380.4,-93.24 854.29,-85.62 1051.96,-82.43"/>
<polygon fill="#9a32cd" stroke="#9a32cd" points="178.25,-93 168.3,-96.66 178.36,-100 178.25,-93"/>
<text text-anchor="middle" x="664.5" y="-92.4" font-family="FreeSans" font-size="12.00"> textColorDerivationMode</text>
</g>
<!-- Node13&#45;&gt;Node10 -->
<g id="edge13" class="edge">
<title>Node13&#45;&gt;Node10</title>
<path fill="none" stroke="#9a32cd" stroke-dasharray="5,2" d="M931.44,-132.13C1054.3,-136.17 1265.48,-143.12 1374.45,-146.71"/>
<polygon fill="#9a32cd" stroke="#9a32cd" points="931.4,-128.62 921.29,-131.79 931.17,-135.62 931.4,-128.62"/>
<text text-anchor="middle" x="1142" y="-144.4" font-family="FreeSans" font-size="12.00"> geometricStyle</text>
</g>
<!-- Node13&#45;&gt;Node14 -->
<g id="edge16" class="edge">
<title>Node13&#45;&gt;Node14</title>
<path fill="none" stroke="midnightblue" d="M931.48,-114.03C969.91,-107.97 1014.04,-101.01 1051.85,-95.05"/>
<polygon fill="midnightblue" stroke="midnightblue" points="930.65,-110.61 921.32,-115.63 931.74,-117.53 930.65,-110.61"/>
</g>
<!-- Node14&#45;&gt;Node10 -->
<g id="edge15" class="edge">
<title>Node14&#45;&gt;Node10</title>
<path fill="none" stroke="#9a32cd" stroke-dasharray="5,2" d="M1242.37,-90.58C1272.7,-94.66 1305.97,-100.3 1336,-108 1366.11,-115.72 1399.35,-129.12 1420.89,-138.49"/>
<polygon fill="#9a32cd" stroke="#9a32cd" points="1242.57,-87.08 1232.21,-89.25 1241.67,-94.02 1242.57,-87.08"/>
<text text-anchor="middle" x="1293" y="-111.4" font-family="FreeSans" font-size="12.00"> annotationStyle</text>
</g>
<!-- Node15&#45;&gt;Node3 -->
<g id="edge18" class="edge">
<title>Node15&#45;&gt;Node3</title>
<path fill="none" stroke="#9a32cd" stroke-dasharray="5,2" d="M1801.13,-395.75C1837.17,-381.95 1891.11,-359.17 1934,-332 1962.61,-313.87 1991.8,-286.63 2006.94,-271.71"/>
<polygon fill="#9a32cd" stroke="#9a32cd" points="1799.59,-392.59 1791.47,-399.4 1802.06,-399.14 1799.59,-392.59"/>
<text text-anchor="middle" x="1890" y="-379.4" font-family="FreeSans" font-size="12.00"> mathText</text>
</g>
<!-- Node16 -->
<g id="node16" class="node">
<title>Node16</title>
<g id="a_node16"><a xlink:href="class_j_k_q_t_math_text_node.html" target="_top" xlink:title="subclass representing one node in the syntax tree">
<polygon fill="none" stroke="black" points="1954.5,-418.5 1954.5,-439.5 2082.5,-439.5 2082.5,-418.5 1954.5,-418.5"/>
<text text-anchor="middle" x="2018.5" y="-425.9" font-family="FreeSans" font-size="12.00">JKQTMathTextNode</text>
</a>
</g>
</g>
<!-- Node15&#45;&gt;Node16 -->
<g id="edge21" class="edge">
<title>Node15&#45;&gt;Node16</title>
<path fill="none" stroke="#9a32cd" stroke-dasharray="5,2" d="M1786.01,-425.98C1802.29,-435.61 1824.54,-446.96 1846,-452 1894.84,-463.47 1952.94,-450.19 1987.44,-439.57"/>
<polygon fill="#9a32cd" stroke="#9a32cd" points="1787.52,-422.8 1777.17,-420.57 1783.87,-428.77 1787.52,-422.8"/>
<text text-anchor="middle" x="1890" y="-459.4" font-family="FreeSans" font-size="12.00"> parentMathText</text>
</g>
<!-- Node16&#45;&gt;Node15 -->
<g id="edge20" class="edge">
<title>Node16&#45;&gt;Node15</title>
<path fill="none" stroke="#9a32cd" stroke-dasharray="5,2" d="M1943.91,-423.54C1900.76,-420.34 1847.46,-416.38 1809.65,-413.57"/>
<polygon fill="#9a32cd" stroke="#9a32cd" points="1943.85,-427.04 1954.08,-424.29 1944.37,-420.06 1943.85,-427.04"/>
<text text-anchor="middle" x="1890" y="-438.4" font-family="FreeSans" font-size="12.00"> parsedNode</text>
<text text-anchor="middle" x="1890" y="-425.4" font-family="FreeSans" font-size="12.00">unparsedNode</text>
</g>
<!-- Node16&#45;&gt;Node16 -->
<g id="edge22" class="edge">
<title>Node16&#45;&gt;Node16</title>
<path fill="none" stroke="#9a32cd" stroke-dasharray="5,2" d="M1994.91,-449.43C1996.73,-454.35 2004.59,-458 2018.5,-458 2040.75,-458 2047.53,-448.65 2038.84,-439.71"/>
<polygon fill="#9a32cd" stroke="#9a32cd" points="1998.31,-450.3 1998.16,-439.71 1991.67,-448.08 1998.31,-450.3"/>
<text text-anchor="middle" x="2018.5" y="-461.4" font-family="FreeSans" font-size="12.00"> parentNode</text>
</g>
<!-- Node17&#45;&gt;Node3 -->
<g id="edge23" class="edge">
<title>Node17&#45;&gt;Node3</title>
<path fill="none" stroke="#9a32cd" stroke-dasharray="5,2" d="M2259.4,-191.91C2214.97,-185.57 2153.78,-182.21 2103,-199 2072.49,-209.09 2044.04,-235.12 2029.53,-250.05"/>
<polygon fill="#9a32cd" stroke="#9a32cd" points="2259.06,-195.39 2269.47,-193.43 2260.1,-188.47 2259.06,-195.39"/>
<text text-anchor="middle" x="2154.5" y="-202.4" font-family="FreeSans" font-size="12.00"> m_plotsModel</text>
</g>
<!-- Node18 -->
<g id="node18" class="node">
<title>Node18</title>
<g id="a_node18"><a xlink:title=" ">
<polygon fill="none" stroke="black" points="1952,-129.5 1952,-150.5 2085,-150.5 2085,-129.5 1952,-129.5"/>
<text text-anchor="middle" x="2018.5" y="-136.9" font-family="FreeSans" font-size="12.00">QAbstractTableModel</text>
</a>
</g>
</g>
<!-- Node18&#45;&gt;Node17 -->
<g id="edge24" class="edge">
<title>Node18&#45;&gt;Node17</title>
<path fill="none" stroke="midnightblue" d="M2079.25,-152.72C2135.21,-164.64 2217.86,-182.25 2270.3,-193.42"/>
<polygon fill="midnightblue" stroke="midnightblue" points="2079.63,-149.23 2069.12,-150.57 2078.17,-156.07 2079.63,-149.23"/>
</g>
<!-- Node19 -->
<g id="node19" class="node">
<title>Node19</title>
<g id="a_node19"><a xlink:href="class_j_k_q_t_p_horizontal_axis.html" target="_top" xlink:title="implements a horizontal axis, based on JKQTPCoordinateAxis (for most of documentation: see JKQTPCoord...">
<polygon fill="none" stroke="black" points="2455,-296.5 2455,-317.5 2588,-317.5 2588,-296.5 2455,-296.5"/>
<text text-anchor="middle" x="2521.5" y="-303.9" font-family="FreeSans" font-size="12.00">JKQTPHorizontalAxis</text>
</a>
</g>
</g>
<!-- Node19&#45;&gt;Node3 -->
<g id="edge26" class="edge">
<title>Node19&#45;&gt;Node3</title>
<path fill="none" stroke="#9a32cd" stroke-dasharray="5,2" d="M2444.75,-302.24C2361,-296.64 2222.15,-286.4 2103,-273 2093.39,-271.92 2083.19,-270.6 2073.34,-269.23"/>
<polygon fill="#9a32cd" stroke="#9a32cd" points="2444.73,-305.74 2454.94,-302.91 2445.19,-298.76 2444.73,-305.74"/>
<text text-anchor="middle" x="2321" y="-303.4" font-family="FreeSans" font-size="12.00"> xAxis</text>
</g>
<!-- Node28 -->
<g id="node28" class="node">
<title>Node28</title>
<g id="a_node28"><a xlink:href="class_j_k_q_t_p_horizontal_independent_axis.html" target="_top" xlink:title="implements a position&#45;indipendent horizontal axis, based on JKQTPCoordinateAxis (for most of document...">
<polygon fill="none" stroke="black" points="2625,-296.5 2625,-317.5 2825,-317.5 2825,-296.5 2625,-296.5"/>
<text text-anchor="middle" x="2725" y="-303.9" font-family="FreeSans" font-size="12.00">JKQTPHorizontalIndependentAxis</text>
</a>
</g>
</g>
<!-- Node19&#45;&gt;Node28 -->
<g id="edge43" class="edge">
<title>Node19&#45;&gt;Node28</title>
<path fill="none" stroke="midnightblue" d="M2598.24,-307C2606.91,-307 2615.84,-307 2624.76,-307"/>
<polygon fill="midnightblue" stroke="midnightblue" points="2598.2,-303.5 2588.2,-307 2598.2,-310.5 2598.2,-303.5"/>
</g>
<!-- Node20&#45;&gt;Node19 -->
<g id="edge27" class="edge">
<title>Node20&#45;&gt;Node19</title>
<path fill="none" stroke="midnightblue" d="M2399.76,-348.38C2412.32,-346.5 2425.09,-344.09 2437,-341 2458.82,-335.34 2482.51,-325.29 2499.06,-317.58"/>
<polygon fill="midnightblue" stroke="midnightblue" points="2399.18,-344.93 2389.76,-349.78 2400.15,-351.86 2399.18,-344.93"/>
</g>
<!-- Node21 -->
<g id="node21" class="node">
<title>Node21</title>
<g id="a_node21"><a xlink:href="class_j_k_q_t_p_vertical_axis.html" target="_top" xlink:title="implements a vertical axis, based on JKQTPCoordinateAxis (for most of documentation: see JKQTPCoordin...">
<polygon fill="none" stroke="black" points="2462.5,-245.5 2462.5,-266.5 2580.5,-266.5 2580.5,-245.5 2462.5,-245.5"/>
<text text-anchor="middle" x="2521.5" y="-252.9" font-family="FreeSans" font-size="12.00">JKQTPVerticalAxis</text>
</a>
</g>
</g>
<!-- Node20&#45;&gt;Node21 -->
<g id="edge32" class="edge">
<title>Node20&#45;&gt;Node21</title>
<path fill="none" stroke="midnightblue" d="M2375.16,-341.21C2389.62,-336.29 2404.89,-329.93 2418,-322 2437.36,-310.28 2436.32,-299.78 2455,-287 2466.84,-278.9 2481.12,-271.87 2493.33,-266.56"/>
<polygon fill="midnightblue" stroke="midnightblue" points="2373.75,-337.99 2365.31,-344.4 2375.9,-344.65 2373.75,-337.99"/>
</g>
<!-- Node21&#45;&gt;Node3 -->
<g id="edge31" class="edge">
<title>Node21&#45;&gt;Node3</title>
<path fill="none" stroke="#9a32cd" stroke-dasharray="5,2" d="M2452.19,-256.68C2351.36,-257.69 2164.76,-259.55 2073.12,-260.46"/>
<polygon fill="#9a32cd" stroke="#9a32cd" points="2452.31,-260.18 2462.27,-256.58 2452.24,-253.18 2452.31,-260.18"/>
<text text-anchor="middle" x="2321" y="-261.4" font-family="FreeSans" font-size="12.00"> yAxis</text>
</g>
<!-- Node27 -->
<g id="node27" class="node">
<title>Node27</title>
<g id="a_node27"><a xlink:href="class_j_k_q_t_p_vertical_independent_axis.html" target="_top" xlink:title="implements a position&#45;indipendent vertical axis, based on JKQTPCoordinateAxis (for most of documentat...">
<polygon fill="none" stroke="black" points="2632.5,-234.5 2632.5,-255.5 2817.5,-255.5 2817.5,-234.5 2632.5,-234.5"/>
<text text-anchor="middle" x="2725" y="-241.9" font-family="FreeSans" font-size="12.00">JKQTPVerticalIndependentAxis</text>
</a>
</g>
</g>
<!-- Node21&#45;&gt;Node27 -->
<g id="edge41" class="edge">
<title>Node21&#45;&gt;Node27</title>
<path fill="none" stroke="midnightblue" d="M2590.56,-252.28C2603.95,-251.55 2618.21,-250.78 2632.23,-250.01"/>
<polygon fill="midnightblue" stroke="midnightblue" points="2590.31,-248.79 2580.51,-252.83 2590.69,-255.78 2590.31,-248.79"/>
</g>
<!-- Node22 -->
<g id="node22" class="node">
<title>Node22</title>
<g id="a_node22"><a xlink:href="class_j_k_q_t_p_datastore.html" target="_top" xlink:title="This class manages data columns (with entries of type double ), used by JKQTPlotter/JKQTBasePlotter t...">
<polygon fill="none" stroke="black" points="1707,-89.5 1707,-110.5 1814,-110.5 1814,-89.5 1707,-89.5"/>
<text text-anchor="middle" x="1760.5" y="-96.9" font-family="FreeSans" font-size="12.00">JKQTPDatastore</text>
</a>
</g>
</g>
<!-- Node22&#45;&gt;Node3 -->
<g id="edge33" class="edge">
<title>Node22&#45;&gt;Node3</title>
<path fill="none" stroke="#9a32cd" stroke-dasharray="5,2" d="M1786.95,-116C1839.09,-148.79 1956.81,-222.83 2000.64,-250.4"/>
<polygon fill="#9a32cd" stroke="#9a32cd" points="1788.63,-112.92 1778.3,-110.56 1784.9,-118.85 1788.63,-112.92"/>
<text text-anchor="middle" x="1890" y="-207.4" font-family="FreeSans" font-size="12.00"> datastore</text>
</g>
<!-- Node24 -->
<g id="node24" class="node">
<title>Node24</title>
<g id="a_node24"><a xlink:href="class_j_k_q_t_p_column.html" target="_top" xlink:title="internally stores information about one data column. See JKQTPDatastore for more information.">
<polygon fill="none" stroke="black" points="1970.5,-89.5 1970.5,-110.5 2066.5,-110.5 2066.5,-89.5 1970.5,-89.5"/>
<text text-anchor="middle" x="2018.5" y="-96.9" font-family="FreeSans" font-size="12.00">JKQTPColumn</text>
</a>
</g>
</g>
<!-- Node22&#45;&gt;Node24 -->
<g id="edge36" class="edge">
<title>Node22&#45;&gt;Node24</title>
<path fill="none" stroke="#9a32cd" stroke-dasharray="5,2" d="M1824.5,-100C1869.62,-100 1929.43,-100 1970.44,-100"/>
<polygon fill="#9a32cd" stroke="#9a32cd" points="1824.23,-96.5 1814.23,-100 1824.23,-103.5 1824.23,-96.5"/>
<text text-anchor="middle" x="1890" y="-103.4" font-family="FreeSans" font-size="12.00"> datastore</text>
</g>
<!-- Node23 -->
<g id="node23" class="node">
<title>Node23</title>
<g id="a_node23"><a xlink:title=" ">
<polygon fill="none" stroke="black" points="2224,-47.5 2224,-68.5 2418,-68.5 2418,-47.5 2224,-47.5"/>
<text text-anchor="middle" x="2321" y="-54.9" font-family="FreeSans" font-size="12.00">std::unique_ptr&lt; JKQTPColumn &gt;</text>
</a>
</g>
</g>
<!-- Node23&#45;&gt;Node22 -->
<g id="edge34" class="edge">
<title>Node23&#45;&gt;Node22</title>
<path fill="none" stroke="#9a32cd" stroke-dasharray="5,2" d="M2213.48,-56.47C2139.86,-56.43 2039.78,-58.37 1952,-67 1903.56,-71.76 1848.88,-81.72 1810.57,-89.45"/>
<polygon fill="#9a32cd" stroke="#9a32cd" points="2213.68,-59.97 2223.68,-56.49 2213.69,-52.97 2213.68,-59.97"/>
<text text-anchor="middle" x="2018.5" y="-70.4" font-family="FreeSans" font-size="12.00"> m_invalidColumn</text>
</g>
<!-- Node24&#45;&gt;Node23 -->
<g id="edge35" class="edge">
<title>Node24&#45;&gt;Node23</title>
<path fill="none" stroke="#9a32cd" stroke-dasharray="5,2" d="M2076.92,-91.97C2124.55,-85.32 2192.63,-75.8 2244.63,-68.53"/>
<polygon fill="#9a32cd" stroke="#9a32cd" points="2076.2,-88.54 2066.78,-93.39 2077.17,-95.47 2076.2,-88.54"/>
<text text-anchor="middle" x="2154.5" y="-90.4" font-family="FreeSans" font-size="12.00"> ptr</text>
</g>
<!-- Node25 -->
<g id="node25" class="node">
<title>Node25</title>
<g id="a_node25"><a xlink:title=" ">
<polygon fill="none" stroke="black" points="1957.5,-0.5 1957.5,-21.5 2079.5,-21.5 2079.5,-0.5 1957.5,-0.5"/>
<text text-anchor="middle" x="2018.5" y="-7.9" font-family="FreeSans" font-size="12.00">std::unique_ptr&lt; T &gt;</text>
</a>
</g>
</g>
<!-- Node25&#45;&gt;Node23 -->
<g id="edge37" class="edge">
<title>Node25&#45;&gt;Node23</title>
<path fill="none" stroke="orange" stroke-dasharray="5,2" d="M2089.95,-16.45C2124.98,-19.69 2167.88,-24.47 2206,-31 2231.16,-35.31 2259.05,-41.88 2280.94,-47.47"/>
<polygon fill="orange" stroke="orange" points="2090.09,-12.95 2079.82,-15.53 2089.46,-19.92 2090.09,-12.95"/>
<text text-anchor="middle" x="2154.5" y="-34.4" font-family="FreeSans" font-size="12.00"> &lt; JKQTPColumn &gt;</text>
</g>
<!-- Node26 -->
<g id="node26" class="node">
<title>Node26</title>
<g id="a_node26"><a xlink:title=" ">
<polygon fill="none" stroke="black" points="1746,-0.5 1746,-21.5 1775,-21.5 1775,-0.5 1746,-0.5"/>
<text text-anchor="middle" x="1760.5" y="-7.9" font-family="FreeSans" font-size="12.00">T</text>
</a>
</g>
</g>
<!-- Node26&#45;&gt;Node25 -->
<g id="edge38" class="edge">
<title>Node26&#45;&gt;Node25</title>
<path fill="none" stroke="#9a32cd" stroke-dasharray="5,2" d="M1785.61,-11C1824.6,-11 1902.65,-11 1957.39,-11"/>
<polygon fill="#9a32cd" stroke="#9a32cd" points="1785.26,-7.5 1775.26,-11 1785.26,-14.5 1785.26,-7.5"/>
<text text-anchor="middle" x="1890" y="-14.4" font-family="FreeSans" font-size="12.00"> ptr</text>
</g>
<!-- Node27&#45;&gt;Node1 -->
<g id="edge44" class="edge">
<title>Node27&#45;&gt;Node1</title>
<path fill="none" stroke="#9a32cd" stroke-dasharray="5,2" d="M2785.85,-232.56C2864.49,-218.06 3006.73,-198.22 3127,-216 3155.7,-220.24 3186.86,-229.53 3211.37,-237.97"/>
<polygon fill="#9a32cd" stroke="#9a32cd" points="2784.83,-229.19 2775.65,-234.47 2786.12,-236.07 2784.83,-229.19"/>
<text text-anchor="middle" x="3043.5" y="-219.4" font-family="FreeSans" font-size="12.00"> modifierColorBarTopAxis</text>
</g>
<!-- Node27&#45;&gt;Node2 -->
<g id="edge40" class="edge">
<title>Node27&#45;&gt;Node2</title>
<path fill="none" stroke="#9a32cd" stroke-dasharray="5,2" d="M2827.79,-243.7C2863.88,-243.71 2904.76,-244.25 2942,-246 2947.86,-246.28 2953.91,-246.63 2960,-247.05"/>
<polygon fill="#9a32cd" stroke="#9a32cd" points="2827.74,-240.2 2817.75,-243.71 2827.75,-247.2 2827.74,-240.2"/>
<text text-anchor="middle" x="2892.5" y="-249.4" font-family="FreeSans" font-size="12.00"> colorBarRightAxis</text>
</g>
<!-- Node28&#45;&gt;Node1 -->
<g id="edge45" class="edge">
<title>Node28&#45;&gt;Node1</title>
<path fill="none" stroke="#9a32cd" stroke-dasharray="5,2" d="M2835.49,-304.66C2916.36,-301.84 3028.94,-295.64 3127,-282 3145.36,-279.45 3165.01,-275.81 3183.31,-272.02"/>
<polygon fill="#9a32cd" stroke="#9a32cd" points="2835.17,-301.17 2825.3,-305 2835.41,-308.16 2835.17,-301.17"/>
<text text-anchor="middle" x="3043.5" y="-301.4" font-family="FreeSans" font-size="12.00"> modifierColorBarRightAxis</text>
</g>
<!-- Node28&#45;&gt;Node2 -->
<g id="edge42" class="edge">
<title>Node28&#45;&gt;Node2</title>
<path fill="none" stroke="#9a32cd" stroke-dasharray="5,2" d="M2781.31,-294.28C2800.75,-290.05 2822.79,-285.52 2843,-282 2881.22,-275.34 2923.8,-269.38 2959.78,-264.76"/>
<polygon fill="#9a32cd" stroke="#9a32cd" points="2780.42,-290.89 2771.41,-296.46 2781.92,-297.73 2780.42,-290.89"/>
<text text-anchor="middle" x="2892.5" y="-285.4" font-family="FreeSans" font-size="12.00"> colorBarTopAxis</text>
</g>
</g>
</svg>
        <g id="navigator" transform="translate(0 0)" fill="#404254">
                <rect fill="#f2f5e9" fill-opacity="0.5" stroke="#606060" stroke-width=".5" x="0" y="0" width="60" height="60"/>
                <use id="zoomplus" xlink:href="#zoomPlus" x="17" y="9" onmousedown="handleZoom(evt,'in')"/>
                <use id="zoomminus" xlink:href="#zoomMin" x="42" y="9" onmousedown="handleZoom(evt,'out')"/>
                <use id="reset" xlink:href="#resetDef" x="30" y="36" onmousedown="handleReset()"/>
                <g id="arrowUp" xlink:href="#dirArrow" transform="translate(30 24)" onmousedown="handlePan(0,-1)">
                  <use xlink:href="#rim" fill="#404040">
                        <set attributeName="fill" to="#808080" begin="arrowUp.mouseover" end="arrowUp.mouseout"/>
                  </use>
                  <path fill="none" stroke="white" stroke-width="1.5" d="M0,-3.0v7 M-2.5,-0.5L0,-3.0L2.5,-0.5"/>
                </g>
                <g id="arrowRight" xlink:href="#dirArrow" transform="rotate(90) translate(36 -43)" onmousedown="handlePan(1,0)">
                  <use xlink:href="#rim" fill="#404040">
                        <set attributeName="fill" to="#808080" begin="arrowRight.mouseover" end="arrowRight.mouseout"/>
                  </use>
                  <path fill="none" stroke="white" stroke-width="1.5" d="M0,-3.0v7 M-2.5,-0.5L0,-3.0L2.5,-0.5"/>
                </g>
                <g id="arrowDown" xlink:href="#dirArrow" transform="rotate(180) translate(-30 -48)" onmousedown="handlePan(0,1)">
                  <use xlink:href="#rim" fill="#404040">
                        <set attributeName="fill" to="#808080" begin="arrowDown.mouseover" end="arrowDown.mouseout"/>
                  </use>
                  <path fill="none" stroke="white" stroke-width="1.5" d="M0,-3.0v7 M-2.5,-0.5L0,-3.0L2.5,-0.5"/>
                </g>
                <g id="arrowLeft" xlink:href="#dirArrow" transform="rotate(270) translate(-36 17)" onmousedown="handlePan(-1,0)">
                  <use xlink:href="#rim" fill="#404040">
                        <set attributeName="fill" to="#808080" begin="arrowLeft.mouseover" end="arrowLeft.mouseout"/>
                  </use>
                  <path fill="none" stroke="white" stroke-width="1.5" d="M0,-3.0v7 M-2.5,-0.5L0,-3.0L2.5,-0.5"/>
                </g>
        </g>
        <svg viewBox="0 0 15 15" width="100%" height="30px" preserveAspectRatio="xMaxYMin meet">
         <g id="arrow_out" transform="scale(0.3 0.3)">
          <a xlink:href="class_j_k_q_t_p_color_palette_with_modifier_style_and_tools_mixin__coll__graph_org.svg" target="_base">
           <rect id="button" ry="5" rx="5" y="6" x="6" height="38" width="38"
                fill="#f2f5e9" fill-opacity="0.5" stroke="#606060" stroke-width="1.0"/>
           <path id="arrow"
             d="M 11.500037,31.436501 C 11.940474,20.09759 22.043105,11.32322 32.158766,21.979434 L 37.068811,17.246167 C 37.068811,17.246167 37.088388,32 37.088388,32 L 22.160133,31.978069 C 22.160133,31.978069 26.997745,27.140456 26.997745,27.140456 C 18.528582,18.264221 13.291696,25.230495 11.500037,31.436501 z"
             style="fill:#404040;"/>
          </a>
         </g>
        </svg>
</svg>
