<?xml version="1.0" encoding="UTF-8" standalone="no"?>
<!DOCTYPE svg PUBLIC "-//W3C//DTD SVG 1.1//EN"
 "http://www.w3.org/Graphics/SVG/1.1/DTD/svg11.dtd">
<!-- Generated by graphviz version 2.43.0 (0)
 -->
<!-- Title: JKQTPImageBase Pages: 1 -->
<!--zoomable 146 -->
<svg id="main" version="1.1" xmlns="http://www.w3.org/2000/svg" xmlns:xlink="http://www.w3.org/1999/xlink" xml:space="preserve" onload="init(evt)">
<style type="text/css"><![CDATA[
.edge:hover path { stroke: red; }
.edge:hover polygon { stroke: red; fill: red; }
]]></style>
<script type="text/javascript"><![CDATA[
var edges = document.getElementsByTagName('g');
if (edges && edges.length) {
  for (var i=0;i<edges.length;i++) {
    if (edges[i].id.substr(0,4)=='edge') {
      edges[i].setAttribute('class','edge');
    }
  }
}
]]></script>
        <defs>
                <circle id="rim" cx="0" cy="0" r="7"/>
                <circle id="rim2" cx="0" cy="0" r="3.5"/>
                <g id="zoomPlus">
                        <use xlink:href="#rim" fill="#404040">
                                <set attributeName="fill" to="#808080" begin="zoomplus.mouseover" end="zoomplus.mouseout"/>
                        </use>
                        <path d="M-4,0h8M0,-4v8" fill="none" stroke="white" stroke-width="1.5" pointer-events="none"/>
                </g>
                <g id="zoomMin">
                        <use xlink:href="#rim" fill="#404040">
                                <set attributeName="fill" to="#808080" begin="zoomminus.mouseover" end="zoomminus.mouseout"/>
                        </use>
                        <path d="M-4,0h8" fill="none" stroke="white" stroke-width="1.5" pointer-events="none"/>
                </g>
                <g id="dirArrow">
                        <path fill="none" stroke="white" stroke-width="1.5" d="M0,-3.0v7 M-2.5,-0.5L0,-3.0L2.5,-0.5"/>
                </g>
               <g id="resetDef">
                       <use xlink:href="#rim2" fill="#404040">
                               <set attributeName="fill" to="#808080" begin="reset.mouseover" end="reset.mouseout"/>
                       </use>
               </g>
        </defs>

<script type="text/javascript">
var viewWidth = 1417;
var viewHeight = 146;
var sectionId = 'dynsection-0';
</script>
<script xlink:href="svgpan.js"/>
<svg id="graph" class="graph">
<g id="viewport">
<title>JKQTPImageBase</title>
<!-- Node1 -->
<g id="node1" class="node">
<title>Node1</title>
<g id="a_node1"><a xlink:title="base class for plotting an image">
<polygon fill="#999999" stroke="#666666" points="507,-60 387,-60 387,-39 507,-39 507,-60"/>
<text text-anchor="middle" x="447" y="-46.4" font-family="Helvetica,sans-Serif" font-size="12.00">JKQTPImageBase</text>
</a>
</g>
</g>
<!-- Node5 -->
<g id="node5" class="node">
<title>Node5</title>
<g id="a_node5"><a xlink:href="class_j_k_q_t_p_image.html" target="_top" xlink:title="class to plot an image from a QImage object">
<polygon fill="white" stroke="#666666" points="663.5,-99 572.5,-99 572.5,-78 663.5,-78 663.5,-99"/>
<text text-anchor="middle" x="618" y="-85.4" font-family="Helvetica,sans-Serif" font-size="12.00">JKQTPImage</text>
</a>
</g>
</g>
<!-- Node1&#45;&gt;Node5 -->
<g id="edge4" class="edge">
<title>Node1&#45;&gt;Node5</title>
<path fill="none" stroke="#63b8ff" d="M503.74,-62.36C526.03,-67.51 551.36,-73.35 572.4,-78.21"/>
<polygon fill="#63b8ff" stroke="#63b8ff" points="504.26,-58.89 493.73,-60.05 502.69,-65.71 504.26,-58.89"/>
</g>
<!-- Node6 -->
<g id="node6" class="node">
<title>Node6</title>
<g id="a_node6"><a xlink:href="class_j_k_q_t_p_math_image_base.html" target="_top" xlink:title="base class to hold an image from an 2&#45;dimensional array of values">
<polygon fill="white" stroke="#666666" points="693,-60 543,-60 543,-39 693,-39 693,-60"/>
<text text-anchor="middle" x="618" y="-46.4" font-family="Helvetica,sans-Serif" font-size="12.00">JKQTPMathImageBase</text>
</a>
</g>
</g>
<!-- Node1&#45;&gt;Node6 -->
<g id="edge5" class="edge">
<title>Node1&#45;&gt;Node6</title>
<path fill="none" stroke="#63b8ff" d="M517.25,-49.5C525.66,-49.5 534.29,-49.5 542.77,-49.5"/>
<polygon fill="#63b8ff" stroke="#63b8ff" points="517.11,-46 507.11,-49.5 517.11,-53 517.11,-46"/>
</g>
<!-- Node13 -->
<g id="node13" class="node">
<title>Node13</title>
<g id="a_node13"><a xlink:href="class_j_k_q_t_p_overlay_image.html" target="_top" xlink:title="class to plot an image from an 2&#45;dimensional array of boolean values: alle true values are plotted in...">
<polygon fill="white" stroke="#666666" points="686.5,-21 549.5,-21 549.5,0 686.5,0 686.5,-21"/>
<text text-anchor="middle" x="618" y="-7.4" font-family="Helvetica,sans-Serif" font-size="12.00">JKQTPOverlayImage</text>
</a>
</g>
</g>
<!-- Node1&#45;&gt;Node13 -->
<g id="edge12" class="edge">
<title>Node1&#45;&gt;Node13</title>
<path fill="none" stroke="#63b8ff" d="M503.57,-36.68C525.5,-31.62 550.37,-25.88 571.23,-21.06"/>
<polygon fill="#63b8ff" stroke="#63b8ff" points="502.69,-33.29 493.73,-38.95 504.26,-40.11 502.69,-33.29"/>
</g>
<!-- Node2 -->
<g id="node2" class="node">
<title>Node2</title>
<g id="a_node2"><a xlink:href="class_j_k_q_t_p_graph.html" target="_top" xlink:title="this virtual base class of the (data&#45;column based) graphs, which are part of a JKQTPlotter plot and w...">
<polygon fill="white" stroke="#666666" points="351,-60 262,-60 262,-39 351,-39 351,-60"/>
<text text-anchor="middle" x="306.5" y="-46.4" font-family="Helvetica,sans-Serif" font-size="12.00">JKQTPGraph</text>
</a>
</g>
</g>
<!-- Node2&#45;&gt;Node1 -->
<g id="edge1" class="edge">
<title>Node2&#45;&gt;Node1</title>
<path fill="none" stroke="#63b8ff" d="M361.58,-49.5C369.84,-49.5 378.4,-49.5 386.76,-49.5"/>
<polygon fill="#63b8ff" stroke="#63b8ff" points="361.32,-46 351.32,-49.5 361.32,-53 361.32,-46"/>
</g>
<!-- Node3 -->
<g id="node3" class="node">
<title>Node3</title>
<g id="a_node3"><a xlink:href="class_j_k_q_t_p_plot_element.html" target="_top" xlink:title="this virtual base class of every element, which is part of a JKQTPlotter plot and may appear in its k...">
<polygon fill="white" stroke="#666666" points="226,-60 101,-60 101,-39 226,-39 226,-60"/>
<text text-anchor="middle" x="163.5" y="-46.4" font-family="Helvetica,sans-Serif" font-size="12.00">JKQTPPlotElement</text>
</a>
</g>
</g>
<!-- Node3&#45;&gt;Node2 -->
<g id="edge2" class="edge">
<title>Node3&#45;&gt;Node2</title>
<path fill="none" stroke="#63b8ff" d="M236.51,-49.5C245.18,-49.5 253.82,-49.5 261.91,-49.5"/>
<polygon fill="#63b8ff" stroke="#63b8ff" points="236.34,-46 226.34,-49.5 236.34,-53 236.34,-46"/>
</g>
<!-- Node4 -->
<g id="node4" class="node">
<title>Node4</title>
<g id="a_node4"><a xlink:title=" ">
<polygon fill="white" stroke="#666666" points="65,-60 0,-60 0,-39 65,-39 65,-60"/>
<text text-anchor="middle" x="32.5" y="-46.4" font-family="Helvetica,sans-Serif" font-size="12.00">QObject</text>
</a>
</g>
</g>
<!-- Node4&#45;&gt;Node3 -->
<g id="edge3" class="edge">
<title>Node4&#45;&gt;Node3</title>
<path fill="none" stroke="#63b8ff" d="M75.09,-49.5C83.29,-49.5 92.05,-49.5 100.75,-49.5"/>
<polygon fill="#63b8ff" stroke="#63b8ff" points="75.06,-46 65.06,-49.5 75.06,-53 75.06,-46"/>
</g>
<!-- Node7 -->
<g id="node7" class="node">
<title>Node7</title>
<g id="a_node7"><a xlink:href="class_j_k_q_t_p_math_image.html" target="_top" xlink:title="class to plot an image from an 2&#45;dimensional array of values">
<polygon fill="white" stroke="#666666" points="888,-99 767,-99 767,-78 888,-78 888,-99"/>
<text text-anchor="middle" x="827.5" y="-85.4" font-family="Helvetica,sans-Serif" font-size="12.00">JKQTPMathImage</text>
</a>
</g>
</g>
<!-- Node6&#45;&gt;Node7 -->
<g id="edge6" class="edge">
<title>Node6&#45;&gt;Node7</title>
<path fill="none" stroke="#63b8ff" d="M684.83,-61.87C712.4,-67.05 744.1,-73.01 770.52,-77.98"/>
<polygon fill="#63b8ff" stroke="#63b8ff" points="685.35,-58.41 674.88,-60 684.06,-65.29 685.35,-58.41"/>
</g>
<!-- Node11 -->
<g id="node11" class="node">
<title>Node11</title>
<g id="a_node11"><a xlink:href="class_j_k_q_t_p_r_g_b_math_image.html" target="_top" xlink:title="class to plot an image from an 2&#45;dimensional array of RGB values">
<polygon fill="white" stroke="#666666" points="900.5,-60 754.5,-60 754.5,-39 900.5,-39 900.5,-60"/>
<text text-anchor="middle" x="827.5" y="-46.4" font-family="Helvetica,sans-Serif" font-size="12.00">JKQTPRGBMathImage</text>
</a>
</g>
</g>
<!-- Node6&#45;&gt;Node11 -->
<g id="edge10" class="edge">
<title>Node6&#45;&gt;Node11</title>
<path fill="none" stroke="#63b8ff" d="M703.42,-49.5C720.28,-49.5 737.84,-49.5 754.24,-49.5"/>
<polygon fill="#63b8ff" stroke="#63b8ff" points="703.03,-46 693.03,-49.5 703.03,-53 703.03,-46"/>
</g>
<!-- Node8 -->
<g id="node8" class="node">
<title>Node8</title>
<g id="a_node8"><a xlink:href="class_j_k_q_t_p_column_math_image.html" target="_top" xlink:title="class to plot an image from an 2&#45;dimensional array of values stored in a column of the datastore">
<polygon fill="white" stroke="#666666" points="1166.5,-138 999.5,-138 999.5,-117 1166.5,-117 1166.5,-138"/>
<text text-anchor="middle" x="1083" y="-124.4" font-family="Helvetica,sans-Serif" font-size="12.00">JKQTPColumnMathImage</text>
</a>
</g>
</g>
<!-- Node7&#45;&gt;Node8 -->
<g id="edge7" class="edge">
<title>Node7&#45;&gt;Node8</title>
<path fill="none" stroke="#63b8ff" d="M898.19,-99.22C934.17,-104.76 977.91,-111.49 1013.69,-116.99"/>
<polygon fill="#63b8ff" stroke="#63b8ff" points="898.67,-95.75 888.25,-97.69 897.61,-102.67 898.67,-95.75"/>
</g>
<!-- Node9 -->
<g id="node9" class="node">
<title>Node9</title>
<g id="a_node9"><a xlink:href="class_j_k_q_t_p_contour_plot.html" target="_top" xlink:title="class for a contour plot">
<polygon fill="white" stroke="#666666" points="1144.5,-99 1021.5,-99 1021.5,-78 1144.5,-78 1144.5,-99"/>
<text text-anchor="middle" x="1083" y="-85.4" font-family="Helvetica,sans-Serif" font-size="12.00">JKQTPContourPlot</text>
</a>
</g>
</g>
<!-- Node7&#45;&gt;Node9 -->
<g id="edge8" class="edge">
<title>Node7&#45;&gt;Node9</title>
<path fill="none" stroke="#63b8ff" d="M898.36,-88.5C936.92,-88.5 984.34,-88.5 1021.33,-88.5"/>
<polygon fill="#63b8ff" stroke="#63b8ff" points="898.25,-85 888.25,-88.5 898.25,-92 898.25,-85"/>
</g>
<!-- Node10 -->
<g id="node10" class="node">
<title>Node10</title>
<g id="a_node10"><a xlink:href="class_j_k_q_t_p_column_contour_plot.html" target="_top" xlink:title="class for a contour plots (same as JKQTPContourPlot) of images stored in a JKQTPDatastore column">
<polygon fill="white" stroke="#666666" points="1409,-99 1240,-99 1240,-78 1409,-78 1409,-99"/>
<text text-anchor="middle" x="1324.5" y="-85.4" font-family="Helvetica,sans-Serif" font-size="12.00">JKQTPColumnContourPlot</text>
</a>
</g>
</g>
<!-- Node9&#45;&gt;Node10 -->
<g id="edge9" class="edge">
<title>Node9&#45;&gt;Node10</title>
<path fill="none" stroke="#63b8ff" d="M1154.76,-88.5C1181.43,-88.5 1212.02,-88.5 1239.77,-88.5"/>
<polygon fill="#63b8ff" stroke="#63b8ff" points="1154.75,-85 1144.75,-88.5 1154.75,-92 1154.75,-85"/>
</g>
<!-- Node12 -->
<g id="node12" class="node">
<title>Node12</title>
<g id="a_node12"><a xlink:href="class_j_k_q_t_p_column_r_g_b_math_image.html" target="_top" xlink:title="like JKQTPRGBMathImage but reads images from columns of the datastore">
<polygon fill="white" stroke="#666666" points="1179,-60 987,-60 987,-39 1179,-39 1179,-60"/>
<text text-anchor="middle" x="1083" y="-46.4" font-family="Helvetica,sans-Serif" font-size="12.00">JKQTPColumnRGBMathImage</text>
</a>
</g>
</g>
<!-- Node11&#45;&gt;Node12 -->
<g id="edge11" class="edge">
<title>Node11&#45;&gt;Node12</title>
<path fill="none" stroke="#63b8ff" d="M911.02,-49.5C935.25,-49.5 961.93,-49.5 986.87,-49.5"/>
<polygon fill="#63b8ff" stroke="#63b8ff" points="910.8,-46 900.8,-49.5 910.8,-53 910.8,-46"/>
</g>
<!-- Node14 -->
<g id="node14" class="node">
<title>Node14</title>
<g id="a_node14"><a xlink:href="class_j_k_q_t_p_overlay_image_enhanced.html" target="_top" xlink:title="class to plot an image from an 2&#45;dimensional array of boolean values: alle true values are plotted in...">
<polygon fill="white" stroke="#666666" points="926,-21 729,-21 729,0 926,0 926,-21"/>
<text text-anchor="middle" x="827.5" y="-7.4" font-family="Helvetica,sans-Serif" font-size="12.00">JKQTPOverlayImageEnhanced</text>
</a>
</g>
</g>
<!-- Node13&#45;&gt;Node14 -->
<g id="edge13" class="edge">
<title>Node13&#45;&gt;Node14</title>
<path fill="none" stroke="#63b8ff" d="M696.93,-10.5C707.33,-10.5 718.11,-10.5 728.81,-10.5"/>
<polygon fill="#63b8ff" stroke="#63b8ff" points="696.66,-7 686.66,-10.5 696.66,-14 696.66,-7"/>
</g>
<!-- Node15 -->
<g id="node15" class="node">
<title>Node15</title>
<g id="a_node15"><a xlink:href="class_j_k_q_t_p_column_overlay_image_enhanced.html" target="_top" xlink:title="class to plot an image from an 2&#45;dimensional array of boolean values: alle true values are plotted in...">
<polygon fill="white" stroke="#666666" points="1204,-21 962,-21 962,0 1204,0 1204,-21"/>
<text text-anchor="middle" x="1083" y="-7.4" font-family="Helvetica,sans-Serif" font-size="12.00">JKQTPColumnOverlayImageEnhanced</text>
</a>
</g>
</g>
<!-- Node14&#45;&gt;Node15 -->
<g id="edge14" class="edge">
<title>Node14&#45;&gt;Node15</title>
<path fill="none" stroke="#63b8ff" d="M936.38,-10.5C944.83,-10.5 953.39,-10.5 961.92,-10.5"/>
<polygon fill="#63b8ff" stroke="#63b8ff" points="936.15,-7 926.15,-10.5 936.15,-14 936.15,-7"/>
</g>
</g>
</svg>
        <g id="navigator" transform="translate(0 0)" fill="#404254">
                <rect fill="#f2f5e9" fill-opacity="0.5" stroke="#606060" stroke-width=".5" x="0" y="0" width="60" height="60"/>
                <use id="zoomplus" xlink:href="#zoomPlus" x="17" y="9" onmousedown="handleZoom(evt,'in')"/>
                <use id="zoomminus" xlink:href="#zoomMin" x="42" y="9" onmousedown="handleZoom(evt,'out')"/>
                <use id="reset" xlink:href="#resetDef" x="30" y="36" onmousedown="handleReset()"/>
                <g id="arrowUp" xlink:href="#dirArrow" transform="translate(30 24)" onmousedown="handlePan(0,-1)">
                  <use xlink:href="#rim" fill="#404040">
                        <set attributeName="fill" to="#808080" begin="arrowUp.mouseover" end="arrowUp.mouseout"/>
                  </use>
                  <path fill="none" stroke="white" stroke-width="1.5" d="M0,-3.0v7 M-2.5,-0.5L0,-3.0L2.5,-0.5"/>
                </g>
                <g id="arrowRight" xlink:href="#dirArrow" transform="rotate(90) translate(36 -43)" onmousedown="handlePan(1,0)">
                  <use xlink:href="#rim" fill="#404040">
                        <set attributeName="fill" to="#808080" begin="arrowRight.mouseover" end="arrowRight.mouseout"/>
                  </use>
                  <path fill="none" stroke="white" stroke-width="1.5" d="M0,-3.0v7 M-2.5,-0.5L0,-3.0L2.5,-0.5"/>
                </g>
                <g id="arrowDown" xlink:href="#dirArrow" transform="rotate(180) translate(-30 -48)" onmousedown="handlePan(0,1)">
                  <use xlink:href="#rim" fill="#404040">
                        <set attributeName="fill" to="#808080" begin="arrowDown.mouseover" end="arrowDown.mouseout"/>
                  </use>
                  <path fill="none" stroke="white" stroke-width="1.5" d="M0,-3.0v7 M-2.5,-0.5L0,-3.0L2.5,-0.5"/>
                </g>
                <g id="arrowLeft" xlink:href="#dirArrow" transform="rotate(270) translate(-36 17)" onmousedown="handlePan(-1,0)">
                  <use xlink:href="#rim" fill="#404040">
                        <set attributeName="fill" to="#808080" begin="arrowLeft.mouseover" end="arrowLeft.mouseout"/>
                  </use>
                  <path fill="none" stroke="white" stroke-width="1.5" d="M0,-3.0v7 M-2.5,-0.5L0,-3.0L2.5,-0.5"/>
                </g>
        </g>
        <svg viewBox="0 0 15 15" width="100%" height="30px" preserveAspectRatio="xMaxYMin meet">
         <g id="arrow_out" transform="scale(0.3 0.3)">
          <a xlink:href="class_j_k_q_t_p_image_base__inherit__graph_org.svg" target="_base">
           <rect id="button" ry="5" rx="5" y="6" x="6" height="38" width="38"
                fill="#f2f5e9" fill-opacity="0.5" stroke="#606060" stroke-width="1.0"/>
           <path id="arrow"
             d="M 11.500037,31.436501 C 11.940474,20.09759 22.043105,11.32322 32.158766,21.979434 L 37.068811,17.246167 C 37.068811,17.246167 37.088388,32 37.088388,32 L 22.160133,31.978069 C 22.160133,31.978069 26.997745,27.140456 26.997745,27.140456 C 18.528582,18.264221 13.291696,25.230495 11.500037,31.436501 z"
             style="fill:#404040;"/>
          </a>
         </g>
        </svg>
</svg>
