<?xml version="1.0" encoding="UTF-8" standalone="no"?>
<!DOCTYPE svg PUBLIC "-//W3C//DTD SVG 1.1//EN"
 "http://www.w3.org/Graphics/SVG/1.1/DTD/svg11.dtd">
<!-- Generated by graphviz version 2.43.0 (0)
 -->
<!-- Title: JKQTMathTextEmptyBoxNode Pages: 1 -->
<svg width="396pt" height="99pt"
 viewBox="0.00 0.00 396.00 99.00" xmlns="http://www.w3.org/2000/svg" xmlns:xlink="http://www.w3.org/1999/xlink">
<g id="graph0" class="graph" transform="scale(1 1) rotate(0) translate(4 95)">
<title>JKQTMathTextEmptyBoxNode</title>
<!-- Node1 -->
<g id="node1" class="node">
<title>Node1</title>
<g id="a_node1"><a xlink:title="subclass representing an empty bbox with defined width/height in the syntax tree">
<polygon fill="#999999" stroke="#666666" points="191,-21 0,-21 0,0 191,0 191,-21"/>
<text text-anchor="middle" x="95.5" y="-7.4" font-family="Helvetica,sans-Serif" font-size="12.00">JKQTMathTextEmptyBoxNode</text>
</a>
</g>
</g>
<!-- Node2 -->
<g id="node2" class="node">
<title>Node2</title>
<g id="a_node2"><a xlink:href="class_j_k_q_t_math_text_node.html" target="_top" xlink:title="subclass representing one node in the syntax tree">
<polygon fill="white" stroke="#666666" points="209,-91 78,-91 78,-70 209,-70 209,-91"/>
<text text-anchor="middle" x="143.5" y="-77.4" font-family="Helvetica,sans-Serif" font-size="12.00">JKQTMathTextNode</text>
</a>
</g>
</g>
<!-- Node2&#45;&gt;Node1 -->
<g id="edge1" class="edge">
<title>Node2&#45;&gt;Node1</title>
<path fill="none" stroke="#63b8ff" d="M128.88,-61.78C126.36,-58.57 123.81,-55.22 121.5,-52 114.09,-41.68 106.32,-29.34 101.22,-21.01"/>
<polygon fill="#63b8ff" stroke="#63b8ff" points="126.31,-64.16 135.3,-69.76 131.76,-59.78 126.31,-64.16"/>
</g>
<!-- Node2&#45;&gt;Node2 -->
<g id="edge5" class="edge">
<title>Node2&#45;&gt;Node2</title>
<path fill="none" stroke="#9a32cd" stroke-dasharray="5,2" d="M219.52,-84.94C224.19,-83.89 227,-82.41 227,-80.5 227,-77.45 219.81,-75.49 209.31,-74.63"/>
<polygon fill="#9a32cd" stroke="#9a32cd" points="218.73,-81.52 209.31,-86.37 219.7,-88.45 218.73,-81.52"/>
<text text-anchor="middle" x="264.5" y="-77.4" font-family="Helvetica,sans-Serif" font-size="12.00"> parentNode</text>
</g>
<!-- Node3 -->
<g id="node3" class="node">
<title>Node3</title>
<g id="a_node3"><a xlink:href="class_j_k_q_t_math_text.html" target="_top" xlink:title="this class parses a mathematical markup string and can then draw the contained text/equation onto a Q...">
<polygon fill="white" stroke="#666666" points="308,-21 209,-21 209,0 308,0 308,-21"/>
<text text-anchor="middle" x="258.5" y="-7.4" font-family="Helvetica,sans-Serif" font-size="12.00">JKQTMathText</text>
</a>
</g>
</g>
<!-- Node2&#45;&gt;Node3 -->
<g id="edge4" class="edge">
<title>Node2&#45;&gt;Node3</title>
<path fill="none" stroke="#9a32cd" stroke-dasharray="5,2" d="M136.79,-59.86C135.58,-52.63 135.91,-44.79 140.5,-39 145,-33.34 178.7,-25.82 208.95,-20.08"/>
<polygon fill="#9a32cd" stroke="#9a32cd" points="133.45,-60.93 139.35,-69.73 140.23,-59.17 133.45,-60.93"/>
<text text-anchor="middle" x="179" y="-42.4" font-family="Helvetica,sans-Serif" font-size="12.00"> parsedNode</text>
</g>
<!-- Node3&#45;&gt;Node2 -->
<g id="edge2" class="edge">
<title>Node3&#45;&gt;Node2</title>
<path fill="none" stroke="#9a32cd" stroke-dasharray="5,2" d="M245.68,-29.11C239.18,-37.01 230.71,-45.9 221.5,-52 209.77,-59.77 195.59,-65.62 182.55,-69.88"/>
<polygon fill="#9a32cd" stroke="#9a32cd" points="248.52,-31.15 251.9,-21.11 243,-26.85 248.52,-31.15"/>
<text text-anchor="middle" x="284" y="-42.4" font-family="Helvetica,sans-Serif" font-size="12.00"> parentMathText</text>
</g>
<!-- Node4 -->
<g id="node4" class="node">
<title>Node4</title>
<g id="a_node4"><a xlink:title=" ">
<polygon fill="white" stroke="#666666" points="388,-91 323,-91 323,-70 388,-70 388,-91"/>
<text text-anchor="middle" x="355.5" y="-77.4" font-family="Helvetica,sans-Serif" font-size="12.00">QObject</text>
</a>
</g>
</g>
<!-- Node4&#45;&gt;Node3 -->
<g id="edge3" class="edge">
<title>Node4&#45;&gt;Node3</title>
<path fill="none" stroke="#63b8ff" d="M352.5,-59.82C350.49,-52.46 347.12,-44.55 341.5,-39 332.43,-30.04 320.37,-24 308.27,-19.93"/>
<polygon fill="#63b8ff" stroke="#63b8ff" points="349.13,-60.79 354.59,-69.87 355.98,-59.37 349.13,-60.79"/>
</g>
</g>
</svg>
