<?xml version="1.0" encoding="UTF-8" standalone="no"?>
<!DOCTYPE svg PUBLIC "-//W3C//DTD SVG 1.1//EN"
 "http://www.w3.org/Graphics/SVG/1.1/DTD/svg11.dtd">
<!-- Generated by graphviz version 2.43.0 (0)
 -->
<!-- Title: JKQTMathTextSimpleInstructionNode Pages: 1 -->
<svg width="429pt" height="101pt"
 viewBox="0.00 0.00 429.00 101.00" xmlns="http://www.w3.org/2000/svg" xmlns:xlink="http://www.w3.org/1999/xlink">
<g id="graph0" class="graph" transform="scale(1 1) rotate(0) translate(4 97)">
<title>JKQTMathTextSimpleInstructionNode</title>
<!-- Node1 -->
<g id="node1" class="node">
<title>Node1</title>
<g id="a_node1"><a xlink:title="subclass representing a simple instruction node which only accepts string arguments,...">
<polygon fill="#bfbfbf" stroke="black" points="0,-0.5 0,-21.5 235,-21.5 235,-0.5 0,-0.5"/>
<text text-anchor="middle" x="117.5" y="-7.9" font-family="Helvetica,sans-Serif" font-size="12.00">JKQTMathTextSimpleInstructionNode</text>
</a>
</g>
</g>
<!-- Node2 -->
<g id="node2" class="node">
<title>Node2</title>
<g id="a_node2"><a xlink:href="class_j_k_q_t_math_text_node.html" target="_top" xlink:title="subclass representing one node in the syntax tree">
<polygon fill="none" stroke="black" points="111,-71.5 111,-92.5 242,-92.5 242,-71.5 111,-71.5"/>
<text text-anchor="middle" x="176.5" y="-78.9" font-family="Helvetica,sans-Serif" font-size="12.00">JKQTMathTextNode</text>
</a>
</g>
</g>
<!-- Node2&#45;&gt;Node1 -->
<g id="edge1" class="edge">
<title>Node2&#45;&gt;Node1</title>
<path fill="none" stroke="midnightblue" d="M161.79,-63.79C150.36,-50.43 134.94,-32.39 125.63,-21.51"/>
<polygon fill="midnightblue" stroke="midnightblue" points="159.14,-66.08 168.3,-71.41 164.46,-61.53 159.14,-66.08"/>
</g>
<!-- Node2&#45;&gt;Node2 -->
<g id="edge5" class="edge">
<title>Node2&#45;&gt;Node2</title>
<path fill="none" stroke="#9a32cd" stroke-dasharray="5,2" d="M252.52,-86.44C257.19,-85.39 260,-83.91 260,-82 260,-78.95 252.81,-76.99 242.31,-76.13"/>
<polygon fill="#9a32cd" stroke="#9a32cd" points="251.73,-83.02 242.31,-87.87 252.7,-89.95 251.73,-83.02"/>
<text text-anchor="middle" x="297.5" y="-78.9" font-family="Helvetica,sans-Serif" font-size="12.00"> parentNode</text>
</g>
<!-- Node3 -->
<g id="node3" class="node">
<title>Node3</title>
<g id="a_node3"><a xlink:href="class_j_k_q_t_math_text.html" target="_top" xlink:title="this class parses a LaTeX string and can then draw the contained text/equation onto a QPainter">
<polygon fill="none" stroke="black" points="253,-0.5 253,-21.5 352,-21.5 352,-0.5 253,-0.5"/>
<text text-anchor="middle" x="302.5" y="-7.9" font-family="Helvetica,sans-Serif" font-size="12.00">JKQTMathText</text>
</a>
</g>
</g>
<!-- Node2&#45;&gt;Node3 -->
<g id="edge4" class="edge">
<title>Node2&#45;&gt;Node3</title>
<path fill="none" stroke="#9a32cd" stroke-dasharray="5,2" d="M169.78,-61.62C168.44,-54.14 168.69,-45.97 173.5,-40 176.13,-36.74 217.71,-28.09 252.97,-21.26"/>
<polygon fill="#9a32cd" stroke="#9a32cd" points="166.44,-62.68 172.41,-71.43 173.2,-60.87 166.44,-62.68"/>
<text text-anchor="middle" x="212" y="-43.4" font-family="Helvetica,sans-Serif" font-size="12.00"> parsedNode</text>
</g>
<!-- Node3&#45;&gt;Node2 -->
<g id="edge2" class="edge">
<title>Node3&#45;&gt;Node2</title>
<path fill="none" stroke="#9a32cd" stroke-dasharray="5,2" d="M286.1,-28.63C277.31,-36.83 265.97,-46.35 254.5,-53 241.18,-60.73 225.37,-66.89 211.48,-71.44"/>
<polygon fill="#9a32cd" stroke="#9a32cd" points="288.61,-31.07 293.37,-21.6 283.75,-26.04 288.61,-31.07"/>
<text text-anchor="middle" x="321" y="-43.4" font-family="Helvetica,sans-Serif" font-size="12.00"> parentMathText</text>
</g>
<!-- Node4 -->
<g id="node4" class="node">
<title>Node4</title>
<g id="a_node4"><a xlink:title=" ">
<polygon fill="none" stroke="black" points="356,-71.5 356,-92.5 421,-92.5 421,-71.5 356,-71.5"/>
<text text-anchor="middle" x="388.5" y="-78.9" font-family="Helvetica,sans-Serif" font-size="12.00">QObject</text>
</a>
</g>
</g>
<!-- Node4&#45;&gt;Node3 -->
<g id="edge3" class="edge">
<title>Node4&#45;&gt;Node3</title>
<path fill="none" stroke="midnightblue" d="M385.48,-61.49C383.45,-53.98 380.09,-45.83 374.5,-40 366.52,-31.68 355.77,-25.78 345.02,-21.63"/>
<polygon fill="midnightblue" stroke="midnightblue" points="382.06,-62.27 387.53,-71.35 388.92,-60.84 382.06,-62.27"/>
</g>
</g>
</svg>
