<?xml version="1.0" encoding="UTF-8" standalone="no"?>
<!DOCTYPE svg PUBLIC "-//W3C//DTD SVG 1.1//EN"
 "http://www.w3.org/Graphics/SVG/1.1/DTD/svg11.dtd">
<!-- Generated by graphviz version 2.43.0 (0)
 -->
<!-- Title: JKQTGraphsBaseStyle Pages: 1 -->
<svg width="1621pt" height="166pt"
 viewBox="0.00 0.00 1621.00 165.50" xmlns="http://www.w3.org/2000/svg" xmlns:xlink="http://www.w3.org/1999/xlink">
<g id="graph0" class="graph" transform="scale(1 1) rotate(0) translate(4 161.5)">
<title>JKQTGraphsBaseStyle</title>
<!-- Node1 -->
<g id="node1" class="node">
<title>Node1</title>
<g id="a_node1"><a xlink:title="Support Class for JKQTBasePlotter, which summarizes all properties that define the visual styling of ...">
<polygon fill="#bfbfbf" stroke="black" points="1467,-61 1467,-82 1613,-82 1613,-61 1467,-61"/>
<text text-anchor="middle" x="1540" y="-68.4" font-family="Helvetica,sans-Serif" font-size="12.00">JKQTGraphsBaseStyle</text>
</a>
</g>
</g>
<!-- Node2 -->
<g id="node2" class="node">
<title>Node2</title>
<g id="a_node2"><a xlink:href="class_j_k_q_t_graphs_specific_style_properties.html" target="_top" xlink:title="Support Class for JKQTBasePlotter, which summarizes all properties that define the visual styling of ...">
<polygon fill="none" stroke="black" points="399,-55 399,-76 623,-76 623,-55 399,-55"/>
<text text-anchor="middle" x="511" y="-62.4" font-family="Helvetica,sans-Serif" font-size="12.00">JKQTGraphsSpecificStyleProperties</text>
</a>
</g>
</g>
<!-- Node2&#45;&gt;Node1 -->
<g id="edge1" class="edge">
<title>Node2&#45;&gt;Node1</title>
<path fill="none" stroke="#9a32cd" stroke-dasharray="5,2" d="M612.04,-77.09C670.53,-83.21 745.84,-89.97 813,-92.5 973.85,-98.57 1432.16,-84.79 1449,-83.5 1454.82,-83.06 1460.83,-82.49 1466.86,-81.85"/>
<polygon fill="#9a32cd" stroke="#9a32cd" points="612.38,-73.6 602.07,-76.03 611.64,-80.56 612.38,-73.6"/>
<text text-anchor="middle" x="1069.5" y="-147.9" font-family="Helvetica,sans-Serif" font-size="12.00"> barchartStyle</text>
<text text-anchor="middle" x="1069.5" y="-134.9" font-family="Helvetica,sans-Serif" font-size="12.00">boxplotStyle</text>
<text text-anchor="middle" x="1069.5" y="-121.9" font-family="Helvetica,sans-Serif" font-size="12.00">defaultGraphStyle</text>
<text text-anchor="middle" x="1069.5" y="-108.9" font-family="Helvetica,sans-Serif" font-size="12.00">filledStyle</text>
<text text-anchor="middle" x="1069.5" y="-95.9" font-family="Helvetica,sans-Serif" font-size="12.00">impulseStyle</text>
</g>
<!-- Node4 -->
<g id="node4" class="node">
<title>Node4</title>
<g id="a_node4"><a xlink:href="class_j_k_q_t_geometric_specific_style_properties.html" target="_top" xlink:title="Support Class for JKQTBasePlotter, which summarizes all properties that define the visual styling of ...">
<polygon fill="none" stroke="black" points="813,-48.5 813,-82.5 997,-82.5 997,-48.5 813,-48.5"/>
<text text-anchor="start" x="821" y="-68.9" font-family="Helvetica,sans-Serif" font-size="12.00">JKQTGeometricSpecificStyle</text>
<text text-anchor="middle" x="905" y="-55.9" font-family="Helvetica,sans-Serif" font-size="12.00">Properties</text>
</a>
</g>
</g>
<!-- Node2&#45;&gt;Node4 -->
<g id="edge4" class="edge">
<title>Node2&#45;&gt;Node4</title>
<path fill="none" stroke="midnightblue" d="M633.34,-65.5C691.25,-65.5 759.38,-65.5 812.8,-65.5"/>
<polygon fill="midnightblue" stroke="midnightblue" points="633.02,-62 623.02,-65.5 633.02,-69 633.02,-62"/>
</g>
<!-- Node3 -->
<g id="node3" class="node">
<title>Node3</title>
<g id="a_node3"><a xlink:href="struct_j_k_q_t_p_color_derivation_mode.html" target="_top" xlink:title="Specifies how a fill&#45;color is derived from a given color.">
<polygon fill="none" stroke="black" points="0,-24 0,-45 179,-45 179,-24 0,-24"/>
<text text-anchor="middle" x="89.5" y="-31.4" font-family="Helvetica,sans-Serif" font-size="12.00">JKQTPColorDerivationMode</text>
</a>
</g>
</g>
<!-- Node3&#45;&gt;Node2 -->
<g id="edge2" class="edge">
<title>Node3&#45;&gt;Node2</title>
<path fill="none" stroke="#9a32cd" stroke-dasharray="5,2" d="M189.53,-41.82C252.41,-46.46 333.9,-52.49 398.97,-57.3"/>
<polygon fill="#9a32cd" stroke="#9a32cd" points="189.44,-38.3 179.21,-41.06 188.92,-45.28 189.44,-38.3"/>
<text text-anchor="middle" x="289" y="-109.9" font-family="Helvetica,sans-Serif" font-size="12.00"> errorColorDerivationMode</text>
<text text-anchor="middle" x="289" y="-96.9" font-family="Helvetica,sans-Serif" font-size="12.00">errorFillColorDerivationMode</text>
<text text-anchor="middle" x="289" y="-83.9" font-family="Helvetica,sans-Serif" font-size="12.00">fillColorDerivationMode</text>
<text text-anchor="middle" x="289" y="-70.9" font-family="Helvetica,sans-Serif" font-size="12.00">graphColorDerivationMode</text>
<text text-anchor="middle" x="289" y="-57.9" font-family="Helvetica,sans-Serif" font-size="12.00">symbolFillColorDerivationMode</text>
</g>
<!-- Node5 -->
<g id="node5" class="node">
<title>Node5</title>
<g id="a_node5"><a xlink:href="class_j_k_q_t_annotations_specific_style_properties.html" target="_top" xlink:title="Support Class for JKQTBasePlotter, which summarizes all properties that define the visual styling of ...">
<polygon fill="none" stroke="black" points="1142,-0.5 1142,-34.5 1333,-34.5 1333,-0.5 1142,-0.5"/>
<text text-anchor="start" x="1150" y="-20.9" font-family="Helvetica,sans-Serif" font-size="12.00">JKQTAnnotationsSpecificStyle</text>
<text text-anchor="middle" x="1237.5" y="-7.9" font-family="Helvetica,sans-Serif" font-size="12.00">Properties</text>
</a>
</g>
</g>
<!-- Node3&#45;&gt;Node5 -->
<g id="edge7" class="edge">
<title>Node3&#45;&gt;Node5</title>
<path fill="none" stroke="#9a32cd" stroke-dasharray="5,2" d="M189.64,-33.03C407.99,-29.79 927.98,-22.08 1141.99,-18.9"/>
<polygon fill="#9a32cd" stroke="#9a32cd" points="189.42,-29.53 179.47,-33.18 189.52,-36.53 189.42,-29.53"/>
<text text-anchor="middle" x="718" y="-28.9" font-family="Helvetica,sans-Serif" font-size="12.00"> textColorDerivationMode</text>
</g>
<!-- Node4&#45;&gt;Node1 -->
<g id="edge3" class="edge">
<title>Node4&#45;&gt;Node1</title>
<path fill="none" stroke="#9a32cd" stroke-dasharray="5,2" d="M1007.26,-66.46C1135.68,-67.68 1353.95,-69.75 1466.74,-70.82"/>
<polygon fill="#9a32cd" stroke="#9a32cd" points="1007.06,-62.96 997.03,-66.36 1007,-69.96 1007.06,-62.96"/>
<text text-anchor="middle" x="1237.5" y="-71.9" font-family="Helvetica,sans-Serif" font-size="12.00"> geometricStyle</text>
</g>
<!-- Node4&#45;&gt;Node5 -->
<g id="edge6" class="edge">
<title>Node4&#45;&gt;Node5</title>
<path fill="none" stroke="midnightblue" d="M1007.35,-50.78C1050.18,-44.56 1099.79,-37.36 1141.87,-31.24"/>
<polygon fill="midnightblue" stroke="midnightblue" points="1006.58,-47.36 997.19,-52.26 1007.58,-54.28 1006.58,-47.36"/>
</g>
<!-- Node5&#45;&gt;Node1 -->
<g id="edge5" class="edge">
<title>Node5&#45;&gt;Node1</title>
<path fill="none" stroke="#9a32cd" stroke-dasharray="5,2" d="M1343.05,-27.48C1377.04,-31.64 1414.8,-37.23 1449,-44.5 1469.1,-48.77 1491.22,-55.38 1508.5,-60.99"/>
<polygon fill="#9a32cd" stroke="#9a32cd" points="1343.45,-24 1333.1,-26.29 1342.62,-30.96 1343.45,-24"/>
<text text-anchor="middle" x="1400" y="-47.9" font-family="Helvetica,sans-Serif" font-size="12.00"> annotationStyle</text>
</g>
</g>
</svg>
