<?xml version="1.0" encoding="UTF-8" standalone="no"?>
<!DOCTYPE svg PUBLIC "-//W3C//DTD SVG 1.1//EN"
 "http://www.w3.org/Graphics/SVG/1.1/DTD/svg11.dtd">
<!-- Generated by graphviz version 2.43.0 (0)
 -->
<!-- Title: JKQTPColorPaletteStyleAndToolsMixin Pages: 1 -->
<!--zoomable 499 -->
<svg id="main" version="1.1" xmlns="http://www.w3.org/2000/svg" xmlns:xlink="http://www.w3.org/1999/xlink" xml:space="preserve" onload="init(evt)">
<style type="text/css"><![CDATA[
.edge:hover path { stroke: red; }
.edge:hover polygon { stroke: red; fill: red; }
]]></style>
<script type="text/javascript"><![CDATA[
var edges = document.getElementsByTagName('g');
if (edges && edges.length) {
  for (var i=0;i<edges.length;i++) {
    if (edges[i].id.substr(0,4)=='edge') {
      edges[i].setAttribute('class','edge');
    }
  }
}
]]></script>
        <defs>
                <circle id="rim" cx="0" cy="0" r="7"/>
                <circle id="rim2" cx="0" cy="0" r="3.5"/>
                <g id="zoomPlus">
                        <use xlink:href="#rim" fill="#404040">
                                <set attributeName="fill" to="#808080" begin="zoomplus.mouseover" end="zoomplus.mouseout"/>
                        </use>
                        <path d="M-4,0h8M0,-4v8" fill="none" stroke="white" stroke-width="1.5" pointer-events="none"/>
                </g>
                <g id="zoomMin">
                        <use xlink:href="#rim" fill="#404040">
                                <set attributeName="fill" to="#808080" begin="zoomminus.mouseover" end="zoomminus.mouseout"/>
                        </use>
                        <path d="M-4,0h8" fill="none" stroke="white" stroke-width="1.5" pointer-events="none"/>
                </g>
                <g id="dirArrow">
                        <path fill="none" stroke="white" stroke-width="1.5" d="M0,-3.0v7 M-2.5,-0.5L0,-3.0L2.5,-0.5"/>
                </g>
               <g id="resetDef">
                       <use xlink:href="#rim2" fill="#404040">
                               <set attributeName="fill" to="#808080" begin="reset.mouseover" end="reset.mouseout"/>
                       </use>
               </g>
        </defs>

<script type="text/javascript">
var viewWidth = 3373;
var viewHeight = 499;
var sectionId = 'dynsection-1';
</script>
<script xlink:href="svgpan.js"/>
<svg id="graph" class="graph">
<g id="viewport">
<title>JKQTPColorPaletteStyleAndToolsMixin</title>
<!-- Node1 -->
<g id="node1" class="node">
<title>Node1</title>
<g id="a_node1"><a xlink:title="if a class is derived from this class, it may use color bars">
<polygon fill="#bfbfbf" stroke="black" points="3187,-308.69 3187,-342.69 3365,-342.69 3365,-308.69 3187,-308.69"/>
<text text-anchor="start" x="3195" y="-329.09" font-family="Helvetica,sans-Serif" font-size="12.00">JKQTPColorPaletteStyleAnd</text>
<text text-anchor="middle" x="3276" y="-316.09" font-family="Helvetica,sans-Serif" font-size="12.00">ToolsMixin</text>
</a>
</g>
</g>
<!-- Node2 -->
<g id="node2" class="node">
<title>Node2</title>
<g id="a_node2"><a xlink:href="class_j_k_q_t_base_plotter.html" target="_top" xlink:title="base class for 2D plotter classes (used by the plotter widget JKQTPlotter)">
<polygon fill="none" stroke="black" points="2124.5,-267.19 2124.5,-288.19 2238.5,-288.19 2238.5,-267.19 2124.5,-267.19"/>
<text text-anchor="middle" x="2181.5" y="-274.59" font-family="Helvetica,sans-Serif" font-size="12.00">JKQTBasePlotter</text>
</a>
</g>
</g>
<!-- Node2&#45;&gt;Node1 -->
<g id="edge1" class="edge">
<title>Node2&#45;&gt;Node1</title>
<path fill="none" stroke="#9a32cd" stroke-dasharray="5,2" d="M2216.03,-263.24C2232.33,-256.82 2252.37,-249.81 2271,-245.69 2374.47,-222.81 2402.53,-224.69 2508.5,-224.69 2508.5,-224.69 2508.5,-224.69 2935.5,-224.69 3051.72,-224.69 3181.38,-279.74 3241.29,-308.55"/>
<polygon fill="#9a32cd" stroke="#9a32cd" points="2214.37,-260.14 2206.41,-267.13 2217,-266.63 2214.37,-260.14"/>
<text text-anchor="middle" x="2722.5" y="-228.09" font-family="Helvetica,sans-Serif" font-size="12.00"> cbParent</text>
</g>
<!-- Node2&#45;&gt;Node2 -->
<g id="edge38" class="edge">
<title>Node2&#45;&gt;Node2</title>
<path fill="none" stroke="#9a32cd" stroke-dasharray="5,2" d="M2155.93,-297.74C2157.61,-302.85 2166.13,-306.69 2181.5,-306.69 2205.49,-306.69 2212.8,-297.34 2203.43,-288.4"/>
<polygon fill="#9a32cd" stroke="#9a32cd" points="2159.21,-298.98 2159.57,-288.4 2152.68,-296.44 2159.21,-298.98"/>
<text text-anchor="middle" x="2181.5" y="-323.09" font-family="Helvetica,sans-Serif" font-size="12.00"> masterPlotterX</text>
<text text-anchor="middle" x="2181.5" y="-310.09" font-family="Helvetica,sans-Serif" font-size="12.00">masterPlotterY</text>
</g>
<!-- Node16 -->
<g id="node16" class="node">
<title>Node16</title>
<g id="a_node16"><a xlink:href="class_j_k_q_t_p_graphs_model.html" target="_top" xlink:title="data model with all plots ina JKQTBasePlotter (+ allows to switch them visible/invisible)">
<polygon fill="none" stroke="black" points="2444,-253.19 2444,-274.19 2575,-274.19 2575,-253.19 2444,-253.19"/>
<text text-anchor="middle" x="2509.5" y="-260.59" font-family="Helvetica,sans-Serif" font-size="12.00">JKQTPGraphsModel</text>
</a>
</g>
</g>
<!-- Node2&#45;&gt;Node16 -->
<g id="edge24" class="edge">
<title>Node2&#45;&gt;Node16</title>
<path fill="none" stroke="#9a32cd" stroke-dasharray="5,2" d="M2224.61,-264.41C2239.15,-260.45 2255.65,-256.65 2271,-254.69 2329.22,-247.25 2396.07,-250.85 2443.98,-255.53"/>
<polygon fill="#9a32cd" stroke="#9a32cd" points="2223.57,-261.07 2214.89,-267.16 2225.47,-267.81 2223.57,-261.07"/>
<text text-anchor="middle" x="2327.5" y="-258.09" font-family="Helvetica,sans-Serif" font-size="12.00"> m_plotter</text>
</g>
<!-- Node19 -->
<g id="node19" class="node">
<title>Node19</title>
<g id="a_node19"><a xlink:href="class_j_k_q_t_p_coordinate_axis.html" target="_top" xlink:title="this virtual class is the base for any type of coordinate axis, to be drawn by JKQTBasePlotter.">
<polygon fill="none" stroke="black" points="2438.5,-410.19 2438.5,-431.19 2580.5,-431.19 2580.5,-410.19 2438.5,-410.19"/>
<text text-anchor="middle" x="2509.5" y="-417.59" font-family="Helvetica,sans-Serif" font-size="12.00">JKQTPCoordinateAxis</text>
</a>
</g>
</g>
<!-- Node2&#45;&gt;Node19 -->
<g id="edge28" class="edge">
<title>Node2&#45;&gt;Node19</title>
<path fill="none" stroke="#9a32cd" stroke-dasharray="5,2" d="M2205.65,-294.63C2220.64,-306.51 2239.76,-323.46 2253,-341.69 2264.46,-357.46 2255.54,-369.81 2271,-381.69 2277.7,-386.84 2370.75,-401.05 2438.35,-410.82"/>
<polygon fill="#9a32cd" stroke="#9a32cd" points="2207.44,-291.59 2197.38,-288.26 2203.17,-297.14 2207.44,-291.59"/>
<text text-anchor="middle" x="2327.5" y="-405.09" font-family="Helvetica,sans-Serif" font-size="12.00"> parent</text>
</g>
<!-- Node3 -->
<g id="node3" class="node">
<title>Node3</title>
<g id="a_node3"><a xlink:title=" ">
<polygon fill="none" stroke="black" points="1531.5,-344.19 1531.5,-365.19 1596.5,-365.19 1596.5,-344.19 1531.5,-344.19"/>
<text text-anchor="middle" x="1564" y="-351.59" font-family="Helvetica,sans-Serif" font-size="12.00">QObject</text>
</a>
</g>
</g>
<!-- Node3&#45;&gt;Node2 -->
<g id="edge2" class="edge">
<title>Node3&#45;&gt;Node2</title>
<path fill="none" stroke="midnightblue" d="M1606.76,-349.22C1683.58,-339.18 1852.5,-317.25 1995,-299.69 2038.45,-294.33 2087.66,-288.51 2124.47,-284.2"/>
<polygon fill="midnightblue" stroke="midnightblue" points="1606.01,-345.79 1596.55,-350.55 1606.92,-352.73 1606.01,-345.79"/>
</g>
<!-- Node14 -->
<g id="node14" class="node">
<title>Node14</title>
<g id="a_node14"><a xlink:href="class_j_k_q_t_math_text.html" target="_top" xlink:title="this class parses a LaTeX string and can then draw the contained text/equation onto a QPainter">
<polygon fill="none" stroke="black" points="1856,-344.19 1856,-365.19 1955,-365.19 1955,-344.19 1856,-344.19"/>
<text text-anchor="middle" x="1905.5" y="-351.59" font-family="Helvetica,sans-Serif" font-size="12.00">JKQTMathText</text>
</a>
</g>
</g>
<!-- Node3&#45;&gt;Node14 -->
<g id="edge18" class="edge">
<title>Node3&#45;&gt;Node14</title>
<path fill="none" stroke="midnightblue" d="M1607,-354.69C1670.07,-354.69 1788.96,-354.69 1855.76,-354.69"/>
<polygon fill="midnightblue" stroke="midnightblue" points="1606.63,-351.19 1596.63,-354.69 1606.63,-358.19 1606.63,-351.19"/>
</g>
<!-- Node3&#45;&gt;Node19 -->
<g id="edge27" class="edge">
<title>Node3&#45;&gt;Node19</title>
<path fill="none" stroke="midnightblue" d="M1607.04,-360.06C1628.55,-362.75 1655.16,-366.01 1679,-368.69 1870.35,-390.2 1917.87,-399.91 2110,-412.69 2181.43,-417.44 2199.43,-416.12 2271,-417.69 2327.27,-418.92 2391.06,-419.69 2438.35,-420.14"/>
<polygon fill="midnightblue" stroke="midnightblue" points="1607.28,-356.56 1596.92,-358.79 1606.4,-363.51 1607.28,-356.56"/>
</g>
<!-- Node4 -->
<g id="node4" class="node">
<title>Node4</title>
<g id="a_node4"><a xlink:href="class_j_k_q_t_base_plotter_style.html" target="_top" xlink:title="Support Class for JKQTBasePlotter, which summarizes all properties that define the visual styling of ...">
<polygon fill="none" stroke="black" points="1834,-214.19 1834,-235.19 1977,-235.19 1977,-214.19 1834,-214.19"/>
<text text-anchor="middle" x="1905.5" y="-221.59" font-family="Helvetica,sans-Serif" font-size="12.00">JKQTBasePlotterStyle</text>
</a>
</g>
</g>
<!-- Node4&#45;&gt;Node2 -->
<g id="edge3" class="edge">
<title>Node4&#45;&gt;Node2</title>
<path fill="none" stroke="#9a32cd" stroke-dasharray="5,2" d="M1976.78,-237.05C2011.51,-243.29 2054,-251.13 2092,-258.69 2105.25,-261.32 2119.59,-264.33 2132.79,-267.17"/>
<polygon fill="#9a32cd" stroke="#9a32cd" points="1977.2,-233.57 1966.74,-235.25 1975.96,-240.46 1977.2,-233.57"/>
<text text-anchor="middle" x="2043.5" y="-262.09" font-family="Helvetica,sans-Serif" font-size="12.00"> plotterStyle</text>
</g>
<!-- Node5 -->
<g id="node5" class="node">
<title>Node5</title>
<g id="a_node5"><a xlink:href="class_j_k_q_t_p_key_style.html" target="_top" xlink:title="Support Class for JKQTBasePlotter, which summarizes all properties that define the visual styling of ...">
<polygon fill="none" stroke="black" points="1512,-269.19 1512,-290.19 1616,-290.19 1616,-269.19 1512,-269.19"/>
<text text-anchor="middle" x="1564" y="-276.59" font-family="Helvetica,sans-Serif" font-size="12.00">JKQTPKeyStyle</text>
</a>
</g>
</g>
<!-- Node5&#45;&gt;Node4 -->
<g id="edge4" class="edge">
<title>Node5&#45;&gt;Node4</title>
<path fill="none" stroke="#9a32cd" stroke-dasharray="5,2" d="M1625.91,-268.09C1643.06,-264.93 1661.74,-261.58 1679,-258.69 1730.74,-250.02 1789.33,-241.22 1833.82,-234.74"/>
<polygon fill="#9a32cd" stroke="#9a32cd" points="1625.21,-264.66 1616.01,-269.93 1626.48,-271.54 1625.21,-264.66"/>
<text text-anchor="middle" x="1747.5" y="-262.09" font-family="Helvetica,sans-Serif" font-size="12.00"> keyStyle</text>
</g>
<!-- Node6 -->
<g id="node6" class="node">
<title>Node6</title>
<g id="a_node6"><a xlink:href="class_j_k_q_t_p_coordinate_axis_style.html" target="_top" xlink:title="Support Class for JKQTPCoordinateAxis, which summarizes all properties that define the visual styling...">
<polygon fill="none" stroke="black" points="1152,-214.19 1152,-235.19 1323,-235.19 1323,-214.19 1152,-214.19"/>
<text text-anchor="middle" x="1237.5" y="-221.59" font-family="Helvetica,sans-Serif" font-size="12.00">JKQTPCoordinateAxisStyle</text>
</a>
</g>
</g>
<!-- Node6&#45;&gt;Node4 -->
<g id="edge5" class="edge">
<title>Node6&#45;&gt;Node4</title>
<path fill="none" stroke="#9a32cd" stroke-dasharray="5,2" d="M1333.52,-224.69C1468.62,-224.69 1713.17,-224.69 1833.59,-224.69"/>
<polygon fill="#9a32cd" stroke="#9a32cd" points="1333.19,-221.19 1323.19,-224.69 1333.19,-228.19 1333.19,-221.19"/>
<text text-anchor="middle" x="1564" y="-241.09" font-family="Helvetica,sans-Serif" font-size="12.00"> xAxisStyle</text>
<text text-anchor="middle" x="1564" y="-228.09" font-family="Helvetica,sans-Serif" font-size="12.00">yAxisStyle</text>
</g>
<!-- Node8 -->
<g id="node8" class="node">
<title>Node8</title>
<g id="a_node8"><a xlink:href="class_j_k_q_t_p_colorbar_coordinate_axis_style.html" target="_top" xlink:title="Support Class for JKQTPCoordinateAxis, which summarizes all properties that define the visual styling...">
<polygon fill="none" stroke="black" points="1467,-153.69 1467,-187.69 1661,-187.69 1661,-153.69 1467,-153.69"/>
<text text-anchor="start" x="1475" y="-174.09" font-family="Helvetica,sans-Serif" font-size="12.00">JKQTPColorbarCoordinateAxis</text>
<text text-anchor="middle" x="1564" y="-161.09" font-family="Helvetica,sans-Serif" font-size="12.00">Style</text>
</a>
</g>
</g>
<!-- Node6&#45;&gt;Node8 -->
<g id="edge8" class="edge">
<title>Node6&#45;&gt;Node8</title>
<path fill="none" stroke="midnightblue" d="M1311.7,-212.51C1357.58,-204.87 1417.23,-194.95 1466.89,-186.68"/>
<polygon fill="midnightblue" stroke="midnightblue" points="1311.13,-209.05 1301.84,-214.15 1312.28,-215.96 1311.13,-209.05"/>
</g>
<!-- Node6&#45;&gt;Node19 -->
<g id="edge29" class="edge">
<title>Node6&#45;&gt;Node19</title>
<path fill="none" stroke="#9a32cd" stroke-dasharray="5,2" d="M1250.19,-243.99C1287.63,-303.1 1411.08,-477.69 1563,-477.69 1563,-477.69 1563,-477.69 2182.5,-477.69 2289.08,-477.69 2412.37,-447.76 2472.2,-431.28"/>
<polygon fill="#9a32cd" stroke="#9a32cd" points="1253,-241.88 1244.75,-235.24 1247.06,-245.58 1253,-241.88"/>
<text text-anchor="middle" x="1905.5" y="-481.09" font-family="Helvetica,sans-Serif" font-size="12.00"> axisStyle</text>
</g>
<!-- Node7 -->
<g id="node7" class="node">
<title>Node7</title>
<g id="a_node7"><a xlink:href="class_j_k_q_t_p_grid_style.html" target="_top" xlink:title="Support Class for JKQTPCoordinateAxis, and summarizes all properties that define the visual styling o...">
<polygon fill="none" stroke="black" points="851.5,-214.19 851.5,-235.19 958.5,-235.19 958.5,-214.19 851.5,-214.19"/>
<text text-anchor="middle" x="905" y="-221.59" font-family="Helvetica,sans-Serif" font-size="12.00">JKQTPGridStyle</text>
</a>
</g>
</g>
<!-- Node7&#45;&gt;Node6 -->
<g id="edge6" class="edge">
<title>Node7&#45;&gt;Node6</title>
<path fill="none" stroke="#9a32cd" stroke-dasharray="5,2" d="M968.79,-224.69C1020.62,-224.69 1094.66,-224.69 1151.74,-224.69"/>
<polygon fill="#9a32cd" stroke="#9a32cd" points="968.73,-221.19 958.73,-224.69 968.73,-228.19 968.73,-221.19"/>
<text text-anchor="middle" x="1069.5" y="-241.09" font-family="Helvetica,sans-Serif" font-size="12.00"> majorGridStyle</text>
<text text-anchor="middle" x="1069.5" y="-228.09" font-family="Helvetica,sans-Serif" font-size="12.00">minorGridStyle</text>
</g>
<!-- Node8&#45;&gt;Node4 -->
<g id="edge7" class="edge">
<title>Node8&#45;&gt;Node4</title>
<path fill="none" stroke="#9a32cd" stroke-dasharray="5,2" d="M1671.38,-168.02C1716.53,-169.09 1769.4,-173.28 1816,-184.69 1841.55,-190.94 1868.82,-204.43 1886.23,-214.01"/>
<polygon fill="#9a32cd" stroke="#9a32cd" points="1671.33,-164.52 1661.27,-167.83 1671.2,-171.51 1671.33,-164.52"/>
<text text-anchor="middle" x="1747.5" y="-201.09" font-family="Helvetica,sans-Serif" font-size="12.00"> rightColorbarAxisStyle</text>
<text text-anchor="middle" x="1747.5" y="-188.09" font-family="Helvetica,sans-Serif" font-size="12.00">topColorbarAxisStyle</text>
</g>
<!-- Node9 -->
<g id="node9" class="node">
<title>Node9</title>
<g id="a_node9"><a xlink:href="class_j_k_q_t_graphs_base_style.html" target="_top" xlink:title="Support Class for JKQTBasePlotter, which summarizes all properties that define the visual styling of ...">
<polygon fill="none" stroke="black" points="1491,-112.19 1491,-133.19 1637,-133.19 1637,-112.19 1491,-112.19"/>
<text text-anchor="middle" x="1564" y="-119.59" font-family="Helvetica,sans-Serif" font-size="12.00">JKQTGraphsBaseStyle</text>
</a>
</g>
</g>
<!-- Node9&#45;&gt;Node4 -->
<g id="edge9" class="edge">
<title>Node9&#45;&gt;Node4</title>
<path fill="none" stroke="#9a32cd" stroke-dasharray="5,2" d="M1647.49,-114.34C1699.58,-113.09 1766.21,-119.25 1816,-150.69 1828.83,-158.79 1823.34,-168.89 1834,-179.69 1848.18,-194.05 1867.75,-206.08 1882.67,-214.08"/>
<polygon fill="#9a32cd" stroke="#9a32cd" points="1647.15,-110.85 1637.27,-114.68 1647.38,-117.85 1647.15,-110.85"/>
<text text-anchor="middle" x="1747.5" y="-154.09" font-family="Helvetica,sans-Serif" font-size="12.00"> graphsStyle</text>
</g>
<!-- Node10 -->
<g id="node10" class="node">
<title>Node10</title>
<g id="a_node10"><a xlink:href="class_j_k_q_t_graphs_specific_style_properties.html" target="_top" xlink:title="Support Class for JKQTBasePlotter, which summarizes all properties that define the visual styling of ...">
<polygon fill="none" stroke="black" points="399,-60.19 399,-81.19 623,-81.19 623,-60.19 399,-60.19"/>
<text text-anchor="middle" x="511" y="-67.59" font-family="Helvetica,sans-Serif" font-size="12.00">JKQTGraphsSpecificStyleProperties</text>
</a>
</g>
</g>
<!-- Node10&#45;&gt;Node9 -->
<g id="edge10" class="edge">
<title>Node10&#45;&gt;Node9</title>
<path fill="none" stroke="#9a32cd" stroke-dasharray="5,2" d="M633.5,-64.9C757.09,-60.18 954.08,-55.89 1124,-66.69 1258.76,-75.25 1415.4,-98.45 1500.36,-112.15"/>
<polygon fill="#9a32cd" stroke="#9a32cd" points="633.11,-61.41 623.25,-65.3 633.38,-68.4 633.11,-61.41"/>
<text text-anchor="middle" x="1069.5" y="-122.09" font-family="Helvetica,sans-Serif" font-size="12.00"> barchartStyle</text>
<text text-anchor="middle" x="1069.5" y="-109.09" font-family="Helvetica,sans-Serif" font-size="12.00">boxplotStyle</text>
<text text-anchor="middle" x="1069.5" y="-96.09" font-family="Helvetica,sans-Serif" font-size="12.00">defaultGraphStyle</text>
<text text-anchor="middle" x="1069.5" y="-83.09" font-family="Helvetica,sans-Serif" font-size="12.00">filledStyle</text>
<text text-anchor="middle" x="1069.5" y="-70.09" font-family="Helvetica,sans-Serif" font-size="12.00">impulseStyle</text>
</g>
<!-- Node12 -->
<g id="node12" class="node">
<title>Node12</title>
<g id="a_node12"><a xlink:href="class_j_k_q_t_geometric_specific_style_properties.html" target="_top" xlink:title="Support Class for JKQTBasePlotter, which summarizes all properties that define the visual styling of ...">
<polygon fill="none" stroke="black" points="813,-132.69 813,-166.69 997,-166.69 997,-132.69 813,-132.69"/>
<text text-anchor="start" x="821" y="-153.09" font-family="Helvetica,sans-Serif" font-size="12.00">JKQTGeometricSpecificStyle</text>
<text text-anchor="middle" x="905" y="-140.09" font-family="Helvetica,sans-Serif" font-size="12.00">Properties</text>
</a>
</g>
</g>
<!-- Node10&#45;&gt;Node12 -->
<g id="edge13" class="edge">
<title>Node10&#45;&gt;Node12</title>
<path fill="none" stroke="midnightblue" d="M574.35,-83.25C640.65,-96.61 745.9,-117.83 819.59,-132.68"/>
<polygon fill="midnightblue" stroke="midnightblue" points="574.95,-79.8 564.46,-81.26 573.57,-86.67 574.95,-79.8"/>
</g>
<!-- Node11 -->
<g id="node11" class="node">
<title>Node11</title>
<g id="a_node11"><a xlink:href="struct_j_k_q_t_p_color_derivation_mode.html" target="_top" xlink:title="Specifies how a fill&#45;color is derived from a given color.">
<polygon fill="none" stroke="black" points="0,-37.19 0,-58.19 179,-58.19 179,-37.19 0,-37.19"/>
<text text-anchor="middle" x="89.5" y="-44.59" font-family="Helvetica,sans-Serif" font-size="12.00">JKQTPColorDerivationMode</text>
</a>
</g>
</g>
<!-- Node11&#45;&gt;Node10 -->
<g id="edge11" class="edge">
<title>Node11&#45;&gt;Node10</title>
<path fill="none" stroke="#9a32cd" stroke-dasharray="5,2" d="M189.53,-53.12C252.41,-56.57 333.9,-61.03 398.97,-64.6"/>
<polygon fill="#9a32cd" stroke="#9a32cd" points="189.39,-49.6 179.21,-52.55 189,-56.59 189.39,-49.6"/>
<text text-anchor="middle" x="289" y="-119.09" font-family="Helvetica,sans-Serif" font-size="12.00"> errorColorDerivationMode</text>
<text text-anchor="middle" x="289" y="-106.09" font-family="Helvetica,sans-Serif" font-size="12.00">errorFillColorDerivationMode</text>
<text text-anchor="middle" x="289" y="-93.09" font-family="Helvetica,sans-Serif" font-size="12.00">fillColorDerivationMode</text>
<text text-anchor="middle" x="289" y="-80.09" font-family="Helvetica,sans-Serif" font-size="12.00">graphColorDerivationMode</text>
<text text-anchor="middle" x="289" y="-67.09" font-family="Helvetica,sans-Serif" font-size="12.00">symbolFillColorDerivationMode</text>
</g>
<!-- Node13 -->
<g id="node13" class="node">
<title>Node13</title>
<g id="a_node13"><a xlink:href="class_j_k_q_t_annotations_specific_style_properties.html" target="_top" xlink:title="Support Class for JKQTBasePlotter, which summarizes all properties that define the visual styling of ...">
<polygon fill="none" stroke="black" points="1142,-103.69 1142,-137.69 1333,-137.69 1333,-103.69 1142,-103.69"/>
<text text-anchor="start" x="1150" y="-124.09" font-family="Helvetica,sans-Serif" font-size="12.00">JKQTAnnotationsSpecificStyle</text>
<text text-anchor="middle" x="1237.5" y="-111.09" font-family="Helvetica,sans-Serif" font-size="12.00">Properties</text>
</a>
</g>
</g>
<!-- Node11&#45;&gt;Node13 -->
<g id="edge16" class="edge">
<title>Node11&#45;&gt;Node13</title>
<path fill="none" stroke="#9a32cd" stroke-dasharray="5,2" d="M163.48,-35.68C335.05,-10.18 775.8,39.42 1124,-58.69 1157.06,-68 1191.05,-88.55 1212.9,-103.44"/>
<polygon fill="#9a32cd" stroke="#9a32cd" points="162.92,-32.23 153.55,-37.17 163.96,-39.15 162.92,-32.23"/>
<text text-anchor="middle" x="718" y="-9.09" font-family="Helvetica,sans-Serif" font-size="12.00"> textColorDerivationMode</text>
</g>
<!-- Node12&#45;&gt;Node9 -->
<g id="edge12" class="edge">
<title>Node12&#45;&gt;Node9</title>
<path fill="none" stroke="#9a32cd" stroke-dasharray="5,2" d="M1007.33,-153.53C1009.91,-153.59 1012.47,-153.64 1015,-153.69 1207.97,-157.23 1257.13,-159.58 1449,-138.69 1463.31,-137.13 1478.58,-135.18 1493.15,-133.19"/>
<polygon fill="#9a32cd" stroke="#9a32cd" points="1007.37,-150.03 997.29,-153.28 1007.2,-157.03 1007.37,-150.03"/>
<text text-anchor="middle" x="1237.5" y="-159.09" font-family="Helvetica,sans-Serif" font-size="12.00"> geometricStyle</text>
</g>
<!-- Node12&#45;&gt;Node13 -->
<g id="edge15" class="edge">
<title>Node12&#45;&gt;Node13</title>
<path fill="none" stroke="midnightblue" d="M1007.3,-144.63C1044.09,-142.41 1085.97,-139.44 1124,-135.69 1129.78,-135.12 1135.73,-134.48 1141.72,-133.8"/>
<polygon fill="midnightblue" stroke="midnightblue" points="1006.84,-141.15 997.06,-145.23 1007.25,-148.14 1006.84,-141.15"/>
</g>
<!-- Node13&#45;&gt;Node9 -->
<g id="edge14" class="edge">
<title>Node13&#45;&gt;Node9</title>
<path fill="none" stroke="#9a32cd" stroke-dasharray="5,2" d="M1343.39,-121.33C1391.57,-121.63 1447.51,-121.98 1490.86,-122.24"/>
<polygon fill="#9a32cd" stroke="#9a32cd" points="1343.25,-117.83 1333.23,-121.27 1343.21,-124.83 1343.25,-117.83"/>
<text text-anchor="middle" x="1400" y="-125.09" font-family="Helvetica,sans-Serif" font-size="12.00"> annotationStyle</text>
</g>
<!-- Node14&#45;&gt;Node2 -->
<g id="edge17" class="edge">
<title>Node14&#45;&gt;Node2</title>
<path fill="none" stroke="#9a32cd" stroke-dasharray="5,2" d="M1953.97,-341.35C2007.62,-326.27 2093.84,-302.04 2142.99,-288.23"/>
<polygon fill="#9a32cd" stroke="#9a32cd" points="1952.7,-338.07 1944.02,-344.14 1954.6,-344.81 1952.7,-338.07"/>
<text text-anchor="middle" x="2043.5" y="-333.09" font-family="Helvetica,sans-Serif" font-size="12.00"> mathText</text>
</g>
<!-- Node15 -->
<g id="node15" class="node">
<title>Node15</title>
<g id="a_node15"><a xlink:href="class_j_k_q_t_math_text_node.html" target="_top" xlink:title="subclass representing one node in the syntax tree">
<polygon fill="none" stroke="black" points="2116,-351.19 2116,-372.19 2247,-372.19 2247,-351.19 2116,-351.19"/>
<text text-anchor="middle" x="2181.5" y="-358.59" font-family="Helvetica,sans-Serif" font-size="12.00">JKQTMathTextNode</text>
</a>
</g>
</g>
<!-- Node14&#45;&gt;Node15 -->
<g id="edge20" class="edge">
<title>Node14&#45;&gt;Node15</title>
<path fill="none" stroke="#9a32cd" stroke-dasharray="5,2" d="M1965.81,-351.55C2002.24,-350.16 2049.85,-349.31 2092,-351.69 2099.72,-352.12 2107.8,-352.77 2115.8,-353.53"/>
<polygon fill="#9a32cd" stroke="#9a32cd" points="1965.21,-348.07 1955.36,-351.97 1965.49,-355.06 1965.21,-348.07"/>
<text text-anchor="middle" x="2043.5" y="-355.09" font-family="Helvetica,sans-Serif" font-size="12.00"> parentMathText</text>
</g>
<!-- Node15&#45;&gt;Node14 -->
<g id="edge19" class="edge">
<title>Node15&#45;&gt;Node14</title>
<path fill="none" stroke="#9a32cd" stroke-dasharray="5,2" d="M2105.35,-368.48C2071.58,-370.52 2031.25,-371.54 1995,-368.69 1981.97,-367.66 1967.97,-365.8 1955.03,-363.77"/>
<polygon fill="#9a32cd" stroke="#9a32cd" points="2105.86,-371.96 2115.61,-367.82 2105.41,-364.97 2105.86,-371.96"/>
<text text-anchor="middle" x="2043.5" y="-386.09" font-family="Helvetica,sans-Serif" font-size="12.00"> parsedNode</text>
<text text-anchor="middle" x="2043.5" y="-373.09" font-family="Helvetica,sans-Serif" font-size="12.00">unparsedNode</text>
</g>
<!-- Node15&#45;&gt;Node15 -->
<g id="edge21" class="edge">
<title>Node15&#45;&gt;Node15</title>
<path fill="none" stroke="#9a32cd" stroke-dasharray="5,2" d="M2155.93,-381.74C2157.61,-386.85 2166.13,-390.69 2181.5,-390.69 2205.49,-390.69 2212.8,-381.34 2203.43,-372.4"/>
<polygon fill="#9a32cd" stroke="#9a32cd" points="2159.21,-382.98 2159.57,-372.4 2152.68,-380.44 2159.21,-382.98"/>
<text text-anchor="middle" x="2181.5" y="-394.09" font-family="Helvetica,sans-Serif" font-size="12.00"> parentNode</text>
</g>
<!-- Node16&#45;&gt;Node2 -->
<g id="edge22" class="edge">
<title>Node16&#45;&gt;Node2</title>
<path fill="none" stroke="#9a32cd" stroke-dasharray="5,2" d="M2433.82,-268.91C2417.41,-269.94 2400.13,-270.93 2384,-271.69 2334.88,-274 2278.98,-275.58 2238.54,-276.54"/>
<polygon fill="#9a32cd" stroke="#9a32cd" points="2434.15,-272.39 2443.91,-268.26 2433.7,-265.41 2434.15,-272.39"/>
<text text-anchor="middle" x="2327.5" y="-278.09" font-family="Helvetica,sans-Serif" font-size="12.00"> m_plotsModel</text>
</g>
<!-- Node17 -->
<g id="node17" class="node">
<title>Node17</title>
<g id="a_node17"><a xlink:title=" ">
<polygon fill="none" stroke="black" points="2110,-189.19 2110,-210.19 2253,-210.19 2253,-189.19 2110,-189.19"/>
<text text-anchor="middle" x="2181.5" y="-196.59" font-family="Helvetica,sans-Serif" font-size="12.00">QAbstractTableModel</text>
</a>
</g>
</g>
<!-- Node17&#45;&gt;Node16 -->
<g id="edge23" class="edge">
<title>Node17&#45;&gt;Node16</title>
<path fill="none" stroke="midnightblue" d="M2246.2,-212.19C2307.02,-224.13 2397.63,-241.92 2454.86,-253.16"/>
<polygon fill="midnightblue" stroke="midnightblue" points="2246.82,-208.75 2236.33,-210.26 2245.47,-215.62 2246.82,-208.75"/>
</g>
<!-- Node18 -->
<g id="node18" class="node">
<title>Node18</title>
<g id="a_node18"><a xlink:href="class_j_k_q_t_p_horizontal_axis.html" target="_top" xlink:title="implements a horizontal axis, based on JKQTPCoordinateAxis (for most of documentation: see JKQTPCoord...">
<polygon fill="none" stroke="black" points="2654,-360.19 2654,-381.19 2791,-381.19 2791,-360.19 2654,-360.19"/>
<text text-anchor="middle" x="2722.5" y="-367.59" font-family="Helvetica,sans-Serif" font-size="12.00">JKQTPHorizontalAxis</text>
</a>
</g>
</g>
<!-- Node18&#45;&gt;Node2 -->
<g id="edge25" class="edge">
<title>Node18&#45;&gt;Node2</title>
<path fill="none" stroke="#9a32cd" stroke-dasharray="5,2" d="M2643.64,-367.12C2552.73,-361.4 2398.54,-346.87 2271,-310.69 2249.23,-304.51 2225.21,-295.41 2207.7,-288.32"/>
<polygon fill="#9a32cd" stroke="#9a32cd" points="2643.67,-370.63 2653.87,-367.74 2644.1,-363.64 2643.67,-370.63"/>
<text text-anchor="middle" x="2509.5" y="-368.09" font-family="Helvetica,sans-Serif" font-size="12.00"> xAxis</text>
</g>
<!-- Node27 -->
<g id="node27" class="node">
<title>Node27</title>
<g id="a_node27"><a xlink:href="class_j_k_q_t_p_horizontal_independent_axis.html" target="_top" xlink:title="implements a position&#45;indipendent horizontal axis, based on JKQTPCoordinateAxis (for most of document...">
<polygon fill="none" stroke="black" points="2828,-357.19 2828,-378.19 3041,-378.19 3041,-357.19 2828,-357.19"/>
<text text-anchor="middle" x="2934.5" y="-364.59" font-family="Helvetica,sans-Serif" font-size="12.00">JKQTPHorizontalIndependentAxis</text>
</a>
</g>
</g>
<!-- Node18&#45;&gt;Node27 -->
<g id="edge42" class="edge">
<title>Node18&#45;&gt;Node27</title>
<path fill="none" stroke="midnightblue" d="M2801.17,-369.58C2809.87,-369.45 2818.83,-369.33 2827.8,-369.2"/>
<polygon fill="midnightblue" stroke="midnightblue" points="2801.05,-366.08 2791.1,-369.72 2801.15,-373.08 2801.05,-366.08"/>
</g>
<!-- Node19&#45;&gt;Node18 -->
<g id="edge26" class="edge">
<title>Node19&#45;&gt;Node18</title>
<path fill="none" stroke="midnightblue" d="M2590.47,-415.25C2605.73,-413.23 2621.47,-410.47 2636,-406.69 2659.07,-400.68 2684.04,-389.59 2701,-381.3"/>
<polygon fill="midnightblue" stroke="midnightblue" points="2590.02,-411.78 2580.52,-416.47 2590.88,-418.73 2590.02,-411.78"/>
</g>
<!-- Node20 -->
<g id="node20" class="node">
<title>Node20</title>
<g id="a_node20"><a xlink:href="class_j_k_q_t_p_vertical_axis.html" target="_top" xlink:title="implements a vertical axis, based on JKQTPCoordinateAxis (for most of documentation: see JKQTPCoordin...">
<polygon fill="none" stroke="black" points="2661.5,-315.19 2661.5,-336.19 2783.5,-336.19 2783.5,-315.19 2661.5,-315.19"/>
<text text-anchor="middle" x="2722.5" y="-322.59" font-family="Helvetica,sans-Serif" font-size="12.00">JKQTPVerticalAxis</text>
</a>
</g>
</g>
<!-- Node19&#45;&gt;Node20 -->
<g id="edge31" class="edge">
<title>Node19&#45;&gt;Node20</title>
<path fill="none" stroke="midnightblue" d="M2571.91,-407.19C2587.27,-402.35 2603.27,-395.97 2617,-387.69 2636.91,-375.67 2634.42,-363.24 2654,-350.69 2663.26,-344.75 2674.13,-339.94 2684.41,-336.19"/>
<polygon fill="midnightblue" stroke="midnightblue" points="2570.53,-403.95 2561.94,-410.15 2572.52,-410.66 2570.53,-403.95"/>
</g>
<!-- Node20&#45;&gt;Node2 -->
<g id="edge30" class="edge">
<title>Node20&#45;&gt;Node2</title>
<path fill="none" stroke="#9a32cd" stroke-dasharray="5,2" d="M2651.01,-322.15C2562.19,-317.29 2404.95,-307.31 2271,-291.69 2260.49,-290.46 2249.32,-288.9 2238.59,-287.27"/>
<polygon fill="#9a32cd" stroke="#9a32cd" points="2651.06,-325.66 2661.23,-322.71 2651.44,-318.67 2651.06,-325.66"/>
<text text-anchor="middle" x="2509.5" y="-323.09" font-family="Helvetica,sans-Serif" font-size="12.00"> yAxis</text>
</g>
<!-- Node26 -->
<g id="node26" class="node">
<title>Node26</title>
<g id="a_node26"><a xlink:href="class_j_k_q_t_p_vertical_independent_axis.html" target="_top" xlink:title="implements a position&#45;indipendent vertical axis, based on JKQTPCoordinateAxis (for most of documentat...">
<polygon fill="none" stroke="black" points="2836,-315.19 2836,-336.19 3033,-336.19 3033,-315.19 2836,-315.19"/>
<text text-anchor="middle" x="2934.5" y="-322.59" font-family="Helvetica,sans-Serif" font-size="12.00">JKQTPVerticalIndependentAxis</text>
</a>
</g>
</g>
<!-- Node20&#45;&gt;Node26 -->
<g id="edge40" class="edge">
<title>Node20&#45;&gt;Node26</title>
<path fill="none" stroke="midnightblue" d="M2793.78,-325.69C2807.22,-325.69 2821.52,-325.69 2835.65,-325.69"/>
<polygon fill="midnightblue" stroke="midnightblue" points="2793.68,-322.19 2783.68,-325.69 2793.68,-329.19 2793.68,-322.19"/>
</g>
<!-- Node21 -->
<g id="node21" class="node">
<title>Node21</title>
<g id="a_node21"><a xlink:href="class_j_k_q_t_p_datastore.html" target="_top" xlink:title="This class manages data columns (with entries of type double ), used by JKQTPlotter/JKQTBasePlotter t...">
<polygon fill="none" stroke="black" points="1850,-149.19 1850,-170.19 1961,-170.19 1961,-149.19 1850,-149.19"/>
<text text-anchor="middle" x="1905.5" y="-156.59" font-family="Helvetica,sans-Serif" font-size="12.00">JKQTPDatastore</text>
</a>
</g>
</g>
<!-- Node21&#45;&gt;Node2 -->
<g id="edge32" class="edge">
<title>Node21&#45;&gt;Node2</title>
<path fill="none" stroke="#9a32cd" stroke-dasharray="5,2" d="M1955.71,-173.05C1993.8,-184.18 2047.41,-201.6 2092,-222.69 2119.31,-235.6 2148.65,-255.07 2165.75,-267.05"/>
<polygon fill="#9a32cd" stroke="#9a32cd" points="1956.46,-169.62 1945.88,-170.22 1954.52,-176.35 1956.46,-169.62"/>
<text text-anchor="middle" x="2043.5" y="-226.09" font-family="Helvetica,sans-Serif" font-size="12.00"> datastore</text>
</g>
<!-- Node23 -->
<g id="node23" class="node">
<title>Node23</title>
<g id="a_node23"><a xlink:href="class_j_k_q_t_p_column.html" target="_top" xlink:title="internally stores information about one data column. See JKQTPDatastore for more information.">
<polygon fill="none" stroke="black" points="2132.5,-149.19 2132.5,-170.19 2230.5,-170.19 2230.5,-149.19 2132.5,-149.19"/>
<text text-anchor="middle" x="2181.5" y="-156.59" font-family="Helvetica,sans-Serif" font-size="12.00">JKQTPColumn</text>
</a>
</g>
</g>
<!-- Node21&#45;&gt;Node23 -->
<g id="edge35" class="edge">
<title>Node21&#45;&gt;Node23</title>
<path fill="none" stroke="#9a32cd" stroke-dasharray="5,2" d="M1971.54,-159.69C2020.87,-159.69 2087.58,-159.69 2132.22,-159.69"/>
<polygon fill="#9a32cd" stroke="#9a32cd" points="1971.29,-156.19 1961.29,-159.69 1971.29,-163.19 1971.29,-156.19"/>
<text text-anchor="middle" x="2043.5" y="-163.09" font-family="Helvetica,sans-Serif" font-size="12.00"> datastore</text>
</g>
<!-- Node22 -->
<g id="node22" class="node">
<title>Node22</title>
<g id="a_node22"><a xlink:title=" ">
<polygon fill="none" stroke="black" points="2402,-107.19 2402,-128.19 2617,-128.19 2617,-107.19 2402,-107.19"/>
<text text-anchor="middle" x="2509.5" y="-114.59" font-family="Helvetica,sans-Serif" font-size="12.00">std::unique_ptr&lt; JKQTPColumn &gt;</text>
</a>
</g>
</g>
<!-- Node22&#45;&gt;Node21 -->
<g id="edge33" class="edge">
<title>Node22&#45;&gt;Node21</title>
<path fill="none" stroke="#9a32cd" stroke-dasharray="5,2" d="M2391.66,-116.09C2312.11,-116.04 2204.5,-118 2110,-126.69 2058.32,-131.44 1999.9,-141.39 1958.95,-149.14"/>
<polygon fill="#9a32cd" stroke="#9a32cd" points="2391.71,-119.59 2401.71,-116.11 2391.72,-112.59 2391.71,-119.59"/>
<text text-anchor="middle" x="2181.5" y="-130.09" font-family="Helvetica,sans-Serif" font-size="12.00"> m_invalidColumn</text>
</g>
<!-- Node23&#45;&gt;Node22 -->
<g id="edge34" class="edge">
<title>Node23&#45;&gt;Node22</title>
<path fill="none" stroke="#9a32cd" stroke-dasharray="5,2" d="M2240.64,-152.2C2292.51,-145.51 2369.02,-135.66 2427,-128.19"/>
<polygon fill="#9a32cd" stroke="#9a32cd" points="2240.07,-148.74 2230.6,-153.49 2240.97,-155.68 2240.07,-148.74"/>
<text text-anchor="middle" x="2327.5" y="-150.09" font-family="Helvetica,sans-Serif" font-size="12.00"> ptr</text>
</g>
<!-- Node24 -->
<g id="node24" class="node">
<title>Node24</title>
<g id="a_node24"><a xlink:title=" ">
<polygon fill="none" stroke="black" points="2111.5,-60.19 2111.5,-81.19 2251.5,-81.19 2251.5,-60.19 2111.5,-60.19"/>
<text text-anchor="middle" x="2181.5" y="-67.59" font-family="Helvetica,sans-Serif" font-size="12.00">std::unique_ptr&lt; T &gt;</text>
</a>
</g>
</g>
<!-- Node24&#45;&gt;Node22 -->
<g id="edge36" class="edge">
<title>Node24&#45;&gt;Node22</title>
<path fill="none" stroke="orange" stroke-dasharray="5,2" d="M2262.04,-76.47C2299.21,-79.71 2344.01,-84.39 2384,-90.69 2411.42,-95.01 2441.88,-101.58 2465.8,-107.16"/>
<polygon fill="orange" stroke="orange" points="2262.02,-72.95 2251.76,-75.59 2261.43,-79.93 2262.02,-72.95"/>
<text text-anchor="middle" x="2327.5" y="-94.09" font-family="Helvetica,sans-Serif" font-size="12.00"> &lt; JKQTPColumn &gt;</text>
</g>
<!-- Node25 -->
<g id="node25" class="node">
<title>Node25</title>
<g id="a_node25"><a xlink:title=" ">
<polygon fill="none" stroke="black" points="1891,-60.19 1891,-81.19 1920,-81.19 1920,-60.19 1891,-60.19"/>
<text text-anchor="middle" x="1905.5" y="-67.59" font-family="Helvetica,sans-Serif" font-size="12.00">T</text>
</a>
</g>
</g>
<!-- Node25&#45;&gt;Node24 -->
<g id="edge37" class="edge">
<title>Node25&#45;&gt;Node24</title>
<path fill="none" stroke="#9a32cd" stroke-dasharray="5,2" d="M1930.17,-70.69C1970.06,-70.69 2052.14,-70.69 2111.46,-70.69"/>
<polygon fill="#9a32cd" stroke="#9a32cd" points="1930.09,-67.19 1920.09,-70.69 1930.09,-74.19 1930.09,-67.19"/>
<text text-anchor="middle" x="2043.5" y="-74.09" font-family="Helvetica,sans-Serif" font-size="12.00"> ptr</text>
</g>
<!-- Node26&#45;&gt;Node1 -->
<g id="edge39" class="edge">
<title>Node26&#45;&gt;Node1</title>
<path fill="none" stroke="#9a32cd" stroke-dasharray="5,2" d="M3043.31,-325.69C3089.62,-325.69 3143.05,-325.69 3186.92,-325.69"/>
<polygon fill="#9a32cd" stroke="#9a32cd" points="3043.24,-322.19 3033.24,-325.69 3043.24,-329.19 3043.24,-322.19"/>
<text text-anchor="middle" x="3114" y="-329.09" font-family="Helvetica,sans-Serif" font-size="12.00"> colorBarRightAxis</text>
</g>
<!-- Node27&#45;&gt;Node1 -->
<g id="edge41" class="edge">
<title>Node27&#45;&gt;Node1</title>
<path fill="none" stroke="#9a32cd" stroke-dasharray="5,2" d="M3051.11,-356.52C3088.75,-352.56 3130.7,-347.81 3169,-342.69 3174.82,-341.91 3180.81,-341.07 3186.85,-340.19"/>
<polygon fill="#9a32cd" stroke="#9a32cd" points="3050.71,-353.04 3041.13,-357.56 3051.43,-360.01 3050.71,-353.04"/>
<text text-anchor="middle" x="3114" y="-358.09" font-family="Helvetica,sans-Serif" font-size="12.00"> colorBarTopAxis</text>
</g>
</g>
</svg>
        <g id="navigator" transform="translate(0 0)" fill="#404254">
                <rect fill="#f2f5e9" fill-opacity="0.5" stroke="#606060" stroke-width=".5" x="0" y="0" width="60" height="60"/>
                <use id="zoomplus" xlink:href="#zoomPlus" x="17" y="9" onmousedown="handleZoom(evt,'in')"/>
                <use id="zoomminus" xlink:href="#zoomMin" x="42" y="9" onmousedown="handleZoom(evt,'out')"/>
                <use id="reset" xlink:href="#resetDef" x="30" y="36" onmousedown="handleReset()"/>
                <g id="arrowUp" xlink:href="#dirArrow" transform="translate(30 24)" onmousedown="handlePan(0,-1)">
                  <use xlink:href="#rim" fill="#404040">
                        <set attributeName="fill" to="#808080" begin="arrowUp.mouseover" end="arrowUp.mouseout"/>
                  </use>
                  <path fill="none" stroke="white" stroke-width="1.5" d="M0,-3.0v7 M-2.5,-0.5L0,-3.0L2.5,-0.5"/>
                </g>
                <g id="arrowRight" xlink:href="#dirArrow" transform="rotate(90) translate(36 -43)" onmousedown="handlePan(1,0)">
                  <use xlink:href="#rim" fill="#404040">
                        <set attributeName="fill" to="#808080" begin="arrowRight.mouseover" end="arrowRight.mouseout"/>
                  </use>
                  <path fill="none" stroke="white" stroke-width="1.5" d="M0,-3.0v7 M-2.5,-0.5L0,-3.0L2.5,-0.5"/>
                </g>
                <g id="arrowDown" xlink:href="#dirArrow" transform="rotate(180) translate(-30 -48)" onmousedown="handlePan(0,1)">
                  <use xlink:href="#rim" fill="#404040">
                        <set attributeName="fill" to="#808080" begin="arrowDown.mouseover" end="arrowDown.mouseout"/>
                  </use>
                  <path fill="none" stroke="white" stroke-width="1.5" d="M0,-3.0v7 M-2.5,-0.5L0,-3.0L2.5,-0.5"/>
                </g>
                <g id="arrowLeft" xlink:href="#dirArrow" transform="rotate(270) translate(-36 17)" onmousedown="handlePan(-1,0)">
                  <use xlink:href="#rim" fill="#404040">
                        <set attributeName="fill" to="#808080" begin="arrowLeft.mouseover" end="arrowLeft.mouseout"/>
                  </use>
                  <path fill="none" stroke="white" stroke-width="1.5" d="M0,-3.0v7 M-2.5,-0.5L0,-3.0L2.5,-0.5"/>
                </g>
        </g>
        <svg viewBox="0 0 15 15" width="100%" height="30px" preserveAspectRatio="xMaxYMin meet">
         <g id="arrow_out" transform="scale(0.3 0.3)">
          <a xlink:href="class_j_k_q_t_p_color_palette_style_and_tools_mixin__coll__graph_org.svg" target="_base">
           <rect id="button" ry="5" rx="5" y="6" x="6" height="38" width="38"
                fill="#f2f5e9" fill-opacity="0.5" stroke="#606060" stroke-width="1.0"/>
           <path id="arrow"
             d="M 11.500037,31.436501 C 11.940474,20.09759 22.043105,11.32322 32.158766,21.979434 L 37.068811,17.246167 C 37.068811,17.246167 37.088388,32 37.088388,32 L 22.160133,31.978069 C 22.160133,31.978069 26.997745,27.140456 26.997745,27.140456 C 18.528582,18.264221 13.291696,25.230495 11.500037,31.436501 z"
             style="fill:#404040;"/>
          </a>
         </g>
        </svg>
</svg>
