<?xml version="1.0" encoding="UTF-8" standalone="no"?>
<!DOCTYPE svg PUBLIC "-//W3C//DTD SVG 1.1//EN"
 "http://www.w3.org/Graphics/SVG/1.1/DTD/svg11.dtd">
<!-- Generated by graphviz version 2.43.0 (0)
 -->
<!-- Title: JKQTPHorizontalAxis Pages: 1 -->
<!--zoomable 457 -->
<svg id="main" version="1.1" xmlns="http://www.w3.org/2000/svg" xmlns:xlink="http://www.w3.org/1999/xlink" xml:space="preserve" onload="init(evt)">
<style type="text/css"><![CDATA[
.edge:hover path { stroke: red; }
.edge:hover polygon { stroke: red; fill: red; }
]]></style>
<script type="text/javascript"><![CDATA[
var edges = document.getElementsByTagName('g');
if (edges && edges.length) {
  for (var i=0;i<edges.length;i++) {
    if (edges[i].id.substr(0,4)=='edge') {
      edges[i].setAttribute('class','edge');
    }
  }
}
]]></script>
        <defs>
                <circle id="rim" cx="0" cy="0" r="7"/>
                <circle id="rim2" cx="0" cy="0" r="3.5"/>
                <g id="zoomPlus">
                        <use xlink:href="#rim" fill="#404040">
                                <set attributeName="fill" to="#808080" begin="zoomplus.mouseover" end="zoomplus.mouseout"/>
                        </use>
                        <path d="M-4,0h8M0,-4v8" fill="none" stroke="white" stroke-width="1.5" pointer-events="none"/>
                </g>
                <g id="zoomMin">
                        <use xlink:href="#rim" fill="#404040">
                                <set attributeName="fill" to="#808080" begin="zoomminus.mouseover" end="zoomminus.mouseout"/>
                        </use>
                        <path d="M-4,0h8" fill="none" stroke="white" stroke-width="1.5" pointer-events="none"/>
                </g>
                <g id="dirArrow">
                        <path fill="none" stroke="white" stroke-width="1.5" d="M0,-3.0v7 M-2.5,-0.5L0,-3.0L2.5,-0.5"/>
                </g>
               <g id="resetDef">
                       <use xlink:href="#rim2" fill="#404040">
                               <set attributeName="fill" to="#808080" begin="reset.mouseover" end="reset.mouseout"/>
                       </use>
               </g>
        </defs>

<script type="text/javascript">
var viewWidth = 2784;
var viewHeight = 457;
var sectionId = 'dynsection-1';
</script>
<script xlink:href="svgpan.js"/>
<svg id="graph" class="graph">
<g id="viewport">
<title>JKQTPHorizontalAxis</title>
<!-- Node1 -->
<g id="node1" class="node">
<title>Node1</title>
<g id="a_node1"><a xlink:title="implements a horizontal axis, based on JKQTPCoordinateAxis (for most of documentation: see JKQTPCoord...">
<polygon fill="#bfbfbf" stroke="black" points="1837,-266.5 1837,-287.5 1974,-287.5 1974,-266.5 1837,-266.5"/>
<text text-anchor="middle" x="1905.5" y="-273.9" font-family="Helvetica,sans-Serif" font-size="12.00">JKQTPHorizontalAxis</text>
</a>
</g>
</g>
<!-- Node4 -->
<g id="node4" class="node">
<title>Node4</title>
<g id="a_node4"><a xlink:href="class_j_k_q_t_base_plotter.html" target="_top" xlink:title="base class for 2D plotter classes (used by the plotter widget JKQTPlotter)">
<polygon fill="none" stroke="black" points="2124.5,-200.5 2124.5,-221.5 2238.5,-221.5 2238.5,-200.5 2124.5,-200.5"/>
<text text-anchor="middle" x="2181.5" y="-207.9" font-family="Helvetica,sans-Serif" font-size="12.00">JKQTBasePlotter</text>
</a>
</g>
</g>
<!-- Node1&#45;&gt;Node4 -->
<g id="edge27" class="edge">
<title>Node1&#45;&gt;Node4</title>
<path fill="none" stroke="#9a32cd" stroke-dasharray="5,2" d="M1941.62,-262.79C1957.69,-256.67 1977.11,-249.84 1995,-245 2037.83,-233.42 2087.29,-224.57 2124.36,-218.81"/>
<polygon fill="#9a32cd" stroke="#9a32cd" points="1940.15,-259.6 1932.08,-266.47 1942.67,-266.13 1940.15,-259.6"/>
<text text-anchor="middle" x="2043.5" y="-248.4" font-family="Helvetica,sans-Serif" font-size="12.00"> xAxis</text>
</g>
<!-- Node2 -->
<g id="node2" class="node">
<title>Node2</title>
<g id="a_node2"><a xlink:href="class_j_k_q_t_p_coordinate_axis.html" target="_top" xlink:title="this virtual class is the base for any type of coordinate axis, to be drawn by JKQTBasePlotter.">
<polygon fill="none" stroke="black" points="2438.5,-287.5 2438.5,-308.5 2580.5,-308.5 2580.5,-287.5 2438.5,-287.5"/>
<text text-anchor="middle" x="2509.5" y="-294.9" font-family="Helvetica,sans-Serif" font-size="12.00">JKQTPCoordinateAxis</text>
</a>
</g>
</g>
<!-- Node2&#45;&gt;Node1 -->
<g id="edge1" class="edge">
<title>Node2&#45;&gt;Node1</title>
<path fill="none" stroke="midnightblue" d="M2427.94,-301.89C2326.63,-305.74 2147.46,-309.11 1995,-294 1981.14,-292.63 1966.22,-290.15 1952.66,-287.51"/>
<polygon fill="midnightblue" stroke="midnightblue" points="2428.24,-305.38 2438.1,-301.49 2427.97,-298.38 2428.24,-305.38"/>
</g>
<!-- Node19 -->
<g id="node19" class="node">
<title>Node19</title>
<g id="a_node19"><a xlink:href="class_j_k_q_t_p_vertical_axis.html" target="_top" xlink:title="implements a vertical axis, based on JKQTPCoordinateAxis (for most of documentation: see JKQTPCoordin...">
<polygon fill="none" stroke="black" points="2654,-238.5 2654,-259.5 2776,-259.5 2776,-238.5 2654,-238.5"/>
<text text-anchor="middle" x="2715" y="-245.9" font-family="Helvetica,sans-Serif" font-size="12.00">JKQTPVerticalAxis</text>
</a>
</g>
</g>
<!-- Node2&#45;&gt;Node19 -->
<g id="edge29" class="edge">
<title>Node2&#45;&gt;Node19</title>
<path fill="none" stroke="midnightblue" d="M2564.11,-285.09C2597.15,-277.14 2638.99,-267.06 2670.07,-259.58"/>
<polygon fill="midnightblue" stroke="midnightblue" points="2563.06,-281.74 2554.16,-287.49 2564.7,-288.55 2563.06,-281.74"/>
</g>
<!-- Node3 -->
<g id="node3" class="node">
<title>Node3</title>
<g id="a_node3"><a xlink:title=" ">
<polygon fill="none" stroke="black" points="1531.5,-367.5 1531.5,-388.5 1596.5,-388.5 1596.5,-367.5 1531.5,-367.5"/>
<text text-anchor="middle" x="1564" y="-374.9" font-family="Helvetica,sans-Serif" font-size="12.00">QObject</text>
</a>
</g>
</g>
<!-- Node3&#45;&gt;Node2 -->
<g id="edge2" class="edge">
<title>Node3&#45;&gt;Node2</title>
<path fill="none" stroke="midnightblue" d="M1606.62,-389.43C1714.85,-417.34 2013.41,-482.66 2253,-426 2351.73,-402.65 2455.77,-334.93 2493.63,-308.62"/>
<polygon fill="midnightblue" stroke="midnightblue" points="1607.3,-385.99 1596.74,-386.85 1605.54,-392.76 1607.3,-385.99"/>
</g>
<!-- Node3&#45;&gt;Node4 -->
<g id="edge4" class="edge">
<title>Node3&#45;&gt;Node4</title>
<path fill="none" stroke="midnightblue" d="M1606.6,-375.92C1661.21,-371.06 1757.03,-354.85 1816,-301 1831.6,-286.75 1817.7,-270.44 1834,-257 1890.3,-210.6 1922.72,-234.87 1995,-225 2038.2,-219.1 2087.42,-215.53 2124.3,-213.47"/>
<polygon fill="midnightblue" stroke="midnightblue" points="1606.26,-372.44 1596.57,-376.73 1606.82,-379.42 1606.26,-372.44"/>
</g>
<!-- Node15 -->
<g id="node15" class="node">
<title>Node15</title>
<g id="a_node15"><a xlink:href="class_j_k_q_t_math_text.html" target="_top" xlink:title="this class parses a mathematical markup string and can then draw the contained text/equation onto a Q...">
<polygon fill="none" stroke="black" points="1856,-364.5 1856,-385.5 1955,-385.5 1955,-364.5 1856,-364.5"/>
<text text-anchor="middle" x="1905.5" y="-371.9" font-family="Helvetica,sans-Serif" font-size="12.00">JKQTMathText</text>
</a>
</g>
</g>
<!-- Node3&#45;&gt;Node15 -->
<g id="edge20" class="edge">
<title>Node3&#45;&gt;Node15</title>
<path fill="none" stroke="midnightblue" d="M1607,-377.63C1670.07,-377.07 1788.96,-376.02 1855.76,-375.43"/>
<polygon fill="midnightblue" stroke="midnightblue" points="1606.6,-374.13 1596.63,-377.72 1606.67,-381.13 1606.6,-374.13"/>
</g>
<!-- Node4&#45;&gt;Node2 -->
<g id="edge3" class="edge">
<title>Node4&#45;&gt;Node2</title>
<path fill="none" stroke="#9a32cd" stroke-dasharray="5,2" d="M2213.88,-225.88C2230.55,-233.34 2251.57,-242.02 2271,-248 2319.99,-263.07 2333.84,-260.46 2384,-271 2409.32,-276.32 2437.51,-282.42 2460.64,-287.47"/>
<polygon fill="#9a32cd" stroke="#9a32cd" points="2215.16,-222.62 2204.61,-221.66 2212.26,-228.99 2215.16,-222.62"/>
<text text-anchor="middle" x="2327.5" y="-274.4" font-family="Helvetica,sans-Serif" font-size="12.00"> parent</text>
</g>
<!-- Node4&#45;&gt;Node4 -->
<g id="edge36" class="edge">
<title>Node4&#45;&gt;Node4</title>
<path fill="none" stroke="#9a32cd" stroke-dasharray="5,2" d="M2155.93,-231.06C2157.61,-236.16 2166.13,-240 2181.5,-240 2205.49,-240 2212.8,-230.65 2203.43,-221.71"/>
<polygon fill="#9a32cd" stroke="#9a32cd" points="2159.21,-232.3 2159.57,-221.71 2152.68,-229.76 2159.21,-232.3"/>
<text text-anchor="middle" x="2181.5" y="-256.4" font-family="Helvetica,sans-Serif" font-size="12.00"> masterPlotterX</text>
<text text-anchor="middle" x="2181.5" y="-243.4" font-family="Helvetica,sans-Serif" font-size="12.00">masterPlotterY</text>
</g>
<!-- Node17 -->
<g id="node17" class="node">
<title>Node17</title>
<g id="a_node17"><a xlink:href="class_j_k_q_t_p_graphs_model.html" target="_top" xlink:title="data model with all plots ina JKQTBasePlotter (+ allows to switch them visible/invisible)">
<polygon fill="none" stroke="black" points="2444,-162.5 2444,-183.5 2575,-183.5 2575,-162.5 2444,-162.5"/>
<text text-anchor="middle" x="2509.5" y="-169.9" font-family="Helvetica,sans-Serif" font-size="12.00">JKQTPGraphsModel</text>
</a>
</g>
</g>
<!-- Node4&#45;&gt;Node17 -->
<g id="edge26" class="edge">
<title>Node4&#45;&gt;Node17</title>
<path fill="none" stroke="#9a32cd" stroke-dasharray="5,2" d="M2248.53,-203.3C2305.54,-196.66 2387.4,-187.12 2443.97,-180.52"/>
<polygon fill="#9a32cd" stroke="#9a32cd" points="2248.07,-199.83 2238.54,-204.47 2248.88,-206.79 2248.07,-199.83"/>
<text text-anchor="middle" x="2327.5" y="-202.4" font-family="Helvetica,sans-Serif" font-size="12.00"> m_plotter</text>
</g>
<!-- Node5 -->
<g id="node5" class="node">
<title>Node5</title>
<g id="a_node5"><a xlink:href="class_j_k_q_t_base_plotter_style.html" target="_top" xlink:title="Support Class for JKQTBasePlotter, which summarizes all properties that define the visual styling of ...">
<polygon fill="none" stroke="black" points="1834,-172.5 1834,-193.5 1977,-193.5 1977,-172.5 1834,-172.5"/>
<text text-anchor="middle" x="1905.5" y="-179.9" font-family="Helvetica,sans-Serif" font-size="12.00">JKQTBasePlotterStyle</text>
</a>
</g>
</g>
<!-- Node5&#45;&gt;Node4 -->
<g id="edge5" class="edge">
<title>Node5&#45;&gt;Node4</title>
<path fill="none" stroke="#9a32cd" stroke-dasharray="5,2" d="M1987.73,-178.35C2020.31,-177.81 2058.1,-178.85 2092,-184 2112.96,-187.18 2135.84,-194.26 2153.08,-200.37"/>
<polygon fill="#9a32cd" stroke="#9a32cd" points="1987.26,-174.86 1977.34,-178.58 1987.42,-181.86 1987.26,-174.86"/>
<text text-anchor="middle" x="2043.5" y="-187.4" font-family="Helvetica,sans-Serif" font-size="12.00"> plotterStyle</text>
</g>
<!-- Node6 -->
<g id="node6" class="node">
<title>Node6</title>
<g id="a_node6"><a xlink:href="class_j_k_q_t_p_key_style.html" target="_top" xlink:title="Support Class for JKQTBasePlotter, which summarizes all properties that define the visual styling of ...">
<polygon fill="none" stroke="black" points="1512,-162.5 1512,-183.5 1616,-183.5 1616,-162.5 1512,-162.5"/>
<text text-anchor="middle" x="1564" y="-169.9" font-family="Helvetica,sans-Serif" font-size="12.00">JKQTPKeyStyle</text>
</a>
</g>
</g>
<!-- Node6&#45;&gt;Node5 -->
<g id="edge6" class="edge">
<title>Node6&#45;&gt;Node5</title>
<path fill="none" stroke="#9a32cd" stroke-dasharray="5,2" d="M1626.39,-174.81C1684.82,-176.53 1772.69,-179.12 1833.97,-180.92"/>
<polygon fill="#9a32cd" stroke="#9a32cd" points="1626.29,-171.3 1616.19,-174.51 1626.09,-178.3 1626.29,-171.3"/>
<text text-anchor="middle" x="1747.5" y="-183.4" font-family="Helvetica,sans-Serif" font-size="12.00"> keyStyle</text>
</g>
<!-- Node7 -->
<g id="node7" class="node">
<title>Node7</title>
<g id="a_node7"><a xlink:href="class_j_k_q_t_p_coordinate_axis_style.html" target="_top" xlink:title="Support Class for JKQTPCoordinateAxis, which summarizes all properties that define the visual styling...">
<polygon fill="none" stroke="black" points="1152,-271.5 1152,-292.5 1323,-292.5 1323,-271.5 1152,-271.5"/>
<text text-anchor="middle" x="1237.5" y="-278.9" font-family="Helvetica,sans-Serif" font-size="12.00">JKQTPCoordinateAxisStyle</text>
</a>
</g>
</g>
<!-- Node7&#45;&gt;Node2 -->
<g id="edge37" class="edge">
<title>Node7&#45;&gt;Node2</title>
<path fill="none" stroke="#9a32cd" stroke-dasharray="5,2" d="M1320.06,-293.87C1363.57,-299.63 1418.08,-305.96 1467,-309 1823.67,-331.15 1913.65,-316.89 2271,-318 2321.22,-318.16 2333.94,-322 2384,-318 2407.35,-316.14 2432.93,-312.34 2454.8,-308.54"/>
<polygon fill="#9a32cd" stroke="#9a32cd" points="1320.48,-290.39 1310.1,-292.53 1319.55,-297.33 1320.48,-290.39"/>
<text text-anchor="middle" x="1905.5" y="-324.4" font-family="Helvetica,sans-Serif" font-size="12.00"> axisStyle</text>
</g>
<!-- Node7&#45;&gt;Node5 -->
<g id="edge7" class="edge">
<title>Node7&#45;&gt;Node5</title>
<path fill="none" stroke="#9a32cd" stroke-dasharray="5,2" d="M1287.54,-268.9C1333.57,-257.07 1404.5,-240.02 1467,-230 1620.84,-205.33 1661.42,-216.51 1816,-197 1824.18,-195.97 1832.77,-194.76 1841.24,-193.5"/>
<polygon fill="#9a32cd" stroke="#9a32cd" points="1286.63,-265.52 1277.83,-271.42 1288.38,-272.3 1286.63,-265.52"/>
<text text-anchor="middle" x="1564" y="-246.4" font-family="Helvetica,sans-Serif" font-size="12.00"> xAxisStyle</text>
<text text-anchor="middle" x="1564" y="-233.4" font-family="Helvetica,sans-Serif" font-size="12.00">yAxisStyle</text>
</g>
<!-- Node9 -->
<g id="node9" class="node">
<title>Node9</title>
<g id="a_node9"><a xlink:href="class_j_k_q_t_p_colorbar_coordinate_axis_style.html" target="_top" xlink:title="Support Class for JKQTPCoordinateAxis, which summarizes all properties that define the visual styling...">
<polygon fill="none" stroke="black" points="1467,-265 1467,-299 1661,-299 1661,-265 1467,-265"/>
<text text-anchor="start" x="1475" y="-285.4" font-family="Helvetica,sans-Serif" font-size="12.00">JKQTPColorbarCoordinateAxis</text>
<text text-anchor="middle" x="1564" y="-272.4" font-family="Helvetica,sans-Serif" font-size="12.00">Style</text>
</a>
</g>
</g>
<!-- Node7&#45;&gt;Node9 -->
<g id="edge10" class="edge">
<title>Node7&#45;&gt;Node9</title>
<path fill="none" stroke="midnightblue" d="M1333.56,-282C1375.54,-282 1424.81,-282 1466.91,-282"/>
<polygon fill="midnightblue" stroke="midnightblue" points="1333.33,-278.5 1323.33,-282 1333.33,-285.5 1333.33,-278.5"/>
</g>
<!-- Node8 -->
<g id="node8" class="node">
<title>Node8</title>
<g id="a_node8"><a xlink:href="class_j_k_q_t_p_grid_style.html" target="_top" xlink:title="Support Class for JKQTPCoordinateAxis, and summarizes all properties that define the visual styling o...">
<polygon fill="none" stroke="black" points="851.5,-271.5 851.5,-292.5 958.5,-292.5 958.5,-271.5 851.5,-271.5"/>
<text text-anchor="middle" x="905" y="-278.9" font-family="Helvetica,sans-Serif" font-size="12.00">JKQTPGridStyle</text>
</a>
</g>
</g>
<!-- Node8&#45;&gt;Node7 -->
<g id="edge8" class="edge">
<title>Node8&#45;&gt;Node7</title>
<path fill="none" stroke="#9a32cd" stroke-dasharray="5,2" d="M968.79,-282C1020.62,-282 1094.66,-282 1151.74,-282"/>
<polygon fill="#9a32cd" stroke="#9a32cd" points="968.73,-278.5 958.73,-282 968.73,-285.5 968.73,-278.5"/>
<text text-anchor="middle" x="1069.5" y="-298.4" font-family="Helvetica,sans-Serif" font-size="12.00"> majorGridStyle</text>
<text text-anchor="middle" x="1069.5" y="-285.4" font-family="Helvetica,sans-Serif" font-size="12.00">minorGridStyle</text>
</g>
<!-- Node9&#45;&gt;Node5 -->
<g id="edge9" class="edge">
<title>Node9&#45;&gt;Node5</title>
<path fill="none" stroke="#9a32cd" stroke-dasharray="5,2" d="M1671.19,-272.93C1717.22,-266.19 1770.81,-254.45 1816,-234 1825.23,-229.82 1825.48,-225.49 1834,-220 1849.46,-210.05 1867.88,-200.45 1882.02,-193.52"/>
<polygon fill="#9a32cd" stroke="#9a32cd" points="1670.6,-269.48 1661.18,-274.34 1671.57,-276.41 1670.6,-269.48"/>
<text text-anchor="middle" x="1747.5" y="-287.4" font-family="Helvetica,sans-Serif" font-size="12.00"> rightColorbarAxisStyle</text>
<text text-anchor="middle" x="1747.5" y="-274.4" font-family="Helvetica,sans-Serif" font-size="12.00">topColorbarAxisStyle</text>
</g>
<!-- Node10 -->
<g id="node10" class="node">
<title>Node10</title>
<g id="a_node10"><a xlink:href="class_j_k_q_t_graphs_base_style.html" target="_top" xlink:title="Support Class for JKQTBasePlotter, which summarizes all properties that define the visual styling of ...">
<polygon fill="none" stroke="black" points="1491,-122.5 1491,-143.5 1637,-143.5 1637,-122.5 1491,-122.5"/>
<text text-anchor="middle" x="1564" y="-129.9" font-family="Helvetica,sans-Serif" font-size="12.00">JKQTGraphsBaseStyle</text>
</a>
</g>
</g>
<!-- Node10&#45;&gt;Node5 -->
<g id="edge11" class="edge">
<title>Node10&#45;&gt;Node5</title>
<path fill="none" stroke="#9a32cd" stroke-dasharray="5,2" d="M1647.4,-138.16C1696.61,-142.08 1760.21,-148.62 1816,-159 1834.31,-162.41 1854.37,-167.71 1870.76,-172.47"/>
<polygon fill="#9a32cd" stroke="#9a32cd" points="1647.36,-134.65 1637.12,-137.37 1646.82,-141.63 1647.36,-134.65"/>
<text text-anchor="middle" x="1747.5" y="-162.4" font-family="Helvetica,sans-Serif" font-size="12.00"> graphsStyle</text>
</g>
<!-- Node11 -->
<g id="node11" class="node">
<title>Node11</title>
<g id="a_node11"><a xlink:href="class_j_k_q_t_graphs_specific_style_properties.html" target="_top" xlink:title="Support Class for JKQTBasePlotter, which summarizes all properties that define the visual styling of ...">
<polygon fill="none" stroke="black" points="399,-116.5 399,-137.5 623,-137.5 623,-116.5 399,-116.5"/>
<text text-anchor="middle" x="511" y="-123.9" font-family="Helvetica,sans-Serif" font-size="12.00">JKQTGraphsSpecificStyleProperties</text>
</a>
</g>
</g>
<!-- Node11&#45;&gt;Node10 -->
<g id="edge12" class="edge">
<title>Node11&#45;&gt;Node10</title>
<path fill="none" stroke="#9a32cd" stroke-dasharray="5,2" d="M612.04,-138.59C670.53,-144.71 745.84,-151.47 813,-154 972.9,-160.03 1429.83,-146.2 1449,-145 1462.51,-144.16 1476.88,-142.91 1490.71,-141.54"/>
<polygon fill="#9a32cd" stroke="#9a32cd" points="612.38,-135.1 602.07,-137.53 611.64,-142.06 612.38,-135.1"/>
<text text-anchor="middle" x="1069.5" y="-209.4" font-family="Helvetica,sans-Serif" font-size="12.00"> barchartStyle</text>
<text text-anchor="middle" x="1069.5" y="-196.4" font-family="Helvetica,sans-Serif" font-size="12.00">boxplotStyle</text>
<text text-anchor="middle" x="1069.5" y="-183.4" font-family="Helvetica,sans-Serif" font-size="12.00">defaultGraphStyle</text>
<text text-anchor="middle" x="1069.5" y="-170.4" font-family="Helvetica,sans-Serif" font-size="12.00">filledStyle</text>
<text text-anchor="middle" x="1069.5" y="-157.4" font-family="Helvetica,sans-Serif" font-size="12.00">impulseStyle</text>
</g>
<!-- Node13 -->
<g id="node13" class="node">
<title>Node13</title>
<g id="a_node13"><a xlink:href="class_j_k_q_t_geometric_specific_style_properties.html" target="_top" xlink:title="Support Class for JKQTBasePlotter, which summarizes all properties that define the visual styling of ...">
<polygon fill="none" stroke="black" points="813,-110 813,-144 997,-144 997,-110 813,-110"/>
<text text-anchor="start" x="821" y="-130.4" font-family="Helvetica,sans-Serif" font-size="12.00">JKQTGeometricSpecificStyle</text>
<text text-anchor="middle" x="905" y="-117.4" font-family="Helvetica,sans-Serif" font-size="12.00">Properties</text>
</a>
</g>
</g>
<!-- Node11&#45;&gt;Node13 -->
<g id="edge15" class="edge">
<title>Node11&#45;&gt;Node13</title>
<path fill="none" stroke="midnightblue" d="M633.34,-127C691.25,-127 759.38,-127 812.8,-127"/>
<polygon fill="midnightblue" stroke="midnightblue" points="633.02,-123.5 623.02,-127 633.02,-130.5 633.02,-123.5"/>
</g>
<!-- Node12 -->
<g id="node12" class="node">
<title>Node12</title>
<g id="a_node12"><a xlink:href="struct_j_k_q_t_p_color_derivation_mode.html" target="_top" xlink:title="Specifies how a fill&#45;color is derived from a given color.">
<polygon fill="none" stroke="black" points="0,-85.5 0,-106.5 179,-106.5 179,-85.5 0,-85.5"/>
<text text-anchor="middle" x="89.5" y="-92.9" font-family="Helvetica,sans-Serif" font-size="12.00">JKQTPColorDerivationMode</text>
</a>
</g>
</g>
<!-- Node12&#45;&gt;Node11 -->
<g id="edge13" class="edge">
<title>Node12&#45;&gt;Node11</title>
<path fill="none" stroke="#9a32cd" stroke-dasharray="5,2" d="M189.53,-103.32C252.41,-107.96 333.9,-113.99 398.97,-118.8"/>
<polygon fill="#9a32cd" stroke="#9a32cd" points="189.44,-99.8 179.21,-102.56 188.92,-106.78 189.44,-99.8"/>
<text text-anchor="middle" x="289" y="-171.4" font-family="Helvetica,sans-Serif" font-size="12.00"> errorColorDerivationMode</text>
<text text-anchor="middle" x="289" y="-158.4" font-family="Helvetica,sans-Serif" font-size="12.00">errorFillColorDerivationMode</text>
<text text-anchor="middle" x="289" y="-145.4" font-family="Helvetica,sans-Serif" font-size="12.00">fillColorDerivationMode</text>
<text text-anchor="middle" x="289" y="-132.4" font-family="Helvetica,sans-Serif" font-size="12.00">graphColorDerivationMode</text>
<text text-anchor="middle" x="289" y="-119.4" font-family="Helvetica,sans-Serif" font-size="12.00">symbolFillColorDerivationMode</text>
</g>
<!-- Node14 -->
<g id="node14" class="node">
<title>Node14</title>
<g id="a_node14"><a xlink:href="class_j_k_q_t_annotations_specific_style_properties.html" target="_top" xlink:title="Support Class for JKQTBasePlotter, which summarizes all properties that define the visual styling of ...">
<polygon fill="none" stroke="black" points="1142,-62 1142,-96 1333,-96 1333,-62 1142,-62"/>
<text text-anchor="start" x="1150" y="-82.4" font-family="Helvetica,sans-Serif" font-size="12.00">JKQTAnnotationsSpecificStyle</text>
<text text-anchor="middle" x="1237.5" y="-69.4" font-family="Helvetica,sans-Serif" font-size="12.00">Properties</text>
</a>
</g>
</g>
<!-- Node12&#45;&gt;Node14 -->
<g id="edge18" class="edge">
<title>Node12&#45;&gt;Node14</title>
<path fill="none" stroke="#9a32cd" stroke-dasharray="5,2" d="M189.64,-94.53C407.99,-91.29 927.98,-83.58 1141.99,-80.4"/>
<polygon fill="#9a32cd" stroke="#9a32cd" points="189.42,-91.03 179.47,-94.68 189.52,-98.03 189.42,-91.03"/>
<text text-anchor="middle" x="718" y="-90.4" font-family="Helvetica,sans-Serif" font-size="12.00"> textColorDerivationMode</text>
</g>
<!-- Node13&#45;&gt;Node10 -->
<g id="edge14" class="edge">
<title>Node13&#45;&gt;Node10</title>
<path fill="none" stroke="#9a32cd" stroke-dasharray="5,2" d="M1007.25,-127.92C1140.94,-129.15 1373.1,-131.27 1490.53,-132.34"/>
<polygon fill="#9a32cd" stroke="#9a32cd" points="1007.04,-124.42 997.01,-127.83 1006.98,-131.42 1007.04,-124.42"/>
<text text-anchor="middle" x="1237.5" y="-133.4" font-family="Helvetica,sans-Serif" font-size="12.00"> geometricStyle</text>
</g>
<!-- Node13&#45;&gt;Node14 -->
<g id="edge17" class="edge">
<title>Node13&#45;&gt;Node14</title>
<path fill="none" stroke="midnightblue" d="M1007.35,-112.28C1050.18,-106.06 1099.79,-98.86 1141.87,-92.74"/>
<polygon fill="midnightblue" stroke="midnightblue" points="1006.58,-108.86 997.19,-113.76 1007.58,-115.78 1006.58,-108.86"/>
</g>
<!-- Node14&#45;&gt;Node10 -->
<g id="edge16" class="edge">
<title>Node14&#45;&gt;Node10</title>
<path fill="none" stroke="#9a32cd" stroke-dasharray="5,2" d="M1343.5,-90.27C1377.3,-94.48 1414.84,-99.78 1449,-106 1473.81,-110.52 1501.33,-116.99 1523.12,-122.47"/>
<polygon fill="#9a32cd" stroke="#9a32cd" points="1343.49,-86.74 1333.13,-88.99 1342.63,-93.69 1343.49,-86.74"/>
<text text-anchor="middle" x="1400" y="-109.4" font-family="Helvetica,sans-Serif" font-size="12.00"> annotationStyle</text>
</g>
<!-- Node15&#45;&gt;Node4 -->
<g id="edge19" class="edge">
<title>Node15&#45;&gt;Node4</title>
<path fill="none" stroke="#9a32cd" stroke-dasharray="5,2" d="M1946.74,-360.71C1956.81,-356.68 1967.46,-352.01 1977,-347 2052.62,-307.29 2134.94,-246.1 2166.83,-221.64"/>
<polygon fill="#9a32cd" stroke="#9a32cd" points="1945.37,-357.49 1937.32,-364.38 1947.91,-364.02 1945.37,-357.49"/>
<text text-anchor="middle" x="2043.5" y="-337.4" font-family="Helvetica,sans-Serif" font-size="12.00"> mathText</text>
</g>
<!-- Node16 -->
<g id="node16" class="node">
<title>Node16</title>
<g id="a_node16"><a xlink:href="class_j_k_q_t_math_text_node.html" target="_top" xlink:title="subclass representing one node in the syntax tree">
<polygon fill="none" stroke="black" points="2116,-364.5 2116,-385.5 2247,-385.5 2247,-364.5 2116,-364.5"/>
<text text-anchor="middle" x="2181.5" y="-371.9" font-family="Helvetica,sans-Serif" font-size="12.00">JKQTMathTextNode</text>
</a>
</g>
</g>
<!-- Node15&#45;&gt;Node16 -->
<g id="edge22" class="edge">
<title>Node15&#45;&gt;Node16</title>
<path fill="none" stroke="#9a32cd" stroke-dasharray="5,2" d="M1965.33,-369.69C1975.23,-368.99 1985.4,-368.38 1995,-368 2038.08,-366.3 2048.92,-366.3 2092,-368 2099.7,-368.3 2107.77,-368.76 2115.77,-369.29"/>
<polygon fill="#9a32cd" stroke="#9a32cd" points="1964.86,-366.22 1955.15,-370.46 1965.38,-373.2 1964.86,-366.22"/>
<text text-anchor="middle" x="2043.5" y="-371.4" font-family="Helvetica,sans-Serif" font-size="12.00"> parentMathText</text>
</g>
<!-- Node16&#45;&gt;Node15 -->
<g id="edge21" class="edge">
<title>Node16&#45;&gt;Node15</title>
<path fill="none" stroke="#9a32cd" stroke-dasharray="5,2" d="M2105.67,-384.05C2101.05,-384.43 2096.46,-384.75 2092,-385 2048.96,-387.42 2038.04,-387.42 1995,-385 1982.03,-384.27 1968.05,-382.94 1955.11,-381.49"/>
<polygon fill="#9a32cd" stroke="#9a32cd" points="2106.15,-387.52 2115.8,-383.16 2105.54,-380.55 2106.15,-387.52"/>
<text text-anchor="middle" x="2043.5" y="-389.4" font-family="Helvetica,sans-Serif" font-size="12.00"> parsedNode</text>
</g>
<!-- Node16&#45;&gt;Node16 -->
<g id="edge23" class="edge">
<title>Node16&#45;&gt;Node16</title>
<path fill="none" stroke="#9a32cd" stroke-dasharray="5,2" d="M2155.93,-395.06C2157.61,-400.16 2166.13,-404 2181.5,-404 2205.49,-404 2212.8,-394.65 2203.43,-385.71"/>
<polygon fill="#9a32cd" stroke="#9a32cd" points="2159.21,-396.3 2159.57,-385.71 2152.68,-393.76 2159.21,-396.3"/>
<text text-anchor="middle" x="2181.5" y="-407.4" font-family="Helvetica,sans-Serif" font-size="12.00"> parentNode</text>
</g>
<!-- Node17&#45;&gt;Node4 -->
<g id="edge24" class="edge">
<title>Node17&#45;&gt;Node4</title>
<path fill="none" stroke="#9a32cd" stroke-dasharray="5,2" d="M2433.67,-165.91C2386.53,-163.25 2324.65,-163.12 2271,-174 2245.87,-179.1 2218.94,-191.45 2201.48,-200.49"/>
<polygon fill="#9a32cd" stroke="#9a32cd" points="2433.6,-169.41 2443.8,-166.53 2434.03,-162.42 2433.6,-169.41"/>
<text text-anchor="middle" x="2327.5" y="-177.4" font-family="Helvetica,sans-Serif" font-size="12.00"> m_plotsModel</text>
</g>
<!-- Node18 -->
<g id="node18" class="node">
<title>Node18</title>
<g id="a_node18"><a xlink:title=" ">
<polygon fill="none" stroke="black" points="2110,-129.5 2110,-150.5 2253,-150.5 2253,-129.5 2110,-129.5"/>
<text text-anchor="middle" x="2181.5" y="-136.9" font-family="Helvetica,sans-Serif" font-size="12.00">QAbstractTableModel</text>
</a>
</g>
</g>
<!-- Node18&#45;&gt;Node17 -->
<g id="edge25" class="edge">
<title>Node18&#45;&gt;Node17</title>
<path fill="none" stroke="midnightblue" d="M2263.23,-144.09C2300.12,-146.35 2344.34,-149.6 2384,-154 2404.32,-156.25 2426.4,-159.39 2446.25,-162.47"/>
<polygon fill="midnightblue" stroke="midnightblue" points="2263.22,-140.58 2253.03,-143.48 2262.81,-147.57 2263.22,-140.58"/>
</g>
<!-- Node19&#45;&gt;Node4 -->
<g id="edge28" class="edge">
<title>Node19&#45;&gt;Node4</title>
<path fill="none" stroke="#9a32cd" stroke-dasharray="5,2" d="M2643.65,-243.97C2536.92,-236.34 2336.21,-221.99 2238.63,-215.01"/>
<polygon fill="#9a32cd" stroke="#9a32cd" points="2643.45,-247.46 2653.67,-244.69 2643.95,-240.48 2643.45,-247.46"/>
<text text-anchor="middle" x="2509.5" y="-244.4" font-family="Helvetica,sans-Serif" font-size="12.00"> yAxis</text>
</g>
<!-- Node20 -->
<g id="node20" class="node">
<title>Node20</title>
<g id="a_node20"><a xlink:href="class_j_k_q_t_p_datastore.html" target="_top" xlink:title="This class manages data columns (with entries of type double ), used by JKQTPlotter/JKQTBasePlotter t...">
<polygon fill="none" stroke="black" points="1850,-89.5 1850,-110.5 1961,-110.5 1961,-89.5 1850,-89.5"/>
<text text-anchor="middle" x="1905.5" y="-96.9" font-family="Helvetica,sans-Serif" font-size="12.00">JKQTPDatastore</text>
</a>
</g>
</g>
<!-- Node20&#45;&gt;Node4 -->
<g id="edge30" class="edge">
<title>Node20&#45;&gt;Node4</title>
<path fill="none" stroke="#9a32cd" stroke-dasharray="5,2" d="M1955.85,-113.35C1993.81,-124.3 2047.17,-141.19 2092,-161 2118.15,-172.55 2146.64,-189.51 2164.04,-200.4"/>
<polygon fill="#9a32cd" stroke="#9a32cd" points="1956.64,-109.94 1946.06,-110.56 1954.72,-116.67 1956.64,-109.94"/>
<text text-anchor="middle" x="2043.5" y="-164.4" font-family="Helvetica,sans-Serif" font-size="12.00"> datastore</text>
</g>
<!-- Node22 -->
<g id="node22" class="node">
<title>Node22</title>
<g id="a_node22"><a xlink:href="class_j_k_q_t_p_column.html" target="_top" xlink:title="internally stores information about one data column. See JKQTPDatastore for more information.">
<polygon fill="none" stroke="black" points="2132.5,-89.5 2132.5,-110.5 2230.5,-110.5 2230.5,-89.5 2132.5,-89.5"/>
<text text-anchor="middle" x="2181.5" y="-96.9" font-family="Helvetica,sans-Serif" font-size="12.00">JKQTPColumn</text>
</a>
</g>
</g>
<!-- Node20&#45;&gt;Node22 -->
<g id="edge33" class="edge">
<title>Node20&#45;&gt;Node22</title>
<path fill="none" stroke="#9a32cd" stroke-dasharray="5,2" d="M1971.54,-100C2020.87,-100 2087.58,-100 2132.22,-100"/>
<polygon fill="#9a32cd" stroke="#9a32cd" points="1971.29,-96.5 1961.29,-100 1971.29,-103.5 1971.29,-96.5"/>
<text text-anchor="middle" x="2043.5" y="-103.4" font-family="Helvetica,sans-Serif" font-size="12.00"> datastore</text>
</g>
<!-- Node21 -->
<g id="node21" class="node">
<title>Node21</title>
<g id="a_node21"><a xlink:title=" ">
<polygon fill="none" stroke="black" points="2402,-47.5 2402,-68.5 2617,-68.5 2617,-47.5 2402,-47.5"/>
<text text-anchor="middle" x="2509.5" y="-54.9" font-family="Helvetica,sans-Serif" font-size="12.00">std::unique_ptr&lt; JKQTPColumn &gt;</text>
</a>
</g>
</g>
<!-- Node21&#45;&gt;Node20 -->
<g id="edge31" class="edge">
<title>Node21&#45;&gt;Node20</title>
<path fill="none" stroke="#9a32cd" stroke-dasharray="5,2" d="M2391.66,-56.4C2312.11,-56.35 2204.5,-58.31 2110,-67 2058.32,-71.75 1999.9,-81.71 1958.95,-89.45"/>
<polygon fill="#9a32cd" stroke="#9a32cd" points="2391.71,-59.9 2401.71,-56.42 2391.72,-52.9 2391.71,-59.9"/>
<text text-anchor="middle" x="2181.5" y="-70.4" font-family="Helvetica,sans-Serif" font-size="12.00"> m_invalidColumn</text>
</g>
<!-- Node22&#45;&gt;Node21 -->
<g id="edge32" class="edge">
<title>Node22&#45;&gt;Node21</title>
<path fill="none" stroke="#9a32cd" stroke-dasharray="5,2" d="M2240.64,-92.51C2292.51,-85.83 2369.02,-75.97 2427,-68.5"/>
<polygon fill="#9a32cd" stroke="#9a32cd" points="2240.07,-89.05 2230.6,-93.8 2240.97,-96 2240.07,-89.05"/>
<text text-anchor="middle" x="2327.5" y="-90.4" font-family="Helvetica,sans-Serif" font-size="12.00"> ptr</text>
</g>
<!-- Node23 -->
<g id="node23" class="node">
<title>Node23</title>
<g id="a_node23"><a xlink:title=" ">
<polygon fill="none" stroke="black" points="2111.5,-0.5 2111.5,-21.5 2251.5,-21.5 2251.5,-0.5 2111.5,-0.5"/>
<text text-anchor="middle" x="2181.5" y="-7.9" font-family="Helvetica,sans-Serif" font-size="12.00">std::unique_ptr&lt; T &gt;</text>
</a>
</g>
</g>
<!-- Node23&#45;&gt;Node21 -->
<g id="edge34" class="edge">
<title>Node23&#45;&gt;Node21</title>
<path fill="none" stroke="orange" stroke-dasharray="5,2" d="M2262.04,-16.78C2299.21,-20.02 2344.01,-24.7 2384,-31 2411.42,-35.32 2441.88,-41.89 2465.8,-47.47"/>
<polygon fill="orange" stroke="orange" points="2262.02,-13.26 2251.76,-15.9 2261.43,-20.24 2262.02,-13.26"/>
<text text-anchor="middle" x="2327.5" y="-34.4" font-family="Helvetica,sans-Serif" font-size="12.00"> &lt; JKQTPColumn &gt;</text>
</g>
<!-- Node24 -->
<g id="node24" class="node">
<title>Node24</title>
<g id="a_node24"><a xlink:title=" ">
<polygon fill="none" stroke="black" points="1891,-0.5 1891,-21.5 1920,-21.5 1920,-0.5 1891,-0.5"/>
<text text-anchor="middle" x="1905.5" y="-7.9" font-family="Helvetica,sans-Serif" font-size="12.00">T</text>
</a>
</g>
</g>
<!-- Node24&#45;&gt;Node23 -->
<g id="edge35" class="edge">
<title>Node24&#45;&gt;Node23</title>
<path fill="none" stroke="#9a32cd" stroke-dasharray="5,2" d="M1930.17,-11C1970.06,-11 2052.14,-11 2111.46,-11"/>
<polygon fill="#9a32cd" stroke="#9a32cd" points="1930.09,-7.5 1920.09,-11 1930.09,-14.5 1930.09,-7.5"/>
<text text-anchor="middle" x="2043.5" y="-14.4" font-family="Helvetica,sans-Serif" font-size="12.00"> ptr</text>
</g>
</g>
</svg>
        <g id="navigator" transform="translate(0 0)" fill="#404254">
                <rect fill="#f2f5e9" fill-opacity="0.5" stroke="#606060" stroke-width=".5" x="0" y="0" width="60" height="60"/>
                <use id="zoomplus" xlink:href="#zoomPlus" x="17" y="9" onmousedown="handleZoom(evt,'in')"/>
                <use id="zoomminus" xlink:href="#zoomMin" x="42" y="9" onmousedown="handleZoom(evt,'out')"/>
                <use id="reset" xlink:href="#resetDef" x="30" y="36" onmousedown="handleReset()"/>
                <g id="arrowUp" xlink:href="#dirArrow" transform="translate(30 24)" onmousedown="handlePan(0,-1)">
                  <use xlink:href="#rim" fill="#404040">
                        <set attributeName="fill" to="#808080" begin="arrowUp.mouseover" end="arrowUp.mouseout"/>
                  </use>
                  <path fill="none" stroke="white" stroke-width="1.5" d="M0,-3.0v7 M-2.5,-0.5L0,-3.0L2.5,-0.5"/>
                </g>
                <g id="arrowRight" xlink:href="#dirArrow" transform="rotate(90) translate(36 -43)" onmousedown="handlePan(1,0)">
                  <use xlink:href="#rim" fill="#404040">
                        <set attributeName="fill" to="#808080" begin="arrowRight.mouseover" end="arrowRight.mouseout"/>
                  </use>
                  <path fill="none" stroke="white" stroke-width="1.5" d="M0,-3.0v7 M-2.5,-0.5L0,-3.0L2.5,-0.5"/>
                </g>
                <g id="arrowDown" xlink:href="#dirArrow" transform="rotate(180) translate(-30 -48)" onmousedown="handlePan(0,1)">
                  <use xlink:href="#rim" fill="#404040">
                        <set attributeName="fill" to="#808080" begin="arrowDown.mouseover" end="arrowDown.mouseout"/>
                  </use>
                  <path fill="none" stroke="white" stroke-width="1.5" d="M0,-3.0v7 M-2.5,-0.5L0,-3.0L2.5,-0.5"/>
                </g>
                <g id="arrowLeft" xlink:href="#dirArrow" transform="rotate(270) translate(-36 17)" onmousedown="handlePan(-1,0)">
                  <use xlink:href="#rim" fill="#404040">
                        <set attributeName="fill" to="#808080" begin="arrowLeft.mouseover" end="arrowLeft.mouseout"/>
                  </use>
                  <path fill="none" stroke="white" stroke-width="1.5" d="M0,-3.0v7 M-2.5,-0.5L0,-3.0L2.5,-0.5"/>
                </g>
        </g>
        <svg viewBox="0 0 15 15" width="100%" height="30px" preserveAspectRatio="xMaxYMin meet">
         <g id="arrow_out" transform="scale(0.3 0.3)">
          <a xlink:href="class_j_k_q_t_p_horizontal_axis__coll__graph_org.svg" target="_base">
           <rect id="button" ry="5" rx="5" y="6" x="6" height="38" width="38"
                fill="#f2f5e9" fill-opacity="0.5" stroke="#606060" stroke-width="1.0"/>
           <path id="arrow"
             d="M 11.500037,31.436501 C 11.940474,20.09759 22.043105,11.32322 32.158766,21.979434 L 37.068811,17.246167 C 37.068811,17.246167 37.088388,32 37.088388,32 L 22.160133,31.978069 C 22.160133,31.978069 26.997745,27.140456 26.997745,27.140456 C 18.528582,18.264221 13.291696,25.230495 11.500037,31.436501 z"
             style="fill:#404040;"/>
          </a>
         </g>
        </svg>
</svg>
