<?xml version="1.0" encoding="UTF-8" standalone="no"?>
<!DOCTYPE svg PUBLIC "-//W3C//DTD SVG 1.1//EN"
 "http://www.w3.org/Graphics/SVG/1.1/DTD/svg11.dtd">
<!-- Generated by graphviz version 2.43.0 (0)
 -->
<!-- Title: JKQTMathTextMultiChildNode Pages: 1 -->
<svg width="803pt" height="185pt"
 viewBox="0.00 0.00 803.00 185.00" xmlns="http://www.w3.org/2000/svg" xmlns:xlink="http://www.w3.org/1999/xlink">
<g id="graph0" class="graph" transform="scale(1 1) rotate(0) translate(4 181)">
<title>JKQTMathTextMultiChildNode</title>
<!-- Node1 -->
<g id="node1" class="node">
<title>Node1</title>
<g id="a_node1"><a xlink:title="subclass representing a node in the syntax tree, that has two children">
<polygon fill="#999999" stroke="#666666" points="355,-99 167,-99 167,-78 355,-78 355,-99"/>
<text text-anchor="middle" x="261" y="-85.4" font-family="Helvetica,sans-Serif" font-size="12.00">JKQTMathTextMultiChildNode</text>
</a>
</g>
</g>
<!-- Node3 -->
<g id="node3" class="node">
<title>Node3</title>
<g id="a_node3"><a xlink:href="class_j_k_q_t_math_text_dual_child_node.html" target="_top" xlink:title="subclass representing a node in the syntax tree, that has two children">
<polygon fill="white" stroke="#666666" points="590.5,-177 403.5,-177 403.5,-156 590.5,-156 590.5,-177"/>
<text text-anchor="middle" x="497" y="-163.4" font-family="Helvetica,sans-Serif" font-size="12.00">JKQTMathTextDualChildNode</text>
</a>
</g>
</g>
<!-- Node1&#45;&gt;Node3 -->
<g id="edge2" class="edge">
<title>Node1&#45;&gt;Node3</title>
<path fill="none" stroke="#63b8ff" d="M290.69,-103.75C316.34,-116.81 355.28,-135.24 391,-146.5 402.77,-150.21 415.51,-153.34 427.92,-155.95"/>
<polygon fill="#63b8ff" stroke="#63b8ff" points="292.03,-100.51 281.54,-99.03 288.82,-106.73 292.03,-100.51"/>
</g>
<!-- Node5 -->
<g id="node5" class="node">
<title>Node5</title>
<g id="a_node5"><a xlink:href="class_j_k_q_t_math_text_horizontal_list_node.html" target="_top" xlink:title="subclass representing a list of nodes in the syntax tree, layed out horizontally">
<polygon fill="white" stroke="#666666" points="603,-138 391,-138 391,-117 603,-117 603,-138"/>
<text text-anchor="middle" x="497" y="-124.4" font-family="Helvetica,sans-Serif" font-size="12.00">JKQTMathTextHorizontalListNode</text>
</a>
</g>
</g>
<!-- Node1&#45;&gt;Node5 -->
<g id="edge4" class="edge">
<title>Node1&#45;&gt;Node5</title>
<path fill="none" stroke="#63b8ff" d="M335.01,-100.67C366.38,-105.9 402.69,-111.95 432.87,-116.98"/>
<polygon fill="#63b8ff" stroke="#63b8ff" points="335.45,-97.19 325.02,-99 334.3,-104.1 335.45,-97.19"/>
</g>
<!-- Node6 -->
<g id="node6" class="node">
<title>Node6</title>
<g id="a_node6"><a xlink:href="class_j_k_q_t_math_text_matrix_node.html" target="_top" xlink:title="subclass representing a \begin{matrix} , \begin{tabular} , \begin{array} , ... node">
<polygon fill="white" stroke="#666666" points="581,-99 413,-99 413,-78 581,-78 581,-99"/>
<text text-anchor="middle" x="497" y="-85.4" font-family="Helvetica,sans-Serif" font-size="12.00">JKQTMathTextMatrixNode</text>
</a>
</g>
</g>
<!-- Node1&#45;&gt;Node6 -->
<g id="edge5" class="edge">
<title>Node1&#45;&gt;Node6</title>
<path fill="none" stroke="#63b8ff" d="M365.46,-88.5C381.24,-88.5 397.36,-88.5 412.63,-88.5"/>
<polygon fill="#63b8ff" stroke="#63b8ff" points="365.16,-85 355.16,-88.5 365.16,-92 365.16,-85"/>
</g>
<!-- Node7 -->
<g id="node7" class="node">
<title>Node7</title>
<g id="a_node7"><a xlink:href="class_j_k_q_t_math_text_sqrt_node.html" target="_top" xlink:title="subclass representing a sqrt node">
<polygon fill="white" stroke="#666666" points="574.5,-60 419.5,-60 419.5,-39 574.5,-39 574.5,-60"/>
<text text-anchor="middle" x="497" y="-46.4" font-family="Helvetica,sans-Serif" font-size="12.00">JKQTMathTextSqrtNode</text>
</a>
</g>
</g>
<!-- Node1&#45;&gt;Node7 -->
<g id="edge6" class="edge">
<title>Node1&#45;&gt;Node7</title>
<path fill="none" stroke="#63b8ff" d="M335.01,-76.33C366.38,-71.1 402.69,-65.05 432.87,-60.02"/>
<polygon fill="#63b8ff" stroke="#63b8ff" points="334.3,-72.9 325.02,-78 335.45,-79.81 334.3,-72.9"/>
</g>
<!-- Node8 -->
<g id="node8" class="node">
<title>Node8</title>
<g id="a_node8"><a xlink:href="class_j_k_q_t_math_text_vertical_list_node.html" target="_top" xlink:title="subclass representing a list of nodes in the syntax tree, layed out vertically">
<polygon fill="white" stroke="#666666" points="595,-21 399,-21 399,0 595,0 595,-21"/>
<text text-anchor="middle" x="497" y="-7.4" font-family="Helvetica,sans-Serif" font-size="12.00">JKQTMathTextVerticalListNode</text>
</a>
</g>
</g>
<!-- Node1&#45;&gt;Node8 -->
<g id="edge7" class="edge">
<title>Node1&#45;&gt;Node8</title>
<path fill="none" stroke="#63b8ff" d="M290.18,-73.12C315.79,-59.75 354.95,-40.81 391,-29.5 401.61,-26.17 413.01,-23.36 424.25,-21.01"/>
<polygon fill="#63b8ff" stroke="#63b8ff" points="288.27,-70.17 281.07,-77.94 291.54,-76.35 288.27,-70.17"/>
</g>
<!-- Node2 -->
<g id="node2" class="node">
<title>Node2</title>
<g id="a_node2"><a xlink:href="class_j_k_q_t_math_text_node.html" target="_top" xlink:title="subclass representing one node in the syntax tree">
<polygon fill="white" stroke="#666666" points="131,-99 0,-99 0,-78 131,-78 131,-99"/>
<text text-anchor="middle" x="65.5" y="-85.4" font-family="Helvetica,sans-Serif" font-size="12.00">JKQTMathTextNode</text>
</a>
</g>
</g>
<!-- Node2&#45;&gt;Node1 -->
<g id="edge1" class="edge">
<title>Node2&#45;&gt;Node1</title>
<path fill="none" stroke="#63b8ff" d="M141.26,-88.5C149.62,-88.5 158.2,-88.5 166.75,-88.5"/>
<polygon fill="#63b8ff" stroke="#63b8ff" points="141.2,-85 131.2,-88.5 141.2,-92 141.2,-85"/>
</g>
<!-- Node4 -->
<g id="node4" class="node">
<title>Node4</title>
<g id="a_node4"><a xlink:href="class_j_k_q_t_math_text_frac_node.html" target="_top" xlink:title="subclass representing a \frac node">
<polygon fill="white" stroke="#666666" points="795,-177 639,-177 639,-156 795,-156 795,-177"/>
<text text-anchor="middle" x="717" y="-163.4" font-family="Helvetica,sans-Serif" font-size="12.00">JKQTMathTextFracNode</text>
</a>
</g>
</g>
<!-- Node3&#45;&gt;Node4 -->
<g id="edge3" class="edge">
<title>Node3&#45;&gt;Node4</title>
<path fill="none" stroke="#63b8ff" d="M600.94,-166.5C613.67,-166.5 626.5,-166.5 638.76,-166.5"/>
<polygon fill="#63b8ff" stroke="#63b8ff" points="600.77,-163 590.77,-166.5 600.77,-170 600.77,-163"/>
</g>
</g>
</svg>
