<?xml version="1.0" encoding="UTF-8" standalone="no"?>
<!DOCTYPE svg PUBLIC "-//W3C//DTD SVG 1.1//EN"
 "http://www.w3.org/Graphics/SVG/1.1/DTD/svg11.dtd">
<!-- Generated by graphviz version 2.43.0 (0)
 -->
<!-- Title: JKQTPVerticalAxis Pages: 1 -->
<svg width="2710pt" height="552pt"
 viewBox="0.00 0.00 2710.00 552.00" xmlns="http://www.w3.org/2000/svg" xmlns:xlink="http://www.w3.org/1999/xlink">
<g id="graph0" class="graph" transform="scale(1 1) rotate(0) translate(4 548)">
<title>JKQTPVerticalAxis</title>
<!-- Node1 -->
<g id="node1" class="node">
<title>Node1</title>
<g id="a_node1"><a xlink:title="implements a vertical axis, based on JKQTPCoordinateAxis (for most of documentation: see JKQTPCoordin...">
<polygon fill="#bfbfbf" stroke="black" points="1755.5,-267.5 1755.5,-288.5 1877.5,-288.5 1877.5,-267.5 1755.5,-267.5"/>
<text text-anchor="middle" x="1816.5" y="-274.9" font-family="Helvetica,sans-Serif" font-size="12.00">JKQTPVerticalAxis</text>
</a>
</g>
</g>
<!-- Node4 -->
<g id="node4" class="node">
<title>Node4</title>
<g id="a_node4"><a xlink:href="class_j_k_q_t_base_plotter.html" target="_top" xlink:title="base class for 2D plotter classes (used by the plotter widget JKQTPlotter)">
<polygon fill="none" stroke="black" points="2035.5,-199.5 2035.5,-220.5 2149.5,-220.5 2149.5,-199.5 2035.5,-199.5"/>
<text text-anchor="middle" x="2092.5" y="-206.9" font-family="Helvetica,sans-Serif" font-size="12.00">JKQTBasePlotter</text>
</a>
</g>
</g>
<!-- Node1&#45;&gt;Node4 -->
<g id="edge32" class="edge">
<title>Node1&#45;&gt;Node4</title>
<path fill="none" stroke="#9a32cd" stroke-dasharray="5,2" d="M1851.14,-263.38C1867.46,-256.73 1887.5,-249.2 1906,-244 1948.71,-231.99 1998.18,-223.17 2035.28,-217.53"/>
<polygon fill="#9a32cd" stroke="#9a32cd" points="1849.4,-260.32 1841.51,-267.38 1852.08,-266.78 1849.4,-260.32"/>
<text text-anchor="middle" x="1954.5" y="-247.4" font-family="Helvetica,sans-Serif" font-size="12.00"> yAxis</text>
</g>
<!-- Node2 -->
<g id="node2" class="node">
<title>Node2</title>
<g id="a_node2"><a xlink:href="class_j_k_q_t_p_coordinate_axis.html" target="_top" xlink:title="this virtual class is the base for any type of coordinate axis, to be drawn by JKQTBasePlotter.">
<polygon fill="none" stroke="black" points="2349.5,-287.5 2349.5,-308.5 2491.5,-308.5 2491.5,-287.5 2349.5,-287.5"/>
<text text-anchor="middle" x="2420.5" y="-294.9" font-family="Helvetica,sans-Serif" font-size="12.00">JKQTPCoordinateAxis</text>
</a>
</g>
</g>
<!-- Node2&#45;&gt;Node1 -->
<g id="edge1" class="edge">
<title>Node2&#45;&gt;Node1</title>
<path fill="none" stroke="midnightblue" d="M2338.99,-301.14C2237.72,-304.19 2058.6,-306.59 1906,-293 1894.82,-292 1882.93,-290.38 1871.62,-288.57"/>
<polygon fill="midnightblue" stroke="midnightblue" points="2339.26,-304.63 2349.14,-300.82 2339.04,-297.64 2339.26,-304.63"/>
</g>
<!-- Node21 -->
<g id="node21" class="node">
<title>Node21</title>
<g id="a_node21"><a xlink:href="class_j_k_q_t_p_horizontal_axis.html" target="_top" xlink:title="implements a horizontal axis, based on JKQTPCoordinateAxis (for most of documentation: see JKQTPCoord...">
<polygon fill="none" stroke="black" points="2565,-238.5 2565,-259.5 2702,-259.5 2702,-238.5 2565,-238.5"/>
<text text-anchor="middle" x="2633.5" y="-245.9" font-family="Helvetica,sans-Serif" font-size="12.00">JKQTPHorizontalAxis</text>
</a>
</g>
</g>
<!-- Node2&#45;&gt;Node21 -->
<g id="edge31" class="edge">
<title>Node2&#45;&gt;Node21</title>
<path fill="none" stroke="midnightblue" d="M2476.64,-285.2C2510.97,-277.22 2554.59,-267.09 2586.95,-259.58"/>
<polygon fill="midnightblue" stroke="midnightblue" points="2475.71,-281.82 2466.76,-287.49 2477.3,-288.64 2475.71,-281.82"/>
</g>
<!-- Node3 -->
<g id="node3" class="node">
<title>Node3</title>
<g id="a_node3"><a xlink:title=" ">
<polygon fill="none" stroke="black" points="1442.5,-382.5 1442.5,-403.5 1507.5,-403.5 1507.5,-382.5 1442.5,-382.5"/>
<text text-anchor="middle" x="1475" y="-389.9" font-family="Helvetica,sans-Serif" font-size="12.00">QObject</text>
</a>
</g>
</g>
<!-- Node3&#45;&gt;Node2 -->
<g id="edge2" class="edge">
<title>Node3&#45;&gt;Node2</title>
<path fill="none" stroke="midnightblue" d="M1517.65,-402.91C1625.97,-426.98 1924.72,-482.59 2164,-426 2262.73,-402.65 2366.77,-334.93 2404.63,-308.62"/>
<polygon fill="midnightblue" stroke="midnightblue" points="1518.3,-399.46 1507.77,-400.68 1516.76,-406.29 1518.3,-399.46"/>
</g>
<!-- Node3&#45;&gt;Node4 -->
<g id="edge4" class="edge">
<title>Node3&#45;&gt;Node4</title>
<path fill="none" stroke="midnightblue" d="M1517.95,-386.81C1535,-383.64 1554.73,-379.13 1572,-373 1645.06,-347.08 1672.22,-347.86 1727,-293 1739.36,-280.62 1731.1,-268.61 1745,-258 1803.13,-213.63 1833.6,-234.33 1906,-224 1949.16,-217.84 1998.39,-214.28 2035.28,-212.3"/>
<polygon fill="midnightblue" stroke="midnightblue" points="1516.96,-383.43 1507.72,-388.61 1518.17,-390.32 1516.96,-383.43"/>
</g>
<!-- Node17 -->
<g id="node17" class="node">
<title>Node17</title>
<g id="a_node17"><a xlink:href="class_j_k_q_t_math_text.html" target="_top" xlink:title="this class parses a mathematical markup string and can then draw the contained text/equation onto a Q...">
<polygon fill="none" stroke="black" points="1767,-364.5 1767,-385.5 1866,-385.5 1866,-364.5 1767,-364.5"/>
<text text-anchor="middle" x="1816.5" y="-371.9" font-family="Helvetica,sans-Serif" font-size="12.00">JKQTMathText</text>
</a>
</g>
</g>
<!-- Node3&#45;&gt;Node17 -->
<g id="edge23" class="edge">
<title>Node3&#45;&gt;Node17</title>
<path fill="none" stroke="midnightblue" d="M1518,-390.77C1581.07,-387.43 1699.96,-381.13 1766.76,-377.58"/>
<polygon fill="midnightblue" stroke="midnightblue" points="1517.44,-387.3 1507.63,-391.32 1517.81,-394.29 1517.44,-387.3"/>
</g>
<!-- Node4&#45;&gt;Node2 -->
<g id="edge3" class="edge">
<title>Node4&#45;&gt;Node2</title>
<path fill="none" stroke="#9a32cd" stroke-dasharray="5,2" d="M2124.15,-225.01C2140.93,-232.74 2162.26,-241.82 2182,-248 2230.91,-263.3 2244.84,-260.46 2295,-271 2320.32,-276.32 2348.51,-282.42 2371.64,-287.47"/>
<polygon fill="#9a32cd" stroke="#9a32cd" points="2125.39,-221.72 2114.85,-220.64 2122.42,-228.06 2125.39,-221.72"/>
<text text-anchor="middle" x="2238.5" y="-274.4" font-family="Helvetica,sans-Serif" font-size="12.00"> parent</text>
</g>
<!-- Node4&#45;&gt;Node4 -->
<g id="edge39" class="edge">
<title>Node4&#45;&gt;Node4</title>
<path fill="none" stroke="#9a32cd" stroke-dasharray="5,2" d="M2066.93,-230.06C2068.61,-235.16 2077.13,-239 2092.5,-239 2116.49,-239 2123.8,-229.65 2114.43,-220.71"/>
<polygon fill="#9a32cd" stroke="#9a32cd" points="2070.21,-231.3 2070.57,-220.71 2063.68,-228.76 2070.21,-231.3"/>
<text text-anchor="middle" x="2092.5" y="-255.4" font-family="Helvetica,sans-Serif" font-size="12.00"> masterPlotterX</text>
<text text-anchor="middle" x="2092.5" y="-242.4" font-family="Helvetica,sans-Serif" font-size="12.00">masterPlotterY</text>
</g>
<!-- Node19 -->
<g id="node19" class="node">
<title>Node19</title>
<g id="a_node19"><a xlink:href="class_j_k_q_t_p_graphs_model.html" target="_top" xlink:title="data model with all plots ina JKQTBasePlotter (+ allows to switch them visible/invisible)">
<polygon fill="none" stroke="black" points="2355,-162.5 2355,-183.5 2486,-183.5 2486,-162.5 2355,-162.5"/>
<text text-anchor="middle" x="2420.5" y="-169.9" font-family="Helvetica,sans-Serif" font-size="12.00">JKQTPGraphsModel</text>
</a>
</g>
</g>
<!-- Node4&#45;&gt;Node19 -->
<g id="edge29" class="edge">
<title>Node4&#45;&gt;Node19</title>
<path fill="none" stroke="#9a32cd" stroke-dasharray="5,2" d="M2159.53,-202.51C2216.54,-196.04 2298.4,-186.74 2354.97,-180.32"/>
<polygon fill="#9a32cd" stroke="#9a32cd" points="2159.08,-199.03 2149.54,-203.64 2159.87,-205.99 2159.08,-199.03"/>
<text text-anchor="middle" x="2238.5" y="-202.4" font-family="Helvetica,sans-Serif" font-size="12.00"> m_plotter</text>
</g>
<!-- Node5 -->
<g id="node5" class="node">
<title>Node5</title>
<g id="a_node5"><a xlink:href="class_j_k_q_t_base_plotter_style.html" target="_top" xlink:title="Support Class for JKQTBasePlotter, which summarizes all properties that define the visual styling of ...">
<polygon fill="none" stroke="black" points="1745,-171.5 1745,-192.5 1888,-192.5 1888,-171.5 1745,-171.5"/>
<text text-anchor="middle" x="1816.5" y="-178.9" font-family="Helvetica,sans-Serif" font-size="12.00">JKQTBasePlotterStyle</text>
</a>
</g>
</g>
<!-- Node5&#45;&gt;Node4 -->
<g id="edge5" class="edge">
<title>Node5&#45;&gt;Node4</title>
<path fill="none" stroke="#9a32cd" stroke-dasharray="5,2" d="M1898.73,-177.35C1931.31,-176.81 1969.1,-177.85 2003,-183 2023.96,-186.18 2046.84,-193.26 2064.08,-199.37"/>
<polygon fill="#9a32cd" stroke="#9a32cd" points="1898.26,-173.86 1888.34,-177.58 1898.42,-180.86 1898.26,-173.86"/>
<text text-anchor="middle" x="1954.5" y="-186.4" font-family="Helvetica,sans-Serif" font-size="12.00"> plotterStyle</text>
</g>
<!-- Node6 -->
<g id="node6" class="node">
<title>Node6</title>
<g id="a_node6"><a xlink:href="class_j_k_q_t_p_key_style.html" target="_top" xlink:title="Support Class for JKQTBasePlotter, which summarizes all properties that define the visual styling of ...">
<polygon fill="none" stroke="black" points="1423,-163.5 1423,-184.5 1527,-184.5 1527,-163.5 1423,-163.5"/>
<text text-anchor="middle" x="1475" y="-170.9" font-family="Helvetica,sans-Serif" font-size="12.00">JKQTPKeyStyle</text>
</a>
</g>
</g>
<!-- Node6&#45;&gt;Node5 -->
<g id="edge6" class="edge">
<title>Node6&#45;&gt;Node5</title>
<path fill="none" stroke="#9a32cd" stroke-dasharray="5,2" d="M1537.39,-175.45C1595.82,-176.82 1683.69,-178.89 1744.97,-180.34"/>
<polygon fill="#9a32cd" stroke="#9a32cd" points="1537.27,-171.94 1527.19,-175.21 1537.11,-178.94 1537.27,-171.94"/>
<text text-anchor="middle" x="1658.5" y="-182.4" font-family="Helvetica,sans-Serif" font-size="12.00"> keyStyle</text>
</g>
<!-- Node7 -->
<g id="node7" class="node">
<title>Node7</title>
<g id="a_node7"><a xlink:href="class_j_k_q_t_p_coordinate_axis_style.html" target="_top" xlink:title="Support Class for JKQTPCoordinateAxis, which summarizes all properties that define the visual styling...">
<polygon fill="none" stroke="black" points="1063,-210.5 1063,-231.5 1234,-231.5 1234,-210.5 1063,-210.5"/>
<text text-anchor="middle" x="1148.5" y="-217.9" font-family="Helvetica,sans-Serif" font-size="12.00">JKQTPCoordinateAxisStyle</text>
</a>
</g>
</g>
<!-- Node7&#45;&gt;Node2 -->
<g id="edge40" class="edge">
<title>Node7&#45;&gt;Node2</title>
<path fill="none" stroke="#9a32cd" stroke-dasharray="5,2" d="M1223.23,-233.12C1373.02,-256.81 1723.94,-307.62 2021,-315 2092.53,-316.78 2110.44,-315.78 2182,-316 2232.22,-316.16 2244.91,-319.6 2295,-316 2315.91,-314.5 2338.65,-311.59 2358.9,-308.54"/>
<polygon fill="#9a32cd" stroke="#9a32cd" points="1223.65,-229.64 1213.22,-231.53 1222.55,-236.55 1223.65,-229.64"/>
<text text-anchor="middle" x="1816.5" y="-312.4" font-family="Helvetica,sans-Serif" font-size="12.00"> axisStyle</text>
</g>
<!-- Node7&#45;&gt;Node5 -->
<g id="edge7" class="edge">
<title>Node7&#45;&gt;Node5</title>
<path fill="none" stroke="#9a32cd" stroke-dasharray="5,2" d="M1244.51,-220.19C1359.15,-218.45 1557.62,-213.01 1727,-196 1735.98,-195.1 1745.43,-193.89 1754.68,-192.55"/>
<polygon fill="#9a32cd" stroke="#9a32cd" points="1244.31,-216.69 1234.36,-220.34 1244.41,-223.69 1244.31,-216.69"/>
<text text-anchor="middle" x="1475" y="-232.4" font-family="Helvetica,sans-Serif" font-size="12.00"> xAxisStyle</text>
<text text-anchor="middle" x="1475" y="-219.4" font-family="Helvetica,sans-Serif" font-size="12.00">yAxisStyle</text>
</g>
<!-- Node9 -->
<g id="node9" class="node">
<title>Node9</title>
<g id="a_node9"><a xlink:href="class_j_k_q_t_p_colorbar_coordinate_axis_style.html" target="_top" xlink:title="Support Class for JKQTPCoordinateAxis, which summarizes all properties that define the visual styling...">
<polygon fill="none" stroke="black" points="1378,-110 1378,-144 1572,-144 1572,-110 1378,-110"/>
<text text-anchor="start" x="1386" y="-130.4" font-family="Helvetica,sans-Serif" font-size="12.00">JKQTPColorbarCoordinateAxis</text>
<text text-anchor="middle" x="1475" y="-117.4" font-family="Helvetica,sans-Serif" font-size="12.00">Style</text>
</a>
</g>
</g>
<!-- Node7&#45;&gt;Node9 -->
<g id="edge10" class="edge">
<title>Node7&#45;&gt;Node9</title>
<path fill="none" stroke="midnightblue" d="M1194.77,-207.57C1240.84,-193.93 1314.33,-172.29 1378,-154 1389.32,-150.75 1401.39,-147.32 1413.03,-144.04"/>
<polygon fill="midnightblue" stroke="midnightblue" points="1193.68,-204.24 1185.09,-210.43 1195.67,-210.95 1193.68,-204.24"/>
</g>
<!-- Node8 -->
<g id="node8" class="node">
<title>Node8</title>
<g id="a_node8"><a xlink:href="class_j_k_q_t_p_grid_style.html" target="_top" xlink:title="Support Class for JKQTPCoordinateAxis, and summarizes all properties that define the visual styling o...">
<polygon fill="none" stroke="black" points="698.5,-210.5 698.5,-231.5 805.5,-231.5 805.5,-210.5 698.5,-210.5"/>
<text text-anchor="middle" x="752" y="-217.9" font-family="Helvetica,sans-Serif" font-size="12.00">JKQTPGridStyle</text>
</a>
</g>
</g>
<!-- Node8&#45;&gt;Node7 -->
<g id="edge8" class="edge">
<title>Node8&#45;&gt;Node7</title>
<path fill="none" stroke="#9a32cd" stroke-dasharray="5,2" d="M816.18,-221C883.03,-221 988.9,-221 1062.92,-221"/>
<polygon fill="#9a32cd" stroke="#9a32cd" points="815.79,-217.5 805.79,-221 815.79,-224.5 815.79,-217.5"/>
<text text-anchor="middle" x="948.5" y="-237.4" font-family="Helvetica,sans-Serif" font-size="12.00"> majorGridStyle</text>
<text text-anchor="middle" x="948.5" y="-224.4" font-family="Helvetica,sans-Serif" font-size="12.00">minorGridStyle</text>
</g>
<!-- Node9&#45;&gt;Node5 -->
<g id="edge9" class="edge">
<title>Node9&#45;&gt;Node5</title>
<path fill="none" stroke="#9a32cd" stroke-dasharray="5,2" d="M1582.22,-127.76C1627.34,-129.95 1680.23,-135 1727,-146 1751.06,-151.66 1777.09,-162.92 1794.65,-171.35"/>
<polygon fill="#9a32cd" stroke="#9a32cd" points="1582.26,-124.26 1572.12,-127.31 1581.95,-131.25 1582.26,-124.26"/>
<text text-anchor="middle" x="1658.5" y="-162.4" font-family="Helvetica,sans-Serif" font-size="12.00"> rightColorbarAxisStyle</text>
<text text-anchor="middle" x="1658.5" y="-149.4" font-family="Helvetica,sans-Serif" font-size="12.00">topColorbarAxisStyle</text>
</g>
<!-- Node10 -->
<g id="node10" class="node">
<title>Node10</title>
<g id="a_node10"><a xlink:href="class_j_k_q_t_graphs_base_style.html" target="_top" xlink:title="Support Class for JKQTBasePlotter, which summarizes all properties that define the visual styling of ...">
<polygon fill="none" stroke="black" points="1402,-342.5 1402,-363.5 1548,-363.5 1548,-342.5 1402,-342.5"/>
<text text-anchor="middle" x="1475" y="-349.9" font-family="Helvetica,sans-Serif" font-size="12.00">JKQTGraphsBaseStyle</text>
</a>
</g>
</g>
<!-- Node10&#45;&gt;Node5 -->
<g id="edge11" class="edge">
<title>Node10&#45;&gt;Node5</title>
<path fill="none" stroke="#9a32cd" stroke-dasharray="5,2" d="M1498.27,-336.52C1520.61,-320.53 1556.43,-296.35 1590,-280 1648,-251.75 1669.26,-260.79 1727,-232 1735.6,-227.71 1736.76,-224.95 1745,-220 1761.33,-210.19 1780.37,-199.99 1794.55,-192.64"/>
<polygon fill="#9a32cd" stroke="#9a32cd" points="1496.17,-333.72 1490.12,-342.42 1500.27,-339.39 1496.17,-333.72"/>
<text text-anchor="middle" x="1658.5" y="-283.4" font-family="Helvetica,sans-Serif" font-size="12.00"> graphsStyle</text>
</g>
<!-- Node11 -->
<g id="node11" class="node">
<title>Node11</title>
<g id="a_node11"><a xlink:href="class_j_k_q_t_graphs_specific_style_properties.html" target="_top" xlink:title="Support Class for JKQTBasePlotter, which summarizes all properties that define the visual styling of ...">
<polygon fill="none" stroke="black" points="399,-376.5 399,-397.5 623,-397.5 623,-376.5 399,-376.5"/>
<text text-anchor="middle" x="511" y="-383.9" font-family="Helvetica,sans-Serif" font-size="12.00">JKQTGraphsSpecificStyleProperties</text>
</a>
</g>
</g>
<!-- Node11&#45;&gt;Node10 -->
<g id="edge12" class="edge">
<title>Node11&#45;&gt;Node10</title>
<path fill="none" stroke="#9a32cd" stroke-dasharray="5,2" d="M554.77,-373.44C620.15,-353.49 749.25,-317.19 862,-304 1070.3,-279.64 1319.91,-321.67 1424.3,-342.43"/>
<polygon fill="#9a32cd" stroke="#9a32cd" points="553.37,-370.21 544.84,-376.49 555.42,-376.9 553.37,-370.21"/>
<text text-anchor="middle" x="948.5" y="-333.4" font-family="Helvetica,sans-Serif" font-size="12.00"> boxplotStyle</text>
<text text-anchor="middle" x="948.5" y="-320.4" font-family="Helvetica,sans-Serif" font-size="12.00">defaultGraphStyle</text>
<text text-anchor="middle" x="948.5" y="-307.4" font-family="Helvetica,sans-Serif" font-size="12.00">filledStyle</text>
</g>
<!-- Node13 -->
<g id="node13" class="node">
<title>Node13</title>
<g id="a_node13"><a xlink:href="class_j_k_q_t_barchart_specific_style_properties.html" target="_top" xlink:title="Support Class for JKQTBasePlotter, which summarizes all properties that define the visual styling of ...">
<polygon fill="none" stroke="black" points="862,-480 862,-514 1035,-514 1035,-480 862,-480"/>
<text text-anchor="start" x="870" y="-500.4" font-family="Helvetica,sans-Serif" font-size="12.00">JKQTBarchartSpecificStyle</text>
<text text-anchor="middle" x="948.5" y="-487.4" font-family="Helvetica,sans-Serif" font-size="12.00">Properties</text>
</a>
</g>
</g>
<!-- Node11&#45;&gt;Node13 -->
<g id="edge15" class="edge">
<title>Node11&#45;&gt;Node13</title>
<path fill="none" stroke="midnightblue" d="M545.92,-401.45C575.58,-413.64 620.03,-430.83 660,-442 726.81,-460.66 804.11,-475.06 861.72,-484.44"/>
<polygon fill="midnightblue" stroke="midnightblue" points="547.04,-398.13 536.46,-397.53 544.36,-404.59 547.04,-398.13"/>
</g>
<!-- Node14 -->
<g id="node14" class="node">
<title>Node14</title>
<g id="a_node14"><a xlink:href="class_j_k_q_t_impulse_specific_style_properties.html" target="_top" xlink:title="Support Class for JKQTBasePlotter, which summarizes all properties that define the visual styling of ...">
<polygon fill="none" stroke="black" points="864.5,-352 864.5,-386 1032.5,-386 1032.5,-352 864.5,-352"/>
<text text-anchor="start" x="872.5" y="-372.4" font-family="Helvetica,sans-Serif" font-size="12.00">JKQTImpulseSpecificStyle</text>
<text text-anchor="middle" x="948.5" y="-359.4" font-family="Helvetica,sans-Serif" font-size="12.00">Properties</text>
</a>
</g>
</g>
<!-- Node11&#45;&gt;Node14 -->
<g id="edge17" class="edge">
<title>Node11&#45;&gt;Node14</title>
<path fill="none" stroke="midnightblue" d="M633.27,-381.99C706.83,-378.95 798.8,-375.15 864.19,-372.44"/>
<polygon fill="midnightblue" stroke="midnightblue" points="632.87,-378.5 623.02,-382.41 633.16,-385.5 632.87,-378.5"/>
</g>
<!-- Node15 -->
<g id="node15" class="node">
<title>Node15</title>
<g id="a_node15"><a xlink:href="class_j_k_q_t_geometric_specific_style_properties.html" target="_top" xlink:title="Support Class for JKQTBasePlotter, which summarizes all properties that define the visual styling of ...">
<polygon fill="none" stroke="black" points="660,-398 660,-432 844,-432 844,-398 660,-398"/>
<text text-anchor="start" x="668" y="-418.4" font-family="Helvetica,sans-Serif" font-size="12.00">JKQTGeometricSpecificStyle</text>
<text text-anchor="middle" x="752" y="-405.4" font-family="Helvetica,sans-Serif" font-size="12.00">Properties</text>
</a>
</g>
</g>
<!-- Node11&#45;&gt;Node15 -->
<g id="edge19" class="edge">
<title>Node11&#45;&gt;Node15</title>
<path fill="none" stroke="midnightblue" d="M611.98,-398.71C627.77,-400.56 644.04,-402.47 659.63,-404.3"/>
<polygon fill="midnightblue" stroke="midnightblue" points="612.01,-395.19 601.67,-397.51 611.2,-402.15 612.01,-395.19"/>
</g>
<!-- Node12 -->
<g id="node12" class="node">
<title>Node12</title>
<g id="a_node12"><a xlink:href="struct_j_k_q_t_p_color_derivation_mode.html" target="_top" xlink:title="Specifies how a fill&#45;color is derived from a given color.">
<polygon fill="none" stroke="black" points="0,-376.5 0,-397.5 179,-397.5 179,-376.5 0,-376.5"/>
<text text-anchor="middle" x="89.5" y="-383.9" font-family="Helvetica,sans-Serif" font-size="12.00">JKQTPColorDerivationMode</text>
</a>
</g>
</g>
<!-- Node12&#45;&gt;Node11 -->
<g id="edge13" class="edge">
<title>Node12&#45;&gt;Node11</title>
<path fill="none" stroke="#9a32cd" stroke-dasharray="5,2" d="M189.53,-387C252.41,-387 333.9,-387 398.97,-387"/>
<polygon fill="#9a32cd" stroke="#9a32cd" points="189.21,-383.5 179.21,-387 189.21,-390.5 189.21,-383.5"/>
<text text-anchor="middle" x="289" y="-442.4" font-family="Helvetica,sans-Serif" font-size="12.00"> errorColorDerivationMode</text>
<text text-anchor="middle" x="289" y="-429.4" font-family="Helvetica,sans-Serif" font-size="12.00">errorFillColorDerivationMode</text>
<text text-anchor="middle" x="289" y="-416.4" font-family="Helvetica,sans-Serif" font-size="12.00">fillColorDerivationMode</text>
<text text-anchor="middle" x="289" y="-403.4" font-family="Helvetica,sans-Serif" font-size="12.00">graphColorDerivationMode</text>
<text text-anchor="middle" x="289" y="-390.4" font-family="Helvetica,sans-Serif" font-size="12.00">symbolFillColorDerivationMode</text>
</g>
<!-- Node13&#45;&gt;Node10 -->
<g id="edge14" class="edge">
<title>Node13&#45;&gt;Node10</title>
<path fill="none" stroke="#9a32cd" stroke-dasharray="5,2" d="M1021.82,-516.2C1112.62,-535.55 1267.63,-552.08 1360,-470 1392.78,-440.87 1347.34,-404.34 1378,-373 1384.67,-366.19 1393.01,-361.39 1401.98,-358.07"/>
<polygon fill="#9a32cd" stroke="#9a32cd" points="1022.41,-512.75 1011.89,-514.02 1020.91,-519.59 1022.41,-512.75"/>
<text text-anchor="middle" x="1148.5" y="-534.4" font-family="Helvetica,sans-Serif" font-size="12.00"> barchartStyle</text>
</g>
<!-- Node14&#45;&gt;Node10 -->
<g id="edge16" class="edge">
<title>Node14&#45;&gt;Node10</title>
<path fill="none" stroke="#9a32cd" stroke-dasharray="5,2" d="M1042.55,-363.46C1046.07,-363.29 1049.57,-363.14 1053,-363 1175.36,-358 1317.83,-355.26 1401.71,-353.97"/>
<polygon fill="#9a32cd" stroke="#9a32cd" points="1042.35,-359.96 1032.53,-363.94 1042.69,-366.95 1042.35,-359.96"/>
<text text-anchor="middle" x="1148.5" y="-366.4" font-family="Helvetica,sans-Serif" font-size="12.00"> impulseStyle</text>
</g>
<!-- Node15&#45;&gt;Node10 -->
<g id="edge18" class="edge">
<title>Node15&#45;&gt;Node10</title>
<path fill="none" stroke="#9a32cd" stroke-dasharray="5,2" d="M854.36,-426.53C953.91,-435.82 1109.94,-444.95 1244,-429 1296.66,-422.73 1316.78,-431.74 1360,-401 1372.06,-392.43 1365.81,-381.38 1378,-373 1385.15,-368.08 1393.27,-364.33 1401.67,-361.47"/>
<polygon fill="#9a32cd" stroke="#9a32cd" points="854.59,-423.03 844.31,-425.57 853.93,-430 854.59,-423.03"/>
<text text-anchor="middle" x="1148.5" y="-440.4" font-family="Helvetica,sans-Serif" font-size="12.00"> geometricStyle</text>
</g>
<!-- Node16 -->
<g id="node16" class="node">
<title>Node16</title>
<g id="a_node16"><a xlink:href="class_j_k_q_t_annotations_specific_style_properties.html" target="_top" xlink:title="Support Class for JKQTBasePlotter, which summarizes all properties that define the visual styling of ...">
<polygon fill="none" stroke="black" points="1053,-385 1053,-419 1244,-419 1244,-385 1053,-385"/>
<text text-anchor="start" x="1061" y="-405.4" font-family="Helvetica,sans-Serif" font-size="12.00">JKQTAnnotationsSpecificStyle</text>
<text text-anchor="middle" x="1148.5" y="-392.4" font-family="Helvetica,sans-Serif" font-size="12.00">Properties</text>
</a>
</g>
</g>
<!-- Node15&#45;&gt;Node16 -->
<g id="edge21" class="edge">
<title>Node15&#45;&gt;Node16</title>
<path fill="none" stroke="midnightblue" d="M854.07,-411.67C915.27,-409.65 992.83,-407.1 1052.84,-405.12"/>
<polygon fill="midnightblue" stroke="midnightblue" points="853.88,-408.17 844,-412 854.11,-415.17 853.88,-408.17"/>
</g>
<!-- Node16&#45;&gt;Node10 -->
<g id="edge20" class="edge">
<title>Node16&#45;&gt;Node10</title>
<path fill="none" stroke="#9a32cd" stroke-dasharray="5,2" d="M1254.27,-386.18C1303.44,-378.75 1360.7,-370.11 1404.44,-363.5"/>
<polygon fill="#9a32cd" stroke="#9a32cd" points="1253.6,-382.74 1244.23,-387.7 1254.64,-389.66 1253.6,-382.74"/>
<text text-anchor="middle" x="1311" y="-387.4" font-family="Helvetica,sans-Serif" font-size="12.00"> annotationStyle</text>
</g>
<!-- Node17&#45;&gt;Node4 -->
<g id="edge22" class="edge">
<title>Node17&#45;&gt;Node4</title>
<path fill="none" stroke="#9a32cd" stroke-dasharray="5,2" d="M1860.64,-361C1869.85,-357.49 1879.4,-353.44 1888,-349 1964.81,-309.38 2047.11,-245.74 2078.41,-220.66"/>
<polygon fill="#9a32cd" stroke="#9a32cd" points="1859.4,-357.73 1851.22,-364.47 1861.81,-364.3 1859.4,-357.73"/>
<text text-anchor="middle" x="1954.5" y="-339.4" font-family="Helvetica,sans-Serif" font-size="12.00"> mathText</text>
</g>
<!-- Node18 -->
<g id="node18" class="node">
<title>Node18</title>
<g id="a_node18"><a xlink:href="class_j_k_q_t_math_text_node.html" target="_top" xlink:title="subclass representing one node in the syntax tree">
<polygon fill="none" stroke="black" points="2027,-364.5 2027,-385.5 2158,-385.5 2158,-364.5 2027,-364.5"/>
<text text-anchor="middle" x="2092.5" y="-371.9" font-family="Helvetica,sans-Serif" font-size="12.00">JKQTMathTextNode</text>
</a>
</g>
</g>
<!-- Node17&#45;&gt;Node18 -->
<g id="edge25" class="edge">
<title>Node17&#45;&gt;Node18</title>
<path fill="none" stroke="#9a32cd" stroke-dasharray="5,2" d="M1876.35,-371.97C1886.25,-371.56 1896.41,-371.22 1906,-371 1949.1,-370.03 1959.9,-370.03 2003,-371 2010.69,-371.17 2018.75,-371.43 2026.74,-371.74"/>
<polygon fill="#9a32cd" stroke="#9a32cd" points="1876.02,-368.48 1866.18,-372.4 1876.32,-375.47 1876.02,-368.48"/>
<text text-anchor="middle" x="1954.5" y="-374.4" font-family="Helvetica,sans-Serif" font-size="12.00"> parentMathText</text>
</g>
<!-- Node18&#45;&gt;Node17 -->
<g id="edge24" class="edge">
<title>Node18&#45;&gt;Node17</title>
<path fill="none" stroke="#9a32cd" stroke-dasharray="5,2" d="M2017.36,-386.7C2012.51,-387.21 2007.69,-387.66 2003,-388 1960,-391.14 1949,-391.14 1906,-388 1892.99,-387.05 1878.99,-385.32 1866.05,-383.43"/>
<polygon fill="#9a32cd" stroke="#9a32cd" points="2017.8,-390.17 2027.33,-385.55 2017,-383.22 2017.8,-390.17"/>
<text text-anchor="middle" x="1954.5" y="-393.4" font-family="Helvetica,sans-Serif" font-size="12.00"> parsedNode</text>
</g>
<!-- Node18&#45;&gt;Node18 -->
<g id="edge26" class="edge">
<title>Node18&#45;&gt;Node18</title>
<path fill="none" stroke="#9a32cd" stroke-dasharray="5,2" d="M2066.93,-395.06C2068.61,-400.16 2077.13,-404 2092.5,-404 2116.49,-404 2123.8,-394.65 2114.43,-385.71"/>
<polygon fill="#9a32cd" stroke="#9a32cd" points="2070.21,-396.3 2070.57,-385.71 2063.68,-393.76 2070.21,-396.3"/>
<text text-anchor="middle" x="2092.5" y="-407.4" font-family="Helvetica,sans-Serif" font-size="12.00"> parentNode</text>
</g>
<!-- Node19&#45;&gt;Node4 -->
<g id="edge27" class="edge">
<title>Node19&#45;&gt;Node4</title>
<path fill="none" stroke="#9a32cd" stroke-dasharray="5,2" d="M2344.71,-166.09C2297.58,-163.5 2235.7,-163.38 2182,-174 2157.27,-178.89 2130.7,-190.67 2113.2,-199.43"/>
<polygon fill="#9a32cd" stroke="#9a32cd" points="2344.64,-169.59 2354.83,-166.69 2345.06,-162.6 2344.64,-169.59"/>
<text text-anchor="middle" x="2238.5" y="-177.4" font-family="Helvetica,sans-Serif" font-size="12.00"> m_plotsModel</text>
</g>
<!-- Node20 -->
<g id="node20" class="node">
<title>Node20</title>
<g id="a_node20"><a xlink:title=" ">
<polygon fill="none" stroke="black" points="2021,-129.5 2021,-150.5 2164,-150.5 2164,-129.5 2021,-129.5"/>
<text text-anchor="middle" x="2092.5" y="-136.9" font-family="Helvetica,sans-Serif" font-size="12.00">QAbstractTableModel</text>
</a>
</g>
</g>
<!-- Node20&#45;&gt;Node19 -->
<g id="edge28" class="edge">
<title>Node20&#45;&gt;Node19</title>
<path fill="none" stroke="midnightblue" d="M2174.23,-144.09C2211.12,-146.35 2255.34,-149.6 2295,-154 2315.32,-156.25 2337.4,-159.39 2357.25,-162.47"/>
<polygon fill="midnightblue" stroke="midnightblue" points="2174.22,-140.58 2164.03,-143.48 2173.81,-147.57 2174.22,-140.58"/>
</g>
<!-- Node21&#45;&gt;Node4 -->
<g id="edge30" class="edge">
<title>Node21&#45;&gt;Node4</title>
<path fill="none" stroke="#9a32cd" stroke-dasharray="5,2" d="M2554.66,-243.37C2444.67,-235.41 2246.4,-221.06 2149.66,-214.06"/>
<polygon fill="#9a32cd" stroke="#9a32cd" points="2554.48,-246.86 2564.7,-244.09 2554.98,-239.88 2554.48,-246.86"/>
<text text-anchor="middle" x="2420.5" y="-244.4" font-family="Helvetica,sans-Serif" font-size="12.00"> xAxis</text>
</g>
<!-- Node22 -->
<g id="node22" class="node">
<title>Node22</title>
<g id="a_node22"><a xlink:href="class_j_k_q_t_p_datastore.html" target="_top" xlink:title="This class manages data columns (with entries of type double ), used by JKQTPlotter/JKQTBasePlotter t...">
<polygon fill="none" stroke="black" points="1761,-89.5 1761,-110.5 1872,-110.5 1872,-89.5 1761,-89.5"/>
<text text-anchor="middle" x="1816.5" y="-96.9" font-family="Helvetica,sans-Serif" font-size="12.00">JKQTPDatastore</text>
</a>
</g>
</g>
<!-- Node22&#45;&gt;Node4 -->
<g id="edge33" class="edge">
<title>Node22&#45;&gt;Node4</title>
<path fill="none" stroke="#9a32cd" stroke-dasharray="5,2" d="M1867.95,-113.34C1905.84,-124.06 1958.62,-140.52 2003,-160 2029.18,-171.49 2057.66,-188.46 2075.05,-199.37"/>
<polygon fill="#9a32cd" stroke="#9a32cd" points="1868.74,-109.92 1858.17,-110.6 1866.86,-116.66 1868.74,-109.92"/>
<text text-anchor="middle" x="1954.5" y="-163.4" font-family="Helvetica,sans-Serif" font-size="12.00"> datastore</text>
</g>
<!-- Node24 -->
<g id="node24" class="node">
<title>Node24</title>
<g id="a_node24"><a xlink:href="class_j_k_q_t_p_column.html" target="_top" xlink:title="internally stores information about one data column. See JKQTPDatastore for more information.">
<polygon fill="none" stroke="black" points="2043.5,-89.5 2043.5,-110.5 2141.5,-110.5 2141.5,-89.5 2043.5,-89.5"/>
<text text-anchor="middle" x="2092.5" y="-96.9" font-family="Helvetica,sans-Serif" font-size="12.00">JKQTPColumn</text>
</a>
</g>
</g>
<!-- Node22&#45;&gt;Node24 -->
<g id="edge36" class="edge">
<title>Node22&#45;&gt;Node24</title>
<path fill="none" stroke="#9a32cd" stroke-dasharray="5,2" d="M1882.54,-100C1931.87,-100 1998.58,-100 2043.22,-100"/>
<polygon fill="#9a32cd" stroke="#9a32cd" points="1882.29,-96.5 1872.29,-100 1882.29,-103.5 1882.29,-96.5"/>
<text text-anchor="middle" x="1954.5" y="-103.4" font-family="Helvetica,sans-Serif" font-size="12.00"> datastore</text>
</g>
<!-- Node23 -->
<g id="node23" class="node">
<title>Node23</title>
<g id="a_node23"><a xlink:title=" ">
<polygon fill="none" stroke="black" points="2313,-47.5 2313,-68.5 2528,-68.5 2528,-47.5 2313,-47.5"/>
<text text-anchor="middle" x="2420.5" y="-54.9" font-family="Helvetica,sans-Serif" font-size="12.00">std::unique_ptr&lt; JKQTPColumn &gt;</text>
</a>
</g>
</g>
<!-- Node23&#45;&gt;Node22 -->
<g id="edge34" class="edge">
<title>Node23&#45;&gt;Node22</title>
<path fill="none" stroke="#9a32cd" stroke-dasharray="5,2" d="M2302.66,-56.4C2223.11,-56.35 2115.5,-58.31 2021,-67 1969.32,-71.75 1910.9,-81.71 1869.95,-89.45"/>
<polygon fill="#9a32cd" stroke="#9a32cd" points="2302.71,-59.9 2312.71,-56.42 2302.72,-52.9 2302.71,-59.9"/>
<text text-anchor="middle" x="2092.5" y="-70.4" font-family="Helvetica,sans-Serif" font-size="12.00"> m_invalidColumn</text>
</g>
<!-- Node24&#45;&gt;Node23 -->
<g id="edge35" class="edge">
<title>Node24&#45;&gt;Node23</title>
<path fill="none" stroke="#9a32cd" stroke-dasharray="5,2" d="M2151.64,-92.51C2203.51,-85.83 2280.02,-75.97 2338,-68.5"/>
<polygon fill="#9a32cd" stroke="#9a32cd" points="2151.07,-89.05 2141.6,-93.8 2151.97,-96 2151.07,-89.05"/>
<text text-anchor="middle" x="2238.5" y="-90.4" font-family="Helvetica,sans-Serif" font-size="12.00"> ptr</text>
</g>
<!-- Node25 -->
<g id="node25" class="node">
<title>Node25</title>
<g id="a_node25"><a xlink:title=" ">
<polygon fill="none" stroke="black" points="2022.5,-0.5 2022.5,-21.5 2162.5,-21.5 2162.5,-0.5 2022.5,-0.5"/>
<text text-anchor="middle" x="2092.5" y="-7.9" font-family="Helvetica,sans-Serif" font-size="12.00">std::unique_ptr&lt; T &gt;</text>
</a>
</g>
</g>
<!-- Node25&#45;&gt;Node23 -->
<g id="edge37" class="edge">
<title>Node25&#45;&gt;Node23</title>
<path fill="none" stroke="orange" stroke-dasharray="5,2" d="M2173.04,-16.78C2210.21,-20.02 2255.01,-24.7 2295,-31 2322.42,-35.32 2352.88,-41.89 2376.8,-47.47"/>
<polygon fill="orange" stroke="orange" points="2173.02,-13.26 2162.76,-15.9 2172.43,-20.24 2173.02,-13.26"/>
<text text-anchor="middle" x="2238.5" y="-34.4" font-family="Helvetica,sans-Serif" font-size="12.00"> &lt; JKQTPColumn &gt;</text>
</g>
<!-- Node26 -->
<g id="node26" class="node">
<title>Node26</title>
<g id="a_node26"><a xlink:title=" ">
<polygon fill="none" stroke="black" points="1802,-0.5 1802,-21.5 1831,-21.5 1831,-0.5 1802,-0.5"/>
<text text-anchor="middle" x="1816.5" y="-7.9" font-family="Helvetica,sans-Serif" font-size="12.00">T</text>
</a>
</g>
</g>
<!-- Node26&#45;&gt;Node25 -->
<g id="edge38" class="edge">
<title>Node26&#45;&gt;Node25</title>
<path fill="none" stroke="#9a32cd" stroke-dasharray="5,2" d="M1841.17,-11C1881.06,-11 1963.14,-11 2022.46,-11"/>
<polygon fill="#9a32cd" stroke="#9a32cd" points="1841.09,-7.5 1831.09,-11 1841.09,-14.5 1841.09,-7.5"/>
<text text-anchor="middle" x="1954.5" y="-14.4" font-family="Helvetica,sans-Serif" font-size="12.00"> ptr</text>
</g>
</g>
</svg>
