<?xml version="1.0" encoding="UTF-8" standalone="no"?>
<!DOCTYPE svg PUBLIC "-//W3C//DTD SVG 1.1//EN"
 "http://www.w3.org/Graphics/SVG/1.1/DTD/svg11.dtd">
<!-- Generated by graphviz version 2.43.0 (0)
 -->
<!-- Title: JKQTPPeakStreamGraph Pages: 1 -->
<svg width="372pt" height="262pt"
 viewBox="0.00 0.00 371.50 262.00" xmlns="http://www.w3.org/2000/svg" xmlns:xlink="http://www.w3.org/1999/xlink">
<g id="graph0" class="graph" transform="scale(1 1) rotate(0) translate(4 258)">
<title>JKQTPPeakStreamGraph</title>
<!-- Node1 -->
<g id="node1" class="node">
<title>Node1</title>
<g id="a_node1"><a xlink:title="interprets data as a stream of x&#45; or y&#45;positions &#160;(depending in yPeaks ) ans plots a line on the heig...">
<polygon fill="#bfbfbf" stroke="black" points="100,-0.5 100,-21.5 261,-21.5 261,-0.5 100,-0.5"/>
<text text-anchor="middle" x="180.5" y="-7.9" font-family="Helvetica,sans-Serif" font-size="12.00">JKQTPPeakStreamGraph</text>
</a>
</g>
</g>
<!-- Node2 -->
<g id="node2" class="node">
<title>Node2</title>
<g id="a_node2"><a xlink:href="class_j_k_q_t_p_single_column_graph.html" target="_top" xlink:title="This virtual JKQTPGraph descendent may be used as base for all graphs that use at least one column of...">
<polygon fill="none" stroke="black" points="0,-58.5 0,-79.5 171,-79.5 171,-58.5 0,-58.5"/>
<text text-anchor="middle" x="85.5" y="-65.9" font-family="Helvetica,sans-Serif" font-size="12.00">JKQTPSingleColumnGraph</text>
</a>
</g>
</g>
<!-- Node2&#45;&gt;Node1 -->
<g id="edge1" class="edge">
<title>Node2&#45;&gt;Node1</title>
<path fill="none" stroke="midnightblue" d="M110.87,-53.05C127.77,-43.08 149.49,-30.28 164.14,-21.64"/>
<polygon fill="midnightblue" stroke="midnightblue" points="108.89,-50.15 102.05,-58.25 112.44,-56.18 108.89,-50.15"/>
</g>
<!-- Node3 -->
<g id="node3" class="node">
<title>Node3</title>
<g id="a_node3"><a xlink:href="class_j_k_q_t_p_graph.html" target="_top" xlink:title="this virtual base class of the (data&#45;column based) graphs, which are part of a JKQTPlotter plot and w...">
<polygon fill="none" stroke="black" points="41,-116.5 41,-137.5 130,-137.5 130,-116.5 41,-116.5"/>
<text text-anchor="middle" x="85.5" y="-123.9" font-family="Helvetica,sans-Serif" font-size="12.00">JKQTPGraph</text>
</a>
</g>
</g>
<!-- Node3&#45;&gt;Node2 -->
<g id="edge2" class="edge">
<title>Node3&#45;&gt;Node2</title>
<path fill="none" stroke="midnightblue" d="M85.5,-106.16C85.5,-97.16 85.5,-86.92 85.5,-79.64"/>
<polygon fill="midnightblue" stroke="midnightblue" points="82,-106.25 85.5,-116.25 89,-106.25 82,-106.25"/>
</g>
<!-- Node4 -->
<g id="node4" class="node">
<title>Node4</title>
<g id="a_node4"><a xlink:href="class_j_k_q_t_p_plot_element.html" target="_top" xlink:title="this virtual base class of every element, which is part of a JKQTPlotter plot and may appear in its k...">
<polygon fill="none" stroke="black" points="23,-174.5 23,-195.5 148,-195.5 148,-174.5 23,-174.5"/>
<text text-anchor="middle" x="85.5" y="-181.9" font-family="Helvetica,sans-Serif" font-size="12.00">JKQTPPlotElement</text>
</a>
</g>
</g>
<!-- Node4&#45;&gt;Node3 -->
<g id="edge3" class="edge">
<title>Node4&#45;&gt;Node3</title>
<path fill="none" stroke="midnightblue" d="M85.5,-164.16C85.5,-155.16 85.5,-144.92 85.5,-137.64"/>
<polygon fill="midnightblue" stroke="midnightblue" points="82,-164.25 85.5,-174.25 89,-164.25 82,-164.25"/>
</g>
<!-- Node5 -->
<g id="node5" class="node">
<title>Node5</title>
<g id="a_node5"><a xlink:title=" ">
<polygon fill="none" stroke="black" points="53,-232.5 53,-253.5 118,-253.5 118,-232.5 53,-232.5"/>
<text text-anchor="middle" x="85.5" y="-239.9" font-family="Helvetica,sans-Serif" font-size="12.00">QObject</text>
</a>
</g>
</g>
<!-- Node5&#45;&gt;Node4 -->
<g id="edge4" class="edge">
<title>Node5&#45;&gt;Node4</title>
<path fill="none" stroke="midnightblue" d="M85.5,-222.16C85.5,-213.16 85.5,-202.92 85.5,-195.64"/>
<polygon fill="midnightblue" stroke="midnightblue" points="82,-222.25 85.5,-232.25 89,-222.25 82,-222.25"/>
</g>
<!-- Node6 -->
<g id="node6" class="node">
<title>Node6</title>
<g id="a_node6"><a xlink:href="class_j_k_q_t_p_graph_line_style_mixin.html" target="_top" xlink:title="This Mix&#45;In class provides setter/getter methods, storage and other facilities for the graph line sty...">
<polygon fill="none" stroke="black" points="189.5,-58.5 189.5,-79.5 363.5,-79.5 363.5,-58.5 189.5,-58.5"/>
<text text-anchor="middle" x="276.5" y="-65.9" font-family="Helvetica,sans-Serif" font-size="12.00">JKQTPGraphLineStyleMixin</text>
</a>
</g>
</g>
<!-- Node6&#45;&gt;Node1 -->
<g id="edge5" class="edge">
<title>Node6&#45;&gt;Node1</title>
<path fill="none" stroke="midnightblue" d="M250.87,-53.05C233.78,-43.08 211.84,-30.28 197.03,-21.64"/>
<polygon fill="midnightblue" stroke="midnightblue" points="249.38,-56.23 259.78,-58.25 252.9,-50.18 249.38,-56.23"/>
</g>
</g>
</svg>
