<?xml version="1.0" encoding="UTF-8" standalone="no"?>
<!DOCTYPE svg PUBLIC "-//W3C//DTD SVG 1.1//EN"
 "http://www.w3.org/Graphics/SVG/1.1/DTD/svg11.dtd">
<!-- Generated by graphviz version 2.43.0 (0)
 -->
<!-- Title: JKQTMathTextWhitespaceNode Pages: 1 -->
<svg width="328pt" height="173pt"
 viewBox="0.00 0.00 327.50 173.00" xmlns="http://www.w3.org/2000/svg" xmlns:xlink="http://www.w3.org/1999/xlink">
<g id="graph0" class="graph" transform="scale(1 1) rotate(0) translate(4 169)">
<title>JKQTMathTextWhitespaceNode</title>
<!-- Node1 -->
<g id="node1" class="node">
<title>Node1</title>
<g id="a_node1"><a xlink:title="subclass representing one whitepsace node in the syntax tree">
<polygon fill="#bfbfbf" stroke="black" points="0,-0.5 0,-21.5 191,-21.5 191,-0.5 0,-0.5"/>
<text text-anchor="middle" x="95.5" y="-7.9" font-family="FreeSans" font-size="12.00">JKQTMathTextWhitespaceNode</text>
</a>
</g>
</g>
<!-- Node2 -->
<g id="node2" class="node">
<title>Node2</title>
<g id="a_node2"><a xlink:href="class_j_k_q_t_math_text_text_node.html" target="_top" xlink:title="subclass representing one text node in the syntax tree">
<polygon fill="none" stroke="black" points="20,-59.5 20,-80.5 171,-80.5 171,-59.5 20,-59.5"/>
<text text-anchor="middle" x="95.5" y="-66.9" font-family="FreeSans" font-size="12.00">JKQTMathTextTextNode</text>
</a>
</g>
</g>
<!-- Node2&#45;&gt;Node1 -->
<g id="edge1" class="edge">
<title>Node2&#45;&gt;Node1</title>
<path fill="none" stroke="midnightblue" d="M95.5,-49.23C95.5,-39.85 95.5,-29.07 95.5,-21.53"/>
<polygon fill="midnightblue" stroke="midnightblue" points="92,-49.33 95.5,-59.33 99,-49.33 92,-49.33"/>
</g>
<!-- Node3 -->
<g id="node3" class="node">
<title>Node3</title>
<g id="a_node3"><a xlink:href="class_j_k_q_t_math_text_node.html" target="_top" xlink:title="subclass representing one node in the syntax tree">
<polygon fill="none" stroke="black" points="69.5,-143.5 69.5,-164.5 197.5,-164.5 197.5,-143.5 69.5,-143.5"/>
<text text-anchor="middle" x="133.5" y="-150.9" font-family="FreeSans" font-size="12.00">JKQTMathTextNode</text>
</a>
</g>
</g>
<!-- Node3&#45;&gt;Node2 -->
<g id="edge2" class="edge">
<title>Node3&#45;&gt;Node2</title>
<path fill="none" stroke="midnightblue" d="M118.87,-135.34C116.53,-132.03 114.3,-128.5 112.5,-125 104.96,-110.31 99.99,-91.64 97.47,-80.55"/>
<polygon fill="midnightblue" stroke="midnightblue" points="116.2,-137.61 125.04,-143.44 121.76,-133.36 116.2,-137.61"/>
</g>
<!-- Node4 -->
<g id="node4" class="node">
<title>Node4</title>
<g id="a_node4"><a xlink:href="class_j_k_q_t_math_text.html" target="_top" xlink:title="this class parses a LaTeX string and can then draw the contained text/equation onto a QPainter">
<polygon fill="none" stroke="black" points="189.5,-59.5 189.5,-80.5 287.5,-80.5 287.5,-59.5 189.5,-59.5"/>
<text text-anchor="middle" x="238.5" y="-66.9" font-family="FreeSans" font-size="12.00">JKQTMathText</text>
</a>
</g>
</g>
<!-- Node3&#45;&gt;Node4 -->
<g id="edge5" class="edge">
<title>Node3&#45;&gt;Node4</title>
<path fill="none" stroke="#9a32cd" stroke-dasharray="5,2" d="M126.63,-133.74C123.93,-122.5 123.01,-108.68 130.5,-99 134.47,-93.87 163.88,-86.44 191,-80.52"/>
<polygon fill="#9a32cd" stroke="#9a32cd" points="123.33,-134.92 129.55,-143.5 130.03,-132.92 123.33,-134.92"/>
<text text-anchor="middle" x="170.5" y="-115.4" font-family="FreeSans" font-size="12.00"> parsedNode</text>
<text text-anchor="middle" x="170.5" y="-102.4" font-family="FreeSans" font-size="12.00">unparsedNode</text>
</g>
<!-- Node4&#45;&gt;Node3 -->
<g id="edge3" class="edge">
<title>Node4&#45;&gt;Node3</title>
<path fill="none" stroke="#9a32cd" stroke-dasharray="5,2" d="M233.95,-90.72C230.39,-102.12 224.35,-115.96 214.5,-125 205.4,-133.35 193.69,-139.23 182.01,-143.36"/>
<polygon fill="#9a32cd" stroke="#9a32cd" points="237.41,-91.34 236.64,-80.77 230.65,-89.51 237.41,-91.34"/>
<text text-anchor="middle" x="250" y="-108.9" font-family="FreeSans" font-size="12.00"> parent</text>
</g>
<!-- Node5 -->
<g id="node5" class="node">
<title>Node5</title>
<g id="a_node5"><a xlink:title=" ">
<polygon fill="none" stroke="black" points="257.5,-143.5 257.5,-164.5 319.5,-164.5 319.5,-143.5 257.5,-143.5"/>
<text text-anchor="middle" x="288.5" y="-150.9" font-family="FreeSans" font-size="12.00">QObject</text>
</a>
</g>
</g>
<!-- Node5&#45;&gt;Node4 -->
<g id="edge4" class="edge">
<title>Node5&#45;&gt;Node4</title>
<path fill="none" stroke="midnightblue" d="M286.53,-133.3C284.71,-122.47 281.21,-109.21 274.5,-99 269.63,-91.59 262.13,-85.31 255.23,-80.58"/>
<polygon fill="midnightblue" stroke="midnightblue" points="283.1,-134.02 287.88,-143.47 290.03,-133.1 283.1,-134.02"/>
</g>
</g>
</svg>
