<?xml version="1.0" encoding="UTF-8" standalone="no"?>
<!DOCTYPE svg PUBLIC "-//W3C//DTD SVG 1.1//EN"
 "http://www.w3.org/Graphics/SVG/1.1/DTD/svg11.dtd">
<!-- Generated by graphviz version 2.43.0 (0)
 -->
<!-- Title: JKQTMathTextInstruction1Node Pages: 1 -->
<svg width="431pt" height="157pt"
 viewBox="0.00 0.00 430.50 157.00" xmlns="http://www.w3.org/2000/svg" xmlns:xlink="http://www.w3.org/1999/xlink">
<g id="graph0" class="graph" transform="scale(1 1) rotate(0) translate(4 153)">
<title>JKQTMathTextInstruction1Node</title>
<!-- Node1 -->
<g id="node1" class="node">
<title>Node1</title>
<g id="a_node1"><a xlink:title="subclass representing an instruction node with exactly one argument and possibly additional parameter...">
<polygon fill="#999999" stroke="#666666" points="202,-21 0,-21 0,0 202,0 202,-21"/>
<text text-anchor="middle" x="101" y="-7.4" font-family="Helvetica,sans-Serif" font-size="12.00">JKQTMathTextInstruction1Node</text>
</a>
</g>
</g>
<!-- Node2 -->
<g id="node2" class="node">
<title>Node2</title>
<g id="a_node2"><a xlink:href="class_j_k_q_t_math_text_single_child_node.html" target="_top" xlink:title="subclass representing a node in the syntax tree, that has one child">
<polygon fill="white" stroke="#666666" points="199,-79 3,-79 3,-58 199,-58 199,-79"/>
<text text-anchor="middle" x="101" y="-65.4" font-family="Helvetica,sans-Serif" font-size="12.00">JKQTMathTextSingleChildNode</text>
</a>
</g>
</g>
<!-- Node2&#45;&gt;Node1 -->
<g id="edge1" class="edge">
<title>Node2&#45;&gt;Node1</title>
<path fill="none" stroke="#63b8ff" d="M101,-47.66C101,-38.66 101,-28.42 101,-21.14"/>
<polygon fill="#63b8ff" stroke="#63b8ff" points="97.5,-47.75 101,-57.75 104.5,-47.75 97.5,-47.75"/>
</g>
<!-- Node3 -->
<g id="node3" class="node">
<title>Node3</title>
<g id="a_node3"><a xlink:href="class_j_k_q_t_math_text_node.html" target="_top" xlink:title="subclass representing one node in the syntax tree">
<polygon fill="white" stroke="#666666" points="216.5,-149 85.5,-149 85.5,-128 216.5,-128 216.5,-149"/>
<text text-anchor="middle" x="151" y="-135.4" font-family="Helvetica,sans-Serif" font-size="12.00">JKQTMathTextNode</text>
</a>
</g>
</g>
<!-- Node3&#45;&gt;Node2 -->
<g id="edge2" class="edge">
<title>Node3&#45;&gt;Node2</title>
<path fill="none" stroke="#63b8ff" d="M116.46,-122.76C111.57,-119.26 107.14,-115.04 104,-110 98.25,-100.79 98.34,-88 99.31,-79.28"/>
<polygon fill="#63b8ff" stroke="#63b8ff" points="114.64,-125.74 124.99,-127.99 118.3,-119.78 114.64,-125.74"/>
</g>
<!-- Node3&#45;&gt;Node2 -->
<g id="edge7" class="edge">
<title>Node3&#45;&gt;Node2</title>
<path fill="none" stroke="#9a32cd" stroke-dasharray="5,2" d="M133.07,-120.59C129.88,-117.22 126.72,-113.61 124,-110 116.6,-100.19 109.88,-87.75 105.64,-79.26"/>
<polygon fill="#9a32cd" stroke="#9a32cd" points="130.79,-123.27 140.33,-127.89 135.76,-118.33 130.79,-123.27"/>
<text text-anchor="middle" x="140" y="-100.4" font-family="Helvetica,sans-Serif" font-size="12.00"> child</text>
</g>
<!-- Node3&#45;&gt;Node3 -->
<g id="edge6" class="edge">
<title>Node3&#45;&gt;Node3</title>
<path fill="none" stroke="#9a32cd" stroke-dasharray="5,2" d="M227.02,-142.94C231.69,-141.89 234.5,-140.41 234.5,-138.5 234.5,-135.45 227.31,-133.49 216.81,-132.63"/>
<polygon fill="#9a32cd" stroke="#9a32cd" points="226.23,-139.52 216.81,-144.37 227.2,-146.45 226.23,-139.52"/>
<text text-anchor="middle" x="272" y="-135.4" font-family="Helvetica,sans-Serif" font-size="12.00"> parentNode</text>
</g>
<!-- Node4 -->
<g id="node4" class="node">
<title>Node4</title>
<g id="a_node4"><a xlink:href="class_j_k_q_t_math_text.html" target="_top" xlink:title="this class parses a mathematical markup string and can then draw the contained text/equation onto a Q...">
<polygon fill="white" stroke="#666666" points="327.5,-79 228.5,-79 228.5,-58 327.5,-58 327.5,-79"/>
<text text-anchor="middle" x="278" y="-65.4" font-family="Helvetica,sans-Serif" font-size="12.00">JKQTMathText</text>
</a>
</g>
</g>
<!-- Node3&#45;&gt;Node4 -->
<g id="edge5" class="edge">
<title>Node3&#45;&gt;Node4</title>
<path fill="none" stroke="#9a32cd" stroke-dasharray="5,2" d="M158.41,-118.53C162.29,-110.83 167.76,-102.48 175,-97 190.34,-85.38 210.22,-78.66 228.41,-74.78"/>
<polygon fill="#9a32cd" stroke="#9a32cd" points="155.21,-117.11 154.33,-127.67 161.6,-119.96 155.21,-117.11"/>
<text text-anchor="middle" x="213.5" y="-100.4" font-family="Helvetica,sans-Serif" font-size="12.00"> parsedNode</text>
</g>
<!-- Node4&#45;&gt;Node3 -->
<g id="edge3" class="edge">
<title>Node4&#45;&gt;Node3</title>
<path fill="none" stroke="#9a32cd" stroke-dasharray="5,2" d="M271.44,-88.73C267.95,-96.35 262.92,-104.58 256,-110 244.65,-118.89 230.71,-124.92 216.74,-129.01"/>
<polygon fill="#9a32cd" stroke="#9a32cd" points="274.73,-89.92 275.17,-79.33 268.23,-87.34 274.73,-89.92"/>
<text text-anchor="middle" x="315.5" y="-100.4" font-family="Helvetica,sans-Serif" font-size="12.00"> parentMathText</text>
</g>
<!-- Node5 -->
<g id="node5" class="node">
<title>Node5</title>
<g id="a_node5"><a xlink:title=" ">
<polygon fill="white" stroke="#666666" points="422.5,-149 357.5,-149 357.5,-128 422.5,-128 422.5,-149"/>
<text text-anchor="middle" x="390" y="-135.4" font-family="Helvetica,sans-Serif" font-size="12.00">QObject</text>
</a>
</g>
</g>
<!-- Node5&#45;&gt;Node4 -->
<g id="edge4" class="edge">
<title>Node5&#45;&gt;Node4</title>
<path fill="none" stroke="#63b8ff" d="M387.2,-117.94C385.21,-110.49 381.81,-102.48 376,-97 362.95,-84.7 344.84,-77.83 327.74,-74.02"/>
<polygon fill="#63b8ff" stroke="#63b8ff" points="383.78,-118.67 389.18,-127.78 390.64,-117.29 383.78,-118.67"/>
</g>
</g>
</svg>
