<?xml version="1.0" encoding="UTF-8" standalone="no"?>
<!DOCTYPE svg PUBLIC "-//W3C//DTD SVG 1.1//EN"
 "http://www.w3.org/Graphics/SVG/1.1/DTD/svg11.dtd">
<!-- Generated by graphviz version 2.43.0 (0)
 -->
<!-- Title: JKQTPCoordinateAxis Pages: 1 -->
<svg width="436pt" height="204pt"
 viewBox="0.00 0.00 436.00 204.00" xmlns="http://www.w3.org/2000/svg" xmlns:xlink="http://www.w3.org/1999/xlink">
<g id="graph0" class="graph" transform="scale(1 1) rotate(0) translate(4 200)">
<title>JKQTPCoordinateAxis</title>
<!-- Node1 -->
<g id="node1" class="node">
<title>Node1</title>
<g id="a_node1"><a xlink:title="this virtual class is the base for any type of coordinate axis, to be drawn by JKQTBasePlotter.">
<polygon fill="#bfbfbf" stroke="black" points="146.5,-116.5 146.5,-137.5 288.5,-137.5 288.5,-116.5 146.5,-116.5"/>
<text text-anchor="middle" x="217.5" y="-123.9" font-family="Helvetica,sans-Serif" font-size="12.00">JKQTPCoordinateAxis</text>
</a>
</g>
</g>
<!-- Node3 -->
<g id="node3" class="node">
<title>Node3</title>
<g id="a_node3"><a xlink:href="class_j_k_q_t_p_horizontal_axis.html" target="_top" xlink:title="implements a horizontal axis, based on JKQTPCoordinateAxis (for most of documentation: see JKQTPCoord...">
<polygon fill="none" stroke="black" points="75,-58.5 75,-79.5 212,-79.5 212,-58.5 75,-58.5"/>
<text text-anchor="middle" x="143.5" y="-65.9" font-family="Helvetica,sans-Serif" font-size="12.00">JKQTPHorizontalAxis</text>
</a>
</g>
</g>
<!-- Node1&#45;&gt;Node3 -->
<g id="edge2" class="edge">
<title>Node1&#45;&gt;Node3</title>
<path fill="none" stroke="midnightblue" d="M196.63,-110.21C183.64,-100.37 167.34,-88.04 156.24,-79.64"/>
<polygon fill="midnightblue" stroke="midnightblue" points="194.52,-113 204.61,-116.25 198.75,-107.42 194.52,-113"/>
</g>
<!-- Node5 -->
<g id="node5" class="node">
<title>Node5</title>
<g id="a_node5"><a xlink:href="class_j_k_q_t_p_vertical_axis.html" target="_top" xlink:title="implements a vertical axis, based on JKQTPCoordinateAxis (for most of documentation: see JKQTPCoordin...">
<polygon fill="none" stroke="black" points="249.5,-58.5 249.5,-79.5 371.5,-79.5 371.5,-58.5 249.5,-58.5"/>
<text text-anchor="middle" x="310.5" y="-65.9" font-family="Helvetica,sans-Serif" font-size="12.00">JKQTPVerticalAxis</text>
</a>
</g>
</g>
<!-- Node1&#45;&gt;Node5 -->
<g id="edge4" class="edge">
<title>Node1&#45;&gt;Node5</title>
<path fill="none" stroke="midnightblue" d="M242.33,-111.05C258.88,-101.08 280.14,-88.28 294.49,-79.64"/>
<polygon fill="midnightblue" stroke="midnightblue" points="240.46,-108.09 233.7,-116.25 244.07,-114.09 240.46,-108.09"/>
</g>
<!-- Node2 -->
<g id="node2" class="node">
<title>Node2</title>
<g id="a_node2"><a xlink:title=" ">
<polygon fill="none" stroke="black" points="185,-174.5 185,-195.5 250,-195.5 250,-174.5 185,-174.5"/>
<text text-anchor="middle" x="217.5" y="-181.9" font-family="Helvetica,sans-Serif" font-size="12.00">QObject</text>
</a>
</g>
</g>
<!-- Node2&#45;&gt;Node1 -->
<g id="edge1" class="edge">
<title>Node2&#45;&gt;Node1</title>
<path fill="none" stroke="midnightblue" d="M217.5,-164.16C217.5,-155.16 217.5,-144.92 217.5,-137.64"/>
<polygon fill="midnightblue" stroke="midnightblue" points="214,-164.25 217.5,-174.25 221,-164.25 214,-164.25"/>
</g>
<!-- Node4 -->
<g id="node4" class="node">
<title>Node4</title>
<g id="a_node4"><a xlink:href="class_j_k_q_t_p_horizontal_independent_axis.html" target="_top" xlink:title="implements a position&#45;indipendent horizontal axis, based on JKQTPCoordinateAxis (for most of document...">
<polygon fill="none" stroke="black" points="0,-0.5 0,-21.5 213,-21.5 213,-0.5 0,-0.5"/>
<text text-anchor="middle" x="106.5" y="-7.9" font-family="Helvetica,sans-Serif" font-size="12.00">JKQTPHorizontalIndependentAxis</text>
</a>
</g>
</g>
<!-- Node3&#45;&gt;Node4 -->
<g id="edge3" class="edge">
<title>Node3&#45;&gt;Node4</title>
<path fill="none" stroke="midnightblue" d="M131.36,-49.63C125.19,-40.29 117.94,-29.32 112.87,-21.64"/>
<polygon fill="midnightblue" stroke="midnightblue" points="128.62,-51.83 137.06,-58.25 134.46,-47.97 128.62,-51.83"/>
</g>
<!-- Node6 -->
<g id="node6" class="node">
<title>Node6</title>
<g id="a_node6"><a xlink:href="class_j_k_q_t_p_vertical_independent_axis.html" target="_top" xlink:title="implements a position&#45;indipendent vertical axis, based on JKQTPCoordinateAxis (for most of documentat...">
<polygon fill="none" stroke="black" points="231,-0.5 231,-21.5 428,-21.5 428,-0.5 231,-0.5"/>
<text text-anchor="middle" x="329.5" y="-7.9" font-family="Helvetica,sans-Serif" font-size="12.00">JKQTPVerticalIndependentAxis</text>
</a>
</g>
</g>
<!-- Node5&#45;&gt;Node6 -->
<g id="edge5" class="edge">
<title>Node5&#45;&gt;Node6</title>
<path fill="none" stroke="midnightblue" d="M317.03,-48.75C320.13,-39.61 323.71,-29.08 326.23,-21.64"/>
<polygon fill="midnightblue" stroke="midnightblue" points="313.71,-47.65 313.81,-58.25 320.34,-49.9 313.71,-47.65"/>
</g>
</g>
</svg>
