<?xml version="1.0" encoding="UTF-8" standalone="no"?>
<!DOCTYPE svg PUBLIC "-//W3C//DTD SVG 1.1//EN"
 "http://www.w3.org/Graphics/SVG/1.1/DTD/svg11.dtd">
<!-- Generated by graphviz version 2.43.0 (0)
 -->
<!-- Title: JKQTPBarHorizontalErrorGraph Pages: 1 -->
<!--zoomable 428 -->
<svg id="main" version="1.1" xmlns="http://www.w3.org/2000/svg" xmlns:xlink="http://www.w3.org/1999/xlink" xml:space="preserve" onload="init(evt)">
<style type="text/css"><![CDATA[
.edge:hover path { stroke: red; }
.edge:hover polygon { stroke: red; fill: red; }
]]></style>
<script type="text/javascript"><![CDATA[
var edges = document.getElementsByTagName('g');
if (edges && edges.length) {
  for (var i=0;i<edges.length;i++) {
    if (edges[i].id.substr(0,4)=='edge') {
      edges[i].setAttribute('class','edge');
    }
  }
}
]]></script>
        <defs>
                <circle id="rim" cx="0" cy="0" r="7"/>
                <circle id="rim2" cx="0" cy="0" r="3.5"/>
                <g id="zoomPlus">
                        <use xlink:href="#rim" fill="#404040">
                                <set attributeName="fill" to="#808080" begin="zoomplus.mouseover" end="zoomplus.mouseout"/>
                        </use>
                        <path d="M-4,0h8M0,-4v8" fill="none" stroke="white" stroke-width="1.5" pointer-events="none"/>
                </g>
                <g id="zoomMin">
                        <use xlink:href="#rim" fill="#404040">
                                <set attributeName="fill" to="#808080" begin="zoomminus.mouseover" end="zoomminus.mouseout"/>
                        </use>
                        <path d="M-4,0h8" fill="none" stroke="white" stroke-width="1.5" pointer-events="none"/>
                </g>
                <g id="dirArrow">
                        <path fill="none" stroke="white" stroke-width="1.5" d="M0,-3.0v7 M-2.5,-0.5L0,-3.0L2.5,-0.5"/>
                </g>
               <g id="resetDef">
                       <use xlink:href="#rim2" fill="#404040">
                               <set attributeName="fill" to="#808080" begin="reset.mouseover" end="reset.mouseout"/>
                       </use>
               </g>
        </defs>

<script type="text/javascript">
var viewWidth = 711;
var viewHeight = 428;
var sectionId = 'dynsection-0';
</script>
<script xlink:href="svgpan.js"/>
<svg id="graph" class="graph">
<g id="viewport">
<title>JKQTPBarHorizontalErrorGraph</title>
<!-- Node1 -->
<g id="node1" class="node">
<title>Node1</title>
<g id="a_node1"><a xlink:title="This implements a horizontal bar graph with bars between &#160;and &#160;and error indicator.">
<polygon fill="#999999" stroke="#666666" points="445.5,-21 245.5,-21 245.5,0 445.5,0 445.5,-21"/>
<text text-anchor="middle" x="345.5" y="-7.4" font-family="Helvetica,sans-Serif" font-size="12.00">JKQTPBarHorizontalErrorGraph</text>
</a>
</g>
</g>
<!-- Node2 -->
<g id="node2" class="node">
<title>Node2</title>
<g id="a_node2"><a xlink:href="class_j_k_q_t_p_bar_horizontal_graph.html" target="_top" xlink:title="This implements a horizontal bar graph with bars between &#160;and .">
<polygon fill="white" stroke="#666666" points="346,-78 175,-78 175,-57 346,-57 346,-78"/>
<text text-anchor="middle" x="260.5" y="-64.4" font-family="Helvetica,sans-Serif" font-size="12.00">JKQTPBarHorizontalGraph</text>
</a>
</g>
</g>
<!-- Node2&#45;&gt;Node1 -->
<g id="edge1" class="edge">
<title>Node2&#45;&gt;Node1</title>
<path fill="none" stroke="#63b8ff" d="M283.98,-51.3C298.88,-41.67 317.7,-29.49 330.58,-21.16"/>
<polygon fill="#63b8ff" stroke="#63b8ff" points="281.8,-48.55 275.31,-56.92 285.6,-54.43 281.8,-48.55"/>
</g>
<!-- Node3 -->
<g id="node3" class="node">
<title>Node3</title>
<g id="a_node3"><a xlink:href="class_j_k_q_t_p_bar_graph_base.html" target="_top" xlink:title="This is a base&#45;class for all bar graphs with vertical or horizontal orientation (the orientation is i...">
<polygon fill="white" stroke="#666666" points="330.5,-135 190.5,-135 190.5,-114 330.5,-114 330.5,-135"/>
<text text-anchor="middle" x="260.5" y="-121.4" font-family="Helvetica,sans-Serif" font-size="12.00">JKQTPBarGraphBase</text>
</a>
</g>
</g>
<!-- Node3&#45;&gt;Node2 -->
<g id="edge2" class="edge">
<title>Node3&#45;&gt;Node2</title>
<path fill="none" stroke="#63b8ff" d="M260.5,-103.86C260.5,-95.2 260.5,-85.42 260.5,-78.34"/>
<polygon fill="#63b8ff" stroke="#63b8ff" points="257,-103.92 260.5,-113.92 264,-103.92 257,-103.92"/>
</g>
<!-- Node4 -->
<g id="node4" class="node">
<title>Node4</title>
<g id="a_node4"><a xlink:href="class_j_k_q_t_p_x_y_baseline_graph.html" target="_top" xlink:title="This virtual JKQTPGraph descendent extends JKQTPXYGraph adds a baseline&#45;property, which is necessary,...">
<polygon fill="white" stroke="#666666" points="155,-192 0,-192 0,-171 155,-171 155,-192"/>
<text text-anchor="middle" x="77.5" y="-178.4" font-family="Helvetica,sans-Serif" font-size="12.00">JKQTPXYBaselineGraph</text>
</a>
</g>
</g>
<!-- Node4&#45;&gt;Node3 -->
<g id="edge3" class="edge">
<title>Node4&#45;&gt;Node3</title>
<path fill="none" stroke="#63b8ff" d="M119.26,-167.95C152.51,-157.96 198.36,-144.18 228.68,-135.06"/>
<polygon fill="#63b8ff" stroke="#63b8ff" points="117.95,-164.69 109.38,-170.92 119.96,-171.39 117.95,-164.69"/>
</g>
<!-- Node5 -->
<g id="node5" class="node">
<title>Node5</title>
<g id="a_node5"><a xlink:href="class_j_k_q_t_p_x_y_graph.html" target="_top" xlink:title="This virtual JKQTPGraph descendent may be used as base for all graphs that use at least two columns t...">
<polygon fill="white" stroke="#666666" points="130,-249 25,-249 25,-228 130,-228 130,-249"/>
<text text-anchor="middle" x="77.5" y="-235.4" font-family="Helvetica,sans-Serif" font-size="12.00">JKQTPXYGraph</text>
</a>
</g>
</g>
<!-- Node5&#45;&gt;Node4 -->
<g id="edge4" class="edge">
<title>Node5&#45;&gt;Node4</title>
<path fill="none" stroke="#63b8ff" d="M77.5,-217.86C77.5,-209.2 77.5,-199.42 77.5,-192.34"/>
<polygon fill="#63b8ff" stroke="#63b8ff" points="74,-217.92 77.5,-227.92 81,-217.92 74,-217.92"/>
</g>
<!-- Node6 -->
<g id="node6" class="node">
<title>Node6</title>
<g id="a_node6"><a xlink:href="class_j_k_q_t_p_graph.html" target="_top" xlink:title="this virtual base class of the (data&#45;column based) graphs, which are part of a JKQTPlotter plot and w...">
<polygon fill="white" stroke="#666666" points="122,-306 33,-306 33,-285 122,-285 122,-306"/>
<text text-anchor="middle" x="77.5" y="-292.4" font-family="Helvetica,sans-Serif" font-size="12.00">JKQTPGraph</text>
</a>
</g>
</g>
<!-- Node6&#45;&gt;Node5 -->
<g id="edge5" class="edge">
<title>Node6&#45;&gt;Node5</title>
<path fill="none" stroke="#63b8ff" d="M77.5,-274.86C77.5,-266.2 77.5,-256.42 77.5,-249.34"/>
<polygon fill="#63b8ff" stroke="#63b8ff" points="74,-274.92 77.5,-284.92 81,-274.92 74,-274.92"/>
</g>
<!-- Node7 -->
<g id="node7" class="node">
<title>Node7</title>
<g id="a_node7"><a xlink:href="class_j_k_q_t_p_plot_element.html" target="_top" xlink:title="this virtual base class of every element, which is part of a JKQTPlotter plot and may appear in its k...">
<polygon fill="white" stroke="#666666" points="140,-363 15,-363 15,-342 140,-342 140,-363"/>
<text text-anchor="middle" x="77.5" y="-349.4" font-family="Helvetica,sans-Serif" font-size="12.00">JKQTPPlotElement</text>
</a>
</g>
</g>
<!-- Node7&#45;&gt;Node6 -->
<g id="edge6" class="edge">
<title>Node7&#45;&gt;Node6</title>
<path fill="none" stroke="#63b8ff" d="M77.5,-331.86C77.5,-323.2 77.5,-313.42 77.5,-306.34"/>
<polygon fill="#63b8ff" stroke="#63b8ff" points="74,-331.92 77.5,-341.92 81,-331.92 74,-331.92"/>
</g>
<!-- Node8 -->
<g id="node8" class="node">
<title>Node8</title>
<g id="a_node8"><a xlink:title=" ">
<polygon fill="white" stroke="#666666" points="110,-420 45,-420 45,-399 110,-399 110,-420"/>
<text text-anchor="middle" x="77.5" y="-406.4" font-family="Helvetica,sans-Serif" font-size="12.00">QObject</text>
</a>
</g>
</g>
<!-- Node8&#45;&gt;Node7 -->
<g id="edge7" class="edge">
<title>Node8&#45;&gt;Node7</title>
<path fill="none" stroke="#63b8ff" d="M77.5,-388.86C77.5,-380.2 77.5,-370.42 77.5,-363.34"/>
<polygon fill="#63b8ff" stroke="#63b8ff" points="74,-388.92 77.5,-398.92 81,-388.92 74,-388.92"/>
</g>
<!-- Node9 -->
<g id="node9" class="node">
<title>Node9</title>
<g id="a_node9"><a xlink:href="class_j_k_q_t_p_graph_line_style_mixin.html" target="_top" xlink:title="This Mix&#45;In class provides setter/getter methods, storage and other facilities for the graph line sty...">
<polygon fill="white" stroke="#666666" points="347.5,-192 173.5,-192 173.5,-171 347.5,-171 347.5,-192"/>
<text text-anchor="middle" x="260.5" y="-178.4" font-family="Helvetica,sans-Serif" font-size="12.00">JKQTPGraphLineStyleMixin</text>
</a>
</g>
</g>
<!-- Node9&#45;&gt;Node3 -->
<g id="edge8" class="edge">
<title>Node9&#45;&gt;Node3</title>
<path fill="none" stroke="#63b8ff" d="M260.5,-160.86C260.5,-152.2 260.5,-142.42 260.5,-135.34"/>
<polygon fill="#63b8ff" stroke="#63b8ff" points="257,-160.92 260.5,-170.92 264,-160.92 257,-160.92"/>
</g>
<!-- Node10 -->
<g id="node10" class="node">
<title>Node10</title>
<g id="a_node10"><a xlink:href="class_j_k_q_t_p_graph_fill_style_mixin.html" target="_top" xlink:title="This Mix&#45;In class provides setter/getter methods, storage and other facilities for the graph filling ...">
<polygon fill="white" stroke="#666666" points="529.5,-192 365.5,-192 365.5,-171 529.5,-171 529.5,-192"/>
<text text-anchor="middle" x="447.5" y="-178.4" font-family="Helvetica,sans-Serif" font-size="12.00">JKQTPGraphFillStyleMixin</text>
</a>
</g>
</g>
<!-- Node10&#45;&gt;Node3 -->
<g id="edge9" class="edge">
<title>Node10&#45;&gt;Node3</title>
<path fill="none" stroke="#63b8ff" d="M405.27,-168.08C371.25,-158.07 324.14,-144.22 293.01,-135.06"/>
<polygon fill="#63b8ff" stroke="#63b8ff" points="404.35,-171.46 414.93,-170.92 406.32,-164.74 404.35,-171.46"/>
</g>
<!-- Node11 -->
<g id="node11" class="node">
<title>Node11</title>
<g id="a_node11"><a xlink:href="class_j_k_q_t_p_x_graph_errors.html" target="_top" xlink:title="This class is the base class for graphs that only display error indicators in x&#45;direction.">
<polygon fill="white" stroke="#666666" points="497,-78 364,-78 364,-57 497,-57 497,-78"/>
<text text-anchor="middle" x="430.5" y="-64.4" font-family="Helvetica,sans-Serif" font-size="12.00">JKQTPXGraphErrors</text>
</a>
</g>
</g>
<!-- Node11&#45;&gt;Node1 -->
<g id="edge10" class="edge">
<title>Node11&#45;&gt;Node1</title>
<path fill="none" stroke="#63b8ff" d="M407.02,-51.3C392.12,-41.67 373.3,-29.49 360.42,-21.16"/>
<polygon fill="#63b8ff" stroke="#63b8ff" points="405.4,-54.43 415.69,-56.92 409.2,-48.55 405.4,-54.43"/>
</g>
<!-- Node12 -->
<g id="node12" class="node">
<title>Node12</title>
<g id="a_node12"><a xlink:href="class_j_k_q_t_p_x_graph_error_data.html" target="_top" xlink:title="This class adds data fields for error indicators in x direction.">
<polygon fill="white" stroke="#666666" points="506,-135 351,-135 351,-114 506,-114 506,-135"/>
<text text-anchor="middle" x="428.5" y="-121.4" font-family="Helvetica,sans-Serif" font-size="12.00">JKQTPXGraphErrorData</text>
</a>
</g>
</g>
<!-- Node12&#45;&gt;Node11 -->
<g id="edge11" class="edge">
<title>Node12&#45;&gt;Node11</title>
<path fill="none" stroke="#63b8ff" d="M429.21,-103.86C429.53,-95.2 429.88,-85.42 430.14,-78.34"/>
<polygon fill="#63b8ff" stroke="#63b8ff" points="425.71,-103.8 428.85,-113.92 432.71,-104.05 425.71,-103.8"/>
</g>
<!-- Node13 -->
<g id="node13" class="node">
<title>Node13</title>
<g id="a_node13"><a xlink:href="class_j_k_q_t_p_graph_error_style_mixin.html" target="_top" xlink:title="This mix&#45;in class assembles all styling properties applicable to error indicators.">
<polygon fill="white" stroke="#666666" points="703,-135 524,-135 524,-114 703,-114 703,-135"/>
<text text-anchor="middle" x="613.5" y="-121.4" font-family="Helvetica,sans-Serif" font-size="12.00">JKQTPGraphErrorStyleMixin</text>
</a>
</g>
</g>
<!-- Node13&#45;&gt;Node11 -->
<g id="edge12" class="edge">
<title>Node13&#45;&gt;Node11</title>
<path fill="none" stroke="#63b8ff" d="M571.74,-110.95C538.49,-100.96 492.64,-87.18 462.32,-78.06"/>
<polygon fill="#63b8ff" stroke="#63b8ff" points="571.04,-114.39 581.62,-113.92 573.05,-107.69 571.04,-114.39"/>
</g>
</g>
</svg>
        <g id="navigator" transform="translate(0 0)" fill="#404254">
                <rect fill="#f2f5e9" fill-opacity="0.5" stroke="#606060" stroke-width=".5" x="0" y="0" width="60" height="60"/>
                <use id="zoomplus" xlink:href="#zoomPlus" x="17" y="9" onmousedown="handleZoom(evt,'in')"/>
                <use id="zoomminus" xlink:href="#zoomMin" x="42" y="9" onmousedown="handleZoom(evt,'out')"/>
                <use id="reset" xlink:href="#resetDef" x="30" y="36" onmousedown="handleReset()"/>
                <g id="arrowUp" xlink:href="#dirArrow" transform="translate(30 24)" onmousedown="handlePan(0,-1)">
                  <use xlink:href="#rim" fill="#404040">
                        <set attributeName="fill" to="#808080" begin="arrowUp.mouseover" end="arrowUp.mouseout"/>
                  </use>
                  <path fill="none" stroke="white" stroke-width="1.5" d="M0,-3.0v7 M-2.5,-0.5L0,-3.0L2.5,-0.5"/>
                </g>
                <g id="arrowRight" xlink:href="#dirArrow" transform="rotate(90) translate(36 -43)" onmousedown="handlePan(1,0)">
                  <use xlink:href="#rim" fill="#404040">
                        <set attributeName="fill" to="#808080" begin="arrowRight.mouseover" end="arrowRight.mouseout"/>
                  </use>
                  <path fill="none" stroke="white" stroke-width="1.5" d="M0,-3.0v7 M-2.5,-0.5L0,-3.0L2.5,-0.5"/>
                </g>
                <g id="arrowDown" xlink:href="#dirArrow" transform="rotate(180) translate(-30 -48)" onmousedown="handlePan(0,1)">
                  <use xlink:href="#rim" fill="#404040">
                        <set attributeName="fill" to="#808080" begin="arrowDown.mouseover" end="arrowDown.mouseout"/>
                  </use>
                  <path fill="none" stroke="white" stroke-width="1.5" d="M0,-3.0v7 M-2.5,-0.5L0,-3.0L2.5,-0.5"/>
                </g>
                <g id="arrowLeft" xlink:href="#dirArrow" transform="rotate(270) translate(-36 17)" onmousedown="handlePan(-1,0)">
                  <use xlink:href="#rim" fill="#404040">
                        <set attributeName="fill" to="#808080" begin="arrowLeft.mouseover" end="arrowLeft.mouseout"/>
                  </use>
                  <path fill="none" stroke="white" stroke-width="1.5" d="M0,-3.0v7 M-2.5,-0.5L0,-3.0L2.5,-0.5"/>
                </g>
        </g>
        <svg viewBox="0 0 15 15" width="100%" height="30px" preserveAspectRatio="xMaxYMin meet">
         <g id="arrow_out" transform="scale(0.3 0.3)">
          <a xlink:href="class_j_k_q_t_p_bar_horizontal_error_graph__inherit__graph_org.svg" target="_base">
           <rect id="button" ry="5" rx="5" y="6" x="6" height="38" width="38"
                fill="#f2f5e9" fill-opacity="0.5" stroke="#606060" stroke-width="1.0"/>
           <path id="arrow"
             d="M 11.500037,31.436501 C 11.940474,20.09759 22.043105,11.32322 32.158766,21.979434 L 37.068811,17.246167 C 37.068811,17.246167 37.088388,32 37.088388,32 L 22.160133,31.978069 C 22.160133,31.978069 26.997745,27.140456 26.997745,27.140456 C 18.528582,18.264221 13.291696,25.230495 11.500037,31.436501 z"
             style="fill:#404040;"/>
          </a>
         </g>
        </svg>
</svg>
