<?xml version="1.0" encoding="UTF-8" standalone="no"?>
<!DOCTYPE svg PUBLIC "-//W3C//DTD SVG 1.1//EN"
 "http://www.w3.org/Graphics/SVG/1.1/DTD/svg11.dtd">
<!-- Generated by graphviz version 2.43.0 (0)
 -->
<!-- Title: JKQTPXYParametrizedScatterGraph Pages: 1 -->
<!--zoomable 524 -->
<svg id="main" version="1.1" xmlns="http://www.w3.org/2000/svg" xmlns:xlink="http://www.w3.org/1999/xlink" xml:space="preserve" onload="init(evt)">
<style type="text/css"><![CDATA[
.edge:hover path { stroke: red; }
.edge:hover polygon { stroke: red; fill: red; }
]]></style>
<script type="text/javascript"><![CDATA[
var edges = document.getElementsByTagName('g');
if (edges && edges.length) {
  for (var i=0;i<edges.length;i++) {
    if (edges[i].id.substr(0,4)=='edge') {
      edges[i].setAttribute('class','edge');
    }
  }
}
]]></script>
        <defs>
                <circle id="rim" cx="0" cy="0" r="7"/>
                <circle id="rim2" cx="0" cy="0" r="3.5"/>
                <g id="zoomPlus">
                        <use xlink:href="#rim" fill="#404040">
                                <set attributeName="fill" to="#808080" begin="zoomplus.mouseover" end="zoomplus.mouseout"/>
                        </use>
                        <path d="M-4,0h8M0,-4v8" fill="none" stroke="white" stroke-width="1.5" pointer-events="none"/>
                </g>
                <g id="zoomMin">
                        <use xlink:href="#rim" fill="#404040">
                                <set attributeName="fill" to="#808080" begin="zoomminus.mouseover" end="zoomminus.mouseout"/>
                        </use>
                        <path d="M-4,0h8" fill="none" stroke="white" stroke-width="1.5" pointer-events="none"/>
                </g>
                <g id="dirArrow">
                        <path fill="none" stroke="white" stroke-width="1.5" d="M0,-3.0v7 M-2.5,-0.5L0,-3.0L2.5,-0.5"/>
                </g>
               <g id="resetDef">
                       <use xlink:href="#rim2" fill="#404040">
                               <set attributeName="fill" to="#808080" begin="reset.mouseover" end="reset.mouseout"/>
                       </use>
               </g>
        </defs>

<script type="text/javascript">
var viewWidth = 3662;
var viewHeight = 524;
var sectionId = 'dynsection-1';
</script>
<script xlink:href="svgpan.js"/>
<svg id="graph" class="graph">
<g id="viewport">
<title>JKQTPXYParametrizedScatterGraph</title>
<!-- Node1 -->
<g id="node1" class="node">
<title>Node1</title>
<g id="a_node1"><a xlink:title="This implements xy scatter plots (like JKQTPXYLineGraph), but the color and size of the symbols may b...">
<polygon fill="#bfbfbf" stroke="black" points="3462,-338.91 3462,-372.91 3654,-372.91 3654,-338.91 3462,-338.91"/>
<text text-anchor="start" x="3470" y="-359.31" font-family="Helvetica,sans-Serif" font-size="12.00">JKQTPXYParametrizedScatter</text>
<text text-anchor="middle" x="3558" y="-346.31" font-family="Helvetica,sans-Serif" font-size="12.00">Graph</text>
</a>
</g>
</g>
<!-- Node2 -->
<g id="node2" class="node">
<title>Node2</title>
<g id="a_node2"><a xlink:href="class_j_k_q_t_p_x_y_line_graph.html" target="_top" xlink:title="This implements xy line plots. This also alows to draw symbols at the data points.">
<polygon fill="none" stroke="black" points="3271,-212.41 3271,-233.41 3401,-233.41 3401,-212.41 3271,-212.41"/>
<text text-anchor="middle" x="3336" y="-219.81" font-family="Helvetica,sans-Serif" font-size="12.00">JKQTPXYLineGraph</text>
</a>
</g>
</g>
<!-- Node2&#45;&gt;Node1 -->
<g id="edge1" class="edge">
<title>Node2&#45;&gt;Node1</title>
<path fill="none" stroke="midnightblue" d="M3363.39,-238.87C3405.11,-264.09 3485.93,-312.95 3528.76,-338.84"/>
<polygon fill="midnightblue" stroke="midnightblue" points="3365,-235.75 3354.63,-233.57 3361.38,-241.74 3365,-235.75"/>
</g>
<!-- Node3 -->
<g id="node3" class="node">
<title>Node3</title>
<g id="a_node3"><a xlink:href="class_j_k_q_t_p_x_y_graph.html" target="_top" xlink:title="This virtual JKQTPGraph descendent may be used as base for all graphs that use at least two columns t...">
<polygon fill="none" stroke="black" points="2942,-212.41 2942,-233.41 3047,-233.41 3047,-212.41 2942,-212.41"/>
<text text-anchor="middle" x="2994.5" y="-219.81" font-family="Helvetica,sans-Serif" font-size="12.00">JKQTPXYGraph</text>
</a>
</g>
</g>
<!-- Node3&#45;&gt;Node2 -->
<g id="edge2" class="edge">
<title>Node3&#45;&gt;Node2</title>
<path fill="none" stroke="midnightblue" d="M3057.23,-222.91C3117.69,-222.91 3209.44,-222.91 3270.75,-222.91"/>
<polygon fill="midnightblue" stroke="midnightblue" points="3057.06,-219.41 3047.06,-222.91 3057.06,-226.41 3057.06,-219.41"/>
</g>
<!-- Node4 -->
<g id="node4" class="node">
<title>Node4</title>
<g id="a_node4"><a xlink:href="class_j_k_q_t_p_graph.html" target="_top" xlink:title="this virtual base class of the (data&#45;column based) graphs, which are part of a JKQTPlotter plot and w...">
<polygon fill="none" stroke="black" points="2738,-213.41 2738,-234.41 2827,-234.41 2827,-213.41 2738,-213.41"/>
<text text-anchor="middle" x="2782.5" y="-220.81" font-family="Helvetica,sans-Serif" font-size="12.00">JKQTPGraph</text>
</a>
</g>
</g>
<!-- Node4&#45;&gt;Node3 -->
<g id="edge3" class="edge">
<title>Node4&#45;&gt;Node3</title>
<path fill="none" stroke="midnightblue" d="M2837.14,-223.66C2869.33,-223.5 2910.07,-223.31 2941.89,-223.16"/>
<polygon fill="midnightblue" stroke="midnightblue" points="2837,-220.16 2827.01,-223.71 2837.03,-227.16 2837,-220.16"/>
</g>
<!-- Node5 -->
<g id="node5" class="node">
<title>Node5</title>
<g id="a_node5"><a xlink:href="class_j_k_q_t_p_plot_element.html" target="_top" xlink:title="this virtual base class of every element, which is part of a JKQTPlotter plot and may appear in its k...">
<polygon fill="none" stroke="black" points="2507,-214.41 2507,-235.41 2632,-235.41 2632,-214.41 2507,-214.41"/>
<text text-anchor="middle" x="2569.5" y="-221.81" font-family="Helvetica,sans-Serif" font-size="12.00">JKQTPPlotElement</text>
</a>
</g>
</g>
<!-- Node5&#45;&gt;Node4 -->
<g id="edge4" class="edge">
<title>Node5&#45;&gt;Node4</title>
<path fill="none" stroke="midnightblue" d="M2642.23,-224.57C2674,-224.42 2710.34,-224.25 2737.92,-224.12"/>
<polygon fill="midnightblue" stroke="midnightblue" points="2642.08,-221.07 2632.1,-224.62 2642.11,-228.07 2642.08,-221.07"/>
</g>
<!-- Node6 -->
<g id="node6" class="node">
<title>Node6</title>
<g id="a_node6"><a xlink:title=" ">
<polygon fill="none" stroke="black" points="1531.5,-293.41 1531.5,-314.41 1596.5,-314.41 1596.5,-293.41 1531.5,-293.41"/>
<text text-anchor="middle" x="1564" y="-300.81" font-family="Helvetica,sans-Serif" font-size="12.00">QObject</text>
</a>
</g>
</g>
<!-- Node6&#45;&gt;Node5 -->
<g id="edge5" class="edge">
<title>Node6&#45;&gt;Node5</title>
<path fill="none" stroke="midnightblue" d="M1606.76,-294.25C1683.25,-277.08 1851.19,-241.87 1995,-228.91 2180.69,-212.19 2401.57,-217.79 2506.81,-222"/>
<polygon fill="midnightblue" stroke="midnightblue" points="1605.57,-290.93 1596.59,-296.55 1607.11,-297.76 1605.57,-290.93"/>
</g>
<!-- Node7 -->
<g id="node7" class="node">
<title>Node7</title>
<g id="a_node7"><a xlink:href="class_j_k_q_t_base_plotter.html" target="_top" xlink:title="base class for 2D plotter classes (used by the plotter widget JKQTPlotter)">
<polygon fill="none" stroke="black" points="2184.5,-259.41 2184.5,-280.41 2298.5,-280.41 2298.5,-259.41 2184.5,-259.41"/>
<text text-anchor="middle" x="2241.5" y="-266.81" font-family="Helvetica,sans-Serif" font-size="12.00">JKQTBasePlotter</text>
</a>
</g>
</g>
<!-- Node6&#45;&gt;Node7 -->
<g id="edge7" class="edge">
<title>Node6&#45;&gt;Node7</title>
<path fill="none" stroke="midnightblue" d="M1606.97,-301.8C1723.66,-295.93 2052.03,-279.4 2184.27,-272.74"/>
<polygon fill="midnightblue" stroke="midnightblue" points="1606.49,-298.32 1596.67,-302.32 1606.84,-305.31 1606.49,-298.32"/>
</g>
<!-- Node18 -->
<g id="node18" class="node">
<title>Node18</title>
<g id="a_node18"><a xlink:href="class_j_k_q_t_math_text.html" target="_top" xlink:title="this class parses a mathematical markup string and can then draw the contained text/equation onto a Q...">
<polygon fill="none" stroke="black" points="1856,-366.41 1856,-387.41 1955,-387.41 1955,-366.41 1856,-366.41"/>
<text text-anchor="middle" x="1905.5" y="-373.81" font-family="Helvetica,sans-Serif" font-size="12.00">JKQTMathText</text>
</a>
</g>
</g>
<!-- Node6&#45;&gt;Node18 -->
<g id="edge23" class="edge">
<title>Node6&#45;&gt;Node18</title>
<path fill="none" stroke="midnightblue" d="M1606.49,-317.07C1627.98,-323.6 1654.75,-331.27 1679,-336.91 1739.41,-350.97 1809.93,-362.75 1855.81,-369.81"/>
<polygon fill="midnightblue" stroke="midnightblue" points="1607.29,-313.66 1596.7,-314.07 1605.24,-320.35 1607.29,-313.66"/>
</g>
<!-- Node23 -->
<g id="node23" class="node">
<title>Node23</title>
<g id="a_node23"><a xlink:href="class_j_k_q_t_p_coordinate_axis.html" target="_top" xlink:title="this virtual class is the base for any type of coordinate axis, to be drawn by JKQTBasePlotter.">
<polygon fill="none" stroke="black" points="2498.5,-375.41 2498.5,-396.41 2640.5,-396.41 2640.5,-375.41 2498.5,-375.41"/>
<text text-anchor="middle" x="2569.5" y="-382.81" font-family="Helvetica,sans-Serif" font-size="12.00">JKQTPCoordinateAxis</text>
</a>
</g>
</g>
<!-- Node6&#45;&gt;Node23 -->
<g id="edge32" class="edge">
<title>Node6&#45;&gt;Node23</title>
<path fill="none" stroke="midnightblue" d="M1606.85,-305.4C1722.77,-309.68 2046.44,-322.56 2152,-336.91 2224.56,-346.78 2250.97,-332.99 2313,-371.91 2324,-378.81 2319.33,-389.23 2331,-394.91 2397.77,-427.44 2488.06,-409.78 2535.79,-396.42"/>
<polygon fill="midnightblue" stroke="midnightblue" points="1606.73,-301.9 1596.61,-305.03 1606.48,-308.89 1606.73,-301.9"/>
</g>
<!-- Node7&#45;&gt;Node5 -->
<g id="edge6" class="edge">
<title>Node7&#45;&gt;Node5</title>
<path fill="none" stroke="#9a32cd" stroke-dasharray="5,2" d="M2308.94,-271.41C2348.43,-271.28 2399.36,-269.31 2444,-261.91 2477.81,-256.31 2515.36,-244.31 2540.29,-235.5"/>
<polygon fill="#9a32cd" stroke="#9a32cd" points="2308.91,-267.91 2298.9,-271.41 2308.9,-274.91 2308.91,-267.91"/>
<text text-anchor="middle" x="2387.5" y="-274.31" font-family="Helvetica,sans-Serif" font-size="12.00"> parent</text>
</g>
<!-- Node7&#45;&gt;Node7 -->
<g id="edge43" class="edge">
<title>Node7&#45;&gt;Node7</title>
<path fill="none" stroke="#9a32cd" stroke-dasharray="5,2" d="M2214.45,-289.97C2216.23,-295.08 2225.24,-298.91 2241.5,-298.91 2266.88,-298.91 2274.61,-289.57 2264.7,-280.62"/>
<polygon fill="#9a32cd" stroke="#9a32cd" points="2217.73,-291.2 2218.3,-280.62 2211.26,-288.53 2217.73,-291.2"/>
<text text-anchor="middle" x="2241.5" y="-315.31" font-family="Helvetica,sans-Serif" font-size="12.00"> masterPlotterX</text>
<text text-anchor="middle" x="2241.5" y="-302.31" font-family="Helvetica,sans-Serif" font-size="12.00">masterPlotterY</text>
</g>
<!-- Node20 -->
<g id="node20" class="node">
<title>Node20</title>
<g id="a_node20"><a xlink:href="class_j_k_q_t_p_graphs_model.html" target="_top" xlink:title="data model with all plots ina JKQTBasePlotter (+ allows to switch them visible/invisible)">
<polygon fill="none" stroke="black" points="2504,-174.41 2504,-195.41 2635,-195.41 2635,-174.41 2504,-174.41"/>
<text text-anchor="middle" x="2569.5" y="-181.81" font-family="Helvetica,sans-Serif" font-size="12.00">JKQTPGraphsModel</text>
</a>
</g>
</g>
<!-- Node7&#45;&gt;Node20 -->
<g id="edge29" class="edge">
<title>Node7&#45;&gt;Node20</title>
<path fill="none" stroke="#9a32cd" stroke-dasharray="5,2" d="M2286.67,-256.42C2300.76,-252.39 2316.46,-248.18 2331,-244.91 2380.69,-233.75 2399.66,-250.97 2444,-225.91 2454.7,-219.86 2451.36,-211.06 2462,-204.91 2474.62,-197.62 2489.37,-192.91 2503.79,-189.89"/>
<polygon fill="#9a32cd" stroke="#9a32cd" points="2285.37,-253.15 2276.74,-259.3 2287.32,-259.87 2285.37,-253.15"/>
<text text-anchor="middle" x="2387.5" y="-248.31" font-family="Helvetica,sans-Serif" font-size="12.00"> m_plotter</text>
</g>
<!-- Node7&#45;&gt;Node23 -->
<g id="edge33" class="edge">
<title>Node7&#45;&gt;Node23</title>
<path fill="none" stroke="#9a32cd" stroke-dasharray="5,2" d="M2260.91,-287.56C2275.24,-301.39 2295.57,-321.2 2313,-338.91 2321.16,-347.2 2320.6,-352.7 2331,-357.91 2359.48,-372.2 2439.2,-379.42 2498.47,-382.91"/>
<polygon fill="#9a32cd" stroke="#9a32cd" points="2263.25,-284.96 2253.62,-280.54 2258.39,-290 2263.25,-284.96"/>
<text text-anchor="middle" x="2387.5" y="-381.31" font-family="Helvetica,sans-Serif" font-size="12.00"> parent</text>
</g>
<!-- Node33 -->
<g id="node33" class="node">
<title>Node33</title>
<g id="a_node33"><a xlink:href="class_j_k_q_t_p_color_palette_style_and_tools_mixin.html" target="_top" xlink:title="if a class is derived from this class, it may use color bars">
<polygon fill="none" stroke="black" points="3247,-338.91 3247,-372.91 3425,-372.91 3425,-338.91 3247,-338.91"/>
<text text-anchor="start" x="3255" y="-359.31" font-family="Helvetica,sans-Serif" font-size="12.00">JKQTPColorPaletteStyleAnd</text>
<text text-anchor="middle" x="3336" y="-346.31" font-family="Helvetica,sans-Serif" font-size="12.00">ToolsMixin</text>
</a>
</g>
</g>
<!-- Node7&#45;&gt;Node33 -->
<g id="edge48" class="edge">
<title>Node7&#45;&gt;Node33</title>
<path fill="none" stroke="#9a32cd" stroke-dasharray="5,2" d="M2272.71,-284.84C2289.5,-292.55 2310.99,-301.45 2331,-306.91 2387.7,-322.38 2403.45,-319.86 2462,-324.91 2748.33,-349.6 3089.11,-354.73 3246.84,-355.72"/>
<polygon fill="#9a32cd" stroke="#9a32cd" points="2273.95,-281.56 2263.41,-280.48 2270.98,-287.9 2273.95,-281.56"/>
<text text-anchor="middle" x="2782.5" y="-350.31" font-family="Helvetica,sans-Serif" font-size="12.00"> cbParent</text>
</g>
<!-- Node8 -->
<g id="node8" class="node">
<title>Node8</title>
<g id="a_node8"><a xlink:href="class_j_k_q_t_base_plotter_style.html" target="_top" xlink:title="Support Class for JKQTBasePlotter, which summarizes all properties that define the visual styling of ...">
<polygon fill="none" stroke="black" points="1834,-180.41 1834,-201.41 1977,-201.41 1977,-180.41 1834,-180.41"/>
<text text-anchor="middle" x="1905.5" y="-187.81" font-family="Helvetica,sans-Serif" font-size="12.00">JKQTBasePlotterStyle</text>
</a>
</g>
</g>
<!-- Node8&#45;&gt;Node7 -->
<g id="edge8" class="edge">
<title>Node8&#45;&gt;Node7</title>
<path fill="none" stroke="#9a32cd" stroke-dasharray="5,2" d="M1960.94,-203.79C2026.49,-219.29 2135.34,-245.04 2196.07,-259.4"/>
<polygon fill="#9a32cd" stroke="#9a32cd" points="1961.74,-200.38 1951.2,-201.49 1960.12,-207.19 1961.74,-200.38"/>
<text text-anchor="middle" x="2073.5" y="-252.31" font-family="Helvetica,sans-Serif" font-size="12.00"> plotterStyle</text>
</g>
<!-- Node9 -->
<g id="node9" class="node">
<title>Node9</title>
<g id="a_node9"><a xlink:href="class_j_k_q_t_p_key_style.html" target="_top" xlink:title="Support Class for JKQTBasePlotter, which summarizes all properties that define the visual styling of ...">
<polygon fill="none" stroke="black" points="1512,-235.41 1512,-256.41 1616,-256.41 1616,-235.41 1512,-235.41"/>
<text text-anchor="middle" x="1564" y="-242.81" font-family="Helvetica,sans-Serif" font-size="12.00">JKQTPKeyStyle</text>
</a>
</g>
</g>
<!-- Node9&#45;&gt;Node8 -->
<g id="edge9" class="edge">
<title>Node9&#45;&gt;Node8</title>
<path fill="none" stroke="#9a32cd" stroke-dasharray="5,2" d="M1625.91,-234.31C1643.06,-231.15 1661.74,-227.8 1679,-224.91 1730.74,-216.25 1789.33,-207.45 1833.82,-200.97"/>
<polygon fill="#9a32cd" stroke="#9a32cd" points="1625.21,-230.89 1616.01,-236.15 1626.48,-237.77 1625.21,-230.89"/>
<text text-anchor="middle" x="1747.5" y="-228.31" font-family="Helvetica,sans-Serif" font-size="12.00"> keyStyle</text>
</g>
<!-- Node10 -->
<g id="node10" class="node">
<title>Node10</title>
<g id="a_node10"><a xlink:href="class_j_k_q_t_p_coordinate_axis_style.html" target="_top" xlink:title="Support Class for JKQTPCoordinateAxis, which summarizes all properties that define the visual styling...">
<polygon fill="none" stroke="black" points="1152,-180.41 1152,-201.41 1323,-201.41 1323,-180.41 1152,-180.41"/>
<text text-anchor="middle" x="1237.5" y="-187.81" font-family="Helvetica,sans-Serif" font-size="12.00">JKQTPCoordinateAxisStyle</text>
</a>
</g>
</g>
<!-- Node10&#45;&gt;Node8 -->
<g id="edge10" class="edge">
<title>Node10&#45;&gt;Node8</title>
<path fill="none" stroke="#9a32cd" stroke-dasharray="5,2" d="M1333.52,-190.91C1468.62,-190.91 1713.17,-190.91 1833.59,-190.91"/>
<polygon fill="#9a32cd" stroke="#9a32cd" points="1333.19,-187.41 1323.19,-190.91 1333.19,-194.41 1333.19,-187.41"/>
<text text-anchor="middle" x="1564" y="-207.31" font-family="Helvetica,sans-Serif" font-size="12.00"> xAxisStyle</text>
<text text-anchor="middle" x="1564" y="-194.31" font-family="Helvetica,sans-Serif" font-size="12.00">yAxisStyle</text>
</g>
<!-- Node12 -->
<g id="node12" class="node">
<title>Node12</title>
<g id="a_node12"><a xlink:href="class_j_k_q_t_p_colorbar_coordinate_axis_style.html" target="_top" xlink:title="Support Class for JKQTPCoordinateAxis, which summarizes all properties that define the visual styling...">
<polygon fill="none" stroke="black" points="1467,-119.91 1467,-153.91 1661,-153.91 1661,-119.91 1467,-119.91"/>
<text text-anchor="start" x="1475" y="-140.31" font-family="Helvetica,sans-Serif" font-size="12.00">JKQTPColorbarCoordinateAxis</text>
<text text-anchor="middle" x="1564" y="-127.31" font-family="Helvetica,sans-Serif" font-size="12.00">Style</text>
</a>
</g>
</g>
<!-- Node10&#45;&gt;Node12 -->
<g id="edge13" class="edge">
<title>Node10&#45;&gt;Node12</title>
<path fill="none" stroke="midnightblue" d="M1311.7,-178.73C1357.58,-171.1 1417.23,-161.17 1466.89,-152.91"/>
<polygon fill="midnightblue" stroke="midnightblue" points="1311.13,-175.28 1301.84,-180.37 1312.28,-182.18 1311.13,-175.28"/>
</g>
<!-- Node10&#45;&gt;Node23 -->
<g id="edge34" class="edge">
<title>Node10&#45;&gt;Node23</title>
<path fill="none" stroke="#9a32cd" stroke-dasharray="5,2" d="M1249.13,-210.36C1284.65,-272.45 1405.89,-461.91 1563,-461.91 1563,-461.91 1563,-461.91 2242.5,-461.91 2299.45,-461.91 2460.29,-417.36 2532.56,-396.48"/>
<polygon fill="#9a32cd" stroke="#9a32cd" points="1252.12,-208.54 1244.17,-201.54 1246.02,-211.97 1252.12,-208.54"/>
<text text-anchor="middle" x="1905.5" y="-465.31" font-family="Helvetica,sans-Serif" font-size="12.00"> axisStyle</text>
</g>
<!-- Node11 -->
<g id="node11" class="node">
<title>Node11</title>
<g id="a_node11"><a xlink:href="class_j_k_q_t_p_grid_style.html" target="_top" xlink:title="Support Class for JKQTPCoordinateAxis, and summarizes all properties that define the visual styling o...">
<polygon fill="none" stroke="black" points="851.5,-180.41 851.5,-201.41 958.5,-201.41 958.5,-180.41 851.5,-180.41"/>
<text text-anchor="middle" x="905" y="-187.81" font-family="Helvetica,sans-Serif" font-size="12.00">JKQTPGridStyle</text>
</a>
</g>
</g>
<!-- Node11&#45;&gt;Node10 -->
<g id="edge11" class="edge">
<title>Node11&#45;&gt;Node10</title>
<path fill="none" stroke="#9a32cd" stroke-dasharray="5,2" d="M968.79,-190.91C1020.62,-190.91 1094.66,-190.91 1151.74,-190.91"/>
<polygon fill="#9a32cd" stroke="#9a32cd" points="968.73,-187.41 958.73,-190.91 968.73,-194.41 968.73,-187.41"/>
<text text-anchor="middle" x="1069.5" y="-207.31" font-family="Helvetica,sans-Serif" font-size="12.00"> majorGridStyle</text>
<text text-anchor="middle" x="1069.5" y="-194.31" font-family="Helvetica,sans-Serif" font-size="12.00">minorGridStyle</text>
</g>
<!-- Node12&#45;&gt;Node8 -->
<g id="edge12" class="edge">
<title>Node12&#45;&gt;Node8</title>
<path fill="none" stroke="#9a32cd" stroke-dasharray="5,2" d="M1671.38,-134.24C1716.53,-135.31 1769.4,-139.5 1816,-150.91 1841.55,-157.17 1868.82,-170.65 1886.23,-180.23"/>
<polygon fill="#9a32cd" stroke="#9a32cd" points="1671.33,-130.74 1661.27,-134.05 1671.2,-137.74 1671.33,-130.74"/>
<text text-anchor="middle" x="1747.5" y="-167.31" font-family="Helvetica,sans-Serif" font-size="12.00"> rightColorbarAxisStyle</text>
<text text-anchor="middle" x="1747.5" y="-154.31" font-family="Helvetica,sans-Serif" font-size="12.00">topColorbarAxisStyle</text>
</g>
<!-- Node13 -->
<g id="node13" class="node">
<title>Node13</title>
<g id="a_node13"><a xlink:href="class_j_k_q_t_graphs_base_style.html" target="_top" xlink:title="Support Class for JKQTBasePlotter, which summarizes all properties that define the visual styling of ...">
<polygon fill="none" stroke="black" points="1491,-78.41 1491,-99.41 1637,-99.41 1637,-78.41 1491,-78.41"/>
<text text-anchor="middle" x="1564" y="-85.81" font-family="Helvetica,sans-Serif" font-size="12.00">JKQTGraphsBaseStyle</text>
</a>
</g>
</g>
<!-- Node13&#45;&gt;Node8 -->
<g id="edge14" class="edge">
<title>Node13&#45;&gt;Node8</title>
<path fill="none" stroke="#9a32cd" stroke-dasharray="5,2" d="M1647.49,-86.78C1697.97,-88.27 1762.85,-95.29 1816,-117.91 1818.22,-118.86 1867.9,-160.29 1891.83,-180.31"/>
<polygon fill="#9a32cd" stroke="#9a32cd" points="1647.34,-83.28 1637.27,-86.55 1647.19,-90.28 1647.34,-83.28"/>
<text text-anchor="middle" x="1747.5" y="-121.31" font-family="Helvetica,sans-Serif" font-size="12.00"> graphsStyle</text>
</g>
<!-- Node14 -->
<g id="node14" class="node">
<title>Node14</title>
<g id="a_node14"><a xlink:href="class_j_k_q_t_graphs_specific_style_properties.html" target="_top" xlink:title="Support Class for JKQTBasePlotter, which summarizes all properties that define the visual styling of ...">
<polygon fill="none" stroke="black" points="399,-25.41 399,-46.41 623,-46.41 623,-25.41 399,-25.41"/>
<text text-anchor="middle" x="511" y="-32.81" font-family="Helvetica,sans-Serif" font-size="12.00">JKQTGraphsSpecificStyleProperties</text>
</a>
</g>
</g>
<!-- Node14&#45;&gt;Node13 -->
<g id="edge15" class="edge">
<title>Node14&#45;&gt;Node13</title>
<path fill="none" stroke="#9a32cd" stroke-dasharray="5,2" d="M599.09,-24.16C717.94,-9.86 937.46,10.36 1124,-6.91 1271.46,-20.57 1443.25,-59.49 1520.99,-78.38"/>
<polygon fill="#9a32cd" stroke="#9a32cd" points="598.47,-20.71 588.96,-25.39 599.31,-27.66 598.47,-20.71"/>
<text text-anchor="middle" x="1069.5" y="-62.31" font-family="Helvetica,sans-Serif" font-size="12.00"> barchartStyle</text>
<text text-anchor="middle" x="1069.5" y="-49.31" font-family="Helvetica,sans-Serif" font-size="12.00">boxplotStyle</text>
<text text-anchor="middle" x="1069.5" y="-36.31" font-family="Helvetica,sans-Serif" font-size="12.00">defaultGraphStyle</text>
<text text-anchor="middle" x="1069.5" y="-23.31" font-family="Helvetica,sans-Serif" font-size="12.00">filledStyle</text>
<text text-anchor="middle" x="1069.5" y="-10.31" font-family="Helvetica,sans-Serif" font-size="12.00">impulseStyle</text>
</g>
<!-- Node16 -->
<g id="node16" class="node">
<title>Node16</title>
<g id="a_node16"><a xlink:href="class_j_k_q_t_geometric_specific_style_properties.html" target="_top" xlink:title="Support Class for JKQTBasePlotter, which summarizes all properties that define the visual styling of ...">
<polygon fill="none" stroke="black" points="813,-52.91 813,-86.91 997,-86.91 997,-52.91 813,-52.91"/>
<text text-anchor="start" x="821" y="-73.31" font-family="Helvetica,sans-Serif" font-size="12.00">JKQTGeometricSpecificStyle</text>
<text text-anchor="middle" x="905" y="-60.31" font-family="Helvetica,sans-Serif" font-size="12.00">Properties</text>
</a>
</g>
</g>
<!-- Node14&#45;&gt;Node16 -->
<g id="edge18" class="edge">
<title>Node14&#45;&gt;Node16</title>
<path fill="none" stroke="midnightblue" d="M633.34,-46.44C691.25,-51.46 759.38,-57.37 812.8,-62"/>
<polygon fill="midnightblue" stroke="midnightblue" points="633.29,-42.92 623.02,-45.54 632.68,-49.89 633.29,-42.92"/>
</g>
<!-- Node15 -->
<g id="node15" class="node">
<title>Node15</title>
<g id="a_node15"><a xlink:href="struct_j_k_q_t_p_color_derivation_mode.html" target="_top" xlink:title="Specifies how a fill&#45;color is derived from a given color.">
<polygon fill="none" stroke="black" points="0,-105.41 0,-126.41 179,-126.41 179,-105.41 0,-105.41"/>
<text text-anchor="middle" x="89.5" y="-112.81" font-family="Helvetica,sans-Serif" font-size="12.00">JKQTPColorDerivationMode</text>
</a>
</g>
</g>
<!-- Node15&#45;&gt;Node1 -->
<g id="edge53" class="edge">
<title>Node15&#45;&gt;Node1</title>
<path fill="none" stroke="#9a32cd" stroke-dasharray="5,2" d="M99.81,-136.07C138.05,-215.55 291.42,-502.91 510,-502.91 510,-502.91 510,-502.91 3337,-502.91 3429.56,-502.91 3512.71,-411.84 3543.92,-373.06"/>
<polygon fill="#9a32cd" stroke="#9a32cd" points="102.8,-134.21 95.36,-126.67 96.47,-137.2 102.8,-134.21"/>
<text text-anchor="middle" x="2073.5" y="-506.31" font-family="Helvetica,sans-Serif" font-size="12.00"> symbolFillDerivationMode</text>
</g>
<!-- Node15&#45;&gt;Node14 -->
<g id="edge16" class="edge">
<title>Node15&#45;&gt;Node14</title>
<path fill="none" stroke="#9a32cd" stroke-dasharray="5,2" d="M107.25,-97.99C126.67,-78.64 160.71,-48.97 197,-36.91 281.83,-8.73 386.88,-16.36 451.14,-25.41"/>
<polygon fill="#9a32cd" stroke="#9a32cd" points="104.56,-95.73 100.08,-105.33 109.57,-100.62 104.56,-95.73"/>
<text text-anchor="middle" x="289" y="-92.31" font-family="Helvetica,sans-Serif" font-size="12.00"> errorColorDerivationMode</text>
<text text-anchor="middle" x="289" y="-79.31" font-family="Helvetica,sans-Serif" font-size="12.00">errorFillColorDerivationMode</text>
<text text-anchor="middle" x="289" y="-66.31" font-family="Helvetica,sans-Serif" font-size="12.00">fillColorDerivationMode</text>
<text text-anchor="middle" x="289" y="-53.31" font-family="Helvetica,sans-Serif" font-size="12.00">graphColorDerivationMode</text>
<text text-anchor="middle" x="289" y="-40.31" font-family="Helvetica,sans-Serif" font-size="12.00">symbolFillColorDerivationMode</text>
</g>
<!-- Node17 -->
<g id="node17" class="node">
<title>Node17</title>
<g id="a_node17"><a xlink:href="class_j_k_q_t_annotations_specific_style_properties.html" target="_top" xlink:title="Support Class for JKQTBasePlotter, which summarizes all properties that define the visual styling of ...">
<polygon fill="none" stroke="black" points="1142,-69.91 1142,-103.91 1333,-103.91 1333,-69.91 1142,-69.91"/>
<text text-anchor="start" x="1150" y="-90.31" font-family="Helvetica,sans-Serif" font-size="12.00">JKQTAnnotationsSpecificStyle</text>
<text text-anchor="middle" x="1237.5" y="-77.31" font-family="Helvetica,sans-Serif" font-size="12.00">Properties</text>
</a>
</g>
</g>
<!-- Node15&#45;&gt;Node17 -->
<g id="edge21" class="edge">
<title>Node15&#45;&gt;Node17</title>
<path fill="none" stroke="#9a32cd" stroke-dasharray="5,2" d="M189.51,-113.78C356.18,-110.18 703.35,-102.62 997,-95.91 1053.45,-94.62 1067.58,-95.08 1124,-92.91 1129.86,-92.69 1135.9,-92.43 1141.98,-92.16"/>
<polygon fill="#9a32cd" stroke="#9a32cd" points="189.21,-110.28 179.28,-114 189.36,-117.28 189.21,-110.28"/>
<text text-anchor="middle" x="718" y="-107.31" font-family="Helvetica,sans-Serif" font-size="12.00"> textColorDerivationMode</text>
</g>
<!-- Node16&#45;&gt;Node13 -->
<g id="edge17" class="edge">
<title>Node16&#45;&gt;Node13</title>
<path fill="none" stroke="#9a32cd" stroke-dasharray="5,2" d="M994.4,-88.97C1001.36,-90.35 1008.29,-91.68 1015,-92.91 1204.79,-127.86 1257.07,-125.98 1449,-105.91 1465.32,-104.21 1482.88,-101.85 1499.21,-99.43"/>
<polygon fill="#9a32cd" stroke="#9a32cd" points="994.69,-85.46 984.2,-86.92 993.31,-92.32 994.69,-85.46"/>
<text text-anchor="middle" x="1237.5" y="-124.31" font-family="Helvetica,sans-Serif" font-size="12.00"> geometricStyle</text>
</g>
<!-- Node16&#45;&gt;Node17 -->
<g id="edge20" class="edge">
<title>Node16&#45;&gt;Node17</title>
<path fill="none" stroke="midnightblue" d="M1007.35,-75.13C1050.18,-77.33 1099.79,-79.88 1141.87,-82.05"/>
<polygon fill="midnightblue" stroke="midnightblue" points="1007.35,-71.62 997.19,-74.6 1006.99,-78.61 1007.35,-71.62"/>
</g>
<!-- Node17&#45;&gt;Node13 -->
<g id="edge19" class="edge">
<title>Node17&#45;&gt;Node13</title>
<path fill="none" stroke="#9a32cd" stroke-dasharray="5,2" d="M1343.39,-87.56C1391.57,-87.86 1447.51,-88.2 1490.86,-88.47"/>
<polygon fill="#9a32cd" stroke="#9a32cd" points="1343.25,-84.06 1333.23,-87.5 1343.21,-91.06 1343.25,-84.06"/>
<text text-anchor="middle" x="1400" y="-92.31" font-family="Helvetica,sans-Serif" font-size="12.00"> annotationStyle</text>
</g>
<!-- Node18&#45;&gt;Node7 -->
<g id="edge22" class="edge">
<title>Node18&#45;&gt;Node7</title>
<path fill="none" stroke="#9a32cd" stroke-dasharray="5,2" d="M1949.32,-363.2C2016.78,-341.58 2146.39,-300.06 2207.31,-280.54"/>
<polygon fill="#9a32cd" stroke="#9a32cd" points="1947.89,-359.98 1939.44,-366.36 1950.03,-366.64 1947.89,-359.98"/>
<text text-anchor="middle" x="2073.5" y="-351.31" font-family="Helvetica,sans-Serif" font-size="12.00"> mathText</text>
</g>
<!-- Node19 -->
<g id="node19" class="node">
<title>Node19</title>
<g id="a_node19"><a xlink:href="class_j_k_q_t_math_text_node.html" target="_top" xlink:title="subclass representing one node in the syntax tree">
<polygon fill="none" stroke="black" points="2176,-381.41 2176,-402.41 2307,-402.41 2307,-381.41 2176,-381.41"/>
<text text-anchor="middle" x="2241.5" y="-388.81" font-family="Helvetica,sans-Serif" font-size="12.00">JKQTMathTextNode</text>
</a>
</g>
</g>
<!-- Node18&#45;&gt;Node19 -->
<g id="edge25" class="edge">
<title>Node18&#45;&gt;Node19</title>
<path fill="none" stroke="#9a32cd" stroke-dasharray="5,2" d="M1943.36,-390.83C1959.03,-396.04 1977.67,-401.33 1995,-403.91 2055.88,-412.99 2126.1,-408.03 2175.8,-401.97"/>
<polygon fill="#9a32cd" stroke="#9a32cd" points="1944.12,-387.39 1933.52,-387.44 1941.84,-394.01 1944.12,-387.39"/>
<text text-anchor="middle" x="2073.5" y="-411.31" font-family="Helvetica,sans-Serif" font-size="12.00"> parentMathText</text>
</g>
<!-- Node19&#45;&gt;Node18 -->
<g id="edge24" class="edge">
<title>Node19&#45;&gt;Node18</title>
<path fill="none" stroke="#9a32cd" stroke-dasharray="5,2" d="M2165.73,-388.55C2101.36,-385.66 2010.37,-381.58 1955.07,-379.09"/>
<polygon fill="#9a32cd" stroke="#9a32cd" points="2165.67,-392.06 2175.82,-389.01 2165.99,-385.06 2165.67,-392.06"/>
<text text-anchor="middle" x="2073.5" y="-390.31" font-family="Helvetica,sans-Serif" font-size="12.00"> parsedNode</text>
</g>
<!-- Node19&#45;&gt;Node19 -->
<g id="edge26" class="edge">
<title>Node19&#45;&gt;Node19</title>
<path fill="none" stroke="#9a32cd" stroke-dasharray="5,2" d="M2214.45,-411.97C2216.23,-417.08 2225.24,-420.91 2241.5,-420.91 2266.88,-420.91 2274.61,-411.57 2264.7,-402.62"/>
<polygon fill="#9a32cd" stroke="#9a32cd" points="2217.73,-413.2 2218.3,-402.62 2211.26,-410.53 2217.73,-413.2"/>
<text text-anchor="middle" x="2241.5" y="-424.31" font-family="Helvetica,sans-Serif" font-size="12.00"> parentNode</text>
</g>
<!-- Node20&#45;&gt;Node7 -->
<g id="edge27" class="edge">
<title>Node20&#45;&gt;Node7</title>
<path fill="none" stroke="#9a32cd" stroke-dasharray="5,2" d="M2493.69,-185.12C2445.91,-187.33 2383.33,-194.12 2331,-212.91 2301.24,-223.6 2271.29,-245.87 2254.99,-259.19"/>
<polygon fill="#9a32cd" stroke="#9a32cd" points="2494.1,-188.61 2503.96,-184.71 2493.82,-181.61 2494.1,-188.61"/>
<text text-anchor="middle" x="2387.5" y="-216.31" font-family="Helvetica,sans-Serif" font-size="12.00"> m_plotsModel</text>
</g>
<!-- Node21 -->
<g id="node21" class="node">
<title>Node21</title>
<g id="a_node21"><a xlink:title=" ">
<polygon fill="none" stroke="black" points="2170,-143.41 2170,-164.41 2313,-164.41 2313,-143.41 2170,-143.41"/>
<text text-anchor="middle" x="2241.5" y="-150.81" font-family="Helvetica,sans-Serif" font-size="12.00">QAbstractTableModel</text>
</a>
</g>
</g>
<!-- Node21&#45;&gt;Node20 -->
<g id="edge28" class="edge">
<title>Node21&#45;&gt;Node20</title>
<path fill="none" stroke="midnightblue" d="M2323.2,-158.29C2360.08,-160.61 2404.3,-163.83 2444,-167.91 2463.53,-169.92 2484.72,-172.62 2503.98,-175.27"/>
<polygon fill="midnightblue" stroke="midnightblue" points="2323.2,-154.79 2313,-157.66 2322.77,-161.77 2323.2,-154.79"/>
</g>
<!-- Node22 -->
<g id="node22" class="node">
<title>Node22</title>
<g id="a_node22"><a xlink:href="class_j_k_q_t_p_horizontal_axis.html" target="_top" xlink:title="implements a horizontal axis, based on JKQTPCoordinateAxis (for most of documentation: see JKQTPCoord...">
<polygon fill="none" stroke="black" points="2714,-298.41 2714,-319.41 2851,-319.41 2851,-298.41 2714,-298.41"/>
<text text-anchor="middle" x="2782.5" y="-305.81" font-family="Helvetica,sans-Serif" font-size="12.00">JKQTPHorizontalAxis</text>
</a>
</g>
</g>
<!-- Node22&#45;&gt;Node7 -->
<g id="edge30" class="edge">
<title>Node22&#45;&gt;Node7</title>
<path fill="none" stroke="#9a32cd" stroke-dasharray="5,2" d="M2703.55,-308.91C2613.48,-308.07 2460.99,-304.06 2331,-287.91 2316.69,-286.13 2301.23,-283.31 2287.3,-280.42"/>
<polygon fill="#9a32cd" stroke="#9a32cd" points="2703.65,-312.41 2713.68,-309 2703.71,-305.41 2703.65,-312.41"/>
<text text-anchor="middle" x="2569.5" y="-311.31" font-family="Helvetica,sans-Serif" font-size="12.00"> xAxis</text>
</g>
<!-- Node35 -->
<g id="node35" class="node">
<title>Node35</title>
<g id="a_node35"><a xlink:href="class_j_k_q_t_p_horizontal_independent_axis.html" target="_top" xlink:title="implements a position&#45;indipendent horizontal axis, based on JKQTPCoordinateAxis (for most of document...">
<polygon fill="none" stroke="black" points="2888,-306.41 2888,-327.41 3101,-327.41 3101,-306.41 2888,-306.41"/>
<text text-anchor="middle" x="2994.5" y="-313.81" font-family="Helvetica,sans-Serif" font-size="12.00">JKQTPHorizontalIndependentAxis</text>
</a>
</g>
</g>
<!-- Node22&#45;&gt;Node35 -->
<g id="edge52" class="edge">
<title>Node22&#45;&gt;Node35</title>
<path fill="none" stroke="midnightblue" d="M2861.17,-311.87C2869.87,-312.2 2878.83,-312.54 2887.8,-312.89"/>
<polygon fill="midnightblue" stroke="midnightblue" points="2861.23,-308.37 2851.1,-311.49 2860.96,-315.37 2861.23,-308.37"/>
</g>
<!-- Node23&#45;&gt;Node22 -->
<g id="edge31" class="edge">
<title>Node23&#45;&gt;Node22</title>
<path fill="none" stroke="midnightblue" d="M2608.88,-371.91C2650.29,-356.79 2715.32,-333.06 2752.61,-319.45"/>
<polygon fill="midnightblue" stroke="midnightblue" points="2607.59,-368.65 2599.4,-375.37 2609.99,-375.23 2607.59,-368.65"/>
</g>
<!-- Node24 -->
<g id="node24" class="node">
<title>Node24</title>
<g id="a_node24"><a xlink:href="class_j_k_q_t_p_vertical_axis.html" target="_top" xlink:title="implements a vertical axis, based on JKQTPCoordinateAxis (for most of documentation: see JKQTPCoordin...">
<polygon fill="none" stroke="black" points="2721.5,-387.41 2721.5,-408.41 2843.5,-408.41 2843.5,-387.41 2721.5,-387.41"/>
<text text-anchor="middle" x="2782.5" y="-394.81" font-family="Helvetica,sans-Serif" font-size="12.00">JKQTPVerticalAxis</text>
</a>
</g>
</g>
<!-- Node23&#45;&gt;Node24 -->
<g id="edge36" class="edge">
<title>Node23&#45;&gt;Node24</title>
<path fill="none" stroke="midnightblue" d="M2651.01,-390.49C2674.4,-391.82 2699.53,-393.25 2721.43,-394.5"/>
<polygon fill="midnightblue" stroke="midnightblue" points="2650.94,-386.98 2640.76,-389.91 2650.55,-393.97 2650.94,-386.98"/>
</g>
<!-- Node24&#45;&gt;Node7 -->
<g id="edge35" class="edge">
<title>Node24&#45;&gt;Node7</title>
<path fill="none" stroke="#9a32cd" stroke-dasharray="5,2" d="M2736.42,-411.07C2650.84,-433.3 2461.69,-468.94 2331,-393.91 2325.01,-390.47 2269.81,-310 2249.75,-280.57"/>
<polygon fill="#9a32cd" stroke="#9a32cd" points="2737.57,-414.39 2746.34,-408.44 2735.77,-407.63 2737.57,-414.39"/>
<text text-anchor="middle" x="2569.5" y="-442.31" font-family="Helvetica,sans-Serif" font-size="12.00"> yAxis</text>
</g>
<!-- Node34 -->
<g id="node34" class="node">
<title>Node34</title>
<g id="a_node34"><a xlink:href="class_j_k_q_t_p_vertical_independent_axis.html" target="_top" xlink:title="implements a position&#45;indipendent vertical axis, based on JKQTPCoordinateAxis (for most of documentat...">
<polygon fill="none" stroke="black" points="2896,-385.41 2896,-406.41 3093,-406.41 3093,-385.41 2896,-385.41"/>
<text text-anchor="middle" x="2994.5" y="-392.81" font-family="Helvetica,sans-Serif" font-size="12.00">JKQTPVerticalIndependentAxis</text>
</a>
</g>
</g>
<!-- Node24&#45;&gt;Node34 -->
<g id="edge50" class="edge">
<title>Node24&#45;&gt;Node34</title>
<path fill="none" stroke="midnightblue" d="M2853.78,-397.24C2867.22,-397.12 2881.52,-396.98 2895.65,-396.84"/>
<polygon fill="midnightblue" stroke="midnightblue" points="2853.64,-393.74 2843.68,-397.34 2853.71,-400.74 2853.64,-393.74"/>
</g>
<!-- Node25 -->
<g id="node25" class="node">
<title>Node25</title>
<g id="a_node25"><a xlink:href="class_j_k_q_t_p_datastore.html" target="_top" xlink:title="This class manages data columns (with entries of type double ), used by JKQTPlotter/JKQTBasePlotter t...">
<polygon fill="none" stroke="black" points="1850,-101.41 1850,-122.41 1961,-122.41 1961,-101.41 1850,-101.41"/>
<text text-anchor="middle" x="1905.5" y="-108.81" font-family="Helvetica,sans-Serif" font-size="12.00">JKQTPDatastore</text>
</a>
</g>
</g>
<!-- Node25&#45;&gt;Node7 -->
<g id="edge37" class="edge">
<title>Node25&#45;&gt;Node7</title>
<path fill="none" stroke="#9a32cd" stroke-dasharray="5,2" d="M1963.36,-125.02C2014.78,-138.31 2091.47,-161.81 2152,-195.91 2183.58,-213.71 2214.75,-243.33 2230.3,-259.16"/>
<polygon fill="#9a32cd" stroke="#9a32cd" points="1963.98,-121.57 1953.42,-122.5 1962.26,-128.35 1963.98,-121.57"/>
<text text-anchor="middle" x="2073.5" y="-199.31" font-family="Helvetica,sans-Serif" font-size="12.00"> datastore</text>
</g>
<!-- Node27 -->
<g id="node27" class="node">
<title>Node27</title>
<g id="a_node27"><a xlink:href="class_j_k_q_t_p_column.html" target="_top" xlink:title="internally stores information about one data column. See JKQTPDatastore for more information.">
<polygon fill="none" stroke="black" points="2192.5,-54.41 2192.5,-75.41 2290.5,-75.41 2290.5,-54.41 2192.5,-54.41"/>
<text text-anchor="middle" x="2241.5" y="-61.81" font-family="Helvetica,sans-Serif" font-size="12.00">JKQTPColumn</text>
</a>
</g>
</g>
<!-- Node25&#45;&gt;Node27 -->
<g id="edge40" class="edge">
<title>Node25&#45;&gt;Node27</title>
<path fill="none" stroke="#9a32cd" stroke-dasharray="5,2" d="M1945.26,-98.12C1960.57,-93.19 1978.43,-88.08 1995,-84.91 2062.63,-72 2142.29,-67.42 2192.11,-65.8"/>
<polygon fill="#9a32cd" stroke="#9a32cd" points="1944,-94.84 1935.6,-101.31 1946.2,-101.49 1944,-94.84"/>
<text text-anchor="middle" x="2073.5" y="-88.31" font-family="Helvetica,sans-Serif" font-size="12.00"> datastore</text>
</g>
<!-- Node26 -->
<g id="node26" class="node">
<title>Node26</title>
<g id="a_node26"><a xlink:title=" ">
<polygon fill="none" stroke="black" points="2462,-54.41 2462,-75.41 2677,-75.41 2677,-54.41 2462,-54.41"/>
<text text-anchor="middle" x="2569.5" y="-61.81" font-family="Helvetica,sans-Serif" font-size="12.00">std::unique_ptr&lt; JKQTPColumn &gt;</text>
</a>
</g>
</g>
<!-- Node26&#45;&gt;Node25 -->
<g id="edge38" class="edge">
<title>Node26&#45;&gt;Node25</title>
<path fill="none" stroke="#9a32cd" stroke-dasharray="5,2" d="M2488.66,-76.78C2473.84,-78.71 2458.47,-80.52 2444,-81.91 2267.93,-98.82 2058.44,-107.12 1961.16,-110.31"/>
<polygon fill="#9a32cd" stroke="#9a32cd" points="2489.36,-80.21 2498.82,-75.43 2488.44,-73.28 2489.36,-80.21"/>
<text text-anchor="middle" x="2241.5" y="-105.31" font-family="Helvetica,sans-Serif" font-size="12.00"> m_invalidColumn</text>
</g>
<!-- Node27&#45;&gt;Node26 -->
<g id="edge39" class="edge">
<title>Node27&#45;&gt;Node26</title>
<path fill="none" stroke="#9a32cd" stroke-dasharray="5,2" d="M2300.69,-64.91C2345.35,-64.91 2408.24,-64.91 2461.85,-64.91"/>
<polygon fill="#9a32cd" stroke="#9a32cd" points="2300.6,-61.41 2290.6,-64.91 2300.6,-68.41 2300.6,-61.41"/>
<text text-anchor="middle" x="2387.5" y="-68.31" font-family="Helvetica,sans-Serif" font-size="12.00"> ptr</text>
</g>
<!-- Node28 -->
<g id="node28" class="node">
<title>Node28</title>
<g id="a_node28"><a xlink:title=" ">
<polygon fill="none" stroke="black" points="2171.5,-14.41 2171.5,-35.41 2311.5,-35.41 2311.5,-14.41 2171.5,-14.41"/>
<text text-anchor="middle" x="2241.5" y="-21.81" font-family="Helvetica,sans-Serif" font-size="12.00">std::unique_ptr&lt; T &gt;</text>
</a>
</g>
</g>
<!-- Node28&#45;&gt;Node26 -->
<g id="edge41" class="edge">
<title>Node28&#45;&gt;Node26</title>
<path fill="none" stroke="orange" stroke-dasharray="5,2" d="M2321.82,-33.56C2358.95,-37.71 2403.76,-42.87 2444,-47.91 2460.02,-49.92 2477.18,-52.19 2493.48,-54.4"/>
<polygon fill="orange" stroke="orange" points="2321.88,-30.04 2311.56,-32.41 2321.11,-37 2321.88,-30.04"/>
<text text-anchor="middle" x="2387.5" y="-51.31" font-family="Helvetica,sans-Serif" font-size="12.00"> &lt; JKQTPColumn &gt;</text>
</g>
<!-- Node29 -->
<g id="node29" class="node">
<title>Node29</title>
<g id="a_node29"><a xlink:title=" ">
<polygon fill="none" stroke="black" points="1891,-14.41 1891,-35.41 1920,-35.41 1920,-14.41 1891,-14.41"/>
<text text-anchor="middle" x="1905.5" y="-21.81" font-family="Helvetica,sans-Serif" font-size="12.00">T</text>
</a>
</g>
</g>
<!-- Node29&#45;&gt;Node28 -->
<g id="edge42" class="edge">
<title>Node29&#45;&gt;Node28</title>
<path fill="none" stroke="#9a32cd" stroke-dasharray="5,2" d="M1930.04,-24.91C1979.54,-24.91 2096.05,-24.91 2171.41,-24.91"/>
<polygon fill="#9a32cd" stroke="#9a32cd" points="1930.01,-21.41 1920.01,-24.91 1930.01,-28.41 1930.01,-21.41"/>
<text text-anchor="middle" x="2073.5" y="-28.31" font-family="Helvetica,sans-Serif" font-size="12.00"> ptr</text>
</g>
<!-- Node30 -->
<g id="node30" class="node">
<title>Node30</title>
<g id="a_node30"><a xlink:href="class_j_k_q_t_p_graph_line_style_mixin.html" target="_top" xlink:title="This Mix&#45;In class provides setter/getter methods, storage and other facilities for the graph line sty...">
<polygon fill="none" stroke="black" points="2907.5,-172.41 2907.5,-193.41 3081.5,-193.41 3081.5,-172.41 2907.5,-172.41"/>
<text text-anchor="middle" x="2994.5" y="-179.81" font-family="Helvetica,sans-Serif" font-size="12.00">JKQTPGraphLineStyleMixin</text>
</a>
</g>
</g>
<!-- Node30&#45;&gt;Node2 -->
<g id="edge44" class="edge">
<title>Node30&#45;&gt;Node2</title>
<path fill="none" stroke="midnightblue" d="M3091.79,-194.26C3149.18,-201.02 3220.44,-209.42 3270.96,-215.37"/>
<polygon fill="midnightblue" stroke="midnightblue" points="3091.95,-190.75 3081.61,-193.06 3091.13,-197.7 3091.95,-190.75"/>
</g>
<!-- Node31 -->
<g id="node31" class="node">
<title>Node31</title>
<g id="a_node31"><a xlink:href="class_j_k_q_t_p_graph_symbol_style_mixin.html" target="_top" xlink:title="This Mix&#45;In class provides setter/getter methods, storage and other facilities for the graph symbols ...">
<polygon fill="none" stroke="black" points="2897.5,-132.41 2897.5,-153.41 3091.5,-153.41 3091.5,-132.41 2897.5,-132.41"/>
<text text-anchor="middle" x="2994.5" y="-139.81" font-family="Helvetica,sans-Serif" font-size="12.00">JKQTPGraphSymbolStyleMixin</text>
</a>
</g>
</g>
<!-- Node31&#45;&gt;Node2 -->
<g id="edge45" class="edge">
<title>Node31&#45;&gt;Node2</title>
<path fill="none" stroke="midnightblue" d="M3064.37,-155.38C3076.6,-157.76 3089.19,-160.32 3101,-162.91 3170.64,-178.2 3250.98,-199.65 3297.1,-212.33"/>
<polygon fill="midnightblue" stroke="midnightblue" points="3064.7,-151.87 3054.22,-153.42 3063.37,-158.75 3064.7,-151.87"/>
</g>
<!-- Node32 -->
<g id="node32" class="node">
<title>Node32</title>
<g id="a_node32"><a xlink:href="class_j_k_q_t_p_graph_lines_compression_mixin.html" target="_top" xlink:title="This Mix&#45;In class provides setter/getter methods, storage and other facilities for a line&#45;graph compr...">
<polygon fill="none" stroke="black" points="2896,-252.91 2896,-286.91 3093,-286.91 3093,-252.91 2896,-252.91"/>
<text text-anchor="start" x="2904" y="-273.31" font-family="Helvetica,sans-Serif" font-size="12.00">JKQTPGraphLinesCompression</text>
<text text-anchor="middle" x="2994.5" y="-260.31" font-family="Helvetica,sans-Serif" font-size="12.00">Mixin</text>
</a>
</g>
</g>
<!-- Node32&#45;&gt;Node2 -->
<g id="edge46" class="edge">
<title>Node32&#45;&gt;Node2</title>
<path fill="none" stroke="midnightblue" d="M3103.41,-254.97C3158.53,-247.34 3223.72,-238.32 3270.88,-231.79"/>
<polygon fill="midnightblue" stroke="midnightblue" points="3102.67,-251.54 3093.24,-256.38 3103.63,-258.48 3102.67,-251.54"/>
</g>
<!-- Node33&#45;&gt;Node1 -->
<g id="edge47" class="edge">
<title>Node33&#45;&gt;Node1</title>
<path fill="none" stroke="midnightblue" d="M3435.47,-355.91C3444.27,-355.91 3453.16,-355.91 3461.92,-355.91"/>
<polygon fill="midnightblue" stroke="midnightblue" points="3435.21,-352.41 3425.21,-355.91 3435.21,-359.41 3435.21,-352.41"/>
</g>
<!-- Node34&#45;&gt;Node33 -->
<g id="edge49" class="edge">
<title>Node34&#45;&gt;Node33</title>
<path fill="none" stroke="#9a32cd" stroke-dasharray="5,2" d="M3103.44,-384.36C3142.96,-380.01 3188.03,-374.9 3229,-369.91 3234.8,-369.21 3240.79,-368.46 3246.81,-367.7"/>
<polygon fill="#9a32cd" stroke="#9a32cd" points="3102.81,-380.91 3093.25,-385.48 3103.58,-387.87 3102.81,-380.91"/>
<text text-anchor="middle" x="3174" y="-385.31" font-family="Helvetica,sans-Serif" font-size="12.00"> colorBarRightAxis</text>
</g>
<!-- Node35&#45;&gt;Node33 -->
<g id="edge51" class="edge">
<title>Node35&#45;&gt;Node33</title>
<path fill="none" stroke="#9a32cd" stroke-dasharray="5,2" d="M3111.15,-318.33C3148.88,-319.99 3190.87,-323.14 3229,-328.91 3244.68,-331.29 3261.41,-334.99 3276.83,-338.89"/>
<polygon fill="#9a32cd" stroke="#9a32cd" points="3111.28,-314.83 3101.14,-317.91 3110.99,-321.82 3111.28,-314.83"/>
<text text-anchor="middle" x="3174" y="-332.31" font-family="Helvetica,sans-Serif" font-size="12.00"> colorBarTopAxis</text>
</g>
</g>
</svg>
        <g id="navigator" transform="translate(0 0)" fill="#404254">
                <rect fill="#f2f5e9" fill-opacity="0.5" stroke="#606060" stroke-width=".5" x="0" y="0" width="60" height="60"/>
                <use id="zoomplus" xlink:href="#zoomPlus" x="17" y="9" onmousedown="handleZoom(evt,'in')"/>
                <use id="zoomminus" xlink:href="#zoomMin" x="42" y="9" onmousedown="handleZoom(evt,'out')"/>
                <use id="reset" xlink:href="#resetDef" x="30" y="36" onmousedown="handleReset()"/>
                <g id="arrowUp" xlink:href="#dirArrow" transform="translate(30 24)" onmousedown="handlePan(0,-1)">
                  <use xlink:href="#rim" fill="#404040">
                        <set attributeName="fill" to="#808080" begin="arrowUp.mouseover" end="arrowUp.mouseout"/>
                  </use>
                  <path fill="none" stroke="white" stroke-width="1.5" d="M0,-3.0v7 M-2.5,-0.5L0,-3.0L2.5,-0.5"/>
                </g>
                <g id="arrowRight" xlink:href="#dirArrow" transform="rotate(90) translate(36 -43)" onmousedown="handlePan(1,0)">
                  <use xlink:href="#rim" fill="#404040">
                        <set attributeName="fill" to="#808080" begin="arrowRight.mouseover" end="arrowRight.mouseout"/>
                  </use>
                  <path fill="none" stroke="white" stroke-width="1.5" d="M0,-3.0v7 M-2.5,-0.5L0,-3.0L2.5,-0.5"/>
                </g>
                <g id="arrowDown" xlink:href="#dirArrow" transform="rotate(180) translate(-30 -48)" onmousedown="handlePan(0,1)">
                  <use xlink:href="#rim" fill="#404040">
                        <set attributeName="fill" to="#808080" begin="arrowDown.mouseover" end="arrowDown.mouseout"/>
                  </use>
                  <path fill="none" stroke="white" stroke-width="1.5" d="M0,-3.0v7 M-2.5,-0.5L0,-3.0L2.5,-0.5"/>
                </g>
                <g id="arrowLeft" xlink:href="#dirArrow" transform="rotate(270) translate(-36 17)" onmousedown="handlePan(-1,0)">
                  <use xlink:href="#rim" fill="#404040">
                        <set attributeName="fill" to="#808080" begin="arrowLeft.mouseover" end="arrowLeft.mouseout"/>
                  </use>
                  <path fill="none" stroke="white" stroke-width="1.5" d="M0,-3.0v7 M-2.5,-0.5L0,-3.0L2.5,-0.5"/>
                </g>
        </g>
        <svg viewBox="0 0 15 15" width="100%" height="30px" preserveAspectRatio="xMaxYMin meet">
         <g id="arrow_out" transform="scale(0.3 0.3)">
          <a xlink:href="class_j_k_q_t_p_x_y_parametrized_scatter_graph__coll__graph_org.svg" target="_base">
           <rect id="button" ry="5" rx="5" y="6" x="6" height="38" width="38"
                fill="#f2f5e9" fill-opacity="0.5" stroke="#606060" stroke-width="1.0"/>
           <path id="arrow"
             d="M 11.500037,31.436501 C 11.940474,20.09759 22.043105,11.32322 32.158766,21.979434 L 37.068811,17.246167 C 37.068811,17.246167 37.088388,32 37.088388,32 L 22.160133,31.978069 C 22.160133,31.978069 26.997745,27.140456 26.997745,27.140456 C 18.528582,18.264221 13.291696,25.230495 11.500037,31.436501 z"
             style="fill:#404040;"/>
          </a>
         </g>
        </svg>
</svg>
