<?xml version="1.0" encoding="UTF-8" standalone="no"?>
<!DOCTYPE svg PUBLIC "-//W3C//DTD SVG 1.1//EN"
 "http://www.w3.org/Graphics/SVG/1.1/DTD/svg11.dtd">
<!-- Generated by graphviz version 2.43.0 (0)
 -->
<!-- Title: %3 Pages: 1 -->
<svg width="989pt" height="1058pt"
 viewBox="0.00 0.00 989.08 1058.00" xmlns="http://www.w3.org/2000/svg" xmlns:xlink="http://www.w3.org/1999/xlink">
<g id="graph0" class="graph" transform="scale(1 1) rotate(0) translate(4 1054)">
<title>%3</title>
<!-- JKQTPPlotElement -->
<g id="node1" class="node">
<title>JKQTPPlotElement</title>
<g id="a_node1"><a xlink:href="class_j_k_q_t_p_plot_element.html" target="_top" xlink:title="JKQTPPlotElement">
<ellipse fill="none" stroke="black" cx="59.45" cy="-314" rx="59.41" ry="18"/>
<text text-anchor="middle" x="59.45" y="-311.5" font-family="FreeSans" font-size="10.00">JKQTPPlotElement</text>
</a>
</g>
</g>
<!-- noteJKQTPPlotElement -->
<g id="node2" class="node">
<title>noteJKQTPPlotElement</title>
<polygon fill="lightyellow" stroke="lightyellow" points="90.95,-278 21.95,-278 21.95,-242 96.95,-242 96.95,-272 90.95,-278"/>
<polyline fill="none" stroke="lightyellow" points="90.95,-278 90.95,-272 "/>
<polyline fill="none" stroke="lightyellow" points="96.95,-272 90.95,-272 "/>
<text text-anchor="middle" x="59.45" y="-267.1" font-family="FreeSans" font-size="8.00">base class for all</text>
<text text-anchor="middle" x="59.45" y="-258.1" font-family="FreeSans" font-size="8.00">elements drawn</text>
<text text-anchor="middle" x="59.45" y="-249.1" font-family="FreeSans" font-size="8.00">onto a plot</text>
</g>
<!-- JKQTPPlotElement&#45;&gt;noteJKQTPPlotElement -->
<g id="edge1" class="edge">
<title>JKQTPPlotElement&#45;&gt;noteJKQTPPlotElement</title>
<path fill="none" stroke="black" stroke-dasharray="5,2" d="M59.45,-295.79C59.45,-289.91 59.45,-284.02 59.45,-278.14"/>
</g>
<!-- JKQTPGraph -->
<g id="node3" class="node">
<title>JKQTPGraph</title>
<g id="a_node3"><a xlink:href="class_j_k_q_t_p_plot_element.html" target="_top" xlink:title="JKQTPGraph">
<ellipse fill="none" stroke="black" cx="242.03" cy="-588" rx="44.3" ry="18"/>
<text text-anchor="middle" x="242.03" y="-585.5" font-family="FreeSans" font-size="10.00">JKQTPGraph</text>
</a>
</g>
</g>
<!-- JKQTPPlotElement&#45;&gt;JKQTPGraph -->
<g id="edge22" class="edge">
<title>JKQTPPlotElement&#45;&gt;JKQTPGraph</title>
<path fill="none" stroke="black" d="M62.08,-332.16C67.12,-377.51 86.51,-496.68 154.91,-561 164.46,-569.98 176.96,-575.97 189.47,-579.97"/>
<polygon fill="black" stroke="black" points="188.87,-583.44 199.44,-582.77 190.76,-576.7 188.87,-583.44"/>
</g>
<!-- JKQTPGeometricPlotElement -->
<g id="node5" class="node">
<title>JKQTPGeometricPlotElement</title>
<g id="a_node5"><a xlink:href="class_j_k_q_t_p_geometric_plot_element.html" target="_top" xlink:title="JKQTPGeometricPlotElement">
<ellipse fill="none" stroke="black" cx="242.03" cy="-472" rx="85.89" ry="18"/>
<text text-anchor="middle" x="242.03" y="-469.5" font-family="FreeSans" font-size="10.00">JKQTPGeometricPlotElement</text>
</a>
</g>
</g>
<!-- JKQTPPlotElement&#45;&gt;JKQTPGeometricPlotElement -->
<g id="edge23" class="edge">
<title>JKQTPPlotElement&#45;&gt;JKQTPGeometricPlotElement</title>
<path fill="none" stroke="black" d="M68.74,-332.1C82.58,-360.35 113.07,-414.82 154.91,-445 160.16,-448.79 165.97,-452.06 172,-454.88"/>
<polygon fill="black" stroke="black" points="171.07,-458.28 181.64,-458.95 173.79,-451.83 171.07,-458.28"/>
</g>
<!-- JKQTPPlotAnnotationElement -->
<g id="node7" class="node">
<title>JKQTPPlotAnnotationElement</title>
<g id="a_node7"><a xlink:href="class_j_k_q_t_p_plot_annotation_element.html" target="_top" xlink:title="JKQTPPlotAnnotationElement">
<ellipse fill="none" stroke="black" cx="242.03" cy="-364" rx="87.24" ry="18"/>
<text text-anchor="middle" x="242.03" y="-361.5" font-family="FreeSans" font-size="10.00">JKQTPPlotAnnotationElement</text>
</a>
</g>
</g>
<!-- JKQTPPlotElement&#45;&gt;JKQTPPlotAnnotationElement -->
<g id="edge24" class="edge">
<title>JKQTPPlotElement&#45;&gt;JKQTPPlotAnnotationElement</title>
<path fill="none" stroke="black" d="M104.17,-326.1C126.74,-332.35 154.67,-340.09 179.4,-346.93"/>
<polygon fill="black" stroke="black" points="178.48,-350.31 189.06,-349.61 180.35,-343.57 178.48,-350.31"/>
</g>
<!-- JKQTPRangeBase -->
<g id="node37" class="node">
<title>JKQTPRangeBase</title>
<g id="a_node37"><a xlink:href="class_j_k_q_t_p_range_base.html" target="_top" xlink:title="JKQTPRangeBase">
<ellipse fill="none" stroke="black" cx="893.37" cy="-288" rx="58.06" ry="18"/>
<text text-anchor="middle" x="893.37" y="-285.5" font-family="FreeSans" font-size="10.00">JKQTPRangeBase</text>
</a>
</g>
</g>
<!-- JKQTPPlotElement&#45;&gt;JKQTPRangeBase -->
<g id="edge25" class="edge">
<title>JKQTPPlotElement&#45;&gt;JKQTPRangeBase</title>
<path fill="none" stroke="black" d="M95.67,-299.49C113.16,-293.05 134.8,-286.22 154.91,-283 401.41,-243.58 700.19,-267.11 828.64,-280.56"/>
<polygon fill="black" stroke="black" points="828.38,-284.05 838.7,-281.63 829.12,-277.09 828.38,-284.05"/>
</g>
<!-- JKQTPBoxplotElementBase -->
<g id="node39" class="node">
<title>JKQTPBoxplotElementBase</title>
<g id="a_node39"><a xlink:href="class_j_k_q_t_p_boxplot_element_base.html" target="_top" xlink:title="JKQTPBoxplotElementBase">
<ellipse fill="none" stroke="black" cx="893.37" cy="-180" rx="81.65" ry="18"/>
<text text-anchor="middle" x="893.37" y="-177.5" font-family="FreeSans" font-size="10.00">JKQTPBoxplotElementBase</text>
</a>
</g>
</g>
<!-- JKQTPPlotElement&#45;&gt;JKQTPBoxplotElementBase -->
<g id="edge26" class="edge">
<title>JKQTPPlotElement&#45;&gt;JKQTPBoxplotElementBase</title>
<path fill="none" stroke="black" d="M95.02,-299.38C103.02,-295.63 111.38,-291.4 118.91,-287 135.95,-277.04 136.49,-268.09 154.91,-261 376.4,-175.74 661.11,-171.25 803.28,-175.43"/>
<polygon fill="black" stroke="black" points="803.57,-178.94 813.68,-175.76 803.79,-171.95 803.57,-178.94"/>
</g>
<!-- JKQTPViolinplotElementBase -->
<g id="node41" class="node">
<title>JKQTPViolinplotElementBase</title>
<g id="a_node41"><a xlink:href="class_j_k_q_t_p_violinplot_element_base.html" target="_top" xlink:title="JKQTPViolinplotElementBase">
<ellipse fill="none" stroke="black" cx="893.37" cy="-72" rx="85.89" ry="18"/>
<text text-anchor="middle" x="893.37" y="-69.5" font-family="FreeSans" font-size="10.00">JKQTPViolinplotElementBase</text>
</a>
</g>
</g>
<!-- JKQTPPlotElement&#45;&gt;JKQTPViolinplotElementBase -->
<g id="edge27" class="edge">
<title>JKQTPPlotElement&#45;&gt;JKQTPViolinplotElementBase</title>
<path fill="none" stroke="black" d="M99.77,-300.6C106.73,-296.97 113.48,-292.48 118.91,-287 146.34,-259.29 124.22,-231.04 154.91,-207 347.85,-55.86 655.94,-54.02 805.4,-63.62"/>
<polygon fill="black" stroke="black" points="805.23,-67.12 815.45,-64.3 805.71,-60.13 805.23,-67.12"/>
</g>
<!-- noteJKQTPGraph -->
<g id="node4" class="node">
<title>noteJKQTPGraph</title>
<polygon fill="lightyellow" stroke="lightyellow" points="273.53,-552 204.53,-552 204.53,-516 279.53,-516 279.53,-546 273.53,-552"/>
<polyline fill="none" stroke="lightyellow" points="273.53,-552 273.53,-546 "/>
<polyline fill="none" stroke="lightyellow" points="279.53,-546 273.53,-546 "/>
<text text-anchor="middle" x="242.03" y="-536.6" font-family="FreeSans" font-size="8.00">base class for all</text>
<text text-anchor="middle" x="242.03" y="-527.6" font-family="FreeSans" font-size="8.00">actual graphs</text>
</g>
<!-- JKQTPGraph&#45;&gt;noteJKQTPGraph -->
<g id="edge2" class="edge">
<title>JKQTPGraph&#45;&gt;noteJKQTPGraph</title>
<path fill="none" stroke="black" stroke-dasharray="5,2" d="M242.03,-569.79C242.03,-563.91 242.03,-558.02 242.03,-552.14"/>
</g>
<!-- JKQTPXYGraph -->
<g id="node9" class="node">
<title>JKQTPXYGraph</title>
<g id="a_node9"><a xlink:href="class_j_k_q_t_p_x_y_graph.html" target="_top" xlink:title="JKQTPXYGraph">
<ellipse fill="none" stroke="black" cx="444.62" cy="-812" rx="52.28" ry="18"/>
<text text-anchor="middle" x="444.62" y="-809.5" font-family="FreeSans" font-size="10.00">JKQTPXYGraph</text>
</a>
</g>
</g>
<!-- JKQTPGraph&#45;&gt;JKQTPXYGraph -->
<g id="edge28" class="edge">
<title>JKQTPGraph&#45;&gt;JKQTPXYGraph</title>
<path fill="none" stroke="black" d="M249.3,-605.81C263.69,-644.17 302.73,-735.17 365.15,-785 372.43,-790.81 381.03,-795.4 389.83,-799.03"/>
<polygon fill="black" stroke="black" points="388.81,-802.38 399.4,-802.6 391.25,-795.82 388.81,-802.38"/>
</g>
<!-- JKQTPSingleColumnGraph -->
<g id="node11" class="node">
<title>JKQTPSingleColumnGraph</title>
<g id="a_node11"><a xlink:href="class_j_k_q_t_p_single_column_graph.html" target="_top" xlink:title="JKQTPSingleColumnGraph">
<ellipse fill="none" stroke="black" cx="444.62" cy="-700" rx="79.44" ry="18"/>
<text text-anchor="middle" x="444.62" y="-697.5" font-family="FreeSans" font-size="10.00">JKQTPSingleColumnGraph</text>
</a>
</g>
</g>
<!-- JKQTPGraph&#45;&gt;JKQTPSingleColumnGraph -->
<g id="edge29" class="edge">
<title>JKQTPGraph&#45;&gt;JKQTPSingleColumnGraph</title>
<path fill="none" stroke="black" d="M262.68,-604.26C285.96,-622.89 326.46,-653.36 365.15,-673 371.69,-676.32 378.73,-679.38 385.81,-682.17"/>
<polygon fill="black" stroke="black" points="384.86,-685.55 395.45,-685.78 387.31,-678.99 384.86,-685.55"/>
</g>
<!-- JKQTPImageBase -->
<g id="node13" class="node">
<title>JKQTPImageBase</title>
<g id="a_node13"><a xlink:href="class_j_k_q_t_p_image_base.html" target="_top" xlink:title="JKQTPImageBase">
<ellipse fill="none" stroke="black" cx="444.62" cy="-592" rx="57.88" ry="18"/>
<text text-anchor="middle" x="444.62" y="-589.5" font-family="FreeSans" font-size="10.00">JKQTPImageBase</text>
</a>
</g>
</g>
<!-- JKQTPGraph&#45;&gt;JKQTPImageBase -->
<g id="edge30" class="edge">
<title>JKQTPGraph&#45;&gt;JKQTPImageBase</title>
<path fill="none" stroke="black" d="M286.56,-588.87C312.84,-589.39 346.88,-590.07 376.55,-590.66"/>
<polygon fill="black" stroke="black" points="376.77,-594.17 386.84,-590.87 376.91,-587.17 376.77,-594.17"/>
</g>
<!-- JKQTPEvaluatedFunctionGraphBase -->
<g id="node23" class="node">
<title>JKQTPEvaluatedFunctionGraphBase</title>
<g id="a_node23"><a xlink:href="class_j_k_q_t_p_evaluated_function_graph_base.html" target="_top" xlink:title="JKQTPEvaluatedFunctionGraphBase">
<ellipse fill="none" stroke="black" cx="664.88" cy="-492" rx="104.56" ry="18"/>
<text text-anchor="middle" x="664.88" y="-489.5" font-family="FreeSans" font-size="10.00">JKQTPEvaluatedFunctionGraphBase</text>
</a>
</g>
</g>
<!-- JKQTPGraph&#45;&gt;JKQTPEvaluatedFunctionGraphBase -->
<g id="edge32" class="edge">
<title>JKQTPGraph&#45;&gt;JKQTPEvaluatedFunctionGraphBase</title>
<path fill="none" stroke="black" d="M283.21,-581.07C298.61,-577.02 315.69,-570.72 329.15,-561 351.36,-544.97 341.19,-524.25 365.15,-511 429.88,-475.21 514.97,-473.34 577.77,-478.74"/>
<polygon fill="black" stroke="black" points="577.76,-482.25 588.05,-479.7 578.42,-475.29 577.76,-482.25"/>
</g>
<!-- JKQTPBoxplotGraphBase -->
<g id="node35" class="node">
<title>JKQTPBoxplotGraphBase</title>
<g id="a_node35"><a xlink:href="class_j_k_q_t_p_boxplot_graph_base.html" target="_top" xlink:title="JKQTPBoxplotGraphBase">
<ellipse fill="none" stroke="black" cx="893.37" cy="-396" rx="76.55" ry="18"/>
<text text-anchor="middle" x="893.37" y="-393.5" font-family="FreeSans" font-size="10.00">JKQTPBoxplotGraphBase</text>
</a>
</g>
</g>
<!-- JKQTPGraph&#45;&gt;JKQTPBoxplotGraphBase -->
<g id="edge33" class="edge">
<title>JKQTPGraph&#45;&gt;JKQTPBoxplotGraphBase</title>
<path fill="none" stroke="black" d="M284.51,-582.65C300.08,-578.83 316.95,-572.26 329.15,-561 360.52,-532.07 333.78,-500.92 365.15,-472 490.92,-356.05 710.19,-367.98 822.18,-383.53"/>
<polygon fill="black" stroke="black" points="821.95,-387.03 832.35,-384.99 822.95,-380.1 821.95,-387.03"/>
</g>
<!-- noteJKQTPGeometricPlotElement -->
<g id="node6" class="node">
<title>noteJKQTPGeometricPlotElement</title>
<polygon fill="lightyellow" stroke="lightyellow" points="287.03,-436 191.03,-436 191.03,-400 293.03,-400 293.03,-430 287.03,-436"/>
<polyline fill="none" stroke="lightyellow" points="287.03,-436 287.03,-430 "/>
<polyline fill="none" stroke="lightyellow" points="293.03,-430 287.03,-430 "/>
<text text-anchor="middle" x="242.03" y="-425.1" font-family="FreeSans" font-size="8.00">base class for all</text>
<text text-anchor="middle" x="242.03" y="-416.1" font-family="FreeSans" font-size="8.00">non&#45;graph elements,</text>
<text text-anchor="middle" x="242.03" y="-407.1" font-family="FreeSans" font-size="8.00">e.g. geometric elements</text>
</g>
<!-- JKQTPGeometricPlotElement&#45;&gt;noteJKQTPGeometricPlotElement -->
<g id="edge3" class="edge">
<title>JKQTPGeometricPlotElement&#45;&gt;noteJKQTPGeometricPlotElement</title>
<path fill="none" stroke="black" stroke-dasharray="5,2" d="M242.03,-453.79C242.03,-447.91 242.03,-442.02 242.03,-436.14"/>
</g>
<!-- noteJKQTPPlotAnnotationElement -->
<g id="node8" class="node">
<title>noteJKQTPPlotAnnotationElement</title>
<polygon fill="lightyellow" stroke="lightyellow" points="294.03,-328 184.03,-328 184.03,-292 300.03,-292 300.03,-322 294.03,-328"/>
<polyline fill="none" stroke="lightyellow" points="294.03,-328 294.03,-322 "/>
<polyline fill="none" stroke="lightyellow" points="300.03,-322 294.03,-322 "/>
<text text-anchor="middle" x="242.03" y="-317.1" font-family="FreeSans" font-size="8.00">base class for all</text>
<text text-anchor="middle" x="242.03" y="-308.1" font-family="FreeSans" font-size="8.00">graph annotation elements,</text>
<text text-anchor="middle" x="242.03" y="-299.1" font-family="FreeSans" font-size="8.00">e.g. text, symbols, ranges ...</text>
</g>
<!-- JKQTPPlotAnnotationElement&#45;&gt;noteJKQTPPlotAnnotationElement -->
<g id="edge4" class="edge">
<title>JKQTPPlotAnnotationElement&#45;&gt;noteJKQTPPlotAnnotationElement</title>
<path fill="none" stroke="black" stroke-dasharray="5,2" d="M242.03,-345.79C242.03,-339.91 242.03,-334.02 242.03,-328.14"/>
</g>
<!-- noteJKQTPXYGraph -->
<g id="node10" class="node">
<title>noteJKQTPXYGraph</title>
<polygon fill="lightyellow" stroke="lightyellow" points="477.12,-776 406.12,-776 406.12,-740 483.12,-740 483.12,-770 477.12,-776"/>
<polyline fill="none" stroke="lightyellow" points="477.12,-776 477.12,-770 "/>
<polyline fill="none" stroke="lightyellow" points="483.12,-770 477.12,-770 "/>
<text text-anchor="middle" x="444.62" y="-765.1" font-family="FreeSans" font-size="8.00">base class for all</text>
<text text-anchor="middle" x="444.62" y="-756.1" font-family="FreeSans" font-size="8.00">graphs based on</text>
<text text-anchor="middle" x="444.62" y="-747.1" font-family="FreeSans" font-size="8.00"> (x,y) data pairs</text>
</g>
<!-- JKQTPXYGraph&#45;&gt;noteJKQTPXYGraph -->
<g id="edge5" class="edge">
<title>JKQTPXYGraph&#45;&gt;noteJKQTPXYGraph</title>
<path fill="none" stroke="black" stroke-dasharray="5,2" d="M444.62,-793.79C444.62,-787.91 444.62,-782.02 444.62,-776.14"/>
</g>
<!-- JKQTPXYYGraph -->
<g id="node15" class="node">
<title>JKQTPXYYGraph</title>
<g id="a_node15"><a xlink:href="class_j_k_q_t_p_x_y_y_graph.html" target="_top" xlink:title="JKQTPXYYGraph">
<ellipse fill="none" stroke="black" cx="664.88" cy="-924" rx="55.85" ry="18"/>
<text text-anchor="middle" x="664.88" y="-921.5" font-family="FreeSans" font-size="10.00">JKQTPXYYGraph</text>
</a>
</g>
</g>
<!-- JKQTPXYGraph&#45;&gt;JKQTPXYYGraph -->
<g id="edge34" class="edge">
<title>JKQTPXYGraph&#45;&gt;JKQTPXYYGraph</title>
<path fill="none" stroke="black" d="M463.61,-828.86C485.01,-848.05 522.59,-879.04 560.09,-897 574.28,-903.79 590.41,-909.04 605.65,-913.03"/>
<polygon fill="black" stroke="black" points="604.96,-916.47 615.51,-915.47 606.64,-909.67 604.96,-916.47"/>
</g>
<!-- JKQTPXXYGraph -->
<g id="node17" class="node">
<title>JKQTPXXYGraph</title>
<g id="a_node17"><a xlink:href="class_j_k_q_t_p_x_x_y_graph.html" target="_top" xlink:title="JKQTPXXYGraph">
<ellipse fill="none" stroke="black" cx="664.88" cy="-816" rx="55.85" ry="18"/>
<text text-anchor="middle" x="664.88" y="-813.5" font-family="FreeSans" font-size="10.00">JKQTPXXYGraph</text>
</a>
</g>
</g>
<!-- JKQTPXYGraph&#45;&gt;JKQTPXXYGraph -->
<g id="edge35" class="edge">
<title>JKQTPXYGraph&#45;&gt;JKQTPXXYGraph</title>
<path fill="none" stroke="black" d="M497.07,-812.94C527.43,-813.5 566.16,-814.21 598.65,-814.8"/>
<polygon fill="black" stroke="black" points="598.9,-818.31 608.96,-814.99 599.02,-811.31 598.9,-818.31"/>
</g>
<!-- JKQTPXYBaselineGraph -->
<g id="node21" class="node">
<title>JKQTPXYBaselineGraph</title>
<g id="a_node21"><a xlink:href="class_j_k_q_t_p_x_y_baseline_graph.html" target="_top" xlink:title="JKQTPXYBaselineGraph">
<ellipse fill="none" stroke="black" cx="664.88" cy="-708" rx="74.34" ry="18"/>
<text text-anchor="middle" x="664.88" y="-705.5" font-family="FreeSans" font-size="10.00">JKQTPXYBaselineGraph</text>
</a>
</g>
</g>
<!-- JKQTPXYGraph&#45;&gt;JKQTPXYBaselineGraph -->
<g id="edge36" class="edge">
<title>JKQTPXYGraph&#45;&gt;JKQTPXYBaselineGraph</title>
<path fill="none" stroke="black" d="M489.1,-802.28C501.18,-798.24 513.8,-792.65 524.09,-785 546.07,-768.67 537.5,-750.48 560.09,-735 569.36,-728.65 580.02,-723.8 590.91,-720.08"/>
<polygon fill="black" stroke="black" points="591.99,-723.41 600.5,-717.1 589.91,-716.73 591.99,-723.41"/>
</g>
<!-- noteJKQTPSingleColumnGraph -->
<g id="node12" class="node">
<title>noteJKQTPSingleColumnGraph</title>
<polygon fill="lightyellow" stroke="lightyellow" points="489.12,-664 394.12,-664 394.12,-628 495.12,-628 495.12,-658 489.12,-664"/>
<polyline fill="none" stroke="lightyellow" points="489.12,-664 489.12,-658 "/>
<polyline fill="none" stroke="lightyellow" points="495.12,-658 489.12,-658 "/>
<text text-anchor="middle" x="444.62" y="-653.1" font-family="FreeSans" font-size="8.00">base class for all</text>
<text text-anchor="middle" x="444.62" y="-644.1" font-family="FreeSans" font-size="8.00">graphs based on only</text>
<text text-anchor="middle" x="444.62" y="-635.1" font-family="FreeSans" font-size="8.00"> a single column of data</text>
</g>
<!-- JKQTPSingleColumnGraph&#45;&gt;noteJKQTPSingleColumnGraph -->
<g id="edge6" class="edge">
<title>JKQTPSingleColumnGraph&#45;&gt;noteJKQTPSingleColumnGraph</title>
<path fill="none" stroke="black" stroke-dasharray="5,2" d="M444.62,-681.79C444.62,-675.91 444.62,-670.02 444.62,-664.14"/>
</g>
<!-- noteJKQTPImageBase -->
<g id="node14" class="node">
<title>noteJKQTPImageBase</title>
<polygon fill="lightyellow" stroke="lightyellow" points="486.62,-556 396.62,-556 396.62,-520 492.62,-520 492.62,-550 486.62,-556"/>
<polyline fill="none" stroke="lightyellow" points="486.62,-556 486.62,-550 "/>
<polyline fill="none" stroke="lightyellow" points="492.62,-550 486.62,-550 "/>
<text text-anchor="middle" x="444.62" y="-545.1" font-family="FreeSans" font-size="8.00">base class for all</text>
<text text-anchor="middle" x="444.62" y="-536.1" font-family="FreeSans" font-size="8.00">graphs that represent </text>
<text text-anchor="middle" x="444.62" y="-527.1" font-family="FreeSans" font-size="8.00">2D images/matrices</text>
</g>
<!-- JKQTPImageBase&#45;&gt;noteJKQTPImageBase -->
<g id="edge7" class="edge">
<title>JKQTPImageBase&#45;&gt;noteJKQTPImageBase</title>
<path fill="none" stroke="black" stroke-dasharray="5,2" d="M444.62,-573.79C444.62,-567.91 444.62,-562.02 444.62,-556.14"/>
</g>
<!-- JKQTPMathImageBase -->
<g id="node25" class="node">
<title>JKQTPMathImageBase</title>
<g id="a_node25"><a xlink:href="class_j_k_q_t_p_math_image_base.html" target="_top" xlink:title="JKQTPMathImageBase">
<ellipse fill="none" stroke="black" cx="664.88" cy="-600" rx="70.78" ry="18"/>
<text text-anchor="middle" x="664.88" y="-597.5" font-family="FreeSans" font-size="10.00">JKQTPMathImageBase</text>
</a>
</g>
</g>
<!-- JKQTPImageBase&#45;&gt;JKQTPMathImageBase -->
<g id="edge31" class="edge">
<title>JKQTPImageBase&#45;&gt;JKQTPMathImageBase</title>
<path fill="none" stroke="black" d="M502.11,-594.07C527.2,-594.99 557.17,-596.09 584.45,-597.09"/>
<polygon fill="black" stroke="black" points="584.64,-600.6 594.76,-597.47 584.9,-593.6 584.64,-600.6"/>
</g>
<!-- noteJKQTPXYYGraph -->
<g id="node16" class="node">
<title>noteJKQTPXYYGraph</title>
<polygon fill="lightyellow" stroke="lightyellow" points="706.38,-888 617.38,-888 617.38,-852 712.38,-852 712.38,-882 706.38,-888"/>
<polyline fill="none" stroke="lightyellow" points="706.38,-888 706.38,-882 "/>
<polyline fill="none" stroke="lightyellow" points="712.38,-882 706.38,-882 "/>
<text text-anchor="middle" x="664.88" y="-877.1" font-family="FreeSans" font-size="8.00">base class for all</text>
<text text-anchor="middle" x="664.88" y="-868.1" font-family="FreeSans" font-size="8.00">graphs based on</text>
<text text-anchor="middle" x="664.88" y="-859.1" font-family="FreeSans" font-size="8.00"> (x, y1, y2) data triples</text>
</g>
<!-- JKQTPXYYGraph&#45;&gt;noteJKQTPXYYGraph -->
<g id="edge8" class="edge">
<title>JKQTPXYYGraph&#45;&gt;noteJKQTPXYYGraph</title>
<path fill="none" stroke="black" stroke-dasharray="5,2" d="M664.88,-905.79C664.88,-899.91 664.88,-894.02 664.88,-888.14"/>
</g>
<!-- noteJKQTPXXYGraph -->
<g id="node18" class="node">
<title>noteJKQTPXXYGraph</title>
<polygon fill="lightyellow" stroke="lightyellow" points="706.38,-780 617.38,-780 617.38,-744 712.38,-744 712.38,-774 706.38,-780"/>
<polyline fill="none" stroke="lightyellow" points="706.38,-780 706.38,-774 "/>
<polyline fill="none" stroke="lightyellow" points="712.38,-774 706.38,-774 "/>
<text text-anchor="middle" x="664.88" y="-769.1" font-family="FreeSans" font-size="8.00">base class for all</text>
<text text-anchor="middle" x="664.88" y="-760.1" font-family="FreeSans" font-size="8.00">graphs based on</text>
<text text-anchor="middle" x="664.88" y="-751.1" font-family="FreeSans" font-size="8.00"> (x1, x2, y) data triples</text>
</g>
<!-- JKQTPXXYGraph&#45;&gt;noteJKQTPXXYGraph -->
<g id="edge9" class="edge">
<title>JKQTPXXYGraph&#45;&gt;noteJKQTPXXYGraph</title>
<path fill="none" stroke="black" stroke-dasharray="5,2" d="M664.88,-797.79C664.88,-791.91 664.88,-786.02 664.88,-780.14"/>
</g>
<!-- JKQTPXYAndVectorGraph -->
<g id="node19" class="node">
<title>JKQTPXYAndVectorGraph</title>
<g id="a_node19"><a xlink:href="class_j_k_q_t_p_x_y_and_vector_graph.html" target="_top" xlink:title="JKQTPXYAndVectorGraph">
<ellipse fill="none" stroke="black" cx="664.88" cy="-1032" rx="78.76" ry="18"/>
<text text-anchor="middle" x="664.88" y="-1029.5" font-family="FreeSans" font-size="10.00">JKQTPXYAndVectorGraph</text>
</a>
</g>
</g>
<!-- noteJJKQTPXYAndVectorGraph -->
<g id="node20" class="node">
<title>noteJJKQTPXYAndVectorGraph</title>
<polygon fill="lightyellow" stroke="lightyellow" points="719.88,-996 603.88,-996 603.88,-960 725.88,-960 725.88,-990 719.88,-996"/>
<polyline fill="none" stroke="lightyellow" points="719.88,-996 719.88,-990 "/>
<polyline fill="none" stroke="lightyellow" points="725.88,-990 719.88,-990 "/>
<text text-anchor="middle" x="664.88" y="-985.1" font-family="FreeSans" font-size="8.00">base class for all</text>
<text text-anchor="middle" x="664.88" y="-976.1" font-family="FreeSans" font-size="8.00">vector field graphs based on</text>
<text text-anchor="middle" x="664.88" y="-967.1" font-family="FreeSans" font-size="8.00"> (x, y, dx, dy) data quadruples</text>
</g>
<!-- JKQTPXYAndVectorGraph&#45;&gt;noteJJKQTPXYAndVectorGraph -->
<g id="edge10" class="edge">
<title>JKQTPXYAndVectorGraph&#45;&gt;noteJJKQTPXYAndVectorGraph</title>
<path fill="none" stroke="black" stroke-dasharray="5,2" d="M664.88,-1013.79C664.88,-1007.91 664.88,-1002.02 664.88,-996.14"/>
</g>
<!-- noteJJKQTPXYBaselineGraph -->
<g id="node22" class="node">
<title>noteJJKQTPXYBaselineGraph</title>
<polygon fill="lightyellow" stroke="lightyellow" points="721.88,-672 601.88,-672 601.88,-636 727.88,-636 727.88,-666 721.88,-672"/>
<polyline fill="none" stroke="lightyellow" points="721.88,-672 721.88,-666 "/>
<polyline fill="none" stroke="lightyellow" points="727.88,-666 721.88,-666 "/>
<text text-anchor="middle" x="664.88" y="-661.1" font-family="FreeSans" font-size="8.00">base class for all</text>
<text text-anchor="middle" x="664.88" y="-652.1" font-family="FreeSans" font-size="8.00">graphs based on</text>
<text text-anchor="middle" x="664.88" y="-643.1" font-family="FreeSans" font-size="8.00"> (x,y) data pairs and a baseline</text>
</g>
<!-- JKQTPXYBaselineGraph&#45;&gt;noteJJKQTPXYBaselineGraph -->
<g id="edge11" class="edge">
<title>JKQTPXYBaselineGraph&#45;&gt;noteJJKQTPXYBaselineGraph</title>
<path fill="none" stroke="black" stroke-dasharray="5,2" d="M664.88,-689.79C664.88,-683.91 664.88,-678.02 664.88,-672.14"/>
</g>
<!-- JKQTPBarGraphBase -->
<g id="node27" class="node">
<title>JKQTPBarGraphBase</title>
<g id="a_node27"><a xlink:href="class_j_k_q_t_p_bar_graph_base.html" target="_top" xlink:title="JKQTPBarGraphBase">
<ellipse fill="none" stroke="black" cx="893.37" cy="-876" rx="66.54" ry="18"/>
<text text-anchor="middle" x="893.37" y="-873.5" font-family="FreeSans" font-size="10.00">JKQTPBarGraphBase</text>
</a>
</g>
</g>
<!-- JKQTPXYBaselineGraph&#45;&gt;JKQTPBarGraphBase -->
<g id="edge37" class="edge">
<title>JKQTPXYBaselineGraph&#45;&gt;JKQTPBarGraphBase</title>
<path fill="none" stroke="black" d="M733.24,-715.07C746.61,-719.17 759.6,-725.45 769.66,-735 808.18,-771.59 768.01,-811.5 805.66,-849 811.53,-854.85 818.66,-859.44 826.27,-863.04"/>
<polygon fill="black" stroke="black" points="825.16,-866.37 835.74,-866.95 827.83,-859.9 825.16,-866.37"/>
</g>
<!-- JKQTPFilledCurveGraphBase -->
<g id="node29" class="node">
<title>JKQTPFilledCurveGraphBase</title>
<g id="a_node29"><a xlink:href="class_j_k_q_t_p_filled_curve_graph_base.html" target="_top" xlink:title="JKQTPFilledCurveGraphBase">
<ellipse fill="none" stroke="black" cx="893.37" cy="-768" rx="85.89" ry="18"/>
<text text-anchor="middle" x="893.37" y="-765.5" font-family="FreeSans" font-size="10.00">JKQTPFilledCurveGraphBase</text>
</a>
</g>
</g>
<!-- JKQTPXYBaselineGraph&#45;&gt;JKQTPFilledCurveGraphBase -->
<g id="edge38" class="edge">
<title>JKQTPXYBaselineGraph&#45;&gt;JKQTPFilledCurveGraphBase</title>
<path fill="none" stroke="black" d="M716.31,-721.03C733.27,-725.44 752.29,-730.41 769.66,-735 789.45,-740.24 811.03,-746.01 830.48,-751.25"/>
<polygon fill="black" stroke="black" points="829.58,-754.63 840.15,-753.86 831.4,-747.87 829.58,-754.63"/>
</g>
<!-- JKQTPImpulsesGraphBase -->
<g id="node31" class="node">
<title>JKQTPImpulsesGraphBase</title>
<g id="a_node31"><a xlink:href="class_j_k_q_t_p_impulses_graph_base.html" target="_top" xlink:title="JKQTPImpulsesGraphBase">
<ellipse fill="none" stroke="black" cx="893.37" cy="-660" rx="80.79" ry="18"/>
<text text-anchor="middle" x="893.37" y="-657.5" font-family="FreeSans" font-size="10.00">JKQTPImpulsesGraphBase</text>
</a>
</g>
</g>
<!-- JKQTPXYBaselineGraph&#45;&gt;JKQTPImpulsesGraphBase -->
<g id="edge39" class="edge">
<title>JKQTPXYBaselineGraph&#45;&gt;JKQTPImpulsesGraphBase</title>
<path fill="none" stroke="black" d="M721.28,-696.26C752.38,-689.67 791.43,-681.39 824.36,-674.41"/>
<polygon fill="black" stroke="black" points="825.32,-677.79 834.37,-672.29 823.87,-670.94 825.32,-677.79"/>
</g>
<!-- JKQTPSpecialLineGraphBase -->
<g id="node33" class="node">
<title>JKQTPSpecialLineGraphBase</title>
<g id="a_node33"><a xlink:href="class_j_k_q_t_p_special_line_graph_base.html" target="_top" xlink:title="JKQTPSpecialLineGraphBase">
<ellipse fill="none" stroke="black" cx="893.37" cy="-552" rx="87.92" ry="18"/>
<text text-anchor="middle" x="893.37" y="-549.5" font-family="FreeSans" font-size="10.00">JKQTPSpecialLineGraphBase</text>
</a>
</g>
</g>
<!-- JKQTPXYBaselineGraph&#45;&gt;JKQTPSpecialLineGraphBase -->
<g id="edge40" class="edge">
<title>JKQTPXYBaselineGraph&#45;&gt;JKQTPSpecialLineGraphBase</title>
<path fill="none" stroke="black" d="M733,-700.68C746.38,-696.59 759.44,-690.38 769.66,-681 805.06,-648.48 771.03,-612.35 805.66,-579 809.7,-575.1 814.3,-571.77 819.22,-568.91"/>
<polygon fill="black" stroke="black" points="821.03,-571.92 828.37,-564.28 817.87,-565.67 821.03,-571.92"/>
</g>
<!-- noteJKQTPEvaluatedFunctionGraphBase -->
<g id="node24" class="node">
<title>noteJKQTPEvaluatedFunctionGraphBase</title>
<polygon fill="lightyellow" stroke="lightyellow" points="722.88,-456 600.88,-456 600.88,-420 728.88,-420 728.88,-450 722.88,-456"/>
<polyline fill="none" stroke="lightyellow" points="722.88,-456 722.88,-450 "/>
<polyline fill="none" stroke="lightyellow" points="728.88,-450 722.88,-450 "/>
<text text-anchor="middle" x="664.88" y="-445.1" font-family="FreeSans" font-size="8.00">base class for all</text>
<text text-anchor="middle" x="664.88" y="-436.1" font-family="FreeSans" font-size="8.00">graphs that represent </text>
<text text-anchor="middle" x="664.88" y="-427.1" font-family="FreeSans" font-size="8.00">dynamically evaluated functions</text>
</g>
<!-- JKQTPEvaluatedFunctionGraphBase&#45;&gt;noteJKQTPEvaluatedFunctionGraphBase -->
<g id="edge12" class="edge">
<title>JKQTPEvaluatedFunctionGraphBase&#45;&gt;noteJKQTPEvaluatedFunctionGraphBase</title>
<path fill="none" stroke="black" stroke-dasharray="5,2" d="M664.88,-473.79C664.88,-467.91 664.88,-462.02 664.88,-456.14"/>
</g>
<!-- noteJKQTPMathImageBase -->
<g id="node26" class="node">
<title>noteJKQTPMathImageBase</title>
<polygon fill="lightyellow" stroke="lightyellow" points="701.38,-564 622.38,-564 622.38,-528 707.38,-528 707.38,-558 701.38,-564"/>
<polyline fill="none" stroke="lightyellow" points="701.38,-564 701.38,-558 "/>
<polyline fill="none" stroke="lightyellow" points="707.38,-558 701.38,-558 "/>
<text text-anchor="middle" x="664.88" y="-548.6" font-family="FreeSans" font-size="8.00">base class for all</text>
<text text-anchor="middle" x="664.88" y="-539.6" font-family="FreeSans" font-size="8.00">data&#45;based images</text>
</g>
<!-- JKQTPMathImageBase&#45;&gt;noteJKQTPMathImageBase -->
<g id="edge13" class="edge">
<title>JKQTPMathImageBase&#45;&gt;noteJKQTPMathImageBase</title>
<path fill="none" stroke="black" stroke-dasharray="5,2" d="M664.88,-581.79C664.88,-575.91 664.88,-570.02 664.88,-564.14"/>
</g>
<!-- noteJKQTPBarGraphBase -->
<g id="node28" class="node">
<title>noteJKQTPBarGraphBase</title>
<polygon fill="lightyellow" stroke="lightyellow" points="924.87,-840 855.87,-840 855.87,-804 930.87,-804 930.87,-834 924.87,-840"/>
<polyline fill="none" stroke="lightyellow" points="924.87,-840 924.87,-834 "/>
<polyline fill="none" stroke="lightyellow" points="930.87,-834 924.87,-834 "/>
<text text-anchor="middle" x="893.37" y="-824.6" font-family="FreeSans" font-size="8.00">base class for all</text>
<text text-anchor="middle" x="893.37" y="-815.6" font-family="FreeSans" font-size="8.00">barcharts</text>
</g>
<!-- JKQTPBarGraphBase&#45;&gt;noteJKQTPBarGraphBase -->
<g id="edge14" class="edge">
<title>JKQTPBarGraphBase&#45;&gt;noteJKQTPBarGraphBase</title>
<path fill="none" stroke="black" stroke-dasharray="5,2" d="M893.37,-857.79C893.37,-851.91 893.37,-846.02 893.37,-840.14"/>
</g>
<!-- noteJKQTPFilledCurveGraphBase -->
<g id="node30" class="node">
<title>noteJKQTPFilledCurveGraphBase</title>
<polygon fill="lightyellow" stroke="lightyellow" points="924.87,-732 855.87,-732 855.87,-696 930.87,-696 930.87,-726 924.87,-732"/>
<polyline fill="none" stroke="lightyellow" points="924.87,-732 924.87,-726 "/>
<polyline fill="none" stroke="lightyellow" points="930.87,-726 924.87,-726 "/>
<text text-anchor="middle" x="893.37" y="-716.6" font-family="FreeSans" font-size="8.00">base class for all</text>
<text text-anchor="middle" x="893.37" y="-707.6" font-family="FreeSans" font-size="8.00">filled graphs</text>
</g>
<!-- JKQTPFilledCurveGraphBase&#45;&gt;noteJKQTPFilledCurveGraphBase -->
<g id="edge15" class="edge">
<title>JKQTPFilledCurveGraphBase&#45;&gt;noteJKQTPFilledCurveGraphBase</title>
<path fill="none" stroke="black" stroke-dasharray="5,2" d="M893.37,-749.79C893.37,-743.91 893.37,-738.02 893.37,-732.14"/>
</g>
<!-- noteJKQTPImpulsesGraphBase -->
<g id="node32" class="node">
<title>noteJKQTPImpulsesGraphBase</title>
<polygon fill="lightyellow" stroke="lightyellow" points="924.87,-624 855.87,-624 855.87,-588 930.87,-588 930.87,-618 924.87,-624"/>
<polyline fill="none" stroke="lightyellow" points="924.87,-624 924.87,-618 "/>
<polyline fill="none" stroke="lightyellow" points="930.87,-618 924.87,-618 "/>
<text text-anchor="middle" x="893.37" y="-608.6" font-family="FreeSans" font-size="8.00">base class for all</text>
<text text-anchor="middle" x="893.37" y="-599.6" font-family="FreeSans" font-size="8.00">impulse graphs</text>
</g>
<!-- JKQTPImpulsesGraphBase&#45;&gt;noteJKQTPImpulsesGraphBase -->
<g id="edge16" class="edge">
<title>JKQTPImpulsesGraphBase&#45;&gt;noteJKQTPImpulsesGraphBase</title>
<path fill="none" stroke="black" stroke-dasharray="5,2" d="M893.37,-641.79C893.37,-635.91 893.37,-630.02 893.37,-624.14"/>
</g>
<!-- noteJKQTPSpecialLineGraphBase -->
<g id="node34" class="node">
<title>noteJKQTPSpecialLineGraphBase</title>
<polygon fill="lightyellow" stroke="lightyellow" points="928.37,-516 852.37,-516 852.37,-480 934.37,-480 934.37,-510 928.37,-516"/>
<polyline fill="none" stroke="lightyellow" points="928.37,-516 928.37,-510 "/>
<polyline fill="none" stroke="lightyellow" points="934.37,-510 928.37,-510 "/>
<text text-anchor="middle" x="893.37" y="-500.6" font-family="FreeSans" font-size="8.00">base class for all</text>
<text text-anchor="middle" x="893.37" y="-491.6" font-family="FreeSans" font-size="8.00">special line graphs</text>
</g>
<!-- JKQTPSpecialLineGraphBase&#45;&gt;noteJKQTPSpecialLineGraphBase -->
<g id="edge17" class="edge">
<title>JKQTPSpecialLineGraphBase&#45;&gt;noteJKQTPSpecialLineGraphBase</title>
<path fill="none" stroke="black" stroke-dasharray="5,2" d="M893.37,-533.79C893.37,-527.91 893.37,-522.02 893.37,-516.14"/>
</g>
<!-- noteJKQTPBoxplotGraphBase -->
<g id="node36" class="node">
<title>noteJKQTPBoxplotGraphBase</title>
<polygon fill="lightyellow" stroke="lightyellow" points="935.37,-360 845.37,-360 845.37,-324 941.37,-324 941.37,-354 935.37,-360"/>
<polyline fill="none" stroke="lightyellow" points="935.37,-360 935.37,-354 "/>
<polyline fill="none" stroke="lightyellow" points="941.37,-354 935.37,-354 "/>
<text text-anchor="middle" x="893.37" y="-349.1" font-family="FreeSans" font-size="8.00">base class for all</text>
<text text-anchor="middle" x="893.37" y="-340.1" font-family="FreeSans" font-size="8.00">graphs that represent </text>
<text text-anchor="middle" x="893.37" y="-331.1" font-family="FreeSans" font-size="8.00">a set of boxplots</text>
</g>
<!-- JKQTPBoxplotGraphBase&#45;&gt;noteJKQTPBoxplotGraphBase -->
<g id="edge18" class="edge">
<title>JKQTPBoxplotGraphBase&#45;&gt;noteJKQTPBoxplotGraphBase</title>
<path fill="none" stroke="black" stroke-dasharray="5,2" d="M893.37,-377.79C893.37,-371.91 893.37,-366.02 893.37,-360.14"/>
</g>
<!-- noteJKQTPRangeBase -->
<g id="node38" class="node">
<title>noteJKQTPRangeBase</title>
<polygon fill="lightyellow" stroke="lightyellow" points="927.87,-252 852.87,-252 852.87,-216 933.87,-216 933.87,-246 927.87,-252"/>
<polyline fill="none" stroke="lightyellow" points="927.87,-252 927.87,-246 "/>
<polyline fill="none" stroke="lightyellow" points="933.87,-246 927.87,-246 "/>
<text text-anchor="middle" x="893.37" y="-236.6" font-family="FreeSans" font-size="8.00">base class for all</text>
<text text-anchor="middle" x="893.37" y="-227.6" font-family="FreeSans" font-size="8.00">range annotations</text>
</g>
<!-- JKQTPRangeBase&#45;&gt;noteJKQTPRangeBase -->
<g id="edge19" class="edge">
<title>JKQTPRangeBase&#45;&gt;noteJKQTPRangeBase</title>
<path fill="none" stroke="black" stroke-dasharray="5,2" d="M893.37,-269.79C893.37,-263.91 893.37,-258.02 893.37,-252.14"/>
</g>
<!-- noteJKQTPBoxplotElementBase -->
<g id="node40" class="node">
<title>noteJKQTPBoxplotElementBase</title>
<polygon fill="lightyellow" stroke="lightyellow" points="935.37,-144 845.37,-144 845.37,-108 941.37,-108 941.37,-138 935.37,-144"/>
<polyline fill="none" stroke="lightyellow" points="935.37,-144 935.37,-138 "/>
<polyline fill="none" stroke="lightyellow" points="941.37,-138 935.37,-138 "/>
<text text-anchor="middle" x="893.37" y="-133.1" font-family="FreeSans" font-size="8.00">base class for all</text>
<text text-anchor="middle" x="893.37" y="-124.1" font-family="FreeSans" font-size="8.00">graphs that represent </text>
<text text-anchor="middle" x="893.37" y="-115.1" font-family="FreeSans" font-size="8.00">a single boxplot</text>
</g>
<!-- JKQTPBoxplotElementBase&#45;&gt;noteJKQTPBoxplotElementBase -->
<g id="edge20" class="edge">
<title>JKQTPBoxplotElementBase&#45;&gt;noteJKQTPBoxplotElementBase</title>
<path fill="none" stroke="black" stroke-dasharray="5,2" d="M893.37,-161.79C893.37,-155.91 893.37,-150.02 893.37,-144.14"/>
</g>
<!-- noteJKQTPViolinplotElementBase -->
<g id="node42" class="node">
<title>noteJKQTPViolinplotElementBase</title>
<polygon fill="lightyellow" stroke="lightyellow" points="935.37,-36 845.37,-36 845.37,0 941.37,0 941.37,-30 935.37,-36"/>
<polyline fill="none" stroke="lightyellow" points="935.37,-36 935.37,-30 "/>
<polyline fill="none" stroke="lightyellow" points="941.37,-30 935.37,-30 "/>
<text text-anchor="middle" x="893.37" y="-25.1" font-family="FreeSans" font-size="8.00">base class for all</text>
<text text-anchor="middle" x="893.37" y="-16.1" font-family="FreeSans" font-size="8.00">graphs that represent </text>
<text text-anchor="middle" x="893.37" y="-7.1" font-family="FreeSans" font-size="8.00">a single violin plot</text>
</g>
<!-- JKQTPViolinplotElementBase&#45;&gt;noteJKQTPViolinplotElementBase -->
<g id="edge21" class="edge">
<title>JKQTPViolinplotElementBase&#45;&gt;noteJKQTPViolinplotElementBase</title>
<path fill="none" stroke="black" stroke-dasharray="5,2" d="M893.37,-53.79C893.37,-47.91 893.37,-42.02 893.37,-36.14"/>
</g>
</g>
</svg>
