<?xml version="1.0" encoding="UTF-8" standalone="no"?>
<!DOCTYPE svg PUBLIC "-//W3C//DTD SVG 1.1//EN"
 "http://www.w3.org/Graphics/SVG/1.1/DTD/svg11.dtd">
<!-- Generated by graphviz version 2.43.0 (0)
 -->
<!-- Title: jkqtp_todouble Pages: 1 -->
<!--zoomable 1605 -->
<svg id="main" version="1.1" xmlns="http://www.w3.org/2000/svg" xmlns:xlink="http://www.w3.org/1999/xlink" xml:space="preserve" onload="init(evt)">
<style type="text/css"><![CDATA[
.edge:hover path { stroke: red; }
.edge:hover polygon { stroke: red; fill: red; }
]]></style>
<script type="text/javascript"><![CDATA[
var edges = document.getElementsByTagName('g');
if (edges && edges.length) {
  for (var i=0;i<edges.length;i++) {
    if (edges[i].id.substr(0,4)=='edge') {
      edges[i].setAttribute('class','edge');
    }
  }
}
]]></script>
        <defs>
                <circle id="rim" cx="0" cy="0" r="7"/>
                <circle id="rim2" cx="0" cy="0" r="3.5"/>
                <g id="zoomPlus">
                        <use xlink:href="#rim" fill="#404040">
                                <set attributeName="fill" to="#808080" begin="zoomplus.mouseover" end="zoomplus.mouseout"/>
                        </use>
                        <path d="M-4,0h8M0,-4v8" fill="none" stroke="white" stroke-width="1.5" pointer-events="none"/>
                </g>
                <g id="zoomMin">
                        <use xlink:href="#rim" fill="#404040">
                                <set attributeName="fill" to="#808080" begin="zoomminus.mouseover" end="zoomminus.mouseout"/>
                        </use>
                        <path d="M-4,0h8" fill="none" stroke="white" stroke-width="1.5" pointer-events="none"/>
                </g>
                <g id="dirArrow">
                        <path fill="none" stroke="white" stroke-width="1.5" d="M0,-3.0v7 M-2.5,-0.5L0,-3.0L2.5,-0.5"/>
                </g>
               <g id="resetDef">
                       <use xlink:href="#rim2" fill="#404040">
                               <set attributeName="fill" to="#808080" begin="reset.mouseover" end="reset.mouseout"/>
                       </use>
               </g>
        </defs>

<script type="text/javascript">
var viewWidth = 380;
var viewHeight = 1605;
var sectionId = 'dynsection-1';
</script>
<script xlink:href="svgpan.js"/>
<svg id="graph" class="graph">
<g id="viewport">
<title>jkqtp_todouble</title>
<!-- Node1 -->
<g id="node1" class="node">
<title>Node1</title>
<g id="a_node1"><a xlink:title="converts a boolean to a double, is used to convert boolean to double by JKQTPDatastore">
<polygon fill="#bfbfbf" stroke="black" points="268,-768 268,-789 372,-789 372,-768 268,-768"/>
<text text-anchor="middle" x="320" y="-775.4" font-family="Helvetica,sans-Serif" font-size="12.00">jkqtp_todouble</text>
</a>
</g>
</g>
<!-- Node2 -->
<g id="node2" class="node">
<title>Node2</title>
<g id="a_node2"><a xlink:href="class_j_k_q_t_p_datastore.html#a3d6b9f2649736b08b6731132f86368f6" target="_top" xlink:title="add one column to the datastore. It will be filled with the values from first ... last">
<polygon fill="none" stroke="black" points="25,-1562.5 25,-1596.5 207,-1596.5 207,-1562.5 25,-1562.5"/>
<text text-anchor="start" x="33" y="-1582.9" font-family="Helvetica,sans-Serif" font-size="12.00">JKQTPDatastore::addCopied</text>
<text text-anchor="middle" x="116" y="-1569.9" font-family="Helvetica,sans-Serif" font-size="12.00">Column</text>
</a>
</g>
</g>
<!-- Node1&#45;&gt;Node2 -->
<g id="edge1" class="edge">
<title>Node1&#45;&gt;Node2</title>
<path fill="none" stroke="midnightblue" d="M318.09,-799.3C312.73,-916.92 283.89,-1495.53 232,-1553.5 225.11,-1561.2 216.46,-1566.88 207.01,-1571.03"/>
<polygon fill="midnightblue" stroke="midnightblue" points="321.59,-799.27 318.54,-789.12 314.6,-798.95 321.59,-799.27"/>
</g>
<!-- Node3 -->
<g id="node3" class="node">
<title>Node3</title>
<g id="a_node3"><a xlink:href="class_j_k_q_t_p_datastore.html#a5f8626ac2cf762b496e11b0cc7bb8482" target="_top" xlink:title="add one external column to the datastore. It contains rows rows. The external data is copied to an in...">
<polygon fill="none" stroke="black" points="25,-1509.5 25,-1543.5 207,-1543.5 207,-1509.5 25,-1509.5"/>
<text text-anchor="start" x="33" y="-1529.9" font-family="Helvetica,sans-Serif" font-size="12.00">JKQTPDatastore::addCopied</text>
<text text-anchor="middle" x="116" y="-1516.9" font-family="Helvetica,sans-Serif" font-size="12.00">ColumnMasked</text>
</a>
</g>
</g>
<!-- Node1&#45;&gt;Node3 -->
<g id="edge2" class="edge">
<title>Node1&#45;&gt;Node3</title>
<path fill="none" stroke="midnightblue" d="M317.9,-799.24C311.74,-911.74 280.12,-1445.74 232,-1499.5 225.16,-1507.14 216.61,-1512.83 207.27,-1517.03"/>
<polygon fill="midnightblue" stroke="midnightblue" points="321.4,-799.35 318.44,-789.17 314.41,-798.97 321.4,-799.35"/>
</g>
<!-- Node4 -->
<g id="node4" class="node">
<title>Node4</title>
<g id="a_node4"><a xlink:href="class_j_k_q_t_p_datastore.html#a791b38ec8f11db99af05467613e5b69f" target="_top" xlink:title="copies the contents of the map&#45;like container c into two columns of the datastore,...">
<polygon fill="none" stroke="black" points="12,-1469 12,-1490 220,-1490 220,-1469 12,-1469"/>
<text text-anchor="middle" x="116" y="-1476.4" font-family="Helvetica,sans-Serif" font-size="12.00">JKQTPDatastore::addCopiedMap</text>
</a>
</g>
</g>
<!-- Node1&#45;&gt;Node4 -->
<g id="edge3" class="edge">
<title>Node1&#45;&gt;Node4</title>
<path fill="none" stroke="midnightblue" d="M317.81,-799.14C311.33,-907.81 278.98,-1410.35 232,-1459.5 228.43,-1463.24 224.43,-1466.43 220.12,-1469.14"/>
<polygon fill="midnightblue" stroke="midnightblue" points="321.3,-799.31 318.39,-789.13 314.31,-798.9 321.3,-799.31"/>
</g>
<!-- Node5 -->
<g id="node5" class="node">
<title>Node5</title>
<g id="a_node5"><a xlink:href="group__jkqtpinterfaceopencv.html#ga74b131d8aa84a4366ea02bb5dc0c2459" target="_top" xlink:title="internal helper function for JKQTPCopyCvMatToColumn()">
<polygon fill="none" stroke="black" points="37.5,-1415.5 37.5,-1449.5 194.5,-1449.5 194.5,-1415.5 37.5,-1415.5"/>
<text text-anchor="start" x="45.5" y="-1435.9" font-family="Helvetica,sans-Serif" font-size="12.00">JKQTPDatastore_Helper</text>
<text text-anchor="middle" x="116" y="-1422.9" font-family="Helvetica,sans-Serif" font-size="12.00">::copyDataFromMat</text>
</a>
</g>
</g>
<!-- Node1&#45;&gt;Node5 -->
<g id="edge4" class="edge">
<title>Node1&#45;&gt;Node5</title>
<path fill="none" stroke="midnightblue" d="M319.14,-799.09C319.39,-896.93 315.49,-1313.89 232,-1405.5 222.12,-1416.34 208.79,-1423.23 194.71,-1427.53"/>
<polygon fill="midnightblue" stroke="midnightblue" points="322.64,-798.99 319.1,-789.01 315.64,-799.02 322.64,-798.99"/>
</g>
<!-- Node6 -->
<g id="node6" class="node">
<title>Node6</title>
<g id="a_node6"><a xlink:href="group__jkqtpinterfacecimg.html#gae1b39cb60de54f9da34f19f2c1e3a6a2" target="_top" xlink:title="add one external column to the datastore. It will be filled with the contents of the CImg image img.">
<polygon fill="none" stroke="black" points="29.5,-1375 29.5,-1396 202.5,-1396 202.5,-1375 29.5,-1375"/>
<text text-anchor="middle" x="116" y="-1382.4" font-family="Helvetica,sans-Serif" font-size="12.00">JKQTPCopyCImgToColumn</text>
</a>
</g>
</g>
<!-- Node1&#45;&gt;Node6 -->
<g id="edge5" class="edge">
<title>Node1&#45;&gt;Node6</title>
<path fill="none" stroke="midnightblue" d="M319.04,-799.37C318.77,-894.12 312.7,-1282.75 232,-1365.5 223.86,-1373.84 213.58,-1379.45 202.53,-1383.12"/>
<polygon fill="midnightblue" stroke="midnightblue" points="322.54,-799.31 319.05,-789.31 315.54,-799.31 322.54,-799.31"/>
</g>
<!-- Node7 -->
<g id="node7" class="node">
<title>Node7</title>
<g id="a_node7"><a xlink:href="group__jkqtptools__math__linalg.html#ga3e196152acbf4f8dfe3c33abb0af62a7" target="_top" xlink:title="convert the given LxC matrix to std::string">
<polygon fill="none" stroke="black" points="34.5,-1335 34.5,-1356 197.5,-1356 197.5,-1335 34.5,-1335"/>
<text text-anchor="middle" x="116" y="-1342.4" font-family="Helvetica,sans-Serif" font-size="12.00">jkqtplinalgMatrixToString</text>
</a>
</g>
</g>
<!-- Node1&#45;&gt;Node7 -->
<g id="edge6" class="edge">
<title>Node1&#45;&gt;Node7</title>
<path fill="none" stroke="midnightblue" d="M318.8,-799.08C317.46,-889.32 307.41,-1248.99 232,-1325.5 222.68,-1334.95 210.6,-1340.88 197.79,-1344.46"/>
<polygon fill="midnightblue" stroke="midnightblue" points="322.3,-799.06 318.92,-789.02 315.3,-798.98 322.3,-799.06"/>
</g>
<!-- Node8 -->
<g id="node8" class="node">
<title>Node8</title>
<g id="a_node8"><a xlink:href="group__jkqtptools__math__statistics__adaptors.html#ga5c3c190fb942cc14bdccbee7e5c79ba9" target="_top" xlink:title="create vertical boxplots of type JKQTPBoxplotHorizontalGraph, from the 5&#45;value&#45;summary of groups in t...">
<polygon fill="none" stroke="black" points="29,-1281.5 29,-1315.5 203,-1315.5 203,-1281.5 29,-1281.5"/>
<text text-anchor="start" x="37" y="-1301.9" font-family="Helvetica,sans-Serif" font-size="12.00">jkqtpstatAddHBoxplotsAnd</text>
<text text-anchor="middle" x="116" y="-1288.9" font-family="Helvetica,sans-Serif" font-size="12.00">Outliers</text>
</a>
</g>
</g>
<!-- Node1&#45;&gt;Node8 -->
<g id="edge7" class="edge">
<title>Node1&#45;&gt;Node8</title>
<path fill="none" stroke="midnightblue" d="M318.3,-799.39C315.04,-884.36 298.49,-1202.74 232,-1272.5 224.02,-1280.87 213.96,-1286.81 203.13,-1290.99"/>
<polygon fill="midnightblue" stroke="midnightblue" points="321.81,-799.32 318.67,-789.2 314.81,-799.07 321.81,-799.32"/>
</g>
<!-- Node9 -->
<g id="node9" class="node">
<title>Node9</title>
<g id="a_node9"><a xlink:href="group__jkqtptools__math__statistics__adaptors.html#ga24ecdc76fdcbecf946828ee818f8a83a" target="_top" xlink:title="create vertical boxplots of type JKQTPBoxplotVerticalGraph, from the 5&#45;value&#45;summary of groups in the...">
<polygon fill="none" stroke="black" points="29.5,-1228.5 29.5,-1262.5 202.5,-1262.5 202.5,-1228.5 29.5,-1228.5"/>
<text text-anchor="start" x="37.5" y="-1248.9" font-family="Helvetica,sans-Serif" font-size="12.00">jkqtpstatAddVBoxplotsAnd</text>
<text text-anchor="middle" x="116" y="-1235.9" font-family="Helvetica,sans-Serif" font-size="12.00">Outliers</text>
</a>
</g>
</g>
<!-- Node1&#45;&gt;Node9 -->
<g id="edge8" class="edge">
<title>Node1&#45;&gt;Node9</title>
<path fill="none" stroke="midnightblue" d="M317.8,-799.34C312.83,-878.21 291.27,-1157.09 232,-1218.5 223.88,-1226.91 213.68,-1232.91 202.72,-1237.17"/>
<polygon fill="midnightblue" stroke="midnightblue" points="321.3,-799.39 318.41,-789.2 314.31,-798.97 321.3,-799.39"/>
</g>
<!-- Node10 -->
<g id="node10" class="node">
<title>Node10</title>
<g id="a_node10"><a xlink:href="group__jkqtptools__math__statistics__basic.html#ga6a829fb0253c9cbaf541e23c45292808" target="_top" xlink:title="calculates the average of a given data range first ... last">
<polygon fill="none" stroke="black" points="57,-1188 57,-1209 175,-1209 175,-1188 57,-1188"/>
<text text-anchor="middle" x="116" y="-1195.4" font-family="Helvetica,sans-Serif" font-size="12.00">jkqtpstatAverage</text>
</a>
</g>
</g>
<!-- Node1&#45;&gt;Node10 -->
<g id="edge9" class="edge">
<title>Node1&#45;&gt;Node10</title>
<path fill="none" stroke="midnightblue" d="M317.46,-799.42C311.55,-873.97 287.75,-1125.04 232,-1178.5 217.01,-1192.88 195.58,-1198.95 175.28,-1201.06"/>
<polygon fill="midnightblue" stroke="midnightblue" points="320.99,-799.27 318.26,-789.03 314.01,-798.73 320.99,-799.27"/>
</g>
<!-- Node11 -->
<g id="node11" class="node">
<title>Node11</title>
<g id="a_node11"><a xlink:href="group__jkqtptools__math__statistics__basic.html#gac7efa1ae9c52a2457180398451ddb955" target="_top" xlink:title="calculates the given central moment &#160;of a given data range first ... last">
<polygon fill="none" stroke="black" points="35.5,-1148 35.5,-1169 196.5,-1169 196.5,-1148 35.5,-1148"/>
<text text-anchor="middle" x="116" y="-1155.4" font-family="Helvetica,sans-Serif" font-size="12.00">jkqtpstatCentralMoment</text>
</a>
</g>
</g>
<!-- Node1&#45;&gt;Node11 -->
<g id="edge10" class="edge">
<title>Node1&#45;&gt;Node11</title>
<path fill="none" stroke="midnightblue" d="M316.95,-799.12C309.65,-868.4 282.56,-1091.13 232,-1138.5 222.17,-1147.71 209.68,-1153.49 196.59,-1157"/>
<polygon fill="midnightblue" stroke="midnightblue" points="320.45,-799.34 317.99,-789.03 313.49,-798.62 320.45,-799.34"/>
</g>
<!-- Node12 -->
<g id="node12" class="node">
<title>Node12</title>
<g id="a_node12"><a xlink:href="group__jkqtptools__math__statistics__regression.html#gaa01b3052e689312965761795abcdea4b" target="_top" xlink:title="calculates the coefficient of determination &#160;for a set of measurements &#160;with a fit function">
<polygon fill="none" stroke="black" points="0,-1108 0,-1129 232,-1129 232,-1108 0,-1108"/>
<text text-anchor="middle" x="116" y="-1115.4" font-family="Helvetica,sans-Serif" font-size="12.00">jkqtpstatCoefficientOfDetermination</text>
</a>
</g>
</g>
<!-- Node1&#45;&gt;Node12 -->
<g id="edge11" class="edge">
<title>Node1&#45;&gt;Node12</title>
<path fill="none" stroke="midnightblue" d="M316.26,-799.3C307.38,-863.6 277.27,-1057.27 232,-1098.5 227.95,-1102.18 223.48,-1105.31 218.72,-1107.97"/>
<polygon fill="midnightblue" stroke="midnightblue" points="319.76,-799.56 317.63,-789.18 312.82,-798.62 319.76,-799.56"/>
</g>
<!-- Node13 -->
<g id="node13" class="node">
<title>Node13</title>
<g id="a_node13"><a xlink:href="group__jkqtptools__math__statistics__basic.html#gaa36f983ab456720de3df86faa509afb3" target="_top" xlink:title="calculate empirical (Pearson&#39;s) correlation coefficient &#160;between two given data ranges first1 ....">
<polygon fill="none" stroke="black" points="17.5,-1068 17.5,-1089 214.5,-1089 214.5,-1068 17.5,-1068"/>
<text text-anchor="middle" x="116" y="-1075.4" font-family="Helvetica,sans-Serif" font-size="12.00">jkqtpstatCorrelationCoefficient</text>
</a>
</g>
</g>
<!-- Node1&#45;&gt;Node13 -->
<g id="edge12" class="edge">
<title>Node1&#45;&gt;Node13</title>
<path fill="none" stroke="midnightblue" d="M319.35,-799.24C319.02,-851.56 310.38,-989.64 232,-1058.5 226.75,-1063.11 220.82,-1066.85 214.5,-1069.86"/>
<polygon fill="midnightblue" stroke="midnightblue" points="322.85,-799.16 319.31,-789.17 315.85,-799.18 322.85,-799.16"/>
</g>
<!-- Node14 -->
<g id="node14" class="node">
<title>Node14</title>
<g id="a_node14"><a xlink:href="group__jkqtptools__math__statistics__basic.html#ga7a45c0892f07afc9fed51c6f0e39530c" target="_top" xlink:title="calculates the number of valid values in the given data range first ... last">
<polygon fill="none" stroke="black" points="64,-1028 64,-1049 168,-1049 168,-1028 64,-1028"/>
<text text-anchor="middle" x="116" y="-1035.4" font-family="Helvetica,sans-Serif" font-size="12.00">jkqtpstatCount</text>
</a>
</g>
</g>
<!-- Node1&#45;&gt;Node14 -->
<g id="edge13" class="edge">
<title>Node1&#45;&gt;Node14</title>
<path fill="none" stroke="midnightblue" d="M318.11,-799.42C314.89,-846.56 300.09,-961.42 232,-1018.5 214.45,-1033.21 189.99,-1038.83 168.13,-1040.52"/>
<polygon fill="midnightblue" stroke="midnightblue" points="321.61,-799.39 318.69,-789.21 314.63,-799 321.61,-799.39"/>
</g>
<!-- Node15 -->
<g id="node15" class="node">
<title>Node15</title>
<g id="a_node15"><a xlink:href="group__jkqtptools__math__statistics__basic.html#ga22494d739c137964f36c7b076d3d3600" target="_top" xlink:title="calculates the vector of cummulative (or partial) sums of a given data range first ....">
<polygon fill="none" stroke="black" points="54.5,-988 54.5,-1009 177.5,-1009 177.5,-988 54.5,-988"/>
<text text-anchor="middle" x="116" y="-995.4" font-family="Helvetica,sans-Serif" font-size="12.00">jkqtpstatCumSum</text>
</a>
</g>
</g>
<!-- Node1&#45;&gt;Node15 -->
<g id="edge14" class="edge">
<title>Node1&#45;&gt;Node15</title>
<path fill="none" stroke="midnightblue" d="M316.43,-799.31C310.16,-840.6 290.08,-932.83 232,-978.5 216.71,-990.52 196.71,-996.34 177.69,-998.92"/>
<polygon fill="midnightblue" stroke="midnightblue" points="319.91,-799.7 317.83,-789.31 312.98,-798.73 319.91,-799.7"/>
</g>
<!-- Node16 -->
<g id="node16" class="node">
<title>Node16</title>
<g id="a_node16"><a xlink:href="group__jkqtptools__math__statistics__1dkde.html#gaa05c4d4be2227655419d02a33bc834f5" target="_top" xlink:title="evaluates the Kernel Density Estimator (KDE) at a given position">
<polygon fill="none" stroke="black" points="23.5,-948 23.5,-969 208.5,-969 208.5,-948 23.5,-948"/>
<text text-anchor="middle" x="116" y="-955.4" font-family="Helvetica,sans-Serif" font-size="12.00">jkqtpstatEvaluateKernelSum</text>
</a>
</g>
</g>
<!-- Node1&#45;&gt;Node16 -->
<g id="edge15" class="edge">
<title>Node1&#45;&gt;Node16</title>
<path fill="none" stroke="midnightblue" d="M314.02,-799.21C304.49,-834.03 280.21,-903.9 232,-938.5 224.92,-943.58 216.97,-947.52 208.65,-950.55"/>
<polygon fill="midnightblue" stroke="midnightblue" points="317.49,-799.78 316.61,-789.22 310.71,-798.02 317.49,-799.78"/>
</g>
<!-- Node17 -->
<g id="node17" class="node">
<title>Node17</title>
<g id="a_node17"><a xlink:href="group__jkqtptools__math__statistics__2dkde.html#ga5a942e00c033a0125cbd6991be062e08" target="_top" xlink:title="evaluates the Kernel Density Estimator (KDE) at a given position">
<polygon fill="none" stroke="black" points="15.5,-908 15.5,-929 216.5,-929 216.5,-908 15.5,-908"/>
<text text-anchor="middle" x="116" y="-915.4" font-family="Helvetica,sans-Serif" font-size="12.00">jkqtpstatEvaluateKernelSum2D</text>
</a>
</g>
</g>
<!-- Node1&#45;&gt;Node17 -->
<g id="edge16" class="edge">
<title>Node1&#45;&gt;Node17</title>
<path fill="none" stroke="midnightblue" d="M310.37,-798.68C297.54,-826.07 270.72,-874.34 232,-898.5 225.98,-902.25 219.46,-905.36 212.69,-907.91"/>
<polygon fill="midnightblue" stroke="midnightblue" points="313.68,-799.86 314.6,-789.3 307.3,-796.98 313.68,-799.86"/>
</g>
<!-- Node18 -->
<g id="node18" class="node">
<title>Node18</title>
<g id="a_node18"><a xlink:href="group__jkqtptools__math__statistics__basic.html#ga1d09a7d78cf0bd60bf0ab63d77082377" target="_top" xlink:title="filters the given data range first ... last for good floats (using JKQTPIsOKFloat() )">
<polygon fill="none" stroke="black" points="37,-868 37,-889 195,-889 195,-868 37,-868"/>
<text text-anchor="middle" x="116" y="-875.4" font-family="Helvetica,sans-Serif" font-size="12.00">jkqtpstatFilterGoodFloat</text>
</a>
</g>
</g>
<!-- Node1&#45;&gt;Node18 -->
<g id="edge17" class="edge">
<title>Node1&#45;&gt;Node18</title>
<path fill="none" stroke="midnightblue" d="M304.53,-796.94C288.79,-815.62 261.85,-843.79 232,-858.5 220.55,-864.14 207.77,-868.22 195.01,-871.16"/>
<polygon fill="midnightblue" stroke="midnightblue" points="307.32,-799.06 310.95,-789.11 301.9,-794.62 307.32,-799.06"/>
</g>
<!-- Node19 -->
<g id="node19" class="node">
<title>Node19</title>
<g id="a_node19"><a xlink:href="group__jkqtptools__math__statistics__grouped.html#gad8a5870f70c3e43674f114b30de9ade7" target="_top" xlink:title="groups data from an input range inFirstCat / inFirstValue ... inLastCat / outFirstCat representing pa...">
<polygon fill="none" stroke="black" points="49.5,-828 49.5,-849 182.5,-849 182.5,-828 49.5,-828"/>
<text text-anchor="middle" x="116" y="-835.4" font-family="Helvetica,sans-Serif" font-size="12.00">jkqtpstatGroupData</text>
</a>
</g>
</g>
<!-- Node1&#45;&gt;Node19 -->
<g id="edge18" class="edge">
<title>Node1&#45;&gt;Node19</title>
<path fill="none" stroke="midnightblue" d="M290.7,-793.78C274.03,-802.2 252.3,-812.18 232,-818.5 216.33,-823.38 199.06,-827.17 182.77,-830.07"/>
<polygon fill="midnightblue" stroke="midnightblue" points="292.59,-796.74 299.88,-789.05 289.38,-790.52 292.59,-796.74"/>
</g>
<!-- Node20 -->
<g id="node20" class="node">
<title>Node20</title>
<g id="a_node20"><a xlink:href="group__jkqtptools__math__statistics__1dhist.html#ga29cabb76f30d38445de50a06d7964a67" target="_top" xlink:title="calculate an autoranged 1&#45;dimensional histogram from the given data range first .....">
<polygon fill="none" stroke="black" points="42.5,-788 42.5,-809 189.5,-809 189.5,-788 42.5,-788"/>
<text text-anchor="middle" x="116" y="-795.4" font-family="Helvetica,sans-Serif" font-size="12.00">jkqtpstatHistogram1D</text>
</a>
</g>
</g>
<!-- Node1&#45;&gt;Node20 -->
<g id="edge19" class="edge">
<title>Node1&#45;&gt;Node20</title>
<path fill="none" stroke="midnightblue" d="M257.78,-784.56C236.27,-786.69 211.89,-789.11 189.53,-791.32"/>
<polygon fill="midnightblue" stroke="midnightblue" points="258.16,-788.04 267.77,-783.57 257.47,-781.08 258.16,-788.04"/>
</g>
<!-- Node21 -->
<g id="node21" class="node">
<title>Node21</title>
<g id="a_node21"><a xlink:href="group__jkqtptools__math__statistics__1dhist.html#gaa83dbe625d4507f55629eaaf96a09cf8" target="_top" xlink:title="calculate an autoranged 1&#45;dimensional histogram from the given data range first .....">
<polygon fill="none" stroke="black" points="7,-748 7,-769 225,-769 225,-748 7,-748"/>
<text text-anchor="middle" x="116" y="-755.4" font-family="Helvetica,sans-Serif" font-size="12.00">jkqtpstatHistogram1DAutoranged</text>
</a>
</g>
</g>
<!-- Node1&#45;&gt;Node21 -->
<g id="edge20" class="edge">
<title>Node1&#45;&gt;Node21</title>
<path fill="none" stroke="midnightblue" d="M257.56,-772.42C246.67,-771.34 235.05,-770.19 223.33,-769.03"/>
<polygon fill="midnightblue" stroke="midnightblue" points="257.47,-775.92 267.77,-773.43 258.16,-768.96 257.47,-775.92"/>
</g>
<!-- Node22 -->
<g id="node22" class="node">
<title>Node22</title>
<g id="a_node22"><a xlink:href="group__jkqtptools__math__statistics__2dhist.html#gad8ab0d1e867375485e2c64743e12ab44" target="_top" xlink:title="calculate a 2&#45;dimensional histogram from the given data range firstX / firstY ... lastY / lastY">
<polygon fill="none" stroke="black" points="42.5,-708 42.5,-729 189.5,-729 189.5,-708 42.5,-708"/>
<text text-anchor="middle" x="116" y="-715.4" font-family="Helvetica,sans-Serif" font-size="12.00">jkqtpstatHistogram2D</text>
</a>
</g>
</g>
<!-- Node1&#45;&gt;Node22 -->
<g id="edge21" class="edge">
<title>Node1&#45;&gt;Node22</title>
<path fill="none" stroke="midnightblue" d="M290.7,-763.22C274.03,-754.8 252.3,-744.82 232,-738.5 218.55,-734.32 203.93,-730.93 189.76,-728.22"/>
<polygon fill="midnightblue" stroke="midnightblue" points="289.38,-766.48 299.88,-767.95 292.59,-760.26 289.38,-766.48"/>
</g>
<!-- Node23 -->
<g id="node23" class="node">
<title>Node23</title>
<g id="a_node23"><a xlink:href="group__jkqtptools__math__statistics__1dkde.html#gaea1ca0066c61947e8a8a7d8deaa36d3e" target="_top" xlink:title="calculate an autoranged 1&#45;dimensional Kernel Density Estimation (KDE) from the given data range first...">
<polygon fill="none" stroke="black" points="61.5,-668 61.5,-689 170.5,-689 170.5,-668 61.5,-668"/>
<text text-anchor="middle" x="116" y="-675.4" font-family="Helvetica,sans-Serif" font-size="12.00">jkqtpstatKDE1D</text>
</a>
</g>
</g>
<!-- Node1&#45;&gt;Node23 -->
<g id="edge22" class="edge">
<title>Node1&#45;&gt;Node23</title>
<path fill="none" stroke="midnightblue" d="M304.53,-760.06C288.79,-741.38 261.85,-713.21 232,-698.5 213.19,-689.23 190.79,-684.19 170.78,-681.47"/>
<polygon fill="midnightblue" stroke="midnightblue" points="301.9,-762.38 310.95,-767.89 307.32,-757.94 301.9,-762.38"/>
</g>
<!-- Node24 -->
<g id="node24" class="node">
<title>Node24</title>
<g id="a_node24"><a xlink:href="group__jkqtptools__math__statistics__regression.html#gaf81a452c8e0798f6bb4b8764dd5a2f89" target="_top" xlink:title="calculate the linear regression coefficients for a given data range firstX / firstY ....">
<polygon fill="none" stroke="black" points="31,-628 31,-649 201,-649 201,-628 31,-628"/>
<text text-anchor="middle" x="116" y="-635.4" font-family="Helvetica,sans-Serif" font-size="12.00">jkqtpstatLinearRegression</text>
</a>
</g>
</g>
<!-- Node1&#45;&gt;Node24 -->
<g id="edge23" class="edge">
<title>Node1&#45;&gt;Node24</title>
<path fill="none" stroke="midnightblue" d="M310.37,-758.32C297.54,-730.93 270.72,-682.66 232,-658.5 222.63,-652.65 212.04,-648.39 201.17,-645.3"/>
<polygon fill="midnightblue" stroke="midnightblue" points="307.3,-760.02 314.6,-767.7 313.68,-757.14 307.3,-760.02"/>
</g>
<!-- Node25 -->
<g id="node25" class="node">
<title>Node25</title>
<g id="a_node25"><a xlink:href="group__jkqtptools__math__statistics__regression.html#gab5c23e5d003ffde1fbf9a089ea454659" target="_top" xlink:title="calculate the weighted linear regression coefficients for a given for a given data range firstX / fir...">
<polygon fill="none" stroke="black" points="2.5,-588 2.5,-609 229.5,-609 229.5,-588 2.5,-588"/>
<text text-anchor="middle" x="116" y="-595.4" font-family="Helvetica,sans-Serif" font-size="12.00">jkqtpstatLinearWeightedRegression</text>
</a>
</g>
</g>
<!-- Node1&#45;&gt;Node25 -->
<g id="edge24" class="edge">
<title>Node1&#45;&gt;Node25</title>
<path fill="none" stroke="midnightblue" d="M314.02,-757.79C304.49,-722.97 280.21,-653.1 232,-618.5 226.81,-614.78 221.16,-611.67 215.24,-609.08"/>
<polygon fill="midnightblue" stroke="midnightblue" points="310.71,-758.98 316.61,-767.78 317.49,-757.22 310.71,-758.98"/>
</g>
<!-- Node26 -->
<g id="node26" class="node">
<title>Node26</title>
<g id="a_node26"><a xlink:href="group__jkqtptools__math__statistics__basic.html#ga88fd1f99cd6703268c3065d69ba6b65d" target="_top" xlink:title="calculates the maximum value in the given data range first ... last">
<polygon fill="none" stroke="black" points="52,-548 52,-569 180,-569 180,-548 52,-548"/>
<text text-anchor="middle" x="116" y="-555.4" font-family="Helvetica,sans-Serif" font-size="12.00">jkqtpstatMaximum</text>
</a>
</g>
</g>
<!-- Node1&#45;&gt;Node26 -->
<g id="edge25" class="edge">
<title>Node1&#45;&gt;Node26</title>
<path fill="none" stroke="midnightblue" d="M316.43,-757.69C310.16,-716.4 290.08,-624.17 232,-578.5 217.34,-566.98 198.37,-561.15 180.07,-558.42"/>
<polygon fill="midnightblue" stroke="midnightblue" points="312.98,-758.27 317.83,-767.69 319.91,-757.3 312.98,-758.27"/>
</g>
<!-- Node27 -->
<g id="node27" class="node">
<title>Node27</title>
<g id="a_node27"><a xlink:href="group__jkqtptools__math__statistics__basic.html#ga964efee196e2d587b30037421cdda22a" target="_top" xlink:title="calculates the minimum value in the given data range first ... last">
<polygon fill="none" stroke="black" points="54,-508 54,-529 178,-529 178,-508 54,-508"/>
<text text-anchor="middle" x="116" y="-515.4" font-family="Helvetica,sans-Serif" font-size="12.00">jkqtpstatMinimum</text>
</a>
</g>
</g>
<!-- Node1&#45;&gt;Node27 -->
<g id="edge26" class="edge">
<title>Node1&#45;&gt;Node27</title>
<path fill="none" stroke="midnightblue" d="M318.11,-757.58C314.89,-710.44 300.09,-595.58 232,-538.5 217.09,-526 197.19,-520.07 178.14,-517.53"/>
<polygon fill="midnightblue" stroke="midnightblue" points="314.63,-758 318.69,-767.79 321.61,-757.61 314.63,-758"/>
</g>
<!-- Node28 -->
<g id="node28" class="node">
<title>Node28</title>
<g id="a_node28"><a xlink:href="group__jkqtptools__math__statistics__basic.html#ga88686b7d786896c704659dc8fe4c1e7f" target="_top" xlink:title="calculates the minimum and maximum values in the given data range first ... last">
<polygon fill="none" stroke="black" points="59,-468 59,-489 173,-489 173,-468 59,-468"/>
<text text-anchor="middle" x="116" y="-475.4" font-family="Helvetica,sans-Serif" font-size="12.00">jkqtpstatMinMax</text>
</a>
</g>
</g>
<!-- Node1&#45;&gt;Node28 -->
<g id="edge27" class="edge">
<title>Node1&#45;&gt;Node28</title>
<path fill="none" stroke="midnightblue" d="M319.35,-757.76C319.02,-705.44 310.38,-567.36 232,-498.5 216.02,-484.46 193.8,-478.57 173.15,-476.51"/>
<polygon fill="midnightblue" stroke="midnightblue" points="315.85,-757.82 319.31,-767.83 322.85,-757.84 315.85,-757.82"/>
</g>
<!-- Node29 -->
<g id="node29" class="node">
<title>Node29</title>
<g id="a_node29"><a xlink:href="group__jkqtptools__math__statistics__basic.html#ga1a5771cf7fcf5dca141cba9c7249b638" target="_top" xlink:title="calculates the sum of a given data range first ... last of values, modifying each value with a given ...">
<polygon fill="none" stroke="black" points="43,-428 43,-449 189,-449 189,-428 43,-428"/>
<text text-anchor="middle" x="116" y="-435.4" font-family="Helvetica,sans-Serif" font-size="12.00">jkqtpstatModifiedSum</text>
</a>
</g>
</g>
<!-- Node1&#45;&gt;Node29 -->
<g id="edge28" class="edge">
<title>Node1&#45;&gt;Node29</title>
<path fill="none" stroke="midnightblue" d="M316.26,-757.7C307.38,-693.4 277.27,-499.73 232,-458.5 220.24,-447.79 204.88,-441.76 189.23,-438.56"/>
<polygon fill="midnightblue" stroke="midnightblue" points="312.82,-758.38 317.63,-767.82 319.76,-757.44 312.82,-758.38"/>
</g>
<!-- Node30 -->
<g id="node30" class="node">
<title>Node30</title>
<g id="a_node30"><a xlink:href="group__jkqtptools__math__statistics__basic.html#ga74e5713bdf48da9f2427cb247c65f91a" target="_top" xlink:title="calculates the given (non&#45;central) moment &#160;of a given data range first ... last">
<polygon fill="none" stroke="black" points="57,-388 57,-409 175,-409 175,-388 57,-388"/>
<text text-anchor="middle" x="116" y="-395.4" font-family="Helvetica,sans-Serif" font-size="12.00">jkqtpstatMoment</text>
</a>
</g>
</g>
<!-- Node1&#45;&gt;Node30 -->
<g id="edge29" class="edge">
<title>Node1&#45;&gt;Node30</title>
<path fill="none" stroke="midnightblue" d="M316.95,-757.88C309.65,-688.6 282.56,-465.87 232,-418.5 216.84,-404.3 195.39,-398.26 175.11,-396.13"/>
<polygon fill="midnightblue" stroke="midnightblue" points="313.49,-758.38 317.99,-767.97 320.45,-757.66 313.49,-758.38"/>
</g>
<!-- Node31 -->
<g id="node31" class="node">
<title>Node31</title>
<g id="a_node31"><a xlink:href="group__jkqtptools__math__statistics__poly.html#gaccc77ac9938ce987c232f5bee76b753d" target="_top" xlink:title="fits (in a least&#45;squares sense) a polynomial &#160;of order P to a set of N data pairs">
<polygon fill="none" stroke="black" points="63,-348 63,-369 169,-369 169,-348 63,-348"/>
<text text-anchor="middle" x="116" y="-355.4" font-family="Helvetica,sans-Serif" font-size="12.00">jkqtpstatPolyFit</text>
</a>
</g>
</g>
<!-- Node1&#45;&gt;Node31 -->
<g id="edge30" class="edge">
<title>Node1&#45;&gt;Node31</title>
<path fill="none" stroke="midnightblue" d="M317.46,-757.58C311.55,-683.03 287.75,-431.96 232,-378.5 215.47,-362.65 191.13,-356.9 169.09,-355.41"/>
<polygon fill="midnightblue" stroke="midnightblue" points="314.01,-758.27 318.26,-767.97 320.99,-757.73 314.01,-758.27"/>
</g>
<!-- Node32 -->
<g id="node32" class="node">
<title>Node32</title>
<g id="a_node32"><a xlink:href="group__jkqtptools__math__statistics__basic.html#ga1bd073c3c990799502c27c9c12c5062c" target="_top" xlink:title="calculates the skewness &#160;of a given data range first ... last">
<polygon fill="none" stroke="black" points="52.5,-308 52.5,-329 179.5,-329 179.5,-308 52.5,-308"/>
<text text-anchor="middle" x="116" y="-315.4" font-family="Helvetica,sans-Serif" font-size="12.00">jkqtpstatSkewness</text>
</a>
</g>
</g>
<!-- Node1&#45;&gt;Node32 -->
<g id="edge31" class="edge">
<title>Node1&#45;&gt;Node32</title>
<path fill="none" stroke="midnightblue" d="M317.91,-757.56C313.34,-678.29 293.04,-398.15 232,-338.5 218.16,-324.97 198.64,-318.76 179.61,-316.28"/>
<polygon fill="midnightblue" stroke="midnightblue" points="314.43,-757.95 318.47,-767.74 321.41,-757.56 314.43,-757.95"/>
</g>
<!-- Node33 -->
<g id="node33" class="node">
<title>Node33</title>
<g id="a_node33"><a xlink:href="group__jkqtptools__math__statistics__regression.html#gaf06c7da956ec353a2ce4de010f83a777" target="_top" xlink:title="calculates the sum of deviations &#160;for a set of measurements &#160;with a fit function">
<polygon fill="none" stroke="black" points="30,-268 30,-289 202,-289 202,-268 30,-268"/>
<text text-anchor="middle" x="116" y="-275.4" font-family="Helvetica,sans-Serif" font-size="12.00">jkqtpstatSumOfDeviations</text>
</a>
</g>
</g>
<!-- Node1&#45;&gt;Node33 -->
<g id="edge32" class="edge">
<title>Node1&#45;&gt;Node33</title>
<path fill="none" stroke="midnightblue" d="M318.28,-757.56C314.97,-673.83 298.36,-364.39 232,-298.5 223.73,-290.29 213.38,-284.76 202.29,-281.12"/>
<polygon fill="midnightblue" stroke="midnightblue" points="314.79,-757.77 318.66,-767.63 321.78,-757.51 314.79,-757.77"/>
</g>
<!-- Node34 -->
<g id="node34" class="node">
<title>Node34</title>
<g id="a_node34"><a xlink:href="group__jkqtptools__math__statistics__basic.html#gafc723ba91ee70e37765f209b453ab51c" target="_top" xlink:title="calculates the variance &#160;of a given data range first ... last">
<polygon fill="none" stroke="black" points="55.5,-228 55.5,-249 176.5,-249 176.5,-228 55.5,-228"/>
<text text-anchor="middle" x="116" y="-235.4" font-family="Helvetica,sans-Serif" font-size="12.00">jkqtpstatVariance</text>
</a>
</g>
</g>
<!-- Node1&#45;&gt;Node34 -->
<g id="edge33" class="edge">
<title>Node1&#45;&gt;Node34</title>
<path fill="none" stroke="midnightblue" d="M318.6,-757.54C316.48,-669.48 303.7,-330.66 232,-258.5 217.57,-243.98 196.63,-237.81 176.56,-235.65"/>
<polygon fill="midnightblue" stroke="midnightblue" points="315.1,-757.71 318.82,-767.63 322.1,-757.56 315.1,-757.71"/>
</g>
<!-- Node35 -->
<g id="node35" class="node">
<title>Node35</title>
<g id="a_node35"><a xlink:href="group__jkqtptools__math__statistics__basic.html#ga496e477dda2d28360b30c53d19ed4d7a" target="_top" xlink:title="calculates the weighted average of a given data range first ... last">
<polygon fill="none" stroke="black" points="29,-188 29,-209 203,-209 203,-188 29,-188"/>
<text text-anchor="middle" x="116" y="-195.4" font-family="Helvetica,sans-Serif" font-size="12.00">jkqtpstatWeightedAverage</text>
</a>
</g>
</g>
<!-- Node1&#45;&gt;Node35 -->
<g id="edge34" class="edge">
<title>Node1&#45;&gt;Node35</title>
<path fill="none" stroke="midnightblue" d="M318.88,-757.72C317.89,-665.82 309.1,-297 232,-218.5 223.98,-210.33 213.89,-204.79 203.05,-201.12"/>
<polygon fill="midnightblue" stroke="midnightblue" points="315.38,-757.76 318.96,-767.73 322.38,-757.7 315.38,-757.76"/>
</g>
<!-- Node36 -->
<g id="node36" class="node">
<title>Node36</title>
<g id="a_node36"><a xlink:href="group__jkqtptools__math__statistics__regression.html#ga044f7aba2b1b1bd4bc252d92f11f995b" target="_top" xlink:title="calculates the weightedcoefficient of determination &#160;for a set of measurements &#160;with a fit function">
<polygon fill="none" stroke="black" points="22,-134.5 22,-168.5 210,-168.5 210,-134.5 22,-134.5"/>
<text text-anchor="start" x="30" y="-154.9" font-family="Helvetica,sans-Serif" font-size="12.00">jkqtpstatWeightedCoefficient</text>
<text text-anchor="middle" x="116" y="-141.9" font-family="Helvetica,sans-Serif" font-size="12.00">OfDetermination</text>
</a>
</g>
</g>
<!-- Node1&#45;&gt;Node36 -->
<g id="edge35" class="edge">
<title>Node1&#45;&gt;Node36</title>
<path fill="none" stroke="midnightblue" d="M319,-757.9C318.58,-662.63 311.98,-265.72 232,-178.5 225.83,-171.77 218.33,-166.57 210.15,-162.56"/>
<polygon fill="midnightblue" stroke="midnightblue" points="315.5,-757.99 319.03,-767.98 322.5,-757.97 315.5,-757.99"/>
</g>
<!-- Node37 -->
<g id="node37" class="node">
<title>Node37</title>
<g id="a_node37"><a xlink:href="group__jkqtptools__math__statistics__regression.html#ga779070dee90458063383566992c0138a" target="_top" xlink:title="calculates the weighted sum of deviations &#160;for a set of measurements &#160;with a fit function">
<polygon fill="none" stroke="black" points="2,-94 2,-115 230,-115 230,-94 2,-94"/>
<text text-anchor="middle" x="116" y="-101.4" font-family="Helvetica,sans-Serif" font-size="12.00">jkqtpstatWeightedSumOfDeviations</text>
</a>
</g>
</g>
<!-- Node1&#45;&gt;Node37 -->
<g id="edge36" class="edge">
<title>Node1&#45;&gt;Node37</title>
<path fill="none" stroke="midnightblue" d="M319.37,-757.28C320.7,-655.57 321.08,-218.98 232,-125.5 228.08,-121.39 223.64,-117.92 218.84,-115.01"/>
<polygon fill="midnightblue" stroke="midnightblue" points="315.87,-757.46 319.22,-767.51 322.87,-757.56 315.87,-757.46"/>
</g>
<!-- Node38 -->
<g id="node38" class="node">
<title>Node38</title>
<g id="a_node38"><a xlink:href="group__jkqtptools__math__statistics__basic.html#gac5dddaa1510f3cfb272819ee26d21aeb" target="_top" xlink:title="calculates the weighted variance &#160;of a given data range first ... last">
<polygon fill="none" stroke="black" points="27.5,-54 27.5,-75 204.5,-75 204.5,-54 27.5,-54"/>
<text text-anchor="middle" x="116" y="-61.4" font-family="Helvetica,sans-Serif" font-size="12.00">jkqtpstatWeightedVariance</text>
</a>
</g>
</g>
<!-- Node1&#45;&gt;Node38 -->
<g id="edge37" class="edge">
<title>Node1&#45;&gt;Node38</title>
<path fill="none" stroke="midnightblue" d="M317.85,-757.81C311.57,-647.82 279.85,-134.68 232,-84.5 224.45,-76.58 214.97,-71.11 204.7,-67.41"/>
<polygon fill="midnightblue" stroke="midnightblue" points="314.37,-758.15 318.42,-767.94 321.36,-757.76 314.37,-758.15"/>
</g>
<!-- Node39 -->
<g id="node39" class="node">
<title>Node39</title>
<g id="a_node39"><a xlink:href="class_j_k_q_t_p_contour_plot.html#ab1747fb56fb8f7ca406d34ffea3feaa6" target="_top" xlink:title="sets new contour levels from a container levels">
<polygon fill="none" stroke="black" points="17.5,-0.5 17.5,-34.5 214.5,-34.5 214.5,-0.5 17.5,-0.5"/>
<text text-anchor="start" x="25.5" y="-20.9" font-family="Helvetica,sans-Serif" font-size="12.00">JKQTPContourPlot::setContour</text>
<text text-anchor="middle" x="116" y="-7.9" font-family="Helvetica,sans-Serif" font-size="12.00">Levels</text>
</a>
</g>
</g>
<!-- Node1&#45;&gt;Node39 -->
<g id="edge38" class="edge">
<title>Node1&#45;&gt;Node39</title>
<path fill="none" stroke="midnightblue" d="M317.94,-757.75C311.98,-644.02 280.97,-99.32 232,-44.5 227.01,-38.92 221.11,-34.38 214.65,-30.7"/>
<polygon fill="midnightblue" stroke="midnightblue" points="314.46,-758.1 318.47,-767.91 321.45,-757.74 314.46,-758.1"/>
</g>
</g>
</svg>
        <g id="navigator" transform="translate(0 0)" fill="#404254">
                <rect fill="#f2f5e9" fill-opacity="0.5" stroke="#606060" stroke-width=".5" x="0" y="0" width="60" height="60"/>
                <use id="zoomplus" xlink:href="#zoomPlus" x="17" y="9" onmousedown="handleZoom(evt,'in')"/>
                <use id="zoomminus" xlink:href="#zoomMin" x="42" y="9" onmousedown="handleZoom(evt,'out')"/>
                <use id="reset" xlink:href="#resetDef" x="30" y="36" onmousedown="handleReset()"/>
                <g id="arrowUp" xlink:href="#dirArrow" transform="translate(30 24)" onmousedown="handlePan(0,-1)">
                  <use xlink:href="#rim" fill="#404040">
                        <set attributeName="fill" to="#808080" begin="arrowUp.mouseover" end="arrowUp.mouseout"/>
                  </use>
                  <path fill="none" stroke="white" stroke-width="1.5" d="M0,-3.0v7 M-2.5,-0.5L0,-3.0L2.5,-0.5"/>
                </g>
                <g id="arrowRight" xlink:href="#dirArrow" transform="rotate(90) translate(36 -43)" onmousedown="handlePan(1,0)">
                  <use xlink:href="#rim" fill="#404040">
                        <set attributeName="fill" to="#808080" begin="arrowRight.mouseover" end="arrowRight.mouseout"/>
                  </use>
                  <path fill="none" stroke="white" stroke-width="1.5" d="M0,-3.0v7 M-2.5,-0.5L0,-3.0L2.5,-0.5"/>
                </g>
                <g id="arrowDown" xlink:href="#dirArrow" transform="rotate(180) translate(-30 -48)" onmousedown="handlePan(0,1)">
                  <use xlink:href="#rim" fill="#404040">
                        <set attributeName="fill" to="#808080" begin="arrowDown.mouseover" end="arrowDown.mouseout"/>
                  </use>
                  <path fill="none" stroke="white" stroke-width="1.5" d="M0,-3.0v7 M-2.5,-0.5L0,-3.0L2.5,-0.5"/>
                </g>
                <g id="arrowLeft" xlink:href="#dirArrow" transform="rotate(270) translate(-36 17)" onmousedown="handlePan(-1,0)">
                  <use xlink:href="#rim" fill="#404040">
                        <set attributeName="fill" to="#808080" begin="arrowLeft.mouseover" end="arrowLeft.mouseout"/>
                  </use>
                  <path fill="none" stroke="white" stroke-width="1.5" d="M0,-3.0v7 M-2.5,-0.5L0,-3.0L2.5,-0.5"/>
                </g>
        </g>
        <svg viewBox="0 0 15 15" width="100%" height="30px" preserveAspectRatio="xMaxYMin meet">
         <g id="arrow_out" transform="scale(0.3 0.3)">
          <a xlink:href="group__jkqtptools__math__basic_ga966c1a713f60bd026db4f35f7007eb7e_icgraph_org.svg" target="_base">
           <rect id="button" ry="5" rx="5" y="6" x="6" height="38" width="38"
                fill="#f2f5e9" fill-opacity="0.5" stroke="#606060" stroke-width="1.0"/>
           <path id="arrow"
             d="M 11.500037,31.436501 C 11.940474,20.09759 22.043105,11.32322 32.158766,21.979434 L 37.068811,17.246167 C 37.068811,17.246167 37.088388,32 37.088388,32 L 22.160133,31.978069 C 22.160133,31.978069 26.997745,27.140456 26.997745,27.140456 C 18.528582,18.264221 13.291696,25.230495 11.500037,31.436501 z"
             style="fill:#404040;"/>
          </a>
         </g>
        </svg>
</svg>
