<?xml version="1.0" encoding="UTF-8" standalone="no"?>
<!DOCTYPE svg PUBLIC "-//W3C//DTD SVG 1.1//EN"
 "http://www.w3.org/Graphics/SVG/1.1/DTD/svg11.dtd">
<!-- Generated by graphviz version 2.43.0 (0)
 -->
<!-- Title: JKQTCommon: Diverse Basic Utilities Pages: 1 -->
<!--zoomable 501 -->

<svg id="main" version="1.1" xmlns="http://www.w3.org/2000/svg" xmlns:xlink="http://www.w3.org/1999/xlink" xml:space="preserve" onload="init(evt)">
<style type="text/css"><![CDATA[
.node, .edge {opacity: 0.7;}
.node.selected, .edge.selected {opacity: 1;}
.edge:hover path { stroke: red; }
.edge:hover polygon { stroke: red; fill: red; }
]]></style>

<defs>
  <circle id="rim" cx="0" cy="0" r="7"/>
  <circle id="rim2" cx="0" cy="0" r="3.5"/>
  <g id="zoomPlus">
    <use xlink:href="#rim" fill="#404040"><set attributeName="fill" to="#808080" begin="zoomplus.mouseover" end="zoomplus.mouseout"/></use>
    <path d="M-4,0h8M0,-4v8" fill="none" stroke="white" stroke-width="1.5" pointer-events="none"/>
  </g>
  <g id="zoomMin">
    <use xlink:href="#rim" fill="#404040"><set attributeName="fill" to="#808080" begin="zoomminus.mouseover" end="zoomminus.mouseout"/></use>
    <path d="M-4,0h8" fill="none" stroke="white" stroke-width="1.5" pointer-events="none"/>
  </g>
  <g id="arrowUp" transform="translate(30 24)">
    <use xlink:href="#rim"/>
    <path pointer-events="none" fill="none" stroke="white" stroke-width="1.5" d="M0,-3.0v7 M-2.5,-0.5L0,-3.0L2.5,-0.5"/>
  </g>
  <g id="arrowRight" transform="rotate(90) translate(36 -43)">
    <use xlink:href="#rim"/>
    <path pointer-events="none" fill="none" stroke="white" stroke-width="1.5" d="M0,-3.0v7 M-2.5,-0.5L0,-3.0L2.5,-0.5"/>
  </g>
  <g id="arrowDown" transform="rotate(180) translate(-30 -48)">
    <use xlink:href="#rim"/>
    <path pointer-events="none" fill="none" stroke="white" stroke-width="1.5" d="M0,-3.0v7 M-2.5,-0.5L0,-3.0L2.5,-0.5"/>
  </g>
  <g id="arrowLeft" transform="rotate(270) translate(-36 17)">
    <use xlink:href="#rim"/>
    <path pointer-events="none" fill="none" stroke="white" stroke-width="1.5" d="M0,-3.0v7 M-2.5,-0.5L0,-3.0L2.5,-0.5"/>
  </g>
  <g id="resetDef">
    <use xlink:href="#rim2" fill="#404040"><set attributeName="fill" to="#808080" begin="reset.mouseover" end="reset.mouseout"/></use>
  </g>
</defs>
<script type="application/ecmascript">
var viewWidth = 363;
var viewHeight = 501;
var sectionId = 'dynsection-0';
</script>
<script type="application/ecmascript" xlink:href="svg.min.js"/>
<svg id="graph" class="graph">
<g id="viewport">
<title>JKQTCommon: Diverse Basic Utilities</title>
<!-- Node3 -->
<g id="Node000003" class="node">
<title>Node3</title>
<g id="a_Node000003"><a xlink:href="group__jkqtptools__codestructuring.html" target="_top" xlink:title=" ">
<polygon fill="white" stroke="#666666" points="347,-492.5 196,-492.5 196,-471.5 347,-471.5 347,-492.5"/>
<text text-anchor="middle" x="271.5" y="-478.9" font-family="Helvetica,sans-Serif" font-size="12.00">Code Structuring Tools</text>
</a>
</g>
</g>
<!-- Node12 -->
<g id="Node000012" class="node">
<title>Node12</title>
<g id="a_Node000012"><a xlink:href="group__jkqtptools__concurrency.html" target="_top" xlink:title=" ">
<polygon fill="white" stroke="#666666" points="353.5,-453 189.5,-453 189.5,-419 353.5,-419 353.5,-453"/>
<text text-anchor="start" x="197.5" y="-439.4" font-family="Helvetica,sans-Serif" font-size="12.00">Tools, Templates and</text>
<text text-anchor="middle" x="271.5" y="-426.4" font-family="Helvetica,sans-Serif" font-size="12.00"> Classes for Concurrency</text>
</a>
</g>
</g>
<!-- Node4 -->
<g id="Node000004" class="node">
<title>Node4</title>
<g id="a_Node000004"><a xlink:href="group__jkqtptools__debugging.html" target="_top" xlink:title=" ">
<polygon fill="white" stroke="#666666" points="328.5,-400.5 214.5,-400.5 214.5,-379.5 328.5,-379.5 328.5,-400.5"/>
<text text-anchor="middle" x="271.5" y="-386.9" font-family="Helvetica,sans-Serif" font-size="12.00">Debugging Tools</text>
</a>
</g>
</g>
<!-- Node5 -->
<g id="Node000005" class="node">
<title>Node5</title>
<g id="a_Node000005"><a xlink:href="group__jkqtptools__drawing.html" target="_top" xlink:title=" ">
<polygon fill="white" stroke="#666666" points="339,-361 204,-361 204,-327 339,-327 339,-361"/>
<text text-anchor="start" x="212" y="-347.4" font-family="Helvetica,sans-Serif" font-size="12.00">Drawing &amp; Graphics</text>
<text text-anchor="middle" x="271.5" y="-334.4" font-family="Helvetica,sans-Serif" font-size="12.00"> Tools</text>
</a>
</g>
</g>
<!-- Node6 -->
<g id="Node000006" class="node">
<title>Node6</title>
<g id="a_Node000006"><a xlink:href="group__jkqtptools__general.html" target="_top" xlink:title=" ">
<polygon fill="white" stroke="#666666" points="340,-309 203,-309 203,-275 340,-275 340,-309"/>
<text text-anchor="start" x="211" y="-295.4" font-family="Helvetica,sans-Serif" font-size="12.00">General Functions &amp;</text>
<text text-anchor="middle" x="271.5" y="-282.4" font-family="Helvetica,sans-Serif" font-size="12.00"> Tools</text>
</a>
</g>
</g>
<!-- Node9 -->
<g id="Node000009" class="node">
<title>Node9</title>
<g id="a_Node000009"><a xlink:href="group__jkqtptools__icons.html" target="_top" xlink:title=" ">
<polygon fill="white" stroke="#666666" points="355,-256.5 188,-256.5 188,-235.5 355,-235.5 355,-256.5"/>
<text text-anchor="middle" x="271.5" y="-242.9" font-family="Helvetica,sans-Serif" font-size="12.00">Special QIcon generation</text>
</a>
</g>
</g>
<!-- Node1 -->
<g id="Node000001" class="node">
<title>Node1</title>
<g id="a_Node000001"><a xlink:title=" ">
<polygon fill="#999999" stroke="#666666" points="152,-263 0,-263 0,-229 152,-229 152,-263"/>
<text text-anchor="start" x="8" y="-249.4" font-family="Helvetica,sans-Serif" font-size="12.00">JKQTCommon: Diverse</text>
<text text-anchor="middle" x="76" y="-236.4" font-family="Helvetica,sans-Serif" font-size="12.00"> Basic Utilities</text>
</a>
</g>
</g>
<!-- Node1&#45;&gt;Node3 -->
<g id="edge2" class="edge">
<title>Node1&#45;&gt;Node3</title>
<path fill="none" stroke="black" d="M83.09,-273C94.94,-319.13 125.61,-412.88 188,-462 192.86,-465.83 198.35,-468.94 204.13,-471.47"/>
<polygon fill="black" stroke="black" points="86.45,-272 80.66,-263.13 79.65,-273.68 86.45,-272"/>
</g>
<!-- Node1&#45;&gt;Node12 -->
<g id="edge11" class="edge">
<title>Node1&#45;&gt;Node12</title>
<path fill="none" stroke="black" d="M88.16,-272.62C104.7,-308.92 139.12,-373.56 188,-410 192.58,-413.41 197.61,-416.38 202.87,-418.97"/>
<polygon fill="black" stroke="black" points="91.22,-270.91 83.97,-263.18 84.83,-273.74 91.22,-270.91"/>
</g>
<!-- Node1&#45;&gt;Node4 -->
<g id="edge3" class="edge">
<title>Node1&#45;&gt;Node4</title>
<path fill="none" stroke="black" d="M93.24,-272.05C112.38,-300.53 146.84,-345.37 188,-370 195.97,-374.77 205.01,-378.4 214.12,-381.17"/>
<polygon fill="black" stroke="black" points="95.99,-269.87 87.58,-263.43 90.14,-273.71 95.99,-269.87"/>
</g>
<!-- Node1&#45;&gt;Node5 -->
<g id="edge4" class="edge">
<title>Node1&#45;&gt;Node5</title>
<path fill="none" stroke="black" d="M107.45,-268.98C129.05,-284.45 159.2,-304.43 188,-318 194.93,-321.26 202.37,-324.26 209.85,-326.97"/>
<polygon fill="black" stroke="black" points="109.47,-266.12 99.33,-263.08 105.36,-271.78 109.47,-266.12"/>
</g>
<!-- Node1&#45;&gt;Node6 -->
<g id="edge5" class="edge">
<title>Node1&#45;&gt;Node6</title>
<path fill="none" stroke="black" d="M158.81,-265.45C173.43,-268.92 188.52,-272.51 202.69,-275.88"/>
<polygon fill="black" stroke="black" points="159.32,-261.97 148.78,-263.06 157.7,-268.78 159.32,-261.97"/>
</g>
<!-- Node1&#45;&gt;Node9 -->
<g id="edge8" class="edge">
<title>Node1&#45;&gt;Node9</title>
<path fill="none" stroke="black" d="M162.32,-246C170.76,-246 179.33,-246 187.75,-246"/>
<polygon fill="black" stroke="black" points="162.09,-242.5 152.09,-246 162.09,-249.5 162.09,-242.5"/>
</g>
<!-- Node7 -->
<g id="Node000007" class="node">
<title>Node7</title>
<g id="a_Node000007"><a xlink:href="group__jkqtptools__libfacilities.html" target="_top" xlink:title=" ">
<polygon fill="white" stroke="#666666" points="333.5,-217 209.5,-217 209.5,-183 333.5,-183 333.5,-217"/>
<text text-anchor="start" x="217.5" y="-203.4" font-family="Helvetica,sans-Serif" font-size="12.00">Library Facilities</text>
<text text-anchor="middle" x="271.5" y="-190.4" font-family="Helvetica,sans-Serif" font-size="12.00"> for JKQTCommon</text>
</a>
</g>
</g>
<!-- Node1&#45;&gt;Node7 -->
<g id="edge6" class="edge">
<title>Node1&#45;&gt;Node7</title>
<path fill="none" stroke="black" d="M158.68,-226.58C175.64,-222.55 193.24,-218.37 209.32,-214.54"/>
<polygon fill="black" stroke="black" points="157.7,-223.22 148.78,-228.94 159.32,-230.03 157.7,-223.22"/>
</g>
<!-- Node8 -->
<g id="Node000008" class="node">
<title>Node8</title>
<g id="a_Node000008"><a xlink:href="group__jkqtptools__math__basic.html" target="_top" xlink:title=" ">
<polygon fill="white" stroke="#666666" points="350.5,-165 192.5,-165 192.5,-131 350.5,-131 350.5,-165"/>
<text text-anchor="start" x="200.5" y="-151.4" font-family="Helvetica,sans-Serif" font-size="12.00">Mathematical Functions</text>
<text text-anchor="middle" x="271.5" y="-138.4" font-family="Helvetica,sans-Serif" font-size="12.00"> &amp; Tools</text>
</a>
</g>
</g>
<!-- Node1&#45;&gt;Node8 -->
<g id="edge7" class="edge">
<title>Node1&#45;&gt;Node8</title>
<path fill="none" stroke="black" d="M107.45,-223.02C129.05,-207.55 159.2,-187.57 188,-174 194.93,-170.74 202.37,-167.74 209.85,-165.03"/>
<polygon fill="black" stroke="black" points="105.36,-220.22 99.33,-228.92 109.47,-225.88 105.36,-220.22"/>
</g>
<!-- Node11 -->
<g id="Node000011" class="node">
<title>Node11</title>
<g id="a_Node000011"><a xlink:href="group__jkqtptools__qt.html" target="_top" xlink:title=" ">
<polygon fill="white" stroke="#666666" points="354,-112.5 189,-112.5 189,-91.5 354,-91.5 354,-112.5"/>
<text text-anchor="middle" x="271.5" y="-98.9" font-family="Helvetica,sans-Serif" font-size="12.00">Tools around Qt&#39;s clasess</text>
</a>
</g>
</g>
<!-- Node1&#45;&gt;Node11 -->
<g id="edge10" class="edge">
<title>Node1&#45;&gt;Node11</title>
<path fill="none" stroke="black" d="M93.24,-219.95C112.38,-191.47 146.84,-146.63 188,-122 194.45,-118.14 201.6,-115.02 208.93,-112.51"/>
<polygon fill="black" stroke="black" points="90.14,-218.29 87.58,-228.57 95.99,-222.13 90.14,-218.29"/>
</g>
<!-- Node2 -->
<g id="Node000002" class="node">
<title>Node2</title>
<g id="a_Node000002"><a xlink:href="group__jkqtptools__qtwidgets.html" target="_top" xlink:title=" ">
<polygon fill="white" stroke="#666666" points="344,-73.5 199,-73.5 199,-52.5 344,-52.5 344,-73.5"/>
<text text-anchor="middle" x="271.5" y="-59.9" font-family="Helvetica,sans-Serif" font-size="12.00">Additional Qt Widgets</text>
</a>
</g>
</g>
<!-- Node1&#45;&gt;Node2 -->
<g id="edge1" class="edge">
<title>Node1&#45;&gt;Node2</title>
<path fill="none" stroke="black" d="M87.74,-219.35C103.88,-182.78 137.95,-117.64 188,-83 193.57,-79.14 199.81,-76.02 206.29,-73.51"/>
<polygon fill="black" stroke="black" points="84.38,-218.29 83.66,-228.86 90.82,-221.05 84.38,-218.29"/>
</g>
<!-- Node10 -->
<g id="Node000010" class="node">
<title>Node10</title>
<g id="a_Node000010"><a xlink:href="group__jkqtptools__string.html" target="_top" xlink:title=" ">
<polygon fill="white" stroke="#666666" points="337.5,-34 205.5,-34 205.5,0 337.5,0 337.5,-34"/>
<text text-anchor="start" x="213.5" y="-20.4" font-family="Helvetica,sans-Serif" font-size="12.00">String(&#45;Conversion)</text>
<text text-anchor="middle" x="271.5" y="-7.4" font-family="Helvetica,sans-Serif" font-size="12.00"> Functions</text>
</a>
</g>
</g>
<!-- Node1&#45;&gt;Node10 -->
<g id="edge9" class="edge">
<title>Node1&#45;&gt;Node10</title>
<path fill="none" stroke="black" d="M84.68,-219.07C98.34,-175.91 130.94,-91.31 188,-44 193.22,-39.67 199.15,-36.03 205.39,-32.97"/>
<polygon fill="black" stroke="black" points="81.26,-218.27 81.68,-228.86 87.96,-220.32 81.26,-218.27"/>
</g>
</g>
</svg>

<g id="navigator" transform="translate(0 0)" fill="#404254">
  <rect fill="#f2f5e9" fill-opacity="0.5" stroke="#606060" stroke-width=".5" x="0" y="0" width="60" height="60"/>
  <use id="zoomplus" xlink:href="#zoomPlus" x="17" y="9" onmousedown="handleZoom(evt,'in')"/>
  <use id="zoomminus" xlink:href="#zoomMin" x="42" y="9" onmousedown="handleZoom(evt,'out')"/>
  <use id="reset" xlink:href="#resetDef" x="30" y="36" onmousedown="handleReset()"/>
   <use id="arrowup" xlink:href="#arrowUp" x="0" y="0" onmousedown="handlePan(0,-1)"/>
  <use id="arrowright" xlink:href="#arrowRight" x="0" y="0" onmousedown="handlePan(1,0)"/>
  <use id="arrowdown" xlink:href="#arrowDown" x="0" y="0" onmousedown="handlePan(0,1)"/>
  <use id="arrowleft" xlink:href="#arrowLeft" x="0" y="0" onmousedown="handlePan(-1,0)"/>
</g>
<svg viewBox="0 0 15 15" width="100%" height="30px" preserveAspectRatio="xMaxYMin meet">
 <g id="arrow_out" transform="scale(0.3 0.3)">
  <a xlink:href="group__jkqtptools__jkqtcommon_org.svg" target="_base">
   <rect id="button" ry="5" rx="5" y="6" x="6" height="38" width="38"
        fill="#f2f5e9" fill-opacity="0.5" stroke="#606060" stroke-width="1.0"/>
   <path id="arrow"
     d="M 11.500037,31.436501 C 11.940474,20.09759 22.043105,11.32322 32.158766,21.979434 L 37.068811,17.246167 C 37.068811,17.246167 37.088388,32 37.088388,32 L 22.160133,31.978069 C 22.160133,31.978069 26.997745,27.140456 26.997745,27.140456 C 18.528582,18.264221 13.291696,25.230495 11.500037,31.436501 z"
     style="fill:#404040;"/>
  </a>
 </g>
</svg>

<style type='text/css'>
<![CDATA[
[data-mouse-over-selected='false'] { opacity: 0.7; }
[data-mouse-over-selected='true']  { opacity: 1.0; }
]]>
</style>
<script type="application/ecmascript"><![CDATA[
document.addEventListener('DOMContentLoaded', (event) => {
  highlightEdges();
  highlightAdjacentNodes();
});
]]></script>
</svg>
