<?xml version="1.0" encoding="UTF-8" standalone="no"?>
<!DOCTYPE svg PUBLIC "-//W3C//DTD SVG 1.1//EN"
 "http://www.w3.org/Graphics/SVG/1.1/DTD/svg11.dtd">
<!-- Generated by graphviz version 2.43.0 (0)
 -->
<!-- Title: JKQTPlotter: Qt based Scientific Plotter Class Pages: 1 -->
<svg width="346pt" height="316pt"
 viewBox="0.00 0.00 346.00 316.00" xmlns="http://www.w3.org/2000/svg" xmlns:xlink="http://www.w3.org/1999/xlink">
<g id="graph0" class="graph" transform="scale(1 1) rotate(0) translate(4 312)">
<title>JKQTPlotter: Qt based Scientific Plotter Class</title>
<!-- Node2 -->
<g id="node1" class="node">
<title>Node2</title>
<g id="a_node1"><a xlink:href="group__jkqtpdatastorage.html" target="_top" xlink:title=" ">
<polygon fill="none" stroke="black" points="335,-308 191,-308 191,-274 335,-274 335,-308"/>
<text text-anchor="start" x="199" y="-294.4" font-family="Helvetica,sans-Serif" font-size="12.00">Data Storage Classes</text>
<text text-anchor="middle" x="263" y="-281.4" font-family="Helvetica,sans-Serif" font-size="12.00">/System</text>
</a>
</g>
</g>
<!-- Node1 -->
<g id="node2" class="node">
<title>Node1</title>
<g id="a_node2"><a xlink:title=" ">
<polygon fill="#bfbfbf" stroke="black" points="152,-184 0,-184 0,-150 152,-150 152,-184"/>
<text text-anchor="start" x="8" y="-170.4" font-family="Helvetica,sans-Serif" font-size="12.00">JKQTPlotter: Qt based</text>
<text text-anchor="middle" x="76" y="-157.4" font-family="Helvetica,sans-Serif" font-size="12.00"> Scientific Plotter Class</text>
</a>
</g>
</g>
<!-- Node1&#45;&gt;Node2 -->
<g id="edge1" class="edge">
<title>Node1&#45;&gt;Node2</title>
<path fill="none" stroke="black" d="M99.25,-191.41C120.3,-213.26 153.69,-244.87 188,-265 193.64,-268.31 199.76,-271.29 205.99,-273.95"/>
<polygon fill="black" stroke="black" points="101.76,-188.98 92.34,-184.13 96.68,-193.79 101.76,-188.98"/>
</g>
<!-- Node4 -->
<g id="node3" class="node">
<title>Node4</title>
<g id="a_node3"><a xlink:href="group__jkqtplotter__elements.html" target="_top" xlink:title=" ">
<polygon fill="none" stroke="black" points="312,-255.5 214,-255.5 214,-234.5 312,-234.5 312,-255.5"/>
<text text-anchor="middle" x="263" y="-241.9" font-family="Helvetica,sans-Serif" font-size="12.00">Plot Elements</text>
</a>
</g>
</g>
<!-- Node1&#45;&gt;Node4 -->
<g id="edge3" class="edge">
<title>Node1&#45;&gt;Node4</title>
<path fill="none" stroke="black" d="M113.53,-189.25C134.69,-201.41 162.18,-215.99 188,-226 196.29,-229.21 205.3,-232.05 214.1,-234.48"/>
<polygon fill="black" stroke="black" points="115.27,-186.21 104.87,-184.2 111.75,-192.26 115.27,-186.21"/>
</g>
<!-- Node3 -->
<g id="node4" class="node">
<title>Node3</title>
<g id="a_node4"><a xlink:href="group__jkqtplotter__general.html" target="_top" xlink:title=" ">
<polygon fill="none" stroke="black" points="331.5,-216.5 194.5,-216.5 194.5,-195.5 331.5,-195.5 331.5,-216.5"/>
<text text-anchor="middle" x="263" y="-202.9" font-family="Helvetica,sans-Serif" font-size="12.00">General Information</text>
</a>
</g>
</g>
<!-- Node1&#45;&gt;Node3 -->
<g id="edge2" class="edge">
<title>Node1&#45;&gt;Node3</title>
<path fill="none" stroke="black" d="M162.22,-184.96C179.24,-188.55 196.6,-192.21 211.97,-195.45"/>
<polygon fill="black" stroke="black" points="162.75,-181.5 152.25,-182.86 161.31,-188.35 162.75,-181.5"/>
</g>
<!-- Node7 -->
<g id="node5" class="node">
<title>Node7</title>
<g id="a_node5"><a xlink:href="group__jkqtpplotter__styling.html" target="_top" xlink:title=" ">
<polygon fill="none" stroke="black" points="315,-177.5 211,-177.5 211,-156.5 315,-156.5 315,-177.5"/>
<text text-anchor="middle" x="263" y="-163.9" font-family="Helvetica,sans-Serif" font-size="12.00">Styling System</text>
</a>
</g>
</g>
<!-- Node1&#45;&gt;Node7 -->
<g id="edge6" class="edge">
<title>Node1&#45;&gt;Node7</title>
<path fill="none" stroke="black" d="M162.48,-167C179.02,-167 195.86,-167 210.87,-167"/>
<polygon fill="black" stroke="black" points="162.25,-163.5 152.25,-167 162.25,-170.5 162.25,-163.5"/>
</g>
<!-- Node5 -->
<g id="node6" class="node">
<title>Node5</title>
<g id="a_node6"><a xlink:href="group__jkqtpplotterclasses.html" target="_top" xlink:title=" ">
<polygon fill="none" stroke="black" points="336.5,-138 189.5,-138 189.5,-104 336.5,-104 336.5,-138"/>
<text text-anchor="start" x="197.5" y="-124.4" font-family="Helvetica,sans-Serif" font-size="12.00">Plotter Class &amp; Plotter</text>
<text text-anchor="middle" x="263" y="-111.4" font-family="Helvetica,sans-Serif" font-size="12.00"> Widget</text>
</a>
</g>
</g>
<!-- Node1&#45;&gt;Node5 -->
<g id="edge4" class="edge">
<title>Node1&#45;&gt;Node5</title>
<path fill="none" stroke="black" d="M155.63,-147.45C168.22,-144.32 181.16,-141.1 193.49,-138.04"/>
<polygon fill="black" stroke="black" points="154.48,-144.13 145.62,-149.94 156.17,-150.92 154.48,-144.13"/>
</g>
<!-- Node8 -->
<g id="node7" class="node">
<title>Node8</title>
<g id="a_node7"><a xlink:href="group__jkqtpplottersupprt.html" target="_top" xlink:title=" ">
<polygon fill="none" stroke="black" points="332,-86 194,-86 194,-52 332,-52 332,-86"/>
<text text-anchor="start" x="202" y="-72.4" font-family="Helvetica,sans-Serif" font-size="12.00">Support Classes and</text>
<text text-anchor="middle" x="263" y="-59.4" font-family="Helvetica,sans-Serif" font-size="12.00"> Functions</text>
</a>
</g>
</g>
<!-- Node1&#45;&gt;Node8 -->
<g id="edge7" class="edge">
<title>Node1&#45;&gt;Node8</title>
<path fill="none" stroke="black" d="M108.01,-144.03C129.64,-128.73 159.61,-108.95 188,-95 194.48,-91.82 201.44,-88.84 208.42,-86.12"/>
<polygon fill="black" stroke="black" points="105.95,-141.19 99.86,-149.86 110.03,-146.88 105.95,-141.19"/>
</g>
<!-- Node6 -->
<g id="node8" class="node">
<title>Node6</title>
<g id="a_node8"><a xlink:href="group__jkqtpqtwidgetsttools.html" target="_top" xlink:title=" ">
<polygon fill="none" stroke="black" points="338,-34 188,-34 188,0 338,0 338,-34"/>
<text text-anchor="start" x="196" y="-20.4" font-family="Helvetica,sans-Serif" font-size="12.00">Qt Widgets/Tools to</text>
<text text-anchor="middle" x="263" y="-7.4" font-family="Helvetica,sans-Serif" font-size="12.00"> work with JKQTPlotter</text>
</a>
</g>
</g>
<!-- Node1&#45;&gt;Node6 -->
<g id="edge5" class="edge">
<title>Node1&#45;&gt;Node6</title>
<path fill="none" stroke="black" d="M94.04,-141.24C113.66,-113.42 148.34,-69.52 188,-43 192.98,-39.67 198.44,-36.72 204.05,-34.11"/>
<polygon fill="black" stroke="black" points="91.02,-139.45 88.21,-149.67 96.77,-143.44 91.02,-139.45"/>
</g>
</g>
</svg>
