<?xml version="1.0" encoding="UTF-8" standalone="no"?>
<!DOCTYPE svg PUBLIC "-//W3C//DTD SVG 1.1//EN"
 "http://www.w3.org/Graphics/SVG/1.1/DTD/svg11.dtd">
<!-- Generated by graphviz version 2.43.0 (0)
 -->
<!-- Title: JKQTMathText LaTeX&#45;Renderer for Qt Pages: 1 -->
<svg width="361pt" height="134pt"
 viewBox="0.00 0.00 361.00 133.50" xmlns="http://www.w3.org/2000/svg" xmlns:xlink="http://www.w3.org/1999/xlink">
<g id="graph0" class="graph" transform="scale(1 1) rotate(0) translate(4 129.5)">
<title>JKQTMathText LaTeX&#45;Renderer for Qt</title>
<!-- Node1 -->
<g id="node1" class="node">
<title>Node1</title>
<g id="a_node1"><a xlink:title=" ">
<polygon fill="#bfbfbf" stroke="black" points="137,-73.5 0,-73.5 0,-39.5 137,-39.5 137,-73.5"/>
<text text-anchor="start" x="8" y="-59.9" font-family="FreeSans" font-size="12.00">JKQTMathText LaTeX</text>
<text text-anchor="middle" x="68.5" y="-46.9" font-family="FreeSans" font-size="12.00">&#45;Renderer for Qt</text>
</a>
</g>
</g>
<!-- Node2 -->
<g id="node2" class="node">
<title>Node2</title>
<g id="a_node2"><a xlink:href="group__jkqtmathtext__render.html" target="_top" xlink:title=" ">
<polygon fill="none" stroke="black" points="328.5,-125.5 197.5,-125.5 197.5,-91.5 328.5,-91.5 328.5,-125.5"/>
<text text-anchor="start" x="205.5" y="-111.9" font-family="FreeSans" font-size="12.00">JKQTMathText Main </text>
<text text-anchor="middle" x="263" y="-98.9" font-family="FreeSans" font-size="12.00">(Render) Class</text>
</a>
</g>
</g>
<!-- Node1&#45;&gt;Node2 -->
<g id="edge1" class="edge">
<title>Node1&#45;&gt;Node2</title>
<path fill="none" stroke="black" d="M142.41,-76.19C160.98,-81.21 180.79,-86.56 198.83,-91.44"/>
<polygon fill="black" stroke="black" points="143.1,-72.76 132.53,-73.53 141.27,-79.51 143.1,-72.76"/>
</g>
<!-- Node3 -->
<g id="node3" class="node">
<title>Node3</title>
<g id="a_node3"><a xlink:href="group__jkqtmathtext__tools.html" target="_top" xlink:title=" ">
<polygon fill="none" stroke="black" points="353,-73.5 173,-73.5 173,-39.5 353,-39.5 353,-73.5"/>
<text text-anchor="start" x="181" y="-59.9" font-family="FreeSans" font-size="12.00">JKQTMathText Tool Functions</text>
<text text-anchor="middle" x="263" y="-46.9" font-family="FreeSans" font-size="12.00"> and Types</text>
</a>
</g>
</g>
<!-- Node1&#45;&gt;Node3 -->
<g id="edge2" class="edge">
<title>Node1&#45;&gt;Node3</title>
<path fill="none" stroke="black" d="M147.28,-56.5C155.73,-56.5 164.37,-56.5 172.94,-56.5"/>
<polygon fill="black" stroke="black" points="147.1,-53 137.1,-56.5 147.1,-60 147.1,-53"/>
</g>
<!-- Node4 -->
<g id="node4" class="node">
<title>Node4</title>
<g id="a_node4"><a xlink:href="group__jkqtmathtext__widgets.html" target="_top" xlink:title=" ">
<polygon fill="none" stroke="black" points="334.5,-21 191.5,-21 191.5,0 334.5,0 334.5,-21"/>
<text text-anchor="middle" x="263" y="-7.4" font-family="FreeSans" font-size="12.00">JKQTMathText widgets</text>
</a>
</g>
</g>
<!-- Node1&#45;&gt;Node4 -->
<g id="edge3" class="edge">
<title>Node1&#45;&gt;Node4</title>
<path fill="none" stroke="black" d="M146.05,-37.04C155.13,-34.8 164.26,-32.58 173,-30.5 186.25,-27.35 200.64,-24.06 213.91,-21.07"/>
<polygon fill="black" stroke="black" points="145.11,-33.67 136.25,-39.47 146.8,-40.46 145.11,-33.67"/>
</g>
</g>
</svg>
