<?xml version="1.0" encoding="UTF-8" standalone="no"?>
<!DOCTYPE svg PUBLIC "-//W3C//DTD SVG 1.1//EN"
 "http://www.w3.org/Graphics/SVG/1.1/DTD/svg11.dtd">
<!-- Generated by graphviz version 2.43.0 (0)
 -->
<!-- Title: Line/Symbol Graphs Pages: 1 -->
<svg width="548pt" height="173pt"
 viewBox="0.00 0.00 548.00 173.00" xmlns="http://www.w3.org/2000/svg" xmlns:xlink="http://www.w3.org/1999/xlink">
<g id="graph0" class="graph" transform="scale(1 1) rotate(0) translate(4 169)">
<title>Line/Symbol Graphs</title>
<!-- Node2 -->
<g id="node1" class="node">
<title>Node2</title>
<g id="a_node1"><a xlink:href="group__jkqtplotter__concretegraphs.html" target="_top" xlink:title=" ">
<polygon fill="none" stroke="black" points="159,-93 0,-93 0,-72 159,-72 159,-93"/>
<text text-anchor="middle" x="79.5" y="-79.4" font-family="Helvetica,sans-Serif" font-size="12.00">Concrete Graph Classes</text>
</a>
</g>
</g>
<!-- Node1 -->
<g id="node3" class="node">
<title>Node1</title>
<g id="a_node3"><a xlink:title=" ">
<polygon fill="#bfbfbf" stroke="black" points="331,-93 195,-93 195,-72 331,-72 331,-93"/>
<text text-anchor="middle" x="263" y="-79.4" font-family="Helvetica,sans-Serif" font-size="12.00">Line/Symbol Graphs</text>
</a>
</g>
</g>
<!-- Node2&#45;&gt;Node1 -->
<g id="edge1" class="edge">
<title>Node2&#45;&gt;Node1</title>
<path fill="none" stroke="black" d="M169.21,-82.5C177.88,-82.5 186.58,-82.5 194.99,-82.5"/>
<polygon fill="black" stroke="black" points="169.05,-79 159.05,-82.5 169.05,-86 169.05,-79"/>
</g>
<!-- Node4 -->
<g id="node2" class="node">
<title>Node4</title>
<g id="a_node2"><a xlink:href="group__jkqtplotter__functiongraphs.html" target="_top" xlink:title=" ">
<polygon fill="none" stroke="black" points="510,-165 397,-165 397,-144 510,-144 510,-165"/>
<text text-anchor="middle" x="453.5" y="-151.4" font-family="Helvetica,sans-Serif" font-size="12.00">Function Graphs</text>
</a>
</g>
</g>
<!-- Node1&#45;&gt;Node4 -->
<g id="edge3" class="edge">
<title>Node1&#45;&gt;Node4</title>
<path fill="none" stroke="black" d="M290.35,-98C310.71,-109.43 339.9,-124.65 367,-134.5 377.03,-138.15 387.97,-141.29 398.56,-143.94"/>
<polygon fill="black" stroke="black" points="292.07,-94.96 281.65,-93.05 288.61,-101.04 292.07,-94.96"/>
</g>
<!-- Node5 -->
<g id="node4" class="node">
<title>Node5</title>
<g id="a_node4"><a xlink:href="group__jkqtplotter__linesymbolgraphs__param.html" target="_top" xlink:title=" ">
<polygon fill="none" stroke="black" points="540,-125.5 367,-125.5 367,-91.5 540,-91.5 540,-125.5"/>
<text text-anchor="start" x="375" y="-111.9" font-family="Helvetica,sans-Serif" font-size="12.00">Parametrized Line/Scatter</text>
<text text-anchor="middle" x="453.5" y="-98.9" font-family="Helvetica,sans-Serif" font-size="12.00"> Graphs</text>
</a>
</g>
</g>
<!-- Node1&#45;&gt;Node5 -->
<g id="edge4" class="edge">
<title>Node1&#45;&gt;Node5</title>
<path fill="none" stroke="black" d="M341.38,-93.17C349.77,-94.33 358.34,-95.51 366.82,-96.68"/>
<polygon fill="black" stroke="black" points="341.64,-89.68 331.25,-91.78 340.68,-96.61 341.64,-89.68"/>
</g>
<!-- Node3 -->
<g id="node5" class="node">
<title>Node3</title>
<g id="a_node5"><a xlink:href="group__jkqtplotter__linesymbolgraphs__simple.html" target="_top" xlink:title=" ">
<polygon fill="none" stroke="black" points="515.5,-73.5 391.5,-73.5 391.5,-39.5 515.5,-39.5 515.5,-73.5"/>
<text text-anchor="start" x="399.5" y="-59.9" font-family="Helvetica,sans-Serif" font-size="12.00">Basic Line/Scatter</text>
<text text-anchor="middle" x="453.5" y="-46.9" font-family="Helvetica,sans-Serif" font-size="12.00"> Graphs</text>
</a>
</g>
</g>
<!-- Node1&#45;&gt;Node3 -->
<g id="edge2" class="edge">
<title>Node1&#45;&gt;Node3</title>
<path fill="none" stroke="black" d="M341.47,-71.81C358.06,-69.53 375.36,-67.14 391.24,-64.95"/>
<polygon fill="black" stroke="black" points="340.68,-68.39 331.25,-73.22 341.64,-75.32 340.68,-68.39"/>
</g>
<!-- Node6 -->
<g id="node6" class="node">
<title>Node6</title>
<g id="a_node6"><a xlink:href="group__jkqtplotter__parsed_fgraphs.html" target="_top" xlink:title=" ">
<polygon fill="none" stroke="black" points="532.5,-21 374.5,-21 374.5,0 532.5,0 532.5,-21"/>
<text text-anchor="middle" x="453.5" y="-7.4" font-family="Helvetica,sans-Serif" font-size="12.00">Parsed Function Graphs</text>
</a>
</g>
</g>
<!-- Node1&#45;&gt;Node6 -->
<g id="edge5" class="edge">
<title>Node1&#45;&gt;Node6</title>
<path fill="none" stroke="black" d="M290.35,-67C310.71,-55.57 339.9,-40.35 367,-30.5 377.03,-26.85 387.97,-23.71 398.56,-21.06"/>
<polygon fill="black" stroke="black" points="288.61,-63.96 281.65,-71.95 292.07,-70.04 288.61,-63.96"/>
</g>
</g>
</svg>
