<?xml version="1.0" encoding="UTF-8" standalone="no"?>
<!DOCTYPE svg PUBLIC "-//W3C//DTD SVG 1.1//EN"
 "http://www.w3.org/Graphics/SVG/1.1/DTD/svg11.dtd">
<!-- Generated by graphviz version 2.43.0 (0)
 -->
<!-- Title: Line/Symbol Graphs Pages: 1 -->
<svg width="490pt" height="173pt"
 viewBox="0.00 0.00 490.00 173.00" xmlns="http://www.w3.org/2000/svg" xmlns:xlink="http://www.w3.org/1999/xlink">
<g id="graph0" class="graph" transform="scale(1 1) rotate(0) translate(4 169)">
<title>Line/Symbol Graphs</title>
<!-- Node4 -->
<g id="node1" class="node">
<title>Node4</title>
<g id="a_node1"><a xlink:href="group__jkqtplotter__functiongraphs.html" target="_top" xlink:title=" ">
<polygon fill="none" stroke="black" points="452,-165 339,-165 339,-144 452,-144 452,-165"/>
<text text-anchor="middle" x="395.5" y="-151.4" font-family="Helvetica,sans-Serif" font-size="12.00">Function Graphs</text>
</a>
</g>
</g>
<!-- Node2 -->
<g id="node2" class="node">
<title>Node2</title>
<g id="a_node2"><a xlink:href="group__jkqtplotter__graphsgroup.html" target="_top" xlink:title=" ">
<polygon fill="none" stroke="black" points="101,-93 0,-93 0,-72 101,-72 101,-93"/>
<text text-anchor="middle" x="50.5" y="-79.4" font-family="Helvetica,sans-Serif" font-size="12.00">Graph Classes</text>
</a>
</g>
</g>
<!-- Node1 -->
<g id="node3" class="node">
<title>Node1</title>
<g id="a_node3"><a xlink:title=" ">
<polygon fill="#bfbfbf" stroke="black" points="273,-93 137,-93 137,-72 273,-72 273,-93"/>
<text text-anchor="middle" x="205" y="-79.4" font-family="Helvetica,sans-Serif" font-size="12.00">Line/Symbol Graphs</text>
</a>
</g>
</g>
<!-- Node2&#45;&gt;Node1 -->
<g id="edge1" class="edge">
<title>Node2&#45;&gt;Node1</title>
<path fill="none" stroke="black" d="M111.17,-82.5C119.64,-82.5 128.39,-82.5 136.99,-82.5"/>
<polygon fill="black" stroke="black" points="111.01,-79 101.01,-82.5 111.01,-86 111.01,-79"/>
</g>
<!-- Node1&#45;&gt;Node4 -->
<g id="edge3" class="edge">
<title>Node1&#45;&gt;Node4</title>
<path fill="none" stroke="black" d="M232.35,-98C252.71,-109.43 281.9,-124.65 309,-134.5 319.03,-138.15 329.97,-141.29 340.56,-143.94"/>
<polygon fill="black" stroke="black" points="234.07,-94.96 223.65,-93.05 230.61,-101.04 234.07,-94.96"/>
</g>
<!-- Node5 -->
<g id="node4" class="node">
<title>Node5</title>
<g id="a_node4"><a xlink:href="group__jkqtplotter__linesymbolgraphs__param.html" target="_top" xlink:title=" ">
<polygon fill="none" stroke="black" points="482,-125.5 309,-125.5 309,-91.5 482,-91.5 482,-125.5"/>
<text text-anchor="start" x="317" y="-111.9" font-family="Helvetica,sans-Serif" font-size="12.00">Parametrized Line/Scatter</text>
<text text-anchor="middle" x="395.5" y="-98.9" font-family="Helvetica,sans-Serif" font-size="12.00"> Graphs</text>
</a>
</g>
</g>
<!-- Node1&#45;&gt;Node5 -->
<g id="edge4" class="edge">
<title>Node1&#45;&gt;Node5</title>
<path fill="none" stroke="black" d="M283.38,-93.17C291.77,-94.33 300.34,-95.51 308.82,-96.68"/>
<polygon fill="black" stroke="black" points="283.64,-89.68 273.25,-91.78 282.68,-96.61 283.64,-89.68"/>
</g>
<!-- Node3 -->
<g id="node5" class="node">
<title>Node3</title>
<g id="a_node5"><a xlink:href="group__jkqtplotter__linesymbolgraphs__simple.html" target="_top" xlink:title=" ">
<polygon fill="none" stroke="black" points="457.5,-73.5 333.5,-73.5 333.5,-39.5 457.5,-39.5 457.5,-73.5"/>
<text text-anchor="start" x="341.5" y="-59.9" font-family="Helvetica,sans-Serif" font-size="12.00">Basic Line/Scatter</text>
<text text-anchor="middle" x="395.5" y="-46.9" font-family="Helvetica,sans-Serif" font-size="12.00"> Graphs</text>
</a>
</g>
</g>
<!-- Node1&#45;&gt;Node3 -->
<g id="edge2" class="edge">
<title>Node1&#45;&gt;Node3</title>
<path fill="none" stroke="black" d="M283.47,-71.81C300.06,-69.53 317.36,-67.14 333.24,-64.95"/>
<polygon fill="black" stroke="black" points="282.68,-68.39 273.25,-73.22 283.64,-75.32 282.68,-68.39"/>
</g>
<!-- Node6 -->
<g id="node6" class="node">
<title>Node6</title>
<g id="a_node6"><a xlink:href="group__jkqtplotter__parsed_fgraphs.html" target="_top" xlink:title=" ">
<polygon fill="none" stroke="black" points="474.5,-21 316.5,-21 316.5,0 474.5,0 474.5,-21"/>
<text text-anchor="middle" x="395.5" y="-7.4" font-family="Helvetica,sans-Serif" font-size="12.00">Parsed Function Graphs</text>
</a>
</g>
</g>
<!-- Node1&#45;&gt;Node6 -->
<g id="edge5" class="edge">
<title>Node1&#45;&gt;Node6</title>
<path fill="none" stroke="black" d="M232.35,-67C252.71,-55.57 281.9,-40.35 309,-30.5 319.03,-26.85 329.97,-23.71 340.56,-21.06"/>
<polygon fill="black" stroke="black" points="230.61,-63.96 223.65,-71.95 234.07,-70.04 230.61,-63.96"/>
</g>
</g>
</svg>
