<?xml version="1.0" encoding="UTF-8" standalone="no"?>
<!DOCTYPE svg PUBLIC "-//W3C//DTD SVG 1.1//EN"
 "http://www.w3.org/Graphics/SVG/1.1/DTD/svg11.dtd">
<!-- Generated by graphviz version 2.43.0 (0)
 -->
<!-- Title: Statistical Computations Pages: 1 -->
<svg width="578pt" height="382pt"
 viewBox="0.00 0.00 578.00 382.00" xmlns="http://www.w3.org/2000/svg" xmlns:xlink="http://www.w3.org/1999/xlink">
<g id="graph0" class="graph" transform="scale(1 1) rotate(0) translate(4 378)">
<title>Statistical Computations</title>
<!-- Node2 -->
<g id="node1" class="node">
<title>Node2</title>
<g id="a_node1"><a xlink:href="group__jkqtcommon__statistics__and__math.html" target="_top" xlink:title=" ">
<polygon fill="none" stroke="black" points="193,-197 0,-197 0,-150 193,-150 193,-197"/>
<text text-anchor="start" x="8" y="-183.4" font-family="FreeSans" font-size="12.00">JKQTCommonStatisticsAndMath</text>
<text text-anchor="start" x="8" y="-170.4" font-family="FreeSans" font-size="12.00">: Special Math and Statistics</text>
<text text-anchor="middle" x="96.5" y="-157.4" font-family="FreeSans" font-size="12.00"> Utilities</text>
</a>
</g>
</g>
<!-- Node1 -->
<g id="node2" class="node">
<title>Node1</title>
<g id="a_node2"><a xlink:title=" ">
<polygon fill="#bfbfbf" stroke="black" points="373,-184 229,-184 229,-163 373,-163 373,-184"/>
<text text-anchor="middle" x="301" y="-170.4" font-family="FreeSans" font-size="12.00">Statistical Computations</text>
</a>
</g>
</g>
<!-- Node2&#45;&gt;Node1 -->
<g id="edge1" class="edge">
<title>Node2&#45;&gt;Node1</title>
<path fill="none" stroke="black" d="M203.32,-173.5C212.01,-173.5 220.66,-173.5 229,-173.5"/>
<polygon fill="black" stroke="black" points="203.12,-170 193.12,-173.5 203.12,-177 203.12,-170"/>
</g>
<!-- Node3 -->
<g id="node3" class="node">
<title>Node3</title>
<g id="a_node3"><a xlink:href="group__jkqtptools__math__statistics__1dhist.html" target="_top" xlink:title=" ">
<polygon fill="none" stroke="black" points="567,-374 412,-374 412,-353 567,-353 567,-374"/>
<text text-anchor="middle" x="489.5" y="-360.4" font-family="FreeSans" font-size="12.00">1&#45;dimensional Histograms</text>
</a>
</g>
</g>
<!-- Node1&#45;&gt;Node3 -->
<g id="edge2" class="edge">
<title>Node1&#45;&gt;Node3</title>
<path fill="none" stroke="black" d="M308.93,-193.69C322.33,-229.62 355.31,-304.54 409,-343.5 414.3,-347.35 420.26,-350.45 426.47,-352.97"/>
<polygon fill="black" stroke="black" points="312.21,-192.48 305.53,-184.26 305.63,-194.85 312.21,-192.48"/>
</g>
<!-- Node4 -->
<g id="node4" class="node">
<title>Node4</title>
<g id="a_node4"><a xlink:href="group__jkqtptools__math__statistics__1dkde.html" target="_top" xlink:title=" ">
<polygon fill="none" stroke="black" points="554,-334.5 425,-334.5 425,-300.5 554,-300.5 554,-334.5"/>
<text text-anchor="start" x="433" y="-320.9" font-family="FreeSans" font-size="12.00">1&#45;dimensional Kernel</text>
<text text-anchor="middle" x="489.5" y="-307.9" font-family="FreeSans" font-size="12.00"> Density Estimates</text>
</a>
</g>
</g>
<!-- Node1&#45;&gt;Node4 -->
<g id="edge3" class="edge">
<title>Node1&#45;&gt;Node4</title>
<path fill="none" stroke="black" d="M314.75,-192.96C332.76,-219 368.08,-264.97 409,-291.5 414.12,-294.82 419.7,-297.75 425.45,-300.32"/>
<polygon fill="black" stroke="black" points="317.42,-190.66 308.91,-184.34 311.62,-194.58 317.42,-190.66"/>
</g>
<!-- Node5 -->
<g id="node5" class="node">
<title>Node5</title>
<g id="a_node5"><a xlink:href="group__jkqtptools__math__statistics__2dhist.html" target="_top" xlink:title=" ">
<polygon fill="none" stroke="black" points="567,-282 412,-282 412,-261 567,-261 567,-282"/>
<text text-anchor="middle" x="489.5" y="-268.4" font-family="FreeSans" font-size="12.00">2&#45;dimensional Histograms</text>
</a>
</g>
</g>
<!-- Node1&#45;&gt;Node5 -->
<g id="edge4" class="edge">
<title>Node1&#45;&gt;Node5</title>
<path fill="none" stroke="black" d="M320.82,-190.74C341.14,-208.46 375.15,-235.64 409,-251.5 416.99,-255.24 425.77,-258.35 434.5,-260.9"/>
<polygon fill="black" stroke="black" points="323.04,-188.03 313.24,-184.01 318.39,-193.26 323.04,-188.03"/>
</g>
<!-- Node6 -->
<g id="node6" class="node">
<title>Node6</title>
<g id="a_node6"><a xlink:href="group__jkqtptools__math__statistics__2dkde.html" target="_top" xlink:title=" ">
<polygon fill="none" stroke="black" points="554,-242.5 425,-242.5 425,-208.5 554,-208.5 554,-242.5"/>
<text text-anchor="start" x="433" y="-228.9" font-family="FreeSans" font-size="12.00">2&#45;dimensional Kernel</text>
<text text-anchor="middle" x="489.5" y="-215.9" font-family="FreeSans" font-size="12.00"> Density Estimates</text>
</a>
</g>
</g>
<!-- Node1&#45;&gt;Node6 -->
<g id="edge5" class="edge">
<title>Node1&#45;&gt;Node6</title>
<path fill="none" stroke="black" d="M349.53,-186.75C373.18,-193.35 402.04,-201.39 427.32,-208.44"/>
<polygon fill="black" stroke="black" points="350.31,-183.34 339.74,-184.02 348.43,-190.08 350.31,-183.34"/>
</g>
<!-- Node11 -->
<g id="node7" class="node">
<title>Node11</title>
<g id="a_node7"><a xlink:href="group__jkqtptools__math__statistics__adaptors.html" target="_top" xlink:title=" ">
<polygon fill="none" stroke="black" points="541.5,-190.5 437.5,-190.5 437.5,-156.5 541.5,-156.5 541.5,-190.5"/>
<text text-anchor="start" x="445.5" y="-176.9" font-family="FreeSans" font-size="12.00">Statistics To Plot</text>
<text text-anchor="middle" x="489.5" y="-163.9" font-family="FreeSans" font-size="12.00"> Adaptors</text>
</a>
</g>
</g>
<!-- Node1&#45;&gt;Node11 -->
<g id="edge10" class="edge">
<title>Node1&#45;&gt;Node11</title>
<path fill="none" stroke="black" d="M383.18,-173.5C401.58,-173.5 420.62,-173.5 437.37,-173.5"/>
<polygon fill="black" stroke="black" points="383.04,-170 373.04,-173.5 383.04,-177 383.04,-170"/>
</g>
<!-- Node7 -->
<g id="node8" class="node">
<title>Node7</title>
<g id="a_node8"><a xlink:href="group__jkqtptools__math__statistics__basic.html" target="_top" xlink:title=" ">
<polygon fill="none" stroke="black" points="537,-138 442,-138 442,-117 537,-117 537,-138"/>
<text text-anchor="middle" x="489.5" y="-124.4" font-family="FreeSans" font-size="12.00">Basic statistics</text>
</a>
</g>
</g>
<!-- Node1&#45;&gt;Node7 -->
<g id="edge6" class="edge">
<title>Node1&#45;&gt;Node7</title>
<path fill="none" stroke="black" d="M354.7,-160.5C383.55,-153.39 418.82,-144.69 445.91,-138"/>
<polygon fill="black" stroke="black" points="353.66,-157.15 344.79,-162.95 355.33,-163.95 353.66,-157.15"/>
</g>
<!-- Node8 -->
<g id="node9" class="node">
<title>Node8</title>
<g id="a_node9"><a xlink:href="group__jkqtptools__math__statistics__grouped.html" target="_top" xlink:title=" ">
<polygon fill="none" stroke="black" points="545.5,-99 433.5,-99 433.5,-78 545.5,-78 545.5,-99"/>
<text text-anchor="middle" x="489.5" y="-85.4" font-family="FreeSans" font-size="12.00">Grouped statistics</text>
</a>
</g>
</g>
<!-- Node1&#45;&gt;Node8 -->
<g id="edge7" class="edge">
<title>Node1&#45;&gt;Node8</title>
<path fill="none" stroke="black" d="M324.36,-157.17C345.3,-142.55 377.94,-121.49 409,-108.5 417.8,-104.82 427.43,-101.7 436.87,-99.09"/>
<polygon fill="black" stroke="black" points="322.28,-154.35 316.14,-162.99 326.32,-160.07 322.28,-154.35"/>
</g>
<!-- Node9 -->
<g id="node10" class="node">
<title>Node9</title>
<g id="a_node10"><a xlink:href="group__jkqtptools__math__statistics__poly.html" target="_top" xlink:title=" ">
<polygon fill="none" stroke="black" points="570,-60 409,-60 409,-39 570,-39 570,-60"/>
<text text-anchor="middle" x="489.5" y="-46.4" font-family="FreeSans" font-size="12.00">Polynomial Fits/Regression</text>
</a>
</g>
</g>
<!-- Node1&#45;&gt;Node9 -->
<g id="edge8" class="edge">
<title>Node1&#45;&gt;Node9</title>
<path fill="none" stroke="black" d="M316.14,-154.64C334.79,-131.11 369.88,-91.32 409,-69.5 415.84,-65.69 423.4,-62.59 431.07,-60.07"/>
<polygon fill="black" stroke="black" points="313.18,-152.74 309.82,-162.79 318.71,-157.03 313.18,-152.74"/>
</g>
<!-- Node10 -->
<g id="node11" class="node">
<title>Node10</title>
<g id="a_node11"><a xlink:href="group__jkqtptools__math__statistics__regression.html" target="_top" xlink:title=" ">
<polygon fill="none" stroke="black" points="552,-21 427,-21 427,0 552,0 552,-21"/>
<text text-anchor="middle" x="489.5" y="-7.4" font-family="FreeSans" font-size="12.00">Regression Analysis</text>
</a>
</g>
</g>
<!-- Node1&#45;&gt;Node10 -->
<g id="edge9" class="edge">
<title>Node1&#45;&gt;Node10</title>
<path fill="none" stroke="black" d="M311.11,-153.93C326.64,-122.8 361.26,-62.29 409,-30.5 414.8,-26.63 421.3,-23.52 428.01,-21"/>
<polygon fill="black" stroke="black" points="307.96,-152.4 306.75,-162.93 314.26,-155.46 307.96,-152.4"/>
</g>
</g>
</svg>
