<?xml version="1.0" encoding="UTF-8" standalone="no"?>
<!DOCTYPE svg PUBLIC "-//W3C//DTD SVG 1.1//EN"
 "http://www.w3.org/Graphics/SVG/1.1/DTD/svg11.dtd">
<!-- Generated by graphviz version 2.43.0 (0)
 -->
<!-- Title: Concrete Graph Classes Pages: 1 -->
<!--zoomable 435 -->
<svg id="main" version="1.1" xmlns="http://www.w3.org/2000/svg" xmlns:xlink="http://www.w3.org/1999/xlink" xml:space="preserve" onload="init(evt)">
<style type="text/css"><![CDATA[
.edge:hover path { stroke: red; }
.edge:hover polygon { stroke: red; fill: red; }
]]></style>
<script type="text/javascript"><![CDATA[
var edges = document.getElementsByTagName('g');
if (edges && edges.length) {
  for (var i=0;i<edges.length;i++) {
    if (edges[i].id.substr(0,4)=='edge') {
      edges[i].setAttribute('class','edge');
    }
  }
}
]]></script>
        <defs>
                <circle id="rim" cx="0" cy="0" r="7"/>
                <circle id="rim2" cx="0" cy="0" r="3.5"/>
                <g id="zoomPlus">
                        <use xlink:href="#rim" fill="#404040">
                                <set attributeName="fill" to="#808080" begin="zoomplus.mouseover" end="zoomplus.mouseout"/>
                        </use>
                        <path d="M-4,0h8M0,-4v8" fill="none" stroke="white" stroke-width="1.5" pointer-events="none"/>
                </g>
                <g id="zoomMin">
                        <use xlink:href="#rim" fill="#404040">
                                <set attributeName="fill" to="#808080" begin="zoomminus.mouseover" end="zoomminus.mouseout"/>
                        </use>
                        <path d="M-4,0h8" fill="none" stroke="white" stroke-width="1.5" pointer-events="none"/>
                </g>
                <g id="dirArrow">
                        <path fill="none" stroke="white" stroke-width="1.5" d="M0,-3.0v7 M-2.5,-0.5L0,-3.0L2.5,-0.5"/>
                </g>
               <g id="resetDef">
                       <use xlink:href="#rim2" fill="#404040">
                               <set attributeName="fill" to="#808080" begin="reset.mouseover" end="reset.mouseout"/>
                       </use>
               </g>
        </defs>

<script type="text/javascript">
var viewWidth = 534;
var viewHeight = 435;
var sectionId = 'dynsection-0';
</script>
<script xlink:href="svgpan.js"/>
<svg id="graph" class="graph">
<g id="viewport">
<title>Concrete Graph Classes</title>
<!-- Node8 -->
<g id="node1" class="node">
<title>Node8</title>
<g id="a_node1"><a xlink:href="group__jkqtplotter__annotations.html" target="_top" xlink:title=" ">
<polygon fill="white" stroke="#666666" points="512.5,-427 384.5,-427 384.5,-406 512.5,-406 512.5,-427"/>
<text text-anchor="middle" x="448.5" y="-413.4" font-family="Helvetica,sans-Serif" font-size="12.00">Graph Annotations</text>
</a>
</g>
</g>
<!-- Node3 -->
<g id="node2" class="node">
<title>Node3</title>
<g id="a_node2"><a xlink:href="group__jkqtplotter__barcharts.html" target="_top" xlink:title=" ">
<polygon fill="white" stroke="#666666" points="485.5,-388 411.5,-388 411.5,-367 485.5,-367 485.5,-388"/>
<text text-anchor="middle" x="448.5" y="-374.4" font-family="Helvetica,sans-Serif" font-size="12.00">Barcharts</text>
</a>
</g>
</g>
<!-- Node1 -->
<g id="node3" class="node">
<title>Node1</title>
<g id="a_node3"><a xlink:title=" ">
<polygon fill="#999999" stroke="#666666" points="335,-228 176,-228 176,-207 335,-207 335,-228"/>
<text text-anchor="middle" x="255.5" y="-214.4" font-family="Helvetica,sans-Serif" font-size="12.00">Concrete Graph Classes</text>
</a>
</g>
</g>
<!-- Node1&#45;&gt;Node8 -->
<g id="edge7" class="edge">
<title>Node1&#45;&gt;Node8</title>
<path fill="none" stroke="black" d="M263.58,-237.86C277.75,-275.52 313.3,-355.97 371,-397.5 375.66,-400.86 380.86,-403.62 386.28,-405.91"/>
<polygon fill="black" stroke="black" points="266.86,-236.64 260.15,-228.45 260.28,-239.04 266.86,-236.64"/>
</g>
<!-- Node1&#45;&gt;Node3 -->
<g id="edge2" class="edge">
<title>Node1&#45;&gt;Node3</title>
<path fill="none" stroke="black" d="M266.93,-237.26C284.27,-268.1 322.01,-327.37 371,-358.5 383.01,-366.13 397.89,-370.7 411.32,-373.43"/>
<polygon fill="black" stroke="black" points="269.91,-235.41 262.03,-228.32 263.77,-238.77 269.91,-235.41"/>
</g>
<!-- Node5 -->
<g id="node5" class="node">
<title>Node5</title>
<g id="a_node5"><a xlink:href="group__jkqtplotter__eventgraphs.html" target="_top" xlink:title=" ">
<polygon fill="white" stroke="#666666" points="497,-349 400,-349 400,-328 497,-328 497,-349"/>
<text text-anchor="middle" x="448.5" y="-335.4" font-family="Helvetica,sans-Serif" font-size="12.00">Event Graphs</text>
</a>
</g>
</g>
<!-- Node1&#45;&gt;Node5 -->
<g id="edge4" class="edge">
<title>Node1&#45;&gt;Node5</title>
<path fill="none" stroke="black" d="M272.12,-235.76C292.56,-258.5 330.57,-296.98 371,-318.5 379.85,-323.21 389.87,-326.86 399.67,-329.67"/>
<polygon fill="black" stroke="black" points="274.65,-233.33 265.41,-228.15 269.4,-237.96 274.65,-233.33"/>
</g>
<!-- Node6 -->
<g id="node6" class="node">
<title>Node6</title>
<g id="a_node6"><a xlink:href="group__jkqtplotter__filledgraphs.html" target="_top" xlink:title=" ">
<polygon fill="white" stroke="#666666" points="512.5,-309.5 384.5,-309.5 384.5,-275.5 512.5,-275.5 512.5,-309.5"/>
<text text-anchor="start" x="392.5" y="-295.9" font-family="Helvetica,sans-Serif" font-size="12.00">Filled Polygon/Area</text>
<text text-anchor="middle" x="448.5" y="-282.9" font-family="Helvetica,sans-Serif" font-size="12.00"> Graphs</text>
</a>
</g>
</g>
<!-- Node1&#45;&gt;Node6 -->
<g id="edge5" class="edge">
<title>Node1&#45;&gt;Node6</title>
<path fill="none" stroke="black" d="M289.17,-232.27C311.93,-242.37 343.09,-255.8 371,-266.5 378.86,-269.51 387.24,-272.54 395.46,-275.41"/>
<polygon fill="black" stroke="black" points="290.53,-229.05 279.97,-228.17 287.67,-235.44 290.53,-229.05"/>
</g>
<!-- Node7 -->
<g id="node7" class="node">
<title>Node7</title>
<g id="a_node7"><a xlink:href="group__jkqtplotter__geoplots.html" target="_top" xlink:title=" ">
<polygon fill="white" stroke="#666666" points="524.5,-257.5 372.5,-257.5 372.5,-223.5 524.5,-223.5 524.5,-257.5"/>
<text text-anchor="start" x="380.5" y="-243.9" font-family="Helvetica,sans-Serif" font-size="12.00">Geometric Elements</text>
<text text-anchor="middle" x="448.5" y="-230.9" font-family="Helvetica,sans-Serif" font-size="12.00"> (Lines, Rectangles, ...)</text>
</a>
</g>
</g>
<!-- Node1&#45;&gt;Node7 -->
<g id="edge6" class="edge">
<title>Node1&#45;&gt;Node7</title>
<path fill="none" stroke="black" d="M345.21,-228.18C354.29,-229.28 363.45,-230.38 372.37,-231.45"/>
<polygon fill="black" stroke="black" points="345.36,-224.68 335.01,-226.95 344.52,-231.63 345.36,-224.68"/>
</g>
<!-- Node11 -->
<g id="node8" class="node">
<title>Node11</title>
<g id="a_node8"><a xlink:href="group__jkqtplotter__imagelots.html" target="_top" xlink:title=" ">
<polygon fill="white" stroke="#666666" points="521,-205 376,-205 376,-184 521,-184 521,-205"/>
<text text-anchor="middle" x="448.5" y="-191.4" font-family="Helvetica,sans-Serif" font-size="12.00">Matrix/Image Plotting</text>
</a>
</g>
</g>
<!-- Node1&#45;&gt;Node11 -->
<g id="edge10" class="edge">
<title>Node1&#45;&gt;Node11</title>
<path fill="none" stroke="black" d="M345.19,-206.82C355.42,-205.59 365.76,-204.34 375.73,-203.14"/>
<polygon fill="black" stroke="black" points="344.52,-203.37 335.01,-208.05 345.36,-210.32 344.52,-203.37"/>
</g>
<!-- Node4 -->
<g id="node9" class="node">
<title>Node4</title>
<g id="a_node9"><a xlink:href="group__jkqtplotter__imagelots__contour.html" target="_top" xlink:title=" ">
<polygon fill="white" stroke="#666666" points="526,-165.5 371,-165.5 371,-131.5 526,-131.5 526,-165.5"/>
<text text-anchor="start" x="379" y="-151.9" font-family="Helvetica,sans-Serif" font-size="12.00">Contour Graphs (based</text>
<text text-anchor="middle" x="448.5" y="-138.9" font-family="Helvetica,sans-Serif" font-size="12.00"> on Image Data)</text>
</a>
</g>
</g>
<!-- Node1&#45;&gt;Node4 -->
<g id="edge3" class="edge">
<title>Node1&#45;&gt;Node4</title>
<path fill="none" stroke="black" d="M293.63,-203.22C315.98,-194.7 345.05,-183.78 371,-174.5 379.19,-171.57 387.9,-168.54 396.4,-165.62"/>
<polygon fill="black" stroke="black" points="292.27,-199.99 284.17,-206.83 294.76,-206.53 292.27,-199.99"/>
</g>
<!-- Node10 -->
<g id="node10" class="node">
<title>Node10</title>
<g id="a_node10"><a xlink:href="group__jkqtplotter__linesymbolgraphs.html" target="_top" xlink:title=" ">
<polygon fill="white" stroke="#666666" points="516.5,-113 380.5,-113 380.5,-92 516.5,-92 516.5,-113"/>
<text text-anchor="middle" x="448.5" y="-99.4" font-family="Helvetica,sans-Serif" font-size="12.00">Line/Symbol Graphs</text>
</a>
</g>
</g>
<!-- Node1&#45;&gt;Node10 -->
<g id="edge9" class="edge">
<title>Node1&#45;&gt;Node10</title>
<path fill="none" stroke="black" d="M273.27,-199.42C294.15,-177.97 331.88,-142.58 371,-122.5 378.33,-118.74 386.42,-115.64 394.52,-113.11"/>
<polygon fill="black" stroke="black" points="270.5,-197.25 266.12,-206.9 275.56,-202.09 270.5,-197.25"/>
</g>
<!-- Node12 -->
<g id="node11" class="node">
<title>Node12</title>
<g id="a_node11"><a xlink:href="group__jkqtplotter__statgraphs.html" target="_top" xlink:title=" ">
<polygon fill="white" stroke="#666666" points="509,-73.5 388,-73.5 388,-39.5 509,-39.5 509,-73.5"/>
<text text-anchor="start" x="396" y="-59.9" font-family="Helvetica,sans-Serif" font-size="12.00">Statistical Graphs</text>
<text text-anchor="middle" x="448.5" y="-46.9" font-family="Helvetica,sans-Serif" font-size="12.00"> (e.g. Boxplots ...)</text>
</a>
</g>
</g>
<!-- Node1&#45;&gt;Node12 -->
<g id="edge11" class="edge">
<title>Node1&#45;&gt;Node12</title>
<path fill="none" stroke="black" d="M268.24,-197.82C286.61,-168.61 324.89,-113.88 371,-82.5 376.22,-78.95 381.97,-75.84 387.9,-73.14"/>
<polygon fill="black" stroke="black" points="265.05,-196.33 262.78,-206.68 271.01,-199.99 265.05,-196.33"/>
</g>
<!-- Node9 -->
<g id="node12" class="node">
<title>Node9</title>
<g id="a_node12"><a xlink:href="group__jkqtplotter__sticks.html" target="_top" xlink:title=" ">
<polygon fill="white" stroke="#666666" points="502,-21 395,-21 395,0 502,0 502,-21"/>
<text text-anchor="middle" x="448.5" y="-7.4" font-family="Helvetica,sans-Serif" font-size="12.00">Impulse&#45;Charts</text>
</a>
</g>
</g>
<!-- Node1&#45;&gt;Node9 -->
<g id="edge8" class="edge">
<title>Node1&#45;&gt;Node9</title>
<path fill="none" stroke="black" d="M263.2,-196.97C276.93,-158.22 312.05,-74.26 371,-30.5 378.05,-25.26 386.36,-21.4 394.86,-18.54"/>
<polygon fill="black" stroke="black" points="259.82,-196.04 259.89,-206.63 266.44,-198.31 259.82,-196.04"/>
</g>
<!-- Node2 -->
<g id="node4" class="node">
<title>Node2</title>
<g id="a_node4"><a xlink:href="group__jkqtplotter__elements.html" target="_top" xlink:title=" ">
<polygon fill="white" stroke="#666666" points="140,-228 0,-228 0,-207 140,-207 140,-228"/>
<text text-anchor="middle" x="70" y="-214.4" font-family="Helvetica,sans-Serif" font-size="12.00">Plot Element Classes</text>
</a>
</g>
</g>
<!-- Node2&#45;&gt;Node1 -->
<g id="edge1" class="edge">
<title>Node2&#45;&gt;Node1</title>
<path fill="none" stroke="black" d="M150.35,-217.5C158.83,-217.5 167.44,-217.5 175.91,-217.5"/>
<polygon fill="black" stroke="black" points="150.11,-214 140.11,-217.5 150.11,-221 150.11,-214"/>
</g>
</g>
</svg>
        <g id="navigator" transform="translate(0 0)" fill="#404254">
                <rect fill="#f2f5e9" fill-opacity="0.5" stroke="#606060" stroke-width=".5" x="0" y="0" width="60" height="60"/>
                <use id="zoomplus" xlink:href="#zoomPlus" x="17" y="9" onmousedown="handleZoom(evt,'in')"/>
                <use id="zoomminus" xlink:href="#zoomMin" x="42" y="9" onmousedown="handleZoom(evt,'out')"/>
                <use id="reset" xlink:href="#resetDef" x="30" y="36" onmousedown="handleReset()"/>
                <g id="arrowUp" xlink:href="#dirArrow" transform="translate(30 24)" onmousedown="handlePan(0,-1)">
                  <use xlink:href="#rim" fill="#404040">
                        <set attributeName="fill" to="#808080" begin="arrowUp.mouseover" end="arrowUp.mouseout"/>
                  </use>
                  <path fill="none" stroke="white" stroke-width="1.5" d="M0,-3.0v7 M-2.5,-0.5L0,-3.0L2.5,-0.5"/>
                </g>
                <g id="arrowRight" xlink:href="#dirArrow" transform="rotate(90) translate(36 -43)" onmousedown="handlePan(1,0)">
                  <use xlink:href="#rim" fill="#404040">
                        <set attributeName="fill" to="#808080" begin="arrowRight.mouseover" end="arrowRight.mouseout"/>
                  </use>
                  <path fill="none" stroke="white" stroke-width="1.5" d="M0,-3.0v7 M-2.5,-0.5L0,-3.0L2.5,-0.5"/>
                </g>
                <g id="arrowDown" xlink:href="#dirArrow" transform="rotate(180) translate(-30 -48)" onmousedown="handlePan(0,1)">
                  <use xlink:href="#rim" fill="#404040">
                        <set attributeName="fill" to="#808080" begin="arrowDown.mouseover" end="arrowDown.mouseout"/>
                  </use>
                  <path fill="none" stroke="white" stroke-width="1.5" d="M0,-3.0v7 M-2.5,-0.5L0,-3.0L2.5,-0.5"/>
                </g>
                <g id="arrowLeft" xlink:href="#dirArrow" transform="rotate(270) translate(-36 17)" onmousedown="handlePan(-1,0)">
                  <use xlink:href="#rim" fill="#404040">
                        <set attributeName="fill" to="#808080" begin="arrowLeft.mouseover" end="arrowLeft.mouseout"/>
                  </use>
                  <path fill="none" stroke="white" stroke-width="1.5" d="M0,-3.0v7 M-2.5,-0.5L0,-3.0L2.5,-0.5"/>
                </g>
        </g>
        <svg viewBox="0 0 15 15" width="100%" height="30px" preserveAspectRatio="xMaxYMin meet">
         <g id="arrow_out" transform="scale(0.3 0.3)">
          <a xlink:href="group__jkqtplotter__concretegraphs_org.svg" target="_base">
           <rect id="button" ry="5" rx="5" y="6" x="6" height="38" width="38"
                fill="#f2f5e9" fill-opacity="0.5" stroke="#606060" stroke-width="1.0"/>
           <path id="arrow"
             d="M 11.500037,31.436501 C 11.940474,20.09759 22.043105,11.32322 32.158766,21.979434 L 37.068811,17.246167 C 37.068811,17.246167 37.088388,32 37.088388,32 L 22.160133,31.978069 C 22.160133,31.978069 26.997745,27.140456 26.997745,27.140456 C 18.528582,18.264221 13.291696,25.230495 11.500037,31.436501 z"
             style="fill:#404040;"/>
          </a>
         </g>
        </svg>
</svg>
