<?xml version="1.0" encoding="UTF-8" standalone="no"?>
<!DOCTYPE svg PUBLIC "-//W3C//DTD SVG 1.1//EN"
 "http://www.w3.org/Graphics/SVG/1.1/DTD/svg11.dtd">
<!-- Generated by graphviz version 2.43.0 (0)
 -->
<!-- Title: JKQTPMathParser::jkmpVariable Pages: 1 -->
<svg width="214pt" height="170pt"
 viewBox="0.00 0.00 214.00 170.00" xmlns="http://www.w3.org/2000/svg" xmlns:xlink="http://www.w3.org/1999/xlink">
<g id="graph0" class="graph" transform="scale(1 1) rotate(0) translate(4 166)">
<title>JKQTPMathParser::jkmpVariable</title>
<!-- Node1 -->
<g id="Node000001" class="node">
<title>Node1</title>
<g id="a_Node000001"><a xlink:title="This struct is for managing variables. Unlike jkmpResult this struct only contains pointers to the da...">
<polygon fill="#999999" stroke="#666666" points="206,-21 0,-21 0,0 206,0 206,-21"/>
<text text-anchor="middle" x="103" y="-7.4" font-family="Helvetica,sans-Serif" font-size="12.00">JKQTPMathParser::jkmpVariable</text>
</a>
</g>
</g>
<!-- Node2 -->
<g id="Node000002" class="node">
<title>Node2</title>
<g id="a_Node000002"><a xlink:title=" ">
<polygon fill="white" stroke="#666666" points="141,-91 65,-91 65,-70 141,-70 141,-91"/>
<text text-anchor="middle" x="103" y="-77.4" font-family="Helvetica,sans-Serif" font-size="12.00">std::string</text>
</a>
</g>
</g>
<!-- Node2&#45;&gt;Node1 -->
<g id="edge1_Node000001_Node000002" class="edge">
<title>Node2&#45;&gt;Node1</title>
<g id="a_edge1_Node000001_Node000002"><a xlink:title=" ">
<path fill="none" stroke="#9a32cd" stroke-dasharray="5,2" d="M103,-59.7C103,-47.05 103,-31.22 103,-21.22"/>
<polygon fill="#9a32cd" stroke="#9a32cd" points="99.5,-59.76 103,-69.76 106.5,-59.76 99.5,-59.76"/>
</a>
</g>
<text text-anchor="middle" x="113" y="-42.4" font-family="Helvetica,sans-Serif" font-size="12.00" fill="grey"> str</text>
</g>
<!-- Node3 -->
<g id="Node000003" class="node">
<title>Node3</title>
<g id="a_Node000003"><a xlink:title=" ">
<polygon fill="white" stroke="#666666" points="164,-162 42,-162 42,-128 164,-128 164,-162"/>
<text text-anchor="start" x="50" y="-148.4" font-family="Helvetica,sans-Serif" font-size="12.00">std::basic_string&lt;</text>
<text text-anchor="middle" x="103" y="-135.4" font-family="Helvetica,sans-Serif" font-size="12.00"> Char &gt;</text>
</a>
</g>
</g>
<!-- Node3&#45;&gt;Node2 -->
<g id="edge2_Node000002_Node000003" class="edge">
<title>Node3&#45;&gt;Node2</title>
<g id="a_edge2_Node000002_Node000003"><a xlink:title=" ">
<path fill="none" stroke="#63b8ff" d="M103,-117.78C103,-108.41 103,-98.42 103,-91.3"/>
<polygon fill="#63b8ff" stroke="#63b8ff" points="99.5,-117.9 103,-127.9 106.5,-117.9 99.5,-117.9"/>
</a>
</g>
</g>
</g>
</svg>
