<?xml version="1.0" encoding="UTF-8" standalone="no"?>
<!DOCTYPE svg PUBLIC "-//W3C//DTD SVG 1.1//EN"
 "http://www.w3.org/Graphics/SVG/1.1/DTD/svg11.dtd">
<!-- Generated by graphviz version 2.43.0 (0)
 -->
<!-- Title: JKQTPGridPrintingItem Pages: 1 -->
<!--zoomable 586 -->
<svg id="main" version="1.1" xmlns="http://www.w3.org/2000/svg" xmlns:xlink="http://www.w3.org/1999/xlink" xml:space="preserve" onload="init(evt)">
<style type="text/css"><![CDATA[
.edge:hover path { stroke: red; }
.edge:hover polygon { stroke: red; fill: red; }
]]></style>
<script type="text/javascript"><![CDATA[
var edges = document.getElementsByTagName('g');
if (edges && edges.length) {
  for (var i=0;i<edges.length;i++) {
    if (edges[i].id.substr(0,4)=='edge') {
      edges[i].setAttribute('class','edge');
    }
  }
}
]]></script>
        <defs>
                <circle id="rim" cx="0" cy="0" r="7"/>
                <circle id="rim2" cx="0" cy="0" r="3.5"/>
                <g id="zoomPlus">
                        <use xlink:href="#rim" fill="#404040">
                                <set attributeName="fill" to="#808080" begin="zoomplus.mouseover" end="zoomplus.mouseout"/>
                        </use>
                        <path d="M-4,0h8M0,-4v8" fill="none" stroke="white" stroke-width="1.5" pointer-events="none"/>
                </g>
                <g id="zoomMin">
                        <use xlink:href="#rim" fill="#404040">
                                <set attributeName="fill" to="#808080" begin="zoomminus.mouseover" end="zoomminus.mouseout"/>
                        </use>
                        <path d="M-4,0h8" fill="none" stroke="white" stroke-width="1.5" pointer-events="none"/>
                </g>
                <g id="dirArrow">
                        <path fill="none" stroke="white" stroke-width="1.5" d="M0,-3.0v7 M-2.5,-0.5L0,-3.0L2.5,-0.5"/>
                </g>
               <g id="resetDef">
                       <use xlink:href="#rim2" fill="#404040">
                               <set attributeName="fill" to="#808080" begin="reset.mouseover" end="reset.mouseout"/>
                       </use>
               </g>
        </defs>

<script type="text/javascript">
var viewWidth = 2799;
var viewHeight = 586;
var sectionId = 'dynsection-1';
</script>
<script xlink:href="svgpan.js"/>
<svg id="graph" class="graph">
<g id="viewport">
<title>JKQTPGridPrintingItem</title>
<!-- Node1 -->
<g id="node1" class="node">
<title>Node1</title>
<g id="a_node1"><a xlink:title="used to represent the position of other graphs in Saving and Printing Graphs">
<polygon fill="#bfbfbf" stroke="black" points="2434.5,-323.5 2434.5,-344.5 2584.5,-344.5 2584.5,-323.5 2434.5,-323.5"/>
<text text-anchor="middle" x="2509.5" y="-330.9" font-family="Helvetica,sans-Serif" font-size="12.00">JKQTPGridPrintingItem</text>
</a>
</g>
</g>
<!-- Node2 -->
<g id="node2" class="node">
<title>Node2</title>
<g id="a_node2"><a xlink:href="class_j_k_q_t_base_plotter.html" target="_top" xlink:title="base class for 2D plotter classes (used by the plotter widget JKQTPlotter)">
<polygon fill="none" stroke="black" points="2124.5,-313.5 2124.5,-334.5 2238.5,-334.5 2238.5,-313.5 2124.5,-313.5"/>
<text text-anchor="middle" x="2181.5" y="-320.9" font-family="Helvetica,sans-Serif" font-size="12.00">JKQTBasePlotter</text>
</a>
</g>
</g>
<!-- Node2&#45;&gt;Node1 -->
<g id="edge1" class="edge">
<title>Node2&#45;&gt;Node1</title>
<path fill="none" stroke="#9a32cd" stroke-dasharray="5,2" d="M2248.54,-323.75C2287.89,-323.83 2338.81,-324.33 2384,-326 2400.34,-326.61 2417.87,-327.55 2434.47,-328.58"/>
<polygon fill="#9a32cd" stroke="#9a32cd" points="2248.55,-320.25 2238.54,-323.74 2248.54,-327.25 2248.55,-320.25"/>
<text text-anchor="middle" x="2327.5" y="-329.4" font-family="Helvetica,sans-Serif" font-size="12.00"> plotter</text>
</g>
<!-- Node2&#45;&gt;Node2 -->
<g id="edge38" class="edge">
<title>Node2&#45;&gt;Node2</title>
<path fill="none" stroke="#9a32cd" stroke-dasharray="5,2" d="M2155.93,-344.06C2157.61,-349.16 2166.13,-353 2181.5,-353 2205.49,-353 2212.8,-343.65 2203.43,-334.71"/>
<polygon fill="#9a32cd" stroke="#9a32cd" points="2159.21,-345.3 2159.57,-334.71 2152.68,-342.76 2159.21,-345.3"/>
<text text-anchor="middle" x="2181.5" y="-369.4" font-family="Helvetica,sans-Serif" font-size="12.00"> masterPlotterX</text>
<text text-anchor="middle" x="2181.5" y="-356.4" font-family="Helvetica,sans-Serif" font-size="12.00">masterPlotterY</text>
</g>
<!-- Node16 -->
<g id="node16" class="node">
<title>Node16</title>
<g id="a_node16"><a xlink:href="class_j_k_q_t_p_graphs_model.html" target="_top" xlink:title="data model with all plots ina JKQTBasePlotter (+ allows to switch them visible/invisible)">
<polygon fill="none" stroke="black" points="2444,-386.5 2444,-407.5 2575,-407.5 2575,-386.5 2444,-386.5"/>
<text text-anchor="middle" x="2509.5" y="-393.9" font-family="Helvetica,sans-Serif" font-size="12.00">JKQTPGraphsModel</text>
</a>
</g>
</g>
<!-- Node2&#45;&gt;Node16 -->
<g id="edge24" class="edge">
<title>Node2&#45;&gt;Node16</title>
<path fill="none" stroke="#9a32cd" stroke-dasharray="5,2" d="M2204.55,-340.33C2221.73,-352.12 2246.68,-367.27 2271,-375 2302.08,-384.87 2384.81,-390.92 2443.88,-394.12"/>
<polygon fill="#9a32cd" stroke="#9a32cd" points="2206.51,-337.42 2196.32,-334.52 2202.48,-343.15 2206.51,-337.42"/>
<text text-anchor="middle" x="2327.5" y="-393.4" font-family="Helvetica,sans-Serif" font-size="12.00"> m_plotter</text>
</g>
<!-- Node19 -->
<g id="node19" class="node">
<title>Node19</title>
<g id="a_node19"><a xlink:href="class_j_k_q_t_p_coordinate_axis.html" target="_top" xlink:title="this virtual class is the base for any type of coordinate axis, to be drawn by JKQTBasePlotter.">
<polygon fill="none" stroke="black" points="2438.5,-182.5 2438.5,-203.5 2580.5,-203.5 2580.5,-182.5 2438.5,-182.5"/>
<text text-anchor="middle" x="2509.5" y="-189.9" font-family="Helvetica,sans-Serif" font-size="12.00">JKQTPCoordinateAxis</text>
</a>
</g>
</g>
<!-- Node2&#45;&gt;Node19 -->
<g id="edge28" class="edge">
<title>Node2&#45;&gt;Node19</title>
<path fill="none" stroke="#9a32cd" stroke-dasharray="5,2" d="M2225.96,-309.07C2236.07,-303.8 2245.93,-296.89 2253,-288 2273.53,-262.18 2246.01,-237.53 2271,-216 2283.53,-205.2 2372.91,-198.92 2438.34,-195.73"/>
<polygon fill="#9a32cd" stroke="#9a32cd" points="2224.22,-306.02 2216.68,-313.46 2227.22,-312.35 2224.22,-306.02"/>
<text text-anchor="middle" x="2327.5" y="-219.4" font-family="Helvetica,sans-Serif" font-size="12.00"> parent</text>
</g>
<!-- Node3 -->
<g id="node3" class="node">
<title>Node3</title>
<g id="a_node3"><a xlink:title=" ">
<polygon fill="none" stroke="black" points="1531.5,-276.5 1531.5,-297.5 1596.5,-297.5 1596.5,-276.5 1531.5,-276.5"/>
<text text-anchor="middle" x="1564" y="-283.9" font-family="Helvetica,sans-Serif" font-size="12.00">QObject</text>
</a>
</g>
</g>
<!-- Node3&#45;&gt;Node2 -->
<g id="edge2" class="edge">
<title>Node3&#45;&gt;Node2</title>
<path fill="none" stroke="midnightblue" d="M1607.02,-292.47C1628.53,-295.2 1655.15,-298.44 1679,-301 1861.96,-320.62 1908.1,-336.23 2092,-330 2102.47,-329.65 2113.62,-329.06 2124.35,-328.38"/>
<polygon fill="midnightblue" stroke="midnightblue" points="1607.27,-288.98 1596.91,-291.18 1606.39,-295.92 1607.27,-288.98"/>
</g>
<!-- Node14 -->
<g id="node14" class="node">
<title>Node14</title>
<g id="a_node14"><a xlink:href="class_j_k_q_t_math_text.html" target="_top" xlink:title="this class parses a mathematical markup string and can then draw the contained text/equation onto a Q...">
<polygon fill="none" stroke="black" points="1856,-276.5 1856,-297.5 1955,-297.5 1955,-276.5 1856,-276.5"/>
<text text-anchor="middle" x="1905.5" y="-283.9" font-family="Helvetica,sans-Serif" font-size="12.00">JKQTMathText</text>
</a>
</g>
</g>
<!-- Node3&#45;&gt;Node14 -->
<g id="edge18" class="edge">
<title>Node3&#45;&gt;Node14</title>
<path fill="none" stroke="midnightblue" d="M1607,-287C1670.07,-287 1788.96,-287 1855.76,-287"/>
<polygon fill="midnightblue" stroke="midnightblue" points="1606.63,-283.5 1596.63,-287 1606.63,-290.5 1606.63,-283.5"/>
</g>
<!-- Node3&#45;&gt;Node19 -->
<g id="edge27" class="edge">
<title>Node3&#45;&gt;Node19</title>
<path fill="none" stroke="midnightblue" d="M1606.71,-276.43C1683.11,-257.61 1850.93,-218.79 1995,-203 2116.98,-189.63 2148.32,-198.33 2271,-196 2327.28,-194.93 2391.06,-194.15 2438.35,-193.65"/>
<polygon fill="midnightblue" stroke="midnightblue" points="1605.41,-273.14 1596.55,-278.95 1607.1,-279.94 1605.41,-273.14"/>
</g>
<!-- Node4 -->
<g id="node4" class="node">
<title>Node4</title>
<g id="a_node4"><a xlink:href="class_j_k_q_t_base_plotter_style.html" target="_top" xlink:title="Support Class for JKQTBasePlotter, which summarizes all properties that define the visual styling of ...">
<polygon fill="none" stroke="black" points="1834,-414.5 1834,-435.5 1977,-435.5 1977,-414.5 1834,-414.5"/>
<text text-anchor="middle" x="1905.5" y="-421.9" font-family="Helvetica,sans-Serif" font-size="12.00">JKQTBasePlotterStyle</text>
</a>
</g>
</g>
<!-- Node4&#45;&gt;Node2 -->
<g id="edge3" class="edge">
<title>Node4&#45;&gt;Node2</title>
<path fill="none" stroke="#9a32cd" stroke-dasharray="5,2" d="M1953.3,-411.58C1991.14,-400.31 2045.57,-383.19 2092,-365 2115.65,-355.74 2141.97,-343.25 2159.71,-334.5"/>
<polygon fill="#9a32cd" stroke="#9a32cd" points="1952.16,-408.26 1943.57,-414.45 1954.15,-414.97 1952.16,-408.26"/>
<text text-anchor="middle" x="2043.5" y="-401.4" font-family="Helvetica,sans-Serif" font-size="12.00"> plotterStyle</text>
</g>
<!-- Node5 -->
<g id="node5" class="node">
<title>Node5</title>
<g id="a_node5"><a xlink:href="class_j_k_q_t_p_key_style.html" target="_top" xlink:title="Support Class for JKQTBasePlotter, which summarizes all properties that define the visual styling of ...">
<polygon fill="none" stroke="black" points="1512,-509.5 1512,-530.5 1616,-530.5 1616,-509.5 1512,-509.5"/>
<text text-anchor="middle" x="1564" y="-516.9" font-family="Helvetica,sans-Serif" font-size="12.00">JKQTPKeyStyle</text>
</a>
</g>
</g>
<!-- Node5&#45;&gt;Node4 -->
<g id="edge4" class="edge">
<title>Node5&#45;&gt;Node4</title>
<path fill="none" stroke="#9a32cd" stroke-dasharray="5,2" d="M1626.43,-515.7C1678.25,-510.62 1753.71,-499.77 1816,-477 1844.12,-466.72 1873.45,-447.54 1890.28,-435.57"/>
<polygon fill="#9a32cd" stroke="#9a32cd" points="1626.02,-512.22 1616.39,-516.64 1626.67,-519.19 1626.02,-512.22"/>
<text text-anchor="middle" x="1747.5" y="-511.4" font-family="Helvetica,sans-Serif" font-size="12.00"> keyStyle</text>
</g>
<!-- Node6 -->
<g id="node6" class="node">
<title>Node6</title>
<g id="a_node6"><a xlink:href="class_j_k_q_t_p_coordinate_axis_style.html" target="_top" xlink:title="Support Class for JKQTPCoordinateAxis, which summarizes all properties that define the visual styling...">
<polygon fill="none" stroke="black" points="1152,-360.5 1152,-381.5 1323,-381.5 1323,-360.5 1152,-360.5"/>
<text text-anchor="middle" x="1237.5" y="-367.9" font-family="Helvetica,sans-Serif" font-size="12.00">JKQTPCoordinateAxisStyle</text>
</a>
</g>
</g>
<!-- Node6&#45;&gt;Node4 -->
<g id="edge5" class="edge">
<title>Node6&#45;&gt;Node4</title>
<path fill="none" stroke="#9a32cd" stroke-dasharray="5,2" d="M1332.1,-382.74C1338.5,-383.51 1344.84,-384.27 1351,-385 1402.52,-391.09 1415.32,-393.51 1467,-398 1596.26,-409.22 1747.41,-417.47 1833.95,-421.73"/>
<polygon fill="#9a32cd" stroke="#9a32cd" points="1332.39,-379.25 1322.04,-381.51 1331.54,-386.19 1332.39,-379.25"/>
<text text-anchor="middle" x="1564" y="-428.4" font-family="Helvetica,sans-Serif" font-size="12.00"> xAxisStyle</text>
<text text-anchor="middle" x="1564" y="-415.4" font-family="Helvetica,sans-Serif" font-size="12.00">yAxisStyle</text>
</g>
<!-- Node8 -->
<g id="node8" class="node">
<title>Node8</title>
<g id="a_node8"><a xlink:href="class_j_k_q_t_p_colorbar_coordinate_axis_style.html" target="_top" xlink:title="Support Class for JKQTPCoordinateAxis, which summarizes all properties that define the visual styling...">
<polygon fill="none" stroke="black" points="1467,-354 1467,-388 1661,-388 1661,-354 1467,-354"/>
<text text-anchor="start" x="1475" y="-374.4" font-family="Helvetica,sans-Serif" font-size="12.00">JKQTPColorbarCoordinateAxis</text>
<text text-anchor="middle" x="1564" y="-361.4" font-family="Helvetica,sans-Serif" font-size="12.00">Style</text>
</a>
</g>
</g>
<!-- Node6&#45;&gt;Node8 -->
<g id="edge8" class="edge">
<title>Node6&#45;&gt;Node8</title>
<path fill="none" stroke="midnightblue" d="M1333.56,-371C1375.54,-371 1424.81,-371 1466.91,-371"/>
<polygon fill="midnightblue" stroke="midnightblue" points="1333.33,-367.5 1323.33,-371 1333.33,-374.5 1333.33,-367.5"/>
</g>
<!-- Node6&#45;&gt;Node19 -->
<g id="edge29" class="edge">
<title>Node6&#45;&gt;Node19</title>
<path fill="none" stroke="#9a32cd" stroke-dasharray="5,2" d="M1251.72,-352.16C1291.76,-297.55 1417.88,-143 1563,-143 1563,-143 1563,-143 2182.5,-143 2285.71,-143 2405.2,-167.79 2466.87,-182.46"/>
<polygon fill="#9a32cd" stroke="#9a32cd" points="1248.86,-350.15 1245.85,-360.31 1254.53,-354.24 1248.86,-350.15"/>
<text text-anchor="middle" x="1905.5" y="-146.4" font-family="Helvetica,sans-Serif" font-size="12.00"> axisStyle</text>
</g>
<!-- Node7 -->
<g id="node7" class="node">
<title>Node7</title>
<g id="a_node7"><a xlink:href="class_j_k_q_t_p_grid_style.html" target="_top" xlink:title="Support Class for JKQTPCoordinateAxis, and summarizes all properties that define the visual styling o...">
<polygon fill="none" stroke="black" points="851.5,-360.5 851.5,-381.5 958.5,-381.5 958.5,-360.5 851.5,-360.5"/>
<text text-anchor="middle" x="905" y="-367.9" font-family="Helvetica,sans-Serif" font-size="12.00">JKQTPGridStyle</text>
</a>
</g>
</g>
<!-- Node7&#45;&gt;Node6 -->
<g id="edge6" class="edge">
<title>Node7&#45;&gt;Node6</title>
<path fill="none" stroke="#9a32cd" stroke-dasharray="5,2" d="M968.79,-371C1020.62,-371 1094.66,-371 1151.74,-371"/>
<polygon fill="#9a32cd" stroke="#9a32cd" points="968.73,-367.5 958.73,-371 968.73,-374.5 968.73,-367.5"/>
<text text-anchor="middle" x="1069.5" y="-387.4" font-family="Helvetica,sans-Serif" font-size="12.00"> majorGridStyle</text>
<text text-anchor="middle" x="1069.5" y="-374.4" font-family="Helvetica,sans-Serif" font-size="12.00">minorGridStyle</text>
</g>
<!-- Node8&#45;&gt;Node4 -->
<g id="edge7" class="edge">
<title>Node8&#45;&gt;Node4</title>
<path fill="none" stroke="#9a32cd" stroke-dasharray="5,2" d="M1671.38,-368.33C1716.53,-369.4 1769.4,-373.59 1816,-385 1841.55,-391.26 1868.82,-404.74 1886.23,-414.32"/>
<polygon fill="#9a32cd" stroke="#9a32cd" points="1671.33,-364.83 1661.27,-368.14 1671.2,-371.83 1671.33,-364.83"/>
<text text-anchor="middle" x="1747.5" y="-401.4" font-family="Helvetica,sans-Serif" font-size="12.00"> rightColorbarAxisStyle</text>
<text text-anchor="middle" x="1747.5" y="-388.4" font-family="Helvetica,sans-Serif" font-size="12.00">topColorbarAxisStyle</text>
</g>
<!-- Node9 -->
<g id="node9" class="node">
<title>Node9</title>
<g id="a_node9"><a xlink:href="class_j_k_q_t_graphs_base_style.html" target="_top" xlink:title="Support Class for JKQTBasePlotter, which summarizes all properties that define the visual styling of ...">
<polygon fill="none" stroke="black" points="1491,-469.5 1491,-490.5 1637,-490.5 1637,-469.5 1491,-469.5"/>
<text text-anchor="middle" x="1564" y="-476.9" font-family="Helvetica,sans-Serif" font-size="12.00">JKQTGraphsBaseStyle</text>
</a>
</g>
</g>
<!-- Node9&#45;&gt;Node4 -->
<g id="edge9" class="edge">
<title>Node9&#45;&gt;Node4</title>
<path fill="none" stroke="#9a32cd" stroke-dasharray="5,2" d="M1640.19,-467.82C1699.99,-458.13 1782.76,-444.72 1839.66,-435.5"/>
<polygon fill="#9a32cd" stroke="#9a32cd" points="1639.37,-464.41 1630.06,-469.46 1640.49,-471.32 1639.37,-464.41"/>
<text text-anchor="middle" x="1747.5" y="-463.4" font-family="Helvetica,sans-Serif" font-size="12.00"> graphsStyle</text>
</g>
<!-- Node10 -->
<g id="node10" class="node">
<title>Node10</title>
<g id="a_node10"><a xlink:href="class_j_k_q_t_graphs_specific_style_properties.html" target="_top" xlink:title="Support Class for JKQTBasePlotter, which summarizes all properties that define the visual styling of ...">
<polygon fill="none" stroke="black" points="399,-469.5 399,-490.5 623,-490.5 623,-469.5 399,-469.5"/>
<text text-anchor="middle" x="511" y="-476.9" font-family="Helvetica,sans-Serif" font-size="12.00">JKQTGraphsSpecificStyleProperties</text>
</a>
</g>
</g>
<!-- Node10&#45;&gt;Node9 -->
<g id="edge10" class="edge">
<title>Node10&#45;&gt;Node9</title>
<path fill="none" stroke="#9a32cd" stroke-dasharray="5,2" d="M612.04,-491.59C670.53,-497.71 745.84,-504.47 813,-507 1095.52,-517.66 1167.08,-515.32 1449,-494 1462.52,-492.98 1476.9,-491.51 1490.73,-489.91"/>
<polygon fill="#9a32cd" stroke="#9a32cd" points="612.38,-488.1 602.07,-490.53 611.64,-495.06 612.38,-488.1"/>
<text text-anchor="middle" x="1069.5" y="-568.4" font-family="Helvetica,sans-Serif" font-size="12.00"> barchartStyle</text>
<text text-anchor="middle" x="1069.5" y="-555.4" font-family="Helvetica,sans-Serif" font-size="12.00">boxplotStyle</text>
<text text-anchor="middle" x="1069.5" y="-542.4" font-family="Helvetica,sans-Serif" font-size="12.00">defaultGraphStyle</text>
<text text-anchor="middle" x="1069.5" y="-529.4" font-family="Helvetica,sans-Serif" font-size="12.00">filledStyle</text>
<text text-anchor="middle" x="1069.5" y="-516.4" font-family="Helvetica,sans-Serif" font-size="12.00">impulseStyle</text>
</g>
<!-- Node12 -->
<g id="node12" class="node">
<title>Node12</title>
<g id="a_node12"><a xlink:href="class_j_k_q_t_geometric_specific_style_properties.html" target="_top" xlink:title="Support Class for JKQTBasePlotter, which summarizes all properties that define the visual styling of ...">
<polygon fill="none" stroke="black" points="813,-463 813,-497 997,-497 997,-463 813,-463"/>
<text text-anchor="start" x="821" y="-483.4" font-family="Helvetica,sans-Serif" font-size="12.00">JKQTGeometricSpecificStyle</text>
<text text-anchor="middle" x="905" y="-470.4" font-family="Helvetica,sans-Serif" font-size="12.00">Properties</text>
</a>
</g>
</g>
<!-- Node10&#45;&gt;Node12 -->
<g id="edge13" class="edge">
<title>Node10&#45;&gt;Node12</title>
<path fill="none" stroke="midnightblue" d="M633.34,-480C691.25,-480 759.38,-480 812.8,-480"/>
<polygon fill="midnightblue" stroke="midnightblue" points="633.02,-476.5 623.02,-480 633.02,-483.5 633.02,-476.5"/>
</g>
<!-- Node11 -->
<g id="node11" class="node">
<title>Node11</title>
<g id="a_node11"><a xlink:href="struct_j_k_q_t_p_color_derivation_mode.html" target="_top" xlink:title="Specifies how a fill&#45;color is derived from a given color.">
<polygon fill="none" stroke="black" points="0,-438.5 0,-459.5 179,-459.5 179,-438.5 0,-438.5"/>
<text text-anchor="middle" x="89.5" y="-445.9" font-family="Helvetica,sans-Serif" font-size="12.00">JKQTPColorDerivationMode</text>
</a>
</g>
</g>
<!-- Node11&#45;&gt;Node10 -->
<g id="edge11" class="edge">
<title>Node11&#45;&gt;Node10</title>
<path fill="none" stroke="#9a32cd" stroke-dasharray="5,2" d="M189.53,-456.32C252.41,-460.96 333.9,-466.99 398.97,-471.8"/>
<polygon fill="#9a32cd" stroke="#9a32cd" points="189.44,-452.8 179.21,-455.56 188.92,-459.78 189.44,-452.8"/>
<text text-anchor="middle" x="289" y="-524.4" font-family="Helvetica,sans-Serif" font-size="12.00"> errorColorDerivationMode</text>
<text text-anchor="middle" x="289" y="-511.4" font-family="Helvetica,sans-Serif" font-size="12.00">errorFillColorDerivationMode</text>
<text text-anchor="middle" x="289" y="-498.4" font-family="Helvetica,sans-Serif" font-size="12.00">fillColorDerivationMode</text>
<text text-anchor="middle" x="289" y="-485.4" font-family="Helvetica,sans-Serif" font-size="12.00">graphColorDerivationMode</text>
<text text-anchor="middle" x="289" y="-472.4" font-family="Helvetica,sans-Serif" font-size="12.00">symbolFillColorDerivationMode</text>
</g>
<!-- Node13 -->
<g id="node13" class="node">
<title>Node13</title>
<g id="a_node13"><a xlink:href="class_j_k_q_t_annotations_specific_style_properties.html" target="_top" xlink:title="Support Class for JKQTBasePlotter, which summarizes all properties that define the visual styling of ...">
<polygon fill="none" stroke="black" points="1142,-415 1142,-449 1333,-449 1333,-415 1142,-415"/>
<text text-anchor="start" x="1150" y="-435.4" font-family="Helvetica,sans-Serif" font-size="12.00">JKQTAnnotationsSpecificStyle</text>
<text text-anchor="middle" x="1237.5" y="-422.4" font-family="Helvetica,sans-Serif" font-size="12.00">Properties</text>
</a>
</g>
</g>
<!-- Node11&#45;&gt;Node13 -->
<g id="edge16" class="edge">
<title>Node11&#45;&gt;Node13</title>
<path fill="none" stroke="#9a32cd" stroke-dasharray="5,2" d="M189.64,-447.53C407.99,-444.29 927.98,-436.58 1141.99,-433.4"/>
<polygon fill="#9a32cd" stroke="#9a32cd" points="189.42,-444.03 179.47,-447.68 189.52,-451.03 189.42,-444.03"/>
<text text-anchor="middle" x="718" y="-443.4" font-family="Helvetica,sans-Serif" font-size="12.00"> textColorDerivationMode</text>
</g>
<!-- Node12&#45;&gt;Node9 -->
<g id="edge12" class="edge">
<title>Node12&#45;&gt;Node9</title>
<path fill="none" stroke="#9a32cd" stroke-dasharray="5,2" d="M1007.25,-480C1140.94,-480 1373.1,-480 1490.53,-480"/>
<polygon fill="#9a32cd" stroke="#9a32cd" points="1007.01,-476.5 997.01,-480 1007.01,-483.5 1007.01,-476.5"/>
<text text-anchor="middle" x="1237.5" y="-483.4" font-family="Helvetica,sans-Serif" font-size="12.00"> geometricStyle</text>
</g>
<!-- Node12&#45;&gt;Node13 -->
<g id="edge15" class="edge">
<title>Node12&#45;&gt;Node13</title>
<path fill="none" stroke="midnightblue" d="M1007.35,-465.28C1050.18,-459.06 1099.79,-451.86 1141.87,-445.74"/>
<polygon fill="midnightblue" stroke="midnightblue" points="1006.58,-461.86 997.19,-466.76 1007.58,-468.78 1006.58,-461.86"/>
</g>
<!-- Node13&#45;&gt;Node9 -->
<g id="edge14" class="edge">
<title>Node13&#45;&gt;Node9</title>
<path fill="none" stroke="#9a32cd" stroke-dasharray="5,2" d="M1343.56,-444.33C1377.29,-448.6 1414.77,-453.66 1449,-459 1468.68,-462.07 1490.19,-465.91 1509.17,-469.46"/>
<polygon fill="#9a32cd" stroke="#9a32cd" points="1343.58,-440.81 1333.23,-443.03 1342.71,-447.75 1343.58,-440.81"/>
<text text-anchor="middle" x="1400" y="-462.4" font-family="Helvetica,sans-Serif" font-size="12.00"> annotationStyle</text>
</g>
<!-- Node14&#45;&gt;Node2 -->
<g id="edge17" class="edge">
<title>Node14&#45;&gt;Node2</title>
<path fill="none" stroke="#9a32cd" stroke-dasharray="5,2" d="M1965.32,-296.59C1975.22,-298.12 1985.4,-299.65 1995,-301 2038.38,-307.12 2087.59,-313.18 2124.42,-317.54"/>
<polygon fill="#9a32cd" stroke="#9a32cd" points="1965.57,-293.08 1955.15,-295 1964.48,-300 1965.57,-293.08"/>
<text text-anchor="middle" x="2043.5" y="-316.4" font-family="Helvetica,sans-Serif" font-size="12.00"> mathText</text>
</g>
<!-- Node15 -->
<g id="node15" class="node">
<title>Node15</title>
<g id="a_node15"><a xlink:href="class_j_k_q_t_math_text_node.html" target="_top" xlink:title="subclass representing one node in the syntax tree">
<polygon fill="none" stroke="black" points="2116,-226.5 2116,-247.5 2247,-247.5 2247,-226.5 2116,-226.5"/>
<text text-anchor="middle" x="2181.5" y="-233.9" font-family="Helvetica,sans-Serif" font-size="12.00">JKQTMathTextNode</text>
</a>
</g>
</g>
<!-- Node14&#45;&gt;Node15 -->
<g id="edge20" class="edge">
<title>Node14&#45;&gt;Node15</title>
<path fill="none" stroke="#9a32cd" stroke-dasharray="5,2" d="M1922.27,-268.61C1938.47,-251.26 1965.46,-226.39 1995,-216 2048.66,-197.14 2115.93,-214.01 2152.93,-226.48"/>
<polygon fill="#9a32cd" stroke="#9a32cd" points="1919.31,-266.66 1915.21,-276.43 1924.51,-271.35 1919.31,-266.66"/>
<text text-anchor="middle" x="2043.5" y="-219.4" font-family="Helvetica,sans-Serif" font-size="12.00"> parentMathText</text>
</g>
<!-- Node15&#45;&gt;Node14 -->
<g id="edge19" class="edge">
<title>Node15&#45;&gt;Node14</title>
<path fill="none" stroke="#9a32cd" stroke-dasharray="5,2" d="M2142.08,-250.89C2126.68,-256 2108.67,-261.41 2092,-265 2046.19,-274.87 1992.99,-280.61 1955.34,-283.73"/>
<polygon fill="#9a32cd" stroke="#9a32cd" points="2143.43,-254.13 2151.77,-247.6 2141.18,-247.5 2143.43,-254.13"/>
<text text-anchor="middle" x="2043.5" y="-282.4" font-family="Helvetica,sans-Serif" font-size="12.00"> parsedNode</text>
</g>
<!-- Node15&#45;&gt;Node15 -->
<g id="edge21" class="edge">
<title>Node15&#45;&gt;Node15</title>
<path fill="none" stroke="#9a32cd" stroke-dasharray="5,2" d="M2155.93,-257.06C2157.61,-262.16 2166.13,-266 2181.5,-266 2205.49,-266 2212.8,-256.65 2203.43,-247.71"/>
<polygon fill="#9a32cd" stroke="#9a32cd" points="2159.21,-258.3 2159.57,-247.71 2152.68,-255.76 2159.21,-258.3"/>
<text text-anchor="middle" x="2181.5" y="-269.4" font-family="Helvetica,sans-Serif" font-size="12.00"> parentNode</text>
</g>
<!-- Node16&#45;&gt;Node2 -->
<g id="edge22" class="edge">
<title>Node16&#45;&gt;Node2</title>
<path fill="none" stroke="#9a32cd" stroke-dasharray="5,2" d="M2464.34,-383.57C2440.65,-376.62 2410.87,-368.3 2384,-362 2357.05,-355.68 2288.5,-343.02 2238.82,-334.05"/>
<polygon fill="#9a32cd" stroke="#9a32cd" points="2463.51,-386.97 2474.1,-386.45 2465.5,-380.26 2463.51,-386.97"/>
<text text-anchor="middle" x="2327.5" y="-365.4" font-family="Helvetica,sans-Serif" font-size="12.00"> m_plotsModel</text>
</g>
<!-- Node17 -->
<g id="node17" class="node">
<title>Node17</title>
<g id="a_node17"><a xlink:title=" ">
<polygon fill="none" stroke="black" points="2110,-414.5 2110,-435.5 2253,-435.5 2253,-414.5 2110,-414.5"/>
<text text-anchor="middle" x="2181.5" y="-421.9" font-family="Helvetica,sans-Serif" font-size="12.00">QAbstractTableModel</text>
</a>
</g>
</g>
<!-- Node17&#45;&gt;Node16 -->
<g id="edge23" class="edge">
<title>Node17&#45;&gt;Node16</title>
<path fill="none" stroke="midnightblue" d="M2263.6,-420.16C2300.39,-417.76 2344.42,-414.6 2384,-411 2403.5,-409.23 2424.67,-406.97 2443.94,-404.79"/>
<polygon fill="midnightblue" stroke="midnightblue" points="2263.18,-416.68 2253.43,-420.81 2263.64,-423.66 2263.18,-416.68"/>
</g>
<!-- Node18 -->
<g id="node18" class="node">
<title>Node18</title>
<g id="a_node18"><a xlink:href="class_j_k_q_t_p_horizontal_axis.html" target="_top" xlink:title="implements a horizontal axis, based on JKQTPCoordinateAxis (for most of documentation: see JKQTPCoord...">
<polygon fill="none" stroke="black" points="2654,-264.5 2654,-285.5 2791,-285.5 2791,-264.5 2654,-264.5"/>
<text text-anchor="middle" x="2722.5" y="-271.9" font-family="Helvetica,sans-Serif" font-size="12.00">JKQTPHorizontalAxis</text>
</a>
</g>
</g>
<!-- Node18&#45;&gt;Node2 -->
<g id="edge25" class="edge">
<title>Node18&#45;&gt;Node2</title>
<path fill="none" stroke="#9a32cd" stroke-dasharray="5,2" d="M2643.71,-280.82C2578.99,-285.79 2484.45,-293.33 2402,-301 2346.49,-306.17 2283.17,-312.89 2238.86,-317.73"/>
<polygon fill="#9a32cd" stroke="#9a32cd" points="2644.13,-284.3 2653.83,-280.05 2643.6,-277.32 2644.13,-284.3"/>
<text text-anchor="middle" x="2509.5" y="-304.4" font-family="Helvetica,sans-Serif" font-size="12.00"> xAxis</text>
</g>
<!-- Node19&#45;&gt;Node18 -->
<g id="edge26" class="edge">
<title>Node19&#45;&gt;Node18</title>
<path fill="none" stroke="midnightblue" d="M2569.78,-206.12C2585.36,-210.23 2602,-215.23 2617,-221 2633.77,-227.45 2676.88,-250.55 2702.18,-264.36"/>
<polygon fill="midnightblue" stroke="midnightblue" points="2570.28,-202.63 2559.72,-203.54 2568.54,-209.41 2570.28,-202.63"/>
</g>
<!-- Node20 -->
<g id="node20" class="node">
<title>Node20</title>
<g id="a_node20"><a xlink:href="class_j_k_q_t_p_vertical_axis.html" target="_top" xlink:title="implements a vertical axis, based on JKQTPCoordinateAxis (for most of documentation: see JKQTPCoordin...">
<polygon fill="none" stroke="black" points="2661.5,-207.5 2661.5,-228.5 2783.5,-228.5 2783.5,-207.5 2661.5,-207.5"/>
<text text-anchor="middle" x="2722.5" y="-214.9" font-family="Helvetica,sans-Serif" font-size="12.00">JKQTPVerticalAxis</text>
</a>
</g>
</g>
<!-- Node19&#45;&gt;Node20 -->
<g id="edge31" class="edge">
<title>Node19&#45;&gt;Node20</title>
<path fill="none" stroke="midnightblue" d="M2590.84,-201.76C2605.86,-203.45 2621.41,-205.25 2636,-207 2644.17,-207.98 2652.78,-209.05 2661.26,-210.12"/>
<polygon fill="midnightblue" stroke="midnightblue" points="2590.88,-198.24 2580.55,-200.6 2590.1,-205.2 2590.88,-198.24"/>
</g>
<!-- Node20&#45;&gt;Node2 -->
<g id="edge30" class="edge">
<title>Node20&#45;&gt;Node2</title>
<path fill="none" stroke="#9a32cd" stroke-dasharray="5,2" d="M2651.3,-226.26C2586.33,-234.4 2487.21,-248.05 2402,-265 2343.11,-276.72 2328.93,-282.2 2271,-298 2253.23,-302.85 2233.57,-308.58 2217.3,-313.44"/>
<polygon fill="#9a32cd" stroke="#9a32cd" points="2651.93,-229.71 2661.42,-225 2651.07,-222.76 2651.93,-229.71"/>
<text text-anchor="middle" x="2509.5" y="-268.4" font-family="Helvetica,sans-Serif" font-size="12.00"> yAxis</text>
</g>
<!-- Node21 -->
<g id="node21" class="node">
<title>Node21</title>
<g id="a_node21"><a xlink:href="class_j_k_q_t_p_datastore.html" target="_top" xlink:title="This class manages data columns (with entries of type double ), used by JKQTPlotter/JKQTBasePlotter t...">
<polygon fill="none" stroke="black" points="1850,-85.5 1850,-106.5 1961,-106.5 1961,-85.5 1850,-85.5"/>
<text text-anchor="middle" x="1905.5" y="-92.9" font-family="Helvetica,sans-Serif" font-size="12.00">JKQTPDatastore</text>
</a>
</g>
</g>
<!-- Node21&#45;&gt;Node2 -->
<g id="edge32" class="edge">
<title>Node21&#45;&gt;Node2</title>
<path fill="none" stroke="#9a32cd" stroke-dasharray="5,2" d="M1966.1,-111.41C1970.17,-114.11 1973.88,-117.28 1977,-121 2008.26,-158.29 1961.08,-194.11 1995,-229 2025.62,-260.5 2057.59,-220.7 2092,-248 2107.27,-260.12 2096.56,-273.88 2110,-288 2120.71,-299.25 2135.7,-307.58 2149.1,-313.38"/>
<polygon fill="#9a32cd" stroke="#9a32cd" points="1967.77,-108.33 1957.33,-106.51 1964.35,-114.45 1967.77,-108.33"/>
<text text-anchor="middle" x="2043.5" y="-251.4" font-family="Helvetica,sans-Serif" font-size="12.00"> datastore</text>
</g>
<!-- Node23 -->
<g id="node23" class="node">
<title>Node23</title>
<g id="a_node23"><a xlink:href="class_j_k_q_t_p_column.html" target="_top" xlink:title="internally stores information about one data column. See JKQTPDatastore for more information.">
<polygon fill="none" stroke="black" points="2132.5,-89.5 2132.5,-110.5 2230.5,-110.5 2230.5,-89.5 2132.5,-89.5"/>
<text text-anchor="middle" x="2181.5" y="-96.9" font-family="Helvetica,sans-Serif" font-size="12.00">JKQTPColumn</text>
</a>
</g>
</g>
<!-- Node21&#45;&gt;Node23 -->
<g id="edge35" class="edge">
<title>Node21&#45;&gt;Node23</title>
<path fill="none" stroke="#9a32cd" stroke-dasharray="5,2" d="M1971.54,-96.95C2020.87,-97.67 2087.58,-98.64 2132.22,-99.3"/>
<polygon fill="#9a32cd" stroke="#9a32cd" points="1971.34,-93.45 1961.29,-96.8 1971.24,-100.45 1971.34,-93.45"/>
<text text-anchor="middle" x="2043.5" y="-101.4" font-family="Helvetica,sans-Serif" font-size="12.00"> datastore</text>
</g>
<!-- Node22 -->
<g id="node22" class="node">
<title>Node22</title>
<g id="a_node22"><a xlink:title=" ">
<polygon fill="none" stroke="black" points="2402,-47.5 2402,-68.5 2617,-68.5 2617,-47.5 2402,-47.5"/>
<text text-anchor="middle" x="2509.5" y="-54.9" font-family="Helvetica,sans-Serif" font-size="12.00">std::unique_ptr&lt; JKQTPColumn &gt;</text>
</a>
</g>
</g>
<!-- Node22&#45;&gt;Node21 -->
<g id="edge33" class="edge">
<title>Node22&#45;&gt;Node21</title>
<path fill="none" stroke="#9a32cd" stroke-dasharray="5,2" d="M2391.71,-56.99C2312.18,-57.19 2204.58,-59.22 2110,-67 2059.32,-71.17 2002,-79.68 1961.15,-86.41"/>
<polygon fill="#9a32cd" stroke="#9a32cd" points="2391.77,-60.49 2401.76,-56.97 2391.76,-53.49 2391.77,-60.49"/>
<text text-anchor="middle" x="2181.5" y="-70.4" font-family="Helvetica,sans-Serif" font-size="12.00"> m_invalidColumn</text>
</g>
<!-- Node23&#45;&gt;Node22 -->
<g id="edge34" class="edge">
<title>Node23&#45;&gt;Node22</title>
<path fill="none" stroke="#9a32cd" stroke-dasharray="5,2" d="M2240.64,-92.51C2292.51,-85.83 2369.02,-75.97 2427,-68.5"/>
<polygon fill="#9a32cd" stroke="#9a32cd" points="2240.07,-89.05 2230.6,-93.8 2240.97,-96 2240.07,-89.05"/>
<text text-anchor="middle" x="2327.5" y="-90.4" font-family="Helvetica,sans-Serif" font-size="12.00"> ptr</text>
</g>
<!-- Node24 -->
<g id="node24" class="node">
<title>Node24</title>
<g id="a_node24"><a xlink:title=" ">
<polygon fill="none" stroke="black" points="2111.5,-0.5 2111.5,-21.5 2251.5,-21.5 2251.5,-0.5 2111.5,-0.5"/>
<text text-anchor="middle" x="2181.5" y="-7.9" font-family="Helvetica,sans-Serif" font-size="12.00">std::unique_ptr&lt; T &gt;</text>
</a>
</g>
</g>
<!-- Node24&#45;&gt;Node22 -->
<g id="edge36" class="edge">
<title>Node24&#45;&gt;Node22</title>
<path fill="none" stroke="orange" stroke-dasharray="5,2" d="M2262.04,-16.78C2299.21,-20.02 2344.01,-24.7 2384,-31 2411.42,-35.32 2441.88,-41.89 2465.8,-47.47"/>
<polygon fill="orange" stroke="orange" points="2262.02,-13.26 2251.76,-15.9 2261.43,-20.24 2262.02,-13.26"/>
<text text-anchor="middle" x="2327.5" y="-34.4" font-family="Helvetica,sans-Serif" font-size="12.00"> &lt; JKQTPColumn &gt;</text>
</g>
<!-- Node25 -->
<g id="node25" class="node">
<title>Node25</title>
<g id="a_node25"><a xlink:title=" ">
<polygon fill="none" stroke="black" points="1891,-0.5 1891,-21.5 1920,-21.5 1920,-0.5 1891,-0.5"/>
<text text-anchor="middle" x="1905.5" y="-7.9" font-family="Helvetica,sans-Serif" font-size="12.00">T</text>
</a>
</g>
</g>
<!-- Node25&#45;&gt;Node24 -->
<g id="edge37" class="edge">
<title>Node25&#45;&gt;Node24</title>
<path fill="none" stroke="#9a32cd" stroke-dasharray="5,2" d="M1930.17,-11C1970.06,-11 2052.14,-11 2111.46,-11"/>
<polygon fill="#9a32cd" stroke="#9a32cd" points="1930.09,-7.5 1920.09,-11 1930.09,-14.5 1930.09,-7.5"/>
<text text-anchor="middle" x="2043.5" y="-14.4" font-family="Helvetica,sans-Serif" font-size="12.00"> ptr</text>
</g>
</g>
</svg>
        <g id="navigator" transform="translate(0 0)" fill="#404254">
                <rect fill="#f2f5e9" fill-opacity="0.5" stroke="#606060" stroke-width=".5" x="0" y="0" width="60" height="60"/>
                <use id="zoomplus" xlink:href="#zoomPlus" x="17" y="9" onmousedown="handleZoom(evt,'in')"/>
                <use id="zoomminus" xlink:href="#zoomMin" x="42" y="9" onmousedown="handleZoom(evt,'out')"/>
                <use id="reset" xlink:href="#resetDef" x="30" y="36" onmousedown="handleReset()"/>
                <g id="arrowUp" xlink:href="#dirArrow" transform="translate(30 24)" onmousedown="handlePan(0,-1)">
                  <use xlink:href="#rim" fill="#404040">
                        <set attributeName="fill" to="#808080" begin="arrowUp.mouseover" end="arrowUp.mouseout"/>
                  </use>
                  <path fill="none" stroke="white" stroke-width="1.5" d="M0,-3.0v7 M-2.5,-0.5L0,-3.0L2.5,-0.5"/>
                </g>
                <g id="arrowRight" xlink:href="#dirArrow" transform="rotate(90) translate(36 -43)" onmousedown="handlePan(1,0)">
                  <use xlink:href="#rim" fill="#404040">
                        <set attributeName="fill" to="#808080" begin="arrowRight.mouseover" end="arrowRight.mouseout"/>
                  </use>
                  <path fill="none" stroke="white" stroke-width="1.5" d="M0,-3.0v7 M-2.5,-0.5L0,-3.0L2.5,-0.5"/>
                </g>
                <g id="arrowDown" xlink:href="#dirArrow" transform="rotate(180) translate(-30 -48)" onmousedown="handlePan(0,1)">
                  <use xlink:href="#rim" fill="#404040">
                        <set attributeName="fill" to="#808080" begin="arrowDown.mouseover" end="arrowDown.mouseout"/>
                  </use>
                  <path fill="none" stroke="white" stroke-width="1.5" d="M0,-3.0v7 M-2.5,-0.5L0,-3.0L2.5,-0.5"/>
                </g>
                <g id="arrowLeft" xlink:href="#dirArrow" transform="rotate(270) translate(-36 17)" onmousedown="handlePan(-1,0)">
                  <use xlink:href="#rim" fill="#404040">
                        <set attributeName="fill" to="#808080" begin="arrowLeft.mouseover" end="arrowLeft.mouseout"/>
                  </use>
                  <path fill="none" stroke="white" stroke-width="1.5" d="M0,-3.0v7 M-2.5,-0.5L0,-3.0L2.5,-0.5"/>
                </g>
        </g>
        <svg viewBox="0 0 15 15" width="100%" height="30px" preserveAspectRatio="xMaxYMin meet">
         <g id="arrow_out" transform="scale(0.3 0.3)">
          <a xlink:href="struct_j_k_q_t_p_grid_printing_item__coll__graph_org.svg" target="_base">
           <rect id="button" ry="5" rx="5" y="6" x="6" height="38" width="38"
                fill="#f2f5e9" fill-opacity="0.5" stroke="#606060" stroke-width="1.0"/>
           <path id="arrow"
             d="M 11.500037,31.436501 C 11.940474,20.09759 22.043105,11.32322 32.158766,21.979434 L 37.068811,17.246167 C 37.068811,17.246167 37.088388,32 37.088388,32 L 22.160133,31.978069 C 22.160133,31.978069 26.997745,27.140456 26.997745,27.140456 C 18.528582,18.264221 13.291696,25.230495 11.500037,31.436501 z"
             style="fill:#404040;"/>
          </a>
         </g>
        </svg>
</svg>
