<?xml version="1.0" encoding="UTF-8" standalone="no"?>
<!DOCTYPE svg PUBLIC "-//W3C//DTD SVG 1.1//EN"
 "http://www.w3.org/Graphics/SVG/1.1/DTD/svg11.dtd">
<!-- Generated by graphviz version 2.43.0 (0)
 -->
<!-- Title: JKQTPParsedFunctionLineGraphBase::ParsedFunctionLineGraphFunctionData Pages: 1 -->
<!--zoomable 485 -->

<svg id="main" version="1.1" xmlns="http://www.w3.org/2000/svg" xmlns:xlink="http://www.w3.org/1999/xlink" xml:space="preserve" onload="init(evt)">
<style type="text/css"><![CDATA[
.node, .edge {opacity: 0.7;}
.node.selected, .edge.selected {opacity: 1;}
.edge:hover path { stroke: red; }
.edge:hover polygon { stroke: red; fill: red; }
]]></style>

<defs>
  <circle id="rim" cx="0" cy="0" r="7"/>
  <circle id="rim2" cx="0" cy="0" r="3.5"/>
  <g id="zoomPlus">
    <use xlink:href="#rim" fill="#404040"><set attributeName="fill" to="#808080" begin="zoomplus.mouseover" end="zoomplus.mouseout"/></use>
    <path d="M-4,0h8M0,-4v8" fill="none" stroke="white" stroke-width="1.5" pointer-events="none"/>
  </g>
  <g id="zoomMin">
    <use xlink:href="#rim" fill="#404040"><set attributeName="fill" to="#808080" begin="zoomminus.mouseover" end="zoomminus.mouseout"/></use>
    <path d="M-4,0h8" fill="none" stroke="white" stroke-width="1.5" pointer-events="none"/>
  </g>
  <g id="arrowUp" transform="translate(30 24)">
    <use xlink:href="#rim"/>
    <path pointer-events="none" fill="none" stroke="white" stroke-width="1.5" d="M0,-3.0v7 M-2.5,-0.5L0,-3.0L2.5,-0.5"/>
  </g>
  <g id="arrowRight" transform="rotate(90) translate(36 -43)">
    <use xlink:href="#rim"/>
    <path pointer-events="none" fill="none" stroke="white" stroke-width="1.5" d="M0,-3.0v7 M-2.5,-0.5L0,-3.0L2.5,-0.5"/>
  </g>
  <g id="arrowDown" transform="rotate(180) translate(-30 -48)">
    <use xlink:href="#rim"/>
    <path pointer-events="none" fill="none" stroke="white" stroke-width="1.5" d="M0,-3.0v7 M-2.5,-0.5L0,-3.0L2.5,-0.5"/>
  </g>
  <g id="arrowLeft" transform="rotate(270) translate(-36 17)">
    <use xlink:href="#rim"/>
    <path pointer-events="none" fill="none" stroke="white" stroke-width="1.5" d="M0,-3.0v7 M-2.5,-0.5L0,-3.0L2.5,-0.5"/>
  </g>
  <g id="resetDef">
    <use xlink:href="#rim2" fill="#404040"><set attributeName="fill" to="#808080" begin="reset.mouseover" end="reset.mouseout"/></use>
  </g>
</defs>
<script type="application/ecmascript">
var viewWidth = 2718;
var viewHeight = 485;
var sectionId = 'dynsection-0';
</script>
<script type="application/ecmascript" xlink:href="svg.min.js"/>
<svg id="graph" class="graph">
<g id="viewport">
<title>JKQTPParsedFunctionLineGraphBase::ParsedFunctionLineGraphFunctionData</title>
<!-- Node1 -->
<g id="Node000001" class="node">
<title>Node1</title>
<g id="a_Node000001"><a xlink:title="INTERNAL data structure combining a JKQTPMathParser and a JKQTPMathParser::jkmpNode.">
<polygon fill="#999999" stroke="#666666" points="2710,-259.93 2426,-259.93 2426,-225.93 2710,-225.93 2710,-259.93"/>
<text text-anchor="start" x="2434" y="-246.33" font-family="Helvetica,sans-Serif" font-size="12.00">JKQTPParsedFunctionLineGraph</text>
<text text-anchor="middle" x="2568" y="-233.33" font-family="Helvetica,sans-Serif" font-size="12.00">Base::ParsedFunctionLineGraphFunctionData</text>
</a>
</g>
</g>
<!-- Node2 -->
<g id="Node000002" class="node">
<title>Node2</title>
<g id="a_Node000002"><a xlink:title=" ">
<polygon fill="white" stroke="#666666" points="2111.5,-297.93 1926.5,-297.93 1926.5,-263.93 2111.5,-263.93 2111.5,-297.93"/>
<text text-anchor="start" x="1934.5" y="-284.33" font-family="Helvetica,sans-Serif" font-size="12.00">std::shared_ptr&lt; JKQTPMath</text>
<text text-anchor="middle" x="2019" y="-271.33" font-family="Helvetica,sans-Serif" font-size="12.00">Parser &gt;</text>
</a>
</g>
</g>
<!-- Node2&#45;&gt;Node1 -->
<g id="edge1_Node000001_Node000002" class="edge">
<title>Node2&#45;&gt;Node1</title>
<g id="a_edge1_Node000001_Node000002"><a xlink:title=" ">
<path fill="none" stroke="#9a32cd" stroke-dasharray="5,2" d="M2121.54,-273.87C2207.14,-267.93 2330.55,-259.36 2425.77,-252.74"/>
<polygon fill="#9a32cd" stroke="#9a32cd" points="2121.29,-270.38 2111.56,-274.57 2121.77,-277.37 2121.29,-270.38"/>
</a>
</g>
<text text-anchor="middle" x="2263.5" y="-274.33" font-family="Helvetica,sans-Serif" font-size="12.00" fill="grey"> parser</text>
</g>
<!-- Node3 -->
<g id="Node000003" class="node">
<title>Node3</title>
<g id="a_Node000003"><a xlink:href="class_j_k_q_t_p_math_parser.html" target="_top" xlink:title="A simple function parser to parse (build memory tree representation) and evaluate simple mathematical...">
<polygon fill="white" stroke="#666666" points="1743.5,-291.43 1622.5,-291.43 1622.5,-270.43 1743.5,-270.43 1743.5,-291.43"/>
<text text-anchor="middle" x="1683" y="-277.83" font-family="Helvetica,sans-Serif" font-size="12.00">JKQTPMathParser</text>
</a>
</g>
</g>
<!-- Node3&#45;&gt;Node2 -->
<g id="edge2_Node000002_Node000003" class="edge">
<title>Node3&#45;&gt;Node2</title>
<g id="a_edge2_Node000002_Node000003"><a xlink:title=" ">
<path fill="none" stroke="#9a32cd" stroke-dasharray="5,2" d="M1753.8,-280.93C1803.9,-280.93 1871.91,-280.93 1926.37,-280.93"/>
<polygon fill="#9a32cd" stroke="#9a32cd" points="1753.71,-277.43 1743.71,-280.93 1753.71,-284.43 1753.71,-277.43"/>
</a>
</g>
<text text-anchor="middle" x="1839" y="-284.33" font-family="Helvetica,sans-Serif" font-size="12.00" fill="grey"> ptr</text>
</g>
<!-- Node24 -->
<g id="Node000024" class="node">
<title>Node24</title>
<g id="a_Node000024"><a xlink:href="class_j_k_q_t_p_math_parser_1_1jkmp_node.html" target="_top" xlink:title="This class is the abstract base class for nodes. All allowed node types must inherit from jkmpNode.">
<polygon fill="white" stroke="#666666" points="2113,-214.43 1925,-214.43 1925,-193.43 2113,-193.43 2113,-214.43"/>
<text text-anchor="middle" x="2019" y="-200.83" font-family="Helvetica,sans-Serif" font-size="12.00">JKQTPMathParser::jkmpNode</text>
</a>
</g>
</g>
<!-- Node3&#45;&gt;Node24 -->
<g id="edge33_Node000024_Node000003" class="edge">
<title>Node3&#45;&gt;Node24</title>
<g id="a_edge33_Node000024_Node000003"><a xlink:title=" ">
<path fill="none" stroke="#9a32cd" stroke-dasharray="5,2" d="M1699.1,-262.43C1714.9,-244.67 1741.47,-218.95 1771,-207.93 1829.76,-186 1902,-187.82 1953.14,-193.41"/>
<polygon fill="#9a32cd" stroke="#9a32cd" points="1696.11,-260.55 1692.25,-270.42 1701.42,-265.11 1696.11,-260.55"/>
</a>
</g>
<text text-anchor="middle" x="1839" y="-211.33" font-family="Helvetica,sans-Serif" font-size="12.00" fill="grey"> parser</text>
</g>
<!-- Node4 -->
<g id="Node000004" class="node">
<title>Node4</title>
<g id="a_Node000004"><a xlink:title=" ">
<polygon fill="white" stroke="#666666" points="272.5,-260.43 196.5,-260.43 196.5,-239.43 272.5,-239.43 272.5,-260.43"/>
<text text-anchor="middle" x="234.5" y="-246.83" font-family="Helvetica,sans-Serif" font-size="12.00">std::string</text>
</a>
</g>
</g>
<!-- Node4&#45;&gt;Node3 -->
<g id="edge3_Node000003_Node000004" class="edge">
<title>Node4&#45;&gt;Node3</title>
<g id="a_edge3_Node000003_Node000004"><a xlink:title=" ">
<path fill="none" stroke="#9a32cd" stroke-dasharray="5,2" d="M273.32,-263.99C289.9,-269.68 309.71,-275.86 328,-279.93 394.67,-294.75 412.2,-298.93 480.5,-298.93 480.5,-298.93 480.5,-298.93 1376.5,-298.93 1462.04,-298.93 1560.82,-291.81 1622.35,-286.53"/>
<polygon fill="#9a32cd" stroke="#9a32cd" points="274.05,-260.54 263.45,-260.53 271.73,-267.14 274.05,-260.54"/>
</a>
</g>
<text text-anchor="middle" x="923.5" y="-328.33" font-family="Helvetica,sans-Serif" font-size="12.00" fill="grey"> StringValue</text>
<text text-anchor="start" x="851" y="-315.33" font-family="Helvetica,sans-Serif" font-size="12.00" fill="grey">jkmathparser_exception</text>
<text text-anchor="middle" x="923.5" y="-302.33" font-family="Helvetica,sans-Serif" font-size="12.00" fill="grey">_function</text>
</g>
<!-- Node12 -->
<g id="Node000012" class="node">
<title>Node12</title>
<g id="a_Node000012"><a xlink:href="struct_j_k_q_t_p_math_parser_1_1jkmp_temp_variable.html" target="_top" xlink:title="This struct is for managing temporary variables. It is generally like jkmpVariable.">
<polygon fill="white" stroke="#666666" points="793.5,-266.93 604.5,-266.93 604.5,-232.93 793.5,-232.93 793.5,-266.93"/>
<text text-anchor="start" x="612.5" y="-253.33" font-family="Helvetica,sans-Serif" font-size="12.00">JKQTPMathParser::jkmpTemp</text>
<text text-anchor="middle" x="699" y="-240.33" font-family="Helvetica,sans-Serif" font-size="12.00">Variable</text>
</a>
</g>
</g>
<!-- Node4&#45;&gt;Node12 -->
<g id="edge12_Node000012_Node000004" class="edge">
<title>Node4&#45;&gt;Node12</title>
<g id="a_edge12_Node000012_Node000004"><a xlink:title=" ">
<path fill="none" stroke="#9a32cd" stroke-dasharray="5,2" d="M282.68,-249.93C357.93,-249.93 506.55,-249.93 604.07,-249.93"/>
<polygon fill="#9a32cd" stroke="#9a32cd" points="282.57,-246.43 272.57,-249.93 282.57,-253.43 282.57,-246.43"/>
</a>
</g>
<text text-anchor="middle" x="347.5" y="-266.33" font-family="Helvetica,sans-Serif" font-size="12.00" fill="grey"> name</text>
<text text-anchor="middle" x="347.5" y="-253.33" font-family="Helvetica,sans-Serif" font-size="12.00" fill="grey">str</text>
</g>
<!-- Node15 -->
<g id="Node000015" class="node">
<title>Node15</title>
<g id="a_Node000015"><a xlink:title=" ">
<polygon fill="white" stroke="#666666" points="1487,-375.93 1264,-375.93 1264,-341.93 1487,-341.93 1487,-375.93"/>
<text text-anchor="start" x="1272" y="-362.33" font-family="Helvetica,sans-Serif" font-size="12.00">std::map&lt; std::string,</text>
<text text-anchor="middle" x="1375.5" y="-349.33" font-family="Helvetica,sans-Serif" font-size="12.00"> JKQTPMathParser::jkmpVariable &gt;</text>
</a>
</g>
</g>
<!-- Node4&#45;&gt;Node15 -->
<g id="edge16_Node000015_Node000004" class="edge">
<title>Node4&#45;&gt;Node15</title>
<g id="a_edge16_Node000015_Node000004"><a xlink:title=" ">
<path fill="none" stroke="#9a32cd" stroke-dasharray="5,2" d="M249.87,-268.55C266.62,-289.1 296.1,-321.92 328,-341.93 350.75,-356.19 358.8,-356.05 385,-361.93 697.2,-431.96 1078.88,-398.5 1263.69,-375.07"/>
<polygon fill="#9a32cd" stroke="#9a32cd" points="252.48,-266.2 243.5,-260.56 247,-270.56 252.48,-266.2"/>
</a>
</g>
<text text-anchor="middle" x="699" y="-407.33" font-family="Helvetica,sans-Serif" font-size="12.00" fill="grey"> keys</text>
</g>
<!-- Node16 -->
<g id="Node000016" class="node">
<title>Node16</title>
<g id="a_Node000016"><a xlink:href="struct_j_k_q_t_p_math_parser_1_1jkmp_variable.html" target="_top" xlink:title="This struct is for managing variables. Unlike jkmpResult this struct only contains pointers to the da...">
<polygon fill="white" stroke="#666666" points="802,-375.43 596,-375.43 596,-354.43 802,-354.43 802,-375.43"/>
<text text-anchor="middle" x="699" y="-361.83" font-family="Helvetica,sans-Serif" font-size="12.00">JKQTPMathParser::jkmpVariable</text>
</a>
</g>
</g>
<!-- Node4&#45;&gt;Node16 -->
<g id="edge18_Node000016_Node000004" class="edge">
<title>Node4&#45;&gt;Node16</title>
<g id="a_edge18_Node000016_Node000004"><a xlink:title=" ">
<path fill="none" stroke="#9a32cd" stroke-dasharray="5,2" d="M254.92,-267.12C272.66,-281.81 300.28,-302.21 328,-312.93 414.52,-346.37 519.83,-358.67 595.95,-363.02"/>
<polygon fill="#9a32cd" stroke="#9a32cd" points="256.93,-264.24 247.04,-260.44 252.4,-269.58 256.93,-264.24"/>
</a>
</g>
<text text-anchor="middle" x="347.5" y="-328.33" font-family="Helvetica,sans-Serif" font-size="12.00" fill="grey"> str</text>
</g>
<!-- Node19 -->
<g id="Node000019" class="node">
<title>Node19</title>
<g id="a_Node000019"><a xlink:title=" ">
<polygon fill="white" stroke="#666666" points="1481,-70.43 1270,-70.43 1270,-23.43 1481,-23.43 1481,-70.43"/>
<text text-anchor="start" x="1278" y="-56.83" font-family="Helvetica,sans-Serif" font-size="12.00">std::map&lt; std::string,</text>
<text text-anchor="start" x="1278" y="-43.83" font-family="Helvetica,sans-Serif" font-size="12.00"> JKQTPMathParser::jkmpFunction</text>
<text text-anchor="middle" x="1375.5" y="-30.83" font-family="Helvetica,sans-Serif" font-size="12.00">Descriptor &gt;</text>
</a>
</g>
</g>
<!-- Node4&#45;&gt;Node19 -->
<g id="edge23_Node000019_Node000004" class="edge">
<title>Node4&#45;&gt;Node19</title>
<g id="a_edge23_Node000019_Node000004"><a xlink:title=" ">
<path fill="none" stroke="#9a32cd" stroke-dasharray="5,2" d="M239.14,-229.42C247.46,-188.59 271.63,-96.72 328,-45.93 347.84,-28.05 358.64,-31.21 385,-26.93 704.07,24.85 1088.55,-10.27 1270,-32.54"/>
<polygon fill="#9a32cd" stroke="#9a32cd" points="235.7,-228.81 237.24,-239.29 242.57,-230.13 235.7,-228.81"/>
</a>
</g>
<text text-anchor="middle" x="699" y="-8.33" font-family="Helvetica,sans-Serif" font-size="12.00" fill="grey"> keys</text>
</g>
<!-- Node20 -->
<g id="Node000020" class="node">
<title>Node20</title>
<g id="a_Node000020"><a xlink:href="struct_j_k_q_t_p_math_parser_1_1jkmp_function_descriptor.html" target="_top" xlink:title="description of a user registered function">
<polygon fill="white" stroke="#666666" points="1027,-69.93 820,-69.93 820,-35.93 1027,-35.93 1027,-69.93"/>
<text text-anchor="start" x="828" y="-56.33" font-family="Helvetica,sans-Serif" font-size="12.00">JKQTPMathParser::jkmpFunction</text>
<text text-anchor="middle" x="923.5" y="-43.33" font-family="Helvetica,sans-Serif" font-size="12.00">Descriptor</text>
</a>
</g>
</g>
<!-- Node4&#45;&gt;Node20 -->
<g id="edge27_Node000020_Node000004" class="edge">
<title>Node4&#45;&gt;Node20</title>
<g id="a_edge27_Node000020_Node000004"><a xlink:title=" ">
<path fill="none" stroke="#9a32cd" stroke-dasharray="5,2" d="M248.37,-230.86C271.43,-198.48 323.2,-133.49 385,-104.93 469.51,-65.88 709.35,-73.99 802,-64.93 807.86,-64.36 813.88,-63.77 819.95,-63.17"/>
<polygon fill="#9a32cd" stroke="#9a32cd" points="245.49,-228.87 242.64,-239.07 251.24,-232.87 245.49,-228.87"/>
</a>
</g>
<text text-anchor="middle" x="481.5" y="-108.33" font-family="Helvetica,sans-Serif" font-size="12.00" fill="grey"> name</text>
</g>
<!-- Node21 -->
<g id="Node000021" class="node">
<title>Node21</title>
<g id="a_Node000021"><a xlink:href="struct_j_k_q_t_p_math_parser_1_1jkmp_result.html" target="_top" xlink:title="result of any expression">
<polygon fill="white" stroke="#666666" points="578,-57.43 385,-57.43 385,-36.43 578,-36.43 578,-57.43"/>
<text text-anchor="middle" x="481.5" y="-43.83" font-family="Helvetica,sans-Serif" font-size="12.00">JKQTPMathParser::jkmpResult</text>
</a>
</g>
</g>
<!-- Node4&#45;&gt;Node21 -->
<g id="edge26_Node000021_Node000004" class="edge">
<title>Node4&#45;&gt;Node21</title>
<g id="a_edge26_Node000021_Node000004"><a xlink:title=" ">
<path fill="none" stroke="#9a32cd" stroke-dasharray="5,2" d="M239.44,-229.02C247.97,-190.02 272.1,-106.55 328,-66.93 344.56,-55.19 364.72,-48.66 384.9,-45.28"/>
<polygon fill="#9a32cd" stroke="#9a32cd" points="235.98,-228.48 237.39,-238.98 242.83,-229.89 235.98,-228.48"/>
</a>
</g>
<text text-anchor="middle" x="347.5" y="-70.33" font-family="Helvetica,sans-Serif" font-size="12.00" fill="grey"> str</text>
</g>
<!-- Node5 -->
<g id="Node000005" class="node">
<title>Node5</title>
<g id="a_Node000005"><a xlink:title=" ">
<polygon fill="white" stroke="#666666" points="122,-266.93 0,-266.93 0,-232.93 122,-232.93 122,-266.93"/>
<text text-anchor="start" x="8" y="-253.33" font-family="Helvetica,sans-Serif" font-size="12.00">std::basic_string&lt;</text>
<text text-anchor="middle" x="61" y="-240.33" font-family="Helvetica,sans-Serif" font-size="12.00"> Char &gt;</text>
</a>
</g>
</g>
<!-- Node5&#45;&gt;Node4 -->
<g id="edge4_Node000004_Node000005" class="edge">
<title>Node5&#45;&gt;Node4</title>
<g id="a_edge4_Node000004_Node000005"><a xlink:title=" ">
<path fill="none" stroke="#63b8ff" d="M132.74,-249.93C154.63,-249.93 177.86,-249.93 196.5,-249.93"/>
<polygon fill="#63b8ff" stroke="#63b8ff" points="132.46,-246.43 122.46,-249.93 132.46,-253.43 132.46,-246.43"/>
</a>
</g>
</g>
<!-- Node6 -->
<g id="Node000006" class="node">
<title>Node6</title>
<g id="a_Node000006"><a xlink:title=" ">
<polygon fill="white" stroke="#666666" points="1436,-432.43 1315,-432.43 1315,-411.43 1436,-411.43 1436,-432.43"/>
<text text-anchor="middle" x="1375.5" y="-418.83" font-family="Helvetica,sans-Serif" font-size="12.00">std::istringstream</text>
</a>
</g>
</g>
<!-- Node6&#45;&gt;Node3 -->
<g id="edge5_Node000003_Node000006" class="edge">
<title>Node6&#45;&gt;Node3</title>
<g id="a_edge5_Node000003_Node000006"><a xlink:title=" ">
<path fill="none" stroke="#9a32cd" stroke-dasharray="5,2" d="M1439.04,-408.98C1484.19,-398.04 1545.63,-379.81 1595,-352.93 1626.17,-335.96 1656.75,-306.99 1672,-291.48"/>
<polygon fill="#9a32cd" stroke="#9a32cd" points="1438.01,-405.62 1429.09,-411.33 1439.63,-412.44 1438.01,-405.62"/>
</a>
</g>
<text text-anchor="middle" x="1550" y="-393.33" font-family="Helvetica,sans-Serif" font-size="12.00" fill="grey"> program</text>
</g>
<!-- Node7 -->
<g id="Node000007" class="node">
<title>Node7</title>
<g id="a_Node000007"><a xlink:title=" ">
<polygon fill="white" stroke="#666666" points="1002.5,-476.93 844.5,-476.93 844.5,-442.93 1002.5,-442.93 1002.5,-476.93"/>
<text text-anchor="start" x="852.5" y="-463.33" font-family="Helvetica,sans-Serif" font-size="12.00">std::basic_istringstream</text>
<text text-anchor="middle" x="923.5" y="-450.33" font-family="Helvetica,sans-Serif" font-size="12.00">&lt; Char &gt;</text>
</a>
</g>
</g>
<!-- Node7&#45;&gt;Node6 -->
<g id="edge6_Node000006_Node000007" class="edge">
<title>Node7&#45;&gt;Node6</title>
<g id="a_edge6_Node000006_Node000007"><a xlink:title=" ">
<path fill="none" stroke="#63b8ff" d="M1012.74,-452.48C1102.01,-444.94 1237.56,-433.49 1314.89,-426.96"/>
<polygon fill="#63b8ff" stroke="#63b8ff" points="1012.3,-449 1002.63,-453.33 1012.89,-455.98 1012.3,-449"/>
</a>
</g>
</g>
<!-- Node8 -->
<g id="Node000008" class="node">
<title>Node8</title>
<g id="a_Node000008"><a xlink:title=" ">
<polygon fill="white" stroke="#666666" points="543.5,-476.93 419.5,-476.93 419.5,-442.93 543.5,-442.93 543.5,-476.93"/>
<text text-anchor="start" x="427.5" y="-463.33" font-family="Helvetica,sans-Serif" font-size="12.00">std::basic_istream</text>
<text text-anchor="middle" x="481.5" y="-450.33" font-family="Helvetica,sans-Serif" font-size="12.00">&lt; Char &gt;</text>
</a>
</g>
</g>
<!-- Node8&#45;&gt;Node7 -->
<g id="edge7_Node000007_Node000008" class="edge">
<title>Node8&#45;&gt;Node7</title>
<g id="a_edge7_Node000007_Node000008"><a xlink:title=" ">
<path fill="none" stroke="#63b8ff" d="M554.11,-459.93C633.81,-459.93 762.19,-459.93 844.42,-459.93"/>
<polygon fill="#63b8ff" stroke="#63b8ff" points="553.68,-456.43 543.68,-459.93 553.68,-463.43 553.68,-456.43"/>
</a>
</g>
</g>
<!-- Node9 -->
<g id="Node000009" class="node">
<title>Node9</title>
<g id="a_Node000009"><a xlink:title=" ">
<polygon fill="white" stroke="#666666" points="310,-470.43 159,-470.43 159,-449.43 310,-449.43 310,-470.43"/>
<text text-anchor="middle" x="234.5" y="-456.83" font-family="Helvetica,sans-Serif" font-size="12.00">std::basic_ios&lt; Char &gt;</text>
</a>
</g>
</g>
<!-- Node9&#45;&gt;Node8 -->
<g id="edge8_Node000008_Node000009" class="edge">
<title>Node9&#45;&gt;Node8</title>
<g id="a_edge8_Node000008_Node000009"><a xlink:title=" ">
<path fill="none" stroke="#63b8ff" d="M320.4,-459.93C352.87,-459.93 389.24,-459.93 419.11,-459.93"/>
<polygon fill="#63b8ff" stroke="#63b8ff" points="320.01,-456.43 310.01,-459.93 320.01,-463.43 320.01,-456.43"/>
</a>
</g>
</g>
<!-- Node10 -->
<g id="Node000010" class="node">
<title>Node10</title>
<g id="a_Node000010"><a xlink:title=" ">
<polygon fill="white" stroke="#666666" points="107.5,-470.43 14.5,-470.43 14.5,-449.43 107.5,-449.43 107.5,-470.43"/>
<text text-anchor="middle" x="61" y="-456.83" font-family="Helvetica,sans-Serif" font-size="12.00">std::ios_base</text>
</a>
</g>
</g>
<!-- Node10&#45;&gt;Node9 -->
<g id="edge9_Node000009_Node000010" class="edge">
<title>Node10&#45;&gt;Node9</title>
<g id="a_edge9_Node000009_Node000010"><a xlink:title=" ">
<path fill="none" stroke="#63b8ff" d="M117.78,-459.93C130.91,-459.93 145.11,-459.93 158.91,-459.93"/>
<polygon fill="#63b8ff" stroke="#63b8ff" points="117.51,-456.43 107.51,-459.93 117.51,-463.43 117.51,-456.43"/>
</a>
</g>
</g>
<!-- Node11 -->
<g id="Node000011" class="node">
<title>Node11</title>
<g id="a_Node000011"><a xlink:title=" ">
<polygon fill="white" stroke="#666666" points="1474.5,-270.93 1276.5,-270.93 1276.5,-236.93 1474.5,-236.93 1474.5,-270.93"/>
<text text-anchor="start" x="1284.5" y="-257.33" font-family="Helvetica,sans-Serif" font-size="12.00">std::vector&lt; JKQTPMathParser</text>
<text text-anchor="middle" x="1375.5" y="-244.33" font-family="Helvetica,sans-Serif" font-size="12.00">::jkmpTempVariable &gt;</text>
</a>
</g>
</g>
<!-- Node11&#45;&gt;Node3 -->
<g id="edge10_Node000003_Node000011" class="edge">
<title>Node11&#45;&gt;Node3</title>
<g id="a_edge10_Node000003_Node000011"><a xlink:title=" ">
<path fill="none" stroke="#9a32cd" stroke-dasharray="5,2" d="M1484.98,-262.42C1520.1,-265.28 1559.21,-268.6 1595,-271.93 1603.77,-272.74 1613.03,-273.65 1622.11,-274.57"/>
<polygon fill="#9a32cd" stroke="#9a32cd" points="1484.95,-258.9 1474.7,-261.58 1484.39,-265.88 1484.95,-258.9"/>
</a>
</g>
<text text-anchor="middle" x="1550" y="-275.33" font-family="Helvetica,sans-Serif" font-size="12.00" fill="grey"> tempvariables</text>
</g>
<!-- Node12&#45;&gt;Node11 -->
<g id="edge11_Node000011_Node000012" class="edge">
<title>Node12&#45;&gt;Node11</title>
<g id="a_edge11_Node000011_Node000012"><a xlink:title=" ">
<path fill="none" stroke="#9a32cd" stroke-dasharray="5,2" d="M803.81,-254.4C913.65,-258.53 1092.05,-263.52 1246,-259.93 1255.82,-259.7 1266.07,-259.37 1276.29,-258.99"/>
<polygon fill="#9a32cd" stroke="#9a32cd" points="803.85,-250.9 793.72,-254.02 803.58,-257.89 803.85,-250.9"/>
</a>
</g>
<text text-anchor="middle" x="923.5" y="-264.33" font-family="Helvetica,sans-Serif" font-size="12.00" fill="grey"> elements</text>
</g>
<!-- Node13 -->
<g id="Node000013" class="node">
<title>Node13</title>
<g id="a_Node000013"><a xlink:title=" ">
<polygon fill="white" stroke="#666666" points="981,-158.43 866,-158.43 866,-137.43 981,-137.43 981,-158.43"/>
<text text-anchor="middle" x="923.5" y="-144.83" font-family="Helvetica,sans-Serif" font-size="12.00">std::vector&lt; T &gt;</text>
</a>
</g>
</g>
<!-- Node13&#45;&gt;Node11 -->
<g id="edge13_Node000011_Node000013" class="edge">
<title>Node13&#45;&gt;Node11</title>
<g id="a_edge13_Node000011_Node000013"><a xlink:title=" ">
<path fill="none" stroke="orange" stroke-dasharray="5,2" d="M991.31,-155.71C1008.78,-157.74 1027.6,-159.92 1045,-161.93 1134.32,-172.23 1160.19,-158.07 1246,-184.93 1284.42,-196.96 1324.69,-220.66 1349.68,-236.9"/>
<polygon fill="orange" stroke="orange" points="991.54,-152.21 981.2,-154.54 990.73,-159.17 991.54,-152.21"/>
</a>
</g>
<text text-anchor="start" x="1081" y="-201.33" font-family="Helvetica,sans-Serif" font-size="12.00" fill="grey"> &lt; JKQTPMathParser::</text>
<text text-anchor="middle" x="1145.5" y="-188.33" font-family="Helvetica,sans-Serif" font-size="12.00" fill="grey">jkmpTempVariable &gt;</text>
</g>
<!-- Node14 -->
<g id="Node000014" class="node">
<title>Node14</title>
<g id="a_Node000014"><a xlink:title=" ">
<polygon fill="white" stroke="#666666" points="496,-148.43 467,-148.43 467,-127.43 496,-127.43 496,-148.43"/>
<text text-anchor="middle" x="481.5" y="-134.83" font-family="Helvetica,sans-Serif" font-size="12.00">T</text>
</a>
</g>
</g>
<!-- Node14&#45;&gt;Node13 -->
<g id="edge14_Node000013_Node000014" class="edge">
<title>Node14&#45;&gt;Node13</title>
<g id="a_edge14_Node000013_Node000014"><a xlink:title=" ">
<path fill="none" stroke="#9a32cd" stroke-dasharray="5,2" d="M506.3,-137.42C559.39,-136.42 691.52,-134.64 802,-138.93 822.86,-139.74 845.71,-141.28 865.85,-142.86"/>
<polygon fill="#9a32cd" stroke="#9a32cd" points="506.14,-133.93 496.21,-137.62 506.28,-140.92 506.14,-133.93"/>
</a>
</g>
<text text-anchor="middle" x="699" y="-142.33" font-family="Helvetica,sans-Serif" font-size="12.00" fill="grey"> elements</text>
</g>
<!-- Node17 -->
<g id="Node000017" class="node">
<title>Node17</title>
<g id="a_Node000017"><a xlink:title=" ">
<polygon fill="white" stroke="#666666" points="983,-208.43 864,-208.43 864,-187.43 983,-187.43 983,-208.43"/>
<text text-anchor="middle" x="923.5" y="-194.83" font-family="Helvetica,sans-Serif" font-size="12.00">std::map&lt; K, T &gt;</text>
</a>
</g>
</g>
<!-- Node14&#45;&gt;Node17 -->
<g id="edge21_Node000017_Node000014" class="edge">
<title>Node14&#45;&gt;Node17</title>
<g id="a_edge21_Node000017_Node000014"><a xlink:title=" ">
<path fill="none" stroke="#9a32cd" stroke-dasharray="5,2" d="M506.14,-141.15C573.18,-150.29 765.97,-176.58 863.9,-189.94"/>
<polygon fill="#9a32cd" stroke="#9a32cd" points="506.53,-137.67 496.15,-139.79 505.59,-144.61 506.53,-137.67"/>
</a>
</g>
<text text-anchor="middle" x="699" y="-184.33" font-family="Helvetica,sans-Serif" font-size="12.00" fill="grey"> elements</text>
</g>
<!-- Node22 -->
<g id="Node000022" class="node">
<title>Node22</title>
<g id="a_Node000022"><a xlink:title=" ">
<polygon fill="white" stroke="#666666" points="1753,-159.43 1613,-159.43 1613,-138.43 1753,-138.43 1753,-159.43"/>
<text text-anchor="middle" x="1683" y="-145.83" font-family="Helvetica,sans-Serif" font-size="12.00">std::shared_ptr&lt; T &gt;</text>
</a>
</g>
</g>
<!-- Node14&#45;&gt;Node22 -->
<g id="edge30_Node000022_Node000014" class="edge">
<title>Node14&#45;&gt;Node22</title>
<g id="a_edge30_Node000022_Node000014"><a xlink:title=" ">
<path fill="none" stroke="#9a32cd" stroke-dasharray="5,2" d="M506.18,-134.63C599.97,-122 954.41,-78.27 1246,-95.93 1377.86,-103.91 1530.94,-125.37 1616.12,-138.4"/>
<polygon fill="#9a32cd" stroke="#9a32cd" points="505.5,-131.19 496.06,-136.01 506.44,-138.13 505.5,-131.19"/>
</a>
</g>
<text text-anchor="middle" x="1145.5" y="-99.33" font-family="Helvetica,sans-Serif" font-size="12.00" fill="grey"> ptr</text>
</g>
<!-- Node15&#45;&gt;Node3 -->
<g id="edge15_Node000003_Node000015" class="edge">
<title>Node15&#45;&gt;Node3</title>
<g id="a_edge15_Node000003_Node000015"><a xlink:title=" ">
<path fill="none" stroke="#9a32cd" stroke-dasharray="5,2" d="M1482.2,-339.89C1518.26,-332.55 1558.65,-323.38 1595,-312.93 1616.03,-306.88 1639.27,-298.23 1656.44,-291.44"/>
<polygon fill="#9a32cd" stroke="#9a32cd" points="1481.26,-336.51 1472.15,-341.91 1482.65,-343.37 1481.26,-336.51"/>
</a>
</g>
<text text-anchor="middle" x="1550" y="-339.33" font-family="Helvetica,sans-Serif" font-size="12.00" fill="grey"> variables</text>
</g>
<!-- Node16&#45;&gt;Node15 -->
<g id="edge17_Node000015_Node000016" class="edge">
<title>Node16&#45;&gt;Node15</title>
<g id="a_edge17_Node000015_Node000016"><a xlink:title=" ">
<path fill="none" stroke="#9a32cd" stroke-dasharray="5,2" d="M812.09,-363.93C937.45,-362.82 1139.22,-361.02 1263.95,-359.91"/>
<polygon fill="#9a32cd" stroke="#9a32cd" points="812.04,-360.43 802.08,-364.02 812.11,-367.43 812.04,-360.43"/>
</a>
</g>
<text text-anchor="middle" x="923.5" y="-367.33" font-family="Helvetica,sans-Serif" font-size="12.00" fill="grey"> elements</text>
</g>
<!-- Node17&#45;&gt;Node15 -->
<g id="edge19_Node000015_Node000017" class="edge">
<title>Node17&#45;&gt;Node15</title>
<g id="a_edge19_Node000015_Node000017"><a xlink:title=" ">
<path fill="none" stroke="orange" stroke-dasharray="5,2" d="M972.98,-211.3C990.13,-216.25 1009.51,-222.08 1027,-227.93 1138.44,-265.18 1267.33,-315.79 1332.34,-341.85"/>
<polygon fill="orange" stroke="orange" points="973.74,-207.88 963.17,-208.5 971.82,-214.61 973.74,-207.88"/>
</a>
</g>
<text text-anchor="start" x="1070" y="-323.33" font-family="Helvetica,sans-Serif" font-size="12.00" fill="grey"> &lt; std::string, JKQTPMath</text>
<text text-anchor="middle" x="1145.5" y="-310.33" font-family="Helvetica,sans-Serif" font-size="12.00" fill="grey">Parser::jkmpVariable &gt;</text>
</g>
<!-- Node17&#45;&gt;Node19 -->
<g id="edge28_Node000019_Node000017" class="edge">
<title>Node17&#45;&gt;Node19</title>
<g id="a_edge28_Node000019_Node000017"><a xlink:title=" ">
<path fill="none" stroke="orange" stroke-dasharray="5,2" d="M992.88,-185.62C1005.14,-181.19 1017.14,-175.15 1027,-166.93 1040.44,-155.73 1030.51,-141.73 1045,-131.93 1082.16,-106.78 1202.94,-125.52 1246,-112.93 1278.74,-103.36 1312.96,-85.33 1337.85,-70.53"/>
<polygon fill="orange" stroke="orange" points="991.43,-182.41 983.02,-188.85 993.61,-189.07 991.43,-182.41"/>
</a>
</g>
<text text-anchor="start" x="1045" y="-148.33" font-family="Helvetica,sans-Serif" font-size="12.00" fill="grey"> &lt; std::string, JKQTPMath</text>
<text text-anchor="middle" x="1145.5" y="-135.33" font-family="Helvetica,sans-Serif" font-size="12.00" fill="grey">Parser::jkmpFunctionDescriptor &gt;</text>
</g>
<!-- Node18 -->
<g id="Node000018" class="node">
<title>Node18</title>
<g id="a_Node000018"><a xlink:title=" ">
<polygon fill="white" stroke="#666666" points="496,-220.43 467,-220.43 467,-199.43 496,-199.43 496,-220.43"/>
<text text-anchor="middle" x="481.5" y="-206.83" font-family="Helvetica,sans-Serif" font-size="12.00">K</text>
</a>
</g>
</g>
<!-- Node18&#45;&gt;Node17 -->
<g id="edge20_Node000017_Node000018" class="edge">
<title>Node18&#45;&gt;Node17</title>
<g id="a_edge20_Node000017_Node000018"><a xlink:title=" ">
<path fill="none" stroke="#9a32cd" stroke-dasharray="5,2" d="M506.56,-209.27C573.97,-207.43 766.17,-202.19 863.9,-199.53"/>
<polygon fill="#9a32cd" stroke="#9a32cd" points="506.05,-205.79 496.15,-209.56 506.24,-212.78 506.05,-205.79"/>
</a>
</g>
<text text-anchor="middle" x="699" y="-210.33" font-family="Helvetica,sans-Serif" font-size="12.00" fill="grey"> keys</text>
</g>
<!-- Node19&#45;&gt;Node3 -->
<g id="edge22_Node000003_Node000019" class="edge">
<title>Node19&#45;&gt;Node3</title>
<g id="a_edge22_Node000003_Node000019"><a xlink:title=" ">
<path fill="none" stroke="#9a32cd" stroke-dasharray="5,2" d="M1415.19,-76.56C1483.79,-129.1 1623.67,-236.25 1668.12,-270.3"/>
<polygon fill="#9a32cd" stroke="#9a32cd" points="1417.26,-73.74 1407.19,-70.44 1413,-79.3 1417.26,-73.74"/>
</a>
</g>
<text text-anchor="middle" x="1550" y="-215.33" font-family="Helvetica,sans-Serif" font-size="12.00" fill="grey"> functions</text>
</g>
<!-- Node20&#45;&gt;Node19 -->
<g id="edge24_Node000019_Node000020" class="edge">
<title>Node20&#45;&gt;Node19</title>
<g id="a_edge24_Node000019_Node000020"><a xlink:title=" ">
<path fill="none" stroke="#9a32cd" stroke-dasharray="5,2" d="M1037.55,-51.42C1108.85,-50.47 1200.3,-49.25 1269.93,-48.32"/>
<polygon fill="#9a32cd" stroke="#9a32cd" points="1037.13,-47.93 1027.18,-51.56 1037.22,-54.93 1037.13,-47.93"/>
</a>
</g>
<text text-anchor="middle" x="1145.5" y="-55.33" font-family="Helvetica,sans-Serif" font-size="12.00" fill="grey"> elements</text>
</g>
<!-- Node21&#45;&gt;Node20 -->
<g id="edge25_Node000020_Node000021" class="edge">
<title>Node21&#45;&gt;Node20</title>
<g id="a_edge25_Node000020_Node000021"><a xlink:title=" ">
<path fill="none" stroke="#9a32cd" stroke-dasharray="5,2" d="M588.44,-48.37C658.59,-49.33 750.15,-50.58 819.66,-51.53"/>
<polygon fill="#9a32cd" stroke="#9a32cd" points="588.29,-44.87 578.24,-48.23 588.2,-51.87 588.29,-44.87"/>
</a>
</g>
<text text-anchor="middle" x="699" y="-55.33" font-family="Helvetica,sans-Serif" font-size="12.00" fill="grey"> function</text>
</g>
<!-- Node22&#45;&gt;Node2 -->
<g id="edge29_Node000002_Node000022" class="edge">
<title>Node22&#45;&gt;Node2</title>
<g id="a_edge29_Node000002_Node000022"><a xlink:title=" ">
<path fill="none" stroke="orange" stroke-dasharray="5,2" d="M1700.81,-166.9C1717.2,-183.36 1743.59,-207.18 1771,-220.93 1798.81,-234.87 1870.92,-251.66 1930.09,-263.93"/>
<polygon fill="orange" stroke="orange" points="1703.09,-164.22 1693.61,-159.49 1698.07,-169.1 1703.09,-164.22"/>
</a>
</g>
<text text-anchor="middle" x="1839" y="-263.33" font-family="Helvetica,sans-Serif" font-size="12.00" fill="grey"> &lt; JKQTPMathParser &gt;</text>
</g>
<!-- Node23 -->
<g id="Node000023" class="node">
<title>Node23</title>
<g id="a_Node000023"><a xlink:title=" ">
<polygon fill="white" stroke="#666666" points="2356,-220.93 2171,-220.93 2171,-186.93 2356,-186.93 2356,-220.93"/>
<text text-anchor="start" x="2179" y="-207.33" font-family="Helvetica,sans-Serif" font-size="12.00">std::shared_ptr&lt; JKQTPMath</text>
<text text-anchor="middle" x="2263.5" y="-194.33" font-family="Helvetica,sans-Serif" font-size="12.00">Parser::jkmpNode &gt;</text>
</a>
</g>
</g>
<!-- Node22&#45;&gt;Node23 -->
<g id="edge35_Node000023_Node000022" class="edge">
<title>Node22&#45;&gt;Node23</title>
<g id="a_edge35_Node000023_Node000022"><a xlink:title=" ">
<path fill="none" stroke="orange" stroke-dasharray="5,2" d="M1763.27,-144.07C1849.82,-140.27 1992.2,-138.47 2113,-157.93 2149.33,-163.78 2189.08,-176.33 2218.46,-186.84"/>
<polygon fill="orange" stroke="orange" points="1763.09,-140.57 1753.26,-144.53 1763.41,-147.57 1763.09,-140.57"/>
</a>
</g>
<text text-anchor="start" x="1954.5" y="-174.33" font-family="Helvetica,sans-Serif" font-size="12.00" fill="grey"> &lt; JKQTPMathParser::</text>
<text text-anchor="middle" x="2019" y="-161.33" font-family="Helvetica,sans-Serif" font-size="12.00" fill="grey">jkmpNode &gt;</text>
</g>
<!-- Node23&#45;&gt;Node1 -->
<g id="edge31_Node000001_Node000023" class="edge">
<title>Node23&#45;&gt;Node1</title>
<g id="a_edge31_Node000001_Node000023"><a xlink:title=" ">
<path fill="none" stroke="#9a32cd" stroke-dasharray="5,2" d="M2366.12,-217.03C2388.22,-219.88 2411.91,-222.93 2435,-225.91"/>
<polygon fill="#9a32cd" stroke="#9a32cd" points="2366.45,-213.54 2356.08,-215.74 2365.55,-220.49 2366.45,-213.54"/>
</a>
</g>
<text text-anchor="middle" x="2391" y="-226.33" font-family="Helvetica,sans-Serif" font-size="12.00" fill="grey"> node</text>
</g>
<!-- Node24&#45;&gt;Node23 -->
<g id="edge32_Node000023_Node000024" class="edge">
<title>Node24&#45;&gt;Node23</title>
<g id="a_edge32_Node000023_Node000024"><a xlink:title=" ">
<path fill="none" stroke="#9a32cd" stroke-dasharray="5,2" d="M2123.37,-203.93C2139.16,-203.93 2155.37,-203.93 2170.89,-203.93"/>
<polygon fill="#9a32cd" stroke="#9a32cd" points="2123.06,-200.43 2113.06,-203.93 2123.06,-207.43 2123.06,-200.43"/>
</a>
</g>
<text text-anchor="middle" x="2142" y="-207.33" font-family="Helvetica,sans-Serif" font-size="12.00" fill="grey"> ptr</text>
</g>
<!-- Node24&#45;&gt;Node24 -->
<g id="edge34_Node000024_Node000024" class="edge">
<title>Node24&#45;&gt;Node24</title>
<g id="a_edge34_Node000024_Node000024"><a xlink:title=" ">
<path fill="none" stroke="#9a32cd" stroke-dasharray="5,2" d="M1996.52,-224C1998.25,-228.84 2005.75,-232.43 2019,-232.43 2040.21,-232.43 2046.67,-223.24 2038.38,-214.45"/>
<polygon fill="#9a32cd" stroke="#9a32cd" points="1999.86,-225.04 1999.62,-214.45 1993.2,-222.88 1999.86,-225.04"/>
</a>
</g>
<text text-anchor="middle" x="2019" y="-235.83" font-family="Helvetica,sans-Serif" font-size="12.00" fill="grey"> parent</text>
</g>
</g>
</svg>

<g id="navigator" transform="translate(0 0)" fill="#404254">
  <rect fill="#f2f5e9" fill-opacity="0.5" stroke="#606060" stroke-width=".5" x="0" y="0" width="60" height="60"/>
  <use id="zoomplus" xlink:href="#zoomPlus" x="17" y="9" onmousedown="handleZoom(evt,'in')"/>
  <use id="zoomminus" xlink:href="#zoomMin" x="42" y="9" onmousedown="handleZoom(evt,'out')"/>
  <use id="reset" xlink:href="#resetDef" x="30" y="36" onmousedown="handleReset()"/>
   <use id="arrowup" xlink:href="#arrowUp" x="0" y="0" onmousedown="handlePan(0,-1)"/>
  <use id="arrowright" xlink:href="#arrowRight" x="0" y="0" onmousedown="handlePan(1,0)"/>
  <use id="arrowdown" xlink:href="#arrowDown" x="0" y="0" onmousedown="handlePan(0,1)"/>
  <use id="arrowleft" xlink:href="#arrowLeft" x="0" y="0" onmousedown="handlePan(-1,0)"/>
</g>
<svg viewBox="0 0 15 15" width="100%" height="30px" preserveAspectRatio="xMaxYMin meet">
 <g id="arrow_out" transform="scale(0.3 0.3)">
  <a xlink:href="struct_j_k_q_t_p_parsed_function_line_graph_base_1_1_parsed_function_line_graph_function_data__coll__graph_org.svg" target="_base">
   <rect id="button" ry="5" rx="5" y="6" x="6" height="38" width="38"
        fill="#f2f5e9" fill-opacity="0.5" stroke="#606060" stroke-width="1.0"/>
   <path id="arrow"
     d="M 11.500037,31.436501 C 11.940474,20.09759 22.043105,11.32322 32.158766,21.979434 L 37.068811,17.246167 C 37.068811,17.246167 37.088388,32 37.088388,32 L 22.160133,31.978069 C 22.160133,31.978069 26.997745,27.140456 26.997745,27.140456 C 18.528582,18.264221 13.291696,25.230495 11.500037,31.436501 z"
     style="fill:#404040;"/>
  </a>
 </g>
</svg>

<style type='text/css'>
<![CDATA[
[data-mouse-over-selected='false'] { opacity: 0.7; }
[data-mouse-over-selected='true']  { opacity: 1.0; }
]]>
</style>
<script type="application/ecmascript"><![CDATA[
document.addEventListener('DOMContentLoaded', (event) => {
  highlightEdges();
  highlightAdjacentNodes();
});
]]></script>
</svg>
