<?xml version="1.0" encoding="UTF-8" standalone="no"?>
<!DOCTYPE svg PUBLIC "-//W3C//DTD SVG 1.1//EN"
 "http://www.w3.org/Graphics/SVG/1.1/DTD/svg11.dtd">
<!-- Generated by graphviz version 2.43.0 (0)
 -->
<!-- Title: JKQTPPolynomialFunctor Pages: 1 -->
<svg width="170pt" height="239pt"
 viewBox="0.00 0.00 170.00 239.00" xmlns="http://www.w3.org/2000/svg" xmlns:xlink="http://www.w3.org/1999/xlink">
<g id="graph0" class="graph" transform="scale(1 1) rotate(0) translate(4 235)">
<title>JKQTPPolynomialFunctor</title>
<!-- Node1 -->
<g id="Node000001" class="node">
<title>Node1</title>
<g id="a_Node000001"><a xlink:title="a C++&#45;functor, which evaluates a polynomial">
<polygon fill="#999999" stroke="#666666" points="162,-21 0,-21 0,0 162,0 162,-21"/>
<text text-anchor="middle" x="81" y="-7.4" font-family="Helvetica,sans-Serif" font-size="12.00">JKQTPPolynomialFunctor</text>
</a>
</g>
</g>
<!-- Node2 -->
<g id="Node000002" class="node">
<title>Node2</title>
<g id="a_Node000002"><a xlink:title=" ">
<polygon fill="white" stroke="#666666" points="155,-91 7,-91 7,-70 155,-70 155,-91"/>
<text text-anchor="middle" x="81" y="-77.4" font-family="Helvetica,sans-Serif" font-size="12.00">std::vector&lt; double &gt;</text>
</a>
</g>
</g>
<!-- Node2&#45;&gt;Node1 -->
<g id="edge1_Node000001_Node000002" class="edge">
<title>Node2&#45;&gt;Node1</title>
<g id="a_edge1_Node000001_Node000002"><a xlink:title=" ">
<path fill="none" stroke="#9a32cd" stroke-dasharray="5,2" d="M81,-59.7C81,-47.05 81,-31.22 81,-21.22"/>
<polygon fill="#9a32cd" stroke="#9a32cd" points="77.5,-59.76 81,-69.76 84.5,-59.76 77.5,-59.76"/>
</a>
</g>
<text text-anchor="middle" x="87" y="-42.4" font-family="Helvetica,sans-Serif" font-size="12.00" fill="grey"> P</text>
</g>
<!-- Node3 -->
<g id="Node000003" class="node">
<title>Node3</title>
<g id="a_Node000003"><a xlink:title=" ">
<polygon fill="white" stroke="#666666" points="138.5,-161 23.5,-161 23.5,-140 138.5,-140 138.5,-161"/>
<text text-anchor="middle" x="81" y="-147.4" font-family="Helvetica,sans-Serif" font-size="12.00">std::vector&lt; T &gt;</text>
</a>
</g>
</g>
<!-- Node3&#45;&gt;Node2 -->
<g id="edge2_Node000002_Node000003" class="edge">
<title>Node3&#45;&gt;Node2</title>
<g id="a_edge2_Node000002_Node000003"><a xlink:title=" ">
<path fill="none" stroke="orange" stroke-dasharray="5,2" d="M81,-129.7C81,-117.05 81,-101.22 81,-91.22"/>
<polygon fill="orange" stroke="orange" points="77.5,-129.76 81,-139.76 84.5,-129.76 77.5,-129.76"/>
</a>
</g>
<text text-anchor="middle" x="117" y="-112.4" font-family="Helvetica,sans-Serif" font-size="12.00" fill="grey"> &lt; double &gt;</text>
</g>
<!-- Node4 -->
<g id="Node000004" class="node">
<title>Node4</title>
<g id="a_Node000004"><a xlink:title=" ">
<polygon fill="white" stroke="#666666" points="95.5,-231 66.5,-231 66.5,-210 95.5,-210 95.5,-231"/>
<text text-anchor="middle" x="81" y="-217.4" font-family="Helvetica,sans-Serif" font-size="12.00">T</text>
</a>
</g>
</g>
<!-- Node4&#45;&gt;Node3 -->
<g id="edge3_Node000003_Node000004" class="edge">
<title>Node4&#45;&gt;Node3</title>
<g id="a_edge3_Node000003_Node000004"><a xlink:title=" ">
<path fill="none" stroke="#9a32cd" stroke-dasharray="5,2" d="M81,-199.7C81,-187.05 81,-171.22 81,-161.22"/>
<polygon fill="#9a32cd" stroke="#9a32cd" points="77.5,-199.76 81,-209.76 84.5,-199.76 77.5,-199.76"/>
</a>
</g>
<text text-anchor="middle" x="111" y="-182.4" font-family="Helvetica,sans-Serif" font-size="12.00" fill="grey"> elements</text>
</g>
</g>
</svg>
