<?xml version="1.0" encoding="UTF-8" standalone="no"?>
<!DOCTYPE svg PUBLIC "-//W3C//DTD SVG 1.1//EN"
 "http://www.w3.org/Graphics/SVG/1.1/DTD/svg11.dtd">
<!-- Generated by graphviz version 2.43.0 (0)
 -->
<!-- Title: JKQTPXYParametrizedScatterGraph::MappedSymbolFunctor Pages: 1 -->
<!--zoomable 608 -->
<svg id="main" version="1.1" xmlns="http://www.w3.org/2000/svg" xmlns:xlink="http://www.w3.org/1999/xlink" xml:space="preserve" onload="init(evt)">
<style type="text/css"><![CDATA[
.edge:hover path { stroke: red; }
.edge:hover polygon { stroke: red; fill: red; }
]]></style>
<script type="text/javascript"><![CDATA[
var edges = document.getElementsByTagName('g');
if (edges && edges.length) {
  for (var i=0;i<edges.length;i++) {
    if (edges[i].id.substr(0,4)=='edge') {
      edges[i].setAttribute('class','edge');
    }
  }
}
]]></script>
        <defs>
                <circle id="rim" cx="0" cy="0" r="7"/>
                <circle id="rim2" cx="0" cy="0" r="3.5"/>
                <g id="zoomPlus">
                        <use xlink:href="#rim" fill="#404040">
                                <set attributeName="fill" to="#808080" begin="zoomplus.mouseover" end="zoomplus.mouseout"/>
                        </use>
                        <path d="M-4,0h8M0,-4v8" fill="none" stroke="white" stroke-width="1.5" pointer-events="none"/>
                </g>
                <g id="zoomMin">
                        <use xlink:href="#rim" fill="#404040">
                                <set attributeName="fill" to="#808080" begin="zoomminus.mouseover" end="zoomminus.mouseout"/>
                        </use>
                        <path d="M-4,0h8" fill="none" stroke="white" stroke-width="1.5" pointer-events="none"/>
                </g>
                <g id="dirArrow">
                        <path fill="none" stroke="white" stroke-width="1.5" d="M0,-3.0v7 M-2.5,-0.5L0,-3.0L2.5,-0.5"/>
                </g>
               <g id="resetDef">
                       <use xlink:href="#rim2" fill="#404040">
                               <set attributeName="fill" to="#808080" begin="reset.mouseover" end="reset.mouseout"/>
                       </use>
               </g>
        </defs>

<script type="text/javascript">
var viewWidth = 3866;
var viewHeight = 608;
var sectionId = 'dynsection-0';
</script>
<script xlink:href="svgpan.js"/>
<svg id="graph" class="graph">
<g id="viewport">
<title>JKQTPXYParametrizedScatterGraph::MappedSymbolFunctor</title>
<!-- Node1 -->
<g id="node1" class="node">
<title>Node1</title>
<g id="a_node1"><a xlink:title="helper class for setMappedSymbolColumnFunctor()">
<polygon fill="#bfbfbf" stroke="black" points="3660,-326.5 3660,-360.5 3858,-360.5 3858,-326.5 3660,-326.5"/>
<text text-anchor="start" x="3668" y="-346.9" font-family="Helvetica,sans-Serif" font-size="12.00">JKQTPXYParametrizedScatter</text>
<text text-anchor="middle" x="3759" y="-333.9" font-family="Helvetica,sans-Serif" font-size="12.00">Graph::MappedSymbolFunctor</text>
</a>
</g>
</g>
<!-- Node2 -->
<g id="node2" class="node">
<title>Node2</title>
<g id="a_node2"><a xlink:href="class_j_k_q_t_p_x_y_parametrized_scatter_graph.html" target="_top" xlink:title="This implements xy scatter plots (like JKQTPXYScatterGraph), but the color and size of the symbols ma...">
<polygon fill="none" stroke="black" points="3389,-326.5 3389,-360.5 3581,-360.5 3581,-326.5 3389,-326.5"/>
<text text-anchor="start" x="3397" y="-346.9" font-family="Helvetica,sans-Serif" font-size="12.00">JKQTPXYParametrizedScatter</text>
<text text-anchor="middle" x="3485" y="-333.9" font-family="Helvetica,sans-Serif" font-size="12.00">Graph</text>
</a>
</g>
</g>
<!-- Node2&#45;&gt;Node1 -->
<g id="edge1" class="edge">
<title>Node2&#45;&gt;Node1</title>
<path fill="none" stroke="#9a32cd" stroke-dasharray="5,2" d="M3591.37,-343.5C3613.84,-343.5 3637.5,-343.5 3659.69,-343.5"/>
<polygon fill="#9a32cd" stroke="#9a32cd" points="3591.13,-340 3581.13,-343.5 3591.13,-347 3591.13,-340"/>
<text text-anchor="middle" x="3620.5" y="-346.9" font-family="Helvetica,sans-Serif" font-size="12.00"> parent</text>
</g>
<!-- Node3 -->
<g id="node3" class="node">
<title>Node3</title>
<g id="a_node3"><a xlink:href="class_j_k_q_t_p_x_y_graph.html" target="_top" xlink:title="This virtual JKQTPGraph descendent may be used as base for all graphs that use at least two columns t...">
<polygon fill="none" stroke="black" points="3032.5,-264 3032.5,-285 3137.5,-285 3137.5,-264 3032.5,-264"/>
<text text-anchor="middle" x="3085" y="-271.4" font-family="Helvetica,sans-Serif" font-size="12.00">JKQTPXYGraph</text>
</a>
</g>
</g>
<!-- Node3&#45;&gt;Node2 -->
<g id="edge2" class="edge">
<title>Node3&#45;&gt;Node2</title>
<path fill="none" stroke="midnightblue" d="M3137.28,-290.41C3138.22,-291.08 3139.12,-291.78 3140,-292.5 3152.58,-302.89 3144.16,-315.86 3158,-324.5 3195.21,-347.74 3306.55,-349.82 3388.81,-347.84"/>
<polygon fill="midnightblue" stroke="midnightblue" points="3138.71,-287.19 3128.32,-285.12 3135.15,-293.22 3138.71,-287.19"/>
</g>
<!-- Node4 -->
<g id="node4" class="node">
<title>Node4</title>
<g id="a_node4"><a xlink:href="class_j_k_q_t_p_graph.html" target="_top" xlink:title="this virtual base class of the (data&#45;column based) graphs, which are part of a JKQTPlotter plot and w...">
<polygon fill="none" stroke="black" points="2649,-249 2649,-270 2738,-270 2738,-249 2649,-249"/>
<text text-anchor="middle" x="2693.5" y="-256.4" font-family="Helvetica,sans-Serif" font-size="12.00">JKQTPGraph</text>
</a>
</g>
</g>
<!-- Node4&#45;&gt;Node3 -->
<g id="edge3" class="edge">
<title>Node4&#45;&gt;Node3</title>
<path fill="none" stroke="midnightblue" d="M2748.22,-261.57C2823.27,-264.46 2958.55,-269.67 3032.42,-272.51"/>
<polygon fill="midnightblue" stroke="midnightblue" points="2748.17,-258.06 2738.05,-261.18 2747.9,-265.06 2748.17,-258.06"/>
</g>
<!-- Node5 -->
<g id="node5" class="node">
<title>Node5</title>
<g id="a_node5"><a xlink:href="class_j_k_q_t_p_plot_element.html" target="_top" xlink:title="this virtual base class of every element, which is part of a JKQTPlotter plot and may appear in its k...">
<polygon fill="none" stroke="black" points="2418,-249 2418,-270 2543,-270 2543,-249 2418,-249"/>
<text text-anchor="middle" x="2480.5" y="-256.4" font-family="Helvetica,sans-Serif" font-size="12.00">JKQTPPlotElement</text>
</a>
</g>
</g>
<!-- Node5&#45;&gt;Node4 -->
<g id="edge4" class="edge">
<title>Node5&#45;&gt;Node4</title>
<path fill="none" stroke="midnightblue" d="M2553.23,-259.5C2585,-259.5 2621.34,-259.5 2648.92,-259.5"/>
<polygon fill="midnightblue" stroke="midnightblue" points="2553.1,-256 2543.1,-259.5 2553.1,-263 2553.1,-256"/>
</g>
<!-- Node6 -->
<g id="node6" class="node">
<title>Node6</title>
<g id="a_node6"><a xlink:title=" ">
<polygon fill="none" stroke="black" points="1442.5,-326 1442.5,-347 1507.5,-347 1507.5,-326 1442.5,-326"/>
<text text-anchor="middle" x="1475" y="-333.4" font-family="Helvetica,sans-Serif" font-size="12.00">QObject</text>
</a>
</g>
</g>
<!-- Node6&#45;&gt;Node5 -->
<g id="edge5" class="edge">
<title>Node6&#45;&gt;Node5</title>
<path fill="none" stroke="midnightblue" d="M1517.81,-327.56C1594.37,-311.67 1762.43,-278.99 1906,-266.5 2091.75,-250.34 2312.6,-254.07 2417.82,-257.25"/>
<polygon fill="midnightblue" stroke="midnightblue" points="1516.7,-324.22 1507.62,-329.69 1518.13,-331.07 1516.7,-324.22"/>
</g>
<!-- Node7 -->
<g id="node7" class="node">
<title>Node7</title>
<g id="a_node7"><a xlink:href="class_j_k_q_t_base_plotter.html" target="_top" xlink:title="base class for 2D plotter classes (used by the plotter widget JKQTPlotter)">
<polygon fill="none" stroke="black" points="2095.5,-303 2095.5,-324 2209.5,-324 2209.5,-303 2095.5,-303"/>
<text text-anchor="middle" x="2152.5" y="-310.4" font-family="Helvetica,sans-Serif" font-size="12.00">JKQTBasePlotter</text>
</a>
</g>
</g>
<!-- Node6&#45;&gt;Node7 -->
<g id="edge7" class="edge">
<title>Node6&#45;&gt;Node7</title>
<path fill="none" stroke="midnightblue" d="M1517.97,-335.07C1634.66,-331.1 1963.03,-319.92 2095.27,-315.41"/>
<polygon fill="midnightblue" stroke="midnightblue" points="1517.55,-331.58 1507.67,-335.42 1517.79,-338.58 1517.55,-331.58"/>
</g>
<!-- Node19 -->
<g id="node19" class="node">
<title>Node19</title>
<g id="a_node19"><a xlink:href="class_j_k_q_t_math_text.html" target="_top" xlink:title="this class parses a mathematical markup string and can then draw the contained text/equation onto a Q...">
<polygon fill="none" stroke="black" points="1767,-357 1767,-378 1866,-378 1866,-357 1767,-357"/>
<text text-anchor="middle" x="1816.5" y="-364.4" font-family="Helvetica,sans-Serif" font-size="12.00">JKQTMathText</text>
</a>
</g>
</g>
<!-- Node6&#45;&gt;Node19 -->
<g id="edge24" class="edge">
<title>Node6&#45;&gt;Node19</title>
<path fill="none" stroke="midnightblue" d="M1517.61,-340.3C1580.58,-346.05 1699.82,-356.94 1766.76,-363.05"/>
<polygon fill="midnightblue" stroke="midnightblue" points="1517.91,-336.81 1507.63,-339.39 1517.27,-343.78 1517.91,-336.81"/>
</g>
<!-- Node24 -->
<g id="node24" class="node">
<title>Node24</title>
<g id="a_node24"><a xlink:href="class_j_k_q_t_p_coordinate_axis.html" target="_top" xlink:title="this virtual class is the base for any type of coordinate axis, to be drawn by JKQTBasePlotter.">
<polygon fill="none" stroke="black" points="2409.5,-482 2409.5,-503 2551.5,-503 2551.5,-482 2409.5,-482"/>
<text text-anchor="middle" x="2480.5" y="-489.4" font-family="Helvetica,sans-Serif" font-size="12.00">JKQTPCoordinateAxis</text>
</a>
</g>
</g>
<!-- Node6&#45;&gt;Node24 -->
<g id="edge33" class="edge">
<title>Node6&#45;&gt;Node24</title>
<path fill="none" stroke="midnightblue" d="M1517.73,-347.63C1539.29,-353.34 1566.04,-360.37 1590,-366.5 1807.84,-422.22 1858.66,-454.97 2081,-488.5 2151.87,-499.19 2170.36,-495.5 2242,-497.5 2292.2,-498.9 2304.79,-498.51 2355,-497.5 2372.63,-497.15 2391.65,-496.51 2409.39,-495.81"/>
<polygon fill="midnightblue" stroke="midnightblue" points="1518.47,-344.21 1507.91,-345.02 1516.68,-350.97 1518.47,-344.21"/>
</g>
<!-- Node7&#45;&gt;Node5 -->
<g id="edge6" class="edge">
<title>Node7&#45;&gt;Node5</title>
<path fill="none" stroke="#9a32cd" stroke-dasharray="5,2" d="M2191.55,-299.65C2207.02,-294.49 2225.18,-289.04 2242,-285.5 2301.05,-273.05 2369.7,-266.36 2417.96,-262.89"/>
<polygon fill="#9a32cd" stroke="#9a32cd" points="2190.15,-296.43 2181.82,-302.97 2192.41,-303.05 2190.15,-296.43"/>
<text text-anchor="middle" x="2298.5" y="-288.9" font-family="Helvetica,sans-Serif" font-size="12.00"> parent</text>
</g>
<!-- Node7&#45;&gt;Node7 -->
<g id="edge44" class="edge">
<title>Node7&#45;&gt;Node7</title>
<path fill="none" stroke="#9a32cd" stroke-dasharray="5,2" d="M2125.45,-333.56C2127.23,-338.66 2136.24,-342.5 2152.5,-342.5 2177.88,-342.5 2185.61,-333.15 2175.7,-324.21"/>
<polygon fill="#9a32cd" stroke="#9a32cd" points="2128.73,-334.79 2129.3,-324.21 2122.26,-332.12 2128.73,-334.79"/>
<text text-anchor="middle" x="2152.5" y="-358.9" font-family="Helvetica,sans-Serif" font-size="12.00"> masterPlotterX</text>
<text text-anchor="middle" x="2152.5" y="-345.9" font-family="Helvetica,sans-Serif" font-size="12.00">masterPlotterY</text>
</g>
<!-- Node21 -->
<g id="node21" class="node">
<title>Node21</title>
<g id="a_node21"><a xlink:href="class_j_k_q_t_p_graphs_model.html" target="_top" xlink:title="data model with all plots ina JKQTBasePlotter (+ allows to switch them visible/invisible)">
<polygon fill="none" stroke="black" points="2415,-384 2415,-405 2546,-405 2546,-384 2415,-384"/>
<text text-anchor="middle" x="2480.5" y="-391.4" font-family="Helvetica,sans-Serif" font-size="12.00">JKQTPGraphsModel</text>
</a>
</g>
</g>
<!-- Node7&#45;&gt;Node21 -->
<g id="edge30" class="edge">
<title>Node7&#45;&gt;Node21</title>
<path fill="none" stroke="#9a32cd" stroke-dasharray="5,2" d="M2185.57,-328.07C2202.13,-335.11 2222.84,-343.16 2242,-348.5 2291.06,-362.16 2304.99,-357.88 2355,-367.5 2381.06,-372.51 2410.05,-378.76 2433.49,-383.98"/>
<polygon fill="#9a32cd" stroke="#9a32cd" points="2186.9,-324.83 2176.34,-324.07 2184.12,-331.26 2186.9,-324.83"/>
<text text-anchor="middle" x="2298.5" y="-370.9" font-family="Helvetica,sans-Serif" font-size="12.00"> m_plotter</text>
</g>
<!-- Node7&#45;&gt;Node24 -->
<g id="edge34" class="edge">
<title>Node7&#45;&gt;Node24</title>
<path fill="none" stroke="#9a32cd" stroke-dasharray="5,2" d="M2178.16,-330.06C2193.53,-341.62 2212.51,-358.37 2224,-377.5 2240.76,-405.41 2218.24,-426.24 2242,-448.5 2265.79,-470.79 2348.31,-482.24 2409.43,-487.79"/>
<polygon fill="#9a32cd" stroke="#9a32cd" points="2180.21,-327.22 2170.06,-324.19 2176.1,-332.89 2180.21,-327.22"/>
<text text-anchor="middle" x="2298.5" y="-483.9" font-family="Helvetica,sans-Serif" font-size="12.00"> parent</text>
</g>
<!-- Node33 -->
<g id="node33" class="node">
<title>Node33</title>
<g id="a_node33"><a xlink:href="class_j_k_q_t_p_color_palette_style_and_tools_mixin.html" target="_top" xlink:title="if a class is derived from this class, it may use color bars">
<polygon fill="none" stroke="black" points="3166,-372.5 3166,-406.5 3344,-406.5 3344,-372.5 3166,-372.5"/>
<text text-anchor="start" x="3174" y="-392.9" font-family="Helvetica,sans-Serif" font-size="12.00">JKQTPColorPaletteStyleAnd</text>
<text text-anchor="middle" x="3255" y="-379.9" font-family="Helvetica,sans-Serif" font-size="12.00">ToolsMixin</text>
</a>
</g>
</g>
<!-- Node7&#45;&gt;Node33 -->
<g id="edge48" class="edge">
<title>Node7&#45;&gt;Node33</title>
<path fill="none" stroke="#9a32cd" stroke-dasharray="5,2" d="M2219.7,-311.83C2307.85,-309.76 2468.64,-306.5 2606,-306.5 2606,-306.5 2606,-306.5 2906.5,-306.5 3018.92,-306.5 3146.35,-348.11 3211.17,-372.4"/>
<polygon fill="#9a32cd" stroke="#9a32cd" points="2219.49,-308.34 2209.58,-312.08 2219.66,-315.34 2219.49,-308.34"/>
<text text-anchor="middle" x="2693.5" y="-309.9" font-family="Helvetica,sans-Serif" font-size="12.00"> cbParent</text>
</g>
<!-- Node8 -->
<g id="node8" class="node">
<title>Node8</title>
<g id="a_node8"><a xlink:href="class_j_k_q_t_base_plotter_style.html" target="_top" xlink:title="Support Class for JKQTBasePlotter, which summarizes all properties that define the visual styling of ...">
<polygon fill="none" stroke="black" points="1745,-205 1745,-226 1888,-226 1888,-205 1745,-205"/>
<text text-anchor="middle" x="1816.5" y="-212.4" font-family="Helvetica,sans-Serif" font-size="12.00">JKQTBasePlotterStyle</text>
</a>
</g>
</g>
<!-- Node8&#45;&gt;Node7 -->
<g id="edge8" class="edge">
<title>Node8&#45;&gt;Node7</title>
<path fill="none" stroke="#9a32cd" stroke-dasharray="5,2" d="M1864.33,-228.82C1913.78,-242.94 1993.97,-265.99 2063,-286.5 2081.02,-291.85 2101.05,-297.95 2117.49,-303"/>
<polygon fill="#9a32cd" stroke="#9a32cd" points="1865.14,-225.42 1854.57,-226.04 1863.22,-232.15 1865.14,-225.42"/>
<text text-anchor="middle" x="1984.5" y="-289.9" font-family="Helvetica,sans-Serif" font-size="12.00"> plotterStyle</text>
</g>
<!-- Node9 -->
<g id="node9" class="node">
<title>Node9</title>
<g id="a_node9"><a xlink:href="class_j_k_q_t_p_key_style.html" target="_top" xlink:title="Support Class for JKQTBasePlotter, which summarizes all properties that define the visual styling of ...">
<polygon fill="none" stroke="black" points="1423,-223 1423,-244 1527,-244 1527,-223 1423,-223"/>
<text text-anchor="middle" x="1475" y="-230.4" font-family="Helvetica,sans-Serif" font-size="12.00">JKQTPKeyStyle</text>
</a>
</g>
</g>
<!-- Node9&#45;&gt;Node8 -->
<g id="edge9" class="edge">
<title>Node9&#45;&gt;Node8</title>
<path fill="none" stroke="#9a32cd" stroke-dasharray="5,2" d="M1532.25,-221.04C1550.57,-217.54 1571.06,-214.23 1590,-212.5 1650.64,-206.96 1666.12,-211.47 1727,-212.5 1732.84,-212.6 1738.9,-212.73 1744.98,-212.89"/>
<polygon fill="#9a32cd" stroke="#9a32cd" points="1531.46,-217.63 1522.33,-222.99 1532.81,-224.49 1531.46,-217.63"/>
<text text-anchor="middle" x="1658.5" y="-215.9" font-family="Helvetica,sans-Serif" font-size="12.00"> keyStyle</text>
</g>
<!-- Node10 -->
<g id="node10" class="node">
<title>Node10</title>
<g id="a_node10"><a xlink:href="class_j_k_q_t_p_coordinate_axis_style.html" target="_top" xlink:title="Support Class for JKQTPCoordinateAxis, which summarizes all properties that define the visual styling...">
<polygon fill="none" stroke="black" points="1063,-270 1063,-291 1234,-291 1234,-270 1063,-270"/>
<text text-anchor="middle" x="1148.5" y="-277.4" font-family="Helvetica,sans-Serif" font-size="12.00">JKQTPCoordinateAxisStyle</text>
</a>
</g>
</g>
<!-- Node10&#45;&gt;Node8 -->
<g id="edge10" class="edge">
<title>Node10&#45;&gt;Node8</title>
<path fill="none" stroke="#9a32cd" stroke-dasharray="5,2" d="M1177.32,-265.03C1219.28,-242.67 1301.96,-202.38 1378,-187.5 1518.8,-159.95 1689.45,-188.15 1769.66,-204.94"/>
<polygon fill="#9a32cd" stroke="#9a32cd" points="1175.42,-262.08 1168.28,-269.91 1178.74,-268.24 1175.42,-262.08"/>
<text text-anchor="middle" x="1475" y="-203.9" font-family="Helvetica,sans-Serif" font-size="12.00"> xAxisStyle</text>
<text text-anchor="middle" x="1475" y="-190.9" font-family="Helvetica,sans-Serif" font-size="12.00">yAxisStyle</text>
</g>
<!-- Node12 -->
<g id="node12" class="node">
<title>Node12</title>
<g id="a_node12"><a xlink:href="class_j_k_q_t_p_colorbar_coordinate_axis_style.html" target="_top" xlink:title="Support Class for JKQTPCoordinateAxis, which summarizes all properties that define the visual styling...">
<polygon fill="none" stroke="black" points="1378,-263.5 1378,-297.5 1572,-297.5 1572,-263.5 1378,-263.5"/>
<text text-anchor="start" x="1386" y="-283.9" font-family="Helvetica,sans-Serif" font-size="12.00">JKQTPColorbarCoordinateAxis</text>
<text text-anchor="middle" x="1475" y="-270.9" font-family="Helvetica,sans-Serif" font-size="12.00">Style</text>
</a>
</g>
</g>
<!-- Node10&#45;&gt;Node12 -->
<g id="edge13" class="edge">
<title>Node10&#45;&gt;Node12</title>
<path fill="none" stroke="midnightblue" d="M1244.56,-280.5C1286.54,-280.5 1335.81,-280.5 1377.91,-280.5"/>
<polygon fill="midnightblue" stroke="midnightblue" points="1244.33,-277 1234.33,-280.5 1244.33,-284 1244.33,-277"/>
</g>
<!-- Node10&#45;&gt;Node24 -->
<g id="edge35" class="edge">
<title>Node10&#45;&gt;Node24</title>
<path fill="none" stroke="#9a32cd" stroke-dasharray="5,2" d="M1160.48,-299.92C1196.65,-361.06 1318.66,-545.5 1474,-545.5 1474,-545.5 1474,-545.5 2153.5,-545.5 2258.15,-545.5 2379.27,-518.56 2440.19,-503.1"/>
<polygon fill="#9a32cd" stroke="#9a32cd" points="1163.47,-298.1 1155.42,-291.22 1157.42,-301.62 1163.47,-298.1"/>
<text text-anchor="middle" x="1816.5" y="-548.9" font-family="Helvetica,sans-Serif" font-size="12.00"> axisStyle</text>
</g>
<!-- Node11 -->
<g id="node11" class="node">
<title>Node11</title>
<g id="a_node11"><a xlink:href="class_j_k_q_t_p_grid_style.html" target="_top" xlink:title="Support Class for JKQTPCoordinateAxis, and summarizes all properties that define the visual styling o...">
<polygon fill="none" stroke="black" points="698.5,-270 698.5,-291 805.5,-291 805.5,-270 698.5,-270"/>
<text text-anchor="middle" x="752" y="-277.4" font-family="Helvetica,sans-Serif" font-size="12.00">JKQTPGridStyle</text>
</a>
</g>
</g>
<!-- Node11&#45;&gt;Node10 -->
<g id="edge11" class="edge">
<title>Node11&#45;&gt;Node10</title>
<path fill="none" stroke="#9a32cd" stroke-dasharray="5,2" d="M816.18,-280.5C883.03,-280.5 988.9,-280.5 1062.92,-280.5"/>
<polygon fill="#9a32cd" stroke="#9a32cd" points="815.79,-277 805.79,-280.5 815.79,-284 815.79,-277"/>
<text text-anchor="middle" x="948.5" y="-296.9" font-family="Helvetica,sans-Serif" font-size="12.00"> majorGridStyle</text>
<text text-anchor="middle" x="948.5" y="-283.9" font-family="Helvetica,sans-Serif" font-size="12.00">minorGridStyle</text>
</g>
<!-- Node12&#45;&gt;Node8 -->
<g id="edge12" class="edge">
<title>Node12&#45;&gt;Node8</title>
<path fill="none" stroke="#9a32cd" stroke-dasharray="5,2" d="M1546.36,-260.7C1569.38,-254.23 1589.33,-248.64 1590,-248.5 1641.38,-237.58 1700.11,-229.11 1744.75,-223.49"/>
<polygon fill="#9a32cd" stroke="#9a32cd" points="1545.39,-257.34 1536.71,-263.42 1547.28,-264.08 1545.39,-257.34"/>
<text text-anchor="middle" x="1658.5" y="-264.9" font-family="Helvetica,sans-Serif" font-size="12.00"> rightColorbarAxisStyle</text>
<text text-anchor="middle" x="1658.5" y="-251.9" font-family="Helvetica,sans-Serif" font-size="12.00">topColorbarAxisStyle</text>
</g>
<!-- Node13 -->
<g id="node13" class="node">
<title>Node13</title>
<g id="a_node13"><a xlink:href="class_j_k_q_t_graphs_base_style.html" target="_top" xlink:title="Support Class for JKQTBasePlotter, which summarizes all properties that define the visual styling of ...">
<polygon fill="none" stroke="black" points="1402,-97 1402,-118 1548,-118 1548,-97 1402,-97"/>
<text text-anchor="middle" x="1475" y="-104.4" font-family="Helvetica,sans-Serif" font-size="12.00">JKQTGraphsBaseStyle</text>
</a>
</g>
</g>
<!-- Node13&#45;&gt;Node8 -->
<g id="edge14" class="edge">
<title>Node13&#45;&gt;Node8</title>
<path fill="none" stroke="#9a32cd" stroke-dasharray="5,2" d="M1558.32,-102.55C1611.77,-103.63 1679.98,-113.63 1727,-151.5 1743.46,-164.75 1729.25,-181.42 1745,-195.5 1749.27,-199.32 1754.21,-202.41 1759.47,-204.91"/>
<polygon fill="#9a32cd" stroke="#9a32cd" points="1558.22,-99.05 1548.18,-102.45 1558.15,-106.05 1558.22,-99.05"/>
<text text-anchor="middle" x="1658.5" y="-154.9" font-family="Helvetica,sans-Serif" font-size="12.00"> graphsStyle</text>
</g>
<!-- Node14 -->
<g id="node14" class="node">
<title>Node14</title>
<g id="a_node14"><a xlink:href="class_j_k_q_t_graphs_specific_style_properties.html" target="_top" xlink:title="Support Class for JKQTBasePlotter, which summarizes all properties that define the visual styling of ...">
<polygon fill="none" stroke="black" points="399,-130 399,-151 623,-151 623,-130 399,-130"/>
<text text-anchor="middle" x="511" y="-137.4" font-family="Helvetica,sans-Serif" font-size="12.00">JKQTGraphsSpecificStyleProperties</text>
</a>
</g>
</g>
<!-- Node14&#45;&gt;Node13 -->
<g id="edge15" class="edge">
<title>Node14&#45;&gt;Node13</title>
<path fill="none" stroke="#9a32cd" stroke-dasharray="5,2" d="M633.33,-141.86C778.58,-142.9 1029.18,-142.85 1244,-133.5 1295.66,-131.25 1308.62,-130.32 1360,-124.5 1375.91,-122.7 1393,-120.36 1409,-118"/>
<polygon fill="#9a32cd" stroke="#9a32cd" points="633.08,-138.35 623.05,-141.78 633.03,-145.35 633.08,-138.35"/>
<text text-anchor="middle" x="948.5" y="-184.9" font-family="Helvetica,sans-Serif" font-size="12.00"> boxplotStyle</text>
<text text-anchor="middle" x="948.5" y="-171.9" font-family="Helvetica,sans-Serif" font-size="12.00">defaultGraphStyle</text>
<text text-anchor="middle" x="948.5" y="-158.9" font-family="Helvetica,sans-Serif" font-size="12.00">filledStyle</text>
<text text-anchor="middle" x="948.5" y="-145.9" font-family="Helvetica,sans-Serif" font-size="12.00">impulseStyle</text>
</g>
<!-- Node16 -->
<g id="node16" class="node">
<title>Node16</title>
<g id="a_node16"><a xlink:href="class_j_k_q_t_barchart_specific_style_properties.html" target="_top" xlink:title="Support Class for JKQTBasePlotter, which summarizes all properties that define the visual styling of ...">
<polygon fill="none" stroke="black" points="862,-0.5 862,-34.5 1035,-34.5 1035,-0.5 862,-0.5"/>
<text text-anchor="start" x="870" y="-20.9" font-family="Helvetica,sans-Serif" font-size="12.00">JKQTBarchartSpecificStyle</text>
<text text-anchor="middle" x="948.5" y="-7.9" font-family="Helvetica,sans-Serif" font-size="12.00">Properties</text>
</a>
</g>
</g>
<!-- Node14&#45;&gt;Node16 -->
<g id="edge18" class="edge">
<title>Node14&#45;&gt;Node16</title>
<path fill="none" stroke="midnightblue" d="M544.03,-125.67C573.63,-112.41 619.07,-93.18 660,-80.5 726.75,-59.82 804.22,-43.26 861.92,-32.31"/>
<polygon fill="midnightblue" stroke="midnightblue" points="542.3,-122.61 534.63,-129.92 545.19,-128.99 542.3,-122.61"/>
</g>
<!-- Node17 -->
<g id="node17" class="node">
<title>Node17</title>
<g id="a_node17"><a xlink:href="class_j_k_q_t_geometric_specific_style_properties.html" target="_top" xlink:title="Support Class for JKQTBasePlotter, which summarizes all properties that define the visual styling of ...">
<polygon fill="none" stroke="black" points="660,-90.5 660,-124.5 844,-124.5 844,-90.5 660,-90.5"/>
<text text-anchor="start" x="668" y="-110.9" font-family="Helvetica,sans-Serif" font-size="12.00">JKQTGeometricSpecificStyle</text>
<text text-anchor="middle" x="752" y="-97.9" font-family="Helvetica,sans-Serif" font-size="12.00">Properties</text>
</a>
</g>
</g>
<!-- Node14&#45;&gt;Node17 -->
<g id="edge20" class="edge">
<title>Node14&#45;&gt;Node17</title>
<path fill="none" stroke="midnightblue" d="M598.31,-128.58C618.36,-125.81 639.76,-122.86 660,-120.07"/>
<polygon fill="midnightblue" stroke="midnightblue" points="597.71,-125.13 588.28,-129.97 598.66,-132.07 597.71,-125.13"/>
</g>
<!-- Node15 -->
<g id="node15" class="node">
<title>Node15</title>
<g id="a_node15"><a xlink:href="struct_j_k_q_t_p_color_derivation_mode.html" target="_top" xlink:title="Specifies how a fill&#45;color is derived from a given color.">
<polygon fill="none" stroke="black" points="0,-348 0,-369 179,-369 179,-348 0,-348"/>
<text text-anchor="middle" x="89.5" y="-355.4" font-family="Helvetica,sans-Serif" font-size="12.00">JKQTPColorDerivationMode</text>
</a>
</g>
</g>
<!-- Node15&#45;&gt;Node2 -->
<g id="edge53" class="edge">
<title>Node15&#45;&gt;Node2</title>
<path fill="none" stroke="#9a32cd" stroke-dasharray="5,2" d="M107.79,-376.34C161.79,-430.04 334.21,-586.5 510,-586.5 510,-586.5 510,-586.5 3256,-586.5 3380.09,-586.5 3456.3,-415.9 3477.75,-360.59"/>
<polygon fill="#9a32cd" stroke="#9a32cd" points="110.22,-373.82 100.7,-369.19 105.26,-378.75 110.22,-373.82"/>
<text text-anchor="middle" x="1984.5" y="-589.9" font-family="Helvetica,sans-Serif" font-size="12.00"> symbolFillDerivationMode</text>
</g>
<!-- Node15&#45;&gt;Node14 -->
<g id="edge16" class="edge">
<title>Node15&#45;&gt;Node14</title>
<path fill="none" stroke="#9a32cd" stroke-dasharray="5,2" d="M119.78,-343.29C199.83,-301.68 420.95,-186.78 489.48,-151.16"/>
<polygon fill="#9a32cd" stroke="#9a32cd" points="117.99,-340.27 110.73,-347.99 121.22,-346.48 117.99,-340.27"/>
<text text-anchor="middle" x="289" y="-354.9" font-family="Helvetica,sans-Serif" font-size="12.00"> errorColorDerivationMode</text>
<text text-anchor="middle" x="289" y="-341.9" font-family="Helvetica,sans-Serif" font-size="12.00">errorFillColorDerivationMode</text>
<text text-anchor="middle" x="289" y="-328.9" font-family="Helvetica,sans-Serif" font-size="12.00">fillColorDerivationMode</text>
<text text-anchor="middle" x="289" y="-315.9" font-family="Helvetica,sans-Serif" font-size="12.00">graphColorDerivationMode</text>
<text text-anchor="middle" x="289" y="-302.9" font-family="Helvetica,sans-Serif" font-size="12.00">symbolFillColorDerivationMode</text>
</g>
<!-- Node16&#45;&gt;Node13 -->
<g id="edge17" class="edge">
<title>Node16&#45;&gt;Node13</title>
<path fill="none" stroke="#9a32cd" stroke-dasharray="5,2" d="M1045.34,-9.3C1130.48,-5.37 1257.03,-7.85 1360,-44.5 1397.49,-57.85 1437.32,-82.62 1458.54,-96.8"/>
<polygon fill="#9a32cd" stroke="#9a32cd" points="1044.98,-5.81 1035.16,-9.81 1045.33,-12.81 1044.98,-5.81"/>
<text text-anchor="middle" x="1148.5" y="-20.9" font-family="Helvetica,sans-Serif" font-size="12.00"> barchartStyle</text>
</g>
<!-- Node17&#45;&gt;Node13 -->
<g id="edge19" class="edge">
<title>Node17&#45;&gt;Node13</title>
<path fill="none" stroke="#9a32cd" stroke-dasharray="5,2" d="M854.45,-89.31C953.75,-73.86 1109.31,-55.88 1244,-67.5 1308,-73.02 1380.92,-87.04 1427.18,-96.92"/>
<polygon fill="#9a32cd" stroke="#9a32cd" points="853.75,-85.88 844.42,-90.9 854.84,-92.8 853.75,-85.88"/>
<text text-anchor="middle" x="1148.5" y="-70.9" font-family="Helvetica,sans-Serif" font-size="12.00"> geometricStyle</text>
</g>
<!-- Node18 -->
<g id="node18" class="node">
<title>Node18</title>
<g id="a_node18"><a xlink:href="class_j_k_q_t_annotations_specific_style_properties.html" target="_top" xlink:title="Support Class for JKQTBasePlotter, which summarizes all properties that define the visual styling of ...">
<polygon fill="none" stroke="black" points="1053,-90.5 1053,-124.5 1244,-124.5 1244,-90.5 1053,-90.5"/>
<text text-anchor="start" x="1061" y="-110.9" font-family="Helvetica,sans-Serif" font-size="12.00">JKQTAnnotationsSpecificStyle</text>
<text text-anchor="middle" x="1148.5" y="-97.9" font-family="Helvetica,sans-Serif" font-size="12.00">Properties</text>
</a>
</g>
</g>
<!-- Node17&#45;&gt;Node18 -->
<g id="edge22" class="edge">
<title>Node17&#45;&gt;Node18</title>
<path fill="none" stroke="midnightblue" d="M854.07,-107.5C915.27,-107.5 992.83,-107.5 1052.84,-107.5"/>
<polygon fill="midnightblue" stroke="midnightblue" points="854,-104 844,-107.5 854,-111 854,-104"/>
</g>
<!-- Node18&#45;&gt;Node13 -->
<g id="edge21" class="edge">
<title>Node18&#45;&gt;Node13</title>
<path fill="none" stroke="#9a32cd" stroke-dasharray="5,2" d="M1254.39,-107.5C1302.57,-107.5 1358.51,-107.5 1401.86,-107.5"/>
<polygon fill="#9a32cd" stroke="#9a32cd" points="1254.23,-104 1244.23,-107.5 1254.23,-111 1254.23,-104"/>
<text text-anchor="middle" x="1311" y="-110.9" font-family="Helvetica,sans-Serif" font-size="12.00"> annotationStyle</text>
</g>
<!-- Node19&#45;&gt;Node7 -->
<g id="edge23" class="edge">
<title>Node19&#45;&gt;Node7</title>
<path fill="none" stroke="#9a32cd" stroke-dasharray="5,2" d="M1876.02,-356.71C1886.01,-354.92 1896.3,-353.13 1906,-351.5 1970.87,-340.62 2045.57,-329.22 2095.37,-321.78"/>
<polygon fill="#9a32cd" stroke="#9a32cd" points="1875.38,-353.26 1866.15,-358.48 1876.61,-360.15 1875.38,-353.26"/>
<text text-anchor="middle" x="1984.5" y="-354.9" font-family="Helvetica,sans-Serif" font-size="12.00"> mathText</text>
</g>
<!-- Node20 -->
<g id="node20" class="node">
<title>Node20</title>
<g id="a_node20"><a xlink:href="class_j_k_q_t_math_text_node.html" target="_top" xlink:title="subclass representing one node in the syntax tree">
<polygon fill="none" stroke="black" points="2087,-387 2087,-408 2218,-408 2218,-387 2087,-387"/>
<text text-anchor="middle" x="2152.5" y="-394.4" font-family="Helvetica,sans-Serif" font-size="12.00">JKQTMathTextNode</text>
</a>
</g>
</g>
<!-- Node19&#45;&gt;Node20 -->
<g id="edge26" class="edge">
<title>Node19&#45;&gt;Node20</title>
<path fill="none" stroke="#9a32cd" stroke-dasharray="5,2" d="M1876.41,-367.87C1926.27,-368.79 1999.56,-371.54 2063,-379.5 2077.16,-381.28 2092.43,-384.06 2106.24,-386.92"/>
<polygon fill="#9a32cd" stroke="#9a32cd" points="1876.19,-364.37 1866.13,-367.71 1876.07,-371.37 1876.19,-364.37"/>
<text text-anchor="middle" x="1984.5" y="-382.9" font-family="Helvetica,sans-Serif" font-size="12.00"> parentMathText</text>
</g>
<!-- Node20&#45;&gt;Node19 -->
<g id="edge25" class="edge">
<title>Node20&#45;&gt;Node19</title>
<path fill="none" stroke="#9a32cd" stroke-dasharray="5,2" d="M2076.77,-403.2C2027.87,-405.46 1962.76,-405.68 1906,-396.5 1883.97,-392.94 1859.98,-384.79 1842.54,-378.03"/>
<polygon fill="#9a32cd" stroke="#9a32cd" points="2077.14,-406.69 2086.95,-402.69 2076.79,-399.7 2077.14,-406.69"/>
<text text-anchor="middle" x="1984.5" y="-407.9" font-family="Helvetica,sans-Serif" font-size="12.00"> parsedNode</text>
</g>
<!-- Node20&#45;&gt;Node20 -->
<g id="edge27" class="edge">
<title>Node20&#45;&gt;Node20</title>
<path fill="none" stroke="#9a32cd" stroke-dasharray="5,2" d="M2125.45,-417.56C2127.23,-422.66 2136.24,-426.5 2152.5,-426.5 2177.88,-426.5 2185.61,-417.15 2175.7,-408.21"/>
<polygon fill="#9a32cd" stroke="#9a32cd" points="2128.73,-418.79 2129.3,-408.21 2122.26,-416.12 2128.73,-418.79"/>
<text text-anchor="middle" x="2152.5" y="-429.9" font-family="Helvetica,sans-Serif" font-size="12.00"> parentNode</text>
</g>
<!-- Node21&#45;&gt;Node7 -->
<g id="edge28" class="edge">
<title>Node21&#45;&gt;Node7</title>
<path fill="none" stroke="#9a32cd" stroke-dasharray="5,2" d="M2404.84,-403.07C2356.83,-405.78 2293.94,-404 2242,-384.5 2208.07,-371.76 2177.19,-340.66 2162.51,-324.17"/>
<polygon fill="#9a32cd" stroke="#9a32cd" points="2405.09,-406.56 2414.85,-402.42 2404.64,-399.57 2405.09,-406.56"/>
<text text-anchor="middle" x="2298.5" y="-406.9" font-family="Helvetica,sans-Serif" font-size="12.00"> m_plotsModel</text>
</g>
<!-- Node22 -->
<g id="node22" class="node">
<title>Node22</title>
<g id="a_node22"><a xlink:title=" ">
<polygon fill="none" stroke="black" points="2081,-458 2081,-479 2224,-479 2224,-458 2081,-458"/>
<text text-anchor="middle" x="2152.5" y="-465.4" font-family="Helvetica,sans-Serif" font-size="12.00">QAbstractTableModel</text>
</a>
</g>
</g>
<!-- Node22&#45;&gt;Node21 -->
<g id="edge29" class="edge">
<title>Node22&#45;&gt;Node21</title>
<path fill="none" stroke="midnightblue" d="M2211.08,-455.79C2251.4,-446.85 2306.51,-434.56 2355,-423.5 2381.51,-417.45 2411.15,-410.55 2434.86,-405"/>
<polygon fill="midnightblue" stroke="midnightblue" points="2210.17,-452.4 2201.16,-457.98 2211.68,-459.24 2210.17,-452.4"/>
</g>
<!-- Node23 -->
<g id="node23" class="node">
<title>Node23</title>
<g id="a_node23"><a xlink:href="class_j_k_q_t_p_horizontal_axis.html" target="_top" xlink:title="implements a horizontal axis, based on JKQTPCoordinateAxis (for most of documentation: see JKQTPCoord...">
<polygon fill="none" stroke="black" points="2625,-431 2625,-452 2762,-452 2762,-431 2625,-431"/>
<text text-anchor="middle" x="2693.5" y="-438.4" font-family="Helvetica,sans-Serif" font-size="12.00">JKQTPHorizontalAxis</text>
</a>
</g>
</g>
<!-- Node23&#45;&gt;Node7 -->
<g id="edge31" class="edge">
<title>Node23&#45;&gt;Node7</title>
<path fill="none" stroke="#9a32cd" stroke-dasharray="5,2" d="M2614.34,-442.34C2493.39,-442.98 2271.65,-441.24 2242,-420.5 2225.02,-408.62 2235.95,-394.42 2224,-377.5 2208.55,-355.63 2184.42,-335.81 2168.79,-324.2"/>
<polygon fill="#9a32cd" stroke="#9a32cd" points="2614.67,-445.84 2624.65,-442.28 2614.63,-438.84 2614.67,-445.84"/>
<text text-anchor="middle" x="2480.5" y="-444.9" font-family="Helvetica,sans-Serif" font-size="12.00"> xAxis</text>
</g>
<!-- Node35 -->
<g id="node35" class="node">
<title>Node35</title>
<g id="a_node35"><a xlink:href="class_j_k_q_t_p_horizontal_independent_axis.html" target="_top" xlink:title="implements a position&#45;indipendent horizontal axis, based on JKQTPCoordinateAxis (for most of document...">
<polygon fill="none" stroke="black" points="2799,-431 2799,-452 3012,-452 3012,-431 2799,-431"/>
<text text-anchor="middle" x="2905.5" y="-438.4" font-family="Helvetica,sans-Serif" font-size="12.00">JKQTPHorizontalIndependentAxis</text>
</a>
</g>
</g>
<!-- Node23&#45;&gt;Node35 -->
<g id="edge52" class="edge">
<title>Node23&#45;&gt;Node35</title>
<path fill="none" stroke="midnightblue" d="M2772.17,-441.5C2780.87,-441.5 2789.83,-441.5 2798.8,-441.5"/>
<polygon fill="midnightblue" stroke="midnightblue" points="2772.1,-438 2762.1,-441.5 2772.1,-445 2772.1,-438"/>
</g>
<!-- Node24&#45;&gt;Node23 -->
<g id="edge32" class="edge">
<title>Node24&#45;&gt;Node23</title>
<path fill="none" stroke="midnightblue" d="M2535.06,-479.55C2570.25,-471.05 2615.71,-460.06 2648.73,-452.08"/>
<polygon fill="midnightblue" stroke="midnightblue" points="2533.86,-476.24 2524.96,-481.99 2535.51,-483.05 2533.86,-476.24"/>
</g>
<!-- Node25 -->
<g id="node25" class="node">
<title>Node25</title>
<g id="a_node25"><a xlink:href="class_j_k_q_t_p_vertical_axis.html" target="_top" xlink:title="implements a vertical axis, based on JKQTPCoordinateAxis (for most of documentation: see JKQTPCoordin...">
<polygon fill="none" stroke="black" points="2632.5,-379 2632.5,-400 2754.5,-400 2754.5,-379 2632.5,-379"/>
<text text-anchor="middle" x="2693.5" y="-386.4" font-family="Helvetica,sans-Serif" font-size="12.00">JKQTPVerticalAxis</text>
</a>
</g>
</g>
<!-- Node24&#45;&gt;Node25 -->
<g id="edge37" class="edge">
<title>Node24&#45;&gt;Node25</title>
<path fill="none" stroke="midnightblue" d="M2540.86,-479.02C2556.84,-473.96 2573.66,-467.24 2588,-458.5 2607.86,-446.4 2605.99,-434.9 2625,-421.5 2637.19,-412.91 2652.05,-405.58 2664.72,-400.11"/>
<polygon fill="midnightblue" stroke="midnightblue" points="2539.62,-475.73 2531.05,-481.96 2541.64,-482.44 2539.62,-475.73"/>
</g>
<!-- Node25&#45;&gt;Node7 -->
<g id="edge36" class="edge">
<title>Node25&#45;&gt;Node7</title>
<path fill="none" stroke="#9a32cd" stroke-dasharray="5,2" d="M2648.78,-376.19C2630.19,-370.95 2608.19,-365.29 2588,-361.5 2435.95,-332.95 2395.75,-340.63 2242,-323.5 2231.55,-322.34 2220.41,-321.08 2209.68,-319.87"/>
<polygon fill="#9a32cd" stroke="#9a32cd" points="2647.87,-379.57 2658.44,-378.97 2649.8,-372.84 2647.87,-379.57"/>
<text text-anchor="middle" x="2480.5" y="-364.9" font-family="Helvetica,sans-Serif" font-size="12.00"> yAxis</text>
</g>
<!-- Node34 -->
<g id="node34" class="node">
<title>Node34</title>
<g id="a_node34"><a xlink:href="class_j_k_q_t_p_vertical_independent_axis.html" target="_top" xlink:title="implements a position&#45;indipendent vertical axis, based on JKQTPCoordinateAxis (for most of documentat...">
<polygon fill="none" stroke="black" points="2807,-379 2807,-400 3004,-400 3004,-379 2807,-379"/>
<text text-anchor="middle" x="2905.5" y="-386.4" font-family="Helvetica,sans-Serif" font-size="12.00">JKQTPVerticalIndependentAxis</text>
</a>
</g>
</g>
<!-- Node25&#45;&gt;Node34 -->
<g id="edge50" class="edge">
<title>Node25&#45;&gt;Node34</title>
<path fill="none" stroke="midnightblue" d="M2764.78,-389.5C2778.22,-389.5 2792.52,-389.5 2806.65,-389.5"/>
<polygon fill="midnightblue" stroke="midnightblue" points="2764.68,-386 2754.68,-389.5 2764.68,-393 2764.68,-386"/>
</g>
<!-- Node26 -->
<g id="node26" class="node">
<title>Node26</title>
<g id="a_node26"><a xlink:href="class_j_k_q_t_p_datastore.html" target="_top" xlink:title="This class manages data columns (with entries of type double ), used by JKQTPlotter/JKQTBasePlotter t...">
<polygon fill="none" stroke="black" points="1761,-165 1761,-186 1872,-186 1872,-165 1761,-165"/>
<text text-anchor="middle" x="1816.5" y="-172.4" font-family="Helvetica,sans-Serif" font-size="12.00">JKQTPDatastore</text>
</a>
</g>
</g>
<!-- Node26&#45;&gt;Node7 -->
<g id="edge38" class="edge">
<title>Node26&#45;&gt;Node7</title>
<path fill="none" stroke="#9a32cd" stroke-dasharray="5,2" d="M1880.92,-187.96C1952.3,-202.04 2058.93,-223.32 2063,-225.5 2099.29,-244.94 2130.46,-284 2144.12,-302.84"/>
<polygon fill="#9a32cd" stroke="#9a32cd" points="1881.58,-184.52 1871.1,-186.02 1880.23,-191.39 1881.58,-184.52"/>
<text text-anchor="middle" x="1984.5" y="-228.9" font-family="Helvetica,sans-Serif" font-size="12.00"> datastore</text>
</g>
<!-- Node28 -->
<g id="node28" class="node">
<title>Node28</title>
<g id="a_node28"><a xlink:href="class_j_k_q_t_p_column.html" target="_top" xlink:title="internally stores information about one data column. See JKQTPDatastore for more information.">
<polygon fill="none" stroke="black" points="2103.5,-121 2103.5,-142 2201.5,-142 2201.5,-121 2103.5,-121"/>
<text text-anchor="middle" x="2152.5" y="-128.4" font-family="Helvetica,sans-Serif" font-size="12.00">JKQTPColumn</text>
</a>
</g>
</g>
<!-- Node26&#45;&gt;Node28 -->
<g id="edge41" class="edge">
<title>Node26&#45;&gt;Node28</title>
<path fill="none" stroke="#9a32cd" stroke-dasharray="5,2" d="M1860.41,-162.16C1874.78,-158.15 1890.97,-154.13 1906,-151.5 1973.82,-139.65 2053.44,-134.79 2103.19,-132.82"/>
<polygon fill="#9a32cd" stroke="#9a32cd" points="1859.44,-158.8 1850.79,-164.92 1861.37,-165.53 1859.44,-158.8"/>
<text text-anchor="middle" x="1984.5" y="-154.9" font-family="Helvetica,sans-Serif" font-size="12.00"> datastore</text>
</g>
<!-- Node27 -->
<g id="node27" class="node">
<title>Node27</title>
<g id="a_node27"><a xlink:title=" ">
<polygon fill="none" stroke="black" points="2373,-121 2373,-142 2588,-142 2588,-121 2373,-121"/>
<text text-anchor="middle" x="2480.5" y="-128.4" font-family="Helvetica,sans-Serif" font-size="12.00">std::unique_ptr&lt; JKQTPColumn &gt;</text>
</a>
</g>
</g>
<!-- Node27&#45;&gt;Node26 -->
<g id="edge39" class="edge">
<title>Node27&#45;&gt;Node26</title>
<path fill="none" stroke="#9a32cd" stroke-dasharray="5,2" d="M2399.66,-143.38C2384.84,-145.3 2369.47,-147.12 2355,-148.5 2178.98,-165.31 1969.46,-172.02 1872.17,-174.38"/>
<polygon fill="#9a32cd" stroke="#9a32cd" points="2400.37,-146.81 2409.82,-142.03 2399.44,-139.87 2400.37,-146.81"/>
<text text-anchor="middle" x="2152.5" y="-170.9" font-family="Helvetica,sans-Serif" font-size="12.00"> m_invalidColumn</text>
</g>
<!-- Node28&#45;&gt;Node27 -->
<g id="edge40" class="edge">
<title>Node28&#45;&gt;Node27</title>
<path fill="none" stroke="#9a32cd" stroke-dasharray="5,2" d="M2211.69,-131.5C2256.35,-131.5 2319.24,-131.5 2372.85,-131.5"/>
<polygon fill="#9a32cd" stroke="#9a32cd" points="2211.6,-128 2201.6,-131.5 2211.6,-135 2211.6,-128"/>
<text text-anchor="middle" x="2298.5" y="-134.9" font-family="Helvetica,sans-Serif" font-size="12.00"> ptr</text>
</g>
<!-- Node29 -->
<g id="node29" class="node">
<title>Node29</title>
<g id="a_node29"><a xlink:title=" ">
<polygon fill="none" stroke="black" points="2082.5,-81 2082.5,-102 2222.5,-102 2222.5,-81 2082.5,-81"/>
<text text-anchor="middle" x="2152.5" y="-88.4" font-family="Helvetica,sans-Serif" font-size="12.00">std::unique_ptr&lt; T &gt;</text>
</a>
</g>
</g>
<!-- Node29&#45;&gt;Node27 -->
<g id="edge42" class="edge">
<title>Node29&#45;&gt;Node27</title>
<path fill="none" stroke="orange" stroke-dasharray="5,2" d="M2232.82,-100.14C2269.95,-104.3 2314.76,-109.46 2355,-114.5 2371.02,-116.51 2388.18,-118.77 2404.48,-120.98"/>
<polygon fill="orange" stroke="orange" points="2232.88,-96.63 2222.56,-99 2232.11,-103.59 2232.88,-96.63"/>
<text text-anchor="middle" x="2298.5" y="-117.9" font-family="Helvetica,sans-Serif" font-size="12.00"> &lt; JKQTPColumn &gt;</text>
</g>
<!-- Node30 -->
<g id="node30" class="node">
<title>Node30</title>
<g id="a_node30"><a xlink:title=" ">
<polygon fill="none" stroke="black" points="1802,-81 1802,-102 1831,-102 1831,-81 1802,-81"/>
<text text-anchor="middle" x="1816.5" y="-88.4" font-family="Helvetica,sans-Serif" font-size="12.00">T</text>
</a>
</g>
</g>
<!-- Node30&#45;&gt;Node29 -->
<g id="edge43" class="edge">
<title>Node30&#45;&gt;Node29</title>
<path fill="none" stroke="#9a32cd" stroke-dasharray="5,2" d="M1841.04,-91.5C1890.54,-91.5 2007.05,-91.5 2082.41,-91.5"/>
<polygon fill="#9a32cd" stroke="#9a32cd" points="1841.01,-88 1831.01,-91.5 1841.01,-95 1841.01,-88"/>
<text text-anchor="middle" x="1984.5" y="-94.9" font-family="Helvetica,sans-Serif" font-size="12.00"> ptr</text>
</g>
<!-- Node31 -->
<g id="node31" class="node">
<title>Node31</title>
<g id="a_node31"><a xlink:href="class_j_k_q_t_p_graph_line_style_mixin.html" target="_top" xlink:title="This Mix&#45;In class provides setter/getter methods, storage and other facilities for the graph line sty...">
<polygon fill="none" stroke="black" points="3168,-294 3168,-315 3342,-315 3342,-294 3168,-294"/>
<text text-anchor="middle" x="3255" y="-301.4" font-family="Helvetica,sans-Serif" font-size="12.00">JKQTPGraphLineStyleMixin</text>
</a>
</g>
</g>
<!-- Node31&#45;&gt;Node2 -->
<g id="edge45" class="edge">
<title>Node31&#45;&gt;Node2</title>
<path fill="none" stroke="midnightblue" d="M3327.35,-316.71C3346.75,-320.02 3368.08,-323.67 3388.58,-327.18"/>
<polygon fill="midnightblue" stroke="midnightblue" points="3327.85,-313.24 3317.4,-315 3326.67,-320.14 3327.85,-313.24"/>
</g>
<!-- Node32 -->
<g id="node32" class="node">
<title>Node32</title>
<g id="a_node32"><a xlink:href="class_j_k_q_t_p_graph_symbol_style_mixin.html" target="_top" xlink:title="This Mix&#45;In class provides setter/getter methods, storage and other facilities for the graph symbols ...">
<polygon fill="none" stroke="black" points="3158,-254 3158,-275 3352,-275 3352,-254 3158,-254"/>
<text text-anchor="middle" x="3255" y="-261.4" font-family="Helvetica,sans-Serif" font-size="12.00">JKQTPGraphSymbolStyleMixin</text>
</a>
</g>
</g>
<!-- Node32&#45;&gt;Node2 -->
<g id="edge46" class="edge">
<title>Node32&#45;&gt;Node2</title>
<path fill="none" stroke="midnightblue" d="M3326.27,-277.31C3335.01,-279.44 3343.76,-281.84 3352,-284.5 3386.87,-295.78 3424.9,-313.38 3451.14,-326.43"/>
<polygon fill="midnightblue" stroke="midnightblue" points="3326.97,-273.88 3316.44,-275.02 3325.38,-280.7 3326.97,-273.88"/>
</g>
<!-- Node33&#45;&gt;Node2 -->
<g id="edge47" class="edge">
<title>Node33&#45;&gt;Node2</title>
<path fill="none" stroke="midnightblue" d="M3350.6,-370.41C3366.84,-367.14 3383.61,-363.75 3399.56,-360.54"/>
<polygon fill="midnightblue" stroke="midnightblue" points="3349.69,-367.03 3340.57,-372.44 3351.07,-373.89 3349.69,-367.03"/>
</g>
<!-- Node34&#45;&gt;Node33 -->
<g id="edge49" class="edge">
<title>Node34&#45;&gt;Node33</title>
<path fill="none" stroke="#9a32cd" stroke-dasharray="5,2" d="M3014.48,-389.5C3063.14,-389.5 3119.87,-389.5 3165.91,-389.5"/>
<polygon fill="#9a32cd" stroke="#9a32cd" points="3014.22,-386 3004.22,-389.5 3014.22,-393 3014.22,-386"/>
<text text-anchor="middle" x="3085" y="-392.9" font-family="Helvetica,sans-Serif" font-size="12.00"> colorBarRightAxis</text>
</g>
<!-- Node35&#45;&gt;Node33 -->
<g id="edge51" class="edge">
<title>Node35&#45;&gt;Node33</title>
<path fill="none" stroke="#9a32cd" stroke-dasharray="5,2" d="M2986.95,-429.46C3040.49,-421.45 3110.82,-410.93 3165.87,-402.69"/>
<polygon fill="#9a32cd" stroke="#9a32cd" points="2986.19,-426.04 2976.82,-430.98 2987.23,-432.96 2986.19,-426.04"/>
<text text-anchor="middle" x="3085" y="-424.9" font-family="Helvetica,sans-Serif" font-size="12.00"> colorBarTopAxis</text>
</g>
</g>
</svg>
        <g id="navigator" transform="translate(0 0)" fill="#404254">
                <rect fill="#f2f5e9" fill-opacity="0.5" stroke="#606060" stroke-width=".5" x="0" y="0" width="60" height="60"/>
                <use id="zoomplus" xlink:href="#zoomPlus" x="17" y="9" onmousedown="handleZoom(evt,'in')"/>
                <use id="zoomminus" xlink:href="#zoomMin" x="42" y="9" onmousedown="handleZoom(evt,'out')"/>
                <use id="reset" xlink:href="#resetDef" x="30" y="36" onmousedown="handleReset()"/>
                <g id="arrowUp" xlink:href="#dirArrow" transform="translate(30 24)" onmousedown="handlePan(0,-1)">
                  <use xlink:href="#rim" fill="#404040">
                        <set attributeName="fill" to="#808080" begin="arrowUp.mouseover" end="arrowUp.mouseout"/>
                  </use>
                  <path fill="none" stroke="white" stroke-width="1.5" d="M0,-3.0v7 M-2.5,-0.5L0,-3.0L2.5,-0.5"/>
                </g>
                <g id="arrowRight" xlink:href="#dirArrow" transform="rotate(90) translate(36 -43)" onmousedown="handlePan(1,0)">
                  <use xlink:href="#rim" fill="#404040">
                        <set attributeName="fill" to="#808080" begin="arrowRight.mouseover" end="arrowRight.mouseout"/>
                  </use>
                  <path fill="none" stroke="white" stroke-width="1.5" d="M0,-3.0v7 M-2.5,-0.5L0,-3.0L2.5,-0.5"/>
                </g>
                <g id="arrowDown" xlink:href="#dirArrow" transform="rotate(180) translate(-30 -48)" onmousedown="handlePan(0,1)">
                  <use xlink:href="#rim" fill="#404040">
                        <set attributeName="fill" to="#808080" begin="arrowDown.mouseover" end="arrowDown.mouseout"/>
                  </use>
                  <path fill="none" stroke="white" stroke-width="1.5" d="M0,-3.0v7 M-2.5,-0.5L0,-3.0L2.5,-0.5"/>
                </g>
                <g id="arrowLeft" xlink:href="#dirArrow" transform="rotate(270) translate(-36 17)" onmousedown="handlePan(-1,0)">
                  <use xlink:href="#rim" fill="#404040">
                        <set attributeName="fill" to="#808080" begin="arrowLeft.mouseover" end="arrowLeft.mouseout"/>
                  </use>
                  <path fill="none" stroke="white" stroke-width="1.5" d="M0,-3.0v7 M-2.5,-0.5L0,-3.0L2.5,-0.5"/>
                </g>
        </g>
        <svg viewBox="0 0 15 15" width="100%" height="30px" preserveAspectRatio="xMaxYMin meet">
         <g id="arrow_out" transform="scale(0.3 0.3)">
          <a xlink:href="struct_j_k_q_t_p_x_y_parametrized_scatter_graph_1_1_mapped_symbol_functor__coll__graph_org.svg" target="_base">
           <rect id="button" ry="5" rx="5" y="6" x="6" height="38" width="38"
                fill="#f2f5e9" fill-opacity="0.5" stroke="#606060" stroke-width="1.0"/>
           <path id="arrow"
             d="M 11.500037,31.436501 C 11.940474,20.09759 22.043105,11.32322 32.158766,21.979434 L 37.068811,17.246167 C 37.068811,17.246167 37.088388,32 37.088388,32 L 22.160133,31.978069 C 22.160133,31.978069 26.997745,27.140456 26.997745,27.140456 C 18.528582,18.264221 13.291696,25.230495 11.500037,31.436501 z"
             style="fill:#404040;"/>
          </a>
         </g>
        </svg>
</svg>
