<?xml version="1.0" encoding="UTF-8" standalone="no"?>
<!DOCTYPE svg PUBLIC "-//W3C//DTD SVG 1.1//EN"
 "http://www.w3.org/Graphics/SVG/1.1/DTD/svg11.dtd">
<!-- Generated by graphviz version 2.43.0 (0)
 -->
<!-- Title: JKQTPMathParser::jkmpResult Pages: 1 -->
<svg width="201pt" height="173pt"
 viewBox="0.00 0.00 201.00 173.00" xmlns="http://www.w3.org/2000/svg" xmlns:xlink="http://www.w3.org/1999/xlink">
<g id="graph0" class="graph" transform="scale(1 1) rotate(0) translate(4 169)">
<title>JKQTPMathParser::jkmpResult</title>
<!-- Node1 -->
<g id="node1" class="node">
<title>Node1</title>
<g id="a_node1"><a xlink:title="result of any expression">
<polygon fill="#bfbfbf" stroke="black" points="0,-0.5 0,-21.5 193,-21.5 193,-0.5 0,-0.5"/>
<text text-anchor="middle" x="96.5" y="-7.9" font-family="Helvetica,sans-Serif" font-size="12.00">JKQTPMathParser::jkmpResult</text>
</a>
</g>
</g>
<!-- Node2 -->
<g id="node2" class="node">
<title>Node2</title>
<g id="a_node2"><a xlink:title=" ">
<polygon fill="none" stroke="black" points="58.5,-71.5 58.5,-92.5 134.5,-92.5 134.5,-71.5 58.5,-71.5"/>
<text text-anchor="middle" x="96.5" y="-78.9" font-family="Helvetica,sans-Serif" font-size="12.00">std::string</text>
</a>
</g>
</g>
<!-- Node2&#45;&gt;Node1 -->
<g id="edge1" class="edge">
<title>Node2&#45;&gt;Node1</title>
<path fill="none" stroke="#9a32cd" stroke-dasharray="5,2" d="M96.5,-61.09C96.5,-48.08 96.5,-31.68 96.5,-21.51"/>
<polygon fill="#9a32cd" stroke="#9a32cd" points="93,-61.41 96.5,-71.41 100,-61.41 93,-61.41"/>
<text text-anchor="middle" x="106.5" y="-43.4" font-family="Helvetica,sans-Serif" font-size="12.00"> str</text>
</g>
<!-- Node3 -->
<g id="node3" class="node">
<title>Node3</title>
<g id="a_node3"><a xlink:title=" ">
<polygon fill="none" stroke="black" points="35.5,-130.5 35.5,-164.5 157.5,-164.5 157.5,-130.5 35.5,-130.5"/>
<text text-anchor="start" x="43.5" y="-150.9" font-family="Helvetica,sans-Serif" font-size="12.00">std::basic_string&lt;</text>
<text text-anchor="middle" x="96.5" y="-137.9" font-family="Helvetica,sans-Serif" font-size="12.00"> Char &gt;</text>
</a>
</g>
</g>
<!-- Node3&#45;&gt;Node2 -->
<g id="edge2" class="edge">
<title>Node3&#45;&gt;Node2</title>
<path fill="none" stroke="midnightblue" d="M96.5,-120.34C96.5,-110.56 96.5,-100.06 96.5,-92.69"/>
<polygon fill="midnightblue" stroke="midnightblue" points="93,-120.48 96.5,-130.48 100,-120.48 93,-120.48"/>
</g>
</g>
</svg>
