<?xml version="1.0" encoding="UTF-8" standalone="no"?>
<!DOCTYPE svg PUBLIC "-//W3C//DTD SVG 1.1//EN"
 "http://www.w3.org/Graphics/SVG/1.1/DTD/svg11.dtd">
<!-- Generated by graphviz version 2.43.0 (0)
 -->
<!-- Title: JKQTPGridPrintingItem Pages: 1 -->
<svg width="2710pt" height="596pt"
 viewBox="0.00 0.00 2710.00 596.00" xmlns="http://www.w3.org/2000/svg" xmlns:xlink="http://www.w3.org/1999/xlink">
<g id="graph0" class="graph" transform="scale(1 1) rotate(0) translate(4 592)">
<title>JKQTPGridPrintingItem</title>
<!-- Node1 -->
<g id="node1" class="node">
<title>Node1</title>
<g id="a_node1"><a xlink:title="used to represent the position of other graphs in Saving and Printing Graphs">
<polygon fill="#999999" stroke="#666666" points="2495.5,-497 2345.5,-497 2345.5,-476 2495.5,-476 2495.5,-497"/>
<text text-anchor="middle" x="2420.5" y="-483.4" font-family="Helvetica,sans-Serif" font-size="12.00">JKQTPGridPrintingItem</text>
</a>
</g>
</g>
<!-- Node2 -->
<g id="node2" class="node">
<title>Node2</title>
<g id="a_node2"><a xlink:href="class_j_k_q_t_base_plotter.html" target="_top" xlink:title="base class for 2D plotter classes (used by the plotter widget JKQTPlotter)">
<polygon fill="white" stroke="#666666" points="2149.5,-424 2035.5,-424 2035.5,-403 2149.5,-403 2149.5,-424"/>
<text text-anchor="middle" x="2092.5" y="-410.4" font-family="Helvetica,sans-Serif" font-size="12.00">JKQTBasePlotter</text>
</a>
</g>
</g>
<!-- Node2&#45;&gt;Node1 -->
<g id="edge1" class="edge">
<title>Node2&#45;&gt;Node1</title>
<path fill="none" stroke="#9a32cd" stroke-dasharray="5,2" d="M2120.34,-428.95C2137.45,-438.11 2160.39,-449.13 2182,-455.5 2235.35,-471.21 2297.78,-478.97 2345.24,-482.79"/>
<polygon fill="#9a32cd" stroke="#9a32cd" points="2121.93,-425.84 2111.48,-424.1 2118.57,-431.97 2121.93,-425.84"/>
<text text-anchor="middle" x="2238.5" y="-479.9" font-family="Helvetica,sans-Serif" font-size="12.00"> plotter</text>
</g>
<!-- Node2&#45;&gt;Node2 -->
<g id="edge41" class="edge">
<title>Node2&#45;&gt;Node2</title>
<path fill="none" stroke="#9a32cd" stroke-dasharray="5,2" d="M2067.07,-433.57C2069.03,-438.41 2077.51,-442 2092.5,-442 2116.49,-442 2123.8,-432.81 2114.43,-424.02"/>
<polygon fill="#9a32cd" stroke="#9a32cd" points="2070.41,-434.62 2070.57,-424.02 2063.84,-432.21 2070.41,-434.62"/>
<text text-anchor="middle" x="2092.5" y="-458.4" font-family="Helvetica,sans-Serif" font-size="12.00"> masterPlotterX</text>
<text text-anchor="middle" x="2092.5" y="-445.4" font-family="Helvetica,sans-Serif" font-size="12.00">masterPlotterY</text>
</g>
<!-- Node18 -->
<g id="node18" class="node">
<title>Node18</title>
<g id="a_node18"><a xlink:href="class_j_k_q_t_p_graphs_model.html" target="_top" xlink:title="data model with all plots ina JKQTBasePlotter (+ allows to switch them visible/invisible)">
<polygon fill="white" stroke="#666666" points="2486,-560 2355,-560 2355,-539 2486,-539 2486,-560"/>
<text text-anchor="middle" x="2420.5" y="-546.4" font-family="Helvetica,sans-Serif" font-size="12.00">JKQTPGraphsModel</text>
</a>
</g>
</g>
<!-- Node2&#45;&gt;Node18 -->
<g id="edge27" class="edge">
<title>Node2&#45;&gt;Node18</title>
<path fill="none" stroke="#9a32cd" stroke-dasharray="5,2" d="M2108.63,-431.79C2124.8,-450.03 2152.18,-477.3 2182,-491.5 2227.98,-513.4 2245.47,-498.64 2295,-510.5 2327.93,-518.39 2364.86,-530.36 2389.88,-538.96"/>
<polygon fill="#9a32cd" stroke="#9a32cd" points="2111.2,-429.42 2102.02,-424.13 2105.9,-433.99 2111.2,-429.42"/>
<text text-anchor="middle" x="2238.5" y="-513.9" font-family="Helvetica,sans-Serif" font-size="12.00"> m_plotter</text>
</g>
<!-- Node21 -->
<g id="node21" class="node">
<title>Node21</title>
<g id="a_node21"><a xlink:href="class_j_k_q_t_p_coordinate_axis.html" target="_top" xlink:title="this virtual class is the base for any type of coordinate axis, to be drawn by JKQTBasePlotter.">
<polygon fill="white" stroke="#666666" points="2491.5,-359 2349.5,-359 2349.5,-338 2491.5,-338 2491.5,-359"/>
<text text-anchor="middle" x="2420.5" y="-345.4" font-family="Helvetica,sans-Serif" font-size="12.00">JKQTPCoordinateAxis</text>
</a>
</g>
</g>
<!-- Node2&#45;&gt;Node21 -->
<g id="edge31" class="edge">
<title>Node2&#45;&gt;Node21</title>
<path fill="none" stroke="#9a32cd" stroke-dasharray="5,2" d="M2128.92,-399.31C2144.92,-393.37 2164.19,-386.85 2182,-382.5 2237.54,-368.94 2301.79,-360.14 2349.45,-354.9"/>
<polygon fill="#9a32cd" stroke="#9a32cd" points="2127.54,-396.1 2119.43,-402.91 2130.02,-402.64 2127.54,-396.1"/>
<text text-anchor="middle" x="2238.5" y="-385.9" font-family="Helvetica,sans-Serif" font-size="12.00"> parent</text>
</g>
<!-- Node3 -->
<g id="node3" class="node">
<title>Node3</title>
<g id="a_node3"><a xlink:title=" ">
<polygon fill="white" stroke="#666666" points="1507.5,-420 1442.5,-420 1442.5,-399 1507.5,-399 1507.5,-420"/>
<text text-anchor="middle" x="1475" y="-406.4" font-family="Helvetica,sans-Serif" font-size="12.00">QObject</text>
</a>
</g>
</g>
<!-- Node3&#45;&gt;Node2 -->
<g id="edge2" class="edge">
<title>Node3&#45;&gt;Node2</title>
<path fill="none" stroke="#63b8ff" d="M1517.97,-409.77C1625.96,-410.47 1913.46,-412.34 2035.48,-413.14"/>
<polygon fill="#63b8ff" stroke="#63b8ff" points="1517.82,-406.27 1507.8,-409.71 1517.77,-413.27 1517.82,-406.27"/>
</g>
<!-- Node16 -->
<g id="node16" class="node">
<title>Node16</title>
<g id="a_node16"><a xlink:href="class_j_k_q_t_math_text.html" target="_top" xlink:title="this class parses a mathematical markup string and can then draw the contained text/equation onto a Q...">
<polygon fill="white" stroke="#666666" points="1866,-474 1767,-474 1767,-453 1866,-453 1866,-474"/>
<text text-anchor="middle" x="1816.5" y="-460.4" font-family="Helvetica,sans-Serif" font-size="12.00">JKQTMathText</text>
</a>
</g>
</g>
<!-- Node3&#45;&gt;Node16 -->
<g id="edge21" class="edge">
<title>Node3&#45;&gt;Node16</title>
<path fill="none" stroke="#63b8ff" d="M1517.61,-416.12C1580.58,-426.13 1699.82,-445.1 1766.76,-455.75"/>
<polygon fill="#63b8ff" stroke="#63b8ff" points="1518.06,-412.65 1507.63,-414.53 1516.96,-419.56 1518.06,-412.65"/>
</g>
<!-- Node3&#45;&gt;Node21 -->
<g id="edge30" class="edge">
<title>Node3&#45;&gt;Node21</title>
<path fill="none" stroke="#63b8ff" d="M1517.97,-403.76C1594.78,-393.51 1763.24,-372.23 1906,-362.5 2064.15,-351.72 2250.24,-349.16 2349.23,-348.6"/>
<polygon fill="#63b8ff" stroke="#63b8ff" points="1517.19,-400.33 1507.75,-405.13 1518.12,-407.27 1517.19,-400.33"/>
</g>
<!-- Node4 -->
<g id="node4" class="node">
<title>Node4</title>
<g id="a_node4"><a xlink:href="class_j_k_q_t_base_plotter_style.html" target="_top" xlink:title="Support Class for JKQTBasePlotter, which summarizes all properties that define the visual styling of ...">
<polygon fill="white" stroke="#666666" points="1888,-322 1745,-322 1745,-301 1888,-301 1888,-322"/>
<text text-anchor="middle" x="1816.5" y="-308.4" font-family="Helvetica,sans-Serif" font-size="12.00">JKQTBasePlotterStyle</text>
</a>
</g>
</g>
<!-- Node4&#45;&gt;Node2 -->
<g id="edge3" class="edge">
<title>Node4&#45;&gt;Node2</title>
<path fill="none" stroke="#9a32cd" stroke-dasharray="5,2" d="M1855.26,-325.56C1910.79,-346.23 2013.24,-384.37 2062.95,-402.87"/>
<polygon fill="#9a32cd" stroke="#9a32cd" points="1856.38,-322.24 1845.79,-322.03 1853.94,-328.8 1856.38,-322.24"/>
<text text-anchor="middle" x="1954.5" y="-383.9" font-family="Helvetica,sans-Serif" font-size="12.00"> plotterStyle</text>
</g>
<!-- Node5 -->
<g id="node5" class="node">
<title>Node5</title>
<g id="a_node5"><a xlink:href="class_j_k_q_t_p_key_style.html" target="_top" xlink:title="Support Class for JKQTBasePlotter, which summarizes all properties that define the visual styling of ...">
<polygon fill="white" stroke="#666666" points="1527,-361 1423,-361 1423,-340 1527,-340 1527,-361"/>
<text text-anchor="middle" x="1475" y="-347.4" font-family="Helvetica,sans-Serif" font-size="12.00">JKQTPKeyStyle</text>
</a>
</g>
</g>
<!-- Node5&#45;&gt;Node4 -->
<g id="edge4" class="edge">
<title>Node5&#45;&gt;Node4</title>
<path fill="none" stroke="#9a32cd" stroke-dasharray="5,2" d="M1537.23,-345.39C1588.12,-340.91 1662.39,-333.82 1727,-325.5 1735.02,-324.47 1743.44,-323.28 1751.75,-322.03"/>
<polygon fill="#9a32cd" stroke="#9a32cd" points="1536.71,-341.93 1527.06,-346.28 1537.32,-348.9 1536.71,-341.93"/>
<text text-anchor="middle" x="1658.5" y="-342.9" font-family="Helvetica,sans-Serif" font-size="12.00"> keyStyle</text>
</g>
<!-- Node6 -->
<g id="node6" class="node">
<title>Node6</title>
<g id="a_node6"><a xlink:href="class_j_k_q_t_p_coordinate_axis_style.html" target="_top" xlink:title="Support Class for JKQTPCoordinateAxis, which summarizes all properties that define the visual styling...">
<polygon fill="white" stroke="#666666" points="1234,-215 1063,-215 1063,-194 1234,-194 1234,-215"/>
<text text-anchor="middle" x="1148.5" y="-201.4" font-family="Helvetica,sans-Serif" font-size="12.00">JKQTPCoordinateAxisStyle</text>
</a>
</g>
</g>
<!-- Node6&#45;&gt;Node4 -->
<g id="edge5" class="edge">
<title>Node6&#45;&gt;Node4</title>
<path fill="none" stroke="#9a32cd" stroke-dasharray="5,2" d="M1244.31,-199.03C1330.39,-195.83 1460.54,-195.42 1572,-213.5 1643.19,-225.05 1660.78,-232.93 1727,-261.5 1753.25,-272.82 1781.72,-289.84 1799.08,-300.81"/>
<polygon fill="#9a32cd" stroke="#9a32cd" points="1244.15,-195.53 1234.3,-199.42 1244.43,-202.52 1244.15,-195.53"/>
<text text-anchor="middle" x="1475" y="-229.9" font-family="Helvetica,sans-Serif" font-size="12.00"> xAxisStyle</text>
<text text-anchor="middle" x="1475" y="-216.9" font-family="Helvetica,sans-Serif" font-size="12.00">yAxisStyle</text>
</g>
<!-- Node8 -->
<g id="node8" class="node">
<title>Node8</title>
<g id="a_node8"><a xlink:href="class_j_k_q_t_p_colorbar_coordinate_axis_style.html" target="_top" xlink:title="Support Class for JKQTPCoordinateAxis, which summarizes all properties that define the visual styling...">
<polygon fill="white" stroke="#666666" points="1572,-282.5 1378,-282.5 1378,-248.5 1572,-248.5 1572,-282.5"/>
<text text-anchor="start" x="1386" y="-268.9" font-family="Helvetica,sans-Serif" font-size="12.00">JKQTPColorbarCoordinateAxis</text>
<text text-anchor="middle" x="1475" y="-255.9" font-family="Helvetica,sans-Serif" font-size="12.00">Style</text>
</a>
</g>
</g>
<!-- Node6&#45;&gt;Node8 -->
<g id="edge8" class="edge">
<title>Node6&#45;&gt;Node8</title>
<path fill="none" stroke="#63b8ff" d="M1217.1,-216.89C1258.39,-224.49 1312.26,-234.47 1360,-243.5 1368.52,-245.11 1377.39,-246.8 1386.26,-248.5"/>
<polygon fill="#63b8ff" stroke="#63b8ff" points="1217.62,-213.43 1207.15,-215.06 1216.35,-220.31 1217.62,-213.43"/>
</g>
<!-- Node6&#45;&gt;Node21 -->
<g id="edge32" class="edge">
<title>Node6&#45;&gt;Node21</title>
<path fill="none" stroke="#9a32cd" stroke-dasharray="5,2" d="M1204.82,-191.82C1269.14,-178.2 1378.67,-158.5 1474,-158.5 1474,-158.5 1474,-158.5 2093.5,-158.5 2236.96,-158.5 2373.55,-297.55 2410.03,-337.74"/>
<polygon fill="#9a32cd" stroke="#9a32cd" points="1203.93,-188.43 1194.89,-193.95 1205.4,-195.27 1203.93,-188.43"/>
<text text-anchor="middle" x="1816.5" y="-161.9" font-family="Helvetica,sans-Serif" font-size="12.00"> axisStyle</text>
</g>
<!-- Node7 -->
<g id="node7" class="node">
<title>Node7</title>
<g id="a_node7"><a xlink:href="class_j_k_q_t_p_grid_style.html" target="_top" xlink:title="Support Class for JKQTPCoordinateAxis, and summarizes all properties that define the visual styling o...">
<polygon fill="white" stroke="#666666" points="805.5,-215 698.5,-215 698.5,-194 805.5,-194 805.5,-215"/>
<text text-anchor="middle" x="752" y="-201.4" font-family="Helvetica,sans-Serif" font-size="12.00">JKQTPGridStyle</text>
</a>
</g>
</g>
<!-- Node7&#45;&gt;Node6 -->
<g id="edge6" class="edge">
<title>Node7&#45;&gt;Node6</title>
<path fill="none" stroke="#9a32cd" stroke-dasharray="5,2" d="M815.93,-203.82C831.02,-203.69 847.09,-203.57 862,-203.5 938.89,-203.15 958.11,-203.16 1035,-203.5 1043.98,-203.54 1053.37,-203.6 1062.73,-203.67"/>
<polygon fill="#9a32cd" stroke="#9a32cd" points="815.64,-200.33 805.67,-203.92 815.7,-207.33 815.64,-200.33"/>
<text text-anchor="middle" x="948.5" y="-219.9" font-family="Helvetica,sans-Serif" font-size="12.00"> majorGridStyle</text>
<text text-anchor="middle" x="948.5" y="-206.9" font-family="Helvetica,sans-Serif" font-size="12.00">minorGridStyle</text>
</g>
<!-- Node8&#45;&gt;Node4 -->
<g id="edge7" class="edge">
<title>Node8&#45;&gt;Node4</title>
<path fill="none" stroke="#9a32cd" stroke-dasharray="5,2" d="M1582.19,-266.1C1627.2,-267.94 1680.01,-272.21 1727,-281.5 1748.8,-285.81 1772.62,-294.1 1790.04,-300.87"/>
<polygon fill="#9a32cd" stroke="#9a32cd" points="1582.24,-262.6 1572.11,-265.72 1581.98,-269.59 1582.24,-262.6"/>
<text text-anchor="middle" x="1658.5" y="-297.9" font-family="Helvetica,sans-Serif" font-size="12.00"> rightColorbarAxisStyle</text>
<text text-anchor="middle" x="1658.5" y="-284.9" font-family="Helvetica,sans-Serif" font-size="12.00">topColorbarAxisStyle</text>
</g>
<!-- Node9 -->
<g id="node9" class="node">
<title>Node9</title>
<g id="a_node9"><a xlink:href="class_j_k_q_t_graphs_base_style.html" target="_top" xlink:title="Support Class for JKQTBasePlotter, which summarizes all properties that define the visual styling of ...">
<polygon fill="white" stroke="#666666" points="1548,-322 1402,-322 1402,-301 1548,-301 1548,-322"/>
<text text-anchor="middle" x="1475" y="-308.4" font-family="Helvetica,sans-Serif" font-size="12.00">JKQTGraphsBaseStyle</text>
</a>
</g>
</g>
<!-- Node9&#45;&gt;Node4 -->
<g id="edge9" class="edge">
<title>Node9&#45;&gt;Node4</title>
<path fill="none" stroke="#9a32cd" stroke-dasharray="5,2" d="M1558.49,-311.5C1615.54,-311.5 1690.66,-311.5 1744.94,-311.5"/>
<polygon fill="#9a32cd" stroke="#9a32cd" points="1558.41,-308 1548.41,-311.5 1558.41,-315 1558.41,-308"/>
<text text-anchor="middle" x="1658.5" y="-314.9" font-family="Helvetica,sans-Serif" font-size="12.00"> graphsStyle</text>
</g>
<!-- Node10 -->
<g id="node10" class="node">
<title>Node10</title>
<g id="a_node10"><a xlink:href="class_j_k_q_t_graphs_specific_style_properties.html" target="_top" xlink:title="Support Class for JKQTBasePlotter, which summarizes all properties that define the visual styling of ...">
<polygon fill="white" stroke="#666666" points="623,-333 399,-333 399,-312 623,-312 623,-333"/>
<text text-anchor="middle" x="511" y="-319.4" font-family="Helvetica,sans-Serif" font-size="12.00">JKQTGraphsSpecificStyleProperties</text>
</a>
</g>
</g>
<!-- Node10&#45;&gt;Node9 -->
<g id="edge10" class="edge">
<title>Node10&#45;&gt;Node9</title>
<path fill="none" stroke="#9a32cd" stroke-dasharray="5,2" d="M633.26,-312.57C700.58,-307.55 785.87,-302 862,-299.5 1057.17,-293.09 1287.46,-302.07 1401.91,-307.64"/>
<polygon fill="#9a32cd" stroke="#9a32cd" points="632.75,-309.1 623.04,-313.34 633.27,-316.08 632.75,-309.1"/>
<text text-anchor="middle" x="948.5" y="-328.9" font-family="Helvetica,sans-Serif" font-size="12.00"> boxplotStyle</text>
<text text-anchor="middle" x="948.5" y="-315.9" font-family="Helvetica,sans-Serif" font-size="12.00">defaultGraphStyle</text>
<text text-anchor="middle" x="948.5" y="-302.9" font-family="Helvetica,sans-Serif" font-size="12.00">filledStyle</text>
</g>
<!-- Node12 -->
<g id="node12" class="node">
<title>Node12</title>
<g id="a_node12"><a xlink:href="class_j_k_q_t_barchart_specific_style_properties.html" target="_top" xlink:title="Support Class for JKQTBasePlotter, which summarizes all properties that define the visual styling of ...">
<polygon fill="white" stroke="#666666" points="1035,-272.5 862,-272.5 862,-238.5 1035,-238.5 1035,-272.5"/>
<text text-anchor="start" x="870" y="-258.9" font-family="Helvetica,sans-Serif" font-size="12.00">JKQTBarchartSpecificStyle</text>
<text text-anchor="middle" x="948.5" y="-245.9" font-family="Helvetica,sans-Serif" font-size="12.00">Properties</text>
</a>
</g>
</g>
<!-- Node10&#45;&gt;Node12 -->
<g id="edge13" class="edge">
<title>Node10&#45;&gt;Node12</title>
<path fill="none" stroke="#63b8ff" d="M548.84,-308.37C574.33,-299.2 609.26,-287.81 641,-281.5 714.72,-266.85 800.03,-260.45 861.9,-257.66"/>
<polygon fill="#63b8ff" stroke="#63b8ff" points="547.4,-305.17 539.21,-311.89 549.81,-311.74 547.4,-305.17"/>
</g>
<!-- Node13 -->
<g id="node13" class="node">
<title>Node13</title>
<g id="a_node13"><a xlink:href="class_j_k_q_t_impulse_specific_style_properties.html" target="_top" xlink:title="Support Class for JKQTBasePlotter, which summarizes all properties that define the visual styling of ...">
<polygon fill="white" stroke="#666666" points="1032.5,-450.5 864.5,-450.5 864.5,-416.5 1032.5,-416.5 1032.5,-450.5"/>
<text text-anchor="start" x="872.5" y="-436.9" font-family="Helvetica,sans-Serif" font-size="12.00">JKQTImpulseSpecificStyle</text>
<text text-anchor="middle" x="948.5" y="-423.9" font-family="Helvetica,sans-Serif" font-size="12.00">Properties</text>
</a>
</g>
</g>
<!-- Node10&#45;&gt;Node13 -->
<g id="edge15" class="edge">
<title>Node10&#45;&gt;Node13</title>
<path fill="none" stroke="#63b8ff" d="M547.34,-336.79C577.03,-348.4 620.79,-364.59 660,-375.5 727.94,-394.41 806.52,-409.84 864.34,-420.01"/>
<polygon fill="#63b8ff" stroke="#63b8ff" points="548.42,-333.45 537.83,-333.04 545.85,-339.97 548.42,-333.45"/>
</g>
<!-- Node14 -->
<g id="node14" class="node">
<title>Node14</title>
<g id="a_node14"><a xlink:href="class_j_k_q_t_geometric_specific_style_properties.html" target="_top" xlink:title="Support Class for JKQTBasePlotter, which summarizes all properties that define the visual styling of ...">
<polygon fill="white" stroke="#666666" points="844,-366.5 660,-366.5 660,-332.5 844,-332.5 844,-366.5"/>
<text text-anchor="start" x="668" y="-352.9" font-family="Helvetica,sans-Serif" font-size="12.00">JKQTGeometricSpecificStyle</text>
<text text-anchor="middle" x="752" y="-339.9" font-family="Helvetica,sans-Serif" font-size="12.00">Properties</text>
</a>
</g>
</g>
<!-- Node10&#45;&gt;Node14 -->
<g id="edge17" class="edge">
<title>Node10&#45;&gt;Node14</title>
<path fill="none" stroke="#63b8ff" d="M615.27,-334.17C630.06,-335.84 645.19,-337.55 659.74,-339.19"/>
<polygon fill="#63b8ff" stroke="#63b8ff" points="615.42,-330.66 605.09,-333.02 614.63,-337.62 615.42,-330.66"/>
</g>
<!-- Node11 -->
<g id="node11" class="node">
<title>Node11</title>
<g id="a_node11"><a xlink:href="struct_j_k_q_t_p_color_derivation_mode.html" target="_top" xlink:title="Specifies how a fill&#45;color is derived from a given color.">
<polygon fill="white" stroke="#666666" points="179,-333 0,-333 0,-312 179,-312 179,-333"/>
<text text-anchor="middle" x="89.5" y="-319.4" font-family="Helvetica,sans-Serif" font-size="12.00">JKQTPColorDerivationMode</text>
</a>
</g>
</g>
<!-- Node11&#45;&gt;Node10 -->
<g id="edge11" class="edge">
<title>Node11&#45;&gt;Node10</title>
<path fill="none" stroke="#9a32cd" stroke-dasharray="5,2" d="M189.53,-322.5C252.41,-322.5 333.9,-322.5 398.97,-322.5"/>
<polygon fill="#9a32cd" stroke="#9a32cd" points="189.21,-319 179.21,-322.5 189.21,-326 189.21,-319"/>
<text text-anchor="middle" x="289" y="-377.9" font-family="Helvetica,sans-Serif" font-size="12.00"> errorColorDerivationMode</text>
<text text-anchor="middle" x="289" y="-364.9" font-family="Helvetica,sans-Serif" font-size="12.00">errorFillColorDerivationMode</text>
<text text-anchor="middle" x="289" y="-351.9" font-family="Helvetica,sans-Serif" font-size="12.00">fillColorDerivationMode</text>
<text text-anchor="middle" x="289" y="-338.9" font-family="Helvetica,sans-Serif" font-size="12.00">graphColorDerivationMode</text>
<text text-anchor="middle" x="289" y="-325.9" font-family="Helvetica,sans-Serif" font-size="12.00">symbolFillColorDerivationMode</text>
</g>
<!-- Node12&#45;&gt;Node9 -->
<g id="edge12" class="edge">
<title>Node12&#45;&gt;Node9</title>
<path fill="none" stroke="#9a32cd" stroke-dasharray="5,2" d="M1045.19,-248.57C1129.98,-245.45 1256.07,-248.28 1360,-281.5 1368.72,-284.29 1369.42,-288.31 1378,-291.5 1388.13,-295.27 1399.14,-298.4 1409.98,-300.98"/>
<polygon fill="#9a32cd" stroke="#9a32cd" points="1044.91,-245.08 1035.06,-248.98 1045.19,-252.08 1044.91,-245.08"/>
<text text-anchor="middle" x="1148.5" y="-258.9" font-family="Helvetica,sans-Serif" font-size="12.00"> barchartStyle</text>
</g>
<!-- Node13&#45;&gt;Node9 -->
<g id="edge14" class="edge">
<title>Node13&#45;&gt;Node9</title>
<path fill="none" stroke="#9a32cd" stroke-dasharray="5,2" d="M1023.44,-452.66C1113.85,-471.29 1266.35,-486.5 1360,-407.5 1386.53,-385.12 1353.12,-355.71 1378,-331.5 1384.71,-324.97 1392.97,-320.32 1401.8,-317.05"/>
<polygon fill="#9a32cd" stroke="#9a32cd" points="1024.05,-449.21 1013.54,-450.56 1022.6,-456.06 1024.05,-449.21"/>
<text text-anchor="middle" x="1148.5" y="-470.9" font-family="Helvetica,sans-Serif" font-size="12.00"> impulseStyle</text>
</g>
<!-- Node14&#45;&gt;Node9 -->
<g id="edge16" class="edge">
<title>Node14&#45;&gt;Node9</title>
<path fill="none" stroke="#9a32cd" stroke-dasharray="5,2" d="M830.49,-368.69C950.34,-394.21 1185.06,-427.31 1360,-346.5 1369.45,-342.13 1368.62,-336.03 1378,-331.5 1385.97,-327.65 1394.66,-324.54 1403.46,-322.02"/>
<polygon fill="#9a32cd" stroke="#9a32cd" points="831.18,-365.26 820.66,-366.56 829.69,-372.1 831.18,-365.26"/>
<text text-anchor="middle" x="1148.5" y="-400.9" font-family="Helvetica,sans-Serif" font-size="12.00"> geometricStyle</text>
</g>
<!-- Node15 -->
<g id="node15" class="node">
<title>Node15</title>
<g id="a_node15"><a xlink:href="class_j_k_q_t_annotations_specific_style_properties.html" target="_top" xlink:title="Support Class for JKQTBasePlotter, which summarizes all properties that define the visual styling of ...">
<polygon fill="white" stroke="#666666" points="1244,-357.5 1053,-357.5 1053,-323.5 1244,-323.5 1244,-357.5"/>
<text text-anchor="start" x="1061" y="-343.9" font-family="Helvetica,sans-Serif" font-size="12.00">JKQTAnnotationsSpecificStyle</text>
<text text-anchor="middle" x="1148.5" y="-330.9" font-family="Helvetica,sans-Serif" font-size="12.00">Properties</text>
</a>
</g>
</g>
<!-- Node14&#45;&gt;Node15 -->
<g id="edge19" class="edge">
<title>Node14&#45;&gt;Node15</title>
<path fill="none" stroke="#63b8ff" d="M854.07,-347.19C915.27,-345.8 992.83,-344.03 1052.84,-342.66"/>
<polygon fill="#63b8ff" stroke="#63b8ff" points="853.92,-343.7 844,-347.42 854.08,-350.69 853.92,-343.7"/>
</g>
<!-- Node15&#45;&gt;Node9 -->
<g id="edge18" class="edge">
<title>Node15&#45;&gt;Node9</title>
<path fill="none" stroke="#9a32cd" stroke-dasharray="5,2" d="M1254.39,-331.13C1302.57,-326.82 1358.51,-321.82 1401.86,-317.95"/>
<polygon fill="#9a32cd" stroke="#9a32cd" points="1253.88,-327.66 1244.23,-332.03 1254.5,-334.63 1253.88,-327.66"/>
<text text-anchor="middle" x="1311" y="-332.9" font-family="Helvetica,sans-Serif" font-size="12.00"> annotationStyle</text>
</g>
<!-- Node16&#45;&gt;Node2 -->
<g id="edge20" class="edge">
<title>Node16&#45;&gt;Node2</title>
<path fill="none" stroke="#9a32cd" stroke-dasharray="5,2" d="M1876.21,-452.79C1923.26,-444.2 1988.86,-432.23 2035.25,-423.76"/>
<polygon fill="#9a32cd" stroke="#9a32cd" points="1875.38,-449.38 1866.17,-454.62 1876.64,-456.27 1875.38,-449.38"/>
<text text-anchor="middle" x="1954.5" y="-449.9" font-family="Helvetica,sans-Serif" font-size="12.00"> mathText</text>
</g>
<!-- Node17 -->
<g id="node17" class="node">
<title>Node17</title>
<g id="a_node17"><a xlink:href="class_j_k_q_t_math_text_node.html" target="_top" xlink:title="subclass representing one node in the syntax tree">
<polygon fill="white" stroke="#666666" points="2158,-514 2027,-514 2027,-493 2158,-493 2158,-514"/>
<text text-anchor="middle" x="2092.5" y="-500.4" font-family="Helvetica,sans-Serif" font-size="12.00">JKQTMathTextNode</text>
</a>
</g>
</g>
<!-- Node16&#45;&gt;Node17 -->
<g id="edge23" class="edge">
<title>Node16&#45;&gt;Node17</title>
<path fill="none" stroke="#9a32cd" stroke-dasharray="5,2" d="M1876.37,-463.69C1913.06,-464.69 1961.11,-467.64 2003,-475.5 2023.91,-479.42 2046.78,-486.75 2064.04,-492.92"/>
<polygon fill="#9a32cd" stroke="#9a32cd" points="1876.41,-460.19 1866.33,-463.45 1876.25,-467.18 1876.41,-460.19"/>
<text text-anchor="middle" x="1954.5" y="-478.9" font-family="Helvetica,sans-Serif" font-size="12.00"> parentMathText</text>
</g>
<!-- Node17&#45;&gt;Node16 -->
<g id="edge22" class="edge">
<title>Node17&#45;&gt;Node16</title>
<path fill="none" stroke="#9a32cd" stroke-dasharray="5,2" d="M2016.3,-503.42C1982.35,-502.27 1941.9,-499.33 1906,-492.5 1884.56,-488.42 1861.12,-480.58 1843.75,-474.08"/>
<polygon fill="#9a32cd" stroke="#9a32cd" points="2016.51,-506.93 2026.61,-503.73 2016.72,-499.93 2016.51,-506.93"/>
<text text-anchor="middle" x="1954.5" y="-505.9" font-family="Helvetica,sans-Serif" font-size="12.00"> parsedNode</text>
</g>
<!-- Node17&#45;&gt;Node17 -->
<g id="edge24" class="edge">
<title>Node17&#45;&gt;Node17</title>
<path fill="none" stroke="#9a32cd" stroke-dasharray="5,2" d="M2067.07,-523.57C2069.03,-528.41 2077.51,-532 2092.5,-532 2116.49,-532 2123.8,-522.81 2114.43,-514.02"/>
<polygon fill="#9a32cd" stroke="#9a32cd" points="2070.41,-524.62 2070.57,-514.02 2063.84,-522.21 2070.41,-524.62"/>
<text text-anchor="middle" x="2092.5" y="-535.4" font-family="Helvetica,sans-Serif" font-size="12.00"> parentNode</text>
</g>
<!-- Node18&#45;&gt;Node2 -->
<g id="edge25" class="edge">
<title>Node18&#45;&gt;Node2</title>
<path fill="none" stroke="#9a32cd" stroke-dasharray="5,2" d="M2344.64,-546.41C2280,-543.11 2194.99,-537.04 2182,-527.5 2165.3,-515.24 2175.51,-501.73 2164,-484.5 2147.69,-460.09 2122.19,-436.97 2106.74,-424.07"/>
<polygon fill="#9a32cd" stroke="#9a32cd" points="2344.67,-549.91 2354.83,-546.91 2345.01,-542.92 2344.67,-549.91"/>
<text text-anchor="middle" x="2238.5" y="-545.9" font-family="Helvetica,sans-Serif" font-size="12.00"> m_plotsModel</text>
</g>
<!-- Node19 -->
<g id="node19" class="node">
<title>Node19</title>
<g id="a_node19"><a xlink:title=" ">
<polygon fill="white" stroke="#666666" points="2164,-588 2021,-588 2021,-567 2164,-567 2164,-588"/>
<text text-anchor="middle" x="2092.5" y="-574.4" font-family="Helvetica,sans-Serif" font-size="12.00">QAbstractTableModel</text>
</a>
</g>
</g>
<!-- Node19&#45;&gt;Node18 -->
<g id="edge26" class="edge">
<title>Node19&#45;&gt;Node18</title>
<path fill="none" stroke="#63b8ff" d="M2174.6,-572.66C2211.39,-570.26 2255.42,-567.1 2295,-563.5 2314.5,-561.73 2335.67,-559.47 2354.94,-557.29"/>
<polygon fill="#63b8ff" stroke="#63b8ff" points="2174.18,-569.18 2164.43,-573.31 2174.64,-576.16 2174.18,-569.18"/>
</g>
<!-- Node20 -->
<g id="node20" class="node">
<title>Node20</title>
<g id="a_node20"><a xlink:href="class_j_k_q_t_p_horizontal_axis.html" target="_top" xlink:title="implements a horizontal axis, based on JKQTPCoordinateAxis (for most of documentation: see JKQTPCoord...">
<polygon fill="white" stroke="#666666" points="2702,-442 2565,-442 2565,-421 2702,-421 2702,-442"/>
<text text-anchor="middle" x="2633.5" y="-428.4" font-family="Helvetica,sans-Serif" font-size="12.00">JKQTPHorizontalAxis</text>
</a>
</g>
</g>
<!-- Node20&#45;&gt;Node2 -->
<g id="edge28" class="edge">
<title>Node20&#45;&gt;Node2</title>
<path fill="none" stroke="#9a32cd" stroke-dasharray="5,2" d="M2554.77,-432.35C2464.9,-432.82 2312.59,-432.02 2182,-423.5 2171.51,-422.82 2160.35,-421.79 2149.61,-420.65"/>
<polygon fill="#9a32cd" stroke="#9a32cd" points="2554.89,-435.85 2564.87,-432.29 2554.85,-428.85 2554.89,-435.85"/>
<text text-anchor="middle" x="2420.5" y="-434.9" font-family="Helvetica,sans-Serif" font-size="12.00"> xAxis</text>
</g>
<!-- Node21&#45;&gt;Node20 -->
<g id="edge29" class="edge">
<title>Node21&#45;&gt;Node20</title>
<path fill="none" stroke="#63b8ff" d="M2496.37,-361.71C2507.25,-364.87 2518.1,-368.75 2528,-373.5 2546.83,-382.54 2547.03,-391.84 2565,-402.5 2577.07,-409.66 2591.23,-416.02 2603.45,-420.94"/>
<polygon fill="#63b8ff" stroke="#63b8ff" points="2496.96,-358.24 2486.4,-359 2495.13,-365 2496.96,-358.24"/>
</g>
<!-- Node22 -->
<g id="node22" class="node">
<title>Node22</title>
<g id="a_node22"><a xlink:href="class_j_k_q_t_p_vertical_axis.html" target="_top" xlink:title="implements a vertical axis, based on JKQTPCoordinateAxis (for most of documentation: see JKQTPCoordin...">
<polygon fill="white" stroke="#666666" points="2694.5,-393 2572.5,-393 2572.5,-372 2694.5,-372 2694.5,-393"/>
<text text-anchor="middle" x="2633.5" y="-379.4" font-family="Helvetica,sans-Serif" font-size="12.00">JKQTPVerticalAxis</text>
</a>
</g>
</g>
<!-- Node21&#45;&gt;Node22 -->
<g id="edge34" class="edge">
<title>Node21&#45;&gt;Node22</title>
<path fill="none" stroke="#63b8ff" d="M2496.88,-360.65C2521.59,-364.63 2548.71,-369 2572.16,-372.78"/>
<polygon fill="#63b8ff" stroke="#63b8ff" points="2497.25,-357.16 2486.82,-359.02 2496.13,-364.07 2497.25,-357.16"/>
</g>
<!-- Node22&#45;&gt;Node2 -->
<g id="edge33" class="edge">
<title>Node22&#45;&gt;Node2</title>
<path fill="none" stroke="#9a32cd" stroke-dasharray="5,2" d="M2562.2,-386.54C2453.96,-392.77 2248.65,-404.58 2149.66,-410.27"/>
<polygon fill="#9a32cd" stroke="#9a32cd" points="2562.59,-390.03 2572.37,-385.96 2562.19,-383.04 2562.59,-390.03"/>
<text text-anchor="middle" x="2420.5" y="-403.9" font-family="Helvetica,sans-Serif" font-size="12.00"> yAxis</text>
</g>
<!-- Node23 -->
<g id="node23" class="node">
<title>Node23</title>
<g id="a_node23"><a xlink:href="class_j_k_q_t_p_datastore.html" target="_top" xlink:title="This class manages data columns (with entries of type double ), used by JKQTPlotter/JKQTBasePlotter t...">
<polygon fill="white" stroke="#666666" points="1872,-105 1761,-105 1761,-84 1872,-84 1872,-105"/>
<text text-anchor="middle" x="1816.5" y="-91.4" font-family="Helvetica,sans-Serif" font-size="12.00">JKQTPDatastore</text>
</a>
</g>
</g>
<!-- Node23&#45;&gt;Node2 -->
<g id="edge35" class="edge">
<title>Node23&#45;&gt;Node2</title>
<path fill="none" stroke="#9a32cd" stroke-dasharray="5,2" d="M1849.3,-109.89C1862.11,-116.96 1876.54,-126.1 1888,-136.5 1984.31,-223.95 2064.16,-363.33 2085.75,-402.78"/>
<polygon fill="#9a32cd" stroke="#9a32cd" points="1850.79,-106.72 1840.32,-105.11 1847.51,-112.9 1850.79,-106.72"/>
<text text-anchor="middle" x="1954.5" y="-266.9" font-family="Helvetica,sans-Serif" font-size="12.00"> datastore</text>
</g>
<!-- Node25 -->
<g id="node25" class="node">
<title>Node25</title>
<g id="a_node25"><a xlink:href="class_j_k_q_t_p_column.html" target="_top" xlink:title="internally stores information about one data column. See JKQTPDatastore for more information.">
<polygon fill="white" stroke="#666666" points="2141.5,-110 2043.5,-110 2043.5,-89 2141.5,-89 2141.5,-110"/>
<text text-anchor="middle" x="2092.5" y="-96.4" font-family="Helvetica,sans-Serif" font-size="12.00">JKQTPColumn</text>
</a>
</g>
</g>
<!-- Node23&#45;&gt;Node25 -->
<g id="edge38" class="edge">
<title>Node23&#45;&gt;Node25</title>
<path fill="none" stroke="#9a32cd" stroke-dasharray="5,2" d="M1882.55,-94.22C1918.14,-94.22 1963,-94.49 2003,-95.5 2016.07,-95.83 2030.22,-96.38 2043.28,-96.97"/>
<polygon fill="#9a32cd" stroke="#9a32cd" points="1882.3,-90.72 1872.3,-94.22 1882.3,-97.72 1882.3,-90.72"/>
<text text-anchor="middle" x="1954.5" y="-98.9" font-family="Helvetica,sans-Serif" font-size="12.00"> datastore</text>
</g>
<!-- Node24 -->
<g id="node24" class="node">
<title>Node24</title>
<g id="a_node24"><a xlink:title=" ">
<polygon fill="white" stroke="#666666" points="2528,-68 2313,-68 2313,-47 2528,-47 2528,-68"/>
<text text-anchor="middle" x="2420.5" y="-54.4" font-family="Helvetica,sans-Serif" font-size="12.00">std::unique_ptr&lt; JKQTPColumn &gt;</text>
</a>
</g>
</g>
<!-- Node24&#45;&gt;Node23 -->
<g id="edge36" class="edge">
<title>Node24&#45;&gt;Node23</title>
<path fill="none" stroke="#9a32cd" stroke-dasharray="5,2" d="M2302.74,-57.15C2223.21,-57.72 2115.61,-60.06 2021,-67.5 1970.37,-71.48 1913.05,-79.4 1872.18,-85.63"/>
<polygon fill="#9a32cd" stroke="#9a32cd" points="2302.8,-60.65 2312.78,-57.09 2302.76,-53.65 2302.8,-60.65"/>
<text text-anchor="middle" x="2092.5" y="-70.9" font-family="Helvetica,sans-Serif" font-size="12.00"> m_invalidColumn</text>
</g>
<!-- Node25&#45;&gt;Node24 -->
<g id="edge37" class="edge">
<title>Node25&#45;&gt;Node24</title>
<path fill="none" stroke="#9a32cd" stroke-dasharray="5,2" d="M2151.64,-92.01C2203.51,-85.33 2280.02,-75.47 2338,-68"/>
<polygon fill="#9a32cd" stroke="#9a32cd" points="2151.07,-88.55 2141.6,-93.3 2151.97,-95.5 2151.07,-88.55"/>
<text text-anchor="middle" x="2238.5" y="-89.9" font-family="Helvetica,sans-Serif" font-size="12.00"> ptr</text>
</g>
<!-- Node26 -->
<g id="node26" class="node">
<title>Node26</title>
<g id="a_node26"><a xlink:title=" ">
<polygon fill="white" stroke="#666666" points="2162.5,-21 2022.5,-21 2022.5,0 2162.5,0 2162.5,-21"/>
<text text-anchor="middle" x="2092.5" y="-7.4" font-family="Helvetica,sans-Serif" font-size="12.00">std::unique_ptr&lt; T &gt;</text>
</a>
</g>
</g>
<!-- Node26&#45;&gt;Node24 -->
<g id="edge39" class="edge">
<title>Node26&#45;&gt;Node24</title>
<path fill="none" stroke="orange" stroke-dasharray="5,2" d="M2173.04,-16.28C2210.21,-19.52 2255.01,-24.2 2295,-30.5 2322.42,-34.82 2352.88,-41.39 2376.8,-46.97"/>
<polygon fill="orange" stroke="orange" points="2173.02,-12.76 2162.76,-15.4 2172.43,-19.74 2173.02,-12.76"/>
<text text-anchor="middle" x="2238.5" y="-33.9" font-family="Helvetica,sans-Serif" font-size="12.00"> &lt; JKQTPColumn &gt;</text>
</g>
<!-- Node27 -->
<g id="node27" class="node">
<title>Node27</title>
<g id="a_node27"><a xlink:title=" ">
<polygon fill="white" stroke="#666666" points="1831,-21 1802,-21 1802,0 1831,0 1831,-21"/>
<text text-anchor="middle" x="1816.5" y="-7.4" font-family="Helvetica,sans-Serif" font-size="12.00">T</text>
</a>
</g>
</g>
<!-- Node27&#45;&gt;Node26 -->
<g id="edge40" class="edge">
<title>Node27&#45;&gt;Node26</title>
<path fill="none" stroke="#9a32cd" stroke-dasharray="5,2" d="M1841.17,-10.5C1881.06,-10.5 1963.14,-10.5 2022.46,-10.5"/>
<polygon fill="#9a32cd" stroke="#9a32cd" points="1841.09,-7 1831.09,-10.5 1841.09,-14 1841.09,-7"/>
<text text-anchor="middle" x="1954.5" y="-13.9" font-family="Helvetica,sans-Serif" font-size="12.00"> ptr</text>
</g>
</g>
</svg>
