<?xml version="1.0" encoding="UTF-8" standalone="no"?>
<!DOCTYPE svg PUBLIC "-//W3C//DTD SVG 1.1//EN"
 "http://www.w3.org/Graphics/SVG/1.1/DTD/svg11.dtd">
<!-- Generated by graphviz version 2.43.0 (0)
 -->
<!-- Title: JKQTPDataCache&lt; TData, TKey, ThreadSafe, TKeyInSignature &gt; Pages: 1 -->
<!--zoomable 167 -->

<svg id="main" version="1.1" xmlns="http://www.w3.org/2000/svg" xmlns:xlink="http://www.w3.org/1999/xlink" xml:space="preserve" onload="init(evt)">
<style type="text/css"><![CDATA[
.node, .edge {opacity: 0.7;}
.node.selected, .edge.selected {opacity: 1;}
.edge:hover path { stroke: red; }
.edge:hover polygon { stroke: red; fill: red; }
]]></style>

<defs>
  <circle id="rim" cx="0" cy="0" r="7"/>
  <circle id="rim2" cx="0" cy="0" r="3.5"/>
  <g id="zoomPlus">
    <use xlink:href="#rim" fill="#404040"><set attributeName="fill" to="#808080" begin="zoomplus.mouseover" end="zoomplus.mouseout"/></use>
    <path d="M-4,0h8M0,-4v8" fill="none" stroke="white" stroke-width="1.5" pointer-events="none"/>
  </g>
  <g id="zoomMin">
    <use xlink:href="#rim" fill="#404040"><set attributeName="fill" to="#808080" begin="zoomminus.mouseover" end="zoomminus.mouseout"/></use>
    <path d="M-4,0h8" fill="none" stroke="white" stroke-width="1.5" pointer-events="none"/>
  </g>
  <g id="arrowUp" transform="translate(30 24)">
    <use xlink:href="#rim"/>
    <path pointer-events="none" fill="none" stroke="white" stroke-width="1.5" d="M0,-3.0v7 M-2.5,-0.5L0,-3.0L2.5,-0.5"/>
  </g>
  <g id="arrowRight" transform="rotate(90) translate(36 -43)">
    <use xlink:href="#rim"/>
    <path pointer-events="none" fill="none" stroke="white" stroke-width="1.5" d="M0,-3.0v7 M-2.5,-0.5L0,-3.0L2.5,-0.5"/>
  </g>
  <g id="arrowDown" transform="rotate(180) translate(-30 -48)">
    <use xlink:href="#rim"/>
    <path pointer-events="none" fill="none" stroke="white" stroke-width="1.5" d="M0,-3.0v7 M-2.5,-0.5L0,-3.0L2.5,-0.5"/>
  </g>
  <g id="arrowLeft" transform="rotate(270) translate(-36 17)">
    <use xlink:href="#rim"/>
    <path pointer-events="none" fill="none" stroke="white" stroke-width="1.5" d="M0,-3.0v7 M-2.5,-0.5L0,-3.0L2.5,-0.5"/>
  </g>
  <g id="resetDef">
    <use xlink:href="#rim2" fill="#404040"><set attributeName="fill" to="#808080" begin="reset.mouseover" end="reset.mouseout"/></use>
  </g>
</defs>
<script type="application/ecmascript">
var viewWidth = 1560;
var viewHeight = 167;
var sectionId = 'dynsection-0';
</script>
<script type="application/ecmascript" xlink:href="svg.min.js"/>
<svg id="graph" class="graph">
<g id="viewport">
<title>JKQTPDataCache&lt; TData, TKey, ThreadSafe, TKeyInSignature &gt;</title>
<!-- Node1 -->
<g id="Node000001" class="node">
<title>Node1</title>
<g id="a_Node000001"><a xlink:title="this class can be used to implement a general cache for values">
<polygon fill="#999999" stroke="#666666" points="1552,-125.5 1307,-125.5 1307,-91.5 1552,-91.5 1552,-125.5"/>
<text text-anchor="start" x="1315" y="-111.9" font-family="Helvetica,sans-Serif" font-size="12.00">JKQTPDataCache&lt; TData,</text>
<text text-anchor="middle" x="1429.5" y="-98.9" font-family="Helvetica,sans-Serif" font-size="12.00"> TKey, ThreadSafe, TKeyInSignature &gt;</text>
</a>
</g>
</g>
<!-- Node2 -->
<g id="Node000002" class="node">
<title>Node2</title>
<g id="a_Node000002"><a xlink:title=" ">
<polygon fill="white" stroke="#666666" points="1079.5,-158.5 942.5,-158.5 942.5,-124.5 1079.5,-124.5 1079.5,-158.5"/>
<text text-anchor="start" x="950.5" y="-144.9" font-family="Helvetica,sans-Serif" font-size="12.00">std::unordered_map</text>
<text text-anchor="middle" x="1011" y="-131.9" font-family="Helvetica,sans-Serif" font-size="12.00">&lt; TKey, TData &gt;</text>
</a>
</g>
</g>
<!-- Node2&#45;&gt;Node1 -->
<g id="edge1_Node000001_Node000002" class="edge">
<title>Node2&#45;&gt;Node1</title>
<g id="a_edge1_Node000001_Node000002"><a xlink:title=" ">
<path fill="none" stroke="#9a32cd" stroke-dasharray="5,2" d="M1090.17,-135.31C1151.14,-130.48 1236.92,-123.68 1306.85,-118.14"/>
<polygon fill="#9a32cd" stroke="#9a32cd" points="1089.54,-131.85 1079.84,-136.12 1090.09,-138.82 1089.54,-131.85"/>
</a>
</g>
<text text-anchor="middle" x="1200" y="-136.9" font-family="Helvetica,sans-Serif" font-size="12.00" fill="grey"> m_cache</text>
</g>
<!-- Node3 -->
<g id="Node000003" class="node">
<title>Node3</title>
<g id="a_Node000003"><a xlink:title=" ">
<polygon fill="white" stroke="#666666" points="740.5,-143.5 603.5,-143.5 603.5,-109.5 740.5,-109.5 740.5,-143.5"/>
<text text-anchor="start" x="611.5" y="-129.9" font-family="Helvetica,sans-Serif" font-size="12.00">std::unordered_map</text>
<text text-anchor="middle" x="672" y="-116.9" font-family="Helvetica,sans-Serif" font-size="12.00">&lt; K, T &gt;</text>
</a>
</g>
</g>
<!-- Node3&#45;&gt;Node2 -->
<g id="edge2_Node000002_Node000003" class="edge">
<title>Node3&#45;&gt;Node2</title>
<g id="a_edge2_Node000002_Node000003"><a xlink:title=" ">
<path fill="none" stroke="orange" stroke-dasharray="5,2" d="M750.99,-129.97C808.88,-132.55 887.04,-136.03 942.32,-138.49"/>
<polygon fill="orange" stroke="orange" points="750.94,-126.47 740.79,-129.52 750.63,-133.46 750.94,-126.47"/>
</a>
</g>
<text text-anchor="middle" x="837" y="-139.9" font-family="Helvetica,sans-Serif" font-size="12.00" fill="grey"> &lt; TKey, TData &gt;</text>
</g>
<!-- Node6 -->
<g id="Node000006" class="node">
<title>Node6</title>
<g id="a_Node000006"><a xlink:title=" ">
<polygon fill="white" stroke="#666666" points="1093,-106.5 929,-106.5 929,-46.5 1093,-46.5 1093,-106.5"/>
<text text-anchor="start" x="937" y="-92.9" font-family="Helvetica,sans-Serif" font-size="12.00">std::unordered_map</text>
<text text-anchor="start" x="937" y="-79.9" font-family="Helvetica,sans-Serif" font-size="12.00">&lt; TKey, std::shared</text>
<text text-anchor="start" x="937" y="-66.9" font-family="Helvetica,sans-Serif" font-size="12.00">_ptr&lt; std::atomic&lt; int64</text>
<text text-anchor="middle" x="1011" y="-53.9" font-family="Helvetica,sans-Serif" font-size="12.00">_t &gt; &gt; &gt;</text>
</a>
</g>
</g>
<!-- Node3&#45;&gt;Node6 -->
<g id="edge12_Node000006_Node000003" class="edge">
<title>Node3&#45;&gt;Node6</title>
<g id="a_edge12_Node000006_Node000003"><a xlink:title=" ">
<path fill="none" stroke="orange" stroke-dasharray="5,2" d="M713.58,-105.18C728.69,-98.26 746.24,-91.37 763,-87.5 817.37,-74.96 880.22,-72.32 928.91,-72.76"/>
<polygon fill="orange" stroke="orange" points="712.06,-102.03 704.52,-109.47 715.06,-108.35 712.06,-102.03"/>
</a>
</g>
<text text-anchor="start" x="763" y="-116.9" font-family="Helvetica,sans-Serif" font-size="12.00" fill="grey"> &lt; TKey, std::shared</text>
<text text-anchor="start" x="763" y="-103.9" font-family="Helvetica,sans-Serif" font-size="12.00" fill="grey">_ptr&lt; std::atomic&lt; int64</text>
<text text-anchor="middle" x="837" y="-90.9" font-family="Helvetica,sans-Serif" font-size="12.00" fill="grey">_t &gt; &gt; &gt;</text>
</g>
<!-- Node4 -->
<g id="Node000004" class="node">
<title>Node4</title>
<g id="a_Node000004"><a xlink:title=" ">
<polygon fill="white" stroke="#666666" points="471,-123 442,-123 442,-102 471,-102 471,-123"/>
<text text-anchor="middle" x="456.5" y="-109.4" font-family="Helvetica,sans-Serif" font-size="12.00">K</text>
</a>
</g>
</g>
<!-- Node4&#45;&gt;Node3 -->
<g id="edge3_Node000003_Node000004" class="edge">
<title>Node4&#45;&gt;Node3</title>
<g id="a_edge3_Node000003_Node000004"><a xlink:title=" ">
<path fill="none" stroke="#9a32cd" stroke-dasharray="5,2" d="M481.29,-114.06C510.61,-115.98 561.69,-119.33 603.46,-122.07"/>
<polygon fill="#9a32cd" stroke="#9a32cd" points="481.39,-110.56 471.18,-113.4 480.93,-117.54 481.39,-110.56"/>
</a>
</g>
<text text-anchor="middle" x="565.5" y="-122.9" font-family="Helvetica,sans-Serif" font-size="12.00" fill="grey"> keys</text>
</g>
<!-- Node5 -->
<g id="Node000005" class="node">
<title>Node5</title>
<g id="a_Node000005"><a xlink:title=" ">
<polygon fill="white" stroke="#666666" points="29,-68 0,-68 0,-47 29,-47 29,-68"/>
<text text-anchor="middle" x="14.5" y="-54.4" font-family="Helvetica,sans-Serif" font-size="12.00">T</text>
</a>
</g>
</g>
<!-- Node5&#45;&gt;Node3 -->
<g id="edge4_Node000003_Node000005" class="edge">
<title>Node5&#45;&gt;Node3</title>
<g id="a_edge4_Node000003_Node000005"><a xlink:title=" ">
<path fill="none" stroke="#9a32cd" stroke-dasharray="5,2" d="M38.1,-70.8C41.03,-72.2 44.04,-73.48 47,-74.5 259.84,-148.22 324.77,-133.83 550,-136.5 563.78,-136.66 567.24,-137.26 581,-136.5 588.22,-136.1 595.75,-135.52 603.25,-134.84"/>
<polygon fill="#9a32cd" stroke="#9a32cd" points="39.65,-67.67 29.17,-66.13 36.4,-73.87 39.65,-67.67"/>
</a>
</g>
<text text-anchor="middle" x="293" y="-137.9" font-family="Helvetica,sans-Serif" font-size="12.00" fill="grey"> elements</text>
</g>
<!-- Node9 -->
<g id="Node000009" class="node">
<title>Node9</title>
<g id="a_Node000009"><a xlink:title=" ">
<polygon fill="white" stroke="#666666" points="205,-27 87,-27 87,-6 205,-6 205,-27"/>
<text text-anchor="middle" x="146" y="-13.4" font-family="Helvetica,sans-Serif" font-size="12.00">std::atomic&lt; T &gt;</text>
</a>
</g>
</g>
<!-- Node5&#45;&gt;Node9 -->
<g id="edge9_Node000009_Node000005" class="edge">
<title>Node5&#45;&gt;Node9</title>
<g id="a_edge9_Node000009_Node000005"><a xlink:title=" ">
<path fill="none" stroke="#9a32cd" stroke-dasharray="5,2" d="M27.87,-38.63C33,-32.39 39.51,-26.11 47,-22.5 59.2,-16.61 73.28,-13.8 86.89,-12.73"/>
<polygon fill="#9a32cd" stroke="#9a32cd" points="24.9,-36.75 21.77,-46.88 30.53,-40.92 24.9,-36.75"/>
</a>
</g>
<text text-anchor="middle" x="58" y="-25.9" font-family="Helvetica,sans-Serif" font-size="12.00" fill="grey"> ptr</text>
</g>
<!-- Node10 -->
<g id="Node000010" class="node">
<title>Node10</title>
<g id="a_Node000010"><a xlink:title=" ">
<polygon fill="white" stroke="#666666" points="363,-68 223,-68 223,-47 363,-47 363,-68"/>
<text text-anchor="middle" x="293" y="-54.4" font-family="Helvetica,sans-Serif" font-size="12.00">std::shared_ptr&lt; T &gt;</text>
</a>
</g>
</g>
<!-- Node5&#45;&gt;Node10 -->
<g id="edge11_Node000010_Node000005" class="edge">
<title>Node5&#45;&gt;Node10</title>
<g id="a_edge11_Node000010_Node000005"><a xlink:title=" ">
<path fill="none" stroke="#9a32cd" stroke-dasharray="5,2" d="M39.42,-57.5C79.83,-57.5 163.06,-57.5 222.95,-57.5"/>
<polygon fill="#9a32cd" stroke="#9a32cd" points="39.21,-54 29.21,-57.5 39.21,-61 39.21,-54"/>
</a>
</g>
<text text-anchor="middle" x="58" y="-60.9" font-family="Helvetica,sans-Serif" font-size="12.00" fill="grey"> ptr</text>
</g>
<!-- Node6&#45;&gt;Node1 -->
<g id="edge5_Node000001_Node000006" class="edge">
<title>Node6&#45;&gt;Node1</title>
<g id="a_edge5_Node000001_Node000006"><a xlink:title=" ">
<path fill="none" stroke="#9a32cd" stroke-dasharray="5,2" d="M1103.46,-83.53C1163.16,-88.11 1241.79,-94.15 1306.75,-99.15"/>
<polygon fill="#9a32cd" stroke="#9a32cd" points="1103.53,-80.02 1093.29,-82.75 1103,-87 1103.53,-80.02"/>
</a>
</g>
<text text-anchor="middle" x="1200" y="-100.9" font-family="Helvetica,sans-Serif" font-size="12.00" fill="grey"> m_cacheLastUseTimestamps</text>
</g>
<!-- Node7 -->
<g id="Node000007" class="node">
<title>Node7</title>
<g id="a_Node000007"><a xlink:title=" ">
<polygon fill="white" stroke="#666666" points="745,-60.5 599,-60.5 599,-26.5 745,-26.5 745,-60.5"/>
<text text-anchor="start" x="607" y="-46.9" font-family="Helvetica,sans-Serif" font-size="12.00">std::shared_ptr&lt; std</text>
<text text-anchor="middle" x="672" y="-33.9" font-family="Helvetica,sans-Serif" font-size="12.00">::atomic&lt; int64_t &gt; &gt;</text>
</a>
</g>
</g>
<!-- Node7&#45;&gt;Node6 -->
<g id="edge6_Node000006_Node000007" class="edge">
<title>Node7&#45;&gt;Node6</title>
<g id="a_edge6_Node000006_Node000007"><a xlink:title=" ">
<path fill="none" stroke="#9a32cd" stroke-dasharray="5,2" d="M755.3,-37.65C801.37,-35.92 859.69,-36.3 911,-44.5 916.89,-45.44 922.9,-46.67 928.91,-48.1"/>
<polygon fill="#9a32cd" stroke="#9a32cd" points="754.91,-34.16 745.07,-38.07 755.2,-41.15 754.91,-34.16"/>
</a>
</g>
<text text-anchor="middle" x="837" y="-47.9" font-family="Helvetica,sans-Serif" font-size="12.00" fill="grey"> elements</text>
</g>
<!-- Node8 -->
<g id="Node000008" class="node">
<title>Node8</title>
<g id="a_Node000008"><a xlink:title=" ">
<polygon fill="white" stroke="#666666" points="532,-21 381,-21 381,0 532,0 532,-21"/>
<text text-anchor="middle" x="456.5" y="-7.4" font-family="Helvetica,sans-Serif" font-size="12.00">std::atomic&lt; int64_t &gt;</text>
</a>
</g>
</g>
<!-- Node8&#45;&gt;Node7 -->
<g id="edge7_Node000007_Node000008" class="edge">
<title>Node8&#45;&gt;Node7</title>
<g id="a_edge7_Node000007_Node000008"><a xlink:title=" ">
<path fill="none" stroke="#9a32cd" stroke-dasharray="5,2" d="M535.63,-22.58C556.25,-25.76 578.42,-29.19 598.72,-32.33"/>
<polygon fill="#9a32cd" stroke="#9a32cd" points="536.06,-19.1 525.64,-21.03 534.99,-26.02 536.06,-19.1"/>
</a>
</g>
<text text-anchor="middle" x="565.5" y="-32.9" font-family="Helvetica,sans-Serif" font-size="12.00" fill="grey"> ptr</text>
</g>
<!-- Node9&#45;&gt;Node8 -->
<g id="edge8_Node000008_Node000009" class="edge">
<title>Node9&#45;&gt;Node8</title>
<g id="a_edge8_Node000008_Node000009"><a xlink:title=" ">
<path fill="none" stroke="orange" stroke-dasharray="5,2" d="M215.22,-15.17C264.25,-14.22 330.33,-12.93 380.79,-11.95"/>
<polygon fill="orange" stroke="orange" points="214.96,-11.68 205.03,-15.37 215.09,-18.68 214.96,-11.68"/>
</a>
</g>
<text text-anchor="middle" x="293" y="-18.9" font-family="Helvetica,sans-Serif" font-size="12.00" fill="grey"> &lt; int64_t &gt;</text>
</g>
<!-- Node10&#45;&gt;Node7 -->
<g id="edge10_Node000007_Node000010" class="edge">
<title>Node10&#45;&gt;Node7</title>
<g id="a_edge10_Node000007_Node000010"><a xlink:title=" ">
<path fill="none" stroke="orange" stroke-dasharray="5,2" d="M373.18,-54.56C439.77,-52.09 534.2,-48.58 598.76,-46.18"/>
<polygon fill="orange" stroke="orange" points="373.01,-51.06 363.15,-54.93 373.27,-58.06 373.01,-51.06"/>
</a>
</g>
<text text-anchor="start" x="392.5" y="-70.9" font-family="Helvetica,sans-Serif" font-size="12.00" fill="grey"> &lt; std::atomic&lt; int64</text>
<text text-anchor="middle" x="456.5" y="-57.9" font-family="Helvetica,sans-Serif" font-size="12.00" fill="grey">_t &gt; &gt;</text>
</g>
</g>
</svg>

<g id="navigator" transform="translate(0 0)" fill="#404254">
  <rect fill="#f2f5e9" fill-opacity="0.5" stroke="#606060" stroke-width=".5" x="0" y="0" width="60" height="60"/>
  <use id="zoomplus" xlink:href="#zoomPlus" x="17" y="9" onmousedown="handleZoom(evt,'in')"/>
  <use id="zoomminus" xlink:href="#zoomMin" x="42" y="9" onmousedown="handleZoom(evt,'out')"/>
  <use id="reset" xlink:href="#resetDef" x="30" y="36" onmousedown="handleReset()"/>
   <use id="arrowup" xlink:href="#arrowUp" x="0" y="0" onmousedown="handlePan(0,-1)"/>
  <use id="arrowright" xlink:href="#arrowRight" x="0" y="0" onmousedown="handlePan(1,0)"/>
  <use id="arrowdown" xlink:href="#arrowDown" x="0" y="0" onmousedown="handlePan(0,1)"/>
  <use id="arrowleft" xlink:href="#arrowLeft" x="0" y="0" onmousedown="handlePan(-1,0)"/>
</g>
<svg viewBox="0 0 15 15" width="100%" height="30px" preserveAspectRatio="xMaxYMin meet">
 <g id="arrow_out" transform="scale(0.3 0.3)">
  <a xlink:href="struct_j_k_q_t_p_data_cache__coll__graph_org.svg" target="_base">
   <rect id="button" ry="5" rx="5" y="6" x="6" height="38" width="38"
        fill="#f2f5e9" fill-opacity="0.5" stroke="#606060" stroke-width="1.0"/>
   <path id="arrow"
     d="M 11.500037,31.436501 C 11.940474,20.09759 22.043105,11.32322 32.158766,21.979434 L 37.068811,17.246167 C 37.068811,17.246167 37.088388,32 37.088388,32 L 22.160133,31.978069 C 22.160133,31.978069 26.997745,27.140456 26.997745,27.140456 C 18.528582,18.264221 13.291696,25.230495 11.500037,31.436501 z"
     style="fill:#404040;"/>
  </a>
 </g>
</svg>

<style type='text/css'>
<![CDATA[
[data-mouse-over-selected='false'] { opacity: 0.7; }
[data-mouse-over-selected='true']  { opacity: 1.0; }
]]>
</style>
<script type="application/ecmascript"><![CDATA[
document.addEventListener('DOMContentLoaded', (event) => {
  highlightEdges();
  highlightAdjacentNodes();
});
]]></script>
</svg>
