<?xml version="1.0" encoding="UTF-8" standalone="no"?>
<!DOCTYPE svg PUBLIC "-//W3C//DTD SVG 1.1//EN"
 "http://www.w3.org/Graphics/SVG/1.1/DTD/svg11.dtd">
<!-- Generated by graphviz version 2.43.0 (0)
 -->
<!-- Title: JKQTPGridPrintingItem Pages: 1 -->
<svg width="3185pt" height="589pt"
 viewBox="0.00 0.00 3185.00 588.50" xmlns="http://www.w3.org/2000/svg" xmlns:xlink="http://www.w3.org/1999/xlink">
<g id="graph0" class="graph" transform="scale(1 1) rotate(0) translate(4 584.5)">
<title>JKQTPGridPrintingItem</title>
<!-- Node1 -->
<g id="Node000001" class="node">
<title>Node1</title>
<g id="a_Node000001"><a xlink:title="used to represent the position of other graphs in Saving and Printing Graphs">
<polygon fill="#999999" stroke="#666666" points="2732.5,-345 2582.5,-345 2582.5,-324 2732.5,-324 2732.5,-345"/>
<text text-anchor="middle" x="2657.5" y="-331.4" font-family="Helvetica,sans-Serif" font-size="12.00">JKQTPGridPrintingItem</text>
</a>
</g>
</g>
<!-- Node2 -->
<g id="Node000002" class="node">
<title>Node2</title>
<g id="a_Node000002"><a xlink:href="class_j_k_q_t_base_plotter.html" target="_top" xlink:title="base class for 2D plotter classes (used by the plotter widget JKQTPlotter)">
<polygon fill="white" stroke="#666666" points="2386.5,-338 2272.5,-338 2272.5,-317 2386.5,-317 2386.5,-338"/>
<text text-anchor="middle" x="2329.5" y="-324.4" font-family="Helvetica,sans-Serif" font-size="12.00">JKQTBasePlotter</text>
</a>
</g>
</g>
<!-- Node2&#45;&gt;Node1 -->
<g id="edge1_Node000001_Node000002" class="edge">
<title>Node2&#45;&gt;Node1</title>
<g id="a_edge1_Node000001_Node000002"><a xlink:title=" ">
<path fill="none" stroke="#9a32cd" stroke-dasharray="5,2" d="M2396.66,-328.92C2450.48,-330.08 2526.39,-331.71 2582.27,-332.91"/>
<polygon fill="#9a32cd" stroke="#9a32cd" points="2396.61,-325.42 2386.54,-328.7 2396.46,-332.42 2396.61,-325.42"/>
</a>
</g>
<text text-anchor="middle" x="2475.5" y="-334.9" font-family="Helvetica,sans-Serif" font-size="12.00" fill="grey"> plotter</text>
</g>
<!-- Node2&#45;&gt;Node2 -->
<g id="edge44_Node000002_Node000002" class="edge">
<title>Node2&#45;&gt;Node2</title>
<g id="a_edge44_Node000002_Node000002"><a xlink:title=" ">
<path fill="none" stroke="#9a32cd" stroke-dasharray="5,2" d="M2302.59,-347.57C2304.67,-352.41 2313.64,-356 2329.5,-356 2354.88,-356 2362.61,-346.81 2352.7,-338.02"/>
<polygon fill="#9a32cd" stroke="#9a32cd" points="2305.95,-348.61 2306.3,-338.02 2299.42,-346.08 2305.95,-348.61"/>
</a>
</g>
<text text-anchor="middle" x="2329.5" y="-372.4" font-family="Helvetica,sans-Serif" font-size="12.00" fill="grey"> masterPlotterX</text>
<text text-anchor="middle" x="2329.5" y="-359.4" font-family="Helvetica,sans-Serif" font-size="12.00" fill="grey">masterPlotterY</text>
</g>
<!-- Node19 -->
<g id="Node000019" class="node">
<title>Node19</title>
<g id="a_Node000019"><a xlink:href="class_j_k_q_t_p_graphs_model.html" target="_top" xlink:title="data model with all plots ina JKQTBasePlotter (+ allows to switch them visible/invisible)">
<polygon fill="white" stroke="#666666" points="2723,-273 2592,-273 2592,-252 2723,-252 2723,-273"/>
<text text-anchor="middle" x="2657.5" y="-259.4" font-family="Helvetica,sans-Serif" font-size="12.00">JKQTPGraphsModel</text>
</a>
</g>
</g>
<!-- Node2&#45;&gt;Node19 -->
<g id="edge28_Node000019_Node000002" class="edge">
<title>Node2&#45;&gt;Node19</title>
<g id="a_edge28_Node000019_Node000002"><a xlink:title=" ">
<path fill="none" stroke="#9a32cd" stroke-dasharray="5,2" d="M2350.68,-310.32C2367.68,-296.99 2393.27,-279.49 2419,-271.5 2475.55,-253.94 2543.33,-253.24 2591.98,-256.02"/>
<polygon fill="#9a32cd" stroke="#9a32cd" points="2348.2,-307.82 2342.62,-316.83 2352.6,-313.27 2348.2,-307.82"/>
</a>
</g>
<text text-anchor="middle" x="2475.5" y="-274.9" font-family="Helvetica,sans-Serif" font-size="12.00" fill="grey"> m_plotter</text>
</g>
<!-- Node23 -->
<g id="Node000023" class="node">
<title>Node23</title>
<g id="a_Node000023"><a xlink:href="class_j_k_q_t_p_coordinate_axis.html" target="_top" xlink:title="this virtual class is the base for any type of coordinate axis, to be drawn by JKQTBasePlotter.">
<polygon fill="white" stroke="#666666" points="2728.5,-500 2586.5,-500 2586.5,-479 2728.5,-479 2728.5,-500"/>
<text text-anchor="middle" x="2657.5" y="-486.4" font-family="Helvetica,sans-Serif" font-size="12.00">JKQTPCoordinateAxis</text>
</a>
</g>
</g>
<!-- Node2&#45;&gt;Node23 -->
<g id="edge33_Node000023_Node000002" class="edge">
<title>Node2&#45;&gt;Node23</title>
<g id="a_edge33_Node000023_Node000002"><a xlink:title=" ">
<path fill="none" stroke="#9a32cd" stroke-dasharray="5,2" d="M2342.8,-346.8C2358.02,-369.09 2385.99,-405.27 2419,-425.5 2470.16,-456.85 2536.7,-473.06 2586.33,-481.32"/>
<polygon fill="#9a32cd" stroke="#9a32cd" points="2345.53,-344.58 2337.09,-338.18 2339.7,-348.45 2345.53,-344.58"/>
</a>
</g>
<text text-anchor="middle" x="2475.5" y="-472.9" font-family="Helvetica,sans-Serif" font-size="12.00" fill="grey"> parent</text>
</g>
<!-- Node3 -->
<g id="Node000003" class="node">
<title>Node3</title>
<g id="a_Node000003"><a xlink:title=" ">
<polygon fill="white" stroke="#666666" points="1507.5,-538 1442.5,-538 1442.5,-517 1507.5,-517 1507.5,-538"/>
<text text-anchor="middle" x="1475" y="-524.4" font-family="Helvetica,sans-Serif" font-size="12.00">QObject</text>
</a>
</g>
</g>
<!-- Node3&#45;&gt;Node2 -->
<g id="edge2_Node000002_Node000003" class="edge">
<title>Node3&#45;&gt;Node2</title>
<g id="a_edge2_Node000002_Node000003"><a xlink:title=" ">
<path fill="none" stroke="#63b8ff" d="M1517.94,-519.31C1539.42,-515.33 1566.04,-510.72 1590,-507.5 1661.89,-497.84 2176.78,-482.07 2240,-446.5 2242.92,-444.86 2299.52,-367.33 2320.64,-338.31"/>
<polygon fill="#63b8ff" stroke="#63b8ff" points="1517.02,-515.93 1507.83,-521.21 1518.31,-522.81 1517.02,-515.93"/>
</a>
</g>
</g>
<!-- Node16 -->
<g id="Node000016" class="node">
<title>Node16</title>
<g id="a_Node000016"><a xlink:href="class_j_k_q_t_math_text.html" target="_top" xlink:title="this class parses a mathematical markup string and can then draw the contained text/equation onto a Q...">
<polygon fill="white" stroke="#666666" points="1987.5,-443 1888.5,-443 1888.5,-422 1987.5,-422 1987.5,-443"/>
<text text-anchor="middle" x="1938" y="-429.4" font-family="Helvetica,sans-Serif" font-size="12.00">JKQTMathText</text>
</a>
</g>
</g>
<!-- Node3&#45;&gt;Node16 -->
<g id="edge21_Node000016_Node000003" class="edge">
<title>Node3&#45;&gt;Node16</title>
<g id="a_edge21_Node000016_Node000003"><a xlink:title=" ">
<path fill="none" stroke="#63b8ff" d="M1518.05,-527.44C1536.44,-525.38 1557.15,-520.05 1572,-507.5 1588.77,-493.33 1572.4,-474.62 1590,-461.5 1613.36,-444.09 1798.26,-436.46 1888.2,-433.75"/>
<polygon fill="#63b8ff" stroke="#63b8ff" points="1517.52,-523.97 1507.85,-528.29 1518.1,-530.95 1517.52,-523.97"/>
</a>
</g>
</g>
<!-- Node3&#45;&gt;Node23 -->
<g id="edge32_Node000023_Node000003" class="edge">
<title>Node3&#45;&gt;Node23</title>
<g id="a_edge32_Node000023_Node000003"><a xlink:title=" ">
<path fill="none" stroke="#63b8ff" d="M1517.64,-526.16C1692.12,-520.54 2365.62,-498.86 2586.15,-491.76"/>
<polygon fill="#63b8ff" stroke="#63b8ff" points="1517.46,-522.66 1507.58,-526.48 1517.68,-529.66 1517.46,-522.66"/>
</a>
</g>
</g>
<!-- Node4 -->
<g id="Node000004" class="node">
<title>Node4</title>
<g id="a_Node000004"><a xlink:href="class_j_k_q_t_base_plotter_style.html" target="_top" xlink:title="Support Class for JKQTBasePlotter, which summarizes all properties that define the visual styling of ...">
<polygon fill="white" stroke="#666666" points="2009.5,-338 1866.5,-338 1866.5,-317 2009.5,-317 2009.5,-338"/>
<text text-anchor="middle" x="1938" y="-324.4" font-family="Helvetica,sans-Serif" font-size="12.00">JKQTBasePlotterStyle</text>
</a>
</g>
</g>
<!-- Node4&#45;&gt;Node2 -->
<g id="edge3_Node000002_Node000004" class="edge">
<title>Node4&#45;&gt;Node2</title>
<g id="a_edge3_Node000002_Node000004"><a xlink:title=" ">
<path fill="none" stroke="#9a32cd" stroke-dasharray="5,2" d="M2019.95,-327.5C2095.46,-327.5 2206.13,-327.5 2272.37,-327.5"/>
<polygon fill="#9a32cd" stroke="#9a32cd" points="2019.54,-324 2009.54,-327.5 2019.54,-331 2019.54,-324"/>
</a>
</g>
<text text-anchor="middle" x="2161.5" y="-330.9" font-family="Helvetica,sans-Serif" font-size="12.00" fill="grey"> plotterStyle</text>
</g>
<!-- Node5 -->
<g id="Node000005" class="node">
<title>Node5</title>
<g id="a_Node000005"><a xlink:href="class_j_k_q_t_p_key_style.html" target="_top" xlink:title="Support Class for JKQTBasePlotter, which summarizes all properties that define the visual styling of ...">
<polygon fill="white" stroke="#666666" points="1527,-295 1423,-295 1423,-274 1527,-274 1527,-295"/>
<text text-anchor="middle" x="1475" y="-281.4" font-family="Helvetica,sans-Serif" font-size="12.00">JKQTPKeyStyle</text>
</a>
</g>
</g>
<!-- Node5&#45;&gt;Node4 -->
<g id="edge4_Node000004_Node000005" class="edge">
<title>Node5&#45;&gt;Node4</title>
<g id="a_edge4_Node000004_Node000005"><a xlink:title=" ">
<path fill="none" stroke="#9a32cd" stroke-dasharray="5,2" d="M1537.44,-279.63C1601.58,-275.73 1704.9,-272.77 1793,-285.5 1834.5,-291.49 1880.75,-306.56 1909.37,-316.92"/>
<polygon fill="#9a32cd" stroke="#9a32cd" points="1536.86,-276.16 1527.11,-280.29 1537.31,-283.15 1536.86,-276.16"/>
</a>
</g>
<text text-anchor="middle" x="1691.5" y="-288.9" font-family="Helvetica,sans-Serif" font-size="12.00" fill="grey"> keyStyle</text>
</g>
<!-- Node6 -->
<g id="Node000006" class="node">
<title>Node6</title>
<g id="a_Node000006"><a xlink:href="class_j_k_q_t_p_coordinate_axis_style.html" target="_top" xlink:title="Support Class for JKQTPCoordinateAxis, which summarizes all properties that define the visual styling...">
<polygon fill="white" stroke="#666666" points="1234,-518 1063,-518 1063,-497 1234,-497 1234,-518"/>
<text text-anchor="middle" x="1148.5" y="-504.4" font-family="Helvetica,sans-Serif" font-size="12.00">JKQTPCoordinateAxisStyle</text>
</a>
</g>
</g>
<!-- Node6&#45;&gt;Node4 -->
<g id="edge5_Node000004_Node000006" class="edge">
<title>Node6&#45;&gt;Node4</title>
<g id="a_edge5_Node000004_Node000006"><a xlink:title=" ">
<path fill="none" stroke="#9a32cd" stroke-dasharray="5,2" d="M1218.78,-494.81C1227.32,-492.88 1235.89,-490.77 1244,-488.5 1296.8,-473.72 1313.32,-475.26 1360,-446.5 1369.37,-440.73 1368.19,-434.49 1378,-429.5 1456.18,-389.77 1500.33,-444.03 1572,-393.5 1585.02,-384.32 1576.61,-371.13 1590,-362.5 1612.65,-347.9 1771.56,-336.68 1866.3,-331.2"/>
<polygon fill="#9a32cd" stroke="#9a32cd" points="1217.83,-491.43 1208.8,-496.98 1219.32,-498.27 1217.83,-491.43"/>
</a>
</g>
<text text-anchor="middle" x="1475" y="-445.9" font-family="Helvetica,sans-Serif" font-size="12.00" fill="grey"> xAxisStyle</text>
<text text-anchor="middle" x="1475" y="-432.9" font-family="Helvetica,sans-Serif" font-size="12.00" fill="grey">yAxisStyle</text>
</g>
<!-- Node8 -->
<g id="Node000008" class="node">
<title>Node8</title>
<g id="a_Node000008"><a xlink:href="class_j_k_q_t_p_colorbar_coordinate_axis_style.html" target="_top" xlink:title="Support Class for JKQTPCoordinateAxis, which summarizes all properties that define the visual styling...">
<polygon fill="white" stroke="#666666" points="1572,-498.5 1378,-498.5 1378,-464.5 1572,-464.5 1572,-498.5"/>
<text text-anchor="start" x="1386" y="-484.9" font-family="Helvetica,sans-Serif" font-size="12.00">JKQTPColorbarCoordinateAxis</text>
<text text-anchor="middle" x="1475" y="-471.9" font-family="Helvetica,sans-Serif" font-size="12.00">Style</text>
</a>
</g>
</g>
<!-- Node6&#45;&gt;Node8 -->
<g id="edge8_Node000008_Node000006" class="edge">
<title>Node6&#45;&gt;Node8</title>
<g id="a_edge8_Node000008_Node000006"><a xlink:title=" ">
<path fill="none" stroke="#63b8ff" d="M1244.56,-499.88C1286.54,-496.52 1335.81,-492.57 1377.91,-489.2"/>
<polygon fill="#63b8ff" stroke="#63b8ff" points="1244.02,-496.42 1234.33,-500.7 1244.58,-503.39 1244.02,-496.42"/>
</a>
</g>
</g>
<!-- Node6&#45;&gt;Node23 -->
<g id="edge34_Node000023_Node000006" class="edge">
<title>Node6&#45;&gt;Node23</title>
<g id="a_edge34_Node000023_Node000006"><a xlink:title=" ">
<path fill="none" stroke="#9a32cd" stroke-dasharray="5,2" d="M1193.52,-520.93C1255.48,-538.62 1372.24,-567.5 1474,-567.5 1474,-567.5 1474,-567.5 2330.5,-567.5 2445.14,-567.5 2576.39,-521.31 2630.8,-500.02"/>
<polygon fill="#9a32cd" stroke="#9a32cd" points="1194.27,-517.51 1183.69,-518.09 1192.33,-524.23 1194.27,-517.51"/>
</a>
</g>
<text text-anchor="middle" x="1938" y="-570.9" font-family="Helvetica,sans-Serif" font-size="12.00" fill="grey"> axisStyle</text>
</g>
<!-- Node7 -->
<g id="Node000007" class="node">
<title>Node7</title>
<g id="a_Node000007"><a xlink:href="class_j_k_q_t_p_grid_style.html" target="_top" xlink:title="Support Class for JKQTPCoordinateAxis, and summarizes all properties that define the visual styling o...">
<polygon fill="white" stroke="#666666" points="805.5,-518 698.5,-518 698.5,-497 805.5,-497 805.5,-518"/>
<text text-anchor="middle" x="752" y="-504.4" font-family="Helvetica,sans-Serif" font-size="12.00">JKQTPGridStyle</text>
</a>
</g>
</g>
<!-- Node7&#45;&gt;Node6 -->
<g id="edge6_Node000006_Node000007" class="edge">
<title>Node7&#45;&gt;Node6</title>
<g id="a_edge6_Node000006_Node000007"><a xlink:title=" ">
<path fill="none" stroke="#9a32cd" stroke-dasharray="5,2" d="M816.18,-507.5C883.03,-507.5 988.9,-507.5 1062.92,-507.5"/>
<polygon fill="#9a32cd" stroke="#9a32cd" points="815.79,-504 805.79,-507.5 815.79,-511 815.79,-504"/>
</a>
</g>
<text text-anchor="middle" x="948.5" y="-523.9" font-family="Helvetica,sans-Serif" font-size="12.00" fill="grey"> majorGridStyle</text>
<text text-anchor="middle" x="948.5" y="-510.9" font-family="Helvetica,sans-Serif" font-size="12.00" fill="grey">minorGridStyle</text>
</g>
<!-- Node8&#45;&gt;Node4 -->
<g id="edge7_Node000004_Node000008" class="edge">
<title>Node8&#45;&gt;Node4</title>
<g id="a_edge7_Node000004_Node000008"><a xlink:title=" ">
<path fill="none" stroke="#9a32cd" stroke-dasharray="5,2" d="M1560.26,-459.4C1564.45,-456.76 1568.4,-453.81 1572,-450.5 1587.25,-436.48 1574.16,-420.85 1590,-407.5 1592.9,-405.05 1795.79,-359.23 1889.95,-338.06"/>
<polygon fill="#9a32cd" stroke="#9a32cd" points="1558.37,-456.45 1551.36,-464.39 1561.8,-462.55 1558.37,-456.45"/>
</a>
</g>
<text text-anchor="middle" x="1691.5" y="-423.9" font-family="Helvetica,sans-Serif" font-size="12.00" fill="grey"> rightColorbarAxisStyle</text>
<text text-anchor="middle" x="1691.5" y="-410.9" font-family="Helvetica,sans-Serif" font-size="12.00" fill="grey">topColorbarAxisStyle</text>
</g>
<!-- Node9 -->
<g id="Node000009" class="node">
<title>Node9</title>
<g id="a_Node000009"><a xlink:href="class_j_k_q_t_graphs_base_style.html" target="_top" xlink:title="Support Class for JKQTBasePlotter, which summarizes all properties that define the visual styling of ...">
<polygon fill="white" stroke="#666666" points="1548,-384 1402,-384 1402,-363 1548,-363 1548,-384"/>
<text text-anchor="middle" x="1475" y="-370.4" font-family="Helvetica,sans-Serif" font-size="12.00">JKQTGraphsBaseStyle</text>
</a>
</g>
</g>
<!-- Node9&#45;&gt;Node4 -->
<g id="edge9_Node000004_Node000009" class="edge">
<title>Node9&#45;&gt;Node4</title>
<g id="a_edge9_Node000004_Node000009"><a xlink:title=" ">
<path fill="none" stroke="#9a32cd" stroke-dasharray="5,2" d="M1552.27,-359.29C1559.26,-356.35 1565.97,-352.79 1572,-348.5 1583.75,-340.13 1577.28,-328.31 1590,-321.5 1636.08,-296.84 1779.09,-308.36 1866.47,-318.35"/>
<polygon fill="#9a32cd" stroke="#9a32cd" points="1550.72,-356.14 1542.6,-362.94 1553.19,-362.69 1550.72,-356.14"/>
</a>
</g>
<text text-anchor="middle" x="1691.5" y="-324.9" font-family="Helvetica,sans-Serif" font-size="12.00" fill="grey"> graphsStyle</text>
</g>
<!-- Node10 -->
<g id="Node000010" class="node">
<title>Node10</title>
<g id="a_Node000010"><a xlink:href="class_j_k_q_t_graphs_specific_style_properties.html" target="_top" xlink:title="Support Class for JKQTBasePlotter, which summarizes all properties that define the visual styling of ...">
<polygon fill="white" stroke="#666666" points="623,-358 399,-358 399,-337 623,-337 623,-358"/>
<text text-anchor="middle" x="511" y="-344.4" font-family="Helvetica,sans-Serif" font-size="12.00">JKQTGraphsSpecificStyleProperties</text>
</a>
</g>
</g>
<!-- Node10&#45;&gt;Node9 -->
<g id="edge10_Node000009_Node000010" class="edge">
<title>Node10&#45;&gt;Node9</title>
<g id="a_edge10_Node000009_Node000010"><a xlink:title=" ">
<path fill="none" stroke="#9a32cd" stroke-dasharray="5,2" d="M633.28,-353.22C635.87,-353.32 638.45,-353.41 641,-353.5 922.37,-363.42 1257.38,-369.82 1401.84,-372.31"/>
<polygon fill="#9a32cd" stroke="#9a32cd" points="633.3,-349.72 623.17,-352.83 633.03,-356.71 633.3,-349.72"/>
</a>
</g>
<text text-anchor="middle" x="948.5" y="-393.9" font-family="Helvetica,sans-Serif" font-size="12.00" fill="grey"> boxplotStyle</text>
<text text-anchor="middle" x="948.5" y="-380.9" font-family="Helvetica,sans-Serif" font-size="12.00" fill="grey">defaultGraphStyle</text>
<text text-anchor="middle" x="948.5" y="-367.9" font-family="Helvetica,sans-Serif" font-size="12.00" fill="grey">filledStyle</text>
</g>
<!-- Node12 -->
<g id="Node000012" class="node">
<title>Node12</title>
<g id="a_Node000012"><a xlink:href="class_j_k_q_t_barchart_specific_style_properties.html" target="_top" xlink:title="Support Class for JKQTBasePlotter, which summarizes all properties that define the visual styling of ...">
<polygon fill="white" stroke="#666666" points="1035,-344.5 862,-344.5 862,-310.5 1035,-310.5 1035,-344.5"/>
<text text-anchor="start" x="870" y="-330.9" font-family="Helvetica,sans-Serif" font-size="12.00">JKQTBarchartSpecificStyle</text>
<text text-anchor="middle" x="948.5" y="-317.9" font-family="Helvetica,sans-Serif" font-size="12.00">Properties</text>
</a>
</g>
</g>
<!-- Node10&#45;&gt;Node12 -->
<g id="edge13_Node000012_Node000010" class="edge">
<title>Node10&#45;&gt;Node12</title>
<g id="a_edge13_Node000012_Node000010"><a xlink:title=" ">
<path fill="none" stroke="#63b8ff" d="M633.15,-341.94C705.82,-338.6 796.5,-334.43 861.76,-331.44"/>
<polygon fill="#63b8ff" stroke="#63b8ff" points="632.85,-338.45 623.02,-342.4 633.17,-345.44 632.85,-338.45"/>
</a>
</g>
</g>
<!-- Node13 -->
<g id="Node000013" class="node">
<title>Node13</title>
<g id="a_Node000013"><a xlink:href="class_j_k_q_t_impulse_specific_style_properties.html" target="_top" xlink:title="Support Class for JKQTBasePlotter, which summarizes all properties that define the visual styling of ...">
<polygon fill="white" stroke="#666666" points="1032.5,-300.5 864.5,-300.5 864.5,-266.5 1032.5,-266.5 1032.5,-300.5"/>
<text text-anchor="start" x="872.5" y="-286.9" font-family="Helvetica,sans-Serif" font-size="12.00">JKQTImpulseSpecificStyle</text>
<text text-anchor="middle" x="948.5" y="-273.9" font-family="Helvetica,sans-Serif" font-size="12.00">Properties</text>
</a>
</g>
</g>
<!-- Node10&#45;&gt;Node13 -->
<g id="edge15_Node000013_Node000010" class="edge">
<title>Node10&#45;&gt;Node13</title>
<g id="a_edge15_Node000013_Node000010"><a xlink:title=" ">
<path fill="none" stroke="#63b8ff" d="M594.09,-335.44C671.4,-324.07 786.64,-307.14 864.31,-295.73"/>
<polygon fill="#63b8ff" stroke="#63b8ff" points="593.3,-332.01 583.91,-336.93 594.32,-338.94 593.3,-332.01"/>
</a>
</g>
</g>
<!-- Node14 -->
<g id="Node000014" class="node">
<title>Node14</title>
<g id="a_Node000014"><a xlink:href="class_j_k_q_t_geometric_specific_style_properties.html" target="_top" xlink:title="Support Class for JKQTBasePlotter, which summarizes all properties that define the visual styling of ...">
<polygon fill="white" stroke="#666666" points="844,-438.5 660,-438.5 660,-404.5 844,-404.5 844,-438.5"/>
<text text-anchor="start" x="668" y="-424.9" font-family="Helvetica,sans-Serif" font-size="12.00">JKQTGeometricSpecificStyle</text>
<text text-anchor="middle" x="752" y="-411.9" font-family="Helvetica,sans-Serif" font-size="12.00">Properties</text>
</a>
</g>
</g>
<!-- Node10&#45;&gt;Node14 -->
<g id="edge17_Node000014_Node000010" class="edge">
<title>Node10&#45;&gt;Node14</title>
<g id="a_edge17_Node000014_Node000010"><a xlink:title=" ">
<path fill="none" stroke="#63b8ff" d="M555.59,-361C595.02,-373.21 653.28,-391.24 695.93,-404.45"/>
<polygon fill="#63b8ff" stroke="#63b8ff" points="556.58,-357.64 545.99,-358.02 554.51,-364.32 556.58,-357.64"/>
</a>
</g>
</g>
<!-- Node11 -->
<g id="Node000011" class="node">
<title>Node11</title>
<g id="a_Node000011"><a xlink:href="struct_j_k_q_t_p_color_derivation_mode.html" target="_top" xlink:title="Specifies how a fill&#45;color is derived from a given color.">
<polygon fill="white" stroke="#666666" points="179,-358 0,-358 0,-337 179,-337 179,-358"/>
<text text-anchor="middle" x="89.5" y="-344.4" font-family="Helvetica,sans-Serif" font-size="12.00">JKQTPColorDerivationMode</text>
</a>
</g>
</g>
<!-- Node11&#45;&gt;Node10 -->
<g id="edge11_Node000010_Node000011" class="edge">
<title>Node11&#45;&gt;Node10</title>
<g id="a_edge11_Node000010_Node000011"><a xlink:title=" ">
<path fill="none" stroke="#9a32cd" stroke-dasharray="5,2" d="M189.53,-347.5C252.41,-347.5 333.9,-347.5 398.97,-347.5"/>
<polygon fill="#9a32cd" stroke="#9a32cd" points="189.21,-344 179.21,-347.5 189.21,-351 189.21,-344"/>
</a>
</g>
<text text-anchor="middle" x="289" y="-402.9" font-family="Helvetica,sans-Serif" font-size="12.00" fill="grey"> errorColorDerivationMode</text>
<text text-anchor="middle" x="289" y="-389.9" font-family="Helvetica,sans-Serif" font-size="12.00" fill="grey">errorFillColorDerivationMode</text>
<text text-anchor="middle" x="289" y="-376.9" font-family="Helvetica,sans-Serif" font-size="12.00" fill="grey">fillColorDerivationMode</text>
<text text-anchor="middle" x="289" y="-363.9" font-family="Helvetica,sans-Serif" font-size="12.00" fill="grey">graphColorDerivationMode</text>
<text text-anchor="middle" x="289" y="-350.9" font-family="Helvetica,sans-Serif" font-size="12.00" fill="grey">symbolFillColorDerivationMode</text>
</g>
<!-- Node12&#45;&gt;Node9 -->
<g id="edge12_Node000009_Node000012" class="edge">
<title>Node12&#45;&gt;Node9</title>
<g id="a_edge12_Node000009_Node000012"><a xlink:title=" ">
<path fill="none" stroke="#9a32cd" stroke-dasharray="5,2" d="M1045.44,-329.28C1128.91,-331.84 1252.96,-338.13 1360,-353.5 1378.99,-356.23 1399.68,-359.7 1418.16,-362.99"/>
<polygon fill="#9a32cd" stroke="#9a32cd" points="1045.31,-325.77 1035.21,-328.97 1045.1,-332.77 1045.31,-325.77"/>
</a>
</g>
<text text-anchor="middle" x="1148.5" y="-342.9" font-family="Helvetica,sans-Serif" font-size="12.00" fill="grey"> barchartStyle</text>
</g>
<!-- Node13&#45;&gt;Node9 -->
<g id="edge14_Node000009_Node000013" class="edge">
<title>Node13&#45;&gt;Node9</title>
<g id="a_edge14_Node000009_Node000013"><a xlink:title=" ">
<path fill="none" stroke="#9a32cd" stroke-dasharray="5,2" d="M1042.94,-282.78C1128.36,-285.1 1256.74,-296.21 1360,-337.5 1368.71,-340.98 1369.37,-344.83 1378,-348.5 1391.95,-354.43 1407.65,-359.23 1422.26,-362.99"/>
<polygon fill="#9a32cd" stroke="#9a32cd" points="1042.82,-279.28 1032.74,-282.54 1042.66,-286.27 1042.82,-279.28"/>
</a>
</g>
<text text-anchor="middle" x="1148.5" y="-306.9" font-family="Helvetica,sans-Serif" font-size="12.00" fill="grey"> impulseStyle</text>
</g>
<!-- Node14&#45;&gt;Node9 -->
<g id="edge16_Node000009_Node000014" class="edge">
<title>Node14&#45;&gt;Node9</title>
<g id="a_edge16_Node000009_Node000014"><a xlink:title=" ">
<path fill="none" stroke="#9a32cd" stroke-dasharray="5,2" d="M826.63,-440.87C946.14,-468.1 1186.46,-505.03 1360,-415.5 1369.78,-410.45 1368.37,-403.83 1378,-398.5 1389.22,-392.28 1402.05,-387.57 1414.58,-384.01"/>
<polygon fill="#9a32cd" stroke="#9a32cd" points="827.37,-437.45 816.84,-438.6 825.79,-444.27 827.37,-437.45"/>
</a>
</g>
<text text-anchor="middle" x="1148.5" y="-474.9" font-family="Helvetica,sans-Serif" font-size="12.00" fill="grey"> geometricStyle</text>
</g>
<!-- Node15 -->
<g id="Node000015" class="node">
<title>Node15</title>
<g id="a_Node000015"><a xlink:href="class_j_k_q_t_annotations_specific_style_properties.html" target="_top" xlink:title="Support Class for JKQTBasePlotter, which summarizes all properties that define the visual styling of ...">
<polygon fill="white" stroke="#666666" points="1244,-429.5 1053,-429.5 1053,-395.5 1244,-395.5 1244,-429.5"/>
<text text-anchor="start" x="1061" y="-415.9" font-family="Helvetica,sans-Serif" font-size="12.00">JKQTAnnotationsSpecificStyle</text>
<text text-anchor="middle" x="1148.5" y="-402.9" font-family="Helvetica,sans-Serif" font-size="12.00">Properties</text>
</a>
</g>
</g>
<!-- Node14&#45;&gt;Node15 -->
<g id="edge19_Node000015_Node000014" class="edge">
<title>Node14&#45;&gt;Node15</title>
<g id="a_edge19_Node000015_Node000014"><a xlink:title=" ">
<path fill="none" stroke="#63b8ff" d="M854.07,-419.19C915.27,-417.8 992.83,-416.03 1052.84,-414.66"/>
<polygon fill="#63b8ff" stroke="#63b8ff" points="853.92,-415.7 844,-419.42 854.08,-422.69 853.92,-415.7"/>
</a>
</g>
</g>
<!-- Node15&#45;&gt;Node9 -->
<g id="edge18_Node000009_Node000015" class="edge">
<title>Node15&#45;&gt;Node9</title>
<g id="a_edge18_Node000009_Node000015"><a xlink:title=" ">
<path fill="none" stroke="#9a32cd" stroke-dasharray="5,2" d="M1254.39,-399.89C1302.57,-394.1 1358.51,-387.38 1401.86,-382.17"/>
<polygon fill="#9a32cd" stroke="#9a32cd" points="1253.74,-396.45 1244.23,-401.11 1254.58,-403.4 1253.74,-396.45"/>
</a>
</g>
<text text-anchor="middle" x="1311" y="-401.9" font-family="Helvetica,sans-Serif" font-size="12.00" fill="grey"> annotationStyle</text>
</g>
<!-- Node16&#45;&gt;Node2 -->
<g id="edge20_Node000002_Node000016" class="edge">
<title>Node16&#45;&gt;Node2</title>
<g id="a_edge20_Node000002_Node000016"><a xlink:title=" ">
<path fill="none" stroke="#9a32cd" stroke-dasharray="5,2" d="M1988.22,-419.23C2066.55,-398.12 2217.97,-357.3 2289.4,-338.04"/>
<polygon fill="#9a32cd" stroke="#9a32cd" points="1986.87,-415.97 1978.13,-421.95 1988.7,-422.73 1986.87,-415.97"/>
</a>
</g>
<text text-anchor="middle" x="2161.5" y="-394.9" font-family="Helvetica,sans-Serif" font-size="12.00" fill="grey"> mathText</text>
</g>
<!-- Node17 -->
<g id="Node000017" class="node">
<title>Node17</title>
<g id="a_Node000017"><a xlink:href="class_j_k_q_t_math_text_node.html" target="_top" xlink:title="subclass representing one node in the syntax tree">
<polygon fill="white" stroke="#666666" points="2395,-453 2264,-453 2264,-432 2395,-432 2395,-453"/>
<text text-anchor="middle" x="2329.5" y="-439.4" font-family="Helvetica,sans-Serif" font-size="12.00">JKQTMathTextNode</text>
</a>
</g>
</g>
<!-- Node16&#45;&gt;Node17 -->
<g id="edge23_Node000017_Node000016" class="edge">
<title>Node16&#45;&gt;Node17</title>
<g id="a_edge23_Node000017_Node000016"><a xlink:title=" ">
<path fill="none" stroke="#9a32cd" stroke-dasharray="5,2" d="M1997.69,-430.55C2058.39,-428.99 2155.91,-427.76 2240,-432.5 2247.72,-432.93 2255.8,-433.58 2263.8,-434.34"/>
<polygon fill="#9a32cd" stroke="#9a32cd" points="1997.43,-427.06 1987.53,-430.82 1997.62,-434.05 1997.43,-427.06"/>
</a>
</g>
<text text-anchor="middle" x="2161.5" y="-435.9" font-family="Helvetica,sans-Serif" font-size="12.00" fill="grey"> parentMathText</text>
</g>
<!-- Node17&#45;&gt;Node16 -->
<g id="edge22_Node000016_Node000017" class="edge">
<title>Node17&#45;&gt;Node16</title>
<g id="a_edge22_Node000016_Node000017"><a xlink:title=" ">
<path fill="none" stroke="#9a32cd" stroke-dasharray="5,2" d="M2253.64,-448.84C2249.03,-449.1 2244.45,-449.32 2240,-449.5 2170.28,-452.25 2152.66,-453.6 2083,-449.5 2051.08,-447.62 2015.4,-443.42 1987.53,-439.67"/>
<polygon fill="#9a32cd" stroke="#9a32cd" points="2254,-452.32 2263.77,-448.21 2253.57,-445.34 2254,-452.32"/>
</a>
</g>
<text text-anchor="middle" x="2161.5" y="-454.9" font-family="Helvetica,sans-Serif" font-size="12.00" fill="grey"> parsedNode</text>
</g>
<!-- Node17&#45;&gt;Node17 -->
<g id="edge24_Node000017_Node000017" class="edge">
<title>Node17&#45;&gt;Node17</title>
<g id="a_edge24_Node000017_Node000017"><a xlink:title=" ">
<path fill="none" stroke="#9a32cd" stroke-dasharray="5,2" d="M2302.59,-462.57C2304.67,-467.41 2313.64,-471 2329.5,-471 2354.88,-471 2362.61,-461.81 2352.7,-453.02"/>
<polygon fill="#9a32cd" stroke="#9a32cd" points="2305.95,-463.61 2306.3,-453.02 2299.42,-461.08 2305.95,-463.61"/>
</a>
</g>
<text text-anchor="middle" x="2329.5" y="-474.4" font-family="Helvetica,sans-Serif" font-size="12.00" fill="grey"> parentNode</text>
</g>
<!-- Node18 -->
<g id="Node000018" class="node">
<title>Node18</title>
<g id="a_Node000018"><a xlink:title=" ">
<polygon fill="white" stroke="#666666" points="1188.5,-215 1108.5,-215 1108.5,-194 1188.5,-194 1188.5,-215"/>
<text text-anchor="middle" x="1148.5" y="-201.4" font-family="Helvetica,sans-Serif" font-size="12.00">std::mutex</text>
</a>
</g>
</g>
<!-- Node18&#45;&gt;Node2 -->
<g id="edge45_Node000002_Node000018" class="edge">
<title>Node18&#45;&gt;Node2</title>
<g id="a_edge45_Node000002_Node000018"><a xlink:title=" ">
<path fill="none" stroke="#9a32cd" stroke-dasharray="5,2" d="M1198.5,-210.57C1218.21,-212.91 1241.17,-215.49 1262,-217.5 1497.61,-240.2 1557.54,-234.26 1793,-258.5 1968.3,-276.55 2174.93,-305.3 2272.33,-319.3"/>
<polygon fill="#9a32cd" stroke="#9a32cd" points="1198.85,-207.09 1188.51,-209.38 1198.02,-214.04 1198.85,-207.09"/>
</a>
</g>
<text text-anchor="middle" x="1691.5" y="-261.9" font-family="Helvetica,sans-Serif" font-size="12.00" fill="grey"> globalUserSettingsMutex</text>
</g>
<!-- Node18&#45;&gt;Node16 -->
<g id="edge25_Node000016_Node000018" class="edge">
<title>Node18&#45;&gt;Node16</title>
<g id="a_edge25_Node000016_Node000018"><a xlink:title=" ">
<path fill="none" stroke="#9a32cd" stroke-dasharray="5,2" d="M1179.02,-219.79C1201.53,-231.23 1233.42,-247 1262,-259.5 1312.66,-281.66 1324.84,-289.26 1378,-304.5 1462.38,-328.69 1507.68,-281.77 1572,-341.5 1594.59,-362.48 1566.19,-388.9 1590,-408.5 1612.5,-427.02 1798.3,-431.25 1888.39,-432.22"/>
<polygon fill="#9a32cd" stroke="#9a32cd" points="1180.49,-216.6 1169.99,-215.17 1177.3,-222.84 1180.49,-216.6"/>
</a>
</g>
<text text-anchor="middle" x="1475" y="-344.9" font-family="Helvetica,sans-Serif" font-size="12.00" fill="grey"> s_mutex</text>
</g>
<!-- Node31 -->
<g id="Node000031" class="node">
<title>Node31</title>
<g id="a_Node000031"><a xlink:href="class_j_k_q_t_p_synchronized.html" target="_top" xlink:title=" ">
<polygon fill="white" stroke="#666666" points="2065,-217.5 1811,-217.5 1811,-183.5 2065,-183.5 2065,-217.5"/>
<text text-anchor="start" x="1819" y="-203.9" font-family="Helvetica,sans-Serif" font-size="12.00">JKQTPSynchronized&lt;</text>
<text text-anchor="middle" x="1938" y="-190.9" font-family="Helvetica,sans-Serif" font-size="12.00"> QList&lt; JKQTPPaintDeviceAdapter * &gt; &gt;</text>
</a>
</g>
</g>
<!-- Node18&#45;&gt;Node31 -->
<g id="edge47_Node000031_Node000018" class="edge">
<title>Node18&#45;&gt;Node31</title>
<g id="a_edge47_Node000031_Node000018"><a xlink:title=" ">
<path fill="none" stroke="#9a32cd" stroke-dasharray="5,2" d="M1198.61,-204.25C1319.34,-203.64 1633.69,-202.04 1810.85,-201.14"/>
<polygon fill="#9a32cd" stroke="#9a32cd" points="1198.53,-200.75 1188.55,-204.3 1198.57,-207.75 1198.53,-200.75"/>
</a>
</g>
<text text-anchor="middle" x="1475" y="-205.9" font-family="Helvetica,sans-Serif" font-size="12.00" fill="grey"> m_mutex</text>
</g>
<!-- Node32 -->
<g id="Node000032" class="node">
<title>Node32</title>
<g id="a_Node000032"><a xlink:href="class_j_k_q_t_p_synchronized.html" target="_top" xlink:title="template class that wraps any datatype and combines it with a mutex, exposes the lock()/unlock() inte...">
<polygon fill="white" stroke="#666666" points="1558.5,-168 1391.5,-168 1391.5,-147 1558.5,-147 1558.5,-168"/>
<text text-anchor="middle" x="1475" y="-154.4" font-family="Helvetica,sans-Serif" font-size="12.00">JKQTPSynchronized&lt; T &gt;</text>
</a>
</g>
</g>
<!-- Node18&#45;&gt;Node32 -->
<g id="edge49_Node000032_Node000018" class="edge">
<title>Node18&#45;&gt;Node32</title>
<g id="a_edge49_Node000032_Node000018"><a xlink:title=" ">
<path fill="none" stroke="#9a32cd" stroke-dasharray="5,2" d="M1197.25,-191.46C1217.14,-186.44 1240.56,-181.07 1262,-177.5 1304.39,-170.45 1352,-165.68 1391.35,-162.57"/>
<polygon fill="#9a32cd" stroke="#9a32cd" points="1196.31,-188.09 1187.5,-193.96 1198.05,-194.87 1196.31,-188.09"/>
</a>
</g>
<text text-anchor="middle" x="1311" y="-180.9" font-family="Helvetica,sans-Serif" font-size="12.00" fill="grey"> m_mutex</text>
</g>
<!-- Node33 -->
<g id="Node000033" class="node">
<title>Node33</title>
<g id="a_Node000033"><a xlink:href="class_j_k_q_t_p_synchronized.html" target="_top" xlink:title=" ">
<polygon fill="white" stroke="#666666" points="2059,-133.5 1817,-133.5 1817,-99.5 2059,-99.5 2059,-133.5"/>
<text text-anchor="start" x="1825" y="-119.9" font-family="Helvetica,sans-Serif" font-size="12.00">JKQTPSynchronized&lt;</text>
<text text-anchor="middle" x="1938" y="-106.9" font-family="Helvetica,sans-Serif" font-size="12.00"> QList&lt; JKQTPSaveDataAdapter * &gt; &gt;</text>
</a>
</g>
</g>
<!-- Node18&#45;&gt;Node33 -->
<g id="edge51_Node000033_Node000018" class="edge">
<title>Node18&#45;&gt;Node33</title>
<g id="a_edge51_Node000033_Node000018"><a xlink:title=" ">
<path fill="none" stroke="#9a32cd" stroke-dasharray="5,2" d="M1182.95,-190.05C1226.83,-171.76 1306.65,-140.82 1378,-125.5 1558.69,-86.71 1608.51,-88.65 1793,-99.5 1800.79,-99.96 1808.81,-100.55 1816.88,-101.25"/>
<polygon fill="#9a32cd" stroke="#9a32cd" points="1181.49,-186.86 1173.63,-193.97 1184.2,-193.32 1181.49,-186.86"/>
</a>
</g>
<text text-anchor="middle" x="1475" y="-128.9" font-family="Helvetica,sans-Serif" font-size="12.00" fill="grey"> m_mutex</text>
</g>
<!-- Node19&#45;&gt;Node2 -->
<g id="edge26_Node000002_Node000019" class="edge">
<title>Node19&#45;&gt;Node2</title>
<g id="a_edge26_Node000002_Node000019"><a xlink:title=" ">
<path fill="none" stroke="#9a32cd" stroke-dasharray="5,2" d="M2593.92,-274.98C2532.79,-287.17 2440.77,-305.51 2383.24,-316.98"/>
<polygon fill="#9a32cd" stroke="#9a32cd" points="2594.71,-278.39 2603.84,-273 2593.34,-271.52 2594.71,-278.39"/>
</a>
</g>
<text text-anchor="middle" x="2475.5" y="-310.9" font-family="Helvetica,sans-Serif" font-size="12.00" fill="grey"> m_plotsModel</text>
</g>
<!-- Node20 -->
<g id="Node000020" class="node">
<title>Node20</title>
<g id="a_Node000020"><a xlink:title=" ">
<polygon fill="white" stroke="#666666" points="2401,-240 2258,-240 2258,-219 2401,-219 2401,-240"/>
<text text-anchor="middle" x="2329.5" y="-226.4" font-family="Helvetica,sans-Serif" font-size="12.00">QAbstractTableModel</text>
</a>
</g>
</g>
<!-- Node20&#45;&gt;Node19 -->
<g id="edge27_Node000019_Node000020" class="edge">
<title>Node20&#45;&gt;Node19</title>
<g id="a_edge27_Node000019_Node000020"><a xlink:title=" ">
<path fill="none" stroke="#63b8ff" d="M2411.23,-233.59C2448.12,-235.85 2492.34,-239.1 2532,-243.5 2552.32,-245.75 2574.4,-248.89 2594.25,-251.97"/>
<polygon fill="#63b8ff" stroke="#63b8ff" points="2411.22,-230.08 2401.03,-232.98 2410.81,-237.07 2411.22,-230.08"/>
</a>
</g>
</g>
<!-- Node21 -->
<g id="Node000021" class="node">
<title>Node21</title>
<g id="a_Node000021"><a xlink:href="class_j_k_q_t_p_horizontal_axis.html" target="_top" xlink:title="implements a horizontal axis, based on JKQTPCoordinateAxis (for most of documentation: see JKQTPCoord...">
<polygon fill="white" stroke="#666666" points="3177,-459 3040,-459 3040,-438 3177,-438 3177,-459"/>
<text text-anchor="middle" x="3108.5" y="-445.4" font-family="Helvetica,sans-Serif" font-size="12.00">JKQTPHorizontalAxis</text>
</a>
</g>
</g>
<!-- Node21&#45;&gt;Node2 -->
<g id="edge29_Node000002_Node000021" class="edge">
<title>Node21&#45;&gt;Node2</title>
<g id="a_edge29_Node000002_Node000021"><a xlink:title=" ">
<path fill="none" stroke="#9a32cd" stroke-dasharray="5,2" d="M3036.16,-436.37C3025.07,-434.64 3013.74,-432.95 3003,-431.5 2744.29,-396.53 2670.56,-438.3 2419,-368.5 2393.55,-361.44 2366.25,-347.76 2348.81,-338.15"/>
<polygon fill="#9a32cd" stroke="#9a32cd" points="3035.82,-439.86 3046.25,-437.97 3036.92,-432.95 3035.82,-439.86"/>
</a>
</g>
<text text-anchor="middle" x="2800.5" y="-418.9" font-family="Helvetica,sans-Serif" font-size="12.00" fill="grey"> xAxis</text>
</g>
<!-- Node22 -->
<g id="Node000022" class="node">
<title>Node22</title>
<g id="a_Node000022"><a xlink:href="class_j_k_q_t_p_horizontal_axis_base.html" target="_top" xlink:title="base class for horizontal axes, based on JKQTPCoordinateAxis (for most of documentation: see JKQTPCoo...">
<polygon fill="white" stroke="#666666" points="3003,-500 2836,-500 2836,-479 3003,-479 3003,-500"/>
<text text-anchor="middle" x="2919.5" y="-486.4" font-family="Helvetica,sans-Serif" font-size="12.00">JKQTPHorizontalAxisBase</text>
</a>
</g>
</g>
<!-- Node22&#45;&gt;Node21 -->
<g id="edge30_Node000021_Node000022" class="edge">
<title>Node22&#45;&gt;Node21</title>
<g id="a_edge30_Node000021_Node000022"><a xlink:title=" ">
<path fill="none" stroke="#63b8ff" d="M2978.74,-476.73C3004.69,-471.04 3034.88,-464.42 3059.51,-459.02"/>
<polygon fill="#63b8ff" stroke="#63b8ff" points="2977.68,-473.38 2968.66,-478.94 2979.17,-480.22 2977.68,-473.38"/>
</a>
</g>
</g>
<!-- Node23&#45;&gt;Node22 -->
<g id="edge31_Node000022_Node000023" class="edge">
<title>Node23&#45;&gt;Node22</title>
<g id="a_edge31_Node000022_Node000023"><a xlink:title=" ">
<path fill="none" stroke="#63b8ff" d="M2738.79,-489.5C2769.62,-489.5 2804.85,-489.5 2835.89,-489.5"/>
<polygon fill="#63b8ff" stroke="#63b8ff" points="2738.52,-486 2728.52,-489.5 2738.52,-493 2738.52,-486"/>
</a>
</g>
</g>
<!-- Node25 -->
<g id="Node000025" class="node">
<title>Node25</title>
<g id="a_Node000025"><a xlink:href="class_j_k_q_t_p_vertical_axis_base.html" target="_top" xlink:title="base class for vertical axes, based on JKQTPCoordinateAxis (for most of documentation: see JKQTPCoord...">
<polygon fill="white" stroke="#666666" points="2995,-461 2844,-461 2844,-440 2995,-440 2995,-461"/>
<text text-anchor="middle" x="2919.5" y="-447.4" font-family="Helvetica,sans-Serif" font-size="12.00">JKQTPVerticalAxisBase</text>
</a>
</g>
</g>
<!-- Node23&#45;&gt;Node25 -->
<g id="edge37_Node000025_Node000023" class="edge">
<title>Node23&#45;&gt;Node25</title>
<g id="a_edge37_Node000025_Node000023"><a xlink:title=" ">
<path fill="none" stroke="#63b8ff" d="M2738.72,-477.47C2773.78,-472.21 2814.53,-466.1 2848.36,-461.02"/>
<polygon fill="#63b8ff" stroke="#63b8ff" points="2737.89,-474.05 2728.52,-479 2738.93,-480.98 2737.89,-474.05"/>
</a>
</g>
</g>
<!-- Node24 -->
<g id="Node000024" class="node">
<title>Node24</title>
<g id="a_Node000024"><a xlink:href="class_j_k_q_t_p_vertical_axis.html" target="_top" xlink:title="implements a vertical axis for use as primary, secondary, ... axis of a JKQTPBasePlotter,...">
<polygon fill="white" stroke="#666666" points="3169.5,-408 3047.5,-408 3047.5,-387 3169.5,-387 3169.5,-408"/>
<text text-anchor="middle" x="3108.5" y="-394.4" font-family="Helvetica,sans-Serif" font-size="12.00">JKQTPVerticalAxis</text>
</a>
</g>
</g>
<!-- Node24&#45;&gt;Node2 -->
<g id="edge35_Node000002_Node000024" class="edge">
<title>Node24&#45;&gt;Node2</title>
<g id="a_edge35_Node000002_Node000024"><a xlink:title=" ">
<path fill="none" stroke="#9a32cd" stroke-dasharray="5,2" d="M3037.09,-392.35C2978.47,-388.07 2892.8,-381.84 2818,-376.5 2640.68,-363.85 2594.73,-375.33 2419,-348.5 2402.45,-345.97 2384.44,-341.94 2369,-338.08"/>
<polygon fill="#9a32cd" stroke="#9a32cd" points="3037.12,-395.86 3047.34,-393.09 3037.63,-388.88 3037.12,-395.86"/>
</a>
</g>
<text text-anchor="middle" x="2800.5" y="-379.9" font-family="Helvetica,sans-Serif" font-size="12.00" fill="grey"> yAxis</text>
</g>
<!-- Node25&#45;&gt;Node24 -->
<g id="edge36_Node000024_Node000025" class="edge">
<title>Node25&#45;&gt;Node24</title>
<g id="a_edge36_Node000024_Node000025"><a xlink:title=" ">
<path fill="none" stroke="#63b8ff" d="M2967.83,-437.08C2999.56,-428.09 3040.76,-416.42 3070.17,-408.08"/>
<polygon fill="#63b8ff" stroke="#63b8ff" points="2966.56,-433.81 2957.89,-439.9 2968.47,-440.54 2966.56,-433.81"/>
</a>
</g>
</g>
<!-- Node26 -->
<g id="Node000026" class="node">
<title>Node26</title>
<g id="a_Node000026"><a xlink:href="class_j_k_q_t_p_datastore.html" target="_top" xlink:title="This class manages data columns (with entries of type double ), used by JKQTPlotter/JKQTBasePlotter t...">
<polygon fill="white" stroke="#666666" points="1993.5,-81 1882.5,-81 1882.5,-60 1993.5,-60 1993.5,-81"/>
<text text-anchor="middle" x="1938" y="-67.4" font-family="Helvetica,sans-Serif" font-size="12.00">JKQTPDatastore</text>
</a>
</g>
</g>
<!-- Node26&#45;&gt;Node2 -->
<g id="edge38_Node000002_Node000026" class="edge">
<title>Node26&#45;&gt;Node2</title>
<g id="a_edge38_Node000002_Node000026"><a xlink:title=" ">
<path fill="none" stroke="#9a32cd" stroke-dasharray="5,2" d="M2003.88,-72.98C2024.29,-75.78 2046.35,-80.99 2065,-90.5 2075.08,-95.64 2073,-103.2 2083,-108.5 2145.78,-141.75 2190.48,-87.57 2240,-138.5 2274.84,-174.33 2236.36,-204.45 2258,-249.5 2271.6,-277.8 2298.75,-303.28 2315.1,-316.96"/>
<polygon fill="#9a32cd" stroke="#9a32cd" points="2004.05,-69.48 1993.71,-71.77 2003.22,-76.43 2004.05,-69.48"/>
</a>
</g>
<text text-anchor="middle" x="2161.5" y="-141.9" font-family="Helvetica,sans-Serif" font-size="12.00" fill="grey"> datastore</text>
</g>
<!-- Node28 -->
<g id="Node000028" class="node">
<title>Node28</title>
<g id="a_Node000028"><a xlink:href="class_j_k_q_t_p_column.html" target="_top" xlink:title="internally stores information about one data column. See JKQTPDatastore for more information.">
<polygon fill="white" stroke="#666666" points="2378.5,-110 2280.5,-110 2280.5,-89 2378.5,-89 2378.5,-110"/>
<text text-anchor="middle" x="2329.5" y="-96.4" font-family="Helvetica,sans-Serif" font-size="12.00">JKQTPColumn</text>
</a>
</g>
</g>
<!-- Node26&#45;&gt;Node28 -->
<g id="edge41_Node000028_Node000026" class="edge">
<title>Node26&#45;&gt;Node28</title>
<g id="a_edge41_Node000028_Node000026"><a xlink:title=" ">
<path fill="none" stroke="#9a32cd" stroke-dasharray="5,2" d="M2003.75,-75.32C2081.7,-81.12 2210.79,-90.74 2280.42,-95.92"/>
<polygon fill="#9a32cd" stroke="#9a32cd" points="2003.8,-71.82 1993.57,-74.56 2003.28,-78.8 2003.8,-71.82"/>
</a>
</g>
<text text-anchor="middle" x="2161.5" y="-94.9" font-family="Helvetica,sans-Serif" font-size="12.00" fill="grey"> datastore</text>
</g>
<!-- Node27 -->
<g id="Node000027" class="node">
<title>Node27</title>
<g id="a_Node000027"><a xlink:title=" ">
<polygon fill="white" stroke="#666666" points="2765,-68 2550,-68 2550,-47 2765,-47 2765,-68"/>
<text text-anchor="middle" x="2657.5" y="-54.4" font-family="Helvetica,sans-Serif" font-size="12.00">std::unique_ptr&lt; JKQTPColumn &gt;</text>
</a>
</g>
</g>
<!-- Node27&#45;&gt;Node26 -->
<g id="edge39_Node000026_Node000027" class="edge">
<title>Node27&#45;&gt;Node26</title>
<g id="a_edge39_Node000026_Node000027"><a xlink:title=" ">
<path fill="none" stroke="#9a32cd" stroke-dasharray="5,2" d="M2539.76,-59.62C2382.62,-62.46 2109.44,-67.41 1993.52,-69.51"/>
<polygon fill="#9a32cd" stroke="#9a32cd" points="2540,-63.11 2549.93,-59.43 2539.87,-56.11 2540,-63.11"/>
</a>
</g>
<text text-anchor="middle" x="2329.5" y="-67.9" font-family="Helvetica,sans-Serif" font-size="12.00" fill="grey"> m_invalidColumn</text>
</g>
<!-- Node28&#45;&gt;Node27 -->
<g id="edge40_Node000027_Node000028" class="edge">
<title>Node28&#45;&gt;Node27</title>
<g id="a_edge40_Node000027_Node000028"><a xlink:title=" ">
<path fill="none" stroke="#9a32cd" stroke-dasharray="5,2" d="M2388.64,-92.01C2440.51,-85.33 2517.02,-75.47 2575,-68"/>
<polygon fill="#9a32cd" stroke="#9a32cd" points="2388.07,-88.55 2378.6,-93.3 2388.97,-95.5 2388.07,-88.55"/>
</a>
</g>
<text text-anchor="middle" x="2475.5" y="-89.9" font-family="Helvetica,sans-Serif" font-size="12.00" fill="grey"> ptr</text>
</g>
<!-- Node29 -->
<g id="Node000029" class="node">
<title>Node29</title>
<g id="a_Node000029"><a xlink:title=" ">
<polygon fill="white" stroke="#666666" points="2399.5,-21 2259.5,-21 2259.5,0 2399.5,0 2399.5,-21"/>
<text text-anchor="middle" x="2329.5" y="-7.4" font-family="Helvetica,sans-Serif" font-size="12.00">std::unique_ptr&lt; T &gt;</text>
</a>
</g>
</g>
<!-- Node29&#45;&gt;Node27 -->
<g id="edge42_Node000027_Node000029" class="edge">
<title>Node29&#45;&gt;Node27</title>
<g id="a_edge42_Node000027_Node000029"><a xlink:title=" ">
<path fill="none" stroke="orange" stroke-dasharray="5,2" d="M2410.04,-16.28C2447.21,-19.52 2492.01,-24.2 2532,-30.5 2559.42,-34.82 2589.88,-41.39 2613.8,-46.97"/>
<polygon fill="orange" stroke="orange" points="2410.02,-12.76 2399.76,-15.4 2409.43,-19.74 2410.02,-12.76"/>
</a>
</g>
<text text-anchor="middle" x="2475.5" y="-33.9" font-family="Helvetica,sans-Serif" font-size="12.00" fill="grey"> &lt; JKQTPColumn &gt;</text>
</g>
<!-- Node30 -->
<g id="Node000030" class="node">
<title>Node30</title>
<g id="a_Node000030"><a xlink:title=" ">
<polygon fill="white" stroke="#666666" points="1952.5,-21 1923.5,-21 1923.5,0 1952.5,0 1952.5,-21"/>
<text text-anchor="middle" x="1938" y="-7.4" font-family="Helvetica,sans-Serif" font-size="12.00">T</text>
</a>
</g>
</g>
<!-- Node30&#45;&gt;Node29 -->
<g id="edge43_Node000029_Node000030" class="edge">
<title>Node30&#45;&gt;Node29</title>
<g id="a_edge43_Node000029_Node000030"><a xlink:title=" ">
<path fill="none" stroke="#9a32cd" stroke-dasharray="5,2" d="M1962.88,-10.5C2020.79,-10.5 2170.51,-10.5 2259.37,-10.5"/>
<polygon fill="#9a32cd" stroke="#9a32cd" points="1962.86,-7 1952.86,-10.5 1962.86,-14 1962.86,-7"/>
</a>
</g>
<text text-anchor="middle" x="2161.5" y="-13.9" font-family="Helvetica,sans-Serif" font-size="12.00" fill="grey"> ptr</text>
</g>
<!-- Node31&#45;&gt;Node2 -->
<g id="edge46_Node000002_Node000031" class="edge">
<title>Node31&#45;&gt;Node2</title>
<g id="a_edge46_Node000002_Node000031"><a xlink:title=" ">
<path fill="none" stroke="#9a32cd" stroke-dasharray="5,2" d="M2075.45,-196.35C2141.56,-196.76 2212.5,-201.55 2240,-218.5 2253.56,-226.86 2248.61,-236.63 2258,-249.5 2276.83,-275.3 2302.86,-302.28 2317.45,-316.76"/>
<polygon fill="#9a32cd" stroke="#9a32cd" points="2075.33,-192.85 2065.32,-196.32 2075.31,-199.85 2075.33,-192.85"/>
</a>
</g>
<text text-anchor="middle" x="2161.5" y="-221.9" font-family="Helvetica,sans-Serif" font-size="12.00" fill="grey"> jkqtpPaintDeviceAdapters</text>
</g>
<!-- Node32&#45;&gt;Node31 -->
<g id="edge48_Node000031_Node000032" class="edge">
<title>Node32&#45;&gt;Node31</title>
<g id="a_edge48_Node000031_Node000032"><a xlink:title=" ">
<path fill="none" stroke="orange" stroke-dasharray="5,2" d="M1569.2,-154.13C1632.58,-153.16 1718.19,-154.45 1793,-164.5 1822.5,-168.46 1854.69,-176.18 1881.14,-183.45"/>
<polygon fill="orange" stroke="orange" points="1568.76,-150.63 1558.82,-154.31 1568.88,-157.63 1568.76,-150.63"/>
</a>
</g>
<text text-anchor="start" x="1608" y="-180.9" font-family="Helvetica,sans-Serif" font-size="12.00" fill="grey"> &lt; QList&lt; JKQTPPaintDevice</text>
<text text-anchor="middle" x="1691.5" y="-167.9" font-family="Helvetica,sans-Serif" font-size="12.00" fill="grey">Adapter * &gt; &gt;</text>
</g>
<!-- Node32&#45;&gt;Node33 -->
<g id="edge52_Node000033_Node000032" class="edge">
<title>Node32&#45;&gt;Node33</title>
<g id="a_edge52_Node000033_Node000032"><a xlink:title=" ">
<path fill="none" stroke="orange" stroke-dasharray="5,2" d="M1506.98,-142.69C1529.45,-132.8 1560.88,-120.69 1590,-115.5 1664.58,-102.2 1749.62,-102.21 1816.84,-105.66"/>
<polygon fill="orange" stroke="orange" points="1505.31,-139.6 1497.63,-146.9 1508.19,-145.99 1505.31,-139.6"/>
</a>
</g>
<text text-anchor="start" x="1590" y="-131.9" font-family="Helvetica,sans-Serif" font-size="12.00" fill="grey"> &lt; QList&lt; JKQTPSaveDataAdapter</text>
<text text-anchor="middle" x="1691.5" y="-118.9" font-family="Helvetica,sans-Serif" font-size="12.00" fill="grey"> * &gt; &gt;</text>
</g>
<!-- Node33&#45;&gt;Node2 -->
<g id="edge50_Node000002_Node000033" class="edge">
<title>Node33&#45;&gt;Node2</title>
<g id="a_edge50_Node000002_Node000033"><a xlink:title=" ">
<path fill="none" stroke="#9a32cd" stroke-dasharray="5,2" d="M2005.54,-136.3C2029.77,-143.03 2057.48,-150.19 2083,-155.5 2117.52,-162.68 2213.82,-154.88 2240,-178.5 2264.17,-200.31 2242.63,-220.8 2258,-249.5 2272.91,-277.34 2299.86,-303.17 2315.77,-317"/>
<polygon fill="#9a32cd" stroke="#9a32cd" points="2006.31,-132.88 1995.74,-133.54 2004.42,-139.62 2006.31,-132.88"/>
</a>
</g>
<text text-anchor="middle" x="2161.5" y="-181.9" font-family="Helvetica,sans-Serif" font-size="12.00" fill="grey"> jkqtpSaveDataAdapters</text>
</g>
</g>
</svg>
