<?xml version="1.0" encoding="UTF-8" standalone="no"?>
<!DOCTYPE svg PUBLIC "-//W3C//DTD SVG 1.1//EN"
 "http://www.w3.org/Graphics/SVG/1.1/DTD/svg11.dtd">
<!-- Generated by graphviz version 2.43.0 (0)
 -->
<!-- Title: JKQTPMathParser::jkmpFunctionDescriptor Pages: 1 -->
<svg width="346pt" height="253pt"
 viewBox="0.00 0.00 346.00 253.00" xmlns="http://www.w3.org/2000/svg" xmlns:xlink="http://www.w3.org/1999/xlink">

<svg id="main" version="1.1" xmlns="http://www.w3.org/2000/svg" xmlns:xlink="http://www.w3.org/1999/xlink" xml:space="preserve" onload="init(evt)">
<style type="text/css"><![CDATA[
.node, .edge {opacity: 0.7;}
.node.selected, .edge.selected {opacity: 1;}
.edge:hover path { stroke: red; }
.edge:hover polygon { stroke: red; fill: red; }
]]></style>
<script type="application/ecmascript" xlink:href="svg.min.js"/>
<svg id="graph" class="graph">
<g id="graph0" class="graph" transform="scale(1 1) rotate(0) translate(4 249)">
<title>JKQTPMathParser::jkmpFunctionDescriptor</title>
<!-- Node1 -->
<g id="Node000001" class="node">
<title>Node1</title>
<g id="a_Node000001"><a xlink:title="description of a user registered function">
<polygon fill="#999999" stroke="#666666" points="207,-34 0,-34 0,0 207,0 207,-34"/>
<text text-anchor="start" x="8" y="-20.4" font-family="Helvetica,sans-Serif" font-size="12.00">JKQTPMathParser::jkmpFunction</text>
<text text-anchor="middle" x="103.5" y="-7.4" font-family="Helvetica,sans-Serif" font-size="12.00">Descriptor</text>
</a>
</g>
</g>
<!-- Node2 -->
<g id="Node000002" class="node">
<title>Node2</title>
<g id="a_Node000002"><a xlink:href="struct_j_k_q_t_p_math_parser_1_1jkmp_result.html" target="_top" xlink:title="result of any expression">
<polygon fill="white" stroke="#666666" points="338,-104 145,-104 145,-83 338,-83 338,-104"/>
<text text-anchor="middle" x="241.5" y="-90.4" font-family="Helvetica,sans-Serif" font-size="12.00">JKQTPMathParser::jkmpResult</text>
</a>
</g>
</g>
<!-- Node2&#45;&gt;Node1 -->
<g id="edge1_Node000001_Node000002" class="edge">
<title>Node2&#45;&gt;Node1</title>
<g id="a_edge1_Node000001_Node000002"><a xlink:title=" ">
<path fill="none" stroke="#9a32cd" stroke-dasharray="5,2" d="M214.73,-78.05C191.37,-65.44 157.5,-47.15 133.28,-34.08"/>
<polygon fill="#9a32cd" stroke="#9a32cd" points="213.28,-81.24 223.74,-82.91 216.6,-75.08 213.28,-81.24"/>
</a>
</g>
<text text-anchor="middle" x="215" y="-55.4" font-family="Helvetica,sans-Serif" font-size="12.00" fill="grey"> function</text>
</g>
<!-- Node3 -->
<g id="Node000003" class="node">
<title>Node3</title>
<g id="a_Node000003"><a xlink:title=" ">
<polygon fill="white" stroke="#666666" points="141.5,-174 65.5,-174 65.5,-153 141.5,-153 141.5,-174"/>
<text text-anchor="middle" x="103.5" y="-160.4" font-family="Helvetica,sans-Serif" font-size="12.00">std::string</text>
</a>
</g>
</g>
<!-- Node3&#45;&gt;Node1 -->
<g id="edge4_Node000001_Node000003" class="edge">
<title>Node3&#45;&gt;Node1</title>
<g id="a_edge4_Node000001_Node000003"><a xlink:title=" ">
<path fill="none" stroke="#9a32cd" stroke-dasharray="5,2" d="M100.99,-142.91C99.66,-131.56 98.16,-117 97.5,-104 96.25,-79.64 99.03,-51.43 101.21,-34.16"/>
<polygon fill="#9a32cd" stroke="#9a32cd" points="97.53,-143.5 102.22,-153 104.48,-142.65 97.53,-143.5"/>
</a>
</g>
<text text-anchor="middle" x="117" y="-90.4" font-family="Helvetica,sans-Serif" font-size="12.00" fill="grey"> name</text>
</g>
<!-- Node3&#45;&gt;Node2 -->
<g id="edge2_Node000002_Node000003" class="edge">
<title>Node3&#45;&gt;Node2</title>
<g id="a_edge2_Node000002_Node000003"><a xlink:title=" ">
<path fill="none" stroke="#9a32cd" stroke-dasharray="5,2" d="M132.28,-148.32C159.23,-135.04 198.74,-115.57 222.12,-104.05"/>
<polygon fill="#9a32cd" stroke="#9a32cd" points="130.4,-145.34 122.98,-152.9 133.5,-151.62 130.4,-145.34"/>
</a>
</g>
<text text-anchor="middle" x="194.5" y="-125.4" font-family="Helvetica,sans-Serif" font-size="12.00" fill="grey"> str</text>
</g>
<!-- Node4 -->
<g id="Node000004" class="node">
<title>Node4</title>
<g id="a_Node000004"><a xlink:title=" ">
<polygon fill="white" stroke="#666666" points="164.5,-245 42.5,-245 42.5,-211 164.5,-211 164.5,-245"/>
<text text-anchor="start" x="50.5" y="-231.4" font-family="Helvetica,sans-Serif" font-size="12.00">std::basic_string&lt;</text>
<text text-anchor="middle" x="103.5" y="-218.4" font-family="Helvetica,sans-Serif" font-size="12.00"> Char &gt;</text>
</a>
</g>
</g>
<!-- Node4&#45;&gt;Node3 -->
<g id="edge3_Node000003_Node000004" class="edge">
<title>Node4&#45;&gt;Node3</title>
<g id="a_edge3_Node000003_Node000004"><a xlink:title=" ">
<path fill="none" stroke="#63b8ff" d="M103.5,-200.78C103.5,-191.41 103.5,-181.42 103.5,-174.3"/>
<polygon fill="#63b8ff" stroke="#63b8ff" points="100,-200.9 103.5,-210.9 107,-200.9 100,-200.9"/>
</a>
</g>
</g>
</g>
</svg>
</svg>

<style type='text/css'>
<![CDATA[
[data-mouse-over-selected='false'] { opacity: 0.7; }
[data-mouse-over-selected='true']  { opacity: 1.0; }
]]>
</style>
<script type="application/ecmascript"><![CDATA[
document.addEventListener('DOMContentLoaded', (event) => {
  highlightEdges();
  highlightAdjacentNodes();
});
]]></script>
</svg>
