<?xml version="1.0" encoding="UTF-8" standalone="no"?>
<!DOCTYPE svg PUBLIC "-//W3C//DTD SVG 1.1//EN"
 "http://www.w3.org/Graphics/SVG/1.1/DTD/svg11.dtd">
<!-- Generated by graphviz version 2.43.0 (0)
 -->
<!-- Title: JKQTMathTextNodeSize Pages: 1 -->
<svg width="384pt" height="149pt"
 viewBox="0.00 0.00 384.00 149.00" xmlns="http://www.w3.org/2000/svg" xmlns:xlink="http://www.w3.org/1999/xlink">
<g id="graph0" class="graph" transform="scale(1 1) rotate(0) translate(4 145)">
<title>JKQTMathTextNodeSize</title>
<!-- Node1 -->
<g id="node1" class="node">
<title>Node1</title>
<g id="a_node1"><a xlink:title="beschreibt die Größe(n) eines Knotens">
<polygon fill="#bfbfbf" stroke="black" points="0,-60 0,-81 155,-81 155,-60 0,-60"/>
<text text-anchor="middle" x="77.5" y="-67.4" font-family="Helvetica,sans-Serif" font-size="12.00">JKQTMathTextNodeSize</text>
</a>
</g>
</g>
<!-- Node2 -->
<g id="node2" class="node">
<title>Node2</title>
<g id="a_node2"><a xlink:href="struct_j_k_q_t_math_text_matrix_node_1_1_layout_info.html" target="_top" xlink:title="describes the layout of the whole node">
<polygon fill="none" stroke="black" points="199.5,-106.5 199.5,-140.5 367.5,-140.5 367.5,-106.5 199.5,-106.5"/>
<text text-anchor="start" x="207.5" y="-126.9" font-family="Helvetica,sans-Serif" font-size="12.00">JKQTMathTextMatrixNode</text>
<text text-anchor="middle" x="283.5" y="-113.9" font-family="Helvetica,sans-Serif" font-size="12.00">::LayoutInfo</text>
</a>
</g>
</g>
<!-- Node1&#45;&gt;Node2 -->
<g id="edge1" class="edge">
<title>Node1&#45;&gt;Node2</title>
<path fill="none" stroke="midnightblue" d="M129.13,-83.65C155.65,-90.54 188.44,-99.06 216.88,-106.45"/>
<polygon fill="midnightblue" stroke="midnightblue" points="129.85,-80.23 119.29,-81.1 128.09,-87 129.85,-80.23"/>
</g>
<!-- Node3 -->
<g id="node3" class="node">
<title>Node3</title>
<g id="a_node3"><a xlink:href="struct_j_k_q_t_math_text_verbatim_node_1_1_layout_info.html" target="_top" xlink:title="describes the layout of the whole node">
<polygon fill="none" stroke="black" points="191,-53.5 191,-87.5 376,-87.5 376,-53.5 191,-53.5"/>
<text text-anchor="start" x="199" y="-73.9" font-family="Helvetica,sans-Serif" font-size="12.00">JKQTMathTextVerbatimNode</text>
<text text-anchor="middle" x="283.5" y="-60.9" font-family="Helvetica,sans-Serif" font-size="12.00">::LayoutInfo</text>
</a>
</g>
</g>
<!-- Node1&#45;&gt;Node3 -->
<g id="edge2" class="edge">
<title>Node1&#45;&gt;Node3</title>
<path fill="none" stroke="midnightblue" d="M165.24,-70.5C173.68,-70.5 182.25,-70.5 190.73,-70.5"/>
<polygon fill="midnightblue" stroke="midnightblue" points="165.04,-67 155.04,-70.5 165.04,-74 165.04,-67"/>
</g>
<!-- Node4 -->
<g id="node4" class="node">
<title>Node4</title>
<g id="a_node4"><a xlink:href="struct_j_k_q_t_math_text_vertical_list_node_1_1_layout_info.html" target="_top" xlink:title="describes the layout of the whole node">
<polygon fill="none" stroke="black" points="201.5,-0.5 201.5,-34.5 365.5,-34.5 365.5,-0.5 201.5,-0.5"/>
<text text-anchor="start" x="209.5" y="-20.9" font-family="Helvetica,sans-Serif" font-size="12.00">JKQTMathTextVerticalList</text>
<text text-anchor="middle" x="283.5" y="-7.9" font-family="Helvetica,sans-Serif" font-size="12.00">Node::LayoutInfo</text>
</a>
</g>
</g>
<!-- Node1&#45;&gt;Node4 -->
<g id="edge3" class="edge">
<title>Node1&#45;&gt;Node4</title>
<path fill="none" stroke="midnightblue" d="M129.13,-57.35C155.65,-50.46 188.44,-41.94 216.88,-34.55"/>
<polygon fill="midnightblue" stroke="midnightblue" points="128.09,-54 119.29,-59.9 129.85,-60.77 128.09,-54"/>
</g>
</g>
</svg>
